<?xml version="1.0" encoding="UTF-8" standalone="no"?>
<!DOCTYPE svg PUBLIC "-//W3C//DTD SVG 1.1//EN"
 "http://www.w3.org/Graphics/SVG/1.1/DTD/svg11.dtd">
<!-- Generated by graphviz version 2.38.0 (20140413.2041)
 -->
<!-- Title: /home/travis/build/PO&#45;31/QtReports/qtreports/src/tags/band.hpp Pages: 1 -->
<svg width="890pt" height="610pt"
 viewBox="0.00 0.00 890.00 610.00" xmlns="http://www.w3.org/2000/svg" xmlns:xlink="http://www.w3.org/1999/xlink">
<g id="graph0" class="graph" transform="scale(1 1) rotate(0) translate(4 606)">
<title>/home/travis/build/PO&#45;31/QtReports/qtreports/src/tags/band.hpp</title>
<!-- Node1 -->
<g id="node1" class="node"><title>Node1</title>
<polygon fill="#bfbfbf" stroke="black" points="381,-560.5 381,-601.5 527,-601.5 527,-560.5 381,-560.5"/>
<text text-anchor="start" x="389" y="-589.5" font-family="Helvetica,sans-Serif" font-size="10.00">/home/travis/build</text>
<text text-anchor="start" x="389" y="-578.5" font-family="Helvetica,sans-Serif" font-size="10.00">/PO&#45;31/QtReports/qtreports</text>
<text text-anchor="middle" x="454" y="-567.5" font-family="Helvetica,sans-Serif" font-size="10.00">/src/tags/band.hpp</text>
</g>
<!-- Node2 -->
<g id="node2" class="node"><title>Node2</title>
<polygon fill="none" stroke="#bfbfbf" points="101.5,-504.5 101.5,-523.5 156.5,-523.5 156.5,-504.5 101.5,-504.5"/>
<text text-anchor="middle" x="129" y="-511.5" font-family="Helvetica,sans-Serif" font-size="10.00">QVector</text>
</g>
<!-- Node1&#45;&gt;Node2 -->
<g id="edge1" class="edge"><title>Node1&#45;&gt;Node2</title>
<path fill="none" stroke="midnightblue" d="M380.729,-566.924C324.577,-556.643 244.951,-541.51 166.88,-524.339"/>
<polygon fill="midnightblue" stroke="midnightblue" points="167.393,-520.868 156.873,-522.125 165.881,-527.703 167.393,-520.868"/>
</g>
<!-- Node3 -->
<g id="node3" class="node"><title>Node3</title>
<polygon fill="none" stroke="#bfbfbf" points="610,-0.5 610,-19.5 702,-19.5 702,-0.5 610,-0.5"/>
<text text-anchor="middle" x="656" y="-7.5" font-family="Helvetica,sans-Serif" font-size="10.00">QSharedPointer</text>
</g>
<!-- Node1&#45;&gt;Node3 -->
<g id="edge2" class="edge"><title>Node1&#45;&gt;Node3</title>
<path fill="none" stroke="midnightblue" d="M527.09,-574.424C649.331,-563.065 882,-531.874 882,-459 882,-459 882,-459 882,-121 882,-45.5626 778.939,-21.8476 712.01,-14.4005"/>
<polygon fill="midnightblue" stroke="midnightblue" points="712.311,-10.9131 702.007,-13.3774 711.599,-17.8768 712.311,-10.9131"/>
</g>
<!-- Node4 -->
<g id="node4" class="node"><title>Node4</title>
<g id="a_node4"><a xlink:href="statictext_8hpp.html" target="_top" xlink:title="statictext.hpp">
<polygon fill="none" stroke="black" points="623.5,-280.5 623.5,-299.5 706.5,-299.5 706.5,-280.5 623.5,-280.5"/>
<text text-anchor="middle" x="665" y="-287.5" font-family="Helvetica,sans-Serif" font-size="10.00">statictext.hpp</text>
</a>
</g>
</g>
<!-- Node1&#45;&gt;Node4 -->
<g id="edge3" class="edge"><title>Node1&#45;&gt;Node4</title>
<path fill="none" stroke="midnightblue" d="M524.127,-560.366C570.955,-542.488 624,-510.804 624,-459 624,-459 624,-459 624,-401 624,-366.515 641.911,-329.562 654.057,-308.468"/>
<polygon fill="midnightblue" stroke="midnightblue" points="657.165,-310.09 659.299,-299.712 651.159,-306.494 657.165,-310.09"/>
</g>
<!-- Node7 -->
<g id="node7" class="node"><title>Node7</title>
<g id="a_node7"><a xlink:href="widget_8hpp.html" target="_top" xlink:title="widget.hpp">
<polygon fill="none" stroke="black" points="359,-168.5 359,-187.5 427,-187.5 427,-168.5 359,-168.5"/>
<text text-anchor="middle" x="393" y="-175.5" font-family="Helvetica,sans-Serif" font-size="10.00">widget.hpp</text>
</a>
</g>
</g>
<!-- Node1&#45;&gt;Node7 -->
<g id="edge40" class="edge"><title>Node1&#45;&gt;Node7</title>
<path fill="none" stroke="midnightblue" d="M424.414,-560.412C396.206,-539.129 358,-502.307 358,-459 358,-459 358,-459 358,-289 358,-255.072 373.307,-217.911 383.675,-196.631"/>
<polygon fill="midnightblue" stroke="midnightblue" points="386.882,-198.046 388.28,-187.544 380.638,-194.882 386.882,-198.046"/>
</g>
<!-- Node15 -->
<g id="node15" class="node"><title>Node15</title>
<g id="a_node15"><a xlink:href="textfield_8hpp.html" target="_top" xlink:title="textfield.hpp">
<polygon fill="none" stroke="black" points="178,-280.5 178,-299.5 254,-299.5 254,-280.5 178,-280.5"/>
<text text-anchor="middle" x="216" y="-287.5" font-family="Helvetica,sans-Serif" font-size="10.00">textfield.hpp</text>
</a>
</g>
</g>
<!-- Node1&#45;&gt;Node15 -->
<g id="edge23" class="edge"><title>Node1&#45;&gt;Node15</title>
<path fill="none" stroke="midnightblue" d="M382.551,-560.417C335.294,-542.625 282,-511.027 282,-459 282,-459 282,-459 282,-401 282,-370.775 277.733,-361.808 262,-336 255.144,-324.753 244.845,-314.32 235.73,-306.337"/>
<polygon fill="midnightblue" stroke="midnightblue" points="237.745,-303.46 227.824,-299.742 233.261,-308.836 237.745,-303.46"/>
</g>
<!-- Node16 -->
<g id="node16" class="node"><title>Node16</title>
<g id="a_node16"><a xlink:href="line_8hpp.html" target="_top" xlink:title="line.hpp">
<polygon fill="none" stroke="black" points="472,-224.5 472,-243.5 526,-243.5 526,-224.5 472,-224.5"/>
<text text-anchor="middle" x="499" y="-231.5" font-family="Helvetica,sans-Serif" font-size="10.00">line.hpp</text>
</a>
</g>
</g>
<!-- Node1&#45;&gt;Node16 -->
<g id="edge27" class="edge"><title>Node1&#45;&gt;Node16</title>
<path fill="none" stroke="midnightblue" d="M460.7,-560.135C468.105,-536.372 479,-495.252 479,-459 479,-459 479,-459 479,-345 479,-312.438 487.588,-275.315 493.509,-253.592"/>
<polygon fill="midnightblue" stroke="midnightblue" points="496.942,-254.317 496.303,-243.742 490.207,-252.408 496.942,-254.317"/>
</g>
<!-- Node17 -->
<g id="node17" class="node"><title>Node17</title>
<g id="a_node17"><a xlink:href="rect_8hpp.html" target="_top" xlink:title="rect.hpp">
<polygon fill="none" stroke="black" points="798,-224.5 798,-243.5 854,-243.5 854,-224.5 798,-224.5"/>
<text text-anchor="middle" x="826" y="-231.5" font-family="Helvetica,sans-Serif" font-size="10.00">rect.hpp</text>
</a>
</g>
</g>
<!-- Node1&#45;&gt;Node17 -->
<g id="edge30" class="edge"><title>Node1&#45;&gt;Node17</title>
<path fill="none" stroke="midnightblue" d="M527.161,-567.959C623.276,-550.029 780,-512.578 780,-459 780,-459 780,-459 780,-345 780,-309.817 800.278,-272.863 813.907,-251.999"/>
<polygon fill="midnightblue" stroke="midnightblue" points="816.881,-253.848 819.604,-243.609 811.09,-249.916 816.881,-253.848"/>
</g>
<!-- Node18 -->
<g id="node18" class="node"><title>Node18</title>
<g id="a_node18"><a xlink:href="ellipse_8hpp.html" target="_top" xlink:title="ellipse.hpp">
<polygon fill="none" stroke="black" points="386,-224.5 386,-243.5 454,-243.5 454,-224.5 386,-224.5"/>
<text text-anchor="middle" x="420" y="-231.5" font-family="Helvetica,sans-Serif" font-size="10.00">ellipse.hpp</text>
</a>
</g>
</g>
<!-- Node1&#45;&gt;Node18 -->
<g id="edge33" class="edge"><title>Node1&#45;&gt;Node18</title>
<path fill="none" stroke="midnightblue" d="M447.568,-560.115C440.459,-536.333 430,-495.193 430,-459 430,-459 430,-459 430,-345 430,-312.816 425.702,-275.552 422.741,-253.702"/>
<polygon fill="midnightblue" stroke="midnightblue" points="426.169,-252.947 421.307,-243.534 419.238,-253.925 426.169,-252.947"/>
</g>
<!-- Node19 -->
<g id="node19" class="node"><title>Node19</title>
<g id="a_node19"><a xlink:href="image_8hpp.html" target="_top" xlink:title="image.hpp">
<polygon fill="none" stroke="black" points="537,-280.5 537,-299.5 605,-299.5 605,-280.5 537,-280.5"/>
<text text-anchor="middle" x="571" y="-287.5" font-family="Helvetica,sans-Serif" font-size="10.00">image.hpp</text>
</a>
</g>
</g>
<!-- Node1&#45;&gt;Node19 -->
<g id="edge36" class="edge"><title>Node1&#45;&gt;Node19</title>
<path fill="none" stroke="midnightblue" d="M481.492,-560.194C507.959,-538.602 544,-501.413 544,-459 544,-459 544,-459 544,-401 544,-367.861 555.701,-330.682 563.697,-309.144"/>
<polygon fill="midnightblue" stroke="midnightblue" points="567.022,-310.252 567.359,-299.662 560.491,-307.73 567.022,-310.252"/>
</g>
<!-- Node21 -->
<g id="node21" class="node"><title>Node21</title>
<g id="a_node21"><a xlink:href="crosstab_8hpp.html" target="_top" xlink:title="crosstab.hpp">
<polygon fill="none" stroke="black" points="174.5,-504.5 174.5,-523.5 253.5,-523.5 253.5,-504.5 174.5,-504.5"/>
<text text-anchor="middle" x="214" y="-511.5" font-family="Helvetica,sans-Serif" font-size="10.00">crosstab.hpp</text>
</a>
</g>
</g>
<!-- Node1&#45;&gt;Node21 -->
<g id="edge41" class="edge"><title>Node1&#45;&gt;Node21</title>
<path fill="none" stroke="midnightblue" d="M381.992,-560.498C340.647,-549.3 290.202,-535.638 255.443,-526.224"/>
<polygon fill="midnightblue" stroke="midnightblue" points="256.2,-522.803 245.632,-523.567 254.37,-529.56 256.2,-522.803"/>
</g>
<!-- Node4&#45;&gt;Node3 -->
<g id="edge4" class="edge"><title>Node4&#45;&gt;Node3</title>
<path fill="none" stroke="midnightblue" d="M690.037,-280.494C707.837,-273.292 731.132,-261.343 746,-244 766.043,-220.62 770,-209.795 770,-179 770,-179 770,-179 770,-121 770,-90.2048 766.546,-78.9391 746,-56 732.527,-40.9581 712.872,-30.3253 695.364,-23.1867"/>
<polygon fill="midnightblue" stroke="midnightblue" points="696.501,-19.8747 685.911,-19.5744 694.003,-26.4135 696.501,-19.8747"/>
</g>
<!-- Node5 -->
<g id="node5" class="node"><title>Node5</title>
<g id="a_node5"><a xlink:href="textwidget_8hpp.html" target="_top" xlink:title="textwidget.hpp">
<polygon fill="none" stroke="black" points="616.5,-224.5 616.5,-243.5 703.5,-243.5 703.5,-224.5 616.5,-224.5"/>
<text text-anchor="middle" x="660" y="-231.5" font-family="Helvetica,sans-Serif" font-size="10.00">textwidget.hpp</text>
</a>
</g>
</g>
<!-- Node4&#45;&gt;Node5 -->
<g id="edge5" class="edge"><title>Node4&#45;&gt;Node5</title>
<path fill="none" stroke="midnightblue" d="M664.174,-280.083C663.519,-273.006 662.58,-262.861 661.758,-253.986"/>
<polygon fill="midnightblue" stroke="midnightblue" points="665.217,-253.386 660.81,-243.751 658.247,-254.031 665.217,-253.386"/>
</g>
<!-- Node5&#45;&gt;Node3 -->
<g id="edge7" class="edge"><title>Node5&#45;&gt;Node3</title>
<path fill="none" stroke="midnightblue" d="M662.482,-224.467C664.957,-215.485 668.585,-200.888 670,-188 676.402,-129.684 678.814,-114.001 670,-56 668.632,-47.001 665.81,-37.3251 663.055,-29.2601"/>
<polygon fill="midnightblue" stroke="midnightblue" points="666.312,-27.9759 659.6,-19.7782 659.735,-30.3722 666.312,-27.9759"/>
</g>
<!-- Node6 -->
<g id="node6" class="node"><title>Node6</title>
<polygon fill="none" stroke="#bfbfbf" points="171.5,-0.5 171.5,-19.5 224.5,-19.5 224.5,-0.5 171.5,-0.5"/>
<text text-anchor="middle" x="198" y="-7.5" font-family="Helvetica,sans-Serif" font-size="10.00">QString</text>
</g>
<!-- Node5&#45;&gt;Node6 -->
<g id="edge6" class="edge"><title>Node5&#45;&gt;Node6</title>
<path fill="none" stroke="midnightblue" d="M652.605,-224.304C633.442,-202.299 579.699,-143.893 523,-112 426.611,-57.7818 297.436,-28.8547 234.943,-17.2191"/>
<polygon fill="midnightblue" stroke="midnightblue" points="235.251,-13.7178 224.786,-15.3718 233.999,-20.6048 235.251,-13.7178"/>
</g>
<!-- Node5&#45;&gt;Node7 -->
<g id="edge8" class="edge"><title>Node5&#45;&gt;Node7</title>
<path fill="none" stroke="midnightblue" d="M617.693,-224.444C568.307,-214.455 487.026,-198.016 436.946,-187.888"/>
<polygon fill="midnightblue" stroke="midnightblue" points="437.556,-184.44 427.06,-185.889 436.168,-191.302 437.556,-184.44"/>
</g>
<!-- Node7&#45;&gt;Node3 -->
<g id="edge13" class="edge"><title>Node7&#45;&gt;Node3</title>
<path fill="none" stroke="midnightblue" d="M427.012,-169.418C454.284,-162.379 492.846,-150.215 523,-132 565.254,-106.476 567.328,-89.0473 604,-56 615.225,-45.8846 628.06,-34.7723 638.171,-26.1211"/>
<polygon fill="midnightblue" stroke="midnightblue" points="640.588,-28.6599 645.927,-19.5089 636.046,-23.3329 640.588,-28.6599"/>
</g>
<!-- Node7&#45;&gt;Node6 -->
<g id="edge9" class="edge"><title>Node7&#45;&gt;Node6</title>
<path fill="none" stroke="midnightblue" d="M358.815,-172.742C313.162,-166.332 235.835,-152.706 217,-132 191.448,-103.91 192.299,-56.1321 195.151,-29.8012"/>
<polygon fill="midnightblue" stroke="midnightblue" points="198.652,-30.0216 196.469,-19.654 191.71,-29.1196 198.652,-30.0216"/>
</g>
<!-- Node8 -->
<g id="node8" class="node"><title>Node8</title>
<polygon fill="none" stroke="#bfbfbf" points="342,-112.5 342,-131.5 390,-131.5 390,-112.5 342,-112.5"/>
<text text-anchor="middle" x="366" y="-119.5" font-family="Helvetica,sans-Serif" font-size="10.00">QPoint</text>
</g>
<!-- Node7&#45;&gt;Node8 -->
<g id="edge10" class="edge"><title>Node7&#45;&gt;Node8</title>
<path fill="none" stroke="midnightblue" d="M388.541,-168.083C384.846,-160.691 379.477,-149.953 374.906,-140.811"/>
<polygon fill="midnightblue" stroke="midnightblue" points="377.978,-139.13 370.376,-131.751 371.717,-142.261 377.978,-139.13"/>
</g>
<!-- Node9 -->
<g id="node9" class="node"><title>Node9</title>
<polygon fill="none" stroke="#bfbfbf" points="408,-112.5 408,-131.5 452,-131.5 452,-112.5 408,-112.5"/>
<text text-anchor="middle" x="430" y="-119.5" font-family="Helvetica,sans-Serif" font-size="10.00">QSize</text>
</g>
<!-- Node7&#45;&gt;Node9 -->
<g id="edge11" class="edge"><title>Node7&#45;&gt;Node9</title>
<path fill="none" stroke="midnightblue" d="M399.11,-168.083C404.282,-160.534 411.846,-149.495 418.194,-140.23"/>
<polygon fill="midnightblue" stroke="midnightblue" points="421.239,-141.979 424.004,-131.751 415.464,-138.022 421.239,-141.979"/>
</g>
<!-- Node10 -->
<g id="node10" class="node"><title>Node10</title>
<polygon fill="none" stroke="#bfbfbf" points="470,-112.5 470,-131.5 514,-131.5 514,-112.5 470,-112.5"/>
<text text-anchor="middle" x="492" y="-119.5" font-family="Helvetica,sans-Serif" font-size="10.00">QRect</text>
</g>
<!-- Node7&#45;&gt;Node10 -->
<g id="edge12" class="edge"><title>Node7&#45;&gt;Node10</title>
<path fill="none" stroke="midnightblue" d="M408.906,-168.324C424.638,-159.743 448.942,-146.486 467.209,-136.522"/>
<polygon fill="midnightblue" stroke="midnightblue" points="469.03,-139.516 476.133,-131.655 465.678,-133.37 469.03,-139.516"/>
</g>
<!-- Node11 -->
<g id="node11" class="node"><title>Node11</title>
<g id="a_node11"><a xlink:href="style_8hpp.html" target="_top" xlink:title="style.hpp">
<polygon fill="none" stroke="black" points="226,-112.5 226,-131.5 286,-131.5 286,-112.5 226,-112.5"/>
<text text-anchor="middle" x="256" y="-119.5" font-family="Helvetica,sans-Serif" font-size="10.00">style.hpp</text>
</a>
</g>
</g>
<!-- Node7&#45;&gt;Node11 -->
<g id="edge14" class="edge"><title>Node7&#45;&gt;Node11</title>
<path fill="none" stroke="midnightblue" d="M371.292,-168.444C348.645,-159.517 312.928,-145.439 287.248,-135.317"/>
<polygon fill="midnightblue" stroke="midnightblue" points="288.193,-131.927 277.606,-131.516 285.626,-138.44 288.193,-131.927"/>
</g>
<!-- Node13 -->
<g id="node13" class="node"><title>Node13</title>
<g id="a_node13"><a xlink:href="object_8hpp.html" target="_top" xlink:title="object.hpp">
<polygon fill="none" stroke="black" points="64.5,-56.5 64.5,-75.5 131.5,-75.5 131.5,-56.5 64.5,-56.5"/>
<text text-anchor="middle" x="98" y="-63.5" font-family="Helvetica,sans-Serif" font-size="10.00">object.hpp</text>
</a>
</g>
</g>
<!-- Node7&#45;&gt;Node13 -->
<g id="edge22" class="edge"><title>Node7&#45;&gt;Node13</title>
<path fill="none" stroke="midnightblue" d="M358.635,-174.195C316.001,-169.7 241.869,-158.515 184,-132 157.051,-119.652 130.528,-97.7014 114.22,-82.7576"/>
<polygon fill="midnightblue" stroke="midnightblue" points="116.36,-79.9656 106.675,-75.6695 111.567,-85.0674 116.36,-79.9656"/>
</g>
<!-- Node11&#45;&gt;Node3 -->
<g id="edge17" class="edge"><title>Node11&#45;&gt;Node3</title>
<path fill="none" stroke="midnightblue" d="M281.699,-112.429C321.119,-99.4233 398.99,-74.2836 466,-56 513.432,-43.0582 568.106,-30.3365 606.591,-21.7396"/>
<polygon fill="midnightblue" stroke="midnightblue" points="607.501,-25.1228 616.503,-19.5365 605.982,-18.2896 607.501,-25.1228"/>
</g>
<!-- Node11&#45;&gt;Node6 -->
<g id="edge15" class="edge"><title>Node11&#45;&gt;Node6</title>
<path fill="none" stroke="midnightblue" d="M251.449,-112.368C241.962,-94.376 219.908,-52.5503 207.294,-28.6267"/>
<polygon fill="midnightblue" stroke="midnightblue" points="210.29,-26.8047 202.53,-19.5914 204.098,-30.0696 210.29,-26.8047"/>
</g>
<!-- Node12 -->
<g id="node12" class="node"><title>Node12</title>
<polygon fill="none" stroke="#bfbfbf" points="264.5,-56.5 264.5,-75.5 313.5,-75.5 313.5,-56.5 264.5,-56.5"/>
<text text-anchor="middle" x="289" y="-63.5" font-family="Helvetica,sans-Serif" font-size="10.00">QColor</text>
</g>
<!-- Node11&#45;&gt;Node12 -->
<g id="edge16" class="edge"><title>Node11&#45;&gt;Node12</title>
<path fill="none" stroke="midnightblue" d="M261.449,-112.083C266.014,-104.613 272.668,-93.7244 278.293,-84.5199"/>
<polygon fill="midnightblue" stroke="midnightblue" points="281.424,-86.109 283.652,-75.7511 275.451,-82.4588 281.424,-86.109"/>
</g>
<!-- Node11&#45;&gt;Node13 -->
<g id="edge18" class="edge"><title>Node11&#45;&gt;Node13</title>
<path fill="none" stroke="midnightblue" d="M230.964,-112.444C204.384,-103.359 162.191,-88.9388 132.477,-78.7831"/>
<polygon fill="midnightblue" stroke="midnightblue" points="133.513,-75.4386 122.918,-75.5164 131.249,-82.0625 133.513,-75.4386"/>
</g>
<!-- Node13&#45;&gt;Node3 -->
<g id="edge21" class="edge"><title>Node13&#45;&gt;Node3</title>
<path fill="none" stroke="midnightblue" d="M131.649,-61.7437C224.396,-52.7682 484.448,-27.6018 599.744,-16.4442"/>
<polygon fill="midnightblue" stroke="midnightblue" points="600.162,-19.9201 609.779,-15.473 599.488,-12.9526 600.162,-19.9201"/>
</g>
<!-- Node13&#45;&gt;Node6 -->
<g id="edge19" class="edge"><title>Node13&#45;&gt;Node6</title>
<path fill="none" stroke="midnightblue" d="M114.067,-56.324C129.958,-47.7428 154.507,-34.486 172.958,-24.5224"/>
<polygon fill="midnightblue" stroke="midnightblue" points="174.837,-27.4857 181.973,-19.6545 171.511,-21.3264 174.837,-27.4857"/>
</g>
<!-- Node14 -->
<g id="node14" class="node"><title>Node14</title>
<polygon fill="none" stroke="#bfbfbf" points="69,-0.5 69,-19.5 127,-19.5 127,-0.5 69,-0.5"/>
<text text-anchor="middle" x="98" y="-7.5" font-family="Helvetica,sans-Serif" font-size="10.00">QVariant</text>
</g>
<!-- Node13&#45;&gt;Node14 -->
<g id="edge20" class="edge"><title>Node13&#45;&gt;Node14</title>
<path fill="none" stroke="midnightblue" d="M98,-56.083C98,-49.0059 98,-38.8611 98,-29.9865"/>
<polygon fill="midnightblue" stroke="midnightblue" points="101.5,-29.751 98,-19.7511 94.5001,-29.7511 101.5,-29.751"/>
</g>
<!-- Node15&#45;&gt;Node3 -->
<g id="edge25" class="edge"><title>Node15&#45;&gt;Node3</title>
<path fill="none" stroke="midnightblue" d="M219.172,-280.497C230.202,-252.094 269.708,-159.606 333,-112 333.185,-111.861 534.258,-49.0336 619.019,-22.5528"/>
<polygon fill="midnightblue" stroke="midnightblue" points="620.257,-25.8331 628.758,-19.5103 618.169,-19.1516 620.257,-25.8331"/>
</g>
<!-- Node15&#45;&gt;Node5 -->
<g id="edge26" class="edge"><title>Node15&#45;&gt;Node5</title>
<path fill="none" stroke="midnightblue" d="M254.106,-285.3C322.428,-278.517 470.5,-263.143 606.194,-244.043"/>
<polygon fill="midnightblue" stroke="midnightblue" points="606.947,-247.471 616.356,-242.602 605.964,-240.54 606.947,-247.471"/>
</g>
<!-- Node15&#45;&gt;Node6 -->
<g id="edge24" class="edge"><title>Node15&#45;&gt;Node6</title>
<path fill="none" stroke="midnightblue" d="M207.977,-280.358C192.492,-262.738 160,-220.788 160,-179 160,-179 160,-179 160,-121 160,-86.8131 176.6,-49.7639 187.857,-28.5707"/>
<polygon fill="midnightblue" stroke="midnightblue" points="190.947,-30.2151 192.716,-19.769 184.819,-26.832 190.947,-30.2151"/>
</g>
<!-- Node16&#45;&gt;Node3 -->
<g id="edge28" class="edge"><title>Node16&#45;&gt;Node3</title>
<path fill="none" stroke="midnightblue" d="M526.284,-225.432C563.148,-214.959 625.079,-196.392 632,-188 669.936,-142.004 664.427,-65.259 659.332,-29.897"/>
<polygon fill="midnightblue" stroke="midnightblue" points="662.72,-28.9167 657.684,-19.5953 655.808,-30.0228 662.72,-28.9167"/>
</g>
<!-- Node16&#45;&gt;Node7 -->
<g id="edge29" class="edge"><title>Node16&#45;&gt;Node7</title>
<path fill="none" stroke="midnightblue" d="M481.969,-224.324C464.97,-215.664 438.624,-202.242 419.007,-192.249"/>
<polygon fill="midnightblue" stroke="midnightblue" points="420.488,-189.075 409.988,-187.655 417.31,-195.312 420.488,-189.075"/>
</g>
<!-- Node17&#45;&gt;Node3 -->
<g id="edge31" class="edge"><title>Node17&#45;&gt;Node3</title>
<path fill="none" stroke="midnightblue" d="M826.631,-224.327C828.185,-196.169 829.215,-106.235 784,-56 765.567,-35.5204 737.255,-24.3609 711.941,-18.2802"/>
<polygon fill="midnightblue" stroke="midnightblue" points="712.565,-14.8341 702.048,-16.1172 711.07,-21.6725 712.565,-14.8341"/>
</g>
<!-- Node17&#45;&gt;Node7 -->
<g id="edge32" class="edge"><title>Node17&#45;&gt;Node7</title>
<path fill="none" stroke="midnightblue" d="M797.923,-229.499C724.465,-220.337 526.15,-195.605 437.21,-184.514"/>
<polygon fill="midnightblue" stroke="midnightblue" points="437.531,-181.027 427.175,-183.262 436.665,-187.973 437.531,-181.027"/>
</g>
<!-- Node18&#45;&gt;Node3 -->
<g id="edge34" class="edge"><title>Node18&#45;&gt;Node3</title>
<path fill="none" stroke="midnightblue" d="M432.29,-224.359C455.917,-207.552 508.971,-168.869 550,-132 575.717,-108.89 581.176,-101.972 604,-76 617.952,-60.124 632.934,-41.1735 643.216,-27.8427"/>
<polygon fill="midnightblue" stroke="midnightblue" points="646.212,-29.6862 649.512,-19.6185 640.654,-25.4308 646.212,-29.6862"/>
</g>
<!-- Node18&#45;&gt;Node7 -->
<g id="edge35" class="edge"><title>Node18&#45;&gt;Node7</title>
<path fill="none" stroke="midnightblue" d="M415.541,-224.083C411.846,-216.691 406.477,-205.953 401.906,-196.811"/>
<polygon fill="midnightblue" stroke="midnightblue" points="404.978,-195.13 397.376,-187.751 398.717,-198.261 404.978,-195.13"/>
</g>
<!-- Node19&#45;&gt;Node3 -->
<g id="edge38" class="edge"><title>Node19&#45;&gt;Node3</title>
<path fill="none" stroke="midnightblue" d="M605.081,-282.063C642.075,-273.886 697.904,-259.44 713,-244 734.042,-222.48 732,-209.098 732,-179 732,-179 732,-179 732,-121 732,-81.2757 698.036,-45.5045 675.518,-26.1536"/>
<polygon fill="midnightblue" stroke="midnightblue" points="677.482,-23.2364 667.543,-19.5672 673.024,-28.6337 677.482,-23.2364"/>
</g>
<!-- Node19&#45;&gt;Node5 -->
<g id="edge39" class="edge"><title>Node19&#45;&gt;Node5</title>
<path fill="none" stroke="midnightblue" d="M585.299,-280.324C599.183,-271.9 620.492,-258.971 636.804,-249.074"/>
<polygon fill="midnightblue" stroke="midnightblue" points="639.002,-251.834 645.736,-243.655 635.371,-245.85 639.002,-251.834"/>
</g>
<!-- Node20 -->
<g id="node20" class="node"><title>Node20</title>
<polygon fill="none" stroke="#bfbfbf" points="544,-224.5 544,-243.5 598,-243.5 598,-224.5 544,-224.5"/>
<text text-anchor="middle" x="571" y="-231.5" font-family="Helvetica,sans-Serif" font-size="10.00">QImage</text>
</g>
<!-- Node19&#45;&gt;Node20 -->
<g id="edge37" class="edge"><title>Node19&#45;&gt;Node20</title>
<path fill="none" stroke="midnightblue" d="M571,-280.083C571,-273.006 571,-262.861 571,-253.986"/>
<polygon fill="midnightblue" stroke="midnightblue" points="574.5,-253.751 571,-243.751 567.5,-253.751 574.5,-253.751"/>
</g>
<!-- Node21&#45;&gt;Node7 -->
<g id="edge42" class="edge"><title>Node21&#45;&gt;Node7</title>
<path fill="none" stroke="midnightblue" d="M232.464,-504.393C262.833,-488.812 320,-452.86 320,-403 320,-403 320,-403 320,-289 320,-258.205 326.846,-249.575 344,-224 351.663,-212.575 362.803,-202.04 372.525,-194.04"/>
<polygon fill="midnightblue" stroke="midnightblue" points="374.885,-196.637 380.581,-187.704 370.557,-191.135 374.885,-196.637"/>
</g>
<!-- Node22 -->
<g id="node22" class="node"><title>Node22</title>
<g id="a_node22"><a xlink:href="crosstabgroup_8hpp.html" target="_top" xlink:title="crosstabgroup.hpp">
<polygon fill="none" stroke="black" points="30.5,-448.5 30.5,-467.5 137.5,-467.5 137.5,-448.5 30.5,-448.5"/>
<text text-anchor="middle" x="84" y="-455.5" font-family="Helvetica,sans-Serif" font-size="10.00">crosstabgroup.hpp</text>
</a>
</g>
</g>
<!-- Node21&#45;&gt;Node22 -->
<g id="edge43" class="edge"><title>Node21&#45;&gt;Node22</title>
<path fill="none" stroke="midnightblue" d="M193.401,-504.444C172.007,-495.557 138.319,-481.563 113.976,-471.451"/>
<polygon fill="midnightblue" stroke="midnightblue" points="115.08,-468.12 104.503,-467.516 112.395,-474.585 115.08,-468.12"/>
</g>
<!-- Node25 -->
<g id="node25" class="node"><title>Node25</title>
<g id="a_node25"><a xlink:href="crosstabcell_8hpp.html" target="_top" xlink:title="crosstabcell.hpp">
<polygon fill="none" stroke="black" points="158.5,-392.5 158.5,-411.5 253.5,-411.5 253.5,-392.5 158.5,-392.5"/>
<text text-anchor="middle" x="206" y="-399.5" font-family="Helvetica,sans-Serif" font-size="10.00">crosstabcell.hpp</text>
</a>
</g>
</g>
<!-- Node21&#45;&gt;Node25 -->
<g id="edge50" class="edge"><title>Node21&#45;&gt;Node25</title>
<path fill="none" stroke="midnightblue" d="M213.372,-504.368C212.081,-486.617 209.103,-445.666 207.353,-421.597"/>
<polygon fill="midnightblue" stroke="midnightblue" points="210.841,-421.311 206.625,-411.591 203.859,-421.819 210.841,-421.311"/>
</g>
<!-- Node22&#45;&gt;Node13 -->
<g id="edge44" class="edge"><title>Node22&#45;&gt;Node13</title>
<path fill="none" stroke="midnightblue" d="M65.1019,-448.373C50.4824,-440.773 30.8019,-428.364 19,-412 1.39431,-387.589 0,-377.098 0,-347 0,-347 0,-347 0,-177 0,-133.38 43.4924,-99.0601 72.5294,-81.0074"/>
<polygon fill="midnightblue" stroke="midnightblue" points="74.5832,-83.8576 81.3756,-75.7265 70.9952,-77.8471 74.5832,-83.8576"/>
</g>
<!-- Node23 -->
<g id="node23" class="node"><title>Node23</title>
<g id="a_node23"><a xlink:href="crosstabheader_8hpp.html" target="_top" xlink:title="crosstabheader.hpp">
<polygon fill="none" stroke="black" points="28,-392.5 28,-411.5 140,-411.5 140,-392.5 28,-392.5"/>
<text text-anchor="middle" x="84" y="-399.5" font-family="Helvetica,sans-Serif" font-size="10.00">crosstabheader.hpp</text>
</a>
</g>
</g>
<!-- Node22&#45;&gt;Node23 -->
<g id="edge45" class="edge"><title>Node22&#45;&gt;Node23</title>
<path fill="none" stroke="midnightblue" d="M84,-448.083C84,-441.006 84,-430.861 84,-421.986"/>
<polygon fill="midnightblue" stroke="midnightblue" points="87.5001,-421.751 84,-411.751 80.5001,-421.751 87.5001,-421.751"/>
</g>
<!-- Node23&#45;&gt;Node13 -->
<g id="edge46" class="edge"><title>Node23&#45;&gt;Node13</title>
<path fill="none" stroke="midnightblue" d="M78.7163,-392.231C68.2749,-374.043 46,-330.601 46,-291 46,-291 46,-291 46,-177 46,-141.119 68.894,-104.424 84.3004,-83.7932"/>
<polygon fill="midnightblue" stroke="midnightblue" points="87.1817,-85.7894 90.5497,-75.7441 81.6525,-81.4965 87.1817,-85.7894"/>
</g>
<!-- Node24 -->
<g id="node24" class="node"><title>Node24</title>
<g id="a_node24"><a xlink:href="cellcontents_8hpp.html" target="_top" xlink:title="cellcontents.hpp">
<polygon fill="none" stroke="black" points="158.5,-336.5 158.5,-355.5 253.5,-355.5 253.5,-336.5 158.5,-336.5"/>
<text text-anchor="middle" x="206" y="-343.5" font-family="Helvetica,sans-Serif" font-size="10.00">cellcontents.hpp</text>
</a>
</g>
</g>
<!-- Node23&#45;&gt;Node24 -->
<g id="edge47" class="edge"><title>Node23&#45;&gt;Node24</title>
<path fill="none" stroke="midnightblue" d="M103.331,-392.444C123.32,-383.596 154.743,-369.687 177.564,-359.586"/>
<polygon fill="midnightblue" stroke="midnightblue" points="179.032,-362.764 186.759,-355.516 176.198,-356.363 179.032,-362.764"/>
</g>
<!-- Node24&#45;&gt;Node7 -->
<g id="edge48" class="edge"><title>Node24&#45;&gt;Node7</title>
<path fill="none" stroke="midnightblue" d="M219.917,-336.282C232.303,-328.031 250.363,-314.741 263,-300 288.259,-270.535 278.047,-250.923 306,-224 320.743,-209.8 340.858,-199.004 358.032,-191.551"/>
<polygon fill="midnightblue" stroke="midnightblue" points="359.83,-194.596 367.741,-187.549 357.162,-188.124 359.83,-194.596"/>
</g>
<!-- Node24&#45;&gt;Node15 -->
<g id="edge49" class="edge"><title>Node24&#45;&gt;Node15</title>
<path fill="none" stroke="midnightblue" d="M207.651,-336.083C208.976,-328.927 210.882,-318.635 212.539,-309.691"/>
<polygon fill="midnightblue" stroke="midnightblue" points="216,-310.221 214.379,-299.751 209.117,-308.947 216,-310.221"/>
</g>
<!-- Node25&#45;&gt;Node13 -->
<g id="edge51" class="edge"><title>Node25&#45;&gt;Node13</title>
<path fill="none" stroke="midnightblue" d="M183.053,-392.485C147.712,-377.711 84,-343.76 84,-291 84,-291 84,-291 84,-177 84,-144.541 90.0731,-107.121 94.2195,-85.3564"/>
<polygon fill="midnightblue" stroke="midnightblue" points="97.6598,-86.0003 96.1697,-75.5108 90.7933,-84.6401 97.6598,-86.0003"/>
</g>
<!-- Node25&#45;&gt;Node24 -->
<g id="edge52" class="edge"><title>Node25&#45;&gt;Node24</title>
<path fill="none" stroke="midnightblue" d="M206,-392.083C206,-385.006 206,-374.861 206,-365.986"/>
<polygon fill="midnightblue" stroke="midnightblue" points="209.5,-365.751 206,-355.751 202.5,-365.751 209.5,-365.751"/>
</g>
</g>
</svg>
