<?xml version="1.0" encoding="UTF-8" standalone="no"?>
<!DOCTYPE svg PUBLIC "-//W3C//DTD SVG 1.1//EN"
 "http://www.w3.org/Graphics/SVG/1.1/DTD/svg11.dtd">
<!-- Generated by graphviz version 2.38.0 (20140413.2041)
 -->
<!-- Title: qtreports::detail::ConverterToQWidget::addGroupsIntoReport Pages: 1 -->
<!--zoomable 502 -->
<svg id="main" version="1.1" xmlns="http://www.w3.org/2000/svg" xmlns:xlink="http://www.w3.org/1999/xlink" xml:space="preserve" onload="init(evt)">
<style type="text/css"><![CDATA[
.edge:hover path { stroke: red; }
.edge:hover polygon { stroke: red; fill: red; }
]]></style>
<script type="text/javascript"><![CDATA[
var edges = document.getElementsByTagName('g');
if (edges && edges.length) {
  for (var i=0;i<edges.length;i++) {
    if (edges[i].id.substr(0,4)=='edge') {
      edges[i].setAttribute('class','edge');
    }
  }
}
]]></script>
        <defs>
                <circle id="rim" cx="0" cy="0" r="7"/>
                <circle id="rim2" cx="0" cy="0" r="3.5"/>
                <g id="zoomPlus">
                        <use xlink:href="#rim" fill="#404040">
                                <set attributeName="fill" to="#808080" begin="zoomplus.mouseover" end="zoomplus.mouseout"/>
                        </use>
                        <path d="M-4,0h8M0,-4v8" fill="none" stroke="white" stroke-width="1.5" pointer-events="none"/>
                </g>
                <g id="zoomMin">
                        <use xlink:href="#rim" fill="#404040">
                                <set attributeName="fill" to="#808080" begin="zoomminus.mouseover" end="zoomminus.mouseout"/>
                        </use>
                        <path d="M-4,0h8" fill="none" stroke="white" stroke-width="1.5" pointer-events="none"/>
                </g>
                <g id="dirArrow">
                        <path fill="none" stroke="white" stroke-width="1.5" d="M0,-3.0v7 M-2.5,-0.5L0,-3.0L2.5,-0.5"/>
                </g>
               <g id="resetDef">
                       <use xlink:href="#rim2" fill="#404040">
                               <set attributeName="fill" to="#808080" begin="reset.mouseover" end="reset.mouseout"/>
                       </use>
               </g>
        </defs>

<script type="text/javascript">
var viewWidth = 1209;
var viewHeight = 502;
var sectionId = 'dynsection-3';
</script>
<script xlink:href="svgpan.js"/>
<svg id="graph" class="graph">
<g id="viewport">
<title>qtreports::detail::ConverterToQWidget::addGroupsIntoReport</title>
<!-- Node1 -->
<g id="node1" class="node"><title>Node1</title>
<polygon fill="#bfbfbf" stroke="black" points="0,-109.5 0,-150.5 119,-150.5 119,-109.5 0,-109.5"/>
<text text-anchor="start" x="8" y="-138.5" font-family="Helvetica,sans-Serif" font-size="10.00">qtreports::detail::</text>
<text text-anchor="start" x="8" y="-127.5" font-family="Helvetica,sans-Serif" font-size="10.00">ConverterToQWidget::</text>
<text text-anchor="middle" x="59.5" y="-116.5" font-family="Helvetica,sans-Serif" font-size="10.00">addGroupsIntoReport</text>
</g>
<!-- Node2 -->
<g id="node2" class="node"><title>Node2</title>
<g id="a_node2"><a xlink:href="classqtreports_1_1detail_1_1_replacer.html#a4642b07160798f2ee4de276e1d0c1ecd" target="_top" xlink:title="Возвращает текст с подставленными значениями полей из источника данных. ">
<polygon fill="none" stroke="black" points="1082,-307 1082,-337 1201,-337 1201,-307 1082,-307"/>
<text text-anchor="start" x="1090" y="-325" font-family="Helvetica,sans-Serif" font-size="10.00">qtreports::detail::</text>
<text text-anchor="middle" x="1141.5" y="-314" font-family="Helvetica,sans-Serif" font-size="10.00">Replacer::replaceField</text>
</a>
</g>
</g>
<!-- Node1&#45;&gt;Node2 -->
<g id="edge1" class="edge"><title>Node1&#45;&gt;Node2</title>
<path fill="none" stroke="midnightblue" d="M67.1752,-150.529C92.9217,-225.339 193.253,-479 370,-479 370,-479 370,-479 762,-479 888.504,-479 936.128,-522.701 1046,-460 1090.15,-434.806 1118.11,-379.54 1131.37,-347.109"/>
<polygon fill="midnightblue" stroke="midnightblue" points="1134.77,-348.037 1135.17,-337.449 1128.25,-345.478 1134.77,-348.037"/>
</g>
<!-- Node3 -->
<g id="node3" class="node"><title>Node3</title>
<g id="a_node3"><a xlink:href="classqtreports_1_1detail_1_1_converter_to_q_widget.html#a76bb37f2855d12afc9056c75cdbc5e0b" target="_top" xlink:title="Проверяет, является ли виджет типа WidgetType::Layout. ">
<polygon fill="none" stroke="black" points="494.5,-101.5 494.5,-142.5 613.5,-142.5 613.5,-101.5 494.5,-101.5"/>
<text text-anchor="start" x="502.5" y="-130.5" font-family="Helvetica,sans-Serif" font-size="10.00">qtreports::detail::</text>
<text text-anchor="start" x="502.5" y="-119.5" font-family="Helvetica,sans-Serif" font-size="10.00">ConverterToQWidget::</text>
<text text-anchor="middle" x="554" y="-108.5" font-family="Helvetica,sans-Serif" font-size="10.00">isLayout</text>
</a>
</g>
</g>
<!-- Node1&#45;&gt;Node3 -->
<g id="edge2" class="edge"><title>Node1&#45;&gt;Node3</title>
<path fill="none" stroke="midnightblue" d="M119.418,-129.043C211.028,-127.555 387.173,-124.694 484.381,-123.115"/>
<polygon fill="midnightblue" stroke="midnightblue" points="484.455,-126.614 494.397,-122.952 484.342,-119.615 484.455,-126.614"/>
</g>
<!-- Node4 -->
<g id="node4" class="node"><title>Node4</title>
<g id="a_node4"><a xlink:href="classqtreports_1_1detail_1_1_converter_to_q_widget.html#ae126b16c5a846e84f12d86ca8ef253dd" target="_top" xlink:title="Добавляет секцию. ">
<polygon fill="none" stroke="black" points="155,-60.5 155,-101.5 274,-101.5 274,-60.5 155,-60.5"/>
<text text-anchor="start" x="163" y="-89.5" font-family="Helvetica,sans-Serif" font-size="10.00">qtreports::detail::</text>
<text text-anchor="start" x="163" y="-78.5" font-family="Helvetica,sans-Serif" font-size="10.00">ConverterToQWidget::</text>
<text text-anchor="middle" x="214.5" y="-67.5" font-family="Helvetica,sans-Serif" font-size="10.00">addSectionLayout</text>
</a>
</g>
</g>
<!-- Node1&#45;&gt;Node4 -->
<g id="edge3" class="edge"><title>Node1&#45;&gt;Node4</title>
<path fill="none" stroke="midnightblue" d="M119.216,-111.195C127.727,-108.47 136.549,-105.645 145.227,-102.865"/>
<polygon fill="midnightblue" stroke="midnightblue" points="146.485,-106.138 154.941,-99.7542 144.35,-99.4711 146.485,-106.138"/>
</g>
<!-- Node6 -->
<g id="node6" class="node"><title>Node6</title>
<g id="a_node6"><a xlink:href="classqtreports_1_1detail_1_1_converter_to_q_widget.html#a3c95daf9bd10efc4feb71e0d976bbd6e" target="_top" xlink:title="Создает секцию. ">
<polygon fill="none" stroke="black" points="155,-197.5 155,-238.5 274,-238.5 274,-197.5 155,-197.5"/>
<text text-anchor="start" x="163" y="-226.5" font-family="Helvetica,sans-Serif" font-size="10.00">qtreports::detail::</text>
<text text-anchor="start" x="163" y="-215.5" font-family="Helvetica,sans-Serif" font-size="10.00">ConverterToQWidget::</text>
<text text-anchor="middle" x="214.5" y="-204.5" font-family="Helvetica,sans-Serif" font-size="10.00">createSection</text>
</a>
</g>
</g>
<!-- Node1&#45;&gt;Node6 -->
<g id="edge6" class="edge"><title>Node1&#45;&gt;Node6</title>
<path fill="none" stroke="midnightblue" d="M96.3717,-150.632C118.048,-163.1 145.856,-179.094 168.937,-192.369"/>
<polygon fill="midnightblue" stroke="midnightblue" points="167.44,-195.545 177.853,-197.497 170.93,-189.477 167.44,-195.545"/>
</g>
<!-- Node22 -->
<g id="node22" class="node"><title>Node22</title>
<g id="a_node22"><a xlink:href="classqtreports_1_1detail_1_1_converter_to_q_widget.html#a5e49976fe8fac12633ccda1ba928b9b1" target="_top" xlink:title="Проверяет, является ли виджет типа WidgetType::Report. ">
<polygon fill="none" stroke="black" points="155,-0.5 155,-41.5 274,-41.5 274,-0.5 155,-0.5"/>
<text text-anchor="start" x="163" y="-29.5" font-family="Helvetica,sans-Serif" font-size="10.00">qtreports::detail::</text>
<text text-anchor="start" x="163" y="-18.5" font-family="Helvetica,sans-Serif" font-size="10.00">ConverterToQWidget::</text>
<text text-anchor="middle" x="214.5" y="-7.5" font-family="Helvetica,sans-Serif" font-size="10.00">isReport</text>
</a>
</g>
</g>
<!-- Node1&#45;&gt;Node22 -->
<g id="edge30" class="edge"><title>Node1&#45;&gt;Node22</title>
<path fill="none" stroke="midnightblue" d="M82.3052,-109.356C100.783,-92.4714 128.437,-68.5962 155,-51 157.165,-49.566 159.407,-48.1499 161.695,-46.7599"/>
<polygon fill="midnightblue" stroke="midnightblue" points="163.792,-49.5898 170.687,-41.5452 160.28,-43.5345 163.792,-49.5898"/>
</g>
<!-- Node4&#45;&gt;Node3 -->
<g id="edge4" class="edge"><title>Node4&#45;&gt;Node3</title>
<path fill="none" stroke="midnightblue" d="M274.288,-88.1417C332.788,-95.2484 422.517,-106.149 484.276,-113.651"/>
<polygon fill="midnightblue" stroke="midnightblue" points="483.971,-117.14 494.32,-114.872 484.816,-110.191 483.971,-117.14"/>
</g>
<!-- Node5 -->
<g id="node5" class="node"><title>Node5</title>
<g id="a_node5"><a xlink:href="namespaceqtreports_1_1detail.html#a57ac54d6807a30b13e419a3106735b19" target="_top" xlink:title="qtreports::detail::\lcreateLayout">
<polygon fill="none" stroke="black" points="321.5,-33 321.5,-63 420.5,-63 420.5,-33 321.5,-33"/>
<text text-anchor="start" x="329.5" y="-51" font-family="Helvetica,sans-Serif" font-size="10.00">qtreports::detail::</text>
<text text-anchor="middle" x="371" y="-40" font-family="Helvetica,sans-Serif" font-size="10.00">createLayout</text>
</a>
</g>
</g>
<!-- Node4&#45;&gt;Node5 -->
<g id="edge5" class="edge"><title>Node4&#45;&gt;Node5</title>
<path fill="none" stroke="midnightblue" d="M274.351,-68.43C286.476,-65.8401 299.243,-63.1131 311.361,-60.5248"/>
<polygon fill="midnightblue" stroke="midnightblue" points="312.31,-63.9011 321.359,-58.3894 310.848,-57.0555 312.31,-63.9011"/>
</g>
<!-- Node6&#45;&gt;Node3 -->
<g id="edge7" class="edge"><title>Node6&#45;&gt;Node3</title>
<path fill="none" stroke="midnightblue" d="M274.27,-224.715C320.006,-227.187 383.621,-224.394 432,-198 454.79,-185.567 446.917,-167.148 468,-152 473.171,-148.285 478.845,-144.993 484.733,-142.083"/>
<polygon fill="midnightblue" stroke="midnightblue" points="486.46,-145.143 494.117,-137.82 483.565,-138.769 486.46,-145.143"/>
</g>
<!-- Node7 -->
<g id="node7" class="node"><title>Node7</title>
<g id="a_node7"><a xlink:href="classqtreports_1_1detail_1_1_replacer.html#af7ccb83be264f7c72b7485cf38455450" target="_top" xlink:title="Заменяет текст всех виджетов секции текстом с подставленными значениями. ">
<polygon fill="none" stroke="black" points="321.5,-348 321.5,-378 420.5,-378 420.5,-348 321.5,-348"/>
<text text-anchor="start" x="329.5" y="-366" font-family="Helvetica,sans-Serif" font-size="10.00">qtreports::detail::</text>
<text text-anchor="middle" x="371" y="-355" font-family="Helvetica,sans-Serif" font-size="10.00">Replacer::replace</text>
</a>
</g>
</g>
<!-- Node6&#45;&gt;Node7 -->
<g id="edge8" class="edge"><title>Node6&#45;&gt;Node7</title>
<path fill="none" stroke="midnightblue" d="M237.636,-238.775C266.435,-265.804 316.559,-312.845 346.168,-340.634"/>
<polygon fill="midnightblue" stroke="midnightblue" points="343.898,-343.303 353.585,-347.594 348.688,-338.199 343.898,-343.303"/>
</g>
<!-- Node13 -->
<g id="node13" class="node"><title>Node13</title>
<g id="a_node13"><a xlink:href="classqtreports_1_1detail_1_1_replacer.html#a677f7802e444f2de3af4cb43b6cedf30" target="_top" xlink:title="Возвращает описание последней произошедшей ошибки. ">
<polygon fill="none" stroke="black" points="310,-159 310,-189 432,-189 432,-159 310,-159"/>
<text text-anchor="start" x="318" y="-177" font-family="Helvetica,sans-Serif" font-size="10.00">qtreports::detail::</text>
<text text-anchor="middle" x="371" y="-166" font-family="Helvetica,sans-Serif" font-size="10.00">Replacer::getLastError</text>
</a>
</g>
</g>
<!-- Node6&#45;&gt;Node13 -->
<g id="edge15" class="edge"><title>Node6&#45;&gt;Node13</title>
<path fill="none" stroke="midnightblue" d="M274.351,-201.24C285.123,-198.172 296.403,-194.96 307.284,-191.861"/>
<polygon fill="midnightblue" stroke="midnightblue" points="308.479,-195.16 317.138,-189.055 306.562,-188.427 308.479,-195.16"/>
</g>
<!-- Node14 -->
<g id="node14" class="node"><title>Node14</title>
<g id="a_node14"><a xlink:href="classqtreports_1_1detail_1_1_converter_to_q_widget.html#aa3be16e037533a4a5b58596087207187" target="_top" xlink:title="Создает band. ">
<polygon fill="none" stroke="black" points="311.5,-246.5 311.5,-287.5 430.5,-287.5 430.5,-246.5 311.5,-246.5"/>
<text text-anchor="start" x="319.5" y="-275.5" font-family="Helvetica,sans-Serif" font-size="10.00">qtreports::detail::</text>
<text text-anchor="start" x="319.5" y="-264.5" font-family="Helvetica,sans-Serif" font-size="10.00">ConverterToQWidget::</text>
<text text-anchor="middle" x="371" y="-253.5" font-family="Helvetica,sans-Serif" font-size="10.00">createBands</text>
</a>
</g>
</g>
<!-- Node6&#45;&gt;Node14 -->
<g id="edge16" class="edge"><title>Node6&#45;&gt;Node14</title>
<path fill="none" stroke="midnightblue" d="M274.351,-236.665C283.243,-239.485 292.481,-242.415 301.555,-245.293"/>
<polygon fill="midnightblue" stroke="midnightblue" points="300.723,-248.7 311.313,-248.387 302.839,-242.028 300.723,-248.7"/>
</g>
<!-- Node8 -->
<g id="node8" class="node"><title>Node8</title>
<g id="a_node8"><a xlink:href="classqtreports_1_1detail_1_1_replacer.html#a58cf857aa78eb3e273f6543769af425b" target="_top" xlink:title="Заменяет текст всех виджетов секции текстом с подставленными значениями полей из источника данных...">
<polygon fill="none" stroke="black" points="472,-397 472,-427 636,-427 636,-397 472,-397"/>
<text text-anchor="start" x="480" y="-415" font-family="Helvetica,sans-Serif" font-size="10.00">qtreports::detail::</text>
<text text-anchor="middle" x="554" y="-404" font-family="Helvetica,sans-Serif" font-size="10.00">Replacer::replaceFieldInSection</text>
</a>
</g>
</g>
<!-- Node7&#45;&gt;Node8 -->
<g id="edge9" class="edge"><title>Node7&#45;&gt;Node8</title>
<path fill="none" stroke="midnightblue" d="M420.505,-376.131C441.12,-381.712 465.47,-388.304 487.636,-394.305"/>
<polygon fill="midnightblue" stroke="midnightblue" points="486.746,-397.69 497.314,-396.925 488.576,-390.933 486.746,-397.69"/>
</g>
<!-- Node12 -->
<g id="node12" class="node"><title>Node12</title>
<g id="a_node12"><a xlink:href="classqtreports_1_1detail_1_1_replacer.html#abb903f1c1172efa7e26b040a5695cc86" target="_top" xlink:title="Возвращает текст с подставленными значениями параметров. ">
<polygon fill="none" stroke="black" points="477,-348 477,-378 631,-378 631,-348 477,-348"/>
<text text-anchor="start" x="485" y="-366" font-family="Helvetica,sans-Serif" font-size="10.00">qtreports::detail::</text>
<text text-anchor="middle" x="554" y="-355" font-family="Helvetica,sans-Serif" font-size="10.00">Replacer::replaceParameters</text>
</a>
</g>
</g>
<!-- Node7&#45;&gt;Node12 -->
<g id="edge14" class="edge"><title>Node7&#45;&gt;Node12</title>
<path fill="none" stroke="midnightblue" d="M420.505,-363C434.678,-363 450.617,-363 466.398,-363"/>
<polygon fill="midnightblue" stroke="midnightblue" points="466.725,-366.5 476.725,-363 466.725,-359.5 466.725,-366.5"/>
</g>
<!-- Node9 -->
<g id="node9" class="node"><title>Node9</title>
<g id="a_node9"><a xlink:href="classqtreports_1_1detail_1_1_replacer.html#a2be57bd514335f9b9f2a520247562ce1" target="_top" xlink:title="Заменяет текст виджета текстом с подставленными значениями полей из источника данных. ">
<polygon fill="none" stroke="black" points="891,-409.5 891,-450.5 1037,-450.5 1037,-409.5 891,-409.5"/>
<text text-anchor="start" x="899" y="-438.5" font-family="Helvetica,sans-Serif" font-size="10.00">qtreports::detail::</text>
<text text-anchor="start" x="899" y="-427.5" font-family="Helvetica,sans-Serif" font-size="10.00">Replacer::replaceFieldInText</text>
<text text-anchor="middle" x="964" y="-416.5" font-family="Helvetica,sans-Serif" font-size="10.00">Widget</text>
</a>
</g>
</g>
<!-- Node8&#45;&gt;Node9 -->
<g id="edge10" class="edge"><title>Node8&#45;&gt;Node9</title>
<path fill="none" stroke="midnightblue" d="M636.095,-415.578C706.975,-418.705 809.415,-423.224 880.661,-426.367"/>
<polygon fill="midnightblue" stroke="midnightblue" points="880.794,-429.877 890.938,-426.821 881.102,-422.883 880.794,-429.877"/>
</g>
<!-- Node10 -->
<g id="node10" class="node"><title>Node10</title>
<g id="a_node10"><a xlink:href="classqtreports_1_1detail_1_1_replacer.html#a4aeb7794f90c0be34a30ab60a6df1920" target="_top" xlink:title="На основе текста виджета вставляет в него изображение из источника данных. ">
<polygon fill="none" stroke="black" points="682,-363.5 682,-404.5 840,-404.5 840,-363.5 682,-363.5"/>
<text text-anchor="start" x="690" y="-392.5" font-family="Helvetica,sans-Serif" font-size="10.00">qtreports::detail::</text>
<text text-anchor="start" x="690" y="-381.5" font-family="Helvetica,sans-Serif" font-size="10.00">Replacer::replaceFieldInImage</text>
<text text-anchor="middle" x="761" y="-370.5" font-family="Helvetica,sans-Serif" font-size="10.00">Widget</text>
</a>
</g>
</g>
<!-- Node8&#45;&gt;Node10 -->
<g id="edge12" class="edge"><title>Node8&#45;&gt;Node10</title>
<path fill="none" stroke="midnightblue" d="M636.021,-400.934C647.825,-399.321 660.027,-397.655 671.961,-396.025"/>
<polygon fill="midnightblue" stroke="midnightblue" points="672.475,-399.487 681.909,-394.666 671.527,-392.552 672.475,-399.487"/>
</g>
<!-- Node9&#45;&gt;Node2 -->
<g id="edge11" class="edge"><title>Node9&#45;&gt;Node2</title>
<path fill="none" stroke="midnightblue" d="M1029.19,-409.433C1035,-406.855 1040.69,-404.043 1046,-401 1073.28,-385.379 1100.39,-361.65 1118.53,-344.274"/>
<polygon fill="midnightblue" stroke="midnightblue" points="1121.01,-346.744 1125.73,-337.259 1116.12,-341.731 1121.01,-346.744"/>
</g>
<!-- Node11 -->
<g id="node11" class="node"><title>Node11</title>
<g id="a_node11"><a xlink:href="classqtreports_1_1detail_1_1_replacer.html#ae1ac521aeaf5fdd694e79e2ae52d4704" target="_top" xlink:title="Возвращает изображение на основе первого найденного выражения. ">
<polygon fill="none" stroke="black" points="889.5,-361 889.5,-391 1038.5,-391 1038.5,-361 889.5,-361"/>
<text text-anchor="start" x="897.5" y="-379" font-family="Helvetica,sans-Serif" font-size="10.00">qtreports::detail::</text>
<text text-anchor="middle" x="964" y="-368" font-family="Helvetica,sans-Serif" font-size="10.00">Replacer::replaceFieldImage</text>
</a>
</g>
</g>
<!-- Node10&#45;&gt;Node11 -->
<g id="edge13" class="edge"><title>Node10&#45;&gt;Node11</title>
<path fill="none" stroke="midnightblue" d="M840.287,-380.884C852.986,-380.379 866.183,-379.853 879.011,-379.343"/>
<polygon fill="midnightblue" stroke="midnightblue" points="879.35,-382.832 889.203,-378.937 879.072,-375.838 879.35,-382.832"/>
</g>
<!-- Node14&#45;&gt;Node3 -->
<g id="edge18" class="edge"><title>Node14&#45;&gt;Node3</title>
<path fill="none" stroke="midnightblue" d="M415.145,-246.325C421.292,-242.158 427.16,-237.378 432,-232 458.082,-203.018 439.303,-178.394 468,-152 473.03,-147.374 478.818,-143.452 484.958,-140.131"/>
<polygon fill="midnightblue" stroke="midnightblue" points="486.681,-143.186 494.159,-135.681 483.633,-136.884 486.681,-143.186"/>
</g>
<!-- Node15 -->
<g id="node15" class="node"><title>Node15</title>
<g id="a_node15"><a xlink:href="classqtreports_1_1detail_1_1_converter_to_q_widget.html#a23d6229235fca8bd8bbddcc5e2e28f92" target="_top" xlink:title="Добавляет новую страницу на виджет. ">
<polygon fill="none" stroke="black" points="494.5,-161.5 494.5,-202.5 613.5,-202.5 613.5,-161.5 494.5,-161.5"/>
<text text-anchor="start" x="502.5" y="-190.5" font-family="Helvetica,sans-Serif" font-size="10.00">qtreports::detail::</text>
<text text-anchor="start" x="502.5" y="-179.5" font-family="Helvetica,sans-Serif" font-size="10.00">ConverterToQWidget::</text>
<text text-anchor="middle" x="554" y="-168.5" font-family="Helvetica,sans-Serif" font-size="10.00">addPage</text>
</a>
</g>
</g>
<!-- Node14&#45;&gt;Node15 -->
<g id="edge17" class="edge"><title>Node14&#45;&gt;Node15</title>
<path fill="none" stroke="midnightblue" d="M409.455,-246.499C427.043,-237.13 448.406,-226.115 468,-217 475.592,-213.468 483.643,-209.914 491.645,-206.495"/>
<polygon fill="midnightblue" stroke="midnightblue" points="493.134,-209.665 500.987,-202.553 490.413,-203.216 493.134,-209.665"/>
</g>
<!-- Node16 -->
<g id="node16" class="node"><title>Node16</title>
<g id="a_node16"><a xlink:href="classqtreports_1_1detail_1_1_replacer.html#aa9fa83cf51d75301b62e11a0a93e2dcc" target="_top" xlink:title="qtreports::detail::\lReplacer::replaceColumnGroups\lInCrosstab">
<polygon fill="none" stroke="black" points="676,-303.5 676,-344.5 846,-344.5 846,-303.5 676,-303.5"/>
<text text-anchor="start" x="684" y="-332.5" font-family="Helvetica,sans-Serif" font-size="10.00">qtreports::detail::</text>
<text text-anchor="start" x="684" y="-321.5" font-family="Helvetica,sans-Serif" font-size="10.00">Replacer::replaceColumnGroups</text>
<text text-anchor="middle" x="761" y="-310.5" font-family="Helvetica,sans-Serif" font-size="10.00">InCrosstab</text>
</a>
</g>
</g>
<!-- Node14&#45;&gt;Node16 -->
<g id="edge19" class="edge"><title>Node14&#45;&gt;Node16</title>
<path fill="none" stroke="midnightblue" d="M426.217,-287.549C439.699,-291.968 454.236,-296.159 468,-299 533.222,-312.464 608.084,-318.696 665.677,-321.571"/>
<polygon fill="midnightblue" stroke="midnightblue" points="665.704,-325.076 675.859,-322.053 666.036,-318.084 665.704,-325.076"/>
</g>
<!-- Node18 -->
<g id="node18" class="node"><title>Node18</title>
<g id="a_node18"><a xlink:href="classqtreports_1_1detail_1_1_replacer.html#ae0f12ba0e77e9ef89b9479272e843fe6" target="_top" xlink:title="qtreports::detail::\lReplacer::replaceRowGroups\lInCrosstab">
<polygon fill="none" stroke="black" points="685.5,-195.5 685.5,-236.5 836.5,-236.5 836.5,-195.5 685.5,-195.5"/>
<text text-anchor="start" x="693.5" y="-224.5" font-family="Helvetica,sans-Serif" font-size="10.00">qtreports::detail::</text>
<text text-anchor="start" x="693.5" y="-213.5" font-family="Helvetica,sans-Serif" font-size="10.00">Replacer::replaceRowGroups</text>
<text text-anchor="middle" x="761" y="-202.5" font-family="Helvetica,sans-Serif" font-size="10.00">InCrosstab</text>
</a>
</g>
</g>
<!-- Node14&#45;&gt;Node18 -->
<g id="edge22" class="edge"><title>Node14&#45;&gt;Node18</title>
<path fill="none" stroke="midnightblue" d="M430.548,-256.062C442.894,-253.916 455.858,-251.78 468,-250 537.55,-239.802 616.783,-230.736 675.149,-224.535"/>
<polygon fill="midnightblue" stroke="midnightblue" points="675.853,-227.981 685.43,-223.45 675.118,-221.019 675.853,-227.981"/>
</g>
<!-- Node20 -->
<g id="node20" class="node"><title>Node20</title>
<g id="a_node20"><a xlink:href="classqtreports_1_1detail_1_1_replacer.html#a5dc72251354d389091776142436ebd22" target="_top" xlink:title="qtreports::detail::\lReplacer::replaceCellsInCrosstab">
<polygon fill="none" stroke="black" points="468,-260 468,-290 640,-290 640,-260 468,-260"/>
<text text-anchor="start" x="476" y="-278" font-family="Helvetica,sans-Serif" font-size="10.00">qtreports::detail::</text>
<text text-anchor="middle" x="554" y="-267" font-family="Helvetica,sans-Serif" font-size="10.00">Replacer::replaceCellsInCrosstab</text>
</a>
</g>
</g>
<!-- Node14&#45;&gt;Node20 -->
<g id="edge25" class="edge"><title>Node14&#45;&gt;Node20</title>
<path fill="none" stroke="midnightblue" d="M430.766,-269.597C439.483,-269.983 448.651,-270.388 457.882,-270.796"/>
<polygon fill="midnightblue" stroke="midnightblue" points="457.762,-274.294 467.907,-271.239 458.071,-267.301 457.762,-274.294"/>
</g>
<!-- Node17 -->
<g id="node17" class="node"><title>Node17</title>
<g id="a_node17"><a xlink:href="classqtreports_1_1detail_1_1_replacer.html#a781b476a4e964da9e5afe4f642b2f275" target="_top" xlink:title="qtreports::detail::\lReplacer::replaceColumnGroup\lInCrosstab">
<polygon fill="none" stroke="black" points="882,-301.5 882,-342.5 1046,-342.5 1046,-301.5 882,-301.5"/>
<text text-anchor="start" x="890" y="-330.5" font-family="Helvetica,sans-Serif" font-size="10.00">qtreports::detail::</text>
<text text-anchor="start" x="890" y="-319.5" font-family="Helvetica,sans-Serif" font-size="10.00">Replacer::replaceColumnGroup</text>
<text text-anchor="middle" x="964" y="-308.5" font-family="Helvetica,sans-Serif" font-size="10.00">InCrosstab</text>
</a>
</g>
</g>
<!-- Node16&#45;&gt;Node17 -->
<g id="edge20" class="edge"><title>Node16&#45;&gt;Node17</title>
<path fill="none" stroke="midnightblue" d="M846.077,-323.163C854.583,-323.079 863.249,-322.993 871.825,-322.907"/>
<polygon fill="midnightblue" stroke="midnightblue" points="871.869,-326.407 881.834,-322.808 871.8,-319.407 871.869,-326.407"/>
</g>
<!-- Node17&#45;&gt;Node2 -->
<g id="edge21" class="edge"><title>Node17&#45;&gt;Node2</title>
<path fill="none" stroke="midnightblue" d="M1046.07,-322C1054.63,-322 1063.27,-322 1071.67,-322"/>
<polygon fill="midnightblue" stroke="midnightblue" points="1071.77,-325.5 1081.77,-322 1071.77,-318.5 1071.77,-325.5"/>
</g>
<!-- Node19 -->
<g id="node19" class="node"><title>Node19</title>
<g id="a_node19"><a xlink:href="classqtreports_1_1detail_1_1_replacer.html#a2114b58c90fe02b17e7bf99e144013b6" target="_top" xlink:title="qtreports::detail::\lReplacer::replaceRowGroupIn\lCrosstab">
<polygon fill="none" stroke="black" points="887,-199.5 887,-240.5 1041,-240.5 1041,-199.5 887,-199.5"/>
<text text-anchor="start" x="895" y="-228.5" font-family="Helvetica,sans-Serif" font-size="10.00">qtreports::detail::</text>
<text text-anchor="start" x="895" y="-217.5" font-family="Helvetica,sans-Serif" font-size="10.00">Replacer::replaceRowGroupIn</text>
<text text-anchor="middle" x="964" y="-206.5" font-family="Helvetica,sans-Serif" font-size="10.00">Crosstab</text>
</a>
</g>
</g>
<!-- Node18&#45;&gt;Node19 -->
<g id="edge23" class="edge"><title>Node18&#45;&gt;Node19</title>
<path fill="none" stroke="midnightblue" d="M836.559,-217.484C849.647,-217.744 863.364,-218.017 876.738,-218.283"/>
<polygon fill="midnightblue" stroke="midnightblue" points="876.815,-221.785 886.882,-218.485 876.954,-214.787 876.815,-221.785"/>
</g>
<!-- Node19&#45;&gt;Node2 -->
<g id="edge24" class="edge"><title>Node19&#45;&gt;Node2</title>
<path fill="none" stroke="midnightblue" d="M1013.66,-240.562C1024.49,-245.594 1035.78,-251.208 1046,-257 1069.08,-270.076 1093.72,-287.142 1112.06,-300.506"/>
<polygon fill="midnightblue" stroke="midnightblue" points="1110.39,-303.624 1120.52,-306.736 1114.54,-297.988 1110.39,-303.624"/>
</g>
<!-- Node20&#45;&gt;Node16 -->
<g id="edge27" class="edge"><title>Node20&#45;&gt;Node16</title>
<path fill="none" stroke="midnightblue" d="M617.9,-290.035C633.007,-293.646 649.471,-297.581 665.662,-301.451"/>
<polygon fill="midnightblue" stroke="midnightblue" points="665.153,-304.928 675.692,-303.848 666.78,-298.12 665.153,-304.928"/>
</g>
<!-- Node20&#45;&gt;Node18 -->
<g id="edge26" class="edge"><title>Node20&#45;&gt;Node18</title>
<path fill="none" stroke="midnightblue" d="M607.261,-259.959C628.947,-253.718 654.619,-246.329 678.667,-239.408"/>
<polygon fill="midnightblue" stroke="midnightblue" points="679.857,-242.708 688.499,-236.578 677.921,-235.981 679.857,-242.708"/>
</g>
<!-- Node21 -->
<g id="node21" class="node"><title>Node21</title>
<g id="a_node21"><a xlink:href="classqtreports_1_1detail_1_1_replacer.html#a9ad7270fd6bdb9a2ba85bdc9652968c8" target="_top" xlink:title="qtreports::detail::\lReplacer::replaceCellInCrosstab">
<polygon fill="none" stroke="black" points="677.5,-255 677.5,-285 844.5,-285 844.5,-255 677.5,-255"/>
<text text-anchor="start" x="685.5" y="-273" font-family="Helvetica,sans-Serif" font-size="10.00">qtreports::detail::</text>
<text text-anchor="middle" x="761" y="-262" font-family="Helvetica,sans-Serif" font-size="10.00">Replacer::replaceCellInCrosstab</text>
</a>
</g>
</g>
<!-- Node20&#45;&gt;Node21 -->
<g id="edge28" class="edge"><title>Node20&#45;&gt;Node21</title>
<path fill="none" stroke="midnightblue" d="M640.158,-272.923C649.109,-272.705 658.243,-272.482 667.274,-272.262"/>
<polygon fill="midnightblue" stroke="midnightblue" points="667.501,-275.757 677.413,-272.014 667.33,-268.759 667.501,-275.757"/>
</g>
<!-- Node21&#45;&gt;Node2 -->
<g id="edge29" class="edge"><title>Node21&#45;&gt;Node2</title>
<path fill="none" stroke="midnightblue" d="M844.696,-271.398C901.719,-273.58 979.013,-278.954 1046,-292 1060.69,-294.861 1076.3,-299.238 1090.51,-303.773"/>
<polygon fill="midnightblue" stroke="midnightblue" points="1089.51,-307.126 1100.1,-306.92 1091.69,-300.475 1089.51,-307.126"/>
</g>
</g>
</svg>
        <g id="navigator" transform="translate(0 0)" fill="#404254">
                <rect fill="#f2f5e9" fill-opacity="0.5" stroke="#606060" stroke-width=".5" x="0" y="0" width="60" height="60"/>
                <use id="zoomplus" xlink:href="#zoomPlus" x="17" y="9" onmousedown="handleZoom(evt,'in')"/>
                <use id="zoomminus" xlink:href="#zoomMin" x="42" y="9" onmousedown="handleZoom(evt,'out')"/>
                <use id="reset" xlink:href="#resetDef" x="30" y="36" onmousedown="handleReset()"/>
                <g id="arrowUp" xlink:href="#dirArrow" transform="translate(30 24)" onmousedown="handlePan(0,-1)">
                  <use xlink:href="#rim" fill="#404040">
                        <set attributeName="fill" to="#808080" begin="arrowUp.mouseover" end="arrowUp.mouseout"/>
                  </use>
                  <path fill="none" stroke="white" stroke-width="1.5" d="M0,-3.0v7 M-2.5,-0.5L0,-3.0L2.5,-0.5"/>
                </g>
                <g id="arrowRight" xlink:href="#dirArrow" transform="rotate(90) translate(36 -43)" onmousedown="handlePan(1,0)">
                  <use xlink:href="#rim" fill="#404040">
                        <set attributeName="fill" to="#808080" begin="arrowRight.mouseover" end="arrowRight.mouseout"/>
                  </use>
                  <path fill="none" stroke="white" stroke-width="1.5" d="M0,-3.0v7 M-2.5,-0.5L0,-3.0L2.5,-0.5"/>
                </g>
                <g id="arrowDown" xlink:href="#dirArrow" transform="rotate(180) translate(-30 -48)" onmousedown="handlePan(0,1)">
                  <use xlink:href="#rim" fill="#404040">
                        <set attributeName="fill" to="#808080" begin="arrowDown.mouseover" end="arrowDown.mouseout"/>
                  </use>
                  <path fill="none" stroke="white" stroke-width="1.5" d="M0,-3.0v7 M-2.5,-0.5L0,-3.0L2.5,-0.5"/>
                </g>
                <g id="arrowLeft" xlink:href="#dirArrow" transform="rotate(270) translate(-36 17)" onmousedown="handlePan(-1,0)">
                  <use xlink:href="#rim" fill="#404040">
                        <set attributeName="fill" to="#808080" begin="arrowLeft.mouseover" end="arrowLeft.mouseout"/>
                  </use>
                  <path fill="none" stroke="white" stroke-width="1.5" d="M0,-3.0v7 M-2.5,-0.5L0,-3.0L2.5,-0.5"/>
                </g>
        </g>
        <svg viewBox="0 0 15 15" width="100%" height="30px" preserveAspectRatio="xMaxYMin meet">
         <g id="arrow_out" transform="scale(0.3 0.3)">
          <a xlink:href="classqtreports_1_1detail_1_1_converter_to_q_widget_ac98aceb5ee703053d7691029da84e296_cgraph_org.svg" target="_base">
           <rect id="button" ry="5" rx="5" y="6" x="6" height="38" width="38"
                fill="#f2f5e9" fill-opacity="0.5" stroke="#606060" stroke-width="1.0"/>
           <path id="arrow"
             d="M 11.500037,31.436501 C 11.940474,20.09759 22.043105,11.32322 32.158766,21.979434 L 37.068811,17.246167 C 37.068811,17.246167 37.088388,32 37.088388,32 L 22.160133,31.978069 C 22.160133,31.978069 26.997745,27.140456 26.997745,27.140456 C 18.528582,18.264221 13.291696,25.230495 11.500037,31.436501 z"
             style="fill:#404040;"/>
          </a>
         </g>
        </svg>
</svg>
