<?xml version="1.0" encoding="UTF-8" standalone="no"?>
<!DOCTYPE svg PUBLIC "-//W3C//DTD SVG 1.1//EN"
 "http://www.w3.org/Graphics/SVG/1.1/DTD/svg11.dtd">
<!-- Generated by graphviz version 2.38.0 (20140413.2041)
 -->
<!-- Title: qtreports::detail::ParserFromXML::parseTitle Pages: 1 -->
<svg width="551pt" height="39pt"
 viewBox="0.00 0.00 551.00 39.00" xmlns="http://www.w3.org/2000/svg" xmlns:xlink="http://www.w3.org/1999/xlink">
<g id="graph0" class="graph" transform="scale(1 1) rotate(0) translate(4 35)">
<title>qtreports::detail::ParserFromXML::parseTitle</title>
<!-- Node1 -->
<g id="node1" class="node"><title>Node1</title>
<polygon fill="#bfbfbf" stroke="black" points="0,-0.5 0,-30.5 143,-30.5 143,-0.5 0,-0.5"/>
<text text-anchor="start" x="8" y="-18.5" font-family="Helvetica,sans-Serif" font-size="10.00">qtreports::detail::</text>
<text text-anchor="middle" x="71.5" y="-7.5" font-family="Helvetica,sans-Serif" font-size="10.00">ParserFromXML::parseTitle</text>
</g>
<!-- Node2 -->
<g id="node2" class="node"><title>Node2</title>
<g id="a_node2"><a xlink:href="classqtreports_1_1detail_1_1_parser_from_x_m_l.html#a905c36f37ab8c2833ab85e4d8c22716f" target="_top" xlink:title="Парсит дочерние тэги объекта object. ">
<polygon fill="none" stroke="black" points="179,-0.5 179,-30.5 331,-30.5 331,-0.5 179,-0.5"/>
<text text-anchor="start" x="187" y="-18.5" font-family="Helvetica,sans-Serif" font-size="10.00">qtreports::detail::</text>
<text text-anchor="middle" x="255" y="-7.5" font-family="Helvetica,sans-Serif" font-size="10.00">ParserFromXML::parseChilds</text>
</a>
</g>
</g>
<!-- Node1&#45;&gt;Node2 -->
<g id="edge1" class="edge"><title>Node1&#45;&gt;Node2</title>
<path fill="none" stroke="midnightblue" d="M143.192,-15.5C151.472,-15.5 159.985,-15.5 168.439,-15.5"/>
<polygon fill="midnightblue" stroke="midnightblue" points="168.701,-19.0001 178.701,-15.5 168.701,-12.0001 168.701,-19.0001"/>
</g>
<!-- Node3 -->
<g id="node3" class="node"><title>Node3</title>
<g id="a_node3"><a xlink:href="classqtreports_1_1detail_1_1_parser_from_x_m_l.html#ace9dca09d283384d721c2a985991c9bf" target="_top" xlink:title="Устанавлиает курсор reader(а) к к началу следующего тэга или к концу документа ">
<polygon fill="none" stroke="black" points="367,-0.5 367,-30.5 543,-30.5 543,-0.5 367,-0.5"/>
<text text-anchor="start" x="375" y="-18.5" font-family="Helvetica,sans-Serif" font-size="10.00">qtreports::detail::</text>
<text text-anchor="middle" x="455" y="-7.5" font-family="Helvetica,sans-Serif" font-size="10.00">ParserFromXML::goToElementEnd</text>
</a>
</g>
</g>
<!-- Node2&#45;&gt;Node3 -->
<g id="edge2" class="edge"><title>Node2&#45;&gt;Node3</title>
<path fill="none" stroke="midnightblue" d="M331.138,-15.5C339.551,-15.5 348.209,-15.5 356.848,-15.5"/>
<polygon fill="midnightblue" stroke="midnightblue" points="356.966,-19.0001 366.966,-15.5 356.966,-12.0001 356.966,-19.0001"/>
</g>
</g>
</svg>
