<?xml version="1.0" encoding="UTF-8" standalone="no"?>
<!DOCTYPE svg PUBLIC "-//W3C//DTD SVG 1.1//EN"
 "http://www.w3.org/Graphics/SVG/1.1/DTD/svg11.dtd">
<!-- Generated by graphviz version 2.38.0 (20140413.2041)
 -->
<!-- Title: qtreports::detail::ParserFromXML::parseGroup Pages: 1 -->
<svg width="561pt" height="99pt"
 viewBox="0.00 0.00 561.00 98.50" xmlns="http://www.w3.org/2000/svg" xmlns:xlink="http://www.w3.org/1999/xlink">
<g id="graph0" class="graph" transform="scale(1 1) rotate(0) translate(4 94.5)">
<title>qtreports::detail::ParserFromXML::parseGroup</title>
<!-- Node1 -->
<g id="node1" class="node"><title>Node1</title>
<polygon fill="#bfbfbf" stroke="black" points="0,-27.5 0,-57.5 152,-57.5 152,-27.5 0,-27.5"/>
<text text-anchor="start" x="8" y="-45.5" font-family="Helvetica,sans-Serif" font-size="10.00">qtreports::detail::</text>
<text text-anchor="middle" x="76" y="-34.5" font-family="Helvetica,sans-Serif" font-size="10.00">ParserFromXML::parseGroup</text>
</g>
<!-- Node2 -->
<g id="node2" class="node"><title>Node2</title>
<g id="a_node2"><a xlink:href="classqtreports_1_1detail_1_1_parser_from_x_m_l.html#ab1cbf7385fa2d56c5e8526bf97cda9b1" target="_top" xlink:title="Вызывает функцию getAttribute с переданными параметрами и с параметром option &#45; &quot;обязательный аттрибу...">
<polygon fill="none" stroke="black" points="188,-49 188,-90 341,-90 341,-49 188,-49"/>
<text text-anchor="start" x="196" y="-78" font-family="Helvetica,sans-Serif" font-size="10.00">qtreports::detail::</text>
<text text-anchor="start" x="196" y="-67" font-family="Helvetica,sans-Serif" font-size="10.00">ParserFromXML::getRequired</text>
<text text-anchor="middle" x="264.5" y="-56" font-family="Helvetica,sans-Serif" font-size="10.00">Attribute</text>
</a>
</g>
</g>
<!-- Node1&#45;&gt;Node2 -->
<g id="edge1" class="edge"><title>Node1&#45;&gt;Node2</title>
<path fill="none" stroke="midnightblue" d="M152.051,-53.3652C160.562,-54.5975 169.285,-55.8602 177.919,-57.1102"/>
<polygon fill="midnightblue" stroke="midnightblue" points="177.597,-60.6001 187.996,-58.5691 178.6,-53.6723 177.597,-60.6001"/>
</g>
<!-- Node4 -->
<g id="node4" class="node"><title>Node4</title>
<g id="a_node4"><a xlink:href="classqtreports_1_1detail_1_1_parser_from_x_m_l.html#a905c36f37ab8c2833ab85e4d8c22716f" target="_top" xlink:title="Парсит дочерние тэги объекта object. ">
<polygon fill="none" stroke="black" points="188.5,-0.5 188.5,-30.5 340.5,-30.5 340.5,-0.5 188.5,-0.5"/>
<text text-anchor="start" x="196.5" y="-18.5" font-family="Helvetica,sans-Serif" font-size="10.00">qtreports::detail::</text>
<text text-anchor="middle" x="264.5" y="-7.5" font-family="Helvetica,sans-Serif" font-size="10.00">ParserFromXML::parseChilds</text>
</a>
</g>
</g>
<!-- Node1&#45;&gt;Node4 -->
<g id="edge3" class="edge"><title>Node1&#45;&gt;Node4</title>
<path fill="none" stroke="midnightblue" d="M152.051,-31.6348C160.635,-30.392 169.434,-29.1182 178.14,-27.8578"/>
<polygon fill="midnightblue" stroke="midnightblue" points="178.904,-31.2837 188.299,-26.3869 177.901,-24.3559 178.904,-31.2837"/>
</g>
<!-- Node3 -->
<g id="node3" class="node"><title>Node3</title>
<g id="a_node3"><a xlink:href="classqtreports_1_1detail_1_1_parser_from_x_m_l.html#ad0cab06b62d590495eaa6a16465ed2b4" target="_top" xlink:title="Записывает в data значение аттрибута с именем name текущего тэга ">
<polygon fill="none" stroke="black" points="388,-54.5 388,-84.5 542,-84.5 542,-54.5 388,-54.5"/>
<text text-anchor="start" x="396" y="-72.5" font-family="Helvetica,sans-Serif" font-size="10.00">qtreports::detail::</text>
<text text-anchor="middle" x="465" y="-61.5" font-family="Helvetica,sans-Serif" font-size="10.00">ParserFromXML::getAttribute</text>
</a>
</g>
</g>
<!-- Node2&#45;&gt;Node3 -->
<g id="edge2" class="edge"><title>Node2&#45;&gt;Node3</title>
<path fill="none" stroke="midnightblue" d="M341.111,-69.5C353.094,-69.5 365.566,-69.5 377.77,-69.5"/>
<polygon fill="midnightblue" stroke="midnightblue" points="377.942,-73.0001 387.942,-69.5 377.942,-66.0001 377.942,-73.0001"/>
</g>
<!-- Node5 -->
<g id="node5" class="node"><title>Node5</title>
<g id="a_node5"><a xlink:href="classqtreports_1_1detail_1_1_parser_from_x_m_l.html#ace9dca09d283384d721c2a985991c9bf" target="_top" xlink:title="Устанавлиает курсор reader(а) к к началу следующего тэга или к концу документа ">
<polygon fill="none" stroke="black" points="377,-0.5 377,-30.5 553,-30.5 553,-0.5 377,-0.5"/>
<text text-anchor="start" x="385" y="-18.5" font-family="Helvetica,sans-Serif" font-size="10.00">qtreports::detail::</text>
<text text-anchor="middle" x="465" y="-7.5" font-family="Helvetica,sans-Serif" font-size="10.00">ParserFromXML::goToElementEnd</text>
</a>
</g>
</g>
<!-- Node4&#45;&gt;Node5 -->
<g id="edge4" class="edge"><title>Node4&#45;&gt;Node5</title>
<path fill="none" stroke="midnightblue" d="M340.544,-15.5C349.067,-15.5 357.843,-15.5 366.599,-15.5"/>
<polygon fill="midnightblue" stroke="midnightblue" points="366.854,-19.0001 376.854,-15.5 366.854,-12.0001 366.854,-19.0001"/>
</g>
</g>
</svg>
