<?xml version="1.0" encoding="UTF-8" standalone="no"?>
<!DOCTYPE svg PUBLIC "-//W3C//DTD SVG 1.1//EN"
 "http://www.w3.org/Graphics/SVG/1.1/DTD/svg11.dtd">
<!-- Generated by graphviz version 2.38.0 (20140413.2041)
 -->
<!-- Title: qtreports::detail::ParserFromXML::parseChilds Pages: 1 -->
<!--zoomable 1257 -->
<svg id="main" version="1.1" xmlns="http://www.w3.org/2000/svg" xmlns:xlink="http://www.w3.org/1999/xlink" xml:space="preserve" onload="init(evt)">
<style type="text/css"><![CDATA[
.edge:hover path { stroke: red; }
.edge:hover polygon { stroke: red; fill: red; }
]]></style>
<script type="text/javascript"><![CDATA[
var edges = document.getElementsByTagName('g');
if (edges && edges.length) {
  for (var i=0;i<edges.length;i++) {
    if (edges[i].id.substr(0,4)=='edge') {
      edges[i].setAttribute('class','edge');
    }
  }
}
]]></script>
        <defs>
                <circle id="rim" cx="0" cy="0" r="7"/>
                <circle id="rim2" cx="0" cy="0" r="3.5"/>
                <g id="zoomPlus">
                        <use xlink:href="#rim" fill="#404040">
                                <set attributeName="fill" to="#808080" begin="zoomplus.mouseover" end="zoomplus.mouseout"/>
                        </use>
                        <path d="M-4,0h8M0,-4v8" fill="none" stroke="white" stroke-width="1.5" pointer-events="none"/>
                </g>
                <g id="zoomMin">
                        <use xlink:href="#rim" fill="#404040">
                                <set attributeName="fill" to="#808080" begin="zoomminus.mouseover" end="zoomminus.mouseout"/>
                        </use>
                        <path d="M-4,0h8" fill="none" stroke="white" stroke-width="1.5" pointer-events="none"/>
                </g>
                <g id="dirArrow">
                        <path fill="none" stroke="white" stroke-width="1.5" d="M0,-3.0v7 M-2.5,-0.5L0,-3.0L2.5,-0.5"/>
                </g>
               <g id="resetDef">
                       <use xlink:href="#rim2" fill="#404040">
                               <set attributeName="fill" to="#808080" begin="reset.mouseover" end="reset.mouseout"/>
                       </use>
               </g>
        </defs>

<script type="text/javascript">
var viewWidth = 896;
var viewHeight = 1257;
var sectionId = 'dynsection-17';
</script>
<script xlink:href="svgpan.js"/>
<svg id="graph" class="graph">
<g id="viewport">
<title>qtreports::detail::ParserFromXML::parseChilds</title>
<!-- Node1 -->
<g id="node1" class="node"><title>Node1</title>
<polygon fill="#bfbfbf" stroke="black" points="0,-625.5 0,-655.5 152,-655.5 152,-625.5 0,-625.5"/>
<text text-anchor="start" x="8" y="-643.5" font-family="Helvetica,sans-Serif" font-size="10.00">qtreports::detail::</text>
<text text-anchor="middle" x="76" y="-632.5" font-family="Helvetica,sans-Serif" font-size="10.00">ParserFromXML::parseChilds</text>
</g>
<!-- Node2 -->
<g id="node2" class="node"><title>Node2</title>
<g id="a_node2"><a xlink:href="classqtreports_1_1detail_1_1_parser_from_x_m_l.html#aa67a21faa016b0ef4686b22a390fd446" target="_top" xlink:title="Начинает парсинг документа ">
<polygon fill="none" stroke="black" points="195.5,-1218.5 195.5,-1248.5 368.5,-1248.5 368.5,-1218.5 195.5,-1218.5"/>
<text text-anchor="start" x="203.5" y="-1236.5" font-family="Helvetica,sans-Serif" font-size="10.00">qtreports::detail::</text>
<text text-anchor="middle" x="282" y="-1225.5" font-family="Helvetica,sans-Serif" font-size="10.00">ParserFromXML::parseDocument</text>
</a>
</g>
</g>
<!-- Node1&#45;&gt;Node2 -->
<g id="edge1" class="edge"><title>Node1&#45;&gt;Node2</title>
<path fill="none" stroke="midnightblue" d="M78.4239,-665.652C84.5546,-765.015 111.927,-1128.73 188,-1209.5 191.201,-1212.9 194.815,-1215.84 198.712,-1218.39"/>
<polygon fill="midnightblue" stroke="midnightblue" points="81.9148,-665.393 77.8225,-655.62 74.9273,-665.812 81.9148,-665.393"/>
</g>
<!-- Node6 -->
<g id="node6" class="node"><title>Node6</title>
<g id="a_node6"><a xlink:href="classqtreports_1_1detail_1_1_parser_from_x_m_l.html#a8247dc85ae5cae03ab3f175982a0857e" target="_top" xlink:title="Парсит тэг report. ">
<polygon fill="none" stroke="black" points="205,-1169.5 205,-1199.5 359,-1199.5 359,-1169.5 205,-1169.5"/>
<text text-anchor="start" x="213" y="-1187.5" font-family="Helvetica,sans-Serif" font-size="10.00">qtreports::detail::</text>
<text text-anchor="middle" x="282" y="-1176.5" font-family="Helvetica,sans-Serif" font-size="10.00">ParserFromXML::parseReport</text>
</a>
</g>
</g>
<!-- Node1&#45;&gt;Node6 -->
<g id="edge5" class="edge"><title>Node1&#45;&gt;Node6</title>
<path fill="none" stroke="midnightblue" d="M78.9196,-665.586C86.5948,-759.351 118.103,-1087.59 188,-1160.5 192.846,-1165.56 198.606,-1169.6 204.848,-1172.82"/>
<polygon fill="midnightblue" stroke="midnightblue" points="82.4056,-665.27 78.1191,-655.581 75.4279,-665.828 82.4056,-665.27"/>
</g>
<!-- Node8 -->
<g id="node8" class="node"><title>Node8</title>
<g id="a_node8"><a xlink:href="classqtreports_1_1detail_1_1_parser_from_x_m_l.html#a20a5b5081956769e0d219779407ba76c" target="_top" xlink:title="Парсит тэг Field. ">
<polygon fill="none" stroke="black" points="210,-1120.5 210,-1150.5 354,-1150.5 354,-1120.5 210,-1120.5"/>
<text text-anchor="start" x="218" y="-1138.5" font-family="Helvetica,sans-Serif" font-size="10.00">qtreports::detail::</text>
<text text-anchor="middle" x="282" y="-1127.5" font-family="Helvetica,sans-Serif" font-size="10.00">ParserFromXML::parseField</text>
</a>
</g>
</g>
<!-- Node1&#45;&gt;Node8 -->
<g id="edge7" class="edge"><title>Node1&#45;&gt;Node8</title>
<path fill="none" stroke="midnightblue" d="M79.5383,-665.757C88.9022,-753.96 124.309,-1046.45 188,-1111.5 194.183,-1117.81 201.792,-1122.54 209.971,-1126.07"/>
<polygon fill="midnightblue" stroke="midnightblue" points="82.997,-665.177 78.4796,-655.594 76.0347,-665.903 82.997,-665.177"/>
</g>
<!-- Node9 -->
<g id="node9" class="node"><title>Node9</title>
<g id="a_node9"><a xlink:href="classqtreports_1_1detail_1_1_parser_from_x_m_l.html#a477a961860b1de77b5a0da28e361987a" target="_top" xlink:title="Парсит тэг group. ">
<polygon fill="none" stroke="black" points="206,-1071.5 206,-1101.5 358,-1101.5 358,-1071.5 206,-1071.5"/>
<text text-anchor="start" x="214" y="-1089.5" font-family="Helvetica,sans-Serif" font-size="10.00">qtreports::detail::</text>
<text text-anchor="middle" x="282" y="-1078.5" font-family="Helvetica,sans-Serif" font-size="10.00">ParserFromXML::parseGroup</text>
</a>
</g>
</g>
<!-- Node1&#45;&gt;Node9 -->
<g id="edge9" class="edge"><title>Node1&#45;&gt;Node9</title>
<path fill="none" stroke="midnightblue" d="M80.2849,-665.799C91.4467,-747.947 130.449,-1005.22 188,-1062.5 193.2,-1067.68 199.36,-1071.78 205.996,-1075.03"/>
<polygon fill="midnightblue" stroke="midnightblue" points="83.746,-665.275 78.9507,-655.827 76.8079,-666.203 83.746,-665.275"/>
</g>
<!-- Node10 -->
<g id="node10" class="node"><title>Node10</title>
<g id="a_node10"><a xlink:href="classqtreports_1_1detail_1_1_parser_from_x_m_l.html#a5a92ffb4f04daa047da0ddfe3d583262" target="_top" xlink:title="Парсит тэг groupHeader. ">
<polygon fill="none" stroke="black" points="188,-1022.5 188,-1052.5 376,-1052.5 376,-1022.5 188,-1022.5"/>
<text text-anchor="start" x="196" y="-1040.5" font-family="Helvetica,sans-Serif" font-size="10.00">qtreports::detail::</text>
<text text-anchor="middle" x="282" y="-1029.5" font-family="Helvetica,sans-Serif" font-size="10.00">ParserFromXML::parseGroupHeader</text>
</a>
</g>
</g>
<!-- Node1&#45;&gt;Node10 -->
<g id="edge11" class="edge"><title>Node1&#45;&gt;Node10</title>
<path fill="none" stroke="midnightblue" d="M76.5764,-665.618C76.8821,-732.507 87.3201,-916.448 188,-1013.5 191.481,-1016.86 195.368,-1019.76 199.522,-1022.27"/>
<polygon fill="midnightblue" stroke="midnightblue" points="80.0764,-665.581 76.6057,-655.571 73.0765,-665.561 80.0764,-665.581"/>
</g>
<!-- Node11 -->
<g id="node11" class="node"><title>Node11</title>
<g id="a_node11"><a xlink:href="classqtreports_1_1detail_1_1_parser_from_x_m_l.html#acfd1224b98c50412fd1b1897da5a362a" target="_top" xlink:title="Парсит тэг groupFooter. ">
<polygon fill="none" stroke="black" points="190.5,-973.5 190.5,-1003.5 373.5,-1003.5 373.5,-973.5 190.5,-973.5"/>
<text text-anchor="start" x="198.5" y="-991.5" font-family="Helvetica,sans-Serif" font-size="10.00">qtreports::detail::</text>
<text text-anchor="middle" x="282" y="-980.5" font-family="Helvetica,sans-Serif" font-size="10.00">ParserFromXML::parseGroupFooter</text>
</a>
</g>
</g>
<!-- Node1&#45;&gt;Node11 -->
<g id="edge13" class="edge"><title>Node1&#45;&gt;Node11</title>
<path fill="none" stroke="midnightblue" d="M77.9181,-665.985C81.5429,-727.019 99.463,-882.572 188,-964.5 191.672,-967.898 195.76,-970.828 200.117,-973.355"/>
<polygon fill="midnightblue" stroke="midnightblue" points="81.3998,-665.536 77.3938,-655.727 74.4089,-665.893 81.3998,-665.536"/>
</g>
<!-- Node12 -->
<g id="node12" class="node"><title>Node12</title>
<g id="a_node12"><a xlink:href="classqtreports_1_1detail_1_1_parser_from_x_m_l.html#a88dc32b7c6b8727e6a7fed5e222a7aab" target="_top" xlink:title="Парсит тэг Title. ">
<polygon fill="none" stroke="black" points="210.5,-924.5 210.5,-954.5 353.5,-954.5 353.5,-924.5 210.5,-924.5"/>
<text text-anchor="start" x="218.5" y="-942.5" font-family="Helvetica,sans-Serif" font-size="10.00">qtreports::detail::</text>
<text text-anchor="middle" x="282" y="-931.5" font-family="Helvetica,sans-Serif" font-size="10.00">ParserFromXML::parseTitle</text>
</a>
</g>
</g>
<!-- Node1&#45;&gt;Node12 -->
<g id="edge15" class="edge"><title>Node1&#45;&gt;Node12</title>
<path fill="none" stroke="midnightblue" d="M79.6716,-665.826C86.7843,-720.106 111.22,-848.178 188,-915.5 194.52,-921.217 202.228,-925.601 210.373,-928.959"/>
<polygon fill="midnightblue" stroke="midnightblue" points="83.1218,-665.204 78.4367,-655.702 76.1733,-666.052 83.1218,-665.204"/>
</g>
<!-- Node13 -->
<g id="node13" class="node"><title>Node13</title>
<g id="a_node13"><a xlink:href="classqtreports_1_1detail_1_1_parser_from_x_m_l.html#a79d177b44a8d13065f226fd7940bdde0" target="_top" xlink:title="Парсит тэг Detail. ">
<polygon fill="none" stroke="black" points="206.5,-875.5 206.5,-905.5 357.5,-905.5 357.5,-875.5 206.5,-875.5"/>
<text text-anchor="start" x="214.5" y="-893.5" font-family="Helvetica,sans-Serif" font-size="10.00">qtreports::detail::</text>
<text text-anchor="middle" x="282" y="-882.5" font-family="Helvetica,sans-Serif" font-size="10.00">ParserFromXML::parseDetail</text>
</a>
</g>
</g>
<!-- Node1&#45;&gt;Node13 -->
<g id="edge17" class="edge"><title>Node1&#45;&gt;Node13</title>
<path fill="none" stroke="midnightblue" d="M82.0556,-665.506C92.865,-712.347 122.748,-813.365 188,-866.5 193.431,-870.922 199.583,-874.539 206.073,-877.497"/>
<polygon fill="midnightblue" stroke="midnightblue" points="85.4412,-664.606 79.8691,-655.594 78.6055,-666.114 85.4412,-664.606"/>
</g>
<!-- Node14 -->
<g id="node14" class="node"><title>Node14</title>
<g id="a_node14"><a xlink:href="classqtreports_1_1detail_1_1_parser_from_x_m_l.html#a1d2dfaa79bc7e339443ac12d56b3ba11" target="_top" xlink:title="Парсит тэг Summary. ">
<polygon fill="none" stroke="black" points="197,-826.5 197,-856.5 367,-856.5 367,-826.5 197,-826.5"/>
<text text-anchor="start" x="205" y="-844.5" font-family="Helvetica,sans-Serif" font-size="10.00">qtreports::detail::</text>
<text text-anchor="middle" x="282" y="-833.5" font-family="Helvetica,sans-Serif" font-size="10.00">ParserFromXML::parseSummary</text>
</a>
</g>
</g>
<!-- Node1&#45;&gt;Node14 -->
<g id="edge19" class="edge"><title>Node1&#45;&gt;Node14</title>
<path fill="none" stroke="midnightblue" d="M85.4971,-664.955C100.171,-703.482 133.986,-777.984 188,-817.5 192.71,-820.946 197.871,-823.898 203.271,-826.428"/>
<polygon fill="midnightblue" stroke="midnightblue" points="88.7677,-663.707 82.0211,-655.538 82.2008,-666.132 88.7677,-663.707"/>
</g>
<!-- Node15 -->
<g id="node15" class="node"><title>Node15</title>
<g id="a_node15"><a xlink:href="classqtreports_1_1detail_1_1_parser_from_x_m_l.html#af04b8018f1bb3d60ecb6525f31d29885" target="_top" xlink:title="Парсит тэг Band. ">
<polygon fill="none" stroke="black" points="208,-777.5 208,-807.5 356,-807.5 356,-777.5 208,-777.5"/>
<text text-anchor="start" x="216" y="-795.5" font-family="Helvetica,sans-Serif" font-size="10.00">qtreports::detail::</text>
<text text-anchor="middle" x="282" y="-784.5" font-family="Helvetica,sans-Serif" font-size="10.00">ParserFromXML::parseBand</text>
</a>
</g>
</g>
<!-- Node1&#45;&gt;Node15 -->
<g id="edge21" class="edge"><title>Node1&#45;&gt;Node15</title>
<path fill="none" stroke="midnightblue" d="M91.2971,-664.478C109.894,-693.552 145.126,-741.949 188,-768.5 194.096,-772.275 200.768,-775.459 207.65,-778.144"/>
<polygon fill="midnightblue" stroke="midnightblue" points="94.1227,-662.395 85.8551,-655.769 88.1865,-666.104 94.1227,-662.395"/>
</g>
<!-- Node16 -->
<g id="node16" class="node"><title>Node16</title>
<g id="a_node16"><a xlink:href="classqtreports_1_1detail_1_1_parser_from_x_m_l.html#a55d48b0d7875a6a4366c0e30f6cf5624" target="_top" xlink:title="Парсит тэг Crosstab. ">
<polygon fill="none" stroke="black" points="199,-728.5 199,-758.5 365,-758.5 365,-728.5 199,-728.5"/>
<text text-anchor="start" x="207" y="-746.5" font-family="Helvetica,sans-Serif" font-size="10.00">qtreports::detail::</text>
<text text-anchor="middle" x="282" y="-735.5" font-family="Helvetica,sans-Serif" font-size="10.00">ParserFromXML::parseCrosstab</text>
</a>
</g>
</g>
<!-- Node1&#45;&gt;Node16 -->
<g id="edge23" class="edge"><title>Node1&#45;&gt;Node16</title>
<path fill="none" stroke="midnightblue" d="M101.754,-662.19C123.219,-679.956 155.816,-704.523 188,-719.5 195.257,-722.877 203.062,-725.831 210.954,-728.403"/>
<polygon fill="midnightblue" stroke="midnightblue" points="103.726,-659.275 93.8212,-655.513 99.2178,-664.63 103.726,-659.275"/>
</g>
<!-- Node17 -->
<g id="node17" class="node"><title>Node17</title>
<g id="a_node17"><a xlink:href="classqtreports_1_1detail_1_1_parser_from_x_m_l.html#a9f70ead2687f2b3fc8f21dd6bf85049f" target="_top" xlink:title="Парсит тэг rowGroup. ">
<polygon fill="none" stroke="black" points="197,-679.5 197,-709.5 367,-709.5 367,-679.5 197,-679.5"/>
<text text-anchor="start" x="205" y="-697.5" font-family="Helvetica,sans-Serif" font-size="10.00">qtreports::detail::</text>
<text text-anchor="middle" x="282" y="-686.5" font-family="Helvetica,sans-Serif" font-size="10.00">ParserFromXML::parseRowGroup</text>
</a>
</g>
</g>
<!-- Node1&#45;&gt;Node17 -->
<g id="edge25" class="edge"><title>Node1&#45;&gt;Node17</title>
<path fill="none" stroke="midnightblue" d="M141.813,-658.15C156.96,-662.238 173.039,-666.548 188,-670.5 199.124,-673.439 211.008,-676.537 222.433,-679.495"/>
<polygon fill="midnightblue" stroke="midnightblue" points="142.581,-654.733 132.014,-655.502 140.755,-661.49 142.581,-654.733"/>
</g>
<!-- Node18 -->
<g id="node18" class="node"><title>Node18</title>
<g id="a_node18"><a xlink:href="classqtreports_1_1detail_1_1_parser_from_x_m_l.html#a400e9daf7e859228f6ac7419963bb808" target="_top" xlink:title="Парсит тэг columnGroup. ">
<polygon fill="none" stroke="black" points="202,-620 202,-661 362,-661 362,-620 202,-620"/>
<text text-anchor="start" x="210" y="-649" font-family="Helvetica,sans-Serif" font-size="10.00">qtreports::detail::</text>
<text text-anchor="start" x="210" y="-638" font-family="Helvetica,sans-Serif" font-size="10.00">ParserFromXML::parseColumn</text>
<text text-anchor="middle" x="282" y="-627" font-family="Helvetica,sans-Serif" font-size="10.00">Group</text>
</a>
</g>
</g>
<!-- Node1&#45;&gt;Node18 -->
<g id="edge27" class="edge"><title>Node1&#45;&gt;Node18</title>
<path fill="none" stroke="midnightblue" d="M162.099,-640.5C175.303,-640.5 188.895,-640.5 201.958,-640.5"/>
<polygon fill="midnightblue" stroke="midnightblue" points="162.093,-637 152.093,-640.5 162.093,-644 162.093,-637"/>
</g>
<!-- Node19 -->
<g id="node19" class="node"><title>Node19</title>
<g id="a_node19"><a xlink:href="classqtreports_1_1detail_1_1_parser_from_x_m_l.html#ac7539fad6732c571ad578861a5259807" target="_top" xlink:title="Парсит тэг crosstabCell. ">
<polygon fill="none" stroke="black" points="190.5,-571.5 190.5,-601.5 373.5,-601.5 373.5,-571.5 190.5,-571.5"/>
<text text-anchor="start" x="198.5" y="-589.5" font-family="Helvetica,sans-Serif" font-size="10.00">qtreports::detail::</text>
<text text-anchor="middle" x="282" y="-578.5" font-family="Helvetica,sans-Serif" font-size="10.00">ParserFromXML::parseCrosstabCell</text>
</a>
</g>
</g>
<!-- Node1&#45;&gt;Node19 -->
<g id="edge29" class="edge"><title>Node1&#45;&gt;Node19</title>
<path fill="none" stroke="midnightblue" d="M141.813,-622.85C156.96,-618.762 173.039,-614.452 188,-610.5 199.124,-607.561 211.008,-604.463 222.433,-601.505"/>
<polygon fill="midnightblue" stroke="midnightblue" points="140.755,-619.51 132.014,-625.498 142.581,-626.267 140.755,-619.51"/>
</g>
<!-- Node20 -->
<g id="node20" class="node"><title>Node20</title>
<g id="a_node20"><a xlink:href="classqtreports_1_1detail_1_1_parser_from_x_m_l.html#a939abd9300aa969d1a16d822370183cd" target="_top" xlink:title="Парсит тэг crosstabRowHeader. ">
<polygon fill="none" stroke="black" points="199,-512 199,-553 365,-553 365,-512 199,-512"/>
<text text-anchor="start" x="207" y="-541" font-family="Helvetica,sans-Serif" font-size="10.00">qtreports::detail::</text>
<text text-anchor="start" x="207" y="-530" font-family="Helvetica,sans-Serif" font-size="10.00">ParserFromXML::parseCrosstab</text>
<text text-anchor="middle" x="282" y="-519" font-family="Helvetica,sans-Serif" font-size="10.00">RowHeader</text>
</a>
</g>
</g>
<!-- Node1&#45;&gt;Node20 -->
<g id="edge31" class="edge"><title>Node1&#45;&gt;Node20</title>
<path fill="none" stroke="midnightblue" d="M102.803,-618.976C124.44,-601.787 156.735,-578.08 188,-562.5 194.833,-559.095 202.137,-555.96 209.536,-553.106"/>
<polygon fill="midnightblue" stroke="midnightblue" points="100.368,-616.443 94.7767,-625.442 104.76,-621.894 100.368,-616.443"/>
</g>
<!-- Node21 -->
<g id="node21" class="node"><title>Node21</title>
<g id="a_node21"><a xlink:href="classqtreports_1_1detail_1_1_parser_from_x_m_l.html#a8768348db3be505ca13d1bd45173715d" target="_top" xlink:title="Парсит тэг crosstabColumnHeader. ">
<polygon fill="none" stroke="black" points="199,-452 199,-493 365,-493 365,-452 199,-452"/>
<text text-anchor="start" x="207" y="-481" font-family="Helvetica,sans-Serif" font-size="10.00">qtreports::detail::</text>
<text text-anchor="start" x="207" y="-470" font-family="Helvetica,sans-Serif" font-size="10.00">ParserFromXML::parseCrosstab</text>
<text text-anchor="middle" x="282" y="-459" font-family="Helvetica,sans-Serif" font-size="10.00">ColumnHeader</text>
</a>
</g>
</g>
<!-- Node1&#45;&gt;Node21 -->
<g id="edge33" class="edge"><title>Node1&#45;&gt;Node21</title>
<path fill="none" stroke="midnightblue" d="M90.3045,-616.429C108.487,-585.682 143.928,-532.828 188,-502.5 193.031,-499.038 198.487,-495.956 204.147,-493.216"/>
<polygon fill="midnightblue" stroke="midnightblue" points="87.2015,-614.803 85.2253,-625.212 93.2613,-618.308 87.2015,-614.803"/>
</g>
<!-- Node22 -->
<g id="node22" class="node"><title>Node22</title>
<g id="a_node22"><a xlink:href="classqtreports_1_1detail_1_1_parser_from_x_m_l.html#a7d6ac273ba11965a23a0b0d330ce822f" target="_top" xlink:title="Парсит тэг cellContents. ">
<polygon fill="none" stroke="black" points="199,-392 199,-433 365,-433 365,-392 199,-392"/>
<text text-anchor="start" x="207" y="-421" font-family="Helvetica,sans-Serif" font-size="10.00">qtreports::detail::</text>
<text text-anchor="start" x="207" y="-410" font-family="Helvetica,sans-Serif" font-size="10.00">ParserFromXML::parseCrosstab</text>
<text text-anchor="middle" x="282" y="-399" font-family="Helvetica,sans-Serif" font-size="10.00">CellContents</text>
</a>
</g>
</g>
<!-- Node1&#45;&gt;Node22 -->
<g id="edge35" class="edge"><title>Node1&#45;&gt;Node22</title>
<path fill="none" stroke="midnightblue" d="M84.2856,-615.678C97.8201,-573.854 130.791,-489.328 188,-442.5 192.332,-438.954 197.093,-435.824 202.1,-433.061"/>
<polygon fill="midnightblue" stroke="midnightblue" points="80.9076,-614.754 81.2604,-625.343 87.5879,-616.845 80.9076,-614.754"/>
</g>
<!-- Node23 -->
<g id="node23" class="node"><title>Node23</title>
<g id="a_node23"><a xlink:href="classqtreports_1_1detail_1_1_parser_from_x_m_l.html#a53c4121976bc3f27125f8f698d4d8304" target="_top" xlink:title="Парсит тэг StaticText. ">
<polygon fill="none" stroke="black" points="197,-343.5 197,-373.5 367,-373.5 367,-343.5 197,-343.5"/>
<text text-anchor="start" x="205" y="-361.5" font-family="Helvetica,sans-Serif" font-size="10.00">qtreports::detail::</text>
<text text-anchor="middle" x="282" y="-350.5" font-family="Helvetica,sans-Serif" font-size="10.00">ParserFromXML::parseStaticText</text>
</a>
</g>
</g>
<!-- Node1&#45;&gt;Node23 -->
<g id="edge37" class="edge"><title>Node1&#45;&gt;Node23</title>
<path fill="none" stroke="midnightblue" d="M80.4079,-615.288C88.776,-563.516 115.237,-444.856 188,-382.5 191.925,-379.136 196.263,-376.235 200.857,-373.734"/>
<polygon fill="midnightblue" stroke="midnightblue" points="76.9324,-614.864 78.8868,-625.277 83.8526,-615.918 76.9324,-614.864"/>
</g>
<!-- Node24 -->
<g id="node24" class="node"><title>Node24</title>
<g id="a_node24"><a xlink:href="classqtreports_1_1detail_1_1_parser_from_x_m_l.html#a65b13ade0e7ee85dee9c8c1beab76d7a" target="_top" xlink:title="Парсит тэг TextField. ">
<polygon fill="none" stroke="black" points="200.5,-294.5 200.5,-324.5 363.5,-324.5 363.5,-294.5 200.5,-294.5"/>
<text text-anchor="start" x="208.5" y="-312.5" font-family="Helvetica,sans-Serif" font-size="10.00">qtreports::detail::</text>
<text text-anchor="middle" x="282" y="-301.5" font-family="Helvetica,sans-Serif" font-size="10.00">ParserFromXML::parseTextField</text>
</a>
</g>
</g>
<!-- Node1&#45;&gt;Node24 -->
<g id="edge39" class="edge"><title>Node1&#45;&gt;Node24</title>
<path fill="none" stroke="midnightblue" d="M78.5441,-615.281C83.5127,-556.887 104.112,-411.515 188,-334.5 192.187,-330.656 196.903,-327.392 201.933,-324.621"/>
<polygon fill="midnightblue" stroke="midnightblue" points="75.0396,-615.208 77.7655,-625.446 82.0191,-615.742 75.0396,-615.208"/>
</g>
<!-- Node25 -->
<g id="node25" class="node"><title>Node25</title>
<g id="a_node25"><a xlink:href="classqtreports_1_1detail_1_1_parser_from_x_m_l.html#a14d5b8d1921d17d067c10554864120a2" target="_top" xlink:title="Парсит тэг Line. ">
<polygon fill="none" stroke="black" points="210.5,-245.5 210.5,-275.5 353.5,-275.5 353.5,-245.5 210.5,-245.5"/>
<text text-anchor="start" x="218.5" y="-263.5" font-family="Helvetica,sans-Serif" font-size="10.00">qtreports::detail::</text>
<text text-anchor="middle" x="282" y="-252.5" font-family="Helvetica,sans-Serif" font-size="10.00">ParserFromXML::parseLine</text>
</a>
</g>
</g>
<!-- Node1&#45;&gt;Node25 -->
<g id="edge41" class="edge"><title>Node1&#45;&gt;Node25</title>
<path fill="none" stroke="midnightblue" d="M77.0782,-615.337C78.6985,-550.698 92.2396,-377.464 188,-285.5 194.391,-279.362 202.122,-274.694 210.364,-271.151"/>
<polygon fill="midnightblue" stroke="midnightblue" points="73.5772,-615.369 76.903,-625.429 80.5761,-615.491 73.5772,-615.369"/>
</g>
<!-- Node26 -->
<g id="node26" class="node"><title>Node26</title>
<g id="a_node26"><a xlink:href="classqtreports_1_1detail_1_1_parser_from_x_m_l.html#a8b364c4886eb32dc960079052e5158ec" target="_top" xlink:title="Парсит тэг Rect. ">
<polygon fill="none" stroke="black" points="210.5,-196.5 210.5,-226.5 353.5,-226.5 353.5,-196.5 210.5,-196.5"/>
<text text-anchor="start" x="218.5" y="-214.5" font-family="Helvetica,sans-Serif" font-size="10.00">qtreports::detail::</text>
<text text-anchor="middle" x="282" y="-203.5" font-family="Helvetica,sans-Serif" font-size="10.00">ParserFromXML::parseRect</text>
</a>
</g>
</g>
<!-- Node1&#45;&gt;Node26 -->
<g id="edge43" class="edge"><title>Node1&#45;&gt;Node26</title>
<path fill="none" stroke="midnightblue" d="M80.6165,-615.275C92.5307,-535.582 132.953,-291.243 188,-236.5 194.283,-230.252 201.951,-225.519 210.16,-221.942"/>
<polygon fill="midnightblue" stroke="midnightblue" points="77.1212,-614.987 79.126,-625.391 84.0464,-616.008 77.1212,-614.987"/>
</g>
<!-- Node27 -->
<g id="node27" class="node"><title>Node27</title>
<g id="a_node27"><a xlink:href="classqtreports_1_1detail_1_1_parser_from_x_m_l.html#a7dc4d03466c276ea931ad46b295d5ee7" target="_top" xlink:title="Парсит тэг Ellipse. ">
<polygon fill="none" stroke="black" points="205.5,-147.5 205.5,-177.5 358.5,-177.5 358.5,-147.5 205.5,-147.5"/>
<text text-anchor="start" x="213.5" y="-165.5" font-family="Helvetica,sans-Serif" font-size="10.00">qtreports::detail::</text>
<text text-anchor="middle" x="282" y="-154.5" font-family="Helvetica,sans-Serif" font-size="10.00">ParserFromXML::parseEllipse</text>
</a>
</g>
</g>
<!-- Node1&#45;&gt;Node27 -->
<g id="edge45" class="edge"><title>Node1&#45;&gt;Node27</title>
<path fill="none" stroke="midnightblue" d="M79.8368,-615.084C89.9486,-528.944 126.922,-249.956 188,-187.5 193.026,-182.36 198.988,-178.242 205.429,-174.946"/>
<polygon fill="midnightblue" stroke="midnightblue" points="76.3567,-614.71 78.687,-625.046 83.3106,-615.513 76.3567,-614.71"/>
</g>
<!-- Node28 -->
<g id="node28" class="node"><title>Node28</title>
<g id="a_node28"><a xlink:href="classqtreports_1_1detail_1_1_parser_from_x_m_l.html#a877a6f05ca0b9dda625083f9860202cc" target="_top" xlink:title="Парсит тэг Image. ">
<polygon fill="none" stroke="black" points="205.5,-98.5 205.5,-128.5 358.5,-128.5 358.5,-98.5 205.5,-98.5"/>
<text text-anchor="start" x="213.5" y="-116.5" font-family="Helvetica,sans-Serif" font-size="10.00">qtreports::detail::</text>
<text text-anchor="middle" x="282" y="-105.5" font-family="Helvetica,sans-Serif" font-size="10.00">ParserFromXML::parseImage</text>
</a>
</g>
</g>
<!-- Node1&#45;&gt;Node28 -->
<g id="edge47" class="edge"><title>Node1&#45;&gt;Node28</title>
<path fill="none" stroke="midnightblue" d="M79.1519,-615.417C87.508,-523.791 120.729,-208.868 188,-138.5 192.968,-133.303 198.891,-129.147 205.308,-125.829"/>
<polygon fill="midnightblue" stroke="midnightblue" points="75.6591,-615.181 78.2555,-625.453 82.6314,-615.804 75.6591,-615.181"/>
</g>
<!-- Node29 -->
<g id="node29" class="node"><title>Node29</title>
<g id="a_node29"><a xlink:href="classqtreports_1_1detail_1_1_parser_from_x_m_l.html#a3693d70428f413c6adb999bf0ad69abe" target="_top" xlink:title="Парсит тэг TextElement &#45; общие данные о текстовом элементе (выравнивание текста и пр...">
<polygon fill="none" stroke="black" points="191,-49.5 191,-79.5 373,-79.5 373,-49.5 191,-49.5"/>
<text text-anchor="start" x="199" y="-67.5" font-family="Helvetica,sans-Serif" font-size="10.00">qtreports::detail::</text>
<text text-anchor="middle" x="282" y="-56.5" font-family="Helvetica,sans-Serif" font-size="10.00">ParserFromXML::parseTextElement</text>
</a>
</g>
</g>
<!-- Node1&#45;&gt;Node29 -->
<g id="edge49" class="edge"><title>Node1&#45;&gt;Node29</title>
<path fill="none" stroke="midnightblue" d="M78.6313,-615.228C85.427,-517.743 114.633,-167.705 188,-89.5 191.546,-85.7201 195.597,-82.489 199.979,-79.7293"/>
<polygon fill="midnightblue" stroke="midnightblue" points="75.13,-615.129 77.9442,-625.344 82.1139,-615.604 75.13,-615.129"/>
</g>
<!-- Node30 -->
<g id="node30" class="node"><title>Node30</title>
<g id="a_node30"><a xlink:href="classqtreports_1_1detail_1_1_parser_from_x_m_l.html#abae86fff31affc499e427922f199dfd6" target="_top" xlink:title="qtreports::detail::\lParserFromXML::parseVariable">
<polygon fill="none" stroke="black" points="201.5,-0.5 201.5,-30.5 362.5,-30.5 362.5,-0.5 201.5,-0.5"/>
<text text-anchor="start" x="209.5" y="-18.5" font-family="Helvetica,sans-Serif" font-size="10.00">qtreports::detail::</text>
<text text-anchor="middle" x="282" y="-7.5" font-family="Helvetica,sans-Serif" font-size="10.00">ParserFromXML::parseVariable</text>
</a>
</g>
</g>
<!-- Node1&#45;&gt;Node30 -->
<g id="edge51" class="edge"><title>Node1&#45;&gt;Node30</title>
<path fill="none" stroke="midnightblue" d="M78.143,-615.284C83.3175,-512.353 107.887,-125.42 188,-39.5 191.866,-35.3534 196.346,-31.885 201.208,-28.9876"/>
<polygon fill="midnightblue" stroke="midnightblue" points="74.6421,-615.218 77.6528,-625.376 81.6339,-615.558 74.6421,-615.218"/>
</g>
<!-- Node3 -->
<g id="node3" class="node"><title>Node3</title>
<g id="a_node3"><a xlink:href="classqtreports_1_1detail_1_1_parser_from_x_m_l.html#ac5de42ec7fdd07773b0435484df51c2e" target="_top" xlink:title="Парсит отчет и создает из него внутреннюю структуру данных Report. ">
<polygon fill="none" stroke="black" points="435.5,-1218.5 435.5,-1248.5 558.5,-1248.5 558.5,-1218.5 435.5,-1218.5"/>
<text text-anchor="start" x="443.5" y="-1236.5" font-family="Helvetica,sans-Serif" font-size="10.00">qtreports::detail::</text>
<text text-anchor="middle" x="497" y="-1225.5" font-family="Helvetica,sans-Serif" font-size="10.00">ParserFromXML::parse</text>
</a>
</g>
</g>
<!-- Node2&#45;&gt;Node3 -->
<g id="edge2" class="edge"><title>Node2&#45;&gt;Node3</title>
<path fill="none" stroke="midnightblue" d="M378.72,-1233.5C397.962,-1233.5 417.678,-1233.5 435.321,-1233.5"/>
<polygon fill="midnightblue" stroke="midnightblue" points="378.715,-1230 368.715,-1233.5 378.715,-1237 378.715,-1230"/>
</g>
<!-- Node4 -->
<g id="node4" class="node"><title>Node4</title>
<g id="a_node4"><a xlink:href="classqtreports_1_1_engine.html#a12cebdcb817b3c9a0c730b9439b2ff85" target="_top" xlink:title="Загружает макет отчета из файла path. ">
<polygon fill="none" stroke="black" points="618,-1224 618,-1243 747,-1243 747,-1224 618,-1224"/>
<text text-anchor="middle" x="682.5" y="-1231" font-family="Helvetica,sans-Serif" font-size="10.00">qtreports::Engine::open</text>
</a>
</g>
</g>
<!-- Node3&#45;&gt;Node4 -->
<g id="edge3" class="edge"><title>Node3&#45;&gt;Node4</title>
<path fill="none" stroke="midnightblue" d="M569.009,-1233.5C585.089,-1233.5 602.066,-1233.5 617.822,-1233.5"/>
<polygon fill="midnightblue" stroke="midnightblue" points="568.593,-1230 558.593,-1233.5 568.593,-1237 568.593,-1230"/>
</g>
<!-- Node5 -->
<g id="node5" class="node"><title>Node5</title>
<g id="a_node5"><a xlink:href="classqtreports_1_1_engine.html#a18298bdce3e086347705e133eccfd7fa" target="_top" xlink:title="qtreports::Engine::\lEngine">
<polygon fill="none" stroke="black" points="783,-1218.5 783,-1248.5 888,-1248.5 888,-1218.5 783,-1218.5"/>
<text text-anchor="start" x="791" y="-1236.5" font-family="Helvetica,sans-Serif" font-size="10.00">qtreports::Engine::</text>
<text text-anchor="middle" x="835.5" y="-1225.5" font-family="Helvetica,sans-Serif" font-size="10.00">Engine</text>
</a>
</g>
</g>
<!-- Node4&#45;&gt;Node5 -->
<g id="edge4" class="edge"><title>Node4&#45;&gt;Node5</title>
<path fill="none" stroke="midnightblue" d="M757.234,-1233.5C765.902,-1233.5 774.601,-1233.5 782.874,-1233.5"/>
<polygon fill="midnightblue" stroke="midnightblue" points="757.1,-1230 747.1,-1233.5 757.1,-1237 757.1,-1230"/>
</g>
<!-- Node7 -->
<g id="node7" class="node"><title>Node7</title>
<g id="a_node7"><a xlink:href="classqtreports_1_1detail_1_1_parser_from_x_m_l.html#ab548bd252b2e13a315daefae6b43f1d6" target="_top" xlink:title="qtreports::detail::\lParserFromXML::ParserFromXML">
<polygon fill="none" stroke="black" points="412,-598.5 412,-628.5 582,-628.5 582,-598.5 412,-598.5"/>
<text text-anchor="start" x="420" y="-616.5" font-family="Helvetica,sans-Serif" font-size="10.00">qtreports::detail::</text>
<text text-anchor="middle" x="497" y="-605.5" font-family="Helvetica,sans-Serif" font-size="10.00">ParserFromXML::ParserFromXML</text>
</a>
</g>
</g>
<!-- Node6&#45;&gt;Node7 -->
<g id="edge6" class="edge"><title>Node6&#45;&gt;Node7</title>
<path fill="none" stroke="midnightblue" d="M367.815,-1167.52C370.746,-1165.43 373.494,-1163.1 376,-1160.5 453.009,-1080.62 488.09,-708.343 494.79,-628.573"/>
<polygon fill="midnightblue" stroke="midnightblue" points="365.856,-1164.62 359.122,-1172.8 369.487,-1170.6 365.856,-1164.62"/>
</g>
<!-- Node8&#45;&gt;Node7 -->
<g id="edge8" class="edge"><title>Node8&#45;&gt;Node7</title>
<path fill="none" stroke="midnightblue" d="M363.542,-1121.19C368.081,-1118.47 372.294,-1115.27 376,-1111.5 446.72,-1039.63 486.305,-704.377 494.428,-628.704"/>
<polygon fill="midnightblue" stroke="midnightblue" points="361.763,-1118.17 354.462,-1125.84 364.957,-1124.39 361.763,-1118.17"/>
</g>
<!-- Node9&#45;&gt;Node7 -->
<g id="edge10" class="edge"><title>Node9&#45;&gt;Node7</title>
<path fill="none" stroke="midnightblue" d="M367.179,-1069.71C370.332,-1067.58 373.295,-1065.18 376,-1062.5 440.462,-998.59 484.309,-700.18 493.983,-628.846"/>
<polygon fill="midnightblue" stroke="midnightblue" points="365.327,-1066.74 358.435,-1074.79 368.841,-1072.8 365.327,-1066.74"/>
</g>
<!-- Node10&#45;&gt;Node7 -->
<g id="edge12" class="edge"><title>Node10&#45;&gt;Node7</title>
<path fill="none" stroke="midnightblue" d="M372.967,-1016.22C374.008,-1015.35 375.02,-1014.44 376,-1013.5 490.698,-903.18 496.928,-687.973 496.372,-628.848"/>
<polygon fill="midnightblue" stroke="midnightblue" points="370.593,-1013.62 364.469,-1022.26 374.648,-1019.32 370.593,-1013.62"/>
</g>
<!-- Node11&#45;&gt;Node7 -->
<g id="edge14" class="edge"><title>Node11&#45;&gt;Node7</title>
<path fill="none" stroke="midnightblue" d="M372.441,-967.551C373.665,-966.579 374.853,-965.562 376,-964.5 478.541,-869.553 493.466,-683.37 495.633,-628.846"/>
<polygon fill="midnightblue" stroke="midnightblue" points="370.195,-964.846 363.886,-973.358 374.126,-970.638 370.195,-964.846"/>
</g>
<!-- Node12&#45;&gt;Node7 -->
<g id="edge16" class="edge"><title>Node12&#45;&gt;Node7</title>
<path fill="none" stroke="midnightblue" d="M362.949,-924.56C367.629,-921.991 372.037,-918.994 376,-915.5 466.564,-835.657 489.571,-678.266 494.683,-628.772"/>
<polygon fill="midnightblue" stroke="midnightblue" points="361.176,-921.528 353.657,-928.992 364.189,-927.846 361.176,-921.528"/>
</g>
<!-- Node13&#45;&gt;Node7 -->
<g id="edge18" class="edge"><title>Node13&#45;&gt;Node7</title>
<path fill="none" stroke="midnightblue" d="M366.601,-873.075C369.909,-871.109 373.063,-868.925 376,-866.5 454.721,-801.498 485.04,-672.893 493.394,-628.774"/>
<polygon fill="midnightblue" stroke="midnightblue" points="364.79,-870.071 357.527,-877.785 368.015,-876.284 364.79,-870.071"/>
</g>
<!-- Node14&#45;&gt;Node7 -->
<g id="edge20" class="edge"><title>Node14&#45;&gt;Node7</title>
<path fill="none" stroke="midnightblue" d="M370.278,-821.424C372.249,-820.193 374.161,-818.886 376,-817.5 443.27,-766.804 479.753,-666.486 491.619,-628.527"/>
<polygon fill="midnightblue" stroke="midnightblue" points="368.38,-818.474 361.3,-826.355 371.75,-824.609 368.38,-818.474"/>
</g>
<!-- Node15&#45;&gt;Node7 -->
<g id="edge22" class="edge"><title>Node15&#45;&gt;Node7</title>
<path fill="none" stroke="midnightblue" d="M365.437,-774.53C369.106,-772.71 372.649,-770.706 376,-768.5 431.995,-731.632 472.872,-659.718 488.739,-628.529"/>
<polygon fill="midnightblue" stroke="midnightblue" points="363.81,-771.423 356.095,-778.684 366.655,-777.819 363.81,-771.423"/>
</g>
<!-- Node16&#45;&gt;Node7 -->
<g id="edge24" class="edge"><title>Node16&#45;&gt;Node7</title>
<path fill="none" stroke="midnightblue" d="M364.962,-724.729C368.757,-723.121 372.456,-721.381 376,-719.5 420.93,-695.648 462.944,-651.731 483.252,-628.624"/>
<polygon fill="midnightblue" stroke="midnightblue" points="363.421,-721.574 355.37,-728.461 365.959,-728.097 363.421,-721.574"/>
</g>
<!-- Node17&#45;&gt;Node7 -->
<g id="edge26" class="edge"><title>Node17&#45;&gt;Node7</title>
<path fill="none" stroke="midnightblue" d="M357.798,-676.54C364.001,-674.645 370.136,-672.627 376,-670.5 408.522,-658.702 444.131,-641.16 468.044,-628.656"/>
<polygon fill="midnightblue" stroke="midnightblue" points="356.63,-673.235 348.024,-679.415 358.606,-679.951 356.63,-673.235"/>
</g>
<!-- Node18&#45;&gt;Node7 -->
<g id="edge28" class="edge"><title>Node18&#45;&gt;Node7</title>
<path fill="none" stroke="midnightblue" d="M371.994,-629.219C385.161,-627.55 398.694,-625.835 411.76,-624.178"/>
<polygon fill="midnightblue" stroke="midnightblue" points="371.491,-625.755 362.011,-630.485 372.371,-632.699 371.491,-625.755"/>
</g>
<!-- Node19&#45;&gt;Node7 -->
<g id="edge30" class="edge"><title>Node19&#45;&gt;Node7</title>
<path fill="none" stroke="midnightblue" d="M383.797,-599.277C393.191,-600.468 402.645,-601.666 411.865,-602.835"/>
<polygon fill="midnightblue" stroke="midnightblue" points="384.001,-595.775 373.64,-597.99 383.12,-602.719 384.001,-595.775"/>
</g>
<!-- Node20&#45;&gt;Node7 -->
<g id="edge32" class="edge"><title>Node20&#45;&gt;Node7</title>
<path fill="none" stroke="midnightblue" d="M359.025,-556.403C364.79,-558.405 370.501,-560.449 376,-562.5 405.694,-573.574 438.799,-587.788 462.703,-598.397"/>
<polygon fill="midnightblue" stroke="midnightblue" points="359.893,-553.001 349.299,-553.079 357.63,-559.625 359.893,-553.001"/>
</g>
<!-- Node21&#45;&gt;Node7 -->
<g id="edge34" class="edge"><title>Node21&#45;&gt;Node7</title>
<path fill="none" stroke="midnightblue" d="M366.085,-497.2C369.49,-498.869 372.81,-500.634 376,-502.5 421.074,-528.864 463.346,-574.673 483.559,-598.354"/>
<polygon fill="midnightblue" stroke="midnightblue" points="367.453,-493.978 356.903,-493.007 364.545,-500.345 367.453,-493.978"/>
</g>
<!-- Node22&#45;&gt;Node7 -->
<g id="edge36" class="edge"><title>Node22&#45;&gt;Node7</title>
<path fill="none" stroke="midnightblue" d="M369.497,-438.102C371.736,-439.493 373.909,-440.958 376,-442.5 434.231,-485.447 474.58,-565.306 489.554,-598.464"/>
<polygon fill="midnightblue" stroke="midnightblue" points="371.009,-434.937 360.576,-433.091 367.581,-441.04 371.009,-434.937"/>
</g>
<!-- Node23&#45;&gt;Node7 -->
<g id="edge38" class="edge"><title>Node23&#45;&gt;Node7</title>
<path fill="none" stroke="midnightblue" d="M370.982,-378.846C372.709,-379.998 374.385,-381.215 376,-382.5 449.556,-441.029 482.802,-556.945 492.684,-598.355"/>
<polygon fill="midnightblue" stroke="midnightblue" points="372.366,-375.602 361.96,-373.607 368.85,-381.656 372.366,-375.602"/>
</g>
<!-- Node24&#45;&gt;Node7 -->
<g id="edge40" class="edge"><title>Node24&#45;&gt;Node7</title>
<path fill="none" stroke="midnightblue" d="M370.362,-330.113C372.318,-331.484 374.203,-332.944 376,-334.5 460.708,-407.842 487.471,-551.664 494.12,-598.423"/>
<polygon fill="midnightblue" stroke="midnightblue" points="371.735,-326.853 361.37,-324.662 368.107,-332.839 371.735,-326.853"/>
</g>
<!-- Node25&#45;&gt;Node7 -->
<g id="edge42" class="edge"><title>Node25&#45;&gt;Node7</title>
<path fill="none" stroke="midnightblue" d="M363.078,-276.206C367.727,-278.848 372.092,-281.922 376,-285.5 472.601,-373.943 491.618,-546.646 495.202,-598.457"/>
<polygon fill="midnightblue" stroke="midnightblue" points="364.348,-272.929 353.832,-271.641 361.249,-279.206 364.348,-272.929"/>
</g>
<!-- Node26&#45;&gt;Node7 -->
<g id="edge44" class="edge"><title>Node26&#45;&gt;Node7</title>
<path fill="none" stroke="midnightblue" d="M362.627,-226.653C367.471,-229.42 371.996,-232.674 376,-236.5 484.513,-340.179 495.21,-541.515 496.015,-598.275"/>
<polygon fill="midnightblue" stroke="midnightblue" points="364.12,-223.487 353.606,-222.182 361.011,-229.759 364.12,-223.487"/>
</g>
<!-- Node27&#45;&gt;Node7 -->
<g id="edge46" class="edge"><title>Node27&#45;&gt;Node7</title>
<path fill="none" stroke="midnightblue" d="M367.641,-180.596C370.619,-182.662 373.424,-184.955 376,-187.5 496.789,-306.852 498.459,-537.614 496.658,-598.482"/>
<polygon fill="midnightblue" stroke="midnightblue" points="369.223,-177.464 358.84,-175.355 365.642,-183.479 369.223,-177.464"/>
</g>
<!-- Node28&#45;&gt;Node7 -->
<g id="edge48" class="edge"><title>Node28&#45;&gt;Node7</title>
<path fill="none" stroke="midnightblue" d="M367.241,-131.167C370.378,-133.345 373.32,-135.779 376,-138.5 443.446,-206.976 485.33,-524.744 494.221,-598.281"/>
<polygon fill="midnightblue" stroke="midnightblue" points="368.916,-128.091 358.533,-125.984 365.335,-134.106 368.916,-128.091"/>
</g>
<!-- Node29&#45;&gt;Node7 -->
<g id="edge50" class="edge"><title>Node29&#45;&gt;Node7</title>
<path fill="none" stroke="midnightblue" d="M371.613,-85.4023C373.142,-86.6905 374.608,-88.055 376,-89.5 449.646,-165.96 487.166,-520.347 494.608,-598.306"/>
<polygon fill="midnightblue" stroke="midnightblue" points="373.647,-82.5537 363.479,-79.5752 369.57,-88.2442 373.647,-82.5537"/>
</g>
<!-- Node30&#45;&gt;Node7 -->
<g id="edge52" class="edge"><title>Node30&#45;&gt;Node7</title>
<path fill="none" stroke="midnightblue" d="M370.947,-34.8247C372.72,-36.2779 374.41,-37.834 376,-39.5 456.402,-123.727 488.93,-515.736 494.943,-598.236"/>
<polygon fill="midnightblue" stroke="midnightblue" points="372.894,-31.9157 362.683,-29.0905 368.903,-37.6669 372.894,-31.9157"/>
</g>
</g>
</svg>
        <g id="navigator" transform="translate(0 0)" fill="#404254">
                <rect fill="#f2f5e9" fill-opacity="0.5" stroke="#606060" stroke-width=".5" x="0" y="0" width="60" height="60"/>
                <use id="zoomplus" xlink:href="#zoomPlus" x="17" y="9" onmousedown="handleZoom(evt,'in')"/>
                <use id="zoomminus" xlink:href="#zoomMin" x="42" y="9" onmousedown="handleZoom(evt,'out')"/>
                <use id="reset" xlink:href="#resetDef" x="30" y="36" onmousedown="handleReset()"/>
                <g id="arrowUp" xlink:href="#dirArrow" transform="translate(30 24)" onmousedown="handlePan(0,-1)">
                  <use xlink:href="#rim" fill="#404040">
                        <set attributeName="fill" to="#808080" begin="arrowUp.mouseover" end="arrowUp.mouseout"/>
                  </use>
                  <path fill="none" stroke="white" stroke-width="1.5" d="M0,-3.0v7 M-2.5,-0.5L0,-3.0L2.5,-0.5"/>
                </g>
                <g id="arrowRight" xlink:href="#dirArrow" transform="rotate(90) translate(36 -43)" onmousedown="handlePan(1,0)">
                  <use xlink:href="#rim" fill="#404040">
                        <set attributeName="fill" to="#808080" begin="arrowRight.mouseover" end="arrowRight.mouseout"/>
                  </use>
                  <path fill="none" stroke="white" stroke-width="1.5" d="M0,-3.0v7 M-2.5,-0.5L0,-3.0L2.5,-0.5"/>
                </g>
                <g id="arrowDown" xlink:href="#dirArrow" transform="rotate(180) translate(-30 -48)" onmousedown="handlePan(0,1)">
                  <use xlink:href="#rim" fill="#404040">
                        <set attributeName="fill" to="#808080" begin="arrowDown.mouseover" end="arrowDown.mouseout"/>
                  </use>
                  <path fill="none" stroke="white" stroke-width="1.5" d="M0,-3.0v7 M-2.5,-0.5L0,-3.0L2.5,-0.5"/>
                </g>
                <g id="arrowLeft" xlink:href="#dirArrow" transform="rotate(270) translate(-36 17)" onmousedown="handlePan(-1,0)">
                  <use xlink:href="#rim" fill="#404040">
                        <set attributeName="fill" to="#808080" begin="arrowLeft.mouseover" end="arrowLeft.mouseout"/>
                  </use>
                  <path fill="none" stroke="white" stroke-width="1.5" d="M0,-3.0v7 M-2.5,-0.5L0,-3.0L2.5,-0.5"/>
                </g>
        </g>
        <svg viewBox="0 0 15 15" width="100%" height="30px" preserveAspectRatio="xMaxYMin meet">
         <g id="arrow_out" transform="scale(0.3 0.3)">
          <a xlink:href="classqtreports_1_1detail_1_1_parser_from_x_m_l_a905c36f37ab8c2833ab85e4d8c22716f_icgraph_org.svg" target="_base">
           <rect id="button" ry="5" rx="5" y="6" x="6" height="38" width="38"
                fill="#f2f5e9" fill-opacity="0.5" stroke="#606060" stroke-width="1.0"/>
           <path id="arrow"
             d="M 11.500037,31.436501 C 11.940474,20.09759 22.043105,11.32322 32.158766,21.979434 L 37.068811,17.246167 C 37.068811,17.246167 37.088388,32 37.088388,32 L 22.160133,31.978069 C 22.160133,31.978069 26.997745,27.140456 26.997745,27.140456 C 18.528582,18.264221 13.291696,25.230495 11.500037,31.436501 z"
             style="fill:#404040;"/>
          </a>
         </g>
        </svg>
</svg>
