<?xml version="1.0" encoding="UTF-8" standalone="no"?>
<!DOCTYPE svg PUBLIC "-//W3C//DTD SVG 1.1//EN"
 "http://www.w3.org/Graphics/SVG/1.1/DTD/svg11.dtd">
<!-- Generated by graphviz version 2.38.0 (20140413.2041)
 -->
<!-- Title: /home/travis/build/PO&#45;31/QtReports/qtreports/src/tags/crosstabheader.cpp Pages: 1 -->
<!--zoomable 498 -->
<svg id="main" version="1.1" xmlns="http://www.w3.org/2000/svg" xmlns:xlink="http://www.w3.org/1999/xlink" xml:space="preserve" onload="init(evt)">
<style type="text/css"><![CDATA[
.edge:hover path { stroke: red; }
.edge:hover polygon { stroke: red; fill: red; }
]]></style>
<script type="text/javascript"><![CDATA[
var edges = document.getElementsByTagName('g');
if (edges && edges.length) {
  for (var i=0;i<edges.length;i++) {
    if (edges[i].id.substr(0,4)=='edge') {
      edges[i].setAttribute('class','edge');
    }
  }
}
]]></script>
        <defs>
                <circle id="rim" cx="0" cy="0" r="7"/>
                <circle id="rim2" cx="0" cy="0" r="3.5"/>
                <g id="zoomPlus">
                        <use xlink:href="#rim" fill="#404040">
                                <set attributeName="fill" to="#808080" begin="zoomplus.mouseover" end="zoomplus.mouseout"/>
                        </use>
                        <path d="M-4,0h8M0,-4v8" fill="none" stroke="white" stroke-width="1.5" pointer-events="none"/>
                </g>
                <g id="zoomMin">
                        <use xlink:href="#rim" fill="#404040">
                                <set attributeName="fill" to="#808080" begin="zoomminus.mouseover" end="zoomminus.mouseout"/>
                        </use>
                        <path d="M-4,0h8" fill="none" stroke="white" stroke-width="1.5" pointer-events="none"/>
                </g>
                <g id="dirArrow">
                        <path fill="none" stroke="white" stroke-width="1.5" d="M0,-3.0v7 M-2.5,-0.5L0,-3.0L2.5,-0.5"/>
                </g>
               <g id="resetDef">
                       <use xlink:href="#rim2" fill="#404040">
                               <set attributeName="fill" to="#808080" begin="reset.mouseover" end="reset.mouseout"/>
                       </use>
               </g>
        </defs>

<script type="text/javascript">
var viewWidth = 542;
var viewHeight = 498;
var sectionId = 'dynsection-0';
</script>
<script xlink:href="svgpan.js"/>
<svg id="graph" class="graph">
<g id="viewport">
<title>/home/travis/build/PO&#45;31/QtReports/qtreports/src/tags/crosstabheader.cpp</title>
<!-- Node1 -->
<g id="node1" class="node"><title>Node1</title>
<polygon fill="#bfbfbf" stroke="black" points="75.5,-448.5 75.5,-489.5 230.5,-489.5 230.5,-448.5 75.5,-448.5"/>
<text text-anchor="start" x="83.5" y="-477.5" font-family="Helvetica,sans-Serif" font-size="10.00">/home/travis/build</text>
<text text-anchor="start" x="83.5" y="-466.5" font-family="Helvetica,sans-Serif" font-size="10.00">/PO&#45;31/QtReports/qtreports</text>
<text text-anchor="middle" x="153" y="-455.5" font-family="Helvetica,sans-Serif" font-size="10.00">/src/tags/crosstabheader.cpp</text>
</g>
<!-- Node2 -->
<g id="node2" class="node"><title>Node2</title>
<g id="a_node2"><a xlink:href="crosstabheader_8hpp.html" target="_top" xlink:title="crosstabheader.hpp">
<polygon fill="none" stroke="black" points="97,-392.5 97,-411.5 209,-411.5 209,-392.5 97,-392.5"/>
<text text-anchor="middle" x="153" y="-399.5" font-family="Helvetica,sans-Serif" font-size="10.00">crosstabheader.hpp</text>
</a>
</g>
</g>
<!-- Node1&#45;&gt;Node2 -->
<g id="edge1" class="edge"><title>Node1&#45;&gt;Node2</title>
<path fill="none" stroke="midnightblue" d="M153,-448.498C153,-440.065 153,-430.235 153,-421.874"/>
<polygon fill="midnightblue" stroke="midnightblue" points="156.5,-421.652 153,-411.652 149.5,-421.653 156.5,-421.652"/>
</g>
<!-- Node3 -->
<g id="node3" class="node"><title>Node3</title>
<g id="a_node3"><a xlink:href="object_8hpp.html" target="_top" xlink:title="object.hpp">
<polygon fill="none" stroke="black" points="142.5,-56.5 142.5,-75.5 209.5,-75.5 209.5,-56.5 142.5,-56.5"/>
<text text-anchor="middle" x="176" y="-63.5" font-family="Helvetica,sans-Serif" font-size="10.00">object.hpp</text>
</a>
</g>
</g>
<!-- Node2&#45;&gt;Node3 -->
<g id="edge2" class="edge"><title>Node2&#45;&gt;Node3</title>
<path fill="none" stroke="midnightblue" d="M147.577,-392.25C136.861,-374.096 114,-330.713 114,-291 114,-291 114,-291 114,-177 114,-139.622 141.504,-103.237 159.875,-83.1037"/>
<polygon fill="midnightblue" stroke="midnightblue" points="162.51,-85.4116 166.852,-75.7474 157.431,-80.5945 162.51,-85.4116"/>
</g>
<!-- Node7 -->
<g id="node7" class="node"><title>Node7</title>
<g id="a_node7"><a xlink:href="cellcontents_8hpp.html" target="_top" xlink:title="cellcontents.hpp">
<polygon fill="none" stroke="black" points="145.5,-336.5 145.5,-355.5 240.5,-355.5 240.5,-336.5 145.5,-336.5"/>
<text text-anchor="middle" x="193" y="-343.5" font-family="Helvetica,sans-Serif" font-size="10.00">cellcontents.hpp</text>
</a>
</g>
</g>
<!-- Node2&#45;&gt;Node7 -->
<g id="edge6" class="edge"><title>Node2&#45;&gt;Node7</title>
<path fill="none" stroke="midnightblue" d="M159.605,-392.083C165.255,-384.455 173.545,-373.264 180.451,-363.941"/>
<polygon fill="midnightblue" stroke="midnightblue" points="183.378,-365.87 186.518,-355.751 177.753,-361.703 183.378,-365.87"/>
</g>
<!-- Node4 -->
<g id="node4" class="node"><title>Node4</title>
<polygon fill="none" stroke="#bfbfbf" points="49.5,-0.5 49.5,-19.5 102.5,-19.5 102.5,-0.5 49.5,-0.5"/>
<text text-anchor="middle" x="76" y="-7.5" font-family="Helvetica,sans-Serif" font-size="10.00">QString</text>
</g>
<!-- Node3&#45;&gt;Node4 -->
<g id="edge3" class="edge"><title>Node3&#45;&gt;Node4</title>
<path fill="none" stroke="midnightblue" d="M159.933,-56.324C144.042,-47.7428 119.493,-34.486 101.042,-24.5224"/>
<polygon fill="midnightblue" stroke="midnightblue" points="102.489,-21.3264 92.0269,-19.6545 99.1629,-27.4857 102.489,-21.3264"/>
</g>
<!-- Node5 -->
<g id="node5" class="node"><title>Node5</title>
<polygon fill="none" stroke="#bfbfbf" points="147,-0.5 147,-19.5 205,-19.5 205,-0.5 147,-0.5"/>
<text text-anchor="middle" x="176" y="-7.5" font-family="Helvetica,sans-Serif" font-size="10.00">QVariant</text>
</g>
<!-- Node3&#45;&gt;Node5 -->
<g id="edge4" class="edge"><title>Node3&#45;&gt;Node5</title>
<path fill="none" stroke="midnightblue" d="M176,-56.083C176,-49.0059 176,-38.8611 176,-29.9865"/>
<polygon fill="midnightblue" stroke="midnightblue" points="179.5,-29.751 176,-19.7511 172.5,-29.7511 179.5,-29.751"/>
</g>
<!-- Node6 -->
<g id="node6" class="node"><title>Node6</title>
<polygon fill="none" stroke="#bfbfbf" points="412,-0.5 412,-19.5 504,-19.5 504,-0.5 412,-0.5"/>
<text text-anchor="middle" x="458" y="-7.5" font-family="Helvetica,sans-Serif" font-size="10.00">QSharedPointer</text>
</g>
<!-- Node3&#45;&gt;Node6 -->
<g id="edge5" class="edge"><title>Node3&#45;&gt;Node6</title>
<path fill="none" stroke="midnightblue" d="M209.736,-58.54C257.73,-49.3496 346.245,-32.3999 403.586,-21.4197"/>
<polygon fill="midnightblue" stroke="midnightblue" points="404.398,-24.8278 413.562,-19.5095 403.082,-17.9527 404.398,-24.8278"/>
</g>
<!-- Node8 -->
<g id="node8" class="node"><title>Node8</title>
<g id="a_node8"><a xlink:href="widget_8hpp.html" target="_top" xlink:title="widget.hpp">
<polygon fill="none" stroke="black" points="231,-168.5 231,-187.5 299,-187.5 299,-168.5 231,-168.5"/>
<text text-anchor="middle" x="265" y="-175.5" font-family="Helvetica,sans-Serif" font-size="10.00">widget.hpp</text>
</a>
</g>
</g>
<!-- Node7&#45;&gt;Node8 -->
<g id="edge7" class="edge"><title>Node7&#45;&gt;Node8</title>
<path fill="none" stroke="midnightblue" d="M205.852,-336.193C216.675,-328.071 231.686,-315.024 240,-300 258.201,-267.109 263.199,-222.547 264.54,-197.706"/>
<polygon fill="midnightblue" stroke="midnightblue" points="268.045,-197.642 264.94,-187.512 261.05,-197.367 268.045,-197.642"/>
</g>
<!-- Node14 -->
<g id="node14" class="node"><title>Node14</title>
<g id="a_node14"><a xlink:href="textfield_8hpp.html" target="_top" xlink:title="textfield.hpp">
<polygon fill="none" stroke="black" points="155,-280.5 155,-299.5 231,-299.5 231,-280.5 155,-280.5"/>
<text text-anchor="middle" x="193" y="-287.5" font-family="Helvetica,sans-Serif" font-size="10.00">textfield.hpp</text>
</a>
</g>
</g>
<!-- Node7&#45;&gt;Node14 -->
<g id="edge19" class="edge"><title>Node7&#45;&gt;Node14</title>
<path fill="none" stroke="midnightblue" d="M193,-336.083C193,-329.006 193,-318.861 193,-309.986"/>
<polygon fill="midnightblue" stroke="midnightblue" points="196.5,-309.751 193,-299.751 189.5,-309.751 196.5,-309.751"/>
</g>
<!-- Node8&#45;&gt;Node3 -->
<g id="edge18" class="edge"><title>Node8&#45;&gt;Node3</title>
<path fill="none" stroke="midnightblue" d="M230.577,-170.195C209.448,-164.051 184.019,-152.667 171,-132 162.337,-118.248 164.966,-99.4697 168.946,-85.6324"/>
<polygon fill="midnightblue" stroke="midnightblue" points="172.386,-86.3786 172.236,-75.7848 165.747,-84.1602 172.386,-86.3786"/>
</g>
<!-- Node8&#45;&gt;Node4 -->
<g id="edge8" class="edge"><title>Node8&#45;&gt;Node4</title>
<path fill="none" stroke="midnightblue" d="M238.211,-168.42C216.556,-160.772 185.858,-148.275 162,-132 132.923,-112.165 126.132,-104.872 106,-76 95.7911,-61.3591 87.5953,-42.6896 82.3667,-29.1187"/>
<polygon fill="midnightblue" stroke="midnightblue" points="85.5662,-27.6784 78.8278,-19.5026 78.9969,-30.0961 85.5662,-27.6784"/>
</g>
<!-- Node8&#45;&gt;Node6 -->
<g id="edge12" class="edge"><title>Node8&#45;&gt;Node6</title>
<path fill="none" stroke="midnightblue" d="M299.183,-172.632C344.37,-166.135 420.447,-152.453 439,-132 464.513,-103.875 463.678,-56.1109 460.839,-29.7915"/>
<polygon fill="midnightblue" stroke="midnightblue" points="464.28,-29.117 459.525,-19.6492 457.338,-30.0158 464.28,-29.117"/>
</g>
<!-- Node9 -->
<g id="node9" class="node"><title>Node9</title>
<polygon fill="none" stroke="#bfbfbf" points="180,-112.5 180,-131.5 228,-131.5 228,-112.5 180,-112.5"/>
<text text-anchor="middle" x="204" y="-119.5" font-family="Helvetica,sans-Serif" font-size="10.00">QPoint</text>
</g>
<!-- Node8&#45;&gt;Node9 -->
<g id="edge9" class="edge"><title>Node8&#45;&gt;Node9</title>
<path fill="none" stroke="midnightblue" d="M255.199,-168.324C246.182,-160.341 232.594,-148.313 221.682,-138.653"/>
<polygon fill="midnightblue" stroke="midnightblue" points="223.787,-135.842 213.979,-131.834 219.147,-141.083 223.787,-135.842"/>
</g>
<!-- Node10 -->
<g id="node10" class="node"><title>Node10</title>
<polygon fill="none" stroke="#bfbfbf" points="246,-112.5 246,-131.5 290,-131.5 290,-112.5 246,-112.5"/>
<text text-anchor="middle" x="268" y="-119.5" font-family="Helvetica,sans-Serif" font-size="10.00">QSize</text>
</g>
<!-- Node8&#45;&gt;Node10 -->
<g id="edge10" class="edge"><title>Node8&#45;&gt;Node10</title>
<path fill="none" stroke="midnightblue" d="M265.495,-168.083C265.889,-161.006 266.452,-150.861 266.945,-141.986"/>
<polygon fill="midnightblue" stroke="midnightblue" points="270.454,-141.93 267.514,-131.751 263.464,-141.542 270.454,-141.93"/>
</g>
<!-- Node11 -->
<g id="node11" class="node"><title>Node11</title>
<polygon fill="none" stroke="#bfbfbf" points="308,-112.5 308,-131.5 352,-131.5 352,-112.5 308,-112.5"/>
<text text-anchor="middle" x="330" y="-119.5" font-family="Helvetica,sans-Serif" font-size="10.00">QRect</text>
</g>
<!-- Node8&#45;&gt;Node11 -->
<g id="edge11" class="edge"><title>Node8&#45;&gt;Node11</title>
<path fill="none" stroke="midnightblue" d="M275.443,-168.324C285.146,-160.263 299.815,-148.077 311.5,-138.369"/>
<polygon fill="midnightblue" stroke="midnightblue" points="313.911,-140.916 319.367,-131.834 309.438,-135.532 313.911,-140.916"/>
</g>
<!-- Node12 -->
<g id="node12" class="node"><title>Node12</title>
<g id="a_node12"><a xlink:href="style_8hpp.html" target="_top" xlink:title="style.hpp">
<polygon fill="none" stroke="black" points="370,-112.5 370,-131.5 430,-131.5 430,-112.5 370,-112.5"/>
<text text-anchor="middle" x="400" y="-119.5" font-family="Helvetica,sans-Serif" font-size="10.00">style.hpp</text>
</a>
</g>
</g>
<!-- Node8&#45;&gt;Node12 -->
<g id="edge13" class="edge"><title>Node8&#45;&gt;Node12</title>
<path fill="none" stroke="midnightblue" d="M286.391,-168.444C308.707,-159.517 343.903,-145.439 369.208,-135.317"/>
<polygon fill="midnightblue" stroke="midnightblue" points="370.724,-138.48 378.709,-131.516 368.124,-131.981 370.724,-138.48"/>
</g>
<!-- Node12&#45;&gt;Node3 -->
<g id="edge17" class="edge"><title>Node12&#45;&gt;Node3</title>
<path fill="none" stroke="midnightblue" d="M369.79,-113.717C331.125,-104.396 263.864,-88.1815 219.637,-77.5196"/>
<polygon fill="midnightblue" stroke="midnightblue" points="220.287,-74.0762 209.745,-75.135 218.647,-80.8812 220.287,-74.0762"/>
</g>
<!-- Node12&#45;&gt;Node4 -->
<g id="edge14" class="edge"><title>Node12&#45;&gt;Node4</title>
<path fill="none" stroke="midnightblue" d="M369.811,-113.813C366.84,-113.172 363.865,-112.556 361,-112 260.291,-92.4539 222.845,-125.52 133,-76 112.753,-64.8405 96.2353,-43.5784 86.289,-28.4109"/>
<polygon fill="midnightblue" stroke="midnightblue" points="89.2379,-26.5253 80.9706,-19.8994 83.3015,-30.2346 89.2379,-26.5253"/>
</g>
<!-- Node12&#45;&gt;Node6 -->
<g id="edge16" class="edge"><title>Node12&#45;&gt;Node6</title>
<path fill="none" stroke="midnightblue" d="M390.792,-112.239C378.471,-99.4164 359.436,-75.0002 371,-56 380.46,-40.4569 397.21,-30.0455 413.505,-23.1913"/>
<polygon fill="midnightblue" stroke="midnightblue" points="414.903,-26.4035 422.987,-19.5548 412.397,-19.8676 414.903,-26.4035"/>
</g>
<!-- Node13 -->
<g id="node13" class="node"><title>Node13</title>
<polygon fill="none" stroke="#bfbfbf" points="380.5,-56.5 380.5,-75.5 429.5,-75.5 429.5,-56.5 380.5,-56.5"/>
<text text-anchor="middle" x="405" y="-63.5" font-family="Helvetica,sans-Serif" font-size="10.00">QColor</text>
</g>
<!-- Node12&#45;&gt;Node13 -->
<g id="edge15" class="edge"><title>Node12&#45;&gt;Node13</title>
<path fill="none" stroke="midnightblue" d="M400.826,-112.083C401.481,-105.006 402.42,-94.8611 403.242,-85.9865"/>
<polygon fill="midnightblue" stroke="midnightblue" points="406.753,-86.0312 404.19,-75.7511 399.783,-85.3858 406.753,-86.0312"/>
</g>
<!-- Node14&#45;&gt;Node4 -->
<g id="edge20" class="edge"><title>Node14&#45;&gt;Node4</title>
<path fill="none" stroke="midnightblue" d="M154.869,-284.484C98.6233,-275.462 0,-249.578 0,-179 0,-179 0,-179 0,-121 0,-81.2757 33.9641,-45.5045 56.4821,-26.1536"/>
<polygon fill="midnightblue" stroke="midnightblue" points="58.9755,-28.6337 64.4572,-19.5672 54.518,-23.2364 58.9755,-28.6337"/>
</g>
<!-- Node14&#45;&gt;Node6 -->
<g id="edge21" class="edge"><title>Node14&#45;&gt;Node6</title>
<path fill="none" stroke="midnightblue" d="M231.124,-284.887C320.107,-274.232 534,-242.061 534,-179 534,-179 534,-179 534,-121 534,-81.2757 500.036,-45.5045 477.518,-26.1536"/>
<polygon fill="midnightblue" stroke="midnightblue" points="479.482,-23.2364 469.543,-19.5672 475.024,-28.6337 479.482,-23.2364"/>
</g>
<!-- Node15 -->
<g id="node15" class="node"><title>Node15</title>
<g id="a_node15"><a xlink:href="textwidget_8hpp.html" target="_top" xlink:title="textwidget.hpp">
<polygon fill="none" stroke="black" points="149.5,-224.5 149.5,-243.5 236.5,-243.5 236.5,-224.5 149.5,-224.5"/>
<text text-anchor="middle" x="193" y="-231.5" font-family="Helvetica,sans-Serif" font-size="10.00">textwidget.hpp</text>
</a>
</g>
</g>
<!-- Node14&#45;&gt;Node15 -->
<g id="edge22" class="edge"><title>Node14&#45;&gt;Node15</title>
<path fill="none" stroke="midnightblue" d="M193,-280.083C193,-273.006 193,-262.861 193,-253.986"/>
<polygon fill="midnightblue" stroke="midnightblue" points="196.5,-253.751 193,-243.751 189.5,-253.751 196.5,-253.751"/>
</g>
<!-- Node15&#45;&gt;Node4 -->
<g id="edge23" class="edge"><title>Node15&#45;&gt;Node4</title>
<path fill="none" stroke="midnightblue" d="M185.841,-224.426C167.268,-201.737 117.166,-137.635 91,-76 84.6994,-61.1587 80.8154,-43.2361 78.5831,-29.9729"/>
<polygon fill="midnightblue" stroke="midnightblue" points="81.9868,-29.0735 77.0272,-19.7112 75.0659,-30.1229 81.9868,-29.0735"/>
</g>
<!-- Node15&#45;&gt;Node6 -->
<g id="edge24" class="edge"><title>Node15&#45;&gt;Node6</title>
<path fill="none" stroke="midnightblue" d="M236.619,-228.525C295.708,-220.127 400.61,-196.558 460,-132 483.37,-106.596 482.528,-89.8954 476,-56 474.21,-46.7047 470.517,-36.8887 466.939,-28.8048"/>
<polygon fill="midnightblue" stroke="midnightblue" points="470.056,-27.2089 462.621,-19.6611 463.727,-30.1981 470.056,-27.2089"/>
</g>
<!-- Node15&#45;&gt;Node8 -->
<g id="edge25" class="edge"><title>Node15&#45;&gt;Node8</title>
<path fill="none" stroke="midnightblue" d="M204.568,-224.324C215.42,-216.185 231.881,-203.839 244.883,-194.087"/>
<polygon fill="midnightblue" stroke="midnightblue" points="247.321,-196.634 253.221,-187.834 243.121,-191.034 247.321,-196.634"/>
</g>
</g>
</svg>
        <g id="navigator" transform="translate(0 0)" fill="#404254">
                <rect fill="#f2f5e9" fill-opacity="0.5" stroke="#606060" stroke-width=".5" x="0" y="0" width="60" height="60"/>
                <use id="zoomplus" xlink:href="#zoomPlus" x="17" y="9" onmousedown="handleZoom(evt,'in')"/>
                <use id="zoomminus" xlink:href="#zoomMin" x="42" y="9" onmousedown="handleZoom(evt,'out')"/>
                <use id="reset" xlink:href="#resetDef" x="30" y="36" onmousedown="handleReset()"/>
                <g id="arrowUp" xlink:href="#dirArrow" transform="translate(30 24)" onmousedown="handlePan(0,-1)">
                  <use xlink:href="#rim" fill="#404040">
                        <set attributeName="fill" to="#808080" begin="arrowUp.mouseover" end="arrowUp.mouseout"/>
                  </use>
                  <path fill="none" stroke="white" stroke-width="1.5" d="M0,-3.0v7 M-2.5,-0.5L0,-3.0L2.5,-0.5"/>
                </g>
                <g id="arrowRight" xlink:href="#dirArrow" transform="rotate(90) translate(36 -43)" onmousedown="handlePan(1,0)">
                  <use xlink:href="#rim" fill="#404040">
                        <set attributeName="fill" to="#808080" begin="arrowRight.mouseover" end="arrowRight.mouseout"/>
                  </use>
                  <path fill="none" stroke="white" stroke-width="1.5" d="M0,-3.0v7 M-2.5,-0.5L0,-3.0L2.5,-0.5"/>
                </g>
                <g id="arrowDown" xlink:href="#dirArrow" transform="rotate(180) translate(-30 -48)" onmousedown="handlePan(0,1)">
                  <use xlink:href="#rim" fill="#404040">
                        <set attributeName="fill" to="#808080" begin="arrowDown.mouseover" end="arrowDown.mouseout"/>
                  </use>
                  <path fill="none" stroke="white" stroke-width="1.5" d="M0,-3.0v7 M-2.5,-0.5L0,-3.0L2.5,-0.5"/>
                </g>
                <g id="arrowLeft" xlink:href="#dirArrow" transform="rotate(270) translate(-36 17)" onmousedown="handlePan(-1,0)">
                  <use xlink:href="#rim" fill="#404040">
                        <set attributeName="fill" to="#808080" begin="arrowLeft.mouseover" end="arrowLeft.mouseout"/>
                  </use>
                  <path fill="none" stroke="white" stroke-width="1.5" d="M0,-3.0v7 M-2.5,-0.5L0,-3.0L2.5,-0.5"/>
                </g>
        </g>
        <svg viewBox="0 0 15 15" width="100%" height="30px" preserveAspectRatio="xMaxYMin meet">
         <g id="arrow_out" transform="scale(0.3 0.3)">
          <a xlink:href="crosstabheader_8cpp__incl_org.svg" target="_base">
           <rect id="button" ry="5" rx="5" y="6" x="6" height="38" width="38"
                fill="#f2f5e9" fill-opacity="0.5" stroke="#606060" stroke-width="1.0"/>
           <path id="arrow"
             d="M 11.500037,31.436501 C 11.940474,20.09759 22.043105,11.32322 32.158766,21.979434 L 37.068811,17.246167 C 37.068811,17.246167 37.088388,32 37.088388,32 L 22.160133,31.978069 C 22.160133,31.978069 26.997745,27.140456 26.997745,27.140456 C 18.528582,18.264221 13.291696,25.230495 11.500037,31.436501 z"
             style="fill:#404040;"/>
          </a>
         </g>
        </svg>
</svg>
