<?xml version="1.0" encoding="UTF-8" standalone="no"?>
<!DOCTYPE svg PUBLIC "-//W3C//DTD SVG 1.1//EN"
 "http://www.w3.org/Graphics/SVG/1.1/DTD/svg11.dtd">
<!-- Generated by graphviz version 2.38.0 (20140413.2041)
 -->
<!-- Title: /home/travis/build/PO&#45;31/QtReports/qtreports/src/tags/group.hpp Pages: 1 -->
<svg width="1063pt" height="722pt"
 viewBox="0.00 0.00 1063.00 722.00" xmlns="http://www.w3.org/2000/svg" xmlns:xlink="http://www.w3.org/1999/xlink">
<g id="graph0" class="graph" transform="scale(1 1) rotate(0) translate(4 718)">
<title>/home/travis/build/PO&#45;31/QtReports/qtreports/src/tags/group.hpp</title>
<!-- Node1 -->
<g id="node1" class="node"><title>Node1</title>
<polygon fill="#bfbfbf" stroke="black" points="451,-672.5 451,-713.5 597,-713.5 597,-672.5 451,-672.5"/>
<text text-anchor="start" x="459" y="-701.5" font-family="Helvetica,sans-Serif" font-size="10.00">/home/travis/build</text>
<text text-anchor="start" x="459" y="-690.5" font-family="Helvetica,sans-Serif" font-size="10.00">/PO&#45;31/QtReports/qtreports</text>
<text text-anchor="middle" x="524" y="-679.5" font-family="Helvetica,sans-Serif" font-size="10.00">/src/tags/group.hpp</text>
</g>
<!-- Node2 -->
<g id="node2" class="node"><title>Node2</title>
<polygon fill="none" stroke="#bfbfbf" points="207.5,-0.5 207.5,-19.5 260.5,-19.5 260.5,-0.5 207.5,-0.5"/>
<text text-anchor="middle" x="234" y="-7.5" font-family="Helvetica,sans-Serif" font-size="10.00">QString</text>
</g>
<!-- Node1&#45;&gt;Node2 -->
<g id="edge1" class="edge"><title>Node1&#45;&gt;Node2</title>
<path fill="none" stroke="midnightblue" d="M450.864,-690.244C306.768,-684.79 0,-662.44 0,-571 0,-571 0,-571 0,-121 0,-73.4424 42.6655,-77.6685 85,-56 121.199,-37.472 166.328,-25.1769 197.379,-18.1893"/>
<polygon fill="midnightblue" stroke="midnightblue" points="198.31,-21.5688 207.336,-16.0217 196.821,-14.7289 198.31,-21.5688"/>
</g>
<!-- Node3 -->
<g id="node3" class="node"><title>Node3</title>
<polygon fill="none" stroke="#bfbfbf" points="716,-0.5 716,-19.5 808,-19.5 808,-0.5 716,-0.5"/>
<text text-anchor="middle" x="762" y="-7.5" font-family="Helvetica,sans-Serif" font-size="10.00">QSharedPointer</text>
</g>
<!-- Node1&#45;&gt;Node3 -->
<g id="edge2" class="edge"><title>Node1&#45;&gt;Node3</title>
<path fill="none" stroke="midnightblue" d="M597.276,-690.465C742.943,-685.417 1055,-663.778 1055,-571 1055,-571 1055,-571 1055,-121 1055,-84.8221 1036.77,-75.0209 1006,-56 975.282,-37.014 880.137,-23.5947 818.133,-16.5944"/>
<polygon fill="midnightblue" stroke="midnightblue" points="818.427,-13.1057 808.103,-15.4851 817.658,-20.0633 818.427,-13.1057"/>
</g>
<!-- Node4 -->
<g id="node4" class="node"><title>Node4</title>
<g id="a_node4"><a xlink:href="section_8hpp.html" target="_top" xlink:title="section.hpp">
<polygon fill="none" stroke="black" points="488,-616.5 488,-635.5 560,-635.5 560,-616.5 488,-616.5"/>
<text text-anchor="middle" x="524" y="-623.5" font-family="Helvetica,sans-Serif" font-size="10.00">section.hpp</text>
</a>
</g>
</g>
<!-- Node1&#45;&gt;Node4 -->
<g id="edge3" class="edge"><title>Node1&#45;&gt;Node4</title>
<path fill="none" stroke="midnightblue" d="M524,-672.498C524,-664.065 524,-654.235 524,-645.874"/>
<polygon fill="midnightblue" stroke="midnightblue" points="527.5,-645.652 524,-635.652 520.5,-645.653 527.5,-645.652"/>
</g>
<!-- Node4&#45;&gt;Node3 -->
<g id="edge5" class="edge"><title>Node4&#45;&gt;Node3</title>
<path fill="none" stroke="midnightblue" d="M560.251,-624.652C674.104,-622.591 1017,-608.614 1017,-515 1017,-515 1017,-515 1017,-121 1017,-35.1198 893.549,-15.4952 818.438,-11.5028"/>
<polygon fill="midnightblue" stroke="midnightblue" points="818.327,-7.99426 808.179,-11.038 818.01,-14.9871 818.327,-7.99426"/>
</g>
<!-- Node5 -->
<g id="node5" class="node"><title>Node5</title>
<polygon fill="none" stroke="#bfbfbf" points="250.5,-504.5 250.5,-523.5 305.5,-523.5 305.5,-504.5 250.5,-504.5"/>
<text text-anchor="middle" x="278" y="-511.5" font-family="Helvetica,sans-Serif" font-size="10.00">QVector</text>
</g>
<!-- Node4&#45;&gt;Node5 -->
<g id="edge4" class="edge"><title>Node4&#45;&gt;Node5</title>
<path fill="none" stroke="midnightblue" d="M504.697,-616.368C461.585,-597.091 357.287,-550.454 306.602,-527.789"/>
<polygon fill="midnightblue" stroke="midnightblue" points="307.771,-524.478 297.214,-523.591 304.914,-530.869 307.771,-524.478"/>
</g>
<!-- Node6 -->
<g id="node6" class="node"><title>Node6</title>
<g id="a_node6"><a xlink:href="object_8hpp.html" target="_top" xlink:title="object.hpp">
<polygon fill="none" stroke="black" points="94.5,-56.5 94.5,-75.5 161.5,-75.5 161.5,-56.5 94.5,-56.5"/>
<text text-anchor="middle" x="128" y="-63.5" font-family="Helvetica,sans-Serif" font-size="10.00">object.hpp</text>
</a>
</g>
</g>
<!-- Node4&#45;&gt;Node6 -->
<g id="edge6" class="edge"><title>Node4&#45;&gt;Node6</title>
<path fill="none" stroke="midnightblue" d="M487.868,-624.539C375.236,-622.136 38,-607.24 38,-515 38,-515 38,-515 38,-177 38,-134.658 78.4394,-99.6551 105.104,-81.1778"/>
<polygon fill="midnightblue" stroke="midnightblue" points="107.158,-84.0152 113.54,-75.5584 103.277,-78.1893 107.158,-84.0152"/>
</g>
<!-- Node8 -->
<g id="node8" class="node"><title>Node8</title>
<g id="a_node8"><a xlink:href="band_8hpp.html" target="_top" xlink:title="band.hpp">
<polygon fill="none" stroke="black" points="595,-560.5 595,-579.5 657,-579.5 657,-560.5 595,-560.5"/>
<text text-anchor="middle" x="626" y="-567.5" font-family="Helvetica,sans-Serif" font-size="10.00">band.hpp</text>
</a>
</g>
</g>
<!-- Node4&#45;&gt;Node8 -->
<g id="edge10" class="edge"><title>Node4&#45;&gt;Node8</title>
<path fill="none" stroke="midnightblue" d="M540.388,-616.324C556.671,-607.703 581.867,-594.364 600.716,-584.386"/>
<polygon fill="midnightblue" stroke="midnightblue" points="602.452,-587.427 609.653,-579.655 599.177,-581.24 602.452,-587.427"/>
</g>
<!-- Node6&#45;&gt;Node2 -->
<g id="edge7" class="edge"><title>Node6&#45;&gt;Node2</title>
<path fill="none" stroke="midnightblue" d="M145.031,-56.324C162.03,-47.6641 188.376,-34.2424 207.993,-24.249"/>
<polygon fill="midnightblue" stroke="midnightblue" points="209.69,-27.3125 217.012,-19.6545 206.512,-21.0752 209.69,-27.3125"/>
</g>
<!-- Node6&#45;&gt;Node3 -->
<g id="edge9" class="edge"><title>Node6&#45;&gt;Node3</title>
<path fill="none" stroke="midnightblue" d="M161.639,-62.1349C264.703,-53.3565 576.889,-26.7665 705.598,-15.804"/>
<polygon fill="midnightblue" stroke="midnightblue" points="705.976,-19.2845 715.643,-14.9484 705.382,-12.3098 705.976,-19.2845"/>
</g>
<!-- Node7 -->
<g id="node7" class="node"><title>Node7</title>
<polygon fill="none" stroke="#bfbfbf" points="99,-0.5 99,-19.5 157,-19.5 157,-0.5 99,-0.5"/>
<text text-anchor="middle" x="128" y="-7.5" font-family="Helvetica,sans-Serif" font-size="10.00">QVariant</text>
</g>
<!-- Node6&#45;&gt;Node7 -->
<g id="edge8" class="edge"><title>Node6&#45;&gt;Node7</title>
<path fill="none" stroke="midnightblue" d="M128,-56.083C128,-49.0059 128,-38.8611 128,-29.9865"/>
<polygon fill="midnightblue" stroke="midnightblue" points="131.5,-29.751 128,-19.7511 124.5,-29.7511 131.5,-29.751"/>
</g>
<!-- Node8&#45;&gt;Node3 -->
<g id="edge12" class="edge"><title>Node8&#45;&gt;Node3</title>
<path fill="none" stroke="midnightblue" d="M657.017,-566.054C743.156,-557.022 979,-526.16 979,-459 979,-459 979,-459 979,-121 979,-48.8333 882.338,-23.9982 818.042,-15.4611"/>
<polygon fill="midnightblue" stroke="midnightblue" points="818.373,-11.9756 808.02,-14.2262 817.517,-18.9231 818.373,-11.9756"/>
</g>
<!-- Node8&#45;&gt;Node5 -->
<g id="edge11" class="edge"><title>Node8&#45;&gt;Node5</title>
<path fill="none" stroke="midnightblue" d="M594.614,-565.07C539.065,-557.962 419.873,-542.025 320,-524 318.532,-523.735 317.038,-523.457 315.529,-523.168"/>
<polygon fill="midnightblue" stroke="midnightblue" points="316.004,-519.694 305.512,-521.163 314.63,-526.558 316.004,-519.694"/>
</g>
<!-- Node9 -->
<g id="node9" class="node"><title>Node9</title>
<g id="a_node9"><a xlink:href="statictext_8hpp.html" target="_top" xlink:title="statictext.hpp">
<polygon fill="none" stroke="black" points="514.5,-280.5 514.5,-299.5 597.5,-299.5 597.5,-280.5 514.5,-280.5"/>
<text text-anchor="middle" x="556" y="-287.5" font-family="Helvetica,sans-Serif" font-size="10.00">statictext.hpp</text>
</a>
</g>
</g>
<!-- Node8&#45;&gt;Node9 -->
<g id="edge13" class="edge"><title>Node8&#45;&gt;Node9</title>
<path fill="none" stroke="midnightblue" d="M618.263,-560.306C603.332,-542.594 572,-500.485 572,-459 572,-459 572,-459 572,-401 572,-368.626 565.129,-331.445 560.393,-309.659"/>
<polygon fill="midnightblue" stroke="midnightblue" points="563.777,-308.759 558.158,-299.777 556.95,-310.303 563.777,-308.759"/>
</g>
<!-- Node11 -->
<g id="node11" class="node"><title>Node11</title>
<g id="a_node11"><a xlink:href="widget_8hpp.html" target="_top" xlink:title="widget.hpp">
<polygon fill="none" stroke="black" points="488,-168.5 488,-187.5 556,-187.5 556,-168.5 488,-168.5"/>
<text text-anchor="middle" x="522" y="-175.5" font-family="Helvetica,sans-Serif" font-size="10.00">widget.hpp</text>
</a>
</g>
</g>
<!-- Node8&#45;&gt;Node11 -->
<g id="edge47" class="edge"><title>Node8&#45;&gt;Node11</title>
<path fill="none" stroke="midnightblue" d="M626,-560.442C626,-541.936 626,-496.812 626,-459 626,-459 626,-459 626,-345 626,-280.963 569.735,-221.321 539.974,-194.253"/>
<polygon fill="midnightblue" stroke="midnightblue" points="542.16,-191.514 532.352,-187.506 537.52,-196.755 542.16,-191.514"/>
</g>
<!-- Node17 -->
<g id="node17" class="node"><title>Node17</title>
<g id="a_node17"><a xlink:href="textfield_8hpp.html" target="_top" xlink:title="textfield.hpp">
<polygon fill="none" stroke="black" points="296,-280.5 296,-299.5 372,-299.5 372,-280.5 296,-280.5"/>
<text text-anchor="middle" x="334" y="-287.5" font-family="Helvetica,sans-Serif" font-size="10.00">textfield.hpp</text>
</a>
</g>
</g>
<!-- Node8&#45;&gt;Node17 -->
<g id="edge30" class="edge"><title>Node8&#45;&gt;Node17</title>
<path fill="none" stroke="midnightblue" d="M594.938,-567.468C551.319,-564.256 470.389,-554.36 409,-524 369.461,-504.446 334,-503.11 334,-459 334,-459 334,-459 334,-401 334,-368.948 334,-331.643 334,-309.749"/>
<polygon fill="midnightblue" stroke="midnightblue" points="337.5,-309.558 334,-299.558 330.5,-309.558 337.5,-309.558"/>
</g>
<!-- Node18 -->
<g id="node18" class="node"><title>Node18</title>
<g id="a_node18"><a xlink:href="line_8hpp.html" target="_top" xlink:title="line.hpp">
<polygon fill="none" stroke="black" points="627,-224.5 627,-243.5 681,-243.5 681,-224.5 627,-224.5"/>
<text text-anchor="middle" x="654" y="-231.5" font-family="Helvetica,sans-Serif" font-size="10.00">line.hpp</text>
</a>
</g>
</g>
<!-- Node8&#45;&gt;Node18 -->
<g id="edge34" class="edge"><title>Node8&#45;&gt;Node18</title>
<path fill="none" stroke="midnightblue" d="M631.284,-560.231C641.725,-542.043 664,-498.601 664,-459 664,-459 664,-459 664,-345 664,-312.816 659.702,-275.552 656.741,-253.702"/>
<polygon fill="midnightblue" stroke="midnightblue" points="660.169,-252.947 655.307,-243.534 653.238,-253.925 660.169,-252.947"/>
</g>
<!-- Node19 -->
<g id="node19" class="node"><title>Node19</title>
<g id="a_node19"><a xlink:href="rect_8hpp.html" target="_top" xlink:title="rect.hpp">
<polygon fill="none" stroke="black" points="809,-224.5 809,-243.5 865,-243.5 865,-224.5 809,-224.5"/>
<text text-anchor="middle" x="837" y="-231.5" font-family="Helvetica,sans-Serif" font-size="10.00">rect.hpp</text>
</a>
</g>
</g>
<!-- Node8&#45;&gt;Node19 -->
<g id="edge37" class="edge"><title>Node8&#45;&gt;Node19</title>
<path fill="none" stroke="midnightblue" d="M657.132,-564.98C710.082,-556.209 812,-530.093 812,-459 812,-459 812,-459 812,-345 812,-311.995 822.834,-274.774 830.238,-253.192"/>
<polygon fill="midnightblue" stroke="midnightblue" points="833.565,-254.282 833.628,-243.687 826.972,-251.93 833.565,-254.282"/>
</g>
<!-- Node20 -->
<g id="node20" class="node"><title>Node20</title>
<g id="a_node20"><a xlink:href="ellipse_8hpp.html" target="_top" xlink:title="ellipse.hpp">
<polygon fill="none" stroke="black" points="883,-224.5 883,-243.5 951,-243.5 951,-224.5 883,-224.5"/>
<text text-anchor="middle" x="917" y="-231.5" font-family="Helvetica,sans-Serif" font-size="10.00">ellipse.hpp</text>
</a>
</g>
</g>
<!-- Node8&#45;&gt;Node20 -->
<g id="edge40" class="edge"><title>Node8&#45;&gt;Node20</title>
<path fill="none" stroke="midnightblue" d="M657.121,-569.497C725.741,-568.806 884,-556.629 884,-459 884,-459 884,-459 884,-345 884,-311.245 898.432,-274.028 908.208,-252.691"/>
<polygon fill="midnightblue" stroke="midnightblue" points="911.409,-254.11 912.549,-243.576 905.089,-251.099 911.409,-254.11"/>
</g>
<!-- Node21 -->
<g id="node21" class="node"><title>Node21</title>
<g id="a_node21"><a xlink:href="image_8hpp.html" target="_top" xlink:title="image.hpp">
<polygon fill="none" stroke="black" points="692,-280.5 692,-299.5 760,-299.5 760,-280.5 692,-280.5"/>
<text text-anchor="middle" x="726" y="-287.5" font-family="Helvetica,sans-Serif" font-size="10.00">image.hpp</text>
</a>
</g>
</g>
<!-- Node8&#45;&gt;Node21 -->
<g id="edge43" class="edge"><title>Node8&#45;&gt;Node21</title>
<path fill="none" stroke="midnightblue" d="M640.139,-560.361C665.014,-543.953 714,-505.712 714,-459 714,-459 714,-459 714,-401 714,-368.758 719.158,-331.512 722.711,-309.681"/>
<polygon fill="midnightblue" stroke="midnightblue" points="726.212,-309.967 724.431,-299.523 719.31,-308.798 726.212,-309.967"/>
</g>
<!-- Node23 -->
<g id="node23" class="node"><title>Node23</title>
<g id="a_node23"><a xlink:href="crosstab_8hpp.html" target="_top" xlink:title="crosstab.hpp">
<polygon fill="none" stroke="black" points="418.5,-504.5 418.5,-523.5 497.5,-523.5 497.5,-504.5 418.5,-504.5"/>
<text text-anchor="middle" x="458" y="-511.5" font-family="Helvetica,sans-Serif" font-size="10.00">crosstab.hpp</text>
</a>
</g>
</g>
<!-- Node8&#45;&gt;Node23 -->
<g id="edge48" class="edge"><title>Node8&#45;&gt;Node23</title>
<path fill="none" stroke="midnightblue" d="M599.38,-560.444C570.994,-551.32 525.863,-536.813 494.247,-526.651"/>
<polygon fill="midnightblue" stroke="midnightblue" points="495.087,-523.244 484.496,-523.516 492.945,-529.909 495.087,-523.244"/>
</g>
<!-- Node9&#45;&gt;Node3 -->
<g id="edge14" class="edge"><title>Node9&#45;&gt;Node3</title>
<path fill="none" stroke="midnightblue" d="M564.347,-280.242C595.538,-247.51 703.548,-134.123 705,-132 728.063,-98.271 746.351,-53.743 755.532,-29.1966"/>
<polygon fill="midnightblue" stroke="midnightblue" points="758.853,-30.3056 758.995,-19.7117 752.278,-27.9044 758.853,-30.3056"/>
</g>
<!-- Node10 -->
<g id="node10" class="node"><title>Node10</title>
<g id="a_node10"><a xlink:href="textwidget_8hpp.html" target="_top" xlink:title="textwidget.hpp">
<polygon fill="none" stroke="black" points="332.5,-224.5 332.5,-243.5 419.5,-243.5 419.5,-224.5 332.5,-224.5"/>
<text text-anchor="middle" x="376" y="-231.5" font-family="Helvetica,sans-Serif" font-size="10.00">textwidget.hpp</text>
</a>
</g>
</g>
<!-- Node9&#45;&gt;Node10 -->
<g id="edge15" class="edge"><title>Node9&#45;&gt;Node10</title>
<path fill="none" stroke="midnightblue" d="M527.478,-280.444C496.934,-271.28 448.292,-256.688 414.397,-246.519"/>
<polygon fill="midnightblue" stroke="midnightblue" points="414.972,-243.038 404.388,-243.516 412.961,-249.742 414.972,-243.038"/>
</g>
<!-- Node10&#45;&gt;Node2 -->
<g id="edge16" class="edge"><title>Node10&#45;&gt;Node2</title>
<path fill="none" stroke="midnightblue" d="M370.433,-224.297C349.318,-191.286 273.916,-73.4041 245.208,-28.522"/>
<polygon fill="midnightblue" stroke="midnightblue" points="248.019,-26.4219 239.682,-19.8837 242.122,-30.1938 248.019,-26.4219"/>
</g>
<!-- Node10&#45;&gt;Node3 -->
<g id="edge17" class="edge"><title>Node10&#45;&gt;Node3</title>
<path fill="none" stroke="midnightblue" d="M375.965,-224.228C376.231,-203.482 378.973,-150.27 399,-112 415.175,-81.091 422.893,-71.7911 454,-56 496.858,-34.2435 628.866,-20.9952 705.438,-14.9356"/>
<polygon fill="midnightblue" stroke="midnightblue" points="706.16,-18.3903 715.86,-14.1282 705.619,-11.4112 706.16,-18.3903"/>
</g>
<!-- Node10&#45;&gt;Node11 -->
<g id="edge18" class="edge"><title>Node10&#45;&gt;Node11</title>
<path fill="none" stroke="midnightblue" d="M399.134,-224.444C423.482,-215.438 462.007,-201.189 489.423,-191.049"/>
<polygon fill="midnightblue" stroke="midnightblue" points="490.809,-194.268 498.974,-187.516 488.381,-187.703 490.809,-194.268"/>
</g>
<!-- Node11&#45;&gt;Node2 -->
<g id="edge19" class="edge"><title>Node11&#45;&gt;Node2</title>
<path fill="none" stroke="midnightblue" d="M491.408,-168.449C465.88,-160.701 428.966,-148.051 399,-132 340.859,-100.858 280.26,-51.2396 251.352,-26.3275"/>
<polygon fill="midnightblue" stroke="midnightblue" points="253.592,-23.6374 243.751,-19.7139 248.998,-28.9183 253.592,-23.6374"/>
</g>
<!-- Node11&#45;&gt;Node3 -->
<g id="edge23" class="edge"><title>Node11&#45;&gt;Node3</title>
<path fill="none" stroke="midnightblue" d="M517.697,-168.145C511.881,-154.768 503.485,-129.15 515,-112 557.331,-48.9571 646.712,-25.2386 705.54,-16.3323"/>
<polygon fill="midnightblue" stroke="midnightblue" points="706.378,-19.7487 715.789,-14.8829 705.397,-12.8177 706.378,-19.7487"/>
</g>
<!-- Node11&#45;&gt;Node6 -->
<g id="edge29" class="edge"><title>Node11&#45;&gt;Node6</title>
<path fill="none" stroke="midnightblue" d="M487.782,-169.998C448.846,-161.814 383.465,-147.415 328,-132 268.943,-115.587 201.33,-92.7462 161.782,-78.9674"/>
<polygon fill="midnightblue" stroke="midnightblue" points="162.711,-75.5845 152.117,-75.5853 160.399,-82.1917 162.711,-75.5845"/>
</g>
<!-- Node12 -->
<g id="node12" class="node"><title>Node12</title>
<polygon fill="none" stroke="#bfbfbf" points="524,-112.5 524,-131.5 572,-131.5 572,-112.5 524,-112.5"/>
<text text-anchor="middle" x="548" y="-119.5" font-family="Helvetica,sans-Serif" font-size="10.00">QPoint</text>
</g>
<!-- Node11&#45;&gt;Node12 -->
<g id="edge20" class="edge"><title>Node11&#45;&gt;Node12</title>
<path fill="none" stroke="midnightblue" d="M526.293,-168.083C529.852,-160.691 535.022,-149.953 539.424,-140.811"/>
<polygon fill="midnightblue" stroke="midnightblue" points="542.602,-142.279 543.787,-131.751 536.295,-139.243 542.602,-142.279"/>
</g>
<!-- Node13 -->
<g id="node13" class="node"><title>Node13</title>
<polygon fill="none" stroke="#bfbfbf" points="590,-112.5 590,-131.5 634,-131.5 634,-112.5 590,-112.5"/>
<text text-anchor="middle" x="612" y="-119.5" font-family="Helvetica,sans-Serif" font-size="10.00">QSize</text>
</g>
<!-- Node11&#45;&gt;Node13 -->
<g id="edge21" class="edge"><title>Node11&#45;&gt;Node13</title>
<path fill="none" stroke="midnightblue" d="M536.46,-168.324C550.5,-159.9 572.048,-146.971 588.543,-137.074"/>
<polygon fill="midnightblue" stroke="midnightblue" points="590.802,-139.801 597.576,-131.655 587.2,-133.798 590.802,-139.801"/>
</g>
<!-- Node14 -->
<g id="node14" class="node"><title>Node14</title>
<polygon fill="none" stroke="#bfbfbf" points="652,-112.5 652,-131.5 696,-131.5 696,-112.5 652,-112.5"/>
<text text-anchor="middle" x="674" y="-119.5" font-family="Helvetica,sans-Serif" font-size="10.00">QRect</text>
</g>
<!-- Node11&#45;&gt;Node14 -->
<g id="edge22" class="edge"><title>Node11&#45;&gt;Node14</title>
<path fill="none" stroke="midnightblue" d="M546.085,-168.444C571.994,-159.239 613.323,-144.556 641.96,-134.383"/>
<polygon fill="midnightblue" stroke="midnightblue" points="643.263,-137.634 651.514,-130.988 640.92,-131.038 643.263,-137.634"/>
</g>
<!-- Node15 -->
<g id="node15" class="node"><title>Node15</title>
<g id="a_node15"><a xlink:href="style_8hpp.html" target="_top" xlink:title="style.hpp">
<polygon fill="none" stroke="black" points="408,-112.5 408,-131.5 468,-131.5 468,-112.5 408,-112.5"/>
<text text-anchor="middle" x="438" y="-119.5" font-family="Helvetica,sans-Serif" font-size="10.00">style.hpp</text>
</a>
</g>
</g>
<!-- Node11&#45;&gt;Node15 -->
<g id="edge24" class="edge"><title>Node11&#45;&gt;Node15</title>
<path fill="none" stroke="midnightblue" d="M508.504,-168.324C495.4,-159.9 475.288,-146.971 459.893,-137.074"/>
<polygon fill="midnightblue" stroke="midnightblue" points="461.767,-134.118 451.463,-131.655 457.982,-140.006 461.767,-134.118"/>
</g>
<!-- Node15&#45;&gt;Node2 -->
<g id="edge25" class="edge"><title>Node15&#45;&gt;Node2</title>
<path fill="none" stroke="midnightblue" d="M429.105,-112.352C414.754,-98.7876 385.143,-72.3707 356,-56 328.84,-40.7432 295.514,-28.8595 270.56,-21.1452"/>
<polygon fill="midnightblue" stroke="midnightblue" points="271.345,-17.7264 260.76,-18.1962 269.327,-24.4295 271.345,-17.7264"/>
</g>
<!-- Node15&#45;&gt;Node3 -->
<g id="edge27" class="edge"><title>Node15&#45;&gt;Node3</title>
<path fill="none" stroke="midnightblue" d="M440.329,-112.157C444.6,-97.819 455.127,-69.7251 475,-56 511.39,-30.8675 632.612,-19.0507 705.358,-14.1004"/>
<polygon fill="midnightblue" stroke="midnightblue" points="705.975,-17.5675 715.724,-13.4191 705.516,-10.5826 705.975,-17.5675"/>
</g>
<!-- Node15&#45;&gt;Node6 -->
<g id="edge28" class="edge"><title>Node15&#45;&gt;Node6</title>
<path fill="none" stroke="midnightblue" d="M407.994,-115.773C353.01,-106.195 235.891,-85.7939 171.928,-74.652"/>
<polygon fill="midnightblue" stroke="midnightblue" points="172.212,-71.1488 161.76,-72.8807 171.011,-78.045 172.212,-71.1488"/>
</g>
<!-- Node16 -->
<g id="node16" class="node"><title>Node16</title>
<polygon fill="none" stroke="#bfbfbf" points="484.5,-56.5 484.5,-75.5 533.5,-75.5 533.5,-56.5 484.5,-56.5"/>
<text text-anchor="middle" x="509" y="-63.5" font-family="Helvetica,sans-Serif" font-size="10.00">QColor</text>
</g>
<!-- Node15&#45;&gt;Node16 -->
<g id="edge26" class="edge"><title>Node15&#45;&gt;Node16</title>
<path fill="none" stroke="midnightblue" d="M449.407,-112.324C460.109,-104.185 476.341,-91.8395 489.163,-82.0874"/>
<polygon fill="midnightblue" stroke="midnightblue" points="491.544,-84.6734 497.385,-75.8339 487.307,-79.1018 491.544,-84.6734"/>
</g>
<!-- Node17&#45;&gt;Node2 -->
<g id="edge31" class="edge"><title>Node17&#45;&gt;Node2</title>
<path fill="none" stroke="midnightblue" d="M302.754,-280.415C260.403,-266.655 190,-235.313 190,-179 190,-179 190,-179 190,-121 190,-86.0403 209.396,-49.013 222.432,-28.0745"/>
<polygon fill="midnightblue" stroke="midnightblue" points="225.388,-29.9487 227.882,-19.6515 219.511,-26.1462 225.388,-29.9487"/>
</g>
<!-- Node17&#45;&gt;Node3 -->
<g id="edge32" class="edge"><title>Node17&#45;&gt;Node3</title>
<path fill="none" stroke="midnightblue" d="M329.954,-280.379C321.765,-262.114 304,-217.996 304,-179 304,-179 304,-179 304,-121 304,-39.2564 583.326,-18.101 705.699,-12.7551"/>
<polygon fill="midnightblue" stroke="midnightblue" points="706.142,-16.2398 715.988,-12.3269 705.851,-9.24585 706.142,-16.2398"/>
</g>
<!-- Node17&#45;&gt;Node10 -->
<g id="edge33" class="edge"><title>Node17&#45;&gt;Node10</title>
<path fill="none" stroke="midnightblue" d="M340.935,-280.083C346.929,-272.377 355.752,-261.033 363.048,-251.653"/>
<polygon fill="midnightblue" stroke="midnightblue" points="365.817,-253.793 369.194,-243.751 360.291,-249.496 365.817,-253.793"/>
</g>
<!-- Node18&#45;&gt;Node3 -->
<g id="edge35" class="edge"><title>Node18&#45;&gt;Node3</title>
<path fill="none" stroke="midnightblue" d="M663.871,-224.378C681.723,-208.191 719.257,-171.322 738,-132 754.069,-98.2875 759.382,-54.3585 761.137,-29.7746"/>
<polygon fill="midnightblue" stroke="midnightblue" points="764.638,-29.8558 761.731,-19.6675 757.65,-29.4447 764.638,-29.8558"/>
</g>
<!-- Node18&#45;&gt;Node11 -->
<g id="edge36" class="edge"><title>Node18&#45;&gt;Node11</title>
<path fill="none" stroke="midnightblue" d="M633.084,-224.444C611.264,-215.517 576.85,-201.439 552.108,-191.317"/>
<polygon fill="midnightblue" stroke="midnightblue" points="553.399,-188.063 542.818,-187.516 550.748,-194.542 553.399,-188.063"/>
</g>
<!-- Node19&#45;&gt;Node3 -->
<g id="edge38" class="edge"><title>Node19&#45;&gt;Node3</title>
<path fill="none" stroke="midnightblue" d="M837.952,-224.239C840.467,-197.274 845.11,-113.86 814,-56 807.374,-43.6774 795.918,-33.2069 785.443,-25.4749"/>
<polygon fill="midnightblue" stroke="midnightblue" points="787.218,-22.4475 777.001,-19.6437 783.239,-28.207 787.218,-22.4475"/>
</g>
<!-- Node19&#45;&gt;Node11 -->
<g id="edge39" class="edge"><title>Node19&#45;&gt;Node11</title>
<path fill="none" stroke="midnightblue" d="M808.769,-228.16C753.869,-218.749 632.349,-197.917 566.497,-186.628"/>
<polygon fill="midnightblue" stroke="midnightblue" points="566.872,-183.141 556.425,-184.901 565.69,-190.041 566.872,-183.141"/>
</g>
<!-- Node20&#45;&gt;Node3 -->
<g id="edge41" class="edge"><title>Node20&#45;&gt;Node3</title>
<path fill="none" stroke="midnightblue" d="M914.68,-224.302C906.993,-196.813 880.073,-110.416 832,-56 820.42,-42.8921 804.138,-32.1181 790.191,-24.402"/>
<polygon fill="midnightblue" stroke="midnightblue" points="791.473,-21.1216 780.995,-19.5575 788.211,-27.3149 791.473,-21.1216"/>
</g>
<!-- Node20&#45;&gt;Node11 -->
<g id="edge42" class="edge"><title>Node20&#45;&gt;Node11</title>
<path fill="none" stroke="midnightblue" d="M882.779,-225.582C879.815,-225.018 876.858,-224.481 874,-224 763.852,-205.462 633.172,-190.612 566.286,-183.523"/>
<polygon fill="midnightblue" stroke="midnightblue" points="566.423,-180.018 556.112,-182.453 565.691,-186.98 566.423,-180.018"/>
</g>
<!-- Node21&#45;&gt;Node3 -->
<g id="edge45" class="edge"><title>Node21&#45;&gt;Node3</title>
<path fill="none" stroke="midnightblue" d="M735.644,-280.441C744.289,-272.104 756.442,-258.584 762,-244 790.575,-169.025 774.87,-70.3555 766.347,-29.719"/>
<polygon fill="midnightblue" stroke="midnightblue" points="769.746,-28.8773 764.177,-19.8642 762.91,-30.383 769.746,-28.8773"/>
</g>
<!-- Node21&#45;&gt;Node10 -->
<g id="edge46" class="edge"><title>Node21&#45;&gt;Node10</title>
<path fill="none" stroke="midnightblue" d="M691.803,-283.724C630.69,-274.295 502.324,-254.49 429.469,-243.25"/>
<polygon fill="midnightblue" stroke="midnightblue" points="429.987,-239.788 419.57,-241.722 428.92,-246.706 429.987,-239.788"/>
</g>
<!-- Node22 -->
<g id="node22" class="node"><title>Node22</title>
<polygon fill="none" stroke="#bfbfbf" points="699,-224.5 699,-243.5 753,-243.5 753,-224.5 699,-224.5"/>
<text text-anchor="middle" x="726" y="-231.5" font-family="Helvetica,sans-Serif" font-size="10.00">QImage</text>
</g>
<!-- Node21&#45;&gt;Node22 -->
<g id="edge44" class="edge"><title>Node21&#45;&gt;Node22</title>
<path fill="none" stroke="midnightblue" d="M726,-280.083C726,-273.006 726,-262.861 726,-253.986"/>
<polygon fill="midnightblue" stroke="midnightblue" points="729.5,-253.751 726,-243.751 722.5,-253.751 729.5,-253.751"/>
</g>
<!-- Node23&#45;&gt;Node11 -->
<g id="edge49" class="edge"><title>Node23&#45;&gt;Node11</title>
<path fill="none" stroke="midnightblue" d="M461.776,-504.351C469.419,-486.034 486,-441.821 486,-403 486,-403 486,-403 486,-289 486,-254.982 501.744,-217.85 512.409,-196.6"/>
<polygon fill="midnightblue" stroke="midnightblue" points="515.62,-198.012 517.145,-187.527 509.415,-194.772 515.62,-198.012"/>
</g>
<!-- Node24 -->
<g id="node24" class="node"><title>Node24</title>
<g id="a_node24"><a xlink:href="crosstabgroup_8hpp.html" target="_top" xlink:title="crosstabgroup.hpp">
<polygon fill="none" stroke="black" points="151.5,-448.5 151.5,-467.5 258.5,-467.5 258.5,-448.5 151.5,-448.5"/>
<text text-anchor="middle" x="205" y="-455.5" font-family="Helvetica,sans-Serif" font-size="10.00">crosstabgroup.hpp</text>
</a>
</g>
</g>
<!-- Node23&#45;&gt;Node24 -->
<g id="edge50" class="edge"><title>Node23&#45;&gt;Node24</title>
<path fill="none" stroke="midnightblue" d="M418.469,-504.562C374.354,-495.147 302.891,-479.894 254.945,-469.66"/>
<polygon fill="midnightblue" stroke="midnightblue" points="255.599,-466.221 245.089,-467.556 254.138,-473.067 255.599,-466.221"/>
</g>
<!-- Node27 -->
<g id="node27" class="node"><title>Node27</title>
<g id="a_node27"><a xlink:href="crosstabcell_8hpp.html" target="_top" xlink:title="crosstabcell.hpp">
<polygon fill="none" stroke="black" points="362.5,-392.5 362.5,-411.5 457.5,-411.5 457.5,-392.5 362.5,-392.5"/>
<text text-anchor="middle" x="410" y="-399.5" font-family="Helvetica,sans-Serif" font-size="10.00">crosstabcell.hpp</text>
</a>
</g>
</g>
<!-- Node23&#45;&gt;Node27 -->
<g id="edge57" class="edge"><title>Node23&#45;&gt;Node27</title>
<path fill="none" stroke="midnightblue" d="M454.234,-504.368C446.417,-486.456 428.294,-444.923 417.832,-420.948"/>
<polygon fill="midnightblue" stroke="midnightblue" points="420.956,-419.357 413.749,-411.591 414.541,-422.157 420.956,-419.357"/>
</g>
<!-- Node24&#45;&gt;Node6 -->
<g id="edge51" class="edge"><title>Node24&#45;&gt;Node6</title>
<path fill="none" stroke="midnightblue" d="M179.514,-448.407C141.919,-433.928 76,-400.862 76,-347 76,-347 76,-347 76,-177 76,-141.119 98.894,-104.424 114.3,-83.7932"/>
<polygon fill="midnightblue" stroke="midnightblue" points="117.182,-85.7894 120.55,-75.7441 111.652,-81.4965 117.182,-85.7894"/>
</g>
<!-- Node25 -->
<g id="node25" class="node"><title>Node25</title>
<g id="a_node25"><a xlink:href="crosstabheader_8hpp.html" target="_top" xlink:title="crosstabheader.hpp">
<polygon fill="none" stroke="black" points="149,-392.5 149,-411.5 261,-411.5 261,-392.5 149,-392.5"/>
<text text-anchor="middle" x="205" y="-399.5" font-family="Helvetica,sans-Serif" font-size="10.00">crosstabheader.hpp</text>
</a>
</g>
</g>
<!-- Node24&#45;&gt;Node25 -->
<g id="edge52" class="edge"><title>Node24&#45;&gt;Node25</title>
<path fill="none" stroke="midnightblue" d="M205,-448.083C205,-441.006 205,-430.861 205,-421.986"/>
<polygon fill="midnightblue" stroke="midnightblue" points="208.5,-421.751 205,-411.751 201.5,-421.751 208.5,-421.751"/>
</g>
<!-- Node25&#45;&gt;Node6 -->
<g id="edge53" class="edge"><title>Node25&#45;&gt;Node6</title>
<path fill="none" stroke="midnightblue" d="M186.133,-392.433C171.211,-384.793 150.821,-372.299 138,-356 118.96,-331.796 114,-321.795 114,-291 114,-291 114,-291 114,-177 114,-144.541 120.073,-107.121 124.219,-85.3564"/>
<polygon fill="midnightblue" stroke="midnightblue" points="127.66,-86.0003 126.17,-75.5108 120.793,-84.6401 127.66,-86.0003"/>
</g>
<!-- Node26 -->
<g id="node26" class="node"><title>Node26</title>
<g id="a_node26"><a xlink:href="cellcontents_8hpp.html" target="_top" xlink:title="cellcontents.hpp">
<polygon fill="none" stroke="black" points="362.5,-336.5 362.5,-355.5 457.5,-355.5 457.5,-336.5 362.5,-336.5"/>
<text text-anchor="middle" x="410" y="-343.5" font-family="Helvetica,sans-Serif" font-size="10.00">cellcontents.hpp</text>
</a>
</g>
</g>
<!-- Node25&#45;&gt;Node26 -->
<g id="edge54" class="edge"><title>Node25&#45;&gt;Node26</title>
<path fill="none" stroke="midnightblue" d="M237.483,-392.444C272.72,-383.162 329.104,-368.309 367.759,-358.127"/>
<polygon fill="midnightblue" stroke="midnightblue" points="368.891,-361.448 377.669,-355.516 367.107,-354.679 368.891,-361.448"/>
</g>
<!-- Node26&#45;&gt;Node11 -->
<g id="edge55" class="edge"><title>Node26&#45;&gt;Node11</title>
<path fill="none" stroke="midnightblue" d="M413.115,-336.472C420.917,-315.81 442.783,-261.978 472,-224 480.592,-212.832 492.192,-202.195 502.055,-194.069"/>
<polygon fill="midnightblue" stroke="midnightblue" points="504.51,-196.589 510.157,-187.625 500.152,-191.111 504.51,-196.589"/>
</g>
<!-- Node26&#45;&gt;Node17 -->
<g id="edge56" class="edge"><title>Node26&#45;&gt;Node17</title>
<path fill="none" stroke="midnightblue" d="M397.789,-336.324C386.224,-328.107 368.625,-315.602 354.839,-305.807"/>
<polygon fill="midnightblue" stroke="midnightblue" points="356.612,-302.773 346.433,-299.834 352.557,-308.479 356.612,-302.773"/>
</g>
<!-- Node27&#45;&gt;Node6 -->
<g id="edge58" class="edge"><title>Node27&#45;&gt;Node6</title>
<path fill="none" stroke="midnightblue" d="M362.378,-401.129C287.831,-398.552 152,-381.447 152,-291 152,-291 152,-291 152,-177 152,-144.059 141.599,-106.818 134.491,-85.2139"/>
<polygon fill="midnightblue" stroke="midnightblue" points="137.785,-84.0282 131.237,-75.6992 131.162,-86.2937 137.785,-84.0282"/>
</g>
<!-- Node27&#45;&gt;Node26 -->
<g id="edge59" class="edge"><title>Node27&#45;&gt;Node26</title>
<path fill="none" stroke="midnightblue" d="M410,-392.083C410,-385.006 410,-374.861 410,-365.986"/>
<polygon fill="midnightblue" stroke="midnightblue" points="413.5,-365.751 410,-355.751 406.5,-365.751 413.5,-365.751"/>
</g>
</g>
</svg>
