<?xml version="1.0" encoding="UTF-8" standalone="no"?>
<!DOCTYPE svg PUBLIC "-//W3C//DTD SVG 1.1//EN"
 "http://www.w3.org/Graphics/SVG/1.1/DTD/svg11.dtd">
<!-- Generated by graphviz version 2.38.0 (20140413.2041)
 -->
<!-- Title: qtreports::detail::createLayout Pages: 1 -->
<svg width="1024pt" height="186pt"
 viewBox="0.00 0.00 1024.00 186.00" xmlns="http://www.w3.org/2000/svg" xmlns:xlink="http://www.w3.org/1999/xlink">
<g id="graph0" class="graph" transform="scale(1 1) rotate(0) translate(4 182)">
<title>qtreports::detail::createLayout</title>
<!-- Node1 -->
<g id="node1" class="node"><title>Node1</title>
<polygon fill="#bfbfbf" stroke="black" points="0,-93 0,-123 99,-123 99,-93 0,-93"/>
<text text-anchor="start" x="8" y="-111" font-family="Helvetica,sans-Serif" font-size="10.00">qtreports::detail::</text>
<text text-anchor="middle" x="49.5" y="-100" font-family="Helvetica,sans-Serif" font-size="10.00">createLayout</text>
</g>
<!-- Node2 -->
<g id="node2" class="node"><title>Node2</title>
<g id="a_node2"><a xlink:href="classqtreports_1_1detail_1_1_converter_to_q_widget.html#af350953efb07bf3393c33846a81b1121" target="_top" xlink:title="Добавляет вертикальную границу. ">
<polygon fill="none" stroke="black" points="290,-136.5 290,-177.5 409,-177.5 409,-136.5 290,-136.5"/>
<text text-anchor="start" x="298" y="-165.5" font-family="Helvetica,sans-Serif" font-size="10.00">qtreports::detail::</text>
<text text-anchor="start" x="298" y="-154.5" font-family="Helvetica,sans-Serif" font-size="10.00">ConverterToQWidget::</text>
<text text-anchor="middle" x="349.5" y="-143.5" font-family="Helvetica,sans-Serif" font-size="10.00">addVerticalBorder</text>
</a>
</g>
</g>
<!-- Node1&#45;&gt;Node2 -->
<g id="edge1" class="edge"><title>Node1&#45;&gt;Node2</title>
<path fill="none" stroke="midnightblue" d="M96.1862,-126.585C108.597,-130.979 122.159,-135.196 135,-138 186.626,-149.271 246.668,-153.884 289.906,-155.758"/>
<polygon fill="midnightblue" stroke="midnightblue" points="97.1094,-123.196 86.5156,-123.047 94.7044,-129.77 97.1094,-123.196"/>
</g>
<!-- Node9 -->
<g id="node9" class="node"><title>Node9</title>
<g id="a_node9"><a xlink:href="classqtreports_1_1detail_1_1_converter_to_q_widget.html#a21d211f4a1f0f46f2220a0959c36367b" target="_top" xlink:title="Добавляет пустую секцию. ">
<polygon fill="none" stroke="black" points="135,-87.5 135,-128.5 254,-128.5 254,-87.5 135,-87.5"/>
<text text-anchor="start" x="143" y="-116.5" font-family="Helvetica,sans-Serif" font-size="10.00">qtreports::detail::</text>
<text text-anchor="start" x="143" y="-105.5" font-family="Helvetica,sans-Serif" font-size="10.00">ConverterToQWidget::</text>
<text text-anchor="middle" x="194.5" y="-94.5" font-family="Helvetica,sans-Serif" font-size="10.00">addEmptySection</text>
</a>
</g>
</g>
<!-- Node1&#45;&gt;Node9 -->
<g id="edge8" class="edge"><title>Node1&#45;&gt;Node9</title>
<path fill="none" stroke="midnightblue" d="M109.389,-108C117.773,-108 126.397,-108 134.778,-108"/>
<polygon fill="midnightblue" stroke="midnightblue" points="109.313,-104.5 99.3125,-108 109.312,-111.5 109.313,-104.5"/>
</g>
<!-- Node10 -->
<g id="node10" class="node"><title>Node10</title>
<g id="a_node10"><a xlink:href="classqtreports_1_1detail_1_1_converter_to_q_widget.html#ae126b16c5a846e84f12d86ca8ef253dd" target="_top" xlink:title="Добавляет секцию. ">
<polygon fill="none" stroke="black" points="135,-27.5 135,-68.5 254,-68.5 254,-27.5 135,-27.5"/>
<text text-anchor="start" x="143" y="-56.5" font-family="Helvetica,sans-Serif" font-size="10.00">qtreports::detail::</text>
<text text-anchor="start" x="143" y="-45.5" font-family="Helvetica,sans-Serif" font-size="10.00">ConverterToQWidget::</text>
<text text-anchor="middle" x="194.5" y="-34.5" font-family="Helvetica,sans-Serif" font-size="10.00">addSectionLayout</text>
</a>
</g>
</g>
<!-- Node1&#45;&gt;Node10 -->
<g id="edge10" class="edge"><title>Node1&#45;&gt;Node10</title>
<path fill="none" stroke="midnightblue" d="M95.9353,-88.9362C111.394,-82.4503 128.735,-75.1741 144.463,-68.5751"/>
<polygon fill="midnightblue" stroke="midnightblue" points="94.452,-85.7629 86.5849,-92.8595 97.1603,-92.2178 94.452,-85.7629"/>
</g>
<!-- Node3 -->
<g id="node3" class="node"><title>Node3</title>
<g id="a_node3"><a xlink:href="classqtreports_1_1detail_1_1_converter_to_q_widget.html#a96a53267cf2b8092e174906ea7f0f56f" target="_top" xlink:title="Конвертирует отчет в QWidget. ">
<polygon fill="none" stroke="black" points="445,-68.5 445,-109.5 564,-109.5 564,-68.5 445,-68.5"/>
<text text-anchor="start" x="453" y="-97.5" font-family="Helvetica,sans-Serif" font-size="10.00">qtreports::detail::</text>
<text text-anchor="start" x="453" y="-86.5" font-family="Helvetica,sans-Serif" font-size="10.00">ConverterToQWidget::</text>
<text text-anchor="middle" x="504.5" y="-75.5" font-family="Helvetica,sans-Serif" font-size="10.00">createQWidget</text>
</a>
</g>
</g>
<!-- Node2&#45;&gt;Node3 -->
<g id="edge2" class="edge"><title>Node2&#45;&gt;Node3</title>
<path fill="none" stroke="midnightblue" d="M406.006,-132.331C422.853,-124.843 441.173,-116.701 457.337,-109.517"/>
<polygon fill="midnightblue" stroke="midnightblue" points="404.537,-129.153 396.82,-136.413 407.38,-135.55 404.537,-129.153"/>
</g>
<!-- Node4 -->
<g id="node4" class="node"><title>Node4</title>
<g id="a_node4"><a xlink:href="classqtreports_1_1detail_1_1_converter_to_q_widget.html#a4b42725ccbbc910522dca786da95fbb6" target="_top" xlink:title="Конвертирует отчет в виджет. ">
<polygon fill="none" stroke="black" points="600,-68.5 600,-109.5 719,-109.5 719,-68.5 600,-68.5"/>
<text text-anchor="start" x="608" y="-97.5" font-family="Helvetica,sans-Serif" font-size="10.00">qtreports::detail::</text>
<text text-anchor="start" x="608" y="-86.5" font-family="Helvetica,sans-Serif" font-size="10.00">ConverterToQWidget::</text>
<text text-anchor="middle" x="659.5" y="-75.5" font-family="Helvetica,sans-Serif" font-size="10.00">convert</text>
</a>
</g>
</g>
<!-- Node3&#45;&gt;Node4 -->
<g id="edge3" class="edge"><title>Node3&#45;&gt;Node4</title>
<path fill="none" stroke="midnightblue" d="M574.493,-89C582.993,-89 591.617,-89 599.941,-89"/>
<polygon fill="midnightblue" stroke="midnightblue" points="574.216,-85.5001 564.216,-89 574.216,-92.5001 574.216,-85.5001"/>
</g>
<!-- Node5 -->
<g id="node5" class="node"><title>Node5</title>
<g id="a_node5"><a xlink:href="classqtreports_1_1_engine.html#a2a0fef0c95335eec5df4f61e4ffa7434" target="_top" xlink:title="Создает виджет отчета для вывода на экран. ">
<polygon fill="none" stroke="black" points="755,-123 755,-153 860,-153 860,-123 755,-123"/>
<text text-anchor="start" x="763" y="-141" font-family="Helvetica,sans-Serif" font-size="10.00">qtreports::Engine::</text>
<text text-anchor="middle" x="807.5" y="-130" font-family="Helvetica,sans-Serif" font-size="10.00">createWidget</text>
</a>
</g>
</g>
<!-- Node4&#45;&gt;Node5 -->
<g id="edge4" class="edge"><title>Node4&#45;&gt;Node5</title>
<path fill="none" stroke="midnightblue" d="M728.73,-111.899C739.827,-115.624 751.072,-119.397 761.432,-122.875"/>
<polygon fill="midnightblue" stroke="midnightblue" points="729.637,-108.512 719.043,-108.648 727.409,-115.148 729.637,-108.512"/>
</g>
<!-- Node6 -->
<g id="node6" class="node"><title>Node6</title>
<g id="a_node6"><a xlink:href="classqtreports_1_1_engine.html#a3966d8f0ebb6c1f94812ec21e21680c0" target="_top" xlink:title="qtreports::Engine::\lcreateLayout">
<polygon fill="none" stroke="black" points="755,-74 755,-104 860,-104 860,-74 755,-74"/>
<text text-anchor="start" x="763" y="-92" font-family="Helvetica,sans-Serif" font-size="10.00">qtreports::Engine::</text>
<text text-anchor="middle" x="807.5" y="-81" font-family="Helvetica,sans-Serif" font-size="10.00">createLayout</text>
</a>
</g>
</g>
<!-- Node4&#45;&gt;Node6 -->
<g id="edge5" class="edge"><title>Node4&#45;&gt;Node6</title>
<path fill="none" stroke="midnightblue" d="M729.044,-89C737.62,-89 746.279,-89 754.544,-89"/>
<polygon fill="midnightblue" stroke="midnightblue" points="729.043,-85.5001 719.043,-89 729.043,-92.5001 729.043,-85.5001"/>
</g>
<!-- Node7 -->
<g id="node7" class="node"><title>Node7</title>
<g id="a_node7"><a xlink:href="classqtreports_1_1_engine.html#a93dc7711446a155f87d9146efb493f9e" target="_top" xlink:title="qtreports::Engine::\ldrawPreview">
<polygon fill="none" stroke="black" points="755,-25 755,-55 860,-55 860,-25 755,-25"/>
<text text-anchor="start" x="763" y="-43" font-family="Helvetica,sans-Serif" font-size="10.00">qtreports::Engine::</text>
<text text-anchor="middle" x="807.5" y="-32" font-family="Helvetica,sans-Serif" font-size="10.00">drawPreview</text>
</a>
</g>
</g>
<!-- Node4&#45;&gt;Node7 -->
<g id="edge6" class="edge"><title>Node4&#45;&gt;Node7</title>
<path fill="none" stroke="midnightblue" d="M728.73,-66.1008C739.827,-62.3765 751.072,-58.6026 761.432,-55.1255"/>
<polygon fill="midnightblue" stroke="midnightblue" points="727.409,-62.8522 719.043,-69.3522 729.637,-69.4885 727.409,-62.8522"/>
</g>
<!-- Node8 -->
<g id="node8" class="node"><title>Node8</title>
<g id="a_node8"><a xlink:href="classqtreports_1_1_engine.html#aad905c82a23399294dc3a83ba1988c2e" target="_top" xlink:title="qtreports::Engine::\lgetPrintPreviewDialog">
<polygon fill="none" stroke="black" points="896,-25 896,-55 1016,-55 1016,-25 896,-25"/>
<text text-anchor="start" x="904" y="-43" font-family="Helvetica,sans-Serif" font-size="10.00">qtreports::Engine::</text>
<text text-anchor="middle" x="956" y="-32" font-family="Helvetica,sans-Serif" font-size="10.00">getPrintPreviewDialog</text>
</a>
</g>
</g>
<!-- Node7&#45;&gt;Node8 -->
<g id="edge7" class="edge"><title>Node7&#45;&gt;Node8</title>
<path fill="none" stroke="midnightblue" d="M870.317,-40C878.762,-40 887.415,-40 895.812,-40"/>
<polygon fill="midnightblue" stroke="midnightblue" points="870.15,-36.5001 860.15,-40 870.15,-43.5001 870.15,-36.5001"/>
</g>
<!-- Node9&#45;&gt;Node3 -->
<g id="edge9" class="edge"><title>Node9&#45;&gt;Node3</title>
<path fill="none" stroke="midnightblue" d="M264.376,-103.751C318.61,-100.406 393.382,-95.793 444.799,-92.6211"/>
<polygon fill="midnightblue" stroke="midnightblue" points="263.923,-100.272 254.157,-104.382 264.354,-107.259 263.923,-100.272"/>
</g>
<!-- Node10&#45;&gt;Node3 -->
<g id="edge11" class="edge"><title>Node10&#45;&gt;Node3</title>
<path fill="none" stroke="midnightblue" d="M264.376,-57.1685C318.61,-64.388 393.382,-74.3414 444.799,-81.1859"/>
<polygon fill="midnightblue" stroke="midnightblue" points="264.532,-53.6585 254.157,-55.8083 263.608,-60.5973 264.532,-53.6585"/>
</g>
<!-- Node11 -->
<g id="node11" class="node"><title>Node11</title>
<g id="a_node11"><a xlink:href="classqtreports_1_1detail_1_1_converter_to_q_widget.html#ac98aceb5ee703053d7691029da84e296" target="_top" xlink:title="Функция добавления группировок в отчет. ">
<polygon fill="none" stroke="black" points="290,-0.5 290,-41.5 409,-41.5 409,-0.5 290,-0.5"/>
<text text-anchor="start" x="298" y="-29.5" font-family="Helvetica,sans-Serif" font-size="10.00">qtreports::detail::</text>
<text text-anchor="start" x="298" y="-18.5" font-family="Helvetica,sans-Serif" font-size="10.00">ConverterToQWidget::</text>
<text text-anchor="middle" x="349.5" y="-7.5" font-family="Helvetica,sans-Serif" font-size="10.00">addGroupsIntoReport</text>
</a>
</g>
</g>
<!-- Node10&#45;&gt;Node11 -->
<g id="edge12" class="edge"><title>Node10&#45;&gt;Node11</title>
<path fill="none" stroke="midnightblue" d="M264.213,-35.8742C272.803,-34.3583 281.525,-32.819 289.941,-31.334"/>
<polygon fill="midnightblue" stroke="midnightblue" points="263.456,-32.4536 254.216,-37.6383 264.672,-39.3471 263.456,-32.4536"/>
</g>
<!-- Node11&#45;&gt;Node3 -->
<g id="edge13" class="edge"><title>Node11&#45;&gt;Node3</title>
<path fill="none" stroke="midnightblue" d="M406.006,-45.6691C422.853,-53.157 441.173,-61.2993 457.337,-68.4832"/>
<polygon fill="midnightblue" stroke="midnightblue" points="407.38,-42.4499 396.82,-41.5868 404.537,-48.8466 407.38,-42.4499"/>
</g>
</g>
</svg>
