<?xml version="1.0" encoding="UTF-8" standalone="no"?>
<!DOCTYPE svg PUBLIC "-//W3C//DTD SVG 1.1//EN"
 "http://www.w3.org/Graphics/SVG/1.1/DTD/svg11.dtd">
<!-- Generated by graphviz version 2.38.0 (20140413.2041)
 -->
<!-- Title: qtreports::detail::toBool Pages: 1 -->
<svg width="515pt" height="137pt"
 viewBox="0.00 0.00 515.00 137.00" xmlns="http://www.w3.org/2000/svg" xmlns:xlink="http://www.w3.org/1999/xlink">
<g id="graph0" class="graph" transform="scale(1 1) rotate(0) translate(4 133)">
<title>qtreports::detail::toBool</title>
<!-- Node1 -->
<g id="node1" class="node"><title>Node1</title>
<polygon fill="#bfbfbf" stroke="black" points="0,-49.5 0,-79.5 99,-79.5 99,-49.5 0,-49.5"/>
<text text-anchor="start" x="8" y="-67.5" font-family="Helvetica,sans-Serif" font-size="10.00">qtreports::detail::</text>
<text text-anchor="middle" x="49.5" y="-56.5" font-family="Helvetica,sans-Serif" font-size="10.00">toBool</text>
</g>
<!-- Node2 -->
<g id="node2" class="node"><title>Node2</title>
<g id="a_node2"><a xlink:href="classqtreports_1_1detail_1_1_parser_from_x_m_l.html#a5a366e39f908935a618b137e7e27496c" target="_top" xlink:title="Парсит тэг style. ">
<polygon fill="none" stroke="black" points="144.5,-98.5 144.5,-128.5 291.5,-128.5 291.5,-98.5 144.5,-98.5"/>
<text text-anchor="start" x="152.5" y="-116.5" font-family="Helvetica,sans-Serif" font-size="10.00">qtreports::detail::</text>
<text text-anchor="middle" x="218" y="-105.5" font-family="Helvetica,sans-Serif" font-size="10.00">ParserFromXML::parseStyle</text>
</a>
</g>
</g>
<!-- Node1&#45;&gt;Node2 -->
<g id="edge1" class="edge"><title>Node1&#45;&gt;Node2</title>
<path fill="none" stroke="midnightblue" d="M108.951,-81.8174C117.682,-84.3969 126.576,-87.0211 135,-89.5 144.819,-92.3893 155.302,-95.4647 165.377,-98.4159"/>
<polygon fill="midnightblue" stroke="midnightblue" points="109.78,-78.4127 99.1978,-78.934 107.795,-85.1255 109.78,-78.4127"/>
</g>
<!-- Node4 -->
<g id="node4" class="node"><title>Node4</title>
<g id="a_node4"><a xlink:href="classqtreports_1_1detail_1_1_parser_from_x_m_l.html#a55d48b0d7875a6a4366c0e30f6cf5624" target="_top" xlink:title="Парсит тэг Crosstab. ">
<polygon fill="none" stroke="black" points="135,-49.5 135,-79.5 301,-79.5 301,-49.5 135,-49.5"/>
<text text-anchor="start" x="143" y="-67.5" font-family="Helvetica,sans-Serif" font-size="10.00">qtreports::detail::</text>
<text text-anchor="middle" x="218" y="-56.5" font-family="Helvetica,sans-Serif" font-size="10.00">ParserFromXML::parseCrosstab</text>
</a>
</g>
</g>
<!-- Node1&#45;&gt;Node4 -->
<g id="edge3" class="edge"><title>Node1&#45;&gt;Node4</title>
<path fill="none" stroke="midnightblue" d="M109.351,-64.5C117.61,-64.5 126.22,-64.5 134.814,-64.5"/>
<polygon fill="midnightblue" stroke="midnightblue" points="109.106,-61.0001 99.1063,-64.5 109.106,-68.0001 109.106,-61.0001"/>
</g>
<!-- Node5 -->
<g id="node5" class="node"><title>Node5</title>
<g id="a_node5"><a xlink:href="classqtreports_1_1detail_1_1_parser_from_x_m_l.html#a4f7803080037058f482a499ebc1a51ee" target="_top" xlink:title="Парсит font &#45; данные о шрифте текста ">
<polygon fill="none" stroke="black" points="146,-0.5 146,-30.5 290,-30.5 290,-0.5 146,-0.5"/>
<text text-anchor="start" x="154" y="-18.5" font-family="Helvetica,sans-Serif" font-size="10.00">qtreports::detail::</text>
<text text-anchor="middle" x="218" y="-7.5" font-family="Helvetica,sans-Serif" font-size="10.00">ParserFromXML::parseFont</text>
</a>
</g>
</g>
<!-- Node1&#45;&gt;Node5 -->
<g id="edge5" class="edge"><title>Node1&#45;&gt;Node5</title>
<path fill="none" stroke="midnightblue" d="M108.939,-47.3018C127.548,-41.8253 147.977,-35.8132 166.015,-30.5046"/>
<polygon fill="midnightblue" stroke="midnightblue" points="107.711,-44.0145 99.1063,-50.1954 109.688,-50.7298 107.711,-44.0145"/>
</g>
<!-- Node3 -->
<g id="node3" class="node"><title>Node3</title>
<g id="a_node3"><a xlink:href="classqtreports_1_1detail_1_1_parser_from_x_m_l.html#ab548bd252b2e13a315daefae6b43f1d6" target="_top" xlink:title="qtreports::detail::\lParserFromXML::ParserFromXML">
<polygon fill="none" stroke="black" points="337,-49.5 337,-79.5 507,-79.5 507,-49.5 337,-49.5"/>
<text text-anchor="start" x="345" y="-67.5" font-family="Helvetica,sans-Serif" font-size="10.00">qtreports::detail::</text>
<text text-anchor="middle" x="422" y="-56.5" font-family="Helvetica,sans-Serif" font-size="10.00">ParserFromXML::ParserFromXML</text>
</a>
</g>
</g>
<!-- Node2&#45;&gt;Node3 -->
<g id="edge2" class="edge"><title>Node2&#45;&gt;Node3</title>
<path fill="none" stroke="midnightblue" d="M290.746,-96.0962C313.092,-90.6757 337.529,-84.748 359.138,-79.5062"/>
<polygon fill="midnightblue" stroke="midnightblue" points="289.872,-92.7066 280.979,-98.4654 291.523,-99.5093 289.872,-92.7066"/>
</g>
<!-- Node4&#45;&gt;Node3 -->
<g id="edge4" class="edge"><title>Node4&#45;&gt;Node3</title>
<path fill="none" stroke="midnightblue" d="M311.184,-64.5C319.768,-64.5 328.438,-64.5 336.943,-64.5"/>
<polygon fill="midnightblue" stroke="midnightblue" points="311.161,-61.0001 301.161,-64.5 311.161,-68.0001 311.161,-61.0001"/>
</g>
<!-- Node5&#45;&gt;Node3 -->
<g id="edge6" class="edge"><title>Node5&#45;&gt;Node3</title>
<path fill="none" stroke="midnightblue" d="M290.746,-32.9038C313.092,-38.3243 337.529,-44.252 359.138,-49.4938"/>
<polygon fill="midnightblue" stroke="midnightblue" points="291.523,-29.4907 280.979,-30.5346 289.872,-36.2934 291.523,-29.4907"/>
</g>
</g>
</svg>
