<?xml version="1.0" encoding="UTF-8" standalone="no"?>
<!DOCTYPE svg PUBLIC "-//W3C//DTD SVG 1.1//EN"
 "http://www.w3.org/Graphics/SVG/1.1/DTD/svg11.dtd">
<!-- Generated by graphviz version 2.38.0 (20140413.2041)
 -->
<!-- Title: /home/travis/build/PO&#45;31/QtReports/qtreports/src/tags/rect.cpp Pages: 1 -->
<svg width="368pt" height="330pt"
 viewBox="0.00 0.00 367.50 330.00" xmlns="http://www.w3.org/2000/svg" xmlns:xlink="http://www.w3.org/1999/xlink">
<g id="graph0" class="graph" transform="scale(1 1) rotate(0) translate(4 326)">
<title>/home/travis/build/PO&#45;31/QtReports/qtreports/src/tags/rect.cpp</title>
<!-- Node1 -->
<g id="node1" class="node"><title>Node1</title>
<polygon fill="#bfbfbf" stroke="black" points="0,-280.5 0,-321.5 146,-321.5 146,-280.5 0,-280.5"/>
<text text-anchor="start" x="8" y="-309.5" font-family="Helvetica,sans-Serif" font-size="10.00">/home/travis/build</text>
<text text-anchor="start" x="8" y="-298.5" font-family="Helvetica,sans-Serif" font-size="10.00">/PO&#45;31/QtReports/qtreports</text>
<text text-anchor="middle" x="73" y="-287.5" font-family="Helvetica,sans-Serif" font-size="10.00">/src/tags/rect.cpp</text>
</g>
<!-- Node2 -->
<g id="node2" class="node"><title>Node2</title>
<g id="a_node2"><a xlink:href="rect_8hpp.html" target="_top" xlink:title="rect.hpp">
<polygon fill="none" stroke="black" points="45,-224.5 45,-243.5 101,-243.5 101,-224.5 45,-224.5"/>
<text text-anchor="middle" x="73" y="-231.5" font-family="Helvetica,sans-Serif" font-size="10.00">rect.hpp</text>
</a>
</g>
</g>
<!-- Node1&#45;&gt;Node2 -->
<g id="edge1" class="edge"><title>Node1&#45;&gt;Node2</title>
<path fill="none" stroke="midnightblue" d="M73,-280.498C73,-272.065 73,-262.235 73,-253.874"/>
<polygon fill="midnightblue" stroke="midnightblue" points="76.5001,-253.652 73,-243.652 69.5001,-253.653 76.5001,-253.652"/>
</g>
<!-- Node3 -->
<g id="node3" class="node"><title>Node3</title>
<polygon fill="none" stroke="#bfbfbf" points="11,-0.5 11,-19.5 103,-19.5 103,-0.5 11,-0.5"/>
<text text-anchor="middle" x="57" y="-7.5" font-family="Helvetica,sans-Serif" font-size="10.00">QSharedPointer</text>
</g>
<!-- Node2&#45;&gt;Node3 -->
<g id="edge2" class="edge"><title>Node2&#45;&gt;Node3</title>
<path fill="none" stroke="midnightblue" d="M67.3269,-224.282C56.6829,-207.344 34.0646,-168.445 26,-132 22.9647,-118.283 19.9919,-78.4223 27,-56 30.2501,-45.6014 36.717,-35.3846 42.817,-27.321"/>
<polygon fill="midnightblue" stroke="midnightblue" points="45.5648,-29.4891 49.1225,-19.5095 40.1179,-25.0923 45.5648,-29.4891"/>
</g>
<!-- Node4 -->
<g id="node4" class="node"><title>Node4</title>
<g id="a_node4"><a xlink:href="widget_8hpp.html" target="_top" xlink:title="widget.hpp">
<polygon fill="none" stroke="black" points="132,-168.5 132,-187.5 200,-187.5 200,-168.5 132,-168.5"/>
<text text-anchor="middle" x="166" y="-175.5" font-family="Helvetica,sans-Serif" font-size="10.00">widget.hpp</text>
</a>
</g>
</g>
<!-- Node2&#45;&gt;Node4 -->
<g id="edge3" class="edge"><title>Node2&#45;&gt;Node4</title>
<path fill="none" stroke="midnightblue" d="M87.9421,-224.324C102.585,-215.822 125.134,-202.729 142.238,-192.797"/>
<polygon fill="midnightblue" stroke="midnightblue" points="144.205,-195.703 151.095,-187.655 140.69,-189.649 144.205,-195.703"/>
</g>
<!-- Node4&#45;&gt;Node3 -->
<g id="edge8" class="edge"><title>Node4&#45;&gt;Node3</title>
<path fill="none" stroke="midnightblue" d="M131.805,-175.426C101.578,-172.005 59.1061,-161.792 38,-132 15.9602,-100.889 34.1129,-54.0031 46.9693,-28.6997"/>
<polygon fill="midnightblue" stroke="midnightblue" points="50.2245,-30.0351 51.8627,-19.5677 44.0545,-26.7289 50.2245,-30.0351"/>
</g>
<!-- Node5 -->
<g id="node5" class="node"><title>Node5</title>
<polygon fill="none" stroke="#bfbfbf" points="306.5,-0.5 306.5,-19.5 359.5,-19.5 359.5,-0.5 306.5,-0.5"/>
<text text-anchor="middle" x="333" y="-7.5" font-family="Helvetica,sans-Serif" font-size="10.00">QString</text>
</g>
<!-- Node4&#45;&gt;Node5 -->
<g id="edge4" class="edge"><title>Node4&#45;&gt;Node5</title>
<path fill="none" stroke="midnightblue" d="M200.162,-177.695C236.683,-176.409 293.326,-168.17 323,-132 346.874,-102.899 342.307,-55.5206 337.361,-29.5238"/>
<polygon fill="midnightblue" stroke="midnightblue" points="340.736,-28.5681 335.231,-19.5158 333.889,-30.0253 340.736,-28.5681"/>
</g>
<!-- Node6 -->
<g id="node6" class="node"><title>Node6</title>
<polygon fill="none" stroke="#bfbfbf" points="47,-112.5 47,-131.5 95,-131.5 95,-112.5 47,-112.5"/>
<text text-anchor="middle" x="71" y="-119.5" font-family="Helvetica,sans-Serif" font-size="10.00">QPoint</text>
</g>
<!-- Node4&#45;&gt;Node6 -->
<g id="edge5" class="edge"><title>Node4&#45;&gt;Node6</title>
<path fill="none" stroke="midnightblue" d="M150.737,-168.324C135.779,-159.822 112.745,-146.729 95.2733,-136.797"/>
<polygon fill="midnightblue" stroke="midnightblue" points="96.6488,-133.553 86.2255,-131.655 93.1896,-139.639 96.6488,-133.553"/>
</g>
<!-- Node7 -->
<g id="node7" class="node"><title>Node7</title>
<polygon fill="none" stroke="#bfbfbf" points="113,-112.5 113,-131.5 157,-131.5 157,-112.5 113,-112.5"/>
<text text-anchor="middle" x="135" y="-119.5" font-family="Helvetica,sans-Serif" font-size="10.00">QSize</text>
</g>
<!-- Node4&#45;&gt;Node7 -->
<g id="edge6" class="edge"><title>Node4&#45;&gt;Node7</title>
<path fill="none" stroke="midnightblue" d="M160.881,-168.083C156.592,-160.613 150.342,-149.724 145.058,-140.52"/>
<polygon fill="midnightblue" stroke="midnightblue" points="148.038,-138.681 140.024,-131.751 141.967,-142.166 148.038,-138.681"/>
</g>
<!-- Node8 -->
<g id="node8" class="node"><title>Node8</title>
<polygon fill="none" stroke="#bfbfbf" points="175,-112.5 175,-131.5 219,-131.5 219,-112.5 175,-112.5"/>
<text text-anchor="middle" x="197" y="-119.5" font-family="Helvetica,sans-Serif" font-size="10.00">QRect</text>
</g>
<!-- Node4&#45;&gt;Node8 -->
<g id="edge7" class="edge"><title>Node4&#45;&gt;Node8</title>
<path fill="none" stroke="midnightblue" d="M171.119,-168.083C175.408,-160.613 181.658,-149.724 186.942,-140.52"/>
<polygon fill="midnightblue" stroke="midnightblue" points="190.033,-142.166 191.976,-131.751 183.962,-138.681 190.033,-142.166"/>
</g>
<!-- Node9 -->
<g id="node9" class="node"><title>Node9</title>
<g id="a_node9"><a xlink:href="style_8hpp.html" target="_top" xlink:title="style.hpp">
<polygon fill="none" stroke="black" points="237,-112.5 237,-131.5 297,-131.5 297,-112.5 237,-112.5"/>
<text text-anchor="middle" x="267" y="-119.5" font-family="Helvetica,sans-Serif" font-size="10.00">style.hpp</text>
</a>
</g>
</g>
<!-- Node4&#45;&gt;Node9 -->
<g id="edge9" class="edge"><title>Node4&#45;&gt;Node9</title>
<path fill="none" stroke="midnightblue" d="M182.227,-168.324C198.351,-159.703 223.3,-146.364 241.964,-136.386"/>
<polygon fill="midnightblue" stroke="midnightblue" points="243.644,-139.456 250.813,-131.655 240.344,-133.283 243.644,-139.456"/>
</g>
<!-- Node11 -->
<g id="node11" class="node"><title>Node11</title>
<g id="a_node11"><a xlink:href="object_8hpp.html" target="_top" xlink:title="object.hpp">
<polygon fill="none" stroke="black" points="231.5,-56.5 231.5,-75.5 298.5,-75.5 298.5,-56.5 231.5,-56.5"/>
<text text-anchor="middle" x="265" y="-63.5" font-family="Helvetica,sans-Serif" font-size="10.00">object.hpp</text>
</a>
</g>
</g>
<!-- Node4&#45;&gt;Node11 -->
<g id="edge17" class="edge"><title>Node4&#45;&gt;Node11</title>
<path fill="none" stroke="midnightblue" d="M200.146,-176.687C233.266,-174.335 281.938,-165.009 306,-132 318.047,-115.474 300.969,-95.435 285.324,-82.0146"/>
<polygon fill="midnightblue" stroke="midnightblue" points="287.417,-79.2061 277.436,-75.6536 283.023,-84.6553 287.417,-79.2061"/>
</g>
<!-- Node9&#45;&gt;Node3 -->
<g id="edge12" class="edge"><title>Node9&#45;&gt;Node3</title>
<path fill="none" stroke="midnightblue" d="M241.433,-112.411C218.294,-104.247 183.567,-91.012 155,-76 126.449,-60.9961 95.8152,-39.7567 76.5423,-25.6916"/>
<polygon fill="midnightblue" stroke="midnightblue" points="78.4177,-22.7257 68.2938,-19.6022 74.2602,-28.3573 78.4177,-22.7257"/>
</g>
<!-- Node9&#45;&gt;Node5 -->
<g id="edge10" class="edge"><title>Node9&#45;&gt;Node5</title>
<path fill="none" stroke="midnightblue" d="M276.28,-112.442C285.116,-103.898 298.317,-90.0488 307,-76 316.075,-61.3156 323.084,-42.9174 327.525,-29.4464"/>
<polygon fill="midnightblue" stroke="midnightblue" points="330.877,-30.4533 330.527,-19.8643 324.197,-28.3605 330.877,-30.4533"/>
</g>
<!-- Node10 -->
<g id="node10" class="node"><title>Node10</title>
<polygon fill="none" stroke="#bfbfbf" points="164.5,-56.5 164.5,-75.5 213.5,-75.5 213.5,-56.5 164.5,-56.5"/>
<text text-anchor="middle" x="189" y="-63.5" font-family="Helvetica,sans-Serif" font-size="10.00">QColor</text>
</g>
<!-- Node9&#45;&gt;Node10 -->
<g id="edge11" class="edge"><title>Node9&#45;&gt;Node10</title>
<path fill="none" stroke="midnightblue" d="M254.468,-112.324C242.414,-103.979 223.973,-91.2122 209.731,-81.3524"/>
<polygon fill="midnightblue" stroke="midnightblue" points="211.715,-78.469 201.501,-75.6545 207.731,-84.2243 211.715,-78.469"/>
</g>
<!-- Node9&#45;&gt;Node11 -->
<g id="edge13" class="edge"><title>Node9&#45;&gt;Node11</title>
<path fill="none" stroke="midnightblue" d="M266.67,-112.083C266.408,-105.006 266.032,-94.8611 265.703,-85.9865"/>
<polygon fill="midnightblue" stroke="midnightblue" points="269.192,-85.6147 265.324,-75.7511 262.197,-85.8738 269.192,-85.6147"/>
</g>
<!-- Node11&#45;&gt;Node3 -->
<g id="edge16" class="edge"><title>Node11&#45;&gt;Node3</title>
<path fill="none" stroke="midnightblue" d="M232.042,-56.4435C196.213,-47.1419 138.837,-32.246 99.6093,-22.062"/>
<polygon fill="midnightblue" stroke="midnightblue" points="100.363,-18.6417 89.804,-19.5164 98.6036,-25.4171 100.363,-18.6417"/>
</g>
<!-- Node11&#45;&gt;Node5 -->
<g id="edge14" class="edge"><title>Node11&#45;&gt;Node5</title>
<path fill="none" stroke="midnightblue" d="M275.925,-56.324C286.175,-48.1849 301.721,-35.8395 314.001,-26.0874"/>
<polygon fill="midnightblue" stroke="midnightblue" points="316.221,-28.7937 321.876,-19.8339 311.868,-23.3119 316.221,-28.7937"/>
</g>
<!-- Node12 -->
<g id="node12" class="node"><title>Node12</title>
<polygon fill="none" stroke="#bfbfbf" points="230,-0.5 230,-19.5 288,-19.5 288,-0.5 230,-0.5"/>
<text text-anchor="middle" x="259" y="-7.5" font-family="Helvetica,sans-Serif" font-size="10.00">QVariant</text>
</g>
<!-- Node11&#45;&gt;Node12 -->
<g id="edge15" class="edge"><title>Node11&#45;&gt;Node12</title>
<path fill="none" stroke="midnightblue" d="M264.009,-56.083C263.214,-48.9272 262.071,-38.6353 261.077,-29.6911"/>
<polygon fill="midnightblue" stroke="midnightblue" points="264.555,-29.3034 259.972,-19.7511 257.598,-30.0765 264.555,-29.3034"/>
</g>
</g>
</svg>
