<?xml version="1.0" encoding="UTF-8" standalone="no"?>
<!DOCTYPE svg PUBLIC "-//W3C//DTD SVG 1.1//EN"
 "http://www.w3.org/Graphics/SVG/1.1/DTD/svg11.dtd">
<!-- Generated by graphviz version 2.38.0 (20140413.2041)
 -->
<!-- Title: /home/travis/build/PO&#45;31/QtReports/qtreports/src/tags/report.hpp Pages: 1 -->
<!--zoomable 206 -->
<svg id="main" version="1.1" xmlns="http://www.w3.org/2000/svg" xmlns:xlink="http://www.w3.org/1999/xlink" xml:space="preserve" onload="init(evt)">
<style type="text/css"><![CDATA[
.edge:hover path { stroke: red; }
.edge:hover polygon { stroke: red; fill: red; }
]]></style>
<script type="text/javascript"><![CDATA[
var edges = document.getElementsByTagName('g');
if (edges && edges.length) {
  for (var i=0;i<edges.length;i++) {
    if (edges[i].id.substr(0,4)=='edge') {
      edges[i].setAttribute('class','edge');
    }
  }
}
]]></script>
        <defs>
                <circle id="rim" cx="0" cy="0" r="7"/>
                <circle id="rim2" cx="0" cy="0" r="3.5"/>
                <g id="zoomPlus">
                        <use xlink:href="#rim" fill="#404040">
                                <set attributeName="fill" to="#808080" begin="zoomplus.mouseover" end="zoomplus.mouseout"/>
                        </use>
                        <path d="M-4,0h8M0,-4v8" fill="none" stroke="white" stroke-width="1.5" pointer-events="none"/>
                </g>
                <g id="zoomMin">
                        <use xlink:href="#rim" fill="#404040">
                                <set attributeName="fill" to="#808080" begin="zoomminus.mouseover" end="zoomminus.mouseout"/>
                        </use>
                        <path d="M-4,0h8" fill="none" stroke="white" stroke-width="1.5" pointer-events="none"/>
                </g>
                <g id="dirArrow">
                        <path fill="none" stroke="white" stroke-width="1.5" d="M0,-3.0v7 M-2.5,-0.5L0,-3.0L2.5,-0.5"/>
                </g>
               <g id="resetDef">
                       <use xlink:href="#rim2" fill="#404040">
                               <set attributeName="fill" to="#808080" begin="reset.mouseover" end="reset.mouseout"/>
                       </use>
               </g>
        </defs>

<script type="text/javascript">
var viewWidth = 1321;
var viewHeight = 206;
var sectionId = 'dynsection-1';
</script>
<script xlink:href="svgpan.js"/>
<svg id="graph" class="graph">
<g id="viewport">
<title>/home/travis/build/PO&#45;31/QtReports/qtreports/src/tags/report.hpp</title>
<!-- Node1 -->
<g id="node1" class="node"><title>Node1</title>
<polygon fill="#bfbfbf" stroke="black" points="480.5,-156.5 480.5,-197.5 626.5,-197.5 626.5,-156.5 480.5,-156.5"/>
<text text-anchor="start" x="488.5" y="-185.5" font-family="Helvetica,sans-Serif" font-size="10.00">/home/travis/build</text>
<text text-anchor="start" x="488.5" y="-174.5" font-family="Helvetica,sans-Serif" font-size="10.00">/PO&#45;31/QtReports/qtreports</text>
<text text-anchor="middle" x="553.5" y="-163.5" font-family="Helvetica,sans-Serif" font-size="10.00">/src/tags/report.hpp</text>
</g>
<!-- Node2 -->
<g id="node2" class="node"><title>Node2</title>
<g id="a_node2"><a xlink:href="convertertohtml_8hpp.html" target="_top" xlink:title="/home/travis/build\l/PO&#45;31/QtReports/qtreports\l/src/converters/convertertohtml.hpp">
<polygon fill="none" stroke="black" points="255,-78.5 255,-119.5 444,-119.5 444,-78.5 255,-78.5"/>
<text text-anchor="start" x="263" y="-107.5" font-family="Helvetica,sans-Serif" font-size="10.00">/home/travis/build</text>
<text text-anchor="start" x="263" y="-96.5" font-family="Helvetica,sans-Serif" font-size="10.00">/PO&#45;31/QtReports/qtreports</text>
<text text-anchor="middle" x="349.5" y="-85.5" font-family="Helvetica,sans-Serif" font-size="10.00">/src/converters/convertertohtml.hpp</text>
</a>
</g>
</g>
<!-- Node1&#45;&gt;Node2 -->
<g id="edge1" class="edge"><title>Node1&#45;&gt;Node2</title>
<path fill="none" stroke="midnightblue" d="M491.461,-152.887C462.823,-142.219 429.194,-129.69 401.857,-119.506"/>
<polygon fill="midnightblue" stroke="midnightblue" points="490.372,-156.217 500.965,-156.428 492.816,-149.657 490.372,-156.217"/>
</g>
<!-- Node4 -->
<g id="node4" class="node"><title>Node4</title>
<g id="a_node4"><a xlink:href="engine_8cpp.html" target="_top" xlink:title="/home/travis/build\l/PO&#45;31/QtReports/qtreports\l/src/engine.cpp">
<polygon fill="none" stroke="black" points="185.5,-0.5 185.5,-41.5 331.5,-41.5 331.5,-0.5 185.5,-0.5"/>
<text text-anchor="start" x="193.5" y="-29.5" font-family="Helvetica,sans-Serif" font-size="10.00">/home/travis/build</text>
<text text-anchor="start" x="193.5" y="-18.5" font-family="Helvetica,sans-Serif" font-size="10.00">/PO&#45;31/QtReports/qtreports</text>
<text text-anchor="middle" x="258.5" y="-7.5" font-family="Helvetica,sans-Serif" font-size="10.00">/src/engine.cpp</text>
</a>
</g>
</g>
<!-- Node1&#45;&gt;Node4 -->
<g id="edge20" class="edge"><title>Node1&#45;&gt;Node4</title>
<path fill="none" stroke="midnightblue" d="M470.206,-172.524C388.966,-167.178 273.636,-153.713 245.5,-120 227.245,-98.1264 238.13,-63.4139 248.041,-41.7102"/>
<polygon fill="midnightblue" stroke="midnightblue" points="470.234,-176.033 480.433,-173.166 470.673,-169.046 470.234,-176.033"/>
</g>
<!-- Node5 -->
<g id="node5" class="node"><title>Node5</title>
<g id="a_node5"><a xlink:href="replacer_8hpp.html" target="_top" xlink:title="/home/travis/build\l/PO&#45;31/QtReports/qtreports\l/src/converters/utils/replacer.hpp">
<polygon fill="none" stroke="black" points="885,-78.5 885,-119.5 1058,-119.5 1058,-78.5 885,-78.5"/>
<text text-anchor="start" x="893" y="-107.5" font-family="Helvetica,sans-Serif" font-size="10.00">/home/travis/build</text>
<text text-anchor="start" x="893" y="-96.5" font-family="Helvetica,sans-Serif" font-size="10.00">/PO&#45;31/QtReports/qtreports</text>
<text text-anchor="middle" x="971.5" y="-85.5" font-family="Helvetica,sans-Serif" font-size="10.00">/src/converters/utils/replacer.hpp</text>
</a>
</g>
</g>
<!-- Node1&#45;&gt;Node5 -->
<g id="edge4" class="edge"><title>Node1&#45;&gt;Node5</title>
<path fill="none" stroke="midnightblue" d="M636.724,-162.306C701.822,-151.407 794.558,-135.466 875.5,-120 878.594,-119.409 881.741,-118.799 884.919,-118.176"/>
<polygon fill="midnightblue" stroke="midnightblue" points="635.806,-158.911 626.52,-164.011 636.96,-165.815 635.806,-158.911"/>
</g>
<!-- Node9 -->
<g id="node9" class="node"><title>Node9</title>
<g id="a_node9"><a xlink:href="report_8cpp.html" target="_top" xlink:title="/home/travis/build\l/PO&#45;31/QtReports/qtreports\l/src/tags/report.cpp">
<polygon fill="none" stroke="black" points="1166.5,-0.5 1166.5,-41.5 1312.5,-41.5 1312.5,-0.5 1166.5,-0.5"/>
<text text-anchor="start" x="1174.5" y="-29.5" font-family="Helvetica,sans-Serif" font-size="10.00">/home/travis/build</text>
<text text-anchor="start" x="1174.5" y="-18.5" font-family="Helvetica,sans-Serif" font-size="10.00">/PO&#45;31/QtReports/qtreports</text>
<text text-anchor="middle" x="1239.5" y="-7.5" font-family="Helvetica,sans-Serif" font-size="10.00">/src/tags/report.cpp</text>
</a>
</g>
</g>
<!-- Node1&#45;&gt;Node9 -->
<g id="edge21" class="edge"><title>Node1&#45;&gt;Node9</title>
<path fill="none" stroke="midnightblue" d="M637.099,-170.992C761.427,-162.848 988.75,-145.083 1066.5,-120 1122.35,-101.983 1180.31,-64.6789 1212.95,-41.6485"/>
<polygon fill="midnightblue" stroke="midnightblue" points="636.616,-167.516 626.864,-171.656 637.069,-174.502 636.616,-167.516"/>
</g>
<!-- Node10 -->
<g id="node10" class="node"><title>Node10</title>
<g id="a_node10"><a xlink:href="convertertopdf_8hpp.html" target="_top" xlink:title="/home/travis/build\l/PO&#45;31/QtReports/qtreports\l/src/converters/convertertopdf.hpp">
<polygon fill="none" stroke="black" points="462.5,-78.5 462.5,-119.5 644.5,-119.5 644.5,-78.5 462.5,-78.5"/>
<text text-anchor="start" x="470.5" y="-107.5" font-family="Helvetica,sans-Serif" font-size="10.00">/home/travis/build</text>
<text text-anchor="start" x="470.5" y="-96.5" font-family="Helvetica,sans-Serif" font-size="10.00">/PO&#45;31/QtReports/qtreports</text>
<text text-anchor="middle" x="553.5" y="-85.5" font-family="Helvetica,sans-Serif" font-size="10.00">/src/converters/convertertopdf.hpp</text>
</a>
</g>
</g>
<!-- Node1&#45;&gt;Node10 -->
<g id="edge10" class="edge"><title>Node1&#45;&gt;Node10</title>
<path fill="none" stroke="midnightblue" d="M553.5,-146.297C553.5,-137.301 553.5,-127.653 553.5,-119.506"/>
<polygon fill="midnightblue" stroke="midnightblue" points="550,-146.428 553.5,-156.428 557,-146.428 550,-146.428"/>
</g>
<!-- Node11 -->
<g id="node11" class="node"><title>Node11</title>
<g id="a_node11"><a xlink:href="convertertoqwidget_8hpp.html" target="_top" xlink:title="/home/travis/build\l/PO&#45;31/QtReports/qtreports\l/src/converters/convertertoqwidget.hpp">
<polygon fill="none" stroke="black" points="662.5,-78.5 662.5,-119.5 866.5,-119.5 866.5,-78.5 662.5,-78.5"/>
<text text-anchor="start" x="670.5" y="-107.5" font-family="Helvetica,sans-Serif" font-size="10.00">/home/travis/build</text>
<text text-anchor="start" x="670.5" y="-96.5" font-family="Helvetica,sans-Serif" font-size="10.00">/PO&#45;31/QtReports/qtreports</text>
<text text-anchor="middle" x="764.5" y="-85.5" font-family="Helvetica,sans-Serif" font-size="10.00">/src/converters/convertertoqwidget.hpp</text>
</a>
</g>
</g>
<!-- Node1&#45;&gt;Node11 -->
<g id="edge13" class="edge"><title>Node1&#45;&gt;Node11</title>
<path fill="none" stroke="midnightblue" d="M617.282,-153.026C646.985,-142.328 681.948,-129.734 710.346,-119.506"/>
<polygon fill="midnightblue" stroke="midnightblue" points="616.06,-149.746 607.838,-156.428 618.432,-156.332 616.06,-149.746"/>
</g>
<!-- Node12 -->
<g id="node12" class="node"><title>Node12</title>
<g id="a_node12"><a xlink:href="parserfromxml_8hpp.html" target="_top" xlink:title="/home/travis/build\l/PO&#45;31/QtReports/qtreports\l/src/parsers/parserfromxml.hpp">
<polygon fill="none" stroke="black" points="32,-78.5 32,-119.5 199,-119.5 199,-78.5 32,-78.5"/>
<text text-anchor="start" x="40" y="-107.5" font-family="Helvetica,sans-Serif" font-size="10.00">/home/travis/build</text>
<text text-anchor="start" x="40" y="-96.5" font-family="Helvetica,sans-Serif" font-size="10.00">/PO&#45;31/QtReports/qtreports</text>
<text text-anchor="middle" x="115.5" y="-85.5" font-family="Helvetica,sans-Serif" font-size="10.00">/src/parsers/parserfromxml.hpp</text>
</a>
</g>
</g>
<!-- Node1&#45;&gt;Node12 -->
<g id="edge17" class="edge"><title>Node1&#45;&gt;Node12</title>
<path fill="none" stroke="midnightblue" d="M470.214,-163.289C401.071,-152.505 300.214,-136.238 212.5,-120 208.104,-119.186 203.601,-118.331 199.057,-117.452"/>
<polygon fill="midnightblue" stroke="midnightblue" points="469.761,-166.761 480.18,-164.84 470.837,-159.844 469.761,-166.761"/>
</g>
<!-- Node3 -->
<g id="node3" class="node"><title>Node3</title>
<g id="a_node3"><a xlink:href="convertertohtml_8cpp.html" target="_top" xlink:title="/home/travis/build\l/PO&#45;31/QtReports/qtreports\l/src/converters/convertertohtml.cpp">
<polygon fill="none" stroke="black" points="349.5,-0.5 349.5,-41.5 537.5,-41.5 537.5,-0.5 349.5,-0.5"/>
<text text-anchor="start" x="357.5" y="-29.5" font-family="Helvetica,sans-Serif" font-size="10.00">/home/travis/build</text>
<text text-anchor="start" x="357.5" y="-18.5" font-family="Helvetica,sans-Serif" font-size="10.00">/PO&#45;31/QtReports/qtreports</text>
<text text-anchor="middle" x="443.5" y="-7.5" font-family="Helvetica,sans-Serif" font-size="10.00">/src/converters/convertertohtml.cpp</text>
</a>
</g>
</g>
<!-- Node2&#45;&gt;Node3 -->
<g id="edge2" class="edge"><title>Node2&#45;&gt;Node3</title>
<path fill="none" stroke="midnightblue" d="M381.578,-72.0648C393.955,-62.0574 407.873,-50.8045 419.375,-41.5056"/>
<polygon fill="midnightblue" stroke="midnightblue" points="379.283,-69.4191 373.707,-78.4281 383.684,-74.8626 379.283,-69.4191"/>
</g>
<!-- Node2&#45;&gt;Node4 -->
<g id="edge3" class="edge"><title>Node2&#45;&gt;Node4</title>
<path fill="none" stroke="midnightblue" d="M318.103,-71.7785C306.207,-61.8432 292.884,-50.7159 281.855,-41.5056"/>
<polygon fill="midnightblue" stroke="midnightblue" points="316.146,-74.7043 326.065,-78.4281 320.633,-69.3316 316.146,-74.7043"/>
</g>
<!-- Node5&#45;&gt;Node3 -->
<g id="edge5" class="edge"><title>Node5&#45;&gt;Node3</title>
<path fill="none" stroke="midnightblue" d="M874.71,-77.964C728.445,-55.3645 688.668,-63.5431 546.5,-42 543.618,-41.5633 540.695,-41.1031 537.745,-40.624"/>
<polygon fill="midnightblue" stroke="midnightblue" points="874.542,-81.4804 884.964,-79.5713 875.626,-74.5648 874.542,-81.4804"/>
</g>
<!-- Node6 -->
<g id="node6" class="node"><title>Node6</title>
<g id="a_node6"><a xlink:href="convertertopdf_8cpp.html" target="_top" xlink:title="/home/travis/build\l/PO&#45;31/QtReports/qtreports\l/src/converters/convertertopdf.cpp">
<polygon fill="none" stroke="black" points="556,-0.5 556,-41.5 737,-41.5 737,-0.5 556,-0.5"/>
<text text-anchor="start" x="564" y="-29.5" font-family="Helvetica,sans-Serif" font-size="10.00">/home/travis/build</text>
<text text-anchor="start" x="564" y="-18.5" font-family="Helvetica,sans-Serif" font-size="10.00">/PO&#45;31/QtReports/qtreports</text>
<text text-anchor="middle" x="646.5" y="-7.5" font-family="Helvetica,sans-Serif" font-size="10.00">/src/converters/convertertopdf.cpp</text>
</a>
</g>
</g>
<!-- Node5&#45;&gt;Node6 -->
<g id="edge6" class="edge"><title>Node5&#45;&gt;Node6</title>
<path fill="none" stroke="midnightblue" d="M877.981,-76.131C831.248,-65.2026 775.168,-52.0886 729.912,-41.5056"/>
<polygon fill="midnightblue" stroke="midnightblue" points="877.27,-79.5591 887.804,-78.4281 878.864,-72.7429 877.27,-79.5591"/>
</g>
<!-- Node7 -->
<g id="node7" class="node"><title>Node7</title>
<g id="a_node7"><a xlink:href="convertertoqwidget_8cpp.html" target="_top" xlink:title="/home/travis/build\l/PO&#45;31/QtReports/qtreports\l/src/converters/convertertoqwidget.cpp">
<polygon fill="none" stroke="black" points="755,-0.5 755,-41.5 958,-41.5 958,-0.5 755,-0.5"/>
<text text-anchor="start" x="763" y="-29.5" font-family="Helvetica,sans-Serif" font-size="10.00">/home/travis/build</text>
<text text-anchor="start" x="763" y="-18.5" font-family="Helvetica,sans-Serif" font-size="10.00">/PO&#45;31/QtReports/qtreports</text>
<text text-anchor="middle" x="856.5" y="-7.5" font-family="Helvetica,sans-Serif" font-size="10.00">/src/converters/convertertoqwidget.cpp</text>
</a>
</g>
</g>
<!-- Node5&#45;&gt;Node7 -->
<g id="edge7" class="edge"><title>Node5&#45;&gt;Node7</title>
<path fill="none" stroke="midnightblue" d="M933.119,-72.6352C917.763,-62.4868 900.354,-50.9816 886.015,-41.5056"/>
<polygon fill="midnightblue" stroke="midnightblue" points="931.612,-75.8346 941.885,-78.4281 935.472,-69.9946 931.612,-75.8346"/>
</g>
<!-- Node8 -->
<g id="node8" class="node"><title>Node8</title>
<g id="a_node8"><a xlink:href="replacer_8cpp.html" target="_top" xlink:title="/home/travis/build\l/PO&#45;31/QtReports/qtreports\l/src/converters/utils/replacer.cpp">
<polygon fill="none" stroke="black" points="976.5,-0.5 976.5,-41.5 1148.5,-41.5 1148.5,-0.5 976.5,-0.5"/>
<text text-anchor="start" x="984.5" y="-29.5" font-family="Helvetica,sans-Serif" font-size="10.00">/home/travis/build</text>
<text text-anchor="start" x="984.5" y="-18.5" font-family="Helvetica,sans-Serif" font-size="10.00">/PO&#45;31/QtReports/qtreports</text>
<text text-anchor="middle" x="1062.5" y="-7.5" font-family="Helvetica,sans-Serif" font-size="10.00">/src/converters/utils/replacer.cpp</text>
</a>
</g>
</g>
<!-- Node5&#45;&gt;Node8 -->
<g id="edge8" class="edge"><title>Node5&#45;&gt;Node8</title>
<path fill="none" stroke="midnightblue" d="M1002.9,-71.7785C1014.79,-61.8432 1028.12,-50.7159 1039.14,-41.5056"/>
<polygon fill="midnightblue" stroke="midnightblue" points="1000.37,-69.3316 994.935,-78.4281 1004.85,-74.7043 1000.37,-69.3316"/>
</g>
<!-- Node5&#45;&gt;Node9 -->
<g id="edge9" class="edge"><title>Node5&#45;&gt;Node9</title>
<path fill="none" stroke="midnightblue" d="M1050.56,-75.5805C1088.7,-64.7644 1134.02,-51.9115 1170.72,-41.5056"/>
<polygon fill="midnightblue" stroke="midnightblue" points="1049.18,-72.3326 1040.52,-78.4281 1051.09,-79.067 1049.18,-72.3326"/>
</g>
<!-- Node10&#45;&gt;Node4 -->
<g id="edge12" class="edge"><title>Node10&#45;&gt;Node4</title>
<path fill="none" stroke="midnightblue" d="M467.623,-75.8756C424.52,-64.7713 372.858,-51.4617 331.667,-40.8498"/>
<polygon fill="midnightblue" stroke="midnightblue" points="466.973,-79.3226 477.53,-78.4281 468.72,-72.5439 466.973,-79.3226"/>
</g>
<!-- Node10&#45;&gt;Node6 -->
<g id="edge11" class="edge"><title>Node10&#45;&gt;Node6</title>
<path fill="none" stroke="midnightblue" d="M585.237,-72.0648C597.482,-62.0574 611.252,-50.8045 622.631,-41.5056"/>
<polygon fill="midnightblue" stroke="midnightblue" points="582.978,-69.3901 577.45,-78.4281 587.408,-74.8104 582.978,-69.3901"/>
</g>
<!-- Node11&#45;&gt;Node4 -->
<g id="edge16" class="edge"><title>Node11&#45;&gt;Node4</title>
<path fill="none" stroke="midnightblue" d="M652.143,-77.8568C513.197,-57.9807 475.113,-66.0607 340.5,-42 337.615,-41.4843 334.68,-40.9272 331.721,-40.3382"/>
<polygon fill="midnightblue" stroke="midnightblue" points="651.925,-81.3618 662.324,-79.3371 652.932,-74.4346 651.925,-81.3618"/>
</g>
<!-- Node11&#45;&gt;Node6 -->
<g id="edge14" class="edge"><title>Node11&#45;&gt;Node6</title>
<path fill="none" stroke="midnightblue" d="M725.559,-72.9194C709.695,-62.702 691.635,-51.0701 676.785,-41.5056"/>
<polygon fill="midnightblue" stroke="midnightblue" points="723.81,-75.9558 734.112,-78.4281 727.6,-70.0708 723.81,-75.9558"/>
</g>
<!-- Node11&#45;&gt;Node7 -->
<g id="edge15" class="edge"><title>Node11&#45;&gt;Node7</title>
<path fill="none" stroke="midnightblue" d="M796.242,-71.7785C808.269,-61.8432 821.739,-50.7159 832.888,-41.5056"/>
<polygon fill="midnightblue" stroke="midnightblue" points="793.673,-69.3609 788.192,-78.4281 798.131,-74.7576 793.673,-69.3609"/>
</g>
<!-- Node12&#45;&gt;Node4 -->
<g id="edge18" class="edge"><title>Node12&#45;&gt;Node4</title>
<path fill="none" stroke="midnightblue" d="M161.36,-73.6266C180.901,-63.2416 203.386,-51.2915 221.799,-41.5056"/>
<polygon fill="midnightblue" stroke="midnightblue" points="159.514,-70.6444 152.326,-78.4281 162.799,-76.8256 159.514,-70.6444"/>
</g>
<!-- Node13 -->
<g id="node13" class="node"><title>Node13</title>
<g id="a_node13"><a xlink:href="parserfromxml_8cpp.html" target="_top" xlink:title="/home/travis/build\l/PO&#45;31/QtReports/qtreports\l/src/parsers/parserfromxml.cpp">
<polygon fill="none" stroke="black" points="0,-0.5 0,-41.5 167,-41.5 167,-0.5 0,-0.5"/>
<text text-anchor="start" x="8" y="-29.5" font-family="Helvetica,sans-Serif" font-size="10.00">/home/travis/build</text>
<text text-anchor="start" x="8" y="-18.5" font-family="Helvetica,sans-Serif" font-size="10.00">/PO&#45;31/QtReports/qtreports</text>
<text text-anchor="middle" x="83.5" y="-7.5" font-family="Helvetica,sans-Serif" font-size="10.00">/src/parsers/parserfromxml.cpp</text>
</a>
</g>
</g>
<!-- Node12&#45;&gt;Node13 -->
<g id="edge19" class="edge"><title>Node12&#45;&gt;Node13</title>
<path fill="none" stroke="midnightblue" d="M103.363,-69.1744C99.4712,-59.9317 95.2553,-49.9188 91.7129,-41.5056"/>
<polygon fill="midnightblue" stroke="midnightblue" points="100.153,-70.57 107.259,-78.4281 106.604,-67.8535 100.153,-70.57"/>
</g>
</g>
</svg>
        <g id="navigator" transform="translate(0 0)" fill="#404254">
                <rect fill="#f2f5e9" fill-opacity="0.5" stroke="#606060" stroke-width=".5" x="0" y="0" width="60" height="60"/>
                <use id="zoomplus" xlink:href="#zoomPlus" x="17" y="9" onmousedown="handleZoom(evt,'in')"/>
                <use id="zoomminus" xlink:href="#zoomMin" x="42" y="9" onmousedown="handleZoom(evt,'out')"/>
                <use id="reset" xlink:href="#resetDef" x="30" y="36" onmousedown="handleReset()"/>
                <g id="arrowUp" xlink:href="#dirArrow" transform="translate(30 24)" onmousedown="handlePan(0,-1)">
                  <use xlink:href="#rim" fill="#404040">
                        <set attributeName="fill" to="#808080" begin="arrowUp.mouseover" end="arrowUp.mouseout"/>
                  </use>
                  <path fill="none" stroke="white" stroke-width="1.5" d="M0,-3.0v7 M-2.5,-0.5L0,-3.0L2.5,-0.5"/>
                </g>
                <g id="arrowRight" xlink:href="#dirArrow" transform="rotate(90) translate(36 -43)" onmousedown="handlePan(1,0)">
                  <use xlink:href="#rim" fill="#404040">
                        <set attributeName="fill" to="#808080" begin="arrowRight.mouseover" end="arrowRight.mouseout"/>
                  </use>
                  <path fill="none" stroke="white" stroke-width="1.5" d="M0,-3.0v7 M-2.5,-0.5L0,-3.0L2.5,-0.5"/>
                </g>
                <g id="arrowDown" xlink:href="#dirArrow" transform="rotate(180) translate(-30 -48)" onmousedown="handlePan(0,1)">
                  <use xlink:href="#rim" fill="#404040">
                        <set attributeName="fill" to="#808080" begin="arrowDown.mouseover" end="arrowDown.mouseout"/>
                  </use>
                  <path fill="none" stroke="white" stroke-width="1.5" d="M0,-3.0v7 M-2.5,-0.5L0,-3.0L2.5,-0.5"/>
                </g>
                <g id="arrowLeft" xlink:href="#dirArrow" transform="rotate(270) translate(-36 17)" onmousedown="handlePan(-1,0)">
                  <use xlink:href="#rim" fill="#404040">
                        <set attributeName="fill" to="#808080" begin="arrowLeft.mouseover" end="arrowLeft.mouseout"/>
                  </use>
                  <path fill="none" stroke="white" stroke-width="1.5" d="M0,-3.0v7 M-2.5,-0.5L0,-3.0L2.5,-0.5"/>
                </g>
        </g>
        <svg viewBox="0 0 15 15" width="100%" height="30px" preserveAspectRatio="xMaxYMin meet">
         <g id="arrow_out" transform="scale(0.3 0.3)">
          <a xlink:href="report_8hpp__dep__incl_org.svg" target="_base">
           <rect id="button" ry="5" rx="5" y="6" x="6" height="38" width="38"
                fill="#f2f5e9" fill-opacity="0.5" stroke="#606060" stroke-width="1.0"/>
           <path id="arrow"
             d="M 11.500037,31.436501 C 11.940474,20.09759 22.043105,11.32322 32.158766,21.979434 L 37.068811,17.246167 C 37.068811,17.246167 37.088388,32 37.088388,32 L 22.160133,31.978069 C 22.160133,31.978069 26.997745,27.140456 26.997745,27.140456 C 18.528582,18.264221 13.291696,25.230495 11.500037,31.436501 z"
             style="fill:#404040;"/>
          </a>
         </g>
        </svg>
</svg>
