<?xml version="1.0" encoding="UTF-8" standalone="no"?>
<!DOCTYPE svg PUBLIC "-//W3C//DTD SVG 1.1//EN"
 "http://www.w3.org/Graphics/SVG/1.1/DTD/svg11.dtd">
<!-- Generated by graphviz version 2.38.0 (20140413.2041)
 -->
<!-- Title: /home/travis/build/PO&#45;31/QtReports/qtreports/src/tags/section.hpp Pages: 1 -->
<svg width="1602pt" height="362pt"
 viewBox="0.00 0.00 1602.00 362.00" xmlns="http://www.w3.org/2000/svg" xmlns:xlink="http://www.w3.org/1999/xlink">
<g id="graph0" class="graph" transform="scale(1 1) rotate(0) translate(4 358)">
<title>/home/travis/build/PO&#45;31/QtReports/qtreports/src/tags/section.hpp</title>
<!-- Node1 -->
<g id="node1" class="node"><title>Node1</title>
<polygon fill="#bfbfbf" stroke="black" points="1038,-312.5 1038,-353.5 1184,-353.5 1184,-312.5 1038,-312.5"/>
<text text-anchor="start" x="1046" y="-341.5" font-family="Helvetica,sans-Serif" font-size="10.00">/home/travis/build</text>
<text text-anchor="start" x="1046" y="-330.5" font-family="Helvetica,sans-Serif" font-size="10.00">/PO&#45;31/QtReports/qtreports</text>
<text text-anchor="middle" x="1111" y="-319.5" font-family="Helvetica,sans-Serif" font-size="10.00">/src/tags/section.hpp</text>
</g>
<!-- Node2 -->
<g id="node2" class="node"><title>Node2</title>
<g id="a_node2"><a xlink:href="group_8hpp.html" target="_top" xlink:title="/home/travis/build\l/PO&#45;31/QtReports/qtreports\l/src/tags/group.hpp">
<polygon fill="none" stroke="black" points="773,-234.5 773,-275.5 919,-275.5 919,-234.5 773,-234.5"/>
<text text-anchor="start" x="781" y="-263.5" font-family="Helvetica,sans-Serif" font-size="10.00">/home/travis/build</text>
<text text-anchor="start" x="781" y="-252.5" font-family="Helvetica,sans-Serif" font-size="10.00">/PO&#45;31/QtReports/qtreports</text>
<text text-anchor="middle" x="846" y="-241.5" font-family="Helvetica,sans-Serif" font-size="10.00">/src/tags/group.hpp</text>
</a>
</g>
</g>
<!-- Node1&#45;&gt;Node2 -->
<g id="edge1" class="edge"><title>Node1&#45;&gt;Node2</title>
<path fill="none" stroke="midnightblue" d="M1032.83,-309.58C995.113,-298.764 950.297,-285.911 914.013,-275.506"/>
<polygon fill="midnightblue" stroke="midnightblue" points="1032.18,-313.036 1042.76,-312.428 1034.11,-306.307 1032.18,-313.036"/>
</g>
<!-- Node12 -->
<g id="node12" class="node"><title>Node12</title>
<g id="a_node12"><a xlink:href="convertertopdf_8hpp.html" target="_top" xlink:title="/home/travis/build\l/PO&#45;31/QtReports/qtreports\l/src/converters/convertertopdf.hpp">
<polygon fill="none" stroke="black" points="668,-78.5 668,-119.5 850,-119.5 850,-78.5 668,-78.5"/>
<text text-anchor="start" x="676" y="-107.5" font-family="Helvetica,sans-Serif" font-size="10.00">/home/travis/build</text>
<text text-anchor="start" x="676" y="-96.5" font-family="Helvetica,sans-Serif" font-size="10.00">/PO&#45;31/QtReports/qtreports</text>
<text text-anchor="middle" x="759" y="-85.5" font-family="Helvetica,sans-Serif" font-size="10.00">/src/converters/convertertopdf.hpp</text>
</a>
</g>
</g>
<!-- Node1&#45;&gt;Node12 -->
<g id="edge38" class="edge"><title>Node1&#45;&gt;Node12</title>
<path fill="none" stroke="midnightblue" d="M1027.86,-324.281C891.383,-309.584 630.038,-272.208 581,-198 570.709,-182.426 569.957,-171.05 581,-156 592.163,-140.785 630.029,-127.821 667.983,-118.21"/>
<polygon fill="midnightblue" stroke="midnightblue" points="1027.55,-327.768 1037.87,-325.343 1028.29,-320.807 1027.55,-327.768"/>
</g>
<!-- Node17 -->
<g id="node17" class="node"><title>Node17</title>
<g id="a_node17"><a xlink:href="title_8hpp.html" target="_top" xlink:title="/home/travis/build\l/PO&#45;31/QtReports/qtreports\l/src/tags/title.hpp">
<polygon fill="none" stroke="black" points="1120,-234.5 1120,-275.5 1266,-275.5 1266,-234.5 1120,-234.5"/>
<text text-anchor="start" x="1128" y="-263.5" font-family="Helvetica,sans-Serif" font-size="10.00">/home/travis/build</text>
<text text-anchor="start" x="1128" y="-252.5" font-family="Helvetica,sans-Serif" font-size="10.00">/PO&#45;31/QtReports/qtreports</text>
<text text-anchor="middle" x="1193" y="-241.5" font-family="Helvetica,sans-Serif" font-size="10.00">/src/tags/title.hpp</text>
</a>
</g>
</g>
<!-- Node1&#45;&gt;Node17 -->
<g id="edge26" class="edge"><title>Node1&#45;&gt;Node17</title>
<path fill="none" stroke="midnightblue" d="M1139.6,-305.492C1150.24,-295.629 1162.11,-284.627 1171.95,-275.506"/>
<polygon fill="midnightblue" stroke="midnightblue" points="1137.07,-303.063 1132.12,-312.428 1141.83,-308.197 1137.07,-303.063"/>
</g>
<!-- Node19 -->
<g id="node19" class="node"><title>Node19</title>
<g id="a_node19"><a xlink:href="detail_8hpp.html" target="_top" xlink:title="/home/travis/build\l/PO&#45;31/QtReports/qtreports\l/src/tags/detail.hpp">
<polygon fill="none" stroke="black" points="956,-234.5 956,-275.5 1102,-275.5 1102,-234.5 956,-234.5"/>
<text text-anchor="start" x="964" y="-263.5" font-family="Helvetica,sans-Serif" font-size="10.00">/home/travis/build</text>
<text text-anchor="start" x="964" y="-252.5" font-family="Helvetica,sans-Serif" font-size="10.00">/PO&#45;31/QtReports/qtreports</text>
<text text-anchor="middle" x="1029" y="-241.5" font-family="Helvetica,sans-Serif" font-size="10.00">/src/tags/detail.hpp</text>
</a>
</g>
</g>
<!-- Node1&#45;&gt;Node19 -->
<g id="edge30" class="edge"><title>Node1&#45;&gt;Node19</title>
<path fill="none" stroke="midnightblue" d="M1082.4,-305.492C1071.76,-295.629 1059.89,-284.627 1050.05,-275.506"/>
<polygon fill="midnightblue" stroke="midnightblue" points="1080.17,-308.197 1089.88,-312.428 1084.93,-303.063 1080.17,-308.197"/>
</g>
<!-- Node21 -->
<g id="node21" class="node"><title>Node21</title>
<g id="a_node21"><a xlink:href="summary_8hpp.html" target="_top" xlink:title="/home/travis/build\l/PO&#45;31/QtReports/qtreports\l/src/tags/summary.hpp">
<polygon fill="none" stroke="black" points="1284,-234.5 1284,-275.5 1430,-275.5 1430,-234.5 1284,-234.5"/>
<text text-anchor="start" x="1292" y="-263.5" font-family="Helvetica,sans-Serif" font-size="10.00">/home/travis/build</text>
<text text-anchor="start" x="1292" y="-252.5" font-family="Helvetica,sans-Serif" font-size="10.00">/PO&#45;31/QtReports/qtreports</text>
<text text-anchor="middle" x="1357" y="-241.5" font-family="Helvetica,sans-Serif" font-size="10.00">/src/tags/summary.hpp</text>
</a>
</g>
</g>
<!-- Node1&#45;&gt;Node21 -->
<g id="edge34" class="edge"><title>Node1&#45;&gt;Node21</title>
<path fill="none" stroke="midnightblue" d="M1184.02,-309.442C1218.93,-298.655 1260.32,-285.867 1293.86,-275.506"/>
<polygon fill="midnightblue" stroke="midnightblue" points="1182.87,-306.132 1174.35,-312.428 1184.94,-312.82 1182.87,-306.132"/>
</g>
<!-- Node23 -->
<g id="node23" class="node"><title>Node23</title>
<g id="a_node23"><a xlink:href="section_8cpp.html" target="_top" xlink:title="/home/travis/build\l/PO&#45;31/QtReports/qtreports\l/src/tags/section.cpp">
<polygon fill="none" stroke="black" points="1448,-234.5 1448,-275.5 1594,-275.5 1594,-234.5 1448,-234.5"/>
<text text-anchor="start" x="1456" y="-263.5" font-family="Helvetica,sans-Serif" font-size="10.00">/home/travis/build</text>
<text text-anchor="start" x="1456" y="-252.5" font-family="Helvetica,sans-Serif" font-size="10.00">/PO&#45;31/QtReports/qtreports</text>
<text text-anchor="middle" x="1521" y="-241.5" font-family="Helvetica,sans-Serif" font-size="10.00">/src/tags/section.cpp</text>
</a>
</g>
</g>
<!-- Node1&#45;&gt;Node23 -->
<g id="edge39" class="edge"><title>Node1&#45;&gt;Node23</title>
<path fill="none" stroke="midnightblue" d="M1194.23,-319.442C1260.71,-309.014 1356.14,-293.157 1439,-276 1441.87,-275.406 1444.79,-274.782 1447.74,-274.138"/>
<polygon fill="midnightblue" stroke="midnightblue" points="1193.57,-316.003 1184.23,-321.004 1194.65,-322.919 1193.57,-316.003"/>
</g>
<!-- Node3 -->
<g id="node3" class="node"><title>Node3</title>
<g id="a_node3"><a xlink:href="report_8hpp.html" target="_top" xlink:title="/home/travis/build\l/PO&#45;31/QtReports/qtreports\l/src/tags/report.hpp">
<polygon fill="none" stroke="black" points="754,-156.5 754,-197.5 900,-197.5 900,-156.5 754,-156.5"/>
<text text-anchor="start" x="762" y="-185.5" font-family="Helvetica,sans-Serif" font-size="10.00">/home/travis/build</text>
<text text-anchor="start" x="762" y="-174.5" font-family="Helvetica,sans-Serif" font-size="10.00">/PO&#45;31/QtReports/qtreports</text>
<text text-anchor="middle" x="827" y="-163.5" font-family="Helvetica,sans-Serif" font-size="10.00">/src/tags/report.hpp</text>
</a>
</g>
</g>
<!-- Node2&#45;&gt;Node3 -->
<g id="edge2" class="edge"><title>Node2&#45;&gt;Node3</title>
<path fill="none" stroke="midnightblue" d="M838.647,-224.59C836.378,-215.511 833.935,-205.742 831.876,-197.506"/>
<polygon fill="midnightblue" stroke="midnightblue" points="835.286,-225.576 841.107,-234.428 842.077,-223.878 835.286,-225.576"/>
</g>
<!-- Node14 -->
<g id="node14" class="node"><title>Node14</title>
<g id="a_node14"><a xlink:href="parserfromxml_8hpp.html" target="_top" xlink:title="/home/travis/build\l/PO&#45;31/QtReports/qtreports\l/src/parsers/parserfromxml.hpp">
<polygon fill="none" stroke="black" points="1113.5,-78.5 1113.5,-119.5 1280.5,-119.5 1280.5,-78.5 1113.5,-78.5"/>
<text text-anchor="start" x="1121.5" y="-107.5" font-family="Helvetica,sans-Serif" font-size="10.00">/home/travis/build</text>
<text text-anchor="start" x="1121.5" y="-96.5" font-family="Helvetica,sans-Serif" font-size="10.00">/PO&#45;31/QtReports/qtreports</text>
<text text-anchor="middle" x="1197" y="-85.5" font-family="Helvetica,sans-Serif" font-size="10.00">/src/parsers/parserfromxml.hpp</text>
</a>
</g>
</g>
<!-- Node2&#45;&gt;Node14 -->
<g id="edge24" class="edge"><title>Node2&#45;&gt;Node14</title>
<path fill="none" stroke="midnightblue" d="M876.983,-227.653C887.38,-218.5 898.896,-208.016 909,-198 926.878,-180.278 925.253,-168.679 947,-156 961.553,-147.515 1046.44,-129.46 1113.31,-116.134"/>
<polygon fill="midnightblue" stroke="midnightblue" points="874.526,-225.152 869.291,-234.364 879.127,-230.427 874.526,-225.152"/>
</g>
<!-- Node16 -->
<g id="node16" class="node"><title>Node16</title>
<g id="a_node16"><a xlink:href="group_8cpp.html" target="_top" xlink:title="/home/travis/build\l/PO&#45;31/QtReports/qtreports\l/src/tags/group.cpp">
<polygon fill="none" stroke="black" points="590,-156.5 590,-197.5 736,-197.5 736,-156.5 590,-156.5"/>
<text text-anchor="start" x="598" y="-185.5" font-family="Helvetica,sans-Serif" font-size="10.00">/home/travis/build</text>
<text text-anchor="start" x="598" y="-174.5" font-family="Helvetica,sans-Serif" font-size="10.00">/PO&#45;31/QtReports/qtreports</text>
<text text-anchor="middle" x="663" y="-163.5" font-family="Helvetica,sans-Serif" font-size="10.00">/src/tags/group.cpp</text>
</a>
</g>
</g>
<!-- Node2&#45;&gt;Node16 -->
<g id="edge25" class="edge"><title>Node2&#45;&gt;Node16</title>
<path fill="none" stroke="midnightblue" d="M789.34,-230.469C763.872,-219.892 734.171,-207.557 709.967,-197.506"/>
<polygon fill="midnightblue" stroke="midnightblue" points="788.295,-233.825 798.873,-234.428 790.98,-227.36 788.295,-233.825"/>
</g>
<!-- Node4 -->
<g id="node4" class="node"><title>Node4</title>
<g id="a_node4"><a xlink:href="convertertohtml_8hpp.html" target="_top" xlink:title="/home/travis/build\l/PO&#45;31/QtReports/qtreports\l/src/converters/convertertohtml.hpp">
<polygon fill="none" stroke="black" points="868.5,-78.5 868.5,-119.5 1057.5,-119.5 1057.5,-78.5 868.5,-78.5"/>
<text text-anchor="start" x="876.5" y="-107.5" font-family="Helvetica,sans-Serif" font-size="10.00">/home/travis/build</text>
<text text-anchor="start" x="876.5" y="-96.5" font-family="Helvetica,sans-Serif" font-size="10.00">/PO&#45;31/QtReports/qtreports</text>
<text text-anchor="middle" x="963" y="-85.5" font-family="Helvetica,sans-Serif" font-size="10.00">/src/converters/convertertohtml.hpp</text>
</a>
</g>
</g>
<!-- Node3&#45;&gt;Node4 -->
<g id="edge3" class="edge"><title>Node3&#45;&gt;Node4</title>
<path fill="none" stroke="midnightblue" d="M870.868,-151.486C889.393,-141.134 910.663,-129.247 928.095,-119.506"/>
<polygon fill="midnightblue" stroke="midnightblue" points="869.045,-148.495 862.023,-156.428 872.46,-154.605 869.045,-148.495"/>
</g>
<!-- Node6 -->
<g id="node6" class="node"><title>Node6</title>
<g id="a_node6"><a xlink:href="engine_8cpp.html" target="_top" xlink:title="/home/travis/build\l/PO&#45;31/QtReports/qtreports\l/src/engine.cpp">
<polygon fill="none" stroke="black" points="981,-0.5 981,-41.5 1127,-41.5 1127,-0.5 981,-0.5"/>
<text text-anchor="start" x="989" y="-29.5" font-family="Helvetica,sans-Serif" font-size="10.00">/home/travis/build</text>
<text text-anchor="start" x="989" y="-18.5" font-family="Helvetica,sans-Serif" font-size="10.00">/PO&#45;31/QtReports/qtreports</text>
<text text-anchor="middle" x="1054" y="-7.5" font-family="Helvetica,sans-Serif" font-size="10.00">/src/engine.cpp</text>
</a>
</g>
</g>
<!-- Node3&#45;&gt;Node6 -->
<g id="edge22" class="edge"><title>Node3&#45;&gt;Node6</title>
<path fill="none" stroke="midnightblue" d="M910.062,-156.849C978.815,-140.949 1065.36,-120.804 1066,-120 1083.68,-97.7028 1073.38,-63.1161 1063.96,-41.5532"/>
<polygon fill="midnightblue" stroke="midnightblue" points="909.015,-153.498 900.06,-159.161 910.591,-160.319 909.015,-153.498"/>
</g>
<!-- Node7 -->
<g id="node7" class="node"><title>Node7</title>
<g id="a_node7"><a xlink:href="replacer_8hpp.html" target="_top" xlink:title="/home/travis/build\l/PO&#45;31/QtReports/qtreports\l/src/converters/utils/replacer.hpp">
<polygon fill="none" stroke="black" points="254.5,-78.5 254.5,-119.5 427.5,-119.5 427.5,-78.5 254.5,-78.5"/>
<text text-anchor="start" x="262.5" y="-107.5" font-family="Helvetica,sans-Serif" font-size="10.00">/home/travis/build</text>
<text text-anchor="start" x="262.5" y="-96.5" font-family="Helvetica,sans-Serif" font-size="10.00">/PO&#45;31/QtReports/qtreports</text>
<text text-anchor="middle" x="341" y="-85.5" font-family="Helvetica,sans-Serif" font-size="10.00">/src/converters/utils/replacer.hpp</text>
</a>
</g>
</g>
<!-- Node3&#45;&gt;Node7 -->
<g id="edge6" class="edge"><title>Node3&#45;&gt;Node7</title>
<path fill="none" stroke="midnightblue" d="M743.798,-155.897C607.595,-132.097 569.853,-141.559 437,-120 433.891,-119.496 430.73,-118.959 427.541,-118.399"/>
<polygon fill="midnightblue" stroke="midnightblue" points="743.32,-159.366 753.777,-157.669 744.543,-152.474 743.32,-159.366"/>
</g>
<!-- Node11 -->
<g id="node11" class="node"><title>Node11</title>
<g id="a_node11"><a xlink:href="report_8cpp.html" target="_top" xlink:title="/home/travis/build\l/PO&#45;31/QtReports/qtreports\l/src/tags/report.cpp">
<polygon fill="none" stroke="black" points="0,-0.5 0,-41.5 146,-41.5 146,-0.5 0,-0.5"/>
<text text-anchor="start" x="8" y="-29.5" font-family="Helvetica,sans-Serif" font-size="10.00">/home/travis/build</text>
<text text-anchor="start" x="8" y="-18.5" font-family="Helvetica,sans-Serif" font-size="10.00">/PO&#45;31/QtReports/qtreports</text>
<text text-anchor="middle" x="73" y="-7.5" font-family="Helvetica,sans-Serif" font-size="10.00">/src/tags/report.cpp</text>
</a>
</g>
</g>
<!-- Node3&#45;&gt;Node11 -->
<g id="edge23" class="edge"><title>Node3&#45;&gt;Node11</title>
<path fill="none" stroke="midnightblue" d="M743.849,-155.985C522.907,-123.309 455.058,-183.803 245,-120 188.767,-102.92 130.915,-64.9319 98.6963,-41.5885"/>
<polygon fill="midnightblue" stroke="midnightblue" points="743.391,-159.456 753.805,-157.505 744.448,-152.536 743.391,-159.456"/>
</g>
<!-- Node3&#45;&gt;Node12 -->
<g id="edge12" class="edge"><title>Node3&#45;&gt;Node12</title>
<path fill="none" stroke="midnightblue" d="M802.767,-148.916C794.076,-139.203 784.455,-128.45 776.452,-119.506"/>
<polygon fill="midnightblue" stroke="midnightblue" points="800.212,-151.309 809.488,-156.428 805.429,-146.642 800.212,-151.309"/>
</g>
<!-- Node13 -->
<g id="node13" class="node"><title>Node13</title>
<g id="a_node13"><a xlink:href="convertertoqwidget_8hpp.html" target="_top" xlink:title="/home/travis/build\l/PO&#45;31/QtReports/qtreports\l/src/converters/convertertoqwidget.hpp">
<polygon fill="none" stroke="black" points="446,-78.5 446,-119.5 650,-119.5 650,-78.5 446,-78.5"/>
<text text-anchor="start" x="454" y="-107.5" font-family="Helvetica,sans-Serif" font-size="10.00">/home/travis/build</text>
<text text-anchor="start" x="454" y="-96.5" font-family="Helvetica,sans-Serif" font-size="10.00">/PO&#45;31/QtReports/qtreports</text>
<text text-anchor="middle" x="548" y="-85.5" font-family="Helvetica,sans-Serif" font-size="10.00">/src/converters/convertertoqwidget.hpp</text>
</a>
</g>
</g>
<!-- Node3&#45;&gt;Node13 -->
<g id="edge15" class="edge"><title>Node3&#45;&gt;Node13</title>
<path fill="none" stroke="midnightblue" d="M745.456,-153.787C705.593,-142.929 658.05,-129.978 619.606,-119.506"/>
<polygon fill="midnightblue" stroke="midnightblue" points="744.582,-157.177 755.151,-156.428 746.422,-150.423 744.582,-157.177"/>
</g>
<!-- Node3&#45;&gt;Node14 -->
<g id="edge19" class="edge"><title>Node3&#45;&gt;Node14</title>
<path fill="none" stroke="midnightblue" d="M910.134,-156.823C911.431,-156.545 912.721,-156.271 914,-156 996.376,-138.565 1017.43,-136.502 1100,-120 1104.38,-119.124 1108.88,-118.219 1113.41,-117.301"/>
<polygon fill="midnightblue" stroke="midnightblue" points="909.09,-153.468 900.061,-159.011 910.576,-160.309 909.09,-153.468"/>
</g>
<!-- Node5 -->
<g id="node5" class="node"><title>Node5</title>
<g id="a_node5"><a xlink:href="convertertohtml_8cpp.html" target="_top" xlink:title="/home/travis/build\l/PO&#45;31/QtReports/qtreports\l/src/converters/convertertohtml.cpp">
<polygon fill="none" stroke="black" points="775,-0.5 775,-41.5 963,-41.5 963,-0.5 775,-0.5"/>
<text text-anchor="start" x="783" y="-29.5" font-family="Helvetica,sans-Serif" font-size="10.00">/home/travis/build</text>
<text text-anchor="start" x="783" y="-18.5" font-family="Helvetica,sans-Serif" font-size="10.00">/PO&#45;31/QtReports/qtreports</text>
<text text-anchor="middle" x="869" y="-7.5" font-family="Helvetica,sans-Serif" font-size="10.00">/src/converters/convertertohtml.cpp</text>
</a>
</g>
</g>
<!-- Node4&#45;&gt;Node5 -->
<g id="edge4" class="edge"><title>Node4&#45;&gt;Node5</title>
<path fill="none" stroke="midnightblue" d="M930.922,-72.0648C918.545,-62.0574 904.627,-50.8045 893.125,-41.5056"/>
<polygon fill="midnightblue" stroke="midnightblue" points="928.816,-74.8626 938.793,-78.4281 933.217,-69.4191 928.816,-74.8626"/>
</g>
<!-- Node4&#45;&gt;Node6 -->
<g id="edge5" class="edge"><title>Node4&#45;&gt;Node6</title>
<path fill="none" stroke="midnightblue" d="M994.397,-71.7785C1006.29,-61.8432 1019.62,-50.7159 1030.64,-41.5056"/>
<polygon fill="midnightblue" stroke="midnightblue" points="991.867,-69.3316 986.435,-78.4281 996.354,-74.7043 991.867,-69.3316"/>
</g>
<!-- Node7&#45;&gt;Node5 -->
<g id="edge7" class="edge"><title>Node7&#45;&gt;Node5</title>
<path fill="none" stroke="midnightblue" d="M437.761,-77.9679C583.609,-55.4002 623.243,-63.3742 765,-42 768.273,-41.5066 771.599,-40.9836 774.956,-40.4378"/>
<polygon fill="midnightblue" stroke="midnightblue" points="436.873,-74.5643 427.537,-79.5726 437.958,-81.4797 436.873,-74.5643"/>
</g>
<!-- Node8 -->
<g id="node8" class="node"><title>Node8</title>
<g id="a_node8"><a xlink:href="convertertopdf_8cpp.html" target="_top" xlink:title="/home/travis/build\l/PO&#45;31/QtReports/qtreports\l/src/converters/convertertopdf.cpp">
<polygon fill="none" stroke="black" points="575.5,-0.5 575.5,-41.5 756.5,-41.5 756.5,-0.5 575.5,-0.5"/>
<text text-anchor="start" x="583.5" y="-29.5" font-family="Helvetica,sans-Serif" font-size="10.00">/home/travis/build</text>
<text text-anchor="start" x="583.5" y="-18.5" font-family="Helvetica,sans-Serif" font-size="10.00">/PO&#45;31/QtReports/qtreports</text>
<text text-anchor="middle" x="666" y="-7.5" font-family="Helvetica,sans-Serif" font-size="10.00">/src/converters/convertertopdf.cpp</text>
</a>
</g>
</g>
<!-- Node7&#45;&gt;Node8 -->
<g id="edge8" class="edge"><title>Node7&#45;&gt;Node8</title>
<path fill="none" stroke="midnightblue" d="M434.519,-76.131C481.252,-65.2026 537.332,-52.0886 582.588,-41.5056"/>
<polygon fill="midnightblue" stroke="midnightblue" points="433.636,-72.7429 424.696,-78.4281 435.23,-79.5591 433.636,-72.7429"/>
</g>
<!-- Node9 -->
<g id="node9" class="node"><title>Node9</title>
<g id="a_node9"><a xlink:href="convertertoqwidget_8cpp.html" target="_top" xlink:title="/home/travis/build\l/PO&#45;31/QtReports/qtreports\l/src/converters/convertertoqwidget.cpp">
<polygon fill="none" stroke="black" points="354.5,-0.5 354.5,-41.5 557.5,-41.5 557.5,-0.5 354.5,-0.5"/>
<text text-anchor="start" x="362.5" y="-29.5" font-family="Helvetica,sans-Serif" font-size="10.00">/home/travis/build</text>
<text text-anchor="start" x="362.5" y="-18.5" font-family="Helvetica,sans-Serif" font-size="10.00">/PO&#45;31/QtReports/qtreports</text>
<text text-anchor="middle" x="456" y="-7.5" font-family="Helvetica,sans-Serif" font-size="10.00">/src/converters/convertertoqwidget.cpp</text>
</a>
</g>
</g>
<!-- Node7&#45;&gt;Node9 -->
<g id="edge9" class="edge"><title>Node7&#45;&gt;Node9</title>
<path fill="none" stroke="midnightblue" d="M379.381,-72.6352C394.737,-62.4868 412.146,-50.9816 426.485,-41.5056"/>
<polygon fill="midnightblue" stroke="midnightblue" points="377.028,-69.9946 370.615,-78.4281 380.888,-75.8346 377.028,-69.9946"/>
</g>
<!-- Node10 -->
<g id="node10" class="node"><title>Node10</title>
<g id="a_node10"><a xlink:href="replacer_8cpp.html" target="_top" xlink:title="/home/travis/build\l/PO&#45;31/QtReports/qtreports\l/src/converters/utils/replacer.cpp">
<polygon fill="none" stroke="black" points="164,-0.5 164,-41.5 336,-41.5 336,-0.5 164,-0.5"/>
<text text-anchor="start" x="172" y="-29.5" font-family="Helvetica,sans-Serif" font-size="10.00">/home/travis/build</text>
<text text-anchor="start" x="172" y="-18.5" font-family="Helvetica,sans-Serif" font-size="10.00">/PO&#45;31/QtReports/qtreports</text>
<text text-anchor="middle" x="250" y="-7.5" font-family="Helvetica,sans-Serif" font-size="10.00">/src/converters/utils/replacer.cpp</text>
</a>
</g>
</g>
<!-- Node7&#45;&gt;Node10 -->
<g id="edge10" class="edge"><title>Node7&#45;&gt;Node10</title>
<path fill="none" stroke="midnightblue" d="M309.603,-71.7785C297.707,-61.8432 284.384,-50.7159 273.355,-41.5056"/>
<polygon fill="midnightblue" stroke="midnightblue" points="307.646,-74.7043 317.565,-78.4281 312.133,-69.3316 307.646,-74.7043"/>
</g>
<!-- Node7&#45;&gt;Node11 -->
<g id="edge11" class="edge"><title>Node7&#45;&gt;Node11</title>
<path fill="none" stroke="midnightblue" d="M261.942,-75.5805C223.801,-64.7644 178.477,-51.9115 141.783,-41.5056"/>
<polygon fill="midnightblue" stroke="midnightblue" points="261.408,-79.067 271.983,-78.4281 263.318,-72.3326 261.408,-79.067"/>
</g>
<!-- Node12&#45;&gt;Node6 -->
<g id="edge14" class="edge"><title>Node12&#45;&gt;Node6</title>
<path fill="none" stroke="midnightblue" d="M844.877,-75.8756C887.98,-64.7713 939.642,-51.4617 980.833,-40.8498"/>
<polygon fill="midnightblue" stroke="midnightblue" points="843.78,-72.5439 834.97,-78.4281 845.527,-79.3226 843.78,-72.5439"/>
</g>
<!-- Node12&#45;&gt;Node8 -->
<g id="edge13" class="edge"><title>Node12&#45;&gt;Node8</title>
<path fill="none" stroke="midnightblue" d="M727.263,-72.0648C715.018,-62.0574 701.248,-50.8045 689.869,-41.5056"/>
<polygon fill="midnightblue" stroke="midnightblue" points="725.092,-74.8104 735.05,-78.4281 729.522,-69.3901 725.092,-74.8104"/>
</g>
<!-- Node13&#45;&gt;Node6 -->
<g id="edge18" class="edge"><title>Node13&#45;&gt;Node6</title>
<path fill="none" stroke="midnightblue" d="M660.357,-77.8568C799.303,-57.9807 837.387,-66.0607 972,-42 974.885,-41.4843 977.82,-40.9272 980.779,-40.3382"/>
<polygon fill="midnightblue" stroke="midnightblue" points="659.568,-74.4346 650.176,-79.3371 660.575,-81.3618 659.568,-74.4346"/>
</g>
<!-- Node13&#45;&gt;Node8 -->
<g id="edge16" class="edge"><title>Node13&#45;&gt;Node8</title>
<path fill="none" stroke="midnightblue" d="M586.941,-72.9194C602.805,-62.702 620.865,-51.0701 635.715,-41.5056"/>
<polygon fill="midnightblue" stroke="midnightblue" points="584.9,-70.0708 578.388,-78.4281 588.69,-75.9558 584.9,-70.0708"/>
</g>
<!-- Node13&#45;&gt;Node9 -->
<g id="edge17" class="edge"><title>Node13&#45;&gt;Node9</title>
<path fill="none" stroke="midnightblue" d="M516.258,-71.7785C504.231,-61.8432 490.761,-50.7159 479.612,-41.5056"/>
<polygon fill="midnightblue" stroke="midnightblue" points="514.369,-74.7576 524.308,-78.4281 518.827,-69.3609 514.369,-74.7576"/>
</g>
<!-- Node14&#45;&gt;Node6 -->
<g id="edge20" class="edge"><title>Node14&#45;&gt;Node6</title>
<path fill="none" stroke="midnightblue" d="M1151.14,-73.6266C1131.6,-63.2416 1109.11,-51.2915 1090.7,-41.5056"/>
<polygon fill="midnightblue" stroke="midnightblue" points="1149.7,-76.8256 1160.17,-78.4281 1152.99,-70.6444 1149.7,-76.8256"/>
</g>
<!-- Node15 -->
<g id="node15" class="node"><title>Node15</title>
<g id="a_node15"><a xlink:href="parserfromxml_8cpp.html" target="_top" xlink:title="/home/travis/build\l/PO&#45;31/QtReports/qtreports\l/src/parsers/parserfromxml.cpp">
<polygon fill="none" stroke="black" points="1145.5,-0.5 1145.5,-41.5 1312.5,-41.5 1312.5,-0.5 1145.5,-0.5"/>
<text text-anchor="start" x="1153.5" y="-29.5" font-family="Helvetica,sans-Serif" font-size="10.00">/home/travis/build</text>
<text text-anchor="start" x="1153.5" y="-18.5" font-family="Helvetica,sans-Serif" font-size="10.00">/PO&#45;31/QtReports/qtreports</text>
<text text-anchor="middle" x="1229" y="-7.5" font-family="Helvetica,sans-Serif" font-size="10.00">/src/parsers/parserfromxml.cpp</text>
</a>
</g>
</g>
<!-- Node14&#45;&gt;Node15 -->
<g id="edge21" class="edge"><title>Node14&#45;&gt;Node15</title>
<path fill="none" stroke="midnightblue" d="M1209.14,-69.1744C1213.03,-59.9317 1217.24,-49.9188 1220.79,-41.5056"/>
<polygon fill="midnightblue" stroke="midnightblue" points="1205.9,-67.8535 1205.24,-78.4281 1212.35,-70.57 1205.9,-67.8535"/>
</g>
<!-- Node17&#45;&gt;Node3 -->
<g id="edge27" class="edge"><title>Node17&#45;&gt;Node3</title>
<path fill="none" stroke="midnightblue" d="M1109.85,-233.787C1032.91,-216.961 955.258,-201.878 900.148,-191.496"/>
<polygon fill="midnightblue" stroke="midnightblue" points="1109.2,-237.228 1119.72,-235.956 1110.7,-230.391 1109.2,-237.228"/>
</g>
<!-- Node17&#45;&gt;Node14 -->
<g id="edge28" class="edge"><title>Node17&#45;&gt;Node14</title>
<path fill="none" stroke="midnightblue" d="M1275.55,-230.724C1290.4,-222.756 1304,-212.132 1313,-198 1323.03,-182.255 1322.92,-171.81 1313,-156 1302.72,-139.616 1286.14,-127.911 1268.69,-119.593"/>
<polygon fill="midnightblue" stroke="midnightblue" points="1273.59,-227.787 1266.17,-235.35 1276.69,-234.065 1273.59,-227.787"/>
</g>
<!-- Node18 -->
<g id="node18" class="node"><title>Node18</title>
<g id="a_node18"><a xlink:href="title_8cpp.html" target="_top" xlink:title="/home/travis/build\l/PO&#45;31/QtReports/qtreports\l/src/tags/title.cpp">
<polygon fill="none" stroke="black" points="1158,-156.5 1158,-197.5 1304,-197.5 1304,-156.5 1158,-156.5"/>
<text text-anchor="start" x="1166" y="-185.5" font-family="Helvetica,sans-Serif" font-size="10.00">/home/travis/build</text>
<text text-anchor="start" x="1166" y="-174.5" font-family="Helvetica,sans-Serif" font-size="10.00">/PO&#45;31/QtReports/qtreports</text>
<text text-anchor="middle" x="1231" y="-163.5" font-family="Helvetica,sans-Serif" font-size="10.00">/src/tags/title.cpp</text>
</a>
</g>
</g>
<!-- Node17&#45;&gt;Node18 -->
<g id="edge29" class="edge"><title>Node17&#45;&gt;Node18</title>
<path fill="none" stroke="midnightblue" d="M1207.27,-225.466C1211.93,-216.143 1217,-206.007 1221.25,-197.506"/>
<polygon fill="midnightblue" stroke="midnightblue" points="1204.13,-223.919 1202.79,-234.428 1210.39,-227.049 1204.13,-223.919"/>
</g>
<!-- Node19&#45;&gt;Node3 -->
<g id="edge31" class="edge"><title>Node19&#45;&gt;Node3</title>
<path fill="none" stroke="midnightblue" d="M967.569,-230.887C939.212,-220.219 905.913,-207.69 878.844,-197.506"/>
<polygon fill="midnightblue" stroke="midnightblue" points="966.388,-234.182 976.98,-234.428 968.853,-227.631 966.388,-234.182"/>
</g>
<!-- Node19&#45;&gt;Node14 -->
<g id="edge32" class="edge"><title>Node19&#45;&gt;Node14</title>
<path fill="none" stroke="midnightblue" d="M1070.2,-228.801C1083.74,-219.767 1098.51,-209.064 1111,-198 1118.54,-191.321 1157.17,-146.551 1180.01,-119.889"/>
<polygon fill="midnightblue" stroke="midnightblue" points="1067.97,-226.078 1061.52,-234.483 1071.8,-231.936 1067.97,-226.078"/>
</g>
<!-- Node20 -->
<g id="node20" class="node"><title>Node20</title>
<g id="a_node20"><a xlink:href="detail_8cpp.html" target="_top" xlink:title="/home/travis/build\l/PO&#45;31/QtReports/qtreports\l/src/tags/detail.cpp">
<polygon fill="none" stroke="black" points="956,-156.5 956,-197.5 1102,-197.5 1102,-156.5 956,-156.5"/>
<text text-anchor="start" x="964" y="-185.5" font-family="Helvetica,sans-Serif" font-size="10.00">/home/travis/build</text>
<text text-anchor="start" x="964" y="-174.5" font-family="Helvetica,sans-Serif" font-size="10.00">/PO&#45;31/QtReports/qtreports</text>
<text text-anchor="middle" x="1029" y="-163.5" font-family="Helvetica,sans-Serif" font-size="10.00">/src/tags/detail.cpp</text>
</a>
</g>
</g>
<!-- Node19&#45;&gt;Node20 -->
<g id="edge33" class="edge"><title>Node19&#45;&gt;Node20</title>
<path fill="none" stroke="midnightblue" d="M1029,-224.297C1029,-215.301 1029,-205.653 1029,-197.506"/>
<polygon fill="midnightblue" stroke="midnightblue" points="1025.5,-224.428 1029,-234.428 1032.5,-224.428 1025.5,-224.428"/>
</g>
<!-- Node21&#45;&gt;Node3 -->
<g id="edge35" class="edge"><title>Node21&#45;&gt;Node3</title>
<path fill="none" stroke="midnightblue" d="M1273.63,-233.873C1128.79,-208.983 1089.01,-217.612 947,-198 931.831,-195.905 915.63,-193.393 900.197,-190.867"/>
<polygon fill="midnightblue" stroke="midnightblue" points="1273.33,-237.374 1283.78,-235.643 1274.53,-230.478 1273.33,-237.374"/>
</g>
<!-- Node21&#45;&gt;Node14 -->
<g id="edge36" class="edge"><title>Node21&#45;&gt;Node14</title>
<path fill="none" stroke="midnightblue" d="M1355.54,-224.213C1353.03,-202.927 1346.54,-174.832 1330,-156 1315.62,-139.621 1295.65,-127.907 1275.56,-119.579"/>
<polygon fill="midnightblue" stroke="midnightblue" points="1352.07,-224.716 1356.5,-234.342 1359.04,-224.056 1352.07,-224.716"/>
</g>
<!-- Node22 -->
<g id="node22" class="node"><title>Node22</title>
<g id="a_node22"><a xlink:href="summary_8cpp.html" target="_top" xlink:title="/home/travis/build\l/PO&#45;31/QtReports/qtreports\l/src/tags/summary.cpp">
<polygon fill="none" stroke="black" points="1398,-156.5 1398,-197.5 1544,-197.5 1544,-156.5 1398,-156.5"/>
<text text-anchor="start" x="1406" y="-185.5" font-family="Helvetica,sans-Serif" font-size="10.00">/home/travis/build</text>
<text text-anchor="start" x="1406" y="-174.5" font-family="Helvetica,sans-Serif" font-size="10.00">/PO&#45;31/QtReports/qtreports</text>
<text text-anchor="middle" x="1471" y="-163.5" font-family="Helvetica,sans-Serif" font-size="10.00">/src/tags/summary.cpp</text>
</a>
</g>
</g>
<!-- Node21&#45;&gt;Node22 -->
<g id="edge37" class="edge"><title>Node21&#45;&gt;Node22</title>
<path fill="none" stroke="midnightblue" d="M1395.05,-228.635C1410.27,-218.487 1427.53,-206.982 1441.74,-197.506"/>
<polygon fill="midnightblue" stroke="midnightblue" points="1392.74,-225.969 1386.36,-234.428 1396.62,-231.793 1392.74,-225.969"/>
</g>
</g>
</svg>
