<?xml version="1.0" encoding="UTF-8" standalone="no"?>
<!DOCTYPE svg PUBLIC "-//W3C//DTD SVG 1.1//EN"
 "http://www.w3.org/Graphics/SVG/1.1/DTD/svg11.dtd">
<!-- Generated by graphviz version 2.38.0 (20140413.2041)
 -->
<!-- Title: /home/travis/build/PO&#45;31/QtReports/qtreports/src/tags/textwidget.hpp Pages: 1 -->
<svg width="420pt" height="274pt"
 viewBox="0.00 0.00 419.59 274.00" xmlns="http://www.w3.org/2000/svg" xmlns:xlink="http://www.w3.org/1999/xlink">
<g id="graph0" class="graph" transform="scale(1 1) rotate(0) translate(4 270)">
<title>/home/travis/build/PO&#45;31/QtReports/qtreports/src/tags/textwidget.hpp</title>
<!-- Node1 -->
<g id="node1" class="node"><title>Node1</title>
<polygon fill="#bfbfbf" stroke="black" points="138.588,-224.5 138.588,-265.5 284.588,-265.5 284.588,-224.5 138.588,-224.5"/>
<text text-anchor="start" x="146.588" y="-253.5" font-family="Helvetica,sans-Serif" font-size="10.00">/home/travis/build</text>
<text text-anchor="start" x="146.588" y="-242.5" font-family="Helvetica,sans-Serif" font-size="10.00">/PO&#45;31/QtReports/qtreports</text>
<text text-anchor="middle" x="211.588" y="-231.5" font-family="Helvetica,sans-Serif" font-size="10.00">/src/tags/textwidget.hpp</text>
</g>
<!-- Node2 -->
<g id="node2" class="node"><title>Node2</title>
<polygon fill="none" stroke="#bfbfbf" points="115.088,-0.5 115.088,-19.5 168.088,-19.5 168.088,-0.5 115.088,-0.5"/>
<text text-anchor="middle" x="141.588" y="-7.5" font-family="Helvetica,sans-Serif" font-size="10.00">QString</text>
</g>
<!-- Node1&#45;&gt;Node2 -->
<g id="edge1" class="edge"><title>Node1&#45;&gt;Node2</title>
<path fill="none" stroke="midnightblue" d="M138.51,-224.963C91.8577,-208.607 34.985,-179.874 6.58758,-132 -22.6162,-82.7667 57.8153,-42.4156 106.842,-23.1759"/>
<polygon fill="midnightblue" stroke="midnightblue" points="108.089,-26.446 116.186,-19.6131 105.596,-19.9053 108.089,-26.446"/>
</g>
<!-- Node3 -->
<g id="node3" class="node"><title>Node3</title>
<polygon fill="none" stroke="#bfbfbf" points="319.588,-0.5 319.588,-19.5 411.588,-19.5 411.588,-0.5 319.588,-0.5"/>
<text text-anchor="middle" x="365.588" y="-7.5" font-family="Helvetica,sans-Serif" font-size="10.00">QSharedPointer</text>
</g>
<!-- Node1&#45;&gt;Node3 -->
<g id="edge2" class="edge"><title>Node1&#45;&gt;Node3</title>
<path fill="none" stroke="midnightblue" d="M254.445,-224.402C290.665,-205.677 341.211,-174.084 370.588,-132 390.295,-103.769 392.735,-89.6794 385.588,-56 383.591,-46.5915 379.487,-36.7618 375.513,-28.6981"/>
<polygon fill="midnightblue" stroke="midnightblue" points="378.474,-26.8101 370.718,-19.5932 372.281,-30.0721 378.474,-26.8101"/>
</g>
<!-- Node4 -->
<g id="node4" class="node"><title>Node4</title>
<g id="a_node4"><a xlink:href="widget_8hpp.html" target="_top" xlink:title="widget.hpp">
<polygon fill="none" stroke="black" points="177.588,-168.5 177.588,-187.5 245.588,-187.5 245.588,-168.5 177.588,-168.5"/>
<text text-anchor="middle" x="211.588" y="-175.5" font-family="Helvetica,sans-Serif" font-size="10.00">widget.hpp</text>
</a>
</g>
</g>
<!-- Node1&#45;&gt;Node4 -->
<g id="edge3" class="edge"><title>Node1&#45;&gt;Node4</title>
<path fill="none" stroke="midnightblue" d="M211.588,-224.498C211.588,-216.065 211.588,-206.235 211.588,-197.874"/>
<polygon fill="midnightblue" stroke="midnightblue" points="215.088,-197.652 211.588,-187.652 208.088,-197.653 215.088,-197.652"/>
</g>
<!-- Node4&#45;&gt;Node2 -->
<g id="edge4" class="edge"><title>Node4&#45;&gt;Node2</title>
<path fill="none" stroke="midnightblue" d="M177.4,-172.276C153.133,-166.943 122.2,-155.677 106.588,-132 84.9184,-99.1378 111.026,-52.6659 128.437,-27.9707"/>
<polygon fill="midnightblue" stroke="midnightblue" points="131.455,-29.7739 134.566,-19.646 125.818,-25.6237 131.455,-29.7739"/>
</g>
<!-- Node4&#45;&gt;Node3 -->
<g id="edge8" class="edge"><title>Node4&#45;&gt;Node3</title>
<path fill="none" stroke="midnightblue" d="M245.879,-175.848C278.096,-172.796 325.061,-162.896 350.588,-132 374.664,-102.859 372.45,-55.4965 368.908,-29.5128"/>
<polygon fill="midnightblue" stroke="midnightblue" points="372.346,-28.8424 367.33,-19.5103 365.431,-29.9337 372.346,-28.8424"/>
</g>
<!-- Node5 -->
<g id="node5" class="node"><title>Node5</title>
<polygon fill="none" stroke="#bfbfbf" points="115.588,-112.5 115.588,-131.5 163.588,-131.5 163.588,-112.5 115.588,-112.5"/>
<text text-anchor="middle" x="139.588" y="-119.5" font-family="Helvetica,sans-Serif" font-size="10.00">QPoint</text>
</g>
<!-- Node4&#45;&gt;Node5 -->
<g id="edge5" class="edge"><title>Node4&#45;&gt;Node5</title>
<path fill="none" stroke="midnightblue" d="M200.02,-168.324C189.167,-160.185 172.707,-147.839 159.704,-138.087"/>
<polygon fill="midnightblue" stroke="midnightblue" points="161.466,-135.034 151.366,-131.834 157.266,-140.634 161.466,-135.034"/>
</g>
<!-- Node6 -->
<g id="node6" class="node"><title>Node6</title>
<polygon fill="none" stroke="#bfbfbf" points="297.588,-112.5 297.588,-131.5 341.588,-131.5 341.588,-112.5 297.588,-112.5"/>
<text text-anchor="middle" x="319.588" y="-119.5" font-family="Helvetica,sans-Serif" font-size="10.00">QSize</text>
</g>
<!-- Node4&#45;&gt;Node6 -->
<g id="edge6" class="edge"><title>Node4&#45;&gt;Node6</title>
<path fill="none" stroke="midnightblue" d="M228.94,-168.324C246.259,-159.664 273.103,-146.242 293.09,-136.249"/>
<polygon fill="midnightblue" stroke="midnightblue" points="294.9,-139.257 302.279,-131.655 291.769,-132.996 294.9,-139.257"/>
</g>
<!-- Node7 -->
<g id="node7" class="node"><title>Node7</title>
<polygon fill="none" stroke="#bfbfbf" points="15.5876,-112.5 15.5876,-131.5 59.5876,-131.5 59.5876,-112.5 15.5876,-112.5"/>
<text text-anchor="middle" x="37.5876" y="-119.5" font-family="Helvetica,sans-Serif" font-size="10.00">QRect</text>
</g>
<!-- Node4&#45;&gt;Node7 -->
<g id="edge7" class="edge"><title>Node4&#45;&gt;Node7</title>
<path fill="none" stroke="midnightblue" d="M184.017,-168.444C152.84,-158.768 102.16,-143.04 69.3511,-132.858"/>
<polygon fill="midnightblue" stroke="midnightblue" points="70.3723,-129.51 59.7843,-129.889 68.2975,-136.195 70.3723,-129.51"/>
</g>
<!-- Node8 -->
<g id="node8" class="node"><title>Node8</title>
<g id="a_node8"><a xlink:href="style_8hpp.html" target="_top" xlink:title="style.hpp">
<polygon fill="none" stroke="black" points="181.588,-112.5 181.588,-131.5 241.588,-131.5 241.588,-112.5 181.588,-112.5"/>
<text text-anchor="middle" x="211.588" y="-119.5" font-family="Helvetica,sans-Serif" font-size="10.00">style.hpp</text>
</a>
</g>
</g>
<!-- Node4&#45;&gt;Node8 -->
<g id="edge9" class="edge"><title>Node4&#45;&gt;Node8</title>
<path fill="none" stroke="midnightblue" d="M211.588,-168.083C211.588,-161.006 211.588,-150.861 211.588,-141.986"/>
<polygon fill="midnightblue" stroke="midnightblue" points="215.088,-141.751 211.588,-131.751 208.088,-141.751 215.088,-141.751"/>
</g>
<!-- Node10 -->
<g id="node10" class="node"><title>Node10</title>
<g id="a_node10"><a xlink:href="object_8hpp.html" target="_top" xlink:title="object.hpp">
<polygon fill="none" stroke="black" points="236.088,-56.5 236.088,-75.5 303.088,-75.5 303.088,-56.5 236.088,-56.5"/>
<text text-anchor="middle" x="269.588" y="-63.5" font-family="Helvetica,sans-Serif" font-size="10.00">object.hpp</text>
</a>
</g>
</g>
<!-- Node4&#45;&gt;Node10 -->
<g id="edge17" class="edge"><title>Node4&#45;&gt;Node10</title>
<path fill="none" stroke="midnightblue" d="M221.257,-168.247C230.073,-159.772 242.866,-146.159 250.588,-132 258.503,-117.485 263.455,-99.3027 266.312,-85.8624"/>
<polygon fill="midnightblue" stroke="midnightblue" points="269.781,-86.354 268.237,-75.8723 262.908,-85.0293 269.781,-86.354"/>
</g>
<!-- Node8&#45;&gt;Node2 -->
<g id="edge10" class="edge"><title>Node8&#45;&gt;Node2</title>
<path fill="none" stroke="midnightblue" d="M209.716,-112.452C206.602,-99.4746 199.495,-74.3723 187.588,-56 180.33,-44.8025 169.832,-34.2583 160.697,-26.1951"/>
<polygon fill="midnightblue" stroke="midnightblue" points="162.719,-23.3218 152.822,-19.54 158.201,-28.6682 162.719,-23.3218"/>
</g>
<!-- Node8&#45;&gt;Node3 -->
<g id="edge12" class="edge"><title>Node8&#45;&gt;Node3</title>
<path fill="none" stroke="midnightblue" d="M239.293,-112.381C260.452,-104.928 289.615,-92.7109 311.588,-76 329.213,-62.595 344.827,-42.4014 354.673,-28.0842"/>
<polygon fill="midnightblue" stroke="midnightblue" points="357.655,-29.9207 360.275,-19.6548 351.825,-26.0466 357.655,-29.9207"/>
</g>
<!-- Node9 -->
<g id="node9" class="node"><title>Node9</title>
<polygon fill="none" stroke="#bfbfbf" points="130.088,-56.5 130.088,-75.5 179.088,-75.5 179.088,-56.5 130.088,-56.5"/>
<text text-anchor="middle" x="154.588" y="-63.5" font-family="Helvetica,sans-Serif" font-size="10.00">QColor</text>
</g>
<!-- Node8&#45;&gt;Node9 -->
<g id="edge11" class="edge"><title>Node8&#45;&gt;Node9</title>
<path fill="none" stroke="midnightblue" d="M202.43,-112.324C194.086,-104.42 181.555,-92.5482 171.411,-82.9377"/>
<polygon fill="midnightblue" stroke="midnightblue" points="173.579,-80.1705 163.912,-75.8339 168.765,-85.2522 173.579,-80.1705"/>
</g>
<!-- Node8&#45;&gt;Node10 -->
<g id="edge13" class="edge"><title>Node8&#45;&gt;Node10</title>
<path fill="none" stroke="midnightblue" d="M220.906,-112.324C229.48,-104.341 242.4,-92.3128 252.775,-82.6529"/>
<polygon fill="midnightblue" stroke="midnightblue" points="255.165,-85.2098 260.099,-75.8339 250.395,-80.0865 255.165,-85.2098"/>
</g>
<!-- Node10&#45;&gt;Node2 -->
<g id="edge14" class="edge"><title>Node10&#45;&gt;Node2</title>
<path fill="none" stroke="midnightblue" d="M249.306,-56.4435C228.24,-47.5566 195.071,-33.5632 171.102,-23.4514"/>
<polygon fill="midnightblue" stroke="midnightblue" points="172.349,-20.1787 161.775,-19.5164 169.628,-26.6283 172.349,-20.1787"/>
</g>
<!-- Node10&#45;&gt;Node3 -->
<g id="edge16" class="edge"><title>Node10&#45;&gt;Node3</title>
<path fill="none" stroke="midnightblue" d="M285.012,-56.324C300.127,-47.8215 323.403,-34.7288 341.059,-24.7975"/>
<polygon fill="midnightblue" stroke="midnightblue" points="343.202,-27.6077 350.202,-19.6545 339.77,-21.5066 343.202,-27.6077"/>
</g>
<!-- Node11 -->
<g id="node11" class="node"><title>Node11</title>
<polygon fill="none" stroke="#bfbfbf" points="240.588,-0.5 240.588,-19.5 298.588,-19.5 298.588,-0.5 240.588,-0.5"/>
<text text-anchor="middle" x="269.588" y="-7.5" font-family="Helvetica,sans-Serif" font-size="10.00">QVariant</text>
</g>
<!-- Node10&#45;&gt;Node11 -->
<g id="edge15" class="edge"><title>Node10&#45;&gt;Node11</title>
<path fill="none" stroke="midnightblue" d="M269.588,-56.083C269.588,-49.0059 269.588,-38.8611 269.588,-29.9865"/>
<polygon fill="midnightblue" stroke="midnightblue" points="273.088,-29.751 269.588,-19.7511 266.088,-29.7511 273.088,-29.751"/>
</g>
</g>
</svg>
