<?xml version="1.0" encoding="UTF-8" standalone="no"?>
<!DOCTYPE svg PUBLIC "-//W3C//DTD SVG 1.1//EN"
 "http://www.w3.org/Graphics/SVG/1.1/DTD/svg11.dtd">
<!-- Generated by graphviz version 2.38.0 (20140413.2041)
 -->
<!-- Title: /home/travis/build/PO&#45;31/QtReports/qtreports/src/tags/textfield.hpp Pages: 1 -->
<svg width="513pt" height="330pt"
 viewBox="0.00 0.00 513.00 330.00" xmlns="http://www.w3.org/2000/svg" xmlns:xlink="http://www.w3.org/1999/xlink">
<g id="graph0" class="graph" transform="scale(1 1) rotate(0) translate(4 326)">
<title>/home/travis/build/PO&#45;31/QtReports/qtreports/src/tags/textfield.hpp</title>
<!-- Node1 -->
<g id="node1" class="node"><title>Node1</title>
<polygon fill="#bfbfbf" stroke="black" points="170,-280.5 170,-321.5 316,-321.5 316,-280.5 170,-280.5"/>
<text text-anchor="start" x="178" y="-309.5" font-family="Helvetica,sans-Serif" font-size="10.00">/home/travis/build</text>
<text text-anchor="start" x="178" y="-298.5" font-family="Helvetica,sans-Serif" font-size="10.00">/PO&#45;31/QtReports/qtreports</text>
<text text-anchor="middle" x="243" y="-287.5" font-family="Helvetica,sans-Serif" font-size="10.00">/src/tags/textfield.hpp</text>
</g>
<!-- Node2 -->
<g id="node2" class="node"><title>Node2</title>
<polygon fill="none" stroke="#bfbfbf" points="49.5,-0.5 49.5,-19.5 102.5,-19.5 102.5,-0.5 49.5,-0.5"/>
<text text-anchor="middle" x="76" y="-7.5" font-family="Helvetica,sans-Serif" font-size="10.00">QString</text>
</g>
<!-- Node1&#45;&gt;Node2 -->
<g id="edge1" class="edge"><title>Node1&#45;&gt;Node2</title>
<path fill="none" stroke="midnightblue" d="M169.762,-294.063C98.2129,-283.782 0,-255.701 0,-179 0,-179 0,-179 0,-121 0,-81.2757 33.9641,-45.5045 56.4821,-26.1536"/>
<polygon fill="midnightblue" stroke="midnightblue" points="58.9755,-28.6337 64.4572,-19.5672 54.518,-23.2364 58.9755,-28.6337"/>
</g>
<!-- Node3 -->
<g id="node3" class="node"><title>Node3</title>
<polygon fill="none" stroke="#bfbfbf" points="297,-0.5 297,-19.5 389,-19.5 389,-0.5 297,-0.5"/>
<text text-anchor="middle" x="343" y="-7.5" font-family="Helvetica,sans-Serif" font-size="10.00">QSharedPointer</text>
</g>
<!-- Node1&#45;&gt;Node3 -->
<g id="edge2" class="edge"><title>Node1&#45;&gt;Node3</title>
<path fill="none" stroke="midnightblue" d="M316.33,-296.598C393.839,-288.592 505,-262.546 505,-179 505,-179 505,-179 505,-121 505,-65.934 440.144,-36.5137 392.505,-22.3309"/>
<polygon fill="midnightblue" stroke="midnightblue" points="393.205,-18.8917 382.63,-19.532 391.296,-25.6264 393.205,-18.8917"/>
</g>
<!-- Node4 -->
<g id="node4" class="node"><title>Node4</title>
<g id="a_node4"><a xlink:href="textwidget_8hpp.html" target="_top" xlink:title="textwidget.hpp">
<polygon fill="none" stroke="black" points="199.5,-224.5 199.5,-243.5 286.5,-243.5 286.5,-224.5 199.5,-224.5"/>
<text text-anchor="middle" x="243" y="-231.5" font-family="Helvetica,sans-Serif" font-size="10.00">textwidget.hpp</text>
</a>
</g>
</g>
<!-- Node1&#45;&gt;Node4 -->
<g id="edge3" class="edge"><title>Node1&#45;&gt;Node4</title>
<path fill="none" stroke="midnightblue" d="M243,-280.498C243,-272.065 243,-262.235 243,-253.874"/>
<polygon fill="midnightblue" stroke="midnightblue" points="246.5,-253.652 243,-243.652 239.5,-253.653 246.5,-253.652"/>
</g>
<!-- Node4&#45;&gt;Node2 -->
<g id="edge4" class="edge"><title>Node4&#45;&gt;Node2</title>
<path fill="none" stroke="midnightblue" d="M228.287,-224.344C202.6,-208.644 149.067,-173.252 115,-132 97.1526,-110.389 94.69,-102.647 86,-76 81.0717,-60.888 78.5463,-42.9892 77.2677,-29.8039"/>
<polygon fill="midnightblue" stroke="midnightblue" points="80.7383,-29.3007 76.436,-19.6187 73.7615,-29.8704 80.7383,-29.3007"/>
</g>
<!-- Node4&#45;&gt;Node3 -->
<g id="edge5" class="edge"><title>Node4&#45;&gt;Node3</title>
<path fill="none" stroke="midnightblue" d="M286.536,-225.464C335.508,-214.407 412.791,-188.597 448,-132 474.931,-88.7097 409.461,-45.3768 370.107,-24.2574"/>
<polygon fill="midnightblue" stroke="midnightblue" points="371.692,-21.1367 361.207,-19.6178 368.456,-27.344 371.692,-21.1367"/>
</g>
<!-- Node5 -->
<g id="node5" class="node"><title>Node5</title>
<g id="a_node5"><a xlink:href="widget_8hpp.html" target="_top" xlink:title="widget.hpp">
<polygon fill="none" stroke="black" points="209,-168.5 209,-187.5 277,-187.5 277,-168.5 209,-168.5"/>
<text text-anchor="middle" x="243" y="-175.5" font-family="Helvetica,sans-Serif" font-size="10.00">widget.hpp</text>
</a>
</g>
</g>
<!-- Node4&#45;&gt;Node5 -->
<g id="edge6" class="edge"><title>Node4&#45;&gt;Node5</title>
<path fill="none" stroke="midnightblue" d="M243,-224.083C243,-217.006 243,-206.861 243,-197.986"/>
<polygon fill="midnightblue" stroke="midnightblue" points="246.5,-197.751 243,-187.751 239.5,-197.751 246.5,-197.751"/>
</g>
<!-- Node5&#45;&gt;Node2 -->
<g id="edge7" class="edge"><title>Node5&#45;&gt;Node2</title>
<path fill="none" stroke="midnightblue" d="M208.817,-169.53C185.618,-162.971 155.544,-151.368 135,-132 104.497,-103.242 87.7733,-55.3788 80.4948,-29.3026"/>
<polygon fill="midnightblue" stroke="midnightblue" points="83.8668,-28.363 77.9411,-19.5802 77.0965,-30.1413 83.8668,-28.363"/>
</g>
<!-- Node5&#45;&gt;Node3 -->
<g id="edge11" class="edge"><title>Node5&#45;&gt;Node3</title>
<path fill="none" stroke="midnightblue" d="M251.772,-168.23C260.181,-159.53 272.905,-145.568 282,-132 305.049,-97.6147 325.232,-53.3327 335.599,-29.0041"/>
<polygon fill="midnightblue" stroke="midnightblue" points="338.898,-30.1869 339.534,-19.6111 332.442,-27.4819 338.898,-30.1869"/>
</g>
<!-- Node6 -->
<g id="node6" class="node"><title>Node6</title>
<polygon fill="none" stroke="#bfbfbf" points="329,-112.5 329,-131.5 377,-131.5 377,-112.5 329,-112.5"/>
<text text-anchor="middle" x="353" y="-119.5" font-family="Helvetica,sans-Serif" font-size="10.00">QPoint</text>
</g>
<!-- Node5&#45;&gt;Node6 -->
<g id="edge8" class="edge"><title>Node5&#45;&gt;Node6</title>
<path fill="none" stroke="midnightblue" d="M260.673,-168.324C278.394,-159.625 305.903,-146.12 326.288,-136.113"/>
<polygon fill="midnightblue" stroke="midnightblue" points="327.936,-139.203 335.37,-131.655 324.851,-132.919 327.936,-139.203"/>
</g>
<!-- Node7 -->
<g id="node7" class="node"><title>Node7</title>
<polygon fill="none" stroke="#bfbfbf" points="395,-112.5 395,-131.5 439,-131.5 439,-112.5 395,-112.5"/>
<text text-anchor="middle" x="417" y="-119.5" font-family="Helvetica,sans-Serif" font-size="10.00">QSize</text>
</g>
<!-- Node5&#45;&gt;Node7 -->
<g id="edge9" class="edge"><title>Node5&#45;&gt;Node7</title>
<path fill="none" stroke="midnightblue" d="M270.571,-168.444C301.747,-158.768 352.428,-143.04 385.236,-132.858"/>
<polygon fill="midnightblue" stroke="midnightblue" points="386.29,-136.195 394.803,-129.889 384.215,-129.51 386.29,-136.195"/>
</g>
<!-- Node8 -->
<g id="node8" class="node"><title>Node8</title>
<polygon fill="none" stroke="#bfbfbf" points="151,-112.5 151,-131.5 195,-131.5 195,-112.5 151,-112.5"/>
<text text-anchor="middle" x="173" y="-119.5" font-family="Helvetica,sans-Serif" font-size="10.00">QRect</text>
</g>
<!-- Node5&#45;&gt;Node8 -->
<g id="edge10" class="edge"><title>Node5&#45;&gt;Node8</title>
<path fill="none" stroke="midnightblue" d="M231.753,-168.324C221.203,-160.185 205.199,-147.839 192.558,-138.087"/>
<polygon fill="midnightblue" stroke="midnightblue" points="194.507,-135.171 184.451,-131.834 190.231,-140.713 194.507,-135.171"/>
</g>
<!-- Node9 -->
<g id="node9" class="node"><title>Node9</title>
<g id="a_node9"><a xlink:href="style_8hpp.html" target="_top" xlink:title="style.hpp">
<polygon fill="none" stroke="black" points="213,-112.5 213,-131.5 273,-131.5 273,-112.5 213,-112.5"/>
<text text-anchor="middle" x="243" y="-119.5" font-family="Helvetica,sans-Serif" font-size="10.00">style.hpp</text>
</a>
</g>
</g>
<!-- Node5&#45;&gt;Node9 -->
<g id="edge12" class="edge"><title>Node5&#45;&gt;Node9</title>
<path fill="none" stroke="midnightblue" d="M243,-168.083C243,-161.006 243,-150.861 243,-141.986"/>
<polygon fill="midnightblue" stroke="midnightblue" points="246.5,-141.751 243,-131.751 239.5,-141.751 246.5,-141.751"/>
</g>
<!-- Node11 -->
<g id="node11" class="node"><title>Node11</title>
<g id="a_node11"><a xlink:href="object_8hpp.html" target="_top" xlink:title="object.hpp">
<polygon fill="none" stroke="black" points="142.5,-56.5 142.5,-75.5 209.5,-75.5 209.5,-56.5 142.5,-56.5"/>
<text text-anchor="middle" x="176" y="-63.5" font-family="Helvetica,sans-Serif" font-size="10.00">object.hpp</text>
</a>
</g>
</g>
<!-- Node5&#45;&gt;Node11 -->
<g id="edge20" class="edge"><title>Node5&#45;&gt;Node11</title>
<path fill="none" stroke="midnightblue" d="M208.595,-171.539C185.469,-165.886 156.634,-154.541 142,-132 131.565,-115.927 145.143,-96.2931 158.111,-82.8366"/>
<polygon fill="midnightblue" stroke="midnightblue" points="160.734,-85.1689 165.489,-75.7011 155.867,-80.1369 160.734,-85.1689"/>
</g>
<!-- Node9&#45;&gt;Node2 -->
<g id="edge13" class="edge"><title>Node9&#45;&gt;Node2</title>
<path fill="none" stroke="midnightblue" d="M212.63,-112.755C189.412,-105.503 157.357,-93.3739 133,-76 114.557,-62.8444 98.0471,-42.6061 87.6022,-28.2102"/>
<polygon fill="midnightblue" stroke="midnightblue" points="90.2612,-25.906 81.6548,-19.7269 84.5295,-29.9244 90.2612,-25.906"/>
</g>
<!-- Node9&#45;&gt;Node3 -->
<g id="edge15" class="edge"><title>Node9&#45;&gt;Node3</title>
<path fill="none" stroke="midnightblue" d="M251.109,-112.426C259.611,-103.411 273.33,-88.7876 285,-76 299.886,-59.6881 316.66,-40.8378 328.325,-27.6514"/>
<polygon fill="midnightblue" stroke="midnightblue" points="331.186,-29.6998 335.182,-19.8876 325.939,-25.066 331.186,-29.6998"/>
</g>
<!-- Node10 -->
<g id="node10" class="node"><title>Node10</title>
<polygon fill="none" stroke="#bfbfbf" points="227.5,-56.5 227.5,-75.5 276.5,-75.5 276.5,-56.5 227.5,-56.5"/>
<text text-anchor="middle" x="252" y="-63.5" font-family="Helvetica,sans-Serif" font-size="10.00">QColor</text>
</g>
<!-- Node9&#45;&gt;Node10 -->
<g id="edge14" class="edge"><title>Node9&#45;&gt;Node10</title>
<path fill="none" stroke="midnightblue" d="M244.486,-112.083C245.679,-104.927 247.394,-94.6353 248.885,-85.6911"/>
<polygon fill="midnightblue" stroke="midnightblue" points="252.35,-86.1904 250.541,-75.7511 245.445,-85.0396 252.35,-86.1904"/>
</g>
<!-- Node9&#45;&gt;Node11 -->
<g id="edge16" class="edge"><title>Node9&#45;&gt;Node11</title>
<path fill="none" stroke="midnightblue" d="M232.235,-112.324C222.234,-104.263 207.113,-92.0765 195.07,-82.3695"/>
<polygon fill="midnightblue" stroke="midnightblue" points="196.943,-79.3841 186.961,-75.8339 192.55,-84.8343 196.943,-79.3841"/>
</g>
<!-- Node11&#45;&gt;Node2 -->
<g id="edge17" class="edge"><title>Node11&#45;&gt;Node2</title>
<path fill="none" stroke="midnightblue" d="M159.933,-56.324C144.042,-47.7428 119.493,-34.486 101.042,-24.5224"/>
<polygon fill="midnightblue" stroke="midnightblue" points="102.489,-21.3264 92.0269,-19.6545 99.1629,-27.4857 102.489,-21.3264"/>
</g>
<!-- Node11&#45;&gt;Node3 -->
<g id="edge19" class="edge"><title>Node11&#45;&gt;Node3</title>
<path fill="none" stroke="midnightblue" d="M202.462,-56.4435C230.678,-47.3196 275.54,-32.8133 306.968,-22.6509"/>
<polygon fill="midnightblue" stroke="midnightblue" points="308.224,-25.9234 316.662,-19.5164 306.07,-19.263 308.224,-25.9234"/>
</g>
<!-- Node12 -->
<g id="node12" class="node"><title>Node12</title>
<polygon fill="none" stroke="#bfbfbf" points="147,-0.5 147,-19.5 205,-19.5 205,-0.5 147,-0.5"/>
<text text-anchor="middle" x="176" y="-7.5" font-family="Helvetica,sans-Serif" font-size="10.00">QVariant</text>
</g>
<!-- Node11&#45;&gt;Node12 -->
<g id="edge18" class="edge"><title>Node11&#45;&gt;Node12</title>
<path fill="none" stroke="midnightblue" d="M176,-56.083C176,-49.0059 176,-38.8611 176,-29.9865"/>
<polygon fill="midnightblue" stroke="midnightblue" points="179.5,-29.751 176,-19.7511 172.5,-29.7511 179.5,-29.751"/>
</g>
</g>
</svg>
