<?xml version="1.0" encoding="UTF-8" standalone="no"?>
<!DOCTYPE svg PUBLIC "-//W3C//DTD SVG 1.1//EN"
 "http://www.w3.org/Graphics/SVG/1.1/DTD/svg11.dtd">
<!-- Generated by graphviz version 2.38.0 (20140413.2041)
 -->
<!-- Title: /home/travis/build/PO&#45;31/QtReports/qtreports/src/tags/band.hpp Pages: 1 -->
<!--zoomable 440 -->
<svg id="main" version="1.1" xmlns="http://www.w3.org/2000/svg" xmlns:xlink="http://www.w3.org/1999/xlink" xml:space="preserve" onload="init(evt)">
<style type="text/css"><![CDATA[
.edge:hover path { stroke: red; }
.edge:hover polygon { stroke: red; fill: red; }
]]></style>
<script type="text/javascript"><![CDATA[
var edges = document.getElementsByTagName('g');
if (edges && edges.length) {
  for (var i=0;i<edges.length;i++) {
    if (edges[i].id.substr(0,4)=='edge') {
      edges[i].setAttribute('class','edge');
    }
  }
}
]]></script>
        <defs>
                <circle id="rim" cx="0" cy="0" r="7"/>
                <circle id="rim2" cx="0" cy="0" r="3.5"/>
                <g id="zoomPlus">
                        <use xlink:href="#rim" fill="#404040">
                                <set attributeName="fill" to="#808080" begin="zoomplus.mouseover" end="zoomplus.mouseout"/>
                        </use>
                        <path d="M-4,0h8M0,-4v8" fill="none" stroke="white" stroke-width="1.5" pointer-events="none"/>
                </g>
                <g id="zoomMin">
                        <use xlink:href="#rim" fill="#404040">
                                <set attributeName="fill" to="#808080" begin="zoomminus.mouseover" end="zoomminus.mouseout"/>
                        </use>
                        <path d="M-4,0h8" fill="none" stroke="white" stroke-width="1.5" pointer-events="none"/>
                </g>
                <g id="dirArrow">
                        <path fill="none" stroke="white" stroke-width="1.5" d="M0,-3.0v7 M-2.5,-0.5L0,-3.0L2.5,-0.5"/>
                </g>
               <g id="resetDef">
                       <use xlink:href="#rim2" fill="#404040">
                               <set attributeName="fill" to="#808080" begin="reset.mouseover" end="reset.mouseout"/>
                       </use>
               </g>
        </defs>

<script type="text/javascript">
var viewWidth = 1726;
var viewHeight = 440;
var sectionId = 'dynsection-1';
</script>
<script xlink:href="svgpan.js"/>
<svg id="graph" class="graph">
<g id="viewport">
<title>/home/travis/build/PO&#45;31/QtReports/qtreports/src/tags/band.hpp</title>
<!-- Node1 -->
<g id="node1" class="node"><title>Node1</title>
<polygon fill="#bfbfbf" stroke="black" points="1471,-390.5 1471,-431.5 1617,-431.5 1617,-390.5 1471,-390.5"/>
<text text-anchor="start" x="1479" y="-419.5" font-family="Helvetica,sans-Serif" font-size="10.00">/home/travis/build</text>
<text text-anchor="start" x="1479" y="-408.5" font-family="Helvetica,sans-Serif" font-size="10.00">/PO&#45;31/QtReports/qtreports</text>
<text text-anchor="middle" x="1544" y="-397.5" font-family="Helvetica,sans-Serif" font-size="10.00">/src/tags/band.hpp</text>
</g>
<!-- Node2 -->
<g id="node2" class="node"><title>Node2</title>
<g id="a_node2"><a xlink:href="section_8hpp.html" target="_top" xlink:title="/home/travis/build\l/PO&#45;31/QtReports/qtreports\l/src/tags/section.hpp">
<polygon fill="none" stroke="black" points="903,-312.5 903,-353.5 1049,-353.5 1049,-312.5 903,-312.5"/>
<text text-anchor="start" x="911" y="-341.5" font-family="Helvetica,sans-Serif" font-size="10.00">/home/travis/build</text>
<text text-anchor="start" x="911" y="-330.5" font-family="Helvetica,sans-Serif" font-size="10.00">/PO&#45;31/QtReports/qtreports</text>
<text text-anchor="middle" x="976" y="-319.5" font-family="Helvetica,sans-Serif" font-size="10.00">/src/tags/section.hpp</text>
</a>
</g>
</g>
<!-- Node1&#45;&gt;Node2 -->
<g id="edge1" class="edge"><title>Node1&#45;&gt;Node2</title>
<path fill="none" stroke="midnightblue" d="M1460.76,-398.862C1349.75,-384.008 1154.97,-357.947 1049.26,-343.803"/>
<polygon fill="midnightblue" stroke="midnightblue" points="1460.53,-402.363 1470.91,-400.22 1461.46,-395.425 1460.53,-402.363"/>
</g>
<!-- Node15 -->
<g id="node15" class="node"><title>Node15</title>
<g id="a_node15"><a xlink:href="parserfromxml_8hpp.html" target="_top" xlink:title="/home/travis/build\l/PO&#45;31/QtReports/qtreports\l/src/parsers/parserfromxml.hpp">
<polygon fill="none" stroke="black" points="1113.5,-78.5 1113.5,-119.5 1280.5,-119.5 1280.5,-78.5 1113.5,-78.5"/>
<text text-anchor="start" x="1121.5" y="-107.5" font-family="Helvetica,sans-Serif" font-size="10.00">/home/travis/build</text>
<text text-anchor="start" x="1121.5" y="-96.5" font-family="Helvetica,sans-Serif" font-size="10.00">/PO&#45;31/QtReports/qtreports</text>
<text text-anchor="middle" x="1197" y="-85.5" font-family="Helvetica,sans-Serif" font-size="10.00">/src/parsers/parserfromxml.hpp</text>
</a>
</g>
</g>
<!-- Node1&#45;&gt;Node15 -->
<g id="edge41" class="edge"><title>Node1&#45;&gt;Node15</title>
<path fill="none" stroke="midnightblue" d="M1546.15,-380.166C1549.8,-320.211 1554.2,-188.091 1525,-156 1493.07,-120.907 1367.09,-107.793 1280.89,-102.9"/>
<polygon fill="midnightblue" stroke="midnightblue" points="1542.66,-379.944 1545.51,-390.147 1549.64,-380.392 1542.66,-379.944"/>
</g>
<!-- Node25 -->
<g id="node25" class="node"><title>Node25</title>
<g id="a_node25"><a xlink:href="band_8cpp.html" target="_top" xlink:title="/home/travis/build\l/PO&#45;31/QtReports/qtreports\l/src/tags/band.cpp">
<polygon fill="none" stroke="black" points="1572,-312.5 1572,-353.5 1718,-353.5 1718,-312.5 1572,-312.5"/>
<text text-anchor="start" x="1580" y="-341.5" font-family="Helvetica,sans-Serif" font-size="10.00">/home/travis/build</text>
<text text-anchor="start" x="1580" y="-330.5" font-family="Helvetica,sans-Serif" font-size="10.00">/PO&#45;31/QtReports/qtreports</text>
<text text-anchor="middle" x="1645" y="-319.5" font-family="Helvetica,sans-Serif" font-size="10.00">/src/tags/band.cpp</text>
</a>
</g>
</g>
<!-- Node1&#45;&gt;Node25 -->
<g id="edge42" class="edge"><title>Node1&#45;&gt;Node25</title>
<path fill="none" stroke="midnightblue" d="M1578.09,-384.35C1591.48,-374.272 1606.6,-362.893 1619.08,-353.506"/>
<polygon fill="midnightblue" stroke="midnightblue" points="1575.9,-381.619 1570.01,-390.428 1580.1,-387.212 1575.9,-381.619"/>
</g>
<!-- Node3 -->
<g id="node3" class="node"><title>Node3</title>
<g id="a_node3"><a xlink:href="group_8hpp.html" target="_top" xlink:title="/home/travis/build\l/PO&#45;31/QtReports/qtreports\l/src/tags/group.hpp">
<polygon fill="none" stroke="black" points="1250,-234.5 1250,-275.5 1396,-275.5 1396,-234.5 1250,-234.5"/>
<text text-anchor="start" x="1258" y="-263.5" font-family="Helvetica,sans-Serif" font-size="10.00">/home/travis/build</text>
<text text-anchor="start" x="1258" y="-252.5" font-family="Helvetica,sans-Serif" font-size="10.00">/PO&#45;31/QtReports/qtreports</text>
<text text-anchor="middle" x="1323" y="-241.5" font-family="Helvetica,sans-Serif" font-size="10.00">/src/tags/group.hpp</text>
</a>
</g>
</g>
<!-- Node2&#45;&gt;Node3 -->
<g id="edge2" class="edge"><title>Node2&#45;&gt;Node3</title>
<path fill="none" stroke="midnightblue" d="M1059.06,-313.808C1117.19,-301.076 1194.13,-284.224 1249.93,-272.003"/>
<polygon fill="midnightblue" stroke="midnightblue" points="1058.19,-310.417 1049.17,-315.975 1059.68,-317.255 1058.19,-310.417"/>
</g>
<!-- Node13 -->
<g id="node13" class="node"><title>Node13</title>
<g id="a_node13"><a xlink:href="convertertopdf_8hpp.html" target="_top" xlink:title="/home/travis/build\l/PO&#45;31/QtReports/qtreports\l/src/converters/convertertopdf.hpp">
<polygon fill="none" stroke="black" points="668,-78.5 668,-119.5 850,-119.5 850,-78.5 668,-78.5"/>
<text text-anchor="start" x="676" y="-107.5" font-family="Helvetica,sans-Serif" font-size="10.00">/home/travis/build</text>
<text text-anchor="start" x="676" y="-96.5" font-family="Helvetica,sans-Serif" font-size="10.00">/PO&#45;31/QtReports/qtreports</text>
<text text-anchor="middle" x="759" y="-85.5" font-family="Helvetica,sans-Serif" font-size="10.00">/src/converters/convertertopdf.hpp</text>
</a>
</g>
</g>
<!-- Node2&#45;&gt;Node13 -->
<g id="edge39" class="edge"><title>Node2&#45;&gt;Node13</title>
<path fill="none" stroke="midnightblue" d="M892.787,-318.298C780.589,-297.838 590.476,-255.469 553,-198 542.804,-182.364 541.663,-170.83 553,-156 560.512,-146.173 616.21,-131.366 667.795,-119.446"/>
<polygon fill="midnightblue" stroke="midnightblue" points="892.264,-321.76 902.727,-320.09 893.506,-314.871 892.264,-321.76"/>
</g>
<!-- Node18 -->
<g id="node18" class="node"><title>Node18</title>
<g id="a_node18"><a xlink:href="title_8hpp.html" target="_top" xlink:title="/home/travis/build\l/PO&#45;31/QtReports/qtreports\l/src/tags/title.hpp">
<polygon fill="none" stroke="black" points="739,-234.5 739,-275.5 885,-275.5 885,-234.5 739,-234.5"/>
<text text-anchor="start" x="747" y="-263.5" font-family="Helvetica,sans-Serif" font-size="10.00">/home/travis/build</text>
<text text-anchor="start" x="747" y="-252.5" font-family="Helvetica,sans-Serif" font-size="10.00">/PO&#45;31/QtReports/qtreports</text>
<text text-anchor="middle" x="812" y="-241.5" font-family="Helvetica,sans-Serif" font-size="10.00">/src/tags/title.hpp</text>
</a>
</g>
</g>
<!-- Node2&#45;&gt;Node18 -->
<g id="edge27" class="edge"><title>Node2&#45;&gt;Node18</title>
<path fill="none" stroke="midnightblue" d="M924.618,-308.189C901.93,-297.675 875.59,-285.469 854.091,-275.506"/>
<polygon fill="midnightblue" stroke="midnightblue" points="923.221,-311.399 933.766,-312.428 926.164,-305.048 923.221,-311.399"/>
</g>
<!-- Node20 -->
<g id="node20" class="node"><title>Node20</title>
<g id="a_node20"><a xlink:href="detail_8hpp.html" target="_top" xlink:title="/home/travis/build\l/PO&#45;31/QtReports/qtreports\l/src/tags/detail.hpp">
<polygon fill="none" stroke="black" points="903,-234.5 903,-275.5 1049,-275.5 1049,-234.5 903,-234.5"/>
<text text-anchor="start" x="911" y="-263.5" font-family="Helvetica,sans-Serif" font-size="10.00">/home/travis/build</text>
<text text-anchor="start" x="911" y="-252.5" font-family="Helvetica,sans-Serif" font-size="10.00">/PO&#45;31/QtReports/qtreports</text>
<text text-anchor="middle" x="976" y="-241.5" font-family="Helvetica,sans-Serif" font-size="10.00">/src/tags/detail.hpp</text>
</a>
</g>
</g>
<!-- Node2&#45;&gt;Node20 -->
<g id="edge31" class="edge"><title>Node2&#45;&gt;Node20</title>
<path fill="none" stroke="midnightblue" d="M976,-302.297C976,-293.301 976,-283.653 976,-275.506"/>
<polygon fill="midnightblue" stroke="midnightblue" points="972.5,-302.428 976,-312.428 979.5,-302.428 972.5,-302.428"/>
</g>
<!-- Node22 -->
<g id="node22" class="node"><title>Node22</title>
<g id="a_node22"><a xlink:href="summary_8hpp.html" target="_top" xlink:title="/home/travis/build\l/PO&#45;31/QtReports/qtreports\l/src/tags/summary.hpp">
<polygon fill="none" stroke="black" points="1067,-234.5 1067,-275.5 1213,-275.5 1213,-234.5 1067,-234.5"/>
<text text-anchor="start" x="1075" y="-263.5" font-family="Helvetica,sans-Serif" font-size="10.00">/home/travis/build</text>
<text text-anchor="start" x="1075" y="-252.5" font-family="Helvetica,sans-Serif" font-size="10.00">/PO&#45;31/QtReports/qtreports</text>
<text text-anchor="middle" x="1140" y="-241.5" font-family="Helvetica,sans-Serif" font-size="10.00">/src/tags/summary.hpp</text>
</a>
</g>
</g>
<!-- Node2&#45;&gt;Node22 -->
<g id="edge35" class="edge"><title>Node2&#45;&gt;Node22</title>
<path fill="none" stroke="midnightblue" d="M1027.38,-308.189C1050.07,-297.675 1076.41,-285.469 1097.91,-275.506"/>
<polygon fill="midnightblue" stroke="midnightblue" points="1025.84,-305.048 1018.23,-312.428 1028.78,-311.399 1025.84,-305.048"/>
</g>
<!-- Node24 -->
<g id="node24" class="node"><title>Node24</title>
<g id="a_node24"><a xlink:href="section_8cpp.html" target="_top" xlink:title="/home/travis/build\l/PO&#45;31/QtReports/qtreports\l/src/tags/section.cpp">
<polygon fill="none" stroke="black" points="360,-234.5 360,-275.5 506,-275.5 506,-234.5 360,-234.5"/>
<text text-anchor="start" x="368" y="-263.5" font-family="Helvetica,sans-Serif" font-size="10.00">/home/travis/build</text>
<text text-anchor="start" x="368" y="-252.5" font-family="Helvetica,sans-Serif" font-size="10.00">/PO&#45;31/QtReports/qtreports</text>
<text text-anchor="middle" x="433" y="-241.5" font-family="Helvetica,sans-Serif" font-size="10.00">/src/tags/section.cpp</text>
</a>
</g>
</g>
<!-- Node2&#45;&gt;Node24 -->
<g id="edge40" class="edge"><title>Node2&#45;&gt;Node24</title>
<path fill="none" stroke="midnightblue" d="M892.942,-324.414C801.252,-315.433 649.477,-298.769 520,-276 515.573,-275.222 511.033,-274.363 506.462,-273.452"/>
<polygon fill="midnightblue" stroke="midnightblue" points="892.705,-327.907 902.996,-325.392 893.382,-320.94 892.705,-327.907"/>
</g>
<!-- Node4 -->
<g id="node4" class="node"><title>Node4</title>
<g id="a_node4"><a xlink:href="report_8hpp.html" target="_top" xlink:title="/home/travis/build\l/PO&#45;31/QtReports/qtreports\l/src/tags/report.hpp">
<polygon fill="none" stroke="black" points="890,-156.5 890,-197.5 1036,-197.5 1036,-156.5 890,-156.5"/>
<text text-anchor="start" x="898" y="-185.5" font-family="Helvetica,sans-Serif" font-size="10.00">/home/travis/build</text>
<text text-anchor="start" x="898" y="-174.5" font-family="Helvetica,sans-Serif" font-size="10.00">/PO&#45;31/QtReports/qtreports</text>
<text text-anchor="middle" x="963" y="-163.5" font-family="Helvetica,sans-Serif" font-size="10.00">/src/tags/report.hpp</text>
</a>
</g>
</g>
<!-- Node3&#45;&gt;Node4 -->
<g id="edge3" class="edge"><title>Node3&#45;&gt;Node4</title>
<path fill="none" stroke="midnightblue" d="M1239.65,-236.403C1178.11,-223.413 1095.16,-205.901 1036.18,-193.45"/>
<polygon fill="midnightblue" stroke="midnightblue" points="1239.21,-239.888 1249.71,-238.529 1240.65,-233.038 1239.21,-239.888"/>
</g>
<!-- Node3&#45;&gt;Node15 -->
<g id="edge25" class="edge"><title>Node3&#45;&gt;Node15</title>
<path fill="none" stroke="midnightblue" d="M1330.97,-224.305C1334.76,-203.525 1336.01,-176.015 1323,-156 1312.3,-139.541 1295.53,-127.88 1277.67,-119.633"/>
<polygon fill="midnightblue" stroke="midnightblue" points="1327.52,-223.685 1328.89,-234.192 1334.37,-225.126 1327.52,-223.685"/>
</g>
<!-- Node17 -->
<g id="node17" class="node"><title>Node17</title>
<g id="a_node17"><a xlink:href="group_8cpp.html" target="_top" xlink:title="/home/travis/build\l/PO&#45;31/QtReports/qtreports\l/src/tags/group.cpp">
<polygon fill="none" stroke="black" points="1370,-156.5 1370,-197.5 1516,-197.5 1516,-156.5 1370,-156.5"/>
<text text-anchor="start" x="1378" y="-185.5" font-family="Helvetica,sans-Serif" font-size="10.00">/home/travis/build</text>
<text text-anchor="start" x="1378" y="-174.5" font-family="Helvetica,sans-Serif" font-size="10.00">/PO&#45;31/QtReports/qtreports</text>
<text text-anchor="middle" x="1443" y="-163.5" font-family="Helvetica,sans-Serif" font-size="10.00">/src/tags/group.cpp</text>
</a>
</g>
</g>
<!-- Node3&#45;&gt;Node17 -->
<g id="edge26" class="edge"><title>Node3&#45;&gt;Node17</title>
<path fill="none" stroke="midnightblue" d="M1362.6,-228.919C1378.73,-218.702 1397.1,-207.07 1412.2,-197.506"/>
<polygon fill="midnightblue" stroke="midnightblue" points="1360.48,-226.121 1353.9,-234.428 1364.22,-232.034 1360.48,-226.121"/>
</g>
<!-- Node5 -->
<g id="node5" class="node"><title>Node5</title>
<g id="a_node5"><a xlink:href="convertertohtml_8hpp.html" target="_top" xlink:title="/home/travis/build\l/PO&#45;31/QtReports/qtreports\l/src/converters/convertertohtml.hpp">
<polygon fill="none" stroke="black" points="868.5,-78.5 868.5,-119.5 1057.5,-119.5 1057.5,-78.5 868.5,-78.5"/>
<text text-anchor="start" x="876.5" y="-107.5" font-family="Helvetica,sans-Serif" font-size="10.00">/home/travis/build</text>
<text text-anchor="start" x="876.5" y="-96.5" font-family="Helvetica,sans-Serif" font-size="10.00">/PO&#45;31/QtReports/qtreports</text>
<text text-anchor="middle" x="963" y="-85.5" font-family="Helvetica,sans-Serif" font-size="10.00">/src/converters/convertertohtml.hpp</text>
</a>
</g>
</g>
<!-- Node4&#45;&gt;Node5 -->
<g id="edge4" class="edge"><title>Node4&#45;&gt;Node5</title>
<path fill="none" stroke="midnightblue" d="M963,-146.297C963,-137.301 963,-127.653 963,-119.506"/>
<polygon fill="midnightblue" stroke="midnightblue" points="959.5,-146.428 963,-156.428 966.5,-146.428 959.5,-146.428"/>
</g>
<!-- Node7 -->
<g id="node7" class="node"><title>Node7</title>
<g id="a_node7"><a xlink:href="engine_8cpp.html" target="_top" xlink:title="/home/travis/build\l/PO&#45;31/QtReports/qtreports\l/src/engine.cpp">
<polygon fill="none" stroke="black" points="981,-0.5 981,-41.5 1127,-41.5 1127,-0.5 981,-0.5"/>
<text text-anchor="start" x="989" y="-29.5" font-family="Helvetica,sans-Serif" font-size="10.00">/home/travis/build</text>
<text text-anchor="start" x="989" y="-18.5" font-family="Helvetica,sans-Serif" font-size="10.00">/PO&#45;31/QtReports/qtreports</text>
<text text-anchor="middle" x="1054" y="-7.5" font-family="Helvetica,sans-Serif" font-size="10.00">/src/engine.cpp</text>
</a>
</g>
</g>
<!-- Node4&#45;&gt;Node7 -->
<g id="edge23" class="edge"><title>Node4&#45;&gt;Node7</title>
<path fill="none" stroke="midnightblue" d="M1032.5,-151.559C1045.84,-143.601 1058.11,-133.275 1066,-120 1080.37,-95.837 1071.4,-62.4136 1063.1,-41.5112"/>
<polygon fill="midnightblue" stroke="midnightblue" points="1030.67,-148.566 1023.6,-156.454 1034.05,-154.698 1030.67,-148.566"/>
</g>
<!-- Node8 -->
<g id="node8" class="node"><title>Node8</title>
<g id="a_node8"><a xlink:href="replacer_8hpp.html" target="_top" xlink:title="/home/travis/build\l/PO&#45;31/QtReports/qtreports\l/src/converters/utils/replacer.hpp">
<polygon fill="none" stroke="black" points="254.5,-78.5 254.5,-119.5 427.5,-119.5 427.5,-78.5 254.5,-78.5"/>
<text text-anchor="start" x="262.5" y="-107.5" font-family="Helvetica,sans-Serif" font-size="10.00">/home/travis/build</text>
<text text-anchor="start" x="262.5" y="-96.5" font-family="Helvetica,sans-Serif" font-size="10.00">/PO&#45;31/QtReports/qtreports</text>
<text text-anchor="middle" x="341" y="-85.5" font-family="Helvetica,sans-Serif" font-size="10.00">/src/converters/utils/replacer.hpp</text>
</a>
</g>
</g>
<!-- Node4&#45;&gt;Node8 -->
<g id="edge7" class="edge"><title>Node4&#45;&gt;Node8</title>
<path fill="none" stroke="midnightblue" d="M879.751,-155.936C683.764,-125.221 629.703,-147.775 437,-120 433.883,-119.551 430.715,-119.062 427.519,-118.542"/>
<polygon fill="midnightblue" stroke="midnightblue" points="879.373,-159.42 889.8,-157.538 880.475,-152.508 879.373,-159.42"/>
</g>
<!-- Node12 -->
<g id="node12" class="node"><title>Node12</title>
<g id="a_node12"><a xlink:href="report_8cpp.html" target="_top" xlink:title="/home/travis/build\l/PO&#45;31/QtReports/qtreports\l/src/tags/report.cpp">
<polygon fill="none" stroke="black" points="0,-0.5 0,-41.5 146,-41.5 146,-0.5 0,-0.5"/>
<text text-anchor="start" x="8" y="-29.5" font-family="Helvetica,sans-Serif" font-size="10.00">/home/travis/build</text>
<text text-anchor="start" x="8" y="-18.5" font-family="Helvetica,sans-Serif" font-size="10.00">/PO&#45;31/QtReports/qtreports</text>
<text text-anchor="middle" x="73" y="-7.5" font-family="Helvetica,sans-Serif" font-size="10.00">/src/tags/report.cpp</text>
</a>
</g>
</g>
<!-- Node4&#45;&gt;Node12 -->
<g id="edge24" class="edge"><title>Node4&#45;&gt;Node12</title>
<path fill="none" stroke="midnightblue" d="M879.743,-155.983C598.966,-116.274 513.339,-199.264 245,-120 188.473,-103.303 130.491,-64.9953 98.3719,-41.5256"/>
<polygon fill="midnightblue" stroke="midnightblue" points="879.414,-159.472 889.814,-157.448 880.422,-152.545 879.414,-159.472"/>
</g>
<!-- Node4&#45;&gt;Node13 -->
<g id="edge13" class="edge"><title>Node4&#45;&gt;Node13</title>
<path fill="none" stroke="midnightblue" d="M900.961,-152.887C872.323,-142.219 838.694,-129.69 811.357,-119.506"/>
<polygon fill="midnightblue" stroke="midnightblue" points="899.872,-156.217 910.465,-156.428 902.316,-149.657 899.872,-156.217"/>
</g>
<!-- Node14 -->
<g id="node14" class="node"><title>Node14</title>
<g id="a_node14"><a xlink:href="convertertoqwidget_8hpp.html" target="_top" xlink:title="/home/travis/build\l/PO&#45;31/QtReports/qtreports\l/src/converters/convertertoqwidget.hpp">
<polygon fill="none" stroke="black" points="446,-78.5 446,-119.5 650,-119.5 650,-78.5 446,-78.5"/>
<text text-anchor="start" x="454" y="-107.5" font-family="Helvetica,sans-Serif" font-size="10.00">/home/travis/build</text>
<text text-anchor="start" x="454" y="-96.5" font-family="Helvetica,sans-Serif" font-size="10.00">/PO&#45;31/QtReports/qtreports</text>
<text text-anchor="middle" x="548" y="-85.5" font-family="Helvetica,sans-Serif" font-size="10.00">/src/converters/convertertoqwidget.hpp</text>
</a>
</g>
</g>
<!-- Node4&#45;&gt;Node14 -->
<g id="edge16" class="edge"><title>Node4&#45;&gt;Node14</title>
<path fill="none" stroke="midnightblue" d="M879.677,-155.803C781.317,-136.17 754.348,-136.32 659,-120 656.105,-119.504 653.168,-118.998 650.204,-118.485"/>
<polygon fill="midnightblue" stroke="midnightblue" points="879.252,-159.288 889.746,-157.832 880.634,-152.426 879.252,-159.288"/>
</g>
<!-- Node4&#45;&gt;Node15 -->
<g id="edge20" class="edge"><title>Node4&#45;&gt;Node15</title>
<path fill="none" stroke="midnightblue" d="M1032.88,-153.304C1066,-142.546 1105.18,-129.823 1136.94,-119.506"/>
<polygon fill="midnightblue" stroke="midnightblue" points="1031.69,-150.01 1023.26,-156.428 1033.85,-156.668 1031.69,-150.01"/>
</g>
<!-- Node6 -->
<g id="node6" class="node"><title>Node6</title>
<g id="a_node6"><a xlink:href="convertertohtml_8cpp.html" target="_top" xlink:title="/home/travis/build\l/PO&#45;31/QtReports/qtreports\l/src/converters/convertertohtml.cpp">
<polygon fill="none" stroke="black" points="775,-0.5 775,-41.5 963,-41.5 963,-0.5 775,-0.5"/>
<text text-anchor="start" x="783" y="-29.5" font-family="Helvetica,sans-Serif" font-size="10.00">/home/travis/build</text>
<text text-anchor="start" x="783" y="-18.5" font-family="Helvetica,sans-Serif" font-size="10.00">/PO&#45;31/QtReports/qtreports</text>
<text text-anchor="middle" x="869" y="-7.5" font-family="Helvetica,sans-Serif" font-size="10.00">/src/converters/convertertohtml.cpp</text>
</a>
</g>
</g>
<!-- Node5&#45;&gt;Node6 -->
<g id="edge5" class="edge"><title>Node5&#45;&gt;Node6</title>
<path fill="none" stroke="midnightblue" d="M930.922,-72.0648C918.545,-62.0574 904.627,-50.8045 893.125,-41.5056"/>
<polygon fill="midnightblue" stroke="midnightblue" points="928.816,-74.8626 938.793,-78.4281 933.217,-69.4191 928.816,-74.8626"/>
</g>
<!-- Node5&#45;&gt;Node7 -->
<g id="edge6" class="edge"><title>Node5&#45;&gt;Node7</title>
<path fill="none" stroke="midnightblue" d="M994.397,-71.7785C1006.29,-61.8432 1019.62,-50.7159 1030.64,-41.5056"/>
<polygon fill="midnightblue" stroke="midnightblue" points="991.867,-69.3316 986.435,-78.4281 996.354,-74.7043 991.867,-69.3316"/>
</g>
<!-- Node8&#45;&gt;Node6 -->
<g id="edge8" class="edge"><title>Node8&#45;&gt;Node6</title>
<path fill="none" stroke="midnightblue" d="M437.761,-77.9679C583.609,-55.4002 623.243,-63.3742 765,-42 768.273,-41.5066 771.599,-40.9836 774.956,-40.4378"/>
<polygon fill="midnightblue" stroke="midnightblue" points="436.873,-74.5643 427.537,-79.5726 437.958,-81.4797 436.873,-74.5643"/>
</g>
<!-- Node9 -->
<g id="node9" class="node"><title>Node9</title>
<g id="a_node9"><a xlink:href="convertertopdf_8cpp.html" target="_top" xlink:title="/home/travis/build\l/PO&#45;31/QtReports/qtreports\l/src/converters/convertertopdf.cpp">
<polygon fill="none" stroke="black" points="575.5,-0.5 575.5,-41.5 756.5,-41.5 756.5,-0.5 575.5,-0.5"/>
<text text-anchor="start" x="583.5" y="-29.5" font-family="Helvetica,sans-Serif" font-size="10.00">/home/travis/build</text>
<text text-anchor="start" x="583.5" y="-18.5" font-family="Helvetica,sans-Serif" font-size="10.00">/PO&#45;31/QtReports/qtreports</text>
<text text-anchor="middle" x="666" y="-7.5" font-family="Helvetica,sans-Serif" font-size="10.00">/src/converters/convertertopdf.cpp</text>
</a>
</g>
</g>
<!-- Node8&#45;&gt;Node9 -->
<g id="edge9" class="edge"><title>Node8&#45;&gt;Node9</title>
<path fill="none" stroke="midnightblue" d="M434.519,-76.131C481.252,-65.2026 537.332,-52.0886 582.588,-41.5056"/>
<polygon fill="midnightblue" stroke="midnightblue" points="433.636,-72.7429 424.696,-78.4281 435.23,-79.5591 433.636,-72.7429"/>
</g>
<!-- Node10 -->
<g id="node10" class="node"><title>Node10</title>
<g id="a_node10"><a xlink:href="convertertoqwidget_8cpp.html" target="_top" xlink:title="/home/travis/build\l/PO&#45;31/QtReports/qtreports\l/src/converters/convertertoqwidget.cpp">
<polygon fill="none" stroke="black" points="354.5,-0.5 354.5,-41.5 557.5,-41.5 557.5,-0.5 354.5,-0.5"/>
<text text-anchor="start" x="362.5" y="-29.5" font-family="Helvetica,sans-Serif" font-size="10.00">/home/travis/build</text>
<text text-anchor="start" x="362.5" y="-18.5" font-family="Helvetica,sans-Serif" font-size="10.00">/PO&#45;31/QtReports/qtreports</text>
<text text-anchor="middle" x="456" y="-7.5" font-family="Helvetica,sans-Serif" font-size="10.00">/src/converters/convertertoqwidget.cpp</text>
</a>
</g>
</g>
<!-- Node8&#45;&gt;Node10 -->
<g id="edge10" class="edge"><title>Node8&#45;&gt;Node10</title>
<path fill="none" stroke="midnightblue" d="M379.381,-72.6352C394.737,-62.4868 412.146,-50.9816 426.485,-41.5056"/>
<polygon fill="midnightblue" stroke="midnightblue" points="377.028,-69.9946 370.615,-78.4281 380.888,-75.8346 377.028,-69.9946"/>
</g>
<!-- Node11 -->
<g id="node11" class="node"><title>Node11</title>
<g id="a_node11"><a xlink:href="replacer_8cpp.html" target="_top" xlink:title="/home/travis/build\l/PO&#45;31/QtReports/qtreports\l/src/converters/utils/replacer.cpp">
<polygon fill="none" stroke="black" points="164,-0.5 164,-41.5 336,-41.5 336,-0.5 164,-0.5"/>
<text text-anchor="start" x="172" y="-29.5" font-family="Helvetica,sans-Serif" font-size="10.00">/home/travis/build</text>
<text text-anchor="start" x="172" y="-18.5" font-family="Helvetica,sans-Serif" font-size="10.00">/PO&#45;31/QtReports/qtreports</text>
<text text-anchor="middle" x="250" y="-7.5" font-family="Helvetica,sans-Serif" font-size="10.00">/src/converters/utils/replacer.cpp</text>
</a>
</g>
</g>
<!-- Node8&#45;&gt;Node11 -->
<g id="edge11" class="edge"><title>Node8&#45;&gt;Node11</title>
<path fill="none" stroke="midnightblue" d="M309.603,-71.7785C297.707,-61.8432 284.384,-50.7159 273.355,-41.5056"/>
<polygon fill="midnightblue" stroke="midnightblue" points="307.646,-74.7043 317.565,-78.4281 312.133,-69.3316 307.646,-74.7043"/>
</g>
<!-- Node8&#45;&gt;Node12 -->
<g id="edge12" class="edge"><title>Node8&#45;&gt;Node12</title>
<path fill="none" stroke="midnightblue" d="M261.942,-75.5805C223.801,-64.7644 178.477,-51.9115 141.783,-41.5056"/>
<polygon fill="midnightblue" stroke="midnightblue" points="261.408,-79.067 271.983,-78.4281 263.318,-72.3326 261.408,-79.067"/>
</g>
<!-- Node13&#45;&gt;Node7 -->
<g id="edge15" class="edge"><title>Node13&#45;&gt;Node7</title>
<path fill="none" stroke="midnightblue" d="M844.877,-75.8756C887.98,-64.7713 939.642,-51.4617 980.833,-40.8498"/>
<polygon fill="midnightblue" stroke="midnightblue" points="843.78,-72.5439 834.97,-78.4281 845.527,-79.3226 843.78,-72.5439"/>
</g>
<!-- Node13&#45;&gt;Node9 -->
<g id="edge14" class="edge"><title>Node13&#45;&gt;Node9</title>
<path fill="none" stroke="midnightblue" d="M727.263,-72.0648C715.018,-62.0574 701.248,-50.8045 689.869,-41.5056"/>
<polygon fill="midnightblue" stroke="midnightblue" points="725.092,-74.8104 735.05,-78.4281 729.522,-69.3901 725.092,-74.8104"/>
</g>
<!-- Node14&#45;&gt;Node7 -->
<g id="edge19" class="edge"><title>Node14&#45;&gt;Node7</title>
<path fill="none" stroke="midnightblue" d="M660.357,-77.8568C799.303,-57.9807 837.387,-66.0607 972,-42 974.885,-41.4843 977.82,-40.9272 980.779,-40.3382"/>
<polygon fill="midnightblue" stroke="midnightblue" points="659.568,-74.4346 650.176,-79.3371 660.575,-81.3618 659.568,-74.4346"/>
</g>
<!-- Node14&#45;&gt;Node9 -->
<g id="edge17" class="edge"><title>Node14&#45;&gt;Node9</title>
<path fill="none" stroke="midnightblue" d="M586.941,-72.9194C602.805,-62.702 620.865,-51.0701 635.715,-41.5056"/>
<polygon fill="midnightblue" stroke="midnightblue" points="584.9,-70.0708 578.388,-78.4281 588.69,-75.9558 584.9,-70.0708"/>
</g>
<!-- Node14&#45;&gt;Node10 -->
<g id="edge18" class="edge"><title>Node14&#45;&gt;Node10</title>
<path fill="none" stroke="midnightblue" d="M516.258,-71.7785C504.231,-61.8432 490.761,-50.7159 479.612,-41.5056"/>
<polygon fill="midnightblue" stroke="midnightblue" points="514.369,-74.7576 524.308,-78.4281 518.827,-69.3609 514.369,-74.7576"/>
</g>
<!-- Node15&#45;&gt;Node7 -->
<g id="edge21" class="edge"><title>Node15&#45;&gt;Node7</title>
<path fill="none" stroke="midnightblue" d="M1151.14,-73.6266C1131.6,-63.2416 1109.11,-51.2915 1090.7,-41.5056"/>
<polygon fill="midnightblue" stroke="midnightblue" points="1149.7,-76.8256 1160.17,-78.4281 1152.99,-70.6444 1149.7,-76.8256"/>
</g>
<!-- Node16 -->
<g id="node16" class="node"><title>Node16</title>
<g id="a_node16"><a xlink:href="parserfromxml_8cpp.html" target="_top" xlink:title="/home/travis/build\l/PO&#45;31/QtReports/qtreports\l/src/parsers/parserfromxml.cpp">
<polygon fill="none" stroke="black" points="1145.5,-0.5 1145.5,-41.5 1312.5,-41.5 1312.5,-0.5 1145.5,-0.5"/>
<text text-anchor="start" x="1153.5" y="-29.5" font-family="Helvetica,sans-Serif" font-size="10.00">/home/travis/build</text>
<text text-anchor="start" x="1153.5" y="-18.5" font-family="Helvetica,sans-Serif" font-size="10.00">/PO&#45;31/QtReports/qtreports</text>
<text text-anchor="middle" x="1229" y="-7.5" font-family="Helvetica,sans-Serif" font-size="10.00">/src/parsers/parserfromxml.cpp</text>
</a>
</g>
</g>
<!-- Node15&#45;&gt;Node16 -->
<g id="edge22" class="edge"><title>Node15&#45;&gt;Node16</title>
<path fill="none" stroke="midnightblue" d="M1209.14,-69.1744C1213.03,-59.9317 1217.24,-49.9188 1220.79,-41.5056"/>
<polygon fill="midnightblue" stroke="midnightblue" points="1205.9,-67.8535 1205.24,-78.4281 1212.35,-70.57 1205.9,-67.8535"/>
</g>
<!-- Node18&#45;&gt;Node4 -->
<g id="edge28" class="edge"><title>Node18&#45;&gt;Node4</title>
<path fill="none" stroke="midnightblue" d="M859.867,-229.908C880.629,-219.458 904.626,-207.38 924.246,-197.506"/>
<polygon fill="midnightblue" stroke="midnightblue" points="858.245,-226.806 850.886,-234.428 861.392,-233.059 858.245,-226.806"/>
</g>
<!-- Node18&#45;&gt;Node15 -->
<g id="edge29" class="edge"><title>Node18&#45;&gt;Node15</title>
<path fill="none" stroke="midnightblue" d="M895.228,-233.844C963.455,-219.277 989.505,-233.526 1045,-198 1064.99,-185.201 1059.43,-170.785 1078,-156 1096.94,-140.926 1120.59,-128.734 1141.81,-119.622"/>
<polygon fill="midnightblue" stroke="midnightblue" points="894.288,-230.468 885.313,-236.099 895.84,-237.294 894.288,-230.468"/>
</g>
<!-- Node19 -->
<g id="node19" class="node"><title>Node19</title>
<g id="a_node19"><a xlink:href="title_8cpp.html" target="_top" xlink:title="/home/travis/build\l/PO&#45;31/QtReports/qtreports\l/src/tags/title.cpp">
<polygon fill="none" stroke="black" points="562,-156.5 562,-197.5 708,-197.5 708,-156.5 562,-156.5"/>
<text text-anchor="start" x="570" y="-185.5" font-family="Helvetica,sans-Serif" font-size="10.00">/home/travis/build</text>
<text text-anchor="start" x="570" y="-174.5" font-family="Helvetica,sans-Serif" font-size="10.00">/PO&#45;31/QtReports/qtreports</text>
<text text-anchor="middle" x="635" y="-163.5" font-family="Helvetica,sans-Serif" font-size="10.00">/src/tags/title.cpp</text>
</a>
</g>
</g>
<!-- Node18&#45;&gt;Node19 -->
<g id="edge30" class="edge"><title>Node18&#45;&gt;Node19</title>
<path fill="none" stroke="midnightblue" d="M757.197,-230.469C732.565,-219.892 703.837,-207.557 680.427,-197.506"/>
<polygon fill="midnightblue" stroke="midnightblue" points="755.848,-233.699 766.418,-234.428 758.61,-227.267 755.848,-233.699"/>
</g>
<!-- Node20&#45;&gt;Node4 -->
<g id="edge32" class="edge"><title>Node20&#45;&gt;Node4</title>
<path fill="none" stroke="midnightblue" d="M970.919,-224.297C969.38,-215.301 967.73,-205.653 966.336,-197.506"/>
<polygon fill="midnightblue" stroke="midnightblue" points="967.516,-225.161 972.652,-234.428 974.416,-223.981 967.516,-225.161"/>
</g>
<!-- Node20&#45;&gt;Node15 -->
<g id="edge33" class="edge"><title>Node20&#45;&gt;Node15</title>
<path fill="none" stroke="midnightblue" d="M1025.06,-229.461C1042.22,-220.259 1061.35,-209.282 1078,-198 1114.12,-173.53 1152.48,-140.49 1175.59,-119.715"/>
<polygon fill="midnightblue" stroke="midnightblue" points="1022.96,-226.612 1015.76,-234.382 1026.24,-232.8 1022.96,-226.612"/>
</g>
<!-- Node21 -->
<g id="node21" class="node"><title>Node21</title>
<g id="a_node21"><a xlink:href="detail_8cpp.html" target="_top" xlink:title="/home/travis/build\l/PO&#45;31/QtReports/qtreports\l/src/tags/detail.cpp">
<polygon fill="none" stroke="black" points="726,-156.5 726,-197.5 872,-197.5 872,-156.5 726,-156.5"/>
<text text-anchor="start" x="734" y="-185.5" font-family="Helvetica,sans-Serif" font-size="10.00">/home/travis/build</text>
<text text-anchor="start" x="734" y="-174.5" font-family="Helvetica,sans-Serif" font-size="10.00">/PO&#45;31/QtReports/qtreports</text>
<text text-anchor="middle" x="799" y="-163.5" font-family="Helvetica,sans-Serif" font-size="10.00">/src/tags/detail.cpp</text>
</a>
</g>
</g>
<!-- Node20&#45;&gt;Node21 -->
<g id="edge34" class="edge"><title>Node20&#45;&gt;Node21</title>
<path fill="none" stroke="midnightblue" d="M921.197,-230.469C896.565,-219.892 867.837,-207.557 844.427,-197.506"/>
<polygon fill="midnightblue" stroke="midnightblue" points="919.848,-233.699 930.418,-234.428 922.61,-227.267 919.848,-233.699"/>
</g>
<!-- Node22&#45;&gt;Node4 -->
<g id="edge36" class="edge"><title>Node22&#45;&gt;Node4</title>
<path fill="none" stroke="midnightblue" d="M1085.2,-230.469C1060.56,-219.892 1031.84,-207.557 1008.43,-197.506"/>
<polygon fill="midnightblue" stroke="midnightblue" points="1083.85,-233.699 1094.42,-234.428 1086.61,-227.267 1083.85,-233.699"/>
</g>
<!-- Node22&#45;&gt;Node15 -->
<g id="edge37" class="edge"><title>Node22&#45;&gt;Node15</title>
<path fill="none" stroke="midnightblue" d="M1142.62,-224.142C1145.12,-204.246 1149.92,-177.841 1159,-156 1164.41,-142.98 1173.1,-129.862 1180.8,-119.598"/>
<polygon fill="midnightblue" stroke="midnightblue" points="1139.13,-223.843 1141.48,-234.174 1146.09,-224.633 1139.13,-223.843"/>
</g>
<!-- Node23 -->
<g id="node23" class="node"><title>Node23</title>
<g id="a_node23"><a xlink:href="summary_8cpp.html" target="_top" xlink:title="/home/travis/build\l/PO&#45;31/QtReports/qtreports\l/src/tags/summary.cpp">
<polygon fill="none" stroke="black" points="1168,-156.5 1168,-197.5 1314,-197.5 1314,-156.5 1168,-156.5"/>
<text text-anchor="start" x="1176" y="-185.5" font-family="Helvetica,sans-Serif" font-size="10.00">/home/travis/build</text>
<text text-anchor="start" x="1176" y="-174.5" font-family="Helvetica,sans-Serif" font-size="10.00">/PO&#45;31/QtReports/qtreports</text>
<text text-anchor="middle" x="1241" y="-163.5" font-family="Helvetica,sans-Serif" font-size="10.00">/src/tags/summary.cpp</text>
</a>
</g>
</g>
<!-- Node22&#45;&gt;Node23 -->
<g id="edge38" class="edge"><title>Node22&#45;&gt;Node23</title>
<path fill="none" stroke="midnightblue" d="M1174.09,-228.35C1187.48,-218.272 1202.6,-206.893 1215.08,-197.506"/>
<polygon fill="midnightblue" stroke="midnightblue" points="1171.9,-225.619 1166.01,-234.428 1176.1,-231.212 1171.9,-225.619"/>
</g>
</g>
</svg>
        <g id="navigator" transform="translate(0 0)" fill="#404254">
                <rect fill="#f2f5e9" fill-opacity="0.5" stroke="#606060" stroke-width=".5" x="0" y="0" width="60" height="60"/>
                <use id="zoomplus" xlink:href="#zoomPlus" x="17" y="9" onmousedown="handleZoom(evt,'in')"/>
                <use id="zoomminus" xlink:href="#zoomMin" x="42" y="9" onmousedown="handleZoom(evt,'out')"/>
                <use id="reset" xlink:href="#resetDef" x="30" y="36" onmousedown="handleReset()"/>
                <g id="arrowUp" xlink:href="#dirArrow" transform="translate(30 24)" onmousedown="handlePan(0,-1)">
                  <use xlink:href="#rim" fill="#404040">
                        <set attributeName="fill" to="#808080" begin="arrowUp.mouseover" end="arrowUp.mouseout"/>
                  </use>
                  <path fill="none" stroke="white" stroke-width="1.5" d="M0,-3.0v7 M-2.5,-0.5L0,-3.0L2.5,-0.5"/>
                </g>
                <g id="arrowRight" xlink:href="#dirArrow" transform="rotate(90) translate(36 -43)" onmousedown="handlePan(1,0)">
                  <use xlink:href="#rim" fill="#404040">
                        <set attributeName="fill" to="#808080" begin="arrowRight.mouseover" end="arrowRight.mouseout"/>
                  </use>
                  <path fill="none" stroke="white" stroke-width="1.5" d="M0,-3.0v7 M-2.5,-0.5L0,-3.0L2.5,-0.5"/>
                </g>
                <g id="arrowDown" xlink:href="#dirArrow" transform="rotate(180) translate(-30 -48)" onmousedown="handlePan(0,1)">
                  <use xlink:href="#rim" fill="#404040">
                        <set attributeName="fill" to="#808080" begin="arrowDown.mouseover" end="arrowDown.mouseout"/>
                  </use>
                  <path fill="none" stroke="white" stroke-width="1.5" d="M0,-3.0v7 M-2.5,-0.5L0,-3.0L2.5,-0.5"/>
                </g>
                <g id="arrowLeft" xlink:href="#dirArrow" transform="rotate(270) translate(-36 17)" onmousedown="handlePan(-1,0)">
                  <use xlink:href="#rim" fill="#404040">
                        <set attributeName="fill" to="#808080" begin="arrowLeft.mouseover" end="arrowLeft.mouseout"/>
                  </use>
                  <path fill="none" stroke="white" stroke-width="1.5" d="M0,-3.0v7 M-2.5,-0.5L0,-3.0L2.5,-0.5"/>
                </g>
        </g>
        <svg viewBox="0 0 15 15" width="100%" height="30px" preserveAspectRatio="xMaxYMin meet">
         <g id="arrow_out" transform="scale(0.3 0.3)">
          <a xlink:href="band_8hpp__dep__incl_org.svg" target="_base">
           <rect id="button" ry="5" rx="5" y="6" x="6" height="38" width="38"
                fill="#f2f5e9" fill-opacity="0.5" stroke="#606060" stroke-width="1.0"/>
           <path id="arrow"
             d="M 11.500037,31.436501 C 11.940474,20.09759 22.043105,11.32322 32.158766,21.979434 L 37.068811,17.246167 C 37.068811,17.246167 37.088388,32 37.088388,32 L 22.160133,31.978069 C 22.160133,31.978069 26.997745,27.140456 26.997745,27.140456 C 18.528582,18.264221 13.291696,25.230495 11.500037,31.436501 z"
             style="fill:#404040;"/>
          </a>
         </g>
        </svg>
</svg>
