<?xml version="1.0" encoding="UTF-8" standalone="no"?>
<!DOCTYPE svg PUBLIC "-//W3C//DTD SVG 1.1//EN"
 "http://www.w3.org/Graphics/SVG/1.1/DTD/svg11.dtd">
<!-- Generated by graphviz version 2.38.0 (20140413.2041)
 -->
<!-- Title: qtreports::Engine::setConnection Pages: 1 -->
<svg width="824pt" height="39pt"
 viewBox="0.00 0.00 824.00 39.00" xmlns="http://www.w3.org/2000/svg" xmlns:xlink="http://www.w3.org/1999/xlink">
<g id="graph0" class="graph" transform="scale(1 1) rotate(0) translate(4 35)">
<title>qtreports::Engine::setConnection</title>
<!-- Node1 -->
<g id="node1" class="node"><title>Node1</title>
<polygon fill="#bfbfbf" stroke="black" points="0,-0.5 0,-30.5 105,-30.5 105,-0.5 0,-0.5"/>
<text text-anchor="start" x="8" y="-18.5" font-family="Helvetica,sans-Serif" font-size="10.00">qtreports::Engine::</text>
<text text-anchor="middle" x="52.5" y="-7.5" font-family="Helvetica,sans-Serif" font-size="10.00">setConnection</text>
</g>
<!-- Node2 -->
<g id="node2" class="node"><title>Node2</title>
<g id="a_node2"><a xlink:href="classqtreports_1_1_engine.html#a3dda769530e3713bba33c49124ad1ab6" target="_top" xlink:title="qtreports::Engine::\lprepareDB">
<polygon fill="none" stroke="black" points="141,-0.5 141,-30.5 246,-30.5 246,-0.5 141,-0.5"/>
<text text-anchor="start" x="149" y="-18.5" font-family="Helvetica,sans-Serif" font-size="10.00">qtreports::Engine::</text>
<text text-anchor="middle" x="193.5" y="-7.5" font-family="Helvetica,sans-Serif" font-size="10.00">prepareDB</text>
</a>
</g>
</g>
<!-- Node1&#45;&gt;Node2 -->
<g id="edge1" class="edge"><title>Node1&#45;&gt;Node2</title>
<path fill="none" stroke="midnightblue" d="M105.258,-15.5C113.49,-15.5 122.077,-15.5 130.514,-15.5"/>
<polygon fill="midnightblue" stroke="midnightblue" points="130.698,-19.0001 140.698,-15.5 130.698,-12.0001 130.698,-19.0001"/>
</g>
<!-- Node3 -->
<g id="node3" class="node"><title>Node3</title>
<g id="a_node3"><a xlink:href="classqtreports_1_1_engine.html#a0c7bf107b4774cccb70577946d67666c" target="_top" xlink:title="qtreports::Engine::\lsetQuery">
<polygon fill="none" stroke="black" points="282,-0.5 282,-30.5 387,-30.5 387,-0.5 282,-0.5"/>
<text text-anchor="start" x="290" y="-18.5" font-family="Helvetica,sans-Serif" font-size="10.00">qtreports::Engine::</text>
<text text-anchor="middle" x="334.5" y="-7.5" font-family="Helvetica,sans-Serif" font-size="10.00">setQuery</text>
</a>
</g>
</g>
<!-- Node2&#45;&gt;Node3 -->
<g id="edge2" class="edge"><title>Node2&#45;&gt;Node3</title>
<path fill="none" stroke="midnightblue" d="M246.258,-15.5C254.49,-15.5 263.077,-15.5 271.514,-15.5"/>
<polygon fill="midnightblue" stroke="midnightblue" points="271.698,-19.0001 281.698,-15.5 271.698,-12.0001 271.698,-19.0001"/>
</g>
<!-- Node4 -->
<g id="node4" class="node"><title>Node4</title>
<g id="a_node4"><a xlink:href="classqtreports_1_1_engine.html#ac214aea9f2f2b795307550290fa1d1ae" target="_top" xlink:title="qtreports::Engine::\lexecuteQueries">
<polygon fill="none" stroke="black" points="423,-0.5 423,-30.5 528,-30.5 528,-0.5 423,-0.5"/>
<text text-anchor="start" x="431" y="-18.5" font-family="Helvetica,sans-Serif" font-size="10.00">qtreports::Engine::</text>
<text text-anchor="middle" x="475.5" y="-7.5" font-family="Helvetica,sans-Serif" font-size="10.00">executeQueries</text>
</a>
</g>
</g>
<!-- Node3&#45;&gt;Node4 -->
<g id="edge3" class="edge"><title>Node3&#45;&gt;Node4</title>
<path fill="none" stroke="midnightblue" d="M387.258,-15.5C395.49,-15.5 404.077,-15.5 412.514,-15.5"/>
<polygon fill="midnightblue" stroke="midnightblue" points="412.698,-19.0001 422.698,-15.5 412.698,-12.0001 412.698,-19.0001"/>
</g>
<!-- Node5 -->
<g id="node5" class="node"><title>Node5</title>
<g id="a_node5"><a xlink:href="classqtreports_1_1_engine.html#a1d96729622d140d02108a29034aecea0" target="_top" xlink:title="qtreports::Engine::\lprepareDataSource">
<polygon fill="none" stroke="black" points="564,-0.5 564,-30.5 675,-30.5 675,-0.5 564,-0.5"/>
<text text-anchor="start" x="572" y="-18.5" font-family="Helvetica,sans-Serif" font-size="10.00">qtreports::Engine::</text>
<text text-anchor="middle" x="619.5" y="-7.5" font-family="Helvetica,sans-Serif" font-size="10.00">prepareDataSource</text>
</a>
</g>
</g>
<!-- Node4&#45;&gt;Node5 -->
<g id="edge4" class="edge"><title>Node4&#45;&gt;Node5</title>
<path fill="none" stroke="midnightblue" d="M528.167,-15.5C536.398,-15.5 545.004,-15.5 553.495,-15.5"/>
<polygon fill="midnightblue" stroke="midnightblue" points="553.763,-19.0001 563.763,-15.5 553.763,-12.0001 553.763,-19.0001"/>
</g>
<!-- Node6 -->
<g id="node6" class="node"><title>Node6</title>
<g id="a_node6"><a xlink:href="classqtreports_1_1_engine.html#ad6379f091871349d33f9a59e982160c4" target="_top" xlink:title="qtreports::Engine::\lgetReport">
<polygon fill="none" stroke="black" points="711,-0.5 711,-30.5 816,-30.5 816,-0.5 711,-0.5"/>
<text text-anchor="start" x="719" y="-18.5" font-family="Helvetica,sans-Serif" font-size="10.00">qtreports::Engine::</text>
<text text-anchor="middle" x="763.5" y="-7.5" font-family="Helvetica,sans-Serif" font-size="10.00">getReport</text>
</a>
</g>
</g>
<!-- Node5&#45;&gt;Node6 -->
<g id="edge5" class="edge"><title>Node5&#45;&gt;Node6</title>
<path fill="none" stroke="midnightblue" d="M675.401,-15.5C683.613,-15.5 692.128,-15.5 700.475,-15.5"/>
<polygon fill="midnightblue" stroke="midnightblue" points="700.541,-19.0001 710.541,-15.5 700.541,-12.0001 700.541,-19.0001"/>
</g>
</g>
</svg>
