<?xml version="1.0" encoding="UTF-8" standalone="no"?>
<!DOCTYPE svg PUBLIC "-//W3C//DTD SVG 1.1//EN"
 "http://www.w3.org/Graphics/SVG/1.1/DTD/svg11.dtd">
<!-- Generated by graphviz version 2.38.0 (20140413.2041)
 -->
<!-- Title: qtreports::detail::Replacer::replaceParameters Pages: 1 -->
<svg width="732pt" height="50pt"
 viewBox="0.00 0.00 732.00 50.00" xmlns="http://www.w3.org/2000/svg" xmlns:xlink="http://www.w3.org/1999/xlink">
<g id="graph0" class="graph" transform="scale(1 1) rotate(0) translate(4 46)">
<title>qtreports::detail::Replacer::replaceParameters</title>
<!-- Node1 -->
<g id="node1" class="node"><title>Node1</title>
<polygon fill="#bfbfbf" stroke="black" points="0,-6 0,-36 154,-36 154,-6 0,-6"/>
<text text-anchor="start" x="8" y="-24" font-family="Helvetica,sans-Serif" font-size="10.00">qtreports::detail::</text>
<text text-anchor="middle" x="77" y="-13" font-family="Helvetica,sans-Serif" font-size="10.00">Replacer::replaceParameters</text>
</g>
<!-- Node2 -->
<g id="node2" class="node"><title>Node2</title>
<g id="a_node2"><a xlink:href="classqtreports_1_1detail_1_1_replacer.html#a626052332a0425d71f1f754824dc97dd" target="_top" xlink:title="qtreports::detail::\lReplacer::replaceParameters\lInSection">
<polygon fill="none" stroke="black" points="190,-0.5 190,-41.5 344,-41.5 344,-0.5 190,-0.5"/>
<text text-anchor="start" x="198" y="-29.5" font-family="Helvetica,sans-Serif" font-size="10.00">qtreports::detail::</text>
<text text-anchor="start" x="198" y="-18.5" font-family="Helvetica,sans-Serif" font-size="10.00">Replacer::replaceParameters</text>
<text text-anchor="middle" x="267" y="-7.5" font-family="Helvetica,sans-Serif" font-size="10.00">InSection</text>
</a>
</g>
</g>
<!-- Node1&#45;&gt;Node2 -->
<g id="edge1" class="edge"><title>Node1&#45;&gt;Node2</title>
<path fill="none" stroke="midnightblue" d="M154.196,-21C162.517,-21 171.032,-21 179.466,-21"/>
<polygon fill="midnightblue" stroke="midnightblue" points="179.696,-24.5001 189.696,-21 179.696,-17.5001 179.696,-24.5001"/>
</g>
<!-- Node3 -->
<g id="node3" class="node"><title>Node3</title>
<g id="a_node3"><a xlink:href="classqtreports_1_1detail_1_1_replacer.html#add3b6a2869033620c4618669870c26f8" target="_top" xlink:title="qtreports::detail::\lReplacer::replaceParameters\lInTextWidget">
<polygon fill="none" stroke="black" points="380,-0.5 380,-41.5 534,-41.5 534,-0.5 380,-0.5"/>
<text text-anchor="start" x="388" y="-29.5" font-family="Helvetica,sans-Serif" font-size="10.00">qtreports::detail::</text>
<text text-anchor="start" x="388" y="-18.5" font-family="Helvetica,sans-Serif" font-size="10.00">Replacer::replaceParameters</text>
<text text-anchor="middle" x="457" y="-7.5" font-family="Helvetica,sans-Serif" font-size="10.00">InTextWidget</text>
</a>
</g>
</g>
<!-- Node2&#45;&gt;Node3 -->
<g id="edge2" class="edge"><title>Node2&#45;&gt;Node3</title>
<path fill="none" stroke="midnightblue" d="M344.196,-21C352.517,-21 361.032,-21 369.466,-21"/>
<polygon fill="midnightblue" stroke="midnightblue" points="369.696,-24.5001 379.696,-21 369.696,-17.5001 369.696,-24.5001"/>
</g>
<!-- Node4 -->
<g id="node4" class="node"><title>Node4</title>
<g id="a_node4"><a xlink:href="classqtreports_1_1detail_1_1_replacer.html#abb903f1c1172efa7e26b040a5695cc86" target="_top" xlink:title="qtreports::detail::\lReplacer::replaceParameters">
<polygon fill="none" stroke="black" points="570,-6 570,-36 724,-36 724,-6 570,-6"/>
<text text-anchor="start" x="578" y="-24" font-family="Helvetica,sans-Serif" font-size="10.00">qtreports::detail::</text>
<text text-anchor="middle" x="647" y="-13" font-family="Helvetica,sans-Serif" font-size="10.00">Replacer::replaceParameters</text>
</a>
</g>
</g>
<!-- Node3&#45;&gt;Node4 -->
<g id="edge3" class="edge"><title>Node3&#45;&gt;Node4</title>
<path fill="none" stroke="midnightblue" d="M534.196,-21C542.517,-21 551.032,-21 559.466,-21"/>
<polygon fill="midnightblue" stroke="midnightblue" points="559.696,-24.5001 569.696,-21 559.696,-17.5001 559.696,-24.5001"/>
</g>
</g>
</svg>
