<?xml version="1.0" encoding="UTF-8" standalone="no"?>
<!DOCTYPE svg PUBLIC "-//W3C//DTD SVG 1.1//EN"
 "http://www.w3.org/Graphics/SVG/1.1/DTD/svg11.dtd">
<!-- Generated by graphviz version 2.38.0 (20140413.2041)
 -->
<!-- Title: qtreports::detail::ParserFromXML::parseReportElement Pages: 1 -->
<!--zoomable 159 -->
<svg id="main" version="1.1" xmlns="http://www.w3.org/2000/svg" xmlns:xlink="http://www.w3.org/1999/xlink" xml:space="preserve" onload="init(evt)">
<style type="text/css"><![CDATA[
.edge:hover path { stroke: red; }
.edge:hover polygon { stroke: red; fill: red; }
]]></style>
<script type="text/javascript"><![CDATA[
var edges = document.getElementsByTagName('g');
if (edges && edges.length) {
  for (var i=0;i<edges.length;i++) {
    if (edges[i].id.substr(0,4)=='edge') {
      edges[i].setAttribute('class','edge');
    }
  }
}
]]></script>
        <defs>
                <circle id="rim" cx="0" cy="0" r="7"/>
                <circle id="rim2" cx="0" cy="0" r="3.5"/>
                <g id="zoomPlus">
                        <use xlink:href="#rim" fill="#404040">
                                <set attributeName="fill" to="#808080" begin="zoomplus.mouseover" end="zoomplus.mouseout"/>
                        </use>
                        <path d="M-4,0h8M0,-4v8" fill="none" stroke="white" stroke-width="1.5" pointer-events="none"/>
                </g>
                <g id="zoomMin">
                        <use xlink:href="#rim" fill="#404040">
                                <set attributeName="fill" to="#808080" begin="zoomminus.mouseover" end="zoomminus.mouseout"/>
                        </use>
                        <path d="M-4,0h8" fill="none" stroke="white" stroke-width="1.5" pointer-events="none"/>
                </g>
                <g id="dirArrow">
                        <path fill="none" stroke="white" stroke-width="1.5" d="M0,-3.0v7 M-2.5,-0.5L0,-3.0L2.5,-0.5"/>
                </g>
               <g id="resetDef">
                       <use xlink:href="#rim2" fill="#404040">
                               <set attributeName="fill" to="#808080" begin="reset.mouseover" end="reset.mouseout"/>
                       </use>
               </g>
        </defs>

<script type="text/javascript">
var viewWidth = 564;
var viewHeight = 159;
var sectionId = 'dynsection-62';
</script>
<script xlink:href="svgpan.js"/>
<svg id="graph" class="graph">
<g id="viewport">
<title>qtreports::detail::ParserFromXML::parseReportElement</title>
<!-- Node1 -->
<g id="node1" class="node"><title>Node1</title>
<polygon fill="#bfbfbf" stroke="black" points="0,-49 0,-90 154,-90 154,-49 0,-49"/>
<text text-anchor="start" x="8" y="-78" font-family="Helvetica,sans-Serif" font-size="10.00">qtreports::detail::</text>
<text text-anchor="start" x="8" y="-67" font-family="Helvetica,sans-Serif" font-size="10.00">ParserFromXML::parseReport</text>
<text text-anchor="middle" x="77" y="-56" font-family="Helvetica,sans-Serif" font-size="10.00">Element</text>
</g>
<!-- Node2 -->
<g id="node2" class="node"><title>Node2</title>
<g id="a_node2"><a xlink:href="classqtreports_1_1detail_1_1_parser_from_x_m_l.html#ab1cbf7385fa2d56c5e8526bf97cda9b1" target="_top" xlink:title="qtreports::detail::\lParserFromXML::getRequired\lAttribute">
<polygon fill="none" stroke="black" points="201.5,-109 201.5,-150 354.5,-150 354.5,-109 201.5,-109"/>
<text text-anchor="start" x="209.5" y="-138" font-family="Helvetica,sans-Serif" font-size="10.00">qtreports::detail::</text>
<text text-anchor="start" x="209.5" y="-127" font-family="Helvetica,sans-Serif" font-size="10.00">ParserFromXML::getRequired</text>
<text text-anchor="middle" x="278" y="-116" font-family="Helvetica,sans-Serif" font-size="10.00">Attribute</text>
</a>
</g>
</g>
<!-- Node1&#45;&gt;Node2 -->
<g id="edge1" class="edge"><title>Node1&#45;&gt;Node2</title>
<path fill="none" stroke="midnightblue" d="M146.206,-90.0647C163.294,-95.2168 181.753,-100.782 199.266,-106.063"/>
<polygon fill="midnightblue" stroke="midnightblue" points="198.298,-109.426 208.883,-108.962 200.319,-102.724 198.298,-109.426"/>
</g>
<!-- Node4 -->
<g id="node4" class="node"><title>Node4</title>
<g id="a_node4"><a xlink:href="classqtreports_1_1detail_1_1_parser_from_x_m_l.html#a478329a44761310039078ee6871a355d" target="_top" xlink:title="qtreports::detail::\lParserFromXML::getOptional\lAttribute">
<polygon fill="none" stroke="black" points="202,-49 202,-90 354,-90 354,-49 202,-49"/>
<text text-anchor="start" x="210" y="-78" font-family="Helvetica,sans-Serif" font-size="10.00">qtreports::detail::</text>
<text text-anchor="start" x="210" y="-67" font-family="Helvetica,sans-Serif" font-size="10.00">ParserFromXML::getOptional</text>
<text text-anchor="middle" x="278" y="-56" font-family="Helvetica,sans-Serif" font-size="10.00">Attribute</text>
</a>
</g>
</g>
<!-- Node1&#45;&gt;Node4 -->
<g id="edge3" class="edge"><title>Node1&#45;&gt;Node4</title>
<path fill="none" stroke="midnightblue" d="M154.085,-69.5C166.466,-69.5 179.359,-69.5 191.938,-69.5"/>
<polygon fill="midnightblue" stroke="midnightblue" points="191.943,-73.0001 201.943,-69.5 191.943,-66.0001 191.943,-73.0001"/>
</g>
<!-- Node5 -->
<g id="node5" class="node"><title>Node5</title>
<g id="a_node5"><a xlink:href="classqtreports_1_1detail_1_1_parser_from_x_m_l.html#ace9dca09d283384d721c2a985991c9bf" target="_top" xlink:title="qtreports::detail::\lParserFromXML::goToElementEnd">
<polygon fill="none" stroke="black" points="190,-0.5 190,-30.5 366,-30.5 366,-0.5 190,-0.5"/>
<text text-anchor="start" x="198" y="-18.5" font-family="Helvetica,sans-Serif" font-size="10.00">qtreports::detail::</text>
<text text-anchor="middle" x="278" y="-7.5" font-family="Helvetica,sans-Serif" font-size="10.00">ParserFromXML::goToElementEnd</text>
</a>
</g>
</g>
<!-- Node1&#45;&gt;Node5 -->
<g id="edge5" class="edge"><title>Node1&#45;&gt;Node5</title>
<path fill="none" stroke="midnightblue" d="M153.801,-48.9309C172.888,-43.7516 193.21,-38.2371 211.73,-33.2115"/>
<polygon fill="midnightblue" stroke="midnightblue" points="212.789,-36.5508 221.523,-30.5541 210.955,-29.7952 212.789,-36.5508"/>
</g>
<!-- Node3 -->
<g id="node3" class="node"><title>Node3</title>
<g id="a_node3"><a xlink:href="classqtreports_1_1detail_1_1_parser_from_x_m_l.html#ad0cab06b62d590495eaa6a16465ed2b4" target="_top" xlink:title="qtreports::detail::\lParserFromXML::getAttribute">
<polygon fill="none" stroke="black" points="402,-84.5 402,-114.5 556,-114.5 556,-84.5 402,-84.5"/>
<text text-anchor="start" x="410" y="-102.5" font-family="Helvetica,sans-Serif" font-size="10.00">qtreports::detail::</text>
<text text-anchor="middle" x="479" y="-91.5" font-family="Helvetica,sans-Serif" font-size="10.00">ParserFromXML::getAttribute</text>
</a>
</g>
</g>
<!-- Node2&#45;&gt;Node3 -->
<g id="edge2" class="edge"><title>Node2&#45;&gt;Node3</title>
<path fill="none" stroke="midnightblue" d="M354.517,-118.116C366.75,-116.271 379.498,-114.35 391.958,-112.471"/>
<polygon fill="midnightblue" stroke="midnightblue" points="392.508,-115.928 401.874,-110.976 391.464,-109.006 392.508,-115.928"/>
</g>
<!-- Node4&#45;&gt;Node3 -->
<g id="edge4" class="edge"><title>Node4&#45;&gt;Node3</title>
<path fill="none" stroke="midnightblue" d="M354.233,-80.8417C366.566,-82.7009 379.428,-84.6399 391.997,-86.5348"/>
<polygon fill="midnightblue" stroke="midnightblue" points="391.589,-90.0127 401.999,-88.0426 392.633,-83.0909 391.589,-90.0127"/>
</g>
</g>
</svg>
        <g id="navigator" transform="translate(0 0)" fill="#404254">
                <rect fill="#f2f5e9" fill-opacity="0.5" stroke="#606060" stroke-width=".5" x="0" y="0" width="60" height="60"/>
                <use id="zoomplus" xlink:href="#zoomPlus" x="17" y="9" onmousedown="handleZoom(evt,'in')"/>
                <use id="zoomminus" xlink:href="#zoomMin" x="42" y="9" onmousedown="handleZoom(evt,'out')"/>
                <use id="reset" xlink:href="#resetDef" x="30" y="36" onmousedown="handleReset()"/>
                <g id="arrowUp" xlink:href="#dirArrow" transform="translate(30 24)" onmousedown="handlePan(0,-1)">
                  <use xlink:href="#rim" fill="#404040">
                        <set attributeName="fill" to="#808080" begin="arrowUp.mouseover" end="arrowUp.mouseout"/>
                  </use>
                  <path fill="none" stroke="white" stroke-width="1.5" d="M0,-3.0v7 M-2.5,-0.5L0,-3.0L2.5,-0.5"/>
                </g>
                <g id="arrowRight" xlink:href="#dirArrow" transform="rotate(90) translate(36 -43)" onmousedown="handlePan(1,0)">
                  <use xlink:href="#rim" fill="#404040">
                        <set attributeName="fill" to="#808080" begin="arrowRight.mouseover" end="arrowRight.mouseout"/>
                  </use>
                  <path fill="none" stroke="white" stroke-width="1.5" d="M0,-3.0v7 M-2.5,-0.5L0,-3.0L2.5,-0.5"/>
                </g>
                <g id="arrowDown" xlink:href="#dirArrow" transform="rotate(180) translate(-30 -48)" onmousedown="handlePan(0,1)">
                  <use xlink:href="#rim" fill="#404040">
                        <set attributeName="fill" to="#808080" begin="arrowDown.mouseover" end="arrowDown.mouseout"/>
                  </use>
                  <path fill="none" stroke="white" stroke-width="1.5" d="M0,-3.0v7 M-2.5,-0.5L0,-3.0L2.5,-0.5"/>
                </g>
                <g id="arrowLeft" xlink:href="#dirArrow" transform="rotate(270) translate(-36 17)" onmousedown="handlePan(-1,0)">
                  <use xlink:href="#rim" fill="#404040">
                        <set attributeName="fill" to="#808080" begin="arrowLeft.mouseover" end="arrowLeft.mouseout"/>
                  </use>
                  <path fill="none" stroke="white" stroke-width="1.5" d="M0,-3.0v7 M-2.5,-0.5L0,-3.0L2.5,-0.5"/>
                </g>
        </g>
        <svg viewBox="0 0 15 15" width="100%" height="30px" preserveAspectRatio="xMaxYMin meet">
         <g id="arrow_out" transform="scale(0.3 0.3)">
          <a xlink:href="classqtreports_1_1detail_1_1_parser_from_x_m_l_aee6cb5359125988f68abfcd2f6fe4514_cgraph_org.svg" target="_base">
           <rect id="button" ry="5" rx="5" y="6" x="6" height="38" width="38"
                fill="#f2f5e9" fill-opacity="0.5" stroke="#606060" stroke-width="1.0"/>
           <path id="arrow"
             d="M 11.500037,31.436501 C 11.940474,20.09759 22.043105,11.32322 32.158766,21.979434 L 37.068811,17.246167 C 37.068811,17.246167 37.088388,32 37.088388,32 L 22.160133,31.978069 C 22.160133,31.978069 26.997745,27.140456 26.997745,27.140456 C 18.528582,18.264221 13.291696,25.230495 11.500037,31.436501 z"
             style="fill:#404040;"/>
          </a>
         </g>
        </svg>
</svg>
