<?xml version="1.0" encoding="UTF-8" standalone="no"?>
<!DOCTYPE svg PUBLIC "-//W3C//DTD SVG 1.1//EN"
 "http://www.w3.org/Graphics/SVG/1.1/DTD/svg11.dtd">
<!-- Generated by graphviz version 2.38.0 (20140413.2041)
 -->
<!-- Title: qtreports::detail::ConverterToPDF::convert Pages: 1 -->
<!--zoomable 303 -->
<svg id="main" version="1.1" xmlns="http://www.w3.org/2000/svg" xmlns:xlink="http://www.w3.org/1999/xlink" xml:space="preserve" onload="init(evt)">
<style type="text/css"><![CDATA[
.edge:hover path { stroke: red; }
.edge:hover polygon { stroke: red; fill: red; }
]]></style>
<script type="text/javascript"><![CDATA[
var edges = document.getElementsByTagName('g');
if (edges && edges.length) {
  for (var i=0;i<edges.length;i++) {
    if (edges[i].id.substr(0,4)=='edge') {
      edges[i].setAttribute('class','edge');
    }
  }
}
]]></script>
        <defs>
                <circle id="rim" cx="0" cy="0" r="7"/>
                <circle id="rim2" cx="0" cy="0" r="3.5"/>
                <g id="zoomPlus">
                        <use xlink:href="#rim" fill="#404040">
                                <set attributeName="fill" to="#808080" begin="zoomplus.mouseover" end="zoomplus.mouseout"/>
                        </use>
                        <path d="M-4,0h8M0,-4v8" fill="none" stroke="white" stroke-width="1.5" pointer-events="none"/>
                </g>
                <g id="zoomMin">
                        <use xlink:href="#rim" fill="#404040">
                                <set attributeName="fill" to="#808080" begin="zoomminus.mouseover" end="zoomminus.mouseout"/>
                        </use>
                        <path d="M-4,0h8" fill="none" stroke="white" stroke-width="1.5" pointer-events="none"/>
                </g>
                <g id="dirArrow">
                        <path fill="none" stroke="white" stroke-width="1.5" d="M0,-3.0v7 M-2.5,-0.5L0,-3.0L2.5,-0.5"/>
                </g>
               <g id="resetDef">
                       <use xlink:href="#rim2" fill="#404040">
                               <set attributeName="fill" to="#808080" begin="reset.mouseover" end="reset.mouseout"/>
                       </use>
               </g>
        </defs>

<script type="text/javascript">
var viewWidth = 1673;
var viewHeight = 303;
var sectionId = 'dynsection-3';
</script>
<script xlink:href="svgpan.js"/>
<svg id="graph" class="graph">
<g id="viewport">
<title>qtreports::detail::ConverterToPDF::convert</title>
<!-- Node1 -->
<g id="node1" class="node"><title>Node1</title>
<polygon fill="#bfbfbf" stroke="black" points="0,-173 0,-203 134,-203 134,-173 0,-173"/>
<text text-anchor="start" x="8" y="-191" font-family="Helvetica,sans-Serif" font-size="10.00">qtreports::detail::</text>
<text text-anchor="middle" x="67" y="-180" font-family="Helvetica,sans-Serif" font-size="10.00">ConverterToPDF::convert</text>
</g>
<!-- Node2 -->
<g id="node2" class="node"><title>Node2</title>
<g id="a_node2"><a xlink:href="classqtreports_1_1detail_1_1_converter_to_p_d_f.html#aad8435572f5ba065f8f2fef428d97b22" target="_top" xlink:title="qtreports::detail::\lConverterToPDF::create">
<polygon fill="none" stroke="black" points="170,-173 170,-203 298,-203 298,-173 170,-173"/>
<text text-anchor="start" x="178" y="-191" font-family="Helvetica,sans-Serif" font-size="10.00">qtreports::detail::</text>
<text text-anchor="middle" x="234" y="-180" font-family="Helvetica,sans-Serif" font-size="10.00">ConverterToPDF::create</text>
</a>
</g>
</g>
<!-- Node1&#45;&gt;Node2 -->
<g id="edge1" class="edge"><title>Node1&#45;&gt;Node2</title>
<path fill="none" stroke="midnightblue" d="M134.161,-188C142.511,-188 151.094,-188 159.548,-188"/>
<polygon fill="midnightblue" stroke="midnightblue" points="159.773,-191.5 169.773,-188 159.772,-184.5 159.773,-191.5"/>
</g>
<!-- Node3 -->
<g id="node3" class="node"><title>Node3</title>
<g id="a_node3"><a xlink:href="classqtreports_1_1detail_1_1_converter_to_p_d_f.html#a5d9212cf5250d8d938359c417537337c" target="_top" xlink:title="qtreports::detail::\lConverterToPDF::createSection">
<polygon fill="none" stroke="black" points="538,-149 538,-179 702,-179 702,-149 538,-149"/>
<text text-anchor="start" x="546" y="-167" font-family="Helvetica,sans-Serif" font-size="10.00">qtreports::detail::</text>
<text text-anchor="middle" x="620" y="-156" font-family="Helvetica,sans-Serif" font-size="10.00">ConverterToPDF::createSection</text>
</a>
</g>
</g>
<!-- Node2&#45;&gt;Node3 -->
<g id="edge2" class="edge"><title>Node2&#45;&gt;Node3</title>
<path fill="none" stroke="midnightblue" d="M298.41,-184.037C360.843,-180.135 456.85,-174.134 527.534,-169.717"/>
<polygon fill="midnightblue" stroke="midnightblue" points="528.01,-173.194 537.773,-169.077 527.574,-166.207 528.01,-173.194"/>
</g>
<!-- Node19 -->
<g id="node19" class="node"><title>Node19</title>
<g id="a_node19"><a xlink:href="classqtreports_1_1detail_1_1_converter_to_p_d_f.html#adda58d86ecfee05cdcc5e5ce161926ff" target="_top" xlink:title="qtreports::detail::\lConverterToPDF::addGroupsInto\lReport">
<polygon fill="none" stroke="black" points="334,-192.5 334,-233.5 502,-233.5 502,-192.5 334,-192.5"/>
<text text-anchor="start" x="342" y="-221.5" font-family="Helvetica,sans-Serif" font-size="10.00">qtreports::detail::</text>
<text text-anchor="start" x="342" y="-210.5" font-family="Helvetica,sans-Serif" font-size="10.00">ConverterToPDF::addGroupsInto</text>
<text text-anchor="middle" x="418" y="-199.5" font-family="Helvetica,sans-Serif" font-size="10.00">Report</text>
</a>
</g>
</g>
<!-- Node2&#45;&gt;Node19 -->
<g id="edge23" class="edge"><title>Node2&#45;&gt;Node19</title>
<path fill="none" stroke="midnightblue" d="M298.144,-196.674C306.409,-197.809 315.013,-198.991 323.645,-200.177"/>
<polygon fill="midnightblue" stroke="midnightblue" points="323.39,-203.674 333.773,-201.568 324.342,-196.739 323.39,-203.674"/>
</g>
<!-- Node4 -->
<g id="node4" class="node"><title>Node4</title>
<g id="a_node4"><a xlink:href="classqtreports_1_1detail_1_1_replacer.html#af7ccb83be264f7c72b7485cf38455450" target="_top" xlink:title="qtreports::detail::\lReplacer::replace">
<polygon fill="none" stroke="black" points="767.5,-76 767.5,-106 866.5,-106 866.5,-76 767.5,-76"/>
<text text-anchor="start" x="775.5" y="-94" font-family="Helvetica,sans-Serif" font-size="10.00">qtreports::detail::</text>
<text text-anchor="middle" x="817" y="-83" font-family="Helvetica,sans-Serif" font-size="10.00">Replacer::replace</text>
</a>
</g>
</g>
<!-- Node3&#45;&gt;Node4 -->
<g id="edge3" class="edge"><title>Node3&#45;&gt;Node4</title>
<path fill="none" stroke="midnightblue" d="M654.446,-148.963C677.66,-138.781 709.427,-125.351 738,-115 744.355,-112.698 751.049,-110.421 757.737,-108.238"/>
<polygon fill="midnightblue" stroke="midnightblue" points="759.031,-111.499 767.489,-105.118 756.898,-104.832 759.031,-111.499"/>
</g>
<!-- Node11 -->
<g id="node11" class="node"><title>Node11</title>
<g id="a_node11"><a xlink:href="classqtreports_1_1detail_1_1_replacer.html#a677f7802e444f2de3af4cb43b6cedf30" target="_top" xlink:title="qtreports::detail::\lReplacer::getLastError">
<polygon fill="none" stroke="black" points="756,-125 756,-155 878,-155 878,-125 756,-125"/>
<text text-anchor="start" x="764" y="-143" font-family="Helvetica,sans-Serif" font-size="10.00">qtreports::detail::</text>
<text text-anchor="middle" x="817" y="-132" font-family="Helvetica,sans-Serif" font-size="10.00">Replacer::getLastError</text>
</a>
</g>
</g>
<!-- Node3&#45;&gt;Node11 -->
<g id="edge10" class="edge"><title>Node3&#45;&gt;Node11</title>
<path fill="none" stroke="midnightblue" d="M702.003,-154.03C716.486,-152.248 731.469,-150.404 745.624,-148.662"/>
<polygon fill="midnightblue" stroke="midnightblue" points="746.268,-152.109 755.765,-147.414 745.413,-145.161 746.268,-152.109"/>
</g>
<!-- Node12 -->
<g id="node12" class="node"><title>Node12</title>
<g id="a_node12"><a xlink:href="classqtreports_1_1detail_1_1_converter_to_p_d_f.html#aba1de1bf9abc3ea9b7b5c2b8317f5a0f" target="_top" xlink:title="qtreports::detail::\lConverterToPDF::createBands">
<polygon fill="none" stroke="black" points="738,-174 738,-204 896,-204 896,-174 738,-174"/>
<text text-anchor="start" x="746" y="-192" font-family="Helvetica,sans-Serif" font-size="10.00">qtreports::detail::</text>
<text text-anchor="middle" x="817" y="-181" font-family="Helvetica,sans-Serif" font-size="10.00">ConverterToPDF::createBands</text>
</a>
</g>
</g>
<!-- Node3&#45;&gt;Node12 -->
<g id="edge11" class="edge"><title>Node3&#45;&gt;Node12</title>
<path fill="none" stroke="midnightblue" d="M702.003,-174.385C710.502,-175.475 719.173,-176.586 727.748,-177.686"/>
<polygon fill="midnightblue" stroke="midnightblue" points="727.39,-181.168 737.754,-178.968 728.28,-174.225 727.39,-181.168"/>
</g>
<!-- Node5 -->
<g id="node5" class="node"><title>Node5</title>
<g id="a_node5"><a xlink:href="classqtreports_1_1detail_1_1_replacer.html#a58cf857aa78eb3e273f6543769af425b" target="_top" xlink:title="qtreports::detail::\lReplacer::replaceFieldInSection">
<polygon fill="none" stroke="black" points="936,-28 936,-58 1100,-58 1100,-28 936,-28"/>
<text text-anchor="start" x="944" y="-46" font-family="Helvetica,sans-Serif" font-size="10.00">qtreports::detail::</text>
<text text-anchor="middle" x="1018" y="-35" font-family="Helvetica,sans-Serif" font-size="10.00">Replacer::replaceFieldInSection</text>
</a>
</g>
</g>
<!-- Node4&#45;&gt;Node5 -->
<g id="edge4" class="edge"><title>Node4&#45;&gt;Node5</title>
<path fill="none" stroke="midnightblue" d="M866.681,-79.2579C890.148,-73.5975 918.771,-66.6935 944.718,-60.4349"/>
<polygon fill="midnightblue" stroke="midnightblue" points="945.615,-63.819 954.515,-58.0717 943.973,-57.0142 945.615,-63.819"/>
</g>
<!-- Node10 -->
<g id="node10" class="node"><title>Node10</title>
<g id="a_node10"><a xlink:href="classqtreports_1_1detail_1_1_replacer.html#abb903f1c1172efa7e26b040a5695cc86" target="_top" xlink:title="qtreports::detail::\lReplacer::replaceParameters">
<polygon fill="none" stroke="black" points="941,-77 941,-107 1095,-107 1095,-77 941,-77"/>
<text text-anchor="start" x="949" y="-95" font-family="Helvetica,sans-Serif" font-size="10.00">qtreports::detail::</text>
<text text-anchor="middle" x="1018" y="-84" font-family="Helvetica,sans-Serif" font-size="10.00">Replacer::replaceParameters</text>
</a>
</g>
</g>
<!-- Node4&#45;&gt;Node10 -->
<g id="edge9" class="edge"><title>Node4&#45;&gt;Node10</title>
<path fill="none" stroke="midnightblue" d="M866.681,-91.2446C886.039,-91.3419 908.905,-91.4568 930.884,-91.5673"/>
<polygon fill="midnightblue" stroke="midnightblue" points="930.886,-95.0672 940.904,-91.6176 930.921,-88.0673 930.886,-95.0672"/>
</g>
<!-- Node6 -->
<g id="node6" class="node"><title>Node6</title>
<g id="a_node6"><a xlink:href="classqtreports_1_1detail_1_1_replacer.html#a2be57bd514335f9b9f2a520247562ce1" target="_top" xlink:title="qtreports::detail::\lReplacer::replaceFieldInText\lWidget">
<polygon fill="none" stroke="black" points="1355,-0.5 1355,-41.5 1501,-41.5 1501,-0.5 1355,-0.5"/>
<text text-anchor="start" x="1363" y="-29.5" font-family="Helvetica,sans-Serif" font-size="10.00">qtreports::detail::</text>
<text text-anchor="start" x="1363" y="-18.5" font-family="Helvetica,sans-Serif" font-size="10.00">Replacer::replaceFieldInText</text>
<text text-anchor="middle" x="1428" y="-7.5" font-family="Helvetica,sans-Serif" font-size="10.00">Widget</text>
</a>
</g>
</g>
<!-- Node5&#45;&gt;Node6 -->
<g id="edge5" class="edge"><title>Node5&#45;&gt;Node6</title>
<path fill="none" stroke="midnightblue" d="M1100.1,-38.6272C1170.98,-34.8053 1273.41,-29.2816 1344.66,-25.4399"/>
<polygon fill="midnightblue" stroke="midnightblue" points="1345.14,-28.9191 1354.94,-24.8857 1344.76,-21.9293 1345.14,-28.9191"/>
</g>
<!-- Node8 -->
<g id="node8" class="node"><title>Node8</title>
<g id="a_node8"><a xlink:href="classqtreports_1_1detail_1_1_replacer.html#a4aeb7794f90c0be34a30ab60a6df1920" target="_top" xlink:title="qtreports::detail::\lReplacer::replaceFieldInImage\lWidget">
<polygon fill="none" stroke="black" points="1146,-49.5 1146,-90.5 1304,-90.5 1304,-49.5 1146,-49.5"/>
<text text-anchor="start" x="1154" y="-78.5" font-family="Helvetica,sans-Serif" font-size="10.00">qtreports::detail::</text>
<text text-anchor="start" x="1154" y="-67.5" font-family="Helvetica,sans-Serif" font-size="10.00">Replacer::replaceFieldInImage</text>
<text text-anchor="middle" x="1225" y="-56.5" font-family="Helvetica,sans-Serif" font-size="10.00">Widget</text>
</a>
</g>
</g>
<!-- Node5&#45;&gt;Node8 -->
<g id="edge7" class="edge"><title>Node5&#45;&gt;Node8</title>
<path fill="none" stroke="midnightblue" d="M1100.02,-53.6711C1111.83,-55.2257 1124.03,-56.8328 1135.96,-58.4046"/>
<polygon fill="midnightblue" stroke="midnightblue" points="1135.54,-61.879 1145.91,-59.7148 1136.45,-54.9389 1135.54,-61.879"/>
</g>
<!-- Node7 -->
<g id="node7" class="node"><title>Node7</title>
<g id="a_node7"><a xlink:href="classqtreports_1_1detail_1_1_replacer.html#a4642b07160798f2ee4de276e1d0c1ecd" target="_top" xlink:title="qtreports::detail::\lReplacer::replaceField">
<polygon fill="none" stroke="black" points="1546,-169 1546,-199 1665,-199 1665,-169 1546,-169"/>
<text text-anchor="start" x="1554" y="-187" font-family="Helvetica,sans-Serif" font-size="10.00">qtreports::detail::</text>
<text text-anchor="middle" x="1605.5" y="-176" font-family="Helvetica,sans-Serif" font-size="10.00">Replacer::replaceField</text>
</a>
</g>
</g>
<!-- Node6&#45;&gt;Node7 -->
<g id="edge6" class="edge"><title>Node6&#45;&gt;Node7</title>
<path fill="none" stroke="midnightblue" d="M1496.97,-41.6658C1501.56,-44.1567 1505.96,-46.9258 1510,-50 1548.88,-79.5707 1578.1,-129.708 1593.14,-159.552"/>
<polygon fill="midnightblue" stroke="midnightblue" points="1590.14,-161.397 1597.69,-168.836 1596.43,-158.316 1590.14,-161.397"/>
</g>
<!-- Node9 -->
<g id="node9" class="node"><title>Node9</title>
<g id="a_node9"><a xlink:href="classqtreports_1_1detail_1_1_replacer.html#ae1ac521aeaf5fdd694e79e2ae52d4704" target="_top" xlink:title="qtreports::detail::\lReplacer::replaceFieldImage">
<polygon fill="none" stroke="black" points="1353.5,-60 1353.5,-90 1502.5,-90 1502.5,-60 1353.5,-60"/>
<text text-anchor="start" x="1361.5" y="-78" font-family="Helvetica,sans-Serif" font-size="10.00">qtreports::detail::</text>
<text text-anchor="middle" x="1428" y="-67" font-family="Helvetica,sans-Serif" font-size="10.00">Replacer::replaceFieldImage</text>
</a>
</g>
</g>
<!-- Node8&#45;&gt;Node9 -->
<g id="edge8" class="edge"><title>Node8&#45;&gt;Node9</title>
<path fill="none" stroke="midnightblue" d="M1304.29,-71.9474C1316.99,-72.2633 1330.18,-72.5916 1343.01,-72.9107"/>
<polygon fill="midnightblue" stroke="midnightblue" points="1343.12,-76.4144 1353.2,-73.1643 1343.29,-69.4166 1343.12,-76.4144"/>
</g>
<!-- Node13 -->
<g id="node13" class="node"><title>Node13</title>
<g id="a_node13"><a xlink:href="classqtreports_1_1detail_1_1_replacer.html#aa9fa83cf51d75301b62e11a0a93e2dcc" target="_top" xlink:title="qtreports::detail::\lReplacer::replaceColumnGroups\lInCrosstab">
<polygon fill="none" stroke="black" points="1140,-217.5 1140,-258.5 1310,-258.5 1310,-217.5 1140,-217.5"/>
<text text-anchor="start" x="1148" y="-246.5" font-family="Helvetica,sans-Serif" font-size="10.00">qtreports::detail::</text>
<text text-anchor="start" x="1148" y="-235.5" font-family="Helvetica,sans-Serif" font-size="10.00">Replacer::replaceColumnGroups</text>
<text text-anchor="middle" x="1225" y="-224.5" font-family="Helvetica,sans-Serif" font-size="10.00">InCrosstab</text>
</a>
</g>
</g>
<!-- Node12&#45;&gt;Node13 -->
<g id="edge12" class="edge"><title>Node12&#45;&gt;Node13</title>
<path fill="none" stroke="midnightblue" d="M890.188,-204.042C904.026,-206.61 918.43,-209.068 932,-211 997.735,-220.359 1072.28,-227.189 1129.59,-231.639"/>
<polygon fill="midnightblue" stroke="midnightblue" points="1129.49,-235.141 1139.73,-232.415 1130.02,-228.161 1129.49,-235.141"/>
</g>
<!-- Node15 -->
<g id="node15" class="node"><title>Node15</title>
<g id="a_node15"><a xlink:href="classqtreports_1_1detail_1_1_replacer.html#ae0f12ba0e77e9ef89b9479272e843fe6" target="_top" xlink:title="qtreports::detail::\lReplacer::replaceRowGroups\lInCrosstab">
<polygon fill="none" stroke="black" points="1149.5,-109.5 1149.5,-150.5 1300.5,-150.5 1300.5,-109.5 1149.5,-109.5"/>
<text text-anchor="start" x="1157.5" y="-138.5" font-family="Helvetica,sans-Serif" font-size="10.00">qtreports::detail::</text>
<text text-anchor="start" x="1157.5" y="-127.5" font-family="Helvetica,sans-Serif" font-size="10.00">Replacer::replaceRowGroups</text>
<text text-anchor="middle" x="1225" y="-116.5" font-family="Helvetica,sans-Serif" font-size="10.00">InCrosstab</text>
</a>
</g>
</g>
<!-- Node12&#45;&gt;Node15 -->
<g id="edge15" class="edge"><title>Node12&#45;&gt;Node15</title>
<path fill="none" stroke="midnightblue" d="M875.418,-173.942C893.435,-169.611 913.46,-165.199 932,-162 1001.22,-150.057 1080.48,-141.703 1138.94,-136.532"/>
<polygon fill="midnightblue" stroke="midnightblue" points="1139.58,-139.99 1149.23,-135.635 1138.97,-133.016 1139.58,-139.99"/>
</g>
<!-- Node17 -->
<g id="node17" class="node"><title>Node17</title>
<g id="a_node17"><a xlink:href="classqtreports_1_1detail_1_1_replacer.html#a5dc72251354d389091776142436ebd22" target="_top" xlink:title="qtreports::detail::\lReplacer::replaceCellsInCrosstab">
<polygon fill="none" stroke="black" points="932,-172 932,-202 1104,-202 1104,-172 932,-172"/>
<text text-anchor="start" x="940" y="-190" font-family="Helvetica,sans-Serif" font-size="10.00">qtreports::detail::</text>
<text text-anchor="middle" x="1018" y="-179" font-family="Helvetica,sans-Serif" font-size="10.00">Replacer::replaceCellsInCrosstab</text>
</a>
</g>
</g>
<!-- Node12&#45;&gt;Node17 -->
<g id="edge18" class="edge"><title>Node12&#45;&gt;Node17</title>
<path fill="none" stroke="midnightblue" d="M896.079,-188.215C904.531,-188.13 913.2,-188.043 921.826,-187.957"/>
<polygon fill="midnightblue" stroke="midnightblue" points="921.952,-191.456 931.916,-187.855 921.881,-184.456 921.952,-191.456"/>
</g>
<!-- Node14 -->
<g id="node14" class="node"><title>Node14</title>
<g id="a_node14"><a xlink:href="classqtreports_1_1detail_1_1_replacer.html#a781b476a4e964da9e5afe4f642b2f275" target="_top" xlink:title="qtreports::detail::\lReplacer::replaceColumnGroup\lInCrosstab">
<polygon fill="none" stroke="black" points="1346,-215.5 1346,-256.5 1510,-256.5 1510,-215.5 1346,-215.5"/>
<text text-anchor="start" x="1354" y="-244.5" font-family="Helvetica,sans-Serif" font-size="10.00">qtreports::detail::</text>
<text text-anchor="start" x="1354" y="-233.5" font-family="Helvetica,sans-Serif" font-size="10.00">Replacer::replaceColumnGroup</text>
<text text-anchor="middle" x="1428" y="-222.5" font-family="Helvetica,sans-Serif" font-size="10.00">InCrosstab</text>
</a>
</g>
</g>
<!-- Node13&#45;&gt;Node14 -->
<g id="edge13" class="edge"><title>Node13&#45;&gt;Node14</title>
<path fill="none" stroke="midnightblue" d="M1310.08,-237.163C1318.58,-237.079 1327.25,-236.993 1335.82,-236.907"/>
<polygon fill="midnightblue" stroke="midnightblue" points="1335.87,-240.407 1345.83,-236.808 1335.8,-233.407 1335.87,-240.407"/>
</g>
<!-- Node14&#45;&gt;Node7 -->
<g id="edge14" class="edge"><title>Node14&#45;&gt;Node7</title>
<path fill="none" stroke="midnightblue" d="M1498.36,-215.448C1513.39,-210.997 1529.16,-206.322 1543.82,-201.978"/>
<polygon fill="midnightblue" stroke="midnightblue" points="1545.18,-205.227 1553.77,-199.031 1543.19,-198.516 1545.18,-205.227"/>
</g>
<!-- Node16 -->
<g id="node16" class="node"><title>Node16</title>
<g id="a_node16"><a xlink:href="classqtreports_1_1detail_1_1_replacer.html#a2114b58c90fe02b17e7bf99e144013b6" target="_top" xlink:title="qtreports::detail::\lReplacer::replaceRowGroupIn\lCrosstab">
<polygon fill="none" stroke="black" points="1351,-112.5 1351,-153.5 1505,-153.5 1505,-112.5 1351,-112.5"/>
<text text-anchor="start" x="1359" y="-141.5" font-family="Helvetica,sans-Serif" font-size="10.00">qtreports::detail::</text>
<text text-anchor="start" x="1359" y="-130.5" font-family="Helvetica,sans-Serif" font-size="10.00">Replacer::replaceRowGroupIn</text>
<text text-anchor="middle" x="1428" y="-119.5" font-family="Helvetica,sans-Serif" font-size="10.00">Crosstab</text>
</a>
</g>
</g>
<!-- Node15&#45;&gt;Node16 -->
<g id="edge16" class="edge"><title>Node15&#45;&gt;Node16</title>
<path fill="none" stroke="midnightblue" d="M1300.56,-131.113C1313.65,-131.308 1327.36,-131.513 1340.74,-131.713"/>
<polygon fill="midnightblue" stroke="midnightblue" points="1340.83,-135.214 1350.88,-131.864 1340.94,-128.215 1340.83,-135.214"/>
</g>
<!-- Node16&#45;&gt;Node7 -->
<g id="edge17" class="edge"><title>Node16&#45;&gt;Node7</title>
<path fill="none" stroke="midnightblue" d="M1499.62,-153.523C1513.88,-157.666 1528.76,-161.991 1542.69,-166.038"/>
<polygon fill="midnightblue" stroke="midnightblue" points="1542.06,-169.499 1552.64,-168.929 1544.01,-162.777 1542.06,-169.499"/>
</g>
<!-- Node17&#45;&gt;Node13 -->
<g id="edge20" class="edge"><title>Node17&#45;&gt;Node13</title>
<path fill="none" stroke="midnightblue" d="M1079.4,-202.026C1095.74,-206.092 1113.81,-210.587 1131.48,-214.984"/>
<polygon fill="midnightblue" stroke="midnightblue" points="1130.7,-218.395 1141.25,-217.413 1132.39,-211.602 1130.7,-218.395"/>
</g>
<!-- Node17&#45;&gt;Node15 -->
<g id="edge19" class="edge"><title>Node17&#45;&gt;Node15</title>
<path fill="none" stroke="midnightblue" d="M1073.13,-171.949C1093.78,-166.206 1117.84,-159.517 1140.59,-153.191"/>
<polygon fill="midnightblue" stroke="midnightblue" points="1141.56,-156.556 1150.25,-150.505 1139.68,-149.812 1141.56,-156.556"/>
</g>
<!-- Node18 -->
<g id="node18" class="node"><title>Node18</title>
<g id="a_node18"><a xlink:href="classqtreports_1_1detail_1_1_replacer.html#a9ad7270fd6bdb9a2ba85bdc9652968c8" target="_top" xlink:title="qtreports::detail::\lReplacer::replaceCellInCrosstab">
<polygon fill="none" stroke="black" points="1141.5,-169 1141.5,-199 1308.5,-199 1308.5,-169 1141.5,-169"/>
<text text-anchor="start" x="1149.5" y="-187" font-family="Helvetica,sans-Serif" font-size="10.00">qtreports::detail::</text>
<text text-anchor="middle" x="1225" y="-176" font-family="Helvetica,sans-Serif" font-size="10.00">Replacer::replaceCellInCrosstab</text>
</a>
</g>
</g>
<!-- Node17&#45;&gt;Node18 -->
<g id="edge21" class="edge"><title>Node17&#45;&gt;Node18</title>
<path fill="none" stroke="midnightblue" d="M1104.16,-185.754C1113.11,-185.623 1122.24,-185.489 1131.27,-185.357"/>
<polygon fill="midnightblue" stroke="midnightblue" points="1131.46,-188.855 1141.41,-185.209 1131.36,-181.855 1131.46,-188.855"/>
</g>
<!-- Node18&#45;&gt;Node7 -->
<g id="edge22" class="edge"><title>Node18&#45;&gt;Node7</title>
<path fill="none" stroke="midnightblue" d="M1308.6,-184C1376.49,-184 1471.57,-184 1535.46,-184"/>
<polygon fill="midnightblue" stroke="midnightblue" points="1535.83,-187.5 1545.83,-184 1535.83,-180.5 1535.83,-187.5"/>
</g>
<!-- Node19&#45;&gt;Node3 -->
<g id="edge25" class="edge"><title>Node19&#45;&gt;Node3</title>
<path fill="none" stroke="midnightblue" d="M502.08,-192.645C517.166,-188.949 532.781,-185.124 547.497,-181.518"/>
<polygon fill="midnightblue" stroke="midnightblue" points="548.645,-184.841 557.525,-179.061 546.979,-178.042 548.645,-184.841"/>
</g>
<!-- Node19&#45;&gt;Node7 -->
<g id="edge24" class="edge"><title>Node19&#45;&gt;Node7</title>
<path fill="none" stroke="midnightblue" d="M486.78,-233.515C565.246,-255.415 698.74,-287 816,-287 816,-287 816,-287 1226,-287 1352.57,-287 1393.14,-314.617 1510,-266 1540.85,-253.167 1568.74,-226.154 1586.09,-206.633"/>
<polygon fill="midnightblue" stroke="midnightblue" points="1588.76,-208.903 1592.65,-199.047 1583.46,-204.327 1588.76,-208.903"/>
</g>
</g>
</svg>
        <g id="navigator" transform="translate(0 0)" fill="#404254">
                <rect fill="#f2f5e9" fill-opacity="0.5" stroke="#606060" stroke-width=".5" x="0" y="0" width="60" height="60"/>
                <use id="zoomplus" xlink:href="#zoomPlus" x="17" y="9" onmousedown="handleZoom(evt,'in')"/>
                <use id="zoomminus" xlink:href="#zoomMin" x="42" y="9" onmousedown="handleZoom(evt,'out')"/>
                <use id="reset" xlink:href="#resetDef" x="30" y="36" onmousedown="handleReset()"/>
                <g id="arrowUp" xlink:href="#dirArrow" transform="translate(30 24)" onmousedown="handlePan(0,-1)">
                  <use xlink:href="#rim" fill="#404040">
                        <set attributeName="fill" to="#808080" begin="arrowUp.mouseover" end="arrowUp.mouseout"/>
                  </use>
                  <path fill="none" stroke="white" stroke-width="1.5" d="M0,-3.0v7 M-2.5,-0.5L0,-3.0L2.5,-0.5"/>
                </g>
                <g id="arrowRight" xlink:href="#dirArrow" transform="rotate(90) translate(36 -43)" onmousedown="handlePan(1,0)">
                  <use xlink:href="#rim" fill="#404040">
                        <set attributeName="fill" to="#808080" begin="arrowRight.mouseover" end="arrowRight.mouseout"/>
                  </use>
                  <path fill="none" stroke="white" stroke-width="1.5" d="M0,-3.0v7 M-2.5,-0.5L0,-3.0L2.5,-0.5"/>
                </g>
                <g id="arrowDown" xlink:href="#dirArrow" transform="rotate(180) translate(-30 -48)" onmousedown="handlePan(0,1)">
                  <use xlink:href="#rim" fill="#404040">
                        <set attributeName="fill" to="#808080" begin="arrowDown.mouseover" end="arrowDown.mouseout"/>
                  </use>
                  <path fill="none" stroke="white" stroke-width="1.5" d="M0,-3.0v7 M-2.5,-0.5L0,-3.0L2.5,-0.5"/>
                </g>
                <g id="arrowLeft" xlink:href="#dirArrow" transform="rotate(270) translate(-36 17)" onmousedown="handlePan(-1,0)">
                  <use xlink:href="#rim" fill="#404040">
                        <set attributeName="fill" to="#808080" begin="arrowLeft.mouseover" end="arrowLeft.mouseout"/>
                  </use>
                  <path fill="none" stroke="white" stroke-width="1.5" d="M0,-3.0v7 M-2.5,-0.5L0,-3.0L2.5,-0.5"/>
                </g>
        </g>
        <svg viewBox="0 0 15 15" width="100%" height="30px" preserveAspectRatio="xMaxYMin meet">
         <g id="arrow_out" transform="scale(0.3 0.3)">
          <a xlink:href="classqtreports_1_1detail_1_1_converter_to_p_d_f_af39953d8db1bdcbbcf59cc00b05747eb_cgraph_org.svg" target="_base">
           <rect id="button" ry="5" rx="5" y="6" x="6" height="38" width="38"
                fill="#f2f5e9" fill-opacity="0.5" stroke="#606060" stroke-width="1.0"/>
           <path id="arrow"
             d="M 11.500037,31.436501 C 11.940474,20.09759 22.043105,11.32322 32.158766,21.979434 L 37.068811,17.246167 C 37.068811,17.246167 37.088388,32 37.088388,32 L 22.160133,31.978069 C 22.160133,31.978069 26.997745,27.140456 26.997745,27.140456 C 18.528582,18.264221 13.291696,25.230495 11.500037,31.436501 z"
             style="fill:#404040;"/>
          </a>
         </g>
        </svg>
</svg>
