<?xml version="1.0" encoding="UTF-8" standalone="no"?>
<!DOCTYPE svg PUBLIC "-//W3C//DTD SVG 1.1//EN"
 "http://www.w3.org/Graphics/SVG/1.1/DTD/svg11.dtd">
<!-- Generated by graphviz version 2.38.0 (20140413.2041)
 -->
<!-- Title: qtreports::detail::ConverterToPDF::createSection Pages: 1 -->
<svg width="1135pt" height="262pt"
 viewBox="0.00 0.00 1135.00 262.00" xmlns="http://www.w3.org/2000/svg" xmlns:xlink="http://www.w3.org/1999/xlink">
<g id="graph0" class="graph" transform="scale(1 1) rotate(0) translate(4 258)">
<title>qtreports::detail::ConverterToPDF::createSection</title>
<!-- Node1 -->
<g id="node1" class="node"><title>Node1</title>
<polygon fill="#bfbfbf" stroke="black" points="0,-116 0,-146 164,-146 164,-116 0,-116"/>
<text text-anchor="start" x="8" y="-134" font-family="Helvetica,sans-Serif" font-size="10.00">qtreports::detail::</text>
<text text-anchor="middle" x="82" y="-123" font-family="Helvetica,sans-Serif" font-size="10.00">ConverterToPDF::createSection</text>
</g>
<!-- Node2 -->
<g id="node2" class="node"><title>Node2</title>
<g id="a_node2"><a xlink:href="classqtreports_1_1detail_1_1_replacer.html#af7ccb83be264f7c72b7485cf38455450" target="_top" xlink:title="qtreports::detail::\lReplacer::replace">
<polygon fill="none" stroke="black" points="229.5,-167 229.5,-197 328.5,-197 328.5,-167 229.5,-167"/>
<text text-anchor="start" x="237.5" y="-185" font-family="Helvetica,sans-Serif" font-size="10.00">qtreports::detail::</text>
<text text-anchor="middle" x="279" y="-174" font-family="Helvetica,sans-Serif" font-size="10.00">Replacer::replace</text>
</a>
</g>
</g>
<!-- Node1&#45;&gt;Node2 -->
<g id="edge1" class="edge"><title>Node1&#45;&gt;Node2</title>
<path fill="none" stroke="midnightblue" d="M140.452,-146.026C165.346,-152.537 194.455,-160.15 219.469,-166.692"/>
<polygon fill="midnightblue" stroke="midnightblue" points="218.634,-170.091 229.194,-169.235 220.405,-163.319 218.634,-170.091"/>
</g>
<!-- Node9 -->
<g id="node9" class="node"><title>Node9</title>
<g id="a_node9"><a xlink:href="classqtreports_1_1detail_1_1_replacer.html#a677f7802e444f2de3af4cb43b6cedf30" target="_top" xlink:title="qtreports::detail::\lReplacer::getLastError">
<polygon fill="none" stroke="black" points="218,-116 218,-146 340,-146 340,-116 218,-116"/>
<text text-anchor="start" x="226" y="-134" font-family="Helvetica,sans-Serif" font-size="10.00">qtreports::detail::</text>
<text text-anchor="middle" x="279" y="-123" font-family="Helvetica,sans-Serif" font-size="10.00">Replacer::getLastError</text>
</a>
</g>
</g>
<!-- Node1&#45;&gt;Node9 -->
<g id="edge8" class="edge"><title>Node1&#45;&gt;Node9</title>
<path fill="none" stroke="midnightblue" d="M164.003,-131C178.486,-131 193.469,-131 207.624,-131"/>
<polygon fill="midnightblue" stroke="midnightblue" points="207.765,-134.5 217.765,-131 207.765,-127.5 207.765,-134.5"/>
</g>
<!-- Node10 -->
<g id="node10" class="node"><title>Node10</title>
<g id="a_node10"><a xlink:href="classqtreports_1_1detail_1_1_converter_to_p_d_f.html#aba1de1bf9abc3ea9b7b5c2b8317f5a0f" target="_top" xlink:title="qtreports::detail::\lConverterToPDF::createBands">
<polygon fill="none" stroke="black" points="200,-63 200,-93 358,-93 358,-63 200,-63"/>
<text text-anchor="start" x="208" y="-81" font-family="Helvetica,sans-Serif" font-size="10.00">qtreports::detail::</text>
<text text-anchor="middle" x="279" y="-70" font-family="Helvetica,sans-Serif" font-size="10.00">ConverterToPDF::createBands</text>
</a>
</g>
</g>
<!-- Node1&#45;&gt;Node10 -->
<g id="edge9" class="edge"><title>Node1&#45;&gt;Node10</title>
<path fill="none" stroke="midnightblue" d="M138.358,-115.954C161.515,-109.66 188.6,-102.298 212.721,-95.7425"/>
<polygon fill="midnightblue" stroke="midnightblue" points="213.772,-99.0839 222.504,-93.0835 211.936,-92.3289 213.772,-99.0839"/>
</g>
<!-- Node3 -->
<g id="node3" class="node"><title>Node3</title>
<g id="a_node3"><a xlink:href="classqtreports_1_1detail_1_1_replacer.html#a58cf857aa78eb3e273f6543769af425b" target="_top" xlink:title="qtreports::detail::\lReplacer::replaceFieldInSection">
<polygon fill="none" stroke="black" points="398,-167 398,-197 562,-197 562,-167 398,-167"/>
<text text-anchor="start" x="406" y="-185" font-family="Helvetica,sans-Serif" font-size="10.00">qtreports::detail::</text>
<text text-anchor="middle" x="480" y="-174" font-family="Helvetica,sans-Serif" font-size="10.00">Replacer::replaceFieldInSection</text>
</a>
</g>
</g>
<!-- Node2&#45;&gt;Node3 -->
<g id="edge2" class="edge"><title>Node2&#45;&gt;Node3</title>
<path fill="none" stroke="midnightblue" d="M328.681,-182C346.498,-182 367.286,-182 387.619,-182"/>
<polygon fill="midnightblue" stroke="midnightblue" points="387.87,-185.5 397.87,-182 387.87,-178.5 387.87,-185.5"/>
</g>
<!-- Node8 -->
<g id="node8" class="node"><title>Node8</title>
<g id="a_node8"><a xlink:href="classqtreports_1_1detail_1_1_replacer.html#abb903f1c1172efa7e26b040a5695cc86" target="_top" xlink:title="qtreports::detail::\lReplacer::replaceParameters">
<polygon fill="none" stroke="black" points="403,-216 403,-246 557,-246 557,-216 403,-216"/>
<text text-anchor="start" x="411" y="-234" font-family="Helvetica,sans-Serif" font-size="10.00">qtreports::detail::</text>
<text text-anchor="middle" x="480" y="-223" font-family="Helvetica,sans-Serif" font-size="10.00">Replacer::replaceParameters</text>
</a>
</g>
</g>
<!-- Node2&#45;&gt;Node8 -->
<g id="edge7" class="edge"><title>Node2&#45;&gt;Node8</title>
<path fill="none" stroke="midnightblue" d="M328.681,-193.987C352.556,-199.866 381.768,-207.058 408.069,-213.535"/>
<polygon fill="midnightblue" stroke="midnightblue" points="407.443,-216.985 417.99,-215.977 409.117,-210.188 407.443,-216.985"/>
</g>
<!-- Node4 -->
<g id="node4" class="node"><title>Node4</title>
<g id="a_node4"><a xlink:href="classqtreports_1_1detail_1_1_replacer.html#a2be57bd514335f9b9f2a520247562ce1" target="_top" xlink:title="qtreports::detail::\lReplacer::replaceFieldInText\lWidget">
<polygon fill="none" stroke="black" points="817,-161.5 817,-202.5 963,-202.5 963,-161.5 817,-161.5"/>
<text text-anchor="start" x="825" y="-190.5" font-family="Helvetica,sans-Serif" font-size="10.00">qtreports::detail::</text>
<text text-anchor="start" x="825" y="-179.5" font-family="Helvetica,sans-Serif" font-size="10.00">Replacer::replaceFieldInText</text>
<text text-anchor="middle" x="890" y="-168.5" font-family="Helvetica,sans-Serif" font-size="10.00">Widget</text>
</a>
</g>
</g>
<!-- Node3&#45;&gt;Node4 -->
<g id="edge3" class="edge"><title>Node3&#45;&gt;Node4</title>
<path fill="none" stroke="midnightblue" d="M562.095,-182C632.975,-182 735.415,-182 806.661,-182"/>
<polygon fill="midnightblue" stroke="midnightblue" points="806.938,-185.5 816.938,-182 806.938,-178.5 806.938,-185.5"/>
</g>
<!-- Node6 -->
<g id="node6" class="node"><title>Node6</title>
<g id="a_node6"><a xlink:href="classqtreports_1_1detail_1_1_replacer.html#a4aeb7794f90c0be34a30ab60a6df1920" target="_top" xlink:title="qtreports::detail::\lReplacer::replaceFieldInImage\lWidget">
<polygon fill="none" stroke="black" points="608,-212.5 608,-253.5 766,-253.5 766,-212.5 608,-212.5"/>
<text text-anchor="start" x="616" y="-241.5" font-family="Helvetica,sans-Serif" font-size="10.00">qtreports::detail::</text>
<text text-anchor="start" x="616" y="-230.5" font-family="Helvetica,sans-Serif" font-size="10.00">Replacer::replaceFieldInImage</text>
<text text-anchor="middle" x="687" y="-219.5" font-family="Helvetica,sans-Serif" font-size="10.00">Widget</text>
</a>
</g>
</g>
<!-- Node3&#45;&gt;Node6 -->
<g id="edge5" class="edge"><title>Node3&#45;&gt;Node6</title>
<path fill="none" stroke="midnightblue" d="M541.398,-197.026C559.099,-201.43 578.828,-206.338 597.88,-211.077"/>
<polygon fill="midnightblue" stroke="midnightblue" points="597.218,-214.519 607.767,-213.537 598.908,-207.726 597.218,-214.519"/>
</g>
<!-- Node5 -->
<g id="node5" class="node"><title>Node5</title>
<g id="a_node5"><a xlink:href="classqtreports_1_1detail_1_1_replacer.html#a4642b07160798f2ee4de276e1d0c1ecd" target="_top" xlink:title="qtreports::detail::\lReplacer::replaceField">
<polygon fill="none" stroke="black" points="1008,-82 1008,-112 1127,-112 1127,-82 1008,-82"/>
<text text-anchor="start" x="1016" y="-100" font-family="Helvetica,sans-Serif" font-size="10.00">qtreports::detail::</text>
<text text-anchor="middle" x="1067.5" y="-89" font-family="Helvetica,sans-Serif" font-size="10.00">Replacer::replaceField</text>
</a>
</g>
</g>
<!-- Node4&#45;&gt;Node5 -->
<g id="edge4" class="edge"><title>Node4&#45;&gt;Node5</title>
<path fill="none" stroke="midnightblue" d="M950.331,-161.376C957.708,-158.418 965.083,-155.264 972,-152 993.344,-141.928 1016.25,-128.667 1034.16,-117.69"/>
<polygon fill="midnightblue" stroke="midnightblue" points="1036.38,-120.43 1043.03,-112.186 1032.69,-114.481 1036.38,-120.43"/>
</g>
<!-- Node7 -->
<g id="node7" class="node"><title>Node7</title>
<g id="a_node7"><a xlink:href="classqtreports_1_1detail_1_1_replacer.html#ae1ac521aeaf5fdd694e79e2ae52d4704" target="_top" xlink:title="qtreports::detail::\lReplacer::replaceFieldImage">
<polygon fill="none" stroke="black" points="815.5,-221 815.5,-251 964.5,-251 964.5,-221 815.5,-221"/>
<text text-anchor="start" x="823.5" y="-239" font-family="Helvetica,sans-Serif" font-size="10.00">qtreports::detail::</text>
<text text-anchor="middle" x="890" y="-228" font-family="Helvetica,sans-Serif" font-size="10.00">Replacer::replaceFieldImage</text>
</a>
</g>
</g>
<!-- Node6&#45;&gt;Node7 -->
<g id="edge6" class="edge"><title>Node6&#45;&gt;Node7</title>
<path fill="none" stroke="midnightblue" d="M766.287,-234.168C778.986,-234.358 792.183,-234.555 805.011,-234.746"/>
<polygon fill="midnightblue" stroke="midnightblue" points="805.152,-238.249 815.203,-234.899 805.256,-231.25 805.152,-238.249"/>
</g>
<!-- Node11 -->
<g id="node11" class="node"><title>Node11</title>
<g id="a_node11"><a xlink:href="classqtreports_1_1detail_1_1_replacer.html#aa9fa83cf51d75301b62e11a0a93e2dcc" target="_top" xlink:title="qtreports::detail::\lReplacer::replaceColumnGroups\lInCrosstab">
<polygon fill="none" stroke="black" points="602,-0.5 602,-41.5 772,-41.5 772,-0.5 602,-0.5"/>
<text text-anchor="start" x="610" y="-29.5" font-family="Helvetica,sans-Serif" font-size="10.00">qtreports::detail::</text>
<text text-anchor="start" x="610" y="-18.5" font-family="Helvetica,sans-Serif" font-size="10.00">Replacer::replaceColumnGroups</text>
<text text-anchor="middle" x="687" y="-7.5" font-family="Helvetica,sans-Serif" font-size="10.00">InCrosstab</text>
</a>
</g>
</g>
<!-- Node10&#45;&gt;Node11 -->
<g id="edge10" class="edge"><title>Node10&#45;&gt;Node11</title>
<path fill="none" stroke="midnightblue" d="M339.787,-62.9633C357.186,-58.9688 376.279,-54.9509 394,-52 459.703,-41.0595 534.4,-33.2116 591.796,-28.1493"/>
<polygon fill="midnightblue" stroke="midnightblue" points="592.282,-31.6203 601.942,-27.2675 591.676,-24.6466 592.282,-31.6203"/>
</g>
<!-- Node13 -->
<g id="node13" class="node"><title>Node13</title>
<g id="a_node13"><a xlink:href="classqtreports_1_1detail_1_1_replacer.html#ae0f12ba0e77e9ef89b9479272e843fe6" target="_top" xlink:title="qtreports::detail::\lReplacer::replaceRowGroups\lInCrosstab">
<polygon fill="none" stroke="black" points="611.5,-108.5 611.5,-149.5 762.5,-149.5 762.5,-108.5 611.5,-108.5"/>
<text text-anchor="start" x="619.5" y="-137.5" font-family="Helvetica,sans-Serif" font-size="10.00">qtreports::detail::</text>
<text text-anchor="start" x="619.5" y="-126.5" font-family="Helvetica,sans-Serif" font-size="10.00">Replacer::replaceRowGroups</text>
<text text-anchor="middle" x="687" y="-115.5" font-family="Helvetica,sans-Serif" font-size="10.00">InCrosstab</text>
</a>
</g>
</g>
<!-- Node10&#45;&gt;Node13 -->
<g id="edge13" class="edge"><title>Node10&#45;&gt;Node13</title>
<path fill="none" stroke="midnightblue" d="M348.521,-93.0197C363.461,-95.9594 379.221,-98.8066 394,-101 463.382,-111.297 542.628,-118.619 601.042,-123.187"/>
<polygon fill="midnightblue" stroke="midnightblue" points="601.092,-126.701 611.332,-123.98 601.63,-119.722 601.092,-126.701"/>
</g>
<!-- Node15 -->
<g id="node15" class="node"><title>Node15</title>
<g id="a_node15"><a xlink:href="classqtreports_1_1detail_1_1_replacer.html#a5dc72251354d389091776142436ebd22" target="_top" xlink:title="qtreports::detail::\lReplacer::replaceCellsInCrosstab">
<polygon fill="none" stroke="black" points="394,-62 394,-92 566,-92 566,-62 394,-62"/>
<text text-anchor="start" x="402" y="-80" font-family="Helvetica,sans-Serif" font-size="10.00">qtreports::detail::</text>
<text text-anchor="middle" x="480" y="-69" font-family="Helvetica,sans-Serif" font-size="10.00">Replacer::replaceCellsInCrosstab</text>
</a>
</g>
</g>
<!-- Node10&#45;&gt;Node15 -->
<g id="edge16" class="edge"><title>Node10&#45;&gt;Node15</title>
<path fill="none" stroke="midnightblue" d="M358.079,-77.6076C366.531,-77.5652 375.2,-77.5216 383.826,-77.4783"/>
<polygon fill="midnightblue" stroke="midnightblue" points="383.934,-80.9779 393.916,-77.4276 383.899,-73.978 383.934,-80.9779"/>
</g>
<!-- Node12 -->
<g id="node12" class="node"><title>Node12</title>
<g id="a_node12"><a xlink:href="classqtreports_1_1detail_1_1_replacer.html#a781b476a4e964da9e5afe4f642b2f275" target="_top" xlink:title="qtreports::detail::\lReplacer::replaceColumnGroup\lInCrosstab">
<polygon fill="none" stroke="black" points="808,-2.5 808,-43.5 972,-43.5 972,-2.5 808,-2.5"/>
<text text-anchor="start" x="816" y="-31.5" font-family="Helvetica,sans-Serif" font-size="10.00">qtreports::detail::</text>
<text text-anchor="start" x="816" y="-20.5" font-family="Helvetica,sans-Serif" font-size="10.00">Replacer::replaceColumnGroup</text>
<text text-anchor="middle" x="890" y="-9.5" font-family="Helvetica,sans-Serif" font-size="10.00">InCrosstab</text>
</a>
</g>
</g>
<!-- Node11&#45;&gt;Node12 -->
<g id="edge11" class="edge"><title>Node11&#45;&gt;Node12</title>
<path fill="none" stroke="midnightblue" d="M772.077,-21.8366C780.583,-21.9212 789.249,-22.0075 797.825,-22.0928"/>
<polygon fill="midnightblue" stroke="midnightblue" points="797.8,-25.5926 807.834,-22.1924 797.869,-18.593 797.8,-25.5926"/>
</g>
<!-- Node12&#45;&gt;Node5 -->
<g id="edge12" class="edge"><title>Node12&#45;&gt;Node5</title>
<path fill="none" stroke="midnightblue" d="M939.887,-43.6131C965.428,-54.3827 996.474,-67.4735 1021.43,-77.9967"/>
<polygon fill="midnightblue" stroke="midnightblue" points="1020.1,-81.2336 1030.67,-81.8939 1022.82,-74.7836 1020.1,-81.2336"/>
</g>
<!-- Node14 -->
<g id="node14" class="node"><title>Node14</title>
<g id="a_node14"><a xlink:href="classqtreports_1_1detail_1_1_replacer.html#a2114b58c90fe02b17e7bf99e144013b6" target="_top" xlink:title="qtreports::detail::\lReplacer::replaceRowGroupIn\lCrosstab">
<polygon fill="none" stroke="black" points="813,-101.5 813,-142.5 967,-142.5 967,-101.5 813,-101.5"/>
<text text-anchor="start" x="821" y="-130.5" font-family="Helvetica,sans-Serif" font-size="10.00">qtreports::detail::</text>
<text text-anchor="start" x="821" y="-119.5" font-family="Helvetica,sans-Serif" font-size="10.00">Replacer::replaceRowGroupIn</text>
<text text-anchor="middle" x="890" y="-108.5" font-family="Helvetica,sans-Serif" font-size="10.00">Crosstab</text>
</a>
</g>
</g>
<!-- Node13&#45;&gt;Node14 -->
<g id="edge14" class="edge"><title>Node13&#45;&gt;Node14</title>
<path fill="none" stroke="midnightblue" d="M762.559,-126.403C775.647,-125.948 789.364,-125.47 802.738,-125.004"/>
<polygon fill="midnightblue" stroke="midnightblue" points="803.01,-128.497 812.882,-124.651 802.767,-121.501 803.01,-128.497"/>
</g>
<!-- Node14&#45;&gt;Node5 -->
<g id="edge15" class="edge"><title>Node14&#45;&gt;Node5</title>
<path fill="none" stroke="midnightblue" d="M967.211,-111.144C977.41,-109.691 987.82,-108.208 997.878,-106.775"/>
<polygon fill="midnightblue" stroke="midnightblue" points="998.391,-110.238 1007.8,-105.362 997.404,-103.308 998.391,-110.238"/>
</g>
<!-- Node15&#45;&gt;Node11 -->
<g id="edge18" class="edge"><title>Node15&#45;&gt;Node11</title>
<path fill="none" stroke="midnightblue" d="M535.936,-61.993C555.979,-56.518 579.139,-50.1913 601.175,-44.1717"/>
<polygon fill="midnightblue" stroke="midnightblue" points="602.146,-47.5347 610.87,-41.5232 600.302,-40.7821 602.146,-47.5347"/>
</g>
<!-- Node15&#45;&gt;Node13 -->
<g id="edge17" class="edge"><title>Node15&#45;&gt;Node13</title>
<path fill="none" stroke="midnightblue" d="M540.294,-92.0406C559.298,-96.8609 580.726,-102.296 601.185,-107.486"/>
<polygon fill="midnightblue" stroke="midnightblue" points="600.582,-110.944 611.136,-110.01 602.304,-104.159 600.582,-110.944"/>
</g>
<!-- Node16 -->
<g id="node16" class="node"><title>Node16</title>
<g id="a_node16"><a xlink:href="classqtreports_1_1detail_1_1_replacer.html#a9ad7270fd6bdb9a2ba85bdc9652968c8" target="_top" xlink:title="qtreports::detail::\lReplacer::replaceCellInCrosstab">
<polygon fill="none" stroke="black" points="603.5,-60 603.5,-90 770.5,-90 770.5,-60 603.5,-60"/>
<text text-anchor="start" x="611.5" y="-78" font-family="Helvetica,sans-Serif" font-size="10.00">qtreports::detail::</text>
<text text-anchor="middle" x="687" y="-67" font-family="Helvetica,sans-Serif" font-size="10.00">Replacer::replaceCellInCrosstab</text>
</a>
</g>
</g>
<!-- Node15&#45;&gt;Node16 -->
<g id="edge19" class="edge"><title>Node15&#45;&gt;Node16</title>
<path fill="none" stroke="midnightblue" d="M566.158,-76.1692C575.109,-76.0819 584.243,-75.9928 593.274,-75.9046"/>
<polygon fill="midnightblue" stroke="midnightblue" points="593.447,-79.4032 603.413,-75.8057 593.379,-72.4036 593.447,-79.4032"/>
</g>
<!-- Node16&#45;&gt;Node5 -->
<g id="edge20" class="edge"><title>Node16&#45;&gt;Node5</title>
<path fill="none" stroke="midnightblue" d="M770.596,-79.8008C838.489,-83.747 933.572,-89.2737 997.463,-92.9873"/>
<polygon fill="midnightblue" stroke="midnightblue" points="997.647,-96.5038 1007.83,-93.5901 998.053,-89.5156 997.647,-96.5038"/>
</g>
</g>
</svg>
