<?xml version="1.0" encoding="UTF-8" standalone="no"?>
<!DOCTYPE svg PUBLIC "-//W3C//DTD SVG 1.1//EN"
 "http://www.w3.org/Graphics/SVG/1.1/DTD/svg11.dtd">
<!-- Generated by graphviz version 2.38.0 (20140413.2041)
 -->
<!-- Title: qtreports::detail::ConverterToHTML::convert Pages: 1 -->
<svg width="1883pt" height="484pt"
 viewBox="0.00 0.00 1883.00 483.50" xmlns="http://www.w3.org/2000/svg" xmlns:xlink="http://www.w3.org/1999/xlink">
<g id="graph0" class="graph" transform="scale(1 1) rotate(0) translate(4 479.5)">
<title>qtreports::detail::ConverterToHTML::convert</title>
<!-- Node1 -->
<g id="node1" class="node"><title>Node1</title>
<polygon fill="#bfbfbf" stroke="black" points="0,-298 0,-328 142,-328 142,-298 0,-298"/>
<text text-anchor="start" x="8" y="-316" font-family="Helvetica,sans-Serif" font-size="10.00">qtreports::detail::</text>
<text text-anchor="middle" x="71" y="-305" font-family="Helvetica,sans-Serif" font-size="10.00">ConverterToHTML::convert</text>
</g>
<!-- Node2 -->
<g id="node2" class="node"><title>Node2</title>
<g id="a_node2"><a xlink:href="classqtreports_1_1detail_1_1_converter_to_h_t_m_l.html#ad91ac333abf7d02f7590970a54ef7aae" target="_top" xlink:title="qtreports::detail::\lConverterToHTML::convert">
<polygon fill="none" stroke="black" points="178,-298 178,-328 320,-328 320,-298 178,-298"/>
<text text-anchor="start" x="186" y="-316" font-family="Helvetica,sans-Serif" font-size="10.00">qtreports::detail::</text>
<text text-anchor="middle" x="249" y="-305" font-family="Helvetica,sans-Serif" font-size="10.00">ConverterToHTML::convert</text>
</a>
</g>
</g>
<!-- Node1&#45;&gt;Node2 -->
<g id="edge1" class="edge"><title>Node1&#45;&gt;Node2</title>
<path fill="none" stroke="midnightblue" d="M142.066,-313C150.54,-313 159.247,-313 167.852,-313"/>
<polygon fill="midnightblue" stroke="midnightblue" points="167.888,-316.5 177.888,-313 167.888,-309.5 167.888,-316.5"/>
</g>
<!-- Node3 -->
<g id="node3" class="node"><title>Node3</title>
<g id="a_node3"><a xlink:href="classqtreports_1_1detail_1_1_converter_to_h_t_m_l.html#ace8358a3612fc8085b7c34f1f92341e2" target="_top" xlink:title="qtreports::detail::\lConverterToHTML::createHTML">
<polygon fill="none" stroke="black" points="356,-298 356,-328 519,-328 519,-298 356,-298"/>
<text text-anchor="start" x="364" y="-316" font-family="Helvetica,sans-Serif" font-size="10.00">qtreports::detail::</text>
<text text-anchor="middle" x="437.5" y="-305" font-family="Helvetica,sans-Serif" font-size="10.00">ConverterToHTML::createHTML</text>
</a>
</g>
</g>
<!-- Node2&#45;&gt;Node3 -->
<g id="edge2" class="edge"><title>Node2&#45;&gt;Node3</title>
<path fill="none" stroke="midnightblue" d="M320.242,-313C328.628,-313 337.279,-313 345.9,-313"/>
<polygon fill="midnightblue" stroke="midnightblue" points="345.989,-316.5 355.989,-313 345.989,-309.5 345.989,-316.5"/>
</g>
<!-- Node4 -->
<g id="node4" class="node"><title>Node4</title>
<g id="a_node4"><a xlink:href="classqtreports_1_1detail_1_1_style.html#ae233bf8f53b1ceb560398925a50fcb44" target="_top" xlink:title="qtreports::detail::\lStyle::getFontName">
<polygon fill="none" stroke="black" points="577.5,-445 577.5,-475 690.5,-475 690.5,-445 577.5,-445"/>
<text text-anchor="start" x="585.5" y="-463" font-family="Helvetica,sans-Serif" font-size="10.00">qtreports::detail::</text>
<text text-anchor="middle" x="634" y="-452" font-family="Helvetica,sans-Serif" font-size="10.00">Style::getFontName</text>
</a>
</g>
</g>
<!-- Node3&#45;&gt;Node4 -->
<g id="edge3" class="edge"><title>Node3&#45;&gt;Node4</title>
<path fill="none" stroke="midnightblue" d="M448.848,-328.252C467.213,-354.173 508.02,-406.838 555,-436 559.074,-438.529 563.434,-440.808 567.933,-442.861"/>
<polygon fill="midnightblue" stroke="midnightblue" points="566.74,-446.155 577.317,-446.76 569.426,-439.691 566.74,-446.155"/>
</g>
<!-- Node5 -->
<g id="node5" class="node"><title>Node5</title>
<g id="a_node5"><a xlink:href="classqtreports_1_1detail_1_1_style.html#ac969a5ba6cd39a890a72ec4146ba8dda" target="_top" xlink:title="qtreports::detail::\lStyle::getFontSize">
<polygon fill="none" stroke="black" points="582,-396 582,-426 686,-426 686,-396 582,-396"/>
<text text-anchor="start" x="590" y="-414" font-family="Helvetica,sans-Serif" font-size="10.00">qtreports::detail::</text>
<text text-anchor="middle" x="634" y="-403" font-family="Helvetica,sans-Serif" font-size="10.00">Style::getFontSize</text>
</a>
</g>
</g>
<!-- Node3&#45;&gt;Node5 -->
<g id="edge4" class="edge"><title>Node3&#45;&gt;Node5</title>
<path fill="none" stroke="midnightblue" d="M458.588,-328.126C481.081,-344.486 519.1,-370.44 555,-387 560.44,-389.509 566.21,-391.844 572.054,-393.994"/>
<polygon fill="midnightblue" stroke="midnightblue" points="571.317,-397.444 581.912,-397.436 573.624,-390.835 571.317,-397.444"/>
</g>
<!-- Node6 -->
<g id="node6" class="node"><title>Node6</title>
<g id="a_node6"><a xlink:href="classqtreports_1_1detail_1_1_style.html#a2d8d9d0d898c4306e47dcca067c60c28" target="_top" xlink:title="qtreports::detail::\lStyle::getFontColor">
<polygon fill="none" stroke="black" points="580,-347 580,-377 688,-377 688,-347 580,-347"/>
<text text-anchor="start" x="588" y="-365" font-family="Helvetica,sans-Serif" font-size="10.00">qtreports::detail::</text>
<text text-anchor="middle" x="634" y="-354" font-family="Helvetica,sans-Serif" font-size="10.00">Style::getFontColor</text>
</a>
</g>
</g>
<!-- Node3&#45;&gt;Node6 -->
<g id="edge5" class="edge"><title>Node3&#45;&gt;Node6</title>
<path fill="none" stroke="midnightblue" d="M498.178,-328.035C520.843,-333.744 546.725,-340.265 569.712,-346.056"/>
<polygon fill="midnightblue" stroke="midnightblue" points="569.155,-349.525 579.707,-348.574 570.865,-342.737 569.155,-349.525"/>
</g>
<!-- Node7 -->
<g id="node7" class="node"><title>Node7</title>
<g id="a_node7"><a xlink:href="classqtreports_1_1detail_1_1_style.html#a058eab1051810ffdb26d43fb08e523c9" target="_top" xlink:title="qtreports::detail::\lStyle::isItalic">
<polygon fill="none" stroke="black" points="584.5,-298 584.5,-328 683.5,-328 683.5,-298 584.5,-298"/>
<text text-anchor="start" x="592.5" y="-316" font-family="Helvetica,sans-Serif" font-size="10.00">qtreports::detail::</text>
<text text-anchor="middle" x="634" y="-305" font-family="Helvetica,sans-Serif" font-size="10.00">Style::isItalic</text>
</a>
</g>
</g>
<!-- Node3&#45;&gt;Node7 -->
<g id="edge6" class="edge"><title>Node3&#45;&gt;Node7</title>
<path fill="none" stroke="midnightblue" d="M519.015,-313C537.362,-313 556.529,-313 573.797,-313"/>
<polygon fill="midnightblue" stroke="midnightblue" points="574.278,-316.5 584.278,-313 574.278,-309.5 574.278,-316.5"/>
</g>
<!-- Node8 -->
<g id="node8" class="node"><title>Node8</title>
<g id="a_node8"><a xlink:href="classqtreports_1_1detail_1_1_style.html#a9f4c8c581c08ffd758fbd3e1b93dee07" target="_top" xlink:title="qtreports::detail::\lStyle::isBold">
<polygon fill="none" stroke="black" points="584.5,-249 584.5,-279 683.5,-279 683.5,-249 584.5,-249"/>
<text text-anchor="start" x="592.5" y="-267" font-family="Helvetica,sans-Serif" font-size="10.00">qtreports::detail::</text>
<text text-anchor="middle" x="634" y="-256" font-family="Helvetica,sans-Serif" font-size="10.00">Style::isBold</text>
</a>
</g>
</g>
<!-- Node3&#45;&gt;Node8 -->
<g id="edge7" class="edge"><title>Node3&#45;&gt;Node8</title>
<path fill="none" stroke="midnightblue" d="M498.178,-297.965C522.42,-291.858 550.343,-284.824 574.467,-278.746"/>
<polygon fill="midnightblue" stroke="midnightblue" points="575.36,-282.13 584.202,-276.293 573.65,-275.343 575.36,-282.13"/>
</g>
<!-- Node9 -->
<g id="node9" class="node"><title>Node9</title>
<g id="a_node9"><a xlink:href="classqtreports_1_1detail_1_1_converter_to_h_t_m_l.html#acd1d271ed38019d408d8597000e974be" target="_top" xlink:title="qtreports::detail::\lConverterToHTML::addBand">
<polygon fill="none" stroke="black" points="749,-146 749,-176 898,-176 898,-146 749,-146"/>
<text text-anchor="start" x="757" y="-164" font-family="Helvetica,sans-Serif" font-size="10.00">qtreports::detail::</text>
<text text-anchor="middle" x="823.5" y="-153" font-family="Helvetica,sans-Serif" font-size="10.00">ConverterToHTML::addBand</text>
</a>
</g>
</g>
<!-- Node3&#45;&gt;Node9 -->
<g id="edge8" class="edge"><title>Node3&#45;&gt;Node9</title>
<path fill="none" stroke="midnightblue" d="M446.555,-297.59C462.672,-268.569 501.946,-206.363 555,-180 611.718,-151.816 683.691,-148.22 738.691,-151.039"/>
<polygon fill="midnightblue" stroke="midnightblue" points="738.566,-154.538 748.756,-151.636 738.981,-147.55 738.566,-154.538"/>
</g>
<!-- Node26 -->
<g id="node26" class="node"><title>Node26</title>
<g id="a_node26"><a xlink:href="classqtreports_1_1detail_1_1_converter_to_h_t_m_l.html#a602c8f3bd3bc44df48b2edcee8bcdfa0" target="_top" xlink:title="qtreports::detail::\lConverterToHTML::addGroups\lIntoReport">
<polygon fill="none" stroke="black" points="555,-189.5 555,-230.5 713,-230.5 713,-189.5 555,-189.5"/>
<text text-anchor="start" x="563" y="-218.5" font-family="Helvetica,sans-Serif" font-size="10.00">qtreports::detail::</text>
<text text-anchor="start" x="563" y="-207.5" font-family="Helvetica,sans-Serif" font-size="10.00">ConverterToHTML::addGroups</text>
<text text-anchor="middle" x="634" y="-196.5" font-family="Helvetica,sans-Serif" font-size="10.00">IntoReport</text>
</a>
</g>
</g>
<!-- Node3&#45;&gt;Node26 -->
<g id="edge30" class="edge"><title>Node3&#45;&gt;Node26</title>
<path fill="none" stroke="midnightblue" d="M459.187,-297.97C481.892,-281.932 519.805,-256.478 555,-239 558.069,-237.476 561.239,-235.985 564.465,-234.535"/>
<polygon fill="midnightblue" stroke="midnightblue" points="565.874,-237.739 573.666,-230.56 563.098,-231.313 565.874,-237.739"/>
</g>
<!-- Node10 -->
<g id="node10" class="node"><title>Node10</title>
<g id="a_node10"><a xlink:href="classqtreports_1_1detail_1_1_replacer.html#af7ccb83be264f7c72b7485cf38455450" target="_top" xlink:title="qtreports::detail::\lReplacer::replace">
<polygon fill="none" stroke="black" points="970.5,-48 970.5,-78 1069.5,-78 1069.5,-48 970.5,-48"/>
<text text-anchor="start" x="978.5" y="-66" font-family="Helvetica,sans-Serif" font-size="10.00">qtreports::detail::</text>
<text text-anchor="middle" x="1020" y="-55" font-family="Helvetica,sans-Serif" font-size="10.00">Replacer::replace</text>
</a>
</g>
</g>
<!-- Node9&#45;&gt;Node10 -->
<g id="edge9" class="edge"><title>Node9&#45;&gt;Node10</title>
<path fill="none" stroke="midnightblue" d="M842.777,-145.941C863.669,-129.394 899.455,-103.042 934,-87 942.375,-83.1109 951.513,-79.7235 960.592,-76.8169"/>
<polygon fill="midnightblue" stroke="midnightblue" points="961.826,-80.1002 970.381,-73.8507 959.796,-73.4009 961.826,-80.1002"/>
</g>
<!-- Node17 -->
<g id="node17" class="node"><title>Node17</title>
<g id="a_node17"><a xlink:href="classqtreports_1_1detail_1_1_replacer.html#a677f7802e444f2de3af4cb43b6cedf30" target="_top" xlink:title="qtreports::detail::\lReplacer::getLastError">
<polygon fill="none" stroke="black" points="959,-146 959,-176 1081,-176 1081,-146 959,-146"/>
<text text-anchor="start" x="967" y="-164" font-family="Helvetica,sans-Serif" font-size="10.00">qtreports::detail::</text>
<text text-anchor="middle" x="1020" y="-153" font-family="Helvetica,sans-Serif" font-size="10.00">Replacer::getLastError</text>
</a>
</g>
</g>
<!-- Node9&#45;&gt;Node17 -->
<g id="edge16" class="edge"><title>Node9&#45;&gt;Node17</title>
<path fill="none" stroke="midnightblue" d="M898.032,-161C914.691,-161 932.339,-161 948.854,-161"/>
<polygon fill="midnightblue" stroke="midnightblue" points="948.972,-164.5 958.972,-161 948.971,-157.5 948.972,-164.5"/>
</g>
<!-- Node18 -->
<g id="node18" class="node"><title>Node18</title>
<g id="a_node18"><a xlink:href="classqtreports_1_1detail_1_1_converter_to_h_t_m_l.html#a76b4b701d1182ddd78d612d3b23be043" target="_top" xlink:title="qtreports::detail::\lConverterToHTML::addShapes">
<polygon fill="none" stroke="black" points="940,-97 940,-127 1100,-127 1100,-97 940,-97"/>
<text text-anchor="start" x="948" y="-115" font-family="Helvetica,sans-Serif" font-size="10.00">qtreports::detail::</text>
<text text-anchor="middle" x="1020" y="-104" font-family="Helvetica,sans-Serif" font-size="10.00">ConverterToHTML::addShapes</text>
</a>
</g>
</g>
<!-- Node9&#45;&gt;Node18 -->
<g id="edge17" class="edge"><title>Node9&#45;&gt;Node18</title>
<path fill="none" stroke="midnightblue" d="M884.178,-145.965C904.808,-140.768 928.103,-134.899 949.455,-129.52"/>
<polygon fill="midnightblue" stroke="midnightblue" points="950.593,-132.843 959.435,-127.006 948.883,-126.055 950.593,-132.843"/>
</g>
<!-- Node19 -->
<g id="node19" class="node"><title>Node19</title>
<g id="a_node19"><a xlink:href="classqtreports_1_1detail_1_1_converter_to_h_t_m_l.html#a5b8d80606e58c8bcdadc7ce6134e9c2f" target="_top" xlink:title="qtreports::detail::\lConverterToHTML::addCrosstabs\lIntoReport">
<polygon fill="none" stroke="black" points="934,-194.5 934,-235.5 1106,-235.5 1106,-194.5 934,-194.5"/>
<text text-anchor="start" x="942" y="-223.5" font-family="Helvetica,sans-Serif" font-size="10.00">qtreports::detail::</text>
<text text-anchor="start" x="942" y="-212.5" font-family="Helvetica,sans-Serif" font-size="10.00">ConverterToHTML::addCrosstabs</text>
<text text-anchor="middle" x="1020" y="-201.5" font-family="Helvetica,sans-Serif" font-size="10.00">IntoReport</text>
</a>
</g>
</g>
<!-- Node9&#45;&gt;Node19 -->
<g id="edge18" class="edge"><title>Node9&#45;&gt;Node19</title>
<path fill="none" stroke="midnightblue" d="M878.679,-176.042C896.276,-180.928 916.231,-186.468 935.456,-191.805"/>
<polygon fill="midnightblue" stroke="midnightblue" points="934.551,-195.186 945.123,-194.489 936.424,-188.442 934.551,-195.186"/>
</g>
<!-- Node11 -->
<g id="node11" class="node"><title>Node11</title>
<g id="a_node11"><a xlink:href="classqtreports_1_1detail_1_1_replacer.html#a58cf857aa78eb3e273f6543769af425b" target="_top" xlink:title="qtreports::detail::\lReplacer::replaceFieldInSection">
<polygon fill="none" stroke="black" points="1146,-25 1146,-55 1310,-55 1310,-25 1146,-25"/>
<text text-anchor="start" x="1154" y="-43" font-family="Helvetica,sans-Serif" font-size="10.00">qtreports::detail::</text>
<text text-anchor="middle" x="1228" y="-32" font-family="Helvetica,sans-Serif" font-size="10.00">Replacer::replaceFieldInSection</text>
</a>
</g>
</g>
<!-- Node10&#45;&gt;Node11 -->
<g id="edge10" class="edge"><title>Node10&#45;&gt;Node11</title>
<path fill="none" stroke="midnightblue" d="M1069.56,-57.5784C1089.35,-55.3688 1112.9,-52.739 1135.68,-50.1954"/>
<polygon fill="midnightblue" stroke="midnightblue" points="1136.18,-53.6616 1145.73,-49.0735 1135.41,-46.7048 1136.18,-53.6616"/>
</g>
<!-- Node16 -->
<g id="node16" class="node"><title>Node16</title>
<g id="a_node16"><a xlink:href="classqtreports_1_1detail_1_1_replacer.html#abb903f1c1172efa7e26b040a5695cc86" target="_top" xlink:title="qtreports::detail::\lReplacer::replaceParameters">
<polygon fill="none" stroke="black" points="1151,-74 1151,-104 1305,-104 1305,-74 1151,-74"/>
<text text-anchor="start" x="1159" y="-92" font-family="Helvetica,sans-Serif" font-size="10.00">qtreports::detail::</text>
<text text-anchor="middle" x="1228" y="-81" font-family="Helvetica,sans-Serif" font-size="10.00">Replacer::replaceParameters</text>
</a>
</g>
</g>
<!-- Node10&#45;&gt;Node16 -->
<g id="edge15" class="edge"><title>Node10&#45;&gt;Node16</title>
<path fill="none" stroke="midnightblue" d="M1069.56,-69.1287C1090.89,-71.8205 1116.58,-75.0639 1140.97,-78.1425"/>
<polygon fill="midnightblue" stroke="midnightblue" points="1140.61,-81.6238 1150.97,-79.4037 1141.48,-74.6789 1140.61,-81.6238"/>
</g>
<!-- Node12 -->
<g id="node12" class="node"><title>Node12</title>
<g id="a_node12"><a xlink:href="classqtreports_1_1detail_1_1_replacer.html#a2be57bd514335f9b9f2a520247562ce1" target="_top" xlink:title="qtreports::detail::\lReplacer::replaceFieldInText\lWidget">
<polygon fill="none" stroke="black" points="1565,-0.5 1565,-41.5 1711,-41.5 1711,-0.5 1565,-0.5"/>
<text text-anchor="start" x="1573" y="-29.5" font-family="Helvetica,sans-Serif" font-size="10.00">qtreports::detail::</text>
<text text-anchor="start" x="1573" y="-18.5" font-family="Helvetica,sans-Serif" font-size="10.00">Replacer::replaceFieldInText</text>
<text text-anchor="middle" x="1638" y="-7.5" font-family="Helvetica,sans-Serif" font-size="10.00">Widget</text>
</a>
</g>
</g>
<!-- Node11&#45;&gt;Node12 -->
<g id="edge11" class="edge"><title>Node11&#45;&gt;Node12</title>
<path fill="none" stroke="midnightblue" d="M1310.1,-36.2235C1380.98,-32.9227 1483.41,-28.1523 1554.66,-24.8344"/>
<polygon fill="midnightblue" stroke="midnightblue" points="1555.11,-28.3173 1564.94,-24.3558 1554.79,-21.3249 1555.11,-28.3173"/>
</g>
<!-- Node14 -->
<g id="node14" class="node"><title>Node14</title>
<g id="a_node14"><a xlink:href="classqtreports_1_1detail_1_1_replacer.html#a4aeb7794f90c0be34a30ab60a6df1920" target="_top" xlink:title="qtreports::detail::\lReplacer::replaceFieldInImage\lWidget">
<polygon fill="none" stroke="black" points="1356,-49.5 1356,-90.5 1514,-90.5 1514,-49.5 1356,-49.5"/>
<text text-anchor="start" x="1364" y="-78.5" font-family="Helvetica,sans-Serif" font-size="10.00">qtreports::detail::</text>
<text text-anchor="start" x="1364" y="-67.5" font-family="Helvetica,sans-Serif" font-size="10.00">Replacer::replaceFieldInImage</text>
<text text-anchor="middle" x="1435" y="-56.5" font-family="Helvetica,sans-Serif" font-size="10.00">Widget</text>
</a>
</g>
</g>
<!-- Node11&#45;&gt;Node14 -->
<g id="edge13" class="edge"><title>Node11&#45;&gt;Node14</title>
<path fill="none" stroke="midnightblue" d="M1310.02,-51.8568C1321.83,-53.5842 1334.03,-55.3697 1345.96,-57.1163"/>
<polygon fill="midnightblue" stroke="midnightblue" points="1345.51,-60.5871 1355.91,-58.572 1346.52,-53.6608 1345.51,-60.5871"/>
</g>
<!-- Node13 -->
<g id="node13" class="node"><title>Node13</title>
<g id="a_node13"><a xlink:href="classqtreports_1_1detail_1_1_replacer.html#a4642b07160798f2ee4de276e1d0c1ecd" target="_top" xlink:title="qtreports::detail::\lReplacer::replaceField">
<polygon fill="none" stroke="black" points="1756,-169 1756,-199 1875,-199 1875,-169 1756,-169"/>
<text text-anchor="start" x="1764" y="-187" font-family="Helvetica,sans-Serif" font-size="10.00">qtreports::detail::</text>
<text text-anchor="middle" x="1815.5" y="-176" font-family="Helvetica,sans-Serif" font-size="10.00">Replacer::replaceField</text>
</a>
</g>
</g>
<!-- Node12&#45;&gt;Node13 -->
<g id="edge12" class="edge"><title>Node12&#45;&gt;Node13</title>
<path fill="none" stroke="midnightblue" d="M1706.97,-41.6658C1711.56,-44.1567 1715.96,-46.9258 1720,-50 1758.88,-79.5707 1788.1,-129.708 1803.14,-159.552"/>
<polygon fill="midnightblue" stroke="midnightblue" points="1800.14,-161.397 1807.69,-168.836 1806.43,-158.316 1800.14,-161.397"/>
</g>
<!-- Node15 -->
<g id="node15" class="node"><title>Node15</title>
<g id="a_node15"><a xlink:href="classqtreports_1_1detail_1_1_replacer.html#ae1ac521aeaf5fdd694e79e2ae52d4704" target="_top" xlink:title="qtreports::detail::\lReplacer::replaceFieldImage">
<polygon fill="none" stroke="black" points="1563.5,-60 1563.5,-90 1712.5,-90 1712.5,-60 1563.5,-60"/>
<text text-anchor="start" x="1571.5" y="-78" font-family="Helvetica,sans-Serif" font-size="10.00">qtreports::detail::</text>
<text text-anchor="middle" x="1638" y="-67" font-family="Helvetica,sans-Serif" font-size="10.00">Replacer::replaceFieldImage</text>
</a>
</g>
</g>
<!-- Node14&#45;&gt;Node15 -->
<g id="edge14" class="edge"><title>Node14&#45;&gt;Node15</title>
<path fill="none" stroke="midnightblue" d="M1514.29,-71.9474C1526.99,-72.2633 1540.18,-72.5916 1553.01,-72.9107"/>
<polygon fill="midnightblue" stroke="midnightblue" points="1553.12,-76.4144 1563.2,-73.1643 1553.29,-69.4166 1553.12,-76.4144"/>
</g>
<!-- Node20 -->
<g id="node20" class="node"><title>Node20</title>
<g id="a_node20"><a xlink:href="classqtreports_1_1detail_1_1_replacer.html#aa9fa83cf51d75301b62e11a0a93e2dcc" target="_top" xlink:title="qtreports::detail::\lReplacer::replaceColumnGroups\lInCrosstab">
<polygon fill="none" stroke="black" points="1350,-217.5 1350,-258.5 1520,-258.5 1520,-217.5 1350,-217.5"/>
<text text-anchor="start" x="1358" y="-246.5" font-family="Helvetica,sans-Serif" font-size="10.00">qtreports::detail::</text>
<text text-anchor="start" x="1358" y="-235.5" font-family="Helvetica,sans-Serif" font-size="10.00">Replacer::replaceColumnGroups</text>
<text text-anchor="middle" x="1435" y="-224.5" font-family="Helvetica,sans-Serif" font-size="10.00">InCrosstab</text>
</a>
</g>
</g>
<!-- Node19&#45;&gt;Node20 -->
<g id="edge19" class="edge"><title>Node19&#45;&gt;Node20</title>
<path fill="none" stroke="midnightblue" d="M1106.07,-219.738C1174.04,-223.523 1269.23,-228.824 1339.56,-232.74"/>
<polygon fill="midnightblue" stroke="midnightblue" points="1339.57,-236.246 1349.74,-233.308 1339.95,-229.257 1339.57,-236.246"/>
</g>
<!-- Node22 -->
<g id="node22" class="node"><title>Node22</title>
<g id="a_node22"><a xlink:href="classqtreports_1_1detail_1_1_replacer.html#ae0f12ba0e77e9ef89b9479272e843fe6" target="_top" xlink:title="qtreports::detail::\lReplacer::replaceRowGroups\lInCrosstab">
<polygon fill="none" stroke="black" points="1359.5,-109.5 1359.5,-150.5 1510.5,-150.5 1510.5,-109.5 1359.5,-109.5"/>
<text text-anchor="start" x="1367.5" y="-138.5" font-family="Helvetica,sans-Serif" font-size="10.00">qtreports::detail::</text>
<text text-anchor="start" x="1367.5" y="-127.5" font-family="Helvetica,sans-Serif" font-size="10.00">Replacer::replaceRowGroups</text>
<text text-anchor="middle" x="1435" y="-116.5" font-family="Helvetica,sans-Serif" font-size="10.00">InCrosstab</text>
</a>
</g>
</g>
<!-- Node19&#45;&gt;Node22 -->
<g id="edge22" class="edge"><title>Node19&#45;&gt;Node22</title>
<path fill="none" stroke="midnightblue" d="M1082.18,-194.439C1090.25,-191.426 1098.37,-188.241 1106,-185 1122.47,-178.01 1124.88,-172.198 1142,-167 1209.94,-146.366 1290.16,-137.23 1349.31,-133.191"/>
<polygon fill="midnightblue" stroke="midnightblue" points="1349.61,-136.679 1359.36,-132.539 1349.15,-129.694 1349.61,-136.679"/>
</g>
<!-- Node24 -->
<g id="node24" class="node"><title>Node24</title>
<g id="a_node24"><a xlink:href="classqtreports_1_1detail_1_1_replacer.html#a5dc72251354d389091776142436ebd22" target="_top" xlink:title="qtreports::detail::\lReplacer::replaceCellsInCrosstab">
<polygon fill="none" stroke="black" points="1142,-177 1142,-207 1314,-207 1314,-177 1142,-177"/>
<text text-anchor="start" x="1150" y="-195" font-family="Helvetica,sans-Serif" font-size="10.00">qtreports::detail::</text>
<text text-anchor="middle" x="1228" y="-184" font-family="Helvetica,sans-Serif" font-size="10.00">Replacer::replaceCellsInCrosstab</text>
</a>
</g>
</g>
<!-- Node19&#45;&gt;Node24 -->
<g id="edge25" class="edge"><title>Node19&#45;&gt;Node24</title>
<path fill="none" stroke="midnightblue" d="M1106.28,-205.479C1114.71,-204.537 1123.3,-203.578 1131.83,-202.626"/>
<polygon fill="midnightblue" stroke="midnightblue" points="1132.24,-206.102 1141.79,-201.514 1131.46,-199.145 1132.24,-206.102"/>
</g>
<!-- Node21 -->
<g id="node21" class="node"><title>Node21</title>
<g id="a_node21"><a xlink:href="classqtreports_1_1detail_1_1_replacer.html#a781b476a4e964da9e5afe4f642b2f275" target="_top" xlink:title="qtreports::detail::\lReplacer::replaceColumnGroup\lInCrosstab">
<polygon fill="none" stroke="black" points="1556,-215.5 1556,-256.5 1720,-256.5 1720,-215.5 1556,-215.5"/>
<text text-anchor="start" x="1564" y="-244.5" font-family="Helvetica,sans-Serif" font-size="10.00">qtreports::detail::</text>
<text text-anchor="start" x="1564" y="-233.5" font-family="Helvetica,sans-Serif" font-size="10.00">Replacer::replaceColumnGroup</text>
<text text-anchor="middle" x="1638" y="-222.5" font-family="Helvetica,sans-Serif" font-size="10.00">InCrosstab</text>
</a>
</g>
</g>
<!-- Node20&#45;&gt;Node21 -->
<g id="edge20" class="edge"><title>Node20&#45;&gt;Node21</title>
<path fill="none" stroke="midnightblue" d="M1520.08,-237.163C1528.58,-237.079 1537.25,-236.993 1545.82,-236.907"/>
<polygon fill="midnightblue" stroke="midnightblue" points="1545.87,-240.407 1555.83,-236.808 1545.8,-233.407 1545.87,-240.407"/>
</g>
<!-- Node21&#45;&gt;Node13 -->
<g id="edge21" class="edge"><title>Node21&#45;&gt;Node13</title>
<path fill="none" stroke="midnightblue" d="M1708.36,-215.448C1723.39,-210.997 1739.16,-206.322 1753.82,-201.978"/>
<polygon fill="midnightblue" stroke="midnightblue" points="1755.18,-205.227 1763.77,-199.031 1753.19,-198.516 1755.18,-205.227"/>
</g>
<!-- Node23 -->
<g id="node23" class="node"><title>Node23</title>
<g id="a_node23"><a xlink:href="classqtreports_1_1detail_1_1_replacer.html#a2114b58c90fe02b17e7bf99e144013b6" target="_top" xlink:title="qtreports::detail::\lReplacer::replaceRowGroupIn\lCrosstab">
<polygon fill="none" stroke="black" points="1561,-112.5 1561,-153.5 1715,-153.5 1715,-112.5 1561,-112.5"/>
<text text-anchor="start" x="1569" y="-141.5" font-family="Helvetica,sans-Serif" font-size="10.00">qtreports::detail::</text>
<text text-anchor="start" x="1569" y="-130.5" font-family="Helvetica,sans-Serif" font-size="10.00">Replacer::replaceRowGroupIn</text>
<text text-anchor="middle" x="1638" y="-119.5" font-family="Helvetica,sans-Serif" font-size="10.00">Crosstab</text>
</a>
</g>
</g>
<!-- Node22&#45;&gt;Node23 -->
<g id="edge23" class="edge"><title>Node22&#45;&gt;Node23</title>
<path fill="none" stroke="midnightblue" d="M1510.56,-131.113C1523.65,-131.308 1537.36,-131.513 1550.74,-131.713"/>
<polygon fill="midnightblue" stroke="midnightblue" points="1550.83,-135.214 1560.88,-131.864 1550.94,-128.215 1550.83,-135.214"/>
</g>
<!-- Node23&#45;&gt;Node13 -->
<g id="edge24" class="edge"><title>Node23&#45;&gt;Node13</title>
<path fill="none" stroke="midnightblue" d="M1709.62,-153.523C1723.88,-157.666 1738.76,-161.991 1752.69,-166.038"/>
<polygon fill="midnightblue" stroke="midnightblue" points="1752.06,-169.499 1762.64,-168.929 1754.01,-162.777 1752.06,-169.499"/>
</g>
<!-- Node24&#45;&gt;Node20 -->
<g id="edge27" class="edge"><title>Node24&#45;&gt;Node20</title>
<path fill="none" stroke="midnightblue" d="M1296.12,-207.062C1310.07,-210.192 1325.01,-213.545 1339.73,-216.847"/>
<polygon fill="midnightblue" stroke="midnightblue" points="1339.34,-220.347 1349.87,-219.121 1340.87,-213.516 1339.34,-220.347"/>
</g>
<!-- Node24&#45;&gt;Node22 -->
<g id="edge26" class="edge"><title>Node24&#45;&gt;Node22</title>
<path fill="none" stroke="midnightblue" d="M1278.62,-176.992C1301.85,-169.969 1330.05,-161.438 1356.03,-153.582"/>
<polygon fill="midnightblue" stroke="midnightblue" points="1357.3,-156.854 1365.86,-150.609 1355.27,-150.154 1357.3,-156.854"/>
</g>
<!-- Node25 -->
<g id="node25" class="node"><title>Node25</title>
<g id="a_node25"><a xlink:href="classqtreports_1_1detail_1_1_replacer.html#a9ad7270fd6bdb9a2ba85bdc9652968c8" target="_top" xlink:title="qtreports::detail::\lReplacer::replaceCellInCrosstab">
<polygon fill="none" stroke="black" points="1351.5,-169 1351.5,-199 1518.5,-199 1518.5,-169 1351.5,-169"/>
<text text-anchor="start" x="1359.5" y="-187" font-family="Helvetica,sans-Serif" font-size="10.00">qtreports::detail::</text>
<text text-anchor="middle" x="1435" y="-176" font-family="Helvetica,sans-Serif" font-size="10.00">Replacer::replaceCellInCrosstab</text>
</a>
</g>
</g>
<!-- Node24&#45;&gt;Node25 -->
<g id="edge28" class="edge"><title>Node24&#45;&gt;Node25</title>
<path fill="none" stroke="midnightblue" d="M1314.16,-188.677C1323.11,-188.327 1332.24,-187.971 1341.27,-187.619"/>
<polygon fill="midnightblue" stroke="midnightblue" points="1341.56,-191.11 1351.41,-187.223 1341.28,-184.116 1341.56,-191.11"/>
</g>
<!-- Node25&#45;&gt;Node13 -->
<g id="edge29" class="edge"><title>Node25&#45;&gt;Node13</title>
<path fill="none" stroke="midnightblue" d="M1518.6,-184C1586.49,-184 1681.57,-184 1745.46,-184"/>
<polygon fill="midnightblue" stroke="midnightblue" points="1745.83,-187.5 1755.83,-184 1745.83,-180.5 1745.83,-187.5"/>
</g>
<!-- Node26&#45;&gt;Node9 -->
<g id="edge32" class="edge"><title>Node26&#45;&gt;Node9</title>
<path fill="none" stroke="midnightblue" d="M713.159,-189.574C727.148,-185.919 741.613,-182.139 755.261,-178.572"/>
<polygon fill="midnightblue" stroke="midnightblue" points="756.246,-181.932 765.036,-176.017 754.476,-175.159 756.246,-181.932"/>
</g>
<!-- Node26&#45;&gt;Node13 -->
<g id="edge31" class="edge"><title>Node26&#45;&gt;Node13</title>
<path fill="none" stroke="midnightblue" d="M697.756,-230.533C773.162,-253.344 903.921,-287 1019,-287 1019,-287 1019,-287 1436,-287 1562.57,-287 1603.14,-314.617 1720,-266 1750.85,-253.167 1778.74,-226.154 1796.09,-206.633"/>
<polygon fill="midnightblue" stroke="midnightblue" points="1798.76,-208.903 1802.65,-199.047 1793.46,-204.327 1798.76,-208.903"/>
</g>
</g>
</svg>
