<?xml version="1.0" encoding="UTF-8" standalone="no"?>
<!DOCTYPE svg PUBLIC "-//W3C//DTD SVG 1.1//EN"
 "http://www.w3.org/Graphics/SVG/1.1/DTD/svg11.dtd">
<!-- Generated by graphviz version 2.38.0 (20140413.2041)
 -->
<!-- Title: qtreports::detail::Report::setMargins Pages: 1 -->
<svg width="287pt" height="186pt"
 viewBox="0.00 0.00 287.00 186.00" xmlns="http://www.w3.org/2000/svg" xmlns:xlink="http://www.w3.org/1999/xlink">
<g id="graph0" class="graph" transform="scale(1 1) rotate(0) translate(4 182)">
<title>qtreports::detail::Report::setMargins</title>
<!-- Node1 -->
<g id="node1" class="node"><title>Node1</title>
<polygon fill="#bfbfbf" stroke="black" points="0,-73.5 0,-103.5 106,-103.5 106,-73.5 0,-73.5"/>
<text text-anchor="start" x="8" y="-91.5" font-family="Helvetica,sans-Serif" font-size="10.00">qtreports::detail::</text>
<text text-anchor="middle" x="53" y="-80.5" font-family="Helvetica,sans-Serif" font-size="10.00">Report::setMargins</text>
</g>
<!-- Node2 -->
<g id="node2" class="node"><title>Node2</title>
<g id="a_node2"><a xlink:href="classqtreports_1_1detail_1_1_report.html#aaa6cf15a91127d493bc03603454bfbbb" target="_top" xlink:title="qtreports::detail::\lReport::setLeftMargin">
<polygon fill="none" stroke="black" points="151,-147.5 151,-177.5 270,-177.5 270,-147.5 151,-147.5"/>
<text text-anchor="start" x="159" y="-165.5" font-family="Helvetica,sans-Serif" font-size="10.00">qtreports::detail::</text>
<text text-anchor="middle" x="210.5" y="-154.5" font-family="Helvetica,sans-Serif" font-size="10.00">Report::setLeftMargin</text>
</a>
</g>
</g>
<!-- Node1&#45;&gt;Node2 -->
<g id="edge1" class="edge"><title>Node1&#45;&gt;Node2</title>
<path fill="none" stroke="midnightblue" d="M78.0518,-103.689C95.4093,-114.27 119.631,-128.264 142,-138.5 145.881,-140.276 149.934,-142.007 154.043,-143.673"/>
<polygon fill="midnightblue" stroke="midnightblue" points="153.091,-147.058 163.68,-147.434 155.636,-140.537 153.091,-147.058"/>
</g>
<!-- Node3 -->
<g id="node3" class="node"><title>Node3</title>
<g id="a_node3"><a xlink:href="classqtreports_1_1detail_1_1_report.html#a18e54847516cafc89b302e22ae67412d" target="_top" xlink:title="qtreports::detail::\lReport::setTopMargin">
<polygon fill="none" stroke="black" points="152.5,-98.5 152.5,-128.5 268.5,-128.5 268.5,-98.5 152.5,-98.5"/>
<text text-anchor="start" x="160.5" y="-116.5" font-family="Helvetica,sans-Serif" font-size="10.00">qtreports::detail::</text>
<text text-anchor="middle" x="210.5" y="-105.5" font-family="Helvetica,sans-Serif" font-size="10.00">Report::setTopMargin</text>
</a>
</g>
</g>
<!-- Node1&#45;&gt;Node3 -->
<g id="edge2" class="edge"><title>Node1&#45;&gt;Node3</title>
<path fill="none" stroke="midnightblue" d="M106.212,-96.8942C117.792,-98.756 130.223,-100.754 142.307,-102.697"/>
<polygon fill="midnightblue" stroke="midnightblue" points="141.921,-106.18 152.35,-104.312 143.032,-99.2688 141.921,-106.18"/>
</g>
<!-- Node4 -->
<g id="node4" class="node"><title>Node4</title>
<g id="a_node4"><a xlink:href="classqtreports_1_1detail_1_1_report.html#a7ad10c84c5e8fe2483433f9f54abd0bb" target="_top" xlink:title="qtreports::detail::\lReport::setRightMargin">
<polygon fill="none" stroke="black" points="148,-49.5 148,-79.5 273,-79.5 273,-49.5 148,-49.5"/>
<text text-anchor="start" x="156" y="-67.5" font-family="Helvetica,sans-Serif" font-size="10.00">qtreports::detail::</text>
<text text-anchor="middle" x="210.5" y="-56.5" font-family="Helvetica,sans-Serif" font-size="10.00">Report::setRightMargin</text>
</a>
</g>
</g>
<!-- Node1&#45;&gt;Node4 -->
<g id="edge3" class="edge"><title>Node1&#45;&gt;Node4</title>
<path fill="none" stroke="midnightblue" d="M106.212,-80.4416C116.308,-78.8833 127.051,-77.2253 137.646,-75.5899"/>
<polygon fill="midnightblue" stroke="midnightblue" points="138.385,-79.0174 147.734,-74.033 137.317,-72.0994 138.385,-79.0174"/>
</g>
<!-- Node5 -->
<g id="node5" class="node"><title>Node5</title>
<g id="a_node5"><a xlink:href="classqtreports_1_1detail_1_1_report.html#ab7d00202111001a7e5bca8c2a4ae77bd" target="_top" xlink:title="qtreports::detail::\lReport::setBottomMargin">
<polygon fill="none" stroke="black" points="142,-0.5 142,-30.5 279,-30.5 279,-0.5 142,-0.5"/>
<text text-anchor="start" x="150" y="-18.5" font-family="Helvetica,sans-Serif" font-size="10.00">qtreports::detail::</text>
<text text-anchor="middle" x="210.5" y="-7.5" font-family="Helvetica,sans-Serif" font-size="10.00">Report::setBottomMargin</text>
</a>
</g>
</g>
<!-- Node1&#45;&gt;Node5 -->
<g id="edge4" class="edge"><title>Node1&#45;&gt;Node5</title>
<path fill="none" stroke="midnightblue" d="M79.2997,-73.4281C96.6225,-63.427 120.299,-50.3744 142,-40.5 146.644,-38.3869 151.524,-36.3119 156.446,-34.3166"/>
<polygon fill="midnightblue" stroke="midnightblue" points="157.89,-37.5095 165.912,-30.5888 155.325,-30.9963 157.89,-37.5095"/>
</g>
</g>
</svg>
