<?xml version="1.0" encoding="UTF-8" standalone="no"?>
<!DOCTYPE svg PUBLIC "-//W3C//DTD SVG 1.1//EN"
 "http://www.w3.org/Graphics/SVG/1.1/DTD/svg11.dtd">
<!-- Generated by graphviz version 2.38.0 (20140413.2041)
 -->
<!-- Title: qtreports::Engine::getPrintPreviewDialog Pages: 1 -->
<svg width="1816pt" height="621pt"
 viewBox="0.00 0.00 1816.00 620.82" xmlns="http://www.w3.org/2000/svg" xmlns:xlink="http://www.w3.org/1999/xlink">
<g id="graph0" class="graph" transform="scale(1 1) rotate(0) translate(4 616.815)">
<title>qtreports::Engine::getPrintPreviewDialog</title>
<!-- Node1 -->
<g id="node1" class="node"><title>Node1</title>
<polygon fill="#bfbfbf" stroke="black" points="0,-263.815 0,-293.815 120,-293.815 120,-263.815 0,-263.815"/>
<text text-anchor="start" x="8" y="-281.815" font-family="Helvetica,sans-Serif" font-size="10.00">qtreports::Engine::</text>
<text text-anchor="middle" x="60" y="-270.815" font-family="Helvetica,sans-Serif" font-size="10.00">getPrintPreviewDialog</text>
</g>
<!-- Node2 -->
<g id="node2" class="node"><title>Node2</title>
<g id="a_node2"><a xlink:href="classqtreports_1_1_engine.html#a3dda769530e3713bba33c49124ad1ab6" target="_top" xlink:title="qtreports::Engine::\lprepareDB">
<polygon fill="none" stroke="black" points="156,-326.815 156,-356.815 261,-356.815 261,-326.815 156,-326.815"/>
<text text-anchor="start" x="164" y="-344.815" font-family="Helvetica,sans-Serif" font-size="10.00">qtreports::Engine::</text>
<text text-anchor="middle" x="208.5" y="-333.815" font-family="Helvetica,sans-Serif" font-size="10.00">prepareDB</text>
</a>
</g>
</g>
<!-- Node1&#45;&gt;Node2 -->
<g id="edge1" class="edge"><title>Node1&#45;&gt;Node2</title>
<path fill="none" stroke="midnightblue" d="M96.0904,-293.905C116.221,-302.562 141.686,-313.513 163.187,-322.759"/>
<polygon fill="midnightblue" stroke="midnightblue" points="161.873,-326.004 172.442,-326.739 164.638,-319.573 161.873,-326.004"/>
</g>
<!-- Node7 -->
<g id="node7" class="node"><title>Node7</title>
<g id="a_node7"><a xlink:href="classqtreports_1_1_engine.html#a93dc7711446a155f87d9146efb493f9e" target="_top" xlink:title="qtreports::Engine::\ldrawPreview">
<polygon fill="none" stroke="black" points="156,-201.815 156,-231.815 261,-231.815 261,-201.815 156,-201.815"/>
<text text-anchor="start" x="164" y="-219.815" font-family="Helvetica,sans-Serif" font-size="10.00">qtreports::Engine::</text>
<text text-anchor="middle" x="208.5" y="-208.815" font-family="Helvetica,sans-Serif" font-size="10.00">drawPreview</text>
</a>
</g>
</g>
<!-- Node1&#45;&gt;Node7 -->
<g id="edge6" class="edge"><title>Node1&#45;&gt;Node7</title>
<path fill="none" stroke="midnightblue" d="M96.4636,-263.807C116.291,-255.416 141.205,-244.872 162.407,-235.899"/>
<polygon fill="midnightblue" stroke="midnightblue" points="164.01,-239.021 171.855,-231.9 161.282,-232.575 164.01,-239.021"/>
</g>
<!-- Node3 -->
<g id="node3" class="node"><title>Node3</title>
<g id="a_node3"><a xlink:href="classqtreports_1_1_engine.html#a0c7bf107b4774cccb70577946d67666c" target="_top" xlink:title="qtreports::Engine::\lsetQuery">
<polygon fill="none" stroke="black" points="304,-373.815 304,-403.815 409,-403.815 409,-373.815 304,-373.815"/>
<text text-anchor="start" x="312" y="-391.815" font-family="Helvetica,sans-Serif" font-size="10.00">qtreports::Engine::</text>
<text text-anchor="middle" x="356.5" y="-380.815" font-family="Helvetica,sans-Serif" font-size="10.00">setQuery</text>
</a>
</g>
</g>
<!-- Node2&#45;&gt;Node3 -->
<g id="edge2" class="edge"><title>Node2&#45;&gt;Node3</title>
<path fill="none" stroke="midnightblue" d="M256.097,-356.816C269.793,-361.225 284.923,-366.095 299.16,-370.678"/>
<polygon fill="midnightblue" stroke="midnightblue" points="298.254,-374.063 308.845,-373.796 300.399,-367.4 298.254,-374.063"/>
</g>
<!-- Node4 -->
<g id="node4" class="node"><title>Node4</title>
<g id="a_node4"><a xlink:href="classqtreports_1_1_engine.html#ac214aea9f2f2b795307550290fa1d1ae" target="_top" xlink:title="qtreports::Engine::\lexecuteQueries">
<polygon fill="none" stroke="black" points="459,-550.815 459,-580.815 564,-580.815 564,-550.815 459,-550.815"/>
<text text-anchor="start" x="467" y="-568.815" font-family="Helvetica,sans-Serif" font-size="10.00">qtreports::Engine::</text>
<text text-anchor="middle" x="511.5" y="-557.815" font-family="Helvetica,sans-Serif" font-size="10.00">executeQueries</text>
</a>
</g>
</g>
<!-- Node3&#45;&gt;Node4 -->
<g id="edge3" class="edge"><title>Node3&#45;&gt;Node4</title>
<path fill="none" stroke="midnightblue" d="M370.545,-403.906C397.418,-434.995 459.086,-506.336 490.828,-543.057"/>
<polygon fill="midnightblue" stroke="midnightblue" points="488.301,-545.486 497.488,-550.762 493.597,-540.908 488.301,-545.486"/>
</g>
<!-- Node5 -->
<g id="node5" class="node"><title>Node5</title>
<g id="a_node5"><a xlink:href="classqtreports_1_1_engine.html#a1d96729622d140d02108a29034aecea0" target="_top" xlink:title="qtreports::Engine::\lprepareDataSource">
<polygon fill="none" stroke="black" points="611,-573.815 611,-603.815 722,-603.815 722,-573.815 611,-573.815"/>
<text text-anchor="start" x="619" y="-591.815" font-family="Helvetica,sans-Serif" font-size="10.00">qtreports::Engine::</text>
<text text-anchor="middle" x="666.5" y="-580.815" font-family="Helvetica,sans-Serif" font-size="10.00">prepareDataSource</text>
</a>
</g>
</g>
<!-- Node4&#45;&gt;Node5 -->
<g id="edge4" class="edge"><title>Node4&#45;&gt;Node5</title>
<path fill="none" stroke="midnightblue" d="M564.299,-573.602C576.016,-575.363 588.599,-577.255 600.774,-579.085"/>
<polygon fill="midnightblue" stroke="midnightblue" points="600.469,-582.578 610.878,-580.604 601.509,-575.656 600.469,-582.578"/>
</g>
<!-- Node6 -->
<g id="node6" class="node"><title>Node6</title>
<g id="a_node6"><a xlink:href="classqtreports_1_1_engine.html#ad6379f091871349d33f9a59e982160c4" target="_top" xlink:title="qtreports::Engine::\lgetReport">
<polygon fill="none" stroke="black" points="769,-573.815 769,-603.815 874,-603.815 874,-573.815 769,-573.815"/>
<text text-anchor="start" x="777" y="-591.815" font-family="Helvetica,sans-Serif" font-size="10.00">qtreports::Engine::</text>
<text text-anchor="middle" x="821.5" y="-580.815" font-family="Helvetica,sans-Serif" font-size="10.00">getReport</text>
</a>
</g>
</g>
<!-- Node5&#45;&gt;Node6 -->
<g id="edge5" class="edge"><title>Node5&#45;&gt;Node6</title>
<path fill="none" stroke="midnightblue" d="M722.304,-588.815C734.161,-588.815 746.776,-588.815 758.875,-588.815"/>
<polygon fill="midnightblue" stroke="midnightblue" points="758.889,-592.315 768.889,-588.815 758.889,-585.315 758.889,-592.315"/>
</g>
<!-- Node8 -->
<g id="node8" class="node"><title>Node8</title>
<g id="a_node8"><a xlink:href="classqtreports_1_1detail_1_1_converter_to_q_widget.html#a4b42725ccbbc910522dca786da95fbb6" target="_top" xlink:title="qtreports::detail::\lConverterToQWidget::\lconvert">
<polygon fill="none" stroke="black" points="297,-226.315 297,-267.315 416,-267.315 416,-226.315 297,-226.315"/>
<text text-anchor="start" x="305" y="-255.315" font-family="Helvetica,sans-Serif" font-size="10.00">qtreports::detail::</text>
<text text-anchor="start" x="305" y="-244.315" font-family="Helvetica,sans-Serif" font-size="10.00">ConverterToQWidget::</text>
<text text-anchor="middle" x="356.5" y="-233.315" font-family="Helvetica,sans-Serif" font-size="10.00">convert</text>
</a>
</g>
</g>
<!-- Node7&#45;&gt;Node8 -->
<g id="edge7" class="edge"><title>Node7&#45;&gt;Node8</title>
<path fill="none" stroke="midnightblue" d="M261.385,-227.477C269.633,-229.171 278.274,-230.947 286.835,-232.706"/>
<polygon fill="midnightblue" stroke="midnightblue" points="286.32,-236.173 296.82,-234.758 287.729,-229.316 286.32,-236.173"/>
</g>
<!-- Node34 -->
<g id="node34" class="node"><title>Node34</title>
<g id="a_node34"><a xlink:href="classqtreports_1_1detail_1_1_converter_to_q_widget.html#aba09b9782ffddba920ee7b881f3e8f99" target="_top" xlink:title="qtreports::detail::\lConverterToQWidget::\lgetLastError">
<polygon fill="none" stroke="black" points="297,-166.315 297,-207.315 416,-207.315 416,-166.315 297,-166.315"/>
<text text-anchor="start" x="305" y="-195.315" font-family="Helvetica,sans-Serif" font-size="10.00">qtreports::detail::</text>
<text text-anchor="start" x="305" y="-184.315" font-family="Helvetica,sans-Serif" font-size="10.00">ConverterToQWidget::</text>
<text text-anchor="middle" x="356.5" y="-173.315" font-family="Helvetica,sans-Serif" font-size="10.00">getLastError</text>
</a>
</g>
</g>
<!-- Node7&#45;&gt;Node34 -->
<g id="edge50" class="edge"><title>Node7&#45;&gt;Node34</title>
<path fill="none" stroke="midnightblue" d="M261.385,-206.154C269.633,-204.459 278.274,-202.684 286.835,-200.925"/>
<polygon fill="midnightblue" stroke="midnightblue" points="287.729,-204.314 296.82,-198.873 286.32,-197.457 287.729,-204.314"/>
</g>
<!-- Node35 -->
<g id="node35" class="node"><title>Node35</title>
<g id="a_node35"><a xlink:href="classqtreports_1_1detail_1_1_converter_to_q_widget.html#a7ee736dd6be3d2cd5b3407751d94617a" target="_top" xlink:title="qtreports::detail::\lConverterToQWidget::\lgetPages">
<polygon fill="none" stroke="black" points="297,-106.315 297,-147.315 416,-147.315 416,-106.315 297,-106.315"/>
<text text-anchor="start" x="305" y="-135.315" font-family="Helvetica,sans-Serif" font-size="10.00">qtreports::detail::</text>
<text text-anchor="start" x="305" y="-124.315" font-family="Helvetica,sans-Serif" font-size="10.00">ConverterToQWidget::</text>
<text text-anchor="middle" x="356.5" y="-113.315" font-family="Helvetica,sans-Serif" font-size="10.00">getPages</text>
</a>
</g>
</g>
<!-- Node7&#45;&gt;Node35 -->
<g id="edge51" class="edge"><title>Node7&#45;&gt;Node35</title>
<path fill="none" stroke="midnightblue" d="M229.875,-201.749C247.305,-189.128 273.266,-170.96 297,-156.815 299.482,-155.336 302.045,-153.856 304.649,-152.39"/>
<polygon fill="midnightblue" stroke="midnightblue" points="306.516,-155.358 313.6,-147.48 303.149,-149.221 306.516,-155.358"/>
</g>
<!-- Node9 -->
<g id="node9" class="node"><title>Node9</title>
<g id="a_node9"><a xlink:href="classqtreports_1_1detail_1_1_converter_to_q_widget.html#a96a53267cf2b8092e174906ea7f0f56f" target="_top" xlink:title="qtreports::detail::\lConverterToQWidget::\lcreateQWidget">
<polygon fill="none" stroke="black" points="452,-182.315 452,-223.315 571,-223.315 571,-182.315 452,-182.315"/>
<text text-anchor="start" x="460" y="-211.315" font-family="Helvetica,sans-Serif" font-size="10.00">qtreports::detail::</text>
<text text-anchor="start" x="460" y="-200.315" font-family="Helvetica,sans-Serif" font-size="10.00">ConverterToQWidget::</text>
<text text-anchor="middle" x="511.5" y="-189.315" font-family="Helvetica,sans-Serif" font-size="10.00">createQWidget</text>
</a>
</g>
</g>
<!-- Node8&#45;&gt;Node9 -->
<g id="edge8" class="edge"><title>Node8&#45;&gt;Node9</title>
<path fill="none" stroke="midnightblue" d="M416.216,-229.929C424.727,-227.482 433.549,-224.945 442.227,-222.449"/>
<polygon fill="midnightblue" stroke="midnightblue" points="443.298,-225.783 451.941,-219.656 441.363,-219.056 443.298,-225.783"/>
</g>
<!-- Node10 -->
<g id="node10" class="node"><title>Node10</title>
<g id="a_node10"><a xlink:href="classqtreports_1_1detail_1_1_converter_to_q_widget.html#a23d6229235fca8bd8bbddcc5e2e28f92" target="_top" xlink:title="qtreports::detail::\lConverterToQWidget::\laddPage">
<polygon fill="none" stroke="black" points="1101.5,-571.315 1101.5,-612.315 1220.5,-612.315 1220.5,-571.315 1101.5,-571.315"/>
<text text-anchor="start" x="1109.5" y="-600.315" font-family="Helvetica,sans-Serif" font-size="10.00">qtreports::detail::</text>
<text text-anchor="start" x="1109.5" y="-589.315" font-family="Helvetica,sans-Serif" font-size="10.00">ConverterToQWidget::</text>
<text text-anchor="middle" x="1161" y="-578.315" font-family="Helvetica,sans-Serif" font-size="10.00">addPage</text>
</a>
</g>
</g>
<!-- Node9&#45;&gt;Node10 -->
<g id="edge9" class="edge"><title>Node9&#45;&gt;Node10</title>
<path fill="none" stroke="midnightblue" d="M526.173,-223.634C543.188,-248.568 574.048,-290.733 607,-320.815 728.99,-432.181 766.498,-457.748 917,-525.815 973.269,-551.264 1041.43,-568.724 1091.23,-579.263"/>
<polygon fill="midnightblue" stroke="midnightblue" points="1090.75,-582.737 1101.25,-581.342 1092.17,-575.883 1090.75,-582.737"/>
</g>
<!-- Node11 -->
<g id="node11" class="node"><title>Node11</title>
<g id="a_node11"><a xlink:href="classqtreports_1_1detail_1_1_converter_to_q_widget.html#af350953efb07bf3393c33846a81b1121" target="_top" xlink:title="qtreports::detail::\lConverterToQWidget::\laddVerticalBorder">
<polygon fill="none" stroke="black" points="762,-23.3152 762,-64.3152 881,-64.3152 881,-23.3152 762,-23.3152"/>
<text text-anchor="start" x="770" y="-52.3152" font-family="Helvetica,sans-Serif" font-size="10.00">qtreports::detail::</text>
<text text-anchor="start" x="770" y="-41.3152" font-family="Helvetica,sans-Serif" font-size="10.00">ConverterToQWidget::</text>
<text text-anchor="middle" x="821.5" y="-30.3152" font-family="Helvetica,sans-Serif" font-size="10.00">addVerticalBorder</text>
</a>
</g>
</g>
<!-- Node9&#45;&gt;Node11 -->
<g id="edge10" class="edge"><title>Node9&#45;&gt;Node11</title>
<path fill="none" stroke="midnightblue" d="M535.303,-182.299C553.694,-166.491 580.738,-144.863 607,-129.815 653.255,-103.311 709.283,-81.0751 752.335,-65.8571"/>
<polygon fill="midnightblue" stroke="midnightblue" points="753.584,-69.1281 761.87,-62.5259 751.276,-62.5198 753.584,-69.1281"/>
</g>
<!-- Node12 -->
<g id="node12" class="node"><title>Node12</title>
<g id="a_node12"><a xlink:href="classqtreports_1_1detail_1_1_converter_to_q_widget.html#a76bb37f2855d12afc9056c75cdbc5e0b" target="_top" xlink:title="qtreports::detail::\lConverterToQWidget::\lisLayout">
<polygon fill="none" stroke="black" points="1101.5,-160.315 1101.5,-201.315 1220.5,-201.315 1220.5,-160.315 1101.5,-160.315"/>
<text text-anchor="start" x="1109.5" y="-189.315" font-family="Helvetica,sans-Serif" font-size="10.00">qtreports::detail::</text>
<text text-anchor="start" x="1109.5" y="-178.315" font-family="Helvetica,sans-Serif" font-size="10.00">ConverterToQWidget::</text>
<text text-anchor="middle" x="1161" y="-167.315" font-family="Helvetica,sans-Serif" font-size="10.00">isLayout</text>
</a>
</g>
</g>
<!-- Node9&#45;&gt;Node12 -->
<g id="edge13" class="edge"><title>Node9&#45;&gt;Node12</title>
<path fill="none" stroke="midnightblue" d="M522.358,-181.986C536.993,-153.156 567.091,-101.213 607,-70.8152 665.391,-26.3405 689.737,-26.681 762,-13.8152 884.4,7.97729 931.59,9.79397 1039,-52.8152 1081.8,-77.7639 1118.89,-122.398 1140.35,-151.81"/>
<polygon fill="midnightblue" stroke="midnightblue" points="1137.58,-153.946 1146.24,-160.042 1143.27,-149.873 1137.58,-153.946"/>
</g>
<!-- Node14 -->
<g id="node14" class="node"><title>Node14</title>
<g id="a_node14"><a xlink:href="classqtreports_1_1detail_1_1_converter_to_q_widget.html#ae126b16c5a846e84f12d86ca8ef253dd" target="_top" xlink:title="qtreports::detail::\lConverterToQWidget::\laddSectionLayout">
<polygon fill="none" stroke="black" points="762,-143.315 762,-184.315 881,-184.315 881,-143.315 762,-143.315"/>
<text text-anchor="start" x="770" y="-172.315" font-family="Helvetica,sans-Serif" font-size="10.00">qtreports::detail::</text>
<text text-anchor="start" x="770" y="-161.315" font-family="Helvetica,sans-Serif" font-size="10.00">ConverterToQWidget::</text>
<text text-anchor="middle" x="821.5" y="-150.315" font-family="Helvetica,sans-Serif" font-size="10.00">addSectionLayout</text>
</a>
</g>
</g>
<!-- Node9&#45;&gt;Node14 -->
<g id="edge14" class="edge"><title>Node9&#45;&gt;Node14</title>
<path fill="none" stroke="midnightblue" d="M571.157,-195.388C622.562,-188.879 697.333,-179.411 751.579,-172.542"/>
<polygon fill="midnightblue" stroke="midnightblue" points="752.318,-175.977 761.799,-171.248 751.439,-169.032 752.318,-175.977"/>
</g>
<!-- Node15 -->
<g id="node15" class="node"><title>Node15</title>
<g id="a_node15"><a xlink:href="classqtreports_1_1detail_1_1_converter_to_q_widget.html#a3c95daf9bd10efc4feb71e0d976bbd6e" target="_top" xlink:title="qtreports::detail::\lConverterToQWidget::\lcreateSection">
<polygon fill="none" stroke="black" points="762,-356.315 762,-397.315 881,-397.315 881,-356.315 762,-356.315"/>
<text text-anchor="start" x="770" y="-385.315" font-family="Helvetica,sans-Serif" font-size="10.00">qtreports::detail::</text>
<text text-anchor="start" x="770" y="-374.315" font-family="Helvetica,sans-Serif" font-size="10.00">ConverterToQWidget::</text>
<text text-anchor="middle" x="821.5" y="-363.315" font-family="Helvetica,sans-Serif" font-size="10.00">createSection</text>
</a>
</g>
</g>
<!-- Node9&#45;&gt;Node15 -->
<g id="edge17" class="edge"><title>Node9&#45;&gt;Node15</title>
<path fill="none" stroke="midnightblue" d="M535.431,-223.567C553.894,-239.628 580.97,-261.766 607,-277.815 655.438,-307.681 714.367,-334.354 758.033,-352.467"/>
<polygon fill="midnightblue" stroke="midnightblue" points="756.808,-355.748 767.388,-356.314 759.47,-349.274 756.808,-355.748"/>
</g>
<!-- Node31 -->
<g id="node31" class="node"><title>Node31</title>
<g id="a_node31"><a xlink:href="classqtreports_1_1detail_1_1_converter_to_q_widget.html#ac98aceb5ee703053d7691029da84e296" target="_top" xlink:title="qtreports::detail::\lConverterToQWidget::\laddGroupsIntoReport">
<polygon fill="none" stroke="black" points="607,-227.315 607,-268.315 726,-268.315 726,-227.315 607,-227.315"/>
<text text-anchor="start" x="615" y="-256.315" font-family="Helvetica,sans-Serif" font-size="10.00">qtreports::detail::</text>
<text text-anchor="start" x="615" y="-245.315" font-family="Helvetica,sans-Serif" font-size="10.00">ConverterToQWidget::</text>
<text text-anchor="middle" x="666.5" y="-234.315" font-family="Helvetica,sans-Serif" font-size="10.00">addGroupsIntoReport</text>
</a>
</g>
</g>
<!-- Node9&#45;&gt;Node31 -->
<g id="edge41" class="edge"><title>Node9&#45;&gt;Node31</title>
<path fill="none" stroke="midnightblue" d="M571.216,-220.085C579.727,-222.588 588.549,-225.182 597.227,-227.735"/>
<polygon fill="midnightblue" stroke="midnightblue" points="596.36,-231.128 606.941,-230.592 598.335,-224.412 596.36,-231.128"/>
</g>
<!-- Node33 -->
<g id="node33" class="node"><title>Node33</title>
<g id="a_node33"><a xlink:href="classqtreports_1_1detail_1_1_converter_to_q_widget.html#a21d211f4a1f0f46f2220a0959c36367b" target="_top" xlink:title="qtreports::detail::\lConverterToQWidget::\laddEmptySection">
<polygon fill="none" stroke="black" points="762,-83.3152 762,-124.315 881,-124.315 881,-83.3152 762,-83.3152"/>
<text text-anchor="start" x="770" y="-112.315" font-family="Helvetica,sans-Serif" font-size="10.00">qtreports::detail::</text>
<text text-anchor="start" x="770" y="-101.315" font-family="Helvetica,sans-Serif" font-size="10.00">ConverterToQWidget::</text>
<text text-anchor="middle" x="821.5" y="-90.3152" font-family="Helvetica,sans-Serif" font-size="10.00">addEmptySection</text>
</a>
</g>
</g>
<!-- Node9&#45;&gt;Node33 -->
<g id="edge47" class="edge"><title>Node9&#45;&gt;Node33</title>
<path fill="none" stroke="midnightblue" d="M571.202,-183.471C583.047,-179.593 595.417,-175.559 607,-171.815 655.419,-156.163 710.101,-138.752 752.002,-125.466"/>
<polygon fill="midnightblue" stroke="midnightblue" points="753.077,-128.797 761.553,-122.439 750.962,-122.124 753.077,-128.797"/>
</g>
<!-- Node11&#45;&gt;Node12 -->
<g id="edge11" class="edge"><title>Node11&#45;&gt;Node12</title>
<path fill="none" stroke="midnightblue" d="M881.036,-50.9229C925.788,-57.8563 988.22,-70.8228 1039,-93.8152 1072.52,-108.994 1106.15,-134.162 1129.41,-153.533"/>
<polygon fill="midnightblue" stroke="midnightblue" points="1127.3,-156.329 1137.19,-160.117 1131.82,-150.986 1127.3,-156.329"/>
</g>
<!-- Node13 -->
<g id="node13" class="node"><title>Node13</title>
<g id="a_node13"><a xlink:href="namespaceqtreports_1_1detail.html#a57ac54d6807a30b13e419a3106735b19" target="_top" xlink:title="qtreports::detail::\lcreateLayout">
<polygon fill="none" stroke="black" points="928.5,-121.815 928.5,-151.815 1027.5,-151.815 1027.5,-121.815 928.5,-121.815"/>
<text text-anchor="start" x="936.5" y="-139.815" font-family="Helvetica,sans-Serif" font-size="10.00">qtreports::detail::</text>
<text text-anchor="middle" x="978" y="-128.815" font-family="Helvetica,sans-Serif" font-size="10.00">createLayout</text>
</a>
</g>
</g>
<!-- Node11&#45;&gt;Node13 -->
<g id="edge12" class="edge"><title>Node11&#45;&gt;Node13</title>
<path fill="none" stroke="midnightblue" d="M864.027,-64.4138C869.781,-67.4699 875.575,-70.6563 881,-73.8152 903.605,-86.9783 928.259,-103.199 946.922,-115.885"/>
<polygon fill="midnightblue" stroke="midnightblue" points="945.077,-118.863 955.307,-121.62 949.029,-113.086 945.077,-118.863"/>
</g>
<!-- Node14&#45;&gt;Node12 -->
<g id="edge15" class="edge"><title>Node14&#45;&gt;Node12</title>
<path fill="none" stroke="midnightblue" d="M881.288,-166.776C939.788,-169.723 1029.52,-174.243 1091.28,-177.354"/>
<polygon fill="midnightblue" stroke="midnightblue" points="1091.16,-180.852 1101.32,-177.859 1091.51,-173.861 1091.16,-180.852"/>
</g>
<!-- Node14&#45;&gt;Node13 -->
<g id="edge16" class="edge"><title>Node14&#45;&gt;Node13</title>
<path fill="none" stroke="midnightblue" d="M881.351,-153.531C893.476,-151.412 906.243,-149.18 918.361,-147.063"/>
<polygon fill="midnightblue" stroke="midnightblue" points="919.111,-150.485 928.359,-145.316 917.905,-143.589 919.111,-150.485"/>
</g>
<!-- Node15&#45;&gt;Node12 -->
<g id="edge18" class="edge"><title>Node15&#45;&gt;Node12</title>
<path fill="none" stroke="midnightblue" d="M881.049,-358.317C926.088,-342.733 988.89,-318.002 1039,-286.815 1074.73,-264.578 1110.32,-231.792 1133.56,-208.581"/>
<polygon fill="midnightblue" stroke="midnightblue" points="1136.11,-210.978 1140.65,-201.407 1131.13,-206.056 1136.11,-210.978"/>
</g>
<!-- Node16 -->
<g id="node16" class="node"><title>Node16</title>
<g id="a_node16"><a xlink:href="classqtreports_1_1detail_1_1_replacer.html#af7ccb83be264f7c72b7485cf38455450" target="_top" xlink:title="qtreports::detail::\lReplacer::replace">
<polygon fill="none" stroke="black" points="928.5,-377.815 928.5,-407.815 1027.5,-407.815 1027.5,-377.815 928.5,-377.815"/>
<text text-anchor="start" x="936.5" y="-395.815" font-family="Helvetica,sans-Serif" font-size="10.00">qtreports::detail::</text>
<text text-anchor="middle" x="978" y="-384.815" font-family="Helvetica,sans-Serif" font-size="10.00">Replacer::replace</text>
</a>
</g>
</g>
<!-- Node15&#45;&gt;Node16 -->
<g id="edge19" class="edge"><title>Node15&#45;&gt;Node16</title>
<path fill="none" stroke="midnightblue" d="M881.351,-382.91C893.476,-384.165 906.243,-385.488 918.361,-386.743"/>
<polygon fill="midnightblue" stroke="midnightblue" points="918.051,-390.229 928.359,-387.778 918.773,-383.266 918.051,-390.229"/>
</g>
<!-- Node23 -->
<g id="node23" class="node"><title>Node23</title>
<g id="a_node23"><a xlink:href="classqtreports_1_1detail_1_1_replacer.html#a677f7802e444f2de3af4cb43b6cedf30" target="_top" xlink:title="qtreports::detail::\lReplacer::getLastError">
<polygon fill="none" stroke="black" points="917,-426.815 917,-456.815 1039,-456.815 1039,-426.815 917,-426.815"/>
<text text-anchor="start" x="925" y="-444.815" font-family="Helvetica,sans-Serif" font-size="10.00">qtreports::detail::</text>
<text text-anchor="middle" x="978" y="-433.815" font-family="Helvetica,sans-Serif" font-size="10.00">Replacer::getLastError</text>
</a>
</g>
</g>
<!-- Node15&#45;&gt;Node23 -->
<g id="edge26" class="edge"><title>Node15&#45;&gt;Node23</title>
<path fill="none" stroke="midnightblue" d="M869.492,-397.521C884.62,-404.101 901.483,-411.347 917,-417.815 921.071,-419.512 925.307,-421.254 929.56,-422.987"/>
<polygon fill="midnightblue" stroke="midnightblue" points="928.262,-426.237 938.844,-426.745 930.888,-419.748 928.262,-426.237"/>
</g>
<!-- Node24 -->
<g id="node24" class="node"><title>Node24</title>
<g id="a_node24"><a xlink:href="classqtreports_1_1detail_1_1_converter_to_q_widget.html#aa3be16e037533a4a5b58596087207187" target="_top" xlink:title="qtreports::detail::\lConverterToQWidget::\lcreateBands">
<polygon fill="none" stroke="black" points="918.5,-475.315 918.5,-516.315 1037.5,-516.315 1037.5,-475.315 918.5,-475.315"/>
<text text-anchor="start" x="926.5" y="-504.315" font-family="Helvetica,sans-Serif" font-size="10.00">qtreports::detail::</text>
<text text-anchor="start" x="926.5" y="-493.315" font-family="Helvetica,sans-Serif" font-size="10.00">ConverterToQWidget::</text>
<text text-anchor="middle" x="978" y="-482.315" font-family="Helvetica,sans-Serif" font-size="10.00">createBands</text>
</a>
</g>
</g>
<!-- Node15&#45;&gt;Node24 -->
<g id="edge27" class="edge"><title>Node15&#45;&gt;Node24</title>
<path fill="none" stroke="midnightblue" d="M840.504,-397.326C858.47,-416.93 887.57,-446.437 917,-466.815 918.605,-467.927 920.259,-469.018 921.949,-470.086"/>
<polygon fill="midnightblue" stroke="midnightblue" points="920.246,-473.145 930.633,-475.229 923.813,-467.121 920.246,-473.145"/>
</g>
<!-- Node17 -->
<g id="node17" class="node"><title>Node17</title>
<g id="a_node17"><a xlink:href="classqtreports_1_1detail_1_1_replacer.html#a58cf857aa78eb3e273f6543769af425b" target="_top" xlink:title="qtreports::detail::\lReplacer::replaceFieldInSection">
<polygon fill="none" stroke="black" points="1079,-345.815 1079,-375.815 1243,-375.815 1243,-345.815 1079,-345.815"/>
<text text-anchor="start" x="1087" y="-363.815" font-family="Helvetica,sans-Serif" font-size="10.00">qtreports::detail::</text>
<text text-anchor="middle" x="1161" y="-352.815" font-family="Helvetica,sans-Serif" font-size="10.00">Replacer::replaceFieldInSection</text>
</a>
</g>
</g>
<!-- Node16&#45;&gt;Node17 -->
<g id="edge20" class="edge"><title>Node16&#45;&gt;Node17</title>
<path fill="none" stroke="midnightblue" d="M1027.5,-384.24C1040.35,-381.968 1054.65,-379.441 1068.97,-376.91"/>
<polygon fill="midnightblue" stroke="midnightblue" points="1069.62,-380.348 1078.86,-375.16 1068.41,-373.454 1069.62,-380.348"/>
</g>
<!-- Node22 -->
<g id="node22" class="node"><title>Node22</title>
<g id="a_node22"><a xlink:href="classqtreports_1_1detail_1_1_replacer.html#abb903f1c1172efa7e26b040a5695cc86" target="_top" xlink:title="qtreports::detail::\lReplacer::replaceParameters">
<polygon fill="none" stroke="black" points="1084,-394.815 1084,-424.815 1238,-424.815 1238,-394.815 1084,-394.815"/>
<text text-anchor="start" x="1092" y="-412.815" font-family="Helvetica,sans-Serif" font-size="10.00">qtreports::detail::</text>
<text text-anchor="middle" x="1161" y="-401.815" font-family="Helvetica,sans-Serif" font-size="10.00">Replacer::replaceParameters</text>
</a>
</g>
</g>
<!-- Node16&#45;&gt;Node22 -->
<g id="edge25" class="edge"><title>Node16&#45;&gt;Node22</title>
<path fill="none" stroke="midnightblue" d="M1027.5,-397.371C1041.68,-398.702 1057.62,-400.199 1073.4,-401.681"/>
<polygon fill="midnightblue" stroke="midnightblue" points="1073.44,-405.201 1083.73,-402.651 1074.1,-398.231 1073.44,-405.201"/>
</g>
<!-- Node18 -->
<g id="node18" class="node"><title>Node18</title>
<g id="a_node18"><a xlink:href="classqtreports_1_1detail_1_1_replacer.html#a2be57bd514335f9b9f2a520247562ce1" target="_top" xlink:title="qtreports::detail::\lReplacer::replaceFieldInText\lWidget">
<polygon fill="none" stroke="black" points="1498,-388.315 1498,-429.315 1644,-429.315 1644,-388.315 1498,-388.315"/>
<text text-anchor="start" x="1506" y="-417.315" font-family="Helvetica,sans-Serif" font-size="10.00">qtreports::detail::</text>
<text text-anchor="start" x="1506" y="-406.315" font-family="Helvetica,sans-Serif" font-size="10.00">Replacer::replaceFieldInText</text>
<text text-anchor="middle" x="1571" y="-395.315" font-family="Helvetica,sans-Serif" font-size="10.00">Widget</text>
</a>
</g>
</g>
<!-- Node17&#45;&gt;Node18 -->
<g id="edge21" class="edge"><title>Node17&#45;&gt;Node18</title>
<path fill="none" stroke="midnightblue" d="M1216.13,-375.855C1236.89,-381.077 1260.9,-386.459 1283,-389.815 1351.58,-400.227 1430.24,-404.934 1487.84,-407.061"/>
<polygon fill="midnightblue" stroke="midnightblue" points="1487.87,-410.564 1497.98,-407.417 1488.11,-403.568 1487.87,-410.564"/>
</g>
<!-- Node20 -->
<g id="node20" class="node"><title>Node20</title>
<g id="a_node20"><a xlink:href="classqtreports_1_1detail_1_1_replacer.html#a4aeb7794f90c0be34a30ab60a6df1920" target="_top" xlink:title="qtreports::detail::\lReplacer::replaceFieldInImage\lWidget">
<polygon fill="none" stroke="black" points="1289,-339.315 1289,-380.315 1447,-380.315 1447,-339.315 1289,-339.315"/>
<text text-anchor="start" x="1297" y="-368.315" font-family="Helvetica,sans-Serif" font-size="10.00">qtreports::detail::</text>
<text text-anchor="start" x="1297" y="-357.315" font-family="Helvetica,sans-Serif" font-size="10.00">Replacer::replaceFieldInImage</text>
<text text-anchor="middle" x="1368" y="-346.315" font-family="Helvetica,sans-Serif" font-size="10.00">Widget</text>
</a>
</g>
</g>
<!-- Node17&#45;&gt;Node20 -->
<g id="edge23" class="edge"><title>Node17&#45;&gt;Node20</title>
<path fill="none" stroke="midnightblue" d="M1243.02,-360.42C1254.71,-360.363 1266.78,-360.304 1278.6,-360.246"/>
<polygon fill="midnightblue" stroke="midnightblue" points="1278.93,-363.745 1288.91,-360.196 1278.89,-356.745 1278.93,-363.745"/>
</g>
<!-- Node19 -->
<g id="node19" class="node"><title>Node19</title>
<g id="a_node19"><a xlink:href="classqtreports_1_1detail_1_1_replacer.html#a4642b07160798f2ee4de276e1d0c1ecd" target="_top" xlink:title="qtreports::detail::\lReplacer::replaceField">
<polygon fill="none" stroke="black" points="1689,-442.815 1689,-472.815 1808,-472.815 1808,-442.815 1689,-442.815"/>
<text text-anchor="start" x="1697" y="-460.815" font-family="Helvetica,sans-Serif" font-size="10.00">qtreports::detail::</text>
<text text-anchor="middle" x="1748.5" y="-449.815" font-family="Helvetica,sans-Serif" font-size="10.00">Replacer::replaceField</text>
</a>
</g>
</g>
<!-- Node18&#45;&gt;Node19 -->
<g id="edge22" class="edge"><title>Node18&#45;&gt;Node19</title>
<path fill="none" stroke="midnightblue" d="M1644.14,-428.957C1657.33,-432.639 1671,-436.455 1683.91,-440.06"/>
<polygon fill="midnightblue" stroke="midnightblue" points="1683.04,-443.452 1693.62,-442.771 1684.93,-436.71 1683.04,-443.452"/>
</g>
<!-- Node21 -->
<g id="node21" class="node"><title>Node21</title>
<g id="a_node21"><a xlink:href="classqtreports_1_1detail_1_1_replacer.html#ae1ac521aeaf5fdd694e79e2ae52d4704" target="_top" xlink:title="qtreports::detail::\lReplacer::replaceFieldImage">
<polygon fill="none" stroke="black" points="1496.5,-339.815 1496.5,-369.815 1645.5,-369.815 1645.5,-339.815 1496.5,-339.815"/>
<text text-anchor="start" x="1504.5" y="-357.815" font-family="Helvetica,sans-Serif" font-size="10.00">qtreports::detail::</text>
<text text-anchor="middle" x="1571" y="-346.815" font-family="Helvetica,sans-Serif" font-size="10.00">Replacer::replaceFieldImage</text>
</a>
</g>
</g>
<!-- Node20&#45;&gt;Node21 -->
<g id="edge24" class="edge"><title>Node20&#45;&gt;Node21</title>
<path fill="none" stroke="midnightblue" d="M1447.29,-357.868C1459.99,-357.552 1473.18,-357.224 1486.01,-356.904"/>
<polygon fill="midnightblue" stroke="midnightblue" points="1486.29,-360.399 1496.2,-356.651 1486.12,-353.401 1486.29,-360.399"/>
</g>
<!-- Node24&#45;&gt;Node10 -->
<g id="edge28" class="edge"><title>Node24&#45;&gt;Node10</title>
<path fill="none" stroke="midnightblue" d="M1015.52,-516.353C1023.35,-520.971 1031.52,-525.949 1039,-530.815 1055.54,-541.578 1057.76,-547.214 1075,-556.815 1081.42,-560.391 1088.29,-563.814 1095.22,-567.022"/>
<polygon fill="midnightblue" stroke="midnightblue" points="1094.14,-570.37 1104.69,-571.258 1097,-563.98 1094.14,-570.37"/>
</g>
<!-- Node24&#45;&gt;Node12 -->
<g id="edge29" class="edge"><title>Node24&#45;&gt;Node12</title>
<path fill="none" stroke="midnightblue" d="M1030.14,-475.245C1033.4,-472.725 1036.41,-469.924 1039,-466.815 1077.41,-420.783 1052.51,-392.39 1075,-336.815 1093.56,-290.954 1122.23,-241.318 1141.06,-210.643"/>
<polygon fill="midnightblue" stroke="midnightblue" points="1144.27,-212.101 1146.56,-201.757 1138.32,-208.415 1144.27,-212.101"/>
</g>
<!-- Node25 -->
<g id="node25" class="node"><title>Node25</title>
<g id="a_node25"><a xlink:href="classqtreports_1_1detail_1_1_replacer.html#aa9fa83cf51d75301b62e11a0a93e2dcc" target="_top" xlink:title="qtreports::detail::\lReplacer::replaceColumnGroups\lInCrosstab">
<polygon fill="none" stroke="black" points="1283,-486.315 1283,-527.315 1453,-527.315 1453,-486.315 1283,-486.315"/>
<text text-anchor="start" x="1291" y="-515.315" font-family="Helvetica,sans-Serif" font-size="10.00">qtreports::detail::</text>
<text text-anchor="start" x="1291" y="-504.315" font-family="Helvetica,sans-Serif" font-size="10.00">Replacer::replaceColumnGroups</text>
<text text-anchor="middle" x="1368" y="-493.315" font-family="Helvetica,sans-Serif" font-size="10.00">InCrosstab</text>
</a>
</g>
</g>
<!-- Node24&#45;&gt;Node25 -->
<g id="edge30" class="edge"><title>Node24&#45;&gt;Node25</title>
<path fill="none" stroke="midnightblue" d="M1037.51,-497.474C1099.78,-499.239 1199.26,-502.06 1272.64,-504.14"/>
<polygon fill="midnightblue" stroke="midnightblue" points="1272.72,-507.644 1282.81,-504.428 1272.92,-500.646 1272.72,-507.644"/>
</g>
<!-- Node27 -->
<g id="node27" class="node"><title>Node27</title>
<g id="a_node27"><a xlink:href="classqtreports_1_1detail_1_1_replacer.html#ae0f12ba0e77e9ef89b9479272e843fe6" target="_top" xlink:title="qtreports::detail::\lReplacer::replaceRowGroups\lInCrosstab">
<polygon fill="none" stroke="black" points="1292.5,-546.315 1292.5,-587.315 1443.5,-587.315 1443.5,-546.315 1292.5,-546.315"/>
<text text-anchor="start" x="1300.5" y="-575.315" font-family="Helvetica,sans-Serif" font-size="10.00">qtreports::detail::</text>
<text text-anchor="start" x="1300.5" y="-564.315" font-family="Helvetica,sans-Serif" font-size="10.00">Replacer::replaceRowGroups</text>
<text text-anchor="middle" x="1368" y="-553.315" font-family="Helvetica,sans-Serif" font-size="10.00">InCrosstab</text>
</a>
</g>
</g>
<!-- Node24&#45;&gt;Node27 -->
<g id="edge33" class="edge"><title>Node24&#45;&gt;Node27</title>
<path fill="none" stroke="midnightblue" d="M1037.6,-507.599C1049.95,-510.029 1062.89,-512.54 1075,-514.815 1144.72,-527.922 1223.98,-541.983 1282.31,-552.174"/>
<polygon fill="midnightblue" stroke="midnightblue" points="1281.76,-555.632 1292.21,-553.903 1282.96,-548.736 1281.76,-555.632"/>
</g>
<!-- Node29 -->
<g id="node29" class="node"><title>Node29</title>
<g id="a_node29"><a xlink:href="classqtreports_1_1detail_1_1_replacer.html#a5dc72251354d389091776142436ebd22" target="_top" xlink:title="qtreports::detail::\lReplacer::replaceCellsInCrosstab">
<polygon fill="none" stroke="black" points="1075,-445.815 1075,-475.815 1247,-475.815 1247,-445.815 1075,-445.815"/>
<text text-anchor="start" x="1083" y="-463.815" font-family="Helvetica,sans-Serif" font-size="10.00">qtreports::detail::</text>
<text text-anchor="middle" x="1161" y="-452.815" font-family="Helvetica,sans-Serif" font-size="10.00">Replacer::replaceCellsInCrosstab</text>
</a>
</g>
</g>
<!-- Node24&#45;&gt;Node29 -->
<g id="edge36" class="edge"><title>Node24&#45;&gt;Node29</title>
<path fill="none" stroke="midnightblue" d="M1037.77,-484.452C1048.89,-482.3 1060.76,-480.006 1072.55,-477.726"/>
<polygon fill="midnightblue" stroke="midnightblue" points="1073.27,-481.152 1082.42,-475.817 1071.94,-474.279 1073.27,-481.152"/>
</g>
<!-- Node26 -->
<g id="node26" class="node"><title>Node26</title>
<g id="a_node26"><a xlink:href="classqtreports_1_1detail_1_1_replacer.html#a781b476a4e964da9e5afe4f642b2f275" target="_top" xlink:title="qtreports::detail::\lReplacer::replaceColumnGroup\lInCrosstab">
<polygon fill="none" stroke="black" points="1489,-486.315 1489,-527.315 1653,-527.315 1653,-486.315 1489,-486.315"/>
<text text-anchor="start" x="1497" y="-515.315" font-family="Helvetica,sans-Serif" font-size="10.00">qtreports::detail::</text>
<text text-anchor="start" x="1497" y="-504.315" font-family="Helvetica,sans-Serif" font-size="10.00">Replacer::replaceColumnGroup</text>
<text text-anchor="middle" x="1571" y="-493.315" font-family="Helvetica,sans-Serif" font-size="10.00">InCrosstab</text>
</a>
</g>
</g>
<!-- Node25&#45;&gt;Node26 -->
<g id="edge31" class="edge"><title>Node25&#45;&gt;Node26</title>
<path fill="none" stroke="midnightblue" d="M1453.08,-506.815C1461.58,-506.815 1470.25,-506.815 1478.82,-506.815"/>
<polygon fill="midnightblue" stroke="midnightblue" points="1478.83,-510.315 1488.83,-506.815 1478.83,-503.315 1478.83,-510.315"/>
</g>
<!-- Node26&#45;&gt;Node19 -->
<g id="edge32" class="edge"><title>Node26&#45;&gt;Node19</title>
<path fill="none" stroke="midnightblue" d="M1645.66,-486.248C1658.4,-482.693 1671.53,-479.025 1683.97,-475.554"/>
<polygon fill="midnightblue" stroke="midnightblue" points="1685.08,-478.878 1693.77,-472.818 1683.19,-472.136 1685.08,-478.878"/>
</g>
<!-- Node28 -->
<g id="node28" class="node"><title>Node28</title>
<g id="a_node28"><a xlink:href="classqtreports_1_1detail_1_1_replacer.html#a2114b58c90fe02b17e7bf99e144013b6" target="_top" xlink:title="qtreports::detail::\lReplacer::replaceRowGroupIn\lCrosstab">
<polygon fill="none" stroke="black" points="1494,-546.315 1494,-587.315 1648,-587.315 1648,-546.315 1494,-546.315"/>
<text text-anchor="start" x="1502" y="-575.315" font-family="Helvetica,sans-Serif" font-size="10.00">qtreports::detail::</text>
<text text-anchor="start" x="1502" y="-564.315" font-family="Helvetica,sans-Serif" font-size="10.00">Replacer::replaceRowGroupIn</text>
<text text-anchor="middle" x="1571" y="-553.315" font-family="Helvetica,sans-Serif" font-size="10.00">Crosstab</text>
</a>
</g>
</g>
<!-- Node27&#45;&gt;Node28 -->
<g id="edge34" class="edge"><title>Node27&#45;&gt;Node28</title>
<path fill="none" stroke="midnightblue" d="M1443.56,-566.815C1456.65,-566.815 1470.36,-566.815 1483.74,-566.815"/>
<polygon fill="midnightblue" stroke="midnightblue" points="1483.88,-570.315 1493.88,-566.815 1483.88,-563.315 1483.88,-570.315"/>
</g>
<!-- Node28&#45;&gt;Node19 -->
<g id="edge35" class="edge"><title>Node28&#45;&gt;Node19</title>
<path fill="none" stroke="midnightblue" d="M1634.47,-546.169C1640.87,-543.322 1647.16,-540.2 1653,-536.815 1680.19,-521.046 1707.32,-497.338 1725.48,-480.009"/>
<polygon fill="midnightblue" stroke="midnightblue" points="1727.95,-482.488 1732.69,-473.014 1723.08,-477.464 1727.95,-482.488"/>
</g>
<!-- Node29&#45;&gt;Node25 -->
<g id="edge38" class="edge"><title>Node29&#45;&gt;Node25</title>
<path fill="none" stroke="midnightblue" d="M1229.12,-475.877C1243.07,-479.007 1258.01,-482.36 1272.73,-485.662"/>
<polygon fill="midnightblue" stroke="midnightblue" points="1272.34,-489.162 1282.87,-487.936 1273.87,-482.332 1272.34,-489.162"/>
</g>
<!-- Node29&#45;&gt;Node27 -->
<g id="edge37" class="edge"><title>Node29&#45;&gt;Node27</title>
<path fill="none" stroke="midnightblue" d="M1183.04,-476.022C1206.56,-492.535 1246.18,-518.941 1283,-536.815 1286.84,-538.679 1290.83,-540.489 1294.88,-542.236"/>
<polygon fill="midnightblue" stroke="midnightblue" points="1293.87,-545.602 1304.44,-546.191 1296.54,-539.134 1293.87,-545.602"/>
</g>
<!-- Node30 -->
<g id="node30" class="node"><title>Node30</title>
<g id="a_node30"><a xlink:href="classqtreports_1_1detail_1_1_replacer.html#a9ad7270fd6bdb9a2ba85bdc9652968c8" target="_top" xlink:title="qtreports::detail::\lReplacer::replaceCellInCrosstab">
<polygon fill="none" stroke="black" points="1284.5,-437.815 1284.5,-467.815 1451.5,-467.815 1451.5,-437.815 1284.5,-437.815"/>
<text text-anchor="start" x="1292.5" y="-455.815" font-family="Helvetica,sans-Serif" font-size="10.00">qtreports::detail::</text>
<text text-anchor="middle" x="1368" y="-444.815" font-family="Helvetica,sans-Serif" font-size="10.00">Replacer::replaceCellInCrosstab</text>
</a>
</g>
</g>
<!-- Node29&#45;&gt;Node30 -->
<g id="edge39" class="edge"><title>Node29&#45;&gt;Node30</title>
<path fill="none" stroke="midnightblue" d="M1247.16,-457.492C1256.11,-457.143 1265.24,-456.786 1274.27,-456.434"/>
<polygon fill="midnightblue" stroke="midnightblue" points="1274.56,-459.925 1284.41,-456.038 1274.28,-452.931 1274.56,-459.925"/>
</g>
<!-- Node30&#45;&gt;Node19 -->
<g id="edge40" class="edge"><title>Node30&#45;&gt;Node19</title>
<path fill="none" stroke="midnightblue" d="M1451.6,-453.906C1519.49,-454.803 1614.57,-456.059 1678.46,-456.903"/>
<polygon fill="midnightblue" stroke="midnightblue" points="1678.79,-460.408 1688.83,-457.04 1678.88,-453.408 1678.79,-460.408"/>
</g>
<!-- Node31&#45;&gt;Node12 -->
<g id="edge43" class="edge"><title>Node31&#45;&gt;Node12</title>
<path fill="none" stroke="midnightblue" d="M726.2,-252.122C738.046,-252.828 750.416,-253.448 762,-253.815 814.862,-255.492 828.543,-260.564 881,-253.815 954.197,-244.398 1035.6,-221.624 1091.49,-203.996"/>
<polygon fill="midnightblue" stroke="midnightblue" points="1092.81,-207.25 1101.27,-200.881 1090.68,-200.58 1092.81,-207.25"/>
</g>
<!-- Node31&#45;&gt;Node14 -->
<g id="edge44" class="edge"><title>Node31&#45;&gt;Node14</title>
<path fill="none" stroke="midnightblue" d="M702.738,-227.175C720.419,-216.948 742.229,-204.526 762,-193.815 764.86,-192.266 767.809,-190.689 770.79,-189.111"/>
<polygon fill="midnightblue" stroke="midnightblue" points="772.548,-192.142 779.779,-184.398 769.297,-185.942 772.548,-192.142"/>
</g>
<!-- Node31&#45;&gt;Node15 -->
<g id="edge45" class="edge"><title>Node31&#45;&gt;Node15</title>
<path fill="none" stroke="midnightblue" d="M692.082,-268.541C718.18,-290.545 759.541,-325.419 788.243,-349.618"/>
<polygon fill="midnightblue" stroke="midnightblue" points="786.078,-352.37 795.979,-356.141 790.59,-347.019 786.078,-352.37"/>
</g>
<!-- Node31&#45;&gt;Node19 -->
<g id="edge42" class="edge"><title>Node31&#45;&gt;Node19</title>
<path fill="none" stroke="midnightblue" d="M726.111,-267.06C787.824,-285.587 888.168,-310.815 977,-310.815 977,-310.815 977,-310.815 1369,-310.815 1495.53,-310.815 1542,-270.074 1653,-330.815 1694.59,-353.573 1723.04,-403.325 1737.17,-433.359"/>
<polygon fill="midnightblue" stroke="midnightblue" points="1734.1,-435.057 1741.41,-442.721 1740.47,-432.168 1734.1,-435.057"/>
</g>
<!-- Node32 -->
<g id="node32" class="node"><title>Node32</title>
<g id="a_node32"><a xlink:href="classqtreports_1_1detail_1_1_converter_to_q_widget.html#a5e49976fe8fac12633ccda1ba928b9b1" target="_top" xlink:title="qtreports::detail::\lConverterToQWidget::\lisReport">
<polygon fill="none" stroke="black" points="762,-203.315 762,-244.315 881,-244.315 881,-203.315 762,-203.315"/>
<text text-anchor="start" x="770" y="-232.315" font-family="Helvetica,sans-Serif" font-size="10.00">qtreports::detail::</text>
<text text-anchor="start" x="770" y="-221.315" font-family="Helvetica,sans-Serif" font-size="10.00">ConverterToQWidget::</text>
<text text-anchor="middle" x="821.5" y="-210.315" font-family="Helvetica,sans-Serif" font-size="10.00">isReport</text>
</a>
</g>
</g>
<!-- Node31&#45;&gt;Node32 -->
<g id="edge46" class="edge"><title>Node31&#45;&gt;Node32</title>
<path fill="none" stroke="midnightblue" d="M726.216,-238.605C734.635,-237.284 743.359,-235.916 751.947,-234.569"/>
<polygon fill="midnightblue" stroke="midnightblue" points="752.604,-238.008 761.941,-233.001 751.519,-231.093 752.604,-238.008"/>
</g>
<!-- Node33&#45;&gt;Node12 -->
<g id="edge48" class="edge"><title>Node33&#45;&gt;Node12</title>
<path fill="none" stroke="midnightblue" d="M881.098,-98.9556C925.332,-97.0224 987.071,-98.0641 1039,-112.815 1069.63,-121.515 1100.87,-139.347 1123.93,-154.568"/>
<polygon fill="midnightblue" stroke="midnightblue" points="1122.11,-157.558 1132.36,-160.249 1126.02,-151.755 1122.11,-157.558"/>
</g>
<!-- Node33&#45;&gt;Node13 -->
<g id="edge49" class="edge"><title>Node33&#45;&gt;Node13</title>
<path fill="none" stroke="midnightblue" d="M881.351,-116.385C893.476,-118.975 906.243,-121.702 918.361,-124.29"/>
<polygon fill="midnightblue" stroke="midnightblue" points="917.848,-127.76 928.359,-126.426 919.31,-120.914 917.848,-127.76"/>
</g>
</g>
</svg>
