<?xml version="1.0" encoding="UTF-8" standalone="no"?>
<!DOCTYPE svg PUBLIC "-//W3C//DTD SVG 1.1//EN"
 "http://www.w3.org/Graphics/SVG/1.1/DTD/svg11.dtd">
<!-- Generated by graphviz version 2.38.0 (20140413.2041)
 -->
<!-- Title: qtreports::detail::ParserFromXML::parseDocument Pages: 1 -->
<svg width="646pt" height="39pt"
 viewBox="0.00 0.00 646.00 39.00" xmlns="http://www.w3.org/2000/svg" xmlns:xlink="http://www.w3.org/1999/xlink">
<g id="graph0" class="graph" transform="scale(1 1) rotate(0) translate(4 35)">
<title>qtreports::detail::ParserFromXML::parseDocument</title>
<!-- Node1 -->
<g id="node1" class="node"><title>Node1</title>
<polygon fill="#bfbfbf" stroke="black" points="0,-0.5 0,-30.5 173,-30.5 173,-0.5 0,-0.5"/>
<text text-anchor="start" x="8" y="-18.5" font-family="Helvetica,sans-Serif" font-size="10.00">qtreports::detail::</text>
<text text-anchor="middle" x="86.5" y="-7.5" font-family="Helvetica,sans-Serif" font-size="10.00">ParserFromXML::parseDocument</text>
</g>
<!-- Node2 -->
<g id="node2" class="node"><title>Node2</title>
<g id="a_node2"><a xlink:href="classqtreports_1_1detail_1_1_parser_from_x_m_l.html#ac5de42ec7fdd07773b0435484df51c2e" target="_top" xlink:title="qtreports::detail::\lParserFromXML::parse">
<polygon fill="none" stroke="black" points="209,-0.5 209,-30.5 332,-30.5 332,-0.5 209,-0.5"/>
<text text-anchor="start" x="217" y="-18.5" font-family="Helvetica,sans-Serif" font-size="10.00">qtreports::detail::</text>
<text text-anchor="middle" x="270.5" y="-7.5" font-family="Helvetica,sans-Serif" font-size="10.00">ParserFromXML::parse</text>
</a>
</g>
</g>
<!-- Node1&#45;&gt;Node2 -->
<g id="edge1" class="edge"><title>Node1&#45;&gt;Node2</title>
<path fill="none" stroke="midnightblue" d="M183.372,-15.5C192.055,-15.5 200.679,-15.5 208.926,-15.5"/>
<polygon fill="midnightblue" stroke="midnightblue" points="183.171,-12.0001 173.171,-15.5 183.171,-19.0001 183.171,-12.0001"/>
</g>
<!-- Node3 -->
<g id="node3" class="node"><title>Node3</title>
<g id="a_node3"><a xlink:href="classqtreports_1_1_engine.html#a12cebdcb817b3c9a0c730b9439b2ff85" target="_top" xlink:title="qtreports::Engine::open">
<polygon fill="none" stroke="black" points="368,-6 368,-25 497,-25 497,-6 368,-6"/>
<text text-anchor="middle" x="432.5" y="-13" font-family="Helvetica,sans-Serif" font-size="10.00">qtreports::Engine::open</text>
</a>
</g>
</g>
<!-- Node2&#45;&gt;Node3 -->
<g id="edge2" class="edge"><title>Node2&#45;&gt;Node3</title>
<path fill="none" stroke="midnightblue" d="M342.594,-15.5C350.989,-15.5 359.516,-15.5 367.8,-15.5"/>
<polygon fill="midnightblue" stroke="midnightblue" points="342.446,-12.0001 332.446,-15.5 342.446,-19.0001 342.446,-12.0001"/>
</g>
<!-- Node4 -->
<g id="node4" class="node"><title>Node4</title>
<g id="a_node4"><a xlink:href="classqtreports_1_1_engine.html#a18298bdce3e086347705e133eccfd7fa" target="_top" xlink:title="qtreports::Engine::\lEngine">
<polygon fill="none" stroke="black" points="533,-0.5 533,-30.5 638,-30.5 638,-0.5 533,-0.5"/>
<text text-anchor="start" x="541" y="-18.5" font-family="Helvetica,sans-Serif" font-size="10.00">qtreports::Engine::</text>
<text text-anchor="middle" x="585.5" y="-7.5" font-family="Helvetica,sans-Serif" font-size="10.00">Engine</text>
</a>
</g>
</g>
<!-- Node3&#45;&gt;Node4 -->
<g id="edge3" class="edge"><title>Node3&#45;&gt;Node4</title>
<path fill="none" stroke="midnightblue" d="M507.234,-15.5C515.902,-15.5 524.601,-15.5 532.874,-15.5"/>
<polygon fill="midnightblue" stroke="midnightblue" points="507.1,-12.0001 497.1,-15.5 507.1,-19.0001 507.1,-12.0001"/>
</g>
</g>
</svg>
