<?xml version="1.0" encoding="UTF-8" standalone="no"?>
<!DOCTYPE svg PUBLIC "-//W3C//DTD SVG 1.1//EN"
 "http://www.w3.org/Graphics/SVG/1.1/DTD/svg11.dtd">
<!-- Generated by graphviz version 2.38.0 (20140413.2041)
 -->
<!-- Title: qtreports::detail::ConverterToHTML::addGroupsIntoReport Pages: 1 -->
<svg width="721pt" height="88pt"
 viewBox="0.00 0.00 721.00 88.00" xmlns="http://www.w3.org/2000/svg" xmlns:xlink="http://www.w3.org/1999/xlink">
<g id="graph0" class="graph" transform="scale(1 1) rotate(0) translate(4 84)">
<title>qtreports::detail::ConverterToHTML::addGroupsIntoReport</title>
<!-- Node1 -->
<g id="node1" class="node"><title>Node1</title>
<polygon fill="#bfbfbf" stroke="black" points="0,-19 0,-60 158,-60 158,-19 0,-19"/>
<text text-anchor="start" x="8" y="-48" font-family="Helvetica,sans-Serif" font-size="10.00">qtreports::detail::</text>
<text text-anchor="start" x="8" y="-37" font-family="Helvetica,sans-Serif" font-size="10.00">ConverterToHTML::addGroups</text>
<text text-anchor="middle" x="79" y="-26" font-family="Helvetica,sans-Serif" font-size="10.00">IntoReport</text>
</g>
<!-- Node2 -->
<g id="node2" class="node"><title>Node2</title>
<g id="a_node2"><a xlink:href="classqtreports_1_1detail_1_1_converter_to_h_t_m_l.html#ace8358a3612fc8085b7c34f1f92341e2" target="_top" xlink:title="qtreports::detail::\lConverterToHTML::createHTML">
<polygon fill="none" stroke="black" points="194,-24.5 194,-54.5 357,-54.5 357,-24.5 194,-24.5"/>
<text text-anchor="start" x="202" y="-42.5" font-family="Helvetica,sans-Serif" font-size="10.00">qtreports::detail::</text>
<text text-anchor="middle" x="275.5" y="-31.5" font-family="Helvetica,sans-Serif" font-size="10.00">ConverterToHTML::createHTML</text>
</a>
</g>
</g>
<!-- Node1&#45;&gt;Node2 -->
<g id="edge1" class="edge"><title>Node1&#45;&gt;Node2</title>
<path fill="none" stroke="midnightblue" d="M168.509,-39.5C176.954,-39.5 185.487,-39.5 193.852,-39.5"/>
<polygon fill="midnightblue" stroke="midnightblue" points="168.27,-36.0001 158.27,-39.5 168.27,-43.0001 168.27,-36.0001"/>
</g>
<!-- Node3 -->
<g id="node3" class="node"><title>Node3</title>
<g id="a_node3"><a xlink:href="classqtreports_1_1detail_1_1_converter_to_h_t_m_l.html#ad91ac333abf7d02f7590970a54ef7aae" target="_top" xlink:title="qtreports::detail::\lConverterToHTML::convert">
<polygon fill="none" stroke="black" points="393,-24.5 393,-54.5 535,-54.5 535,-24.5 393,-24.5"/>
<text text-anchor="start" x="401" y="-42.5" font-family="Helvetica,sans-Serif" font-size="10.00">qtreports::detail::</text>
<text text-anchor="middle" x="464" y="-31.5" font-family="Helvetica,sans-Serif" font-size="10.00">ConverterToHTML::convert</text>
</a>
</g>
</g>
<!-- Node2&#45;&gt;Node3 -->
<g id="edge2" class="edge"><title>Node2&#45;&gt;Node3</title>
<path fill="none" stroke="midnightblue" d="M367.316,-39.5C375.944,-39.5 384.601,-39.5 392.989,-39.5"/>
<polygon fill="midnightblue" stroke="midnightblue" points="367.217,-36.0001 357.217,-39.5 367.217,-43.0001 367.217,-36.0001"/>
</g>
<!-- Node4 -->
<g id="node4" class="node"><title>Node4</title>
<g id="a_node4"><a xlink:href="classqtreports_1_1detail_1_1_converter_to_h_t_m_l.html#a38e92f3fd70f61c44871b22cddffd15a" target="_top" xlink:title="qtreports::detail::\lConverterToHTML::convert">
<polygon fill="none" stroke="black" points="571,-49.5 571,-79.5 713,-79.5 713,-49.5 571,-49.5"/>
<text text-anchor="start" x="579" y="-67.5" font-family="Helvetica,sans-Serif" font-size="10.00">qtreports::detail::</text>
<text text-anchor="middle" x="642" y="-56.5" font-family="Helvetica,sans-Serif" font-size="10.00">ConverterToHTML::convert</text>
</a>
</g>
</g>
<!-- Node3&#45;&gt;Node4 -->
<g id="edge3" class="edge"><title>Node3&#45;&gt;Node4</title>
<path fill="none" stroke="midnightblue" d="M545.101,-50.8779C553.706,-52.1003 562.412,-53.337 570.888,-54.5409"/>
<polygon fill="midnightblue" stroke="midnightblue" points="545.458,-47.3937 535.066,-49.4525 544.474,-54.3241 545.458,-47.3937"/>
</g>
<!-- Node5 -->
<g id="node5" class="node"><title>Node5</title>
<g id="a_node5"><a xlink:href="classqtreports_1_1_engine.html#a551b0db0510d572d56447c471daa0891" target="_top" xlink:title="qtreports::Engine::\lcreateHTML">
<polygon fill="none" stroke="black" points="589.5,-0.5 589.5,-30.5 694.5,-30.5 694.5,-0.5 589.5,-0.5"/>
<text text-anchor="start" x="597.5" y="-18.5" font-family="Helvetica,sans-Serif" font-size="10.00">qtreports::Engine::</text>
<text text-anchor="middle" x="642" y="-7.5" font-family="Helvetica,sans-Serif" font-size="10.00">createHTML</text>
</a>
</g>
</g>
<!-- Node3&#45;&gt;Node5 -->
<g id="edge4" class="edge"><title>Node3&#45;&gt;Node5</title>
<path fill="none" stroke="midnightblue" d="M545.347,-28.5436C560.298,-26.5049 575.545,-24.4257 589.345,-22.5438"/>
<polygon fill="midnightblue" stroke="midnightblue" points="544.501,-25.1265 535.066,-29.9456 545.447,-32.0623 544.501,-25.1265"/>
</g>
</g>
</svg>
