<?xml version="1.0" encoding="UTF-8" standalone="no"?>
<!DOCTYPE svg PUBLIC "-//W3C//DTD SVG 1.1//EN"
 "http://www.w3.org/Graphics/SVG/1.1/DTD/svg11.dtd">
<!-- Generated by graphviz version 2.38.0 (20140413.2041)
 -->
<!-- Title: qtreports::detail::ParserFromXML::getReport Pages: 1 -->
<svg width="457pt" height="39pt"
 viewBox="0.00 0.00 457.00 39.00" xmlns="http://www.w3.org/2000/svg" xmlns:xlink="http://www.w3.org/1999/xlink">
<g id="graph0" class="graph" transform="scale(1 1) rotate(0) translate(4 35)">
<title>qtreports::detail::ParserFromXML::getReport</title>
<!-- Node1 -->
<g id="node1" class="node"><title>Node1</title>
<polygon fill="#bfbfbf" stroke="black" points="0,-0.5 0,-30.5 143,-30.5 143,-0.5 0,-0.5"/>
<text text-anchor="start" x="8" y="-18.5" font-family="Helvetica,sans-Serif" font-size="10.00">qtreports::detail::</text>
<text text-anchor="middle" x="71.5" y="-7.5" font-family="Helvetica,sans-Serif" font-size="10.00">ParserFromXML::getReport</text>
</g>
<!-- Node2 -->
<g id="node2" class="node"><title>Node2</title>
<g id="a_node2"><a xlink:href="classqtreports_1_1_engine.html#a12cebdcb817b3c9a0c730b9439b2ff85" target="_top" xlink:title="qtreports::Engine::open">
<polygon fill="none" stroke="black" points="179,-6 179,-25 308,-25 308,-6 179,-6"/>
<text text-anchor="middle" x="243.5" y="-13" font-family="Helvetica,sans-Serif" font-size="10.00">qtreports::Engine::open</text>
</a>
</g>
</g>
<!-- Node1&#45;&gt;Node2 -->
<g id="edge1" class="edge"><title>Node1&#45;&gt;Node2</title>
<path fill="none" stroke="midnightblue" d="M153.195,-15.5C161.819,-15.5 170.503,-15.5 178.89,-15.5"/>
<polygon fill="midnightblue" stroke="midnightblue" points="153.118,-12.0001 143.118,-15.5 153.118,-19.0001 153.118,-12.0001"/>
</g>
<!-- Node3 -->
<g id="node3" class="node"><title>Node3</title>
<g id="a_node3"><a xlink:href="classqtreports_1_1_engine.html#a18298bdce3e086347705e133eccfd7fa" target="_top" xlink:title="qtreports::Engine::\lEngine">
<polygon fill="none" stroke="black" points="344,-0.5 344,-30.5 449,-30.5 449,-0.5 344,-0.5"/>
<text text-anchor="start" x="352" y="-18.5" font-family="Helvetica,sans-Serif" font-size="10.00">qtreports::Engine::</text>
<text text-anchor="middle" x="396.5" y="-7.5" font-family="Helvetica,sans-Serif" font-size="10.00">Engine</text>
</a>
</g>
</g>
<!-- Node2&#45;&gt;Node3 -->
<g id="edge2" class="edge"><title>Node2&#45;&gt;Node3</title>
<path fill="none" stroke="midnightblue" d="M318.234,-15.5C326.902,-15.5 335.601,-15.5 343.874,-15.5"/>
<polygon fill="midnightblue" stroke="midnightblue" points="318.1,-12.0001 308.1,-15.5 318.1,-19.0001 318.1,-12.0001"/>
</g>
</g>
</svg>
