<?xml version="1.0" encoding="UTF-8" standalone="no"?>
<!DOCTYPE svg PUBLIC "-//W3C//DTD SVG 1.1//EN"
 "http://www.w3.org/Graphics/SVG/1.1/DTD/svg11.dtd">
<!-- Generated by graphviz version 2.38.0 (20140413.2041)
 -->
<!-- Title: qtreports::detail::Replacer::replaceParametersInTextWidget Pages: 1 -->
<svg width="542pt" height="50pt"
 viewBox="0.00 0.00 542.00 50.00" xmlns="http://www.w3.org/2000/svg" xmlns:xlink="http://www.w3.org/1999/xlink">
<g id="graph0" class="graph" transform="scale(1 1) rotate(0) translate(4 46)">
<title>qtreports::detail::Replacer::replaceParametersInTextWidget</title>
<!-- Node1 -->
<g id="node1" class="node"><title>Node1</title>
<polygon fill="#bfbfbf" stroke="black" points="0,-0.5 0,-41.5 154,-41.5 154,-0.5 0,-0.5"/>
<text text-anchor="start" x="8" y="-29.5" font-family="Helvetica,sans-Serif" font-size="10.00">qtreports::detail::</text>
<text text-anchor="start" x="8" y="-18.5" font-family="Helvetica,sans-Serif" font-size="10.00">Replacer::replaceParameters</text>
<text text-anchor="middle" x="77" y="-7.5" font-family="Helvetica,sans-Serif" font-size="10.00">InTextWidget</text>
</g>
<!-- Node2 -->
<g id="node2" class="node"><title>Node2</title>
<g id="a_node2"><a xlink:href="classqtreports_1_1detail_1_1_replacer.html#a626052332a0425d71f1f754824dc97dd" target="_top" xlink:title="qtreports::detail::\lReplacer::replaceParameters\lInSection">
<polygon fill="none" stroke="black" points="190,-0.5 190,-41.5 344,-41.5 344,-0.5 190,-0.5"/>
<text text-anchor="start" x="198" y="-29.5" font-family="Helvetica,sans-Serif" font-size="10.00">qtreports::detail::</text>
<text text-anchor="start" x="198" y="-18.5" font-family="Helvetica,sans-Serif" font-size="10.00">Replacer::replaceParameters</text>
<text text-anchor="middle" x="267" y="-7.5" font-family="Helvetica,sans-Serif" font-size="10.00">InSection</text>
</a>
</g>
</g>
<!-- Node1&#45;&gt;Node2 -->
<g id="edge1" class="edge"><title>Node1&#45;&gt;Node2</title>
<path fill="none" stroke="midnightblue" d="M164.424,-21C172.857,-21 181.372,-21 189.696,-21"/>
<polygon fill="midnightblue" stroke="midnightblue" points="164.196,-17.5001 154.196,-21 164.196,-24.5001 164.196,-17.5001"/>
</g>
<!-- Node3 -->
<g id="node3" class="node"><title>Node3</title>
<g id="a_node3"><a xlink:href="classqtreports_1_1detail_1_1_replacer.html#a0755107511a830346c28a8e51bcf99e2" target="_top" xlink:title="qtreports::detail::\lReplacer::replaceParameters">
<polygon fill="none" stroke="black" points="380,-6 380,-36 534,-36 534,-6 380,-6"/>
<text text-anchor="start" x="388" y="-24" font-family="Helvetica,sans-Serif" font-size="10.00">qtreports::detail::</text>
<text text-anchor="middle" x="457" y="-13" font-family="Helvetica,sans-Serif" font-size="10.00">Replacer::replaceParameters</text>
</a>
</g>
</g>
<!-- Node2&#45;&gt;Node3 -->
<g id="edge2" class="edge"><title>Node2&#45;&gt;Node3</title>
<path fill="none" stroke="midnightblue" d="M354.424,-21C362.857,-21 371.372,-21 379.696,-21"/>
<polygon fill="midnightblue" stroke="midnightblue" points="354.196,-17.5001 344.196,-21 354.196,-24.5001 354.196,-17.5001"/>
</g>
</g>
</svg>
