<?xml version="1.0" encoding="UTF-8" standalone="no"?>
<!DOCTYPE svg PUBLIC "-//W3C//DTD SVG 1.1//EN"
 "http://www.w3.org/Graphics/SVG/1.1/DTD/svg11.dtd">
<!-- Generated by graphviz version 2.38.0 (20140413.2041)
 -->
<!-- Title: /home/travis/build/PO&#45;31/QtReports/qtreports/src/tags/crosstab.hpp Pages: 1 -->
<svg width="618pt" height="554pt"
 viewBox="0.00 0.00 618.00 554.00" xmlns="http://www.w3.org/2000/svg" xmlns:xlink="http://www.w3.org/1999/xlink">
<g id="graph0" class="graph" transform="scale(1 1) rotate(0) translate(4 550)">
<title>/home/travis/build/PO&#45;31/QtReports/qtreports/src/tags/crosstab.hpp</title>
<!-- Node1 -->
<g id="node1" class="node"><title>Node1</title>
<polygon fill="#bfbfbf" stroke="black" points="151,-504.5 151,-545.5 297,-545.5 297,-504.5 151,-504.5"/>
<text text-anchor="start" x="159" y="-533.5" font-family="Helvetica,sans-Serif" font-size="10.00">/home/travis/build</text>
<text text-anchor="start" x="159" y="-522.5" font-family="Helvetica,sans-Serif" font-size="10.00">/PO&#45;31/QtReports/qtreports</text>
<text text-anchor="middle" x="224" y="-511.5" font-family="Helvetica,sans-Serif" font-size="10.00">/src/tags/crosstab.hpp</text>
</g>
<!-- Node2 -->
<g id="node2" class="node"><title>Node2</title>
<g id="a_node2"><a xlink:href="widget_8hpp.html" target="_top" xlink:title="widget.hpp">
<polygon fill="none" stroke="black" points="271,-168.5 271,-187.5 339,-187.5 339,-168.5 271,-168.5"/>
<text text-anchor="middle" x="305" y="-175.5" font-family="Helvetica,sans-Serif" font-size="10.00">widget.hpp</text>
</a>
</g>
</g>
<!-- Node1&#45;&gt;Node2 -->
<g id="edge1" class="edge"><title>Node1&#45;&gt;Node2</title>
<path fill="none" stroke="midnightblue" d="M247.57,-504.352C271.168,-482.343 304,-444.3 304,-403 304,-403 304,-403 304,-289 304,-256.947 304.43,-219.642 304.726,-197.748"/>
<polygon fill="midnightblue" stroke="midnightblue" points="308.228,-197.606 304.869,-187.558 301.229,-197.507 308.228,-197.606"/>
</g>
<!-- Node12 -->
<g id="node12" class="node"><title>Node12</title>
<g id="a_node12"><a xlink:href="crosstabgroup_8hpp.html" target="_top" xlink:title="crosstabgroup.hpp">
<polygon fill="none" stroke="black" points="42.5,-448.5 42.5,-467.5 149.5,-467.5 149.5,-448.5 42.5,-448.5"/>
<text text-anchor="middle" x="96" y="-455.5" font-family="Helvetica,sans-Serif" font-size="10.00">crosstabgroup.hpp</text>
</a>
</g>
</g>
<!-- Node1&#45;&gt;Node12 -->
<g id="edge16" class="edge"><title>Node1&#45;&gt;Node12</title>
<path fill="none" stroke="midnightblue" d="M185.596,-504.498C165.122,-494.101 140.464,-481.579 122.203,-472.306"/>
<polygon fill="midnightblue" stroke="midnightblue" points="123.54,-469.06 113.039,-467.652 120.37,-475.301 123.54,-469.06"/>
</g>
<!-- Node17 -->
<g id="node17" class="node"><title>Node17</title>
<g id="a_node17"><a xlink:href="crosstabcell_8hpp.html" target="_top" xlink:title="crosstabcell.hpp">
<polygon fill="none" stroke="black" points="176.5,-392.5 176.5,-411.5 271.5,-411.5 271.5,-392.5 176.5,-392.5"/>
<text text-anchor="middle" x="224" y="-399.5" font-family="Helvetica,sans-Serif" font-size="10.00">crosstabcell.hpp</text>
</a>
</g>
</g>
<!-- Node1&#45;&gt;Node17 -->
<g id="edge29" class="edge"><title>Node1&#45;&gt;Node17</title>
<path fill="none" stroke="midnightblue" d="M224,-504.29C224,-481.48 224,-444.189 224,-421.781"/>
<polygon fill="midnightblue" stroke="midnightblue" points="227.5,-421.575 224,-411.575 220.5,-421.575 227.5,-421.575"/>
</g>
<!-- Node3 -->
<g id="node3" class="node"><title>Node3</title>
<polygon fill="none" stroke="#bfbfbf" points="166.5,-0.5 166.5,-19.5 219.5,-19.5 219.5,-0.5 166.5,-0.5"/>
<text text-anchor="middle" x="193" y="-7.5" font-family="Helvetica,sans-Serif" font-size="10.00">QString</text>
</g>
<!-- Node2&#45;&gt;Node3 -->
<g id="edge2" class="edge"><title>Node2&#45;&gt;Node3</title>
<path fill="none" stroke="midnightblue" d="M270.772,-169.782C249.573,-163.468 223.679,-152.05 209,-132 186.856,-101.754 187.676,-55.5283 190.297,-29.8519"/>
<polygon fill="midnightblue" stroke="midnightblue" points="193.807,-29.9839 191.551,-19.6319 186.859,-29.1308 193.807,-29.9839"/>
</g>
<!-- Node4 -->
<g id="node4" class="node"><title>Node4</title>
<polygon fill="none" stroke="#bfbfbf" points="218,-112.5 218,-131.5 266,-131.5 266,-112.5 218,-112.5"/>
<text text-anchor="middle" x="242" y="-119.5" font-family="Helvetica,sans-Serif" font-size="10.00">QPoint</text>
</g>
<!-- Node2&#45;&gt;Node4 -->
<g id="edge3" class="edge"><title>Node2&#45;&gt;Node4</title>
<path fill="none" stroke="midnightblue" d="M294.878,-168.324C285.474,-160.263 271.256,-148.077 259.931,-138.369"/>
<polygon fill="midnightblue" stroke="midnightblue" points="262.177,-135.684 252.306,-131.834 257.621,-140.999 262.177,-135.684"/>
</g>
<!-- Node5 -->
<g id="node5" class="node"><title>Node5</title>
<polygon fill="none" stroke="#bfbfbf" points="284,-112.5 284,-131.5 328,-131.5 328,-112.5 284,-112.5"/>
<text text-anchor="middle" x="306" y="-119.5" font-family="Helvetica,sans-Serif" font-size="10.00">QSize</text>
</g>
<!-- Node2&#45;&gt;Node5 -->
<g id="edge4" class="edge"><title>Node2&#45;&gt;Node5</title>
<path fill="none" stroke="midnightblue" d="M305.165,-168.083C305.296,-161.006 305.484,-150.861 305.648,-141.986"/>
<polygon fill="midnightblue" stroke="midnightblue" points="309.152,-141.814 305.838,-131.751 302.153,-141.685 309.152,-141.814"/>
</g>
<!-- Node6 -->
<g id="node6" class="node"><title>Node6</title>
<polygon fill="none" stroke="#bfbfbf" points="346,-112.5 346,-131.5 390,-131.5 390,-112.5 346,-112.5"/>
<text text-anchor="middle" x="368" y="-119.5" font-family="Helvetica,sans-Serif" font-size="10.00">QRect</text>
</g>
<!-- Node2&#45;&gt;Node6 -->
<g id="edge5" class="edge"><title>Node2&#45;&gt;Node6</title>
<path fill="none" stroke="midnightblue" d="M315.122,-168.324C324.526,-160.263 338.744,-148.077 350.069,-138.369"/>
<polygon fill="midnightblue" stroke="midnightblue" points="352.379,-140.999 357.694,-131.834 347.823,-135.684 352.379,-140.999"/>
</g>
<!-- Node7 -->
<g id="node7" class="node"><title>Node7</title>
<polygon fill="none" stroke="#bfbfbf" points="478,-0.5 478,-19.5 570,-19.5 570,-0.5 478,-0.5"/>
<text text-anchor="middle" x="524" y="-7.5" font-family="Helvetica,sans-Serif" font-size="10.00">QSharedPointer</text>
</g>
<!-- Node2&#45;&gt;Node7 -->
<g id="edge6" class="edge"><title>Node2&#45;&gt;Node7</title>
<path fill="none" stroke="midnightblue" d="M339.303,-176.885C377.42,-174.948 438.639,-166.199 477,-132 507.186,-105.089 518.147,-56.4527 522.003,-29.7705"/>
<polygon fill="midnightblue" stroke="midnightblue" points="525.518,-29.8662 523.287,-19.5089 518.572,-28.9967 525.518,-29.8662"/>
</g>
<!-- Node8 -->
<g id="node8" class="node"><title>Node8</title>
<g id="a_node8"><a xlink:href="style_8hpp.html" target="_top" xlink:title="style.hpp">
<polygon fill="none" stroke="black" points="408,-112.5 408,-131.5 468,-131.5 468,-112.5 408,-112.5"/>
<text text-anchor="middle" x="438" y="-119.5" font-family="Helvetica,sans-Serif" font-size="10.00">style.hpp</text>
</a>
</g>
</g>
<!-- Node2&#45;&gt;Node8 -->
<g id="edge7" class="edge"><title>Node2&#45;&gt;Node8</title>
<path fill="none" stroke="midnightblue" d="M326.074,-168.444C348.06,-159.517 382.734,-145.439 407.664,-135.317"/>
<polygon fill="midnightblue" stroke="midnightblue" points="409.076,-138.521 417.024,-131.516 406.442,-132.035 409.076,-138.521"/>
</g>
<!-- Node10 -->
<g id="node10" class="node"><title>Node10</title>
<g id="a_node10"><a xlink:href="object_8hpp.html" target="_top" xlink:title="object.hpp">
<polygon fill="none" stroke="black" points="88.5,-56.5 88.5,-75.5 155.5,-75.5 155.5,-56.5 88.5,-56.5"/>
<text text-anchor="middle" x="122" y="-63.5" font-family="Helvetica,sans-Serif" font-size="10.00">object.hpp</text>
</a>
</g>
</g>
<!-- Node2&#45;&gt;Node10 -->
<g id="edge15" class="edge"><title>Node2&#45;&gt;Node10</title>
<path fill="none" stroke="midnightblue" d="M270.894,-170.416C243.451,-163.926 204.842,-152.013 176,-132 157.807,-119.376 142.295,-99.0425 132.627,-84.4789"/>
<polygon fill="midnightblue" stroke="midnightblue" points="135.474,-82.4334 127.149,-75.8808 129.571,-86.195 135.474,-82.4334"/>
</g>
<!-- Node8&#45;&gt;Node3 -->
<g id="edge8" class="edge"><title>Node8&#45;&gt;Node3</title>
<path fill="none" stroke="midnightblue" d="M418.775,-112.368C375.839,-93.0908 271.965,-46.4536 221.486,-23.7894"/>
<polygon fill="midnightblue" stroke="midnightblue" points="222.692,-20.4944 212.135,-19.5914 219.825,-26.8803 222.692,-20.4944"/>
</g>
<!-- Node8&#45;&gt;Node7 -->
<g id="edge10" class="edge"><title>Node8&#45;&gt;Node7</title>
<path fill="none" stroke="midnightblue" d="M444.748,-112.368C459.004,-94.135 492.394,-51.4257 510.963,-27.6752"/>
<polygon fill="midnightblue" stroke="midnightblue" points="513.881,-29.6253 517.283,-19.5914 508.366,-25.3138 513.881,-29.6253"/>
</g>
<!-- Node9 -->
<g id="node9" class="node"><title>Node9</title>
<polygon fill="none" stroke="#bfbfbf" points="370.5,-56.5 370.5,-75.5 419.5,-75.5 419.5,-56.5 370.5,-56.5"/>
<text text-anchor="middle" x="395" y="-63.5" font-family="Helvetica,sans-Serif" font-size="10.00">QColor</text>
</g>
<!-- Node8&#45;&gt;Node9 -->
<g id="edge9" class="edge"><title>Node8&#45;&gt;Node9</title>
<path fill="none" stroke="midnightblue" d="M430.899,-112.083C424.763,-104.377 415.73,-93.0333 408.261,-83.6531"/>
<polygon fill="midnightblue" stroke="midnightblue" points="410.936,-81.3936 401.968,-75.7511 405.46,-85.7542 410.936,-81.3936"/>
</g>
<!-- Node8&#45;&gt;Node10 -->
<g id="edge11" class="edge"><title>Node8&#45;&gt;Node10</title>
<path fill="none" stroke="midnightblue" d="M407.808,-113.826C404.838,-113.183 401.864,-112.562 399,-112 317.034,-95.9026 220.614,-81.1829 165.864,-73.2157"/>
<polygon fill="midnightblue" stroke="midnightblue" points="166.211,-69.7296 155.813,-71.7609 165.209,-76.6574 166.211,-69.7296"/>
</g>
<!-- Node10&#45;&gt;Node3 -->
<g id="edge12" class="edge"><title>Node10&#45;&gt;Node3</title>
<path fill="none" stroke="midnightblue" d="M133.407,-56.324C144.109,-48.1849 160.341,-35.8395 173.163,-26.0874"/>
<polygon fill="midnightblue" stroke="midnightblue" points="175.544,-28.6734 181.385,-19.8339 171.307,-23.1018 175.544,-28.6734"/>
</g>
<!-- Node10&#45;&gt;Node7 -->
<g id="edge14" class="edge"><title>Node10&#45;&gt;Node7</title>
<path fill="none" stroke="midnightblue" d="M155.583,-60.4889C224.58,-51.2206 382.919,-29.9512 467.808,-18.5482"/>
<polygon fill="midnightblue" stroke="midnightblue" points="468.34,-22.0082 477.785,-17.208 467.408,-15.0705 468.34,-22.0082"/>
</g>
<!-- Node11 -->
<g id="node11" class="node"><title>Node11</title>
<polygon fill="none" stroke="#bfbfbf" points="90,-0.5 90,-19.5 148,-19.5 148,-0.5 90,-0.5"/>
<text text-anchor="middle" x="119" y="-7.5" font-family="Helvetica,sans-Serif" font-size="10.00">QVariant</text>
</g>
<!-- Node10&#45;&gt;Node11 -->
<g id="edge13" class="edge"><title>Node10&#45;&gt;Node11</title>
<path fill="none" stroke="midnightblue" d="M121.505,-56.083C121.111,-49.0059 120.548,-38.8611 120.055,-29.9865"/>
<polygon fill="midnightblue" stroke="midnightblue" points="123.536,-29.5415 119.486,-19.7511 116.546,-29.9299 123.536,-29.5415"/>
</g>
<!-- Node12&#45;&gt;Node10 -->
<g id="edge17" class="edge"><title>Node12&#45;&gt;Node10</title>
<path fill="none" stroke="midnightblue" d="M78.9447,-448.464C64.6335,-440.603 44.4326,-427.783 31,-412 10.2557,-387.627 0,-379.006 0,-347 0,-347 0,-347 0,-177 0,-128.568 53.6882,-95.986 89.8338,-79.5381"/>
<polygon fill="midnightblue" stroke="midnightblue" points="91.2871,-82.7227 99.0527,-75.5154 88.4875,-76.3069 91.2871,-82.7227"/>
</g>
<!-- Node13 -->
<g id="node13" class="node"><title>Node13</title>
<g id="a_node13"><a xlink:href="crosstabheader_8hpp.html" target="_top" xlink:title="crosstabheader.hpp">
<polygon fill="none" stroke="black" points="40,-392.5 40,-411.5 152,-411.5 152,-392.5 40,-392.5"/>
<text text-anchor="middle" x="96" y="-399.5" font-family="Helvetica,sans-Serif" font-size="10.00">crosstabheader.hpp</text>
</a>
</g>
</g>
<!-- Node12&#45;&gt;Node13 -->
<g id="edge18" class="edge"><title>Node12&#45;&gt;Node13</title>
<path fill="none" stroke="midnightblue" d="M96,-448.083C96,-441.006 96,-430.861 96,-421.986"/>
<polygon fill="midnightblue" stroke="midnightblue" points="99.5001,-421.751 96,-411.751 92.5001,-421.751 99.5001,-421.751"/>
</g>
<!-- Node13&#45;&gt;Node10 -->
<g id="edge19" class="edge"><title>Node13&#45;&gt;Node10</title>
<path fill="none" stroke="midnightblue" d="M87.69,-392.411C71.6525,-374.887 38,-333.099 38,-291 38,-291 38,-291 38,-233 38,-172.409 83.1062,-111.48 107.212,-83.2449"/>
<polygon fill="midnightblue" stroke="midnightblue" points="109.983,-85.394 113.946,-75.5683 104.72,-80.778 109.983,-85.394"/>
</g>
<!-- Node14 -->
<g id="node14" class="node"><title>Node14</title>
<g id="a_node14"><a xlink:href="cellcontents_8hpp.html" target="_top" xlink:title="cellcontents.hpp">
<polygon fill="none" stroke="black" points="177.5,-336.5 177.5,-355.5 272.5,-355.5 272.5,-336.5 177.5,-336.5"/>
<text text-anchor="middle" x="225" y="-343.5" font-family="Helvetica,sans-Serif" font-size="10.00">cellcontents.hpp</text>
</a>
</g>
</g>
<!-- Node13&#45;&gt;Node14 -->
<g id="edge20" class="edge"><title>Node13&#45;&gt;Node14</title>
<path fill="none" stroke="midnightblue" d="M116.44,-392.444C137.67,-383.557 171.099,-369.563 195.255,-359.451"/>
<polygon fill="midnightblue" stroke="midnightblue" points="196.782,-362.606 204.655,-355.516 194.079,-356.149 196.782,-362.606"/>
</g>
<!-- Node14&#45;&gt;Node2 -->
<g id="edge21" class="edge"><title>Node14&#45;&gt;Node2</title>
<path fill="none" stroke="midnightblue" d="M229.301,-336.075C242.003,-309.719 279.517,-231.878 296.489,-196.661"/>
<polygon fill="midnightblue" stroke="midnightblue" points="299.682,-198.096 300.871,-187.568 293.376,-195.057 299.682,-198.096"/>
</g>
<!-- Node15 -->
<g id="node15" class="node"><title>Node15</title>
<g id="a_node15"><a xlink:href="textfield_8hpp.html" target="_top" xlink:title="textfield.hpp">
<polygon fill="none" stroke="black" points="414,-280.5 414,-299.5 490,-299.5 490,-280.5 414,-280.5"/>
<text text-anchor="middle" x="452" y="-287.5" font-family="Helvetica,sans-Serif" font-size="10.00">textfield.hpp</text>
</a>
</g>
</g>
<!-- Node14&#45;&gt;Node15 -->
<g id="edge22" class="edge"><title>Node14&#45;&gt;Node15</title>
<path fill="none" stroke="midnightblue" d="M260.969,-336.444C300.319,-327.083 363.487,-312.056 406.314,-301.868"/>
<polygon fill="midnightblue" stroke="midnightblue" points="407.281,-305.236 416.199,-299.516 405.661,-298.426 407.281,-305.236"/>
</g>
<!-- Node15&#45;&gt;Node3 -->
<g id="edge23" class="edge"><title>Node15&#45;&gt;Node3</title>
<path fill="none" stroke="midnightblue" d="M413.91,-281.682C332.673,-263.698 144.478,-208.755 79,-76 75.068,-68.028 73.9999,-63.3493 79,-56 88.1404,-42.5653 126.953,-29.1434 156.778,-20.5013"/>
<polygon fill="midnightblue" stroke="midnightblue" points="157.818,-23.8445 166.492,-17.7605 155.918,-17.1074 157.818,-23.8445"/>
</g>
<!-- Node15&#45;&gt;Node7 -->
<g id="edge24" class="edge"><title>Node15&#45;&gt;Node7</title>
<path fill="none" stroke="midnightblue" d="M489.444,-280.499C536.167,-267.417 610,-237.491 610,-179 610,-179 610,-179 610,-121 610,-79.583 571.693,-44.4526 546.212,-25.6658"/>
<polygon fill="midnightblue" stroke="midnightblue" points="548,-22.6436 537.817,-19.7187 543.954,-28.3555 548,-22.6436"/>
</g>
<!-- Node16 -->
<g id="node16" class="node"><title>Node16</title>
<g id="a_node16"><a xlink:href="textwidget_8hpp.html" target="_top" xlink:title="textwidget.hpp">
<polygon fill="none" stroke="black" points="449.5,-224.5 449.5,-243.5 536.5,-243.5 536.5,-224.5 449.5,-224.5"/>
<text text-anchor="middle" x="493" y="-231.5" font-family="Helvetica,sans-Serif" font-size="10.00">textwidget.hpp</text>
</a>
</g>
</g>
<!-- Node15&#45;&gt;Node16 -->
<g id="edge25" class="edge"><title>Node15&#45;&gt;Node16</title>
<path fill="none" stroke="midnightblue" d="M458.77,-280.083C464.562,-272.455 473.058,-261.264 480.138,-251.941"/>
<polygon fill="midnightblue" stroke="midnightblue" points="483.096,-253.832 486.356,-243.751 477.521,-249.599 483.096,-253.832"/>
</g>
<!-- Node16&#45;&gt;Node2 -->
<g id="edge28" class="edge"><title>Node16&#45;&gt;Node2</title>
<path fill="none" stroke="midnightblue" d="M463.211,-224.444C431.171,-215.241 380.067,-200.562 344.647,-190.388"/>
<polygon fill="midnightblue" stroke="midnightblue" points="345.227,-186.913 334.65,-187.516 343.295,-193.641 345.227,-186.913"/>
</g>
<!-- Node16&#45;&gt;Node3 -->
<g id="edge26" class="edge"><title>Node16&#45;&gt;Node3</title>
<path fill="none" stroke="midnightblue" d="M493.521,-224.325C494.41,-203.787 494.655,-150.993 477,-112 463.359,-81.8726 456.691,-72.4493 428,-56 364.882,-19.812 278.129,-12.0775 229.627,-10.8017"/>
<polygon fill="midnightblue" stroke="midnightblue" points="229.656,-7.30169 219.593,-10.6164 229.527,-14.3005 229.656,-7.30169"/>
</g>
<!-- Node16&#45;&gt;Node7 -->
<g id="edge27" class="edge"><title>Node16&#45;&gt;Node7</title>
<path fill="none" stroke="midnightblue" d="M510.198,-224.386C523.251,-216.794 540.234,-204.389 548,-188 573.403,-134.393 547.44,-62.0672 532.693,-28.9317"/>
<polygon fill="midnightblue" stroke="midnightblue" points="535.759,-27.2246 528.378,-19.6239 529.408,-30.1685 535.759,-27.2246"/>
</g>
<!-- Node17&#45;&gt;Node10 -->
<g id="edge30" class="edge"><title>Node17&#45;&gt;Node10</title>
<path fill="none" stroke="midnightblue" d="M204.587,-392.464C173.009,-377.108 114,-341.639 114,-291 114,-291 114,-291 114,-177 114,-144.863 117.439,-107.584 119.807,-85.7187"/>
<polygon fill="midnightblue" stroke="midnightblue" points="123.312,-85.8715 120.954,-75.5424 116.356,-85.0874 123.312,-85.8715"/>
</g>
<!-- Node17&#45;&gt;Node14 -->
<g id="edge31" class="edge"><title>Node17&#45;&gt;Node14</title>
<path fill="none" stroke="midnightblue" d="M224.165,-392.083C224.296,-385.006 224.484,-374.861 224.648,-365.986"/>
<polygon fill="midnightblue" stroke="midnightblue" points="228.152,-365.814 224.838,-355.751 221.153,-365.685 228.152,-365.814"/>
</g>
</g>
</svg>
