<?xml version="1.0" encoding="UTF-8" standalone="no"?>
<!DOCTYPE svg PUBLIC "-//W3C//DTD SVG 1.1//EN"
 "http://www.w3.org/Graphics/SVG/1.1/DTD/svg11.dtd">
<!-- Generated by graphviz version 2.38.0 (20140413.2041)
 -->
<!-- Title: /home/travis/build/PO&#45;31/QtReports/qtreports/src/tags/field.hpp Pages: 1 -->
<svg width="375pt" height="162pt"
 viewBox="0.00 0.00 375.00 162.00" xmlns="http://www.w3.org/2000/svg" xmlns:xlink="http://www.w3.org/1999/xlink">
<g id="graph0" class="graph" transform="scale(1 1) rotate(0) translate(4 158)">
<title>/home/travis/build/PO&#45;31/QtReports/qtreports/src/tags/field.hpp</title>
<!-- Node1 -->
<g id="node1" class="node"><title>Node1</title>
<polygon fill="#bfbfbf" stroke="black" points="119,-112.5 119,-153.5 265,-153.5 265,-112.5 119,-112.5"/>
<text text-anchor="start" x="127" y="-141.5" font-family="Helvetica,sans-Serif" font-size="10.00">/home/travis/build</text>
<text text-anchor="start" x="127" y="-130.5" font-family="Helvetica,sans-Serif" font-size="10.00">/PO&#45;31/QtReports/qtreports</text>
<text text-anchor="middle" x="192" y="-119.5" font-family="Helvetica,sans-Serif" font-size="10.00">/src/tags/field.hpp</text>
</g>
<!-- Node2 -->
<g id="node2" class="node"><title>Node2</title>
<polygon fill="none" stroke="#bfbfbf" points="0,-0.5 0,-19.5 92,-19.5 92,-0.5 0,-0.5"/>
<text text-anchor="middle" x="46" y="-7.5" font-family="Helvetica,sans-Serif" font-size="10.00">QSharedPointer</text>
</g>
<!-- Node1&#45;&gt;Node2 -->
<g id="edge1" class="edge"><title>Node1&#45;&gt;Node2</title>
<path fill="none" stroke="midnightblue" d="M122.828,-112.458C102.936,-103.988 82.6761,-92.1871 68,-76 56.3819,-63.1857 50.8657,-43.9994 48.2671,-29.7903"/>
<polygon fill="midnightblue" stroke="midnightblue" points="51.6949,-29.0477 46.7478,-19.6789 44.7726,-30.0879 51.6949,-29.0477"/>
</g>
<!-- Node3 -->
<g id="node3" class="node"><title>Node3</title>
<polygon fill="none" stroke="#bfbfbf" points="110,-0.5 110,-19.5 168,-19.5 168,-0.5 110,-0.5"/>
<text text-anchor="middle" x="139" y="-7.5" font-family="Helvetica,sans-Serif" font-size="10.00">QVariant</text>
</g>
<!-- Node1&#45;&gt;Node3 -->
<g id="edge2" class="edge"><title>Node1&#45;&gt;Node3</title>
<path fill="none" stroke="midnightblue" d="M183.367,-112.29C173.238,-89.1656 156.591,-51.1597 146.825,-28.8641"/>
<polygon fill="midnightblue" stroke="midnightblue" points="149.974,-27.3304 142.756,-19.5748 143.562,-30.1389 149.974,-27.3304"/>
</g>
<!-- Node4 -->
<g id="node4" class="node"><title>Node4</title>
<polygon fill="none" stroke="#bfbfbf" points="186.5,-0.5 186.5,-19.5 239.5,-19.5 239.5,-0.5 186.5,-0.5"/>
<text text-anchor="middle" x="213" y="-7.5" font-family="Helvetica,sans-Serif" font-size="10.00">QString</text>
</g>
<!-- Node1&#45;&gt;Node4 -->
<g id="edge3" class="edge"><title>Node1&#45;&gt;Node4</title>
<path fill="none" stroke="midnightblue" d="M195.421,-112.29C199.398,-89.3749 205.911,-51.8464 209.794,-29.4732"/>
<polygon fill="midnightblue" stroke="midnightblue" points="213.25,-30.026 211.512,-19.5748 206.353,-28.829 213.25,-30.026"/>
</g>
<!-- Node5 -->
<g id="node5" class="node"><title>Node5</title>
<polygon fill="none" stroke="#bfbfbf" points="239.5,-56.5 239.5,-75.5 294.5,-75.5 294.5,-56.5 239.5,-56.5"/>
<text text-anchor="middle" x="267" y="-63.5" font-family="Helvetica,sans-Serif" font-size="10.00">QVector</text>
</g>
<!-- Node1&#45;&gt;Node5 -->
<g id="edge4" class="edge"><title>Node1&#45;&gt;Node5</title>
<path fill="none" stroke="midnightblue" d="M214.502,-112.498C225.67,-102.82 238.961,-91.3002 249.376,-82.274"/>
<polygon fill="midnightblue" stroke="midnightblue" points="251.752,-84.8468 257.016,-75.6525 247.167,-79.5569 251.752,-84.8468"/>
</g>
<!-- Node6 -->
<g id="node6" class="node"><title>Node6</title>
<polygon fill="none" stroke="#bfbfbf" points="313,-56.5 313,-75.5 367,-75.5 367,-56.5 313,-56.5"/>
<text text-anchor="middle" x="340" y="-63.5" font-family="Helvetica,sans-Serif" font-size="10.00">QImage</text>
</g>
<!-- Node1&#45;&gt;Node6 -->
<g id="edge5" class="edge"><title>Node1&#45;&gt;Node6</title>
<path fill="none" stroke="midnightblue" d="M236.405,-112.498C260.514,-101.909 289.642,-89.1169 310.863,-79.7968"/>
<polygon fill="midnightblue" stroke="midnightblue" points="312.55,-82.8783 320.299,-75.6525 309.736,-76.4692 312.55,-82.8783"/>
</g>
<!-- Node7 -->
<g id="node7" class="node"><title>Node7</title>
<g id="a_node7"><a xlink:href="object_8hpp.html" target="_top" xlink:title="object.hpp">
<polygon fill="none" stroke="black" points="77.5,-56.5 77.5,-75.5 144.5,-75.5 144.5,-56.5 77.5,-56.5"/>
<text text-anchor="middle" x="111" y="-63.5" font-family="Helvetica,sans-Serif" font-size="10.00">object.hpp</text>
</a>
</g>
</g>
<!-- Node1&#45;&gt;Node7 -->
<g id="edge6" class="edge"><title>Node1&#45;&gt;Node7</title>
<path fill="none" stroke="midnightblue" d="M167.697,-112.498C155.517,-102.724 140.997,-91.0719 129.701,-82.0066"/>
<polygon fill="midnightblue" stroke="midnightblue" points="131.772,-79.1815 121.782,-75.6525 127.391,-84.641 131.772,-79.1815"/>
</g>
<!-- Node7&#45;&gt;Node2 -->
<g id="edge9" class="edge"><title>Node7&#45;&gt;Node2</title>
<path fill="none" stroke="midnightblue" d="M100.557,-56.324C90.8538,-48.2631 76.1847,-36.0765 64.5003,-26.3695"/>
<polygon fill="midnightblue" stroke="midnightblue" points="66.5619,-23.532 56.6334,-19.8339 62.0887,-28.9163 66.5619,-23.532"/>
</g>
<!-- Node7&#45;&gt;Node3 -->
<g id="edge8" class="edge"><title>Node7&#45;&gt;Node3</title>
<path fill="none" stroke="midnightblue" d="M115.624,-56.083C119.456,-48.6913 125.024,-37.9533 129.765,-28.8111"/>
<polygon fill="midnightblue" stroke="midnightblue" points="132.966,-30.2398 134.462,-19.7511 126.752,-27.0175 132.966,-30.2398"/>
</g>
<!-- Node7&#45;&gt;Node4 -->
<g id="edge7" class="edge"><title>Node7&#45;&gt;Node4</title>
<path fill="none" stroke="midnightblue" d="M127.388,-56.324C143.671,-47.7034 168.867,-34.3643 187.716,-24.3855"/>
<polygon fill="midnightblue" stroke="midnightblue" points="189.452,-27.4267 196.653,-19.6545 186.177,-21.2402 189.452,-27.4267"/>
</g>
</g>
</svg>
