<?xml version="1.0" encoding="UTF-8" standalone="no"?>
<!DOCTYPE svg PUBLIC "-//W3C//DTD SVG 1.1//EN"
 "http://www.w3.org/Graphics/SVG/1.1/DTD/svg11.dtd">
<!-- Generated by graphviz version 2.38.0 (20140413.2041)
 -->
<!-- Title: /home/travis/build/PO&#45;31/QtReports/qtreports/src/tags/group.hpp Pages: 1 -->
<!--zoomable 284 -->
<svg id="main" version="1.1" xmlns="http://www.w3.org/2000/svg" xmlns:xlink="http://www.w3.org/1999/xlink" xml:space="preserve" onload="init(evt)">
<style type="text/css"><![CDATA[
.edge:hover path { stroke: red; }
.edge:hover polygon { stroke: red; fill: red; }
]]></style>
<script type="text/javascript"><![CDATA[
var edges = document.getElementsByTagName('g');
if (edges && edges.length) {
  for (var i=0;i<edges.length;i++) {
    if (edges[i].id.substr(0,4)=='edge') {
      edges[i].setAttribute('class','edge');
    }
  }
}
]]></script>
        <defs>
                <circle id="rim" cx="0" cy="0" r="7"/>
                <circle id="rim2" cx="0" cy="0" r="3.5"/>
                <g id="zoomPlus">
                        <use xlink:href="#rim" fill="#404040">
                                <set attributeName="fill" to="#808080" begin="zoomplus.mouseover" end="zoomplus.mouseout"/>
                        </use>
                        <path d="M-4,0h8M0,-4v8" fill="none" stroke="white" stroke-width="1.5" pointer-events="none"/>
                </g>
                <g id="zoomMin">
                        <use xlink:href="#rim" fill="#404040">
                                <set attributeName="fill" to="#808080" begin="zoomminus.mouseover" end="zoomminus.mouseout"/>
                        </use>
                        <path d="M-4,0h8" fill="none" stroke="white" stroke-width="1.5" pointer-events="none"/>
                </g>
                <g id="dirArrow">
                        <path fill="none" stroke="white" stroke-width="1.5" d="M0,-3.0v7 M-2.5,-0.5L0,-3.0L2.5,-0.5"/>
                </g>
               <g id="resetDef">
                       <use xlink:href="#rim2" fill="#404040">
                               <set attributeName="fill" to="#808080" begin="reset.mouseover" end="reset.mouseout"/>
                       </use>
               </g>
        </defs>

<script type="text/javascript">
var viewWidth = 1321;
var viewHeight = 284;
var sectionId = 'dynsection-1';
</script>
<script xlink:href="svgpan.js"/>
<svg id="graph" class="graph">
<g id="viewport">
<title>/home/travis/build/PO&#45;31/QtReports/qtreports/src/tags/group.hpp</title>
<!-- Node1 -->
<g id="node1" class="node"><title>Node1</title>
<polygon fill="#bfbfbf" stroke="black" points="856.5,-234.5 856.5,-275.5 1002.5,-275.5 1002.5,-234.5 856.5,-234.5"/>
<text text-anchor="start" x="864.5" y="-263.5" font-family="Helvetica,sans-Serif" font-size="10.00">/home/travis/build</text>
<text text-anchor="start" x="864.5" y="-252.5" font-family="Helvetica,sans-Serif" font-size="10.00">/PO&#45;31/QtReports/qtreports</text>
<text text-anchor="middle" x="929.5" y="-241.5" font-family="Helvetica,sans-Serif" font-size="10.00">/src/tags/group.hpp</text>
</g>
<!-- Node2 -->
<g id="node2" class="node"><title>Node2</title>
<g id="a_node2"><a xlink:href="report_8hpp.html" target="_top" xlink:title="/home/travis/build\l/PO&#45;31/QtReports/qtreports\l/src/tags/report.hpp">
<polygon fill="none" stroke="black" points="593.5,-156.5 593.5,-197.5 739.5,-197.5 739.5,-156.5 593.5,-156.5"/>
<text text-anchor="start" x="601.5" y="-185.5" font-family="Helvetica,sans-Serif" font-size="10.00">/home/travis/build</text>
<text text-anchor="start" x="601.5" y="-174.5" font-family="Helvetica,sans-Serif" font-size="10.00">/PO&#45;31/QtReports/qtreports</text>
<text text-anchor="middle" x="666.5" y="-163.5" font-family="Helvetica,sans-Serif" font-size="10.00">/src/tags/report.hpp</text>
</a>
</g>
</g>
<!-- Node1&#45;&gt;Node2 -->
<g id="edge1" class="edge"><title>Node1&#45;&gt;Node2</title>
<path fill="none" stroke="midnightblue" d="M851.917,-231.58C814.487,-220.764 770.009,-207.911 734,-197.506"/>
<polygon fill="midnightblue" stroke="midnightblue" points="851.192,-235.014 861.771,-234.428 853.136,-228.289 851.192,-235.014"/>
</g>
<!-- Node13 -->
<g id="node13" class="node"><title>Node13</title>
<g id="a_node13"><a xlink:href="parserfromxml_8hpp.html" target="_top" xlink:title="/home/travis/build\l/PO&#45;31/QtReports/qtreports\l/src/parsers/parserfromxml.hpp">
<polygon fill="none" stroke="black" points="927,-78.5 927,-119.5 1094,-119.5 1094,-78.5 927,-78.5"/>
<text text-anchor="start" x="935" y="-107.5" font-family="Helvetica,sans-Serif" font-size="10.00">/home/travis/build</text>
<text text-anchor="start" x="935" y="-96.5" font-family="Helvetica,sans-Serif" font-size="10.00">/PO&#45;31/QtReports/qtreports</text>
<text text-anchor="middle" x="1010.5" y="-85.5" font-family="Helvetica,sans-Serif" font-size="10.00">/src/parsers/parserfromxml.hpp</text>
</a>
</g>
</g>
<!-- Node1&#45;&gt;Node13 -->
<g id="edge23" class="edge"><title>Node1&#45;&gt;Node13</title>
<path fill="none" stroke="midnightblue" d="M930.39,-224.08C932.13,-203.744 936.73,-176.853 948.5,-156 956.556,-141.726 969.581,-129.143 981.617,-119.538"/>
<polygon fill="midnightblue" stroke="midnightblue" points="926.879,-224.125 929.703,-234.337 933.863,-224.593 926.879,-224.125"/>
</g>
<!-- Node15 -->
<g id="node15" class="node"><title>Node15</title>
<g id="a_node15"><a xlink:href="group_8cpp.html" target="_top" xlink:title="/home/travis/build\l/PO&#45;31/QtReports/qtreports\l/src/tags/group.cpp">
<polygon fill="none" stroke="black" points="957.5,-156.5 957.5,-197.5 1103.5,-197.5 1103.5,-156.5 957.5,-156.5"/>
<text text-anchor="start" x="965.5" y="-185.5" font-family="Helvetica,sans-Serif" font-size="10.00">/home/travis/build</text>
<text text-anchor="start" x="965.5" y="-174.5" font-family="Helvetica,sans-Serif" font-size="10.00">/PO&#45;31/QtReports/qtreports</text>
<text text-anchor="middle" x="1030.5" y="-163.5" font-family="Helvetica,sans-Serif" font-size="10.00">/src/tags/group.cpp</text>
</a>
</g>
</g>
<!-- Node1&#45;&gt;Node15 -->
<g id="edge24" class="edge"><title>Node1&#45;&gt;Node15</title>
<path fill="none" stroke="midnightblue" d="M963.587,-228.35C976.981,-218.272 992.103,-206.893 1004.58,-197.506"/>
<polygon fill="midnightblue" stroke="midnightblue" points="961.396,-225.619 955.51,-234.428 965.605,-231.212 961.396,-225.619"/>
</g>
<!-- Node3 -->
<g id="node3" class="node"><title>Node3</title>
<g id="a_node3"><a xlink:href="convertertohtml_8hpp.html" target="_top" xlink:title="/home/travis/build\l/PO&#45;31/QtReports/qtreports\l/src/converters/convertertohtml.hpp">
<polygon fill="none" stroke="black" points="491,-78.5 491,-119.5 680,-119.5 680,-78.5 491,-78.5"/>
<text text-anchor="start" x="499" y="-107.5" font-family="Helvetica,sans-Serif" font-size="10.00">/home/travis/build</text>
<text text-anchor="start" x="499" y="-96.5" font-family="Helvetica,sans-Serif" font-size="10.00">/PO&#45;31/QtReports/qtreports</text>
<text text-anchor="middle" x="585.5" y="-85.5" font-family="Helvetica,sans-Serif" font-size="10.00">/src/converters/convertertohtml.hpp</text>
</a>
</g>
</g>
<!-- Node2&#45;&gt;Node3 -->
<g id="edge2" class="edge"><title>Node2&#45;&gt;Node3</title>
<path fill="none" stroke="midnightblue" d="M638.248,-149.492C627.737,-139.629 616.011,-128.627 606.289,-119.506"/>
<polygon fill="midnightblue" stroke="midnightblue" points="635.953,-152.138 645.64,-156.428 640.743,-147.033 635.953,-152.138"/>
</g>
<!-- Node5 -->
<g id="node5" class="node"><title>Node5</title>
<g id="a_node5"><a xlink:href="engine_8cpp.html" target="_top" xlink:title="/home/travis/build\l/PO&#45;31/QtReports/qtreports\l/src/engine.cpp">
<polygon fill="none" stroke="black" points="199.5,-0.5 199.5,-41.5 345.5,-41.5 345.5,-0.5 199.5,-0.5"/>
<text text-anchor="start" x="207.5" y="-29.5" font-family="Helvetica,sans-Serif" font-size="10.00">/home/travis/build</text>
<text text-anchor="start" x="207.5" y="-18.5" font-family="Helvetica,sans-Serif" font-size="10.00">/PO&#45;31/QtReports/qtreports</text>
<text text-anchor="middle" x="272.5" y="-7.5" font-family="Helvetica,sans-Serif" font-size="10.00">/src/engine.cpp</text>
</a>
</g>
</g>
<!-- Node2&#45;&gt;Node5 -->
<g id="edge21" class="edge"><title>Node2&#45;&gt;Node5</title>
<path fill="none" stroke="midnightblue" d="M582.992,-176.863C476.333,-175.972 300.593,-167.134 259.5,-120 240.777,-98.525 251.802,-63.6942 261.867,-41.8581"/>
<polygon fill="midnightblue" stroke="midnightblue" points="583.07,-180.363 593.092,-176.925 583.114,-173.363 583.07,-180.363"/>
</g>
<!-- Node6 -->
<g id="node6" class="node"><title>Node6</title>
<g id="a_node6"><a xlink:href="replacer_8hpp.html" target="_top" xlink:title="/home/travis/build\l/PO&#45;31/QtReports/qtreports\l/src/converters/utils/replacer.hpp">
<polygon fill="none" stroke="black" points="698,-78.5 698,-119.5 871,-119.5 871,-78.5 698,-78.5"/>
<text text-anchor="start" x="706" y="-107.5" font-family="Helvetica,sans-Serif" font-size="10.00">/home/travis/build</text>
<text text-anchor="start" x="706" y="-96.5" font-family="Helvetica,sans-Serif" font-size="10.00">/PO&#45;31/QtReports/qtreports</text>
<text text-anchor="middle" x="784.5" y="-85.5" font-family="Helvetica,sans-Serif" font-size="10.00">/src/converters/utils/replacer.hpp</text>
</a>
</g>
</g>
<!-- Node2&#45;&gt;Node6 -->
<g id="edge5" class="edge"><title>Node2&#45;&gt;Node6</title>
<path fill="none" stroke="midnightblue" d="M705.441,-150.919C721.305,-140.702 739.365,-129.07 754.215,-119.506"/>
<polygon fill="midnightblue" stroke="midnightblue" points="703.4,-148.071 696.888,-156.428 707.19,-153.956 703.4,-148.071"/>
</g>
<!-- Node10 -->
<g id="node10" class="node"><title>Node10</title>
<g id="a_node10"><a xlink:href="report_8cpp.html" target="_top" xlink:title="/home/travis/build\l/PO&#45;31/QtReports/qtreports\l/src/tags/report.cpp">
<polygon fill="none" stroke="black" points="981.5,-0.5 981.5,-41.5 1127.5,-41.5 1127.5,-0.5 981.5,-0.5"/>
<text text-anchor="start" x="989.5" y="-29.5" font-family="Helvetica,sans-Serif" font-size="10.00">/home/travis/build</text>
<text text-anchor="start" x="989.5" y="-18.5" font-family="Helvetica,sans-Serif" font-size="10.00">/PO&#45;31/QtReports/qtreports</text>
<text text-anchor="middle" x="1054.5" y="-7.5" font-family="Helvetica,sans-Serif" font-size="10.00">/src/tags/report.cpp</text>
</a>
</g>
</g>
<!-- Node2&#45;&gt;Node10 -->
<g id="edge22" class="edge"><title>Node2&#45;&gt;Node10</title>
<path fill="none" stroke="midnightblue" d="M749.545,-165.363C790.798,-157.381 840.108,-143.6 879.5,-120 901.352,-106.909 897.57,-92.5199 918.5,-78 940.529,-62.7175 967.367,-50.5507 991.362,-41.5146"/>
<polygon fill="midnightblue" stroke="midnightblue" points="748.711,-161.958 739.516,-167.221 749.986,-168.841 748.711,-161.958"/>
</g>
<!-- Node11 -->
<g id="node11" class="node"><title>Node11</title>
<g id="a_node11"><a xlink:href="convertertopdf_8hpp.html" target="_top" xlink:title="/home/travis/build\l/PO&#45;31/QtReports/qtreports\l/src/converters/convertertopdf.hpp">
<polygon fill="none" stroke="black" points="30.5,-78.5 30.5,-119.5 212.5,-119.5 212.5,-78.5 30.5,-78.5"/>
<text text-anchor="start" x="38.5" y="-107.5" font-family="Helvetica,sans-Serif" font-size="10.00">/home/travis/build</text>
<text text-anchor="start" x="38.5" y="-96.5" font-family="Helvetica,sans-Serif" font-size="10.00">/PO&#45;31/QtReports/qtreports</text>
<text text-anchor="middle" x="121.5" y="-85.5" font-family="Helvetica,sans-Serif" font-size="10.00">/src/converters/convertertopdf.hpp</text>
</a>
</g>
</g>
<!-- Node2&#45;&gt;Node11 -->
<g id="edge11" class="edge"><title>Node2&#45;&gt;Node11</title>
<path fill="none" stroke="midnightblue" d="M583.123,-166.938C494.469,-156.941 350.26,-139.643 226.5,-120 222.01,-119.287 217.417,-118.528 212.783,-117.737"/>
<polygon fill="midnightblue" stroke="midnightblue" points="582.793,-170.423 593.121,-168.061 583.574,-163.467 582.793,-170.423"/>
</g>
<!-- Node12 -->
<g id="node12" class="node"><title>Node12</title>
<g id="a_node12"><a xlink:href="convertertoqwidget_8hpp.html" target="_top" xlink:title="/home/travis/build\l/PO&#45;31/QtReports/qtreports\l/src/converters/convertertoqwidget.hpp">
<polygon fill="none" stroke="black" points="268.5,-78.5 268.5,-119.5 472.5,-119.5 472.5,-78.5 268.5,-78.5"/>
<text text-anchor="start" x="276.5" y="-107.5" font-family="Helvetica,sans-Serif" font-size="10.00">/home/travis/build</text>
<text text-anchor="start" x="276.5" y="-96.5" font-family="Helvetica,sans-Serif" font-size="10.00">/PO&#45;31/QtReports/qtreports</text>
<text text-anchor="middle" x="370.5" y="-85.5" font-family="Helvetica,sans-Serif" font-size="10.00">/src/converters/convertertoqwidget.hpp</text>
</a>
</g>
</g>
<!-- Node2&#45;&gt;Node12 -->
<g id="edge14" class="edge"><title>Node2&#45;&gt;Node12</title>
<path fill="none" stroke="midnightblue" d="M583.479,-154.684C540.572,-143.667 488.572,-130.316 446.696,-119.564"/>
<polygon fill="midnightblue" stroke="midnightblue" points="582.775,-158.117 593.331,-157.213 584.516,-151.336 582.775,-158.117"/>
</g>
<!-- Node2&#45;&gt;Node13 -->
<g id="edge18" class="edge"><title>Node2&#45;&gt;Node13</title>
<path fill="none" stroke="midnightblue" d="M749.718,-157.615C803.466,-145.74 873.15,-130.345 926.961,-118.456"/>
<polygon fill="midnightblue" stroke="midnightblue" points="748.884,-154.214 739.875,-159.789 750.394,-161.05 748.884,-154.214"/>
</g>
<!-- Node4 -->
<g id="node4" class="node"><title>Node4</title>
<g id="a_node4"><a xlink:href="convertertohtml_8cpp.html" target="_top" xlink:title="/home/travis/build\l/PO&#45;31/QtReports/qtreports\l/src/converters/convertertohtml.cpp">
<polygon fill="none" stroke="black" points="585.5,-0.5 585.5,-41.5 773.5,-41.5 773.5,-0.5 585.5,-0.5"/>
<text text-anchor="start" x="593.5" y="-29.5" font-family="Helvetica,sans-Serif" font-size="10.00">/home/travis/build</text>
<text text-anchor="start" x="593.5" y="-18.5" font-family="Helvetica,sans-Serif" font-size="10.00">/PO&#45;31/QtReports/qtreports</text>
<text text-anchor="middle" x="679.5" y="-7.5" font-family="Helvetica,sans-Serif" font-size="10.00">/src/converters/convertertohtml.cpp</text>
</a>
</g>
</g>
<!-- Node3&#45;&gt;Node4 -->
<g id="edge3" class="edge"><title>Node3&#45;&gt;Node4</title>
<path fill="none" stroke="midnightblue" d="M617.578,-72.0648C629.955,-62.0574 643.873,-50.8045 655.375,-41.5056"/>
<polygon fill="midnightblue" stroke="midnightblue" points="615.283,-69.4191 609.707,-78.4281 619.684,-74.8626 615.283,-69.4191"/>
</g>
<!-- Node3&#45;&gt;Node5 -->
<g id="edge4" class="edge"><title>Node3&#45;&gt;Node5</title>
<path fill="none" stroke="midnightblue" d="M494.988,-76.0886C452.359,-65.761 400.814,-53.2618 354.5,-42 351.652,-41.3075 348.749,-40.6012 345.816,-39.8874"/>
<polygon fill="midnightblue" stroke="midnightblue" points="494.237,-79.508 504.78,-78.4608 495.886,-72.7047 494.237,-79.508"/>
</g>
<!-- Node6&#45;&gt;Node4 -->
<g id="edge6" class="edge"><title>Node6&#45;&gt;Node4</title>
<path fill="none" stroke="midnightblue" d="M749.063,-72.3503C735.139,-62.2719 719.418,-50.893 706.448,-41.5056"/>
<polygon fill="midnightblue" stroke="midnightblue" points="747.307,-75.4 757.46,-78.4281 751.411,-69.7295 747.307,-75.4"/>
</g>
<!-- Node7 -->
<g id="node7" class="node"><title>Node7</title>
<g id="a_node7"><a xlink:href="convertertopdf_8cpp.html" target="_top" xlink:title="/home/travis/build\l/PO&#45;31/QtReports/qtreports\l/src/converters/convertertopdf.cpp">
<polygon fill="none" stroke="black" points="0,-0.5 0,-41.5 181,-41.5 181,-0.5 0,-0.5"/>
<text text-anchor="start" x="8" y="-29.5" font-family="Helvetica,sans-Serif" font-size="10.00">/home/travis/build</text>
<text text-anchor="start" x="8" y="-18.5" font-family="Helvetica,sans-Serif" font-size="10.00">/PO&#45;31/QtReports/qtreports</text>
<text text-anchor="middle" x="90.5" y="-7.5" font-family="Helvetica,sans-Serif" font-size="10.00">/src/converters/convertertopdf.cpp</text>
</a>
</g>
</g>
<!-- Node6&#45;&gt;Node7 -->
<g id="edge7" class="edge"><title>Node6&#45;&gt;Node7</title>
<path fill="none" stroke="midnightblue" d="M688.02,-78.0478C466.979,-48.0087 407.177,-71.3818 190.5,-42 187.43,-41.5837 184.312,-41.1308 181.167,-40.6483"/>
<polygon fill="midnightblue" stroke="midnightblue" points="687.601,-81.5231 697.986,-79.4232 688.558,-74.5888 687.601,-81.5231"/>
</g>
<!-- Node8 -->
<g id="node8" class="node"><title>Node8</title>
<g id="a_node8"><a xlink:href="convertertoqwidget_8cpp.html" target="_top" xlink:title="/home/travis/build\l/PO&#45;31/QtReports/qtreports\l/src/converters/convertertoqwidget.cpp">
<polygon fill="none" stroke="black" points="364,-0.5 364,-41.5 567,-41.5 567,-0.5 364,-0.5"/>
<text text-anchor="start" x="372" y="-29.5" font-family="Helvetica,sans-Serif" font-size="10.00">/home/travis/build</text>
<text text-anchor="start" x="372" y="-18.5" font-family="Helvetica,sans-Serif" font-size="10.00">/PO&#45;31/QtReports/qtreports</text>
<text text-anchor="middle" x="465.5" y="-7.5" font-family="Helvetica,sans-Serif" font-size="10.00">/src/converters/convertertoqwidget.cpp</text>
</a>
</g>
</g>
<!-- Node6&#45;&gt;Node8 -->
<g id="edge8" class="edge"><title>Node6&#45;&gt;Node8</title>
<path fill="none" stroke="midnightblue" d="M692.42,-76.0624C646.607,-65.1478 591.7,-52.0664 547.372,-41.5056"/>
<polygon fill="midnightblue" stroke="midnightblue" points="691.811,-79.5152 702.35,-78.4281 693.433,-72.7057 691.811,-79.5152"/>
</g>
<!-- Node9 -->
<g id="node9" class="node"><title>Node9</title>
<g id="a_node9"><a xlink:href="replacer_8cpp.html" target="_top" xlink:title="/home/travis/build\l/PO&#45;31/QtReports/qtreports\l/src/converters/utils/replacer.cpp">
<polygon fill="none" stroke="black" points="791.5,-0.5 791.5,-41.5 963.5,-41.5 963.5,-0.5 791.5,-0.5"/>
<text text-anchor="start" x="799.5" y="-29.5" font-family="Helvetica,sans-Serif" font-size="10.00">/home/travis/build</text>
<text text-anchor="start" x="799.5" y="-18.5" font-family="Helvetica,sans-Serif" font-size="10.00">/PO&#45;31/QtReports/qtreports</text>
<text text-anchor="middle" x="877.5" y="-7.5" font-family="Helvetica,sans-Serif" font-size="10.00">/src/converters/utils/replacer.cpp</text>
</a>
</g>
</g>
<!-- Node6&#45;&gt;Node9 -->
<g id="edge9" class="edge"><title>Node6&#45;&gt;Node9</title>
<path fill="none" stroke="midnightblue" d="M816.237,-72.0648C828.482,-62.0574 842.252,-50.8045 853.631,-41.5056"/>
<polygon fill="midnightblue" stroke="midnightblue" points="813.978,-69.3901 808.45,-78.4281 818.408,-74.8104 813.978,-69.3901"/>
</g>
<!-- Node6&#45;&gt;Node10 -->
<g id="edge10" class="edge"><title>Node6&#45;&gt;Node10</title>
<path fill="none" stroke="midnightblue" d="M863.658,-75.7184C902.185,-64.8738 948.078,-51.9557 985.204,-41.5056"/>
<polygon fill="midnightblue" stroke="midnightblue" points="862.709,-72.3494 854.032,-78.4281 864.606,-79.0876 862.709,-72.3494"/>
</g>
<!-- Node11&#45;&gt;Node5 -->
<g id="edge13" class="edge"><title>Node11&#45;&gt;Node5</title>
<path fill="none" stroke="midnightblue" d="M169.367,-73.9082C190.129,-63.4581 214.126,-51.3801 233.746,-41.5056"/>
<polygon fill="midnightblue" stroke="midnightblue" points="167.745,-70.8059 160.386,-78.4281 170.892,-77.0586 167.745,-70.8059"/>
</g>
<!-- Node11&#45;&gt;Node7 -->
<g id="edge12" class="edge"><title>Node11&#45;&gt;Node7</title>
<path fill="none" stroke="midnightblue" d="M109.623,-68.8823C105.886,-59.7211 101.852,-49.8303 98.4562,-41.5056"/>
<polygon fill="midnightblue" stroke="midnightblue" points="106.499,-70.4907 113.517,-78.4281 112.981,-67.8468 106.499,-70.4907"/>
</g>
<!-- Node12&#45;&gt;Node5 -->
<g id="edge17" class="edge"><title>Node12&#45;&gt;Node5</title>
<path fill="none" stroke="midnightblue" d="M337.057,-72.0648C324.153,-62.0574 309.643,-50.8045 297.652,-41.5056"/>
<polygon fill="midnightblue" stroke="midnightblue" points="335.215,-75.0656 345.263,-78.4281 339.505,-69.5341 335.215,-75.0656"/>
</g>
<!-- Node12&#45;&gt;Node7 -->
<g id="edge15" class="edge"><title>Node12&#45;&gt;Node7</title>
<path fill="none" stroke="midnightblue" d="M288.664,-75.7873C248.658,-64.9285 200.945,-51.9779 162.363,-41.5056"/>
<polygon fill="midnightblue" stroke="midnightblue" points="287.825,-79.1863 298.393,-78.4281 289.659,-72.4307 287.825,-79.1863"/>
</g>
<!-- Node12&#45;&gt;Node8 -->
<g id="edge16" class="edge"><title>Node12&#45;&gt;Node8</title>
<path fill="none" stroke="midnightblue" d="M402.919,-72.0648C415.428,-62.0574 429.494,-50.8045 441.118,-41.5056"/>
<polygon fill="midnightblue" stroke="midnightblue" points="400.587,-69.4481 394.965,-78.4281 404.96,-74.9142 400.587,-69.4481"/>
</g>
<!-- Node13&#45;&gt;Node5 -->
<g id="edge19" class="edge"><title>Node13&#45;&gt;Node5</title>
<path fill="none" stroke="midnightblue" d="M916.788,-82.7282C904.272,-80.9716 891.589,-79.335 879.5,-78 647.032,-52.3288 585.619,-77.8404 354.5,-42 351.604,-41.5509 348.66,-41.0499 345.693,-40.5078"/>
<polygon fill="midnightblue" stroke="midnightblue" points="916.38,-86.2054 926.775,-84.1593 917.373,-79.2762 916.38,-86.2054"/>
</g>
<!-- Node14 -->
<g id="node14" class="node"><title>Node14</title>
<g id="a_node14"><a xlink:href="parserfromxml_8cpp.html" target="_top" xlink:title="/home/travis/build\l/PO&#45;31/QtReports/qtreports\l/src/parsers/parserfromxml.cpp">
<polygon fill="none" stroke="black" points="1146,-0.5 1146,-41.5 1313,-41.5 1313,-0.5 1146,-0.5"/>
<text text-anchor="start" x="1154" y="-29.5" font-family="Helvetica,sans-Serif" font-size="10.00">/home/travis/build</text>
<text text-anchor="start" x="1154" y="-18.5" font-family="Helvetica,sans-Serif" font-size="10.00">/PO&#45;31/QtReports/qtreports</text>
<text text-anchor="middle" x="1229.5" y="-7.5" font-family="Helvetica,sans-Serif" font-size="10.00">/src/parsers/parserfromxml.cpp</text>
</a>
</g>
</g>
<!-- Node13&#45;&gt;Node14 -->
<g id="edge20" class="edge"><title>Node13&#45;&gt;Node14</title>
<path fill="none" stroke="midnightblue" d="M1076.7,-75.0264C1107.53,-64.3275 1143.82,-51.7343 1173.29,-41.5056"/>
<polygon fill="midnightblue" stroke="midnightblue" points="1075.2,-71.843 1066.9,-78.4281 1077.49,-78.4561 1075.2,-71.843"/>
</g>
</g>
</svg>
        <g id="navigator" transform="translate(0 0)" fill="#404254">
                <rect fill="#f2f5e9" fill-opacity="0.5" stroke="#606060" stroke-width=".5" x="0" y="0" width="60" height="60"/>
                <use id="zoomplus" xlink:href="#zoomPlus" x="17" y="9" onmousedown="handleZoom(evt,'in')"/>
                <use id="zoomminus" xlink:href="#zoomMin" x="42" y="9" onmousedown="handleZoom(evt,'out')"/>
                <use id="reset" xlink:href="#resetDef" x="30" y="36" onmousedown="handleReset()"/>
                <g id="arrowUp" xlink:href="#dirArrow" transform="translate(30 24)" onmousedown="handlePan(0,-1)">
                  <use xlink:href="#rim" fill="#404040">
                        <set attributeName="fill" to="#808080" begin="arrowUp.mouseover" end="arrowUp.mouseout"/>
                  </use>
                  <path fill="none" stroke="white" stroke-width="1.5" d="M0,-3.0v7 M-2.5,-0.5L0,-3.0L2.5,-0.5"/>
                </g>
                <g id="arrowRight" xlink:href="#dirArrow" transform="rotate(90) translate(36 -43)" onmousedown="handlePan(1,0)">
                  <use xlink:href="#rim" fill="#404040">
                        <set attributeName="fill" to="#808080" begin="arrowRight.mouseover" end="arrowRight.mouseout"/>
                  </use>
                  <path fill="none" stroke="white" stroke-width="1.5" d="M0,-3.0v7 M-2.5,-0.5L0,-3.0L2.5,-0.5"/>
                </g>
                <g id="arrowDown" xlink:href="#dirArrow" transform="rotate(180) translate(-30 -48)" onmousedown="handlePan(0,1)">
                  <use xlink:href="#rim" fill="#404040">
                        <set attributeName="fill" to="#808080" begin="arrowDown.mouseover" end="arrowDown.mouseout"/>
                  </use>
                  <path fill="none" stroke="white" stroke-width="1.5" d="M0,-3.0v7 M-2.5,-0.5L0,-3.0L2.5,-0.5"/>
                </g>
                <g id="arrowLeft" xlink:href="#dirArrow" transform="rotate(270) translate(-36 17)" onmousedown="handlePan(-1,0)">
                  <use xlink:href="#rim" fill="#404040">
                        <set attributeName="fill" to="#808080" begin="arrowLeft.mouseover" end="arrowLeft.mouseout"/>
                  </use>
                  <path fill="none" stroke="white" stroke-width="1.5" d="M0,-3.0v7 M-2.5,-0.5L0,-3.0L2.5,-0.5"/>
                </g>
        </g>
        <svg viewBox="0 0 15 15" width="100%" height="30px" preserveAspectRatio="xMaxYMin meet">
         <g id="arrow_out" transform="scale(0.3 0.3)">
          <a xlink:href="group_8hpp__dep__incl_org.svg" target="_base">
           <rect id="button" ry="5" rx="5" y="6" x="6" height="38" width="38"
                fill="#f2f5e9" fill-opacity="0.5" stroke="#606060" stroke-width="1.0"/>
           <path id="arrow"
             d="M 11.500037,31.436501 C 11.940474,20.09759 22.043105,11.32322 32.158766,21.979434 L 37.068811,17.246167 C 37.068811,17.246167 37.088388,32 37.088388,32 L 22.160133,31.978069 C 22.160133,31.978069 26.997745,27.140456 26.997745,27.140456 C 18.528582,18.264221 13.291696,25.230495 11.500037,31.436501 z"
             style="fill:#404040;"/>
          </a>
         </g>
        </svg>
</svg>
