<?xml version="1.0" encoding="UTF-8" standalone="no"?>
<!DOCTYPE svg PUBLIC "-//W3C//DTD SVG 1.1//EN"
 "http://www.w3.org/Graphics/SVG/1.1/DTD/svg11.dtd">
<!-- Generated by graphviz version 2.38.0 (20140413.2041)
 -->
<!-- Title: /home/travis/build/PO&#45;31/QtReports/qtreports/src/tags/line.hpp Pages: 1 -->
<svg width="1517pt" height="518pt"
 viewBox="0.00 0.00 1517.00 518.00" xmlns="http://www.w3.org/2000/svg" xmlns:xlink="http://www.w3.org/1999/xlink">
<g id="graph0" class="graph" transform="scale(1 1) rotate(0) translate(4 514)">
<title>/home/travis/build/PO&#45;31/QtReports/qtreports/src/tags/line.hpp</title>
<!-- Node1 -->
<g id="node1" class="node"><title>Node1</title>
<polygon fill="#bfbfbf" stroke="black" points="47,-468.5 47,-509.5 193,-509.5 193,-468.5 47,-468.5"/>
<text text-anchor="start" x="55" y="-497.5" font-family="Helvetica,sans-Serif" font-size="10.00">/home/travis/build</text>
<text text-anchor="start" x="55" y="-486.5" font-family="Helvetica,sans-Serif" font-size="10.00">/PO&#45;31/QtReports/qtreports</text>
<text text-anchor="middle" x="120" y="-475.5" font-family="Helvetica,sans-Serif" font-size="10.00">/src/tags/line.hpp</text>
</g>
<!-- Node2 -->
<g id="node2" class="node"><title>Node2</title>
<g id="a_node2"><a xlink:href="band_8hpp.html" target="_top" xlink:title="/home/travis/build\l/PO&#45;31/QtReports/qtreports\l/src/tags/band.hpp">
<polygon fill="none" stroke="black" points="47,-390.5 47,-431.5 193,-431.5 193,-390.5 47,-390.5"/>
<text text-anchor="start" x="55" y="-419.5" font-family="Helvetica,sans-Serif" font-size="10.00">/home/travis/build</text>
<text text-anchor="start" x="55" y="-408.5" font-family="Helvetica,sans-Serif" font-size="10.00">/PO&#45;31/QtReports/qtreports</text>
<text text-anchor="middle" x="120" y="-397.5" font-family="Helvetica,sans-Serif" font-size="10.00">/src/tags/band.hpp</text>
</a>
</g>
</g>
<!-- Node1&#45;&gt;Node2 -->
<g id="edge1" class="edge"><title>Node1&#45;&gt;Node2</title>
<path fill="none" stroke="midnightblue" d="M120,-458.297C120,-449.301 120,-439.653 120,-431.506"/>
<polygon fill="midnightblue" stroke="midnightblue" points="116.5,-458.428 120,-468.428 123.5,-458.428 116.5,-458.428"/>
</g>
<!-- Node16 -->
<g id="node16" class="node"><title>Node16</title>
<g id="a_node16"><a xlink:href="parserfromxml_8hpp.html" target="_top" xlink:title="/home/travis/build\l/PO&#45;31/QtReports/qtreports\l/src/parsers/parserfromxml.hpp">
<polygon fill="none" stroke="black" points="195.5,-78.5 195.5,-119.5 362.5,-119.5 362.5,-78.5 195.5,-78.5"/>
<text text-anchor="start" x="203.5" y="-107.5" font-family="Helvetica,sans-Serif" font-size="10.00">/home/travis/build</text>
<text text-anchor="start" x="203.5" y="-96.5" font-family="Helvetica,sans-Serif" font-size="10.00">/PO&#45;31/QtReports/qtreports</text>
<text text-anchor="middle" x="279" y="-85.5" font-family="Helvetica,sans-Serif" font-size="10.00">/src/parsers/parserfromxml.hpp</text>
</a>
</g>
</g>
<!-- Node1&#45;&gt;Node16 -->
<g id="edge44" class="edge"><title>Node1&#45;&gt;Node16</title>
<path fill="none" stroke="midnightblue" d="M72.8301,-462.818C60.2276,-454.347 47.49,-443.96 38,-432 8.96249,-395.406 0,-380.715 0,-334 0,-334 0,-334 0,-254 0,-204.054 15.3046,-186.313 55,-156 95.142,-125.346 150.033,-111.301 195.43,-104.941"/>
<polygon fill="midnightblue" stroke="midnightblue" points="71.1845,-465.92 81.4918,-468.372 74.9631,-460.028 71.1845,-465.92"/>
</g>
<!-- Node27 -->
<g id="node27" class="node"><title>Node27</title>
<g id="a_node27"><a xlink:href="line_8cpp.html" target="_top" xlink:title="/home/travis/build\l/PO&#45;31/QtReports/qtreports\l/src/tags/line.cpp">
<polygon fill="none" stroke="black" points="211,-390.5 211,-431.5 357,-431.5 357,-390.5 211,-390.5"/>
<text text-anchor="start" x="219" y="-419.5" font-family="Helvetica,sans-Serif" font-size="10.00">/home/travis/build</text>
<text text-anchor="start" x="219" y="-408.5" font-family="Helvetica,sans-Serif" font-size="10.00">/PO&#45;31/QtReports/qtreports</text>
<text text-anchor="middle" x="284" y="-397.5" font-family="Helvetica,sans-Serif" font-size="10.00">/src/tags/line.cpp</text>
</a>
</g>
</g>
<!-- Node1&#45;&gt;Node27 -->
<g id="edge45" class="edge"><title>Node1&#45;&gt;Node27</title>
<path fill="none" stroke="midnightblue" d="M171.382,-464.189C194.07,-453.675 220.41,-441.469 241.909,-431.506"/>
<polygon fill="midnightblue" stroke="midnightblue" points="169.836,-461.048 162.234,-468.428 172.779,-467.399 169.836,-461.048"/>
</g>
<!-- Node3 -->
<g id="node3" class="node"><title>Node3</title>
<g id="a_node3"><a xlink:href="section_8hpp.html" target="_top" xlink:title="/home/travis/build\l/PO&#45;31/QtReports/qtreports\l/src/tags/section.hpp">
<polygon fill="none" stroke="black" points="451,-312.5 451,-353.5 597,-353.5 597,-312.5 451,-312.5"/>
<text text-anchor="start" x="459" y="-341.5" font-family="Helvetica,sans-Serif" font-size="10.00">/home/travis/build</text>
<text text-anchor="start" x="459" y="-330.5" font-family="Helvetica,sans-Serif" font-size="10.00">/PO&#45;31/QtReports/qtreports</text>
<text text-anchor="middle" x="524" y="-319.5" font-family="Helvetica,sans-Serif" font-size="10.00">/src/tags/section.hpp</text>
</a>
</g>
</g>
<!-- Node2&#45;&gt;Node3 -->
<g id="edge2" class="edge"><title>Node2&#45;&gt;Node3</title>
<path fill="none" stroke="midnightblue" d="M203.163,-389.817C293.864,-371.111 387.703,-355.361 450.84,-345.289"/>
<polygon fill="midnightblue" stroke="midnightblue" points="202.342,-386.413 193.262,-391.873 203.765,-393.267 202.342,-386.413"/>
</g>
<!-- Node2&#45;&gt;Node16 -->
<g id="edge42" class="edge"><title>Node2&#45;&gt;Node16</title>
<path fill="none" stroke="midnightblue" d="M80.3525,-383.883C70.9443,-375.553 62.1518,-365.472 57,-354 33.6893,-302.091 35.3138,-210.265 84,-156 111.991,-124.801 156.095,-110.507 195.283,-104.143"/>
<polygon fill="midnightblue" stroke="midnightblue" points="78.3909,-386.802 88.3338,-390.461 82.843,-381.4 78.3909,-386.802"/>
</g>
<!-- Node26 -->
<g id="node26" class="node"><title>Node26</title>
<g id="a_node26"><a xlink:href="band_8cpp.html" target="_top" xlink:title="/home/travis/build\l/PO&#45;31/QtReports/qtreports\l/src/tags/band.cpp">
<polygon fill="none" stroke="black" points="66,-312.5 66,-353.5 212,-353.5 212,-312.5 66,-312.5"/>
<text text-anchor="start" x="74" y="-341.5" font-family="Helvetica,sans-Serif" font-size="10.00">/home/travis/build</text>
<text text-anchor="start" x="74" y="-330.5" font-family="Helvetica,sans-Serif" font-size="10.00">/PO&#45;31/QtReports/qtreports</text>
<text text-anchor="middle" x="139" y="-319.5" font-family="Helvetica,sans-Serif" font-size="10.00">/src/tags/band.cpp</text>
</a>
</g>
</g>
<!-- Node2&#45;&gt;Node26 -->
<g id="edge43" class="edge"><title>Node2&#45;&gt;Node26</title>
<path fill="none" stroke="midnightblue" d="M127.353,-380.59C129.622,-371.511 132.065,-361.742 134.124,-353.506"/>
<polygon fill="midnightblue" stroke="midnightblue" points="123.923,-379.878 124.893,-390.428 130.714,-381.576 123.923,-379.878"/>
</g>
<!-- Node4 -->
<g id="node4" class="node"><title>Node4</title>
<g id="a_node4"><a xlink:href="group_8hpp.html" target="_top" xlink:title="/home/travis/build\l/PO&#45;31/QtReports/qtreports\l/src/tags/group.hpp">
<polygon fill="none" stroke="black" points="779,-234.5 779,-275.5 925,-275.5 925,-234.5 779,-234.5"/>
<text text-anchor="start" x="787" y="-263.5" font-family="Helvetica,sans-Serif" font-size="10.00">/home/travis/build</text>
<text text-anchor="start" x="787" y="-252.5" font-family="Helvetica,sans-Serif" font-size="10.00">/PO&#45;31/QtReports/qtreports</text>
<text text-anchor="middle" x="852" y="-241.5" font-family="Helvetica,sans-Serif" font-size="10.00">/src/tags/group.hpp</text>
</a>
</g>
</g>
<!-- Node3&#45;&gt;Node4 -->
<g id="edge3" class="edge"><title>Node3&#45;&gt;Node4</title>
<path fill="none" stroke="midnightblue" d="M607.232,-313.388C654.921,-302.64 715.87,-288.761 770,-276 772.852,-275.328 775.76,-274.638 778.696,-273.938"/>
<polygon fill="midnightblue" stroke="midnightblue" points="606.252,-310.021 597.265,-315.632 607.789,-316.85 606.252,-310.021"/>
</g>
<!-- Node14 -->
<g id="node14" class="node"><title>Node14</title>
<g id="a_node14"><a xlink:href="convertertopdf_8hpp.html" target="_top" xlink:title="/home/travis/build\l/PO&#45;31/QtReports/qtreports\l/src/converters/convertertopdf.hpp">
<polygon fill="none" stroke="black" points="691,-78.5 691,-119.5 873,-119.5 873,-78.5 691,-78.5"/>
<text text-anchor="start" x="699" y="-107.5" font-family="Helvetica,sans-Serif" font-size="10.00">/home/travis/build</text>
<text text-anchor="start" x="699" y="-96.5" font-family="Helvetica,sans-Serif" font-size="10.00">/PO&#45;31/QtReports/qtreports</text>
<text text-anchor="middle" x="782" y="-85.5" font-family="Helvetica,sans-Serif" font-size="10.00">/src/converters/convertertopdf.hpp</text>
</a>
</g>
</g>
<!-- Node3&#45;&gt;Node14 -->
<g id="edge40" class="edge"><title>Node3&#45;&gt;Node14</title>
<path fill="none" stroke="midnightblue" d="M607.407,-325.996C709.851,-317.693 877.051,-300.86 934,-276 984.068,-254.144 1005.65,-247.388 1029,-198 1036.98,-181.125 1040.65,-170.586 1029,-156 1026.44,-152.79 942.63,-134.231 873.345,-119.345"/>
<polygon fill="midnightblue" stroke="midnightblue" points="607.083,-322.511 597.394,-326.797 607.642,-329.488 607.083,-322.511"/>
</g>
<!-- Node19 -->
<g id="node19" class="node"><title>Node19</title>
<g id="a_node19"><a xlink:href="title_8hpp.html" target="_top" xlink:title="/home/travis/build\l/PO&#45;31/QtReports/qtreports\l/src/tags/title.hpp">
<polygon fill="none" stroke="black" points="113,-234.5 113,-275.5 259,-275.5 259,-234.5 113,-234.5"/>
<text text-anchor="start" x="121" y="-263.5" font-family="Helvetica,sans-Serif" font-size="10.00">/home/travis/build</text>
<text text-anchor="start" x="121" y="-252.5" font-family="Helvetica,sans-Serif" font-size="10.00">/PO&#45;31/QtReports/qtreports</text>
<text text-anchor="middle" x="186" y="-241.5" font-family="Helvetica,sans-Serif" font-size="10.00">/src/tags/title.hpp</text>
</a>
</g>
</g>
<!-- Node3&#45;&gt;Node19 -->
<g id="edge28" class="edge"><title>Node3&#45;&gt;Node19</title>
<path fill="none" stroke="midnightblue" d="M440.827,-313.298C385.186,-300.787 312.647,-284.477 259.198,-272.459"/>
<polygon fill="midnightblue" stroke="midnightblue" points="440.135,-316.73 450.659,-315.509 441.67,-309.901 440.135,-316.73"/>
</g>
<!-- Node21 -->
<g id="node21" class="node"><title>Node21</title>
<g id="a_node21"><a xlink:href="detail_8hpp.html" target="_top" xlink:title="/home/travis/build\l/PO&#45;31/QtReports/qtreports\l/src/tags/detail.hpp">
<polygon fill="none" stroke="black" points="287,-234.5 287,-275.5 433,-275.5 433,-234.5 287,-234.5"/>
<text text-anchor="start" x="295" y="-263.5" font-family="Helvetica,sans-Serif" font-size="10.00">/home/travis/build</text>
<text text-anchor="start" x="295" y="-252.5" font-family="Helvetica,sans-Serif" font-size="10.00">/PO&#45;31/QtReports/qtreports</text>
<text text-anchor="middle" x="360" y="-241.5" font-family="Helvetica,sans-Serif" font-size="10.00">/src/tags/detail.hpp</text>
</a>
</g>
</g>
<!-- Node3&#45;&gt;Node21 -->
<g id="edge32" class="edge"><title>Node3&#45;&gt;Node21</title>
<path fill="none" stroke="midnightblue" d="M472.618,-308.189C449.93,-297.675 423.59,-285.469 402.091,-275.506"/>
<polygon fill="midnightblue" stroke="midnightblue" points="471.221,-311.399 481.766,-312.428 474.164,-305.048 471.221,-311.399"/>
</g>
<!-- Node23 -->
<g id="node23" class="node"><title>Node23</title>
<g id="a_node23"><a xlink:href="summary_8hpp.html" target="_top" xlink:title="/home/travis/build\l/PO&#45;31/QtReports/qtreports\l/src/tags/summary.hpp">
<polygon fill="none" stroke="black" points="451,-234.5 451,-275.5 597,-275.5 597,-234.5 451,-234.5"/>
<text text-anchor="start" x="459" y="-263.5" font-family="Helvetica,sans-Serif" font-size="10.00">/home/travis/build</text>
<text text-anchor="start" x="459" y="-252.5" font-family="Helvetica,sans-Serif" font-size="10.00">/PO&#45;31/QtReports/qtreports</text>
<text text-anchor="middle" x="524" y="-241.5" font-family="Helvetica,sans-Serif" font-size="10.00">/src/tags/summary.hpp</text>
</a>
</g>
</g>
<!-- Node3&#45;&gt;Node23 -->
<g id="edge36" class="edge"><title>Node3&#45;&gt;Node23</title>
<path fill="none" stroke="midnightblue" d="M524,-302.297C524,-293.301 524,-283.653 524,-275.506"/>
<polygon fill="midnightblue" stroke="midnightblue" points="520.5,-302.428 524,-312.428 527.5,-302.428 520.5,-302.428"/>
</g>
<!-- Node25 -->
<g id="node25" class="node"><title>Node25</title>
<g id="a_node25"><a xlink:href="section_8cpp.html" target="_top" xlink:title="/home/travis/build\l/PO&#45;31/QtReports/qtreports\l/src/tags/section.cpp">
<polygon fill="none" stroke="black" points="615,-234.5 615,-275.5 761,-275.5 761,-234.5 615,-234.5"/>
<text text-anchor="start" x="623" y="-263.5" font-family="Helvetica,sans-Serif" font-size="10.00">/home/travis/build</text>
<text text-anchor="start" x="623" y="-252.5" font-family="Helvetica,sans-Serif" font-size="10.00">/PO&#45;31/QtReports/qtreports</text>
<text text-anchor="middle" x="688" y="-241.5" font-family="Helvetica,sans-Serif" font-size="10.00">/src/tags/section.cpp</text>
</a>
</g>
</g>
<!-- Node3&#45;&gt;Node25 -->
<g id="edge41" class="edge"><title>Node3&#45;&gt;Node25</title>
<path fill="none" stroke="midnightblue" d="M575.382,-308.189C598.07,-297.675 624.41,-285.469 645.909,-275.506"/>
<polygon fill="midnightblue" stroke="midnightblue" points="573.836,-305.048 566.234,-312.428 576.779,-311.399 573.836,-305.048"/>
</g>
<!-- Node5 -->
<g id="node5" class="node"><title>Node5</title>
<g id="a_node5"><a xlink:href="report_8hpp.html" target="_top" xlink:title="/home/travis/build\l/PO&#45;31/QtReports/qtreports\l/src/tags/report.hpp">
<polygon fill="none" stroke="black" points="710,-156.5 710,-197.5 856,-197.5 856,-156.5 710,-156.5"/>
<text text-anchor="start" x="718" y="-185.5" font-family="Helvetica,sans-Serif" font-size="10.00">/home/travis/build</text>
<text text-anchor="start" x="718" y="-174.5" font-family="Helvetica,sans-Serif" font-size="10.00">/PO&#45;31/QtReports/qtreports</text>
<text text-anchor="middle" x="783" y="-163.5" font-family="Helvetica,sans-Serif" font-size="10.00">/src/tags/report.hpp</text>
</a>
</g>
</g>
<!-- Node4&#45;&gt;Node5 -->
<g id="edge4" class="edge"><title>Node4&#45;&gt;Node5</title>
<path fill="none" stroke="midnightblue" d="M827.41,-226.916C818.592,-217.203 808.83,-206.45 800.709,-197.506"/>
<polygon fill="midnightblue" stroke="midnightblue" points="824.918,-229.377 834.231,-234.428 830.1,-224.672 824.918,-229.377"/>
</g>
<!-- Node4&#45;&gt;Node16 -->
<g id="edge26" class="edge"><title>Node4&#45;&gt;Node16</title>
<path fill="none" stroke="midnightblue" d="M769.186,-231.347C746.006,-222.916 721.551,-211.917 701,-198 680.157,-183.885 685.21,-167.849 663,-156 649.867,-148.994 471.819,-124.967 362.84,-110.763"/>
<polygon fill="midnightblue" stroke="midnightblue" points="768.087,-234.67 778.681,-234.686 770.409,-228.067 768.087,-234.67"/>
</g>
<!-- Node18 -->
<g id="node18" class="node"><title>Node18</title>
<g id="a_node18"><a xlink:href="group_8cpp.html" target="_top" xlink:title="/home/travis/build\l/PO&#45;31/QtReports/qtreports\l/src/tags/group.cpp">
<polygon fill="none" stroke="black" points="874,-156.5 874,-197.5 1020,-197.5 1020,-156.5 874,-156.5"/>
<text text-anchor="start" x="882" y="-185.5" font-family="Helvetica,sans-Serif" font-size="10.00">/home/travis/build</text>
<text text-anchor="start" x="882" y="-174.5" font-family="Helvetica,sans-Serif" font-size="10.00">/PO&#45;31/QtReports/qtreports</text>
<text text-anchor="middle" x="947" y="-163.5" font-family="Helvetica,sans-Serif" font-size="10.00">/src/tags/group.cpp</text>
</a>
</g>
</g>
<!-- Node4&#45;&gt;Node18 -->
<g id="edge27" class="edge"><title>Node4&#45;&gt;Node18</title>
<path fill="none" stroke="midnightblue" d="M884.419,-228.065C896.928,-218.057 910.994,-206.804 922.618,-197.506"/>
<polygon fill="midnightblue" stroke="midnightblue" points="882.087,-225.448 876.465,-234.428 886.46,-230.914 882.087,-225.448"/>
</g>
<!-- Node6 -->
<g id="node6" class="node"><title>Node6</title>
<g id="a_node6"><a xlink:href="convertertohtml_8hpp.html" target="_top" xlink:title="/home/travis/build\l/PO&#45;31/QtReports/qtreports\l/src/converters/convertertohtml.hpp">
<polygon fill="none" stroke="black" points="483.5,-78.5 483.5,-119.5 672.5,-119.5 672.5,-78.5 483.5,-78.5"/>
<text text-anchor="start" x="491.5" y="-107.5" font-family="Helvetica,sans-Serif" font-size="10.00">/home/travis/build</text>
<text text-anchor="start" x="491.5" y="-96.5" font-family="Helvetica,sans-Serif" font-size="10.00">/PO&#45;31/QtReports/qtreports</text>
<text text-anchor="middle" x="578" y="-85.5" font-family="Helvetica,sans-Serif" font-size="10.00">/src/converters/convertertohtml.hpp</text>
</a>
</g>
</g>
<!-- Node5&#45;&gt;Node6 -->
<g id="edge5" class="edge"><title>Node5&#45;&gt;Node6</title>
<path fill="none" stroke="midnightblue" d="M720.657,-152.887C691.879,-142.219 658.085,-129.69 630.614,-119.506"/>
<polygon fill="midnightblue" stroke="midnightblue" points="719.614,-156.234 730.207,-156.428 722.048,-149.67 719.614,-156.234"/>
</g>
<!-- Node8 -->
<g id="node8" class="node"><title>Node8</title>
<g id="a_node8"><a xlink:href="engine_8cpp.html" target="_top" xlink:title="/home/travis/build\l/PO&#45;31/QtReports/qtreports\l/src/engine.cpp">
<polygon fill="none" stroke="black" points="382,-0.5 382,-41.5 528,-41.5 528,-0.5 382,-0.5"/>
<text text-anchor="start" x="390" y="-29.5" font-family="Helvetica,sans-Serif" font-size="10.00">/home/travis/build</text>
<text text-anchor="start" x="390" y="-18.5" font-family="Helvetica,sans-Serif" font-size="10.00">/PO&#45;31/QtReports/qtreports</text>
<text text-anchor="middle" x="455" y="-7.5" font-family="Helvetica,sans-Serif" font-size="10.00">/src/engine.cpp</text>
</a>
</g>
</g>
<!-- Node5&#45;&gt;Node8 -->
<g id="edge24" class="edge"><title>Node5&#45;&gt;Node8</title>
<path fill="none" stroke="midnightblue" d="M699.878,-156.769C698.576,-156.508 697.283,-156.251 696,-156 646.954,-146.396 509.879,-154.792 474,-120 453.098,-99.731 451.447,-63.86 452.782,-41.5937"/>
<polygon fill="midnightblue" stroke="midnightblue" points="699.472,-160.259 709.972,-158.849 700.884,-153.403 699.472,-160.259"/>
</g>
<!-- Node9 -->
<g id="node9" class="node"><title>Node9</title>
<g id="a_node9"><a xlink:href="replacer_8hpp.html" target="_top" xlink:title="/home/travis/build\l/PO&#45;31/QtReports/qtreports\l/src/converters/utils/replacer.hpp">
<polygon fill="none" stroke="black" points="1113.5,-78.5 1113.5,-119.5 1286.5,-119.5 1286.5,-78.5 1113.5,-78.5"/>
<text text-anchor="start" x="1121.5" y="-107.5" font-family="Helvetica,sans-Serif" font-size="10.00">/home/travis/build</text>
<text text-anchor="start" x="1121.5" y="-96.5" font-family="Helvetica,sans-Serif" font-size="10.00">/PO&#45;31/QtReports/qtreports</text>
<text text-anchor="middle" x="1200" y="-85.5" font-family="Helvetica,sans-Serif" font-size="10.00">/src/converters/utils/replacer.hpp</text>
</a>
</g>
</g>
<!-- Node5&#45;&gt;Node9 -->
<g id="edge8" class="edge"><title>Node5&#45;&gt;Node9</title>
<path fill="none" stroke="midnightblue" d="M866.38,-155.814C972.156,-135.456 1001.47,-138.388 1104,-120 1107.1,-119.444 1110.25,-118.864 1113.44,-118.266"/>
<polygon fill="midnightblue" stroke="midnightblue" points="865.391,-152.441 856.245,-157.79 866.73,-159.312 865.391,-152.441"/>
</g>
<!-- Node13 -->
<g id="node13" class="node"><title>Node13</title>
<g id="a_node13"><a xlink:href="report_8cpp.html" target="_top" xlink:title="/home/travis/build\l/PO&#45;31/QtReports/qtreports\l/src/tags/report.cpp">
<polygon fill="none" stroke="black" points="1363,-0.5 1363,-41.5 1509,-41.5 1509,-0.5 1363,-0.5"/>
<text text-anchor="start" x="1371" y="-29.5" font-family="Helvetica,sans-Serif" font-size="10.00">/home/travis/build</text>
<text text-anchor="start" x="1371" y="-18.5" font-family="Helvetica,sans-Serif" font-size="10.00">/PO&#45;31/QtReports/qtreports</text>
<text text-anchor="middle" x="1436" y="-7.5" font-family="Helvetica,sans-Serif" font-size="10.00">/src/tags/report.cpp</text>
</a>
</g>
</g>
<!-- Node5&#45;&gt;Node13 -->
<g id="edge25" class="edge"><title>Node5&#45;&gt;Node13</title>
<path fill="none" stroke="midnightblue" d="M866.238,-155.968C1056.38,-127.191 1117.63,-183.832 1295,-120 1342.97,-102.738 1389.76,-64.811 1415.55,-41.5283"/>
<polygon fill="midnightblue" stroke="midnightblue" points="865.536,-152.535 856.202,-157.548 866.624,-159.45 865.536,-152.535"/>
</g>
<!-- Node5&#45;&gt;Node14 -->
<g id="edge14" class="edge"><title>Node5&#45;&gt;Node14</title>
<path fill="none" stroke="midnightblue" d="M782.609,-146.297C782.491,-137.301 782.364,-127.653 782.257,-119.506"/>
<polygon fill="midnightblue" stroke="midnightblue" points="779.111,-146.475 782.742,-156.428 786.111,-146.383 779.111,-146.475"/>
</g>
<!-- Node15 -->
<g id="node15" class="node"><title>Node15</title>
<g id="a_node15"><a xlink:href="convertertoqwidget_8hpp.html" target="_top" xlink:title="/home/travis/build\l/PO&#45;31/QtReports/qtreports\l/src/converters/convertertoqwidget.hpp">
<polygon fill="none" stroke="black" points="891,-78.5 891,-119.5 1095,-119.5 1095,-78.5 891,-78.5"/>
<text text-anchor="start" x="899" y="-107.5" font-family="Helvetica,sans-Serif" font-size="10.00">/home/travis/build</text>
<text text-anchor="start" x="899" y="-96.5" font-family="Helvetica,sans-Serif" font-size="10.00">/PO&#45;31/QtReports/qtreports</text>
<text text-anchor="middle" x="993" y="-85.5" font-family="Helvetica,sans-Serif" font-size="10.00">/src/converters/convertertoqwidget.hpp</text>
</a>
</g>
</g>
<!-- Node5&#45;&gt;Node15 -->
<g id="edge17" class="edge"><title>Node5&#45;&gt;Node15</title>
<path fill="none" stroke="midnightblue" d="M846.864,-152.887C876.344,-142.219 910.962,-129.69 939.103,-119.506"/>
<polygon fill="midnightblue" stroke="midnightblue" points="845.292,-149.734 837.08,-156.428 847.674,-156.316 845.292,-149.734"/>
</g>
<!-- Node5&#45;&gt;Node16 -->
<g id="edge21" class="edge"><title>Node5&#45;&gt;Node16</title>
<path fill="none" stroke="midnightblue" d="M699.887,-156.72C698.583,-156.474 697.287,-156.234 696,-156 633.923,-144.721 465.74,-123.164 362.92,-110.336"/>
<polygon fill="midnightblue" stroke="midnightblue" points="699.513,-160.213 710,-158.703 700.86,-153.344 699.513,-160.213"/>
</g>
<!-- Node7 -->
<g id="node7" class="node"><title>Node7</title>
<g id="a_node7"><a xlink:href="convertertohtml_8cpp.html" target="_top" xlink:title="/home/travis/build\l/PO&#45;31/QtReports/qtreports\l/src/converters/convertertohtml.cpp">
<polygon fill="none" stroke="black" points="546,-0.5 546,-41.5 734,-41.5 734,-0.5 546,-0.5"/>
<text text-anchor="start" x="554" y="-29.5" font-family="Helvetica,sans-Serif" font-size="10.00">/home/travis/build</text>
<text text-anchor="start" x="554" y="-18.5" font-family="Helvetica,sans-Serif" font-size="10.00">/PO&#45;31/QtReports/qtreports</text>
<text text-anchor="middle" x="640" y="-7.5" font-family="Helvetica,sans-Serif" font-size="10.00">/src/converters/convertertohtml.cpp</text>
</a>
</g>
</g>
<!-- Node6&#45;&gt;Node7 -->
<g id="edge6" class="edge"><title>Node6&#45;&gt;Node7</title>
<path fill="none" stroke="midnightblue" d="M600.331,-70.627C608.192,-60.9901 616.863,-50.3617 624.088,-41.5056"/>
<polygon fill="midnightblue" stroke="midnightblue" points="597.576,-68.467 593.967,-78.4281 603,-72.8919 597.576,-68.467"/>
</g>
<!-- Node6&#45;&gt;Node8 -->
<g id="edge7" class="edge"><title>Node6&#45;&gt;Node8</title>
<path fill="none" stroke="midnightblue" d="M537.409,-72.9194C520.873,-62.702 502.048,-51.0701 486.568,-41.5056"/>
<polygon fill="midnightblue" stroke="midnightblue" points="535.978,-76.1491 546.324,-78.4281 539.657,-70.1942 535.978,-76.1491"/>
</g>
<!-- Node9&#45;&gt;Node7 -->
<g id="edge9" class="edge"><title>Node9&#45;&gt;Node7</title>
<path fill="none" stroke="midnightblue" d="M1103.24,-77.9797C942.853,-53.9948 899.263,-64.9126 743,-42 740.116,-41.5772 737.191,-41.1291 734.24,-40.6605"/>
<polygon fill="midnightblue" stroke="midnightblue" points="1103.06,-81.4921 1113.47,-79.5328 1104.11,-74.5714 1103.06,-81.4921"/>
</g>
<!-- Node10 -->
<g id="node10" class="node"><title>Node10</title>
<g id="a_node10"><a xlink:href="convertertopdf_8cpp.html" target="_top" xlink:title="/home/travis/build\l/PO&#45;31/QtReports/qtreports\l/src/converters/convertertopdf.cpp">
<polygon fill="none" stroke="black" points="752.5,-0.5 752.5,-41.5 933.5,-41.5 933.5,-0.5 752.5,-0.5"/>
<text text-anchor="start" x="760.5" y="-29.5" font-family="Helvetica,sans-Serif" font-size="10.00">/home/travis/build</text>
<text text-anchor="start" x="760.5" y="-18.5" font-family="Helvetica,sans-Serif" font-size="10.00">/PO&#45;31/QtReports/qtreports</text>
<text text-anchor="middle" x="843" y="-7.5" font-family="Helvetica,sans-Serif" font-size="10.00">/src/converters/convertertopdf.cpp</text>
</a>
</g>
</g>
<!-- Node9&#45;&gt;Node10 -->
<g id="edge10" class="edge"><title>Node9&#45;&gt;Node10</title>
<path fill="none" stroke="midnightblue" d="M1103.08,-77.3675C1050.32,-66.1361 985.452,-52.3259 933.695,-41.3077"/>
<polygon fill="midnightblue" stroke="midnightblue" points="1102.61,-80.8465 1113.12,-79.5055 1104.07,-73.9999 1102.61,-80.8465"/>
</g>
<!-- Node11 -->
<g id="node11" class="node"><title>Node11</title>
<g id="a_node11"><a xlink:href="convertertoqwidget_8cpp.html" target="_top" xlink:title="/home/travis/build\l/PO&#45;31/QtReports/qtreports\l/src/converters/convertertoqwidget.cpp">
<polygon fill="none" stroke="black" points="951.5,-0.5 951.5,-41.5 1154.5,-41.5 1154.5,-0.5 951.5,-0.5"/>
<text text-anchor="start" x="959.5" y="-29.5" font-family="Helvetica,sans-Serif" font-size="10.00">/home/travis/build</text>
<text text-anchor="start" x="959.5" y="-18.5" font-family="Helvetica,sans-Serif" font-size="10.00">/PO&#45;31/QtReports/qtreports</text>
<text text-anchor="middle" x="1053" y="-7.5" font-family="Helvetica,sans-Serif" font-size="10.00">/src/converters/convertertoqwidget.cpp</text>
</a>
</g>
</g>
<!-- Node9&#45;&gt;Node11 -->
<g id="edge11" class="edge"><title>Node9&#45;&gt;Node11</title>
<path fill="none" stroke="midnightblue" d="M1153.13,-73.7675C1132.98,-63.3498 1109.74,-51.3358 1090.73,-41.5056"/>
<polygon fill="midnightblue" stroke="midnightblue" points="1151.65,-76.9445 1162.14,-78.4281 1154.87,-70.7264 1151.65,-76.9445"/>
</g>
<!-- Node12 -->
<g id="node12" class="node"><title>Node12</title>
<g id="a_node12"><a xlink:href="replacer_8cpp.html" target="_top" xlink:title="/home/travis/build\l/PO&#45;31/QtReports/qtreports\l/src/converters/utils/replacer.cpp">
<polygon fill="none" stroke="black" points="1173,-0.5 1173,-41.5 1345,-41.5 1345,-0.5 1173,-0.5"/>
<text text-anchor="start" x="1181" y="-29.5" font-family="Helvetica,sans-Serif" font-size="10.00">/home/travis/build</text>
<text text-anchor="start" x="1181" y="-18.5" font-family="Helvetica,sans-Serif" font-size="10.00">/PO&#45;31/QtReports/qtreports</text>
<text text-anchor="middle" x="1259" y="-7.5" font-family="Helvetica,sans-Serif" font-size="10.00">/src/converters/utils/replacer.cpp</text>
</a>
</g>
</g>
<!-- Node9&#45;&gt;Node12 -->
<g id="edge12" class="edge"><title>Node9&#45;&gt;Node12</title>
<path fill="none" stroke="midnightblue" d="M1221.47,-70.3376C1228.9,-60.7777 1237.05,-50.2731 1243.86,-41.5056"/>
<polygon fill="midnightblue" stroke="midnightblue" points="1218.56,-68.3827 1215.19,-78.4281 1224.09,-72.6753 1218.56,-68.3827"/>
</g>
<!-- Node9&#45;&gt;Node13 -->
<g id="edge13" class="edge"><title>Node9&#45;&gt;Node13</title>
<path fill="none" stroke="midnightblue" d="M1270.48,-75.3039C1303.88,-64.5458 1343.39,-51.8229 1375.43,-41.5056"/>
<polygon fill="midnightblue" stroke="midnightblue" points="1269.22,-72.0312 1260.78,-78.4281 1271.37,-78.6942 1269.22,-72.0312"/>
</g>
<!-- Node14&#45;&gt;Node8 -->
<g id="edge16" class="edge"><title>Node14&#45;&gt;Node8</title>
<path fill="none" stroke="midnightblue" d="M685.411,-76.2626C640.287,-66.0201 585.857,-53.5412 537,-42 534.148,-41.3262 531.241,-40.6357 528.305,-39.9351"/>
<polygon fill="midnightblue" stroke="midnightblue" points="684.662,-79.6814 695.188,-78.4798 686.21,-72.8547 684.662,-79.6814"/>
</g>
<!-- Node14&#45;&gt;Node10 -->
<g id="edge15" class="edge"><title>Node14&#45;&gt;Node10</title>
<path fill="none" stroke="midnightblue" d="M803.97,-70.627C811.705,-60.9901 820.236,-50.3617 827.344,-41.5056"/>
<polygon fill="midnightblue" stroke="midnightblue" points="801.239,-68.4386 797.709,-78.4281 806.698,-72.8202 801.239,-68.4386"/>
</g>
<!-- Node15&#45;&gt;Node8 -->
<g id="edge20" class="edge"><title>Node15&#45;&gt;Node8</title>
<path fill="none" stroke="midnightblue" d="M880.589,-77.8629C727.577,-56.8147 685.638,-67.7599 537,-42 534.112,-41.4996 531.175,-40.9552 528.215,-40.3769"/>
<polygon fill="midnightblue" stroke="midnightblue" points="880.442,-81.3764 890.83,-79.2963 881.412,-74.4439 880.442,-81.3764"/>
</g>
<!-- Node15&#45;&gt;Node10 -->
<g id="edge18" class="edge"><title>Node15&#45;&gt;Node10</title>
<path fill="none" stroke="midnightblue" d="M945.45,-73.9082C924.825,-63.4581 900.987,-51.3801 881.498,-41.5056"/>
<polygon fill="midnightblue" stroke="midnightblue" points="943.869,-77.0305 954.371,-78.4281 947.033,-70.7863 943.869,-77.0305"/>
</g>
<!-- Node15&#45;&gt;Node11 -->
<g id="edge19" class="edge"><title>Node15&#45;&gt;Node11</title>
<path fill="none" stroke="midnightblue" d="M1014.84,-70.3376C1022.39,-60.7777 1030.68,-50.2731 1037.6,-41.5056"/>
<polygon fill="midnightblue" stroke="midnightblue" points="1011.9,-68.4105 1008.45,-78.4281 1017.4,-72.748 1011.9,-68.4105"/>
</g>
<!-- Node16&#45;&gt;Node8 -->
<g id="edge22" class="edge"><title>Node16&#45;&gt;Node8</title>
<path fill="none" stroke="midnightblue" d="M333.817,-74.3291C358.238,-63.7835 386.654,-51.5129 409.829,-41.5056"/>
<polygon fill="midnightblue" stroke="midnightblue" points="332.117,-71.2505 324.324,-78.4281 334.893,-77.6769 332.117,-71.2505"/>
</g>
<!-- Node17 -->
<g id="node17" class="node"><title>Node17</title>
<g id="a_node17"><a xlink:href="parserfromxml_8cpp.html" target="_top" xlink:title="/home/travis/build\l/PO&#45;31/QtReports/qtreports\l/src/parsers/parserfromxml.cpp">
<polygon fill="none" stroke="black" points="195.5,-0.5 195.5,-41.5 362.5,-41.5 362.5,-0.5 195.5,-0.5"/>
<text text-anchor="start" x="203.5" y="-29.5" font-family="Helvetica,sans-Serif" font-size="10.00">/home/travis/build</text>
<text text-anchor="start" x="203.5" y="-18.5" font-family="Helvetica,sans-Serif" font-size="10.00">/PO&#45;31/QtReports/qtreports</text>
<text text-anchor="middle" x="279" y="-7.5" font-family="Helvetica,sans-Serif" font-size="10.00">/src/parsers/parserfromxml.cpp</text>
</a>
</g>
</g>
<!-- Node16&#45;&gt;Node17 -->
<g id="edge23" class="edge"><title>Node16&#45;&gt;Node17</title>
<path fill="none" stroke="midnightblue" d="M279,-68.2965C279,-59.3009 279,-49.6532 279,-41.5056"/>
<polygon fill="midnightblue" stroke="midnightblue" points="275.5,-68.4281 279,-78.4281 282.5,-68.4281 275.5,-68.4281"/>
</g>
<!-- Node19&#45;&gt;Node5 -->
<g id="edge29" class="edge"><title>Node19&#45;&gt;Node5</title>
<path fill="none" stroke="midnightblue" d="M269.254,-235.434C272.201,-234.926 275.123,-234.446 278,-234 447.833,-207.698 492.575,-220.141 663,-198 678.185,-196.027 694.393,-193.568 709.828,-191.056"/>
<polygon fill="midnightblue" stroke="midnightblue" points="268.384,-232.035 259.167,-237.259 269.631,-238.923 268.384,-232.035"/>
</g>
<!-- Node19&#45;&gt;Node16 -->
<g id="edge30" class="edge"><title>Node19&#45;&gt;Node16</title>
<path fill="none" stroke="midnightblue" d="M126.195,-229.244C113.732,-221.185 102.205,-210.894 95,-198 85.8944,-181.705 83.8872,-170.998 95,-156 118.159,-124.744 158.345,-110.339 195.265,-103.92"/>
<polygon fill="midnightblue" stroke="midnightblue" points="124.553,-232.34 134.931,-234.472 128.147,-226.334 124.553,-232.34"/>
</g>
<!-- Node20 -->
<g id="node20" class="node"><title>Node20</title>
<g id="a_node20"><a xlink:href="title_8cpp.html" target="_top" xlink:title="/home/travis/build\l/PO&#45;31/QtReports/qtreports\l/src/tags/title.cpp">
<polygon fill="none" stroke="black" points="104,-156.5 104,-197.5 250,-197.5 250,-156.5 104,-156.5"/>
<text text-anchor="start" x="112" y="-185.5" font-family="Helvetica,sans-Serif" font-size="10.00">/home/travis/build</text>
<text text-anchor="start" x="112" y="-174.5" font-family="Helvetica,sans-Serif" font-size="10.00">/PO&#45;31/QtReports/qtreports</text>
<text text-anchor="middle" x="177" y="-163.5" font-family="Helvetica,sans-Serif" font-size="10.00">/src/tags/title.cpp</text>
</a>
</g>
</g>
<!-- Node19&#45;&gt;Node20 -->
<g id="edge31" class="edge"><title>Node19&#45;&gt;Node20</title>
<path fill="none" stroke="midnightblue" d="M182.482,-224.297C181.417,-215.301 180.275,-205.653 179.31,-197.506"/>
<polygon fill="midnightblue" stroke="midnightblue" points="179.03,-224.909 183.682,-234.428 185.982,-224.086 179.03,-224.909"/>
</g>
<!-- Node21&#45;&gt;Node5 -->
<g id="edge33" class="edge"><title>Node21&#45;&gt;Node5</title>
<path fill="none" stroke="midnightblue" d="M443.281,-233.808C541.231,-214.177 567.972,-213.659 663,-198 678.109,-195.51 694.284,-192.827 709.711,-190.259"/>
<polygon fill="midnightblue" stroke="midnightblue" points="442.363,-230.423 433.254,-235.834 443.749,-237.284 442.363,-230.423"/>
</g>
<!-- Node21&#45;&gt;Node16 -->
<g id="edge34" class="edge"><title>Node21&#45;&gt;Node16</title>
<path fill="none" stroke="midnightblue" d="M322.503,-227.907C312.819,-219.431 303.346,-209.269 297,-198 283.164,-173.432 279.65,-140.419 278.923,-119.676"/>
<polygon fill="midnightblue" stroke="midnightblue" points="320.325,-230.649 330.259,-234.333 324.791,-225.258 320.325,-230.649"/>
</g>
<!-- Node22 -->
<g id="node22" class="node"><title>Node22</title>
<g id="a_node22"><a xlink:href="detail_8cpp.html" target="_top" xlink:title="/home/travis/build\l/PO&#45;31/QtReports/qtreports\l/src/tags/detail.cpp">
<polygon fill="none" stroke="black" points="306,-156.5 306,-197.5 452,-197.5 452,-156.5 306,-156.5"/>
<text text-anchor="start" x="314" y="-185.5" font-family="Helvetica,sans-Serif" font-size="10.00">/home/travis/build</text>
<text text-anchor="start" x="314" y="-174.5" font-family="Helvetica,sans-Serif" font-size="10.00">/PO&#45;31/QtReports/qtreports</text>
<text text-anchor="middle" x="379" y="-163.5" font-family="Helvetica,sans-Serif" font-size="10.00">/src/tags/detail.cpp</text>
</a>
</g>
</g>
<!-- Node21&#45;&gt;Node22 -->
<g id="edge35" class="edge"><title>Node21&#45;&gt;Node22</title>
<path fill="none" stroke="midnightblue" d="M367.353,-224.59C369.622,-215.511 372.065,-205.742 374.124,-197.506"/>
<polygon fill="midnightblue" stroke="midnightblue" points="363.923,-223.878 364.893,-234.428 370.714,-225.576 363.923,-223.878"/>
</g>
<!-- Node23&#45;&gt;Node5 -->
<g id="edge37" class="edge"><title>Node23&#45;&gt;Node5</title>
<path fill="none" stroke="midnightblue" d="M600.403,-231.58C637.264,-220.764 681.065,-207.911 716.527,-197.506"/>
<polygon fill="midnightblue" stroke="midnightblue" points="599.309,-228.254 590.699,-234.428 601.28,-234.971 599.309,-228.254"/>
</g>
<!-- Node23&#45;&gt;Node16 -->
<g id="edge38" class="edge"><title>Node23&#45;&gt;Node16</title>
<path fill="none" stroke="midnightblue" d="M512.019,-224.915C501.585,-203.001 484.442,-173.783 461,-156 432.555,-134.422 395.718,-121.083 362.633,-112.873"/>
<polygon fill="midnightblue" stroke="midnightblue" points="508.875,-226.457 516.209,-234.104 515.244,-223.553 508.875,-226.457"/>
</g>
<!-- Node24 -->
<g id="node24" class="node"><title>Node24</title>
<g id="a_node24"><a xlink:href="summary_8cpp.html" target="_top" xlink:title="/home/travis/build\l/PO&#45;31/QtReports/qtreports\l/src/tags/summary.cpp">
<polygon fill="none" stroke="black" points="508,-156.5 508,-197.5 654,-197.5 654,-156.5 508,-156.5"/>
<text text-anchor="start" x="516" y="-185.5" font-family="Helvetica,sans-Serif" font-size="10.00">/home/travis/build</text>
<text text-anchor="start" x="516" y="-174.5" font-family="Helvetica,sans-Serif" font-size="10.00">/PO&#45;31/QtReports/qtreports</text>
<text text-anchor="middle" x="581" y="-163.5" font-family="Helvetica,sans-Serif" font-size="10.00">/src/tags/summary.cpp</text>
</a>
</g>
</g>
<!-- Node23&#45;&gt;Node24 -->
<g id="edge39" class="edge"><title>Node23&#45;&gt;Node24</title>
<path fill="none" stroke="midnightblue" d="M544.747,-226.338C551.917,-216.778 559.795,-206.273 566.371,-197.506"/>
<polygon fill="midnightblue" stroke="midnightblue" points="541.879,-224.328 538.679,-234.428 547.479,-228.528 541.879,-224.328"/>
</g>
</g>
</svg>
