<?xml version="1.0" encoding="UTF-8" standalone="no"?>
<!DOCTYPE svg PUBLIC "-//W3C//DTD SVG 1.1//EN"
 "http://www.w3.org/Graphics/SVG/1.1/DTD/svg11.dtd">
<!-- Generated by graphviz version 2.38.0 (20140413.2041)
 -->
<!-- Title: qtreports::detail::isEquals Pages: 1 -->
<svg width="733pt" height="219pt"
 viewBox="0.00 0.00 733.00 219.00" xmlns="http://www.w3.org/2000/svg" xmlns:xlink="http://www.w3.org/1999/xlink">
<g id="graph0" class="graph" transform="scale(1 1) rotate(0) translate(4 215)">
<title>qtreports::detail::isEquals</title>
<!-- Node1 -->
<g id="node1" class="node"><title>Node1</title>
<polygon fill="#bfbfbf" stroke="black" points="0,-49.5 0,-79.5 99,-79.5 99,-49.5 0,-49.5"/>
<text text-anchor="start" x="8" y="-67.5" font-family="Helvetica,sans-Serif" font-size="10.00">qtreports::detail::</text>
<text text-anchor="middle" x="49.5" y="-56.5" font-family="Helvetica,sans-Serif" font-size="10.00">isEquals</text>
</g>
<!-- Node2 -->
<g id="node2" class="node"><title>Node2</title>
<g id="a_node2"><a xlink:href="namespaceqtreports_1_1detail.html#af0dcf7d492b98dd5908ab3b40edeef55" target="_top" xlink:title="qtreports::detail::\ltoBool">
<polygon fill="none" stroke="black" points="176.5,-114.5 176.5,-144.5 275.5,-144.5 275.5,-114.5 176.5,-114.5"/>
<text text-anchor="start" x="184.5" y="-132.5" font-family="Helvetica,sans-Serif" font-size="10.00">qtreports::detail::</text>
<text text-anchor="middle" x="226" y="-121.5" font-family="Helvetica,sans-Serif" font-size="10.00">toBool</text>
</a>
</g>
</g>
<!-- Node1&#45;&gt;Node2 -->
<g id="edge1" class="edge"><title>Node1&#45;&gt;Node2</title>
<path fill="none" stroke="midnightblue" d="M100.495,-83.1228C127.107,-93.0355 159.411,-105.069 184.445,-114.394"/>
<polygon fill="midnightblue" stroke="midnightblue" points="101.565,-79.7865 90.9724,-79.5757 99.1217,-86.3462 101.565,-79.7865"/>
</g>
<!-- Node7 -->
<g id="node7" class="node"><title>Node7</title>
<g id="a_node7"><a xlink:href="classqtreports_1_1detail_1_1_parser_from_x_m_l.html#a8247dc85ae5cae03ab3f175982a0857e" target="_top" xlink:title="qtreports::detail::\lParserFromXML::parseReport">
<polygon fill="none" stroke="black" points="149,-49.5 149,-79.5 303,-79.5 303,-49.5 149,-49.5"/>
<text text-anchor="start" x="157" y="-67.5" font-family="Helvetica,sans-Serif" font-size="10.00">qtreports::detail::</text>
<text text-anchor="middle" x="226" y="-56.5" font-family="Helvetica,sans-Serif" font-size="10.00">ParserFromXML::parseReport</text>
</a>
</g>
</g>
<!-- Node1&#45;&gt;Node7 -->
<g id="edge8" class="edge"><title>Node1&#45;&gt;Node7</title>
<path fill="none" stroke="midnightblue" d="M109.117,-64.5C121.874,-64.5 135.549,-64.5 148.872,-64.5"/>
<polygon fill="midnightblue" stroke="midnightblue" points="109.108,-61.0001 99.108,-64.5 109.108,-68.0001 109.108,-61.0001"/>
</g>
<!-- Node8 -->
<g id="node8" class="node"><title>Node8</title>
<g id="a_node8"><a xlink:href="classqtreports_1_1detail_1_1_parser_from_x_m_l.html#a3693d70428f413c6adb999bf0ad69abe" target="_top" xlink:title="qtreports::detail::\lParserFromXML::parseTextElement">
<polygon fill="none" stroke="black" points="135,-0.5 135,-30.5 317,-30.5 317,-0.5 135,-0.5"/>
<text text-anchor="start" x="143" y="-18.5" font-family="Helvetica,sans-Serif" font-size="10.00">qtreports::detail::</text>
<text text-anchor="middle" x="226" y="-7.5" font-family="Helvetica,sans-Serif" font-size="10.00">ParserFromXML::parseTextElement</text>
</a>
</g>
</g>
<!-- Node1&#45;&gt;Node8 -->
<g id="edge10" class="edge"><title>Node1&#45;&gt;Node8</title>
<path fill="none" stroke="midnightblue" d="M108.898,-46.9988C117.636,-44.4451 126.547,-41.8771 135,-39.5 145.586,-36.5232 156.898,-33.4345 167.804,-30.5033"/>
<polygon fill="midnightblue" stroke="midnightblue" points="107.748,-43.6886 99.14,-49.865 109.721,-50.4049 107.748,-43.6886"/>
</g>
<!-- Node3 -->
<g id="node3" class="node"><title>Node3</title>
<g id="a_node3"><a xlink:href="classqtreports_1_1detail_1_1_parser_from_x_m_l.html#a5a366e39f908935a618b137e7e27496c" target="_top" xlink:title="qtreports::detail::\lParserFromXML::parseStyle">
<polygon fill="none" stroke="black" points="362.5,-180.5 362.5,-210.5 509.5,-210.5 509.5,-180.5 362.5,-180.5"/>
<text text-anchor="start" x="370.5" y="-198.5" font-family="Helvetica,sans-Serif" font-size="10.00">qtreports::detail::</text>
<text text-anchor="middle" x="436" y="-187.5" font-family="Helvetica,sans-Serif" font-size="10.00">ParserFromXML::parseStyle</text>
</a>
</g>
</g>
<!-- Node2&#45;&gt;Node3 -->
<g id="edge2" class="edge"><title>Node2&#45;&gt;Node3</title>
<path fill="none" stroke="midnightblue" d="M280.536,-147.832C302.876,-155.354 329.134,-164.033 353,-171.5 362.485,-174.468 372.622,-177.526 382.42,-180.424"/>
<polygon fill="midnightblue" stroke="midnightblue" points="281.49,-144.46 270.896,-144.575 279.25,-151.092 281.49,-144.46"/>
</g>
<!-- Node5 -->
<g id="node5" class="node"><title>Node5</title>
<g id="a_node5"><a xlink:href="classqtreports_1_1detail_1_1_parser_from_x_m_l.html#a55d48b0d7875a6a4366c0e30f6cf5624" target="_top" xlink:title="qtreports::detail::\lParserFromXML::parseCrosstab">
<polygon fill="none" stroke="black" points="353,-131.5 353,-161.5 519,-161.5 519,-131.5 353,-131.5"/>
<text text-anchor="start" x="361" y="-149.5" font-family="Helvetica,sans-Serif" font-size="10.00">qtreports::detail::</text>
<text text-anchor="middle" x="436" y="-138.5" font-family="Helvetica,sans-Serif" font-size="10.00">ParserFromXML::parseCrosstab</text>
</a>
</g>
</g>
<!-- Node2&#45;&gt;Node5 -->
<g id="edge4" class="edge"><title>Node2&#45;&gt;Node5</title>
<path fill="none" stroke="midnightblue" d="M285.513,-134.282C306.443,-135.993 330.433,-137.954 352.98,-139.796"/>
<polygon fill="midnightblue" stroke="midnightblue" points="285.756,-130.791 275.504,-133.464 285.186,-137.767 285.756,-130.791"/>
</g>
<!-- Node6 -->
<g id="node6" class="node"><title>Node6</title>
<g id="a_node6"><a xlink:href="classqtreports_1_1detail_1_1_parser_from_x_m_l.html#a4f7803080037058f482a499ebc1a51ee" target="_top" xlink:title="qtreports::detail::\lParserFromXML::parseFont">
<polygon fill="none" stroke="black" points="364,-82.5 364,-112.5 508,-112.5 508,-82.5 364,-82.5"/>
<text text-anchor="start" x="372" y="-100.5" font-family="Helvetica,sans-Serif" font-size="10.00">qtreports::detail::</text>
<text text-anchor="middle" x="436" y="-89.5" font-family="Helvetica,sans-Serif" font-size="10.00">ParserFromXML::parseFont</text>
</a>
</g>
</g>
<!-- Node2&#45;&gt;Node6 -->
<g id="edge6" class="edge"><title>Node2&#45;&gt;Node6</title>
<path fill="none" stroke="midnightblue" d="M285.656,-120.476C309.979,-116.734 338.416,-112.359 363.912,-108.437"/>
<polygon fill="midnightblue" stroke="midnightblue" points="284.856,-117.058 275.504,-122.038 285.92,-123.976 284.856,-117.058"/>
</g>
<!-- Node4 -->
<g id="node4" class="node"><title>Node4</title>
<g id="a_node4"><a xlink:href="classqtreports_1_1detail_1_1_parser_from_x_m_l.html#ab548bd252b2e13a315daefae6b43f1d6" target="_top" xlink:title="qtreports::detail::\lParserFromXML::ParserFromXML">
<polygon fill="none" stroke="black" points="555,-82.5 555,-112.5 725,-112.5 725,-82.5 555,-82.5"/>
<text text-anchor="start" x="563" y="-100.5" font-family="Helvetica,sans-Serif" font-size="10.00">qtreports::detail::</text>
<text text-anchor="middle" x="640" y="-89.5" font-family="Helvetica,sans-Serif" font-size="10.00">ParserFromXML::ParserFromXML</text>
</a>
</g>
</g>
<!-- Node3&#45;&gt;Node4 -->
<g id="edge3" class="edge"><title>Node3&#45;&gt;Node4</title>
<path fill="none" stroke="midnightblue" d="M505.232,-177.069C509.943,-175.327 514.574,-173.469 519,-171.5 555.898,-155.082 595.082,-129.087 618.278,-112.68"/>
<polygon fill="midnightblue" stroke="midnightblue" points="503.768,-173.873 495.486,-180.481 506.081,-180.479 503.768,-173.873"/>
</g>
<!-- Node5&#45;&gt;Node4 -->
<g id="edge5" class="edge"><title>Node5&#45;&gt;Node4</title>
<path fill="none" stroke="midnightblue" d="M508.746,-129.096C531.092,-123.676 555.529,-117.748 577.138,-112.506"/>
<polygon fill="midnightblue" stroke="midnightblue" points="507.872,-125.707 498.979,-131.465 509.523,-132.509 507.872,-125.707"/>
</g>
<!-- Node6&#45;&gt;Node4 -->
<g id="edge7" class="edge"><title>Node6&#45;&gt;Node4</title>
<path fill="none" stroke="midnightblue" d="M518.256,-97.5C530.335,-97.5 542.806,-97.5 554.941,-97.5"/>
<polygon fill="midnightblue" stroke="midnightblue" points="518.218,-94.0001 508.218,-97.5 518.218,-101 518.218,-94.0001"/>
</g>
<!-- Node7&#45;&gt;Node4 -->
<g id="edge9" class="edge"><title>Node7&#45;&gt;Node4</title>
<path fill="none" stroke="midnightblue" d="M313.467,-62.8472C371.734,-62.7191 450.219,-64.458 519,-72.5 538.129,-74.7366 558.73,-78.5161 577.371,-82.4682"/>
<polygon fill="midnightblue" stroke="midnightblue" points="313.183,-59.3483 303.197,-62.8895 313.212,-66.3482 313.183,-59.3483"/>
</g>
<!-- Node8&#45;&gt;Node4 -->
<g id="edge11" class="edge"><title>Node8&#45;&gt;Node4</title>
<path fill="none" stroke="midnightblue" d="M327.191,-26.6434C383.891,-33.9339 455.873,-44.8444 519,-59.5 545.396,-65.628 574.375,-74.735 597.242,-82.4974"/>
<polygon fill="midnightblue" stroke="midnightblue" points="327.509,-23.1558 317.148,-25.3693 326.628,-30.1002 327.509,-23.1558"/>
</g>
</g>
</svg>
