<?xml version="1.0" encoding="UTF-8" standalone="no"?>
<!DOCTYPE svg PUBLIC "-//W3C//DTD SVG 1.1//EN"
 "http://www.w3.org/Graphics/SVG/1.1/DTD/svg11.dtd">
<!-- Generated by graphviz version 2.38.0 (20140413.2041)
 -->
<!-- Title: /home/travis/build/PO&#45;31/QtReports/qtreports/src/parsers/parserfromxml.hpp Pages: 1 -->
<svg width="1759pt" height="834pt"
 viewBox="0.00 0.00 1758.50 834.00" xmlns="http://www.w3.org/2000/svg" xmlns:xlink="http://www.w3.org/1999/xlink">
<g id="graph0" class="graph" transform="scale(1 1) rotate(0) translate(4 830)">
<title>/home/travis/build/PO&#45;31/QtReports/qtreports/src/parsers/parserfromxml.hpp</title>
<!-- Node1 -->
<g id="node1" class="node"><title>Node1</title>
<polygon fill="#bfbfbf" stroke="black" points="713,-784.5 713,-825.5 880,-825.5 880,-784.5 713,-784.5"/>
<text text-anchor="start" x="721" y="-813.5" font-family="Helvetica,sans-Serif" font-size="10.00">/home/travis/build</text>
<text text-anchor="start" x="721" y="-802.5" font-family="Helvetica,sans-Serif" font-size="10.00">/PO&#45;31/QtReports/qtreports</text>
<text text-anchor="middle" x="796.5" y="-791.5" font-family="Helvetica,sans-Serif" font-size="10.00">/src/parsers/parserfromxml.hpp</text>
</g>
<!-- Node2 -->
<g id="node2" class="node"><title>Node2</title>
<polygon fill="none" stroke="#bfbfbf" points="0,-728.5 0,-747.5 63,-747.5 63,-728.5 0,-728.5"/>
<text text-anchor="middle" x="31.5" y="-735.5" font-family="Helvetica,sans-Serif" font-size="10.00">functional</text>
</g>
<!-- Node1&#45;&gt;Node2 -->
<g id="edge1" class="edge"><title>Node1&#45;&gt;Node2</title>
<path fill="none" stroke="midnightblue" d="M712.86,-800.624C578.443,-794.494 306.231,-779.177 77.5,-748 76.0386,-747.801 74.5535,-747.585 73.0555,-747.355"/>
<polygon fill="midnightblue" stroke="midnightblue" points="73.5358,-743.887 63.0937,-745.679 72.3746,-750.79 73.5358,-743.887"/>
</g>
<!-- Node3 -->
<g id="node3" class="node"><title>Node3</title>
<polygon fill="none" stroke="#bfbfbf" points="482,-0.5 482,-19.5 535,-19.5 535,-0.5 482,-0.5"/>
<text text-anchor="middle" x="508.5" y="-7.5" font-family="Helvetica,sans-Serif" font-size="10.00">QString</text>
</g>
<!-- Node1&#45;&gt;Node3 -->
<g id="edge2" class="edge"><title>Node1&#45;&gt;Node3</title>
<path fill="none" stroke="midnightblue" d="M712.897,-802.411C540.185,-798.385 156.259,-785.302 110.5,-748 87.1714,-728.983 91.5,-713.098 91.5,-683 91.5,-683 91.5,-683 91.5,-121 91.5,-42.721 369.705,-18.9308 471.641,-12.8412"/>
<polygon fill="midnightblue" stroke="midnightblue" points="471.997,-16.3266 481.78,-12.2596 471.596,-9.3381 471.997,-16.3266"/>
</g>
<!-- Node4 -->
<g id="node4" class="node"><title>Node4</title>
<polygon fill="none" stroke="#bfbfbf" points="120,-728.5 120,-747.5 231,-747.5 231,-728.5 120,-728.5"/>
<text text-anchor="middle" x="175.5" y="-735.5" font-family="Helvetica,sans-Serif" font-size="10.00">QXmlStreamReader</text>
</g>
<!-- Node1&#45;&gt;Node4 -->
<g id="edge3" class="edge"><title>Node1&#45;&gt;Node4</title>
<path fill="none" stroke="midnightblue" d="M712.879,-796.199C604.847,-785.96 410.992,-767.045 245.5,-748 244.199,-747.85 242.885,-747.697 241.56,-747.542"/>
<polygon fill="midnightblue" stroke="midnightblue" points="241.614,-744.023 231.268,-746.306 240.779,-750.973 241.614,-744.023"/>
</g>
<!-- Node5 -->
<g id="node5" class="node"><title>Node5</title>
<polygon fill="none" stroke="#bfbfbf" points="268.5,-672.5 268.5,-691.5 312.5,-691.5 312.5,-672.5 268.5,-672.5"/>
<text text-anchor="middle" x="290.5" y="-679.5" font-family="Helvetica,sans-Serif" font-size="10.00">QMap</text>
</g>
<!-- Node1&#45;&gt;Node5 -->
<g id="edge4" class="edge"><title>Node1&#45;&gt;Node5</title>
<path fill="none" stroke="midnightblue" d="M712.838,-800.966C573.656,-795.049 306.938,-779.678 278.5,-748 267.04,-735.234 273.057,-715.211 280.047,-700.76"/>
<polygon fill="midnightblue" stroke="midnightblue" points="283.207,-702.273 284.839,-691.804 277.035,-698.97 283.207,-702.273"/>
</g>
<!-- Node6 -->
<g id="node6" class="node"><title>Node6</title>
<polygon fill="none" stroke="#bfbfbf" points="288,-728.5 288,-747.5 367,-747.5 367,-728.5 288,-728.5"/>
<text text-anchor="middle" x="327.5" y="-735.5" font-family="Helvetica,sans-Serif" font-size="10.00">QTextStream</text>
</g>
<!-- Node1&#45;&gt;Node6 -->
<g id="edge5" class="edge"><title>Node1&#45;&gt;Node6</title>
<path fill="none" stroke="midnightblue" d="M712.929,-793.497C629.043,-782.772 496.163,-765.287 381.5,-748 380.205,-747.805 378.893,-747.604 377.569,-747.4"/>
<polygon fill="midnightblue" stroke="midnightblue" points="377.713,-743.88 367.29,-745.775 376.62,-750.794 377.713,-743.88"/>
</g>
<!-- Node7 -->
<g id="node7" class="node"><title>Node7</title>
<g id="a_node7"><a xlink:href="report_8hpp.html" target="_top" xlink:title="../tags/report.hpp">
<polygon fill="none" stroke="black" points="746.5,-728.5 746.5,-747.5 846.5,-747.5 846.5,-728.5 746.5,-728.5"/>
<text text-anchor="middle" x="796.5" y="-735.5" font-family="Helvetica,sans-Serif" font-size="10.00">../tags/report.hpp</text>
</a>
</g>
</g>
<!-- Node1&#45;&gt;Node7 -->
<g id="edge6" class="edge"><title>Node1&#45;&gt;Node7</title>
<path fill="none" stroke="midnightblue" d="M796.5,-784.498C796.5,-776.065 796.5,-766.235 796.5,-757.874"/>
<polygon fill="midnightblue" stroke="midnightblue" points="800,-757.652 796.5,-747.652 793,-757.653 800,-757.652"/>
</g>
<!-- Node16 -->
<g id="node16" class="node"><title>Node16</title>
<g id="a_node16"><a xlink:href="field_8hpp.html" target="_top" xlink:title="field.hpp">
<polygon fill="none" stroke="black" points="566,-560.5 566,-579.5 623,-579.5 623,-560.5 566,-560.5"/>
<text text-anchor="middle" x="594.5" y="-567.5" font-family="Helvetica,sans-Serif" font-size="10.00">field.hpp</text>
</a>
</g>
</g>
<!-- Node1&#45;&gt;Node16 -->
<g id="edge96" class="edge"><title>Node1&#45;&gt;Node16</title>
<path fill="none" stroke="midnightblue" d="M712.608,-799.536C675.356,-792.996 634.393,-778.645 609.5,-748 571.953,-701.777 582.515,-624.578 589.972,-589.433"/>
<polygon fill="midnightblue" stroke="midnightblue" points="593.405,-590.121 592.219,-579.593 586.58,-588.563 593.405,-590.121"/>
</g>
<!-- Node18 -->
<g id="node18" class="node"><title>Node18</title>
<g id="a_node18"><a xlink:href="style_8hpp.html" target="_top" xlink:title="style.hpp">
<polygon fill="none" stroke="black" points="306.5,-112.5 306.5,-131.5 366.5,-131.5 366.5,-112.5 306.5,-112.5"/>
<text text-anchor="middle" x="336.5" y="-119.5" font-family="Helvetica,sans-Serif" font-size="10.00">style.hpp</text>
</a>
</g>
</g>
<!-- Node1&#45;&gt;Node18 -->
<g id="edge95" class="edge"><title>Node1&#45;&gt;Node18</title>
<path fill="none" stroke="midnightblue" d="M712.692,-798.287C635.323,-791.442 517.866,-777.038 419.5,-748 398.898,-741.918 395.575,-735.643 375.5,-728 325.051,-708.793 297.354,-730.485 259.5,-692 238.394,-670.542 240.5,-657.098 240.5,-627 240.5,-627 240.5,-627 240.5,-233 240.5,-189.543 283.557,-154.957 312,-136.851"/>
<polygon fill="midnightblue" stroke="midnightblue" points="313.943,-139.765 320.648,-131.561 310.291,-133.794 313.943,-139.765"/>
</g>
<!-- Node20 -->
<g id="node20" class="node"><title>Node20</title>
<g id="a_node20"><a xlink:href="group_8hpp.html" target="_top" xlink:title="group.hpp">
<polygon fill="none" stroke="black" points="1125,-672.5 1125,-691.5 1190,-691.5 1190,-672.5 1125,-672.5"/>
<text text-anchor="middle" x="1157.5" y="-679.5" font-family="Helvetica,sans-Serif" font-size="10.00">group.hpp</text>
</a>
</g>
</g>
<!-- Node1&#45;&gt;Node20 -->
<g id="edge97" class="edge"><title>Node1&#45;&gt;Node20</title>
<path fill="none" stroke="midnightblue" d="M880.024,-796.218C959.705,-787.541 1072.98,-771.554 1110.5,-748 1128.32,-736.81 1141.48,-716.18 1149.27,-701.154"/>
<polygon fill="midnightblue" stroke="midnightblue" points="1152.58,-702.357 1153.8,-691.833 1146.28,-699.299 1152.58,-702.357"/>
</g>
<!-- Node22 -->
<g id="node22" class="node"><title>Node22</title>
<g id="a_node22"><a xlink:href="band_8hpp.html" target="_top" xlink:title="band.hpp">
<polygon fill="none" stroke="black" points="1244.5,-560.5 1244.5,-579.5 1306.5,-579.5 1306.5,-560.5 1244.5,-560.5"/>
<text text-anchor="middle" x="1275.5" y="-567.5" font-family="Helvetica,sans-Serif" font-size="10.00">band.hpp</text>
</a>
</g>
</g>
<!-- Node1&#45;&gt;Node22 -->
<g id="edge101" class="edge"><title>Node1&#45;&gt;Node22</title>
<path fill="none" stroke="midnightblue" d="M880.288,-803.353C1042.12,-800.054 1387.74,-782.345 1455.5,-692 1497.75,-635.67 1382.23,-597.072 1316.89,-580.357"/>
<polygon fill="midnightblue" stroke="midnightblue" points="1317.42,-576.881 1306.87,-577.862 1315.73,-583.673 1317.42,-576.881"/>
</g>
<!-- Node23 -->
<g id="node23" class="node"><title>Node23</title>
<g id="a_node23"><a xlink:href="statictext_8hpp.html" target="_top" xlink:title="statictext.hpp">
<polygon fill="none" stroke="black" points="1275,-336.5 1275,-355.5 1358,-355.5 1358,-336.5 1275,-336.5"/>
<text text-anchor="middle" x="1316.5" y="-343.5" font-family="Helvetica,sans-Serif" font-size="10.00">statictext.hpp</text>
</a>
</g>
</g>
<!-- Node1&#45;&gt;Node23 -->
<g id="edge102" class="edge"><title>Node1&#45;&gt;Node23</title>
<path fill="none" stroke="midnightblue" d="M880.226,-801.039C1038.02,-794.824 1373.6,-778.42 1485.5,-748 1540.74,-732.982 1570.63,-740.215 1601.5,-692 1646.98,-620.96 1632.22,-566.429 1575.5,-504 1509.42,-431.277 1401.81,-381.068 1348.5,-359.254"/>
<polygon fill="midnightblue" stroke="midnightblue" points="1349.79,-355.998 1339.21,-355.512 1347.18,-362.492 1349.79,-355.998"/>
</g>
<!-- Node28 -->
<g id="node28" class="node"><title>Node28</title>
<g id="a_node28"><a xlink:href="textfield_8hpp.html" target="_top" xlink:title="textfield.hpp">
<polygon fill="none" stroke="black" points="1057.5,-280.5 1057.5,-299.5 1133.5,-299.5 1133.5,-280.5 1057.5,-280.5"/>
<text text-anchor="middle" x="1095.5" y="-287.5" font-family="Helvetica,sans-Serif" font-size="10.00">textfield.hpp</text>
</a>
</g>
</g>
<!-- Node1&#45;&gt;Node28 -->
<g id="edge103" class="edge"><title>Node1&#45;&gt;Node28</title>
<path fill="none" stroke="midnightblue" d="M880.169,-785.969C932.752,-770.173 997.431,-741.688 1034.5,-692 1057.73,-660.859 1086.24,-385.392 1093.66,-310.001"/>
<polygon fill="midnightblue" stroke="midnightblue" points="1097.18,-309.98 1094.67,-299.688 1090.22,-309.3 1097.18,-309.98"/>
</g>
<!-- Node29 -->
<g id="node29" class="node"><title>Node29</title>
<g id="a_node29"><a xlink:href="line_8hpp.html" target="_top" xlink:title="line.hpp">
<polygon fill="none" stroke="black" points="1402.5,-280.5 1402.5,-299.5 1456.5,-299.5 1456.5,-280.5 1402.5,-280.5"/>
<text text-anchor="middle" x="1429.5" y="-287.5" font-family="Helvetica,sans-Serif" font-size="10.00">line.hpp</text>
</a>
</g>
</g>
<!-- Node1&#45;&gt;Node29 -->
<g id="edge104" class="edge"><title>Node1&#45;&gt;Node29</title>
<path fill="none" stroke="midnightblue" d="M880.11,-801.537C1104.4,-793.823 1702.5,-765.518 1702.5,-683 1702.5,-683 1702.5,-683 1702.5,-569 1702.5,-431.067 1529.3,-336.491 1458.81,-303.714"/>
<polygon fill="midnightblue" stroke="midnightblue" points="1460.13,-300.467 1449.57,-299.501 1457.22,-306.835 1460.13,-300.467"/>
</g>
<!-- Node30 -->
<g id="node30" class="node"><title>Node30</title>
<g id="a_node30"><a xlink:href="rect_8hpp.html" target="_top" xlink:title="rect.hpp">
<polygon fill="none" stroke="black" points="1362.5,-224.5 1362.5,-243.5 1418.5,-243.5 1418.5,-224.5 1362.5,-224.5"/>
<text text-anchor="middle" x="1390.5" y="-231.5" font-family="Helvetica,sans-Serif" font-size="10.00">rect.hpp</text>
</a>
</g>
</g>
<!-- Node1&#45;&gt;Node30 -->
<g id="edge105" class="edge"><title>Node1&#45;&gt;Node30</title>
<path fill="none" stroke="midnightblue" d="M880.055,-802.061C1057.56,-797.312 1466.98,-782.841 1601.5,-748 1667.52,-730.901 1740.5,-751.199 1740.5,-683 1740.5,-683 1740.5,-683 1740.5,-569 1740.5,-394.108 1508.94,-282.753 1422.52,-247.282"/>
<polygon fill="midnightblue" stroke="midnightblue" points="1423.78,-244.016 1413.19,-243.52 1421.16,-250.508 1423.78,-244.016"/>
</g>
<!-- Node31 -->
<g id="node31" class="node"><title>Node31</title>
<g id="a_node31"><a xlink:href="ellipse_8hpp.html" target="_top" xlink:title="ellipse.hpp">
<polygon fill="none" stroke="black" points="1388.5,-448.5 1388.5,-467.5 1456.5,-467.5 1456.5,-448.5 1388.5,-448.5"/>
<text text-anchor="middle" x="1422.5" y="-455.5" font-family="Helvetica,sans-Serif" font-size="10.00">ellipse.hpp</text>
</a>
</g>
</g>
<!-- Node1&#45;&gt;Node31 -->
<g id="edge106" class="edge"><title>Node1&#45;&gt;Node31</title>
<path fill="none" stroke="midnightblue" d="M880.134,-799.893C1083.72,-788.783 1588.5,-754.069 1588.5,-683 1588.5,-683 1588.5,-683 1588.5,-569 1588.5,-510.457 1515.87,-481.233 1466.69,-468.156"/>
<polygon fill="midnightblue" stroke="midnightblue" points="1467.45,-464.737 1456.9,-465.679 1465.73,-471.523 1467.45,-464.737"/>
</g>
<!-- Node32 -->
<g id="node32" class="node"><title>Node32</title>
<g id="a_node32"><a xlink:href="image_8hpp.html" target="_top" xlink:title="image.hpp">
<polygon fill="none" stroke="black" points="924.5,-504.5 924.5,-523.5 992.5,-523.5 992.5,-504.5 924.5,-504.5"/>
<text text-anchor="middle" x="958.5" y="-511.5" font-family="Helvetica,sans-Serif" font-size="10.00">image.hpp</text>
</a>
</g>
</g>
<!-- Node1&#45;&gt;Node32 -->
<g id="edge107" class="edge"><title>Node1&#45;&gt;Node32</title>
<path fill="none" stroke="midnightblue" d="M770.574,-784.366C740.168,-758.814 696.531,-712.623 718.5,-672 761.511,-592.468 864.268,-546.768 920.365,-526.922"/>
<polygon fill="midnightblue" stroke="midnightblue" points="921.625,-530.19 929.942,-523.626 919.347,-523.571 921.625,-530.19"/>
</g>
<!-- Node33 -->
<g id="node33" class="node"><title>Node33</title>
<g id="a_node33"><a xlink:href="crosstab_8hpp.html" target="_top" xlink:title="crosstab.hpp">
<polygon fill="none" stroke="black" points="611,-504.5 611,-523.5 690,-523.5 690,-504.5 611,-504.5"/>
<text text-anchor="middle" x="650.5" y="-511.5" font-family="Helvetica,sans-Serif" font-size="10.00">crosstab.hpp</text>
</a>
</g>
</g>
<!-- Node1&#45;&gt;Node33 -->
<g id="edge108" class="edge"><title>Node1&#45;&gt;Node33</title>
<path fill="none" stroke="midnightblue" d="M712.969,-800.192C671.83,-794.015 624.527,-779.787 593.5,-748 534.017,-687.06 511.11,-632.053 556.5,-560 566.59,-543.983 584.133,-533.542 601.352,-526.794"/>
<polygon fill="midnightblue" stroke="midnightblue" points="602.592,-530.068 610.836,-523.414 600.241,-523.475 602.592,-530.068"/>
</g>
<!-- Node38 -->
<g id="node38" class="node"><title>Node38</title>
<g id="a_node38"><a xlink:href="title_8hpp.html" target="_top" xlink:title="title.hpp">
<polygon fill="none" stroke="black" points="1308.5,-672.5 1308.5,-691.5 1364.5,-691.5 1364.5,-672.5 1308.5,-672.5"/>
<text text-anchor="middle" x="1336.5" y="-679.5" font-family="Helvetica,sans-Serif" font-size="10.00">title.hpp</text>
</a>
</g>
</g>
<!-- Node1&#45;&gt;Node38 -->
<g id="edge98" class="edge"><title>Node1&#45;&gt;Node38</title>
<path fill="none" stroke="midnightblue" d="M880.174,-796.804C956.489,-788.98 1071.89,-773.977 1169.5,-748 1220.18,-734.513 1276.52,-710.606 1309.1,-695.848"/>
<polygon fill="midnightblue" stroke="midnightblue" points="1310.78,-698.929 1318.41,-691.584 1307.86,-692.564 1310.78,-698.929"/>
</g>
<!-- Node39 -->
<g id="node39" class="node"><title>Node39</title>
<g id="a_node39"><a xlink:href="detail_8hpp.html" target="_top" xlink:title="detail.hpp">
<polygon fill="none" stroke="black" points="1382.5,-672.5 1382.5,-691.5 1446.5,-691.5 1446.5,-672.5 1382.5,-672.5"/>
<text text-anchor="middle" x="1414.5" y="-679.5" font-family="Helvetica,sans-Serif" font-size="10.00">detail.hpp</text>
</a>
</g>
</g>
<!-- Node1&#45;&gt;Node39 -->
<g id="edge99" class="edge"><title>Node1&#45;&gt;Node39</title>
<path fill="none" stroke="midnightblue" d="M880.358,-797.192C965.128,-789.272 1099.52,-773.862 1213.5,-748 1274.7,-734.114 1343.88,-709.752 1383.04,-695.122"/>
<polygon fill="midnightblue" stroke="midnightblue" points="1384.43,-698.337 1392.56,-691.536 1381.96,-691.787 1384.43,-698.337"/>
</g>
<!-- Node40 -->
<g id="node40" class="node"><title>Node40</title>
<g id="a_node40"><a xlink:href="summary_8hpp.html" target="_top" xlink:title="summary.hpp">
<polygon fill="none" stroke="black" points="1208.5,-672.5 1208.5,-691.5 1290.5,-691.5 1290.5,-672.5 1208.5,-672.5"/>
<text text-anchor="middle" x="1249.5" y="-679.5" font-family="Helvetica,sans-Serif" font-size="10.00">summary.hpp</text>
</a>
</g>
</g>
<!-- Node1&#45;&gt;Node40 -->
<g id="edge100" class="edge"><title>Node1&#45;&gt;Node40</title>
<path fill="none" stroke="midnightblue" d="M880.133,-798.322C949.799,-791.677 1050.79,-777.548 1134.5,-748 1170.04,-735.454 1207.35,-712.226 1229.5,-697.203"/>
<polygon fill="midnightblue" stroke="midnightblue" points="1231.51,-700.07 1237.75,-691.51 1227.54,-694.308 1231.51,-700.07"/>
</g>
<!-- Node41 -->
<g id="node41" class="node"><title>Node41</title>
<g id="a_node41"><a xlink:href="variable_8hpp.html" target="_top" xlink:title="variable.hpp">
<polygon fill="none" stroke="black" points="330,-672.5 330,-691.5 405,-691.5 405,-672.5 330,-672.5"/>
<text text-anchor="middle" x="367.5" y="-679.5" font-family="Helvetica,sans-Serif" font-size="10.00">variable.hpp</text>
</a>
</g>
</g>
<!-- Node1&#45;&gt;Node41 -->
<g id="edge109" class="edge"><title>Node1&#45;&gt;Node41</title>
<path fill="none" stroke="midnightblue" d="M712.754,-800.84C642.291,-795.712 540.101,-782.399 457.5,-748 429.059,-736.156 401.047,-713.762 384.016,-698.609"/>
<polygon fill="midnightblue" stroke="midnightblue" points="386.331,-695.983 376.584,-691.831 381.614,-701.155 386.331,-695.983"/>
</g>
<!-- Node7&#45;&gt;Node3 -->
<g id="edge7" class="edge"><title>Node7&#45;&gt;Node3</title>
<path fill="none" stroke="midnightblue" d="M746.326,-734.78C692.611,-730.946 605.768,-720.493 536.5,-692 369.112,-623.146 202.5,-639.996 202.5,-459 202.5,-459 202.5,-459 202.5,-177 202.5,-55.8218 390.199,-22.6324 471.587,-13.9371"/>
<polygon fill="midnightblue" stroke="midnightblue" points="472.278,-17.3856 481.88,-12.9083 471.581,-10.4203 472.278,-17.3856"/>
</g>
<!-- Node7&#45;&gt;Node5 -->
<g id="edge9" class="edge"><title>Node7&#45;&gt;Node5</title>
<path fill="none" stroke="midnightblue" d="M746.355,-735.506C660.858,-732.254 481.419,-722.367 322.605,-692.106"/>
<polygon fill="midnightblue" stroke="midnightblue" points="323.141,-688.645 312.658,-690.179 321.81,-695.517 323.141,-688.645"/>
</g>
<!-- Node8 -->
<g id="node8" class="node"><title>Node8</title>
<polygon fill="none" stroke="#bfbfbf" points="688.5,-112.5 688.5,-131.5 732.5,-131.5 732.5,-112.5 688.5,-112.5"/>
<text text-anchor="middle" x="710.5" y="-119.5" font-family="Helvetica,sans-Serif" font-size="10.00">QSize</text>
</g>
<!-- Node7&#45;&gt;Node8 -->
<g id="edge8" class="edge"><title>Node7&#45;&gt;Node8</title>
<path fill="none" stroke="midnightblue" d="M767.379,-728.441C749.857,-721.62 728.977,-710.141 718.5,-692 714.054,-684.303 717.026,-680.766 718.5,-672 744.14,-519.543 841.575,-487.018 808.5,-336 791.545,-258.583 743.696,-175.722 721.751,-140.476"/>
<polygon fill="midnightblue" stroke="midnightblue" points="724.596,-138.426 716.296,-131.841 718.678,-142.164 724.596,-138.426"/>
</g>
<!-- Node9 -->
<g id="node9" class="node"><title>Node9</title>
<polygon fill="none" stroke="#bfbfbf" points="1087,-504.5 1087,-523.5 1142,-523.5 1142,-504.5 1087,-504.5"/>
<text text-anchor="middle" x="1114.5" y="-511.5" font-family="Helvetica,sans-Serif" font-size="10.00">QVector</text>
</g>
<!-- Node7&#45;&gt;Node9 -->
<g id="edge10" class="edge"><title>Node7&#45;&gt;Node9</title>
<path fill="none" stroke="midnightblue" d="M846.581,-732.944C907.557,-727.098 1005.95,-714.458 1034.5,-692 1085.92,-651.549 1105.35,-570.756 1111.74,-533.997"/>
<polygon fill="midnightblue" stroke="midnightblue" points="1115.26,-534.143 1113.39,-523.716 1108.35,-533.039 1115.26,-534.143"/>
</g>
<!-- Node10 -->
<g id="node10" class="node"><title>Node10</title>
<polygon fill="none" stroke="#bfbfbf" points="1269.5,-0.5 1269.5,-19.5 1361.5,-19.5 1361.5,-0.5 1269.5,-0.5"/>
<text text-anchor="middle" x="1315.5" y="-7.5" font-family="Helvetica,sans-Serif" font-size="10.00">QSharedPointer</text>
</g>
<!-- Node7&#45;&gt;Node10 -->
<g id="edge11" class="edge"><title>Node7&#45;&gt;Node10</title>
<path fill="none" stroke="midnightblue" d="M846.592,-731.379C899.504,-724.526 978.42,-711.403 1001.5,-692 1036.06,-662.948 1058.97,-544.705 1078.5,-504 1149.91,-355.123 1258.5,-344.119 1258.5,-179 1258.5,-179 1258.5,-179 1258.5,-121 1258.5,-84.3005 1283.82,-47.6567 1300.71,-27.2973"/>
<polygon fill="midnightblue" stroke="midnightblue" points="1303.45,-29.475 1307.33,-19.6161 1298.15,-24.9037 1303.45,-29.475"/>
</g>
<!-- Node11 -->
<g id="node11" class="node"><title>Node11</title>
<polygon fill="none" stroke="#bfbfbf" points="727.5,-672.5 727.5,-691.5 789.5,-691.5 789.5,-672.5 727.5,-672.5"/>
<text text-anchor="middle" x="758.5" y="-679.5" font-family="Helvetica,sans-Serif" font-size="10.00">QMargins</text>
</g>
<!-- Node7&#45;&gt;Node11 -->
<g id="edge12" class="edge"><title>Node7&#45;&gt;Node11</title>
<path fill="none" stroke="midnightblue" d="M790.225,-728.083C784.858,-720.455 776.982,-709.264 770.421,-699.941"/>
<polygon fill="midnightblue" stroke="midnightblue" points="773.275,-697.915 764.658,-691.751 767.551,-701.943 773.275,-697.915"/>
</g>
<!-- Node12 -->
<g id="node12" class="node"><title>Node12</title>
<polygon fill="none" stroke="#bfbfbf" points="807.5,-672.5 807.5,-691.5 863.5,-691.5 863.5,-672.5 807.5,-672.5"/>
<text text-anchor="middle" x="835.5" y="-679.5" font-family="Helvetica,sans-Serif" font-size="10.00">QPrinter</text>
</g>
<!-- Node7&#45;&gt;Node12 -->
<g id="edge13" class="edge"><title>Node7&#45;&gt;Node12</title>
<path fill="none" stroke="midnightblue" d="M802.94,-728.083C808.449,-720.455 816.531,-709.264 823.265,-699.941"/>
<polygon fill="midnightblue" stroke="midnightblue" points="826.162,-701.907 829.18,-691.751 820.487,-697.809 826.162,-701.907"/>
</g>
<!-- Node13 -->
<g id="node13" class="node"><title>Node13</title>
<polygon fill="none" stroke="#bfbfbf" points="881,-672.5 881,-691.5 992,-691.5 992,-672.5 881,-672.5"/>
<text text-anchor="middle" x="936.5" y="-679.5" font-family="Helvetica,sans-Serif" font-size="10.00">QRegularExpression</text>
</g>
<!-- Node7&#45;&gt;Node13 -->
<g id="edge14" class="edge"><title>Node7&#45;&gt;Node13</title>
<path fill="none" stroke="midnightblue" d="M818.683,-728.444C841.928,-719.478 878.649,-705.314 904.915,-695.183"/>
<polygon fill="midnightblue" stroke="midnightblue" points="906.35,-698.381 914.42,-691.516 903.831,-691.85 906.35,-698.381"/>
</g>
<!-- Node14 -->
<g id="node14" class="node"><title>Node14</title>
<g id="a_node14"><a xlink:href="object_8hpp.html" target="_top" xlink:title="object.hpp">
<polygon fill="none" stroke="black" points="475,-56.5 475,-75.5 542,-75.5 542,-56.5 475,-56.5"/>
<text text-anchor="middle" x="508.5" y="-63.5" font-family="Helvetica,sans-Serif" font-size="10.00">object.hpp</text>
</a>
</g>
</g>
<!-- Node7&#45;&gt;Node14 -->
<g id="edge15" class="edge"><title>Node7&#45;&gt;Node14</title>
<path fill="none" stroke="midnightblue" d="M759.27,-728.483C731.092,-721.151 691.997,-709.043 660.5,-692 522.275,-617.207 394.5,-616.163 394.5,-459 394.5,-459 394.5,-459 394.5,-401 394.5,-325.314 432.5,-310.686 432.5,-235 432.5,-235 432.5,-235 432.5,-177 432.5,-137.276 466.464,-101.504 488.982,-82.1536"/>
<polygon fill="midnightblue" stroke="midnightblue" points="491.476,-84.6337 496.957,-75.5672 487.018,-79.2364 491.476,-84.6337"/>
</g>
<!-- Node7&#45;&gt;Node16 -->
<g id="edge19" class="edge"><title>Node7&#45;&gt;Node16</title>
<path fill="none" stroke="midnightblue" d="M762.494,-728.435C739.168,-721.373 708.412,-709.62 685.5,-692 647.792,-663.001 617.92,-614.532 603.65,-588.613"/>
<polygon fill="midnightblue" stroke="midnightblue" points="606.619,-586.743 598.81,-579.582 600.449,-590.05 606.619,-586.743"/>
</g>
<!-- Node7&#45;&gt;Node18 -->
<g id="edge26" class="edge"><title>Node7&#45;&gt;Node18</title>
<path fill="none" stroke="midnightblue" d="M746.344,-733.266C699.456,-728.339 628.339,-717.125 571.5,-692 525.091,-671.485 280.5,-485.575 280.5,-459 280.5,-459 280.5,-459 280.5,-289 280.5,-232.409 310.082,-170.39 326.245,-140.728"/>
<polygon fill="midnightblue" stroke="midnightblue" points="329.498,-142.082 331.332,-131.647 323.391,-138.661 329.498,-142.082"/>
</g>
<!-- Node7&#45;&gt;Node20 -->
<g id="edge31" class="edge"><title>Node7&#45;&gt;Node20</title>
<path fill="none" stroke="midnightblue" d="M846.696,-729.492C918.048,-718.818 1047.57,-699.444 1114.65,-689.409"/>
<polygon fill="midnightblue" stroke="midnightblue" points="1115.49,-692.822 1124.87,-687.881 1114.46,-685.899 1115.49,-692.822"/>
</g>
<!-- Node7&#45;&gt;Node38 -->
<g id="edge84" class="edge"><title>Node7&#45;&gt;Node38</title>
<path fill="none" stroke="midnightblue" d="M846.789,-734.99C935.953,-730.884 1127.67,-719.624 1298.39,-691.948"/>
<polygon fill="midnightblue" stroke="midnightblue" points="1299.01,-695.393 1308.31,-690.317 1297.87,-688.486 1299.01,-695.393"/>
</g>
<!-- Node7&#45;&gt;Node39 -->
<g id="edge87" class="edge"><title>Node7&#45;&gt;Node39</title>
<path fill="none" stroke="midnightblue" d="M846.542,-735.425C945.28,-731.815 1172.23,-721.02 1372.24,-691.984"/>
<polygon fill="midnightblue" stroke="midnightblue" points="1372.96,-695.416 1382.35,-690.498 1371.95,-688.49 1372.96,-695.416"/>
</g>
<!-- Node7&#45;&gt;Node40 -->
<g id="edge90" class="edge"><title>Node7&#45;&gt;Node40</title>
<path fill="none" stroke="midnightblue" d="M846.585,-732.494C921.059,-725.554 1065.61,-711.168 1198.39,-692.077"/>
<polygon fill="midnightblue" stroke="midnightblue" points="1198.94,-695.534 1208.33,-690.635 1197.94,-688.606 1198.94,-695.534"/>
</g>
<!-- Node7&#45;&gt;Node41 -->
<g id="edge93" class="edge"><title>Node7&#45;&gt;Node41</title>
<path fill="none" stroke="midnightblue" d="M746.449,-730.7C663.042,-720.201 496.731,-699.267 415.03,-688.983"/>
<polygon fill="midnightblue" stroke="midnightblue" points="415.383,-685.5 405.024,-687.723 414.509,-692.445 415.383,-685.5"/>
</g>
<!-- Node14&#45;&gt;Node3 -->
<g id="edge16" class="edge"><title>Node14&#45;&gt;Node3</title>
<path fill="none" stroke="midnightblue" d="M508.5,-56.083C508.5,-49.0059 508.5,-38.8611 508.5,-29.9865"/>
<polygon fill="midnightblue" stroke="midnightblue" points="512,-29.751 508.5,-19.7511 505,-29.7511 512,-29.751"/>
</g>
<!-- Node14&#45;&gt;Node10 -->
<g id="edge18" class="edge"><title>Node14&#45;&gt;Node10</title>
<path fill="none" stroke="midnightblue" d="M542.148,-62.7484C666.735,-54.4118 1102.66,-25.2419 1259.09,-14.7746"/>
<polygon fill="midnightblue" stroke="midnightblue" points="1259.68,-18.2431 1269.42,-14.0832 1259.21,-11.2588 1259.68,-18.2431"/>
</g>
<!-- Node15 -->
<g id="node15" class="node"><title>Node15</title>
<polygon fill="none" stroke="#bfbfbf" points="289.5,-0.5 289.5,-19.5 347.5,-19.5 347.5,-0.5 289.5,-0.5"/>
<text text-anchor="middle" x="318.5" y="-7.5" font-family="Helvetica,sans-Serif" font-size="10.00">QVariant</text>
</g>
<!-- Node14&#45;&gt;Node15 -->
<g id="edge17" class="edge"><title>Node14&#45;&gt;Node15</title>
<path fill="none" stroke="midnightblue" d="M478.394,-56.4435C445.587,-47.1196 393.003,-32.1746 357.164,-21.9889"/>
<polygon fill="midnightblue" stroke="midnightblue" points="358.106,-18.618 347.531,-19.2508 356.193,-25.3514 358.106,-18.618"/>
</g>
<!-- Node16&#45;&gt;Node3 -->
<g id="edge22" class="edge"><title>Node16&#45;&gt;Node3</title>
<path fill="none" stroke="midnightblue" d="M565.911,-563.279C519.404,-552.121 432.5,-522.742 432.5,-459 432.5,-459 432.5,-459 432.5,-401 432.5,-330.116 275.085,-179.246 297.5,-112 307.338,-82.4854 313.714,-73.4062 339.5,-56 379.698,-28.8656 435.527,-18.0731 471.832,-13.7932"/>
<polygon fill="midnightblue" stroke="midnightblue" points="472.408,-17.2516 481.978,-12.7067 471.663,-10.2914 472.408,-17.2516"/>
</g>
<!-- Node16&#45;&gt;Node9 -->
<g id="edge23" class="edge"><title>Node16&#45;&gt;Node9</title>
<path fill="none" stroke="midnightblue" d="M623.198,-566.02C711.225,-556.879 977.439,-529.233 1076.67,-518.928"/>
<polygon fill="midnightblue" stroke="midnightblue" points="1077.26,-522.387 1086.84,-517.872 1076.53,-515.424 1077.26,-522.387"/>
</g>
<!-- Node16&#45;&gt;Node10 -->
<g id="edge20" class="edge"><title>Node16&#45;&gt;Node10</title>
<path fill="none" stroke="midnightblue" d="M618.364,-560.452C639.934,-552.316 672.233,-539.099 698.5,-524 734.876,-503.091 742.811,-495.499 774.5,-468 954.026,-312.214 913.817,-181.788 1115.5,-56 1159.02,-28.8564 1216.93,-18.0127 1259.23,-13.719"/>
<polygon fill="midnightblue" stroke="midnightblue" points="1259.72,-17.1886 1269.35,-12.7851 1259.07,-10.2182 1259.72,-17.1886"/>
</g>
<!-- Node16&#45;&gt;Node14 -->
<g id="edge25" class="edge"><title>Node16&#45;&gt;Node14</title>
<path fill="none" stroke="midnightblue" d="M570.885,-560.476C534.907,-545.794 470.5,-512.095 470.5,-459 470.5,-459 470.5,-459 470.5,-177 470.5,-142.813 487.1,-105.764 498.357,-84.5707"/>
<polygon fill="midnightblue" stroke="midnightblue" points="501.447,-86.2151 503.216,-75.769 495.319,-82.832 501.447,-86.2151"/>
</g>
<!-- Node16&#45;&gt;Node15 -->
<g id="edge21" class="edge"><title>Node16&#45;&gt;Node15</title>
<path fill="none" stroke="midnightblue" d="M565.744,-565.47C495.054,-555.028 318.5,-517.487 318.5,-403 318.5,-403 318.5,-403 318.5,-289 318.5,-209.423 281.136,-190.899 291.5,-112 295.369,-82.543 305.329,-49.4633 312.009,-29.4367"/>
<polygon fill="midnightblue" stroke="midnightblue" points="315.394,-30.3542 315.323,-19.7596 308.772,-28.0862 315.394,-30.3542"/>
</g>
<!-- Node17 -->
<g id="node17" class="node"><title>Node17</title>
<polygon fill="none" stroke="#bfbfbf" points="860.5,-448.5 860.5,-467.5 914.5,-467.5 914.5,-448.5 860.5,-448.5"/>
<text text-anchor="middle" x="887.5" y="-455.5" font-family="Helvetica,sans-Serif" font-size="10.00">QImage</text>
</g>
<!-- Node16&#45;&gt;Node17 -->
<g id="edge24" class="edge"><title>Node16&#45;&gt;Node17</title>
<path fill="none" stroke="midnightblue" d="M623.014,-560.45C651.084,-551.858 695.065,-537.926 732.5,-524 777.414,-507.291 828.491,-485.271 859.339,-471.629"/>
<polygon fill="midnightblue" stroke="midnightblue" points="860.892,-474.769 868.611,-467.512 858.051,-468.372 860.892,-474.769"/>
</g>
<!-- Node18&#45;&gt;Node3 -->
<g id="edge27" class="edge"><title>Node18&#45;&gt;Node3</title>
<path fill="none" stroke="midnightblue" d="M336.536,-112.1C337.087,-98.1907 340.216,-71.3094 355.5,-56 386.346,-25.1021 437.243,-15.1947 471.785,-12.142"/>
<polygon fill="midnightblue" stroke="midnightblue" points="472.222,-15.6195 481.94,-11.399 471.711,-8.63815 472.222,-15.6195"/>
</g>
<!-- Node18&#45;&gt;Node10 -->
<g id="edge29" class="edge"><title>Node18&#45;&gt;Node10</title>
<path fill="none" stroke="midnightblue" d="M352.48,-112.482C384.316,-95.5816 453.624,-59.1569 465.5,-56 615.904,-16.0187 1094.2,-11.3654 1259.03,-10.9719"/>
<polygon fill="midnightblue" stroke="midnightblue" points="1259.44,-14.4712 1269.43,-10.9518 1259.42,-7.47119 1259.44,-14.4712"/>
</g>
<!-- Node18&#45;&gt;Node14 -->
<g id="edge30" class="edge"><title>Node18&#45;&gt;Node14</title>
<path fill="none" stroke="midnightblue" d="M363.754,-112.444C392.941,-103.28 439.421,-88.6876 471.809,-78.5192"/>
<polygon fill="midnightblue" stroke="midnightblue" points="472.881,-81.8512 481.374,-75.5164 470.784,-75.1726 472.881,-81.8512"/>
</g>
<!-- Node19 -->
<g id="node19" class="node"><title>Node19</title>
<polygon fill="none" stroke="#bfbfbf" points="365,-56.5 365,-75.5 414,-75.5 414,-56.5 365,-56.5"/>
<text text-anchor="middle" x="389.5" y="-63.5" font-family="Helvetica,sans-Serif" font-size="10.00">QColor</text>
</g>
<!-- Node18&#45;&gt;Node19 -->
<g id="edge28" class="edge"><title>Node18&#45;&gt;Node19</title>
<path fill="none" stroke="midnightblue" d="M345.252,-112.083C352.97,-104.22 364.405,-92.5688 373.717,-83.0813"/>
<polygon fill="midnightblue" stroke="midnightblue" points="376.404,-85.3396 380.911,-75.7511 371.408,-80.4363 376.404,-85.3396"/>
</g>
<!-- Node20&#45;&gt;Node3 -->
<g id="edge32" class="edge"><title>Node20&#45;&gt;Node3</title>
<path fill="none" stroke="midnightblue" d="M1128.71,-672.449C1075.17,-654.799 961.52,-608.713 915.5,-524 899.287,-494.155 933.475,-480.466 923.5,-448 896.998,-361.745 868.92,-347.908 809.5,-280 714.806,-171.781 578.547,-64.2336 528.181,-25.7992"/>
<polygon fill="midnightblue" stroke="midnightblue" points="530.146,-22.897 520.065,-19.6385 525.914,-28.4726 530.146,-22.897"/>
</g>
<!-- Node20&#45;&gt;Node10 -->
<g id="edge33" class="edge"><title>Node20&#45;&gt;Node10</title>
<path fill="none" stroke="midnightblue" d="M1160.15,-672.493C1179.37,-610.735 1296.5,-232.129 1296.5,-179 1296.5,-179 1296.5,-179 1296.5,-121 1296.5,-88.4885 1304.66,-51.3503 1310.28,-29.6103"/>
<polygon fill="midnightblue" stroke="midnightblue" points="1313.72,-30.3175 1312.94,-19.7514 1306.96,-28.498 1313.72,-30.3175"/>
</g>
<!-- Node21 -->
<g id="node21" class="node"><title>Node21</title>
<g id="a_node21"><a xlink:href="section_8hpp.html" target="_top" xlink:title="section.hpp">
<polygon fill="none" stroke="black" points="1230.5,-616.5 1230.5,-635.5 1302.5,-635.5 1302.5,-616.5 1230.5,-616.5"/>
<text text-anchor="middle" x="1266.5" y="-623.5" font-family="Helvetica,sans-Serif" font-size="10.00">section.hpp</text>
</a>
</g>
</g>
<!-- Node20&#45;&gt;Node21 -->
<g id="edge34" class="edge"><title>Node20&#45;&gt;Node21</title>
<path fill="none" stroke="midnightblue" d="M1175.01,-672.324C1192.57,-663.625 1219.83,-650.12 1240.03,-640.113"/>
<polygon fill="midnightblue" stroke="midnightblue" points="1241.62,-643.23 1249.03,-635.655 1238.52,-636.958 1241.62,-643.23"/>
</g>
<!-- Node21&#45;&gt;Node9 -->
<g id="edge35" class="edge"><title>Node21&#45;&gt;Node9</title>
<path fill="none" stroke="midnightblue" d="M1254.57,-616.368C1228.6,-597.573 1166.69,-552.768 1134.58,-529.533"/>
<polygon fill="midnightblue" stroke="midnightblue" points="1136.52,-526.619 1126.37,-523.591 1132.42,-532.29 1136.52,-526.619"/>
</g>
<!-- Node21&#45;&gt;Node10 -->
<g id="edge36" class="edge"><title>Node21&#45;&gt;Node10</title>
<path fill="none" stroke="midnightblue" d="M1287.27,-616.46C1359.95,-585.043 1598.5,-468.418 1598.5,-291 1598.5,-291 1598.5,-291 1598.5,-121 1598.5,-72.0183 1554.04,-76.3907 1509.5,-56 1465.54,-35.8743 1411.73,-24.3088 1371.94,-17.9566"/>
<polygon fill="midnightblue" stroke="midnightblue" points="1372.3,-14.4707 1361.88,-16.414 1371.23,-21.3898 1372.3,-14.4707"/>
</g>
<!-- Node21&#45;&gt;Node14 -->
<g id="edge37" class="edge"><title>Node21&#45;&gt;Node14</title>
<path fill="none" stroke="midnightblue" d="M1230.13,-623.476C1106.79,-617.708 706.319,-593.869 601.5,-524 569.611,-502.744 508.5,-374.331 508.5,-347 508.5,-347 508.5,-347 508.5,-177 508.5,-144.948 508.5,-107.643 508.5,-85.7489"/>
<polygon fill="midnightblue" stroke="midnightblue" points="512,-85.5577 508.5,-75.5578 505,-85.5578 512,-85.5577"/>
</g>
<!-- Node21&#45;&gt;Node22 -->
<g id="edge38" class="edge"><title>Node21&#45;&gt;Node22</title>
<path fill="none" stroke="midnightblue" d="M1267.99,-616.083C1269.18,-608.927 1270.89,-598.635 1272.38,-589.691"/>
<polygon fill="midnightblue" stroke="midnightblue" points="1275.85,-590.19 1274.04,-579.751 1268.95,-589.04 1275.85,-590.19"/>
</g>
<!-- Node22&#45;&gt;Node9 -->
<g id="edge39" class="edge"><title>Node22&#45;&gt;Node9</title>
<path fill="none" stroke="midnightblue" d="M1249.99,-560.444C1222.9,-551.359 1179.91,-536.939 1149.63,-526.783"/>
<polygon fill="midnightblue" stroke="midnightblue" points="1150.49,-523.378 1139.89,-523.516 1148.26,-530.015 1150.49,-523.378"/>
</g>
<!-- Node22&#45;&gt;Node10 -->
<g id="edge40" class="edge"><title>Node22&#45;&gt;Node10</title>
<path fill="none" stroke="midnightblue" d="M1306.59,-560.689C1332.03,-553.16 1368.43,-540.691 1397.5,-524 1481.02,-476.052 1522.5,-443.306 1522.5,-347 1522.5,-347 1522.5,-347 1522.5,-121 1522.5,-52.4766 1432.95,-26.5061 1371.65,-16.7556"/>
<polygon fill="midnightblue" stroke="midnightblue" points="1372.1,-13.2844 1361.7,-15.2735 1371.07,-20.2081 1372.1,-13.2844"/>
</g>
<!-- Node22&#45;&gt;Node23 -->
<g id="edge41" class="edge"><title>Node22&#45;&gt;Node23</title>
<path fill="none" stroke="midnightblue" d="M1277.11,-560.297C1283.14,-527.633 1304.52,-411.866 1313,-365.957"/>
<polygon fill="midnightblue" stroke="midnightblue" points="1316.48,-366.353 1314.86,-355.884 1309.6,-365.082 1316.48,-366.353"/>
</g>
<!-- Node25 -->
<g id="node25" class="node"><title>Node25</title>
<g id="a_node25"><a xlink:href="widget_8hpp.html" target="_top" xlink:title="widget.hpp">
<polygon fill="none" stroke="black" points="834.5,-168.5 834.5,-187.5 902.5,-187.5 902.5,-168.5 834.5,-168.5"/>
<text text-anchor="middle" x="868.5" y="-175.5" font-family="Helvetica,sans-Serif" font-size="10.00">widget.hpp</text>
</a>
</g>
</g>
<!-- Node22&#45;&gt;Node25 -->
<g id="edge71" class="edge"><title>Node22&#45;&gt;Node25</title>
<path fill="none" stroke="midnightblue" d="M1265.41,-560.31C1222.79,-523.469 1053.8,-376.006 925.5,-244 910.054,-228.108 893.463,-208.924 882.187,-195.533"/>
<polygon fill="midnightblue" stroke="midnightblue" points="884.708,-193.091 875.61,-187.662 879.336,-197.58 884.708,-193.091"/>
</g>
<!-- Node22&#45;&gt;Node28 -->
<g id="edge54" class="edge"><title>Node22&#45;&gt;Node28</title>
<path fill="none" stroke="midnightblue" d="M1271.59,-560.365C1263.67,-542.073 1246.5,-497.907 1246.5,-459 1246.5,-459 1246.5,-459 1246.5,-401 1246.5,-347.629 1184.11,-317.421 1139.54,-302.65"/>
<polygon fill="midnightblue" stroke="midnightblue" points="1140.35,-299.237 1129.76,-299.56 1138.24,-305.912 1140.35,-299.237"/>
</g>
<!-- Node22&#45;&gt;Node29 -->
<g id="edge58" class="edge"><title>Node22&#45;&gt;Node29</title>
<path fill="none" stroke="midnightblue" d="M1291.74,-560.437C1305.32,-552.559 1324.36,-539.729 1336.5,-524 1364.03,-488.338 1407.8,-358.145 1423.58,-309.501"/>
<polygon fill="midnightblue" stroke="midnightblue" points="1427.01,-310.292 1426.74,-299.701 1420.34,-308.146 1427.01,-310.292"/>
</g>
<!-- Node22&#45;&gt;Node30 -->
<g id="edge61" class="edge"><title>Node22&#45;&gt;Node30</title>
<path fill="none" stroke="midnightblue" d="M1280.56,-560.176C1285.63,-551.203 1293.5,-536.834 1299.5,-524 1333.61,-451.028 1344.76,-433.274 1367.5,-356 1377.93,-320.567 1384.76,-277.861 1388.09,-253.83"/>
<polygon fill="midnightblue" stroke="midnightblue" points="1391.6,-254.021 1389.45,-243.646 1384.66,-253.095 1391.6,-254.021"/>
</g>
<!-- Node22&#45;&gt;Node31 -->
<g id="edge64" class="edge"><title>Node22&#45;&gt;Node31</title>
<path fill="none" stroke="midnightblue" d="M1304.07,-560.368C1325.09,-553.04 1353.52,-540.99 1374.5,-524 1390.8,-510.802 1404.43,-490.851 1412.95,-476.536"/>
<polygon fill="midnightblue" stroke="midnightblue" points="1416.09,-478.098 1418.01,-467.678 1410.01,-474.63 1416.09,-478.098"/>
</g>
<!-- Node22&#45;&gt;Node32 -->
<g id="edge67" class="edge"><title>Node22&#45;&gt;Node32</title>
<path fill="none" stroke="midnightblue" d="M1244.24,-563.674C1187.6,-554.026 1067.87,-533.631 1002.82,-522.55"/>
<polygon fill="midnightblue" stroke="midnightblue" points="1003.31,-519.084 992.868,-520.855 1002.14,-525.984 1003.31,-519.084"/>
</g>
<!-- Node22&#45;&gt;Node33 -->
<g id="edge72" class="edge"><title>Node22&#45;&gt;Node33</title>
<path fill="none" stroke="midnightblue" d="M1244.08,-566.285C1142.82,-557.536 824.446,-530.029 700.539,-519.323"/>
<polygon fill="midnightblue" stroke="midnightblue" points="700.475,-515.805 690.211,-518.431 699.873,-522.779 700.475,-515.805"/>
</g>
<!-- Node23&#45;&gt;Node10 -->
<g id="edge42" class="edge"><title>Node23&#45;&gt;Node10</title>
<path fill="none" stroke="midnightblue" d="M1318.93,-336.24C1323.84,-317.711 1334.5,-273.122 1334.5,-235 1334.5,-235 1334.5,-235 1334.5,-121 1334.5,-88.4885 1326.34,-51.3503 1320.72,-29.6103"/>
<polygon fill="midnightblue" stroke="midnightblue" points="1324.04,-28.498 1318.06,-19.7514 1317.28,-30.3175 1324.04,-28.498"/>
</g>
<!-- Node24 -->
<g id="node24" class="node"><title>Node24</title>
<g id="a_node24"><a xlink:href="textwidget_8hpp.html" target="_top" xlink:title="textwidget.hpp">
<polygon fill="none" stroke="black" points="991,-224.5 991,-243.5 1078,-243.5 1078,-224.5 991,-224.5"/>
<text text-anchor="middle" x="1034.5" y="-231.5" font-family="Helvetica,sans-Serif" font-size="10.00">textwidget.hpp</text>
</a>
</g>
</g>
<!-- Node23&#45;&gt;Node24 -->
<g id="edge43" class="edge"><title>Node23&#45;&gt;Node24</title>
<path fill="none" stroke="midnightblue" d="M1294.37,-336.368C1244.54,-316.93 1123.39,-269.674 1065.85,-247.228"/>
<polygon fill="midnightblue" stroke="midnightblue" points="1067.11,-243.965 1056.53,-243.591 1064.57,-250.486 1067.11,-243.965"/>
</g>
<!-- Node24&#45;&gt;Node3 -->
<g id="edge44" class="edge"><title>Node24&#45;&gt;Node3</title>
<path fill="none" stroke="midnightblue" d="M1030.77,-224.352C1020.62,-201.942 990.279,-141.676 945.5,-112 816.604,-26.576 624.722,-12.9063 545.134,-11.0716"/>
<polygon fill="midnightblue" stroke="midnightblue" points="545.171,-7.57178 535.11,-10.8906 545.045,-14.5706 545.171,-7.57178"/>
</g>
<!-- Node24&#45;&gt;Node10 -->
<g id="edge45" class="edge"><title>Node24&#45;&gt;Node10</title>
<path fill="none" stroke="midnightblue" d="M1037.04,-224.38C1045.97,-195.604 1078.8,-102.079 1140.5,-56 1174.85,-30.3495 1222.39,-19.261 1259.25,-14.4971"/>
<polygon fill="midnightblue" stroke="midnightblue" points="1259.82,-17.9544 1269.35,-13.3143 1259.01,-11.0019 1259.82,-17.9544"/>
</g>
<!-- Node24&#45;&gt;Node25 -->
<g id="edge46" class="edge"><title>Node24&#45;&gt;Node25</title>
<path fill="none" stroke="midnightblue" d="M1008.2,-224.444C980.149,-215.32 935.556,-200.813 904.316,-190.651"/>
<polygon fill="midnightblue" stroke="midnightblue" points="905.272,-187.282 894.68,-187.516 903.107,-193.938 905.272,-187.282"/>
</g>
<!-- Node25&#45;&gt;Node3 -->
<g id="edge47" class="edge"><title>Node25&#45;&gt;Node3</title>
<path fill="none" stroke="midnightblue" d="M857.167,-168.363C840.078,-155.485 806.517,-130.76 776.5,-112 732.644,-84.5909 722.461,-75.3461 674.5,-56 631.336,-38.5889 579.192,-25.6971 545.007,-18.2762"/>
<polygon fill="midnightblue" stroke="midnightblue" points="545.514,-14.8057 535.005,-16.1499 544.058,-21.6527 545.514,-14.8057"/>
</g>
<!-- Node25&#45;&gt;Node8 -->
<g id="edge49" class="edge"><title>Node25&#45;&gt;Node8</title>
<path fill="none" stroke="midnightblue" d="M843.464,-168.444C816.024,-159.065 771.945,-144 742.133,-133.811"/>
<polygon fill="midnightblue" stroke="midnightblue" points="743.209,-130.48 732.614,-130.558 740.945,-137.104 743.209,-130.48"/>
</g>
<!-- Node25&#45;&gt;Node10 -->
<g id="edge51" class="edge"><title>Node25&#45;&gt;Node10</title>
<path fill="none" stroke="midnightblue" d="M885.708,-168.379C901.785,-159.998 926.144,-146.449 945.5,-132 985.06,-102.471 982.136,-77.6505 1026.5,-56 1066.46,-36.4984 1187.01,-22.6186 1259.17,-15.7959"/>
<polygon fill="midnightblue" stroke="midnightblue" points="1259.82,-19.2508 1269.45,-14.8406 1259.17,-12.2808 1259.82,-19.2508"/>
</g>
<!-- Node25&#45;&gt;Node14 -->
<g id="edge53" class="edge"><title>Node25&#45;&gt;Node14</title>
<path fill="none" stroke="midnightblue" d="M852.248,-168.357C820.628,-151.589 752.916,-115.935 741.5,-112 677.452,-89.9247 599.552,-77.6423 552.02,-71.6802"/>
<polygon fill="midnightblue" stroke="midnightblue" points="552.415,-68.2025 542.065,-70.4685 551.569,-75.1512 552.415,-68.2025"/>
</g>
<!-- Node25&#45;&gt;Node18 -->
<g id="edge52" class="edge"><title>Node25&#45;&gt;Node18</title>
<path fill="none" stroke="midnightblue" d="M834.412,-173.54C740.388,-163.996 477.674,-137.33 376.722,-127.083"/>
<polygon fill="midnightblue" stroke="midnightblue" points="376.929,-123.586 366.626,-126.058 376.222,-130.55 376.929,-123.586"/>
</g>
<!-- Node26 -->
<g id="node26" class="node"><title>Node26</title>
<polygon fill="none" stroke="#bfbfbf" points="826.5,-112.5 826.5,-131.5 874.5,-131.5 874.5,-112.5 826.5,-112.5"/>
<text text-anchor="middle" x="850.5" y="-119.5" font-family="Helvetica,sans-Serif" font-size="10.00">QPoint</text>
</g>
<!-- Node25&#45;&gt;Node26 -->
<g id="edge48" class="edge"><title>Node25&#45;&gt;Node26</title>
<path fill="none" stroke="midnightblue" d="M865.528,-168.083C863.116,-160.849 859.636,-150.409 856.632,-141.397"/>
<polygon fill="midnightblue" stroke="midnightblue" points="859.9,-140.131 853.417,-131.751 853.259,-142.345 859.9,-140.131"/>
</g>
<!-- Node27 -->
<g id="node27" class="node"><title>Node27</title>
<polygon fill="none" stroke="#bfbfbf" points="892.5,-112.5 892.5,-131.5 936.5,-131.5 936.5,-112.5 892.5,-112.5"/>
<text text-anchor="middle" x="914.5" y="-119.5" font-family="Helvetica,sans-Serif" font-size="10.00">QRect</text>
</g>
<!-- Node25&#45;&gt;Node27 -->
<g id="edge50" class="edge"><title>Node25&#45;&gt;Node27</title>
<path fill="none" stroke="midnightblue" d="M876.096,-168.083C882.727,-160.298 892.521,-148.801 900.558,-139.367"/>
<polygon fill="midnightblue" stroke="midnightblue" points="903.225,-141.633 907.045,-131.751 897.896,-137.094 903.225,-141.633"/>
</g>
<!-- Node28&#45;&gt;Node3 -->
<g id="edge55" class="edge"><title>Node28&#45;&gt;Node3</title>
<path fill="none" stroke="midnightblue" d="M1095.99,-280.232C1096.73,-258.56 1095.67,-201.781 1067.5,-168 1001.75,-89.1641 963.334,-87.088 865.5,-56 752.707,-20.1585 611.339,-12.7207 545.464,-11.2757"/>
<polygon fill="midnightblue" stroke="midnightblue" points="545.245,-7.77116 535.182,-11.0862 545.116,-14.77 545.245,-7.77116"/>
</g>
<!-- Node28&#45;&gt;Node10 -->
<g id="edge56" class="edge"><title>Node28&#45;&gt;Node10</title>
<path fill="none" stroke="midnightblue" d="M1101.04,-280.311C1106.53,-271.443 1114.89,-257.153 1120.5,-244 1154.81,-163.569 1117.23,-118.388 1178.5,-56 1199.82,-34.2851 1231.79,-23.0461 1259.48,-17.2305"/>
<polygon fill="midnightblue" stroke="midnightblue" points="1260.3,-20.638 1269.47,-15.3238 1258.99,-13.7623 1260.3,-20.638"/>
</g>
<!-- Node28&#45;&gt;Node24 -->
<g id="edge57" class="edge"><title>Node28&#45;&gt;Node24</title>
<path fill="none" stroke="midnightblue" d="M1085.7,-280.324C1076.68,-272.341 1063.09,-260.313 1052.18,-250.653"/>
<polygon fill="midnightblue" stroke="midnightblue" points="1054.29,-247.842 1044.48,-243.834 1049.65,-253.083 1054.29,-247.842"/>
</g>
<!-- Node29&#45;&gt;Node10 -->
<g id="edge59" class="edge"><title>Node29&#45;&gt;Node10</title>
<path fill="none" stroke="midnightblue" d="M1431.79,-280.231C1436.43,-261.687 1446.5,-217.068 1446.5,-179 1446.5,-179 1446.5,-179 1446.5,-121 1446.5,-71.036 1389.92,-39.2346 1351.13,-23.3027"/>
<polygon fill="midnightblue" stroke="midnightblue" points="1352.28,-19.9955 1341.69,-19.5928 1349.72,-26.5098 1352.28,-19.9955"/>
</g>
<!-- Node29&#45;&gt;Node25 -->
<g id="edge60" class="edge"><title>Node29&#45;&gt;Node25</title>
<path fill="none" stroke="midnightblue" d="M1402.44,-283.694C1312.56,-266.07 1023.34,-209.361 912.394,-187.607"/>
<polygon fill="midnightblue" stroke="midnightblue" points="913.022,-184.163 902.536,-185.674 911.675,-191.032 913.022,-184.163"/>
</g>
<!-- Node30&#45;&gt;Node10 -->
<g id="edge62" class="edge"><title>Node30&#45;&gt;Node10</title>
<path fill="none" stroke="midnightblue" d="M1389.69,-224.498C1386.96,-198.278 1376.59,-116.779 1348.5,-56 1343.78,-45.7956 1336.56,-35.597 1330.08,-27.4952"/>
<polygon fill="midnightblue" stroke="midnightblue" points="1332.59,-25.0413 1323.48,-19.6258 1327.22,-29.538 1332.59,-25.0413"/>
</g>
<!-- Node30&#45;&gt;Node25 -->
<g id="edge63" class="edge"><title>Node30&#45;&gt;Node25</title>
<path fill="none" stroke="midnightblue" d="M1362.44,-230.097C1276.65,-221.222 1017.42,-194.405 912.895,-183.593"/>
<polygon fill="midnightblue" stroke="midnightblue" points="912.994,-180.084 902.687,-182.537 912.274,-187.047 912.994,-180.084"/>
</g>
<!-- Node31&#45;&gt;Node10 -->
<g id="edge65" class="edge"><title>Node31&#45;&gt;Node10</title>
<path fill="none" stroke="midnightblue" d="M1426.76,-448.361C1440.77,-419.143 1484.5,-321.036 1484.5,-235 1484.5,-235 1484.5,-235 1484.5,-121 1484.5,-64.9948 1418.5,-36.0295 1368.99,-22.1799"/>
<polygon fill="midnightblue" stroke="midnightblue" points="1369.59,-18.716 1359.02,-19.5288 1367.79,-25.4809 1369.59,-18.716"/>
</g>
<!-- Node31&#45;&gt;Node25 -->
<g id="edge66" class="edge"><title>Node31&#45;&gt;Node25</title>
<path fill="none" stroke="midnightblue" d="M1397.68,-448.483C1336.56,-427.111 1174.63,-368.029 1048.5,-300 987.005,-266.832 920.09,-218.176 887.919,-193.91"/>
<polygon fill="midnightblue" stroke="midnightblue" points="889.881,-191.005 879.8,-187.745 885.648,-196.58 889.881,-191.005"/>
</g>
<!-- Node32&#45;&gt;Node10 -->
<g id="edge69" class="edge"><title>Node32&#45;&gt;Node10</title>
<path fill="none" stroke="midnightblue" d="M967.454,-504.19C990.905,-480.933 1055.62,-415.576 1103.5,-356 1122.5,-332.359 1127.9,-326.586 1142.5,-300 1199.07,-196.971 1168.7,-145.828 1244.5,-56 1255.85,-42.5509 1272.26,-31.7874 1286.45,-24.1635"/>
<polygon fill="midnightblue" stroke="midnightblue" points="1288.05,-27.2724 1295.37,-19.6102 1284.87,-21.0369 1288.05,-27.2724"/>
</g>
<!-- Node32&#45;&gt;Node17 -->
<g id="edge68" class="edge"><title>Node32&#45;&gt;Node17</title>
<path fill="none" stroke="midnightblue" d="M947.093,-504.324C936.391,-496.185 920.159,-483.839 907.337,-474.087"/>
<polygon fill="midnightblue" stroke="midnightblue" points="909.193,-471.102 899.115,-467.834 904.956,-476.673 909.193,-471.102"/>
</g>
<!-- Node32&#45;&gt;Node24 -->
<g id="edge70" class="edge"><title>Node32&#45;&gt;Node24</title>
<path fill="none" stroke="midnightblue" d="M961.467,-504.279C967.472,-485.824 980.5,-441.367 980.5,-403 980.5,-403 980.5,-403 980.5,-345 980.5,-308.863 1004.27,-272.252 1020.27,-251.706"/>
<polygon fill="midnightblue" stroke="midnightblue" points="1023.19,-253.668 1026.76,-243.694 1017.75,-249.262 1023.19,-253.668"/>
</g>
<!-- Node33&#45;&gt;Node25 -->
<g id="edge73" class="edge"><title>Node33&#45;&gt;Node25</title>
<path fill="none" stroke="midnightblue" d="M674.046,-504.474C708.901,-490.618 773.83,-459.849 808.5,-412 857.562,-344.289 866.583,-240.004 868.184,-197.745"/>
<polygon fill="midnightblue" stroke="midnightblue" points="871.688,-197.645 868.466,-187.552 864.691,-197.452 871.688,-197.645"/>
</g>
<!-- Node34 -->
<g id="node34" class="node"><title>Node34</title>
<g id="a_node34"><a xlink:href="crosstabgroup_8hpp.html" target="_top" xlink:title="crosstabgroup.hpp">
<polygon fill="none" stroke="black" points="577,-448.5 577,-467.5 684,-467.5 684,-448.5 577,-448.5"/>
<text text-anchor="middle" x="630.5" y="-455.5" font-family="Helvetica,sans-Serif" font-size="10.00">crosstabgroup.hpp</text>
</a>
</g>
</g>
<!-- Node33&#45;&gt;Node34 -->
<g id="edge74" class="edge"><title>Node33&#45;&gt;Node34</title>
<path fill="none" stroke="midnightblue" d="M647.197,-504.083C644.518,-496.849 640.651,-486.409 637.314,-477.397"/>
<polygon fill="midnightblue" stroke="midnightblue" points="640.496,-475.913 633.741,-467.751 633.932,-478.344 640.496,-475.913"/>
</g>
<!-- Node37 -->
<g id="node37" class="node"><title>Node37</title>
<g id="a_node37"><a xlink:href="crosstabcell_8hpp.html" target="_top" xlink:title="crosstabcell.hpp">
<polygon fill="none" stroke="black" points="705,-392.5 705,-411.5 800,-411.5 800,-392.5 705,-392.5"/>
<text text-anchor="middle" x="752.5" y="-399.5" font-family="Helvetica,sans-Serif" font-size="10.00">crosstabcell.hpp</text>
</a>
</g>
</g>
<!-- Node33&#45;&gt;Node37 -->
<g id="edge81" class="edge"><title>Node33&#45;&gt;Node37</title>
<path fill="none" stroke="midnightblue" d="M658.566,-504.386C667.032,-495.339 680.722,-480.689 692.5,-468 707.901,-451.408 725.459,-432.373 737.584,-419.209"/>
<polygon fill="midnightblue" stroke="midnightblue" points="740.165,-421.573 744.363,-411.846 735.015,-416.832 740.165,-421.573"/>
</g>
<!-- Node34&#45;&gt;Node14 -->
<g id="edge75" class="edge"><title>Node34&#45;&gt;Node14</title>
<path fill="none" stroke="midnightblue" d="M611.602,-448.373C596.982,-440.773 577.302,-428.364 565.5,-412 547.894,-387.589 546.5,-377.098 546.5,-347 546.5,-347 546.5,-347 546.5,-177 546.5,-142.813 529.9,-105.764 518.643,-84.5707"/>
<polygon fill="midnightblue" stroke="midnightblue" points="521.681,-82.832 513.784,-75.769 515.553,-86.2151 521.681,-82.832"/>
</g>
<!-- Node35 -->
<g id="node35" class="node"><title>Node35</title>
<g id="a_node35"><a xlink:href="crosstabheader_8hpp.html" target="_top" xlink:title="crosstabheader.hpp">
<polygon fill="none" stroke="black" points="574.5,-392.5 574.5,-411.5 686.5,-411.5 686.5,-392.5 574.5,-392.5"/>
<text text-anchor="middle" x="630.5" y="-399.5" font-family="Helvetica,sans-Serif" font-size="10.00">crosstabheader.hpp</text>
</a>
</g>
</g>
<!-- Node34&#45;&gt;Node35 -->
<g id="edge76" class="edge"><title>Node34&#45;&gt;Node35</title>
<path fill="none" stroke="midnightblue" d="M630.5,-448.083C630.5,-441.006 630.5,-430.861 630.5,-421.986"/>
<polygon fill="midnightblue" stroke="midnightblue" points="634,-421.751 630.5,-411.751 627,-421.751 634,-421.751"/>
</g>
<!-- Node35&#45;&gt;Node14 -->
<g id="edge77" class="edge"><title>Node35&#45;&gt;Node14</title>
<path fill="none" stroke="midnightblue" d="M624.104,-392.391C611.464,-374.498 584.5,-331.572 584.5,-291 584.5,-291 584.5,-291 584.5,-177 584.5,-146.205 578.03,-137.319 560.5,-112 552.324,-100.19 540.347,-89.5418 529.948,-81.5714"/>
<polygon fill="midnightblue" stroke="midnightblue" points="531.84,-78.6188 521.703,-75.5395 527.707,-84.2685 531.84,-78.6188"/>
</g>
<!-- Node36 -->
<g id="node36" class="node"><title>Node36</title>
<g id="a_node36"><a xlink:href="cellcontents_8hpp.html" target="_top" xlink:title="cellcontents.hpp">
<polygon fill="none" stroke="black" points="705,-336.5 705,-355.5 800,-355.5 800,-336.5 705,-336.5"/>
<text text-anchor="middle" x="752.5" y="-343.5" font-family="Helvetica,sans-Serif" font-size="10.00">cellcontents.hpp</text>
</a>
</g>
</g>
<!-- Node35&#45;&gt;Node36 -->
<g id="edge78" class="edge"><title>Node35&#45;&gt;Node36</title>
<path fill="none" stroke="midnightblue" d="M649.831,-392.444C669.82,-383.596 701.243,-369.687 724.064,-359.586"/>
<polygon fill="midnightblue" stroke="midnightblue" points="725.532,-362.764 733.259,-355.516 722.698,-356.363 725.532,-362.764"/>
</g>
<!-- Node36&#45;&gt;Node25 -->
<g id="edge79" class="edge"><title>Node36&#45;&gt;Node25</title>
<path fill="none" stroke="midnightblue" d="M758.117,-336.388C771.191,-316.414 804.809,-265.474 834.5,-224 841.353,-214.427 849.269,-203.92 855.737,-195.468"/>
<polygon fill="midnightblue" stroke="midnightblue" points="858.522,-197.588 861.849,-187.529 852.975,-193.318 858.522,-197.588"/>
</g>
<!-- Node36&#45;&gt;Node28 -->
<g id="edge80" class="edge"><title>Node36&#45;&gt;Node28</title>
<path fill="none" stroke="midnightblue" d="M800.193,-337.492C865.454,-327.217 981.93,-308.88 1047.4,-298.572"/>
<polygon fill="midnightblue" stroke="midnightblue" points="1048.12,-302.002 1057.46,-296.989 1047.03,-295.087 1048.12,-302.002"/>
</g>
<!-- Node37&#45;&gt;Node14 -->
<g id="edge82" class="edge"><title>Node37&#45;&gt;Node14</title>
<path fill="none" stroke="midnightblue" d="M726.816,-392.466C688.93,-378.066 622.5,-345.104 622.5,-291 622.5,-291 622.5,-291 622.5,-177 622.5,-130.115 571.948,-96.8944 538.171,-79.9302"/>
<polygon fill="midnightblue" stroke="midnightblue" points="539.672,-76.7687 529.145,-75.5787 536.632,-83.0742 539.672,-76.7687"/>
</g>
<!-- Node37&#45;&gt;Node36 -->
<g id="edge83" class="edge"><title>Node37&#45;&gt;Node36</title>
<path fill="none" stroke="midnightblue" d="M752.5,-392.083C752.5,-385.006 752.5,-374.861 752.5,-365.986"/>
<polygon fill="midnightblue" stroke="midnightblue" points="756,-365.751 752.5,-355.751 749,-365.751 756,-365.751"/>
</g>
<!-- Node38&#45;&gt;Node10 -->
<g id="edge85" class="edge"><title>Node38&#45;&gt;Node10</title>
<path fill="none" stroke="midnightblue" d="M1364.58,-673.523C1405.49,-662.502 1477.8,-642.499 1488.5,-636 1577.16,-582.164 1596.1,-556.317 1650.5,-468 1694.21,-397.03 1712.5,-374.353 1712.5,-291 1712.5,-291 1712.5,-291 1712.5,-121 1712.5,-81.0766 1686.07,-74.126 1650.5,-56 1602.99,-31.7913 1454.12,-19.2764 1371.74,-14.0523"/>
<polygon fill="midnightblue" stroke="midnightblue" points="1371.74,-10.546 1361.54,-13.4217 1371.31,-17.5326 1371.74,-10.546"/>
</g>
<!-- Node38&#45;&gt;Node21 -->
<g id="edge86" class="edge"><title>Node38&#45;&gt;Node21</title>
<path fill="none" stroke="midnightblue" d="M1325.25,-672.324C1314.7,-664.185 1298.7,-651.839 1286.06,-642.087"/>
<polygon fill="midnightblue" stroke="midnightblue" points="1288.01,-639.171 1277.95,-635.834 1283.73,-644.713 1288.01,-639.171"/>
</g>
<!-- Node39&#45;&gt;Node10 -->
<g id="edge88" class="edge"><title>Node39&#45;&gt;Node10</title>
<path fill="none" stroke="midnightblue" d="M1444.02,-672.423C1526.01,-646.598 1750.5,-561.426 1750.5,-403 1750.5,-403 1750.5,-403 1750.5,-121 1750.5,-79.1915 1720.28,-73.8996 1682.5,-56 1628.79,-30.5551 1460.77,-18.3763 1371.9,-13.5848"/>
<polygon fill="midnightblue" stroke="midnightblue" points="1371.9,-10.08 1361.73,-13.05 1371.54,-17.0703 1371.9,-10.08"/>
</g>
<!-- Node39&#45;&gt;Node21 -->
<g id="edge89" class="edge"><title>Node39&#45;&gt;Node21</title>
<path fill="none" stroke="midnightblue" d="M1391.05,-672.444C1366.37,-663.438 1327.31,-649.189 1299.52,-639.049"/>
<polygon fill="midnightblue" stroke="midnightblue" points="1300.44,-635.656 1289.84,-635.516 1298.04,-642.232 1300.44,-635.656"/>
</g>
<!-- Node40&#45;&gt;Node10 -->
<g id="edge91" class="edge"><title>Node40&#45;&gt;Node10</title>
<path fill="none" stroke="midnightblue" d="M1289.46,-672.488C1388.34,-648.838 1636.5,-572.588 1636.5,-403 1636.5,-403 1636.5,-403 1636.5,-121 1636.5,-73.0886 1594.28,-75.4578 1550.5,-56 1492.73,-30.3276 1420.61,-19.2755 1371.6,-14.5334"/>
<polygon fill="midnightblue" stroke="midnightblue" points="1371.79,-11.0358 1361.51,-13.6143 1371.15,-18.0069 1371.79,-11.0358"/>
</g>
<!-- Node40&#45;&gt;Node21 -->
<g id="edge92" class="edge"><title>Node40&#45;&gt;Node21</title>
<path fill="none" stroke="midnightblue" d="M1252.31,-672.083C1254.58,-664.849 1257.87,-654.409 1260.71,-645.397"/>
<polygon fill="midnightblue" stroke="midnightblue" points="1264.08,-646.341 1263.75,-635.751 1257.4,-644.239 1264.08,-646.341"/>
</g>
<!-- Node41&#45;&gt;Node14 -->
<g id="edge94" class="edge"><title>Node41&#45;&gt;Node14</title>
<path fill="none" stroke="midnightblue" d="M366.909,-672.358C364.624,-638.197 356.5,-509.264 356.5,-403 356.5,-403 356.5,-403 356.5,-289 356.5,-247.323 390.955,-143.277 418.5,-112 431.749,-96.9563 451.203,-86.3576 468.638,-79.2416"/>
<polygon fill="midnightblue" stroke="midnightblue" points="469.971,-82.4789 478.064,-75.6405 467.473,-75.9398 469.971,-82.4789"/>
</g>
</g>
</svg>
