<?xml version="1.0" encoding="UTF-8" standalone="no"?>
<!DOCTYPE svg PUBLIC "-//W3C//DTD SVG 1.1//EN"
 "http://www.w3.org/Graphics/SVG/1.1/DTD/svg11.dtd">
<!-- Generated by graphviz version 2.38.0 (20140413.2041)
 -->
<!-- Title: /home/travis/build/PO&#45;31/QtReports/qtreports/src/tags/style.hpp Pages: 1 -->
<svg width="260pt" height="162pt"
 viewBox="0.00 0.00 259.50 162.00" xmlns="http://www.w3.org/2000/svg" xmlns:xlink="http://www.w3.org/1999/xlink">
<g id="graph0" class="graph" transform="scale(1 1) rotate(0) translate(4 158)">
<title>/home/travis/build/PO&#45;31/QtReports/qtreports/src/tags/style.hpp</title>
<!-- Node1 -->
<g id="node1" class="node"><title>Node1</title>
<polygon fill="#bfbfbf" stroke="black" points="32.5,-112.5 32.5,-153.5 178.5,-153.5 178.5,-112.5 32.5,-112.5"/>
<text text-anchor="start" x="40.5" y="-141.5" font-family="Helvetica,sans-Serif" font-size="10.00">/home/travis/build</text>
<text text-anchor="start" x="40.5" y="-130.5" font-family="Helvetica,sans-Serif" font-size="10.00">/PO&#45;31/QtReports/qtreports</text>
<text text-anchor="middle" x="105.5" y="-119.5" font-family="Helvetica,sans-Serif" font-size="10.00">/src/tags/style.hpp</text>
</g>
<!-- Node2 -->
<g id="node2" class="node"><title>Node2</title>
<polygon fill="none" stroke="#bfbfbf" points="0,-0.5 0,-19.5 53,-19.5 53,-0.5 0,-0.5"/>
<text text-anchor="middle" x="26.5" y="-7.5" font-family="Helvetica,sans-Serif" font-size="10.00">QString</text>
</g>
<!-- Node1&#45;&gt;Node2 -->
<g id="edge1" class="edge"><title>Node1&#45;&gt;Node2</title>
<path fill="none" stroke="midnightblue" d="M69.4805,-112.47C55.9425,-103.24 41.827,-90.9386 33.5,-76 25.6426,-61.9038 24.3541,-43.4143 24.7614,-29.7603"/>
<polygon fill="midnightblue" stroke="midnightblue" points="28.2638,-29.83 25.3954,-19.6308 21.2775,-29.3926 28.2638,-29.83"/>
</g>
<!-- Node3 -->
<g id="node3" class="node"><title>Node3</title>
<polygon fill="none" stroke="#bfbfbf" points="43,-56.5 43,-75.5 92,-75.5 92,-56.5 43,-56.5"/>
<text text-anchor="middle" x="67.5" y="-63.5" font-family="Helvetica,sans-Serif" font-size="10.00">QColor</text>
</g>
<!-- Node1&#45;&gt;Node3 -->
<g id="edge2" class="edge"><title>Node1&#45;&gt;Node3</title>
<path fill="none" stroke="midnightblue" d="M94.0987,-112.498C88.8889,-103.586 82.7663,-93.1135 77.7095,-84.4636"/>
<polygon fill="midnightblue" stroke="midnightblue" points="80.6269,-82.519 72.5584,-75.6525 74.5839,-86.0519 80.6269,-82.519"/>
</g>
<!-- Node4 -->
<g id="node4" class="node"><title>Node4</title>
<polygon fill="none" stroke="#bfbfbf" points="159.5,-0.5 159.5,-19.5 251.5,-19.5 251.5,-0.5 159.5,-0.5"/>
<text text-anchor="middle" x="205.5" y="-7.5" font-family="Helvetica,sans-Serif" font-size="10.00">QSharedPointer</text>
</g>
<!-- Node1&#45;&gt;Node4 -->
<g id="edge3" class="edge"><title>Node1&#45;&gt;Node4</title>
<path fill="none" stroke="midnightblue" d="M143.993,-112.333C158.801,-103.082 174.723,-90.8026 185.5,-76 195.381,-62.4279 200.455,-43.8803 203.015,-30.071"/>
<polygon fill="midnightblue" stroke="midnightblue" points="206.534,-30.2201 204.623,-19.799 199.618,-29.1371 206.534,-30.2201"/>
</g>
<!-- Node5 -->
<g id="node5" class="node"><title>Node5</title>
<g id="a_node5"><a xlink:href="object_8hpp.html" target="_top" xlink:title="object.hpp">
<polygon fill="none" stroke="black" points="110,-56.5 110,-75.5 177,-75.5 177,-56.5 110,-56.5"/>
<text text-anchor="middle" x="143.5" y="-63.5" font-family="Helvetica,sans-Serif" font-size="10.00">object.hpp</text>
</a>
</g>
</g>
<!-- Node1&#45;&gt;Node5 -->
<g id="edge4" class="edge"><title>Node1&#45;&gt;Node5</title>
<path fill="none" stroke="midnightblue" d="M116.901,-112.498C122.111,-103.586 128.234,-93.1135 133.291,-84.4636"/>
<polygon fill="midnightblue" stroke="midnightblue" points="136.416,-86.0519 138.442,-75.6525 130.373,-82.519 136.416,-86.0519"/>
</g>
<!-- Node5&#45;&gt;Node2 -->
<g id="edge5" class="edge"><title>Node5&#45;&gt;Node2</title>
<path fill="none" stroke="midnightblue" d="M124.961,-56.4435C105.877,-47.6356 75.9251,-33.8116 54.0643,-23.722"/>
<polygon fill="midnightblue" stroke="midnightblue" points="55.4986,-20.5292 44.9523,-19.5164 52.5651,-26.8849 55.4986,-20.5292"/>
</g>
<!-- Node5&#45;&gt;Node4 -->
<g id="edge7" class="edge"><title>Node5&#45;&gt;Node4</title>
<path fill="none" stroke="midnightblue" d="M153.461,-56.324C162.627,-48.3414 176.437,-36.3128 187.528,-26.6529"/>
<polygon fill="midnightblue" stroke="midnightblue" points="190.115,-29.041 195.357,-19.8339 185.518,-23.7624 190.115,-29.041"/>
</g>
<!-- Node6 -->
<g id="node6" class="node"><title>Node6</title>
<polygon fill="none" stroke="#bfbfbf" points="83.5,-0.5 83.5,-19.5 141.5,-19.5 141.5,-0.5 83.5,-0.5"/>
<text text-anchor="middle" x="112.5" y="-7.5" font-family="Helvetica,sans-Serif" font-size="10.00">QVariant</text>
</g>
<!-- Node5&#45;&gt;Node6 -->
<g id="edge6" class="edge"><title>Node5&#45;&gt;Node6</title>
<path fill="none" stroke="midnightblue" d="M138.381,-56.083C134.092,-48.6127 127.842,-37.7244 122.558,-28.5199"/>
<polygon fill="midnightblue" stroke="midnightblue" points="125.538,-26.6811 117.524,-19.7511 119.467,-30.1662 125.538,-26.6811"/>
</g>
</g>
</svg>
