<?xml version="1.0" encoding="UTF-8" standalone="no"?>
<!DOCTYPE svg PUBLIC "-//W3C//DTD SVG 1.1//EN"
 "http://www.w3.org/Graphics/SVG/1.1/DTD/svg11.dtd">
<!-- Generated by graphviz version 2.38.0 (20140413.2041)
 -->
<!-- Title: /home/travis/build/PO&#45;31/QtReports/qtreports/src/tags/style.cpp Pages: 1 -->
<svg width="260pt" height="218pt"
 viewBox="0.00 0.00 259.50 218.00" xmlns="http://www.w3.org/2000/svg" xmlns:xlink="http://www.w3.org/1999/xlink">
<g id="graph0" class="graph" transform="scale(1 1) rotate(0) translate(4 214)">
<title>/home/travis/build/PO&#45;31/QtReports/qtreports/src/tags/style.cpp</title>
<!-- Node1 -->
<g id="node1" class="node"><title>Node1</title>
<polygon fill="#bfbfbf" stroke="black" points="32.5,-168.5 32.5,-209.5 178.5,-209.5 178.5,-168.5 32.5,-168.5"/>
<text text-anchor="start" x="40.5" y="-197.5" font-family="Helvetica,sans-Serif" font-size="10.00">/home/travis/build</text>
<text text-anchor="start" x="40.5" y="-186.5" font-family="Helvetica,sans-Serif" font-size="10.00">/PO&#45;31/QtReports/qtreports</text>
<text text-anchor="middle" x="105.5" y="-175.5" font-family="Helvetica,sans-Serif" font-size="10.00">/src/tags/style.cpp</text>
</g>
<!-- Node2 -->
<g id="node2" class="node"><title>Node2</title>
<g id="a_node2"><a xlink:href="style_8hpp.html" target="_top" xlink:title="style.hpp">
<polygon fill="none" stroke="black" points="75.5,-112.5 75.5,-131.5 135.5,-131.5 135.5,-112.5 75.5,-112.5"/>
<text text-anchor="middle" x="105.5" y="-119.5" font-family="Helvetica,sans-Serif" font-size="10.00">style.hpp</text>
</a>
</g>
</g>
<!-- Node1&#45;&gt;Node2 -->
<g id="edge1" class="edge"><title>Node1&#45;&gt;Node2</title>
<path fill="none" stroke="midnightblue" d="M105.5,-168.498C105.5,-160.065 105.5,-150.235 105.5,-141.874"/>
<polygon fill="midnightblue" stroke="midnightblue" points="109,-141.652 105.5,-131.652 102,-141.653 109,-141.652"/>
</g>
<!-- Node3 -->
<g id="node3" class="node"><title>Node3</title>
<polygon fill="none" stroke="#bfbfbf" points="0,-0.5 0,-19.5 53,-19.5 53,-0.5 0,-0.5"/>
<text text-anchor="middle" x="26.5" y="-7.5" font-family="Helvetica,sans-Serif" font-size="10.00">QString</text>
</g>
<!-- Node2&#45;&gt;Node3 -->
<g id="edge2" class="edge"><title>Node2&#45;&gt;Node3</title>
<path fill="none" stroke="midnightblue" d="M81.2971,-112.427C64.9634,-105.306 44.4574,-93.4875 33.5,-76 24.9312,-62.3245 23.7215,-43.7884 24.3396,-30.0098"/>
<polygon fill="midnightblue" stroke="midnightblue" points="27.8504,-30.0152 25.1672,-19.7658 20.8732,-29.4515 27.8504,-30.0152"/>
</g>
<!-- Node4 -->
<g id="node4" class="node"><title>Node4</title>
<polygon fill="none" stroke="#bfbfbf" points="43,-56.5 43,-75.5 92,-75.5 92,-56.5 43,-56.5"/>
<text text-anchor="middle" x="67.5" y="-63.5" font-family="Helvetica,sans-Serif" font-size="10.00">QColor</text>
</g>
<!-- Node2&#45;&gt;Node4 -->
<g id="edge3" class="edge"><title>Node2&#45;&gt;Node4</title>
<path fill="none" stroke="midnightblue" d="M99.2251,-112.083C93.8575,-104.455 85.9824,-93.2645 79.4213,-83.9408"/>
<polygon fill="midnightblue" stroke="midnightblue" points="82.2755,-81.9149 73.6582,-75.7511 76.5508,-85.9434 82.2755,-81.9149"/>
</g>
<!-- Node5 -->
<g id="node5" class="node"><title>Node5</title>
<polygon fill="none" stroke="#bfbfbf" points="159.5,-0.5 159.5,-19.5 251.5,-19.5 251.5,-0.5 159.5,-0.5"/>
<text text-anchor="middle" x="205.5" y="-7.5" font-family="Helvetica,sans-Serif" font-size="10.00">QSharedPointer</text>
</g>
<!-- Node2&#45;&gt;Node5 -->
<g id="edge4" class="edge"><title>Node2&#45;&gt;Node5</title>
<path fill="none" stroke="midnightblue" d="M131.267,-112.354C148.886,-105.199 171.499,-93.369 185.5,-76 196.258,-62.6542 201.247,-43.5392 203.549,-29.4915"/>
<polygon fill="midnightblue" stroke="midnightblue" points="207.027,-29.8939 204.879,-19.519 200.088,-28.9685 207.027,-29.8939"/>
</g>
<!-- Node6 -->
<g id="node6" class="node"><title>Node6</title>
<g id="a_node6"><a xlink:href="object_8hpp.html" target="_top" xlink:title="object.hpp">
<polygon fill="none" stroke="black" points="110,-56.5 110,-75.5 177,-75.5 177,-56.5 110,-56.5"/>
<text text-anchor="middle" x="143.5" y="-63.5" font-family="Helvetica,sans-Serif" font-size="10.00">object.hpp</text>
</a>
</g>
</g>
<!-- Node2&#45;&gt;Node6 -->
<g id="edge5" class="edge"><title>Node2&#45;&gt;Node6</title>
<path fill="none" stroke="midnightblue" d="M111.775,-112.083C117.142,-104.455 125.018,-93.2645 131.579,-83.9408"/>
<polygon fill="midnightblue" stroke="midnightblue" points="134.449,-85.9434 137.342,-75.7511 128.725,-81.9149 134.449,-85.9434"/>
</g>
<!-- Node6&#45;&gt;Node3 -->
<g id="edge6" class="edge"><title>Node6&#45;&gt;Node3</title>
<path fill="none" stroke="midnightblue" d="M124.961,-56.4435C105.877,-47.6356 75.9251,-33.8116 54.0643,-23.722"/>
<polygon fill="midnightblue" stroke="midnightblue" points="55.4986,-20.5292 44.9523,-19.5164 52.5651,-26.8849 55.4986,-20.5292"/>
</g>
<!-- Node6&#45;&gt;Node5 -->
<g id="edge8" class="edge"><title>Node6&#45;&gt;Node5</title>
<path fill="none" stroke="midnightblue" d="M153.461,-56.324C162.627,-48.3414 176.437,-36.3128 187.528,-26.6529"/>
<polygon fill="midnightblue" stroke="midnightblue" points="190.115,-29.041 195.357,-19.8339 185.518,-23.7624 190.115,-29.041"/>
</g>
<!-- Node7 -->
<g id="node7" class="node"><title>Node7</title>
<polygon fill="none" stroke="#bfbfbf" points="83.5,-0.5 83.5,-19.5 141.5,-19.5 141.5,-0.5 83.5,-0.5"/>
<text text-anchor="middle" x="112.5" y="-7.5" font-family="Helvetica,sans-Serif" font-size="10.00">QVariant</text>
</g>
<!-- Node6&#45;&gt;Node7 -->
<g id="edge7" class="edge"><title>Node6&#45;&gt;Node7</title>
<path fill="none" stroke="midnightblue" d="M138.381,-56.083C134.092,-48.6127 127.842,-37.7244 122.558,-28.5199"/>
<polygon fill="midnightblue" stroke="midnightblue" points="125.538,-26.6811 117.524,-19.7511 119.467,-30.1662 125.538,-26.6811"/>
</g>
</g>
</svg>
