<?xml version="1.0" encoding="UTF-8" standalone="no"?>
<!DOCTYPE svg PUBLIC "-//W3C//DTD SVG 1.1//EN"
 "http://www.w3.org/Graphics/SVG/1.1/DTD/svg11.dtd">
<!-- Generated by graphviz version 2.38.0 (20140413.2041)
 -->
<!-- Title: /home/travis/build/PO&#45;31/QtReports/qtreports/src/tags/band.hpp Pages: 1 -->
<!--zoomable 610 -->
<svg id="main" version="1.1" xmlns="http://www.w3.org/2000/svg" xmlns:xlink="http://www.w3.org/1999/xlink" xml:space="preserve" onload="init(evt)">
<style type="text/css"><![CDATA[
.edge:hover path { stroke: red; }
.edge:hover polygon { stroke: red; fill: red; }
]]></style>
<script type="text/javascript"><![CDATA[
var edges = document.getElementsByTagName('g');
if (edges && edges.length) {
  for (var i=0;i<edges.length;i++) {
    if (edges[i].id.substr(0,4)=='edge') {
      edges[i].setAttribute('class','edge');
    }
  }
}
]]></script>
        <defs>
                <circle id="rim" cx="0" cy="0" r="7"/>
                <circle id="rim2" cx="0" cy="0" r="3.5"/>
                <g id="zoomPlus">
                        <use xlink:href="#rim" fill="#404040">
                                <set attributeName="fill" to="#808080" begin="zoomplus.mouseover" end="zoomplus.mouseout"/>
                        </use>
                        <path d="M-4,0h8M0,-4v8" fill="none" stroke="white" stroke-width="1.5" pointer-events="none"/>
                </g>
                <g id="zoomMin">
                        <use xlink:href="#rim" fill="#404040">
                                <set attributeName="fill" to="#808080" begin="zoomminus.mouseover" end="zoomminus.mouseout"/>
                        </use>
                        <path d="M-4,0h8" fill="none" stroke="white" stroke-width="1.5" pointer-events="none"/>
                </g>
                <g id="dirArrow">
                        <path fill="none" stroke="white" stroke-width="1.5" d="M0,-3.0v7 M-2.5,-0.5L0,-3.0L2.5,-0.5"/>
                </g>
               <g id="resetDef">
                       <use xlink:href="#rim2" fill="#404040">
                               <set attributeName="fill" to="#808080" begin="reset.mouseover" end="reset.mouseout"/>
                       </use>
               </g>
        </defs>

<script type="text/javascript">
var viewWidth = 926;
var viewHeight = 610;
var sectionId = 'dynsection-0';
</script>
<script xlink:href="svgpan.js"/>
<svg id="graph" class="graph">
<g id="viewport">
<title>/home/travis/build/PO&#45;31/QtReports/qtreports/src/tags/band.hpp</title>
<!-- Node1 -->
<g id="node1" class="node"><title>Node1</title>
<polygon fill="#bfbfbf" stroke="black" points="512,-560.5 512,-601.5 658,-601.5 658,-560.5 512,-560.5"/>
<text text-anchor="start" x="520" y="-589.5" font-family="Helvetica,sans-Serif" font-size="10.00">/home/travis/build</text>
<text text-anchor="start" x="520" y="-578.5" font-family="Helvetica,sans-Serif" font-size="10.00">/PO&#45;31/QtReports/qtreports</text>
<text text-anchor="middle" x="585" y="-567.5" font-family="Helvetica,sans-Serif" font-size="10.00">/src/tags/band.hpp</text>
</g>
<!-- Node2 -->
<g id="node2" class="node"><title>Node2</title>
<polygon fill="none" stroke="#bfbfbf" points="271.5,-504.5 271.5,-523.5 326.5,-523.5 326.5,-504.5 271.5,-504.5"/>
<text text-anchor="middle" x="299" y="-511.5" font-family="Helvetica,sans-Serif" font-size="10.00">QVector</text>
</g>
<!-- Node1&#45;&gt;Node2 -->
<g id="edge1" class="edge"><title>Node1&#45;&gt;Node2</title>
<path fill="none" stroke="midnightblue" d="M511.871,-564.116C464.405,-553.69 400.958,-539.539 336.442,-524.304"/>
<polygon fill="midnightblue" stroke="midnightblue" points="337.038,-520.848 326.5,-521.949 335.425,-527.659 337.038,-520.848"/>
</g>
<!-- Node3 -->
<g id="node3" class="node"><title>Node3</title>
<polygon fill="none" stroke="#bfbfbf" points="506,-0.5 506,-19.5 598,-19.5 598,-0.5 506,-0.5"/>
<text text-anchor="middle" x="552" y="-7.5" font-family="Helvetica,sans-Serif" font-size="10.00">QSharedPointer</text>
</g>
<!-- Node1&#45;&gt;Node3 -->
<g id="edge2" class="edge"><title>Node1&#45;&gt;Node3</title>
<path fill="none" stroke="midnightblue" d="M658.042,-573.209C727.678,-562.239 822,-533.61 822,-459 822,-459 822,-459 822,-289 822,-175.415 804.84,-128.012 717,-56 686.383,-30.8999 642.897,-19.7388 608.255,-14.8056"/>
<polygon fill="midnightblue" stroke="midnightblue" points="608.64,-11.3265 598.275,-13.5194 607.746,-18.2691 608.64,-11.3265"/>
</g>
<!-- Node4 -->
<g id="node4" class="node"><title>Node4</title>
<g id="a_node4"><a xlink:href="statictext_8hpp.html" target="_top" xlink:title="statictext.hpp">
<polygon fill="none" stroke="black" points="380.5,-280.5 380.5,-299.5 463.5,-299.5 463.5,-280.5 380.5,-280.5"/>
<text text-anchor="middle" x="422" y="-287.5" font-family="Helvetica,sans-Serif" font-size="10.00">statictext.hpp</text>
</a>
</g>
</g>
<!-- Node1&#45;&gt;Node4 -->
<g id="edge3" class="edge"><title>Node1&#45;&gt;Node4</title>
<path fill="none" stroke="midnightblue" d="M580.008,-560.447C574.379,-536.646 566,-495.149 566,-459 566,-459 566,-459 566,-401 566,-370.205 563.72,-357.831 542,-336 523.668,-317.575 497.081,-306.595 473.589,-300.103"/>
<polygon fill="midnightblue" stroke="midnightblue" points="474.299,-296.672 463.744,-297.586 472.565,-303.454 474.299,-296.672"/>
</g>
<!-- Node7 -->
<g id="node7" class="node"><title>Node7</title>
<g id="a_node7"><a xlink:href="widget_8hpp.html" target="_top" xlink:title="widget.hpp">
<polygon fill="none" stroke="black" points="568,-168.5 568,-187.5 636,-187.5 636,-168.5 568,-168.5"/>
<text text-anchor="middle" x="602" y="-175.5" font-family="Helvetica,sans-Serif" font-size="10.00">widget.hpp</text>
</a>
</g>
</g>
<!-- Node1&#45;&gt;Node7 -->
<g id="edge40" class="edge"><title>Node1&#45;&gt;Node7</title>
<path fill="none" stroke="midnightblue" d="M589.992,-560.447C595.621,-536.646 604,-495.149 604,-459 604,-459 604,-459 604,-289 604,-256.943 603.14,-219.639 602.548,-197.747"/>
<polygon fill="midnightblue" stroke="midnightblue" points="606.041,-197.454 602.261,-187.557 599.044,-197.651 606.041,-197.454"/>
</g>
<!-- Node15 -->
<g id="node15" class="node"><title>Node15</title>
<g id="a_node15"><a xlink:href="textfield_8hpp.html" target="_top" xlink:title="textfield.hpp">
<polygon fill="none" stroke="black" points="150,-280.5 150,-299.5 226,-299.5 226,-280.5 150,-280.5"/>
<text text-anchor="middle" x="188" y="-287.5" font-family="Helvetica,sans-Serif" font-size="10.00">textfield.hpp</text>
</a>
</g>
</g>
<!-- Node1&#45;&gt;Node15 -->
<g id="edge23" class="edge"><title>Node1&#45;&gt;Node15</title>
<path fill="none" stroke="midnightblue" d="M538.109,-560.385C499.818,-540.874 452,-506.917 452,-459 452,-459 452,-459 452,-401 452,-354.728 312.063,-317.526 235.953,-300.714"/>
<polygon fill="midnightblue" stroke="midnightblue" points="236.621,-297.278 226.106,-298.574 235.134,-304.118 236.621,-297.278"/>
</g>
<!-- Node16 -->
<g id="node16" class="node"><title>Node16</title>
<g id="a_node16"><a xlink:href="line_8hpp.html" target="_top" xlink:title="line.hpp">
<polygon fill="none" stroke="black" points="632,-224.5 632,-243.5 686,-243.5 686,-224.5 632,-224.5"/>
<text text-anchor="middle" x="659" y="-231.5" font-family="Helvetica,sans-Serif" font-size="10.00">line.hpp</text>
</a>
</g>
</g>
<!-- Node1&#45;&gt;Node16 -->
<g id="edge27" class="edge"><title>Node1&#45;&gt;Node16</title>
<path fill="none" stroke="midnightblue" d="M603.453,-560.327C622.669,-537.71 650,-498.585 650,-459 650,-459 650,-459 650,-345 650,-312.841 653.868,-275.569 656.533,-253.711"/>
<polygon fill="midnightblue" stroke="midnightblue" points="660.037,-253.899 657.823,-243.538 653.093,-253.018 660.037,-253.899"/>
</g>
<!-- Node17 -->
<g id="node17" class="node"><title>Node17</title>
<g id="a_node17"><a xlink:href="rect_8hpp.html" target="_top" xlink:title="rect.hpp">
<polygon fill="none" stroke="black" points="704,-224.5 704,-243.5 760,-243.5 760,-224.5 704,-224.5"/>
<text text-anchor="middle" x="732" y="-231.5" font-family="Helvetica,sans-Serif" font-size="10.00">rect.hpp</text>
</a>
</g>
</g>
<!-- Node1&#45;&gt;Node17 -->
<g id="edge30" class="edge"><title>Node1&#45;&gt;Node17</title>
<path fill="none" stroke="midnightblue" d="M627.668,-560.412C663.88,-540.52 710,-505.966 710,-459 710,-459 710,-459 710,-345 710,-312.328 719.447,-275.24 725.96,-253.553"/>
<polygon fill="midnightblue" stroke="midnightblue" points="729.391,-254.31 729.033,-243.721 722.709,-252.222 729.391,-254.31"/>
</g>
<!-- Node18 -->
<g id="node18" class="node"><title>Node18</title>
<g id="a_node18"><a xlink:href="ellipse_8hpp.html" target="_top" xlink:title="ellipse.hpp">
<polygon fill="none" stroke="black" points="850,-224.5 850,-243.5 918,-243.5 918,-224.5 850,-224.5"/>
<text text-anchor="middle" x="884" y="-231.5" font-family="Helvetica,sans-Serif" font-size="10.00">ellipse.hpp</text>
</a>
</g>
</g>
<!-- Node1&#45;&gt;Node18 -->
<g id="edge33" class="edge"><title>Node1&#45;&gt;Node18</title>
<path fill="none" stroke="midnightblue" d="M658.165,-579.465C743.196,-574.525 872,-551.736 872,-459 872,-459 872,-459 872,-345 872,-312.758 877.158,-275.512 880.711,-253.681"/>
<polygon fill="midnightblue" stroke="midnightblue" points="884.212,-253.967 882.431,-243.523 877.31,-252.798 884.212,-253.967"/>
</g>
<!-- Node19 -->
<g id="node19" class="node"><title>Node19</title>
<g id="a_node19"><a xlink:href="image_8hpp.html" target="_top" xlink:title="image.hpp">
<polygon fill="none" stroke="black" points="294,-280.5 294,-299.5 362,-299.5 362,-280.5 294,-280.5"/>
<text text-anchor="middle" x="328" y="-287.5" font-family="Helvetica,sans-Serif" font-size="10.00">image.hpp</text>
</a>
</g>
</g>
<!-- Node1&#45;&gt;Node19 -->
<g id="edge36" class="edge"><title>Node1&#45;&gt;Node19</title>
<path fill="none" stroke="midnightblue" d="M569.122,-560.356C552.256,-537.456 528,-497.779 528,-459 528,-459 528,-459 528,-401 528,-361.077 499.78,-357.278 466,-336 449.844,-325.823 404.458,-311.926 370.11,-302.28"/>
<polygon fill="midnightblue" stroke="midnightblue" points="370.871,-298.859 360.299,-299.555 368.998,-305.603 370.871,-298.859"/>
</g>
<!-- Node21 -->
<g id="node21" class="node"><title>Node21</title>
<g id="a_node21"><a xlink:href="crosstab_8hpp.html" target="_top" xlink:title="crosstab.hpp">
<polygon fill="none" stroke="black" points="344.5,-504.5 344.5,-523.5 423.5,-523.5 423.5,-504.5 344.5,-504.5"/>
<text text-anchor="middle" x="384" y="-511.5" font-family="Helvetica,sans-Serif" font-size="10.00">crosstab.hpp</text>
</a>
</g>
</g>
<!-- Node1&#45;&gt;Node21 -->
<g id="edge41" class="edge"><title>Node1&#45;&gt;Node21</title>
<path fill="none" stroke="midnightblue" d="M524.693,-560.498C490.662,-549.493 449.268,-536.106 420.22,-526.713"/>
<polygon fill="midnightblue" stroke="midnightblue" points="421.084,-523.314 410.492,-523.567 418.93,-529.974 421.084,-523.314"/>
</g>
<!-- Node4&#45;&gt;Node3 -->
<g id="edge4" class="edge"><title>Node4&#45;&gt;Node3</title>
<path fill="none" stroke="midnightblue" d="M422.218,-280.092C423.092,-244.461 426.336,-114.016 427,-112 436.491,-83.1935 443.243,-76.0509 466,-56 481.537,-42.3107 501.973,-31.395 519.025,-23.7443"/>
<polygon fill="midnightblue" stroke="midnightblue" points="520.809,-26.7873 528.612,-19.6207 518.043,-20.3569 520.809,-26.7873"/>
</g>
<!-- Node5 -->
<g id="node5" class="node"><title>Node5</title>
<g id="a_node5"><a xlink:href="textwidget_8hpp.html" target="_top" xlink:title="textwidget.hpp">
<polygon fill="none" stroke="black" points="216.5,-224.5 216.5,-243.5 303.5,-243.5 303.5,-224.5 216.5,-224.5"/>
<text text-anchor="middle" x="260" y="-231.5" font-family="Helvetica,sans-Serif" font-size="10.00">textwidget.hpp</text>
</a>
</g>
</g>
<!-- Node4&#45;&gt;Node5 -->
<g id="edge5" class="edge"><title>Node4&#45;&gt;Node5</title>
<path fill="none" stroke="midnightblue" d="M396.331,-280.444C369.077,-271.359 325.816,-256.939 295.349,-246.783"/>
<polygon fill="midnightblue" stroke="midnightblue" points="296.143,-243.358 285.549,-243.516 293.929,-249.999 296.143,-243.358"/>
</g>
<!-- Node5&#45;&gt;Node3 -->
<g id="edge7" class="edge"><title>Node5&#45;&gt;Node3</title>
<path fill="none" stroke="midnightblue" d="M262.327,-224.181C271.412,-190.025 304.653,-67.7549 318,-56 343.863,-33.2222 435.177,-21.0323 495.794,-15.2967"/>
<polygon fill="midnightblue" stroke="midnightblue" points="496.347,-18.7608 505.987,-14.3652 495.71,-11.7898 496.347,-18.7608"/>
</g>
<!-- Node6 -->
<g id="node6" class="node"><title>Node6</title>
<polygon fill="none" stroke="#bfbfbf" points="191.5,-0.5 191.5,-19.5 244.5,-19.5 244.5,-0.5 191.5,-0.5"/>
<text text-anchor="middle" x="218" y="-7.5" font-family="Helvetica,sans-Serif" font-size="10.00">QString</text>
</g>
<!-- Node5&#45;&gt;Node6 -->
<g id="edge6" class="edge"><title>Node5&#45;&gt;Node6</title>
<path fill="none" stroke="midnightblue" d="M258.354,-224.297C252.174,-191.633 230.272,-75.8661 221.587,-29.9573"/>
<polygon fill="midnightblue" stroke="midnightblue" points="224.979,-29.0588 219.681,-19.8837 218.101,-30.3601 224.979,-29.0588"/>
</g>
<!-- Node5&#45;&gt;Node7 -->
<g id="edge8" class="edge"><title>Node5&#45;&gt;Node7</title>
<path fill="none" stroke="midnightblue" d="M303.662,-226.106C369.129,-215.769 492.042,-196.362 557.814,-185.977"/>
<polygon fill="midnightblue" stroke="midnightblue" points="558.53,-189.407 567.862,-184.39 557.438,-182.493 558.53,-189.407"/>
</g>
<!-- Node7&#45;&gt;Node3 -->
<g id="edge13" class="edge"><title>Node7&#45;&gt;Node3</title>
<path fill="none" stroke="midnightblue" d="M636.047,-168.696C668.282,-158.953 709.723,-140.423 695,-112 671.999,-67.5953 619.496,-38.549 584.913,-23.4614"/>
<polygon fill="midnightblue" stroke="midnightblue" points="586.248,-20.2261 575.673,-19.5749 583.534,-26.6785 586.248,-20.2261"/>
</g>
<!-- Node7&#45;&gt;Node6 -->
<g id="edge9" class="edge"><title>Node7&#45;&gt;Node6</title>
<path fill="none" stroke="midnightblue" d="M567.901,-171.099C531.978,-164.228 474.183,-151.298 427,-132 353.662,-102.004 274.704,-50.3543 238.391,-25.3679"/>
<polygon fill="midnightblue" stroke="midnightblue" points="240.319,-22.445 230.107,-19.6193 236.328,-28.196 240.319,-22.445"/>
</g>
<!-- Node8 -->
<g id="node8" class="node"><title>Node8</title>
<polygon fill="none" stroke="#bfbfbf" points="514,-112.5 514,-131.5 562,-131.5 562,-112.5 514,-112.5"/>
<text text-anchor="middle" x="538" y="-119.5" font-family="Helvetica,sans-Serif" font-size="10.00">QPoint</text>
</g>
<!-- Node7&#45;&gt;Node8 -->
<g id="edge10" class="edge"><title>Node7&#45;&gt;Node8</title>
<path fill="none" stroke="midnightblue" d="M591.717,-168.324C582.164,-160.263 567.72,-148.077 556.216,-138.369"/>
<polygon fill="midnightblue" stroke="midnightblue" points="558.37,-135.608 548.47,-131.834 553.856,-140.958 558.37,-135.608"/>
</g>
<!-- Node9 -->
<g id="node9" class="node"><title>Node9</title>
<polygon fill="none" stroke="#bfbfbf" points="580,-112.5 580,-131.5 624,-131.5 624,-112.5 580,-112.5"/>
<text text-anchor="middle" x="602" y="-119.5" font-family="Helvetica,sans-Serif" font-size="10.00">QSize</text>
</g>
<!-- Node7&#45;&gt;Node9 -->
<g id="edge11" class="edge"><title>Node7&#45;&gt;Node9</title>
<path fill="none" stroke="midnightblue" d="M602,-168.083C602,-161.006 602,-150.861 602,-141.986"/>
<polygon fill="midnightblue" stroke="midnightblue" points="605.5,-141.751 602,-131.751 598.5,-141.751 605.5,-141.751"/>
</g>
<!-- Node10 -->
<g id="node10" class="node"><title>Node10</title>
<polygon fill="none" stroke="#bfbfbf" points="642,-112.5 642,-131.5 686,-131.5 686,-112.5 642,-112.5"/>
<text text-anchor="middle" x="664" y="-119.5" font-family="Helvetica,sans-Serif" font-size="10.00">QRect</text>
</g>
<!-- Node7&#45;&gt;Node10 -->
<g id="edge12" class="edge"><title>Node7&#45;&gt;Node10</title>
<path fill="none" stroke="midnightblue" d="M611.961,-168.324C621.127,-160.341 634.937,-148.313 646.028,-138.653"/>
<polygon fill="midnightblue" stroke="midnightblue" points="648.615,-141.041 653.857,-131.834 644.018,-135.762 648.615,-141.041"/>
</g>
<!-- Node11 -->
<g id="node11" class="node"><title>Node11</title>
<g id="a_node11"><a xlink:href="style_8hpp.html" target="_top" xlink:title="style.hpp">
<polygon fill="none" stroke="black" points="436,-112.5 436,-131.5 496,-131.5 496,-112.5 436,-112.5"/>
<text text-anchor="middle" x="466" y="-119.5" font-family="Helvetica,sans-Serif" font-size="10.00">style.hpp</text>
</a>
</g>
</g>
<!-- Node7&#45;&gt;Node11 -->
<g id="edge14" class="edge"><title>Node7&#45;&gt;Node11</title>
<path fill="none" stroke="midnightblue" d="M580.45,-168.444C557.969,-159.517 522.512,-145.439 497.02,-135.317"/>
<polygon fill="midnightblue" stroke="midnightblue" points="498.035,-131.954 487.449,-131.516 495.451,-138.46 498.035,-131.954"/>
</g>
<!-- Node13 -->
<g id="node13" class="node"><title>Node13</title>
<g id="a_node13"><a xlink:href="object_8hpp.html" target="_top" xlink:title="object.hpp">
<polygon fill="none" stroke="black" points="50.5,-56.5 50.5,-75.5 117.5,-75.5 117.5,-56.5 50.5,-56.5"/>
<text text-anchor="middle" x="84" y="-63.5" font-family="Helvetica,sans-Serif" font-size="10.00">object.hpp</text>
</a>
</g>
</g>
<!-- Node7&#45;&gt;Node13 -->
<g id="edge22" class="edge"><title>Node7&#45;&gt;Node13</title>
<path fill="none" stroke="midnightblue" d="M567.661,-171.317C520.008,-163.295 431.196,-147.851 356,-132 274.771,-114.878 180.712,-91.6319 127.197,-78.0802"/>
<polygon fill="midnightblue" stroke="midnightblue" points="127.923,-74.6536 117.369,-75.585 126.2,-81.4383 127.923,-74.6536"/>
</g>
<!-- Node11&#45;&gt;Node3 -->
<g id="edge17" class="edge"><title>Node11&#45;&gt;Node3</title>
<path fill="none" stroke="midnightblue" d="M485.787,-112.358C500.824,-104.823 520.917,-92.5077 533,-76 542.874,-62.5107 547.641,-43.9539 549.928,-30.1202"/>
<polygon fill="midnightblue" stroke="midnightblue" points="553.448,-30.2051 551.323,-19.8256 546.512,-29.2648 553.448,-30.2051"/>
</g>
<!-- Node11&#45;&gt;Node6 -->
<g id="edge15" class="edge"><title>Node11&#45;&gt;Node6</title>
<path fill="none" stroke="midnightblue" d="M457.726,-112.493C443.783,-98.6404 414.164,-71.2271 384,-56 342.33,-34.9642 289.65,-22.8391 254.946,-16.5863"/>
<polygon fill="midnightblue" stroke="midnightblue" points="255.235,-13.0844 244.785,-14.8309 254.043,-19.9822 255.235,-13.0844"/>
</g>
<!-- Node12 -->
<g id="node12" class="node"><title>Node12</title>
<polygon fill="none" stroke="#bfbfbf" points="474.5,-56.5 474.5,-75.5 523.5,-75.5 523.5,-56.5 474.5,-56.5"/>
<text text-anchor="middle" x="499" y="-63.5" font-family="Helvetica,sans-Serif" font-size="10.00">QColor</text>
</g>
<!-- Node11&#45;&gt;Node12 -->
<g id="edge16" class="edge"><title>Node11&#45;&gt;Node12</title>
<path fill="none" stroke="midnightblue" d="M471.449,-112.083C476.014,-104.613 482.668,-93.7244 488.293,-84.5199"/>
<polygon fill="midnightblue" stroke="midnightblue" points="491.424,-86.109 493.652,-75.7511 485.451,-82.4588 491.424,-86.109"/>
</g>
<!-- Node11&#45;&gt;Node13 -->
<g id="edge18" class="edge"><title>Node11&#45;&gt;Node13</title>
<path fill="none" stroke="midnightblue" d="M435.706,-116.718C368.321,-107.192 205.818,-84.2203 127.559,-73.1575"/>
<polygon fill="midnightblue" stroke="midnightblue" points="127.935,-69.676 117.544,-71.7418 126.955,-76.6071 127.935,-69.676"/>
</g>
<!-- Node13&#45;&gt;Node3 -->
<g id="edge21" class="edge"><title>Node13&#45;&gt;Node3</title>
<path fill="none" stroke="midnightblue" d="M117.657,-61.1165C197.21,-51.9374 397.521,-28.8245 495.822,-17.482"/>
<polygon fill="midnightblue" stroke="midnightblue" points="496.333,-20.9465 505.866,-16.3232 495.53,-13.9926 496.333,-20.9465"/>
</g>
<!-- Node13&#45;&gt;Node6 -->
<g id="edge19" class="edge"><title>Node13&#45;&gt;Node6</title>
<path fill="none" stroke="midnightblue" d="M105.233,-56.4435C127.384,-47.5171 162.319,-33.4387 187.436,-23.3168"/>
<polygon fill="midnightblue" stroke="midnightblue" points="188.9,-26.5006 196.867,-19.5164 186.283,-20.0079 188.9,-26.5006"/>
</g>
<!-- Node14 -->
<g id="node14" class="node"><title>Node14</title>
<polygon fill="none" stroke="#bfbfbf" points="55,-0.5 55,-19.5 113,-19.5 113,-0.5 55,-0.5"/>
<text text-anchor="middle" x="84" y="-7.5" font-family="Helvetica,sans-Serif" font-size="10.00">QVariant</text>
</g>
<!-- Node13&#45;&gt;Node14 -->
<g id="edge20" class="edge"><title>Node13&#45;&gt;Node14</title>
<path fill="none" stroke="midnightblue" d="M84,-56.083C84,-49.0059 84,-38.8611 84,-29.9865"/>
<polygon fill="midnightblue" stroke="midnightblue" points="87.5001,-29.751 84,-19.7511 80.5001,-29.7511 87.5001,-29.751"/>
</g>
<!-- Node15&#45;&gt;Node3 -->
<g id="edge25" class="edge"><title>Node15&#45;&gt;Node3</title>
<path fill="none" stroke="midnightblue" d="M189.333,-280.349C195.221,-245.362 222.338,-113.482 304,-56 334.167,-34.7653 432.181,-21.9813 495.581,-15.7278"/>
<polygon fill="midnightblue" stroke="midnightblue" points="496.21,-19.1836 505.83,-14.7438 495.541,-12.2156 496.21,-19.1836"/>
</g>
<!-- Node15&#45;&gt;Node5 -->
<g id="edge26" class="edge"><title>Node15&#45;&gt;Node5</title>
<path fill="none" stroke="midnightblue" d="M199.568,-280.324C210.42,-272.185 226.881,-259.839 239.883,-250.087"/>
<polygon fill="midnightblue" stroke="midnightblue" points="242.321,-252.634 248.221,-243.834 238.121,-247.034 242.321,-252.634"/>
</g>
<!-- Node15&#45;&gt;Node6 -->
<g id="edge24" class="edge"><title>Node15&#45;&gt;Node6</title>
<path fill="none" stroke="midnightblue" d="M184.4,-280.222C180.944,-271.285 175.967,-256.942 174,-244 172.665,-235.212 173.096,-232.843 174,-224 181.446,-151.149 202.862,-66.4344 212.809,-29.6411"/>
<polygon fill="midnightblue" stroke="midnightblue" points="216.231,-30.3967 215.499,-19.8272 209.48,-28.546 216.231,-30.3967"/>
</g>
<!-- Node16&#45;&gt;Node3 -->
<g id="edge28" class="edge"><title>Node16&#45;&gt;Node3</title>
<path fill="none" stroke="midnightblue" d="M667.251,-224.396C684.959,-204.848 723.914,-155.418 710,-112 700.666,-82.873 694.211,-74.6909 670,-56 649.591,-40.2439 623.032,-29.4676 600.28,-22.4209"/>
<polygon fill="midnightblue" stroke="midnightblue" points="601.044,-18.9972 590.462,-19.5335 599.069,-25.7128 601.044,-18.9972"/>
</g>
<!-- Node16&#45;&gt;Node7 -->
<g id="edge29" class="edge"><title>Node16&#45;&gt;Node7</title>
<path fill="none" stroke="midnightblue" d="M649.842,-224.324C641.499,-216.42 628.968,-204.548 618.823,-194.938"/>
<polygon fill="midnightblue" stroke="midnightblue" points="620.991,-192.171 611.325,-187.834 616.177,-197.252 620.991,-192.171"/>
</g>
<!-- Node17&#45;&gt;Node3 -->
<g id="edge31" class="edge"><title>Node17&#45;&gt;Node3</title>
<path fill="none" stroke="midnightblue" d="M733.456,-224.148C737.745,-194.639 746.973,-99.064 695,-56 670.44,-35.6497 636.623,-24.4708 608.041,-18.346"/>
<polygon fill="midnightblue" stroke="midnightblue" points="608.664,-14.9014 598.173,-16.3836 607.299,-21.7669 608.664,-14.9014"/>
</g>
<!-- Node17&#45;&gt;Node7 -->
<g id="edge32" class="edge"><title>Node17&#45;&gt;Node7</title>
<path fill="none" stroke="midnightblue" d="M711.401,-224.444C690.007,-215.557 656.319,-201.563 631.976,-191.451"/>
<polygon fill="midnightblue" stroke="midnightblue" points="633.08,-188.12 622.503,-187.516 630.395,-194.585 633.08,-188.12"/>
</g>
<!-- Node18&#45;&gt;Node3 -->
<g id="edge34" class="edge"><title>Node18&#45;&gt;Node3</title>
<path fill="none" stroke="midnightblue" d="M884.951,-224.38C887.599,-195.605 891.874,-102.08 842,-56 808.895,-25.4131 683.029,-15.6105 608.435,-12.4731"/>
<polygon fill="midnightblue" stroke="midnightblue" points="608.394,-8.96888 598.264,-12.0731 608.119,-15.9635 608.394,-8.96888"/>
</g>
<!-- Node18&#45;&gt;Node7 -->
<g id="edge35" class="edge"><title>Node18&#45;&gt;Node7</title>
<path fill="none" stroke="midnightblue" d="M849.984,-226.486C798.958,-216.715 702.586,-198.261 646.183,-187.461"/>
<polygon fill="midnightblue" stroke="midnightblue" points="646.616,-183.98 636.136,-185.537 645.3,-190.855 646.616,-183.98"/>
</g>
<!-- Node19&#45;&gt;Node3 -->
<g id="edge38" class="edge"><title>Node19&#45;&gt;Node3</title>
<path fill="none" stroke="midnightblue" d="M328.523,-280.446C329.607,-261.948 332,-216.837 332,-179 332,-179 332,-179 332,-121 332,-47.8358 430.544,-23.3333 495.726,-15.1288"/>
<polygon fill="midnightblue" stroke="midnightblue" points="496.352,-18.5796 505.881,-13.947 495.543,-11.6266 496.352,-18.5796"/>
</g>
<!-- Node19&#45;&gt;Node5 -->
<g id="edge39" class="edge"><title>Node19&#45;&gt;Node5</title>
<path fill="none" stroke="midnightblue" d="M317.075,-280.324C306.825,-272.185 291.279,-259.839 278.999,-250.087"/>
<polygon fill="midnightblue" stroke="midnightblue" points="281.132,-247.312 271.124,-243.834 276.779,-252.794 281.132,-247.312"/>
</g>
<!-- Node20 -->
<g id="node20" class="node"><title>Node20</title>
<polygon fill="none" stroke="#bfbfbf" points="360,-224.5 360,-243.5 414,-243.5 414,-224.5 360,-224.5"/>
<text text-anchor="middle" x="387" y="-231.5" font-family="Helvetica,sans-Serif" font-size="10.00">QImage</text>
</g>
<!-- Node19&#45;&gt;Node20 -->
<g id="edge37" class="edge"><title>Node19&#45;&gt;Node20</title>
<path fill="none" stroke="midnightblue" d="M337.479,-280.324C346.201,-272.341 359.343,-260.313 369.898,-250.653"/>
<polygon fill="midnightblue" stroke="midnightblue" points="372.334,-253.167 377.348,-243.834 367.608,-248.004 372.334,-253.167"/>
</g>
<!-- Node21&#45;&gt;Node7 -->
<g id="edge42" class="edge"><title>Node21&#45;&gt;Node7</title>
<path fill="none" stroke="midnightblue" d="M389.608,-504.408C418.581,-460.018 551.482,-256.399 590.931,-195.96"/>
<polygon fill="midnightblue" stroke="midnightblue" points="593.894,-197.822 596.429,-187.535 588.032,-193.996 593.894,-197.822"/>
</g>
<!-- Node22 -->
<g id="node22" class="node"><title>Node22</title>
<g id="a_node22"><a xlink:href="crosstabgroup_8hpp.html" target="_top" xlink:title="crosstabgroup.hpp">
<polygon fill="none" stroke="black" points="97.5,-448.5 97.5,-467.5 204.5,-467.5 204.5,-448.5 97.5,-448.5"/>
<text text-anchor="middle" x="151" y="-455.5" font-family="Helvetica,sans-Serif" font-size="10.00">crosstabgroup.hpp</text>
</a>
</g>
</g>
<!-- Node21&#45;&gt;Node22 -->
<g id="edge43" class="edge"><title>Node21&#45;&gt;Node22</title>
<path fill="none" stroke="midnightblue" d="M347.08,-504.444C306.605,-495.063 241.579,-479.993 197.616,-469.804"/>
<polygon fill="midnightblue" stroke="midnightblue" points="198.279,-466.365 187.747,-467.516 196.698,-473.184 198.279,-466.365"/>
</g>
<!-- Node23 -->
<g id="node23" class="node"><title>Node23</title>
<g id="a_node23"><a xlink:href="crosstabsection_8hpp.html" target="_top" xlink:title="crosstabsection.hpp">
<polygon fill="none" stroke="black" points="94.5,-392.5 94.5,-411.5 207.5,-411.5 207.5,-392.5 94.5,-392.5"/>
<text text-anchor="middle" x="151" y="-399.5" font-family="Helvetica,sans-Serif" font-size="10.00">crosstabsection.hpp</text>
</a>
</g>
</g>
<!-- Node21&#45;&gt;Node23 -->
<g id="edge51" class="edge"><title>Node21&#45;&gt;Node23</title>
<path fill="none" stroke="midnightblue" d="M365.717,-504.368C324.968,-485.131 226.509,-438.648 178.391,-415.931"/>
<polygon fill="midnightblue" stroke="midnightblue" points="179.735,-412.696 169.198,-411.591 176.747,-419.026 179.735,-412.696"/>
</g>
<!-- Node22&#45;&gt;Node13 -->
<g id="edge44" class="edge"><title>Node22&#45;&gt;Node13</title>
<path fill="none" stroke="midnightblue" d="M116.736,-448.44C72.1844,-435.016 0,-404.408 0,-347 0,-347 0,-347 0,-177 0,-135.731 37.8088,-100.325 62.6947,-81.4905"/>
<polygon fill="midnightblue" stroke="midnightblue" points="64.849,-84.2514 70.875,-75.5372 60.73,-78.5916 64.849,-84.2514"/>
</g>
<!-- Node22&#45;&gt;Node23 -->
<g id="edge45" class="edge"><title>Node22&#45;&gt;Node23</title>
<path fill="none" stroke="midnightblue" d="M151,-448.083C151,-441.006 151,-430.861 151,-421.986"/>
<polygon fill="midnightblue" stroke="midnightblue" points="154.5,-421.751 151,-411.751 147.5,-421.751 154.5,-421.751"/>
</g>
<!-- Node23&#45;&gt;Node13 -->
<g id="edge46" class="edge"><title>Node23&#45;&gt;Node13</title>
<path fill="none" stroke="midnightblue" d="M130.798,-392.492C98.2951,-377.293 38,-342.197 38,-291 38,-291 38,-291 38,-177 38,-141.817 58.2776,-104.863 71.9065,-83.9988"/>
<polygon fill="midnightblue" stroke="midnightblue" points="74.8814,-85.8481 77.6039,-75.609 69.0905,-81.9156 74.8814,-85.8481"/>
</g>
<!-- Node24 -->
<g id="node24" class="node"><title>Node24</title>
<g id="a_node24"><a xlink:href="cellcontents_8hpp.html" target="_top" xlink:title="cellcontents.hpp">
<polygon fill="none" stroke="black" points="103.5,-336.5 103.5,-355.5 198.5,-355.5 198.5,-336.5 103.5,-336.5"/>
<text text-anchor="middle" x="151" y="-343.5" font-family="Helvetica,sans-Serif" font-size="10.00">cellcontents.hpp</text>
</a>
</g>
</g>
<!-- Node23&#45;&gt;Node24 -->
<g id="edge47" class="edge"><title>Node23&#45;&gt;Node24</title>
<path fill="none" stroke="midnightblue" d="M151,-392.083C151,-385.006 151,-374.861 151,-365.986"/>
<polygon fill="midnightblue" stroke="midnightblue" points="154.5,-365.751 151,-355.751 147.5,-365.751 154.5,-365.751"/>
</g>
<!-- Node24&#45;&gt;Node15 -->
<g id="edge50" class="edge"><title>Node24&#45;&gt;Node15</title>
<path fill="none" stroke="midnightblue" d="M157.11,-336.083C162.282,-328.534 169.846,-317.495 176.194,-308.23"/>
<polygon fill="midnightblue" stroke="midnightblue" points="179.239,-309.979 182.004,-299.751 173.464,-306.022 179.239,-309.979"/>
</g>
<!-- Node25 -->
<g id="node25" class="node"><title>Node25</title>
<g id="a_node25"><a xlink:href="box_8hpp.html" target="_top" xlink:title="box.hpp">
<polygon fill="none" stroke="black" points="66.5,-168.5 66.5,-187.5 121.5,-187.5 121.5,-168.5 66.5,-168.5"/>
<text text-anchor="middle" x="94" y="-175.5" font-family="Helvetica,sans-Serif" font-size="10.00">box.hpp</text>
</a>
</g>
</g>
<!-- Node24&#45;&gt;Node25 -->
<g id="edge48" class="edge"><title>Node24&#45;&gt;Node25</title>
<path fill="none" stroke="midnightblue" d="M147.935,-336.075C138.924,-309.832 112.386,-232.545 100.221,-197.117"/>
<polygon fill="midnightblue" stroke="midnightblue" points="103.5,-195.889 96.9421,-187.568 96.8795,-198.163 103.5,-195.889"/>
</g>
<!-- Node25&#45;&gt;Node13 -->
<g id="edge49" class="edge"><title>Node25&#45;&gt;Node13</title>
<path fill="none" stroke="midnightblue" d="M93.2153,-168.368C91.6015,-150.617 87.8788,-109.666 85.6907,-85.5974"/>
<polygon fill="midnightblue" stroke="midnightblue" points="89.1721,-85.2334 84.781,-75.5914 82.2009,-85.8673 89.1721,-85.2334"/>
</g>
</g>
</svg>
        <g id="navigator" transform="translate(0 0)" fill="#404254">
                <rect fill="#f2f5e9" fill-opacity="0.5" stroke="#606060" stroke-width=".5" x="0" y="0" width="60" height="60"/>
                <use id="zoomplus" xlink:href="#zoomPlus" x="17" y="9" onmousedown="handleZoom(evt,'in')"/>
                <use id="zoomminus" xlink:href="#zoomMin" x="42" y="9" onmousedown="handleZoom(evt,'out')"/>
                <use id="reset" xlink:href="#resetDef" x="30" y="36" onmousedown="handleReset()"/>
                <g id="arrowUp" xlink:href="#dirArrow" transform="translate(30 24)" onmousedown="handlePan(0,-1)">
                  <use xlink:href="#rim" fill="#404040">
                        <set attributeName="fill" to="#808080" begin="arrowUp.mouseover" end="arrowUp.mouseout"/>
                  </use>
                  <path fill="none" stroke="white" stroke-width="1.5" d="M0,-3.0v7 M-2.5,-0.5L0,-3.0L2.5,-0.5"/>
                </g>
                <g id="arrowRight" xlink:href="#dirArrow" transform="rotate(90) translate(36 -43)" onmousedown="handlePan(1,0)">
                  <use xlink:href="#rim" fill="#404040">
                        <set attributeName="fill" to="#808080" begin="arrowRight.mouseover" end="arrowRight.mouseout"/>
                  </use>
                  <path fill="none" stroke="white" stroke-width="1.5" d="M0,-3.0v7 M-2.5,-0.5L0,-3.0L2.5,-0.5"/>
                </g>
                <g id="arrowDown" xlink:href="#dirArrow" transform="rotate(180) translate(-30 -48)" onmousedown="handlePan(0,1)">
                  <use xlink:href="#rim" fill="#404040">
                        <set attributeName="fill" to="#808080" begin="arrowDown.mouseover" end="arrowDown.mouseout"/>
                  </use>
                  <path fill="none" stroke="white" stroke-width="1.5" d="M0,-3.0v7 M-2.5,-0.5L0,-3.0L2.5,-0.5"/>
                </g>
                <g id="arrowLeft" xlink:href="#dirArrow" transform="rotate(270) translate(-36 17)" onmousedown="handlePan(-1,0)">
                  <use xlink:href="#rim" fill="#404040">
                        <set attributeName="fill" to="#808080" begin="arrowLeft.mouseover" end="arrowLeft.mouseout"/>
                  </use>
                  <path fill="none" stroke="white" stroke-width="1.5" d="M0,-3.0v7 M-2.5,-0.5L0,-3.0L2.5,-0.5"/>
                </g>
        </g>
        <svg viewBox="0 0 15 15" width="100%" height="30px" preserveAspectRatio="xMaxYMin meet">
         <g id="arrow_out" transform="scale(0.3 0.3)">
          <a xlink:href="band_8hpp__incl_org.svg" target="_base">
           <rect id="button" ry="5" rx="5" y="6" x="6" height="38" width="38"
                fill="#f2f5e9" fill-opacity="0.5" stroke="#606060" stroke-width="1.0"/>
           <path id="arrow"
             d="M 11.500037,31.436501 C 11.940474,20.09759 22.043105,11.32322 32.158766,21.979434 L 37.068811,17.246167 C 37.068811,17.246167 37.088388,32 37.088388,32 L 22.160133,31.978069 C 22.160133,31.978069 26.997745,27.140456 26.997745,27.140456 C 18.528582,18.264221 13.291696,25.230495 11.500037,31.436501 z"
             style="fill:#404040;"/>
          </a>
         </g>
        </svg>
</svg>
