<?xml version="1.0" encoding="UTF-8" standalone="no"?>
<!DOCTYPE svg PUBLIC "-//W3C//DTD SVG 1.1//EN"
 "http://www.w3.org/Graphics/SVG/1.1/DTD/svg11.dtd">
<!-- Generated by graphviz version 2.38.0 (20140413.2041)
 -->
<!-- Title: /home/travis/build/PO&#45;31/QtReports/qtreports/src/tags/cellcontents.hpp Pages: 1 -->
<svg width="718pt" height="284pt"
 viewBox="0.00 0.00 718.00 284.00" xmlns="http://www.w3.org/2000/svg" xmlns:xlink="http://www.w3.org/1999/xlink">
<g id="graph0" class="graph" transform="scale(1 1) rotate(0) translate(4 280)">
<title>/home/travis/build/PO&#45;31/QtReports/qtreports/src/tags/cellcontents.hpp</title>
<!-- Node1 -->
<g id="node1" class="node"><title>Node1</title>
<polygon fill="#bfbfbf" stroke="black" points="187,-234.5 187,-275.5 333,-275.5 333,-234.5 187,-234.5"/>
<text text-anchor="start" x="195" y="-263.5" font-family="Helvetica,sans-Serif" font-size="10.00">/home/travis/build</text>
<text text-anchor="start" x="195" y="-252.5" font-family="Helvetica,sans-Serif" font-size="10.00">/PO&#45;31/QtReports/qtreports</text>
<text text-anchor="middle" x="260" y="-241.5" font-family="Helvetica,sans-Serif" font-size="10.00">/src/tags/cellcontents.hpp</text>
</g>
<!-- Node2 -->
<g id="node2" class="node"><title>Node2</title>
<g id="a_node2"><a xlink:href="cellcontents_8cpp.html" target="_top" xlink:title="/home/travis/build\l/PO&#45;31/QtReports/qtreports\l/src/tags/cellcontents.cpp">
<polygon fill="none" stroke="black" points="0,-156.5 0,-197.5 146,-197.5 146,-156.5 0,-156.5"/>
<text text-anchor="start" x="8" y="-185.5" font-family="Helvetica,sans-Serif" font-size="10.00">/home/travis/build</text>
<text text-anchor="start" x="8" y="-174.5" font-family="Helvetica,sans-Serif" font-size="10.00">/PO&#45;31/QtReports/qtreports</text>
<text text-anchor="middle" x="73" y="-163.5" font-family="Helvetica,sans-Serif" font-size="10.00">/src/tags/cellcontents.cpp</text>
</a>
</g>
</g>
<!-- Node1&#45;&gt;Node2 -->
<g id="edge1" class="edge"><title>Node1&#45;&gt;Node2</title>
<path fill="none" stroke="midnightblue" d="M202.445,-230.609C176.344,-220.001 145.835,-207.602 120.994,-197.506"/>
<polygon fill="midnightblue" stroke="midnightblue" points="201.261,-233.905 211.843,-234.428 203.897,-227.421 201.261,-233.905"/>
</g>
<!-- Node3 -->
<g id="node3" class="node"><title>Node3</title>
<g id="a_node3"><a xlink:href="crosstabcolumnheader_8hpp.html" target="_top" xlink:title="/home/travis/build\l/PO&#45;31/QtReports/qtreports\l/src/tags/crosstabcolumnheader.hpp">
<polygon fill="none" stroke="black" points="164.5,-156.5 164.5,-197.5 355.5,-197.5 355.5,-156.5 164.5,-156.5"/>
<text text-anchor="start" x="172.5" y="-185.5" font-family="Helvetica,sans-Serif" font-size="10.00">/home/travis/build</text>
<text text-anchor="start" x="172.5" y="-174.5" font-family="Helvetica,sans-Serif" font-size="10.00">/PO&#45;31/QtReports/qtreports</text>
<text text-anchor="middle" x="260" y="-163.5" font-family="Helvetica,sans-Serif" font-size="10.00">/src/tags/crosstabcolumnheader.hpp</text>
</a>
</g>
</g>
<!-- Node1&#45;&gt;Node3 -->
<g id="edge2" class="edge"><title>Node1&#45;&gt;Node3</title>
<path fill="none" stroke="midnightblue" d="M260,-224.297C260,-215.301 260,-205.653 260,-197.506"/>
<polygon fill="midnightblue" stroke="midnightblue" points="256.5,-224.428 260,-234.428 263.5,-224.428 256.5,-224.428"/>
</g>
<!-- Node7 -->
<g id="node7" class="node"><title>Node7</title>
<g id="a_node7"><a xlink:href="crosstabrowheader_8hpp.html" target="_top" xlink:title="/home/travis/build\l/PO&#45;31/QtReports/qtreports\l/src/tags/crosstabrowheader.hpp">
<polygon fill="none" stroke="black" points="373.5,-156.5 373.5,-197.5 546.5,-197.5 546.5,-156.5 373.5,-156.5"/>
<text text-anchor="start" x="381.5" y="-185.5" font-family="Helvetica,sans-Serif" font-size="10.00">/home/travis/build</text>
<text text-anchor="start" x="381.5" y="-174.5" font-family="Helvetica,sans-Serif" font-size="10.00">/PO&#45;31/QtReports/qtreports</text>
<text text-anchor="middle" x="460" y="-163.5" font-family="Helvetica,sans-Serif" font-size="10.00">/src/tags/crosstabrowheader.hpp</text>
</a>
</g>
</g>
<!-- Node1&#45;&gt;Node7 -->
<g id="edge6" class="edge"><title>Node1&#45;&gt;Node7</title>
<path fill="none" stroke="midnightblue" d="M321.189,-230.748C349.185,-220.11 381.985,-207.646 408.67,-197.506"/>
<polygon fill="midnightblue" stroke="midnightblue" points="319.61,-227.604 311.505,-234.428 322.096,-234.148 319.61,-227.604"/>
</g>
<!-- Node4 -->
<g id="node4" class="node"><title>Node4</title>
<g id="a_node4"><a xlink:href="columngroup_8hpp.html" target="_top" xlink:title="/home/travis/build\l/PO&#45;31/QtReports/qtreports\l/src/tags/columngroup.hpp">
<polygon fill="none" stroke="black" points="0,-78.5 0,-119.5 146,-119.5 146,-78.5 0,-78.5"/>
<text text-anchor="start" x="8" y="-107.5" font-family="Helvetica,sans-Serif" font-size="10.00">/home/travis/build</text>
<text text-anchor="start" x="8" y="-96.5" font-family="Helvetica,sans-Serif" font-size="10.00">/PO&#45;31/QtReports/qtreports</text>
<text text-anchor="middle" x="73" y="-85.5" font-family="Helvetica,sans-Serif" font-size="10.00">/src/tags/columngroup.hpp</text>
</a>
</g>
</g>
<!-- Node3&#45;&gt;Node4 -->
<g id="edge3" class="edge"><title>Node3&#45;&gt;Node4</title>
<path fill="none" stroke="midnightblue" d="M202.445,-152.609C176.344,-142.001 145.835,-129.602 120.994,-119.506"/>
<polygon fill="midnightblue" stroke="midnightblue" points="201.261,-155.905 211.843,-156.428 203.897,-149.421 201.261,-155.905"/>
</g>
<!-- Node6 -->
<g id="node6" class="node"><title>Node6</title>
<g id="a_node6"><a xlink:href="crosstabcolumnheader_8cpp.html" target="_top" xlink:title="/home/travis/build\l/PO&#45;31/QtReports/qtreports\l/src/tags/crosstabcolumnheader.cpp">
<polygon fill="none" stroke="black" points="164.5,-78.5 164.5,-119.5 355.5,-119.5 355.5,-78.5 164.5,-78.5"/>
<text text-anchor="start" x="172.5" y="-107.5" font-family="Helvetica,sans-Serif" font-size="10.00">/home/travis/build</text>
<text text-anchor="start" x="172.5" y="-96.5" font-family="Helvetica,sans-Serif" font-size="10.00">/PO&#45;31/QtReports/qtreports</text>
<text text-anchor="middle" x="260" y="-85.5" font-family="Helvetica,sans-Serif" font-size="10.00">/src/tags/crosstabcolumnheader.cpp</text>
</a>
</g>
</g>
<!-- Node3&#45;&gt;Node6 -->
<g id="edge5" class="edge"><title>Node3&#45;&gt;Node6</title>
<path fill="none" stroke="midnightblue" d="M260,-146.297C260,-137.301 260,-127.653 260,-119.506"/>
<polygon fill="midnightblue" stroke="midnightblue" points="256.5,-146.428 260,-156.428 263.5,-146.428 256.5,-146.428"/>
</g>
<!-- Node5 -->
<g id="node5" class="node"><title>Node5</title>
<g id="a_node5"><a xlink:href="columngroup_8cpp.html" target="_top" xlink:title="/home/travis/build\l/PO&#45;31/QtReports/qtreports\l/src/tags/columngroup.cpp">
<polygon fill="none" stroke="black" points="0,-0.5 0,-41.5 146,-41.5 146,-0.5 0,-0.5"/>
<text text-anchor="start" x="8" y="-29.5" font-family="Helvetica,sans-Serif" font-size="10.00">/home/travis/build</text>
<text text-anchor="start" x="8" y="-18.5" font-family="Helvetica,sans-Serif" font-size="10.00">/PO&#45;31/QtReports/qtreports</text>
<text text-anchor="middle" x="73" y="-7.5" font-family="Helvetica,sans-Serif" font-size="10.00">/src/tags/columngroup.cpp</text>
</a>
</g>
</g>
<!-- Node4&#45;&gt;Node5 -->
<g id="edge4" class="edge"><title>Node4&#45;&gt;Node5</title>
<path fill="none" stroke="midnightblue" d="M73,-68.2965C73,-59.3009 73,-49.6532 73,-41.5056"/>
<polygon fill="midnightblue" stroke="midnightblue" points="69.5001,-68.4281 73,-78.4281 76.5001,-68.4281 69.5001,-68.4281"/>
</g>
<!-- Node8 -->
<g id="node8" class="node"><title>Node8</title>
<g id="a_node8"><a xlink:href="crosstabrowheader_8cpp.html" target="_top" xlink:title="/home/travis/build\l/PO&#45;31/QtReports/qtreports\l/src/tags/crosstabrowheader.cpp">
<polygon fill="none" stroke="black" points="374,-78.5 374,-119.5 546,-119.5 546,-78.5 374,-78.5"/>
<text text-anchor="start" x="382" y="-107.5" font-family="Helvetica,sans-Serif" font-size="10.00">/home/travis/build</text>
<text text-anchor="start" x="382" y="-96.5" font-family="Helvetica,sans-Serif" font-size="10.00">/PO&#45;31/QtReports/qtreports</text>
<text text-anchor="middle" x="460" y="-85.5" font-family="Helvetica,sans-Serif" font-size="10.00">/src/tags/crosstabrowheader.cpp</text>
</a>
</g>
</g>
<!-- Node7&#45;&gt;Node8 -->
<g id="edge7" class="edge"><title>Node7&#45;&gt;Node8</title>
<path fill="none" stroke="midnightblue" d="M460,-146.297C460,-137.301 460,-127.653 460,-119.506"/>
<polygon fill="midnightblue" stroke="midnightblue" points="456.5,-146.428 460,-156.428 463.5,-146.428 456.5,-146.428"/>
</g>
<!-- Node9 -->
<g id="node9" class="node"><title>Node9</title>
<g id="a_node9"><a xlink:href="rowgroup_8hpp.html" target="_top" xlink:title="/home/travis/build\l/PO&#45;31/QtReports/qtreports\l/src/tags/rowgroup.hpp">
<polygon fill="none" stroke="black" points="564,-78.5 564,-119.5 710,-119.5 710,-78.5 564,-78.5"/>
<text text-anchor="start" x="572" y="-107.5" font-family="Helvetica,sans-Serif" font-size="10.00">/home/travis/build</text>
<text text-anchor="start" x="572" y="-96.5" font-family="Helvetica,sans-Serif" font-size="10.00">/PO&#45;31/QtReports/qtreports</text>
<text text-anchor="middle" x="637" y="-85.5" font-family="Helvetica,sans-Serif" font-size="10.00">/src/tags/rowgroup.hpp</text>
</a>
</g>
</g>
<!-- Node7&#45;&gt;Node9 -->
<g id="edge8" class="edge"><title>Node7&#45;&gt;Node9</title>
<path fill="none" stroke="midnightblue" d="M514.803,-152.469C539.435,-141.892 568.163,-129.557 591.573,-119.506"/>
<polygon fill="midnightblue" stroke="midnightblue" points="513.39,-149.267 505.582,-156.428 516.152,-155.699 513.39,-149.267"/>
</g>
<!-- Node10 -->
<g id="node10" class="node"><title>Node10</title>
<g id="a_node10"><a xlink:href="rowgroup_8cpp.html" target="_top" xlink:title="/home/travis/build\l/PO&#45;31/QtReports/qtreports\l/src/tags/rowgroup.cpp">
<polygon fill="none" stroke="black" points="564,-0.5 564,-41.5 710,-41.5 710,-0.5 564,-0.5"/>
<text text-anchor="start" x="572" y="-29.5" font-family="Helvetica,sans-Serif" font-size="10.00">/home/travis/build</text>
<text text-anchor="start" x="572" y="-18.5" font-family="Helvetica,sans-Serif" font-size="10.00">/PO&#45;31/QtReports/qtreports</text>
<text text-anchor="middle" x="637" y="-7.5" font-family="Helvetica,sans-Serif" font-size="10.00">/src/tags/rowgroup.cpp</text>
</a>
</g>
</g>
<!-- Node9&#45;&gt;Node10 -->
<g id="edge9" class="edge"><title>Node9&#45;&gt;Node10</title>
<path fill="none" stroke="midnightblue" d="M637,-68.2965C637,-59.3009 637,-49.6532 637,-41.5056"/>
<polygon fill="midnightblue" stroke="midnightblue" points="633.5,-68.4281 637,-78.4281 640.5,-68.4281 633.5,-68.4281"/>
</g>
</g>
</svg>
