<?xml version="1.0" encoding="UTF-8" standalone="no"?>
<!DOCTYPE svg PUBLIC "-//W3C//DTD SVG 1.1//EN"
 "http://www.w3.org/Graphics/SVG/1.1/DTD/svg11.dtd">
<!-- Generated by graphviz version 2.38.0 (20140413.2041)
 -->
<!-- Title: qtreports::detail::ConverterToQWidget::createBands Pages: 1 -->
<!--zoomable 257 -->
<svg id="main" version="1.1" xmlns="http://www.w3.org/2000/svg" xmlns:xlink="http://www.w3.org/1999/xlink" xml:space="preserve" onload="init(evt)">
<style type="text/css"><![CDATA[
.edge:hover path { stroke: red; }
.edge:hover polygon { stroke: red; fill: red; }
]]></style>
<script type="text/javascript"><![CDATA[
var edges = document.getElementsByTagName('g');
if (edges && edges.length) {
  for (var i=0;i<edges.length;i++) {
    if (edges[i].id.substr(0,4)=='edge') {
      edges[i].setAttribute('class','edge');
    }
  }
}
]]></script>
        <defs>
                <circle id="rim" cx="0" cy="0" r="7"/>
                <circle id="rim2" cx="0" cy="0" r="3.5"/>
                <g id="zoomPlus">
                        <use xlink:href="#rim" fill="#404040">
                                <set attributeName="fill" to="#808080" begin="zoomplus.mouseover" end="zoomplus.mouseout"/>
                        </use>
                        <path d="M-4,0h8M0,-4v8" fill="none" stroke="white" stroke-width="1.5" pointer-events="none"/>
                </g>
                <g id="zoomMin">
                        <use xlink:href="#rim" fill="#404040">
                                <set attributeName="fill" to="#808080" begin="zoomminus.mouseover" end="zoomminus.mouseout"/>
                        </use>
                        <path d="M-4,0h8" fill="none" stroke="white" stroke-width="1.5" pointer-events="none"/>
                </g>
                <g id="dirArrow">
                        <path fill="none" stroke="white" stroke-width="1.5" d="M0,-3.0v7 M-2.5,-0.5L0,-3.0L2.5,-0.5"/>
                </g>
               <g id="resetDef">
                       <use xlink:href="#rim2" fill="#404040">
                               <set attributeName="fill" to="#808080" begin="reset.mouseover" end="reset.mouseout"/>
                       </use>
               </g>
        </defs>

<script type="text/javascript">
var viewWidth = 899;
var viewHeight = 257;
var sectionId = 'dynsection-12';
</script>
<script xlink:href="svgpan.js"/>
<svg id="graph" class="graph">
<g id="viewport">
<title>qtreports::detail::ConverterToQWidget::createBands</title>
<!-- Node1 -->
<g id="node1" class="node"><title>Node1</title>
<polygon fill="#bfbfbf" stroke="black" points="0,-98.5 0,-139.5 119,-139.5 119,-98.5 0,-98.5"/>
<text text-anchor="start" x="8" y="-127.5" font-family="Helvetica,sans-Serif" font-size="10.00">qtreports::detail::</text>
<text text-anchor="start" x="8" y="-116.5" font-family="Helvetica,sans-Serif" font-size="10.00">ConverterToQWidget::</text>
<text text-anchor="middle" x="59.5" y="-105.5" font-family="Helvetica,sans-Serif" font-size="10.00">createBands</text>
</g>
<!-- Node2 -->
<g id="node2" class="node"><title>Node2</title>
<g id="a_node2"><a xlink:href="classqtreports_1_1detail_1_1_converter_to_q_widget.html#a23d6229235fca8bd8bbddcc5e2e28f92" target="_top" xlink:title="Добавляет новую страницу на виджет. ">
<polygon fill="none" stroke="black" points="181.5,-207.5 181.5,-248.5 300.5,-248.5 300.5,-207.5 181.5,-207.5"/>
<text text-anchor="start" x="189.5" y="-236.5" font-family="Helvetica,sans-Serif" font-size="10.00">qtreports::detail::</text>
<text text-anchor="start" x="189.5" y="-225.5" font-family="Helvetica,sans-Serif" font-size="10.00">ConverterToQWidget::</text>
<text text-anchor="middle" x="241" y="-214.5" font-family="Helvetica,sans-Serif" font-size="10.00">addPage</text>
</a>
</g>
</g>
<!-- Node1&#45;&gt;Node2 -->
<g id="edge1" class="edge"><title>Node1&#45;&gt;Node2</title>
<path fill="none" stroke="midnightblue" d="M80.6332,-139.555C98.7378,-157.078 126.757,-181.912 155,-198 160.354,-201.05 166.072,-203.871 171.915,-206.462"/>
<polygon fill="midnightblue" stroke="midnightblue" points="170.591,-209.702 181.166,-210.344 173.299,-203.247 170.591,-209.702"/>
</g>
<!-- Node3 -->
<g id="node3" class="node"><title>Node3</title>
<g id="a_node3"><a xlink:href="classqtreports_1_1detail_1_1_converter_to_q_widget.html#a76bb37f2855d12afc9056c75cdbc5e0b" target="_top" xlink:title="Проверяет, является ли виджет типа WidgetType::Layout. ">
<polygon fill="none" stroke="black" points="181.5,-147.5 181.5,-188.5 300.5,-188.5 300.5,-147.5 181.5,-147.5"/>
<text text-anchor="start" x="189.5" y="-176.5" font-family="Helvetica,sans-Serif" font-size="10.00">qtreports::detail::</text>
<text text-anchor="start" x="189.5" y="-165.5" font-family="Helvetica,sans-Serif" font-size="10.00">ConverterToQWidget::</text>
<text text-anchor="middle" x="241" y="-154.5" font-family="Helvetica,sans-Serif" font-size="10.00">isLayout</text>
</a>
</g>
</g>
<!-- Node1&#45;&gt;Node3 -->
<g id="edge2" class="edge"><title>Node1&#45;&gt;Node3</title>
<path fill="none" stroke="midnightblue" d="M119.275,-135.044C135.942,-139.594 154.233,-144.587 171.425,-149.28"/>
<polygon fill="midnightblue" stroke="midnightblue" points="170.831,-152.746 181.4,-152.003 172.674,-145.993 170.831,-152.746"/>
</g>
<!-- Node4 -->
<g id="node4" class="node"><title>Node4</title>
<g id="a_node4"><a xlink:href="classqtreports_1_1detail_1_1_replacer.html#aa9fa83cf51d75301b62e11a0a93e2dcc" target="_top" xlink:title="qtreports::detail::\lReplacer::replaceColumnGroups\lInCrosstab">
<polygon fill="none" stroke="black" points="363,-103.5 363,-144.5 533,-144.5 533,-103.5 363,-103.5"/>
<text text-anchor="start" x="371" y="-132.5" font-family="Helvetica,sans-Serif" font-size="10.00">qtreports::detail::</text>
<text text-anchor="start" x="371" y="-121.5" font-family="Helvetica,sans-Serif" font-size="10.00">Replacer::replaceColumnGroups</text>
<text text-anchor="middle" x="448" y="-110.5" font-family="Helvetica,sans-Serif" font-size="10.00">InCrosstab</text>
</a>
</g>
</g>
<!-- Node1&#45;&gt;Node4 -->
<g id="edge3" class="edge"><title>Node1&#45;&gt;Node4</title>
<path fill="none" stroke="midnightblue" d="M119.201,-119.759C181.221,-120.562 279.944,-121.839 352.859,-122.782"/>
<polygon fill="midnightblue" stroke="midnightblue" points="352.925,-126.283 362.97,-122.913 353.016,-119.284 352.925,-126.283"/>
</g>
<!-- Node7 -->
<g id="node7" class="node"><title>Node7</title>
<g id="a_node7"><a xlink:href="classqtreports_1_1detail_1_1_replacer.html#ae0f12ba0e77e9ef89b9479272e843fe6" target="_top" xlink:title="qtreports::detail::\lReplacer::replaceRowGroups\lInCrosstab">
<polygon fill="none" stroke="black" points="372.5,-5.5 372.5,-46.5 523.5,-46.5 523.5,-5.5 372.5,-5.5"/>
<text text-anchor="start" x="380.5" y="-34.5" font-family="Helvetica,sans-Serif" font-size="10.00">qtreports::detail::</text>
<text text-anchor="start" x="380.5" y="-23.5" font-family="Helvetica,sans-Serif" font-size="10.00">Replacer::replaceRowGroups</text>
<text text-anchor="middle" x="448" y="-12.5" font-family="Helvetica,sans-Serif" font-size="10.00">InCrosstab</text>
</a>
</g>
</g>
<!-- Node1&#45;&gt;Node7 -->
<g id="edge6" class="edge"><title>Node1&#45;&gt;Node7</title>
<path fill="none" stroke="midnightblue" d="M81.3596,-98.448C99.2744,-82.2012 126.633,-60.559 155,-50 221.581,-25.2164 302.428,-20.332 362.156,-21.0106"/>
<polygon fill="midnightblue" stroke="midnightblue" points="362.246,-24.5125 372.303,-21.1814 362.364,-17.5135 362.246,-24.5125"/>
</g>
<!-- Node9 -->
<g id="node9" class="node"><title>Node9</title>
<g id="a_node9"><a xlink:href="classqtreports_1_1detail_1_1_replacer.html#a5dc72251354d389091776142436ebd22" target="_top" xlink:title="qtreports::detail::\lReplacer::replaceCellsInCrosstab">
<polygon fill="none" stroke="black" points="155,-60 155,-90 327,-90 327,-60 155,-60"/>
<text text-anchor="start" x="163" y="-78" font-family="Helvetica,sans-Serif" font-size="10.00">qtreports::detail::</text>
<text text-anchor="middle" x="241" y="-67" font-family="Helvetica,sans-Serif" font-size="10.00">Replacer::replaceCellsInCrosstab</text>
</a>
</g>
</g>
<!-- Node1&#45;&gt;Node9 -->
<g id="edge9" class="edge"><title>Node1&#45;&gt;Node9</title>
<path fill="none" stroke="midnightblue" d="M119.275,-104.593C135.024,-100.732 152.223,-96.5163 168.575,-92.508"/>
<polygon fill="midnightblue" stroke="midnightblue" points="169.747,-95.8244 178.626,-90.0442 168.081,-89.0257 169.747,-95.8244"/>
</g>
<!-- Node5 -->
<g id="node5" class="node"><title>Node5</title>
<g id="a_node5"><a xlink:href="classqtreports_1_1detail_1_1_replacer.html#a781b476a4e964da9e5afe4f642b2f275" target="_top" xlink:title="qtreports::detail::\lReplacer::replaceColumnGroup\lInCrosstab">
<polygon fill="none" stroke="black" points="570.5,-108.5 570.5,-149.5 734.5,-149.5 734.5,-108.5 570.5,-108.5"/>
<text text-anchor="start" x="578.5" y="-137.5" font-family="Helvetica,sans-Serif" font-size="10.00">qtreports::detail::</text>
<text text-anchor="start" x="578.5" y="-126.5" font-family="Helvetica,sans-Serif" font-size="10.00">Replacer::replaceColumnGroup</text>
<text text-anchor="middle" x="652.5" y="-115.5" font-family="Helvetica,sans-Serif" font-size="10.00">InCrosstab</text>
</a>
</g>
</g>
<!-- Node4&#45;&gt;Node5 -->
<g id="edge4" class="edge"><title>Node4&#45;&gt;Node5</title>
<path fill="none" stroke="midnightblue" d="M533.119,-126.077C542.041,-126.297 551.145,-126.522 560.144,-126.744"/>
<polygon fill="midnightblue" stroke="midnightblue" points="560.161,-130.246 570.244,-126.994 560.334,-123.248 560.161,-130.246"/>
</g>
<!-- Node6 -->
<g id="node6" class="node"><title>Node6</title>
<g id="a_node6"><a xlink:href="classqtreports_1_1detail_1_1_replacer.html#a4642b07160798f2ee4de276e1d0c1ecd" target="_top" xlink:title="Возвращает текст с подставленными значениями полей из источника данных. ">
<polygon fill="none" stroke="black" points="772,-60 772,-90 891,-90 891,-60 772,-60"/>
<text text-anchor="start" x="780" y="-78" font-family="Helvetica,sans-Serif" font-size="10.00">qtreports::detail::</text>
<text text-anchor="middle" x="831.5" y="-67" font-family="Helvetica,sans-Serif" font-size="10.00">Replacer::replaceField</text>
</a>
</g>
</g>
<!-- Node5&#45;&gt;Node6 -->
<g id="edge5" class="edge"><title>Node5&#45;&gt;Node6</title>
<path fill="none" stroke="midnightblue" d="M720.921,-108.431C737.506,-103.371 755.14,-97.9911 771.304,-93.0597"/>
<polygon fill="midnightblue" stroke="midnightblue" points="772.613,-96.3199 781.156,-90.0541 770.57,-89.6245 772.613,-96.3199"/>
</g>
<!-- Node8 -->
<g id="node8" class="node"><title>Node8</title>
<g id="a_node8"><a xlink:href="classqtreports_1_1detail_1_1_replacer.html#a2114b58c90fe02b17e7bf99e144013b6" target="_top" xlink:title="qtreports::detail::\lReplacer::replaceRowGroupIn\lCrosstab">
<polygon fill="none" stroke="black" points="575.5,-0.5 575.5,-41.5 729.5,-41.5 729.5,-0.5 575.5,-0.5"/>
<text text-anchor="start" x="583.5" y="-29.5" font-family="Helvetica,sans-Serif" font-size="10.00">qtreports::detail::</text>
<text text-anchor="start" x="583.5" y="-18.5" font-family="Helvetica,sans-Serif" font-size="10.00">Replacer::replaceRowGroupIn</text>
<text text-anchor="middle" x="652.5" y="-7.5" font-family="Helvetica,sans-Serif" font-size="10.00">Crosstab</text>
</a>
</g>
</g>
<!-- Node7&#45;&gt;Node8 -->
<g id="edge7" class="edge"><title>Node7&#45;&gt;Node8</title>
<path fill="none" stroke="midnightblue" d="M523.541,-24.1595C537.153,-23.8234 551.458,-23.4702 565.374,-23.1266"/>
<polygon fill="midnightblue" stroke="midnightblue" points="565.512,-26.6243 575.422,-22.8785 565.339,-19.6265 565.512,-26.6243"/>
</g>
<!-- Node8&#45;&gt;Node6 -->
<g id="edge8" class="edge"><title>Node8&#45;&gt;Node6</title>
<path fill="none" stroke="midnightblue" d="M720.921,-41.5691C737.506,-46.6291 755.14,-52.0089 771.304,-56.9403"/>
<polygon fill="midnightblue" stroke="midnightblue" points="770.57,-60.3755 781.156,-59.9459 772.613,-53.6801 770.57,-60.3755"/>
</g>
<!-- Node9&#45;&gt;Node4 -->
<g id="edge11" class="edge"><title>Node9&#45;&gt;Node4</title>
<path fill="none" stroke="midnightblue" d="M304.9,-90.0346C320.007,-93.6457 336.471,-97.5809 352.662,-101.451"/>
<polygon fill="midnightblue" stroke="midnightblue" points="352.153,-104.928 362.692,-103.848 353.78,-98.1195 352.153,-104.928"/>
</g>
<!-- Node9&#45;&gt;Node7 -->
<g id="edge10" class="edge"><title>Node9&#45;&gt;Node7</title>
<path fill="none" stroke="midnightblue" d="M304.9,-59.9654C323.041,-55.6293 343.137,-50.8257 362.368,-46.2291"/>
<polygon fill="midnightblue" stroke="midnightblue" points="363.418,-49.5768 372.33,-43.8478 361.791,-42.7686 363.418,-49.5768"/>
</g>
<!-- Node10 -->
<g id="node10" class="node"><title>Node10</title>
<g id="a_node10"><a xlink:href="classqtreports_1_1detail_1_1_replacer.html#a9ad7270fd6bdb9a2ba85bdc9652968c8" target="_top" xlink:title="qtreports::detail::\lReplacer::replaceCellInCrosstab">
<polygon fill="none" stroke="black" points="569,-60 569,-90 736,-90 736,-60 569,-60"/>
<text text-anchor="start" x="577" y="-78" font-family="Helvetica,sans-Serif" font-size="10.00">qtreports::detail::</text>
<text text-anchor="middle" x="652.5" y="-67" font-family="Helvetica,sans-Serif" font-size="10.00">Replacer::replaceCellInCrosstab</text>
</a>
</g>
</g>
<!-- Node9&#45;&gt;Node10 -->
<g id="edge12" class="edge"><title>Node9&#45;&gt;Node10</title>
<path fill="none" stroke="midnightblue" d="M327.346,-75C394.928,-75 489.189,-75 558.65,-75"/>
<polygon fill="midnightblue" stroke="midnightblue" points="558.712,-78.5001 568.712,-75 558.712,-71.5001 558.712,-78.5001"/>
</g>
<!-- Node10&#45;&gt;Node6 -->
<g id="edge13" class="edge"><title>Node10&#45;&gt;Node6</title>
<path fill="none" stroke="midnightblue" d="M736.041,-75C744.627,-75 753.288,-75 761.699,-75"/>
<polygon fill="midnightblue" stroke="midnightblue" points="761.812,-78.5001 771.812,-75 761.812,-71.5001 761.812,-78.5001"/>
</g>
</g>
</svg>
        <g id="navigator" transform="translate(0 0)" fill="#404254">
                <rect fill="#f2f5e9" fill-opacity="0.5" stroke="#606060" stroke-width=".5" x="0" y="0" width="60" height="60"/>
                <use id="zoomplus" xlink:href="#zoomPlus" x="17" y="9" onmousedown="handleZoom(evt,'in')"/>
                <use id="zoomminus" xlink:href="#zoomMin" x="42" y="9" onmousedown="handleZoom(evt,'out')"/>
                <use id="reset" xlink:href="#resetDef" x="30" y="36" onmousedown="handleReset()"/>
                <g id="arrowUp" xlink:href="#dirArrow" transform="translate(30 24)" onmousedown="handlePan(0,-1)">
                  <use xlink:href="#rim" fill="#404040">
                        <set attributeName="fill" to="#808080" begin="arrowUp.mouseover" end="arrowUp.mouseout"/>
                  </use>
                  <path fill="none" stroke="white" stroke-width="1.5" d="M0,-3.0v7 M-2.5,-0.5L0,-3.0L2.5,-0.5"/>
                </g>
                <g id="arrowRight" xlink:href="#dirArrow" transform="rotate(90) translate(36 -43)" onmousedown="handlePan(1,0)">
                  <use xlink:href="#rim" fill="#404040">
                        <set attributeName="fill" to="#808080" begin="arrowRight.mouseover" end="arrowRight.mouseout"/>
                  </use>
                  <path fill="none" stroke="white" stroke-width="1.5" d="M0,-3.0v7 M-2.5,-0.5L0,-3.0L2.5,-0.5"/>
                </g>
                <g id="arrowDown" xlink:href="#dirArrow" transform="rotate(180) translate(-30 -48)" onmousedown="handlePan(0,1)">
                  <use xlink:href="#rim" fill="#404040">
                        <set attributeName="fill" to="#808080" begin="arrowDown.mouseover" end="arrowDown.mouseout"/>
                  </use>
                  <path fill="none" stroke="white" stroke-width="1.5" d="M0,-3.0v7 M-2.5,-0.5L0,-3.0L2.5,-0.5"/>
                </g>
                <g id="arrowLeft" xlink:href="#dirArrow" transform="rotate(270) translate(-36 17)" onmousedown="handlePan(-1,0)">
                  <use xlink:href="#rim" fill="#404040">
                        <set attributeName="fill" to="#808080" begin="arrowLeft.mouseover" end="arrowLeft.mouseout"/>
                  </use>
                  <path fill="none" stroke="white" stroke-width="1.5" d="M0,-3.0v7 M-2.5,-0.5L0,-3.0L2.5,-0.5"/>
                </g>
        </g>
        <svg viewBox="0 0 15 15" width="100%" height="30px" preserveAspectRatio="xMaxYMin meet">
         <g id="arrow_out" transform="scale(0.3 0.3)">
          <a xlink:href="classqtreports_1_1detail_1_1_converter_to_q_widget_aa3be16e037533a4a5b58596087207187_cgraph_org.svg" target="_base">
           <rect id="button" ry="5" rx="5" y="6" x="6" height="38" width="38"
                fill="#f2f5e9" fill-opacity="0.5" stroke="#606060" stroke-width="1.0"/>
           <path id="arrow"
             d="M 11.500037,31.436501 C 11.940474,20.09759 22.043105,11.32322 32.158766,21.979434 L 37.068811,17.246167 C 37.068811,17.246167 37.088388,32 37.088388,32 L 22.160133,31.978069 C 22.160133,31.978069 26.997745,27.140456 26.997745,27.140456 C 18.528582,18.264221 13.291696,25.230495 11.500037,31.436501 z"
             style="fill:#404040;"/>
          </a>
         </g>
        </svg>
</svg>
