<?xml version="1.0" encoding="UTF-8" standalone="no"?>
<!DOCTYPE svg PUBLIC "-//W3C//DTD SVG 1.1//EN"
 "http://www.w3.org/Graphics/SVG/1.1/DTD/svg11.dtd">
<!-- Generated by graphviz version 2.38.0 (20140413.2041)
 -->
<!-- Title: qtreports::detail::ConverterToQWidget::convert Pages: 1 -->
<svg width="1341pt" height="575pt"
 viewBox="0.00 0.00 1341.00 574.57" xmlns="http://www.w3.org/2000/svg" xmlns:xlink="http://www.w3.org/1999/xlink">
<g id="graph0" class="graph" transform="scale(1 1) rotate(0) translate(4 570.575)">
<title>qtreports::detail::ConverterToQWidget::convert</title>
<!-- Node1 -->
<g id="node1" class="node"><title>Node1</title>
<polygon fill="#bfbfbf" stroke="black" points="0,-376.5 0,-417.5 119,-417.5 119,-376.5 0,-376.5"/>
<text text-anchor="start" x="8" y="-405.5" font-family="Helvetica,sans-Serif" font-size="10.00">qtreports::detail::</text>
<text text-anchor="start" x="8" y="-394.5" font-family="Helvetica,sans-Serif" font-size="10.00">ConverterToQWidget::</text>
<text text-anchor="middle" x="59.5" y="-383.5" font-family="Helvetica,sans-Serif" font-size="10.00">convert</text>
</g>
<!-- Node2 -->
<g id="node2" class="node"><title>Node2</title>
<g id="a_node2"><a xlink:href="classqtreports_1_1detail_1_1_converter_to_q_widget.html#a96a53267cf2b8092e174906ea7f0f56f" target="_top" xlink:title="Конвертирует отчет в QWidget. ">
<polygon fill="none" stroke="black" points="155,-376.5 155,-417.5 274,-417.5 274,-376.5 155,-376.5"/>
<text text-anchor="start" x="163" y="-405.5" font-family="Helvetica,sans-Serif" font-size="10.00">qtreports::detail::</text>
<text text-anchor="start" x="163" y="-394.5" font-family="Helvetica,sans-Serif" font-size="10.00">ConverterToQWidget::</text>
<text text-anchor="middle" x="214.5" y="-383.5" font-family="Helvetica,sans-Serif" font-size="10.00">createQWidget</text>
</a>
</g>
</g>
<!-- Node1&#45;&gt;Node2 -->
<g id="edge1" class="edge"><title>Node1&#45;&gt;Node2</title>
<path fill="none" stroke="midnightblue" d="M119.216,-397C127.544,-397 136.169,-397 144.667,-397"/>
<polygon fill="midnightblue" stroke="midnightblue" points="144.941,-400.5 154.941,-397 144.941,-393.5 144.941,-400.5"/>
</g>
<!-- Node3 -->
<g id="node3" class="node"><title>Node3</title>
<g id="a_node3"><a xlink:href="classqtreports_1_1detail_1_1_converter_to_q_widget.html#a23d6229235fca8bd8bbddcc5e2e28f92" target="_top" xlink:title="Добавляет новую страницу на виджет. ">
<polygon fill="none" stroke="black" points="803.5,-0.5 803.5,-41.5 922.5,-41.5 922.5,-0.5 803.5,-0.5"/>
<text text-anchor="start" x="811.5" y="-29.5" font-family="Helvetica,sans-Serif" font-size="10.00">qtreports::detail::</text>
<text text-anchor="start" x="811.5" y="-18.5" font-family="Helvetica,sans-Serif" font-size="10.00">ConverterToQWidget::</text>
<text text-anchor="middle" x="863" y="-7.5" font-family="Helvetica,sans-Serif" font-size="10.00">addPage</text>
</a>
</g>
</g>
<!-- Node2&#45;&gt;Node3 -->
<g id="edge2" class="edge"><title>Node2&#45;&gt;Node3</title>
<path fill="none" stroke="midnightblue" d="M222.547,-376.372C235.125,-342.316 264.472,-274.026 310,-233 452.134,-104.92 679.886,-50.9662 793.258,-31.0925"/>
<polygon fill="midnightblue" stroke="midnightblue" points="793.941,-34.5265 803.205,-29.3851 792.757,-27.6274 793.941,-34.5265"/>
</g>
<!-- Node4 -->
<g id="node4" class="node"><title>Node4</title>
<g id="a_node4"><a xlink:href="classqtreports_1_1detail_1_1_converter_to_q_widget.html#af350953efb07bf3393c33846a81b1121" target="_top" xlink:title="Добавляет вертикальную границу. ">
<polygon fill="none" stroke="black" points="465,-496.5 465,-537.5 584,-537.5 584,-496.5 465,-496.5"/>
<text text-anchor="start" x="473" y="-525.5" font-family="Helvetica,sans-Serif" font-size="10.00">qtreports::detail::</text>
<text text-anchor="start" x="473" y="-514.5" font-family="Helvetica,sans-Serif" font-size="10.00">ConverterToQWidget::</text>
<text text-anchor="middle" x="524.5" y="-503.5" font-family="Helvetica,sans-Serif" font-size="10.00">addVerticalBorder</text>
</a>
</g>
</g>
<!-- Node2&#45;&gt;Node4 -->
<g id="edge3" class="edge"><title>Node2&#45;&gt;Node4</title>
<path fill="none" stroke="midnightblue" d="M257.464,-417.568C273.722,-425.264 292.584,-433.864 310,-441 357.962,-460.652 413.099,-480.204 455.326,-494.555"/>
<polygon fill="midnightblue" stroke="midnightblue" points="454.355,-497.921 464.949,-497.811 456.599,-491.29 454.355,-497.921"/>
</g>
<!-- Node5 -->
<g id="node5" class="node"><title>Node5</title>
<g id="a_node5"><a xlink:href="classqtreports_1_1detail_1_1_converter_to_q_widget.html#a76bb37f2855d12afc9056c75cdbc5e0b" target="_top" xlink:title="Проверяет, является ли виджет типа WidgetType::Layout. ">
<polygon fill="none" stroke="black" points="803.5,-367.5 803.5,-408.5 922.5,-408.5 922.5,-367.5 803.5,-367.5"/>
<text text-anchor="start" x="811.5" y="-396.5" font-family="Helvetica,sans-Serif" font-size="10.00">qtreports::detail::</text>
<text text-anchor="start" x="811.5" y="-385.5" font-family="Helvetica,sans-Serif" font-size="10.00">ConverterToQWidget::</text>
<text text-anchor="middle" x="863" y="-374.5" font-family="Helvetica,sans-Serif" font-size="10.00">isLayout</text>
</a>
</g>
</g>
<!-- Node2&#45;&gt;Node5 -->
<g id="edge6" class="edge"><title>Node2&#45;&gt;Node5</title>
<path fill="none" stroke="midnightblue" d="M236.302,-417.587C254.61,-434.948 282.557,-459.667 310,-477 373.908,-517.365 391.106,-531.088 465,-547 585.881,-573.03 633.48,-580.273 742,-521 786.963,-496.441 823.75,-448.414 844.265,-417.293"/>
<polygon fill="midnightblue" stroke="midnightblue" points="847.385,-418.912 849.856,-408.61 841.5,-415.122 847.385,-418.912"/>
</g>
<!-- Node7 -->
<g id="node7" class="node"><title>Node7</title>
<g id="a_node7"><a xlink:href="classqtreports_1_1detail_1_1_converter_to_q_widget.html#ae126b16c5a846e84f12d86ca8ef253dd" target="_top" xlink:title="Добавляет секцию. ">
<polygon fill="none" stroke="black" points="465,-376.5 465,-417.5 584,-417.5 584,-376.5 465,-376.5"/>
<text text-anchor="start" x="473" y="-405.5" font-family="Helvetica,sans-Serif" font-size="10.00">qtreports::detail::</text>
<text text-anchor="start" x="473" y="-394.5" font-family="Helvetica,sans-Serif" font-size="10.00">ConverterToQWidget::</text>
<text text-anchor="middle" x="524.5" y="-383.5" font-family="Helvetica,sans-Serif" font-size="10.00">addSectionLayout</text>
</a>
</g>
</g>
<!-- Node2&#45;&gt;Node7 -->
<g id="edge7" class="edge"><title>Node2&#45;&gt;Node7</title>
<path fill="none" stroke="midnightblue" d="M274.157,-397C325.562,-397 400.333,-397 454.579,-397"/>
<polygon fill="midnightblue" stroke="midnightblue" points="454.799,-400.5 464.799,-397 454.799,-393.5 454.799,-400.5"/>
</g>
<!-- Node8 -->
<g id="node8" class="node"><title>Node8</title>
<g id="a_node8"><a xlink:href="classqtreports_1_1detail_1_1_converter_to_q_widget.html#a3c95daf9bd10efc4feb71e0d976bbd6e" target="_top" xlink:title="Создает секцию. ">
<polygon fill="none" stroke="black" points="465,-180.5 465,-221.5 584,-221.5 584,-180.5 465,-180.5"/>
<text text-anchor="start" x="473" y="-209.5" font-family="Helvetica,sans-Serif" font-size="10.00">qtreports::detail::</text>
<text text-anchor="start" x="473" y="-198.5" font-family="Helvetica,sans-Serif" font-size="10.00">ConverterToQWidget::</text>
<text text-anchor="middle" x="524.5" y="-187.5" font-family="Helvetica,sans-Serif" font-size="10.00">createSection</text>
</a>
</g>
</g>
<!-- Node2&#45;&gt;Node8 -->
<g id="edge10" class="edge"><title>Node2&#45;&gt;Node8</title>
<path fill="none" stroke="midnightblue" d="M231.412,-376.422C248.858,-354.925 278.577,-321.289 310,-299 354.783,-267.235 411.506,-241.778 455.228,-224.778"/>
<polygon fill="midnightblue" stroke="midnightblue" points="456.548,-228.021 464.633,-221.174 454.043,-221.485 456.548,-228.021"/>
</g>
<!-- Node22 -->
<g id="node22" class="node"><title>Node22</title>
<g id="a_node22"><a xlink:href="classqtreports_1_1detail_1_1_converter_to_q_widget.html#ac98aceb5ee703053d7691029da84e296" target="_top" xlink:title="Функция добавления группировок в отчет. ">
<polygon fill="none" stroke="black" points="310,-308.5 310,-349.5 429,-349.5 429,-308.5 310,-308.5"/>
<text text-anchor="start" x="318" y="-337.5" font-family="Helvetica,sans-Serif" font-size="10.00">qtreports::detail::</text>
<text text-anchor="start" x="318" y="-326.5" font-family="Helvetica,sans-Serif" font-size="10.00">ConverterToQWidget::</text>
<text text-anchor="middle" x="369.5" y="-315.5" font-family="Helvetica,sans-Serif" font-size="10.00">addGroupsIntoReport</text>
</a>
</g>
</g>
<!-- Node2&#45;&gt;Node22 -->
<g id="edge29" class="edge"><title>Node2&#45;&gt;Node22</title>
<path fill="none" stroke="midnightblue" d="M261.82,-376.413C277.998,-369.223 296.32,-361.08 313.158,-353.596"/>
<polygon fill="midnightblue" stroke="midnightblue" points="314.621,-356.777 322.337,-349.517 311.778,-350.38 314.621,-356.777"/>
</g>
<!-- Node24 -->
<g id="node24" class="node"><title>Node24</title>
<g id="a_node24"><a xlink:href="classqtreports_1_1detail_1_1_converter_to_q_widget.html#a21d211f4a1f0f46f2220a0959c36367b" target="_top" xlink:title="Добавляет пустую секцию. ">
<polygon fill="none" stroke="black" points="465,-436.5 465,-477.5 584,-477.5 584,-436.5 465,-436.5"/>
<text text-anchor="start" x="473" y="-465.5" font-family="Helvetica,sans-Serif" font-size="10.00">qtreports::detail::</text>
<text text-anchor="start" x="473" y="-454.5" font-family="Helvetica,sans-Serif" font-size="10.00">ConverterToQWidget::</text>
<text text-anchor="middle" x="524.5" y="-443.5" font-family="Helvetica,sans-Serif" font-size="10.00">addEmptySection</text>
</a>
</g>
</g>
<!-- Node2&#45;&gt;Node24 -->
<g id="edge35" class="edge"><title>Node2&#45;&gt;Node24</title>
<path fill="none" stroke="midnightblue" d="M274.157,-408.427C325.669,-418.461 400.644,-433.067 454.917,-443.64"/>
<polygon fill="midnightblue" stroke="midnightblue" points="454.315,-447.088 464.799,-445.565 455.653,-440.217 454.315,-447.088"/>
</g>
<!-- Node4&#45;&gt;Node5 -->
<g id="edge4" class="edge"><title>Node4&#45;&gt;Node5</title>
<path fill="none" stroke="midnightblue" d="M584.019,-520.232C629.043,-520.528 691.838,-516.082 742,-494 781.486,-476.618 817.2,-441.351 839.204,-416.274"/>
<polygon fill="midnightblue" stroke="midnightblue" points="841.997,-418.394 845.853,-408.526 836.684,-413.836 841.997,-418.394"/>
</g>
<!-- Node6 -->
<g id="node6" class="node"><title>Node6</title>
<g id="a_node6"><a xlink:href="namespaceqtreports_1_1detail.html#a57ac54d6807a30b13e419a3106735b19" target="_top" xlink:title="qtreports::detail::\lcreateLayout">
<polygon fill="none" stroke="black" points="631.5,-455 631.5,-485 730.5,-485 730.5,-455 631.5,-455"/>
<text text-anchor="start" x="639.5" y="-473" font-family="Helvetica,sans-Serif" font-size="10.00">qtreports::detail::</text>
<text text-anchor="middle" x="681" y="-462" font-family="Helvetica,sans-Serif" font-size="10.00">createLayout</text>
</a>
</g>
</g>
<!-- Node4&#45;&gt;Node6 -->
<g id="edge5" class="edge"><title>Node4&#45;&gt;Node6</title>
<path fill="none" stroke="midnightblue" d="M584.351,-499.097C596.597,-495.372 609.499,-491.447 621.724,-487.728"/>
<polygon fill="midnightblue" stroke="midnightblue" points="622.81,-491.056 631.359,-484.797 620.773,-484.359 622.81,-491.056"/>
</g>
<!-- Node7&#45;&gt;Node5 -->
<g id="edge8" class="edge"><title>Node7&#45;&gt;Node5</title>
<path fill="none" stroke="midnightblue" d="M584.114,-395.432C642.441,-393.872 731.904,-391.48 793.48,-389.833"/>
<polygon fill="midnightblue" stroke="midnightblue" points="793.591,-393.331 803.494,-389.565 793.404,-386.333 793.591,-393.331"/>
</g>
<!-- Node7&#45;&gt;Node6 -->
<g id="edge9" class="edge"><title>Node7&#45;&gt;Node6</title>
<path fill="none" stroke="midnightblue" d="M568.948,-417.529C590.873,-427.888 617.322,-440.385 638.908,-450.584"/>
<polygon fill="midnightblue" stroke="midnightblue" points="637.604,-453.839 648.141,-454.947 640.595,-447.51 637.604,-453.839"/>
</g>
<!-- Node8&#45;&gt;Node5 -->
<g id="edge11" class="edge"><title>Node8&#45;&gt;Node5</title>
<path fill="none" stroke="midnightblue" d="M566.246,-221.536C572.228,-224.655 578.294,-227.875 584,-231 600.247,-239.896 603.925,-242.796 620,-252 688.114,-291.003 767.507,-335.423 816.26,-362.582"/>
<polygon fill="midnightblue" stroke="midnightblue" points="814.557,-365.64 824.997,-367.447 817.963,-359.524 814.557,-365.64"/>
</g>
<!-- Node9 -->
<g id="node9" class="node"><title>Node9</title>
<g id="a_node9"><a xlink:href="classqtreports_1_1detail_1_1_replacer.html#af7ccb83be264f7c72b7485cf38455450" target="_top" xlink:title="Заменяет текст всех виджетов секции текстом с подставленными значениями. ">
<polygon fill="none" stroke="black" points="631.5,-164 631.5,-194 730.5,-194 730.5,-164 631.5,-164"/>
<text text-anchor="start" x="639.5" y="-182" font-family="Helvetica,sans-Serif" font-size="10.00">qtreports::detail::</text>
<text text-anchor="middle" x="681" y="-171" font-family="Helvetica,sans-Serif" font-size="10.00">Replacer::replace</text>
</a>
</g>
</g>
<!-- Node8&#45;&gt;Node9 -->
<g id="edge12" class="edge"><title>Node8&#45;&gt;Node9</title>
<path fill="none" stroke="midnightblue" d="M584.351,-192.62C596.476,-190.893 609.243,-189.075 621.361,-187.35"/>
<polygon fill="midnightblue" stroke="midnightblue" points="621.952,-190.801 631.359,-185.926 620.965,-183.871 621.952,-190.801"/>
</g>
<!-- Node16 -->
<g id="node16" class="node"><title>Node16</title>
<g id="a_node16"><a xlink:href="classqtreports_1_1detail_1_1_replacer.html#a677f7802e444f2de3af4cb43b6cedf30" target="_top" xlink:title="Возвращает описание последней произошедшей ошибки. ">
<polygon fill="none" stroke="black" points="620,-213 620,-243 742,-243 742,-213 620,-213"/>
<text text-anchor="start" x="628" y="-231" font-family="Helvetica,sans-Serif" font-size="10.00">qtreports::detail::</text>
<text text-anchor="middle" x="681" y="-220" font-family="Helvetica,sans-Serif" font-size="10.00">Replacer::getLastError</text>
</a>
</g>
</g>
<!-- Node8&#45;&gt;Node16 -->
<g id="edge19" class="edge"><title>Node8&#45;&gt;Node16</title>
<path fill="none" stroke="midnightblue" d="M584.351,-211.285C592.686,-212.741 601.326,-214.251 609.849,-215.741"/>
<polygon fill="midnightblue" stroke="midnightblue" points="609.322,-219.202 619.775,-217.475 610.527,-212.306 609.322,-219.202"/>
</g>
<!-- Node17 -->
<g id="node17" class="node"><title>Node17</title>
<g id="a_node17"><a xlink:href="classqtreports_1_1detail_1_1_converter_to_q_widget.html#aa3be16e037533a4a5b58596087207187" target="_top" xlink:title="Создает band. ">
<polygon fill="none" stroke="black" points="621.5,-104.5 621.5,-145.5 740.5,-145.5 740.5,-104.5 621.5,-104.5"/>
<text text-anchor="start" x="629.5" y="-133.5" font-family="Helvetica,sans-Serif" font-size="10.00">qtreports::detail::</text>
<text text-anchor="start" x="629.5" y="-122.5" font-family="Helvetica,sans-Serif" font-size="10.00">ConverterToQWidget::</text>
<text text-anchor="middle" x="681" y="-111.5" font-family="Helvetica,sans-Serif" font-size="10.00">createBands</text>
</a>
</g>
</g>
<!-- Node8&#45;&gt;Node17 -->
<g id="edge20" class="edge"><title>Node8&#45;&gt;Node17</title>
<path fill="none" stroke="midnightblue" d="M566.85,-180.308C583.362,-172.079 602.561,-162.551 620,-154 622.717,-152.668 625.505,-151.305 628.322,-149.932"/>
<polygon fill="midnightblue" stroke="midnightblue" points="629.899,-153.057 637.361,-145.536 626.837,-146.762 629.899,-153.057"/>
</g>
<!-- Node10 -->
<g id="node10" class="node"><title>Node10</title>
<g id="a_node10"><a xlink:href="classqtreports_1_1detail_1_1_replacer.html#a58cf857aa78eb3e273f6543769af425b" target="_top" xlink:title="Заменяет текст всех виджетов секции текстом с подставленными значениями полей из источника данных...">
<polygon fill="none" stroke="black" points="781,-229 781,-259 945,-259 945,-229 781,-229"/>
<text text-anchor="start" x="789" y="-247" font-family="Helvetica,sans-Serif" font-size="10.00">qtreports::detail::</text>
<text text-anchor="middle" x="863" y="-236" font-family="Helvetica,sans-Serif" font-size="10.00">Replacer::replaceFieldInSection</text>
</a>
</g>
</g>
<!-- Node9&#45;&gt;Node10 -->
<g id="edge13" class="edge"><title>Node9&#45;&gt;Node10</title>
<path fill="none" stroke="midnightblue" d="M720.177,-194.02C727.443,-196.95 734.971,-200.034 742,-203 758.131,-209.808 761.575,-212.935 778,-219 784.329,-221.337 790.986,-223.615 797.668,-225.784"/>
<polygon fill="midnightblue" stroke="midnightblue" points="796.848,-229.195 807.438,-228.877 798.961,-222.522 796.848,-229.195"/>
</g>
<!-- Node15 -->
<g id="node15" class="node"><title>Node15</title>
<g id="a_node15"><a xlink:href="classqtreports_1_1detail_1_1_replacer.html#abb903f1c1172efa7e26b040a5695cc86" target="_top" xlink:title="Возвращает текст с подставленными значениями параметров. ">
<polygon fill="none" stroke="black" points="786,-180 786,-210 940,-210 940,-180 786,-180"/>
<text text-anchor="start" x="794" y="-198" font-family="Helvetica,sans-Serif" font-size="10.00">qtreports::detail::</text>
<text text-anchor="middle" x="863" y="-187" font-family="Helvetica,sans-Serif" font-size="10.00">Replacer::replaceParameters</text>
</a>
</g>
</g>
<!-- Node9&#45;&gt;Node15 -->
<g id="edge18" class="edge"><title>Node9&#45;&gt;Node15</title>
<path fill="none" stroke="midnightblue" d="M730.711,-183.33C744.632,-184.567 760.236,-185.954 775.695,-187.328"/>
<polygon fill="midnightblue" stroke="midnightblue" points="775.543,-190.829 785.814,-188.228 776.163,-183.856 775.543,-190.829"/>
</g>
<!-- Node11 -->
<g id="node11" class="node"><title>Node11</title>
<g id="a_node11"><a xlink:href="classqtreports_1_1detail_1_1_replacer.html#a2be57bd514335f9b9f2a520247562ce1" target="_top" xlink:title="Заменяет текст виджета текстом с подставленными значениями полей из источника данных. ">
<polygon fill="none" stroke="black" points="993,-180.5 993,-221.5 1139,-221.5 1139,-180.5 993,-180.5"/>
<text text-anchor="start" x="1001" y="-209.5" font-family="Helvetica,sans-Serif" font-size="10.00">qtreports::detail::</text>
<text text-anchor="start" x="1001" y="-198.5" font-family="Helvetica,sans-Serif" font-size="10.00">Replacer::replaceFieldInText</text>
<text text-anchor="middle" x="1066" y="-187.5" font-family="Helvetica,sans-Serif" font-size="10.00">Widget</text>
</a>
</g>
</g>
<!-- Node10&#45;&gt;Node11 -->
<g id="edge14" class="edge"><title>Node10&#45;&gt;Node11</title>
<path fill="none" stroke="midnightblue" d="M934.3,-228.961C949.956,-225.611 966.691,-222.031 982.778,-218.59"/>
<polygon fill="midnightblue" stroke="midnightblue" points="983.65,-221.983 992.696,-216.468 982.185,-215.137 983.65,-221.983"/>
</g>
<!-- Node13 -->
<g id="node13" class="node"><title>Node13</title>
<g id="a_node13"><a xlink:href="classqtreports_1_1detail_1_1_replacer.html#a4aeb7794f90c0be34a30ab60a6df1920" target="_top" xlink:title="На основе текста виджета вставляет в него изображение из источника данных. ">
<polygon fill="none" stroke="black" points="987,-240.5 987,-281.5 1145,-281.5 1145,-240.5 987,-240.5"/>
<text text-anchor="start" x="995" y="-269.5" font-family="Helvetica,sans-Serif" font-size="10.00">qtreports::detail::</text>
<text text-anchor="start" x="995" y="-258.5" font-family="Helvetica,sans-Serif" font-size="10.00">Replacer::replaceFieldInImage</text>
<text text-anchor="middle" x="1066" y="-247.5" font-family="Helvetica,sans-Serif" font-size="10.00">Widget</text>
</a>
</g>
</g>
<!-- Node10&#45;&gt;Node13 -->
<g id="edge16" class="edge"><title>Node10&#45;&gt;Node13</title>
<path fill="none" stroke="midnightblue" d="M945.175,-250.866C955.579,-251.745 966.269,-252.65 976.778,-253.538"/>
<polygon fill="midnightblue" stroke="midnightblue" points="976.523,-257.029 986.782,-254.385 977.113,-250.054 976.523,-257.029"/>
</g>
<!-- Node12 -->
<g id="node12" class="node"><title>Node12</title>
<g id="a_node12"><a xlink:href="classqtreports_1_1detail_1_1_replacer.html#a4642b07160798f2ee4de276e1d0c1ecd" target="_top" xlink:title="Возвращает текст с подставленными значениями полей из источника данных. ">
<polygon fill="none" stroke="black" points="1199,-156 1199,-186 1318,-186 1318,-156 1199,-156"/>
<text text-anchor="start" x="1207" y="-174" font-family="Helvetica,sans-Serif" font-size="10.00">qtreports::detail::</text>
<text text-anchor="middle" x="1258.5" y="-163" font-family="Helvetica,sans-Serif" font-size="10.00">Replacer::replaceField</text>
</a>
</g>
</g>
<!-- Node11&#45;&gt;Node12 -->
<g id="edge15" class="edge"><title>Node11&#45;&gt;Node12</title>
<path fill="none" stroke="midnightblue" d="M1139.02,-189.658C1155.34,-187.089 1172.62,-184.367 1188.8,-181.819"/>
<polygon fill="midnightblue" stroke="midnightblue" points="1189.37,-185.272 1198.71,-180.259 1188.28,-178.357 1189.37,-185.272"/>
</g>
<!-- Node14 -->
<g id="node14" class="node"><title>Node14</title>
<g id="a_node14"><a xlink:href="classqtreports_1_1detail_1_1_replacer.html#ae1ac521aeaf5fdd694e79e2ae52d4704" target="_top" xlink:title="Возвращает изображение на основе первого найденного выражения. ">
<polygon fill="none" stroke="black" points="1184,-246 1184,-276 1333,-276 1333,-246 1184,-246"/>
<text text-anchor="start" x="1192" y="-264" font-family="Helvetica,sans-Serif" font-size="10.00">qtreports::detail::</text>
<text text-anchor="middle" x="1258.5" y="-253" font-family="Helvetica,sans-Serif" font-size="10.00">Replacer::replaceFieldImage</text>
</a>
</g>
</g>
<!-- Node13&#45;&gt;Node14 -->
<g id="edge17" class="edge"><title>Node13&#45;&gt;Node14</title>
<path fill="none" stroke="midnightblue" d="M1145.03,-261C1154.47,-261 1164.13,-261 1173.64,-261"/>
<polygon fill="midnightblue" stroke="midnightblue" points="1173.89,-264.5 1183.88,-261 1173.88,-257.5 1173.89,-264.5"/>
</g>
<!-- Node17&#45;&gt;Node3 -->
<g id="edge21" class="edge"><title>Node17&#45;&gt;Node3</title>
<path fill="none" stroke="midnightblue" d="M704.625,-104.242C723.227,-88.0258 750.851,-65.8268 778,-51 783.05,-48.2422 788.403,-45.6529 793.866,-43.2414"/>
<polygon fill="midnightblue" stroke="midnightblue" points="795.263,-46.451 803.128,-39.3523 792.553,-39.9968 795.263,-46.451"/>
</g>
<!-- Node17&#45;&gt;Node5 -->
<g id="edge22" class="edge"><title>Node17&#45;&gt;Node5</title>
<path fill="none" stroke="midnightblue" d="M733.019,-145.675C736.304,-148.171 739.351,-150.938 742,-154 776.764,-194.182 754.493,-220.35 778,-268 794.434,-301.311 819.459,-335.675 837.923,-359.046"/>
<polygon fill="midnightblue" stroke="midnightblue" points="835.419,-361.518 844.401,-367.136 840.883,-357.143 835.419,-361.518"/>
</g>
<!-- Node18 -->
<g id="node18" class="node"><title>Node18</title>
<g id="a_node18"><a xlink:href="classqtreports_1_1detail_1_1_replacer.html#aa9fa83cf51d75301b62e11a0a93e2dcc" target="_top" xlink:title="qtreports::detail::\lReplacer::replaceColumnGroups\lInCrosstab">
<polygon fill="none" stroke="black" points="778,-120.5 778,-161.5 948,-161.5 948,-120.5 778,-120.5"/>
<text text-anchor="start" x="786" y="-149.5" font-family="Helvetica,sans-Serif" font-size="10.00">qtreports::detail::</text>
<text text-anchor="start" x="786" y="-138.5" font-family="Helvetica,sans-Serif" font-size="10.00">Replacer::replaceColumnGroups</text>
<text text-anchor="middle" x="863" y="-127.5" font-family="Helvetica,sans-Serif" font-size="10.00">InCrosstab</text>
</a>
</g>
</g>
<!-- Node17&#45;&gt;Node18 -->
<g id="edge23" class="edge"><title>Node17&#45;&gt;Node18</title>
<path fill="none" stroke="midnightblue" d="M740.939,-130.239C749.506,-131.001 758.501,-131.8 767.556,-132.605"/>
<polygon fill="midnightblue" stroke="midnightblue" points="767.514,-136.115 777.785,-133.514 768.134,-129.142 767.514,-136.115"/>
</g>
<!-- Node20 -->
<g id="node20" class="node"><title>Node20</title>
<g id="a_node20"><a xlink:href="classqtreports_1_1detail_1_1_replacer.html#ae0f12ba0e77e9ef89b9479272e843fe6" target="_top" xlink:title="qtreports::detail::\lReplacer::replaceRowGroups\lInCrosstab">
<polygon fill="none" stroke="black" points="787.5,-60.5 787.5,-101.5 938.5,-101.5 938.5,-60.5 787.5,-60.5"/>
<text text-anchor="start" x="795.5" y="-89.5" font-family="Helvetica,sans-Serif" font-size="10.00">qtreports::detail::</text>
<text text-anchor="start" x="795.5" y="-78.5" font-family="Helvetica,sans-Serif" font-size="10.00">Replacer::replaceRowGroups</text>
<text text-anchor="middle" x="863" y="-67.5" font-family="Helvetica,sans-Serif" font-size="10.00">InCrosstab</text>
</a>
</g>
</g>
<!-- Node17&#45;&gt;Node20 -->
<g id="edge26" class="edge"><title>Node17&#45;&gt;Node20</title>
<path fill="none" stroke="midnightblue" d="M740.939,-110.593C752.67,-107.725 765.203,-104.661 777.595,-101.632"/>
<polygon fill="midnightblue" stroke="midnightblue" points="778.601,-104.99 787.484,-99.2151 776.939,-98.1898 778.601,-104.99"/>
</g>
<!-- Node19 -->
<g id="node19" class="node"><title>Node19</title>
<g id="a_node19"><a xlink:href="classqtreports_1_1detail_1_1_replacer.html#a781b476a4e964da9e5afe4f642b2f275" target="_top" xlink:title="qtreports::detail::\lReplacer::replaceColumnGroup\lInCrosstab">
<polygon fill="none" stroke="black" points="984,-120.5 984,-161.5 1148,-161.5 1148,-120.5 984,-120.5"/>
<text text-anchor="start" x="992" y="-149.5" font-family="Helvetica,sans-Serif" font-size="10.00">qtreports::detail::</text>
<text text-anchor="start" x="992" y="-138.5" font-family="Helvetica,sans-Serif" font-size="10.00">Replacer::replaceColumnGroup</text>
<text text-anchor="middle" x="1066" y="-127.5" font-family="Helvetica,sans-Serif" font-size="10.00">InCrosstab</text>
</a>
</g>
</g>
<!-- Node18&#45;&gt;Node19 -->
<g id="edge24" class="edge"><title>Node18&#45;&gt;Node19</title>
<path fill="none" stroke="midnightblue" d="M948.077,-141C956.583,-141 965.249,-141 973.825,-141"/>
<polygon fill="midnightblue" stroke="midnightblue" points="973.834,-144.5 983.834,-141 973.834,-137.5 973.834,-144.5"/>
</g>
<!-- Node19&#45;&gt;Node12 -->
<g id="edge25" class="edge"><title>Node19&#45;&gt;Node12</title>
<path fill="none" stroke="midnightblue" d="M1148.07,-153.766C1161.62,-155.901 1175.57,-158.098 1188.78,-160.178"/>
<polygon fill="midnightblue" stroke="midnightblue" points="1188.3,-163.645 1198.72,-161.743 1189.39,-156.73 1188.3,-163.645"/>
</g>
<!-- Node21 -->
<g id="node21" class="node"><title>Node21</title>
<g id="a_node21"><a xlink:href="classqtreports_1_1detail_1_1_replacer.html#a2114b58c90fe02b17e7bf99e144013b6" target="_top" xlink:title="qtreports::detail::\lReplacer::replaceRowGroupIn\lCrosstab">
<polygon fill="none" stroke="black" points="989,-60.5 989,-101.5 1143,-101.5 1143,-60.5 989,-60.5"/>
<text text-anchor="start" x="997" y="-89.5" font-family="Helvetica,sans-Serif" font-size="10.00">qtreports::detail::</text>
<text text-anchor="start" x="997" y="-78.5" font-family="Helvetica,sans-Serif" font-size="10.00">Replacer::replaceRowGroupIn</text>
<text text-anchor="middle" x="1066" y="-67.5" font-family="Helvetica,sans-Serif" font-size="10.00">Crosstab</text>
</a>
</g>
</g>
<!-- Node20&#45;&gt;Node21 -->
<g id="edge27" class="edge"><title>Node20&#45;&gt;Node21</title>
<path fill="none" stroke="midnightblue" d="M938.559,-81C951.647,-81 965.364,-81 978.738,-81"/>
<polygon fill="midnightblue" stroke="midnightblue" points="978.882,-84.5001 988.882,-81 978.882,-77.5001 978.882,-84.5001"/>
</g>
<!-- Node21&#45;&gt;Node12 -->
<g id="edge28" class="edge"><title>Node21&#45;&gt;Node12</title>
<path fill="none" stroke="midnightblue" d="M1125.82,-101.624C1133.35,-104.604 1140.91,-107.764 1148,-111 1174.06,-122.887 1202.39,-138.486 1223.7,-150.8"/>
<polygon fill="midnightblue" stroke="midnightblue" points="1221.98,-153.846 1232.38,-155.855 1225.5,-147.797 1221.98,-153.846"/>
</g>
<!-- Node22&#45;&gt;Node5 -->
<g id="edge31" class="edge"><title>Node22&#45;&gt;Node5</title>
<path fill="none" stroke="midnightblue" d="M429.298,-336.058C520.6,-347.018 696.036,-368.078 793.128,-379.733"/>
<polygon fill="midnightblue" stroke="midnightblue" points="792.788,-383.217 803.134,-380.934 793.623,-376.267 792.788,-383.217"/>
</g>
<!-- Node22&#45;&gt;Node7 -->
<g id="edge32" class="edge"><title>Node22&#45;&gt;Node7</title>
<path fill="none" stroke="midnightblue" d="M416.82,-349.587C432.998,-356.777 451.32,-364.92 468.158,-372.404"/>
<polygon fill="midnightblue" stroke="midnightblue" points="466.778,-375.62 477.337,-376.483 469.621,-369.223 466.778,-375.62"/>
</g>
<!-- Node22&#45;&gt;Node8 -->
<g id="edge33" class="edge"><title>Node22&#45;&gt;Node8</title>
<path fill="none" stroke="midnightblue" d="M386.932,-308.297C404.582,-287.008 434.259,-253.827 465,-231 466.824,-229.645 468.718,-228.32 470.661,-227.028"/>
<polygon fill="midnightblue" stroke="midnightblue" points="472.773,-229.836 479.417,-221.583 469.076,-223.892 472.773,-229.836"/>
</g>
<!-- Node22&#45;&gt;Node12 -->
<g id="edge30" class="edge"><title>Node22&#45;&gt;Node12</title>
<path fill="none" stroke="midnightblue" d="M429.192,-323.248C491.393,-317.656 592.52,-310 680,-310 680,-310 680,-310 864,-310 990.504,-310 1038.79,-354.845 1148,-291 1173.22,-276.255 1164.89,-258.096 1184,-236 1197.69,-220.168 1215.18,-204.559 1229.66,-192.606"/>
<polygon fill="midnightblue" stroke="midnightblue" points="1232.22,-195.033 1237.78,-186.017 1227.81,-189.596 1232.22,-195.033"/>
</g>
<!-- Node23 -->
<g id="node23" class="node"><title>Node23</title>
<g id="a_node23"><a xlink:href="classqtreports_1_1detail_1_1_converter_to_q_widget.html#a5e49976fe8fac12633ccda1ba928b9b1" target="_top" xlink:title="Проверяет, является ли виджет типа WidgetType::Report. ">
<polygon fill="none" stroke="black" points="465,-240.5 465,-281.5 584,-281.5 584,-240.5 465,-240.5"/>
<text text-anchor="start" x="473" y="-269.5" font-family="Helvetica,sans-Serif" font-size="10.00">qtreports::detail::</text>
<text text-anchor="start" x="473" y="-258.5" font-family="Helvetica,sans-Serif" font-size="10.00">ConverterToQWidget::</text>
<text text-anchor="middle" x="524.5" y="-247.5" font-family="Helvetica,sans-Serif" font-size="10.00">isReport</text>
</a>
</g>
</g>
<!-- Node22&#45;&gt;Node23 -->
<g id="edge34" class="edge"><title>Node22&#45;&gt;Node23</title>
<path fill="none" stroke="midnightblue" d="M416.82,-308.413C432.998,-301.223 451.32,-293.08 468.158,-285.596"/>
<polygon fill="midnightblue" stroke="midnightblue" points="469.621,-288.777 477.337,-281.517 466.778,-282.38 469.621,-288.777"/>
</g>
<!-- Node24&#45;&gt;Node5 -->
<g id="edge36" class="edge"><title>Node24&#45;&gt;Node5</title>
<path fill="none" stroke="midnightblue" d="M584.114,-444.981C642.441,-433.021 731.904,-414.677 793.48,-402.05"/>
<polygon fill="midnightblue" stroke="midnightblue" points="794.401,-405.434 803.494,-399.997 792.995,-398.577 794.401,-405.434"/>
</g>
<!-- Node24&#45;&gt;Node6 -->
<g id="edge37" class="edge"><title>Node24&#45;&gt;Node6</title>
<path fill="none" stroke="midnightblue" d="M584.351,-461.952C596.476,-462.972 609.243,-464.046 621.361,-465.066"/>
<polygon fill="midnightblue" stroke="midnightblue" points="621.1,-468.556 631.359,-465.907 621.687,-461.581 621.1,-468.556"/>
</g>
</g>
</svg>
