<?xml version="1.0" encoding="UTF-8" standalone="no"?>
<!DOCTYPE svg PUBLIC "-//W3C//DTD SVG 1.1//EN"
 "http://www.w3.org/Graphics/SVG/1.1/DTD/svg11.dtd">
<!-- Generated by graphviz version 2.38.0 (20140413.2041)
 -->
<!-- Title: qtreports::detail::Rect Pages: 1 -->
<!--zoomable 734 -->
<svg id="main" version="1.1" xmlns="http://www.w3.org/2000/svg" xmlns:xlink="http://www.w3.org/1999/xlink" xml:space="preserve" onload="init(evt)">
<style type="text/css"><![CDATA[
.edge:hover path { stroke: red; }
.edge:hover polygon { stroke: red; fill: red; }
]]></style>
<script type="text/javascript"><![CDATA[
var edges = document.getElementsByTagName('g');
if (edges && edges.length) {
  for (var i=0;i<edges.length;i++) {
    if (edges[i].id.substr(0,4)=='edge') {
      edges[i].setAttribute('class','edge');
    }
  }
}
]]></script>
        <defs>
                <circle id="rim" cx="0" cy="0" r="7"/>
                <circle id="rim2" cx="0" cy="0" r="3.5"/>
                <g id="zoomPlus">
                        <use xlink:href="#rim" fill="#404040">
                                <set attributeName="fill" to="#808080" begin="zoomplus.mouseover" end="zoomplus.mouseout"/>
                        </use>
                        <path d="M-4,0h8M0,-4v8" fill="none" stroke="white" stroke-width="1.5" pointer-events="none"/>
                </g>
                <g id="zoomMin">
                        <use xlink:href="#rim" fill="#404040">
                                <set attributeName="fill" to="#808080" begin="zoomminus.mouseover" end="zoomminus.mouseout"/>
                        </use>
                        <path d="M-4,0h8" fill="none" stroke="white" stroke-width="1.5" pointer-events="none"/>
                </g>
                <g id="dirArrow">
                        <path fill="none" stroke="white" stroke-width="1.5" d="M0,-3.0v7 M-2.5,-0.5L0,-3.0L2.5,-0.5"/>
                </g>
               <g id="resetDef">
                       <use xlink:href="#rim2" fill="#404040">
                               <set attributeName="fill" to="#808080" begin="reset.mouseover" end="reset.mouseout"/>
                       </use>
               </g>
        </defs>

<script type="text/javascript">
var viewWidth = 395;
var viewHeight = 734;
var sectionId = 'dynsection-1';
</script>
<script xlink:href="svgpan.js"/>
<svg id="graph" class="graph">
<g id="viewport">
<title>qtreports::detail::Rect</title>
<!-- Node1 -->
<g id="node1" class="node"><title>Node1</title>
<polygon fill="#bfbfbf" stroke="black" points="137.268,-0.5 137.268,-68.5 256.268,-68.5 256.268,-0.5 137.268,-0.5"/>
<text text-anchor="middle" x="196.768" y="-56.5" font-family="Helvetica,sans-Serif" font-size="10.00">qtreports::detail::Rect</text>
<polyline fill="none" stroke="black" points="137.268,-49.5 256.268,-49.5 "/>
<text text-anchor="middle" x="196.768" y="-37.5" font-family="Helvetica,sans-Serif" font-size="10.00"> </text>
<polyline fill="none" stroke="black" points="137.268,-30.5 256.268,-30.5 "/>
<text text-anchor="start" x="145.268" y="-18.5" font-family="Helvetica,sans-Serif" font-size="10.00">+ Rect()</text>
<text text-anchor="start" x="145.268" y="-7.5" font-family="Helvetica,sans-Serif" font-size="10.00">+ ~Rect()</text>
</g>
<!-- Node2 -->
<g id="node2" class="node"><title>Node2</title>
<g id="a_node2"><a xlink:href="classqtreports_1_1detail_1_1_widget.html" target="_top" xlink:title="Базовый класс для тэгов, которые подлежат отображению ">
<polygon fill="none" stroke="black" points="146.768,-106.5 146.768,-405.5 246.768,-405.5 246.768,-106.5 146.768,-106.5"/>
<text text-anchor="start" x="154.768" y="-393.5" font-family="Helvetica,sans-Serif" font-size="10.00">qtreports::detail::</text>
<text text-anchor="middle" x="196.768" y="-382.5" font-family="Helvetica,sans-Serif" font-size="10.00">Widget</text>
<polyline fill="none" stroke="black" points="146.768,-375.5 246.768,-375.5 "/>
<text text-anchor="middle" x="196.768" y="-363.5" font-family="Helvetica,sans-Serif" font-size="10.00"> </text>
<polyline fill="none" stroke="black" points="146.768,-356.5 246.768,-356.5 "/>
<text text-anchor="start" x="154.768" y="-344.5" font-family="Helvetica,sans-Serif" font-size="10.00">+ Widget()</text>
<text text-anchor="start" x="154.768" y="-333.5" font-family="Helvetica,sans-Serif" font-size="10.00">+ ~Widget()</text>
<text text-anchor="start" x="154.768" y="-322.5" font-family="Helvetica,sans-Serif" font-size="10.00">+ setPosition()</text>
<text text-anchor="start" x="154.768" y="-311.5" font-family="Helvetica,sans-Serif" font-size="10.00">+ setX()</text>
<text text-anchor="start" x="154.768" y="-300.5" font-family="Helvetica,sans-Serif" font-size="10.00">+ setY()</text>
<text text-anchor="start" x="154.768" y="-289.5" font-family="Helvetica,sans-Serif" font-size="10.00">+ setSize()</text>
<text text-anchor="start" x="154.768" y="-278.5" font-family="Helvetica,sans-Serif" font-size="10.00">+ setWidth()</text>
<text text-anchor="start" x="154.768" y="-267.5" font-family="Helvetica,sans-Serif" font-size="10.00">+ setHeight()</text>
<text text-anchor="start" x="154.768" y="-256.5" font-family="Helvetica,sans-Serif" font-size="10.00">+ setRect()</text>
<text text-anchor="start" x="154.768" y="-245.5" font-family="Helvetica,sans-Serif" font-size="10.00">+ setStyle()</text>
<text text-anchor="start" x="154.768" y="-234.5" font-family="Helvetica,sans-Serif" font-size="10.00">+ setAlignment()</text>
<text text-anchor="start" x="154.768" y="-223.5" font-family="Helvetica,sans-Serif" font-size="10.00">+ getAlignment()</text>
<text text-anchor="start" x="154.768" y="-212.5" font-family="Helvetica,sans-Serif" font-size="10.00">+ getPos()</text>
<text text-anchor="start" x="154.768" y="-201.5" font-family="Helvetica,sans-Serif" font-size="10.00">+ getX()</text>
<text text-anchor="start" x="154.768" y="-190.5" font-family="Helvetica,sans-Serif" font-size="10.00">+ getY()</text>
<text text-anchor="start" x="154.768" y="-179.5" font-family="Helvetica,sans-Serif" font-size="10.00">+ getSize()</text>
<text text-anchor="start" x="154.768" y="-168.5" font-family="Helvetica,sans-Serif" font-size="10.00">+ getWidth()</text>
<text text-anchor="start" x="154.768" y="-157.5" font-family="Helvetica,sans-Serif" font-size="10.00">+ getHeight()</text>
<text text-anchor="start" x="154.768" y="-146.5" font-family="Helvetica,sans-Serif" font-size="10.00">+ getRect()</text>
<text text-anchor="start" x="154.768" y="-135.5" font-family="Helvetica,sans-Serif" font-size="10.00">+ getStyle()</text>
<text text-anchor="start" x="154.768" y="-124.5" font-family="Helvetica,sans-Serif" font-size="10.00">+ isBold()</text>
<text text-anchor="start" x="154.768" y="-113.5" font-family="Helvetica,sans-Serif" font-size="10.00">+ setBold()</text>
</a>
</g>
</g>
<!-- Node2&#45;&gt;Node1 -->
<g id="edge1" class="edge"><title>Node2&#45;&gt;Node1</title>
<path fill="none" stroke="midnightblue" d="M196.768,-96.1857C196.768,-86.1233 196.768,-76.7537 196.768,-68.533"/>
<polygon fill="none" stroke="midnightblue" points="193.268,-96.4622 196.768,-106.462 200.268,-96.4623 193.268,-96.4622"/>
</g>
<!-- Node3 -->
<g id="node3" class="node"><title>Node3</title>
<g id="a_node3"><a xlink:href="classqtreports_1_1detail_1_1_object.html" target="_top" xlink:title="Базовый класс для любого тэга ">
<polygon fill="none" stroke="black" points="71.2682,-453.5 71.2682,-598.5 170.268,-598.5 170.268,-453.5 71.2682,-453.5"/>
<text text-anchor="start" x="79.2682" y="-586.5" font-family="Helvetica,sans-Serif" font-size="10.00">qtreports::detail::</text>
<text text-anchor="middle" x="120.768" y="-575.5" font-family="Helvetica,sans-Serif" font-size="10.00">Object</text>
<polyline fill="none" stroke="black" points="71.2682,-568.5 170.268,-568.5 "/>
<text text-anchor="middle" x="120.768" y="-556.5" font-family="Helvetica,sans-Serif" font-size="10.00"> </text>
<polyline fill="none" stroke="black" points="71.2682,-549.5 170.268,-549.5 "/>
<text text-anchor="start" x="79.2682" y="-537.5" font-family="Helvetica,sans-Serif" font-size="10.00">+ Object()</text>
<text text-anchor="start" x="79.2682" y="-526.5" font-family="Helvetica,sans-Serif" font-size="10.00">+ Object()</text>
<text text-anchor="start" x="79.2682" y="-515.5" font-family="Helvetica,sans-Serif" font-size="10.00">+ ~Object()</text>
<text text-anchor="start" x="79.2682" y="-504.5" font-family="Helvetica,sans-Serif" font-size="10.00">+ setName()</text>
<text text-anchor="start" x="79.2682" y="-493.5" font-family="Helvetica,sans-Serif" font-size="10.00">+ getName()</text>
<text text-anchor="start" x="79.2682" y="-482.5" font-family="Helvetica,sans-Serif" font-size="10.00">+ setTagName()</text>
<text text-anchor="start" x="79.2682" y="-471.5" font-family="Helvetica,sans-Serif" font-size="10.00">+ getTagName()</text>
<text text-anchor="start" x="79.2682" y="-460.5" font-family="Helvetica,sans-Serif" font-size="10.00">+ getLastError()</text>
</a>
</g>
</g>
<!-- Node3&#45;&gt;Node2 -->
<g id="edge2" class="edge"><title>Node3&#45;&gt;Node2</title>
<path fill="none" stroke="midnightblue" d="M143.955,-443.235C147.37,-431.195 150.973,-418.487 154.629,-405.598"/>
<polygon fill="none" stroke="midnightblue" points="140.496,-442.605 141.135,-453.181 147.23,-444.515 140.496,-442.605"/>
</g>
<!-- Node4 -->
<g id="node4" class="node"><title>Node4</title>
<polygon fill="none" stroke="#bfbfbf" points="14.2682,-668.5 14.2682,-725.5 67.2682,-725.5 67.2682,-668.5 14.2682,-668.5"/>
<text text-anchor="middle" x="40.7682" y="-713.5" font-family="Helvetica,sans-Serif" font-size="10.00">QString</text>
<polyline fill="none" stroke="#bfbfbf" points="14.2682,-706.5 67.2682,-706.5 "/>
<text text-anchor="middle" x="40.7682" y="-694.5" font-family="Helvetica,sans-Serif" font-size="10.00"> </text>
<polyline fill="none" stroke="#bfbfbf" points="14.2682,-687.5 67.2682,-687.5 "/>
<text text-anchor="middle" x="40.7682" y="-675.5" font-family="Helvetica,sans-Serif" font-size="10.00"> </text>
</g>
<!-- Node4&#45;&gt;Node2 -->
<g id="edge4" class="edge"><title>Node4&#45;&gt;Node2</title>
<path fill="none" stroke="#404040" d="M29.2523,-668.277C11.8013,-621.953 -16.3817,-526.641 12.7682,-453 37.7341,-389.929 93.6568,-335.3 137.34,-299.855"/>
<polygon fill="none" stroke="#404040" points="137.355,-299.843 139.556,-292.976 146.741,-292.367 144.54,-299.234 137.355,-299.843"/>
<text text-anchor="middle" x="37.2682" y="-523.5" font-family="Helvetica,sans-Serif" font-size="10.00"> #m_style</text>
</g>
<!-- Node4&#45;&gt;Node3 -->
<g id="edge3" class="edge"><title>Node4&#45;&gt;Node3</title>
<path fill="none" stroke="#404040" d="M53.7997,-668.471C61.4534,-652.303 71.5729,-630.925 81.6207,-609.699"/>
<polygon fill="none" stroke="#404040" points="81.7207,-609.488 80.6725,-602.353 86.8551,-598.642 87.9033,-605.776 81.7207,-609.488"/>
<text text-anchor="middle" x="112.768" y="-642" font-family="Helvetica,sans-Serif" font-size="10.00"> #m_tagName</text>
<text text-anchor="middle" x="112.768" y="-631" font-family="Helvetica,sans-Serif" font-size="10.00">#m_name</text>
<text text-anchor="middle" x="112.768" y="-620" font-family="Helvetica,sans-Serif" font-size="10.00">#m_lastError</text>
</g>
<!-- Node5 -->
<g id="node5" class="node"><title>Node5</title>
<polygon fill="none" stroke="#bfbfbf" points="188.268,-497.5 188.268,-554.5 225.268,-554.5 225.268,-497.5 188.268,-497.5"/>
<text text-anchor="middle" x="206.768" y="-542.5" font-family="Helvetica,sans-Serif" font-size="10.00">bool</text>
<polyline fill="none" stroke="#bfbfbf" points="188.268,-535.5 225.268,-535.5 "/>
<text text-anchor="middle" x="206.768" y="-523.5" font-family="Helvetica,sans-Serif" font-size="10.00"> </text>
<polyline fill="none" stroke="#bfbfbf" points="188.268,-516.5 225.268,-516.5 "/>
<text text-anchor="middle" x="206.768" y="-504.5" font-family="Helvetica,sans-Serif" font-size="10.00"> </text>
</g>
<!-- Node5&#45;&gt;Node2 -->
<g id="edge5" class="edge"><title>Node5&#45;&gt;Node2</title>
<path fill="none" stroke="#404040" d="M203.339,-497.478C201.289,-479.687 198.875,-456.013 197.768,-435 197.469,-429.32 197.208,-423.536 196.98,-417.693"/>
<polygon fill="none" stroke="#404040" points="196.978,-417.624 192.771,-411.767 196.56,-405.631 200.766,-411.488 196.978,-417.624"/>
<text text-anchor="middle" x="225.268" y="-427" font-family="Helvetica,sans-Serif" font-size="10.00"> #m_isBold</text>
</g>
<!-- Node6 -->
<g id="node6" class="node"><title>Node6</title>
<polygon fill="none" stroke="#bfbfbf" points="252.768,-497.5 252.768,-554.5 296.768,-554.5 296.768,-497.5 252.768,-497.5"/>
<text text-anchor="middle" x="274.768" y="-542.5" font-family="Helvetica,sans-Serif" font-size="10.00">QRect</text>
<polyline fill="none" stroke="#bfbfbf" points="252.768,-535.5 296.768,-535.5 "/>
<text text-anchor="middle" x="274.768" y="-523.5" font-family="Helvetica,sans-Serif" font-size="10.00"> </text>
<polyline fill="none" stroke="#bfbfbf" points="252.768,-516.5 296.768,-516.5 "/>
<text text-anchor="middle" x="274.768" y="-504.5" font-family="Helvetica,sans-Serif" font-size="10.00"> </text>
</g>
<!-- Node6&#45;&gt;Node2 -->
<g id="edge6" class="edge"><title>Node6&#45;&gt;Node2</title>
<path fill="none" stroke="#404040" d="M269.595,-497.367C265.569,-476.955 259.541,-448.567 252.768,-424 251.95,-421.034 251.11,-418.042 250.251,-415.033"/>
<polygon fill="none" stroke="#404040" points="250.204,-414.869 244.685,-410.227 246.848,-403.348 252.366,-407.99 250.204,-414.869"/>
<text text-anchor="middle" x="278.768" y="-427" font-family="Helvetica,sans-Serif" font-size="10.00"> #m_rect</text>
</g>
<!-- Node7 -->
<g id="node7" class="node"><title>Node7</title>
<polygon fill="none" stroke="#bfbfbf" points="315.268,-497.5 315.268,-554.5 380.268,-554.5 380.268,-497.5 315.268,-497.5"/>
<text text-anchor="middle" x="347.768" y="-542.5" font-family="Helvetica,sans-Serif" font-size="10.00">Alignment</text>
<polyline fill="none" stroke="#bfbfbf" points="315.268,-535.5 380.268,-535.5 "/>
<text text-anchor="middle" x="347.768" y="-523.5" font-family="Helvetica,sans-Serif" font-size="10.00"> </text>
<polyline fill="none" stroke="#bfbfbf" points="315.268,-516.5 380.268,-516.5 "/>
<text text-anchor="middle" x="347.768" y="-504.5" font-family="Helvetica,sans-Serif" font-size="10.00"> </text>
</g>
<!-- Node7&#45;&gt;Node2 -->
<g id="edge7" class="edge"><title>Node7&#45;&gt;Node2</title>
<path fill="none" stroke="#404040" d="M337.86,-497.37C330.075,-476.711 318.457,-448.01 305.768,-424 290.419,-394.957 271.476,-364.503 253.71,-337.673"/>
<polygon fill="none" stroke="#404040" points="253.633,-337.558 246.974,-334.789 246.969,-327.578 253.627,-330.346 253.633,-337.558"/>
<text text-anchor="middle" x="349.268" y="-427" font-family="Helvetica,sans-Serif" font-size="10.00"> #m_alignment</text>
</g>
</g>
</svg>
        <g id="navigator" transform="translate(0 0)" fill="#404254">
                <rect fill="#f2f5e9" fill-opacity="0.5" stroke="#606060" stroke-width=".5" x="0" y="0" width="60" height="60"/>
                <use id="zoomplus" xlink:href="#zoomPlus" x="17" y="9" onmousedown="handleZoom(evt,'in')"/>
                <use id="zoomminus" xlink:href="#zoomMin" x="42" y="9" onmousedown="handleZoom(evt,'out')"/>
                <use id="reset" xlink:href="#resetDef" x="30" y="36" onmousedown="handleReset()"/>
                <g id="arrowUp" xlink:href="#dirArrow" transform="translate(30 24)" onmousedown="handlePan(0,-1)">
                  <use xlink:href="#rim" fill="#404040">
                        <set attributeName="fill" to="#808080" begin="arrowUp.mouseover" end="arrowUp.mouseout"/>
                  </use>
                  <path fill="none" stroke="white" stroke-width="1.5" d="M0,-3.0v7 M-2.5,-0.5L0,-3.0L2.5,-0.5"/>
                </g>
                <g id="arrowRight" xlink:href="#dirArrow" transform="rotate(90) translate(36 -43)" onmousedown="handlePan(1,0)">
                  <use xlink:href="#rim" fill="#404040">
                        <set attributeName="fill" to="#808080" begin="arrowRight.mouseover" end="arrowRight.mouseout"/>
                  </use>
                  <path fill="none" stroke="white" stroke-width="1.5" d="M0,-3.0v7 M-2.5,-0.5L0,-3.0L2.5,-0.5"/>
                </g>
                <g id="arrowDown" xlink:href="#dirArrow" transform="rotate(180) translate(-30 -48)" onmousedown="handlePan(0,1)">
                  <use xlink:href="#rim" fill="#404040">
                        <set attributeName="fill" to="#808080" begin="arrowDown.mouseover" end="arrowDown.mouseout"/>
                  </use>
                  <path fill="none" stroke="white" stroke-width="1.5" d="M0,-3.0v7 M-2.5,-0.5L0,-3.0L2.5,-0.5"/>
                </g>
                <g id="arrowLeft" xlink:href="#dirArrow" transform="rotate(270) translate(-36 17)" onmousedown="handlePan(-1,0)">
                  <use xlink:href="#rim" fill="#404040">
                        <set attributeName="fill" to="#808080" begin="arrowLeft.mouseover" end="arrowLeft.mouseout"/>
                  </use>
                  <path fill="none" stroke="white" stroke-width="1.5" d="M0,-3.0v7 M-2.5,-0.5L0,-3.0L2.5,-0.5"/>
                </g>
        </g>
        <svg viewBox="0 0 15 15" width="100%" height="30px" preserveAspectRatio="xMaxYMin meet">
         <g id="arrow_out" transform="scale(0.3 0.3)">
          <a xlink:href="classqtreports_1_1detail_1_1_rect__coll__graph_org.svg" target="_base">
           <rect id="button" ry="5" rx="5" y="6" x="6" height="38" width="38"
                fill="#f2f5e9" fill-opacity="0.5" stroke="#606060" stroke-width="1.0"/>
           <path id="arrow"
             d="M 11.500037,31.436501 C 11.940474,20.09759 22.043105,11.32322 32.158766,21.979434 L 37.068811,17.246167 C 37.068811,17.246167 37.088388,32 37.088388,32 L 22.160133,31.978069 C 22.160133,31.978069 26.997745,27.140456 26.997745,27.140456 C 18.528582,18.264221 13.291696,25.230495 11.500037,31.436501 z"
             style="fill:#404040;"/>
          </a>
         </g>
        </svg>
</svg>
