<?xml version="1.0" encoding="UTF-8" standalone="no"?>
<!DOCTYPE svg PUBLIC "-//W3C//DTD SVG 1.1//EN"
 "http://www.w3.org/Graphics/SVG/1.1/DTD/svg11.dtd">
<!-- Generated by graphviz version 2.38.0 (20140413.2041)
 -->
<!-- Title: qtreports::detail::ConverterToHTML::addBands Pages: 1 -->
<svg width="911pt" height="94pt"
 viewBox="0.00 0.00 911.00 93.50" xmlns="http://www.w3.org/2000/svg" xmlns:xlink="http://www.w3.org/1999/xlink">
<g id="graph0" class="graph" transform="scale(1 1) rotate(0) translate(4 89.5)">
<title>qtreports::detail::ConverterToHTML::addBands</title>
<!-- Node1 -->
<g id="node1" class="node"><title>Node1</title>
<polygon fill="#bfbfbf" stroke="black" points="0,-30 0,-60 154,-60 154,-30 0,-30"/>
<text text-anchor="start" x="8" y="-48" font-family="Helvetica,sans-Serif" font-size="10.00">qtreports::detail::</text>
<text text-anchor="middle" x="77" y="-37" font-family="Helvetica,sans-Serif" font-size="10.00">ConverterToHTML::addBands</text>
</g>
<!-- Node2 -->
<g id="node2" class="node"><title>Node2</title>
<g id="a_node2"><a xlink:href="classqtreports_1_1detail_1_1_converter_to_h_t_m_l.html#ace8358a3612fc8085b7c34f1f92341e2" target="_top" xlink:title="Процесс конвертации репорта в HTML формат. ">
<polygon fill="none" stroke="black" points="384,-30 384,-60 547,-60 547,-30 384,-30"/>
<text text-anchor="start" x="392" y="-48" font-family="Helvetica,sans-Serif" font-size="10.00">qtreports::detail::</text>
<text text-anchor="middle" x="465.5" y="-37" font-family="Helvetica,sans-Serif" font-size="10.00">ConverterToHTML::createHTML</text>
</a>
</g>
</g>
<!-- Node1&#45;&gt;Node2 -->
<g id="edge1" class="edge"><title>Node1&#45;&gt;Node2</title>
<path fill="none" stroke="midnightblue" d="M164.341,-50.0898C173.007,-50.4614 181.676,-50.7772 190,-51 260.197,-52.8789 277.801,-52.8065 348,-51 359.641,-50.7004 371.931,-50.2327 383.989,-49.6875"/>
<polygon fill="midnightblue" stroke="midnightblue" points="164.338,-46.5862 154.19,-49.6304 164.022,-53.5791 164.338,-46.5862"/>
</g>
<!-- Node6 -->
<g id="node6" class="node"><title>Node6</title>
<g id="a_node6"><a xlink:href="classqtreports_1_1detail_1_1_converter_to_h_t_m_l.html#a587e5f6bfbd1185f6bf32d76ac231a13" target="_top" xlink:title="Добавление &lt;group&gt; в документ HTML. ">
<polygon fill="none" stroke="black" points="190,-0.5 190,-41.5 348,-41.5 348,-0.5 190,-0.5"/>
<text text-anchor="start" x="198" y="-29.5" font-family="Helvetica,sans-Serif" font-size="10.00">qtreports::detail::</text>
<text text-anchor="start" x="198" y="-18.5" font-family="Helvetica,sans-Serif" font-size="10.00">ConverterToHTML::addGroups</text>
<text text-anchor="middle" x="269" y="-7.5" font-family="Helvetica,sans-Serif" font-size="10.00">IntoReport</text>
</a>
</g>
</g>
<!-- Node1&#45;&gt;Node6 -->
<g id="edge5" class="edge"><title>Node1&#45;&gt;Node6</title>
<path fill="none" stroke="midnightblue" d="M164.194,-34.1123C172.773,-33.0287 181.447,-31.933 189.936,-30.8607"/>
<polygon fill="midnightblue" stroke="midnightblue" points="163.668,-30.6509 154.185,-35.3766 164.545,-37.5957 163.668,-30.6509"/>
</g>
<!-- Node3 -->
<g id="node3" class="node"><title>Node3</title>
<g id="a_node3"><a xlink:href="classqtreports_1_1detail_1_1_converter_to_h_t_m_l.html#ad91ac333abf7d02f7590970a54ef7aae" target="_top" xlink:title="Запускает процесс конвертации репорта в HTML формат. ">
<polygon fill="none" stroke="black" points="583,-30 583,-60 725,-60 725,-30 583,-30"/>
<text text-anchor="start" x="591" y="-48" font-family="Helvetica,sans-Serif" font-size="10.00">qtreports::detail::</text>
<text text-anchor="middle" x="654" y="-37" font-family="Helvetica,sans-Serif" font-size="10.00">ConverterToHTML::convert</text>
</a>
</g>
</g>
<!-- Node2&#45;&gt;Node3 -->
<g id="edge2" class="edge"><title>Node2&#45;&gt;Node3</title>
<path fill="none" stroke="midnightblue" d="M557.316,-45C565.944,-45 574.601,-45 582.989,-45"/>
<polygon fill="midnightblue" stroke="midnightblue" points="557.217,-41.5001 547.217,-45 557.217,-48.5001 557.217,-41.5001"/>
</g>
<!-- Node4 -->
<g id="node4" class="node"><title>Node4</title>
<g id="a_node4"><a xlink:href="classqtreports_1_1detail_1_1_converter_to_h_t_m_l.html#a38e92f3fd70f61c44871b22cddffd15a" target="_top" xlink:title="Создает HTML документ при успешной конвертации репорта в HTML формат. ">
<polygon fill="none" stroke="black" points="761,-55 761,-85 903,-85 903,-55 761,-55"/>
<text text-anchor="start" x="769" y="-73" font-family="Helvetica,sans-Serif" font-size="10.00">qtreports::detail::</text>
<text text-anchor="middle" x="832" y="-62" font-family="Helvetica,sans-Serif" font-size="10.00">ConverterToHTML::convert</text>
</a>
</g>
</g>
<!-- Node3&#45;&gt;Node4 -->
<g id="edge3" class="edge"><title>Node3&#45;&gt;Node4</title>
<path fill="none" stroke="midnightblue" d="M735.101,-56.3779C743.706,-57.6003 752.412,-58.837 760.888,-60.0409"/>
<polygon fill="midnightblue" stroke="midnightblue" points="735.458,-52.8937 725.066,-54.9525 734.474,-59.8241 735.458,-52.8937"/>
</g>
<!-- Node5 -->
<g id="node5" class="node"><title>Node5</title>
<g id="a_node5"><a xlink:href="classqtreports_1_1_engine.html#a551b0db0510d572d56447c471daa0891" target="_top" xlink:title="Создает HTML документ отчета по указанному пути ">
<polygon fill="none" stroke="black" points="779.5,-6 779.5,-36 884.5,-36 884.5,-6 779.5,-6"/>
<text text-anchor="start" x="787.5" y="-24" font-family="Helvetica,sans-Serif" font-size="10.00">qtreports::Engine::</text>
<text text-anchor="middle" x="832" y="-13" font-family="Helvetica,sans-Serif" font-size="10.00">createHTML</text>
</a>
</g>
</g>
<!-- Node3&#45;&gt;Node5 -->
<g id="edge4" class="edge"><title>Node3&#45;&gt;Node5</title>
<path fill="none" stroke="midnightblue" d="M735.347,-34.0436C750.298,-32.0049 765.545,-29.9257 779.345,-28.0438"/>
<polygon fill="midnightblue" stroke="midnightblue" points="734.501,-30.6265 725.066,-35.4456 735.447,-37.5623 734.501,-30.6265"/>
</g>
<!-- Node6&#45;&gt;Node2 -->
<g id="edge6" class="edge"><title>Node6&#45;&gt;Node2</title>
<path fill="none" stroke="midnightblue" d="M358.231,-31.8871C366.767,-32.9403 375.396,-34.0051 383.852,-35.0486"/>
<polygon fill="midnightblue" stroke="midnightblue" points="358.623,-28.4091 348.27,-30.658 357.766,-35.3564 358.623,-28.4091"/>
</g>
</g>
</svg>
