<?xml version="1.0" encoding="UTF-8" standalone="no"?>
<!DOCTYPE svg PUBLIC "-//W3C//DTD SVG 1.1//EN"
 "http://www.w3.org/Graphics/SVG/1.1/DTD/svg11.dtd">
<!-- Generated by graphviz version 2.38.0 (20140413.2041)
 -->
<!-- Title: qtreports::detail::Report::getFieldFromGroupExpression Pages: 1 -->
<svg width="616pt" height="176pt"
 viewBox="0.00 0.00 616.00 176.00" xmlns="http://www.w3.org/2000/svg" xmlns:xlink="http://www.w3.org/1999/xlink">
<g id="graph0" class="graph" transform="scale(1 1) rotate(0) translate(4 172)">
<title>qtreports::detail::Report::getFieldFromGroupExpression</title>
<!-- Node1 -->
<g id="node1" class="node"><title>Node1</title>
<polygon fill="#bfbfbf" stroke="black" points="0,-66.5 0,-96.5 195,-96.5 195,-66.5 0,-66.5"/>
<text text-anchor="start" x="8" y="-84.5" font-family="Helvetica,sans-Serif" font-size="10.00">qtreports::detail::</text>
<text text-anchor="middle" x="97.5" y="-73.5" font-family="Helvetica,sans-Serif" font-size="10.00">Report::getFieldFromGroupExpression</text>
</g>
<!-- Node2 -->
<g id="node2" class="node"><title>Node2</title>
<g id="a_node2"><a xlink:href="classqtreports_1_1detail_1_1_report.html#a2317483290ac109877b05e90d8f86835" target="_top" xlink:title="qtreports::detail::\lReport::isDetailHasGroupHeader">
<polygon fill="none" stroke="black" points="436,-137.5 436,-167.5 608,-167.5 608,-137.5 436,-137.5"/>
<text text-anchor="start" x="444" y="-155.5" font-family="Helvetica,sans-Serif" font-size="10.00">qtreports::detail::</text>
<text text-anchor="middle" x="522" y="-144.5" font-family="Helvetica,sans-Serif" font-size="10.00">Report::isDetailHasGroupHeader</text>
</a>
</g>
</g>
<!-- Node1&#45;&gt;Node2 -->
<g id="edge1" class="edge"><title>Node1&#45;&gt;Node2</title>
<path fill="none" stroke="midnightblue" d="M143.408,-100.213C168.7,-109.953 201.119,-121.129 231,-127.5 298.957,-141.99 377.574,-148.126 435.796,-150.703"/>
<polygon fill="midnightblue" stroke="midnightblue" points="144.672,-96.9487 134.084,-96.5628 142.12,-103.467 144.672,-96.9487"/>
</g>
<!-- Node3 -->
<g id="node3" class="node"><title>Node3</title>
<g id="a_node3"><a xlink:href="classqtreports_1_1detail_1_1_report.html#a36b4f8b33892fabbfd4858602bb511e1" target="_top" xlink:title="qtreports::detail::\lReport::isDetailHasGroupFooter">
<polygon fill="none" stroke="black" points="438.5,-39.5 438.5,-69.5 605.5,-69.5 605.5,-39.5 438.5,-39.5"/>
<text text-anchor="start" x="446.5" y="-57.5" font-family="Helvetica,sans-Serif" font-size="10.00">qtreports::detail::</text>
<text text-anchor="middle" x="522" y="-46.5" font-family="Helvetica,sans-Serif" font-size="10.00">Report::isDetailHasGroupFooter</text>
</a>
</g>
</g>
<!-- Node1&#45;&gt;Node3 -->
<g id="edge2" class="edge"><title>Node1&#45;&gt;Node3</title>
<path fill="none" stroke="midnightblue" d="M205.218,-74.6802C277.524,-70.0594 371.675,-64.0426 438.301,-59.7849"/>
<polygon fill="midnightblue" stroke="midnightblue" points="204.922,-71.1919 195.165,-75.3226 205.368,-78.1776 204.922,-71.1919"/>
</g>
<!-- Node4 -->
<g id="node4" class="node"><title>Node4</title>
<g id="a_node4"><a xlink:href="classqtreports_1_1detail_1_1_report.html#aa2eb56a54e9cb57831ab6fb6a7d745ab" target="_top" xlink:title="qtreports::detail::\lReport::reorderByGroups">
<polygon fill="none" stroke="black" points="248,-0.5 248,-30.5 383,-30.5 383,-0.5 248,-0.5"/>
<text text-anchor="start" x="256" y="-18.5" font-family="Helvetica,sans-Serif" font-size="10.00">qtreports::detail::</text>
<text text-anchor="middle" x="315.5" y="-7.5" font-family="Helvetica,sans-Serif" font-size="10.00">Report::reorderByGroups</text>
</a>
</g>
</g>
<!-- Node1&#45;&gt;Node4 -->
<g id="edge3" class="edge"><title>Node1&#45;&gt;Node4</title>
<path fill="none" stroke="midnightblue" d="M157.519,-63.4665C191.248,-53.1604 233.063,-40.3835 265.054,-30.6084"/>
<polygon fill="midnightblue" stroke="midnightblue" points="156.325,-60.1715 147.784,-66.441 158.37,-66.866 156.325,-60.1715"/>
</g>
<!-- Node5 -->
<g id="node5" class="node"><title>Node5</title>
<g id="a_node5"><a xlink:href="classqtreports_1_1detail_1_1_report.html#a6bec8b279652c93ca97fbc981a1bbde6" target="_top" xlink:title="qtreports::detail::\lReport::getGroupIndexFromField">
<polygon fill="none" stroke="black" points="231,-88.5 231,-118.5 400,-118.5 400,-88.5 231,-88.5"/>
<text text-anchor="start" x="239" y="-106.5" font-family="Helvetica,sans-Serif" font-size="10.00">qtreports::detail::</text>
<text text-anchor="middle" x="315.5" y="-95.5" font-family="Helvetica,sans-Serif" font-size="10.00">Report::getGroupIndexFromField</text>
</a>
</g>
</g>
<!-- Node1&#45;&gt;Node5 -->
<g id="edge4" class="edge"><title>Node1&#45;&gt;Node5</title>
<path fill="none" stroke="midnightblue" d="M205.206,-92.3682C213.805,-93.2441 222.416,-94.1211 230.82,-94.977"/>
<polygon fill="midnightblue" stroke="midnightblue" points="205.431,-88.8731 195.128,-91.3418 204.722,-95.8371 205.431,-88.8731"/>
</g>
<!-- Node5&#45;&gt;Node2 -->
<g id="edge5" class="edge"><title>Node5&#45;&gt;Node2</title>
<path fill="none" stroke="midnightblue" d="M389.134,-120.904C411.757,-126.324 436.496,-132.252 458.372,-137.494"/>
<polygon fill="midnightblue" stroke="midnightblue" points="389.787,-117.461 379.247,-118.535 388.156,-124.268 389.787,-117.461"/>
</g>
<!-- Node5&#45;&gt;Node3 -->
<g id="edge6" class="edge"><title>Node5&#45;&gt;Node3</title>
<path fill="none" stroke="midnightblue" d="M389.134,-86.0962C411.757,-80.6757 436.496,-74.748 458.372,-69.5062"/>
<polygon fill="midnightblue" stroke="midnightblue" points="388.156,-82.7315 379.247,-88.4654 389.787,-89.5388 388.156,-82.7315"/>
</g>
<!-- Node6 -->
<g id="node6" class="node"><title>Node6</title>
<g id="a_node6"><a xlink:href="classqtreports_1_1detail_1_1_report.html#a963b1c807eb08e9b8b38b842d27acca0" target="_top" xlink:title="qtreports::detail::\lReport::getGroupVec">
<polygon fill="none" stroke="black" points="464,-88.5 464,-118.5 580,-118.5 580,-88.5 464,-88.5"/>
<text text-anchor="start" x="472" y="-106.5" font-family="Helvetica,sans-Serif" font-size="10.00">qtreports::detail::</text>
<text text-anchor="middle" x="522" y="-95.5" font-family="Helvetica,sans-Serif" font-size="10.00">Report::getGroupVec</text>
</a>
</g>
</g>
<!-- Node5&#45;&gt;Node6 -->
<g id="edge7" class="edge"><title>Node5&#45;&gt;Node6</title>
<path fill="none" stroke="midnightblue" d="M410.366,-103.5C428.635,-103.5 447.263,-103.5 463.897,-103.5"/>
<polygon fill="midnightblue" stroke="midnightblue" points="410.268,-100 400.268,-103.5 410.268,-107 410.268,-100"/>
</g>
</g>
</svg>
