<?xml version="1.0" encoding="UTF-8" standalone="no"?>
<!DOCTYPE svg PUBLIC "-//W3C//DTD SVG 1.1//EN"
 "http://www.w3.org/Graphics/SVG/1.1/DTD/svg11.dtd">
<!-- Generated by graphviz version 2.38.0 (20140413.2041)
 -->
<!-- Title: qtreports::detail::ConverterToQWidget::convert Pages: 1 -->
<svg width="1329pt" height="562pt"
 viewBox="0.00 0.00 1329.00 561.86" xmlns="http://www.w3.org/2000/svg" xmlns:xlink="http://www.w3.org/1999/xlink">
<g id="graph0" class="graph" transform="scale(1 1) rotate(0) translate(4 557.862)">
<title>qtreports::detail::ConverterToQWidget::convert</title>
<!-- Node1 -->
<g id="node1" class="node"><title>Node1</title>
<polygon fill="#bfbfbf" stroke="black" points="0,-136.362 0,-177.362 119,-177.362 119,-136.362 0,-136.362"/>
<text text-anchor="start" x="8" y="-165.362" font-family="Helvetica,sans-Serif" font-size="10.00">qtreports::detail::</text>
<text text-anchor="start" x="8" y="-154.362" font-family="Helvetica,sans-Serif" font-size="10.00">ConverterToQWidget::</text>
<text text-anchor="middle" x="59.5" y="-143.362" font-family="Helvetica,sans-Serif" font-size="10.00">convert</text>
</g>
<!-- Node2 -->
<g id="node2" class="node"><title>Node2</title>
<g id="a_node2"><a xlink:href="classqtreports_1_1detail_1_1_converter_to_q_widget.html#a96a53267cf2b8092e174906ea7f0f56f" target="_top" xlink:title="Конвертирует отчет в QWidget. ">
<polygon fill="none" stroke="black" points="155,-136.362 155,-177.362 274,-177.362 274,-136.362 155,-136.362"/>
<text text-anchor="start" x="163" y="-165.362" font-family="Helvetica,sans-Serif" font-size="10.00">qtreports::detail::</text>
<text text-anchor="start" x="163" y="-154.362" font-family="Helvetica,sans-Serif" font-size="10.00">ConverterToQWidget::</text>
<text text-anchor="middle" x="214.5" y="-143.362" font-family="Helvetica,sans-Serif" font-size="10.00">createQWidget</text>
</a>
</g>
</g>
<!-- Node1&#45;&gt;Node2 -->
<g id="edge1" class="edge"><title>Node1&#45;&gt;Node2</title>
<path fill="none" stroke="midnightblue" d="M119.216,-156.862C127.544,-156.862 136.169,-156.862 144.667,-156.862"/>
<polygon fill="midnightblue" stroke="midnightblue" points="144.941,-160.362 154.941,-156.862 144.941,-153.362 144.941,-160.362"/>
</g>
<!-- Node3 -->
<g id="node3" class="node"><title>Node3</title>
<g id="a_node3"><a xlink:href="classqtreports_1_1detail_1_1_converter_to_q_widget.html#a23d6229235fca8bd8bbddcc5e2e28f92" target="_top" xlink:title="Добавляет новую страницу на виджет. ">
<polygon fill="none" stroke="black" points="800.5,-389.362 800.5,-430.362 919.5,-430.362 919.5,-389.362 800.5,-389.362"/>
<text text-anchor="start" x="808.5" y="-418.362" font-family="Helvetica,sans-Serif" font-size="10.00">qtreports::detail::</text>
<text text-anchor="start" x="808.5" y="-407.362" font-family="Helvetica,sans-Serif" font-size="10.00">ConverterToQWidget::</text>
<text text-anchor="middle" x="860" y="-396.362" font-family="Helvetica,sans-Serif" font-size="10.00">addPage</text>
</a>
</g>
</g>
<!-- Node2&#45;&gt;Node3 -->
<g id="edge2" class="edge"><title>Node2&#45;&gt;Node3</title>
<path fill="none" stroke="midnightblue" d="M223.325,-177.53C236.734,-210.67 266.885,-276.194 310,-317.862 420.341,-424.499 469.818,-438.368 620,-469.862 673.068,-480.991 689.293,-482.589 742,-469.862 769.694,-463.175 798.193,-448.748 820.13,-435.716"/>
<polygon fill="midnightblue" stroke="midnightblue" points="822.085,-438.624 828.805,-430.434 818.444,-432.646 822.085,-438.624"/>
</g>
<!-- Node4 -->
<g id="node4" class="node"><title>Node4</title>
<g id="a_node4"><a xlink:href="classqtreports_1_1detail_1_1_converter_to_q_widget.html#af350953efb07bf3393c33846a81b1121" target="_top" xlink:title="Добавляет вертикальную границу. ">
<polygon fill="none" stroke="black" points="465,-16.3621 465,-57.3621 584,-57.3621 584,-16.3621 465,-16.3621"/>
<text text-anchor="start" x="473" y="-45.3621" font-family="Helvetica,sans-Serif" font-size="10.00">qtreports::detail::</text>
<text text-anchor="start" x="473" y="-34.3621" font-family="Helvetica,sans-Serif" font-size="10.00">ConverterToQWidget::</text>
<text text-anchor="middle" x="524.5" y="-23.3621" font-family="Helvetica,sans-Serif" font-size="10.00">addVerticalBorder</text>
</a>
</g>
</g>
<!-- Node2&#45;&gt;Node4 -->
<g id="edge3" class="edge"><title>Node2&#45;&gt;Node4</title>
<path fill="none" stroke="midnightblue" d="M257.464,-136.294C273.722,-128.598 292.584,-119.998 310,-112.862 357.962,-93.2104 413.099,-73.6583 455.326,-59.3074"/>
<polygon fill="midnightblue" stroke="midnightblue" points="456.599,-62.5718 464.949,-56.0509 454.355,-55.9411 456.599,-62.5718"/>
</g>
<!-- Node5 -->
<g id="node5" class="node"><title>Node5</title>
<g id="a_node5"><a xlink:href="classqtreports_1_1detail_1_1_converter_to_q_widget.html#a76bb37f2855d12afc9056c75cdbc5e0b" target="_top" xlink:title="Проверяет, является ли виджет типа WidgetType::Layout. ">
<polygon fill="none" stroke="black" points="800.5,-153.362 800.5,-194.362 919.5,-194.362 919.5,-153.362 800.5,-153.362"/>
<text text-anchor="start" x="808.5" y="-182.362" font-family="Helvetica,sans-Serif" font-size="10.00">qtreports::detail::</text>
<text text-anchor="start" x="808.5" y="-171.362" font-family="Helvetica,sans-Serif" font-size="10.00">ConverterToQWidget::</text>
<text text-anchor="middle" x="860" y="-160.362" font-family="Helvetica,sans-Serif" font-size="10.00">isLayout</text>
</a>
</g>
</g>
<!-- Node2&#45;&gt;Node5 -->
<g id="edge6" class="edge"><title>Node2&#45;&gt;Node5</title>
<path fill="none" stroke="midnightblue" d="M232.417,-136.302C250.004,-116.046 279.224,-85.3775 310,-65.8621 415.201,0.846909 460.387,8.54213 584,-6.86208 655.882,-15.8197 679.764,-9.79609 742,-46.8621 783.549,-71.6076 819.192,-115.594 839.874,-144.748"/>
<polygon fill="midnightblue" stroke="midnightblue" points="837.223,-147.065 845.803,-153.281 842.972,-143.072 837.223,-147.065"/>
</g>
<!-- Node7 -->
<g id="node7" class="node"><title>Node7</title>
<g id="a_node7"><a xlink:href="classqtreports_1_1detail_1_1_converter_to_q_widget.html#ae126b16c5a846e84f12d86ca8ef253dd" target="_top" xlink:title="Добавляет секцию. ">
<polygon fill="none" stroke="black" points="465,-136.362 465,-177.362 584,-177.362 584,-136.362 465,-136.362"/>
<text text-anchor="start" x="473" y="-165.362" font-family="Helvetica,sans-Serif" font-size="10.00">qtreports::detail::</text>
<text text-anchor="start" x="473" y="-154.362" font-family="Helvetica,sans-Serif" font-size="10.00">ConverterToQWidget::</text>
<text text-anchor="middle" x="524.5" y="-143.362" font-family="Helvetica,sans-Serif" font-size="10.00">addSectionLayout</text>
</a>
</g>
</g>
<!-- Node2&#45;&gt;Node7 -->
<g id="edge7" class="edge"><title>Node2&#45;&gt;Node7</title>
<path fill="none" stroke="midnightblue" d="M274.157,-156.862C325.562,-156.862 400.333,-156.862 454.579,-156.862"/>
<polygon fill="midnightblue" stroke="midnightblue" points="454.799,-160.362 464.799,-156.862 454.799,-153.362 454.799,-160.362"/>
</g>
<!-- Node8 -->
<g id="node8" class="node"><title>Node8</title>
<g id="a_node8"><a xlink:href="classqtreports_1_1detail_1_1_converter_to_q_widget.html#a3c95daf9bd10efc4feb71e0d976bbd6e" target="_top" xlink:title="Создает секцию. ">
<polygon fill="none" stroke="black" points="465,-351.362 465,-392.362 584,-392.362 584,-351.362 465,-351.362"/>
<text text-anchor="start" x="473" y="-380.362" font-family="Helvetica,sans-Serif" font-size="10.00">qtreports::detail::</text>
<text text-anchor="start" x="473" y="-369.362" font-family="Helvetica,sans-Serif" font-size="10.00">ConverterToQWidget::</text>
<text text-anchor="middle" x="524.5" y="-358.362" font-family="Helvetica,sans-Serif" font-size="10.00">createSection</text>
</a>
</g>
</g>
<!-- Node2&#45;&gt;Node8 -->
<g id="edge10" class="edge"><title>Node2&#45;&gt;Node8</title>
<path fill="none" stroke="midnightblue" d="M228.642,-177.739C245.136,-202.582 275.482,-244.058 310,-270.862 353.901,-304.952 411.171,-331.259 455.343,-348.466"/>
<polygon fill="midnightblue" stroke="midnightblue" points="454.254,-351.797 464.844,-352.107 456.758,-345.26 454.254,-351.797"/>
</g>
<!-- Node18 -->
<g id="node18" class="node"><title>Node18</title>
<g id="a_node18"><a xlink:href="classqtreports_1_1detail_1_1_converter_to_q_widget.html#ac98aceb5ee703053d7691029da84e296" target="_top" xlink:title="Функция добавления группировок в отчет. ">
<polygon fill="none" stroke="black" points="310,-220.362 310,-261.362 429,-261.362 429,-220.362 310,-220.362"/>
<text text-anchor="start" x="318" y="-249.362" font-family="Helvetica,sans-Serif" font-size="10.00">qtreports::detail::</text>
<text text-anchor="start" x="318" y="-238.362" font-family="Helvetica,sans-Serif" font-size="10.00">ConverterToQWidget::</text>
<text text-anchor="middle" x="369.5" y="-227.362" font-family="Helvetica,sans-Serif" font-size="10.00">addGroupsIntoReport</text>
</a>
</g>
</g>
<!-- Node2&#45;&gt;Node18 -->
<g id="edge23" class="edge"><title>Node2&#45;&gt;Node18</title>
<path fill="none" stroke="midnightblue" d="M252.928,-177.411C273.766,-188.851 299.892,-203.195 322.029,-215.349"/>
<polygon fill="midnightblue" stroke="midnightblue" points="320.478,-218.49 330.928,-220.234 323.847,-212.354 320.478,-218.49"/>
</g>
<!-- Node20 -->
<g id="node20" class="node"><title>Node20</title>
<g id="a_node20"><a xlink:href="classqtreports_1_1detail_1_1_converter_to_q_widget.html#a21d211f4a1f0f46f2220a0959c36367b" target="_top" xlink:title="Добавляет пустую секцию. ">
<polygon fill="none" stroke="black" points="465,-76.3621 465,-117.362 584,-117.362 584,-76.3621 465,-76.3621"/>
<text text-anchor="start" x="473" y="-105.362" font-family="Helvetica,sans-Serif" font-size="10.00">qtreports::detail::</text>
<text text-anchor="start" x="473" y="-94.3621" font-family="Helvetica,sans-Serif" font-size="10.00">ConverterToQWidget::</text>
<text text-anchor="middle" x="524.5" y="-83.3621" font-family="Helvetica,sans-Serif" font-size="10.00">addEmptySection</text>
</a>
</g>
</g>
<!-- Node2&#45;&gt;Node20 -->
<g id="edge29" class="edge"><title>Node2&#45;&gt;Node20</title>
<path fill="none" stroke="midnightblue" d="M274.157,-145.435C325.669,-135.401 400.644,-120.795 454.917,-110.222"/>
<polygon fill="midnightblue" stroke="midnightblue" points="455.653,-113.645 464.799,-108.297 454.315,-106.774 455.653,-113.645"/>
</g>
<!-- Node4&#45;&gt;Node5 -->
<g id="edge4" class="edge"><title>Node4&#45;&gt;Node5</title>
<path fill="none" stroke="midnightblue" d="M584.142,-43.7388C628.949,-50.5496 691.406,-63.4638 742,-86.8621 774.534,-101.908 806.876,-126.929 829.283,-146.286"/>
<polygon fill="midnightblue" stroke="midnightblue" points="827.249,-149.158 837.07,-153.132 831.871,-143.901 827.249,-149.158"/>
</g>
<!-- Node6 -->
<g id="node6" class="node"><title>Node6</title>
<g id="a_node6"><a xlink:href="namespaceqtreports_1_1detail.html#a57ac54d6807a30b13e419a3106735b19" target="_top" xlink:title="qtreports::detail::\lcreateLayout">
<polygon fill="none" stroke="black" points="631.5,-114.862 631.5,-144.862 730.5,-144.862 730.5,-114.862 631.5,-114.862"/>
<text text-anchor="start" x="639.5" y="-132.862" font-family="Helvetica,sans-Serif" font-size="10.00">qtreports::detail::</text>
<text text-anchor="middle" x="681" y="-121.862" font-family="Helvetica,sans-Serif" font-size="10.00">createLayout</text>
</a>
</g>
</g>
<!-- Node4&#45;&gt;Node6 -->
<g id="edge5" class="edge"><title>Node4&#45;&gt;Node6</title>
<path fill="none" stroke="midnightblue" d="M567.027,-57.4607C572.781,-60.5168 578.575,-63.7032 584,-66.8621 606.605,-80.0252 631.259,-96.2463 649.922,-108.932"/>
<polygon fill="midnightblue" stroke="midnightblue" points="648.077,-111.91 658.307,-114.667 652.029,-106.132 648.077,-111.91"/>
</g>
<!-- Node7&#45;&gt;Node5 -->
<g id="edge8" class="edge"><title>Node7&#45;&gt;Node5</title>
<path fill="none" stroke="midnightblue" d="M584.355,-159.862C641.894,-162.795 729.467,-167.259 790.194,-170.355"/>
<polygon fill="midnightblue" stroke="midnightblue" points="790.288,-173.864 800.453,-170.878 790.644,-166.873 790.288,-173.864"/>
</g>
<!-- Node7&#45;&gt;Node6 -->
<g id="edge9" class="edge"><title>Node7&#45;&gt;Node6</title>
<path fill="none" stroke="midnightblue" d="M584.351,-146.578C596.476,-144.459 609.243,-142.227 621.361,-140.11"/>
<polygon fill="midnightblue" stroke="midnightblue" points="622.111,-143.532 631.359,-138.362 620.905,-136.636 622.111,-143.532"/>
</g>
<!-- Node8&#45;&gt;Node5 -->
<g id="edge11" class="edge"><title>Node8&#45;&gt;Node5</title>
<path fill="none" stroke="midnightblue" d="M584.174,-352.967C629.281,-337.044 692.112,-311.766 742,-279.862 776.646,-257.706 810.87,-225.11 833.266,-201.922"/>
<polygon fill="midnightblue" stroke="midnightblue" points="836.025,-204.1 840.391,-194.447 830.958,-199.27 836.025,-204.1"/>
</g>
<!-- Node9 -->
<g id="node9" class="node"><title>Node9</title>
<g id="a_node9"><a xlink:href="classqtreports_1_1detail_1_1_replacer.html#af7ccb83be264f7c72b7485cf38455450" target="_top" xlink:title="Заменяет текст всех виджетов секции текстом с подставленными значениями. ">
<polygon fill="none" stroke="black" points="631.5,-517.862 631.5,-547.862 730.5,-547.862 730.5,-517.862 631.5,-517.862"/>
<text text-anchor="start" x="639.5" y="-535.862" font-family="Helvetica,sans-Serif" font-size="10.00">qtreports::detail::</text>
<text text-anchor="middle" x="681" y="-524.862" font-family="Helvetica,sans-Serif" font-size="10.00">Replacer::replace</text>
</a>
</g>
</g>
<!-- Node8&#45;&gt;Node9 -->
<g id="edge12" class="edge"><title>Node8&#45;&gt;Node9</title>
<path fill="none" stroke="midnightblue" d="M545.382,-392.58C574.383,-422.802 628.098,-478.776 658.165,-510.108"/>
<polygon fill="midnightblue" stroke="midnightblue" points="655.821,-512.721 665.27,-517.512 660.871,-507.874 655.821,-512.721"/>
</g>
<!-- Node16 -->
<g id="node16" class="node"><title>Node16</title>
<g id="a_node16"><a xlink:href="classqtreports_1_1detail_1_1_replacer.html#a677f7802e444f2de3af4cb43b6cedf30" target="_top" xlink:title="Возвращает описание последней произошедшей ошибки. ">
<polygon fill="none" stroke="black" points="620,-429.862 620,-459.862 742,-459.862 742,-429.862 620,-429.862"/>
<text text-anchor="start" x="628" y="-447.862" font-family="Helvetica,sans-Serif" font-size="10.00">qtreports::detail::</text>
<text text-anchor="middle" x="681" y="-436.862" font-family="Helvetica,sans-Serif" font-size="10.00">Replacer::getLastError</text>
</a>
</g>
</g>
<!-- Node8&#45;&gt;Node16 -->
<g id="edge19" class="edge"><title>Node8&#45;&gt;Node16</title>
<path fill="none" stroke="midnightblue" d="M563.244,-392.51C580.376,-401.601 601.013,-412.167 620,-420.862 623.626,-422.523 627.402,-424.185 631.216,-425.816"/>
<polygon fill="midnightblue" stroke="midnightblue" points="630.136,-429.158 640.712,-429.788 632.838,-422.7 630.136,-429.158"/>
</g>
<!-- Node17 -->
<g id="node17" class="node"><title>Node17</title>
<g id="a_node17"><a xlink:href="classqtreports_1_1detail_1_1_converter_to_q_widget.html#aa3be16e037533a4a5b58596087207187" target="_top" xlink:title="Создает band. ">
<polygon fill="none" stroke="black" points="621.5,-370.362 621.5,-411.362 740.5,-411.362 740.5,-370.362 621.5,-370.362"/>
<text text-anchor="start" x="629.5" y="-399.362" font-family="Helvetica,sans-Serif" font-size="10.00">qtreports::detail::</text>
<text text-anchor="start" x="629.5" y="-388.362" font-family="Helvetica,sans-Serif" font-size="10.00">ConverterToQWidget::</text>
<text text-anchor="middle" x="681" y="-377.362" font-family="Helvetica,sans-Serif" font-size="10.00">createBands</text>
</a>
</g>
</g>
<!-- Node8&#45;&gt;Node17 -->
<g id="edge20" class="edge"><title>Node8&#45;&gt;Node17</title>
<path fill="none" stroke="midnightblue" d="M584.351,-379.099C593.149,-380.181 602.285,-381.305 611.266,-382.409"/>
<polygon fill="midnightblue" stroke="midnightblue" points="610.961,-385.898 621.313,-383.645 611.815,-378.95 610.961,-385.898"/>
</g>
<!-- Node10 -->
<g id="node10" class="node"><title>Node10</title>
<g id="a_node10"><a xlink:href="classqtreports_1_1detail_1_1_replacer.html#a58cf857aa78eb3e273f6543769af425b" target="_top" xlink:title="Заменяет текст всех виджетов секции текстом с подставленными значениями полей из источника данных...">
<polygon fill="none" stroke="black" points="778,-517.862 778,-547.862 942,-547.862 942,-517.862 778,-517.862"/>
<text text-anchor="start" x="786" y="-535.862" font-family="Helvetica,sans-Serif" font-size="10.00">qtreports::detail::</text>
<text text-anchor="middle" x="860" y="-524.862" font-family="Helvetica,sans-Serif" font-size="10.00">Replacer::replaceFieldInSection</text>
</a>
</g>
</g>
<!-- Node9&#45;&gt;Node10 -->
<g id="edge13" class="edge"><title>Node9&#45;&gt;Node10</title>
<path fill="none" stroke="midnightblue" d="M730.835,-532.862C742.3,-532.862 754.885,-532.862 767.551,-532.862"/>
<polygon fill="midnightblue" stroke="midnightblue" points="767.706,-536.362 777.706,-532.862 767.706,-529.362 767.706,-536.362"/>
</g>
<!-- Node15 -->
<g id="node15" class="node"><title>Node15</title>
<g id="a_node15"><a xlink:href="classqtreports_1_1detail_1_1_replacer.html#abb903f1c1172efa7e26b040a5695cc86" target="_top" xlink:title="Возвращает текст с подставленными значениями параметров. ">
<polygon fill="none" stroke="black" points="783,-468.862 783,-498.862 937,-498.862 937,-468.862 783,-468.862"/>
<text text-anchor="start" x="791" y="-486.862" font-family="Helvetica,sans-Serif" font-size="10.00">qtreports::detail::</text>
<text text-anchor="middle" x="860" y="-475.862" font-family="Helvetica,sans-Serif" font-size="10.00">Replacer::replaceParameters</text>
</a>
</g>
</g>
<!-- Node9&#45;&gt;Node15 -->
<g id="edge18" class="edge"><title>Node9&#45;&gt;Node15</title>
<path fill="none" stroke="midnightblue" d="M730.835,-519.343C750.622,-513.865 773.745,-507.464 794.861,-501.618"/>
<polygon fill="midnightblue" stroke="midnightblue" points="796.018,-504.93 804.721,-498.888 794.15,-498.183 796.018,-504.93"/>
</g>
<!-- Node11 -->
<g id="node11" class="node"><title>Node11</title>
<g id="a_node11"><a xlink:href="classqtreports_1_1detail_1_1_replacer.html#a2be57bd514335f9b9f2a520247562ce1" target="_top" xlink:title="Заменяет текст виджета текстом с подставленными значениями полей из источника данных. ">
<polygon fill="none" stroke="black" points="984,-392.362 984,-433.362 1130,-433.362 1130,-392.362 984,-392.362"/>
<text text-anchor="start" x="992" y="-421.362" font-family="Helvetica,sans-Serif" font-size="10.00">qtreports::detail::</text>
<text text-anchor="start" x="992" y="-410.362" font-family="Helvetica,sans-Serif" font-size="10.00">Replacer::replaceFieldInText</text>
<text text-anchor="middle" x="1057" y="-399.362" font-family="Helvetica,sans-Serif" font-size="10.00">Widget</text>
</a>
</g>
</g>
<!-- Node10&#45;&gt;Node11 -->
<g id="edge14" class="edge"><title>Node10&#45;&gt;Node11</title>
<path fill="none" stroke="midnightblue" d="M921.822,-517.847C928.8,-515.252 935.672,-512.27 942,-508.862 975.217,-490.975 1007.58,-462.32 1029.28,-440.967"/>
<polygon fill="midnightblue" stroke="midnightblue" points="1031.9,-443.295 1036.5,-433.748 1026.95,-438.346 1031.9,-443.295"/>
</g>
<!-- Node13 -->
<g id="node13" class="node"><title>Node13</title>
<g id="a_node13"><a xlink:href="classqtreports_1_1detail_1_1_replacer.html#a4aeb7794f90c0be34a30ab60a6df1920" target="_top" xlink:title="На основе текста виджета вставляет в него изображение из источника данных. ">
<polygon fill="none" stroke="black" points="978,-512.362 978,-553.362 1136,-553.362 1136,-512.362 978,-512.362"/>
<text text-anchor="start" x="986" y="-541.362" font-family="Helvetica,sans-Serif" font-size="10.00">qtreports::detail::</text>
<text text-anchor="start" x="986" y="-530.362" font-family="Helvetica,sans-Serif" font-size="10.00">Replacer::replaceFieldInImage</text>
<text text-anchor="middle" x="1057" y="-519.362" font-family="Helvetica,sans-Serif" font-size="10.00">Widget</text>
</a>
</g>
</g>
<!-- Node10&#45;&gt;Node13 -->
<g id="edge16" class="edge"><title>Node10&#45;&gt;Node13</title>
<path fill="none" stroke="midnightblue" d="M942.003,-532.862C950.502,-532.862 959.173,-532.862 967.748,-532.862"/>
<polygon fill="midnightblue" stroke="midnightblue" points="967.754,-536.362 977.754,-532.862 967.754,-529.362 967.754,-536.362"/>
</g>
<!-- Node12 -->
<g id="node12" class="node"><title>Node12</title>
<g id="a_node12"><a xlink:href="classqtreports_1_1detail_1_1_replacer.html#a4642b07160798f2ee4de276e1d0c1ecd" target="_top" xlink:title="Возвращает текст с подставленными значениями полей из источника данных. ">
<polygon fill="none" stroke="black" points="1187,-343.862 1187,-373.862 1306,-373.862 1306,-343.862 1187,-343.862"/>
<text text-anchor="start" x="1195" y="-361.862" font-family="Helvetica,sans-Serif" font-size="10.00">qtreports::detail::</text>
<text text-anchor="middle" x="1246.5" y="-350.862" font-family="Helvetica,sans-Serif" font-size="10.00">Replacer::replaceField</text>
</a>
</g>
</g>
<!-- Node11&#45;&gt;Node12 -->
<g id="edge15" class="edge"><title>Node11&#45;&gt;Node12</title>
<path fill="none" stroke="midnightblue" d="M1129.42,-392.293C1147.16,-387.185 1166.02,-381.752 1183.28,-376.782"/>
<polygon fill="midnightblue" stroke="midnightblue" points="1184.59,-380.047 1193.23,-373.916 1182.65,-373.32 1184.59,-380.047"/>
</g>
<!-- Node14 -->
<g id="node14" class="node"><title>Node14</title>
<g id="a_node14"><a xlink:href="classqtreports_1_1detail_1_1_replacer.html#ae1ac521aeaf5fdd694e79e2ae52d4704" target="_top" xlink:title="Возвращает изображение на основе первого найденного выражения. ">
<polygon fill="none" stroke="black" points="1172,-517.862 1172,-547.862 1321,-547.862 1321,-517.862 1172,-517.862"/>
<text text-anchor="start" x="1180" y="-535.862" font-family="Helvetica,sans-Serif" font-size="10.00">qtreports::detail::</text>
<text text-anchor="middle" x="1246.5" y="-524.862" font-family="Helvetica,sans-Serif" font-size="10.00">Replacer::replaceFieldImage</text>
</a>
</g>
</g>
<!-- Node13&#45;&gt;Node14 -->
<g id="edge17" class="edge"><title>Node13&#45;&gt;Node14</title>
<path fill="none" stroke="midnightblue" d="M1136.16,-532.862C1144.68,-532.862 1153.38,-532.862 1161.96,-532.862"/>
<polygon fill="midnightblue" stroke="midnightblue" points="1161.97,-536.362 1171.97,-532.862 1161.97,-529.362 1161.97,-536.362"/>
</g>
<!-- Node17&#45;&gt;Node3 -->
<g id="edge21" class="edge"><title>Node17&#45;&gt;Node3</title>
<path fill="none" stroke="midnightblue" d="M740.938,-397.189C756.762,-398.887 774.009,-400.739 790.312,-402.489"/>
<polygon fill="midnightblue" stroke="midnightblue" points="790.002,-405.976 800.319,-403.563 790.75,-399.016 790.002,-405.976"/>
</g>
<!-- Node17&#45;&gt;Node5 -->
<g id="edge22" class="edge"><title>Node17&#45;&gt;Node5</title>
<path fill="none" stroke="midnightblue" d="M723.218,-370.339C729.889,-366.057 736.426,-361.2 742,-355.862 789.269,-310.595 826.392,-242.64 845.284,-203.848"/>
<polygon fill="midnightblue" stroke="midnightblue" points="848.528,-205.177 849.689,-194.646 842.214,-202.154 848.528,-205.177"/>
</g>
<!-- Node18&#45;&gt;Node5 -->
<g id="edge25" class="edge"><title>Node18&#45;&gt;Node5</title>
<path fill="none" stroke="midnightblue" d="M429.2,-245.169C441.046,-245.875 453.416,-246.495 465,-246.862 517.862,-248.539 531.556,-253.704 584,-246.862 655.852,-237.488 735.655,-214.887 790.704,-197.296"/>
<polygon fill="midnightblue" stroke="midnightblue" points="791.903,-200.587 800.345,-194.186 789.754,-193.925 791.903,-200.587"/>
</g>
<!-- Node18&#45;&gt;Node7 -->
<g id="edge26" class="edge"><title>Node18&#45;&gt;Node7</title>
<path fill="none" stroke="midnightblue" d="M405.738,-220.222C423.419,-209.995 445.229,-197.573 465,-186.862 467.86,-185.313 470.809,-183.736 473.79,-182.158"/>
<polygon fill="midnightblue" stroke="midnightblue" points="475.548,-185.188 482.779,-177.445 472.297,-178.989 475.548,-185.188"/>
</g>
<!-- Node18&#45;&gt;Node8 -->
<g id="edge27" class="edge"><title>Node18&#45;&gt;Node8</title>
<path fill="none" stroke="midnightblue" d="M394.743,-261.619C420.93,-284.041 462.766,-319.861 491.605,-344.553"/>
<polygon fill="midnightblue" stroke="midnightblue" points="489.498,-347.357 499.37,-351.202 494.05,-342.039 489.498,-347.357"/>
</g>
<!-- Node18&#45;&gt;Node12 -->
<g id="edge24" class="edge"><title>Node18&#45;&gt;Node12</title>
<path fill="none" stroke="midnightblue" d="M429.111,-260.106C490.824,-278.634 591.168,-303.862 680,-303.862 680,-303.862 680,-303.862 861,-303.862 972.485,-303.862 1100.34,-326.801 1176.92,-343.05"/>
<polygon fill="midnightblue" stroke="midnightblue" points="1176.41,-346.52 1186.92,-345.196 1177.88,-339.676 1176.41,-346.52"/>
</g>
<!-- Node19 -->
<g id="node19" class="node"><title>Node19</title>
<g id="a_node19"><a xlink:href="classqtreports_1_1detail_1_1_converter_to_q_widget.html#a5e49976fe8fac12633ccda1ba928b9b1" target="_top" xlink:title="Проверяет, является ли виджет типа WidgetType::Report. ">
<polygon fill="none" stroke="black" points="465,-196.362 465,-237.362 584,-237.362 584,-196.362 465,-196.362"/>
<text text-anchor="start" x="473" y="-225.362" font-family="Helvetica,sans-Serif" font-size="10.00">qtreports::detail::</text>
<text text-anchor="start" x="473" y="-214.362" font-family="Helvetica,sans-Serif" font-size="10.00">ConverterToQWidget::</text>
<text text-anchor="middle" x="524.5" y="-203.362" font-family="Helvetica,sans-Serif" font-size="10.00">isReport</text>
</a>
</g>
</g>
<!-- Node18&#45;&gt;Node19 -->
<g id="edge28" class="edge"><title>Node18&#45;&gt;Node19</title>
<path fill="none" stroke="midnightblue" d="M429.216,-231.652C437.635,-230.331 446.359,-228.963 454.947,-227.615"/>
<polygon fill="midnightblue" stroke="midnightblue" points="455.604,-231.055 464.941,-226.048 454.519,-224.14 455.604,-231.055"/>
</g>
<!-- Node20&#45;&gt;Node5 -->
<g id="edge30" class="edge"><title>Node20&#45;&gt;Node5</title>
<path fill="none" stroke="midnightblue" d="M584.174,-91.3506C628.447,-89.0159 690.202,-89.6927 742,-104.862 771.969,-113.639 802.239,-131.798 824.481,-147.285"/>
<polygon fill="midnightblue" stroke="midnightblue" points="822.719,-150.327 832.894,-153.282 826.783,-144.627 822.719,-150.327"/>
</g>
<!-- Node20&#45;&gt;Node6 -->
<g id="edge31" class="edge"><title>Node20&#45;&gt;Node6</title>
<path fill="none" stroke="midnightblue" d="M584.351,-109.432C596.476,-112.022 609.243,-114.749 621.361,-117.337"/>
<polygon fill="midnightblue" stroke="midnightblue" points="620.848,-120.807 631.359,-119.473 622.31,-113.961 620.848,-120.807"/>
</g>
</g>
</svg>
