<?xml version="1.0" encoding="UTF-8" standalone="no"?>
<!DOCTYPE svg PUBLIC "-//W3C//DTD SVG 1.1//EN"
 "http://www.w3.org/Graphics/SVG/1.1/DTD/svg11.dtd">
<!-- Generated by graphviz version 2.38.0 (20140413.2041)
 -->
<!-- Title: qtreports::detail::Section Pages: 1 -->
<!--zoomable 595 -->
<svg id="main" version="1.1" xmlns="http://www.w3.org/2000/svg" xmlns:xlink="http://www.w3.org/1999/xlink" xml:space="preserve" onload="init(evt)">
<style type="text/css"><![CDATA[
.edge:hover path { stroke: red; }
.edge:hover polygon { stroke: red; fill: red; }
]]></style>
<script type="text/javascript"><![CDATA[
var edges = document.getElementsByTagName('g');
if (edges && edges.length) {
  for (var i=0;i<edges.length;i++) {
    if (edges[i].id.substr(0,4)=='edge') {
      edges[i].setAttribute('class','edge');
    }
  }
}
]]></script>
        <defs>
                <circle id="rim" cx="0" cy="0" r="7"/>
                <circle id="rim2" cx="0" cy="0" r="3.5"/>
                <g id="zoomPlus">
                        <use xlink:href="#rim" fill="#404040">
                                <set attributeName="fill" to="#808080" begin="zoomplus.mouseover" end="zoomplus.mouseout"/>
                        </use>
                        <path d="M-4,0h8M0,-4v8" fill="none" stroke="white" stroke-width="1.5" pointer-events="none"/>
                </g>
                <g id="zoomMin">
                        <use xlink:href="#rim" fill="#404040">
                                <set attributeName="fill" to="#808080" begin="zoomminus.mouseover" end="zoomminus.mouseout"/>
                        </use>
                        <path d="M-4,0h8" fill="none" stroke="white" stroke-width="1.5" pointer-events="none"/>
                </g>
                <g id="dirArrow">
                        <path fill="none" stroke="white" stroke-width="1.5" d="M0,-3.0v7 M-2.5,-0.5L0,-3.0L2.5,-0.5"/>
                </g>
               <g id="resetDef">
                       <use xlink:href="#rim2" fill="#404040">
                               <set attributeName="fill" to="#808080" begin="reset.mouseover" end="reset.mouseout"/>
                       </use>
               </g>
        </defs>

<script type="text/javascript">
var viewWidth = 462;
var viewHeight = 595;
var sectionId = 'dynsection-0';
</script>
<script xlink:href="svgpan.js"/>
<svg id="graph" class="graph">
<g id="viewport">
<title>qtreports::detail::Section</title>
<!-- Node1 -->
<g id="node1" class="node"><title>Node1</title>
<polygon fill="#bfbfbf" stroke="black" points="177,-204.5 177,-382.5 278,-382.5 278,-204.5 177,-204.5"/>
<text text-anchor="start" x="185" y="-370.5" font-family="Helvetica,sans-Serif" font-size="10.00">qtreports::detail::</text>
<text text-anchor="middle" x="227.5" y="-359.5" font-family="Helvetica,sans-Serif" font-size="10.00">Section</text>
<polyline fill="none" stroke="black" points="177,-352.5 278,-352.5 "/>
<text text-anchor="start" x="185" y="-340.5" font-family="Helvetica,sans-Serif" font-size="10.00"># m_bands</text>
<text text-anchor="start" x="185" y="-329.5" font-family="Helvetica,sans-Serif" font-size="10.00"># m_width</text>
<text text-anchor="start" x="185" y="-318.5" font-family="Helvetica,sans-Serif" font-size="10.00"># m_height</text>
<polyline fill="none" stroke="black" points="177,-311.5 278,-311.5 "/>
<text text-anchor="start" x="185" y="-299.5" font-family="Helvetica,sans-Serif" font-size="10.00">+ Section()</text>
<text text-anchor="start" x="185" y="-288.5" font-family="Helvetica,sans-Serif" font-size="10.00">+ ~Section()</text>
<text text-anchor="start" x="185" y="-277.5" font-family="Helvetica,sans-Serif" font-size="10.00">+ setWidth()</text>
<text text-anchor="start" x="185" y="-266.5" font-family="Helvetica,sans-Serif" font-size="10.00">+ getWidth()</text>
<text text-anchor="start" x="185" y="-255.5" font-family="Helvetica,sans-Serif" font-size="10.00">+ getHeight()</text>
<text text-anchor="start" x="185" y="-244.5" font-family="Helvetica,sans-Serif" font-size="10.00">+ addBand()</text>
<text text-anchor="start" x="185" y="-233.5" font-family="Helvetica,sans-Serif" font-size="10.00">+ getBand()</text>
<text text-anchor="start" x="185" y="-222.5" font-family="Helvetica,sans-Serif" font-size="10.00">+ getBandsSize()</text>
<text text-anchor="start" x="185" y="-211.5" font-family="Helvetica,sans-Serif" font-size="10.00">+ getBands()</text>
</g>
<!-- Node3 -->
<g id="node3" class="node"><title>Node3</title>
<g id="a_node3"><a xlink:href="classqtreports_1_1detail_1_1_detail.html" target="_top" xlink:title="Класс, реализующий тэг &lt;detail&gt; ">
<polygon fill="none" stroke="black" points="0,-44.5 0,-123.5 99,-123.5 99,-44.5 0,-44.5"/>
<text text-anchor="start" x="8" y="-111.5" font-family="Helvetica,sans-Serif" font-size="10.00">qtreports::detail::</text>
<text text-anchor="middle" x="49.5" y="-100.5" font-family="Helvetica,sans-Serif" font-size="10.00">Detail</text>
<polyline fill="none" stroke="black" points="0,-93.5 99,-93.5 "/>
<text text-anchor="middle" x="49.5" y="-81.5" font-family="Helvetica,sans-Serif" font-size="10.00"> </text>
<polyline fill="none" stroke="black" points="0,-74.5 99,-74.5 "/>
<text text-anchor="start" x="8" y="-62.5" font-family="Helvetica,sans-Serif" font-size="10.00">+ Detail()</text>
<text text-anchor="start" x="8" y="-51.5" font-family="Helvetica,sans-Serif" font-size="10.00">+ ~Detail()</text>
</a>
</g>
</g>
<!-- Node1&#45;&gt;Node3 -->
<g id="edge2" class="edge"><title>Node1&#45;&gt;Node3</title>
<path fill="none" stroke="midnightblue" d="M169.761,-236.37C149.342,-215.556 126.694,-191.33 107.5,-168 95.996,-154.017 84.36,-137.85 74.5606,-123.52"/>
<polygon fill="none" stroke="midnightblue" points="167.365,-238.925 176.881,-243.582 172.347,-234.007 167.365,-238.925"/>
</g>
<!-- Node4 -->
<g id="node4" class="node"><title>Node4</title>
<g id="a_node4"><a xlink:href="classqtreports_1_1detail_1_1_group.html" target="_top" xlink:title="Класс, реализующий тэг &lt;group&gt; ">
<polygon fill="none" stroke="black" points="117,-0.5 117,-167.5 220,-167.5 220,-0.5 117,-0.5"/>
<text text-anchor="start" x="125" y="-155.5" font-family="Helvetica,sans-Serif" font-size="10.00">qtreports::detail::</text>
<text text-anchor="middle" x="168.5" y="-144.5" font-family="Helvetica,sans-Serif" font-size="10.00">Group</text>
<polyline fill="none" stroke="black" points="117,-137.5 220,-137.5 "/>
<text text-anchor="start" x="125" y="-125.5" font-family="Helvetica,sans-Serif" font-size="10.00">&#45; m_expression</text>
<text text-anchor="start" x="125" y="-114.5" font-family="Helvetica,sans-Serif" font-size="10.00">&#45; m_header</text>
<text text-anchor="start" x="125" y="-103.5" font-family="Helvetica,sans-Serif" font-size="10.00">&#45; m_footer</text>
<polyline fill="none" stroke="black" points="117,-96.5 220,-96.5 "/>
<text text-anchor="start" x="125" y="-84.5" font-family="Helvetica,sans-Serif" font-size="10.00">+ Group()</text>
<text text-anchor="start" x="125" y="-73.5" font-family="Helvetica,sans-Serif" font-size="10.00">+ ~Group()</text>
<text text-anchor="start" x="125" y="-62.5" font-family="Helvetica,sans-Serif" font-size="10.00">+ setExpression()</text>
<text text-anchor="start" x="125" y="-51.5" font-family="Helvetica,sans-Serif" font-size="10.00">+ getExpression()</text>
<text text-anchor="start" x="125" y="-40.5" font-family="Helvetica,sans-Serif" font-size="10.00">+ setHeader()</text>
<text text-anchor="start" x="125" y="-29.5" font-family="Helvetica,sans-Serif" font-size="10.00">+ getHeader()</text>
<text text-anchor="start" x="125" y="-18.5" font-family="Helvetica,sans-Serif" font-size="10.00">+ setFooter()</text>
<text text-anchor="start" x="125" y="-7.5" font-family="Helvetica,sans-Serif" font-size="10.00">+ getFooter()</text>
</a>
</g>
</g>
<!-- Node1&#45;&gt;Node4 -->
<g id="edge3" class="edge"><title>Node1&#45;&gt;Node4</title>
<path fill="none" stroke="midnightblue" d="M199.63,-194.483C197.075,-185.496 194.503,-176.45 191.992,-167.619"/>
<polygon fill="none" stroke="midnightblue" points="196.292,-195.539 202.393,-204.2 203.025,-193.624 196.292,-195.539"/>
</g>
<!-- Node5 -->
<g id="node5" class="node"><title>Node5</title>
<g id="a_node5"><a xlink:href="classqtreports_1_1detail_1_1_summary.html" target="_top" xlink:title="Класс, реализующий тэг ">
<polygon fill="none" stroke="black" points="238,-44.5 238,-123.5 337,-123.5 337,-44.5 238,-44.5"/>
<text text-anchor="start" x="246" y="-111.5" font-family="Helvetica,sans-Serif" font-size="10.00">qtreports::detail::</text>
<text text-anchor="middle" x="287.5" y="-100.5" font-family="Helvetica,sans-Serif" font-size="10.00">Summary</text>
<polyline fill="none" stroke="black" points="238,-93.5 337,-93.5 "/>
<text text-anchor="middle" x="287.5" y="-81.5" font-family="Helvetica,sans-Serif" font-size="10.00"> </text>
<polyline fill="none" stroke="black" points="238,-74.5 337,-74.5 "/>
<text text-anchor="start" x="246" y="-62.5" font-family="Helvetica,sans-Serif" font-size="10.00">+ Summary()</text>
<text text-anchor="start" x="246" y="-51.5" font-family="Helvetica,sans-Serif" font-size="10.00">+ ~Summary()</text>
</a>
</g>
</g>
<!-- Node1&#45;&gt;Node5 -->
<g id="edge4" class="edge"><title>Node1&#45;&gt;Node5</title>
<path fill="none" stroke="midnightblue" d="M255.906,-194.262C263.149,-169.213 270.517,-143.734 276.313,-123.688"/>
<polygon fill="none" stroke="midnightblue" points="252.448,-193.622 253.032,-204.2 259.173,-195.566 252.448,-193.622"/>
</g>
<!-- Node6 -->
<g id="node6" class="node"><title>Node6</title>
<g id="a_node6"><a xlink:href="classqtreports_1_1detail_1_1_title.html" target="_top" xlink:title="Класс, реализующий тэг &lt;title&gt; ">
<polygon fill="none" stroke="black" points="355,-44.5 355,-123.5 454,-123.5 454,-44.5 355,-44.5"/>
<text text-anchor="start" x="363" y="-111.5" font-family="Helvetica,sans-Serif" font-size="10.00">qtreports::detail::</text>
<text text-anchor="middle" x="404.5" y="-100.5" font-family="Helvetica,sans-Serif" font-size="10.00">Title</text>
<polyline fill="none" stroke="black" points="355,-93.5 454,-93.5 "/>
<text text-anchor="middle" x="404.5" y="-81.5" font-family="Helvetica,sans-Serif" font-size="10.00"> </text>
<polyline fill="none" stroke="black" points="355,-74.5 454,-74.5 "/>
<text text-anchor="start" x="363" y="-62.5" font-family="Helvetica,sans-Serif" font-size="10.00">+ Title()</text>
<text text-anchor="start" x="363" y="-51.5" font-family="Helvetica,sans-Serif" font-size="10.00">+ ~Title()</text>
</a>
</g>
</g>
<!-- Node1&#45;&gt;Node6 -->
<g id="edge5" class="edge"><title>Node1&#45;&gt;Node6</title>
<path fill="none" stroke="midnightblue" d="M285.26,-235.755C305.364,-215.061 327.601,-191.069 346.5,-168 357.863,-154.129 369.379,-138.136 379.122,-123.912"/>
<polygon fill="none" stroke="midnightblue" points="282.734,-233.332 278.247,-242.93 287.74,-238.225 282.734,-233.332"/>
</g>
<!-- Node2 -->
<g id="node2" class="node"><title>Node2</title>
<g id="a_node2"><a xlink:href="classqtreports_1_1detail_1_1_object.html" target="_top" xlink:title="Базовый класс для любого тэга ">
<polygon fill="none" stroke="black" points="178,-419.5 178,-586.5 277,-586.5 277,-419.5 178,-419.5"/>
<text text-anchor="start" x="186" y="-574.5" font-family="Helvetica,sans-Serif" font-size="10.00">qtreports::detail::</text>
<text text-anchor="middle" x="227.5" y="-563.5" font-family="Helvetica,sans-Serif" font-size="10.00">Object</text>
<polyline fill="none" stroke="black" points="178,-556.5 277,-556.5 "/>
<text text-anchor="start" x="186" y="-544.5" font-family="Helvetica,sans-Serif" font-size="10.00"># m_name</text>
<text text-anchor="start" x="186" y="-533.5" font-family="Helvetica,sans-Serif" font-size="10.00"># m_tagName</text>
<text text-anchor="start" x="186" y="-522.5" font-family="Helvetica,sans-Serif" font-size="10.00"># m_lastError</text>
<polyline fill="none" stroke="black" points="178,-515.5 277,-515.5 "/>
<text text-anchor="start" x="186" y="-503.5" font-family="Helvetica,sans-Serif" font-size="10.00">+ Object()</text>
<text text-anchor="start" x="186" y="-492.5" font-family="Helvetica,sans-Serif" font-size="10.00">+ Object()</text>
<text text-anchor="start" x="186" y="-481.5" font-family="Helvetica,sans-Serif" font-size="10.00">+ ~Object()</text>
<text text-anchor="start" x="186" y="-470.5" font-family="Helvetica,sans-Serif" font-size="10.00">+ setName()</text>
<text text-anchor="start" x="186" y="-459.5" font-family="Helvetica,sans-Serif" font-size="10.00">+ getName()</text>
<text text-anchor="start" x="186" y="-448.5" font-family="Helvetica,sans-Serif" font-size="10.00">+ setTagName()</text>
<text text-anchor="start" x="186" y="-437.5" font-family="Helvetica,sans-Serif" font-size="10.00">+ getTagName()</text>
<text text-anchor="start" x="186" y="-426.5" font-family="Helvetica,sans-Serif" font-size="10.00">+ getLastError()</text>
</a>
</g>
</g>
<!-- Node2&#45;&gt;Node1 -->
<g id="edge1" class="edge"><title>Node2&#45;&gt;Node1</title>
<path fill="none" stroke="midnightblue" d="M227.5,-409.111C227.5,-400.297 227.5,-391.378 227.5,-382.61"/>
<polygon fill="none" stroke="midnightblue" points="224,-409.394 227.5,-419.394 231,-409.394 224,-409.394"/>
</g>
</g>
</svg>
        <g id="navigator" transform="translate(0 0)" fill="#404254">
                <rect fill="#f2f5e9" fill-opacity="0.5" stroke="#606060" stroke-width=".5" x="0" y="0" width="60" height="60"/>
                <use id="zoomplus" xlink:href="#zoomPlus" x="17" y="9" onmousedown="handleZoom(evt,'in')"/>
                <use id="zoomminus" xlink:href="#zoomMin" x="42" y="9" onmousedown="handleZoom(evt,'out')"/>
                <use id="reset" xlink:href="#resetDef" x="30" y="36" onmousedown="handleReset()"/>
                <g id="arrowUp" xlink:href="#dirArrow" transform="translate(30 24)" onmousedown="handlePan(0,-1)">
                  <use xlink:href="#rim" fill="#404040">
                        <set attributeName="fill" to="#808080" begin="arrowUp.mouseover" end="arrowUp.mouseout"/>
                  </use>
                  <path fill="none" stroke="white" stroke-width="1.5" d="M0,-3.0v7 M-2.5,-0.5L0,-3.0L2.5,-0.5"/>
                </g>
                <g id="arrowRight" xlink:href="#dirArrow" transform="rotate(90) translate(36 -43)" onmousedown="handlePan(1,0)">
                  <use xlink:href="#rim" fill="#404040">
                        <set attributeName="fill" to="#808080" begin="arrowRight.mouseover" end="arrowRight.mouseout"/>
                  </use>
                  <path fill="none" stroke="white" stroke-width="1.5" d="M0,-3.0v7 M-2.5,-0.5L0,-3.0L2.5,-0.5"/>
                </g>
                <g id="arrowDown" xlink:href="#dirArrow" transform="rotate(180) translate(-30 -48)" onmousedown="handlePan(0,1)">
                  <use xlink:href="#rim" fill="#404040">
                        <set attributeName="fill" to="#808080" begin="arrowDown.mouseover" end="arrowDown.mouseout"/>
                  </use>
                  <path fill="none" stroke="white" stroke-width="1.5" d="M0,-3.0v7 M-2.5,-0.5L0,-3.0L2.5,-0.5"/>
                </g>
                <g id="arrowLeft" xlink:href="#dirArrow" transform="rotate(270) translate(-36 17)" onmousedown="handlePan(-1,0)">
                  <use xlink:href="#rim" fill="#404040">
                        <set attributeName="fill" to="#808080" begin="arrowLeft.mouseover" end="arrowLeft.mouseout"/>
                  </use>
                  <path fill="none" stroke="white" stroke-width="1.5" d="M0,-3.0v7 M-2.5,-0.5L0,-3.0L2.5,-0.5"/>
                </g>
        </g>
        <svg viewBox="0 0 15 15" width="100%" height="30px" preserveAspectRatio="xMaxYMin meet">
         <g id="arrow_out" transform="scale(0.3 0.3)">
          <a xlink:href="classqtreports_1_1detail_1_1_section__inherit__graph_org.svg" target="_base">
           <rect id="button" ry="5" rx="5" y="6" x="6" height="38" width="38"
                fill="#f2f5e9" fill-opacity="0.5" stroke="#606060" stroke-width="1.0"/>
           <path id="arrow"
             d="M 11.500037,31.436501 C 11.940474,20.09759 22.043105,11.32322 32.158766,21.979434 L 37.068811,17.246167 C 37.068811,17.246167 37.088388,32 37.088388,32 L 22.160133,31.978069 C 22.160133,31.978069 26.997745,27.140456 26.997745,27.140456 C 18.528582,18.264221 13.291696,25.230495 11.500037,31.436501 z"
             style="fill:#404040;"/>
          </a>
         </g>
        </svg>
</svg>
