<?xml version="1.0" encoding="UTF-8" standalone="no"?>
<!DOCTYPE svg PUBLIC "-//W3C//DTD SVG 1.1//EN"
 "http://www.w3.org/Graphics/SVG/1.1/DTD/svg11.dtd">
<!-- Generated by graphviz version 2.38.0 (20140413.2041)
 -->
<!-- Title: qtreports::Engine::prepareDB Pages: 1 -->
<svg width="254pt" height="88pt"
 viewBox="0.00 0.00 254.00 88.00" xmlns="http://www.w3.org/2000/svg" xmlns:xlink="http://www.w3.org/1999/xlink">
<g id="graph0" class="graph" transform="scale(1 1) rotate(0) translate(4 84)">
<title>qtreports::Engine::prepareDB</title>
<!-- Node1 -->
<g id="node1" class="node"><title>Node1</title>
<polygon fill="#bfbfbf" stroke="black" points="0,-24.5 0,-54.5 105,-54.5 105,-24.5 0,-24.5"/>
<text text-anchor="start" x="8" y="-42.5" font-family="Helvetica,sans-Serif" font-size="10.00">qtreports::Engine::</text>
<text text-anchor="middle" x="52.5" y="-31.5" font-family="Helvetica,sans-Serif" font-size="10.00">prepareDB</text>
</g>
<!-- Node2 -->
<g id="node2" class="node"><title>Node2</title>
<g id="a_node2"><a xlink:href="classqtreports_1_1_engine.html#a0615663aaca4ce8e80f654f2380fef64" target="_top" xlink:title="Устанавливает источник данных для отчета из БД ">
<polygon fill="none" stroke="black" points="141,-49.5 141,-79.5 246,-79.5 246,-49.5 141,-49.5"/>
<text text-anchor="start" x="149" y="-67.5" font-family="Helvetica,sans-Serif" font-size="10.00">qtreports::Engine::</text>
<text text-anchor="middle" x="193.5" y="-56.5" font-family="Helvetica,sans-Serif" font-size="10.00">setConnection</text>
</a>
</g>
</g>
<!-- Node1&#45;&gt;Node2 -->
<g id="edge1" class="edge"><title>Node1&#45;&gt;Node2</title>
<path fill="none" stroke="midnightblue" d="M115.163,-50.5905C123.69,-52.124 132.375,-53.6862 140.698,-55.1831"/>
<polygon fill="midnightblue" stroke="midnightblue" points="115.72,-47.1346 105.258,-48.8091 114.481,-54.024 115.72,-47.1346"/>
</g>
<!-- Node3 -->
<g id="node3" class="node"><title>Node3</title>
<g id="a_node3"><a xlink:href="classqtreports_1_1_engine.html#ae80c66a0bc958bf82e023b646e18d55b" target="_top" xlink:title="qtreports::Engine::\lprint">
<polygon fill="none" stroke="black" points="141,-0.5 141,-30.5 246,-30.5 246,-0.5 141,-0.5"/>
<text text-anchor="start" x="149" y="-18.5" font-family="Helvetica,sans-Serif" font-size="10.00">qtreports::Engine::</text>
<text text-anchor="middle" x="193.5" y="-7.5" font-family="Helvetica,sans-Serif" font-size="10.00">print</text>
</a>
</g>
</g>
<!-- Node1&#45;&gt;Node3 -->
<g id="edge2" class="edge"><title>Node1&#45;&gt;Node3</title>
<path fill="none" stroke="midnightblue" d="M115.163,-28.8531C123.69,-27.3809 132.375,-25.8812 140.698,-24.4442"/>
<polygon fill="midnightblue" stroke="midnightblue" points="114.517,-25.4128 105.258,-30.5633 115.708,-32.3107 114.517,-25.4128"/>
</g>
</g>
</svg>
