<?xml version="1.0" encoding="UTF-8" standalone="no"?>
<!DOCTYPE svg PUBLIC "-//W3C//DTD SVG 1.1//EN"
 "http://www.w3.org/Graphics/SVG/1.1/DTD/svg11.dtd">
<!-- Generated by graphviz version 2.38.0 (20140413.2041)
 -->
<!-- Title: qtreports::detail::ConverterToPDF::addGroupsIntoReport Pages: 1 -->
<svg width="1161pt" height="262pt"
 viewBox="0.00 0.00 1161.00 262.11" xmlns="http://www.w3.org/2000/svg" xmlns:xlink="http://www.w3.org/1999/xlink">
<g id="graph0" class="graph" transform="scale(1 1) rotate(0) translate(4 258.113)">
<title>qtreports::detail::ConverterToPDF::addGroupsIntoReport</title>
<!-- Node1 -->
<g id="node1" class="node"><title>Node1</title>
<polygon fill="#bfbfbf" stroke="black" points="0,-174.5 0,-215.5 168,-215.5 168,-174.5 0,-174.5"/>
<text text-anchor="start" x="8" y="-203.5" font-family="Helvetica,sans-Serif" font-size="10.00">qtreports::detail::</text>
<text text-anchor="start" x="8" y="-192.5" font-family="Helvetica,sans-Serif" font-size="10.00">ConverterToPDF::addGroupsInto</text>
<text text-anchor="middle" x="84" y="-181.5" font-family="Helvetica,sans-Serif" font-size="10.00">Report</text>
</g>
<!-- Node2 -->
<g id="node2" class="node"><title>Node2</title>
<g id="a_node2"><a xlink:href="classqtreports_1_1detail_1_1_replacer.html#a4642b07160798f2ee4de276e1d0c1ecd" target="_top" xlink:title="Возвращает текст с подставленными значениями полей из источника данных. ">
<polygon fill="none" stroke="black" points="1019,-156 1019,-186 1138,-186 1138,-156 1019,-156"/>
<text text-anchor="start" x="1027" y="-174" font-family="Helvetica,sans-Serif" font-size="10.00">qtreports::detail::</text>
<text text-anchor="middle" x="1078.5" y="-163" font-family="Helvetica,sans-Serif" font-size="10.00">Replacer::replaceField</text>
</a>
</g>
</g>
<!-- Node1&#45;&gt;Node2 -->
<g id="edge1" class="edge"><title>Node1&#45;&gt;Node2</title>
<path fill="none" stroke="midnightblue" d="M168.183,-213.314C248.19,-229.314 372.756,-250 482,-250 482,-250 482,-250 684,-250 810.504,-250 846.564,-266.45 968,-231 996.95,-222.549 1026.77,-205.563 1047.97,-191.814"/>
<polygon fill="midnightblue" stroke="midnightblue" points="1050.1,-194.6 1056.5,-186.155 1046.23,-188.767 1050.1,-194.6"/>
</g>
<!-- Node3 -->
<g id="node3" class="node"><title>Node3</title>
<g id="a_node3"><a xlink:href="classqtreports_1_1detail_1_1_converter_to_p_d_f.html#a5d9212cf5250d8d938359c417537337c" target="_top" xlink:title="Создает секцию. ">
<polygon fill="none" stroke="black" points="204,-100 204,-130 368,-130 368,-100 204,-100"/>
<text text-anchor="start" x="212" y="-118" font-family="Helvetica,sans-Serif" font-size="10.00">qtreports::detail::</text>
<text text-anchor="middle" x="286" y="-107" font-family="Helvetica,sans-Serif" font-size="10.00">ConverterToPDF::createSection</text>
</a>
</g>
</g>
<!-- Node1&#45;&gt;Node3 -->
<g id="edge2" class="edge"><title>Node1&#45;&gt;Node3</title>
<path fill="none" stroke="midnightblue" d="M136.505,-174.398C167.732,-161.907 207.282,-146.087 237.714,-133.915"/>
<polygon fill="midnightblue" stroke="midnightblue" points="239.266,-137.063 247.251,-130.1 236.667,-130.564 239.266,-137.063"/>
</g>
<!-- Node4 -->
<g id="node4" class="node"><title>Node4</title>
<g id="a_node4"><a xlink:href="classqtreports_1_1detail_1_1_replacer.html#af7ccb83be264f7c72b7485cf38455450" target="_top" xlink:title="Заменяет текст всех виджетов секции текстом с подставленными значениями. ">
<polygon fill="none" stroke="black" points="433.5,-75 433.5,-105 532.5,-105 532.5,-75 433.5,-75"/>
<text text-anchor="start" x="441.5" y="-93" font-family="Helvetica,sans-Serif" font-size="10.00">qtreports::detail::</text>
<text text-anchor="middle" x="483" y="-82" font-family="Helvetica,sans-Serif" font-size="10.00">Replacer::replace</text>
</a>
</g>
</g>
<!-- Node3&#45;&gt;Node4 -->
<g id="edge3" class="edge"><title>Node3&#45;&gt;Node4</title>
<path fill="none" stroke="midnightblue" d="M368.003,-104.615C386.548,-102.237 405.912,-99.7549 423.307,-97.5247"/>
<polygon fill="midnightblue" stroke="midnightblue" points="423.826,-100.987 433.3,-96.2436 422.936,-94.0437 423.826,-100.987"/>
</g>
<!-- Node10 -->
<g id="node10" class="node"><title>Node10</title>
<g id="a_node10"><a xlink:href="classqtreports_1_1detail_1_1_replacer.html#a677f7802e444f2de3af4cb43b6cedf30" target="_top" xlink:title="Возвращает описание последней произошедшей ошибки. ">
<polygon fill="none" stroke="black" points="422,-26 422,-56 544,-56 544,-26 422,-26"/>
<text text-anchor="start" x="430" y="-44" font-family="Helvetica,sans-Serif" font-size="10.00">qtreports::detail::</text>
<text text-anchor="middle" x="483" y="-33" font-family="Helvetica,sans-Serif" font-size="10.00">Replacer::getLastError</text>
</a>
</g>
</g>
<!-- Node3&#45;&gt;Node10 -->
<g id="edge10" class="edge"><title>Node3&#45;&gt;Node10</title>
<path fill="none" stroke="midnightblue" d="M319.661,-99.9461C342.923,-89.4951 375.066,-75.6005 404,-65 409.238,-63.0809 414.71,-61.1844 420.221,-59.3489"/>
<polygon fill="midnightblue" stroke="midnightblue" points="421.713,-62.5438 430.137,-56.1192 419.545,-55.8879 421.713,-62.5438"/>
</g>
<!-- Node11 -->
<g id="node11" class="node"><title>Node11</title>
<g id="a_node11"><a xlink:href="classqtreports_1_1detail_1_1_converter_to_p_d_f.html#aba1de1bf9abc3ea9b7b5c2b8317f5a0f" target="_top" xlink:title="Создает band. ">
<polygon fill="none" stroke="black" points="404,-126 404,-156 562,-156 562,-126 404,-126"/>
<text text-anchor="start" x="412" y="-144" font-family="Helvetica,sans-Serif" font-size="10.00">qtreports::detail::</text>
<text text-anchor="middle" x="483" y="-133" font-family="Helvetica,sans-Serif" font-size="10.00">ConverterToPDF::createBands</text>
</a>
</g>
</g>
<!-- Node3&#45;&gt;Node11 -->
<g id="edge11" class="edge"><title>Node3&#45;&gt;Node11</title>
<path fill="none" stroke="midnightblue" d="M368.003,-125.8C376.502,-126.934 385.173,-128.09 393.748,-129.233"/>
<polygon fill="midnightblue" stroke="midnightblue" points="393.379,-132.715 403.754,-130.567 394.304,-125.776 393.379,-132.715"/>
</g>
<!-- Node5 -->
<g id="node5" class="node"><title>Node5</title>
<g id="a_node5"><a xlink:href="classqtreports_1_1detail_1_1_replacer.html#a58cf857aa78eb3e273f6543769af425b" target="_top" xlink:title="Заменяет текст всех виджетов секции текстом с подставленными значениями полей из источника данных...">
<polygon fill="none" stroke="black" points="601,-23 601,-53 765,-53 765,-23 601,-23"/>
<text text-anchor="start" x="609" y="-41" font-family="Helvetica,sans-Serif" font-size="10.00">qtreports::detail::</text>
<text text-anchor="middle" x="683" y="-30" font-family="Helvetica,sans-Serif" font-size="10.00">Replacer::replaceFieldInSection</text>
</a>
</g>
</g>
<!-- Node4&#45;&gt;Node5 -->
<g id="edge4" class="edge"><title>Node4&#45;&gt;Node5</title>
<path fill="none" stroke="midnightblue" d="M532.69,-77.2128C557.471,-70.7046 587.98,-62.6921 614.947,-55.6099"/>
<polygon fill="midnightblue" stroke="midnightblue" points="615.922,-58.9726 624.705,-53.0472 614.144,-52.2022 615.922,-58.9726"/>
</g>
<!-- Node9 -->
<g id="node9" class="node"><title>Node9</title>
<g id="a_node9"><a xlink:href="classqtreports_1_1detail_1_1_replacer.html#abb903f1c1172efa7e26b040a5695cc86" target="_top" xlink:title="Возвращает текст с подставленными значениями параметров. ">
<polygon fill="none" stroke="black" points="606,-72 606,-102 760,-102 760,-72 606,-72"/>
<text text-anchor="start" x="614" y="-90" font-family="Helvetica,sans-Serif" font-size="10.00">qtreports::detail::</text>
<text text-anchor="middle" x="683" y="-79" font-family="Helvetica,sans-Serif" font-size="10.00">Replacer::replaceParameters</text>
</a>
</g>
</g>
<!-- Node4&#45;&gt;Node9 -->
<g id="edge9" class="edge"><title>Node4&#45;&gt;Node9</title>
<path fill="none" stroke="midnightblue" d="M532.69,-89.2623C551.669,-88.9747 574.008,-88.6362 595.542,-88.31"/>
<polygon fill="midnightblue" stroke="midnightblue" points="595.75,-91.8073 605.696,-88.1561 595.644,-84.8081 595.75,-91.8073"/>
</g>
<!-- Node6 -->
<g id="node6" class="node"><title>Node6</title>
<g id="a_node6"><a xlink:href="classqtreports_1_1detail_1_1_replacer.html#a2be57bd514335f9b9f2a520247562ce1" target="_top" xlink:title="Заменяет текст виджета текстом с подставленными значениями полей из источника данных. ">
<polygon fill="none" stroke="black" points="813,-60.5 813,-101.5 959,-101.5 959,-60.5 813,-60.5"/>
<text text-anchor="start" x="821" y="-89.5" font-family="Helvetica,sans-Serif" font-size="10.00">qtreports::detail::</text>
<text text-anchor="start" x="821" y="-78.5" font-family="Helvetica,sans-Serif" font-size="10.00">Replacer::replaceFieldInText</text>
<text text-anchor="middle" x="886" y="-67.5" font-family="Helvetica,sans-Serif" font-size="10.00">Widget</text>
</a>
</g>
</g>
<!-- Node5&#45;&gt;Node6 -->
<g id="edge5" class="edge"><title>Node5&#45;&gt;Node6</title>
<path fill="none" stroke="midnightblue" d="M754.3,-53.0393C769.956,-56.3887 786.691,-59.9687 802.778,-63.4103"/>
<polygon fill="midnightblue" stroke="midnightblue" points="802.185,-66.8625 812.696,-65.532 803.65,-60.0174 802.185,-66.8625"/>
</g>
<!-- Node7 -->
<g id="node7" class="node"><title>Node7</title>
<g id="a_node7"><a xlink:href="classqtreports_1_1detail_1_1_replacer.html#a4aeb7794f90c0be34a30ab60a6df1920" target="_top" xlink:title="На основе текста виджета вставляет в него изображение из источника данных. ">
<polygon fill="none" stroke="black" points="807,-0.5 807,-41.5 965,-41.5 965,-0.5 807,-0.5"/>
<text text-anchor="start" x="815" y="-29.5" font-family="Helvetica,sans-Serif" font-size="10.00">qtreports::detail::</text>
<text text-anchor="start" x="815" y="-18.5" font-family="Helvetica,sans-Serif" font-size="10.00">Replacer::replaceFieldInImage</text>
<text text-anchor="middle" x="886" y="-7.5" font-family="Helvetica,sans-Serif" font-size="10.00">Widget</text>
</a>
</g>
</g>
<!-- Node5&#45;&gt;Node7 -->
<g id="edge7" class="edge"><title>Node5&#45;&gt;Node7</title>
<path fill="none" stroke="midnightblue" d="M765.175,-31.1345C775.579,-30.2546 786.269,-29.3504 796.778,-28.4616"/>
<polygon fill="midnightblue" stroke="midnightblue" points="797.113,-31.9458 806.782,-27.6154 796.523,-24.9707 797.113,-31.9458"/>
</g>
<!-- Node6&#45;&gt;Node2 -->
<g id="edge6" class="edge"><title>Node6&#45;&gt;Node2</title>
<path fill="none" stroke="midnightblue" d="M945.816,-101.624C953.351,-104.604 960.905,-107.764 968,-111 994.058,-122.887 1022.39,-138.486 1043.7,-150.8"/>
<polygon fill="midnightblue" stroke="midnightblue" points="1041.98,-153.846 1052.38,-155.855 1045.5,-147.797 1041.98,-153.846"/>
</g>
<!-- Node8 -->
<g id="node8" class="node"><title>Node8</title>
<g id="a_node8"><a xlink:href="classqtreports_1_1detail_1_1_replacer.html#ae1ac521aeaf5fdd694e79e2ae52d4704" target="_top" xlink:title="Возвращает изображение на основе первого найденного выражения. ">
<polygon fill="none" stroke="black" points="1004,-6 1004,-36 1153,-36 1153,-6 1004,-6"/>
<text text-anchor="start" x="1012" y="-24" font-family="Helvetica,sans-Serif" font-size="10.00">qtreports::detail::</text>
<text text-anchor="middle" x="1078.5" y="-13" font-family="Helvetica,sans-Serif" font-size="10.00">Replacer::replaceFieldImage</text>
</a>
</g>
</g>
<!-- Node7&#45;&gt;Node8 -->
<g id="edge8" class="edge"><title>Node7&#45;&gt;Node8</title>
<path fill="none" stroke="midnightblue" d="M965.033,-21C974.466,-21 984.131,-21 993.643,-21"/>
<polygon fill="midnightblue" stroke="midnightblue" points="993.885,-24.5001 1003.88,-21 993.885,-17.5001 993.885,-24.5001"/>
</g>
<!-- Node12 -->
<g id="node12" class="node"><title>Node12</title>
<g id="a_node12"><a xlink:href="classqtreports_1_1detail_1_1_replacer.html#aa9fa83cf51d75301b62e11a0a93e2dcc" target="_top" xlink:title="qtreports::detail::\lReplacer::replaceColumnGroups\lInCrosstab">
<polygon fill="none" stroke="black" points="598,-120.5 598,-161.5 768,-161.5 768,-120.5 598,-120.5"/>
<text text-anchor="start" x="606" y="-149.5" font-family="Helvetica,sans-Serif" font-size="10.00">qtreports::detail::</text>
<text text-anchor="start" x="606" y="-138.5" font-family="Helvetica,sans-Serif" font-size="10.00">Replacer::replaceColumnGroups</text>
<text text-anchor="middle" x="683" y="-127.5" font-family="Helvetica,sans-Serif" font-size="10.00">InCrosstab</text>
</a>
</g>
</g>
<!-- Node11&#45;&gt;Node12 -->
<g id="edge12" class="edge"><title>Node11&#45;&gt;Node12</title>
<path fill="none" stroke="midnightblue" d="M562.255,-141C570.646,-141 579.245,-141 587.796,-141"/>
<polygon fill="midnightblue" stroke="midnightblue" points="587.797,-144.5 597.797,-141 587.797,-137.5 587.797,-144.5"/>
</g>
<!-- Node14 -->
<g id="node14" class="node"><title>Node14</title>
<g id="a_node14"><a xlink:href="classqtreports_1_1detail_1_1_replacer.html#ae0f12ba0e77e9ef89b9479272e843fe6" target="_top" xlink:title="qtreports::detail::\lReplacer::replaceRowGroups\lInCrosstab">
<polygon fill="none" stroke="black" points="607.5,-180.5 607.5,-221.5 758.5,-221.5 758.5,-180.5 607.5,-180.5"/>
<text text-anchor="start" x="615.5" y="-209.5" font-family="Helvetica,sans-Serif" font-size="10.00">qtreports::detail::</text>
<text text-anchor="start" x="615.5" y="-198.5" font-family="Helvetica,sans-Serif" font-size="10.00">Replacer::replaceRowGroups</text>
<text text-anchor="middle" x="683" y="-187.5" font-family="Helvetica,sans-Serif" font-size="10.00">InCrosstab</text>
</a>
</g>
</g>
<!-- Node11&#45;&gt;Node14 -->
<g id="edge15" class="edge"><title>Node11&#45;&gt;Node14</title>
<path fill="none" stroke="midnightblue" d="M533.708,-156.063C555.153,-162.562 580.742,-170.316 604.576,-177.538"/>
<polygon fill="midnightblue" stroke="midnightblue" points="603.727,-180.938 614.312,-180.489 605.757,-174.239 603.727,-180.938"/>
</g>
<!-- Node13 -->
<g id="node13" class="node"><title>Node13</title>
<g id="a_node13"><a xlink:href="classqtreports_1_1detail_1_1_replacer.html#a781b476a4e964da9e5afe4f642b2f275" target="_top" xlink:title="qtreports::detail::\lReplacer::replaceColumnGroup\lInCrosstab">
<polygon fill="none" stroke="black" points="804,-120.5 804,-161.5 968,-161.5 968,-120.5 804,-120.5"/>
<text text-anchor="start" x="812" y="-149.5" font-family="Helvetica,sans-Serif" font-size="10.00">qtreports::detail::</text>
<text text-anchor="start" x="812" y="-138.5" font-family="Helvetica,sans-Serif" font-size="10.00">Replacer::replaceColumnGroup</text>
<text text-anchor="middle" x="886" y="-127.5" font-family="Helvetica,sans-Serif" font-size="10.00">InCrosstab</text>
</a>
</g>
</g>
<!-- Node12&#45;&gt;Node13 -->
<g id="edge13" class="edge"><title>Node12&#45;&gt;Node13</title>
<path fill="none" stroke="midnightblue" d="M768.077,-141C776.583,-141 785.249,-141 793.825,-141"/>
<polygon fill="midnightblue" stroke="midnightblue" points="793.834,-144.5 803.834,-141 793.834,-137.5 793.834,-144.5"/>
</g>
<!-- Node13&#45;&gt;Node2 -->
<g id="edge14" class="edge"><title>Node13&#45;&gt;Node2</title>
<path fill="none" stroke="midnightblue" d="M968.065,-153.766C981.623,-155.901 995.572,-158.098 1008.78,-160.178"/>
<polygon fill="midnightblue" stroke="midnightblue" points="1008.3,-163.645 1018.72,-161.743 1009.39,-156.73 1008.3,-163.645"/>
</g>
<!-- Node15 -->
<g id="node15" class="node"><title>Node15</title>
<g id="a_node15"><a xlink:href="classqtreports_1_1detail_1_1_replacer.html#a2114b58c90fe02b17e7bf99e144013b6" target="_top" xlink:title="qtreports::detail::\lReplacer::replaceRowGroupIn\lCrosstab">
<polygon fill="none" stroke="black" points="809,-180.5 809,-221.5 963,-221.5 963,-180.5 809,-180.5"/>
<text text-anchor="start" x="817" y="-209.5" font-family="Helvetica,sans-Serif" font-size="10.00">qtreports::detail::</text>
<text text-anchor="start" x="817" y="-198.5" font-family="Helvetica,sans-Serif" font-size="10.00">Replacer::replaceRowGroupIn</text>
<text text-anchor="middle" x="886" y="-187.5" font-family="Helvetica,sans-Serif" font-size="10.00">Crosstab</text>
</a>
</g>
</g>
<!-- Node14&#45;&gt;Node15 -->
<g id="edge16" class="edge"><title>Node14&#45;&gt;Node15</title>
<path fill="none" stroke="midnightblue" d="M758.559,-201C771.647,-201 785.364,-201 798.738,-201"/>
<polygon fill="midnightblue" stroke="midnightblue" points="798.882,-204.5 808.882,-201 798.882,-197.5 798.882,-204.5"/>
</g>
<!-- Node15&#45;&gt;Node2 -->
<g id="edge17" class="edge"><title>Node15&#45;&gt;Node2</title>
<path fill="none" stroke="midnightblue" d="M963.112,-189.014C978.185,-186.64 993.924,-184.162 1008.74,-181.829"/>
<polygon fill="midnightblue" stroke="midnightblue" points="1009.49,-185.254 1018.82,-180.241 1008.4,-178.339 1009.49,-185.254"/>
</g>
</g>
</svg>
