<?xml version="1.0" encoding="UTF-8" standalone="no"?>
<!DOCTYPE svg PUBLIC "-//W3C//DTD SVG 1.1//EN"
 "http://www.w3.org/Graphics/SVG/1.1/DTD/svg11.dtd">
<!-- Generated by graphviz version 2.38.0 (20140413.2041)
 -->
<!-- Title: qtreports::Engine::executeQueries Pages: 1 -->
<svg width="551pt" height="88pt"
 viewBox="0.00 0.00 551.00 88.00" xmlns="http://www.w3.org/2000/svg" xmlns:xlink="http://www.w3.org/1999/xlink">
<g id="graph0" class="graph" transform="scale(1 1) rotate(0) translate(4 84)">
<title>qtreports::Engine::executeQueries</title>
<!-- Node1 -->
<g id="node1" class="node"><title>Node1</title>
<polygon fill="#bfbfbf" stroke="black" points="0,-24.5 0,-54.5 105,-54.5 105,-24.5 0,-24.5"/>
<text text-anchor="start" x="8" y="-42.5" font-family="Helvetica,sans-Serif" font-size="10.00">qtreports::Engine::</text>
<text text-anchor="middle" x="52.5" y="-31.5" font-family="Helvetica,sans-Serif" font-size="10.00">executeQueries</text>
</g>
<!-- Node2 -->
<g id="node2" class="node"><title>Node2</title>
<g id="a_node2"><a xlink:href="classqtreports_1_1_engine.html#a0c7bf107b4774cccb70577946d67666c" target="_top" xlink:title="Устанавливает запрос, по которому будут заполнятся поля отчета ">
<polygon fill="none" stroke="black" points="141,-24.5 141,-54.5 246,-54.5 246,-24.5 141,-24.5"/>
<text text-anchor="start" x="149" y="-42.5" font-family="Helvetica,sans-Serif" font-size="10.00">qtreports::Engine::</text>
<text text-anchor="middle" x="193.5" y="-31.5" font-family="Helvetica,sans-Serif" font-size="10.00">setQuery</text>
</a>
</g>
</g>
<!-- Node1&#45;&gt;Node2 -->
<g id="edge1" class="edge"><title>Node1&#45;&gt;Node2</title>
<path fill="none" stroke="midnightblue" d="M115.441,-39.5C123.878,-39.5 132.466,-39.5 140.698,-39.5"/>
<polygon fill="midnightblue" stroke="midnightblue" points="115.259,-36.0001 105.258,-39.5 115.258,-43.0001 115.259,-36.0001"/>
</g>
<!-- Node3 -->
<g id="node3" class="node"><title>Node3</title>
<g id="a_node3"><a xlink:href="classqtreports_1_1_engine.html#a3dda769530e3713bba33c49124ad1ab6" target="_top" xlink:title="qtreports::Engine::\lprepareDB">
<polygon fill="none" stroke="black" points="282,-24.5 282,-54.5 387,-54.5 387,-24.5 282,-24.5"/>
<text text-anchor="start" x="290" y="-42.5" font-family="Helvetica,sans-Serif" font-size="10.00">qtreports::Engine::</text>
<text text-anchor="middle" x="334.5" y="-31.5" font-family="Helvetica,sans-Serif" font-size="10.00">prepareDB</text>
</a>
</g>
</g>
<!-- Node2&#45;&gt;Node3 -->
<g id="edge2" class="edge"><title>Node2&#45;&gt;Node3</title>
<path fill="none" stroke="midnightblue" d="M256.441,-39.5C264.878,-39.5 273.466,-39.5 281.698,-39.5"/>
<polygon fill="midnightblue" stroke="midnightblue" points="256.259,-36.0001 246.258,-39.5 256.258,-43.0001 256.259,-36.0001"/>
</g>
<!-- Node4 -->
<g id="node4" class="node"><title>Node4</title>
<g id="a_node4"><a xlink:href="classqtreports_1_1_engine.html#a0615663aaca4ce8e80f654f2380fef64" target="_top" xlink:title="Устанавливает источник данных для отчета из БД ">
<polygon fill="none" stroke="black" points="430.5,-49.5 430.5,-79.5 535.5,-79.5 535.5,-49.5 430.5,-49.5"/>
<text text-anchor="start" x="438.5" y="-67.5" font-family="Helvetica,sans-Serif" font-size="10.00">qtreports::Engine::</text>
<text text-anchor="middle" x="483" y="-56.5" font-family="Helvetica,sans-Serif" font-size="10.00">setConnection</text>
</a>
</g>
</g>
<!-- Node3&#45;&gt;Node4 -->
<g id="edge3" class="edge"><title>Node3&#45;&gt;Node4</title>
<path fill="none" stroke="midnightblue" d="M397.158,-50.0219C408.198,-51.9059 419.599,-53.8513 430.322,-55.6813"/>
<polygon fill="midnightblue" stroke="midnightblue" points="397.597,-46.5462 387.15,-48.3141 396.419,-53.4464 397.597,-46.5462"/>
</g>
<!-- Node5 -->
<g id="node5" class="node"><title>Node5</title>
<g id="a_node5"><a xlink:href="classqtreports_1_1_engine.html#aad905c82a23399294dc3a83ba1988c2e" target="_top" xlink:title="qtreports::Engine::\lgetPrintPreviewDialog">
<polygon fill="none" stroke="black" points="423,-0.5 423,-30.5 543,-30.5 543,-0.5 423,-0.5"/>
<text text-anchor="start" x="431" y="-18.5" font-family="Helvetica,sans-Serif" font-size="10.00">qtreports::Engine::</text>
<text text-anchor="middle" x="483" y="-7.5" font-family="Helvetica,sans-Serif" font-size="10.00">getPrintPreviewDialog</text>
</a>
</g>
</g>
<!-- Node3&#45;&gt;Node5 -->
<g id="edge4" class="edge"><title>Node3&#45;&gt;Node5</title>
<path fill="none" stroke="midnightblue" d="M397.039,-29.4185C405.572,-28.0206 414.323,-26.587 422.812,-25.1963"/>
<polygon fill="midnightblue" stroke="midnightblue" points="396.453,-25.9678 387.15,-31.0385 397.585,-32.8757 396.453,-25.9678"/>
</g>
</g>
</svg>
