<?xml version="1.0" encoding="UTF-8" standalone="no"?>
<!DOCTYPE svg PUBLIC "-//W3C//DTD SVG 1.1//EN"
 "http://www.w3.org/Graphics/SVG/1.1/DTD/svg11.dtd">
<!-- Generated by graphviz version 2.38.0 (20140413.2041)
 -->
<!-- Title: qtreports::detail::ParserFromXML::parseTextElement Pages: 1 -->
<!--zoomable 208 -->
<svg id="main" version="1.1" xmlns="http://www.w3.org/2000/svg" xmlns:xlink="http://www.w3.org/1999/xlink" xml:space="preserve" onload="init(evt)">
<style type="text/css"><![CDATA[
.edge:hover path { stroke: red; }
.edge:hover polygon { stroke: red; fill: red; }
]]></style>
<script type="text/javascript"><![CDATA[
var edges = document.getElementsByTagName('g');
if (edges && edges.length) {
  for (var i=0;i<edges.length;i++) {
    if (edges[i].id.substr(0,4)=='edge') {
      edges[i].setAttribute('class','edge');
    }
  }
}
]]></script>
        <defs>
                <circle id="rim" cx="0" cy="0" r="7"/>
                <circle id="rim2" cx="0" cy="0" r="3.5"/>
                <g id="zoomPlus">
                        <use xlink:href="#rim" fill="#404040">
                                <set attributeName="fill" to="#808080" begin="zoomplus.mouseover" end="zoomplus.mouseout"/>
                        </use>
                        <path d="M-4,0h8M0,-4v8" fill="none" stroke="white" stroke-width="1.5" pointer-events="none"/>
                </g>
                <g id="zoomMin">
                        <use xlink:href="#rim" fill="#404040">
                                <set attributeName="fill" to="#808080" begin="zoomminus.mouseover" end="zoomminus.mouseout"/>
                        </use>
                        <path d="M-4,0h8" fill="none" stroke="white" stroke-width="1.5" pointer-events="none"/>
                </g>
                <g id="dirArrow">
                        <path fill="none" stroke="white" stroke-width="1.5" d="M0,-3.0v7 M-2.5,-0.5L0,-3.0L2.5,-0.5"/>
                </g>
               <g id="resetDef">
                       <use xlink:href="#rim2" fill="#404040">
                               <set attributeName="fill" to="#808080" begin="reset.mouseover" end="reset.mouseout"/>
                       </use>
               </g>
        </defs>

<script type="text/javascript">
var viewWidth = 591;
var viewHeight = 208;
var sectionId = 'dynsection-60';
</script>
<script xlink:href="svgpan.js"/>
<svg id="graph" class="graph">
<g id="viewport">
<title>qtreports::detail::ParserFromXML::parseTextElement</title>
<!-- Node1 -->
<g id="node1" class="node"><title>Node1</title>
<polygon fill="#bfbfbf" stroke="black" points="0,-76.5 0,-106.5 182,-106.5 182,-76.5 0,-76.5"/>
<text text-anchor="start" x="8" y="-94.5" font-family="Helvetica,sans-Serif" font-size="10.00">qtreports::detail::</text>
<text text-anchor="middle" x="91" y="-83.5" font-family="Helvetica,sans-Serif" font-size="10.00">ParserFromXML::parseTextElement</text>
</g>
<!-- Node2 -->
<g id="node2" class="node"><title>Node2</title>
<g id="a_node2"><a xlink:href="classqtreports_1_1detail_1_1_parser_from_x_m_l.html#ab1cbf7385fa2d56c5e8526bf97cda9b1" target="_top" xlink:title="Вызывает функцию getAttribute с переданными параметрами и с параметром option &#45; &quot;обязательный аттрибу...">
<polygon fill="none" stroke="black" points="218,-158 218,-199 371,-199 371,-158 218,-158"/>
<text text-anchor="start" x="226" y="-187" font-family="Helvetica,sans-Serif" font-size="10.00">qtreports::detail::</text>
<text text-anchor="start" x="226" y="-176" font-family="Helvetica,sans-Serif" font-size="10.00">ParserFromXML::getRequired</text>
<text text-anchor="middle" x="294.5" y="-165" font-family="Helvetica,sans-Serif" font-size="10.00">Attribute</text>
</a>
</g>
</g>
<!-- Node1&#45;&gt;Node2 -->
<g id="edge1" class="edge"><title>Node1&#45;&gt;Node2</title>
<path fill="none" stroke="midnightblue" d="M124.188,-106.561C149.539,-118.301 185.845,-134.847 218,-148.5 222.394,-150.366 226.945,-152.262 231.536,-154.149"/>
<polygon fill="midnightblue" stroke="midnightblue" points="230.396,-157.464 240.977,-157.995 233.037,-150.981 230.396,-157.464"/>
</g>
<!-- Node4 -->
<g id="node4" class="node"><title>Node4</title>
<g id="a_node4"><a xlink:href="classqtreports_1_1detail_1_1_parser_from_x_m_l.html#a478329a44761310039078ee6871a355d" target="_top" xlink:title="Вызывает функцию getAttribute с переданными параметрами и с параметром option &#45; &quot;опциональный аттрибу...">
<polygon fill="none" stroke="black" points="218.5,-98 218.5,-139 370.5,-139 370.5,-98 218.5,-98"/>
<text text-anchor="start" x="226.5" y="-127" font-family="Helvetica,sans-Serif" font-size="10.00">qtreports::detail::</text>
<text text-anchor="start" x="226.5" y="-116" font-family="Helvetica,sans-Serif" font-size="10.00">ParserFromXML::getOptional</text>
<text text-anchor="middle" x="294.5" y="-105" font-family="Helvetica,sans-Serif" font-size="10.00">Attribute</text>
</a>
</g>
</g>
<!-- Node1&#45;&gt;Node4 -->
<g id="edge3" class="edge"><title>Node1&#45;&gt;Node4</title>
<path fill="none" stroke="midnightblue" d="M182.142,-103.579C190.803,-104.739 199.57,-105.914 208.183,-107.068"/>
<polygon fill="midnightblue" stroke="midnightblue" points="207.831,-110.552 218.207,-108.411 208.76,-103.614 207.831,-110.552"/>
</g>
<!-- Node5 -->
<g id="node5" class="node"><title>Node5</title>
<g id="a_node5"><a xlink:href="classqtreports_1_1detail_1_1_parser_from_x_m_l.html#a905c36f37ab8c2833ab85e4d8c22716f" target="_top" xlink:title="Парсит дочерние тэги объекта object. ">
<polygon fill="none" stroke="black" points="218.5,-49.5 218.5,-79.5 370.5,-79.5 370.5,-49.5 218.5,-49.5"/>
<text text-anchor="start" x="226.5" y="-67.5" font-family="Helvetica,sans-Serif" font-size="10.00">qtreports::detail::</text>
<text text-anchor="middle" x="294.5" y="-56.5" font-family="Helvetica,sans-Serif" font-size="10.00">ParserFromXML::parseChilds</text>
</a>
</g>
</g>
<!-- Node1&#45;&gt;Node5 -->
<g id="edge5" class="edge"><title>Node1&#45;&gt;Node5</title>
<path fill="none" stroke="midnightblue" d="M182.142,-79.4215C190.803,-78.2609 199.57,-77.0862 208.183,-75.9321"/>
<polygon fill="midnightblue" stroke="midnightblue" points="208.76,-79.3861 218.207,-74.5889 207.831,-72.4481 208.76,-79.3861"/>
</g>
<!-- Node7 -->
<g id="node7" class="node"><title>Node7</title>
<g id="a_node7"><a xlink:href="namespaceqtreports_1_1detail.html#a3ce46912811f49a63ad2d9b6a5d310d3" target="_top" xlink:title="qtreports::detail::\lisEquals">
<polygon fill="none" stroke="black" points="245,-0.5 245,-30.5 344,-30.5 344,-0.5 245,-0.5"/>
<text text-anchor="start" x="253" y="-18.5" font-family="Helvetica,sans-Serif" font-size="10.00">qtreports::detail::</text>
<text text-anchor="middle" x="294.5" y="-7.5" font-family="Helvetica,sans-Serif" font-size="10.00">isEquals</text>
</a>
</g>
</g>
<!-- Node1&#45;&gt;Node7 -->
<g id="edge7" class="edge"><title>Node1&#45;&gt;Node7</title>
<path fill="none" stroke="midnightblue" d="M127.335,-76.4826C152.462,-65.9796 187.1,-51.8559 218,-40.5 223.954,-38.312 230.202,-36.1043 236.447,-33.9544"/>
<polygon fill="midnightblue" stroke="midnightblue" points="237.873,-37.1662 246.215,-30.6346 235.621,-30.5385 237.873,-37.1662"/>
</g>
<!-- Node3 -->
<g id="node3" class="node"><title>Node3</title>
<g id="a_node3"><a xlink:href="classqtreports_1_1detail_1_1_parser_from_x_m_l.html#ad0cab06b62d590495eaa6a16465ed2b4" target="_top" xlink:title="Записывает в data значение аттрибута с именем name текущего тэга ">
<polygon fill="none" stroke="black" points="418,-133.5 418,-163.5 572,-163.5 572,-133.5 418,-133.5"/>
<text text-anchor="start" x="426" y="-151.5" font-family="Helvetica,sans-Serif" font-size="10.00">qtreports::detail::</text>
<text text-anchor="middle" x="495" y="-140.5" font-family="Helvetica,sans-Serif" font-size="10.00">ParserFromXML::getAttribute</text>
</a>
</g>
</g>
<!-- Node2&#45;&gt;Node3 -->
<g id="edge2" class="edge"><title>Node2&#45;&gt;Node3</title>
<path fill="none" stroke="midnightblue" d="M371.111,-167.073C383.094,-165.262 395.566,-163.377 407.77,-161.532"/>
<polygon fill="midnightblue" stroke="midnightblue" points="408.577,-164.95 417.942,-159.995 407.531,-158.029 408.577,-164.95"/>
</g>
<!-- Node4&#45;&gt;Node3 -->
<g id="edge4" class="edge"><title>Node4&#45;&gt;Node3</title>
<path fill="none" stroke="midnightblue" d="M370.544,-129.842C382.759,-131.688 395.495,-133.613 407.948,-135.495"/>
<polygon fill="midnightblue" stroke="midnightblue" points="407.449,-138.959 417.86,-136.993 408.495,-132.038 407.449,-138.959"/>
</g>
<!-- Node6 -->
<g id="node6" class="node"><title>Node6</title>
<g id="a_node6"><a xlink:href="classqtreports_1_1detail_1_1_parser_from_x_m_l.html#ace9dca09d283384d721c2a985991c9bf" target="_top" xlink:title="Устанавлиает курсор reader(а) к к началу следующего тэга или к концу документа ">
<polygon fill="none" stroke="black" points="407,-49.5 407,-79.5 583,-79.5 583,-49.5 407,-49.5"/>
<text text-anchor="start" x="415" y="-67.5" font-family="Helvetica,sans-Serif" font-size="10.00">qtreports::detail::</text>
<text text-anchor="middle" x="495" y="-56.5" font-family="Helvetica,sans-Serif" font-size="10.00">ParserFromXML::goToElementEnd</text>
</a>
</g>
</g>
<!-- Node5&#45;&gt;Node6 -->
<g id="edge6" class="edge"><title>Node5&#45;&gt;Node6</title>
<path fill="none" stroke="midnightblue" d="M370.544,-64.5C379.067,-64.5 387.843,-64.5 396.599,-64.5"/>
<polygon fill="midnightblue" stroke="midnightblue" points="396.854,-68.0001 406.854,-64.5 396.854,-61.0001 396.854,-68.0001"/>
</g>
</g>
</svg>
        <g id="navigator" transform="translate(0 0)" fill="#404254">
                <rect fill="#f2f5e9" fill-opacity="0.5" stroke="#606060" stroke-width=".5" x="0" y="0" width="60" height="60"/>
                <use id="zoomplus" xlink:href="#zoomPlus" x="17" y="9" onmousedown="handleZoom(evt,'in')"/>
                <use id="zoomminus" xlink:href="#zoomMin" x="42" y="9" onmousedown="handleZoom(evt,'out')"/>
                <use id="reset" xlink:href="#resetDef" x="30" y="36" onmousedown="handleReset()"/>
                <g id="arrowUp" xlink:href="#dirArrow" transform="translate(30 24)" onmousedown="handlePan(0,-1)">
                  <use xlink:href="#rim" fill="#404040">
                        <set attributeName="fill" to="#808080" begin="arrowUp.mouseover" end="arrowUp.mouseout"/>
                  </use>
                  <path fill="none" stroke="white" stroke-width="1.5" d="M0,-3.0v7 M-2.5,-0.5L0,-3.0L2.5,-0.5"/>
                </g>
                <g id="arrowRight" xlink:href="#dirArrow" transform="rotate(90) translate(36 -43)" onmousedown="handlePan(1,0)">
                  <use xlink:href="#rim" fill="#404040">
                        <set attributeName="fill" to="#808080" begin="arrowRight.mouseover" end="arrowRight.mouseout"/>
                  </use>
                  <path fill="none" stroke="white" stroke-width="1.5" d="M0,-3.0v7 M-2.5,-0.5L0,-3.0L2.5,-0.5"/>
                </g>
                <g id="arrowDown" xlink:href="#dirArrow" transform="rotate(180) translate(-30 -48)" onmousedown="handlePan(0,1)">
                  <use xlink:href="#rim" fill="#404040">
                        <set attributeName="fill" to="#808080" begin="arrowDown.mouseover" end="arrowDown.mouseout"/>
                  </use>
                  <path fill="none" stroke="white" stroke-width="1.5" d="M0,-3.0v7 M-2.5,-0.5L0,-3.0L2.5,-0.5"/>
                </g>
                <g id="arrowLeft" xlink:href="#dirArrow" transform="rotate(270) translate(-36 17)" onmousedown="handlePan(-1,0)">
                  <use xlink:href="#rim" fill="#404040">
                        <set attributeName="fill" to="#808080" begin="arrowLeft.mouseover" end="arrowLeft.mouseout"/>
                  </use>
                  <path fill="none" stroke="white" stroke-width="1.5" d="M0,-3.0v7 M-2.5,-0.5L0,-3.0L2.5,-0.5"/>
                </g>
        </g>
        <svg viewBox="0 0 15 15" width="100%" height="30px" preserveAspectRatio="xMaxYMin meet">
         <g id="arrow_out" transform="scale(0.3 0.3)">
          <a xlink:href="classqtreports_1_1detail_1_1_parser_from_x_m_l_a3693d70428f413c6adb999bf0ad69abe_cgraph_org.svg" target="_base">
           <rect id="button" ry="5" rx="5" y="6" x="6" height="38" width="38"
                fill="#f2f5e9" fill-opacity="0.5" stroke="#606060" stroke-width="1.0"/>
           <path id="arrow"
             d="M 11.500037,31.436501 C 11.940474,20.09759 22.043105,11.32322 32.158766,21.979434 L 37.068811,17.246167 C 37.068811,17.246167 37.088388,32 37.088388,32 L 22.160133,31.978069 C 22.160133,31.978069 26.997745,27.140456 26.997745,27.140456 C 18.528582,18.264221 13.291696,25.230495 11.500037,31.436501 z"
             style="fill:#404040;"/>
          </a>
         </g>
        </svg>
</svg>
