<?xml version="1.0" encoding="UTF-8" standalone="no"?>
<!DOCTYPE svg PUBLIC "-//W3C//DTD SVG 1.1//EN"
 "http://www.w3.org/Graphics/SVG/1.1/DTD/svg11.dtd">
<!-- Generated by graphviz version 2.38.0 (20140413.2041)
 -->
<!-- Title: qtreports::detail::Replacer::replace Pages: 1 -->
<!--zoomable 124 -->
<svg id="main" version="1.1" xmlns="http://www.w3.org/2000/svg" xmlns:xlink="http://www.w3.org/1999/xlink" xml:space="preserve" onload="init(evt)">
<style type="text/css"><![CDATA[
.edge:hover path { stroke: red; }
.edge:hover polygon { stroke: red; fill: red; }
]]></style>
<script type="text/javascript"><![CDATA[
var edges = document.getElementsByTagName('g');
if (edges && edges.length) {
  for (var i=0;i<edges.length;i++) {
    if (edges[i].id.substr(0,4)=='edge') {
      edges[i].setAttribute('class','edge');
    }
  }
}
]]></script>
        <defs>
                <circle id="rim" cx="0" cy="0" r="7"/>
                <circle id="rim2" cx="0" cy="0" r="3.5"/>
                <g id="zoomPlus">
                        <use xlink:href="#rim" fill="#404040">
                                <set attributeName="fill" to="#808080" begin="zoomplus.mouseover" end="zoomplus.mouseout"/>
                        </use>
                        <path d="M-4,0h8M0,-4v8" fill="none" stroke="white" stroke-width="1.5" pointer-events="none"/>
                </g>
                <g id="zoomMin">
                        <use xlink:href="#rim" fill="#404040">
                                <set attributeName="fill" to="#808080" begin="zoomminus.mouseover" end="zoomminus.mouseout"/>
                        </use>
                        <path d="M-4,0h8" fill="none" stroke="white" stroke-width="1.5" pointer-events="none"/>
                </g>
                <g id="dirArrow">
                        <path fill="none" stroke="white" stroke-width="1.5" d="M0,-3.0v7 M-2.5,-0.5L0,-3.0L2.5,-0.5"/>
                </g>
               <g id="resetDef">
                       <use xlink:href="#rim2" fill="#404040">
                               <set attributeName="fill" to="#808080" begin="reset.mouseover" end="reset.mouseout"/>
                       </use>
               </g>
        </defs>

<script type="text/javascript">
var viewWidth = 686;
var viewHeight = 124;
var sectionId = 'dynsection-2';
</script>
<script xlink:href="svgpan.js"/>
<svg id="graph" class="graph">
<g id="viewport">
<title>qtreports::detail::Replacer::replace</title>
<!-- Node1 -->
<g id="node1" class="node"><title>Node1</title>
<polygon fill="#bfbfbf" stroke="black" points="0,-24.5 0,-54.5 99,-54.5 99,-24.5 0,-24.5"/>
<text text-anchor="start" x="8" y="-42.5" font-family="Helvetica,sans-Serif" font-size="10.00">qtreports::detail::</text>
<text text-anchor="middle" x="49.5" y="-31.5" font-family="Helvetica,sans-Serif" font-size="10.00">Replacer::replace</text>
</g>
<!-- Node2 -->
<g id="node2" class="node"><title>Node2</title>
<g id="a_node2"><a xlink:href="classqtreports_1_1detail_1_1_replacer.html#a58cf857aa78eb3e273f6543769af425b" target="_top" xlink:title="qtreports::detail::\lReplacer::replaceFieldInSection">
<polygon fill="none" stroke="black" points="135,-49.5 135,-79.5 299,-79.5 299,-49.5 135,-49.5"/>
<text text-anchor="start" x="143" y="-67.5" font-family="Helvetica,sans-Serif" font-size="10.00">qtreports::detail::</text>
<text text-anchor="middle" x="217" y="-56.5" font-family="Helvetica,sans-Serif" font-size="10.00">Replacer::replaceFieldInSection</text>
</a>
</g>
</g>
<!-- Node1&#45;&gt;Node2 -->
<g id="edge1" class="edge"><title>Node1&#45;&gt;Node2</title>
<path fill="none" stroke="midnightblue" d="M99.2603,-46.8656C107.435,-48.1004 116.145,-49.4162 124.983,-50.7511"/>
<polygon fill="midnightblue" stroke="midnightblue" points="124.582,-54.2302 134.992,-52.2632 125.627,-47.3087 124.582,-54.2302"/>
</g>
<!-- Node7 -->
<g id="node7" class="node"><title>Node7</title>
<g id="a_node7"><a xlink:href="classqtreports_1_1detail_1_1_replacer.html#abb903f1c1172efa7e26b040a5695cc86" target="_top" xlink:title="qtreports::detail::\lReplacer::replaceParameters">
<polygon fill="none" stroke="black" points="140,-0.5 140,-30.5 294,-30.5 294,-0.5 140,-0.5"/>
<text text-anchor="start" x="148" y="-18.5" font-family="Helvetica,sans-Serif" font-size="10.00">qtreports::detail::</text>
<text text-anchor="middle" x="217" y="-7.5" font-family="Helvetica,sans-Serif" font-size="10.00">Replacer::replaceParameters</text>
</a>
</g>
</g>
<!-- Node1&#45;&gt;Node7 -->
<g id="edge6" class="edge"><title>Node1&#45;&gt;Node7</title>
<path fill="none" stroke="midnightblue" d="M99.2603,-32.429C108.943,-31.0249 119.376,-29.5119 129.883,-27.9883"/>
<polygon fill="midnightblue" stroke="midnightblue" points="130.562,-31.4266 139.956,-26.5276 129.557,-24.499 130.562,-31.4266"/>
</g>
<!-- Node3 -->
<g id="node3" class="node"><title>Node3</title>
<g id="a_node3"><a xlink:href="classqtreports_1_1detail_1_1_replacer.html#a2be57bd514335f9b9f2a520247562ce1" target="_top" xlink:title="qtreports::detail::\lReplacer::replaceFieldInText\lWidget">
<polygon fill="none" stroke="black" points="341,-74 341,-115 487,-115 487,-74 341,-74"/>
<text text-anchor="start" x="349" y="-103" font-family="Helvetica,sans-Serif" font-size="10.00">qtreports::detail::</text>
<text text-anchor="start" x="349" y="-92" font-family="Helvetica,sans-Serif" font-size="10.00">Replacer::replaceFieldInText</text>
<text text-anchor="middle" x="414" y="-81" font-family="Helvetica,sans-Serif" font-size="10.00">Widget</text>
</a>
</g>
</g>
<!-- Node2&#45;&gt;Node3 -->
<g id="edge2" class="edge"><title>Node2&#45;&gt;Node3</title>
<path fill="none" stroke="midnightblue" d="M299.003,-76.9621C309.55,-78.5846 320.362,-80.248 330.926,-81.8732"/>
<polygon fill="midnightblue" stroke="midnightblue" points="330.546,-85.3558 340.962,-83.4172 331.61,-78.4372 330.546,-85.3558"/>
</g>
<!-- Node5 -->
<g id="node5" class="node"><title>Node5</title>
<g id="a_node5"><a xlink:href="classqtreports_1_1detail_1_1_replacer.html#a4aeb7794f90c0be34a30ab60a6df1920" target="_top" xlink:title="qtreports::detail::\lReplacer::replaceFieldInImage\lWidget">
<polygon fill="none" stroke="black" points="335,-14 335,-55 493,-55 493,-14 335,-14"/>
<text text-anchor="start" x="343" y="-43" font-family="Helvetica,sans-Serif" font-size="10.00">qtreports::detail::</text>
<text text-anchor="start" x="343" y="-32" font-family="Helvetica,sans-Serif" font-size="10.00">Replacer::replaceFieldInImage</text>
<text text-anchor="middle" x="414" y="-21" font-family="Helvetica,sans-Serif" font-size="10.00">Widget</text>
</a>
</g>
</g>
<!-- Node2&#45;&gt;Node5 -->
<g id="edge4" class="edge"><title>Node2&#45;&gt;Node5</title>
<path fill="none" stroke="midnightblue" d="M299.003,-52.0379C307.502,-50.7304 316.173,-49.3964 324.748,-48.0772"/>
<polygon fill="midnightblue" stroke="midnightblue" points="325.402,-51.5178 334.754,-46.5379 324.338,-44.5992 325.402,-51.5178"/>
</g>
<!-- Node4 -->
<g id="node4" class="node"><title>Node4</title>
<g id="a_node4"><a xlink:href="classqtreports_1_1detail_1_1_replacer.html#a4642b07160798f2ee4de276e1d0c1ecd" target="_top" xlink:title="qtreports::detail::\lReplacer::replaceField">
<polygon fill="none" stroke="black" points="544,-79.5 544,-109.5 663,-109.5 663,-79.5 544,-79.5"/>
<text text-anchor="start" x="552" y="-97.5" font-family="Helvetica,sans-Serif" font-size="10.00">qtreports::detail::</text>
<text text-anchor="middle" x="603.5" y="-86.5" font-family="Helvetica,sans-Serif" font-size="10.00">Replacer::replaceField</text>
</a>
</g>
</g>
<!-- Node3&#45;&gt;Node4 -->
<g id="edge3" class="edge"><title>Node3&#45;&gt;Node4</title>
<path fill="none" stroke="midnightblue" d="M487.224,-94.5C502.479,-94.5 518.539,-94.5 533.665,-94.5"/>
<polygon fill="midnightblue" stroke="midnightblue" points="533.966,-98.0001 543.966,-94.5 533.966,-91.0001 533.966,-98.0001"/>
</g>
<!-- Node6 -->
<g id="node6" class="node"><title>Node6</title>
<g id="a_node6"><a xlink:href="classqtreports_1_1detail_1_1_replacer.html#ae1ac521aeaf5fdd694e79e2ae52d4704" target="_top" xlink:title="qtreports::detail::\lReplacer::replaceFieldImage">
<polygon fill="none" stroke="black" points="529,-19.5 529,-49.5 678,-49.5 678,-19.5 529,-19.5"/>
<text text-anchor="start" x="537" y="-37.5" font-family="Helvetica,sans-Serif" font-size="10.00">qtreports::detail::</text>
<text text-anchor="middle" x="603.5" y="-26.5" font-family="Helvetica,sans-Serif" font-size="10.00">Replacer::replaceFieldImage</text>
</a>
</g>
</g>
<!-- Node5&#45;&gt;Node6 -->
<g id="edge5" class="edge"><title>Node5&#45;&gt;Node6</title>
<path fill="none" stroke="midnightblue" d="M493.159,-34.5C501.681,-34.5 510.381,-34.5 518.964,-34.5"/>
<polygon fill="midnightblue" stroke="midnightblue" points="518.97,-38.0001 528.97,-34.5 518.97,-31.0001 518.97,-38.0001"/>
</g>
</g>
</svg>
        <g id="navigator" transform="translate(0 0)" fill="#404254">
                <rect fill="#f2f5e9" fill-opacity="0.5" stroke="#606060" stroke-width=".5" x="0" y="0" width="60" height="60"/>
                <use id="zoomplus" xlink:href="#zoomPlus" x="17" y="9" onmousedown="handleZoom(evt,'in')"/>
                <use id="zoomminus" xlink:href="#zoomMin" x="42" y="9" onmousedown="handleZoom(evt,'out')"/>
                <use id="reset" xlink:href="#resetDef" x="30" y="36" onmousedown="handleReset()"/>
                <g id="arrowUp" xlink:href="#dirArrow" transform="translate(30 24)" onmousedown="handlePan(0,-1)">
                  <use xlink:href="#rim" fill="#404040">
                        <set attributeName="fill" to="#808080" begin="arrowUp.mouseover" end="arrowUp.mouseout"/>
                  </use>
                  <path fill="none" stroke="white" stroke-width="1.5" d="M0,-3.0v7 M-2.5,-0.5L0,-3.0L2.5,-0.5"/>
                </g>
                <g id="arrowRight" xlink:href="#dirArrow" transform="rotate(90) translate(36 -43)" onmousedown="handlePan(1,0)">
                  <use xlink:href="#rim" fill="#404040">
                        <set attributeName="fill" to="#808080" begin="arrowRight.mouseover" end="arrowRight.mouseout"/>
                  </use>
                  <path fill="none" stroke="white" stroke-width="1.5" d="M0,-3.0v7 M-2.5,-0.5L0,-3.0L2.5,-0.5"/>
                </g>
                <g id="arrowDown" xlink:href="#dirArrow" transform="rotate(180) translate(-30 -48)" onmousedown="handlePan(0,1)">
                  <use xlink:href="#rim" fill="#404040">
                        <set attributeName="fill" to="#808080" begin="arrowDown.mouseover" end="arrowDown.mouseout"/>
                  </use>
                  <path fill="none" stroke="white" stroke-width="1.5" d="M0,-3.0v7 M-2.5,-0.5L0,-3.0L2.5,-0.5"/>
                </g>
                <g id="arrowLeft" xlink:href="#dirArrow" transform="rotate(270) translate(-36 17)" onmousedown="handlePan(-1,0)">
                  <use xlink:href="#rim" fill="#404040">
                        <set attributeName="fill" to="#808080" begin="arrowLeft.mouseover" end="arrowLeft.mouseout"/>
                  </use>
                  <path fill="none" stroke="white" stroke-width="1.5" d="M0,-3.0v7 M-2.5,-0.5L0,-3.0L2.5,-0.5"/>
                </g>
        </g>
        <svg viewBox="0 0 15 15" width="100%" height="30px" preserveAspectRatio="xMaxYMin meet">
         <g id="arrow_out" transform="scale(0.3 0.3)">
          <a xlink:href="classqtreports_1_1detail_1_1_replacer_af7ccb83be264f7c72b7485cf38455450_cgraph_org.svg" target="_base">
           <rect id="button" ry="5" rx="5" y="6" x="6" height="38" width="38"
                fill="#f2f5e9" fill-opacity="0.5" stroke="#606060" stroke-width="1.0"/>
           <path id="arrow"
             d="M 11.500037,31.436501 C 11.940474,20.09759 22.043105,11.32322 32.158766,21.979434 L 37.068811,17.246167 C 37.068811,17.246167 37.088388,32 37.088388,32 L 22.160133,31.978069 C 22.160133,31.978069 26.997745,27.140456 26.997745,27.140456 C 18.528582,18.264221 13.291696,25.230495 11.500037,31.436501 z"
             style="fill:#404040;"/>
          </a>
         </g>
        </svg>
</svg>
