<?xml version="1.0" encoding="UTF-8" standalone="no"?>
<!DOCTYPE svg PUBLIC "-//W3C//DTD SVG 1.1//EN"
 "http://www.w3.org/Graphics/SVG/1.1/DTD/svg11.dtd">
<!-- Generated by graphviz version 2.38.0 (20140413.2041)
 -->
<!-- Title: qtreports::detail::ParserFromXML::parseReport Pages: 1 -->
<svg width="563pt" height="208pt"
 viewBox="0.00 0.00 563.00 207.50" xmlns="http://www.w3.org/2000/svg" xmlns:xlink="http://www.w3.org/1999/xlink">
<g id="graph0" class="graph" transform="scale(1 1) rotate(0) translate(4 203.5)">
<title>qtreports::detail::ParserFromXML::parseReport</title>
<!-- Node1 -->
<g id="node1" class="node"><title>Node1</title>
<polygon fill="#bfbfbf" stroke="black" points="0,-76.5 0,-106.5 154,-106.5 154,-76.5 0,-76.5"/>
<text text-anchor="start" x="8" y="-94.5" font-family="Helvetica,sans-Serif" font-size="10.00">qtreports::detail::</text>
<text text-anchor="middle" x="77" y="-83.5" font-family="Helvetica,sans-Serif" font-size="10.00">ParserFromXML::parseReport</text>
</g>
<!-- Node2 -->
<g id="node2" class="node"><title>Node2</title>
<g id="a_node2"><a xlink:href="classqtreports_1_1detail_1_1_parser_from_x_m_l.html#ab1cbf7385fa2d56c5e8526bf97cda9b1" target="_top" xlink:title="qtreports::detail::\lParserFromXML::getRequired\lAttribute">
<polygon fill="none" stroke="black" points="190,-158 190,-199 343,-199 343,-158 190,-158"/>
<text text-anchor="start" x="198" y="-187" font-family="Helvetica,sans-Serif" font-size="10.00">qtreports::detail::</text>
<text text-anchor="start" x="198" y="-176" font-family="Helvetica,sans-Serif" font-size="10.00">ParserFromXML::getRequired</text>
<text text-anchor="middle" x="266.5" y="-165" font-family="Helvetica,sans-Serif" font-size="10.00">Attribute</text>
</a>
</g>
</g>
<!-- Node1&#45;&gt;Node2 -->
<g id="edge1" class="edge"><title>Node1&#45;&gt;Node2</title>
<path fill="none" stroke="midnightblue" d="M105.728,-106.517C128.183,-118.457 160.774,-135.291 190,-148.5 194.087,-150.347 198.323,-152.198 202.609,-154.024"/>
<polygon fill="midnightblue" stroke="midnightblue" points="201.455,-157.335 212.031,-157.968 204.158,-150.878 201.455,-157.335"/>
</g>
<!-- Node4 -->
<g id="node4" class="node"><title>Node4</title>
<g id="a_node4"><a xlink:href="classqtreports_1_1detail_1_1_parser_from_x_m_l.html#a478329a44761310039078ee6871a355d" target="_top" xlink:title="qtreports::detail::\lParserFromXML::getOptional\lAttribute">
<polygon fill="none" stroke="black" points="190.5,-98 190.5,-139 342.5,-139 342.5,-98 190.5,-98"/>
<text text-anchor="start" x="198.5" y="-127" font-family="Helvetica,sans-Serif" font-size="10.00">qtreports::detail::</text>
<text text-anchor="start" x="198.5" y="-116" font-family="Helvetica,sans-Serif" font-size="10.00">ParserFromXML::getOptional</text>
<text text-anchor="middle" x="266.5" y="-105" font-family="Helvetica,sans-Serif" font-size="10.00">Attribute</text>
</a>
</g>
</g>
<!-- Node1&#45;&gt;Node4 -->
<g id="edge3" class="edge"><title>Node1&#45;&gt;Node4</title>
<path fill="none" stroke="midnightblue" d="M154.263,-102.482C162.789,-103.71 171.516,-104.966 180.146,-106.209"/>
<polygon fill="midnightblue" stroke="midnightblue" points="179.819,-109.698 190.216,-107.659 180.817,-102.769 179.819,-109.698"/>
</g>
<!-- Node5 -->
<g id="node5" class="node"><title>Node5</title>
<g id="a_node5"><a xlink:href="classqtreports_1_1detail_1_1_parser_from_x_m_l.html#a905c36f37ab8c2833ab85e4d8c22716f" target="_top" xlink:title="qtreports::detail::\lParserFromXML::parseChilds">
<polygon fill="none" stroke="black" points="190.5,-49.5 190.5,-79.5 342.5,-79.5 342.5,-49.5 190.5,-49.5"/>
<text text-anchor="start" x="198.5" y="-67.5" font-family="Helvetica,sans-Serif" font-size="10.00">qtreports::detail::</text>
<text text-anchor="middle" x="266.5" y="-56.5" font-family="Helvetica,sans-Serif" font-size="10.00">ParserFromXML::parseChilds</text>
</a>
</g>
</g>
<!-- Node1&#45;&gt;Node5 -->
<g id="edge5" class="edge"><title>Node1&#45;&gt;Node5</title>
<path fill="none" stroke="midnightblue" d="M154.263,-80.5181C162.789,-79.2903 171.516,-78.0338 180.146,-76.791"/>
<polygon fill="midnightblue" stroke="midnightblue" points="180.817,-80.2306 190.216,-75.3409 179.819,-73.302 180.817,-80.2306"/>
</g>
<!-- Node7 -->
<g id="node7" class="node"><title>Node7</title>
<g id="a_node7"><a xlink:href="namespaceqtreports_1_1detail.html#a3ce46912811f49a63ad2d9b6a5d310d3" target="_top" xlink:title="qtreports::detail::\lisEquals">
<polygon fill="none" stroke="black" points="217,-0.5 217,-30.5 316,-30.5 316,-0.5 217,-0.5"/>
<text text-anchor="start" x="225" y="-18.5" font-family="Helvetica,sans-Serif" font-size="10.00">qtreports::detail::</text>
<text text-anchor="middle" x="266.5" y="-7.5" font-family="Helvetica,sans-Serif" font-size="10.00">isEquals</text>
</a>
</g>
</g>
<!-- Node1&#45;&gt;Node7 -->
<g id="edge7" class="edge"><title>Node1&#45;&gt;Node7</title>
<path fill="none" stroke="midnightblue" d="M108.994,-76.2987C131.266,-65.6443 162.151,-51.4149 190,-40.5 195.737,-38.2516 201.768,-36.0274 207.816,-33.8873"/>
<polygon fill="midnightblue" stroke="midnightblue" points="208.992,-37.1839 217.294,-30.6021 206.7,-30.5699 208.992,-37.1839"/>
</g>
<!-- Node3 -->
<g id="node3" class="node"><title>Node3</title>
<g id="a_node3"><a xlink:href="classqtreports_1_1detail_1_1_parser_from_x_m_l.html#ad0cab06b62d590495eaa6a16465ed2b4" target="_top" xlink:title="qtreports::detail::\lParserFromXML::getAttribute">
<polygon fill="none" stroke="black" points="390,-133.5 390,-163.5 544,-163.5 544,-133.5 390,-133.5"/>
<text text-anchor="start" x="398" y="-151.5" font-family="Helvetica,sans-Serif" font-size="10.00">qtreports::detail::</text>
<text text-anchor="middle" x="467" y="-140.5" font-family="Helvetica,sans-Serif" font-size="10.00">ParserFromXML::getAttribute</text>
</a>
</g>
</g>
<!-- Node2&#45;&gt;Node3 -->
<g id="edge2" class="edge"><title>Node2&#45;&gt;Node3</title>
<path fill="none" stroke="midnightblue" d="M343.111,-167.073C355.094,-165.262 367.566,-163.377 379.77,-161.532"/>
<polygon fill="midnightblue" stroke="midnightblue" points="380.577,-164.95 389.942,-159.995 379.531,-158.029 380.577,-164.95"/>
</g>
<!-- Node4&#45;&gt;Node3 -->
<g id="edge4" class="edge"><title>Node4&#45;&gt;Node3</title>
<path fill="none" stroke="midnightblue" d="M342.544,-129.842C354.759,-131.688 367.495,-133.613 379.948,-135.495"/>
<polygon fill="midnightblue" stroke="midnightblue" points="379.449,-138.959 389.86,-136.993 380.495,-132.038 379.449,-138.959"/>
</g>
<!-- Node6 -->
<g id="node6" class="node"><title>Node6</title>
<g id="a_node6"><a xlink:href="classqtreports_1_1detail_1_1_parser_from_x_m_l.html#ace9dca09d283384d721c2a985991c9bf" target="_top" xlink:title="qtreports::detail::\lParserFromXML::goToElementEnd">
<polygon fill="none" stroke="black" points="379,-49.5 379,-79.5 555,-79.5 555,-49.5 379,-49.5"/>
<text text-anchor="start" x="387" y="-67.5" font-family="Helvetica,sans-Serif" font-size="10.00">qtreports::detail::</text>
<text text-anchor="middle" x="467" y="-56.5" font-family="Helvetica,sans-Serif" font-size="10.00">ParserFromXML::goToElementEnd</text>
</a>
</g>
</g>
<!-- Node5&#45;&gt;Node6 -->
<g id="edge6" class="edge"><title>Node5&#45;&gt;Node6</title>
<path fill="none" stroke="midnightblue" d="M342.544,-64.5C351.067,-64.5 359.843,-64.5 368.599,-64.5"/>
<polygon fill="midnightblue" stroke="midnightblue" points="368.854,-68.0001 378.854,-64.5 368.854,-61.0001 368.854,-68.0001"/>
</g>
</g>
</svg>
