<?xml version="1.0" encoding="UTF-8" standalone="no"?>
<!DOCTYPE svg PUBLIC "-//W3C//DTD SVG 1.1//EN"
 "http://www.w3.org/Graphics/SVG/1.1/DTD/svg11.dtd">
<!-- Generated by graphviz version 2.38.0 (20140413.2041)
 -->
<!-- Title: qtreports::detail::CrosstabHeader Pages: 1 -->
<svg width="302pt" height="430pt"
 viewBox="0.00 0.00 301.50 430.00" xmlns="http://www.w3.org/2000/svg" xmlns:xlink="http://www.w3.org/1999/xlink">
<g id="graph0" class="graph" transform="scale(1 1) rotate(0) translate(4 426)">
<title>qtreports::detail::CrosstabHeader</title>
<!-- Node1 -->
<g id="node1" class="node"><title>Node1</title>
<polygon fill="#bfbfbf" stroke="black" points="105.5,-0.5 105.5,-101.5 227.5,-101.5 227.5,-0.5 105.5,-0.5"/>
<text text-anchor="start" x="113.5" y="-89.5" font-family="Helvetica,sans-Serif" font-size="10.00">qtreports::detail::</text>
<text text-anchor="middle" x="166.5" y="-78.5" font-family="Helvetica,sans-Serif" font-size="10.00">CrosstabHeader</text>
<polyline fill="none" stroke="black" points="105.5,-71.5 227.5,-71.5 "/>
<text text-anchor="middle" x="166.5" y="-59.5" font-family="Helvetica,sans-Serif" font-size="10.00"> </text>
<polyline fill="none" stroke="black" points="105.5,-52.5 227.5,-52.5 "/>
<text text-anchor="start" x="113.5" y="-40.5" font-family="Helvetica,sans-Serif" font-size="10.00">+ CrosstabHeader()</text>
<text text-anchor="start" x="113.5" y="-29.5" font-family="Helvetica,sans-Serif" font-size="10.00">+ ~CrosstabHeader()</text>
<text text-anchor="start" x="113.5" y="-18.5" font-family="Helvetica,sans-Serif" font-size="10.00">+ setCellContents()</text>
<text text-anchor="start" x="113.5" y="-7.5" font-family="Helvetica,sans-Serif" font-size="10.00">+ getCellContents()</text>
</g>
<!-- Node2 -->
<g id="node2" class="node"><title>Node2</title>
<g id="a_node2"><a xlink:href="classqtreports_1_1detail_1_1_object.html" target="_top" xlink:title="Базовый класс для любого тэга ">
<polygon fill="none" stroke="black" points="0,-149.5 0,-294.5 99,-294.5 99,-149.5 0,-149.5"/>
<text text-anchor="start" x="8" y="-282.5" font-family="Helvetica,sans-Serif" font-size="10.00">qtreports::detail::</text>
<text text-anchor="middle" x="49.5" y="-271.5" font-family="Helvetica,sans-Serif" font-size="10.00">Object</text>
<polyline fill="none" stroke="black" points="0,-264.5 99,-264.5 "/>
<text text-anchor="middle" x="49.5" y="-252.5" font-family="Helvetica,sans-Serif" font-size="10.00"> </text>
<polyline fill="none" stroke="black" points="0,-245.5 99,-245.5 "/>
<text text-anchor="start" x="8" y="-233.5" font-family="Helvetica,sans-Serif" font-size="10.00">+ Object()</text>
<text text-anchor="start" x="8" y="-222.5" font-family="Helvetica,sans-Serif" font-size="10.00">+ Object()</text>
<text text-anchor="start" x="8" y="-211.5" font-family="Helvetica,sans-Serif" font-size="10.00">+ ~Object()</text>
<text text-anchor="start" x="8" y="-200.5" font-family="Helvetica,sans-Serif" font-size="10.00">+ setName()</text>
<text text-anchor="start" x="8" y="-189.5" font-family="Helvetica,sans-Serif" font-size="10.00">+ getName()</text>
<text text-anchor="start" x="8" y="-178.5" font-family="Helvetica,sans-Serif" font-size="10.00">+ setTagName()</text>
<text text-anchor="start" x="8" y="-167.5" font-family="Helvetica,sans-Serif" font-size="10.00">+ getTagName()</text>
<text text-anchor="start" x="8" y="-156.5" font-family="Helvetica,sans-Serif" font-size="10.00">+ getLastError()</text>
</a>
</g>
</g>
<!-- Node2&#45;&gt;Node1 -->
<g id="edge1" class="edge"><title>Node2&#45;&gt;Node1</title>
<path fill="none" stroke="midnightblue" d="M104.898,-140.981C114.214,-127.524 123.637,-113.914 132.215,-101.523"/>
<polygon fill="none" stroke="midnightblue" points="101.933,-139.115 99.1185,-149.329 107.688,-143.099 101.933,-139.115"/>
</g>
<!-- Node3 -->
<g id="node3" class="node"><title>Node3</title>
<polygon fill="none" stroke="#bfbfbf" points="23,-364.5 23,-421.5 76,-421.5 76,-364.5 23,-364.5"/>
<text text-anchor="middle" x="49.5" y="-409.5" font-family="Helvetica,sans-Serif" font-size="10.00">QString</text>
<polyline fill="none" stroke="#bfbfbf" points="23,-402.5 76,-402.5 "/>
<text text-anchor="middle" x="49.5" y="-390.5" font-family="Helvetica,sans-Serif" font-size="10.00"> </text>
<polyline fill="none" stroke="#bfbfbf" points="23,-383.5 76,-383.5 "/>
<text text-anchor="middle" x="49.5" y="-371.5" font-family="Helvetica,sans-Serif" font-size="10.00"> </text>
</g>
<!-- Node3&#45;&gt;Node2 -->
<g id="edge2" class="edge"><title>Node3&#45;&gt;Node2</title>
<path fill="none" stroke="#404040" d="M49.5,-364.471C49.5,-348.599 49.5,-327.708 49.5,-306.868"/>
<polygon fill="none" stroke="#404040" points="49.5001,-306.642 45.5,-300.642 49.5,-294.642 53.5,-300.642 49.5001,-306.642"/>
<text text-anchor="middle" x="85.5" y="-338" font-family="Helvetica,sans-Serif" font-size="10.00"> #m_tagName</text>
<text text-anchor="middle" x="85.5" y="-327" font-family="Helvetica,sans-Serif" font-size="10.00">#m_name</text>
<text text-anchor="middle" x="85.5" y="-316" font-family="Helvetica,sans-Serif" font-size="10.00">#m_lastError</text>
</g>
<!-- Node4 -->
<g id="node4" class="node"><title>Node4</title>
<polygon fill="none" stroke="#bfbfbf" points="117.5,-193.5 117.5,-250.5 293.5,-250.5 293.5,-193.5 117.5,-193.5"/>
<text text-anchor="middle" x="205.5" y="-238.5" font-family="Helvetica,sans-Serif" font-size="10.00">QSharedPointer&lt; CellContents &gt;</text>
<polyline fill="none" stroke="#bfbfbf" points="117.5,-231.5 293.5,-231.5 "/>
<text text-anchor="middle" x="205.5" y="-219.5" font-family="Helvetica,sans-Serif" font-size="10.00"> </text>
<polyline fill="none" stroke="#bfbfbf" points="117.5,-212.5 293.5,-212.5 "/>
<text text-anchor="middle" x="205.5" y="-200.5" font-family="Helvetica,sans-Serif" font-size="10.00"> </text>
</g>
<!-- Node4&#45;&gt;Node1 -->
<g id="edge3" class="edge"><title>Node4&#45;&gt;Node1</title>
<path fill="none" stroke="#404040" d="M199.147,-193.471C194.165,-171.88 187.039,-141.001 180.715,-113.598"/>
<polygon fill="none" stroke="#404040" points="180.668,-113.394 175.421,-108.447 177.97,-101.702 183.216,-106.648 180.668,-113.394"/>
<text text-anchor="middle" x="225.5" y="-123" font-family="Helvetica,sans-Serif" font-size="10.00"> &#45;m_cellContents</text>
</g>
</g>
</svg>
