<?xml version="1.0" encoding="UTF-8" standalone="no"?>
<!DOCTYPE svg PUBLIC "-//W3C//DTD SVG 1.1//EN"
 "http://www.w3.org/Graphics/SVG/1.1/DTD/svg11.dtd">
<!-- Generated by graphviz version 2.38.0 (20140413.2041)
 -->
<!-- Title: qtreports::detail::Crosstab Pages: 1 -->
<svg width="583pt" height="832pt"
 viewBox="0.00 0.00 582.77 832.00" xmlns="http://www.w3.org/2000/svg" xmlns:xlink="http://www.w3.org/1999/xlink">
<g id="graph0" class="graph" transform="scale(1 1) rotate(0) translate(4 828)">
<title>qtreports::detail::Crosstab</title>
<!-- Node1 -->
<g id="node1" class="node"><title>Node1</title>
<polygon fill="#bfbfbf" stroke="black" points="279.268,-0.5 279.268,-145.5 396.268,-145.5 396.268,-0.5 279.268,-0.5"/>
<text text-anchor="start" x="287.268" y="-133.5" font-family="Helvetica,sans-Serif" font-size="10.00">qtreports::detail::</text>
<text text-anchor="middle" x="337.768" y="-122.5" font-family="Helvetica,sans-Serif" font-size="10.00">Crosstab</text>
<polyline fill="none" stroke="black" points="279.268,-115.5 396.268,-115.5 "/>
<text text-anchor="middle" x="337.768" y="-103.5" font-family="Helvetica,sans-Serif" font-size="10.00"> </text>
<polyline fill="none" stroke="black" points="279.268,-96.5 396.268,-96.5 "/>
<text text-anchor="start" x="287.268" y="-84.5" font-family="Helvetica,sans-Serif" font-size="10.00">+ Crosstab()</text>
<text text-anchor="start" x="287.268" y="-73.5" font-family="Helvetica,sans-Serif" font-size="10.00">+ ~Crosstab()</text>
<text text-anchor="start" x="287.268" y="-62.5" font-family="Helvetica,sans-Serif" font-size="10.00">+ setRowGroup()</text>
<text text-anchor="start" x="287.268" y="-51.5" font-family="Helvetica,sans-Serif" font-size="10.00">+ getRowGroup()</text>
<text text-anchor="start" x="287.268" y="-40.5" font-family="Helvetica,sans-Serif" font-size="10.00">+ setColumnGroup()</text>
<text text-anchor="start" x="287.268" y="-29.5" font-family="Helvetica,sans-Serif" font-size="10.00">+ getColumnGroup()</text>
<text text-anchor="start" x="287.268" y="-18.5" font-family="Helvetica,sans-Serif" font-size="10.00">+ setCrosstabCell()</text>
<text text-anchor="start" x="287.268" y="-7.5" font-family="Helvetica,sans-Serif" font-size="10.00">+ getCrosstabCell()</text>
</g>
<!-- Node2 -->
<g id="node2" class="node"><title>Node2</title>
<g id="a_node2"><a xlink:href="classqtreports_1_1detail_1_1_widget.html" target="_top" xlink:title="Базовый класс для тэгов, которые подлежат отображению ">
<polygon fill="none" stroke="black" points="146.768,-204.5 146.768,-503.5 246.768,-503.5 246.768,-204.5 146.768,-204.5"/>
<text text-anchor="start" x="154.768" y="-491.5" font-family="Helvetica,sans-Serif" font-size="10.00">qtreports::detail::</text>
<text text-anchor="middle" x="196.768" y="-480.5" font-family="Helvetica,sans-Serif" font-size="10.00">Widget</text>
<polyline fill="none" stroke="black" points="146.768,-473.5 246.768,-473.5 "/>
<text text-anchor="middle" x="196.768" y="-461.5" font-family="Helvetica,sans-Serif" font-size="10.00"> </text>
<polyline fill="none" stroke="black" points="146.768,-454.5 246.768,-454.5 "/>
<text text-anchor="start" x="154.768" y="-442.5" font-family="Helvetica,sans-Serif" font-size="10.00">+ Widget()</text>
<text text-anchor="start" x="154.768" y="-431.5" font-family="Helvetica,sans-Serif" font-size="10.00">+ ~Widget()</text>
<text text-anchor="start" x="154.768" y="-420.5" font-family="Helvetica,sans-Serif" font-size="10.00">+ setPosition()</text>
<text text-anchor="start" x="154.768" y="-409.5" font-family="Helvetica,sans-Serif" font-size="10.00">+ setX()</text>
<text text-anchor="start" x="154.768" y="-398.5" font-family="Helvetica,sans-Serif" font-size="10.00">+ setY()</text>
<text text-anchor="start" x="154.768" y="-387.5" font-family="Helvetica,sans-Serif" font-size="10.00">+ setSize()</text>
<text text-anchor="start" x="154.768" y="-376.5" font-family="Helvetica,sans-Serif" font-size="10.00">+ setWidth()</text>
<text text-anchor="start" x="154.768" y="-365.5" font-family="Helvetica,sans-Serif" font-size="10.00">+ setHeight()</text>
<text text-anchor="start" x="154.768" y="-354.5" font-family="Helvetica,sans-Serif" font-size="10.00">+ setRect()</text>
<text text-anchor="start" x="154.768" y="-343.5" font-family="Helvetica,sans-Serif" font-size="10.00">+ setStyle()</text>
<text text-anchor="start" x="154.768" y="-332.5" font-family="Helvetica,sans-Serif" font-size="10.00">+ setAlignment()</text>
<text text-anchor="start" x="154.768" y="-321.5" font-family="Helvetica,sans-Serif" font-size="10.00">+ getAlignment()</text>
<text text-anchor="start" x="154.768" y="-310.5" font-family="Helvetica,sans-Serif" font-size="10.00">+ getPos()</text>
<text text-anchor="start" x="154.768" y="-299.5" font-family="Helvetica,sans-Serif" font-size="10.00">+ getX()</text>
<text text-anchor="start" x="154.768" y="-288.5" font-family="Helvetica,sans-Serif" font-size="10.00">+ getY()</text>
<text text-anchor="start" x="154.768" y="-277.5" font-family="Helvetica,sans-Serif" font-size="10.00">+ getSize()</text>
<text text-anchor="start" x="154.768" y="-266.5" font-family="Helvetica,sans-Serif" font-size="10.00">+ getWidth()</text>
<text text-anchor="start" x="154.768" y="-255.5" font-family="Helvetica,sans-Serif" font-size="10.00">+ getHeight()</text>
<text text-anchor="start" x="154.768" y="-244.5" font-family="Helvetica,sans-Serif" font-size="10.00">+ getRect()</text>
<text text-anchor="start" x="154.768" y="-233.5" font-family="Helvetica,sans-Serif" font-size="10.00">+ getStyle()</text>
<text text-anchor="start" x="154.768" y="-222.5" font-family="Helvetica,sans-Serif" font-size="10.00">+ isBold()</text>
<text text-anchor="start" x="154.768" y="-211.5" font-family="Helvetica,sans-Serif" font-size="10.00">+ setBold()</text>
</a>
</g>
</g>
<!-- Node2&#45;&gt;Node1 -->
<g id="edge1" class="edge"><title>Node2&#45;&gt;Node1</title>
<path fill="none" stroke="midnightblue" d="M251.272,-213.064C252.757,-210.002 254.257,-206.977 255.768,-204 265.615,-184.609 277.503,-164.389 289.135,-145.833"/>
<polygon fill="none" stroke="midnightblue" points="247.989,-211.818 246.861,-222.352 254.312,-214.821 247.989,-211.818"/>
</g>
<!-- Node3 -->
<g id="node3" class="node"><title>Node3</title>
<g id="a_node3"><a xlink:href="classqtreports_1_1detail_1_1_object.html" target="_top" xlink:title="Базовый класс для любого тэга ">
<polygon fill="none" stroke="black" points="71.2682,-551.5 71.2682,-696.5 170.268,-696.5 170.268,-551.5 71.2682,-551.5"/>
<text text-anchor="start" x="79.2682" y="-684.5" font-family="Helvetica,sans-Serif" font-size="10.00">qtreports::detail::</text>
<text text-anchor="middle" x="120.768" y="-673.5" font-family="Helvetica,sans-Serif" font-size="10.00">Object</text>
<polyline fill="none" stroke="black" points="71.2682,-666.5 170.268,-666.5 "/>
<text text-anchor="middle" x="120.768" y="-654.5" font-family="Helvetica,sans-Serif" font-size="10.00"> </text>
<polyline fill="none" stroke="black" points="71.2682,-647.5 170.268,-647.5 "/>
<text text-anchor="start" x="79.2682" y="-635.5" font-family="Helvetica,sans-Serif" font-size="10.00">+ Object()</text>
<text text-anchor="start" x="79.2682" y="-624.5" font-family="Helvetica,sans-Serif" font-size="10.00">+ Object()</text>
<text text-anchor="start" x="79.2682" y="-613.5" font-family="Helvetica,sans-Serif" font-size="10.00">+ ~Object()</text>
<text text-anchor="start" x="79.2682" y="-602.5" font-family="Helvetica,sans-Serif" font-size="10.00">+ setName()</text>
<text text-anchor="start" x="79.2682" y="-591.5" font-family="Helvetica,sans-Serif" font-size="10.00">+ getName()</text>
<text text-anchor="start" x="79.2682" y="-580.5" font-family="Helvetica,sans-Serif" font-size="10.00">+ setTagName()</text>
<text text-anchor="start" x="79.2682" y="-569.5" font-family="Helvetica,sans-Serif" font-size="10.00">+ getTagName()</text>
<text text-anchor="start" x="79.2682" y="-558.5" font-family="Helvetica,sans-Serif" font-size="10.00">+ getLastError()</text>
</a>
</g>
</g>
<!-- Node3&#45;&gt;Node2 -->
<g id="edge2" class="edge"><title>Node3&#45;&gt;Node2</title>
<path fill="none" stroke="midnightblue" d="M143.955,-541.235C147.37,-529.195 150.973,-516.487 154.629,-503.598"/>
<polygon fill="none" stroke="midnightblue" points="140.496,-540.605 141.135,-551.181 147.23,-542.515 140.496,-540.605"/>
</g>
<!-- Node4 -->
<g id="node4" class="node"><title>Node4</title>
<polygon fill="none" stroke="#bfbfbf" points="14.2682,-766.5 14.2682,-823.5 67.2682,-823.5 67.2682,-766.5 14.2682,-766.5"/>
<text text-anchor="middle" x="40.7682" y="-811.5" font-family="Helvetica,sans-Serif" font-size="10.00">QString</text>
<polyline fill="none" stroke="#bfbfbf" points="14.2682,-804.5 67.2682,-804.5 "/>
<text text-anchor="middle" x="40.7682" y="-792.5" font-family="Helvetica,sans-Serif" font-size="10.00"> </text>
<polyline fill="none" stroke="#bfbfbf" points="14.2682,-785.5 67.2682,-785.5 "/>
<text text-anchor="middle" x="40.7682" y="-773.5" font-family="Helvetica,sans-Serif" font-size="10.00"> </text>
</g>
<!-- Node4&#45;&gt;Node2 -->
<g id="edge4" class="edge"><title>Node4&#45;&gt;Node2</title>
<path fill="none" stroke="#404040" d="M29.2523,-766.277C11.8013,-719.953 -16.3817,-624.641 12.7682,-551 37.7341,-487.929 93.6568,-433.3 137.34,-397.855"/>
<polygon fill="none" stroke="#404040" points="137.355,-397.843 139.556,-390.976 146.741,-390.367 144.54,-397.234 137.355,-397.843"/>
<text text-anchor="middle" x="37.2682" y="-621.5" font-family="Helvetica,sans-Serif" font-size="10.00"> #m_style</text>
</g>
<!-- Node4&#45;&gt;Node3 -->
<g id="edge3" class="edge"><title>Node4&#45;&gt;Node3</title>
<path fill="none" stroke="#404040" d="M53.7997,-766.471C61.4534,-750.303 71.5729,-728.925 81.6207,-707.699"/>
<polygon fill="none" stroke="#404040" points="81.7207,-707.488 80.6725,-700.353 86.8551,-696.642 87.9033,-703.776 81.7207,-707.488"/>
<text text-anchor="middle" x="112.768" y="-740" font-family="Helvetica,sans-Serif" font-size="10.00"> #m_tagName</text>
<text text-anchor="middle" x="112.768" y="-729" font-family="Helvetica,sans-Serif" font-size="10.00">#m_name</text>
<text text-anchor="middle" x="112.768" y="-718" font-family="Helvetica,sans-Serif" font-size="10.00">#m_lastError</text>
</g>
<!-- Node5 -->
<g id="node5" class="node"><title>Node5</title>
<polygon fill="none" stroke="#bfbfbf" points="188.268,-595.5 188.268,-652.5 225.268,-652.5 225.268,-595.5 188.268,-595.5"/>
<text text-anchor="middle" x="206.768" y="-640.5" font-family="Helvetica,sans-Serif" font-size="10.00">bool</text>
<polyline fill="none" stroke="#bfbfbf" points="188.268,-633.5 225.268,-633.5 "/>
<text text-anchor="middle" x="206.768" y="-621.5" font-family="Helvetica,sans-Serif" font-size="10.00"> </text>
<polyline fill="none" stroke="#bfbfbf" points="188.268,-614.5 225.268,-614.5 "/>
<text text-anchor="middle" x="206.768" y="-602.5" font-family="Helvetica,sans-Serif" font-size="10.00"> </text>
</g>
<!-- Node5&#45;&gt;Node2 -->
<g id="edge5" class="edge"><title>Node5&#45;&gt;Node2</title>
<path fill="none" stroke="#404040" d="M203.339,-595.478C201.289,-577.687 198.875,-554.013 197.768,-533 197.469,-527.32 197.208,-521.536 196.98,-515.693"/>
<polygon fill="none" stroke="#404040" points="196.978,-515.624 192.771,-509.767 196.56,-503.631 200.766,-509.488 196.978,-515.624"/>
<text text-anchor="middle" x="225.268" y="-525" font-family="Helvetica,sans-Serif" font-size="10.00"> #m_isBold</text>
</g>
<!-- Node6 -->
<g id="node6" class="node"><title>Node6</title>
<polygon fill="none" stroke="#bfbfbf" points="252.768,-595.5 252.768,-652.5 296.768,-652.5 296.768,-595.5 252.768,-595.5"/>
<text text-anchor="middle" x="274.768" y="-640.5" font-family="Helvetica,sans-Serif" font-size="10.00">QRect</text>
<polyline fill="none" stroke="#bfbfbf" points="252.768,-633.5 296.768,-633.5 "/>
<text text-anchor="middle" x="274.768" y="-621.5" font-family="Helvetica,sans-Serif" font-size="10.00"> </text>
<polyline fill="none" stroke="#bfbfbf" points="252.768,-614.5 296.768,-614.5 "/>
<text text-anchor="middle" x="274.768" y="-602.5" font-family="Helvetica,sans-Serif" font-size="10.00"> </text>
</g>
<!-- Node6&#45;&gt;Node2 -->
<g id="edge6" class="edge"><title>Node6&#45;&gt;Node2</title>
<path fill="none" stroke="#404040" d="M269.595,-595.367C265.569,-574.955 259.541,-546.567 252.768,-522 251.95,-519.034 251.11,-516.042 250.251,-513.033"/>
<polygon fill="none" stroke="#404040" points="250.204,-512.869 244.685,-508.227 246.848,-501.348 252.366,-505.99 250.204,-512.869"/>
<text text-anchor="middle" x="278.768" y="-525" font-family="Helvetica,sans-Serif" font-size="10.00"> #m_rect</text>
</g>
<!-- Node7 -->
<g id="node7" class="node"><title>Node7</title>
<polygon fill="none" stroke="#bfbfbf" points="315.268,-595.5 315.268,-652.5 380.268,-652.5 380.268,-595.5 315.268,-595.5"/>
<text text-anchor="middle" x="347.768" y="-640.5" font-family="Helvetica,sans-Serif" font-size="10.00">Alignment</text>
<polyline fill="none" stroke="#bfbfbf" points="315.268,-633.5 380.268,-633.5 "/>
<text text-anchor="middle" x="347.768" y="-621.5" font-family="Helvetica,sans-Serif" font-size="10.00"> </text>
<polyline fill="none" stroke="#bfbfbf" points="315.268,-614.5 380.268,-614.5 "/>
<text text-anchor="middle" x="347.768" y="-602.5" font-family="Helvetica,sans-Serif" font-size="10.00"> </text>
</g>
<!-- Node7&#45;&gt;Node2 -->
<g id="edge7" class="edge"><title>Node7&#45;&gt;Node2</title>
<path fill="none" stroke="#404040" d="M342.737,-595.497C337.268,-572.946 326.393,-541.648 305.768,-522 288.667,-505.709 272.73,-520.436 255.768,-504 255.575,-503.812 255.382,-503.624 255.189,-503.435"/>
<polygon fill="none" stroke="#404040" points="255.074,-503.31 248.067,-501.605 246.946,-494.482 253.952,-496.186 255.074,-503.31"/>
<text text-anchor="middle" x="353.268" y="-525" font-family="Helvetica,sans-Serif" font-size="10.00"> #m_alignment</text>
</g>
<!-- Node8 -->
<g id="node8" class="node"><title>Node8</title>
<polygon fill="none" stroke="#bfbfbf" points="264.768,-320 264.768,-388 410.768,-388 410.768,-320 264.768,-320"/>
<text text-anchor="start" x="272.768" y="-376" font-family="Helvetica,sans-Serif" font-size="10.00">QSharedPointer&lt; Crosstab</text>
<text text-anchor="middle" x="337.768" y="-365" font-family="Helvetica,sans-Serif" font-size="10.00">Group &gt;</text>
<polyline fill="none" stroke="#bfbfbf" points="264.768,-358 410.768,-358 "/>
<text text-anchor="middle" x="337.768" y="-346" font-family="Helvetica,sans-Serif" font-size="10.00"> </text>
<polyline fill="none" stroke="#bfbfbf" points="264.768,-339 410.768,-339 "/>
<text text-anchor="middle" x="337.768" y="-327" font-family="Helvetica,sans-Serif" font-size="10.00"> </text>
</g>
<!-- Node8&#45;&gt;Node1 -->
<g id="edge8" class="edge"><title>Node8&#45;&gt;Node1</title>
<path fill="none" stroke="#404040" d="M337.768,-319.899C337.768,-280.178 337.768,-212.119 337.768,-157.66"/>
<polygon fill="none" stroke="#404040" points="337.768,-157.555 333.768,-151.555 337.768,-145.555 341.768,-151.555 337.768,-157.555"/>
<text text-anchor="middle" x="379.768" y="-178" font-family="Helvetica,sans-Serif" font-size="10.00"> &#45;m_rowGroup</text>
<text text-anchor="middle" x="379.768" y="-167" font-family="Helvetica,sans-Serif" font-size="10.00">&#45;m_columnGroup</text>
</g>
<!-- Node9 -->
<g id="node9" class="node"><title>Node9</title>
<polygon fill="none" stroke="#bfbfbf" points="428.768,-320 428.768,-388 574.768,-388 574.768,-320 428.768,-320"/>
<text text-anchor="start" x="436.768" y="-376" font-family="Helvetica,sans-Serif" font-size="10.00">QSharedPointer&lt; Crosstab</text>
<text text-anchor="middle" x="501.768" y="-365" font-family="Helvetica,sans-Serif" font-size="10.00">Cell &gt;</text>
<polyline fill="none" stroke="#bfbfbf" points="428.768,-358 574.768,-358 "/>
<text text-anchor="middle" x="501.768" y="-346" font-family="Helvetica,sans-Serif" font-size="10.00"> </text>
<polyline fill="none" stroke="#bfbfbf" points="428.768,-339 574.768,-339 "/>
<text text-anchor="middle" x="501.768" y="-327" font-family="Helvetica,sans-Serif" font-size="10.00"> </text>
</g>
<!-- Node9&#45;&gt;Node1 -->
<g id="edge9" class="edge"><title>Node9&#45;&gt;Node1</title>
<path fill="none" stroke="#404040" d="M492.72,-319.693C481.093,-280.387 458.435,-214.052 425.768,-164 419.563,-154.493 412.252,-145.137 404.54,-136.264"/>
<polygon fill="none" stroke="#404040" points="404.415,-136.125 397.428,-134.341 396.387,-127.206 403.374,-128.989 404.415,-136.125"/>
<text text-anchor="middle" x="478.268" y="-172.5" font-family="Helvetica,sans-Serif" font-size="10.00"> &#45;m_crosstabCell</text>
</g>
</g>
</svg>
