<?xml version="1.0" encoding="UTF-8" standalone="no"?>
<!DOCTYPE svg PUBLIC "-//W3C//DTD SVG 1.1//EN"
 "http://www.w3.org/Graphics/SVG/1.1/DTD/svg11.dtd">
<!-- Generated by graphviz version 2.38.0 (20140413.2041)
 -->
<!-- Title: qtreports::detail::ParserFromXML::getRequiredAttribute Pages: 1 -->
<svg width="586pt" height="560pt"
 viewBox="0.00 0.00 586.00 559.50" xmlns="http://www.w3.org/2000/svg" xmlns:xlink="http://www.w3.org/1999/xlink">
<g id="graph0" class="graph" transform="scale(1 1) rotate(0) translate(4 555.5)">
<title>qtreports::detail::ParserFromXML::getRequiredAttribute</title>
<!-- Node1 -->
<g id="node1" class="node"><title>Node1</title>
<polygon fill="#bfbfbf" stroke="black" points="0,-270.5 0,-311.5 153,-311.5 153,-270.5 0,-270.5"/>
<text text-anchor="start" x="8" y="-299.5" font-family="Helvetica,sans-Serif" font-size="10.00">qtreports::detail::</text>
<text text-anchor="start" x="8" y="-288.5" font-family="Helvetica,sans-Serif" font-size="10.00">ParserFromXML::getRequired</text>
<text text-anchor="middle" x="76.5" y="-277.5" font-family="Helvetica,sans-Serif" font-size="10.00">Attribute</text>
</g>
<!-- Node2 -->
<g id="node2" class="node"><title>Node2</title>
<g id="a_node2"><a xlink:href="classqtreports_1_1detail_1_1_parser_from_x_m_l.html#a8247dc85ae5cae03ab3f175982a0857e" target="_top" xlink:title="Парсит тэг report. ">
<polygon fill="none" stroke="black" points="203.5,-521 203.5,-551 357.5,-551 357.5,-521 203.5,-521"/>
<text text-anchor="start" x="211.5" y="-539" font-family="Helvetica,sans-Serif" font-size="10.00">qtreports::detail::</text>
<text text-anchor="middle" x="280.5" y="-528" font-family="Helvetica,sans-Serif" font-size="10.00">ParserFromXML::parseReport</text>
</a>
</g>
</g>
<!-- Node1&#45;&gt;Node2 -->
<g id="edge1" class="edge"><title>Node1&#45;&gt;Node2</title>
<path fill="none" stroke="midnightblue" d="M84.33,-321.429C96.697,-369.348 127.428,-462.068 189,-512 193.419,-515.583 198.321,-518.636 203.492,-521.235"/>
<polygon fill="midnightblue" stroke="midnightblue" points="87.7059,-320.501 81.8994,-311.639 80.9122,-322.187 87.7059,-320.501"/>
</g>
<!-- Node4 -->
<g id="node4" class="node"><title>Node4</title>
<g id="a_node4"><a xlink:href="classqtreports_1_1detail_1_1_parser_from_x_m_l.html#a5a366e39f908935a618b137e7e27496c" target="_top" xlink:title="Парсит тэг style. ">
<polygon fill="none" stroke="black" points="207,-472 207,-502 354,-502 354,-472 207,-472"/>
<text text-anchor="start" x="215" y="-490" font-family="Helvetica,sans-Serif" font-size="10.00">qtreports::detail::</text>
<text text-anchor="middle" x="280.5" y="-479" font-family="Helvetica,sans-Serif" font-size="10.00">ParserFromXML::parseStyle</text>
</a>
</g>
</g>
<!-- Node1&#45;&gt;Node4 -->
<g id="edge3" class="edge"><title>Node1&#45;&gt;Node4</title>
<path fill="none" stroke="midnightblue" d="M89.0746,-321.477C105.395,-360.287 138.886,-426.658 189,-463 194.395,-466.913 200.383,-470.187 206.637,-472.929"/>
<polygon fill="midnightblue" stroke="midnightblue" points="92.1329,-319.708 85.1112,-311.775 85.6526,-322.356 92.1329,-319.708"/>
</g>
<!-- Node5 -->
<g id="node5" class="node"><title>Node5</title>
<g id="a_node5"><a xlink:href="classqtreports_1_1detail_1_1_parser_from_x_m_l.html#a20a5b5081956769e0d219779407ba76c" target="_top" xlink:title="Парсит тэг Field. ">
<polygon fill="none" stroke="black" points="208.5,-423 208.5,-453 352.5,-453 352.5,-423 208.5,-423"/>
<text text-anchor="start" x="216.5" y="-441" font-family="Helvetica,sans-Serif" font-size="10.00">qtreports::detail::</text>
<text text-anchor="middle" x="280.5" y="-430" font-family="Helvetica,sans-Serif" font-size="10.00">ParserFromXML::parseField</text>
</a>
</g>
</g>
<!-- Node1&#45;&gt;Node5 -->
<g id="edge5" class="edge"><title>Node1&#45;&gt;Node5</title>
<path fill="none" stroke="midnightblue" d="M96.3466,-320.066C116.113,-348.232 149.732,-390.096 189,-414 194.97,-417.634 201.488,-420.725 208.202,-423.352"/>
<polygon fill="midnightblue" stroke="midnightblue" points="99.2144,-318.06 90.6662,-311.8 93.4452,-322.024 99.2144,-318.06"/>
</g>
<!-- Node6 -->
<g id="node6" class="node"><title>Node6</title>
<g id="a_node6"><a xlink:href="classqtreports_1_1detail_1_1_parser_from_x_m_l.html#a477a961860b1de77b5a0da28e361987a" target="_top" xlink:title="Парсит тэг group. ">
<polygon fill="none" stroke="black" points="204.5,-374 204.5,-404 356.5,-404 356.5,-374 204.5,-374"/>
<text text-anchor="start" x="212.5" y="-392" font-family="Helvetica,sans-Serif" font-size="10.00">qtreports::detail::</text>
<text text-anchor="middle" x="280.5" y="-381" font-family="Helvetica,sans-Serif" font-size="10.00">ParserFromXML::parseGroup</text>
</a>
</g>
</g>
<!-- Node1&#45;&gt;Node6 -->
<g id="edge7" class="edge"><title>Node1&#45;&gt;Node6</title>
<path fill="none" stroke="midnightblue" d="M111.174,-317.579C132.461,-333.276 161.128,-352.467 189,-365 196.413,-368.333 204.382,-371.28 212.408,-373.864"/>
<polygon fill="midnightblue" stroke="midnightblue" points="113.209,-314.729 103.107,-311.536 109.012,-320.332 113.209,-314.729"/>
</g>
<!-- Node7 -->
<g id="node7" class="node"><title>Node7</title>
<g id="a_node7"><a xlink:href="classqtreports_1_1detail_1_1_parser_from_x_m_l.html#af04b8018f1bb3d60ecb6525f31d29885" target="_top" xlink:title="Парсит тэг Band. ">
<polygon fill="none" stroke="black" points="206.5,-325 206.5,-355 354.5,-355 354.5,-325 206.5,-325"/>
<text text-anchor="start" x="214.5" y="-343" font-family="Helvetica,sans-Serif" font-size="10.00">qtreports::detail::</text>
<text text-anchor="middle" x="280.5" y="-332" font-family="Helvetica,sans-Serif" font-size="10.00">ParserFromXML::parseBand</text>
</a>
</g>
</g>
<!-- Node1&#45;&gt;Node7 -->
<g id="edge9" class="edge"><title>Node1&#45;&gt;Node7</title>
<path fill="none" stroke="midnightblue" d="M162.834,-311.7C181.218,-316.159 200.312,-320.791 217.599,-324.984"/>
<polygon fill="midnightblue" stroke="midnightblue" points="163.548,-308.272 153.005,-309.315 161.898,-315.074 163.548,-308.272"/>
</g>
<!-- Node8 -->
<g id="node8" class="node"><title>Node8</title>
<g id="a_node8"><a xlink:href="classqtreports_1_1detail_1_1_parser_from_x_m_l.html#a9f70ead2687f2b3fc8f21dd6bf85049f" target="_top" xlink:title="Парсит тэг rowGroup. ">
<polygon fill="none" stroke="black" points="195.5,-276 195.5,-306 365.5,-306 365.5,-276 195.5,-276"/>
<text text-anchor="start" x="203.5" y="-294" font-family="Helvetica,sans-Serif" font-size="10.00">qtreports::detail::</text>
<text text-anchor="middle" x="280.5" y="-283" font-family="Helvetica,sans-Serif" font-size="10.00">ParserFromXML::parseRowGroup</text>
</a>
</g>
</g>
<!-- Node1&#45;&gt;Node8 -->
<g id="edge11" class="edge"><title>Node1&#45;&gt;Node8</title>
<path fill="none" stroke="midnightblue" d="M163.123,-291C173.767,-291 184.644,-291 195.267,-291"/>
<polygon fill="midnightblue" stroke="midnightblue" points="163.005,-287.5 153.005,-291 163.005,-294.5 163.005,-287.5"/>
</g>
<!-- Node9 -->
<g id="node9" class="node"><title>Node9</title>
<g id="a_node9"><a xlink:href="classqtreports_1_1detail_1_1_parser_from_x_m_l.html#a400e9daf7e859228f6ac7419963bb808" target="_top" xlink:title="Парсит тэг columnGroup. ">
<polygon fill="none" stroke="black" points="200.5,-216.5 200.5,-257.5 360.5,-257.5 360.5,-216.5 200.5,-216.5"/>
<text text-anchor="start" x="208.5" y="-245.5" font-family="Helvetica,sans-Serif" font-size="10.00">qtreports::detail::</text>
<text text-anchor="start" x="208.5" y="-234.5" font-family="Helvetica,sans-Serif" font-size="10.00">ParserFromXML::parseColumn</text>
<text text-anchor="middle" x="280.5" y="-223.5" font-family="Helvetica,sans-Serif" font-size="10.00">Group</text>
</a>
</g>
</g>
<!-- Node1&#45;&gt;Node9 -->
<g id="edge13" class="edge"><title>Node1&#45;&gt;Node9</title>
<path fill="none" stroke="midnightblue" d="M163.007,-268.142C176.2,-264.615 189.754,-260.991 202.74,-257.52"/>
<polygon fill="midnightblue" stroke="midnightblue" points="161.761,-264.852 153.005,-270.816 163.569,-271.614 161.761,-264.852"/>
</g>
<!-- Node10 -->
<g id="node10" class="node"><title>Node10</title>
<g id="a_node10"><a xlink:href="classqtreports_1_1detail_1_1_parser_from_x_m_l.html#ac7539fad6732c571ad578861a5259807" target="_top" xlink:title="Парсит тэг crosstabCell. ">
<polygon fill="none" stroke="black" points="189,-168 189,-198 372,-198 372,-168 189,-168"/>
<text text-anchor="start" x="197" y="-186" font-family="Helvetica,sans-Serif" font-size="10.00">qtreports::detail::</text>
<text text-anchor="middle" x="280.5" y="-175" font-family="Helvetica,sans-Serif" font-size="10.00">ParserFromXML::parseCrosstabCell</text>
</a>
</g>
</g>
<!-- Node1&#45;&gt;Node10 -->
<g id="edge15" class="edge"><title>Node1&#45;&gt;Node10</title>
<path fill="none" stroke="midnightblue" d="M106.996,-263.715C128.34,-245.299 158.654,-221.75 189,-207 196.017,-203.589 203.585,-200.614 211.249,-198.03"/>
<polygon fill="midnightblue" stroke="midnightblue" points="104.481,-261.265 99.2739,-270.492 109.098,-266.526 104.481,-261.265"/>
</g>
<!-- Node11 -->
<g id="node11" class="node"><title>Node11</title>
<g id="a_node11"><a xlink:href="classqtreports_1_1detail_1_1_parser_from_x_m_l.html#aee6cb5359125988f68abfcd2f6fe4514" target="_top" xlink:title="Парсит тэг ReportElement &#45; общие данные о элементе отчета (положение, размеры и пр.) ">
<polygon fill="none" stroke="black" points="203.5,-108.5 203.5,-149.5 357.5,-149.5 357.5,-108.5 203.5,-108.5"/>
<text text-anchor="start" x="211.5" y="-137.5" font-family="Helvetica,sans-Serif" font-size="10.00">qtreports::detail::</text>
<text text-anchor="start" x="211.5" y="-126.5" font-family="Helvetica,sans-Serif" font-size="10.00">ParserFromXML::parseReport</text>
<text text-anchor="middle" x="280.5" y="-115.5" font-family="Helvetica,sans-Serif" font-size="10.00">Element</text>
</a>
</g>
</g>
<!-- Node1&#45;&gt;Node11 -->
<g id="edge17" class="edge"><title>Node1&#45;&gt;Node11</title>
<path fill="none" stroke="midnightblue" d="M95.5273,-261.311C115.077,-231.469 148.918,-186.113 189,-159 194.21,-155.476 199.867,-152.337 205.724,-149.546"/>
<polygon fill="midnightblue" stroke="midnightblue" points="92.3829,-259.731 89.9277,-270.037 98.2742,-263.511 92.3829,-259.731"/>
</g>
<!-- Node12 -->
<g id="node12" class="node"><title>Node12</title>
<g id="a_node12"><a xlink:href="classqtreports_1_1detail_1_1_parser_from_x_m_l.html#a3693d70428f413c6adb999bf0ad69abe" target="_top" xlink:title="Парсит тэг TextElement &#45; общие данные о текстовом элементе (выравнивание текста и пр...">
<polygon fill="none" stroke="black" points="189.5,-60 189.5,-90 371.5,-90 371.5,-60 189.5,-60"/>
<text text-anchor="start" x="197.5" y="-78" font-family="Helvetica,sans-Serif" font-size="10.00">qtreports::detail::</text>
<text text-anchor="middle" x="280.5" y="-67" font-family="Helvetica,sans-Serif" font-size="10.00">ParserFromXML::parseTextElement</text>
</a>
</g>
</g>
<!-- Node1&#45;&gt;Node12 -->
<g id="edge19" class="edge"><title>Node1&#45;&gt;Node12</title>
<path fill="none" stroke="midnightblue" d="M86.7738,-260.8C101.442,-218.173 134.111,-140.896 189,-99 193.522,-95.5482 198.5,-92.5916 203.723,-90.0593"/>
<polygon fill="midnightblue" stroke="midnightblue" points="83.4332,-259.754 83.5908,-270.348 90.0739,-261.968 83.4332,-259.754"/>
</g>
<!-- Node13 -->
<g id="node13" class="node"><title>Node13</title>
<g id="a_node13"><a xlink:href="classqtreports_1_1detail_1_1_parser_from_x_m_l.html#a459f21efce7b714320d84d304d304d60" target="_top" xlink:title="Парсит текст для textField. ">
<polygon fill="none" stroke="black" points="199,-0.5 199,-41.5 362,-41.5 362,-0.5 199,-0.5"/>
<text text-anchor="start" x="207" y="-29.5" font-family="Helvetica,sans-Serif" font-size="10.00">qtreports::detail::</text>
<text text-anchor="start" x="207" y="-18.5" font-family="Helvetica,sans-Serif" font-size="10.00">ParserFromXML::parseTextField</text>
<text text-anchor="middle" x="280.5" y="-7.5" font-family="Helvetica,sans-Serif" font-size="10.00">Expression</text>
</a>
</g>
</g>
<!-- Node1&#45;&gt;Node13 -->
<g id="edge21" class="edge"><title>Node1&#45;&gt;Node13</title>
<path fill="none" stroke="midnightblue" d="M83.5078,-260.322C95.0217,-209.57 124.96,-108.079 189,-51 192.954,-47.4757 197.334,-44.3637 201.971,-41.616"/>
<polygon fill="midnightblue" stroke="midnightblue" points="80.0326,-259.832 81.3249,-270.348 86.8723,-261.322 80.0326,-259.832"/>
</g>
<!-- Node3 -->
<g id="node3" class="node"><title>Node3</title>
<g id="a_node3"><a xlink:href="classqtreports_1_1detail_1_1_parser_from_x_m_l.html#ab548bd252b2e13a315daefae6b43f1d6" target="_top" xlink:title="qtreports::detail::\lParserFromXML::ParserFromXML">
<polygon fill="none" stroke="black" points="408,-276 408,-306 578,-306 578,-276 408,-276"/>
<text text-anchor="start" x="416" y="-294" font-family="Helvetica,sans-Serif" font-size="10.00">qtreports::detail::</text>
<text text-anchor="middle" x="493" y="-283" font-family="Helvetica,sans-Serif" font-size="10.00">ParserFromXML::ParserFromXML</text>
</a>
</g>
</g>
<!-- Node2&#45;&gt;Node3 -->
<g id="edge2" class="edge"><title>Node2&#45;&gt;Node3</title>
<path fill="none" stroke="midnightblue" d="M366.936,-515.642C368.679,-514.494 370.371,-513.281 372,-512 443.045,-456.142 477.656,-346.122 488.302,-306.051"/>
<polygon fill="midnightblue" stroke="midnightblue" points="364.766,-512.852 357.833,-520.864 368.249,-518.924 364.766,-512.852"/>
</g>
<!-- Node4&#45;&gt;Node3 -->
<g id="edge4" class="edge"><title>Node4&#45;&gt;Node3</title>
<path fill="none" stroke="midnightblue" d="M363.42,-468.286C366.396,-466.668 369.27,-464.91 372,-463 431.669,-421.258 471.348,-339.757 485.851,-306.098"/>
<polygon fill="midnightblue" stroke="midnightblue" points="361.703,-465.229 354.224,-472.733 364.751,-471.531 361.703,-465.229"/>
</g>
<!-- Node5&#45;&gt;Node3 -->
<g id="edge6" class="edge"><title>Node5&#45;&gt;Node3</title>
<path fill="none" stroke="midnightblue" d="M361.987,-419.198C365.438,-417.602 368.793,-415.872 372,-414 420.693,-385.569 462.895,-332.076 481.649,-306.023"/>
<polygon fill="midnightblue" stroke="midnightblue" points="360.521,-416.018 352.662,-423.123 363.237,-422.47 360.521,-416.018"/>
</g>
<!-- Node6&#45;&gt;Node3 -->
<g id="edge8" class="edge"><title>Node6&#45;&gt;Node3</title>
<path fill="none" stroke="midnightblue" d="M357.284,-370.697C362.32,-368.932 367.268,-367.034 372,-365 409.329,-348.957 448.703,-322.605 471.775,-306.059"/>
<polygon fill="midnightblue" stroke="midnightblue" points="355.915,-367.463 347.521,-373.926 358.114,-374.108 355.915,-367.463"/>
</g>
<!-- Node7&#45;&gt;Node3 -->
<g id="edge10" class="edge"><title>Node7&#45;&gt;Node3</title>
<path fill="none" stroke="midnightblue" d="M355.952,-322.669C379.323,-317.229 404.915,-311.271 427.535,-306.006"/>
<polygon fill="midnightblue" stroke="midnightblue" points="355.034,-319.289 346.087,-324.965 356.621,-326.107 355.034,-319.289"/>
</g>
<!-- Node8&#45;&gt;Node3 -->
<g id="edge12" class="edge"><title>Node8&#45;&gt;Node3</title>
<path fill="none" stroke="midnightblue" d="M375.746,-291C386.388,-291 397.183,-291 407.687,-291"/>
<polygon fill="midnightblue" stroke="midnightblue" points="375.603,-287.5 365.603,-291 375.603,-294.5 375.603,-287.5"/>
</g>
<!-- Node9&#45;&gt;Node3 -->
<g id="edge14" class="edge"><title>Node9&#45;&gt;Node3</title>
<path fill="none" stroke="midnightblue" d="M370.483,-259.827C391.766,-265.287 413.959,-270.98 433.466,-275.984"/>
<polygon fill="midnightblue" stroke="midnightblue" points="371.337,-256.433 360.781,-257.338 369.598,-263.213 371.337,-256.433"/>
</g>
<!-- Node10&#45;&gt;Node3 -->
<g id="edge16" class="edge"><title>Node10&#45;&gt;Node3</title>
<path fill="none" stroke="midnightblue" d="M358.651,-201.444C363.228,-203.157 367.711,-205.007 372,-207 411.667,-225.432 452.201,-257.015 474.531,-275.757"/>
<polygon fill="midnightblue" stroke="midnightblue" points="359.749,-198.12 349.154,-198.115 357.434,-204.726 359.749,-198.12"/>
</g>
<!-- Node11&#45;&gt;Node3 -->
<g id="edge18" class="edge"><title>Node11&#45;&gt;Node3</title>
<path fill="none" stroke="midnightblue" d="M363.848,-154.147C366.651,-155.679 369.379,-157.295 372,-159 421.333,-191.078 463.538,-248.251 482.022,-275.599"/>
<polygon fill="midnightblue" stroke="midnightblue" points="365.18,-150.9 354.673,-149.538 362.037,-157.155 365.18,-150.9"/>
</g>
<!-- Node12&#45;&gt;Node3 -->
<g id="edge20" class="edge"><title>Node12&#45;&gt;Node3</title>
<path fill="none" stroke="midnightblue" d="M365.571,-94.7222C367.791,-96.056 369.94,-97.4799 372,-99 436.208,-146.379 474.042,-239.347 486.956,-275.811"/>
<polygon fill="midnightblue" stroke="midnightblue" points="367.175,-91.6112 356.702,-90.0117 363.892,-97.7933 367.175,-91.6112"/>
</g>
<!-- Node13&#45;&gt;Node3 -->
<g id="edge22" class="edge"><title>Node13&#45;&gt;Node3</title>
<path fill="none" stroke="midnightblue" d="M367.33,-47.265C368.939,-48.4556 370.498,-49.6998 372,-51 445.429,-114.578 478.849,-233.794 488.723,-275.845"/>
<polygon fill="midnightblue" stroke="midnightblue" points="369.196,-44.3033 358.914,-41.7473 365.358,-50.1573 369.196,-44.3033"/>
</g>
</g>
</svg>
