<?xml version="1.0" encoding="UTF-8" standalone="no"?>
<!DOCTYPE svg PUBLIC "-//W3C//DTD SVG 1.1//EN"
 "http://www.w3.org/Graphics/SVG/1.1/DTD/svg11.dtd">
<!-- Generated by graphviz version 2.38.0 (20140413.2041)
 -->
<!-- Title: qtreports::detail::ParserFromXML::getAttribute Pages: 1 -->
<svg width="776pt" height="610pt"
 viewBox="0.00 0.00 776.00 609.50" xmlns="http://www.w3.org/2000/svg" xmlns:xlink="http://www.w3.org/1999/xlink">
<g id="graph0" class="graph" transform="scale(1 1) rotate(0) translate(4 605.5)">
<title>qtreports::detail::ParserFromXML::getAttribute</title>
<!-- Node1 -->
<g id="node1" class="node"><title>Node1</title>
<polygon fill="#bfbfbf" stroke="black" points="0,-253.5 0,-283.5 154,-283.5 154,-253.5 0,-253.5"/>
<text text-anchor="start" x="8" y="-271.5" font-family="Helvetica,sans-Serif" font-size="10.00">qtreports::detail::</text>
<text text-anchor="middle" x="77" y="-260.5" font-family="Helvetica,sans-Serif" font-size="10.00">ParserFromXML::getAttribute</text>
</g>
<!-- Node2 -->
<g id="node2" class="node"><title>Node2</title>
<g id="a_node2"><a xlink:href="classqtreports_1_1detail_1_1_parser_from_x_m_l.html#ab1cbf7385fa2d56c5e8526bf97cda9b1" target="_top" xlink:title="Вызывает функцию getAttribute с переданными параметрами и с параметром option &#45; &quot;обязательный аттрибу...">
<polygon fill="none" stroke="black" points="190,-285 190,-326 343,-326 343,-285 190,-285"/>
<text text-anchor="start" x="198" y="-314" font-family="Helvetica,sans-Serif" font-size="10.00">qtreports::detail::</text>
<text text-anchor="start" x="198" y="-303" font-family="Helvetica,sans-Serif" font-size="10.00">ParserFromXML::getRequired</text>
<text text-anchor="middle" x="266.5" y="-292" font-family="Helvetica,sans-Serif" font-size="10.00">Attribute</text>
</a>
</g>
</g>
<!-- Node1&#45;&gt;Node2 -->
<g id="edge1" class="edge"><title>Node1&#45;&gt;Node2</title>
<path fill="none" stroke="midnightblue" d="M164.26,-285.522C172.823,-287.212 181.47,-288.918 189.912,-290.584"/>
<polygon fill="midnightblue" stroke="midnightblue" points="164.752,-282.052 154.263,-283.549 163.397,-288.919 164.752,-282.052"/>
</g>
<!-- Node15 -->
<g id="node15" class="node"><title>Node15</title>
<g id="a_node15"><a xlink:href="classqtreports_1_1detail_1_1_parser_from_x_m_l.html#a478329a44761310039078ee6871a355d" target="_top" xlink:title="Вызывает функцию getAttribute с переданными параметрами и с параметром option &#45; &quot;опциональный аттрибу...">
<polygon fill="none" stroke="black" points="190.5,-185 190.5,-226 342.5,-226 342.5,-185 190.5,-185"/>
<text text-anchor="start" x="198.5" y="-214" font-family="Helvetica,sans-Serif" font-size="10.00">qtreports::detail::</text>
<text text-anchor="start" x="198.5" y="-203" font-family="Helvetica,sans-Serif" font-size="10.00">ParserFromXML::getOptional</text>
<text text-anchor="middle" x="266.5" y="-192" font-family="Helvetica,sans-Serif" font-size="10.00">Attribute</text>
</a>
</g>
</g>
<!-- Node1&#45;&gt;Node15 -->
<g id="edge24" class="edge"><title>Node1&#45;&gt;Node15</title>
<path fill="none" stroke="midnightblue" d="M132.621,-250.147C155.082,-242.6 181.195,-233.827 204.297,-226.064"/>
<polygon fill="midnightblue" stroke="midnightblue" points="131.275,-246.907 122.911,-253.41 133.505,-253.543 131.275,-246.907"/>
</g>
<!-- Node3 -->
<g id="node3" class="node"><title>Node3</title>
<g id="a_node3"><a xlink:href="classqtreports_1_1detail_1_1_parser_from_x_m_l.html#a8247dc85ae5cae03ab3f175982a0857e" target="_top" xlink:title="Парсит тэг report. ">
<polygon fill="none" stroke="black" points="393.5,-315.5 393.5,-345.5 547.5,-345.5 547.5,-315.5 393.5,-315.5"/>
<text text-anchor="start" x="401.5" y="-333.5" font-family="Helvetica,sans-Serif" font-size="10.00">qtreports::detail::</text>
<text text-anchor="middle" x="470.5" y="-322.5" font-family="Helvetica,sans-Serif" font-size="10.00">ParserFromXML::parseReport</text>
</a>
</g>
</g>
<!-- Node2&#45;&gt;Node3 -->
<g id="edge2" class="edge"><title>Node2&#45;&gt;Node3</title>
<path fill="none" stroke="midnightblue" d="M353.147,-316.1C366.524,-317.755 380.269,-319.457 393.414,-321.083"/>
<polygon fill="midnightblue" stroke="midnightblue" points="353.359,-312.599 343.005,-314.845 352.499,-319.546 353.359,-312.599"/>
</g>
<!-- Node5 -->
<g id="node5" class="node"><title>Node5</title>
<g id="a_node5"><a xlink:href="classqtreports_1_1detail_1_1_parser_from_x_m_l.html#a5a366e39f908935a618b137e7e27496c" target="_top" xlink:title="Парсит тэг style. ">
<polygon fill="none" stroke="black" points="397,-266.5 397,-296.5 544,-296.5 544,-266.5 397,-266.5"/>
<text text-anchor="start" x="405" y="-284.5" font-family="Helvetica,sans-Serif" font-size="10.00">qtreports::detail::</text>
<text text-anchor="middle" x="470.5" y="-273.5" font-family="Helvetica,sans-Serif" font-size="10.00">ParserFromXML::parseStyle</text>
</a>
</g>
</g>
<!-- Node2&#45;&gt;Node5 -->
<g id="edge4" class="edge"><title>Node2&#45;&gt;Node5</title>
<path fill="none" stroke="midnightblue" d="M353.002,-295.341C367.567,-293.611 382.572,-291.828 396.767,-290.142"/>
<polygon fill="midnightblue" stroke="midnightblue" points="352.522,-291.874 343.005,-296.529 353.348,-298.825 352.522,-291.874"/>
</g>
<!-- Node6 -->
<g id="node6" class="node"><title>Node6</title>
<g id="a_node6"><a xlink:href="classqtreports_1_1detail_1_1_parser_from_x_m_l.html#a20a5b5081956769e0d219779407ba76c" target="_top" xlink:title="Парсит тэг Field. ">
<polygon fill="none" stroke="black" points="398.5,-511.5 398.5,-541.5 542.5,-541.5 542.5,-511.5 398.5,-511.5"/>
<text text-anchor="start" x="406.5" y="-529.5" font-family="Helvetica,sans-Serif" font-size="10.00">qtreports::detail::</text>
<text text-anchor="middle" x="470.5" y="-518.5" font-family="Helvetica,sans-Serif" font-size="10.00">ParserFromXML::parseField</text>
</a>
</g>
</g>
<!-- Node2&#45;&gt;Node6 -->
<g id="edge6" class="edge"><title>Node2&#45;&gt;Node6</title>
<path fill="none" stroke="midnightblue" d="M276.326,-335.801C290.608,-379.381 322.988,-459.253 379,-502.5 384.79,-506.97 391.34,-510.611 398.206,-513.574"/>
<polygon fill="midnightblue" stroke="midnightblue" points="279.596,-334.533 273.238,-326.058 272.923,-336.648 279.596,-334.533"/>
</g>
<!-- Node7 -->
<g id="node7" class="node"><title>Node7</title>
<g id="a_node7"><a xlink:href="classqtreports_1_1detail_1_1_parser_from_x_m_l.html#a477a961860b1de77b5a0da28e361987a" target="_top" xlink:title="Парсит тэг group. ">
<polygon fill="none" stroke="black" points="394.5,-462.5 394.5,-492.5 546.5,-492.5 546.5,-462.5 394.5,-462.5"/>
<text text-anchor="start" x="402.5" y="-480.5" font-family="Helvetica,sans-Serif" font-size="10.00">qtreports::detail::</text>
<text text-anchor="middle" x="470.5" y="-469.5" font-family="Helvetica,sans-Serif" font-size="10.00">ParserFromXML::parseGroup</text>
</a>
</g>
</g>
<!-- Node2&#45;&gt;Node7 -->
<g id="edge8" class="edge"><title>Node2&#45;&gt;Node7</title>
<path fill="none" stroke="midnightblue" d="M282.011,-335.135C300.075,-368.901 334.107,-423.299 379,-453.5 384.125,-456.948 389.723,-459.901 395.54,-462.43"/>
<polygon fill="midnightblue" stroke="midnightblue" points="285.074,-333.44 277.343,-326.195 278.869,-336.68 285.074,-333.44"/>
</g>
<!-- Node8 -->
<g id="node8" class="node"><title>Node8</title>
<g id="a_node8"><a xlink:href="classqtreports_1_1detail_1_1_parser_from_x_m_l.html#af04b8018f1bb3d60ecb6525f31d29885" target="_top" xlink:title="Парсит тэг Band. ">
<polygon fill="none" stroke="black" points="396.5,-413.5 396.5,-443.5 544.5,-443.5 544.5,-413.5 396.5,-413.5"/>
<text text-anchor="start" x="404.5" y="-431.5" font-family="Helvetica,sans-Serif" font-size="10.00">qtreports::detail::</text>
<text text-anchor="middle" x="470.5" y="-420.5" font-family="Helvetica,sans-Serif" font-size="10.00">ParserFromXML::parseBand</text>
</a>
</g>
</g>
<!-- Node2&#45;&gt;Node8 -->
<g id="edge10" class="edge"><title>Node2&#45;&gt;Node8</title>
<path fill="none" stroke="midnightblue" d="M292.057,-333.595C313.039,-355.921 345.131,-386.319 379,-404.5 385.302,-407.883 392.111,-410.812 399.066,-413.343"/>
<polygon fill="midnightblue" stroke="midnightblue" points="294.467,-331.046 285.114,-326.069 289.322,-335.792 294.467,-331.046"/>
</g>
<!-- Node9 -->
<g id="node9" class="node"><title>Node9</title>
<g id="a_node9"><a xlink:href="classqtreports_1_1detail_1_1_parser_from_x_m_l.html#a9f70ead2687f2b3fc8f21dd6bf85049f" target="_top" xlink:title="Парсит тэг rowGroup. ">
<polygon fill="none" stroke="black" points="385.5,-217.5 385.5,-247.5 555.5,-247.5 555.5,-217.5 385.5,-217.5"/>
<text text-anchor="start" x="393.5" y="-235.5" font-family="Helvetica,sans-Serif" font-size="10.00">qtreports::detail::</text>
<text text-anchor="middle" x="470.5" y="-224.5" font-family="Helvetica,sans-Serif" font-size="10.00">ParserFromXML::parseRowGroup</text>
</a>
</g>
</g>
<!-- Node2&#45;&gt;Node9 -->
<g id="edge12" class="edge"><title>Node2&#45;&gt;Node9</title>
<path fill="none" stroke="midnightblue" d="M319.207,-280.785C337.808,-272.428 359.11,-263.461 379,-256.5 388.052,-253.332 397.739,-250.35 407.287,-247.635"/>
<polygon fill="midnightblue" stroke="midnightblue" points="317.687,-277.631 310.031,-284.956 320.583,-284.004 317.687,-277.631"/>
</g>
<!-- Node10 -->
<g id="node10" class="node"><title>Node10</title>
<g id="a_node10"><a xlink:href="classqtreports_1_1detail_1_1_parser_from_x_m_l.html#a400e9daf7e859228f6ac7419963bb808" target="_top" xlink:title="Парсит тэг columnGroup. ">
<polygon fill="none" stroke="black" points="390.5,-158 390.5,-199 550.5,-199 550.5,-158 390.5,-158"/>
<text text-anchor="start" x="398.5" y="-187" font-family="Helvetica,sans-Serif" font-size="10.00">qtreports::detail::</text>
<text text-anchor="start" x="398.5" y="-176" font-family="Helvetica,sans-Serif" font-size="10.00">ParserFromXML::parseColumn</text>
<text text-anchor="middle" x="470.5" y="-165" font-family="Helvetica,sans-Serif" font-size="10.00">Group</text>
</a>
</g>
</g>
<!-- Node2&#45;&gt;Node10 -->
<g id="edge14" class="edge"><title>Node2&#45;&gt;Node10</title>
<path fill="none" stroke="midnightblue" d="M297.622,-277.887C327.43,-250.748 369.892,-212.661 379,-207.5 384.455,-204.409 390.284,-201.596 396.256,-199.048"/>
<polygon fill="midnightblue" stroke="midnightblue" points="294.997,-275.544 289.967,-284.869 299.714,-280.716 294.997,-275.544"/>
</g>
<!-- Node11 -->
<g id="node11" class="node"><title>Node11</title>
<g id="a_node11"><a xlink:href="classqtreports_1_1detail_1_1_parser_from_x_m_l.html#ac7539fad6732c571ad578861a5259807" target="_top" xlink:title="Парсит тэг crosstabCell. ">
<polygon fill="none" stroke="black" points="379,-364.5 379,-394.5 562,-394.5 562,-364.5 379,-364.5"/>
<text text-anchor="start" x="387" y="-382.5" font-family="Helvetica,sans-Serif" font-size="10.00">qtreports::detail::</text>
<text text-anchor="middle" x="470.5" y="-371.5" font-family="Helvetica,sans-Serif" font-size="10.00">ParserFromXML::parseCrosstabCell</text>
</a>
</g>
</g>
<!-- Node2&#45;&gt;Node11 -->
<g id="edge16" class="edge"><title>Node2&#45;&gt;Node11</title>
<path fill="none" stroke="midnightblue" d="M319.487,-330.208C338.034,-338.524 359.231,-347.467 379,-354.5 388.982,-358.051 399.73,-361.411 410.211,-364.447"/>
<polygon fill="midnightblue" stroke="midnightblue" points="320.886,-327 310.333,-326.059 317.997,-333.375 320.886,-327"/>
</g>
<!-- Node12 -->
<g id="node12" class="node"><title>Node12</title>
<g id="a_node12"><a xlink:href="classqtreports_1_1detail_1_1_parser_from_x_m_l.html#aee6cb5359125988f68abfcd2f6fe4514" target="_top" xlink:title="Парсит тэг ReportElement &#45; общие данные о элементе отчета (положение, размеры и пр.) ">
<polygon fill="none" stroke="black" points="393.5,-98 393.5,-139 547.5,-139 547.5,-98 393.5,-98"/>
<text text-anchor="start" x="401.5" y="-127" font-family="Helvetica,sans-Serif" font-size="10.00">qtreports::detail::</text>
<text text-anchor="start" x="401.5" y="-116" font-family="Helvetica,sans-Serif" font-size="10.00">ParserFromXML::parseReport</text>
<text text-anchor="middle" x="470.5" y="-105" font-family="Helvetica,sans-Serif" font-size="10.00">Element</text>
</a>
</g>
</g>
<!-- Node2&#45;&gt;Node12 -->
<g id="edge18" class="edge"><title>Node2&#45;&gt;Node12</title>
<path fill="none" stroke="midnightblue" d="M303.036,-278.199C316.863,-266.237 331.993,-251.324 343,-235.5 366.895,-201.147 348.361,-177.002 379,-148.5 383.242,-144.554 388.015,-141.126 393.096,-138.149"/>
<polygon fill="midnightblue" stroke="midnightblue" points="300.486,-275.77 295.086,-284.886 304.992,-281.127 300.486,-275.77"/>
</g>
<!-- Node13 -->
<g id="node13" class="node"><title>Node13</title>
<g id="a_node13"><a xlink:href="classqtreports_1_1detail_1_1_parser_from_x_m_l.html#a3693d70428f413c6adb999bf0ad69abe" target="_top" xlink:title="Парсит тэг TextElement &#45; общие данные о текстовом элементе (выравнивание текста и пр...">
<polygon fill="none" stroke="black" points="379.5,-49.5 379.5,-79.5 561.5,-79.5 561.5,-49.5 379.5,-49.5"/>
<text text-anchor="start" x="387.5" y="-67.5" font-family="Helvetica,sans-Serif" font-size="10.00">qtreports::detail::</text>
<text text-anchor="middle" x="470.5" y="-56.5" font-family="Helvetica,sans-Serif" font-size="10.00">ParserFromXML::parseTextElement</text>
</a>
</g>
</g>
<!-- Node2&#45;&gt;Node13 -->
<g id="edge20" class="edge"><title>Node2&#45;&gt;Node13</title>
<path fill="none" stroke="midnightblue" d="M304.929,-278.441C318.754,-266.686 333.379,-251.857 343,-235.5 377.101,-177.521 331.892,-136.514 379,-88.5 382.301,-85.1351 386.016,-82.2247 390.008,-79.7088"/>
<polygon fill="midnightblue" stroke="midnightblue" points="302.445,-275.952 296.925,-284.995 306.88,-281.367 302.445,-275.952"/>
</g>
<!-- Node14 -->
<g id="node14" class="node"><title>Node14</title>
<g id="a_node14"><a xlink:href="classqtreports_1_1detail_1_1_parser_from_x_m_l.html#a459f21efce7b714320d84d304d304d60" target="_top" xlink:title="Парсит текст для textField. ">
<polygon fill="none" stroke="black" points="389,-560 389,-601 552,-601 552,-560 389,-560"/>
<text text-anchor="start" x="397" y="-589" font-family="Helvetica,sans-Serif" font-size="10.00">qtreports::detail::</text>
<text text-anchor="start" x="397" y="-578" font-family="Helvetica,sans-Serif" font-size="10.00">ParserFromXML::parseTextField</text>
<text text-anchor="middle" x="470.5" y="-567" font-family="Helvetica,sans-Serif" font-size="10.00">Expression</text>
</a>
</g>
</g>
<!-- Node2&#45;&gt;Node14 -->
<g id="edge22" class="edge"><title>Node2&#45;&gt;Node14</title>
<path fill="none" stroke="midnightblue" d="M272.98,-335.902C283.883,-387.631 313.157,-492.852 379,-551.5 382.45,-554.573 386.227,-557.32 390.22,-559.777"/>
<polygon fill="midnightblue" stroke="midnightblue" points="276.392,-335.115 270.983,-326.005 269.531,-336.5 276.392,-335.115"/>
</g>
<!-- Node4 -->
<g id="node4" class="node"><title>Node4</title>
<g id="a_node4"><a xlink:href="classqtreports_1_1detail_1_1_parser_from_x_m_l.html#ab548bd252b2e13a315daefae6b43f1d6" target="_top" xlink:title="qtreports::detail::\lParserFromXML::ParserFromXML">
<polygon fill="none" stroke="black" points="598,-290.5 598,-320.5 768,-320.5 768,-290.5 598,-290.5"/>
<text text-anchor="start" x="606" y="-308.5" font-family="Helvetica,sans-Serif" font-size="10.00">qtreports::detail::</text>
<text text-anchor="middle" x="683" y="-297.5" font-family="Helvetica,sans-Serif" font-size="10.00">ParserFromXML::ParserFromXML</text>
</a>
</g>
</g>
<!-- Node3&#45;&gt;Node4 -->
<g id="edge3" class="edge"><title>Node3&#45;&gt;Node4</title>
<path fill="none" stroke="midnightblue" d="M557.796,-320.251C571.002,-318.683 584.618,-317.066 597.778,-315.503"/>
<polygon fill="midnightblue" stroke="midnightblue" points="557.31,-316.784 547.793,-321.439 558.136,-323.735 557.31,-316.784"/>
</g>
<!-- Node5&#45;&gt;Node4 -->
<g id="edge5" class="edge"><title>Node5&#45;&gt;Node4</title>
<path fill="none" stroke="midnightblue" d="M554.465,-290.959C568.671,-292.579 583.445,-294.263 597.686,-295.887"/>
<polygon fill="midnightblue" stroke="midnightblue" points="554.569,-287.448 544.237,-289.793 553.776,-294.403 554.569,-287.448"/>
</g>
<!-- Node6&#45;&gt;Node4 -->
<g id="edge7" class="edge"><title>Node6&#45;&gt;Node4</title>
<path fill="none" stroke="midnightblue" d="M551.796,-508.989C555.37,-507.049 558.795,-504.894 562,-502.5 627.457,-453.616 664.793,-357.544 677.26,-320.532"/>
<polygon fill="midnightblue" stroke="midnightblue" points="550.147,-505.898 542.65,-513.384 553.179,-512.208 550.147,-505.898"/>
</g>
<!-- Node7&#45;&gt;Node4 -->
<g id="edge9" class="edge"><title>Node7&#45;&gt;Node4</title>
<path fill="none" stroke="midnightblue" d="M553.96,-458.166C556.732,-456.721 559.422,-455.168 562,-453.5 616.154,-418.455 657.434,-350.927 674.031,-320.735"/>
<polygon fill="midnightblue" stroke="midnightblue" points="552.438,-455.014 544.867,-462.425 555.407,-461.353 552.438,-455.014"/>
</g>
<!-- Node8&#45;&gt;Node4 -->
<g id="edge11" class="edge"><title>Node8&#45;&gt;Node4</title>
<path fill="none" stroke="midnightblue" d="M550.344,-409.845C554.349,-408.2 558.259,-406.422 562,-404.5 605.243,-382.288 647.002,-342.367 667.985,-320.622"/>
<polygon fill="midnightblue" stroke="midnightblue" points="548.966,-406.624 540.857,-413.443 551.448,-413.169 548.966,-406.624"/>
</g>
<!-- Node9&#45;&gt;Node4 -->
<g id="edge13" class="edge"><title>Node9&#45;&gt;Node4</title>
<path fill="none" stroke="midnightblue" d="M542.416,-250.37C549.07,-252.328 555.683,-254.383 562,-256.5 591.764,-266.478 624.723,-280.131 648.556,-290.492"/>
<polygon fill="midnightblue" stroke="midnightblue" points="543.247,-246.968 532.669,-247.576 541.317,-253.696 543.247,-246.968"/>
</g>
<!-- Node10&#45;&gt;Node4 -->
<g id="edge15" class="edge"><title>Node10&#45;&gt;Node4</title>
<path fill="none" stroke="midnightblue" d="M553.545,-203.222C556.434,-204.587 559.261,-206.013 562,-207.5 604.312,-230.476 646.122,-269.234 667.446,-290.471"/>
<polygon fill="midnightblue" stroke="midnightblue" points="554.711,-199.911 544.15,-199.067 551.88,-206.313 554.711,-199.911"/>
</g>
<!-- Node11&#45;&gt;Node4 -->
<g id="edge17" class="edge"><title>Node11&#45;&gt;Node4</title>
<path fill="none" stroke="midnightblue" d="M540.01,-361.5C547.47,-359.266 554.92,-356.914 562,-354.5 591.606,-344.406 624.439,-330.827 648.267,-320.524"/>
<polygon fill="midnightblue" stroke="midnightblue" points="538.842,-358.196 530.229,-364.366 540.809,-364.913 538.842,-358.196"/>
</g>
<!-- Node12&#45;&gt;Node4 -->
<g id="edge19" class="edge"><title>Node12&#45;&gt;Node4</title>
<path fill="none" stroke="midnightblue" d="M555.405,-144.176C557.672,-145.547 559.877,-146.987 562,-148.5 616.76,-187.523 658.011,-258.822 674.339,-290.101"/>
<polygon fill="midnightblue" stroke="midnightblue" points="556.833,-140.967 546.383,-139.225 553.466,-147.104 556.833,-140.967"/>
</g>
<!-- Node13&#45;&gt;Node4 -->
<g id="edge21" class="edge"><title>Node13&#45;&gt;Node4</title>
<path fill="none" stroke="midnightblue" d="M556.923,-84.8747C558.67,-86.0181 560.366,-87.2253 562,-88.5 632.096,-143.177 667.188,-250.84 678.138,-290.431"/>
<polygon fill="midnightblue" stroke="midnightblue" points="558.224,-81.5879 547.804,-79.6738 554.756,-87.6684 558.224,-81.5879"/>
</g>
<!-- Node14&#45;&gt;Node4 -->
<g id="edge23" class="edge"><title>Node14&#45;&gt;Node4</title>
<path fill="none" stroke="midnightblue" d="M558.869,-554.063C559.938,-553.235 560.983,-552.381 562,-551.5 637.087,-486.498 669.553,-363.668 678.944,-320.758"/>
<polygon fill="midnightblue" stroke="midnightblue" points="556.553,-551.405 550.246,-559.919 560.485,-557.196 556.553,-551.405"/>
</g>
<!-- Node15&#45;&gt;Node3 -->
<g id="edge25" class="edge"><title>Node15&#45;&gt;Node3</title>
<path fill="none" stroke="midnightblue" d="M297.055,-233.287C326.833,-261.074 369.68,-300.405 379,-305.5 386.008,-309.331 393.649,-312.612 401.424,-315.412"/>
<polygon fill="midnightblue" stroke="midnightblue" points="299.113,-230.42 289.418,-226.147 294.332,-235.534 299.113,-230.42"/>
</g>
<!-- Node15&#45;&gt;Node5 -->
<g id="edge26" class="edge"><title>Node15&#45;&gt;Node5</title>
<path fill="none" stroke="midnightblue" d="M317.468,-230.415C336.456,-239.333 358.46,-249.019 379,-256.5 388.802,-260.07 399.36,-263.417 409.682,-266.43"/>
<polygon fill="midnightblue" stroke="midnightblue" points="318.943,-227.241 308.409,-226.112 315.94,-233.564 318.943,-227.241"/>
</g>
<!-- Node15&#45;&gt;Node9 -->
<g id="edge27" class="edge"><title>Node15&#45;&gt;Node9</title>
<path fill="none" stroke="midnightblue" d="M352.93,-216.919C363.676,-218.355 374.663,-219.824 385.388,-221.257"/>
<polygon fill="midnightblue" stroke="midnightblue" points="353.093,-213.41 342.717,-215.554 352.165,-220.348 353.093,-213.41"/>
</g>
<!-- Node15&#45;&gt;Node10 -->
<g id="edge28" class="edge"><title>Node15&#45;&gt;Node10</title>
<path fill="none" stroke="midnightblue" d="M352.983,-194.074C365.313,-192.426 377.959,-190.736 390.163,-189.105"/>
<polygon fill="midnightblue" stroke="midnightblue" points="352.165,-190.652 342.717,-195.446 353.093,-197.59 352.165,-190.652"/>
</g>
<!-- Node15&#45;&gt;Node12 -->
<g id="edge29" class="edge"><title>Node15&#45;&gt;Node12</title>
<path fill="none" stroke="midnightblue" d="M313.1,-180.198C333.007,-169.676 356.826,-157.779 379,-148.5 386.787,-145.241 395.064,-142.09 403.325,-139.133"/>
<polygon fill="midnightblue" stroke="midnightblue" points="311.423,-177.125 304.249,-184.921 314.719,-183.301 311.423,-177.125"/>
</g>
<!-- Node15&#45;&gt;Node13 -->
<g id="edge30" class="edge"><title>Node15&#45;&gt;Node13</title>
<path fill="none" stroke="midnightblue" d="M287.616,-176.61C307.737,-149.861 341.086,-110.936 379,-88.5 384.735,-85.1059 390.955,-82.1834 397.357,-79.6685"/>
<polygon fill="midnightblue" stroke="midnightblue" points="284.673,-174.704 281.558,-184.831 290.308,-178.857 284.673,-174.704"/>
</g>
<!-- Node16 -->
<g id="node16" class="node"><title>Node16</title>
<g id="a_node16"><a xlink:href="classqtreports_1_1detail_1_1_parser_from_x_m_l.html#a4f7803080037058f482a499ebc1a51ee" target="_top" xlink:title="Парсит font &#45; данные о шрифте текста ">
<polygon fill="none" stroke="black" points="398.5,-0.5 398.5,-30.5 542.5,-30.5 542.5,-0.5 398.5,-0.5"/>
<text text-anchor="start" x="406.5" y="-18.5" font-family="Helvetica,sans-Serif" font-size="10.00">qtreports::detail::</text>
<text text-anchor="middle" x="470.5" y="-7.5" font-family="Helvetica,sans-Serif" font-size="10.00">ParserFromXML::parseFont</text>
</a>
</g>
</g>
<!-- Node15&#45;&gt;Node16 -->
<g id="edge31" class="edge"><title>Node15&#45;&gt;Node16</title>
<path fill="none" stroke="midnightblue" d="M279.628,-175.484C296.352,-137.942 330.082,-74.3694 379,-39.5 384.824,-35.3486 391.319,-31.9152 398.084,-29.0757"/>
<polygon fill="midnightblue" stroke="midnightblue" points="276.318,-174.319 275.553,-184.886 282.741,-177.103 276.318,-174.319"/>
</g>
<!-- Node16&#45;&gt;Node4 -->
<g id="edge32" class="edge"><title>Node16&#45;&gt;Node4</title>
<path fill="none" stroke="midnightblue" d="M551.941,-32.4006C555.501,-34.4998 558.881,-36.856 562,-39.5 643.738,-108.783 672.324,-245.148 679.792,-290.462"/>
<polygon fill="midnightblue" stroke="midnightblue" points="553.264,-29.1457 542.769,-27.6936 550.068,-35.3735 553.264,-29.1457"/>
</g>
</g>
</svg>
