<?xml version="1.0" encoding="UTF-8" standalone="no"?>
<!DOCTYPE svg PUBLIC "-//W3C//DTD SVG 1.1//EN"
 "http://www.w3.org/Graphics/SVG/1.1/DTD/svg11.dtd">
<!-- Generated by graphviz version 2.38.0 (20140413.2041)
 -->
<!-- Title: qtreports::detail::ParserFromXML::getOptionalAttribute Pages: 1 -->
<svg width="584pt" height="354pt"
 viewBox="0.00 0.00 584.00 354.00" xmlns="http://www.w3.org/2000/svg" xmlns:xlink="http://www.w3.org/1999/xlink">
<g id="graph0" class="graph" transform="scale(1 1) rotate(0) translate(4 350)">
<title>qtreports::detail::ParserFromXML::getOptionalAttribute</title>
<!-- Node1 -->
<g id="node1" class="node"><title>Node1</title>
<polygon fill="#bfbfbf" stroke="black" points="0,-158 0,-199 152,-199 152,-158 0,-158"/>
<text text-anchor="start" x="8" y="-187" font-family="Helvetica,sans-Serif" font-size="10.00">qtreports::detail::</text>
<text text-anchor="start" x="8" y="-176" font-family="Helvetica,sans-Serif" font-size="10.00">ParserFromXML::getOptional</text>
<text text-anchor="middle" x="76" y="-165" font-family="Helvetica,sans-Serif" font-size="10.00">Attribute</text>
</g>
<!-- Node2 -->
<g id="node2" class="node"><title>Node2</title>
<g id="a_node2"><a xlink:href="classqtreports_1_1detail_1_1_parser_from_x_m_l.html#a8247dc85ae5cae03ab3f175982a0857e" target="_top" xlink:title="Парсит тэг report. ">
<polygon fill="none" stroke="black" points="202,-315.5 202,-345.5 356,-345.5 356,-315.5 202,-315.5"/>
<text text-anchor="start" x="210" y="-333.5" font-family="Helvetica,sans-Serif" font-size="10.00">qtreports::detail::</text>
<text text-anchor="middle" x="279" y="-322.5" font-family="Helvetica,sans-Serif" font-size="10.00">ParserFromXML::parseReport</text>
</a>
</g>
</g>
<!-- Node1&#45;&gt;Node2 -->
<g id="edge1" class="edge"><title>Node1&#45;&gt;Node2</title>
<path fill="none" stroke="midnightblue" d="M94.8083,-207.76C114.16,-237.076 147.761,-281.356 188,-306.5 193.486,-309.928 199.454,-312.87 205.621,-315.395"/>
<polygon fill="midnightblue" stroke="midnightblue" points="97.6332,-205.683 89.2686,-199.18 91.7525,-209.48 97.6332,-205.683"/>
</g>
<!-- Node4 -->
<g id="node4" class="node"><title>Node4</title>
<g id="a_node4"><a xlink:href="classqtreports_1_1detail_1_1_parser_from_x_m_l.html#a5a366e39f908935a618b137e7e27496c" target="_top" xlink:title="Парсит тэг style. ">
<polygon fill="none" stroke="black" points="205.5,-266.5 205.5,-296.5 352.5,-296.5 352.5,-266.5 205.5,-266.5"/>
<text text-anchor="start" x="213.5" y="-284.5" font-family="Helvetica,sans-Serif" font-size="10.00">qtreports::detail::</text>
<text text-anchor="middle" x="279" y="-273.5" font-family="Helvetica,sans-Serif" font-size="10.00">ParserFromXML::parseStyle</text>
</a>
</g>
</g>
<!-- Node1&#45;&gt;Node4 -->
<g id="edge3" class="edge"><title>Node1&#45;&gt;Node4</title>
<path fill="none" stroke="midnightblue" d="M108.552,-205.629C129.785,-222.663 159.089,-243.904 188,-257.5 195.171,-260.872 202.893,-263.832 210.694,-266.415"/>
<polygon fill="midnightblue" stroke="midnightblue" points="110.504,-202.705 100.543,-199.096 106.079,-208.129 110.504,-202.705"/>
</g>
<!-- Node5 -->
<g id="node5" class="node"><title>Node5</title>
<g id="a_node5"><a xlink:href="classqtreports_1_1detail_1_1_parser_from_x_m_l.html#a9f70ead2687f2b3fc8f21dd6bf85049f" target="_top" xlink:title="Парсит тэг rowGroup. ">
<polygon fill="none" stroke="black" points="194,-217.5 194,-247.5 364,-247.5 364,-217.5 194,-217.5"/>
<text text-anchor="start" x="202" y="-235.5" font-family="Helvetica,sans-Serif" font-size="10.00">qtreports::detail::</text>
<text text-anchor="middle" x="279" y="-224.5" font-family="Helvetica,sans-Serif" font-size="10.00">ParserFromXML::parseRowGroup</text>
</a>
</g>
</g>
<!-- Node1&#45;&gt;Node5 -->
<g id="edge5" class="edge"><title>Node1&#45;&gt;Node5</title>
<path fill="none" stroke="midnightblue" d="M162.082,-201.526C170.834,-203.886 179.595,-206.244 188,-208.5 198.776,-211.393 210.282,-214.47 221.341,-217.422"/>
<polygon fill="midnightblue" stroke="midnightblue" points="162.79,-198.092 152.224,-198.867 160.967,-204.851 162.79,-198.092"/>
</g>
<!-- Node6 -->
<g id="node6" class="node"><title>Node6</title>
<g id="a_node6"><a xlink:href="classqtreports_1_1detail_1_1_parser_from_x_m_l.html#a400e9daf7e859228f6ac7419963bb808" target="_top" xlink:title="Парсит тэг columnGroup. ">
<polygon fill="none" stroke="black" points="199,-158 199,-199 359,-199 359,-158 199,-158"/>
<text text-anchor="start" x="207" y="-187" font-family="Helvetica,sans-Serif" font-size="10.00">qtreports::detail::</text>
<text text-anchor="start" x="207" y="-176" font-family="Helvetica,sans-Serif" font-size="10.00">ParserFromXML::parseColumn</text>
<text text-anchor="middle" x="279" y="-165" font-family="Helvetica,sans-Serif" font-size="10.00">Group</text>
</a>
</g>
</g>
<!-- Node1&#45;&gt;Node6 -->
<g id="edge7" class="edge"><title>Node1&#45;&gt;Node6</title>
<path fill="none" stroke="midnightblue" d="M162.26,-178.5C174.423,-178.5 186.891,-178.5 198.929,-178.5"/>
<polygon fill="midnightblue" stroke="midnightblue" points="162.131,-175 152.131,-178.5 162.131,-182 162.131,-175"/>
</g>
<!-- Node7 -->
<g id="node7" class="node"><title>Node7</title>
<g id="a_node7"><a xlink:href="classqtreports_1_1detail_1_1_parser_from_x_m_l.html#aee6cb5359125988f68abfcd2f6fe4514" target="_top" xlink:title="Парсит тэг ReportElement &#45; общие данные о элементе отчета (положение, размеры и пр.) ">
<polygon fill="none" stroke="black" points="202,-98 202,-139 356,-139 356,-98 202,-98"/>
<text text-anchor="start" x="210" y="-127" font-family="Helvetica,sans-Serif" font-size="10.00">qtreports::detail::</text>
<text text-anchor="start" x="210" y="-116" font-family="Helvetica,sans-Serif" font-size="10.00">ParserFromXML::parseReport</text>
<text text-anchor="middle" x="279" y="-105" font-family="Helvetica,sans-Serif" font-size="10.00">Element</text>
</a>
</g>
</g>
<!-- Node1&#45;&gt;Node7 -->
<g id="edge9" class="edge"><title>Node1&#45;&gt;Node7</title>
<path fill="none" stroke="midnightblue" d="M155.608,-155.035C173.3,-149.754 191.944,-144.188 209.198,-139.038"/>
<polygon fill="midnightblue" stroke="midnightblue" points="154.473,-151.721 145.892,-157.935 156.475,-158.429 154.473,-151.721"/>
</g>
<!-- Node8 -->
<g id="node8" class="node"><title>Node8</title>
<g id="a_node8"><a xlink:href="classqtreports_1_1detail_1_1_parser_from_x_m_l.html#a3693d70428f413c6adb999bf0ad69abe" target="_top" xlink:title="Парсит тэг TextElement &#45; общие данные о текстовом элементе (выравнивание текста и пр...">
<polygon fill="none" stroke="black" points="188,-49.5 188,-79.5 370,-79.5 370,-49.5 188,-49.5"/>
<text text-anchor="start" x="196" y="-67.5" font-family="Helvetica,sans-Serif" font-size="10.00">qtreports::detail::</text>
<text text-anchor="middle" x="279" y="-56.5" font-family="Helvetica,sans-Serif" font-size="10.00">ParserFromXML::parseTextElement</text>
</a>
</g>
</g>
<!-- Node1&#45;&gt;Node8 -->
<g id="edge11" class="edge"><title>Node1&#45;&gt;Node8</title>
<path fill="none" stroke="midnightblue" d="M104.531,-150.573C125.671,-130.61 156.495,-104.541 188,-88.5 194.629,-85.1248 201.781,-82.1877 209.055,-79.6402"/>
<polygon fill="midnightblue" stroke="midnightblue" points="101.982,-148.169 97.1978,-157.622 106.833,-153.216 101.982,-148.169"/>
</g>
<!-- Node9 -->
<g id="node9" class="node"><title>Node9</title>
<g id="a_node9"><a xlink:href="classqtreports_1_1detail_1_1_parser_from_x_m_l.html#a4f7803080037058f482a499ebc1a51ee" target="_top" xlink:title="Парсит font &#45; данные о шрифте текста ">
<polygon fill="none" stroke="black" points="207,-0.5 207,-30.5 351,-30.5 351,-0.5 207,-0.5"/>
<text text-anchor="start" x="215" y="-18.5" font-family="Helvetica,sans-Serif" font-size="10.00">qtreports::detail::</text>
<text text-anchor="middle" x="279" y="-7.5" font-family="Helvetica,sans-Serif" font-size="10.00">ParserFromXML::parseFont</text>
</a>
</g>
</g>
<!-- Node1&#45;&gt;Node9 -->
<g id="edge13" class="edge"><title>Node1&#45;&gt;Node9</title>
<path fill="none" stroke="midnightblue" d="M93.1317,-149.009C111.87,-117.503 145.692,-68.3506 188,-40.5 193.824,-36.6659 200.231,-33.4144 206.861,-30.6581"/>
<polygon fill="midnightblue" stroke="midnightblue" points="90.0296,-147.381 88.03,-157.786 96.0815,-150.899 90.0296,-147.381"/>
</g>
<!-- Node3 -->
<g id="node3" class="node"><title>Node3</title>
<g id="a_node3"><a xlink:href="classqtreports_1_1detail_1_1_parser_from_x_m_l.html#ab548bd252b2e13a315daefae6b43f1d6" target="_top" xlink:title="qtreports::detail::\lParserFromXML::ParserFromXML">
<polygon fill="none" stroke="black" points="406,-163.5 406,-193.5 576,-193.5 576,-163.5 406,-163.5"/>
<text text-anchor="start" x="414" y="-181.5" font-family="Helvetica,sans-Serif" font-size="10.00">qtreports::detail::</text>
<text text-anchor="middle" x="491" y="-170.5" font-family="Helvetica,sans-Serif" font-size="10.00">ParserFromXML::ParserFromXML</text>
</a>
</g>
</g>
<!-- Node2&#45;&gt;Node3 -->
<g id="edge2" class="edge"><title>Node2&#45;&gt;Node3</title>
<path fill="none" stroke="midnightblue" d="M361.139,-311.258C364.189,-309.785 367.155,-308.202 370,-306.5 419.666,-276.788 461.71,-220.672 480.088,-193.712"/>
<polygon fill="midnightblue" stroke="midnightblue" points="359.535,-308.139 351.774,-315.352 362.339,-314.553 359.535,-308.139"/>
</g>
<!-- Node4&#45;&gt;Node3 -->
<g id="edge4" class="edge"><title>Node4&#45;&gt;Node3</title>
<path fill="none" stroke="midnightblue" d="M355.723,-263.236C360.615,-261.466 365.414,-259.556 370,-257.5 408.465,-240.258 448.441,-211.352 471.17,-193.696"/>
<polygon fill="midnightblue" stroke="midnightblue" points="354.568,-259.932 346.23,-266.468 356.824,-266.558 354.568,-259.932"/>
</g>
<!-- Node5&#45;&gt;Node3 -->
<g id="edge6" class="edge"><title>Node5&#45;&gt;Node3</title>
<path fill="none" stroke="midnightblue" d="M348.212,-214.96C375.074,-208.052 405.614,-200.199 431.453,-193.555"/>
<polygon fill="midnightblue" stroke="midnightblue" points="347.31,-211.578 338.497,-217.458 349.053,-218.357 347.31,-211.578"/>
</g>
<!-- Node6&#45;&gt;Node3 -->
<g id="edge8" class="edge"><title>Node6&#45;&gt;Node3</title>
<path fill="none" stroke="midnightblue" d="M369.185,-178.5C381.297,-178.5 393.697,-178.5 405.719,-178.5"/>
<polygon fill="midnightblue" stroke="midnightblue" points="369.093,-175 359.093,-178.5 369.093,-182 369.093,-175"/>
</g>
<!-- Node7&#45;&gt;Node3 -->
<g id="edge10" class="edge"><title>Node7&#45;&gt;Node3</title>
<path fill="none" stroke="midnightblue" d="M361.62,-141.82C387.064,-149.09 414.438,-156.911 437.345,-163.456"/>
<polygon fill="midnightblue" stroke="midnightblue" points="362.553,-138.447 351.976,-139.065 360.63,-145.177 362.553,-138.447"/>
</g>
<!-- Node8&#45;&gt;Node3 -->
<g id="edge12" class="edge"><title>Node8&#45;&gt;Node3</title>
<path fill="none" stroke="midnightblue" d="M357.43,-83.0404C361.744,-84.7226 365.963,-86.5398 370,-88.5 411.23,-108.521 452.487,-143.552 474.247,-163.491"/>
<polygon fill="midnightblue" stroke="midnightblue" points="358.46,-79.691 347.866,-79.5702 356.072,-86.2712 358.46,-79.691"/>
</g>
<!-- Node9&#45;&gt;Node3 -->
<g id="edge14" class="edge"><title>Node9&#45;&gt;Node3</title>
<path fill="none" stroke="midnightblue" d="M359.393,-34.6308C363.067,-36.4185 366.625,-38.37 370,-40.5 421.819,-73.2048 463.71,-135.033 481.189,-163.483"/>
<polygon fill="midnightblue" stroke="midnightblue" points="360.62,-31.3468 350.058,-30.5164 357.797,-37.7523 360.62,-31.3468"/>
</g>
</g>
</svg>
