<?xml version="1.0" encoding="UTF-8" standalone="no"?>
<!DOCTYPE svg PUBLIC "-//W3C//DTD SVG 1.1//EN"
 "http://www.w3.org/Graphics/SVG/1.1/DTD/svg11.dtd">
<!-- Generated by graphviz version 2.38.0 (20140413.2041)
 -->
<!-- Title: qtreports::detail::ConverterToHTML::convert Pages: 1 -->
<svg width="1686pt" height="335pt"
 viewBox="0.00 0.00 1686.00 334.50" xmlns="http://www.w3.org/2000/svg" xmlns:xlink="http://www.w3.org/1999/xlink">
<g id="graph0" class="graph" transform="scale(1 1) rotate(0) translate(4 330.5)">
<title>qtreports::detail::ConverterToHTML::convert</title>
<!-- Node1 -->
<g id="node1" class="node"><title>Node1</title>
<polygon fill="#bfbfbf" stroke="black" points="0,-149 0,-179 142,-179 142,-149 0,-149"/>
<text text-anchor="start" x="8" y="-167" font-family="Helvetica,sans-Serif" font-size="10.00">qtreports::detail::</text>
<text text-anchor="middle" x="71" y="-156" font-family="Helvetica,sans-Serif" font-size="10.00">ConverterToHTML::convert</text>
</g>
<!-- Node2 -->
<g id="node2" class="node"><title>Node2</title>
<g id="a_node2"><a xlink:href="classqtreports_1_1detail_1_1_converter_to_h_t_m_l.html#ad91ac333abf7d02f7590970a54ef7aae" target="_top" xlink:title="Запускает процесс конвертации репорта в HTML формат. ">
<polygon fill="none" stroke="black" points="178,-149 178,-179 320,-179 320,-149 178,-149"/>
<text text-anchor="start" x="186" y="-167" font-family="Helvetica,sans-Serif" font-size="10.00">qtreports::detail::</text>
<text text-anchor="middle" x="249" y="-156" font-family="Helvetica,sans-Serif" font-size="10.00">ConverterToHTML::convert</text>
</a>
</g>
</g>
<!-- Node1&#45;&gt;Node2 -->
<g id="edge1" class="edge"><title>Node1&#45;&gt;Node2</title>
<path fill="none" stroke="midnightblue" d="M142.066,-164C150.54,-164 159.247,-164 167.852,-164"/>
<polygon fill="midnightblue" stroke="midnightblue" points="167.888,-167.5 177.888,-164 167.888,-160.5 167.888,-167.5"/>
</g>
<!-- Node3 -->
<g id="node3" class="node"><title>Node3</title>
<g id="a_node3"><a xlink:href="classqtreports_1_1detail_1_1_converter_to_h_t_m_l.html#ace8358a3612fc8085b7c34f1f92341e2" target="_top" xlink:title="Процесс конвертации репорта в HTML формат. ">
<polygon fill="none" stroke="black" points="356,-149 356,-179 519,-179 519,-149 356,-149"/>
<text text-anchor="start" x="364" y="-167" font-family="Helvetica,sans-Serif" font-size="10.00">qtreports::detail::</text>
<text text-anchor="middle" x="437.5" y="-156" font-family="Helvetica,sans-Serif" font-size="10.00">ConverterToHTML::createHTML</text>
</a>
</g>
</g>
<!-- Node2&#45;&gt;Node3 -->
<g id="edge2" class="edge"><title>Node2&#45;&gt;Node3</title>
<path fill="none" stroke="midnightblue" d="M320.242,-164C328.628,-164 337.279,-164 345.9,-164"/>
<polygon fill="midnightblue" stroke="midnightblue" points="345.989,-167.5 355.989,-164 345.989,-160.5 345.989,-167.5"/>
</g>
<!-- Node4 -->
<g id="node4" class="node"><title>Node4</title>
<g id="a_node4"><a xlink:href="classqtreports_1_1detail_1_1_style.html#ae233bf8f53b1ceb560398925a50fcb44" target="_top" xlink:title="Возвращает название шрифта ">
<polygon fill="none" stroke="black" points="577.5,-296 577.5,-326 690.5,-326 690.5,-296 577.5,-296"/>
<text text-anchor="start" x="585.5" y="-314" font-family="Helvetica,sans-Serif" font-size="10.00">qtreports::detail::</text>
<text text-anchor="middle" x="634" y="-303" font-family="Helvetica,sans-Serif" font-size="10.00">Style::getFontName</text>
</a>
</g>
</g>
<!-- Node3&#45;&gt;Node4 -->
<g id="edge3" class="edge"><title>Node3&#45;&gt;Node4</title>
<path fill="none" stroke="midnightblue" d="M448.848,-179.252C467.213,-205.173 508.02,-257.838 555,-287 559.074,-289.529 563.434,-291.808 567.933,-293.861"/>
<polygon fill="midnightblue" stroke="midnightblue" points="566.74,-297.155 577.317,-297.76 569.426,-290.691 566.74,-297.155"/>
</g>
<!-- Node5 -->
<g id="node5" class="node"><title>Node5</title>
<g id="a_node5"><a xlink:href="classqtreports_1_1detail_1_1_style.html#ac969a5ba6cd39a890a72ec4146ba8dda" target="_top" xlink:title="Возвращает размер шрифта ">
<polygon fill="none" stroke="black" points="582,-247 582,-277 686,-277 686,-247 582,-247"/>
<text text-anchor="start" x="590" y="-265" font-family="Helvetica,sans-Serif" font-size="10.00">qtreports::detail::</text>
<text text-anchor="middle" x="634" y="-254" font-family="Helvetica,sans-Serif" font-size="10.00">Style::getFontSize</text>
</a>
</g>
</g>
<!-- Node3&#45;&gt;Node5 -->
<g id="edge4" class="edge"><title>Node3&#45;&gt;Node5</title>
<path fill="none" stroke="midnightblue" d="M458.588,-179.126C481.081,-195.486 519.1,-221.44 555,-238 560.44,-240.509 566.21,-242.844 572.054,-244.994"/>
<polygon fill="midnightblue" stroke="midnightblue" points="571.317,-248.444 581.912,-248.436 573.624,-241.835 571.317,-248.444"/>
</g>
<!-- Node6 -->
<g id="node6" class="node"><title>Node6</title>
<g id="a_node6"><a xlink:href="classqtreports_1_1detail_1_1_style.html#a2d8d9d0d898c4306e47dcca067c60c28" target="_top" xlink:title="Возвращает цвет шрифта ">
<polygon fill="none" stroke="black" points="580,-198 580,-228 688,-228 688,-198 580,-198"/>
<text text-anchor="start" x="588" y="-216" font-family="Helvetica,sans-Serif" font-size="10.00">qtreports::detail::</text>
<text text-anchor="middle" x="634" y="-205" font-family="Helvetica,sans-Serif" font-size="10.00">Style::getFontColor</text>
</a>
</g>
</g>
<!-- Node3&#45;&gt;Node6 -->
<g id="edge5" class="edge"><title>Node3&#45;&gt;Node6</title>
<path fill="none" stroke="midnightblue" d="M498.178,-179.035C520.843,-184.744 546.725,-191.265 569.712,-197.056"/>
<polygon fill="midnightblue" stroke="midnightblue" points="569.155,-200.525 579.707,-199.574 570.865,-193.737 569.155,-200.525"/>
</g>
<!-- Node7 -->
<g id="node7" class="node"><title>Node7</title>
<g id="a_node7"><a xlink:href="classqtreports_1_1detail_1_1_style.html#a058eab1051810ffdb26d43fb08e523c9" target="_top" xlink:title="Возвращает, является ли шрифт курсивом или нет ">
<polygon fill="none" stroke="black" points="584.5,-149 584.5,-179 683.5,-179 683.5,-149 584.5,-149"/>
<text text-anchor="start" x="592.5" y="-167" font-family="Helvetica,sans-Serif" font-size="10.00">qtreports::detail::</text>
<text text-anchor="middle" x="634" y="-156" font-family="Helvetica,sans-Serif" font-size="10.00">Style::isItalic</text>
</a>
</g>
</g>
<!-- Node3&#45;&gt;Node7 -->
<g id="edge6" class="edge"><title>Node3&#45;&gt;Node7</title>
<path fill="none" stroke="midnightblue" d="M519.015,-164C537.362,-164 556.529,-164 573.797,-164"/>
<polygon fill="midnightblue" stroke="midnightblue" points="574.278,-167.5 584.278,-164 574.278,-160.5 574.278,-167.5"/>
</g>
<!-- Node8 -->
<g id="node8" class="node"><title>Node8</title>
<g id="a_node8"><a xlink:href="classqtreports_1_1detail_1_1_style.html#a9f4c8c581c08ffd758fbd3e1b93dee07" target="_top" xlink:title="Возвращает, является ли шрифт жирным или нет ">
<polygon fill="none" stroke="black" points="584.5,-100 584.5,-130 683.5,-130 683.5,-100 584.5,-100"/>
<text text-anchor="start" x="592.5" y="-118" font-family="Helvetica,sans-Serif" font-size="10.00">qtreports::detail::</text>
<text text-anchor="middle" x="634" y="-107" font-family="Helvetica,sans-Serif" font-size="10.00">Style::isBold</text>
</a>
</g>
</g>
<!-- Node3&#45;&gt;Node8 -->
<g id="edge7" class="edge"><title>Node3&#45;&gt;Node8</title>
<path fill="none" stroke="midnightblue" d="M498.178,-148.965C522.42,-142.858 550.343,-135.824 574.467,-129.746"/>
<polygon fill="midnightblue" stroke="midnightblue" points="575.36,-133.13 584.202,-127.293 573.65,-126.343 575.36,-133.13"/>
</g>
<!-- Node9 -->
<g id="node9" class="node"><title>Node9</title>
<g id="a_node9"><a xlink:href="classqtreports_1_1detail_1_1_converter_to_h_t_m_l.html#aa9d511353f62cfc489c3e071ebf5182b" target="_top" xlink:title="Добавление &lt;band&gt;, принадлежащего конкретной &lt;section&gt;, в документ HTML. ">
<polygon fill="none" stroke="black" points="749,-56 749,-86 903,-86 903,-56 749,-56"/>
<text text-anchor="start" x="757" y="-74" font-family="Helvetica,sans-Serif" font-size="10.00">qtreports::detail::</text>
<text text-anchor="middle" x="826" y="-63" font-family="Helvetica,sans-Serif" font-size="10.00">ConverterToHTML::addBands</text>
</a>
</g>
</g>
<!-- Node3&#45;&gt;Node9 -->
<g id="edge8" class="edge"><title>Node3&#45;&gt;Node9</title>
<path fill="none" stroke="midnightblue" d="M456.01,-148.87C477.631,-131.191 516.31,-102.739 555,-90 614.228,-70.4989 684.6,-66.1095 738.649,-66.4053"/>
<polygon fill="midnightblue" stroke="midnightblue" points="738.85,-69.9076 748.888,-66.5181 738.928,-62.908 738.85,-69.9076"/>
</g>
<!-- Node19 -->
<g id="node19" class="node"><title>Node19</title>
<g id="a_node19"><a xlink:href="classqtreports_1_1detail_1_1_converter_to_h_t_m_l.html#a587e5f6bfbd1185f6bf32d76ac231a13" target="_top" xlink:title="Добавление &lt;group&gt; в документ HTML. ">
<polygon fill="none" stroke="black" points="555,-1.5 555,-42.5 713,-42.5 713,-1.5 555,-1.5"/>
<text text-anchor="start" x="563" y="-30.5" font-family="Helvetica,sans-Serif" font-size="10.00">qtreports::detail::</text>
<text text-anchor="start" x="563" y="-19.5" font-family="Helvetica,sans-Serif" font-size="10.00">ConverterToHTML::addGroups</text>
<text text-anchor="middle" x="634" y="-8.5" font-family="Helvetica,sans-Serif" font-size="10.00">IntoReport</text>
</a>
</g>
</g>
<!-- Node3&#45;&gt;Node19 -->
<g id="edge18" class="edge"><title>Node3&#45;&gt;Node19</title>
<path fill="none" stroke="midnightblue" d="M451.95,-148.869C472.438,-126.507 513.487,-84.3379 555,-57 560.288,-53.5179 565.979,-50.2244 571.792,-47.1535"/>
<polygon fill="midnightblue" stroke="midnightblue" points="573.635,-50.144 580.988,-42.5156 570.483,-43.8939 573.635,-50.144"/>
</g>
<!-- Node10 -->
<g id="node10" class="node"><title>Node10</title>
<g id="a_node10"><a xlink:href="classqtreports_1_1detail_1_1_replacer.html#af7ccb83be264f7c72b7485cf38455450" target="_top" xlink:title="Заменяет текст всех виджетов секции текстом с подставленными значениями. ">
<polygon fill="none" stroke="black" points="969.5,-78 969.5,-108 1068.5,-108 1068.5,-78 969.5,-78"/>
<text text-anchor="start" x="977.5" y="-96" font-family="Helvetica,sans-Serif" font-size="10.00">qtreports::detail::</text>
<text text-anchor="middle" x="1019" y="-85" font-family="Helvetica,sans-Serif" font-size="10.00">Replacer::replace</text>
</a>
</g>
</g>
<!-- Node9&#45;&gt;Node10 -->
<g id="edge9" class="edge"><title>Node9&#45;&gt;Node10</title>
<path fill="none" stroke="midnightblue" d="M903.037,-79.7582C921.734,-81.9118 941.471,-84.1851 959.213,-86.2287"/>
<polygon fill="midnightblue" stroke="midnightblue" points="959.071,-89.7354 969.406,-87.4028 959.872,-82.7814 959.071,-89.7354"/>
</g>
<!-- Node17 -->
<g id="node17" class="node"><title>Node17</title>
<g id="a_node17"><a xlink:href="classqtreports_1_1detail_1_1_replacer.html#a677f7802e444f2de3af4cb43b6cedf30" target="_top" xlink:title="Возвращает описание последней произошедшей ошибки. ">
<polygon fill="none" stroke="black" points="958,-29 958,-59 1080,-59 1080,-29 958,-29"/>
<text text-anchor="start" x="966" y="-47" font-family="Helvetica,sans-Serif" font-size="10.00">qtreports::detail::</text>
<text text-anchor="middle" x="1019" y="-36" font-family="Helvetica,sans-Serif" font-size="10.00">Replacer::getLastError</text>
</a>
</g>
</g>
<!-- Node9&#45;&gt;Node17 -->
<g id="edge16" class="edge"><title>Node9&#45;&gt;Node17</title>
<path fill="none" stroke="midnightblue" d="M903.037,-60.2513C917.829,-58.1603 933.271,-55.9773 947.862,-53.9148"/>
<polygon fill="midnightblue" stroke="midnightblue" points="948.397,-57.374 957.809,-52.5087 947.418,-50.4429 948.397,-57.374"/>
</g>
<!-- Node18 -->
<g id="node18" class="node"><title>Node18</title>
<g id="a_node18"><a xlink:href="classqtreports_1_1detail_1_1_converter_to_h_t_m_l.html#a759cb19710076fd669793a84e62d14eb" target="_top" xlink:title="Добавление &lt;shape&gt;, принадлежащего конретному &lt;band&gt;, в документ HTML. ">
<polygon fill="none" stroke="black" points="939,-127 939,-157 1099,-157 1099,-127 939,-127"/>
<text text-anchor="start" x="947" y="-145" font-family="Helvetica,sans-Serif" font-size="10.00">qtreports::detail::</text>
<text text-anchor="middle" x="1019" y="-134" font-family="Helvetica,sans-Serif" font-size="10.00">ConverterToHTML::addShapes</text>
</a>
</g>
</g>
<!-- Node9&#45;&gt;Node18 -->
<g id="edge17" class="edge"><title>Node9&#45;&gt;Node18</title>
<path fill="none" stroke="midnightblue" d="M861.52,-86.0485C883.516,-95.42 912.719,-107.463 939,-117 945.269,-119.275 951.858,-121.546 958.446,-123.739"/>
<polygon fill="midnightblue" stroke="midnightblue" points="957.467,-127.102 968.06,-126.889 959.647,-120.45 957.467,-127.102"/>
</g>
<!-- Node11 -->
<g id="node11" class="node"><title>Node11</title>
<g id="a_node11"><a xlink:href="classqtreports_1_1detail_1_1_replacer.html#a58cf857aa78eb3e273f6543769af425b" target="_top" xlink:title="Заменяет текст всех виджетов секции текстом с подставленными значениями полей из источника данных...">
<polygon fill="none" stroke="black" points="1135,-56 1135,-86 1299,-86 1299,-56 1135,-56"/>
<text text-anchor="start" x="1143" y="-74" font-family="Helvetica,sans-Serif" font-size="10.00">qtreports::detail::</text>
<text text-anchor="middle" x="1217" y="-63" font-family="Helvetica,sans-Serif" font-size="10.00">Replacer::replaceFieldInSection</text>
</a>
</g>
</g>
<!-- Node10&#45;&gt;Node11 -->
<g id="edge10" class="edge"><title>Node10&#45;&gt;Node11</title>
<path fill="none" stroke="midnightblue" d="M1068.7,-87.5335C1085.69,-85.6263 1105.36,-83.4189 1124.68,-81.2505"/>
<polygon fill="midnightblue" stroke="midnightblue" points="1125.18,-84.7156 1134.73,-80.122 1124.4,-77.7593 1125.18,-84.7156"/>
</g>
<!-- Node16 -->
<g id="node16" class="node"><title>Node16</title>
<g id="a_node16"><a xlink:href="classqtreports_1_1detail_1_1_replacer.html#abb903f1c1172efa7e26b040a5695cc86" target="_top" xlink:title="Возвращает текст с подставленными значениями параметров. ">
<polygon fill="none" stroke="black" points="1140,-105 1140,-135 1294,-135 1294,-105 1140,-105"/>
<text text-anchor="start" x="1148" y="-123" font-family="Helvetica,sans-Serif" font-size="10.00">qtreports::detail::</text>
<text text-anchor="middle" x="1217" y="-112" font-family="Helvetica,sans-Serif" font-size="10.00">Replacer::replaceParameters</text>
</a>
</g>
</g>
<!-- Node10&#45;&gt;Node16 -->
<g id="edge15" class="edge"><title>Node10&#45;&gt;Node16</title>
<path fill="none" stroke="midnightblue" d="M1068.7,-99.7088C1087.12,-102.246 1108.67,-105.215 1129.52,-108.087"/>
<polygon fill="midnightblue" stroke="midnightblue" points="1129.3,-111.589 1139.68,-109.487 1130.25,-104.655 1129.3,-111.589"/>
</g>
<!-- Node12 -->
<g id="node12" class="node"><title>Node12</title>
<g id="a_node12"><a xlink:href="classqtreports_1_1detail_1_1_replacer.html#a2be57bd514335f9b9f2a520247562ce1" target="_top" xlink:title="Заменяет текст виджета текстом с подставленными значениями полей из источника данных. ">
<polygon fill="none" stroke="black" points="1341,-28.5 1341,-69.5 1487,-69.5 1487,-28.5 1341,-28.5"/>
<text text-anchor="start" x="1349" y="-57.5" font-family="Helvetica,sans-Serif" font-size="10.00">qtreports::detail::</text>
<text text-anchor="start" x="1349" y="-46.5" font-family="Helvetica,sans-Serif" font-size="10.00">Replacer::replaceFieldInText</text>
<text text-anchor="middle" x="1414" y="-35.5" font-family="Helvetica,sans-Serif" font-size="10.00">Widget</text>
</a>
</g>
</g>
<!-- Node11&#45;&gt;Node12 -->
<g id="edge11" class="edge"><title>Node11&#45;&gt;Node12</title>
<path fill="none" stroke="midnightblue" d="M1299,-61.8611C1309.55,-60.6713 1320.36,-59.4515 1330.93,-58.2596"/>
<polygon fill="midnightblue" stroke="midnightblue" points="1331.42,-61.7265 1340.96,-57.1274 1330.63,-54.7707 1331.42,-61.7265"/>
</g>
<!-- Node14 -->
<g id="node14" class="node"><title>Node14</title>
<g id="a_node14"><a xlink:href="classqtreports_1_1detail_1_1_replacer.html#a4aeb7794f90c0be34a30ab60a6df1920" target="_top" xlink:title="На основе текста виджета вставляет в него изображение из источника данных. ">
<polygon fill="none" stroke="black" points="1335,-88.5 1335,-129.5 1493,-129.5 1493,-88.5 1335,-88.5"/>
<text text-anchor="start" x="1343" y="-117.5" font-family="Helvetica,sans-Serif" font-size="10.00">qtreports::detail::</text>
<text text-anchor="start" x="1343" y="-106.5" font-family="Helvetica,sans-Serif" font-size="10.00">Replacer::replaceFieldInImage</text>
<text text-anchor="middle" x="1414" y="-95.5" font-family="Helvetica,sans-Serif" font-size="10.00">Widget</text>
</a>
</g>
</g>
<!-- Node11&#45;&gt;Node14 -->
<g id="edge13" class="edge"><title>Node11&#45;&gt;Node14</title>
<path fill="none" stroke="midnightblue" d="M1295.07,-86.0186C1304.89,-87.9324 1315,-89.9026 1324.98,-91.8467"/>
<polygon fill="midnightblue" stroke="midnightblue" points="1324.41,-95.3017 1334.89,-93.7791 1325.75,-88.4309 1324.41,-95.3017"/>
</g>
<!-- Node13 -->
<g id="node13" class="node"><title>Node13</title>
<g id="a_node13"><a xlink:href="classqtreports_1_1detail_1_1_replacer.html#a4642b07160798f2ee4de276e1d0c1ecd" target="_top" xlink:title="Возвращает текст с подставленными значениями полей из источника данных. ">
<polygon fill="none" stroke="black" points="1544,-9 1544,-39 1663,-39 1663,-9 1544,-9"/>
<text text-anchor="start" x="1552" y="-27" font-family="Helvetica,sans-Serif" font-size="10.00">qtreports::detail::</text>
<text text-anchor="middle" x="1603.5" y="-16" font-family="Helvetica,sans-Serif" font-size="10.00">Replacer::replaceField</text>
</a>
</g>
</g>
<!-- Node12&#45;&gt;Node13 -->
<g id="edge12" class="edge"><title>Node12&#45;&gt;Node13</title>
<path fill="none" stroke="midnightblue" d="M1487.22,-39.3701C1502.48,-37.3361 1518.54,-35.1949 1533.66,-33.178"/>
<polygon fill="midnightblue" stroke="midnightblue" points="1534.52,-36.5955 1543.97,-31.8045 1533.59,-29.6569 1534.52,-36.5955"/>
</g>
<!-- Node15 -->
<g id="node15" class="node"><title>Node15</title>
<g id="a_node15"><a xlink:href="classqtreports_1_1detail_1_1_replacer.html#ae1ac521aeaf5fdd694e79e2ae52d4704" target="_top" xlink:title="Возвращает изображение на основе первого найденного выражения. ">
<polygon fill="none" stroke="black" points="1529,-94 1529,-124 1678,-124 1678,-94 1529,-94"/>
<text text-anchor="start" x="1537" y="-112" font-family="Helvetica,sans-Serif" font-size="10.00">qtreports::detail::</text>
<text text-anchor="middle" x="1603.5" y="-101" font-family="Helvetica,sans-Serif" font-size="10.00">Replacer::replaceFieldImage</text>
</a>
</g>
</g>
<!-- Node14&#45;&gt;Node15 -->
<g id="edge14" class="edge"><title>Node14&#45;&gt;Node15</title>
<path fill="none" stroke="midnightblue" d="M1493.16,-109C1501.68,-109 1510.38,-109 1518.96,-109"/>
<polygon fill="midnightblue" stroke="midnightblue" points="1518.97,-112.5 1528.97,-109 1518.97,-105.5 1518.97,-112.5"/>
</g>
<!-- Node19&#45;&gt;Node9 -->
<g id="edge20" class="edge"><title>Node19&#45;&gt;Node9</title>
<path fill="none" stroke="midnightblue" d="M713.103,-42.1423C727.656,-45.8955 742.756,-49.7897 756.977,-53.4571"/>
<polygon fill="midnightblue" stroke="midnightblue" points="756.106,-56.8471 766.664,-55.9553 757.854,-50.0689 756.106,-56.8471"/>
</g>
<!-- Node19&#45;&gt;Node13 -->
<g id="edge19" class="edge"><title>Node19&#45;&gt;Node13</title>
<path fill="none" stroke="midnightblue" d="M713.045,-14.8876C790.388,-8.46 912.268,-0 1018,-0 1018,-0 1018,-0 1218,-0 1328.74,-0 1457.06,-10.0387 1533.91,-17.1311"/>
<polygon fill="midnightblue" stroke="midnightblue" points="1533.66,-20.623 1543.94,-18.0674 1534.31,-13.6533 1533.66,-20.623"/>
</g>
</g>
</svg>
