<?xml version="1.0" encoding="UTF-8" standalone="no"?>
<!DOCTYPE svg PUBLIC "-//W3C//DTD SVG 1.1//EN"
 "http://www.w3.org/Graphics/SVG/1.1/DTD/svg11.dtd">
<!-- Generated by graphviz version 2.38.0 (20140413.2041)
 -->
<!-- Title: qtreports::detail::Replacer::replaceColumnGroupsInCrosstab Pages: 1 -->
<!--zoomable 311 -->
<svg id="main" version="1.1" xmlns="http://www.w3.org/2000/svg" xmlns:xlink="http://www.w3.org/1999/xlink" xml:space="preserve" onload="init(evt)">
<style type="text/css"><![CDATA[
.edge:hover path { stroke: red; }
.edge:hover polygon { stroke: red; fill: red; }
]]></style>
<script type="text/javascript"><![CDATA[
var edges = document.getElementsByTagName('g');
if (edges && edges.length) {
  for (var i=0;i<edges.length;i++) {
    if (edges[i].id.substr(0,4)=='edge') {
      edges[i].setAttribute('class','edge');
    }
  }
}
]]></script>
        <defs>
                <circle id="rim" cx="0" cy="0" r="7"/>
                <circle id="rim2" cx="0" cy="0" r="3.5"/>
                <g id="zoomPlus">
                        <use xlink:href="#rim" fill="#404040">
                                <set attributeName="fill" to="#808080" begin="zoomplus.mouseover" end="zoomplus.mouseout"/>
                        </use>
                        <path d="M-4,0h8M0,-4v8" fill="none" stroke="white" stroke-width="1.5" pointer-events="none"/>
                </g>
                <g id="zoomMin">
                        <use xlink:href="#rim" fill="#404040">
                                <set attributeName="fill" to="#808080" begin="zoomminus.mouseover" end="zoomminus.mouseout"/>
                        </use>
                        <path d="M-4,0h8" fill="none" stroke="white" stroke-width="1.5" pointer-events="none"/>
                </g>
                <g id="dirArrow">
                        <path fill="none" stroke="white" stroke-width="1.5" d="M0,-3.0v7 M-2.5,-0.5L0,-3.0L2.5,-0.5"/>
                </g>
               <g id="resetDef">
                       <use xlink:href="#rim2" fill="#404040">
                               <set attributeName="fill" to="#808080" begin="reset.mouseover" end="reset.mouseout"/>
                       </use>
               </g>
        </defs>

<script type="text/javascript">
var viewWidth = 1694;
var viewHeight = 311;
var sectionId = 'dynsection-11';
</script>
<script xlink:href="svgpan.js"/>
<svg id="graph" class="graph">
<g id="viewport">
<title>qtreports::detail::Replacer::replaceColumnGroupsInCrosstab</title>
<!-- Node1 -->
<g id="node1" class="node"><title>Node1</title>
<polygon fill="#bfbfbf" stroke="black" points="0,-138 0,-179 170,-179 170,-138 0,-138"/>
<text text-anchor="start" x="8" y="-167" font-family="Helvetica,sans-Serif" font-size="10.00">qtreports::detail::</text>
<text text-anchor="start" x="8" y="-156" font-family="Helvetica,sans-Serif" font-size="10.00">Replacer::replaceColumnGroups</text>
<text text-anchor="middle" x="85" y="-145" font-family="Helvetica,sans-Serif" font-size="10.00">InCrosstab</text>
</g>
<!-- Node2 -->
<g id="node2" class="node"><title>Node2</title>
<g id="a_node2"><a xlink:href="classqtreports_1_1detail_1_1_converter_to_h_t_m_l.html#a5b8d80606e58c8bcdadc7ce6134e9c2f" target="_top" xlink:title="Добавление объектов Crosstab в документ HTML. ">
<polygon fill="none" stroke="black" points="414,-204 414,-245 586,-245 586,-204 414,-204"/>
<text text-anchor="start" x="422" y="-233" font-family="Helvetica,sans-Serif" font-size="10.00">qtreports::detail::</text>
<text text-anchor="start" x="422" y="-222" font-family="Helvetica,sans-Serif" font-size="10.00">ConverterToHTML::addCrosstabs</text>
<text text-anchor="middle" x="500" y="-211" font-family="Helvetica,sans-Serif" font-size="10.00">IntoReport</text>
</a>
</g>
</g>
<!-- Node1&#45;&gt;Node2 -->
<g id="edge1" class="edge"><title>Node1&#45;&gt;Node2</title>
<path fill="none" stroke="midnightblue" d="M139.467,-182.913C159.874,-191.181 183.617,-199.563 206,-204.5 274.834,-219.684 354.773,-224.301 413.748,-225.335"/>
<polygon fill="midnightblue" stroke="midnightblue" points="140.62,-179.602 130.041,-179.008 137.94,-186.069 140.62,-179.602"/>
</g>
<!-- Node9 -->
<g id="node9" class="node"><title>Node9</title>
<g id="a_node9"><a xlink:href="classqtreports_1_1detail_1_1_converter_to_p_d_f.html#aba1de1bf9abc3ea9b7b5c2b8317f5a0f" target="_top" xlink:title="Создает band. ">
<polygon fill="none" stroke="black" points="421,-137.5 421,-167.5 579,-167.5 579,-137.5 421,-137.5"/>
<text text-anchor="start" x="429" y="-155.5" font-family="Helvetica,sans-Serif" font-size="10.00">qtreports::detail::</text>
<text text-anchor="middle" x="500" y="-144.5" font-family="Helvetica,sans-Serif" font-size="10.00">ConverterToPDF::createBands</text>
</a>
</g>
</g>
<!-- Node1&#45;&gt;Node9 -->
<g id="edge9" class="edge"><title>Node1&#45;&gt;Node9</title>
<path fill="none" stroke="midnightblue" d="M180.397,-156.009C189.053,-155.82 197.688,-155.646 206,-155.5 278.861,-154.216 361.924,-153.43 420.958,-152.986"/>
<polygon fill="midnightblue" stroke="midnightblue" points="180.163,-152.513 170.244,-156.237 180.32,-159.511 180.163,-152.513"/>
</g>
<!-- Node15 -->
<g id="node15" class="node"><title>Node15</title>
<g id="a_node15"><a xlink:href="classqtreports_1_1detail_1_1_converter_to_q_widget.html#aa3be16e037533a4a5b58596087207187" target="_top" xlink:title="Создает band. ">
<polygon fill="none" stroke="black" points="440.5,-78 440.5,-119 559.5,-119 559.5,-78 440.5,-78"/>
<text text-anchor="start" x="448.5" y="-107" font-family="Helvetica,sans-Serif" font-size="10.00">qtreports::detail::</text>
<text text-anchor="start" x="448.5" y="-96" font-family="Helvetica,sans-Serif" font-size="10.00">ConverterToQWidget::</text>
<text text-anchor="middle" x="500" y="-85" font-family="Helvetica,sans-Serif" font-size="10.00">createBands</text>
</a>
</g>
</g>
<!-- Node1&#45;&gt;Node15 -->
<g id="edge16" class="edge"><title>Node1&#45;&gt;Node15</title>
<path fill="none" stroke="midnightblue" d="M180.16,-144.821C260.196,-133.193 372.597,-116.864 440.35,-107.021"/>
<polygon fill="midnightblue" stroke="midnightblue" points="179.467,-141.384 170.075,-146.286 180.474,-148.312 179.467,-141.384"/>
</g>
<!-- Node24 -->
<g id="node24" class="node"><title>Node24</title>
<g id="a_node24"><a xlink:href="classqtreports_1_1detail_1_1_replacer.html#a5dc72251354d389091776142436ebd22" target="_top" xlink:title="qtreports::detail::\lReplacer::replaceCellsInCrosstab">
<polygon fill="none" stroke="black" points="206,-165.5 206,-195.5 378,-195.5 378,-165.5 206,-165.5"/>
<text text-anchor="start" x="214" y="-183.5" font-family="Helvetica,sans-Serif" font-size="10.00">qtreports::detail::</text>
<text text-anchor="middle" x="292" y="-172.5" font-family="Helvetica,sans-Serif" font-size="10.00">Replacer::replaceCellsInCrosstab</text>
</a>
</g>
</g>
<!-- Node1&#45;&gt;Node24 -->
<g id="edge26" class="edge"><title>Node1&#45;&gt;Node24</title>
<path fill="none" stroke="midnightblue" d="M180.487,-168.64C188.906,-169.544 197.397,-170.455 205.732,-171.349"/>
<polygon fill="midnightblue" stroke="midnightblue" points="180.585,-165.131 170.269,-167.543 179.838,-172.091 180.585,-165.131"/>
</g>
<!-- Node3 -->
<g id="node3" class="node"><title>Node3</title>
<g id="a_node3"><a xlink:href="classqtreports_1_1detail_1_1_converter_to_h_t_m_l.html#acd1d271ed38019d408d8597000e974be" target="_top" xlink:title="Добавление &lt;band&gt; в документ HTML. ">
<polygon fill="none" stroke="black" points="629.5,-220.5 629.5,-250.5 778.5,-250.5 778.5,-220.5 629.5,-220.5"/>
<text text-anchor="start" x="637.5" y="-238.5" font-family="Helvetica,sans-Serif" font-size="10.00">qtreports::detail::</text>
<text text-anchor="middle" x="704" y="-227.5" font-family="Helvetica,sans-Serif" font-size="10.00">ConverterToHTML::addBand</text>
</a>
</g>
</g>
<!-- Node2&#45;&gt;Node3 -->
<g id="edge2" class="edge"><title>Node2&#45;&gt;Node3</title>
<path fill="none" stroke="midnightblue" d="M596.221,-229.685C607.308,-230.289 618.487,-230.898 629.224,-231.482"/>
<polygon fill="midnightblue" stroke="midnightblue" points="596.256,-226.182 586.081,-229.133 595.876,-233.172 596.256,-226.182"/>
</g>
<!-- Node4 -->
<g id="node4" class="node"><title>Node4</title>
<g id="a_node4"><a xlink:href="classqtreports_1_1detail_1_1_converter_to_h_t_m_l.html#ace8358a3612fc8085b7c34f1f92341e2" target="_top" xlink:title="Процесс конвертации репорта в HTML формат. ">
<polygon fill="none" stroke="black" points="1026,-229.5 1026,-259.5 1189,-259.5 1189,-229.5 1026,-229.5"/>
<text text-anchor="start" x="1034" y="-247.5" font-family="Helvetica,sans-Serif" font-size="10.00">qtreports::detail::</text>
<text text-anchor="middle" x="1107.5" y="-236.5" font-family="Helvetica,sans-Serif" font-size="10.00">ConverterToHTML::createHTML</text>
</a>
</g>
</g>
<!-- Node3&#45;&gt;Node4 -->
<g id="edge3" class="edge"><title>Node3&#45;&gt;Node4</title>
<path fill="none" stroke="midnightblue" d="M761.947,-253.154C780.86,-258.195 802.158,-262.997 822,-265.5 896.079,-274.846 915.63,-272.149 990,-265.5 1004.53,-264.201 1019.97,-262.007 1034.68,-259.514"/>
<polygon fill="midnightblue" stroke="midnightblue" points="762.863,-249.776 752.294,-250.507 761.012,-256.527 762.863,-249.776"/>
</g>
<!-- Node8 -->
<g id="node8" class="node"><title>Node8</title>
<g id="a_node8"><a xlink:href="classqtreports_1_1detail_1_1_converter_to_h_t_m_l.html#a602c8f3bd3bc44df48b2edcee8bcdfa0" target="_top" xlink:title="Добавление &lt;group&gt; в документ HTML. ">
<polygon fill="none" stroke="black" points="827,-215 827,-256 985,-256 985,-215 827,-215"/>
<text text-anchor="start" x="835" y="-244" font-family="Helvetica,sans-Serif" font-size="10.00">qtreports::detail::</text>
<text text-anchor="start" x="835" y="-233" font-family="Helvetica,sans-Serif" font-size="10.00">ConverterToHTML::addGroups</text>
<text text-anchor="middle" x="906" y="-222" font-family="Helvetica,sans-Serif" font-size="10.00">IntoReport</text>
</a>
</g>
</g>
<!-- Node3&#45;&gt;Node8 -->
<g id="edge7" class="edge"><title>Node3&#45;&gt;Node8</title>
<path fill="none" stroke="midnightblue" d="M788.667,-235.5C801.311,-235.5 814.312,-235.5 826.833,-235.5"/>
<polygon fill="midnightblue" stroke="midnightblue" points="788.621,-232 778.621,-235.5 788.621,-239 788.621,-232"/>
</g>
<!-- Node5 -->
<g id="node5" class="node"><title>Node5</title>
<g id="a_node5"><a xlink:href="classqtreports_1_1detail_1_1_converter_to_h_t_m_l.html#ad91ac333abf7d02f7590970a54ef7aae" target="_top" xlink:title="Запускает процесс конвертации репорта в HTML формат. ">
<polygon fill="none" stroke="black" points="1225,-229.5 1225,-259.5 1367,-259.5 1367,-229.5 1225,-229.5"/>
<text text-anchor="start" x="1233" y="-247.5" font-family="Helvetica,sans-Serif" font-size="10.00">qtreports::detail::</text>
<text text-anchor="middle" x="1296" y="-236.5" font-family="Helvetica,sans-Serif" font-size="10.00">ConverterToHTML::convert</text>
</a>
</g>
</g>
<!-- Node4&#45;&gt;Node5 -->
<g id="edge4" class="edge"><title>Node4&#45;&gt;Node5</title>
<path fill="none" stroke="midnightblue" d="M1199.32,-244.5C1207.94,-244.5 1216.6,-244.5 1224.99,-244.5"/>
<polygon fill="midnightblue" stroke="midnightblue" points="1199.22,-241 1189.22,-244.5 1199.22,-248 1199.22,-241"/>
</g>
<!-- Node6 -->
<g id="node6" class="node"><title>Node6</title>
<g id="a_node6"><a xlink:href="classqtreports_1_1detail_1_1_converter_to_h_t_m_l.html#a38e92f3fd70f61c44871b22cddffd15a" target="_top" xlink:title="Создает HTML документ при успешной конвертации репорта в HTML формат. ">
<polygon fill="none" stroke="black" points="1403,-272.5 1403,-302.5 1545,-302.5 1545,-272.5 1403,-272.5"/>
<text text-anchor="start" x="1411" y="-290.5" font-family="Helvetica,sans-Serif" font-size="10.00">qtreports::detail::</text>
<text text-anchor="middle" x="1474" y="-279.5" font-family="Helvetica,sans-Serif" font-size="10.00">ConverterToHTML::convert</text>
</a>
</g>
</g>
<!-- Node5&#45;&gt;Node6 -->
<g id="edge5" class="edge"><title>Node5&#45;&gt;Node6</title>
<path fill="none" stroke="midnightblue" d="M1368.34,-261.929C1382.64,-265.423 1397.55,-269.065 1411.48,-272.469"/>
<polygon fill="midnightblue" stroke="midnightblue" points="1369.1,-258.513 1358.56,-259.539 1367.44,-265.313 1369.1,-258.513"/>
</g>
<!-- Node7 -->
<g id="node7" class="node"><title>Node7</title>
<g id="a_node7"><a xlink:href="classqtreports_1_1_engine.html#a551b0db0510d572d56447c471daa0891" target="_top" xlink:title="Создает HTML документ отчета по указанному пути ">
<polygon fill="none" stroke="black" points="1421.5,-223.5 1421.5,-253.5 1526.5,-253.5 1526.5,-223.5 1421.5,-223.5"/>
<text text-anchor="start" x="1429.5" y="-241.5" font-family="Helvetica,sans-Serif" font-size="10.00">qtreports::Engine::</text>
<text text-anchor="middle" x="1474" y="-230.5" font-family="Helvetica,sans-Serif" font-size="10.00">createHTML</text>
</a>
</g>
</g>
<!-- Node5&#45;&gt;Node7 -->
<g id="edge6" class="edge"><title>Node5&#45;&gt;Node7</title>
<path fill="none" stroke="midnightblue" d="M1377.35,-241.761C1392.3,-241.251 1407.54,-240.731 1421.35,-240.261"/>
<polygon fill="midnightblue" stroke="midnightblue" points="1376.94,-238.273 1367.07,-242.111 1377.18,-245.269 1376.94,-238.273"/>
</g>
<!-- Node8&#45;&gt;Node4 -->
<g id="edge8" class="edge"><title>Node8&#45;&gt;Node4</title>
<path fill="none" stroke="midnightblue" d="M995.348,-239.486C1005.49,-239.943 1015.79,-240.408 1025.83,-240.861"/>
<polygon fill="midnightblue" stroke="midnightblue" points="995.423,-235.986 985.275,-239.031 995.107,-242.978 995.423,-235.986"/>
</g>
<!-- Node10 -->
<g id="node10" class="node"><title>Node10</title>
<g id="a_node10"><a xlink:href="classqtreports_1_1detail_1_1_converter_to_p_d_f.html#a5d9212cf5250d8d938359c417537337c" target="_top" xlink:title="Создает секцию. ">
<polygon fill="none" stroke="black" points="622,-137.5 622,-167.5 786,-167.5 786,-137.5 622,-137.5"/>
<text text-anchor="start" x="630" y="-155.5" font-family="Helvetica,sans-Serif" font-size="10.00">qtreports::detail::</text>
<text text-anchor="middle" x="704" y="-144.5" font-family="Helvetica,sans-Serif" font-size="10.00">ConverterToPDF::createSection</text>
</a>
</g>
</g>
<!-- Node9&#45;&gt;Node10 -->
<g id="edge10" class="edge"><title>Node9&#45;&gt;Node10</title>
<path fill="none" stroke="midnightblue" d="M589.355,-152.5C600.131,-152.5 611.103,-152.5 621.769,-152.5"/>
<polygon fill="midnightblue" stroke="midnightblue" points="589.099,-149 579.098,-152.5 589.098,-156 589.099,-149"/>
</g>
<!-- Node11 -->
<g id="node11" class="node"><title>Node11</title>
<g id="a_node11"><a xlink:href="classqtreports_1_1detail_1_1_converter_to_p_d_f.html#aad8435572f5ba065f8f2fef428d97b22" target="_top" xlink:title="Конвертирует отчет в PDF документ. ">
<polygon fill="none" stroke="black" points="1043.5,-162.5 1043.5,-192.5 1171.5,-192.5 1171.5,-162.5 1043.5,-162.5"/>
<text text-anchor="start" x="1051.5" y="-180.5" font-family="Helvetica,sans-Serif" font-size="10.00">qtreports::detail::</text>
<text text-anchor="middle" x="1107.5" y="-169.5" font-family="Helvetica,sans-Serif" font-size="10.00">ConverterToPDF::create</text>
</a>
</g>
</g>
<!-- Node10&#45;&gt;Node11 -->
<g id="edge11" class="edge"><title>Node10&#45;&gt;Node11</title>
<path fill="none" stroke="midnightblue" d="M796.27,-165.028C804.956,-165.971 813.638,-166.818 822,-167.5 897.983,-173.693 985.689,-176.053 1043.41,-176.951"/>
<polygon fill="midnightblue" stroke="midnightblue" points="796.42,-161.523 786.091,-163.881 795.637,-168.479 796.42,-161.523"/>
</g>
<!-- Node14 -->
<g id="node14" class="node"><title>Node14</title>
<g id="a_node14"><a xlink:href="classqtreports_1_1detail_1_1_converter_to_p_d_f.html#adda58d86ecfee05cdcc5e5ce161926ff" target="_top" xlink:title="Добавляет группу в репорт. ">
<polygon fill="none" stroke="black" points="822,-117 822,-158 990,-158 990,-117 822,-117"/>
<text text-anchor="start" x="830" y="-146" font-family="Helvetica,sans-Serif" font-size="10.00">qtreports::detail::</text>
<text text-anchor="start" x="830" y="-135" font-family="Helvetica,sans-Serif" font-size="10.00">ConverterToPDF::addGroupsInto</text>
<text text-anchor="middle" x="906" y="-124" font-family="Helvetica,sans-Serif" font-size="10.00">Report</text>
</a>
</g>
</g>
<!-- Node10&#45;&gt;Node14 -->
<g id="edge14" class="edge"><title>Node10&#45;&gt;Node14</title>
<path fill="none" stroke="midnightblue" d="M796.089,-145.668C804.681,-145.024 813.361,-144.373 821.873,-143.735"/>
<polygon fill="midnightblue" stroke="midnightblue" points="795.77,-142.182 786.059,-146.421 796.293,-149.163 795.77,-142.182"/>
</g>
<!-- Node12 -->
<g id="node12" class="node"><title>Node12</title>
<g id="a_node12"><a xlink:href="classqtreports_1_1detail_1_1_converter_to_p_d_f.html#af39953d8db1bdcbbcf59cc00b05747eb" target="_top" xlink:title="Запускает процесс конвертации. ">
<polygon fill="none" stroke="black" points="1229,-162.5 1229,-192.5 1363,-192.5 1363,-162.5 1229,-162.5"/>
<text text-anchor="start" x="1237" y="-180.5" font-family="Helvetica,sans-Serif" font-size="10.00">qtreports::detail::</text>
<text text-anchor="middle" x="1296" y="-169.5" font-family="Helvetica,sans-Serif" font-size="10.00">ConverterToPDF::convert</text>
</a>
</g>
</g>
<!-- Node11&#45;&gt;Node12 -->
<g id="edge12" class="edge"><title>Node11&#45;&gt;Node12</title>
<path fill="none" stroke="midnightblue" d="M1181.7,-177.5C1197.21,-177.5 1213.5,-177.5 1228.74,-177.5"/>
<polygon fill="midnightblue" stroke="midnightblue" points="1181.64,-174 1171.64,-177.5 1181.64,-181 1181.64,-174"/>
</g>
<!-- Node13 -->
<g id="node13" class="node"><title>Node13</title>
<g id="a_node13"><a xlink:href="classqtreports_1_1_engine.html#a34b6ccdf31af3bd275d9fb95100c6bda" target="_top" xlink:title="Создает PDF документ отчета по указанному пути ">
<polygon fill="none" stroke="black" points="1421.5,-162.5 1421.5,-192.5 1526.5,-192.5 1526.5,-162.5 1421.5,-162.5"/>
<text text-anchor="start" x="1429.5" y="-180.5" font-family="Helvetica,sans-Serif" font-size="10.00">qtreports::Engine::</text>
<text text-anchor="middle" x="1474" y="-169.5" font-family="Helvetica,sans-Serif" font-size="10.00">createPDF</text>
</a>
</g>
</g>
<!-- Node12&#45;&gt;Node13 -->
<g id="edge13" class="edge"><title>Node12&#45;&gt;Node13</title>
<path fill="none" stroke="midnightblue" d="M1373.11,-177.5C1389.43,-177.5 1406.31,-177.5 1421.44,-177.5"/>
<polygon fill="midnightblue" stroke="midnightblue" points="1373.04,-174 1363.04,-177.5 1373.04,-181 1373.04,-174"/>
</g>
<!-- Node14&#45;&gt;Node11 -->
<g id="edge15" class="edge"><title>Node14&#45;&gt;Node11</title>
<path fill="none" stroke="midnightblue" d="M1000.21,-156.188C1014.78,-159.11 1029.54,-162.069 1043.23,-164.815"/>
<polygon fill="midnightblue" stroke="midnightblue" points="1000.65,-152.708 990.161,-154.174 999.278,-159.572 1000.65,-152.708"/>
</g>
<!-- Node16 -->
<g id="node16" class="node"><title>Node16</title>
<g id="a_node16"><a xlink:href="classqtreports_1_1detail_1_1_converter_to_q_widget.html#a3c95daf9bd10efc4feb71e0d976bbd6e" target="_top" xlink:title="Создает секцию. ">
<polygon fill="none" stroke="black" points="644.5,-68 644.5,-109 763.5,-109 763.5,-68 644.5,-68"/>
<text text-anchor="start" x="652.5" y="-97" font-family="Helvetica,sans-Serif" font-size="10.00">qtreports::detail::</text>
<text text-anchor="start" x="652.5" y="-86" font-family="Helvetica,sans-Serif" font-size="10.00">ConverterToQWidget::</text>
<text text-anchor="middle" x="704" y="-75" font-family="Helvetica,sans-Serif" font-size="10.00">createSection</text>
</a>
</g>
</g>
<!-- Node15&#45;&gt;Node16 -->
<g id="edge17" class="edge"><title>Node15&#45;&gt;Node16</title>
<path fill="none" stroke="midnightblue" d="M569.862,-95.091C594.013,-93.8954 620.901,-92.5643 644.155,-91.4131"/>
<polygon fill="midnightblue" stroke="midnightblue" points="569.513,-91.6039 559.698,-95.5942 569.859,-98.5953 569.513,-91.6039"/>
</g>
<!-- Node17 -->
<g id="node17" class="node"><title>Node17</title>
<g id="a_node17"><a xlink:href="classqtreports_1_1detail_1_1_converter_to_q_widget.html#a96a53267cf2b8092e174906ea7f0f56f" target="_top" xlink:title="Конвертирует отчет в QWidget. ">
<polygon fill="none" stroke="black" points="1048,-44 1048,-85 1167,-85 1167,-44 1048,-44"/>
<text text-anchor="start" x="1056" y="-73" font-family="Helvetica,sans-Serif" font-size="10.00">qtreports::detail::</text>
<text text-anchor="start" x="1056" y="-62" font-family="Helvetica,sans-Serif" font-size="10.00">ConverterToQWidget::</text>
<text text-anchor="middle" x="1107.5" y="-51" font-family="Helvetica,sans-Serif" font-size="10.00">createQWidget</text>
</a>
</g>
</g>
<!-- Node16&#45;&gt;Node17 -->
<g id="edge18" class="edge"><title>Node16&#45;&gt;Node17</title>
<path fill="none" stroke="midnightblue" d="M773.925,-84.38C851.167,-79.7627 975.082,-72.3556 1047.86,-68.0054"/>
<polygon fill="midnightblue" stroke="midnightblue" points="773.585,-80.8939 763.812,-84.9845 774.003,-87.8815 773.585,-80.8939"/>
</g>
<!-- Node23 -->
<g id="node23" class="node"><title>Node23</title>
<g id="a_node23"><a xlink:href="classqtreports_1_1detail_1_1_converter_to_q_widget.html#ac98aceb5ee703053d7691029da84e296" target="_top" xlink:title="Функция добавления группировок в отчет. ">
<polygon fill="none" stroke="black" points="846.5,-19 846.5,-60 965.5,-60 965.5,-19 846.5,-19"/>
<text text-anchor="start" x="854.5" y="-48" font-family="Helvetica,sans-Serif" font-size="10.00">qtreports::detail::</text>
<text text-anchor="start" x="854.5" y="-37" font-family="Helvetica,sans-Serif" font-size="10.00">ConverterToQWidget::</text>
<text text-anchor="middle" x="906" y="-26" font-family="Helvetica,sans-Serif" font-size="10.00">addGroupsIntoReport</text>
</a>
</g>
</g>
<!-- Node16&#45;&gt;Node23 -->
<g id="edge24" class="edge"><title>Node16&#45;&gt;Node23</title>
<path fill="none" stroke="midnightblue" d="M773.619,-71.6884C797.282,-65.891 823.553,-59.4546 846.346,-53.8703"/>
<polygon fill="midnightblue" stroke="midnightblue" points="772.535,-68.3503 763.655,-74.1295 774.201,-75.1492 772.535,-68.3503"/>
</g>
<!-- Node18 -->
<g id="node18" class="node"><title>Node18</title>
<g id="a_node18"><a xlink:href="classqtreports_1_1detail_1_1_converter_to_q_widget.html#a4b42725ccbbc910522dca786da95fbb6" target="_top" xlink:title="Конвертирует отчет в виджет. ">
<polygon fill="none" stroke="black" points="1236.5,-44 1236.5,-85 1355.5,-85 1355.5,-44 1236.5,-44"/>
<text text-anchor="start" x="1244.5" y="-73" font-family="Helvetica,sans-Serif" font-size="10.00">qtreports::detail::</text>
<text text-anchor="start" x="1244.5" y="-62" font-family="Helvetica,sans-Serif" font-size="10.00">ConverterToQWidget::</text>
<text text-anchor="middle" x="1296" y="-51" font-family="Helvetica,sans-Serif" font-size="10.00">convert</text>
</a>
</g>
</g>
<!-- Node17&#45;&gt;Node18 -->
<g id="edge19" class="edge"><title>Node17&#45;&gt;Node18</title>
<path fill="none" stroke="midnightblue" d="M1177.49,-64.5C1196.79,-64.5 1217.58,-64.5 1236.22,-64.5"/>
<polygon fill="midnightblue" stroke="midnightblue" points="1177.25,-61.0001 1167.25,-64.5 1177.25,-68.0001 1177.25,-61.0001"/>
</g>
<!-- Node19 -->
<g id="node19" class="node"><title>Node19</title>
<g id="a_node19"><a xlink:href="classqtreports_1_1_engine.html#a2a0fef0c95335eec5df4f61e4ffa7434" target="_top" xlink:title="Создает виджет отчета для вывода на экран. ">
<polygon fill="none" stroke="black" points="1421.5,-98.5 1421.5,-128.5 1526.5,-128.5 1526.5,-98.5 1421.5,-98.5"/>
<text text-anchor="start" x="1429.5" y="-116.5" font-family="Helvetica,sans-Serif" font-size="10.00">qtreports::Engine::</text>
<text text-anchor="middle" x="1474" y="-105.5" font-family="Helvetica,sans-Serif" font-size="10.00">createWidget</text>
</a>
</g>
</g>
<!-- Node18&#45;&gt;Node19 -->
<g id="edge20" class="edge"><title>Node18&#45;&gt;Node19</title>
<path fill="none" stroke="midnightblue" d="M1365.24,-83.4994C1383.93,-88.7013 1403.86,-94.252 1421.44,-99.1465"/>
<polygon fill="midnightblue" stroke="midnightblue" points="1366.18,-80.1267 1355.61,-80.8163 1364.3,-86.8702 1366.18,-80.1267"/>
</g>
<!-- Node20 -->
<g id="node20" class="node"><title>Node20</title>
<g id="a_node20"><a xlink:href="classqtreports_1_1_engine.html#a3966d8f0ebb6c1f94812ec21e21680c0" target="_top" xlink:title="qtreports::Engine::\lcreateLayout">
<polygon fill="none" stroke="black" points="1421.5,-49.5 1421.5,-79.5 1526.5,-79.5 1526.5,-49.5 1421.5,-49.5"/>
<text text-anchor="start" x="1429.5" y="-67.5" font-family="Helvetica,sans-Serif" font-size="10.00">qtreports::Engine::</text>
<text text-anchor="middle" x="1474" y="-56.5" font-family="Helvetica,sans-Serif" font-size="10.00">createLayout</text>
</a>
</g>
</g>
<!-- Node18&#45;&gt;Node20 -->
<g id="edge21" class="edge"><title>Node18&#45;&gt;Node20</title>
<path fill="none" stroke="midnightblue" d="M1365.76,-64.5C1384.29,-64.5 1404.03,-64.5 1421.44,-64.5"/>
<polygon fill="midnightblue" stroke="midnightblue" points="1365.61,-61.0001 1355.61,-64.5 1365.61,-68.0001 1365.61,-61.0001"/>
</g>
<!-- Node21 -->
<g id="node21" class="node"><title>Node21</title>
<g id="a_node21"><a xlink:href="classqtreports_1_1_engine.html#a93dc7711446a155f87d9146efb493f9e" target="_top" xlink:title="qtreports::Engine::\ldrawPreview">
<polygon fill="none" stroke="black" points="1421.5,-0.5 1421.5,-30.5 1526.5,-30.5 1526.5,-0.5 1421.5,-0.5"/>
<text text-anchor="start" x="1429.5" y="-18.5" font-family="Helvetica,sans-Serif" font-size="10.00">qtreports::Engine::</text>
<text text-anchor="middle" x="1474" y="-7.5" font-family="Helvetica,sans-Serif" font-size="10.00">drawPreview</text>
</a>
</g>
</g>
<!-- Node18&#45;&gt;Node21 -->
<g id="edge22" class="edge"><title>Node18&#45;&gt;Node21</title>
<path fill="none" stroke="midnightblue" d="M1365.24,-45.5006C1383.93,-40.2987 1403.86,-34.748 1421.44,-29.8535"/>
<polygon fill="midnightblue" stroke="midnightblue" points="1364.3,-42.1298 1355.61,-48.1837 1366.18,-48.8733 1364.3,-42.1298"/>
</g>
<!-- Node22 -->
<g id="node22" class="node"><title>Node22</title>
<g id="a_node22"><a xlink:href="classqtreports_1_1_engine.html#ae80c66a0bc958bf82e023b646e18d55b" target="_top" xlink:title="qtreports::Engine::\lprint">
<polygon fill="none" stroke="black" points="1581,-0.5 1581,-30.5 1686,-30.5 1686,-0.5 1581,-0.5"/>
<text text-anchor="start" x="1589" y="-18.5" font-family="Helvetica,sans-Serif" font-size="10.00">qtreports::Engine::</text>
<text text-anchor="middle" x="1633.5" y="-7.5" font-family="Helvetica,sans-Serif" font-size="10.00">print</text>
</a>
</g>
</g>
<!-- Node21&#45;&gt;Node22 -->
<g id="edge23" class="edge"><title>Node21&#45;&gt;Node22</title>
<path fill="none" stroke="midnightblue" d="M1536.97,-15.5C1551.49,-15.5 1566.8,-15.5 1580.81,-15.5"/>
<polygon fill="midnightblue" stroke="midnightblue" points="1536.57,-12.0001 1526.57,-15.5 1536.57,-19.0001 1536.57,-12.0001"/>
</g>
<!-- Node23&#45;&gt;Node17 -->
<g id="edge25" class="edge"><title>Node23&#45;&gt;Node17</title>
<path fill="none" stroke="midnightblue" d="M975.447,-48.0774C999.051,-51.0352 1025.26,-54.3191 1047.99,-57.1682"/>
<polygon fill="midnightblue" stroke="midnightblue" points="975.866,-44.6026 965.509,-46.8319 974.996,-51.5482 975.866,-44.6026"/>
</g>
<!-- Node24&#45;&gt;Node2 -->
<g id="edge27" class="edge"><title>Node24&#45;&gt;Node2</title>
<path fill="none" stroke="midnightblue" d="M373.323,-197.656C386.563,-200.484 400.328,-203.424 413.684,-206.277"/>
<polygon fill="midnightblue" stroke="midnightblue" points="373.828,-194.185 363.317,-195.519 372.366,-201.031 373.828,-194.185"/>
</g>
<!-- Node24&#45;&gt;Node9 -->
<g id="edge28" class="edge"><title>Node24&#45;&gt;Node9</title>
<path fill="none" stroke="midnightblue" d="M388.22,-167.557C399.1,-166.079 410.096,-164.584 420.719,-163.14"/>
<polygon fill="midnightblue" stroke="midnightblue" points="387.713,-164.094 378.275,-168.909 388.655,-171.03 387.713,-164.094"/>
</g>
<!-- Node24&#45;&gt;Node15 -->
<g id="edge29" class="edge"><title>Node24&#45;&gt;Node15</title>
<path fill="none" stroke="midnightblue" d="M334.502,-161.291C357.691,-150.818 387.229,-137.909 414,-127.5 422.429,-124.223 431.401,-120.942 440.239,-117.828"/>
<polygon fill="midnightblue" stroke="midnightblue" points="332.96,-158.146 325.302,-165.467 335.854,-164.52 332.96,-158.146"/>
</g>
</g>
</svg>
        <g id="navigator" transform="translate(0 0)" fill="#404254">
                <rect fill="#f2f5e9" fill-opacity="0.5" stroke="#606060" stroke-width=".5" x="0" y="0" width="60" height="60"/>
                <use id="zoomplus" xlink:href="#zoomPlus" x="17" y="9" onmousedown="handleZoom(evt,'in')"/>
                <use id="zoomminus" xlink:href="#zoomMin" x="42" y="9" onmousedown="handleZoom(evt,'out')"/>
                <use id="reset" xlink:href="#resetDef" x="30" y="36" onmousedown="handleReset()"/>
                <g id="arrowUp" xlink:href="#dirArrow" transform="translate(30 24)" onmousedown="handlePan(0,-1)">
                  <use xlink:href="#rim" fill="#404040">
                        <set attributeName="fill" to="#808080" begin="arrowUp.mouseover" end="arrowUp.mouseout"/>
                  </use>
                  <path fill="none" stroke="white" stroke-width="1.5" d="M0,-3.0v7 M-2.5,-0.5L0,-3.0L2.5,-0.5"/>
                </g>
                <g id="arrowRight" xlink:href="#dirArrow" transform="rotate(90) translate(36 -43)" onmousedown="handlePan(1,0)">
                  <use xlink:href="#rim" fill="#404040">
                        <set attributeName="fill" to="#808080" begin="arrowRight.mouseover" end="arrowRight.mouseout"/>
                  </use>
                  <path fill="none" stroke="white" stroke-width="1.5" d="M0,-3.0v7 M-2.5,-0.5L0,-3.0L2.5,-0.5"/>
                </g>
                <g id="arrowDown" xlink:href="#dirArrow" transform="rotate(180) translate(-30 -48)" onmousedown="handlePan(0,1)">
                  <use xlink:href="#rim" fill="#404040">
                        <set attributeName="fill" to="#808080" begin="arrowDown.mouseover" end="arrowDown.mouseout"/>
                  </use>
                  <path fill="none" stroke="white" stroke-width="1.5" d="M0,-3.0v7 M-2.5,-0.5L0,-3.0L2.5,-0.5"/>
                </g>
                <g id="arrowLeft" xlink:href="#dirArrow" transform="rotate(270) translate(-36 17)" onmousedown="handlePan(-1,0)">
                  <use xlink:href="#rim" fill="#404040">
                        <set attributeName="fill" to="#808080" begin="arrowLeft.mouseover" end="arrowLeft.mouseout"/>
                  </use>
                  <path fill="none" stroke="white" stroke-width="1.5" d="M0,-3.0v7 M-2.5,-0.5L0,-3.0L2.5,-0.5"/>
                </g>
        </g>
        <svg viewBox="0 0 15 15" width="100%" height="30px" preserveAspectRatio="xMaxYMin meet">
         <g id="arrow_out" transform="scale(0.3 0.3)">
          <a xlink:href="classqtreports_1_1detail_1_1_replacer_aa9fa83cf51d75301b62e11a0a93e2dcc_icgraph_org.svg" target="_base">
           <rect id="button" ry="5" rx="5" y="6" x="6" height="38" width="38"
                fill="#f2f5e9" fill-opacity="0.5" stroke="#606060" stroke-width="1.0"/>
           <path id="arrow"
             d="M 11.500037,31.436501 C 11.940474,20.09759 22.043105,11.32322 32.158766,21.979434 L 37.068811,17.246167 C 37.068811,17.246167 37.088388,32 37.088388,32 L 22.160133,31.978069 C 22.160133,31.978069 26.997745,27.140456 26.997745,27.140456 C 18.528582,18.264221 13.291696,25.230495 11.500037,31.436501 z"
             style="fill:#404040;"/>
          </a>
         </g>
        </svg>
</svg>
