<?xml version="1.0" encoding="UTF-8" standalone="no"?>
<!DOCTYPE svg PUBLIC "-//W3C//DTD SVG 1.1//EN"
 "http://www.w3.org/Graphics/SVG/1.1/DTD/svg11.dtd">
<!-- Generated by graphviz version 2.38.0 (20140413.2041)
 -->
<!-- Title: qtreports::detail::Replacer::replaceColumnGroupInCrosstab Pages: 1 -->
<svg width="1800pt" height="206pt"
 viewBox="0.00 0.00 1800.00 206.23" xmlns="http://www.w3.org/2000/svg" xmlns:xlink="http://www.w3.org/1999/xlink">
<g id="graph0" class="graph" transform="scale(1 1) rotate(0) translate(4 202.229)">
<title>qtreports::detail::Replacer::replaceColumnGroupInCrosstab</title>
<!-- Node1 -->
<g id="node1" class="node"><title>Node1</title>
<polygon fill="#bfbfbf" stroke="black" points="0,-110 0,-151 164,-151 164,-110 0,-110"/>
<text text-anchor="start" x="8" y="-139" font-family="Helvetica,sans-Serif" font-size="10.00">qtreports::detail::</text>
<text text-anchor="start" x="8" y="-128" font-family="Helvetica,sans-Serif" font-size="10.00">Replacer::replaceColumnGroup</text>
<text text-anchor="middle" x="82" y="-117" font-family="Helvetica,sans-Serif" font-size="10.00">InCrosstab</text>
</g>
<!-- Node2 -->
<g id="node2" class="node"><title>Node2</title>
<g id="a_node2"><a xlink:href="classqtreports_1_1detail_1_1_replacer.html#aa9fa83cf51d75301b62e11a0a93e2dcc" target="_top" xlink:title="qtreports::detail::\lReplacer::replaceColumnGroups\lInCrosstab">
<polygon fill="none" stroke="black" points="200,-110 200,-151 370,-151 370,-110 200,-110"/>
<text text-anchor="start" x="208" y="-139" font-family="Helvetica,sans-Serif" font-size="10.00">qtreports::detail::</text>
<text text-anchor="start" x="208" y="-128" font-family="Helvetica,sans-Serif" font-size="10.00">Replacer::replaceColumnGroups</text>
<text text-anchor="middle" x="285" y="-117" font-family="Helvetica,sans-Serif" font-size="10.00">InCrosstab</text>
</a>
</g>
</g>
<!-- Node1&#45;&gt;Node2 -->
<g id="edge1" class="edge"><title>Node1&#45;&gt;Node2</title>
<path fill="none" stroke="midnightblue" d="M174.176,-130.5C182.743,-130.5 191.402,-130.5 199.9,-130.5"/>
<polygon fill="midnightblue" stroke="midnightblue" points="174.175,-127 164.175,-130.5 174.175,-134 174.175,-127"/>
</g>
<!-- Node3 -->
<g id="node3" class="node"><title>Node3</title>
<g id="a_node3"><a xlink:href="classqtreports_1_1detail_1_1_converter_to_p_d_f.html#aba1de1bf9abc3ea9b7b5c2b8317f5a0f" target="_top" xlink:title="Создает band. ">
<polygon fill="none" stroke="black" points="614,-150.5 614,-180.5 772,-180.5 772,-150.5 614,-150.5"/>
<text text-anchor="start" x="622" y="-168.5" font-family="Helvetica,sans-Serif" font-size="10.00">qtreports::detail::</text>
<text text-anchor="middle" x="693" y="-157.5" font-family="Helvetica,sans-Serif" font-size="10.00">ConverterToPDF::createBands</text>
</a>
</g>
</g>
<!-- Node2&#45;&gt;Node3 -->
<g id="edge2" class="edge"><title>Node2&#45;&gt;Node3</title>
<path fill="none" stroke="midnightblue" d="M380.409,-150.84C389.034,-152.257 397.66,-153.512 406,-154.5 475.946,-162.786 556.118,-165.269 613.747,-165.834"/>
<polygon fill="midnightblue" stroke="midnightblue" points="380.75,-147.348 370.302,-149.11 379.568,-154.248 380.75,-147.348"/>
</g>
<!-- Node9 -->
<g id="node9" class="node"><title>Node9</title>
<g id="a_node9"><a xlink:href="classqtreports_1_1detail_1_1_converter_to_q_widget.html#aa3be16e037533a4a5b58596087207187" target="_top" xlink:title="Создает band. ">
<polygon fill="none" stroke="black" points="633.5,-83 633.5,-124 752.5,-124 752.5,-83 633.5,-83"/>
<text text-anchor="start" x="641.5" y="-112" font-family="Helvetica,sans-Serif" font-size="10.00">qtreports::detail::</text>
<text text-anchor="start" x="641.5" y="-101" font-family="Helvetica,sans-Serif" font-size="10.00">ConverterToQWidget::</text>
<text text-anchor="middle" x="693" y="-90" font-family="Helvetica,sans-Serif" font-size="10.00">createBands</text>
</a>
</g>
</g>
<!-- Node2&#45;&gt;Node9 -->
<g id="edge9" class="edge"><title>Node2&#45;&gt;Node9</title>
<path fill="none" stroke="midnightblue" d="M380.356,-109.017C388.992,-107.604 397.635,-106.392 406,-105.5 484.382,-97.1449 575.532,-98.383 633.473,-100.529"/>
<polygon fill="midnightblue" stroke="midnightblue" points="379.499,-105.613 370.239,-110.76 380.688,-112.511 379.499,-105.613"/>
</g>
<!-- Node18 -->
<g id="node18" class="node"><title>Node18</title>
<g id="a_node18"><a xlink:href="classqtreports_1_1detail_1_1_replacer.html#a5dc72251354d389091776142436ebd22" target="_top" xlink:title="qtreports::detail::\lReplacer::replaceCellsInCrosstab">
<polygon fill="none" stroke="black" points="406,-115.5 406,-145.5 578,-145.5 578,-115.5 406,-115.5"/>
<text text-anchor="start" x="414" y="-133.5" font-family="Helvetica,sans-Serif" font-size="10.00">qtreports::detail::</text>
<text text-anchor="middle" x="492" y="-122.5" font-family="Helvetica,sans-Serif" font-size="10.00">Replacer::replaceCellsInCrosstab</text>
</a>
</g>
</g>
<!-- Node2&#45;&gt;Node18 -->
<g id="edge19" class="edge"><title>Node2&#45;&gt;Node18</title>
<path fill="none" stroke="midnightblue" d="M380.487,-130.5C388.906,-130.5 397.397,-130.5 405.732,-130.5"/>
<polygon fill="midnightblue" stroke="midnightblue" points="380.269,-127 370.269,-130.5 380.269,-134 380.269,-127"/>
</g>
<!-- Node4 -->
<g id="node4" class="node"><title>Node4</title>
<g id="a_node4"><a xlink:href="classqtreports_1_1detail_1_1_converter_to_p_d_f.html#a5d9212cf5250d8d938359c417537337c" target="_top" xlink:title="Создает секцию. ">
<polygon fill="none" stroke="black" points="808,-150.5 808,-180.5 972,-180.5 972,-150.5 808,-150.5"/>
<text text-anchor="start" x="816" y="-168.5" font-family="Helvetica,sans-Serif" font-size="10.00">qtreports::detail::</text>
<text text-anchor="middle" x="890" y="-157.5" font-family="Helvetica,sans-Serif" font-size="10.00">ConverterToPDF::createSection</text>
</a>
</g>
</g>
<!-- Node3&#45;&gt;Node4 -->
<g id="edge3" class="edge"><title>Node3&#45;&gt;Node4</title>
<path fill="none" stroke="midnightblue" d="M782.191,-165.5C790.761,-165.5 799.428,-165.5 807.924,-165.5"/>
<polygon fill="midnightblue" stroke="midnightblue" points="782.19,-162 772.19,-165.5 782.19,-169 782.19,-162"/>
</g>
<!-- Node5 -->
<g id="node5" class="node"><title>Node5</title>
<g id="a_node5"><a xlink:href="classqtreports_1_1detail_1_1_converter_to_p_d_f.html#aad8435572f5ba065f8f2fef428d97b22" target="_top" xlink:title="Конвертирует отчет в PDF документ. ">
<polygon fill="none" stroke="black" points="1212,-150.5 1212,-180.5 1340,-180.5 1340,-150.5 1212,-150.5"/>
<text text-anchor="start" x="1220" y="-168.5" font-family="Helvetica,sans-Serif" font-size="10.00">qtreports::detail::</text>
<text text-anchor="middle" x="1276" y="-157.5" font-family="Helvetica,sans-Serif" font-size="10.00">ConverterToPDF::create</text>
</a>
</g>
</g>
<!-- Node4&#45;&gt;Node5 -->
<g id="edge4" class="edge"><title>Node4&#45;&gt;Node5</title>
<path fill="none" stroke="midnightblue" d="M956.944,-182.795C973.495,-186.404 991.299,-189.667 1008,-191.5 1082.22,-199.647 1101.95,-201.062 1176,-191.5 1193.18,-189.281 1211.64,-184.981 1227.9,-180.507"/>
<polygon fill="midnightblue" stroke="midnightblue" points="957.347,-179.298 946.822,-180.513 955.807,-186.126 957.347,-179.298"/>
</g>
<!-- Node8 -->
<g id="node8" class="node"><title>Node8</title>
<g id="a_node8"><a xlink:href="classqtreports_1_1detail_1_1_converter_to_p_d_f.html#adda58d86ecfee05cdcc5e5ce161926ff" target="_top" xlink:title="Добавляет группу в репорт. ">
<polygon fill="none" stroke="black" points="1008,-141 1008,-182 1176,-182 1176,-141 1008,-141"/>
<text text-anchor="start" x="1016" y="-170" font-family="Helvetica,sans-Serif" font-size="10.00">qtreports::detail::</text>
<text text-anchor="start" x="1016" y="-159" font-family="Helvetica,sans-Serif" font-size="10.00">ConverterToPDF::addGroupsInto</text>
<text text-anchor="middle" x="1092" y="-148" font-family="Helvetica,sans-Serif" font-size="10.00">Report</text>
</a>
</g>
</g>
<!-- Node4&#45;&gt;Node8 -->
<g id="edge7" class="edge"><title>Node4&#45;&gt;Node8</title>
<path fill="none" stroke="midnightblue" d="M982.089,-163.678C990.681,-163.506 999.361,-163.333 1007.87,-163.163"/>
<polygon fill="midnightblue" stroke="midnightblue" points="981.987,-160.179 972.059,-163.879 982.127,-167.178 981.987,-160.179"/>
</g>
<!-- Node6 -->
<g id="node6" class="node"><title>Node6</title>
<g id="a_node6"><a xlink:href="classqtreports_1_1detail_1_1_converter_to_p_d_f.html#af39953d8db1bdcbbcf59cc00b05747eb" target="_top" xlink:title="Запускает процесс конвертации. ">
<polygon fill="none" stroke="black" points="1376,-150.5 1376,-180.5 1510,-180.5 1510,-150.5 1376,-150.5"/>
<text text-anchor="start" x="1384" y="-168.5" font-family="Helvetica,sans-Serif" font-size="10.00">qtreports::detail::</text>
<text text-anchor="middle" x="1443" y="-157.5" font-family="Helvetica,sans-Serif" font-size="10.00">ConverterToPDF::convert</text>
</a>
</g>
</g>
<!-- Node5&#45;&gt;Node6 -->
<g id="edge5" class="edge"><title>Node5&#45;&gt;Node6</title>
<path fill="none" stroke="midnightblue" d="M1350.52,-165.5C1358.95,-165.5 1367.51,-165.5 1375.84,-165.5"/>
<polygon fill="midnightblue" stroke="midnightblue" points="1350.32,-162 1340.32,-165.5 1350.32,-169 1350.32,-162"/>
</g>
<!-- Node7 -->
<g id="node7" class="node"><title>Node7</title>
<g id="a_node7"><a xlink:href="classqtreports_1_1_engine.html#a34b6ccdf31af3bd275d9fb95100c6bda" target="_top" xlink:title="Создает PDF документ отчета по указанному пути ">
<polygon fill="none" stroke="black" points="1546,-150.5 1546,-180.5 1651,-180.5 1651,-150.5 1546,-150.5"/>
<text text-anchor="start" x="1554" y="-168.5" font-family="Helvetica,sans-Serif" font-size="10.00">qtreports::Engine::</text>
<text text-anchor="middle" x="1598.5" y="-157.5" font-family="Helvetica,sans-Serif" font-size="10.00">createPDF</text>
</a>
</g>
</g>
<!-- Node6&#45;&gt;Node7 -->
<g id="edge6" class="edge"><title>Node6&#45;&gt;Node7</title>
<path fill="none" stroke="midnightblue" d="M1520.47,-165.5C1529.04,-165.5 1537.62,-165.5 1545.77,-165.5"/>
<polygon fill="midnightblue" stroke="midnightblue" points="1520.43,-162 1510.43,-165.5 1520.43,-169 1520.43,-162"/>
</g>
<!-- Node8&#45;&gt;Node5 -->
<g id="edge8" class="edge"><title>Node8&#45;&gt;Node5</title>
<path fill="none" stroke="midnightblue" d="M1186.24,-163.549C1194.96,-163.741 1203.65,-163.932 1212,-164.115"/>
<polygon fill="midnightblue" stroke="midnightblue" points="1186.09,-160.045 1176.01,-163.324 1185.93,-167.043 1186.09,-160.045"/>
</g>
<!-- Node10 -->
<g id="node10" class="node"><title>Node10</title>
<g id="a_node10"><a xlink:href="classqtreports_1_1detail_1_1_converter_to_q_widget.html#a3c95daf9bd10efc4feb71e0d976bbd6e" target="_top" xlink:title="Создает секцию. ">
<polygon fill="none" stroke="black" points="830.5,-83 830.5,-124 949.5,-124 949.5,-83 830.5,-83"/>
<text text-anchor="start" x="838.5" y="-112" font-family="Helvetica,sans-Serif" font-size="10.00">qtreports::detail::</text>
<text text-anchor="start" x="838.5" y="-101" font-family="Helvetica,sans-Serif" font-size="10.00">ConverterToQWidget::</text>
<text text-anchor="middle" x="890" y="-90" font-family="Helvetica,sans-Serif" font-size="10.00">createSection</text>
</a>
</g>
</g>
<!-- Node9&#45;&gt;Node10 -->
<g id="edge10" class="edge"><title>Node9&#45;&gt;Node10</title>
<path fill="none" stroke="midnightblue" d="M762.785,-103.5C784.801,-103.5 808.961,-103.5 830.198,-103.5"/>
<polygon fill="midnightblue" stroke="midnightblue" points="762.506,-100 752.506,-103.5 762.506,-107 762.506,-100"/>
</g>
<!-- Node11 -->
<g id="node11" class="node"><title>Node11</title>
<g id="a_node11"><a xlink:href="classqtreports_1_1detail_1_1_converter_to_q_widget.html#a96a53267cf2b8092e174906ea7f0f56f" target="_top" xlink:title="Конвертирует отчет в QWidget. ">
<polygon fill="none" stroke="black" points="1216.5,-44 1216.5,-85 1335.5,-85 1335.5,-44 1216.5,-44"/>
<text text-anchor="start" x="1224.5" y="-73" font-family="Helvetica,sans-Serif" font-size="10.00">qtreports::detail::</text>
<text text-anchor="start" x="1224.5" y="-62" font-family="Helvetica,sans-Serif" font-size="10.00">ConverterToQWidget::</text>
<text text-anchor="middle" x="1276" y="-51" font-family="Helvetica,sans-Serif" font-size="10.00">createQWidget</text>
</a>
</g>
</g>
<!-- Node10&#45;&gt;Node11 -->
<g id="edge11" class="edge"><title>Node10&#45;&gt;Node11</title>
<path fill="none" stroke="midnightblue" d="M959.853,-103.437C1017.8,-102.535 1102.69,-99.2201 1176,-88.5 1189.21,-86.5679 1203.24,-83.688 1216.46,-80.5873"/>
<polygon fill="midnightblue" stroke="midnightblue" points="959.668,-99.9395 949.716,-103.575 959.763,-106.939 959.668,-99.9395"/>
</g>
<!-- Node17 -->
<g id="node17" class="node"><title>Node17</title>
<g id="a_node17"><a xlink:href="classqtreports_1_1detail_1_1_converter_to_q_widget.html#ac98aceb5ee703053d7691029da84e296" target="_top" xlink:title="Функция добавления группировок в отчет. ">
<polygon fill="none" stroke="black" points="1032.5,-38 1032.5,-79 1151.5,-79 1151.5,-38 1032.5,-38"/>
<text text-anchor="start" x="1040.5" y="-67" font-family="Helvetica,sans-Serif" font-size="10.00">qtreports::detail::</text>
<text text-anchor="start" x="1040.5" y="-56" font-family="Helvetica,sans-Serif" font-size="10.00">ConverterToQWidget::</text>
<text text-anchor="middle" x="1092" y="-45" font-family="Helvetica,sans-Serif" font-size="10.00">addGroupsIntoReport</text>
</a>
</g>
</g>
<!-- Node10&#45;&gt;Node17 -->
<g id="edge17" class="edge"><title>Node10&#45;&gt;Node17</title>
<path fill="none" stroke="midnightblue" d="M959.619,-88.0607C983.282,-82.7367 1009.55,-76.8256 1032.35,-71.6972"/>
<polygon fill="midnightblue" stroke="midnightblue" points="958.643,-84.6927 949.655,-90.3026 960.18,-91.522 958.643,-84.6927"/>
</g>
<!-- Node12 -->
<g id="node12" class="node"><title>Node12</title>
<g id="a_node12"><a xlink:href="classqtreports_1_1detail_1_1_converter_to_q_widget.html#a4b42725ccbbc910522dca786da95fbb6" target="_top" xlink:title="Конвертирует отчет в виджет. ">
<polygon fill="none" stroke="black" points="1383.5,-44 1383.5,-85 1502.5,-85 1502.5,-44 1383.5,-44"/>
<text text-anchor="start" x="1391.5" y="-73" font-family="Helvetica,sans-Serif" font-size="10.00">qtreports::detail::</text>
<text text-anchor="start" x="1391.5" y="-62" font-family="Helvetica,sans-Serif" font-size="10.00">ConverterToQWidget::</text>
<text text-anchor="middle" x="1443" y="-51" font-family="Helvetica,sans-Serif" font-size="10.00">convert</text>
</a>
</g>
</g>
<!-- Node11&#45;&gt;Node12 -->
<g id="edge12" class="edge"><title>Node11&#45;&gt;Node12</title>
<path fill="none" stroke="midnightblue" d="M1345.94,-64.5C1358.35,-64.5 1371.18,-64.5 1383.27,-64.5"/>
<polygon fill="midnightblue" stroke="midnightblue" points="1345.64,-61.0001 1335.64,-64.5 1345.64,-68.0001 1345.64,-61.0001"/>
</g>
<!-- Node13 -->
<g id="node13" class="node"><title>Node13</title>
<g id="a_node13"><a xlink:href="classqtreports_1_1_engine.html#a2a0fef0c95335eec5df4f61e4ffa7434" target="_top" xlink:title="Создает виджет отчета для вывода на экран. ">
<polygon fill="none" stroke="black" points="1546,-98.5 1546,-128.5 1651,-128.5 1651,-98.5 1546,-98.5"/>
<text text-anchor="start" x="1554" y="-116.5" font-family="Helvetica,sans-Serif" font-size="10.00">qtreports::Engine::</text>
<text text-anchor="middle" x="1598.5" y="-105.5" font-family="Helvetica,sans-Serif" font-size="10.00">createWidget</text>
</a>
</g>
</g>
<!-- Node12&#45;&gt;Node13 -->
<g id="edge13" class="edge"><title>Node12&#45;&gt;Node13</title>
<path fill="none" stroke="midnightblue" d="M1512.6,-86.3977C1525.38,-90.4775 1538.46,-94.6545 1550.41,-98.4696"/>
<polygon fill="midnightblue" stroke="midnightblue" points="1513.5,-83.0114 1502.91,-83.3045 1511.37,-89.6799 1513.5,-83.0114"/>
</g>
<!-- Node14 -->
<g id="node14" class="node"><title>Node14</title>
<g id="a_node14"><a xlink:href="classqtreports_1_1_engine.html#a3966d8f0ebb6c1f94812ec21e21680c0" target="_top" xlink:title="qtreports::Engine::\lcreateLayout">
<polygon fill="none" stroke="black" points="1546,-49.5 1546,-79.5 1651,-79.5 1651,-49.5 1546,-49.5"/>
<text text-anchor="start" x="1554" y="-67.5" font-family="Helvetica,sans-Serif" font-size="10.00">qtreports::Engine::</text>
<text text-anchor="middle" x="1598.5" y="-56.5" font-family="Helvetica,sans-Serif" font-size="10.00">createLayout</text>
</a>
</g>
</g>
<!-- Node12&#45;&gt;Node14 -->
<g id="edge14" class="edge"><title>Node12&#45;&gt;Node14</title>
<path fill="none" stroke="midnightblue" d="M1513.22,-64.5C1524.08,-64.5 1535.14,-64.5 1545.52,-64.5"/>
<polygon fill="midnightblue" stroke="midnightblue" points="1512.91,-61.0001 1502.91,-64.5 1512.91,-68.0001 1512.91,-61.0001"/>
</g>
<!-- Node15 -->
<g id="node15" class="node"><title>Node15</title>
<g id="a_node15"><a xlink:href="classqtreports_1_1_engine.html#a93dc7711446a155f87d9146efb493f9e" target="_top" xlink:title="qtreports::Engine::\ldrawPreview">
<polygon fill="none" stroke="black" points="1546,-0.5 1546,-30.5 1651,-30.5 1651,-0.5 1546,-0.5"/>
<text text-anchor="start" x="1554" y="-18.5" font-family="Helvetica,sans-Serif" font-size="10.00">qtreports::Engine::</text>
<text text-anchor="middle" x="1598.5" y="-7.5" font-family="Helvetica,sans-Serif" font-size="10.00">drawPreview</text>
</a>
</g>
</g>
<!-- Node12&#45;&gt;Node15 -->
<g id="edge15" class="edge"><title>Node12&#45;&gt;Node15</title>
<path fill="none" stroke="midnightblue" d="M1512.6,-42.6023C1525.38,-38.5225 1538.46,-34.3455 1550.41,-30.5304"/>
<polygon fill="midnightblue" stroke="midnightblue" points="1511.37,-39.3201 1502.91,-45.6955 1513.5,-45.9886 1511.37,-39.3201"/>
</g>
<!-- Node16 -->
<g id="node16" class="node"><title>Node16</title>
<g id="a_node16"><a xlink:href="classqtreports_1_1_engine.html#ae80c66a0bc958bf82e023b646e18d55b" target="_top" xlink:title="qtreports::Engine::\lprint">
<polygon fill="none" stroke="black" points="1687,-0.5 1687,-30.5 1792,-30.5 1792,-0.5 1687,-0.5"/>
<text text-anchor="start" x="1695" y="-18.5" font-family="Helvetica,sans-Serif" font-size="10.00">qtreports::Engine::</text>
<text text-anchor="middle" x="1739.5" y="-7.5" font-family="Helvetica,sans-Serif" font-size="10.00">print</text>
</a>
</g>
</g>
<!-- Node15&#45;&gt;Node16 -->
<g id="edge16" class="edge"><title>Node15&#45;&gt;Node16</title>
<path fill="none" stroke="midnightblue" d="M1661.44,-15.5C1669.88,-15.5 1678.47,-15.5 1686.7,-15.5"/>
<polygon fill="midnightblue" stroke="midnightblue" points="1661.26,-12.0001 1651.26,-15.5 1661.26,-19.0001 1661.26,-12.0001"/>
</g>
<!-- Node17&#45;&gt;Node11 -->
<g id="edge18" class="edge"><title>Node17&#45;&gt;Node11</title>
<path fill="none" stroke="midnightblue" d="M1161.7,-60.7648C1179.65,-61.3565 1198.83,-61.9889 1216.21,-62.5619"/>
<polygon fill="midnightblue" stroke="midnightblue" points="1161.7,-57.263 1151.59,-60.4315 1161.47,-64.2592 1161.7,-57.263"/>
</g>
<!-- Node18&#45;&gt;Node3 -->
<g id="edge20" class="edge"><title>Node18&#45;&gt;Node3</title>
<path fill="none" stroke="midnightblue" d="M588.279,-147.258C596.842,-148.764 605.448,-150.277 613.841,-151.753"/>
<polygon fill="midnightblue" stroke="midnightblue" points="588.715,-143.781 578.26,-145.495 587.502,-150.675 588.715,-143.781"/>
</g>
<!-- Node18&#45;&gt;Node9 -->
<g id="edge21" class="edge"><title>Node18&#45;&gt;Node9</title>
<path fill="none" stroke="midnightblue" d="M588.318,-117.567C603.678,-115.483 619.17,-113.381 633.328,-111.461"/>
<polygon fill="midnightblue" stroke="midnightblue" points="587.699,-114.119 578.26,-118.932 588.64,-121.056 587.699,-114.119"/>
</g>
</g>
</svg>
