<?xml version="1.0" encoding="UTF-8" standalone="no"?>
<!DOCTYPE svg PUBLIC "-//W3C//DTD SVG 1.1//EN"
 "http://www.w3.org/Graphics/SVG/1.1/DTD/svg11.dtd">
<!-- Generated by graphviz version 2.38.0 (20140413.2041)
 -->
<!-- Title: qtreports::detail::ConverterToHTML::addShapes Pages: 1 -->
<svg width="1107pt" height="94pt"
 viewBox="0.00 0.00 1107.00 93.50" xmlns="http://www.w3.org/2000/svg" xmlns:xlink="http://www.w3.org/1999/xlink">
<g id="graph0" class="graph" transform="scale(1 1) rotate(0) translate(4 89.5)">
<title>qtreports::detail::ConverterToHTML::addShapes</title>
<!-- Node1 -->
<g id="node1" class="node"><title>Node1</title>
<polygon fill="#bfbfbf" stroke="black" points="0,-30 0,-60 160,-60 160,-30 0,-30"/>
<text text-anchor="start" x="8" y="-48" font-family="Helvetica,sans-Serif" font-size="10.00">qtreports::detail::</text>
<text text-anchor="middle" x="80" y="-37" font-family="Helvetica,sans-Serif" font-size="10.00">ConverterToHTML::addShapes</text>
</g>
<!-- Node2 -->
<g id="node2" class="node"><title>Node2</title>
<g id="a_node2"><a xlink:href="classqtreports_1_1detail_1_1_converter_to_h_t_m_l.html#aa9d511353f62cfc489c3e071ebf5182b" target="_top" xlink:title="Добавление &lt;band&gt;, принадлежащего конкретной &lt;section&gt;, в документ HTML. ">
<polygon fill="none" stroke="black" points="196,-30 196,-60 350,-60 350,-30 196,-30"/>
<text text-anchor="start" x="204" y="-48" font-family="Helvetica,sans-Serif" font-size="10.00">qtreports::detail::</text>
<text text-anchor="middle" x="273" y="-37" font-family="Helvetica,sans-Serif" font-size="10.00">ConverterToHTML::addBands</text>
</a>
</g>
</g>
<!-- Node1&#45;&gt;Node2 -->
<g id="edge1" class="edge"><title>Node1&#45;&gt;Node2</title>
<path fill="none" stroke="midnightblue" d="M170.089,-45C178.669,-45 187.318,-45 195.758,-45"/>
<polygon fill="midnightblue" stroke="midnightblue" points="170.066,-41.5001 160.066,-45 170.066,-48.5001 170.066,-41.5001"/>
</g>
<!-- Node3 -->
<g id="node3" class="node"><title>Node3</title>
<g id="a_node3"><a xlink:href="classqtreports_1_1detail_1_1_converter_to_h_t_m_l.html#ace8358a3612fc8085b7c34f1f92341e2" target="_top" xlink:title="Процесс конвертации репорта в HTML формат. ">
<polygon fill="none" stroke="black" points="580,-30 580,-60 743,-60 743,-30 580,-30"/>
<text text-anchor="start" x="588" y="-48" font-family="Helvetica,sans-Serif" font-size="10.00">qtreports::detail::</text>
<text text-anchor="middle" x="661.5" y="-37" font-family="Helvetica,sans-Serif" font-size="10.00">ConverterToHTML::createHTML</text>
</a>
</g>
</g>
<!-- Node2&#45;&gt;Node3 -->
<g id="edge2" class="edge"><title>Node2&#45;&gt;Node3</title>
<path fill="none" stroke="midnightblue" d="M360.341,-50.0898C369.007,-50.4614 377.676,-50.7772 386,-51 456.197,-52.8789 473.801,-52.8065 544,-51 555.641,-50.7004 567.931,-50.2327 579.989,-49.6875"/>
<polygon fill="midnightblue" stroke="midnightblue" points="360.338,-46.5862 350.19,-49.6304 360.022,-53.5791 360.338,-46.5862"/>
</g>
<!-- Node7 -->
<g id="node7" class="node"><title>Node7</title>
<g id="a_node7"><a xlink:href="classqtreports_1_1detail_1_1_converter_to_h_t_m_l.html#a587e5f6bfbd1185f6bf32d76ac231a13" target="_top" xlink:title="Добавление &lt;group&gt; в документ HTML. ">
<polygon fill="none" stroke="black" points="386,-0.5 386,-41.5 544,-41.5 544,-0.5 386,-0.5"/>
<text text-anchor="start" x="394" y="-29.5" font-family="Helvetica,sans-Serif" font-size="10.00">qtreports::detail::</text>
<text text-anchor="start" x="394" y="-18.5" font-family="Helvetica,sans-Serif" font-size="10.00">ConverterToHTML::addGroups</text>
<text text-anchor="middle" x="465" y="-7.5" font-family="Helvetica,sans-Serif" font-size="10.00">IntoReport</text>
</a>
</g>
</g>
<!-- Node2&#45;&gt;Node7 -->
<g id="edge6" class="edge"><title>Node2&#45;&gt;Node7</title>
<path fill="none" stroke="midnightblue" d="M360.194,-34.1123C368.773,-33.0287 377.447,-31.933 385.936,-30.8607"/>
<polygon fill="midnightblue" stroke="midnightblue" points="359.668,-30.6509 350.185,-35.3766 360.545,-37.5957 359.668,-30.6509"/>
</g>
<!-- Node4 -->
<g id="node4" class="node"><title>Node4</title>
<g id="a_node4"><a xlink:href="classqtreports_1_1detail_1_1_converter_to_h_t_m_l.html#ad91ac333abf7d02f7590970a54ef7aae" target="_top" xlink:title="Запускает процесс конвертации репорта в HTML формат. ">
<polygon fill="none" stroke="black" points="779,-30 779,-60 921,-60 921,-30 779,-30"/>
<text text-anchor="start" x="787" y="-48" font-family="Helvetica,sans-Serif" font-size="10.00">qtreports::detail::</text>
<text text-anchor="middle" x="850" y="-37" font-family="Helvetica,sans-Serif" font-size="10.00">ConverterToHTML::convert</text>
</a>
</g>
</g>
<!-- Node3&#45;&gt;Node4 -->
<g id="edge3" class="edge"><title>Node3&#45;&gt;Node4</title>
<path fill="none" stroke="midnightblue" d="M753.316,-45C761.944,-45 770.601,-45 778.989,-45"/>
<polygon fill="midnightblue" stroke="midnightblue" points="753.217,-41.5001 743.217,-45 753.217,-48.5001 753.217,-41.5001"/>
</g>
<!-- Node5 -->
<g id="node5" class="node"><title>Node5</title>
<g id="a_node5"><a xlink:href="classqtreports_1_1detail_1_1_converter_to_h_t_m_l.html#a38e92f3fd70f61c44871b22cddffd15a" target="_top" xlink:title="Создает HTML документ при успешной конвертации репорта в HTML формат. ">
<polygon fill="none" stroke="black" points="957,-55 957,-85 1099,-85 1099,-55 957,-55"/>
<text text-anchor="start" x="965" y="-73" font-family="Helvetica,sans-Serif" font-size="10.00">qtreports::detail::</text>
<text text-anchor="middle" x="1028" y="-62" font-family="Helvetica,sans-Serif" font-size="10.00">ConverterToHTML::convert</text>
</a>
</g>
</g>
<!-- Node4&#45;&gt;Node5 -->
<g id="edge4" class="edge"><title>Node4&#45;&gt;Node5</title>
<path fill="none" stroke="midnightblue" d="M931.101,-56.3779C939.706,-57.6003 948.412,-58.837 956.888,-60.0409"/>
<polygon fill="midnightblue" stroke="midnightblue" points="931.458,-52.8937 921.066,-54.9525 930.474,-59.8241 931.458,-52.8937"/>
</g>
<!-- Node6 -->
<g id="node6" class="node"><title>Node6</title>
<g id="a_node6"><a xlink:href="classqtreports_1_1_engine.html#a551b0db0510d572d56447c471daa0891" target="_top" xlink:title="Создает HTML документ отчета по указанному пути ">
<polygon fill="none" stroke="black" points="975.5,-6 975.5,-36 1080.5,-36 1080.5,-6 975.5,-6"/>
<text text-anchor="start" x="983.5" y="-24" font-family="Helvetica,sans-Serif" font-size="10.00">qtreports::Engine::</text>
<text text-anchor="middle" x="1028" y="-13" font-family="Helvetica,sans-Serif" font-size="10.00">createHTML</text>
</a>
</g>
</g>
<!-- Node4&#45;&gt;Node6 -->
<g id="edge5" class="edge"><title>Node4&#45;&gt;Node6</title>
<path fill="none" stroke="midnightblue" d="M931.347,-34.0436C946.298,-32.0049 961.545,-29.9257 975.345,-28.0438"/>
<polygon fill="midnightblue" stroke="midnightblue" points="930.501,-30.6265 921.066,-35.4456 931.447,-37.5623 930.501,-30.6265"/>
</g>
<!-- Node7&#45;&gt;Node3 -->
<g id="edge7" class="edge"><title>Node7&#45;&gt;Node3</title>
<path fill="none" stroke="midnightblue" d="M554.231,-31.8871C562.767,-32.9403 571.396,-34.0051 579.852,-35.0486"/>
<polygon fill="midnightblue" stroke="midnightblue" points="554.623,-28.4091 544.27,-30.658 553.766,-35.3564 554.623,-28.4091"/>
</g>
</g>
</svg>
