<?xml version="1.0" encoding="UTF-8" standalone="no"?>
<!DOCTYPE svg PUBLIC "-//W3C//DTD SVG 1.1//EN"
 "http://www.w3.org/Graphics/SVG/1.1/DTD/svg11.dtd">
<!-- Generated by graphviz version 2.38.0 (20140413.2041)
 -->
<!-- Title: qtreports::detail::ConverterToQWidget::addGroupsIntoReport Pages: 1 -->
<svg width="1019pt" height="383pt"
 viewBox="0.00 0.00 1019.00 382.77" xmlns="http://www.w3.org/2000/svg" xmlns:xlink="http://www.w3.org/1999/xlink">
<g id="graph0" class="graph" transform="scale(1 1) rotate(0) translate(4 378.769)">
<title>qtreports::detail::ConverterToQWidget::addGroupsIntoReport</title>
<!-- Node1 -->
<g id="node1" class="node"><title>Node1</title>
<polygon fill="#bfbfbf" stroke="black" points="0,-169.5 0,-210.5 119,-210.5 119,-169.5 0,-169.5"/>
<text text-anchor="start" x="8" y="-198.5" font-family="Helvetica,sans-Serif" font-size="10.00">qtreports::detail::</text>
<text text-anchor="start" x="8" y="-187.5" font-family="Helvetica,sans-Serif" font-size="10.00">ConverterToQWidget::</text>
<text text-anchor="middle" x="59.5" y="-176.5" font-family="Helvetica,sans-Serif" font-size="10.00">addGroupsIntoReport</text>
</g>
<!-- Node2 -->
<g id="node2" class="node"><title>Node2</title>
<g id="a_node2"><a xlink:href="classqtreports_1_1detail_1_1_replacer.html#a4642b07160798f2ee4de276e1d0c1ecd" target="_top" xlink:title="Возвращает текст с подставленными значениями полей из источника данных. ">
<polygon fill="none" stroke="black" points="877,-80 877,-110 996,-110 996,-80 877,-80"/>
<text text-anchor="start" x="885" y="-98" font-family="Helvetica,sans-Serif" font-size="10.00">qtreports::detail::</text>
<text text-anchor="middle" x="936.5" y="-87" font-family="Helvetica,sans-Serif" font-size="10.00">Replacer::replaceField</text>
</a>
</g>
</g>
<!-- Node1&#45;&gt;Node2 -->
<g id="edge1" class="edge"><title>Node1&#45;&gt;Node2</title>
<path fill="none" stroke="midnightblue" d="M91.0476,-169.371C144.909,-135.061 261.367,-70 370,-70 370,-70 370,-70 551,-70 661.755,-70 790.077,-80.4569 866.918,-87.8449"/>
<polygon fill="midnightblue" stroke="midnightblue" points="866.658,-91.3361 876.95,-88.8202 867.336,-84.3689 866.658,-91.3361"/>
</g>
<!-- Node3 -->
<g id="node3" class="node"><title>Node3</title>
<g id="a_node3"><a xlink:href="classqtreports_1_1detail_1_1_converter_to_q_widget.html#a76bb37f2855d12afc9056c75cdbc5e0b" target="_top" xlink:title="Проверяет, является ли виджет типа WidgetType::Layout. ">
<polygon fill="none" stroke="black" points="490.5,-294.5 490.5,-335.5 609.5,-335.5 609.5,-294.5 490.5,-294.5"/>
<text text-anchor="start" x="498.5" y="-323.5" font-family="Helvetica,sans-Serif" font-size="10.00">qtreports::detail::</text>
<text text-anchor="start" x="498.5" y="-312.5" font-family="Helvetica,sans-Serif" font-size="10.00">ConverterToQWidget::</text>
<text text-anchor="middle" x="550" y="-301.5" font-family="Helvetica,sans-Serif" font-size="10.00">isLayout</text>
</a>
</g>
</g>
<!-- Node1&#45;&gt;Node3 -->
<g id="edge2" class="edge"><title>Node1&#45;&gt;Node3</title>
<path fill="none" stroke="midnightblue" d="M66.7252,-210.641C78.1084,-244.373 105.757,-310.501 155,-340 258.537,-402.025 406.057,-366.892 488.064,-338.917"/>
<polygon fill="midnightblue" stroke="midnightblue" points="489.441,-342.143 497.732,-335.547 487.138,-335.533 489.441,-342.143"/>
</g>
<!-- Node4 -->
<g id="node4" class="node"><title>Node4</title>
<g id="a_node4"><a xlink:href="classqtreports_1_1detail_1_1_converter_to_q_widget.html#ae126b16c5a846e84f12d86ca8ef253dd" target="_top" xlink:title="Добавляет секцию. ">
<polygon fill="none" stroke="black" points="155,-289.5 155,-330.5 274,-330.5 274,-289.5 155,-289.5"/>
<text text-anchor="start" x="163" y="-318.5" font-family="Helvetica,sans-Serif" font-size="10.00">qtreports::detail::</text>
<text text-anchor="start" x="163" y="-307.5" font-family="Helvetica,sans-Serif" font-size="10.00">ConverterToQWidget::</text>
<text text-anchor="middle" x="214.5" y="-296.5" font-family="Helvetica,sans-Serif" font-size="10.00">addSectionLayout</text>
</a>
</g>
</g>
<!-- Node1&#45;&gt;Node4 -->
<g id="edge3" class="edge"><title>Node1&#45;&gt;Node4</title>
<path fill="none" stroke="midnightblue" d="M86.8016,-210.629C112.386,-230.695 151.381,-261.279 179.349,-283.215"/>
<polygon fill="midnightblue" stroke="midnightblue" points="177.257,-286.023 187.286,-289.44 181.577,-280.515 177.257,-286.023"/>
</g>
<!-- Node6 -->
<g id="node6" class="node"><title>Node6</title>
<g id="a_node6"><a xlink:href="classqtreports_1_1detail_1_1_converter_to_q_widget.html#a3c95daf9bd10efc4feb71e0d976bbd6e" target="_top" xlink:title="Создает секцию. ">
<polygon fill="none" stroke="black" points="155,-169.5 155,-210.5 274,-210.5 274,-169.5 155,-169.5"/>
<text text-anchor="start" x="163" y="-198.5" font-family="Helvetica,sans-Serif" font-size="10.00">qtreports::detail::</text>
<text text-anchor="start" x="163" y="-187.5" font-family="Helvetica,sans-Serif" font-size="10.00">ConverterToQWidget::</text>
<text text-anchor="middle" x="214.5" y="-176.5" font-family="Helvetica,sans-Serif" font-size="10.00">createSection</text>
</a>
</g>
</g>
<!-- Node1&#45;&gt;Node6 -->
<g id="edge6" class="edge"><title>Node1&#45;&gt;Node6</title>
<path fill="none" stroke="midnightblue" d="M119.216,-190C127.544,-190 136.169,-190 144.667,-190"/>
<polygon fill="midnightblue" stroke="midnightblue" points="144.941,-193.5 154.941,-190 144.941,-186.5 144.941,-193.5"/>
</g>
<!-- Node16 -->
<g id="node16" class="node"><title>Node16</title>
<g id="a_node16"><a xlink:href="classqtreports_1_1detail_1_1_converter_to_q_widget.html#a5e49976fe8fac12633ccda1ba928b9b1" target="_top" xlink:title="Проверяет, является ли виджет типа WidgetType::Report. ">
<polygon fill="none" stroke="black" points="155,-0.5 155,-41.5 274,-41.5 274,-0.5 155,-0.5"/>
<text text-anchor="start" x="163" y="-29.5" font-family="Helvetica,sans-Serif" font-size="10.00">qtreports::detail::</text>
<text text-anchor="start" x="163" y="-18.5" font-family="Helvetica,sans-Serif" font-size="10.00">ConverterToQWidget::</text>
<text text-anchor="middle" x="214.5" y="-7.5" font-family="Helvetica,sans-Serif" font-size="10.00">isReport</text>
</a>
</g>
</g>
<!-- Node1&#45;&gt;Node16 -->
<g id="edge19" class="edge"><title>Node1&#45;&gt;Node16</title>
<path fill="none" stroke="midnightblue" d="M71.39,-169.383C87.0257,-141.207 118.059,-90.2668 155,-56 158.261,-52.9754 161.824,-50.0846 165.532,-47.3535"/>
<polygon fill="midnightblue" stroke="midnightblue" points="167.572,-50.1983 173.818,-41.6398 163.598,-44.4357 167.572,-50.1983"/>
</g>
<!-- Node4&#45;&gt;Node3 -->
<g id="edge4" class="edge"><title>Node4&#45;&gt;Node3</title>
<path fill="none" stroke="midnightblue" d="M274.011,-327.989C285.816,-330.905 298.22,-333.468 310,-335 363.77,-341.992 377.972,-339.585 432,-335 447.665,-333.671 464.383,-331.358 480.137,-328.765"/>
<polygon fill="midnightblue" stroke="midnightblue" points="481.059,-332.159 490.329,-327.029 479.883,-325.258 481.059,-332.159"/>
</g>
<!-- Node5 -->
<g id="node5" class="node"><title>Node5</title>
<g id="a_node5"><a xlink:href="namespaceqtreports_1_1detail.html#a57ac54d6807a30b13e419a3106735b19" target="_top" xlink:title="qtreports::detail::\lcreateLayout">
<polygon fill="none" stroke="black" points="321.5,-295 321.5,-325 420.5,-325 420.5,-295 321.5,-295"/>
<text text-anchor="start" x="329.5" y="-313" font-family="Helvetica,sans-Serif" font-size="10.00">qtreports::detail::</text>
<text text-anchor="middle" x="371" y="-302" font-family="Helvetica,sans-Serif" font-size="10.00">createLayout</text>
</a>
</g>
</g>
<!-- Node4&#45;&gt;Node5 -->
<g id="edge5" class="edge"><title>Node4&#45;&gt;Node5</title>
<path fill="none" stroke="midnightblue" d="M274.351,-310C286.355,-310 298.988,-310 310.997,-310"/>
<polygon fill="midnightblue" stroke="midnightblue" points="311.359,-313.5 321.359,-310 311.359,-306.5 311.359,-313.5"/>
</g>
<!-- Node6&#45;&gt;Node3 -->
<g id="edge7" class="edge"><title>Node6&#45;&gt;Node3</title>
<path fill="none" stroke="midnightblue" d="M245.041,-210.617C263.144,-222.529 287.156,-237.072 310,-247 340.529,-260.268 421.102,-282.25 480.29,-297.619"/>
<polygon fill="midnightblue" stroke="midnightblue" points="479.776,-301.101 490.333,-300.217 481.529,-294.324 479.776,-301.101"/>
</g>
<!-- Node7 -->
<g id="node7" class="node"><title>Node7</title>
<g id="a_node7"><a xlink:href="classqtreports_1_1detail_1_1_replacer.html#af7ccb83be264f7c72b7485cf38455450" target="_top" xlink:title="Заменяет текст всех виджетов секции текстом с подставленными значениями. ">
<polygon fill="none" stroke="black" points="321.5,-148 321.5,-178 420.5,-178 420.5,-148 321.5,-148"/>
<text text-anchor="start" x="329.5" y="-166" font-family="Helvetica,sans-Serif" font-size="10.00">qtreports::detail::</text>
<text text-anchor="middle" x="371" y="-155" font-family="Helvetica,sans-Serif" font-size="10.00">Replacer::replace</text>
</a>
</g>
</g>
<!-- Node6&#45;&gt;Node7 -->
<g id="edge8" class="edge"><title>Node6&#45;&gt;Node7</title>
<path fill="none" stroke="midnightblue" d="M274.351,-179.715C286.476,-177.596 299.243,-175.365 311.361,-173.248"/>
<polygon fill="midnightblue" stroke="midnightblue" points="312.111,-176.67 321.359,-171.5 310.905,-169.774 312.111,-176.67"/>
</g>
<!-- Node13 -->
<g id="node13" class="node"><title>Node13</title>
<g id="a_node13"><a xlink:href="classqtreports_1_1detail_1_1_replacer.html#a677f7802e444f2de3af4cb43b6cedf30" target="_top" xlink:title="Возвращает описание последней произошедшей ошибки. ">
<polygon fill="none" stroke="black" points="310,-99 310,-129 432,-129 432,-99 310,-99"/>
<text text-anchor="start" x="318" y="-117" font-family="Helvetica,sans-Serif" font-size="10.00">qtreports::detail::</text>
<text text-anchor="middle" x="371" y="-106" font-family="Helvetica,sans-Serif" font-size="10.00">Replacer::getLastError</text>
</a>
</g>
</g>
<!-- Node6&#45;&gt;Node13 -->
<g id="edge15" class="edge"><title>Node6&#45;&gt;Node13</title>
<path fill="none" stroke="midnightblue" d="M250.417,-169.448C268.019,-159.433 289.855,-147.527 310,-138 313.55,-136.321 317.25,-134.653 320.994,-133.023"/>
<polygon fill="midnightblue" stroke="midnightblue" points="322.485,-136.193 330.328,-129.07 319.755,-129.747 322.485,-136.193"/>
</g>
<!-- Node14 -->
<g id="node14" class="node"><title>Node14</title>
<g id="a_node14"><a xlink:href="classqtreports_1_1detail_1_1_converter_to_q_widget.html#aa3be16e037533a4a5b58596087207187" target="_top" xlink:title="Создает band. ">
<polygon fill="none" stroke="black" points="311.5,-196.5 311.5,-237.5 430.5,-237.5 430.5,-196.5 311.5,-196.5"/>
<text text-anchor="start" x="319.5" y="-225.5" font-family="Helvetica,sans-Serif" font-size="10.00">qtreports::detail::</text>
<text text-anchor="start" x="319.5" y="-214.5" font-family="Helvetica,sans-Serif" font-size="10.00">ConverterToQWidget::</text>
<text text-anchor="middle" x="371" y="-203.5" font-family="Helvetica,sans-Serif" font-size="10.00">createBands</text>
</a>
</g>
</g>
<!-- Node6&#45;&gt;Node14 -->
<g id="edge16" class="edge"><title>Node6&#45;&gt;Node14</title>
<path fill="none" stroke="midnightblue" d="M274.351,-200.285C283.149,-201.822 292.285,-203.419 301.266,-204.988"/>
<polygon fill="midnightblue" stroke="midnightblue" points="300.86,-208.47 311.313,-206.744 302.065,-201.575 300.86,-208.47"/>
</g>
<!-- Node8 -->
<g id="node8" class="node"><title>Node8</title>
<g id="a_node8"><a xlink:href="classqtreports_1_1detail_1_1_replacer.html#a58cf857aa78eb3e273f6543769af425b" target="_top" xlink:title="Заменяет текст всех виджетов секции текстом с подставленными значениями полей из источника данных...">
<polygon fill="none" stroke="black" points="468,-148 468,-178 632,-178 632,-148 468,-148"/>
<text text-anchor="start" x="476" y="-166" font-family="Helvetica,sans-Serif" font-size="10.00">qtreports::detail::</text>
<text text-anchor="middle" x="550" y="-155" font-family="Helvetica,sans-Serif" font-size="10.00">Replacer::replaceFieldInSection</text>
</a>
</g>
</g>
<!-- Node7&#45;&gt;Node8 -->
<g id="edge9" class="edge"><title>Node7&#45;&gt;Node8</title>
<path fill="none" stroke="midnightblue" d="M420.835,-163C432.3,-163 444.885,-163 457.551,-163"/>
<polygon fill="midnightblue" stroke="midnightblue" points="457.706,-166.5 467.706,-163 457.706,-159.5 457.706,-166.5"/>
</g>
<!-- Node12 -->
<g id="node12" class="node"><title>Node12</title>
<g id="a_node12"><a xlink:href="classqtreports_1_1detail_1_1_replacer.html#abb903f1c1172efa7e26b040a5695cc86" target="_top" xlink:title="Возвращает текст с подставленными значениями параметров. ">
<polygon fill="none" stroke="black" points="473,-99 473,-129 627,-129 627,-99 473,-99"/>
<text text-anchor="start" x="481" y="-117" font-family="Helvetica,sans-Serif" font-size="10.00">qtreports::detail::</text>
<text text-anchor="middle" x="550" y="-106" font-family="Helvetica,sans-Serif" font-size="10.00">Replacer::replaceParameters</text>
</a>
</g>
</g>
<!-- Node7&#45;&gt;Node12 -->
<g id="edge14" class="edge"><title>Node7&#45;&gt;Node12</title>
<path fill="none" stroke="midnightblue" d="M420.835,-149.481C440.622,-144.003 463.745,-137.602 484.861,-131.756"/>
<polygon fill="midnightblue" stroke="midnightblue" points="486.018,-135.067 494.721,-129.026 484.15,-128.321 486.018,-135.067"/>
</g>
<!-- Node9 -->
<g id="node9" class="node"><title>Node9</title>
<g id="a_node9"><a xlink:href="classqtreports_1_1detail_1_1_replacer.html#a2be57bd514335f9b9f2a520247562ce1" target="_top" xlink:title="Заменяет текст виджета текстом с подставленными значениями полей из источника данных. ">
<polygon fill="none" stroke="black" points="674,-98.5 674,-139.5 820,-139.5 820,-98.5 674,-98.5"/>
<text text-anchor="start" x="682" y="-127.5" font-family="Helvetica,sans-Serif" font-size="10.00">qtreports::detail::</text>
<text text-anchor="start" x="682" y="-116.5" font-family="Helvetica,sans-Serif" font-size="10.00">Replacer::replaceFieldInText</text>
<text text-anchor="middle" x="747" y="-105.5" font-family="Helvetica,sans-Serif" font-size="10.00">Widget</text>
</a>
</g>
</g>
<!-- Node8&#45;&gt;Node9 -->
<g id="edge10" class="edge"><title>Node8&#45;&gt;Node9</title>
<path fill="none" stroke="midnightblue" d="M617.563,-147.981C632.406,-144.632 648.316,-141.042 663.708,-137.568"/>
<polygon fill="midnightblue" stroke="midnightblue" points="664.747,-140.922 673.731,-135.307 663.206,-134.094 664.747,-140.922"/>
</g>
<!-- Node10 -->
<g id="node10" class="node"><title>Node10</title>
<g id="a_node10"><a xlink:href="classqtreports_1_1detail_1_1_replacer.html#a4aeb7794f90c0be34a30ab60a6df1920" target="_top" xlink:title="На основе текста виджета вставляет в него изображение из источника данных. ">
<polygon fill="none" stroke="black" points="668,-158.5 668,-199.5 826,-199.5 826,-158.5 668,-158.5"/>
<text text-anchor="start" x="676" y="-187.5" font-family="Helvetica,sans-Serif" font-size="10.00">qtreports::detail::</text>
<text text-anchor="start" x="676" y="-176.5" font-family="Helvetica,sans-Serif" font-size="10.00">Replacer::replaceFieldInImage</text>
<text text-anchor="middle" x="747" y="-165.5" font-family="Helvetica,sans-Serif" font-size="10.00">Widget</text>
</a>
</g>
</g>
<!-- Node8&#45;&gt;Node10 -->
<g id="edge12" class="edge"><title>Node8&#45;&gt;Node10</title>
<path fill="none" stroke="midnightblue" d="M632.003,-169.646C640.502,-170.344 649.173,-171.055 657.748,-171.759"/>
<polygon fill="midnightblue" stroke="midnightblue" points="657.501,-175.25 667.754,-172.58 658.073,-168.274 657.501,-175.25"/>
</g>
<!-- Node9&#45;&gt;Node2 -->
<g id="edge11" class="edge"><title>Node9&#45;&gt;Node2</title>
<path fill="none" stroke="midnightblue" d="M820.224,-109.755C835.479,-107.803 851.539,-105.747 866.665,-103.811"/>
<polygon fill="midnightblue" stroke="midnightblue" points="867.491,-107.234 876.966,-102.492 866.603,-100.29 867.491,-107.234"/>
</g>
<!-- Node11 -->
<g id="node11" class="node"><title>Node11</title>
<g id="a_node11"><a xlink:href="classqtreports_1_1detail_1_1_replacer.html#ae1ac521aeaf5fdd694e79e2ae52d4704" target="_top" xlink:title="Возвращает изображение на основе первого найденного выражения. ">
<polygon fill="none" stroke="black" points="862,-164 862,-194 1011,-194 1011,-164 862,-164"/>
<text text-anchor="start" x="870" y="-182" font-family="Helvetica,sans-Serif" font-size="10.00">qtreports::detail::</text>
<text text-anchor="middle" x="936.5" y="-171" font-family="Helvetica,sans-Serif" font-size="10.00">Replacer::replaceFieldImage</text>
</a>
</g>
</g>
<!-- Node10&#45;&gt;Node11 -->
<g id="edge13" class="edge"><title>Node10&#45;&gt;Node11</title>
<path fill="none" stroke="midnightblue" d="M826.159,-179C834.681,-179 843.381,-179 851.964,-179"/>
<polygon fill="midnightblue" stroke="midnightblue" points="851.97,-182.5 861.97,-179 851.97,-175.5 851.97,-182.5"/>
</g>
<!-- Node14&#45;&gt;Node3 -->
<g id="edge18" class="edge"><title>Node14&#45;&gt;Node3</title>
<path fill="none" stroke="midnightblue" d="M409.105,-237.544C436.482,-252.702 473.899,-273.419 503.149,-289.613"/>
<polygon fill="midnightblue" stroke="midnightblue" points="501.5,-292.701 511.944,-294.483 504.891,-286.577 501.5,-292.701"/>
</g>
<!-- Node15 -->
<g id="node15" class="node"><title>Node15</title>
<g id="a_node15"><a xlink:href="classqtreports_1_1detail_1_1_converter_to_q_widget.html#a23d6229235fca8bd8bbddcc5e2e28f92" target="_top" xlink:title="Добавляет новую страницу на виджет. ">
<polygon fill="none" stroke="black" points="490.5,-196.5 490.5,-237.5 609.5,-237.5 609.5,-196.5 490.5,-196.5"/>
<text text-anchor="start" x="498.5" y="-225.5" font-family="Helvetica,sans-Serif" font-size="10.00">qtreports::detail::</text>
<text text-anchor="start" x="498.5" y="-214.5" font-family="Helvetica,sans-Serif" font-size="10.00">ConverterToQWidget::</text>
<text text-anchor="middle" x="550" y="-203.5" font-family="Helvetica,sans-Serif" font-size="10.00">addPage</text>
</a>
</g>
</g>
<!-- Node14&#45;&gt;Node15 -->
<g id="edge17" class="edge"><title>Node14&#45;&gt;Node15</title>
<path fill="none" stroke="midnightblue" d="M430.938,-217C446.762,-217 464.009,-217 480.312,-217"/>
<polygon fill="midnightblue" stroke="midnightblue" points="480.319,-220.5 490.319,-217 480.319,-213.5 480.319,-220.5"/>
</g>
</g>
</svg>
