<?xml version="1.0" encoding="UTF-8" standalone="no"?>
<!DOCTYPE svg PUBLIC "-//W3C//DTD SVG 1.1//EN"
 "http://www.w3.org/Graphics/SVG/1.1/DTD/svg11.dtd">
<!-- Generated by graphviz version 2.38.0 (20140413.2041)
 -->
<!-- Title: qtreports::Engine::getReport Pages: 1 -->
<svg width="824pt" height="112pt"
 viewBox="0.00 0.00 824.00 112.00" xmlns="http://www.w3.org/2000/svg" xmlns:xlink="http://www.w3.org/1999/xlink">
<g id="graph0" class="graph" transform="scale(1 1) rotate(0) translate(4 108)">
<title>qtreports::Engine::getReport</title>
<!-- Node1 -->
<g id="node1" class="node"><title>Node1</title>
<polygon fill="#bfbfbf" stroke="black" points="0,-48.5 0,-78.5 105,-78.5 105,-48.5 0,-48.5"/>
<text text-anchor="start" x="8" y="-66.5" font-family="Helvetica,sans-Serif" font-size="10.00">qtreports::Engine::</text>
<text text-anchor="middle" x="52.5" y="-55.5" font-family="Helvetica,sans-Serif" font-size="10.00">getReport</text>
</g>
<!-- Node2 -->
<g id="node2" class="node"><title>Node2</title>
<g id="a_node2"><a xlink:href="classqtreports_1_1_engine.html#a1d96729622d140d02108a29034aecea0" target="_top" xlink:title="qtreports::Engine::\lprepareDataSource">
<polygon fill="none" stroke="black" points="141,-48.5 141,-78.5 252,-78.5 252,-48.5 141,-48.5"/>
<text text-anchor="start" x="149" y="-66.5" font-family="Helvetica,sans-Serif" font-size="10.00">qtreports::Engine::</text>
<text text-anchor="middle" x="196.5" y="-55.5" font-family="Helvetica,sans-Serif" font-size="10.00">prepareDataSource</text>
</a>
</g>
</g>
<!-- Node1&#45;&gt;Node2 -->
<g id="edge1" class="edge"><title>Node1&#45;&gt;Node2</title>
<path fill="none" stroke="midnightblue" d="M115.36,-63.5C123.815,-63.5 132.446,-63.5 140.763,-63.5"/>
<polygon fill="midnightblue" stroke="midnightblue" points="115.167,-60.0001 105.167,-63.5 115.167,-67.0001 115.167,-60.0001"/>
</g>
<!-- Node3 -->
<g id="node3" class="node"><title>Node3</title>
<g id="a_node3"><a xlink:href="classqtreports_1_1_engine.html#a03be86e3a0c711b1e64ab8337f67aa7e" target="_top" xlink:title="Устанавливает источник данных для отчета из таблицы полей ">
<polygon fill="none" stroke="black" points="288,-73.5 288,-103.5 393,-103.5 393,-73.5 288,-73.5"/>
<text text-anchor="start" x="296" y="-91.5" font-family="Helvetica,sans-Serif" font-size="10.00">qtreports::Engine::</text>
<text text-anchor="middle" x="340.5" y="-80.5" font-family="Helvetica,sans-Serif" font-size="10.00">setDataSource</text>
</a>
</g>
</g>
<!-- Node2&#45;&gt;Node3 -->
<g id="edge2" class="edge"><title>Node2&#45;&gt;Node3</title>
<path fill="none" stroke="midnightblue" d="M262.26,-74.9014C270.73,-76.3926 279.319,-77.9048 287.541,-79.3523"/>
<polygon fill="midnightblue" stroke="midnightblue" points="262.856,-71.4526 252.401,-73.1657 261.643,-78.3466 262.856,-71.4526"/>
</g>
<!-- Node4 -->
<g id="node4" class="node"><title>Node4</title>
<g id="a_node4"><a xlink:href="classqtreports_1_1_engine.html#ac214aea9f2f2b795307550290fa1d1ae" target="_top" xlink:title="qtreports::Engine::\lexecuteQueries">
<polygon fill="none" stroke="black" points="288,-24.5 288,-54.5 393,-54.5 393,-24.5 288,-24.5"/>
<text text-anchor="start" x="296" y="-42.5" font-family="Helvetica,sans-Serif" font-size="10.00">qtreports::Engine::</text>
<text text-anchor="middle" x="340.5" y="-31.5" font-family="Helvetica,sans-Serif" font-size="10.00">executeQueries</text>
</a>
</g>
</g>
<!-- Node2&#45;&gt;Node4 -->
<g id="edge3" class="edge"><title>Node2&#45;&gt;Node4</title>
<path fill="none" stroke="midnightblue" d="M262.536,-52.508C270.917,-51.0916 279.409,-49.6563 287.541,-48.2818"/>
<polygon fill="midnightblue" stroke="midnightblue" points="261.678,-49.1033 252.401,-54.221 262.844,-56.0054 261.678,-49.1033"/>
</g>
<!-- Node5 -->
<g id="node5" class="node"><title>Node5</title>
<g id="a_node5"><a xlink:href="classqtreports_1_1_engine.html#a0c7bf107b4774cccb70577946d67666c" target="_top" xlink:title="Устанавливает запрос, по которому будут заполнятся поля отчета ">
<polygon fill="none" stroke="black" points="429,-24.5 429,-54.5 534,-54.5 534,-24.5 429,-24.5"/>
<text text-anchor="start" x="437" y="-42.5" font-family="Helvetica,sans-Serif" font-size="10.00">qtreports::Engine::</text>
<text text-anchor="middle" x="481.5" y="-31.5" font-family="Helvetica,sans-Serif" font-size="10.00">setQuery</text>
</a>
</g>
</g>
<!-- Node4&#45;&gt;Node5 -->
<g id="edge4" class="edge"><title>Node4&#45;&gt;Node5</title>
<path fill="none" stroke="midnightblue" d="M403.441,-39.5C411.878,-39.5 420.466,-39.5 428.698,-39.5"/>
<polygon fill="midnightblue" stroke="midnightblue" points="403.259,-36.0001 393.258,-39.5 403.258,-43.0001 403.259,-36.0001"/>
</g>
<!-- Node6 -->
<g id="node6" class="node"><title>Node6</title>
<g id="a_node6"><a xlink:href="classqtreports_1_1_engine.html#a3dda769530e3713bba33c49124ad1ab6" target="_top" xlink:title="qtreports::Engine::\lprepareDB">
<polygon fill="none" stroke="black" points="570,-24.5 570,-54.5 675,-54.5 675,-24.5 570,-24.5"/>
<text text-anchor="start" x="578" y="-42.5" font-family="Helvetica,sans-Serif" font-size="10.00">qtreports::Engine::</text>
<text text-anchor="middle" x="622.5" y="-31.5" font-family="Helvetica,sans-Serif" font-size="10.00">prepareDB</text>
</a>
</g>
</g>
<!-- Node5&#45;&gt;Node6 -->
<g id="edge5" class="edge"><title>Node5&#45;&gt;Node6</title>
<path fill="none" stroke="midnightblue" d="M544.441,-39.5C552.878,-39.5 561.466,-39.5 569.698,-39.5"/>
<polygon fill="midnightblue" stroke="midnightblue" points="544.259,-36.0001 534.258,-39.5 544.258,-43.0001 544.259,-36.0001"/>
</g>
<!-- Node7 -->
<g id="node7" class="node"><title>Node7</title>
<g id="a_node7"><a xlink:href="classqtreports_1_1_engine.html#a0615663aaca4ce8e80f654f2380fef64" target="_top" xlink:title="Устанавливает источник данных для отчета из БД ">
<polygon fill="none" stroke="black" points="711,-49.5 711,-79.5 816,-79.5 816,-49.5 711,-49.5"/>
<text text-anchor="start" x="719" y="-67.5" font-family="Helvetica,sans-Serif" font-size="10.00">qtreports::Engine::</text>
<text text-anchor="middle" x="763.5" y="-56.5" font-family="Helvetica,sans-Serif" font-size="10.00">setConnection</text>
</a>
</g>
</g>
<!-- Node6&#45;&gt;Node7 -->
<g id="edge6" class="edge"><title>Node6&#45;&gt;Node7</title>
<path fill="none" stroke="midnightblue" d="M685.163,-50.5905C693.69,-52.124 702.375,-53.6862 710.698,-55.1831"/>
<polygon fill="midnightblue" stroke="midnightblue" points="685.72,-47.1346 675.258,-48.8091 684.481,-54.024 685.72,-47.1346"/>
</g>
<!-- Node8 -->
<g id="node8" class="node"><title>Node8</title>
<g id="a_node8"><a xlink:href="classqtreports_1_1_engine.html#ae80c66a0bc958bf82e023b646e18d55b" target="_top" xlink:title="qtreports::Engine::\lprint">
<polygon fill="none" stroke="black" points="711,-0.5 711,-30.5 816,-30.5 816,-0.5 711,-0.5"/>
<text text-anchor="start" x="719" y="-18.5" font-family="Helvetica,sans-Serif" font-size="10.00">qtreports::Engine::</text>
<text text-anchor="middle" x="763.5" y="-7.5" font-family="Helvetica,sans-Serif" font-size="10.00">print</text>
</a>
</g>
</g>
<!-- Node6&#45;&gt;Node8 -->
<g id="edge7" class="edge"><title>Node6&#45;&gt;Node8</title>
<path fill="none" stroke="midnightblue" d="M685.163,-28.8531C693.69,-27.3809 702.375,-25.8812 710.698,-24.4442"/>
<polygon fill="midnightblue" stroke="midnightblue" points="684.517,-25.4128 675.258,-30.5633 685.708,-32.3107 684.517,-25.4128"/>
</g>
</g>
</svg>
