<?xml version="1.0" encoding="UTF-8" standalone="no"?>
<!DOCTYPE svg PUBLIC "-//W3C//DTD SVG 1.1//EN"
 "http://www.w3.org/Graphics/SVG/1.1/DTD/svg11.dtd">
<!-- Generated by graphviz version 2.38.0 (20140413.2041)
 -->
<!-- Title: qtreports::detail::Report::reorderByGroups Pages: 1 -->
<!--zoomable 235 -->
<svg id="main" version="1.1" xmlns="http://www.w3.org/2000/svg" xmlns:xlink="http://www.w3.org/1999/xlink" xml:space="preserve" onload="init(evt)">
<style type="text/css"><![CDATA[
.edge:hover path { stroke: red; }
.edge:hover polygon { stroke: red; fill: red; }
]]></style>
<script type="text/javascript"><![CDATA[
var edges = document.getElementsByTagName('g');
if (edges && edges.length) {
  for (var i=0;i<edges.length;i++) {
    if (edges[i].id.substr(0,4)=='edge') {
      edges[i].setAttribute('class','edge');
    }
  }
}
]]></script>
        <defs>
                <circle id="rim" cx="0" cy="0" r="7"/>
                <circle id="rim2" cx="0" cy="0" r="3.5"/>
                <g id="zoomPlus">
                        <use xlink:href="#rim" fill="#404040">
                                <set attributeName="fill" to="#808080" begin="zoomplus.mouseover" end="zoomplus.mouseout"/>
                        </use>
                        <path d="M-4,0h8M0,-4v8" fill="none" stroke="white" stroke-width="1.5" pointer-events="none"/>
                </g>
                <g id="zoomMin">
                        <use xlink:href="#rim" fill="#404040">
                                <set attributeName="fill" to="#808080" begin="zoomminus.mouseover" end="zoomminus.mouseout"/>
                        </use>
                        <path d="M-4,0h8" fill="none" stroke="white" stroke-width="1.5" pointer-events="none"/>
                </g>
                <g id="dirArrow">
                        <path fill="none" stroke="white" stroke-width="1.5" d="M0,-3.0v7 M-2.5,-0.5L0,-3.0L2.5,-0.5"/>
                </g>
               <g id="resetDef">
                       <use xlink:href="#rim2" fill="#404040">
                               <set attributeName="fill" to="#808080" begin="reset.mouseover" end="reset.mouseout"/>
                       </use>
               </g>
        </defs>

<script type="text/javascript">
var viewWidth = 509;
var viewHeight = 235;
var sectionId = 'dynsection-17';
</script>
<script xlink:href="svgpan.js"/>
<svg id="graph" class="graph">
<g id="viewport">
<title>qtreports::detail::Report::reorderByGroups</title>
<!-- Node1 -->
<g id="node1" class="node"><title>Node1</title>
<polygon fill="#bfbfbf" stroke="black" points="0,-98.5 0,-128.5 135,-128.5 135,-98.5 0,-98.5"/>
<text text-anchor="start" x="8" y="-116.5" font-family="Helvetica,sans-Serif" font-size="10.00">qtreports::detail::</text>
<text text-anchor="middle" x="67.5" y="-105.5" font-family="Helvetica,sans-Serif" font-size="10.00">Report::reorderByGroups</text>
</g>
<!-- Node2 -->
<g id="node2" class="node"><title>Node2</title>
<g id="a_node2"><a xlink:href="classqtreports_1_1detail_1_1_report.html#aedb49125bf91cbd57285b8c23ff2e4d8" target="_top" xlink:title="Возвращает количество строк ">
<polygon fill="none" stroke="black" points="210.5,-196.5 210.5,-226.5 326.5,-226.5 326.5,-196.5 210.5,-196.5"/>
<text text-anchor="start" x="218.5" y="-214.5" font-family="Helvetica,sans-Serif" font-size="10.00">qtreports::detail::</text>
<text text-anchor="middle" x="268.5" y="-203.5" font-family="Helvetica,sans-Serif" font-size="10.00">Report::getRowCount</text>
</a>
</g>
</g>
<!-- Node1&#45;&gt;Node2 -->
<g id="edge1" class="edge"><title>Node1&#45;&gt;Node2</title>
<path fill="none" stroke="midnightblue" d="M84.9968,-128.518C104.264,-145.28 137.753,-172.069 171,-187.5 180.316,-191.824 190.513,-195.434 200.678,-198.428"/>
<polygon fill="midnightblue" stroke="midnightblue" points="199.814,-201.821 210.385,-201.114 201.681,-195.074 199.814,-201.821"/>
</g>
<!-- Node4 -->
<g id="node4" class="node"><title>Node4</title>
<g id="a_node4"><a xlink:href="classqtreports_1_1detail_1_1_report.html#a06b451008a1b02da0e60203f3935e859" target="_top" xlink:title="Возвращает карту указателей на &lt;group&gt; ">
<polygon fill="none" stroke="black" points="216.5,-147.5 216.5,-177.5 320.5,-177.5 320.5,-147.5 216.5,-147.5"/>
<text text-anchor="start" x="224.5" y="-165.5" font-family="Helvetica,sans-Serif" font-size="10.00">qtreports::detail::</text>
<text text-anchor="middle" x="268.5" y="-154.5" font-family="Helvetica,sans-Serif" font-size="10.00">Report::getGroups</text>
</a>
</g>
</g>
<!-- Node1&#45;&gt;Node4 -->
<g id="edge3" class="edge"><title>Node1&#45;&gt;Node4</title>
<path fill="none" stroke="midnightblue" d="M129.559,-128.535C153.96,-134.543 182.006,-141.449 206.411,-147.458"/>
<polygon fill="midnightblue" stroke="midnightblue" points="205.724,-150.893 216.271,-149.886 207.398,-144.096 205.724,-150.893"/>
</g>
<!-- Node5 -->
<g id="node5" class="node"><title>Node5</title>
<g id="a_node5"><a xlink:href="classqtreports_1_1detail_1_1_report.html#a7ed52dab72fd40799444c74426d4163e" target="_top" xlink:title="qtreports::detail::\lReport::getFieldFromGroupExpression">
<polygon fill="none" stroke="black" points="171,-98.5 171,-128.5 366,-128.5 366,-98.5 171,-98.5"/>
<text text-anchor="start" x="179" y="-116.5" font-family="Helvetica,sans-Serif" font-size="10.00">qtreports::detail::</text>
<text text-anchor="middle" x="268.5" y="-105.5" font-family="Helvetica,sans-Serif" font-size="10.00">Report::getFieldFromGroupExpression</text>
</a>
</g>
</g>
<!-- Node1&#45;&gt;Node5 -->
<g id="edge4" class="edge"><title>Node1&#45;&gt;Node5</title>
<path fill="none" stroke="midnightblue" d="M135.041,-113.5C143.324,-113.5 151.951,-113.5 160.654,-113.5"/>
<polygon fill="midnightblue" stroke="midnightblue" points="160.889,-117 170.888,-113.5 160.888,-110 160.889,-117"/>
</g>
<!-- Node6 -->
<g id="node6" class="node"><title>Node6</title>
<g id="a_node6"><a xlink:href="classqtreports_1_1detail_1_1_report.html#a9dd28e96177db0e293dd24c61c1a4400" target="_top" xlink:title="Возвращает &lt;field&gt; ">
<polygon fill="none" stroke="black" points="219,-49.5 219,-79.5 318,-79.5 318,-49.5 219,-49.5"/>
<text text-anchor="start" x="227" y="-67.5" font-family="Helvetica,sans-Serif" font-size="10.00">qtreports::detail::</text>
<text text-anchor="middle" x="268.5" y="-56.5" font-family="Helvetica,sans-Serif" font-size="10.00">Report::getField</text>
</a>
</g>
</g>
<!-- Node1&#45;&gt;Node6 -->
<g id="edge5" class="edge"><title>Node1&#45;&gt;Node6</title>
<path fill="none" stroke="midnightblue" d="M129.559,-98.4654C154.876,-92.2316 184.116,-85.0318 209.141,-78.8697"/>
<polygon fill="midnightblue" stroke="midnightblue" points="209.992,-82.2648 218.865,-76.4754 208.319,-75.4678 209.992,-82.2648"/>
</g>
<!-- Node7 -->
<g id="node7" class="node"><title>Node7</title>
<g id="a_node7"><a xlink:href="classqtreports_1_1detail_1_1_report.html#a3ef94ea79b55c104906a59f092c757ad" target="_top" xlink:title="qtreports::detail::\lReport::swapRows">
<polygon fill="none" stroke="black" points="218,-0.5 218,-30.5 319,-30.5 319,-0.5 218,-0.5"/>
<text text-anchor="start" x="226" y="-18.5" font-family="Helvetica,sans-Serif" font-size="10.00">qtreports::detail::</text>
<text text-anchor="middle" x="268.5" y="-7.5" font-family="Helvetica,sans-Serif" font-size="10.00">Report::swapRows</text>
</a>
</g>
</g>
<!-- Node1&#45;&gt;Node7 -->
<g id="edge6" class="edge"><title>Node1&#45;&gt;Node7</title>
<path fill="none" stroke="midnightblue" d="M85.4102,-98.4575C104.79,-81.9674 138.13,-55.8216 171,-40.5 182.511,-35.1345 195.352,-30.7908 207.815,-27.324"/>
<polygon fill="midnightblue" stroke="midnightblue" points="208.913,-30.6544 217.696,-24.729 207.135,-23.884 208.913,-30.6544"/>
</g>
<!-- Node3 -->
<g id="node3" class="node"><title>Node3</title>
<g id="a_node3"><a xlink:href="classqtreports_1_1detail_1_1_report.html#a0954c5253b36d9a1fe2bd3784f70d7de" target="_top" xlink:title="Возвращает карту &lt;field&gt; ">
<polygon fill="none" stroke="black" points="402,-196.5 402,-226.5 501,-226.5 501,-196.5 402,-196.5"/>
<text text-anchor="start" x="410" y="-214.5" font-family="Helvetica,sans-Serif" font-size="10.00">qtreports::detail::</text>
<text text-anchor="middle" x="451.5" y="-203.5" font-family="Helvetica,sans-Serif" font-size="10.00">Report::getFields</text>
</a>
</g>
</g>
<!-- Node2&#45;&gt;Node3 -->
<g id="edge2" class="edge"><title>Node2&#45;&gt;Node3</title>
<path fill="none" stroke="midnightblue" d="M326.77,-211.5C347.508,-211.5 370.949,-211.5 391.808,-211.5"/>
<polygon fill="midnightblue" stroke="midnightblue" points="391.817,-215 401.817,-211.5 391.817,-208 391.817,-215"/>
</g>
</g>
</svg>
        <g id="navigator" transform="translate(0 0)" fill="#404254">
                <rect fill="#f2f5e9" fill-opacity="0.5" stroke="#606060" stroke-width=".5" x="0" y="0" width="60" height="60"/>
                <use id="zoomplus" xlink:href="#zoomPlus" x="17" y="9" onmousedown="handleZoom(evt,'in')"/>
                <use id="zoomminus" xlink:href="#zoomMin" x="42" y="9" onmousedown="handleZoom(evt,'out')"/>
                <use id="reset" xlink:href="#resetDef" x="30" y="36" onmousedown="handleReset()"/>
                <g id="arrowUp" xlink:href="#dirArrow" transform="translate(30 24)" onmousedown="handlePan(0,-1)">
                  <use xlink:href="#rim" fill="#404040">
                        <set attributeName="fill" to="#808080" begin="arrowUp.mouseover" end="arrowUp.mouseout"/>
                  </use>
                  <path fill="none" stroke="white" stroke-width="1.5" d="M0,-3.0v7 M-2.5,-0.5L0,-3.0L2.5,-0.5"/>
                </g>
                <g id="arrowRight" xlink:href="#dirArrow" transform="rotate(90) translate(36 -43)" onmousedown="handlePan(1,0)">
                  <use xlink:href="#rim" fill="#404040">
                        <set attributeName="fill" to="#808080" begin="arrowRight.mouseover" end="arrowRight.mouseout"/>
                  </use>
                  <path fill="none" stroke="white" stroke-width="1.5" d="M0,-3.0v7 M-2.5,-0.5L0,-3.0L2.5,-0.5"/>
                </g>
                <g id="arrowDown" xlink:href="#dirArrow" transform="rotate(180) translate(-30 -48)" onmousedown="handlePan(0,1)">
                  <use xlink:href="#rim" fill="#404040">
                        <set attributeName="fill" to="#808080" begin="arrowDown.mouseover" end="arrowDown.mouseout"/>
                  </use>
                  <path fill="none" stroke="white" stroke-width="1.5" d="M0,-3.0v7 M-2.5,-0.5L0,-3.0L2.5,-0.5"/>
                </g>
                <g id="arrowLeft" xlink:href="#dirArrow" transform="rotate(270) translate(-36 17)" onmousedown="handlePan(-1,0)">
                  <use xlink:href="#rim" fill="#404040">
                        <set attributeName="fill" to="#808080" begin="arrowLeft.mouseover" end="arrowLeft.mouseout"/>
                  </use>
                  <path fill="none" stroke="white" stroke-width="1.5" d="M0,-3.0v7 M-2.5,-0.5L0,-3.0L2.5,-0.5"/>
                </g>
        </g>
        <svg viewBox="0 0 15 15" width="100%" height="30px" preserveAspectRatio="xMaxYMin meet">
         <g id="arrow_out" transform="scale(0.3 0.3)">
          <a xlink:href="classqtreports_1_1detail_1_1_report_aa2eb56a54e9cb57831ab6fb6a7d745ab_cgraph_org.svg" target="_base">
           <rect id="button" ry="5" rx="5" y="6" x="6" height="38" width="38"
                fill="#f2f5e9" fill-opacity="0.5" stroke="#606060" stroke-width="1.0"/>
           <path id="arrow"
             d="M 11.500037,31.436501 C 11.940474,20.09759 22.043105,11.32322 32.158766,21.979434 L 37.068811,17.246167 C 37.068811,17.246167 37.088388,32 37.088388,32 L 22.160133,31.978069 C 22.160133,31.978069 26.997745,27.140456 26.997745,27.140456 C 18.528582,18.264221 13.291696,25.230495 11.500037,31.436501 z"
             style="fill:#404040;"/>
          </a>
         </g>
        </svg>
</svg>
