<?xml version="1.0" encoding="UTF-8" standalone="no"?>
<!DOCTYPE svg PUBLIC "-//W3C//DTD SVG 1.1//EN"
 "http://www.w3.org/Graphics/SVG/1.1/DTD/svg11.dtd">
<!-- Generated by graphviz version 2.38.0 (20140413.2041)
 -->
<!-- Title: qtreports::detail::ConverterToPDF::addGroupsIntoReport Pages: 1 -->
<svg width="1149pt" height="171pt"
 viewBox="0.00 0.00 1149.00 170.50" xmlns="http://www.w3.org/2000/svg" xmlns:xlink="http://www.w3.org/1999/xlink">
<g id="graph0" class="graph" transform="scale(1 1) rotate(0) translate(4 166.5)">
<title>qtreports::detail::ConverterToPDF::addGroupsIntoReport</title>
<!-- Node1 -->
<g id="node1" class="node"><title>Node1</title>
<polygon fill="#bfbfbf" stroke="black" points="0,-117 0,-158 168,-158 168,-117 0,-117"/>
<text text-anchor="start" x="8" y="-146" font-family="Helvetica,sans-Serif" font-size="10.00">qtreports::detail::</text>
<text text-anchor="start" x="8" y="-135" font-family="Helvetica,sans-Serif" font-size="10.00">ConverterToPDF::addGroupsInto</text>
<text text-anchor="middle" x="84" y="-124" font-family="Helvetica,sans-Serif" font-size="10.00">Report</text>
</g>
<!-- Node2 -->
<g id="node2" class="node"><title>Node2</title>
<g id="a_node2"><a xlink:href="classqtreports_1_1detail_1_1_replacer.html#a4642b07160798f2ee4de276e1d0c1ecd" target="_top" xlink:title="Возвращает текст с подставленными значениями полей из источника данных. ">
<polygon fill="none" stroke="black" points="1007,-122.5 1007,-152.5 1126,-152.5 1126,-122.5 1007,-122.5"/>
<text text-anchor="start" x="1015" y="-140.5" font-family="Helvetica,sans-Serif" font-size="10.00">qtreports::detail::</text>
<text text-anchor="middle" x="1066.5" y="-129.5" font-family="Helvetica,sans-Serif" font-size="10.00">Replacer::replaceField</text>
</a>
</g>
</g>
<!-- Node1&#45;&gt;Node2 -->
<g id="edge1" class="edge"><title>Node1&#45;&gt;Node2</title>
<path fill="none" stroke="midnightblue" d="M168.167,-145.79C248.426,-153.067 373.403,-162.5 482,-162.5 482,-162.5 482,-162.5 681,-162.5 791.755,-162.5 920.077,-152.043 996.918,-144.655"/>
<polygon fill="midnightblue" stroke="midnightblue" points="997.336,-148.131 1006.95,-143.68 996.658,-141.164 997.336,-148.131"/>
</g>
<!-- Node3 -->
<g id="node3" class="node"><title>Node3</title>
<g id="a_node3"><a xlink:href="classqtreports_1_1detail_1_1_converter_to_p_d_f.html#a5d9212cf5250d8d938359c417537337c" target="_top" xlink:title="Создает секцию. ">
<polygon fill="none" stroke="black" points="204,-73.5 204,-103.5 368,-103.5 368,-73.5 204,-73.5"/>
<text text-anchor="start" x="212" y="-91.5" font-family="Helvetica,sans-Serif" font-size="10.00">qtreports::detail::</text>
<text text-anchor="middle" x="286" y="-80.5" font-family="Helvetica,sans-Serif" font-size="10.00">ConverterToPDF::createSection</text>
</a>
</g>
</g>
<!-- Node1&#45;&gt;Node3 -->
<g id="edge2" class="edge"><title>Node1&#45;&gt;Node3</title>
<path fill="none" stroke="midnightblue" d="M168.08,-117.145C183.166,-113.449 198.781,-109.624 213.497,-106.018"/>
<polygon fill="midnightblue" stroke="midnightblue" points="214.645,-109.341 223.525,-103.561 212.979,-102.542 214.645,-109.341"/>
</g>
<!-- Node4 -->
<g id="node4" class="node"><title>Node4</title>
<g id="a_node4"><a xlink:href="classqtreports_1_1detail_1_1_replacer.html#af7ccb83be264f7c72b7485cf38455450" target="_top" xlink:title="Заменяет текст всех виджетов секции текстом с подставленными значениями. ">
<polygon fill="none" stroke="black" points="433.5,-98.5 433.5,-128.5 532.5,-128.5 532.5,-98.5 433.5,-98.5"/>
<text text-anchor="start" x="441.5" y="-116.5" font-family="Helvetica,sans-Serif" font-size="10.00">qtreports::detail::</text>
<text text-anchor="middle" x="483" y="-105.5" font-family="Helvetica,sans-Serif" font-size="10.00">Replacer::replace</text>
</a>
</g>
</g>
<!-- Node3&#45;&gt;Node4 -->
<g id="edge3" class="edge"><title>Node3&#45;&gt;Node4</title>
<path fill="none" stroke="midnightblue" d="M368.003,-98.8851C386.548,-101.263 405.912,-103.745 423.307,-105.975"/>
<polygon fill="midnightblue" stroke="midnightblue" points="422.936,-109.456 433.3,-107.256 423.826,-102.513 422.936,-109.456"/>
</g>
<!-- Node10 -->
<g id="node10" class="node"><title>Node10</title>
<g id="a_node10"><a xlink:href="classqtreports_1_1detail_1_1_replacer.html#a677f7802e444f2de3af4cb43b6cedf30" target="_top" xlink:title="Возвращает описание последней произошедшей ошибки. ">
<polygon fill="none" stroke="black" points="422,-49.5 422,-79.5 544,-79.5 544,-49.5 422,-49.5"/>
<text text-anchor="start" x="430" y="-67.5" font-family="Helvetica,sans-Serif" font-size="10.00">qtreports::detail::</text>
<text text-anchor="middle" x="483" y="-56.5" font-family="Helvetica,sans-Serif" font-size="10.00">Replacer::getLastError</text>
</a>
</g>
</g>
<!-- Node3&#45;&gt;Node10 -->
<g id="edge10" class="edge"><title>Node3&#45;&gt;Node10</title>
<path fill="none" stroke="midnightblue" d="M368.003,-78.5303C382.486,-76.7478 397.469,-74.9038 411.624,-73.1617"/>
<polygon fill="midnightblue" stroke="midnightblue" points="412.268,-76.6089 421.765,-71.9135 411.413,-69.6614 412.268,-76.6089"/>
</g>
<!-- Node11 -->
<g id="node11" class="node"><title>Node11</title>
<g id="a_node11"><a xlink:href="classqtreports_1_1detail_1_1_converter_to_p_d_f.html#aba1de1bf9abc3ea9b7b5c2b8317f5a0f" target="_top" xlink:title="Создает band. ">
<polygon fill="none" stroke="black" points="404,-0.5 404,-30.5 562,-30.5 562,-0.5 404,-0.5"/>
<text text-anchor="start" x="412" y="-18.5" font-family="Helvetica,sans-Serif" font-size="10.00">qtreports::detail::</text>
<text text-anchor="middle" x="483" y="-7.5" font-family="Helvetica,sans-Serif" font-size="10.00">ConverterToPDF::createBands</text>
</a>
</g>
</g>
<!-- Node3&#45;&gt;Node11 -->
<g id="edge11" class="edge"><title>Node3&#45;&gt;Node11</title>
<path fill="none" stroke="midnightblue" d="M320.446,-73.4628C343.66,-63.2811 375.427,-49.8509 404,-39.5 409.462,-37.5215 415.175,-35.5611 420.918,-33.6638"/>
<polygon fill="midnightblue" stroke="midnightblue" points="422.138,-36.9478 430.574,-30.5383 419.982,-30.288 422.138,-36.9478"/>
</g>
<!-- Node5 -->
<g id="node5" class="node"><title>Node5</title>
<g id="a_node5"><a xlink:href="classqtreports_1_1detail_1_1_replacer.html#a58cf857aa78eb3e273f6543769af425b" target="_top" xlink:title="Заменяет текст всех виджетов секции текстом с подставленными значениями полей из источника данных...">
<polygon fill="none" stroke="black" points="598,-98.5 598,-128.5 762,-128.5 762,-98.5 598,-98.5"/>
<text text-anchor="start" x="606" y="-116.5" font-family="Helvetica,sans-Serif" font-size="10.00">qtreports::detail::</text>
<text text-anchor="middle" x="680" y="-105.5" font-family="Helvetica,sans-Serif" font-size="10.00">Replacer::replaceFieldInSection</text>
</a>
</g>
</g>
<!-- Node4&#45;&gt;Node5 -->
<g id="edge4" class="edge"><title>Node4&#45;&gt;Node5</title>
<path fill="none" stroke="midnightblue" d="M532.704,-113.5C549.438,-113.5 568.755,-113.5 587.755,-113.5"/>
<polygon fill="midnightblue" stroke="midnightblue" points="587.951,-117 597.951,-113.5 587.951,-110 587.951,-117"/>
</g>
<!-- Node9 -->
<g id="node9" class="node"><title>Node9</title>
<g id="a_node9"><a xlink:href="classqtreports_1_1detail_1_1_replacer.html#abb903f1c1172efa7e26b040a5695cc86" target="_top" xlink:title="Возвращает текст с подставленными значениями параметров. ">
<polygon fill="none" stroke="black" points="603,-49.5 603,-79.5 757,-79.5 757,-49.5 603,-49.5"/>
<text text-anchor="start" x="611" y="-67.5" font-family="Helvetica,sans-Serif" font-size="10.00">qtreports::detail::</text>
<text text-anchor="middle" x="680" y="-56.5" font-family="Helvetica,sans-Serif" font-size="10.00">Replacer::replaceParameters</text>
</a>
</g>
</g>
<!-- Node4&#45;&gt;Node9 -->
<g id="edge9" class="edge"><title>Node4&#45;&gt;Node9</title>
<path fill="none" stroke="midnightblue" d="M532.704,-101.262C555.808,-95.4559 583.838,-88.4124 609.156,-82.0506"/>
<polygon fill="midnightblue" stroke="midnightblue" points="610.231,-85.3892 619.077,-79.5576 608.525,-78.6002 610.231,-85.3892"/>
</g>
<!-- Node6 -->
<g id="node6" class="node"><title>Node6</title>
<g id="a_node6"><a xlink:href="classqtreports_1_1detail_1_1_replacer.html#a2be57bd514335f9b9f2a520247562ce1" target="_top" xlink:title="Заменяет текст виджета текстом с подставленными значениями полей из источника данных. ">
<polygon fill="none" stroke="black" points="804,-93 804,-134 950,-134 950,-93 804,-93"/>
<text text-anchor="start" x="812" y="-122" font-family="Helvetica,sans-Serif" font-size="10.00">qtreports::detail::</text>
<text text-anchor="start" x="812" y="-111" font-family="Helvetica,sans-Serif" font-size="10.00">Replacer::replaceFieldInText</text>
<text text-anchor="middle" x="877" y="-100" font-family="Helvetica,sans-Serif" font-size="10.00">Widget</text>
</a>
</g>
</g>
<!-- Node5&#45;&gt;Node6 -->
<g id="edge5" class="edge"><title>Node5&#45;&gt;Node6</title>
<path fill="none" stroke="midnightblue" d="M762.003,-113.5C772.55,-113.5 783.362,-113.5 793.926,-113.5"/>
<polygon fill="midnightblue" stroke="midnightblue" points="793.962,-117 803.962,-113.5 793.962,-110 793.962,-117"/>
</g>
<!-- Node7 -->
<g id="node7" class="node"><title>Node7</title>
<g id="a_node7"><a xlink:href="classqtreports_1_1detail_1_1_replacer.html#a4aeb7794f90c0be34a30ab60a6df1920" target="_top" xlink:title="На основе текста виджета вставляет в него изображение из источника данных. ">
<polygon fill="none" stroke="black" points="798,-33 798,-74 956,-74 956,-33 798,-33"/>
<text text-anchor="start" x="806" y="-62" font-family="Helvetica,sans-Serif" font-size="10.00">qtreports::detail::</text>
<text text-anchor="start" x="806" y="-51" font-family="Helvetica,sans-Serif" font-size="10.00">Replacer::replaceFieldInImage</text>
<text text-anchor="middle" x="877" y="-40" font-family="Helvetica,sans-Serif" font-size="10.00">Widget</text>
</a>
</g>
</g>
<!-- Node5&#45;&gt;Node7 -->
<g id="edge7" class="edge"><title>Node5&#45;&gt;Node7</title>
<path fill="none" stroke="midnightblue" d="M729.955,-98.4369C751.075,-91.9384 776.276,-84.1844 799.749,-76.9618"/>
<polygon fill="midnightblue" stroke="midnightblue" points="800.809,-80.2976 809.338,-74.0114 798.751,-73.6071 800.809,-80.2976"/>
</g>
<!-- Node6&#45;&gt;Node2 -->
<g id="edge6" class="edge"><title>Node6&#45;&gt;Node2</title>
<path fill="none" stroke="midnightblue" d="M950.224,-122.745C965.479,-124.697 981.539,-126.753 996.665,-128.689"/>
<polygon fill="midnightblue" stroke="midnightblue" points="996.603,-132.21 1006.97,-130.008 997.491,-125.266 996.603,-132.21"/>
</g>
<!-- Node8 -->
<g id="node8" class="node"><title>Node8</title>
<g id="a_node8"><a xlink:href="classqtreports_1_1detail_1_1_replacer.html#ae1ac521aeaf5fdd694e79e2ae52d4704" target="_top" xlink:title="Возвращает изображение на основе первого найденного выражения. ">
<polygon fill="none" stroke="black" points="992,-38.5 992,-68.5 1141,-68.5 1141,-38.5 992,-38.5"/>
<text text-anchor="start" x="1000" y="-56.5" font-family="Helvetica,sans-Serif" font-size="10.00">qtreports::detail::</text>
<text text-anchor="middle" x="1066.5" y="-45.5" font-family="Helvetica,sans-Serif" font-size="10.00">Replacer::replaceFieldImage</text>
</a>
</g>
</g>
<!-- Node7&#45;&gt;Node8 -->
<g id="edge8" class="edge"><title>Node7&#45;&gt;Node8</title>
<path fill="none" stroke="midnightblue" d="M956.159,-53.5C964.681,-53.5 973.381,-53.5 981.964,-53.5"/>
<polygon fill="midnightblue" stroke="midnightblue" points="981.97,-57.0001 991.97,-53.5 981.97,-50.0001 981.97,-57.0001"/>
</g>
</g>
</svg>
