<?xml version="1.0" encoding="UTF-8" standalone="no"?>
<!DOCTYPE svg PUBLIC "-//W3C//DTD SVG 1.1//EN"
 "http://www.w3.org/Graphics/SVG/1.1/DTD/svg11.dtd">
<!-- Generated by graphviz version 2.38.0 (20140413.2041)
 -->
<!-- Title: qtreports::detail::Widget Pages: 1 -->
<svg width="951pt" height="1217pt"
 viewBox="0.00 0.00 951.00 1217.00" xmlns="http://www.w3.org/2000/svg" xmlns:xlink="http://www.w3.org/1999/xlink">
<g id="graph0" class="graph" transform="scale(1 1) rotate(0) translate(4 1213)">
<title>qtreports::detail::Widget</title>
<!-- Node1 -->
<g id="node1" class="node"><title>Node1</title>
<polygon fill="#bfbfbf" stroke="black" points="326,-672.5 326,-1004.5 426,-1004.5 426,-672.5 326,-672.5"/>
<text text-anchor="start" x="334" y="-992.5" font-family="Helvetica,sans-Serif" font-size="10.00">qtreports::detail::</text>
<text text-anchor="middle" x="376" y="-981.5" font-family="Helvetica,sans-Serif" font-size="10.00">Widget</text>
<polyline fill="none" stroke="black" points="326,-974.5 426,-974.5 "/>
<text text-anchor="start" x="334" y="-962.5" font-family="Helvetica,sans-Serif" font-size="10.00"># m_isBold</text>
<text text-anchor="start" x="334" y="-951.5" font-family="Helvetica,sans-Serif" font-size="10.00"># m_rect</text>
<text text-anchor="start" x="334" y="-940.5" font-family="Helvetica,sans-Serif" font-size="10.00"># m_alignment</text>
<text text-anchor="start" x="334" y="-929.5" font-family="Helvetica,sans-Serif" font-size="10.00"># m_style</text>
<polyline fill="none" stroke="black" points="326,-922.5 426,-922.5 "/>
<text text-anchor="start" x="334" y="-910.5" font-family="Helvetica,sans-Serif" font-size="10.00">+ Widget()</text>
<text text-anchor="start" x="334" y="-899.5" font-family="Helvetica,sans-Serif" font-size="10.00">+ ~Widget()</text>
<text text-anchor="start" x="334" y="-888.5" font-family="Helvetica,sans-Serif" font-size="10.00">+ setPosition()</text>
<text text-anchor="start" x="334" y="-877.5" font-family="Helvetica,sans-Serif" font-size="10.00">+ setX()</text>
<text text-anchor="start" x="334" y="-866.5" font-family="Helvetica,sans-Serif" font-size="10.00">+ setY()</text>
<text text-anchor="start" x="334" y="-855.5" font-family="Helvetica,sans-Serif" font-size="10.00">+ setSize()</text>
<text text-anchor="start" x="334" y="-844.5" font-family="Helvetica,sans-Serif" font-size="10.00">+ setWidth()</text>
<text text-anchor="start" x="334" y="-833.5" font-family="Helvetica,sans-Serif" font-size="10.00">+ setHeight()</text>
<text text-anchor="start" x="334" y="-822.5" font-family="Helvetica,sans-Serif" font-size="10.00">+ setRect()</text>
<text text-anchor="start" x="334" y="-811.5" font-family="Helvetica,sans-Serif" font-size="10.00">+ setStyle()</text>
<text text-anchor="start" x="334" y="-800.5" font-family="Helvetica,sans-Serif" font-size="10.00">+ setAlignment()</text>
<text text-anchor="start" x="334" y="-789.5" font-family="Helvetica,sans-Serif" font-size="10.00">+ getAlignment()</text>
<text text-anchor="start" x="334" y="-778.5" font-family="Helvetica,sans-Serif" font-size="10.00">+ getPos()</text>
<text text-anchor="start" x="334" y="-767.5" font-family="Helvetica,sans-Serif" font-size="10.00">+ getX()</text>
<text text-anchor="start" x="334" y="-756.5" font-family="Helvetica,sans-Serif" font-size="10.00">+ getY()</text>
<text text-anchor="start" x="334" y="-745.5" font-family="Helvetica,sans-Serif" font-size="10.00">+ getSize()</text>
<text text-anchor="start" x="334" y="-734.5" font-family="Helvetica,sans-Serif" font-size="10.00">+ getWidth()</text>
<text text-anchor="start" x="334" y="-723.5" font-family="Helvetica,sans-Serif" font-size="10.00">+ getHeight()</text>
<text text-anchor="start" x="334" y="-712.5" font-family="Helvetica,sans-Serif" font-size="10.00">+ getRect()</text>
<text text-anchor="start" x="334" y="-701.5" font-family="Helvetica,sans-Serif" font-size="10.00">+ getStyle()</text>
<text text-anchor="start" x="334" y="-690.5" font-family="Helvetica,sans-Serif" font-size="10.00">+ isBold()</text>
<text text-anchor="start" x="334" y="-679.5" font-family="Helvetica,sans-Serif" font-size="10.00">+ setBold()</text>
</g>
<!-- Node3 -->
<g id="node3" class="node"><title>Node3</title>
<g id="a_node3"><a xlink:href="classqtreports_1_1detail_1_1_band.html" target="_top" xlink:title="Класс, реализующий тэг &lt;band&gt; ">
<polygon fill="none" stroke="black" points="0,-171.5 0,-635.5 128,-635.5 128,-171.5 0,-171.5"/>
<text text-anchor="middle" x="64" y="-623.5" font-family="Helvetica,sans-Serif" font-size="10.00">qtreports::detail::Band</text>
<polyline fill="none" stroke="black" points="0,-616.5 128,-616.5 "/>
<text text-anchor="start" x="8" y="-604.5" font-family="Helvetica,sans-Serif" font-size="10.00">&#45; m_staticTexts</text>
<text text-anchor="start" x="8" y="-593.5" font-family="Helvetica,sans-Serif" font-size="10.00">&#45; m_textFields</text>
<text text-anchor="start" x="8" y="-582.5" font-family="Helvetica,sans-Serif" font-size="10.00">&#45; m_textWidgets</text>
<text text-anchor="start" x="8" y="-571.5" font-family="Helvetica,sans-Serif" font-size="10.00">&#45; m_lines</text>
<text text-anchor="start" x="8" y="-560.5" font-family="Helvetica,sans-Serif" font-size="10.00">&#45; m_rects</text>
<text text-anchor="start" x="8" y="-549.5" font-family="Helvetica,sans-Serif" font-size="10.00">&#45; m_ellipses</text>
<text text-anchor="start" x="8" y="-538.5" font-family="Helvetica,sans-Serif" font-size="10.00">&#45; m_images</text>
<text text-anchor="start" x="8" y="-527.5" font-family="Helvetica,sans-Serif" font-size="10.00">&#45; m_crosstabs</text>
<polyline fill="none" stroke="black" points="0,-520.5 128,-520.5 "/>
<text text-anchor="start" x="8" y="-508.5" font-family="Helvetica,sans-Serif" font-size="10.00">+ Band()</text>
<text text-anchor="start" x="8" y="-497.5" font-family="Helvetica,sans-Serif" font-size="10.00">+ ~Band()</text>
<text text-anchor="start" x="8" y="-486.5" font-family="Helvetica,sans-Serif" font-size="10.00">+ addCrosstab()</text>
<text text-anchor="start" x="8" y="-475.5" font-family="Helvetica,sans-Serif" font-size="10.00">+ addStaticText()</text>
<text text-anchor="start" x="8" y="-464.5" font-family="Helvetica,sans-Serif" font-size="10.00">+ getCrosstabs()</text>
<text text-anchor="start" x="8" y="-453.5" font-family="Helvetica,sans-Serif" font-size="10.00">+ getCrosstab()</text>
<text text-anchor="start" x="8" y="-442.5" font-family="Helvetica,sans-Serif" font-size="10.00">+ getStaticTexts()</text>
<text text-anchor="start" x="8" y="-431.5" font-family="Helvetica,sans-Serif" font-size="10.00">+ getStaticText()</text>
<text text-anchor="start" x="8" y="-420.5" font-family="Helvetica,sans-Serif" font-size="10.00">+ getStaticTextsSize()</text>
<text text-anchor="start" x="8" y="-409.5" font-family="Helvetica,sans-Serif" font-size="10.00">+ addTextField()</text>
<text text-anchor="start" x="8" y="-398.5" font-family="Helvetica,sans-Serif" font-size="10.00">+ getTextFields()</text>
<text text-anchor="start" x="8" y="-387.5" font-family="Helvetica,sans-Serif" font-size="10.00">+ getTextField()</text>
<text text-anchor="start" x="8" y="-376.5" font-family="Helvetica,sans-Serif" font-size="10.00">+ getTextFieldsSize()</text>
<text text-anchor="start" x="8" y="-365.5" font-family="Helvetica,sans-Serif" font-size="10.00">+ getTextWidgetsSize()</text>
<text text-anchor="start" x="8" y="-354.5" font-family="Helvetica,sans-Serif" font-size="10.00">+ getTextWidgets()</text>
<text text-anchor="start" x="8" y="-343.5" font-family="Helvetica,sans-Serif" font-size="10.00">+ addLine()</text>
<text text-anchor="start" x="8" y="-332.5" font-family="Helvetica,sans-Serif" font-size="10.00">+ getLine()</text>
<text text-anchor="start" x="8" y="-321.5" font-family="Helvetica,sans-Serif" font-size="10.00">+ getLinesSize()</text>
<text text-anchor="start" x="8" y="-310.5" font-family="Helvetica,sans-Serif" font-size="10.00">+ getLines()</text>
<text text-anchor="start" x="8" y="-299.5" font-family="Helvetica,sans-Serif" font-size="10.00">+ addRect()</text>
<text text-anchor="start" x="8" y="-288.5" font-family="Helvetica,sans-Serif" font-size="10.00">+ getRect()</text>
<text text-anchor="start" x="8" y="-277.5" font-family="Helvetica,sans-Serif" font-size="10.00">+ getRectsSize()</text>
<text text-anchor="start" x="8" y="-266.5" font-family="Helvetica,sans-Serif" font-size="10.00">+ getRects()</text>
<text text-anchor="start" x="8" y="-255.5" font-family="Helvetica,sans-Serif" font-size="10.00">+ addEllipse()</text>
<text text-anchor="start" x="8" y="-244.5" font-family="Helvetica,sans-Serif" font-size="10.00">+ getEllipse()</text>
<text text-anchor="start" x="8" y="-233.5" font-family="Helvetica,sans-Serif" font-size="10.00">+ getEllipsesSize()</text>
<text text-anchor="start" x="8" y="-222.5" font-family="Helvetica,sans-Serif" font-size="10.00">+ getEllipses()</text>
<text text-anchor="start" x="8" y="-211.5" font-family="Helvetica,sans-Serif" font-size="10.00">+ addImage()</text>
<text text-anchor="start" x="8" y="-200.5" font-family="Helvetica,sans-Serif" font-size="10.00">+ getImage()</text>
<text text-anchor="start" x="8" y="-189.5" font-family="Helvetica,sans-Serif" font-size="10.00">+ getImagesSize()</text>
<text text-anchor="start" x="8" y="-178.5" font-family="Helvetica,sans-Serif" font-size="10.00">+ getImages()</text>
</a>
</g>
</g>
<!-- Node1&#45;&gt;Node3 -->
<g id="edge2" class="edge"><title>Node1&#45;&gt;Node3</title>
<path fill="none" stroke="midnightblue" d="M317.226,-801.956C263.059,-766.337 184.143,-706.731 137,-636 133.903,-631.354 130.931,-626.568 128.08,-621.67"/>
<polygon fill="none" stroke="midnightblue" points="315.406,-804.948 325.698,-807.464 319.222,-799.079 315.406,-804.948"/>
</g>
<!-- Node4 -->
<g id="node4" class="node"><title>Node4</title>
<g id="a_node4"><a xlink:href="classqtreports_1_1detail_1_1_crosstab.html" target="_top" xlink:title="{qtreports::detail::\lCrosstab\n||+ Crosstab()\l+ ~Crosstab()\l}">
<polygon fill="none" stroke="black" points="146.5,-364 146.5,-443 245.5,-443 245.5,-364 146.5,-364"/>
<text text-anchor="start" x="154.5" y="-431" font-family="Helvetica,sans-Serif" font-size="10.00">qtreports::detail::</text>
<text text-anchor="middle" x="196" y="-420" font-family="Helvetica,sans-Serif" font-size="10.00">Crosstab</text>
<polyline fill="none" stroke="black" points="146.5,-413 245.5,-413 "/>
<text text-anchor="middle" x="196" y="-401" font-family="Helvetica,sans-Serif" font-size="10.00"> </text>
<polyline fill="none" stroke="black" points="146.5,-394 245.5,-394 "/>
<text text-anchor="start" x="154.5" y="-382" font-family="Helvetica,sans-Serif" font-size="10.00">+ Crosstab()</text>
<text text-anchor="start" x="154.5" y="-371" font-family="Helvetica,sans-Serif" font-size="10.00">+ ~Crosstab()</text>
</a>
</g>
</g>
<!-- Node1&#45;&gt;Node4 -->
<g id="edge3" class="edge"><title>Node1&#45;&gt;Node4</title>
<path fill="none" stroke="midnightblue" d="M320.363,-758.106C297.187,-722.144 271.626,-678.284 254,-636 226.898,-570.986 210.214,-490.232 202.063,-443.313"/>
<polygon fill="none" stroke="midnightblue" points="317.499,-760.123 325.885,-766.598 323.367,-756.306 317.499,-760.123"/>
</g>
<!-- Node5 -->
<g id="node5" class="node"><title>Node5</title>
<g id="a_node5"><a xlink:href="classqtreports_1_1detail_1_1_ellipse.html" target="_top" xlink:title="Класс, реализующий тэг &lt;ellipse&gt; ">
<polygon fill="none" stroke="black" points="263.5,-364 263.5,-443 362.5,-443 362.5,-364 263.5,-364"/>
<text text-anchor="start" x="271.5" y="-431" font-family="Helvetica,sans-Serif" font-size="10.00">qtreports::detail::</text>
<text text-anchor="middle" x="313" y="-420" font-family="Helvetica,sans-Serif" font-size="10.00">Ellipse</text>
<polyline fill="none" stroke="black" points="263.5,-413 362.5,-413 "/>
<text text-anchor="middle" x="313" y="-401" font-family="Helvetica,sans-Serif" font-size="10.00"> </text>
<polyline fill="none" stroke="black" points="263.5,-394 362.5,-394 "/>
<text text-anchor="start" x="271.5" y="-382" font-family="Helvetica,sans-Serif" font-size="10.00">+ Ellipse()</text>
<text text-anchor="start" x="271.5" y="-371" font-family="Helvetica,sans-Serif" font-size="10.00">+ ~Ellipse()</text>
</a>
</g>
</g>
<!-- Node1&#45;&gt;Node5 -->
<g id="edge4" class="edge"><title>Node1&#45;&gt;Node5</title>
<path fill="none" stroke="midnightblue" d="M350.458,-661.948C338.715,-581.242 325.826,-492.656 318.643,-443.286"/>
<polygon fill="none" stroke="midnightblue" points="347.054,-662.865 351.958,-672.257 353.981,-661.857 347.054,-662.865"/>
</g>
<!-- Node6 -->
<g id="node6" class="node"><title>Node6</title>
<g id="a_node6"><a xlink:href="classqtreports_1_1detail_1_1_line.html" target="_top" xlink:title="Класс, реализующий тэг &lt;line&gt; ">
<polygon fill="none" stroke="black" points="380.5,-369.5 380.5,-437.5 499.5,-437.5 499.5,-369.5 380.5,-369.5"/>
<text text-anchor="middle" x="440" y="-425.5" font-family="Helvetica,sans-Serif" font-size="10.00">qtreports::detail::Line</text>
<polyline fill="none" stroke="black" points="380.5,-418.5 499.5,-418.5 "/>
<text text-anchor="middle" x="440" y="-406.5" font-family="Helvetica,sans-Serif" font-size="10.00"> </text>
<polyline fill="none" stroke="black" points="380.5,-399.5 499.5,-399.5 "/>
<text text-anchor="start" x="388.5" y="-387.5" font-family="Helvetica,sans-Serif" font-size="10.00">+ Line()</text>
<text text-anchor="start" x="388.5" y="-376.5" font-family="Helvetica,sans-Serif" font-size="10.00">+ ~Line()</text>
</a>
</g>
</g>
<!-- Node1&#45;&gt;Node6 -->
<g id="edge5" class="edge"><title>Node1&#45;&gt;Node6</title>
<path fill="none" stroke="midnightblue" d="M401.891,-662.33C414.298,-578.387 427.978,-485.835 435.091,-437.714"/>
<polygon fill="none" stroke="midnightblue" points="398.424,-661.853 400.424,-672.257 405.349,-662.876 398.424,-661.853"/>
</g>
<!-- Node7 -->
<g id="node7" class="node"><title>Node7</title>
<g id="a_node7"><a xlink:href="classqtreports_1_1detail_1_1_rect.html" target="_top" xlink:title="Класс, реализующий тэг &lt;rect&gt; ">
<polygon fill="none" stroke="black" points="517.5,-369.5 517.5,-437.5 636.5,-437.5 636.5,-369.5 517.5,-369.5"/>
<text text-anchor="middle" x="577" y="-425.5" font-family="Helvetica,sans-Serif" font-size="10.00">qtreports::detail::Rect</text>
<polyline fill="none" stroke="black" points="517.5,-418.5 636.5,-418.5 "/>
<text text-anchor="middle" x="577" y="-406.5" font-family="Helvetica,sans-Serif" font-size="10.00"> </text>
<polyline fill="none" stroke="black" points="517.5,-399.5 636.5,-399.5 "/>
<text text-anchor="start" x="525.5" y="-387.5" font-family="Helvetica,sans-Serif" font-size="10.00">+ Rect()</text>
<text text-anchor="start" x="525.5" y="-376.5" font-family="Helvetica,sans-Serif" font-size="10.00">+ ~Rect()</text>
</a>
</g>
</g>
<!-- Node1&#45;&gt;Node7 -->
<g id="edge6" class="edge"><title>Node1&#45;&gt;Node7</title>
<path fill="none" stroke="midnightblue" d="M431.857,-763.614C457.742,-726.755 487.282,-680.607 508,-636 539.269,-568.676 560.284,-483.782 570.276,-437.797"/>
<polygon fill="none" stroke="midnightblue" points="428.974,-761.629 426.053,-771.813 434.688,-765.674 428.974,-761.629"/>
</g>
<!-- Node8 -->
<g id="node8" class="node"><title>Node8</title>
<g id="a_node8"><a xlink:href="classqtreports_1_1detail_1_1_text_widget.html" target="_top" xlink:title="Базовый класс для тегов, имеющих текстовое содержание. ">
<polygon fill="none" stroke="black" points="655,-336.5 655,-470.5 761,-470.5 761,-336.5 655,-336.5"/>
<text text-anchor="start" x="663" y="-458.5" font-family="Helvetica,sans-Serif" font-size="10.00">qtreports::detail::</text>
<text text-anchor="middle" x="708" y="-447.5" font-family="Helvetica,sans-Serif" font-size="10.00">TextWidget</text>
<polyline fill="none" stroke="black" points="655,-440.5 761,-440.5 "/>
<text text-anchor="start" x="663" y="-428.5" font-family="Helvetica,sans-Serif" font-size="10.00"># m_text</text>
<text text-anchor="start" x="663" y="-417.5" font-family="Helvetica,sans-Serif" font-size="10.00"># m_originalText</text>
<polyline fill="none" stroke="black" points="655,-410.5 761,-410.5 "/>
<text text-anchor="start" x="663" y="-398.5" font-family="Helvetica,sans-Serif" font-size="10.00">+ TextWidget()</text>
<text text-anchor="start" x="663" y="-387.5" font-family="Helvetica,sans-Serif" font-size="10.00">+ ~TextWidget()</text>
<text text-anchor="start" x="663" y="-376.5" font-family="Helvetica,sans-Serif" font-size="10.00">+ setText()</text>
<text text-anchor="start" x="663" y="-365.5" font-family="Helvetica,sans-Serif" font-size="10.00">+ getText()</text>
<text text-anchor="start" x="663" y="-354.5" font-family="Helvetica,sans-Serif" font-size="10.00">+ setOriginalText()</text>
<text text-anchor="start" x="663" y="-343.5" font-family="Helvetica,sans-Serif" font-size="10.00">+ getOriginalText()</text>
</a>
</g>
</g>
<!-- Node1&#45;&gt;Node8 -->
<g id="edge7" class="edge"><title>Node1&#45;&gt;Node8</title>
<path fill="none" stroke="midnightblue" d="M435.025,-808.473C496.574,-775.19 591.396,-714.893 645,-636 678.591,-586.561 694.319,-519.807 701.655,-470.685"/>
<polygon fill="none" stroke="midnightblue" points="433.368,-805.39 426.194,-813.186 436.664,-811.565 433.368,-805.39"/>
</g>
<!-- Node2 -->
<g id="node2" class="node"><title>Node2</title>
<g id="a_node2"><a xlink:href="classqtreports_1_1detail_1_1_object.html" target="_top" xlink:title="Базовый класс для любого тэга ">
<polygon fill="none" stroke="black" points="326.5,-1041.5 326.5,-1208.5 425.5,-1208.5 425.5,-1041.5 326.5,-1041.5"/>
<text text-anchor="start" x="334.5" y="-1196.5" font-family="Helvetica,sans-Serif" font-size="10.00">qtreports::detail::</text>
<text text-anchor="middle" x="376" y="-1185.5" font-family="Helvetica,sans-Serif" font-size="10.00">Object</text>
<polyline fill="none" stroke="black" points="326.5,-1178.5 425.5,-1178.5 "/>
<text text-anchor="start" x="334.5" y="-1166.5" font-family="Helvetica,sans-Serif" font-size="10.00"># m_name</text>
<text text-anchor="start" x="334.5" y="-1155.5" font-family="Helvetica,sans-Serif" font-size="10.00"># m_tagName</text>
<text text-anchor="start" x="334.5" y="-1144.5" font-family="Helvetica,sans-Serif" font-size="10.00"># m_lastError</text>
<polyline fill="none" stroke="black" points="326.5,-1137.5 425.5,-1137.5 "/>
<text text-anchor="start" x="334.5" y="-1125.5" font-family="Helvetica,sans-Serif" font-size="10.00">+ Object()</text>
<text text-anchor="start" x="334.5" y="-1114.5" font-family="Helvetica,sans-Serif" font-size="10.00">+ Object()</text>
<text text-anchor="start" x="334.5" y="-1103.5" font-family="Helvetica,sans-Serif" font-size="10.00">+ ~Object()</text>
<text text-anchor="start" x="334.5" y="-1092.5" font-family="Helvetica,sans-Serif" font-size="10.00">+ setName()</text>
<text text-anchor="start" x="334.5" y="-1081.5" font-family="Helvetica,sans-Serif" font-size="10.00">+ getName()</text>
<text text-anchor="start" x="334.5" y="-1070.5" font-family="Helvetica,sans-Serif" font-size="10.00">+ setTagName()</text>
<text text-anchor="start" x="334.5" y="-1059.5" font-family="Helvetica,sans-Serif" font-size="10.00">+ getTagName()</text>
<text text-anchor="start" x="334.5" y="-1048.5" font-family="Helvetica,sans-Serif" font-size="10.00">+ getLastError()</text>
</a>
</g>
</g>
<!-- Node2&#45;&gt;Node1 -->
<g id="edge1" class="edge"><title>Node2&#45;&gt;Node1</title>
<path fill="none" stroke="midnightblue" d="M376,-1031.28C376,-1022.61 376,-1013.65 376,-1004.57"/>
<polygon fill="none" stroke="midnightblue" points="372.5,-1031.33 376,-1041.33 379.5,-1031.33 372.5,-1031.33"/>
</g>
<!-- Node9 -->
<g id="node9" class="node"><title>Node9</title>
<g id="a_node9"><a xlink:href="classqtreports_1_1detail_1_1_image.html" target="_top" xlink:title="Класс, реализующий тэг &lt;image&gt; ">
<polygon fill="none" stroke="black" points="477.5,-17 477.5,-118 576.5,-118 576.5,-17 477.5,-17"/>
<text text-anchor="start" x="485.5" y="-106" font-family="Helvetica,sans-Serif" font-size="10.00">qtreports::detail::</text>
<text text-anchor="middle" x="527" y="-95" font-family="Helvetica,sans-Serif" font-size="10.00">Image</text>
<polyline fill="none" stroke="black" points="477.5,-88 576.5,-88 "/>
<text text-anchor="start" x="485.5" y="-76" font-family="Helvetica,sans-Serif" font-size="10.00">&#45; m_image</text>
<polyline fill="none" stroke="black" points="477.5,-69 576.5,-69 "/>
<text text-anchor="start" x="485.5" y="-57" font-family="Helvetica,sans-Serif" font-size="10.00">+ Image()</text>
<text text-anchor="start" x="485.5" y="-46" font-family="Helvetica,sans-Serif" font-size="10.00">+ ~Image()</text>
<text text-anchor="start" x="485.5" y="-35" font-family="Helvetica,sans-Serif" font-size="10.00">+ setImage()</text>
<text text-anchor="start" x="485.5" y="-24" font-family="Helvetica,sans-Serif" font-size="10.00">+ getImage()</text>
</a>
</g>
</g>
<!-- Node8&#45;&gt;Node9 -->
<g id="edge8" class="edge"><title>Node8&#45;&gt;Node9</title>
<path fill="none" stroke="midnightblue" d="M701.703,-326.263C694.426,-277.789 678.751,-215.925 645,-171 626.549,-146.441 609.564,-154.706 586,-135 579.843,-129.851 573.754,-124.051 567.957,-118.075"/>
<polygon fill="none" stroke="midnightblue" points="698.269,-326.98 703.131,-336.393 705.2,-326.002 698.269,-326.98"/>
</g>
<!-- Node10 -->
<g id="node10" class="node"><title>Node10</title>
<g id="a_node10"><a xlink:href="classqtreports_1_1detail_1_1_measure.html" target="_top" xlink:title="{qtreports::detail::\lMeasure\n|&#45; m_className\l&#45; m_calculation\l|+ Measure()\l+ ~Measure()\l+ setClassName()\l+ setCalculation()\l+ getClassName()\l+ getCalculation()\l}">
<polygon fill="none" stroke="black" points="595,-0.5 595,-134.5 701,-134.5 701,-0.5 595,-0.5"/>
<text text-anchor="start" x="603" y="-122.5" font-family="Helvetica,sans-Serif" font-size="10.00">qtreports::detail::</text>
<text text-anchor="middle" x="648" y="-111.5" font-family="Helvetica,sans-Serif" font-size="10.00">Measure</text>
<polyline fill="none" stroke="black" points="595,-104.5 701,-104.5 "/>
<text text-anchor="start" x="603" y="-92.5" font-family="Helvetica,sans-Serif" font-size="10.00">&#45; m_className</text>
<text text-anchor="start" x="603" y="-81.5" font-family="Helvetica,sans-Serif" font-size="10.00">&#45; m_calculation</text>
<polyline fill="none" stroke="black" points="595,-74.5 701,-74.5 "/>
<text text-anchor="start" x="603" y="-62.5" font-family="Helvetica,sans-Serif" font-size="10.00">+ Measure()</text>
<text text-anchor="start" x="603" y="-51.5" font-family="Helvetica,sans-Serif" font-size="10.00">+ ~Measure()</text>
<text text-anchor="start" x="603" y="-40.5" font-family="Helvetica,sans-Serif" font-size="10.00">+ setClassName()</text>
<text text-anchor="start" x="603" y="-29.5" font-family="Helvetica,sans-Serif" font-size="10.00">+ setCalculation()</text>
<text text-anchor="start" x="603" y="-18.5" font-family="Helvetica,sans-Serif" font-size="10.00">+ getClassName()</text>
<text text-anchor="start" x="603" y="-7.5" font-family="Helvetica,sans-Serif" font-size="10.00">+ getCalculation()</text>
</a>
</g>
</g>
<!-- Node8&#45;&gt;Node10 -->
<g id="edge9" class="edge"><title>Node8&#45;&gt;Node10</title>
<path fill="none" stroke="midnightblue" d="M694.248,-325.946C683.876,-268.211 669.794,-189.822 659.903,-134.761"/>
<polygon fill="none" stroke="midnightblue" points="690.861,-326.889 696.074,-336.113 697.751,-325.652 690.861,-326.889"/>
</g>
<!-- Node11 -->
<g id="node11" class="node"><title>Node11</title>
<g id="a_node11"><a xlink:href="classqtreports_1_1detail_1_1_static_text.html" target="_top" xlink:title="Класс, реализующий тэг &lt;staticText&gt; ">
<polygon fill="none" stroke="black" points="719.5,-28 719.5,-107 818.5,-107 818.5,-28 719.5,-28"/>
<text text-anchor="start" x="727.5" y="-95" font-family="Helvetica,sans-Serif" font-size="10.00">qtreports::detail::</text>
<text text-anchor="middle" x="769" y="-84" font-family="Helvetica,sans-Serif" font-size="10.00">StaticText</text>
<polyline fill="none" stroke="black" points="719.5,-77 818.5,-77 "/>
<text text-anchor="middle" x="769" y="-65" font-family="Helvetica,sans-Serif" font-size="10.00"> </text>
<polyline fill="none" stroke="black" points="719.5,-58 818.5,-58 "/>
<text text-anchor="start" x="727.5" y="-46" font-family="Helvetica,sans-Serif" font-size="10.00">+ StaticText()</text>
<text text-anchor="start" x="727.5" y="-35" font-family="Helvetica,sans-Serif" font-size="10.00">+ ~StaticText()</text>
</a>
</g>
</g>
<!-- Node8&#45;&gt;Node11 -->
<g id="edge10" class="edge"><title>Node8&#45;&gt;Node11</title>
<path fill="none" stroke="midnightblue" d="M721.925,-326.253C734.402,-257.937 752.194,-160.52 761.942,-107.145"/>
<polygon fill="none" stroke="midnightblue" points="718.478,-325.647 720.125,-336.113 725.364,-326.905 718.478,-325.647"/>
</g>
<!-- Node12 -->
<g id="node12" class="node"><title>Node12</title>
<g id="a_node12"><a xlink:href="classqtreports_1_1detail_1_1_text_field.html" target="_top" xlink:title="Класс, реализующий тэг &lt;textField&gt; ">
<polygon fill="none" stroke="black" points="837,-17 837,-118 943,-118 943,-17 837,-17"/>
<text text-anchor="start" x="845" y="-106" font-family="Helvetica,sans-Serif" font-size="10.00">qtreports::detail::</text>
<text text-anchor="middle" x="890" y="-95" font-family="Helvetica,sans-Serif" font-size="10.00">TextField</text>
<polyline fill="none" stroke="black" points="837,-88 943,-88 "/>
<text text-anchor="start" x="845" y="-76" font-family="Helvetica,sans-Serif" font-size="10.00">&#45; m_className</text>
<polyline fill="none" stroke="black" points="837,-69 943,-69 "/>
<text text-anchor="start" x="845" y="-57" font-family="Helvetica,sans-Serif" font-size="10.00">+ TextField()</text>
<text text-anchor="start" x="845" y="-46" font-family="Helvetica,sans-Serif" font-size="10.00">+ ~TextField()</text>
<text text-anchor="start" x="845" y="-35" font-family="Helvetica,sans-Serif" font-size="10.00">+ setClassName()</text>
<text text-anchor="start" x="845" y="-24" font-family="Helvetica,sans-Serif" font-size="10.00">+ getClassName()</text>
</a>
</g>
</g>
<!-- Node8&#45;&gt;Node12 -->
<g id="edge11" class="edge"><title>Node8&#45;&gt;Node12</title>
<path fill="none" stroke="midnightblue" d="M748.991,-327.275C783.812,-263.372 832.804,-173.465 862.922,-118.193"/>
<polygon fill="none" stroke="midnightblue" points="745.886,-325.657 744.175,-336.113 752.033,-329.007 745.886,-325.657"/>
</g>
</g>
</svg>
