<?xml version="1.0" encoding="UTF-8" standalone="no"?>
<!DOCTYPE svg PUBLIC "-//W3C//DTD SVG 1.1//EN"
 "http://www.w3.org/Graphics/SVG/1.1/DTD/svg11.dtd">
<!-- Generated by graphviz version 2.38.0 (20140413.2041)
 -->
<!-- Title: qtreports::detail::ConverterToQWidget::createQWidget Pages: 1 -->
<!--zoomable 575 -->
<svg id="main" version="1.1" xmlns="http://www.w3.org/2000/svg" xmlns:xlink="http://www.w3.org/1999/xlink" xml:space="preserve" onload="init(evt)">
<style type="text/css"><![CDATA[
.edge:hover path { stroke: red; }
.edge:hover polygon { stroke: red; fill: red; }
]]></style>
<script type="text/javascript"><![CDATA[
var edges = document.getElementsByTagName('g');
if (edges && edges.length) {
  for (var i=0;i<edges.length;i++) {
    if (edges[i].id.substr(0,4)=='edge') {
      edges[i].setAttribute('class','edge');
    }
  }
}
]]></script>
        <defs>
                <circle id="rim" cx="0" cy="0" r="7"/>
                <circle id="rim2" cx="0" cy="0" r="3.5"/>
                <g id="zoomPlus">
                        <use xlink:href="#rim" fill="#404040">
                                <set attributeName="fill" to="#808080" begin="zoomplus.mouseover" end="zoomplus.mouseout"/>
                        </use>
                        <path d="M-4,0h8M0,-4v8" fill="none" stroke="white" stroke-width="1.5" pointer-events="none"/>
                </g>
                <g id="zoomMin">
                        <use xlink:href="#rim" fill="#404040">
                                <set attributeName="fill" to="#808080" begin="zoomminus.mouseover" end="zoomminus.mouseout"/>
                        </use>
                        <path d="M-4,0h8" fill="none" stroke="white" stroke-width="1.5" pointer-events="none"/>
                </g>
                <g id="dirArrow">
                        <path fill="none" stroke="white" stroke-width="1.5" d="M0,-3.0v7 M-2.5,-0.5L0,-3.0L2.5,-0.5"/>
                </g>
               <g id="resetDef">
                       <use xlink:href="#rim2" fill="#404040">
                               <set attributeName="fill" to="#808080" begin="reset.mouseover" end="reset.mouseout"/>
                       </use>
               </g>
        </defs>

<script type="text/javascript">
var viewWidth = 1186;
var viewHeight = 575;
var sectionId = 'dynsection-14';
</script>
<script xlink:href="svgpan.js"/>
<svg id="graph" class="graph">
<g id="viewport">
<title>qtreports::detail::ConverterToQWidget::createQWidget</title>
<!-- Node1 -->
<g id="node1" class="node"><title>Node1</title>
<polygon fill="#bfbfbf" stroke="black" points="0,-376.5 0,-417.5 119,-417.5 119,-376.5 0,-376.5"/>
<text text-anchor="start" x="8" y="-405.5" font-family="Helvetica,sans-Serif" font-size="10.00">qtreports::detail::</text>
<text text-anchor="start" x="8" y="-394.5" font-family="Helvetica,sans-Serif" font-size="10.00">ConverterToQWidget::</text>
<text text-anchor="middle" x="59.5" y="-383.5" font-family="Helvetica,sans-Serif" font-size="10.00">createQWidget</text>
</g>
<!-- Node2 -->
<g id="node2" class="node"><title>Node2</title>
<g id="a_node2"><a xlink:href="classqtreports_1_1detail_1_1_converter_to_q_widget.html#a23d6229235fca8bd8bbddcc5e2e28f92" target="_top" xlink:title="Добавляет новую страницу на виджет. ">
<polygon fill="none" stroke="black" points="648.5,-0.5 648.5,-41.5 767.5,-41.5 767.5,-0.5 648.5,-0.5"/>
<text text-anchor="start" x="656.5" y="-29.5" font-family="Helvetica,sans-Serif" font-size="10.00">qtreports::detail::</text>
<text text-anchor="start" x="656.5" y="-18.5" font-family="Helvetica,sans-Serif" font-size="10.00">ConverterToQWidget::</text>
<text text-anchor="middle" x="708" y="-7.5" font-family="Helvetica,sans-Serif" font-size="10.00">addPage</text>
</a>
</g>
</g>
<!-- Node1&#45;&gt;Node2 -->
<g id="edge1" class="edge"><title>Node1&#45;&gt;Node2</title>
<path fill="none" stroke="midnightblue" d="M67.5466,-376.372C80.1254,-342.316 109.472,-274.026 155,-233 297.134,-104.92 524.886,-50.9662 638.258,-31.0925"/>
<polygon fill="midnightblue" stroke="midnightblue" points="638.941,-34.5265 648.205,-29.3851 637.757,-27.6274 638.941,-34.5265"/>
</g>
<!-- Node3 -->
<g id="node3" class="node"><title>Node3</title>
<g id="a_node3"><a xlink:href="classqtreports_1_1detail_1_1_converter_to_q_widget.html#af350953efb07bf3393c33846a81b1121" target="_top" xlink:title="Добавляет вертикальную границу. ">
<polygon fill="none" stroke="black" points="310,-496.5 310,-537.5 429,-537.5 429,-496.5 310,-496.5"/>
<text text-anchor="start" x="318" y="-525.5" font-family="Helvetica,sans-Serif" font-size="10.00">qtreports::detail::</text>
<text text-anchor="start" x="318" y="-514.5" font-family="Helvetica,sans-Serif" font-size="10.00">ConverterToQWidget::</text>
<text text-anchor="middle" x="369.5" y="-503.5" font-family="Helvetica,sans-Serif" font-size="10.00">addVerticalBorder</text>
</a>
</g>
</g>
<!-- Node1&#45;&gt;Node3 -->
<g id="edge2" class="edge"><title>Node1&#45;&gt;Node3</title>
<path fill="none" stroke="midnightblue" d="M102.464,-417.568C118.722,-425.264 137.584,-433.864 155,-441 202.962,-460.652 258.099,-480.204 300.326,-494.555"/>
<polygon fill="midnightblue" stroke="midnightblue" points="299.355,-497.921 309.949,-497.811 301.599,-491.29 299.355,-497.921"/>
</g>
<!-- Node4 -->
<g id="node4" class="node"><title>Node4</title>
<g id="a_node4"><a xlink:href="classqtreports_1_1detail_1_1_converter_to_q_widget.html#a76bb37f2855d12afc9056c75cdbc5e0b" target="_top" xlink:title="Проверяет, является ли виджет типа WidgetType::Layout. ">
<polygon fill="none" stroke="black" points="648.5,-367.5 648.5,-408.5 767.5,-408.5 767.5,-367.5 648.5,-367.5"/>
<text text-anchor="start" x="656.5" y="-396.5" font-family="Helvetica,sans-Serif" font-size="10.00">qtreports::detail::</text>
<text text-anchor="start" x="656.5" y="-385.5" font-family="Helvetica,sans-Serif" font-size="10.00">ConverterToQWidget::</text>
<text text-anchor="middle" x="708" y="-374.5" font-family="Helvetica,sans-Serif" font-size="10.00">isLayout</text>
</a>
</g>
</g>
<!-- Node1&#45;&gt;Node4 -->
<g id="edge5" class="edge"><title>Node1&#45;&gt;Node4</title>
<path fill="none" stroke="midnightblue" d="M81.3017,-417.587C99.6103,-434.948 127.557,-459.667 155,-477 218.908,-517.365 236.106,-531.088 310,-547 430.881,-573.03 478.48,-580.273 587,-521 631.963,-496.441 668.75,-448.414 689.265,-417.293"/>
<polygon fill="midnightblue" stroke="midnightblue" points="692.385,-418.912 694.856,-408.61 686.5,-415.122 692.385,-418.912"/>
</g>
<!-- Node6 -->
<g id="node6" class="node"><title>Node6</title>
<g id="a_node6"><a xlink:href="classqtreports_1_1detail_1_1_converter_to_q_widget.html#ae126b16c5a846e84f12d86ca8ef253dd" target="_top" xlink:title="Добавляет секцию. ">
<polygon fill="none" stroke="black" points="310,-376.5 310,-417.5 429,-417.5 429,-376.5 310,-376.5"/>
<text text-anchor="start" x="318" y="-405.5" font-family="Helvetica,sans-Serif" font-size="10.00">qtreports::detail::</text>
<text text-anchor="start" x="318" y="-394.5" font-family="Helvetica,sans-Serif" font-size="10.00">ConverterToQWidget::</text>
<text text-anchor="middle" x="369.5" y="-383.5" font-family="Helvetica,sans-Serif" font-size="10.00">addSectionLayout</text>
</a>
</g>
</g>
<!-- Node1&#45;&gt;Node6 -->
<g id="edge6" class="edge"><title>Node1&#45;&gt;Node6</title>
<path fill="none" stroke="midnightblue" d="M119.157,-397C170.562,-397 245.333,-397 299.579,-397"/>
<polygon fill="midnightblue" stroke="midnightblue" points="299.799,-400.5 309.799,-397 299.799,-393.5 299.799,-400.5"/>
</g>
<!-- Node7 -->
<g id="node7" class="node"><title>Node7</title>
<g id="a_node7"><a xlink:href="classqtreports_1_1detail_1_1_converter_to_q_widget.html#a3c95daf9bd10efc4feb71e0d976bbd6e" target="_top" xlink:title="Создает секцию. ">
<polygon fill="none" stroke="black" points="310,-180.5 310,-221.5 429,-221.5 429,-180.5 310,-180.5"/>
<text text-anchor="start" x="318" y="-209.5" font-family="Helvetica,sans-Serif" font-size="10.00">qtreports::detail::</text>
<text text-anchor="start" x="318" y="-198.5" font-family="Helvetica,sans-Serif" font-size="10.00">ConverterToQWidget::</text>
<text text-anchor="middle" x="369.5" y="-187.5" font-family="Helvetica,sans-Serif" font-size="10.00">createSection</text>
</a>
</g>
</g>
<!-- Node1&#45;&gt;Node7 -->
<g id="edge9" class="edge"><title>Node1&#45;&gt;Node7</title>
<path fill="none" stroke="midnightblue" d="M76.4119,-376.422C93.8576,-354.925 123.577,-321.289 155,-299 199.783,-267.235 256.506,-241.778 300.228,-224.778"/>
<polygon fill="midnightblue" stroke="midnightblue" points="301.548,-228.021 309.633,-221.174 299.043,-221.485 301.548,-228.021"/>
</g>
<!-- Node21 -->
<g id="node21" class="node"><title>Node21</title>
<g id="a_node21"><a xlink:href="classqtreports_1_1detail_1_1_converter_to_q_widget.html#ac98aceb5ee703053d7691029da84e296" target="_top" xlink:title="Функция добавления группировок в отчет. ">
<polygon fill="none" stroke="black" points="155,-308.5 155,-349.5 274,-349.5 274,-308.5 155,-308.5"/>
<text text-anchor="start" x="163" y="-337.5" font-family="Helvetica,sans-Serif" font-size="10.00">qtreports::detail::</text>
<text text-anchor="start" x="163" y="-326.5" font-family="Helvetica,sans-Serif" font-size="10.00">ConverterToQWidget::</text>
<text text-anchor="middle" x="214.5" y="-315.5" font-family="Helvetica,sans-Serif" font-size="10.00">addGroupsIntoReport</text>
</a>
</g>
</g>
<!-- Node1&#45;&gt;Node21 -->
<g id="edge28" class="edge"><title>Node1&#45;&gt;Node21</title>
<path fill="none" stroke="midnightblue" d="M106.82,-376.413C122.998,-369.223 141.32,-361.08 158.158,-353.596"/>
<polygon fill="midnightblue" stroke="midnightblue" points="159.621,-356.777 167.337,-349.517 156.778,-350.38 159.621,-356.777"/>
</g>
<!-- Node23 -->
<g id="node23" class="node"><title>Node23</title>
<g id="a_node23"><a xlink:href="classqtreports_1_1detail_1_1_converter_to_q_widget.html#a21d211f4a1f0f46f2220a0959c36367b" target="_top" xlink:title="Добавляет пустую секцию. ">
<polygon fill="none" stroke="black" points="310,-436.5 310,-477.5 429,-477.5 429,-436.5 310,-436.5"/>
<text text-anchor="start" x="318" y="-465.5" font-family="Helvetica,sans-Serif" font-size="10.00">qtreports::detail::</text>
<text text-anchor="start" x="318" y="-454.5" font-family="Helvetica,sans-Serif" font-size="10.00">ConverterToQWidget::</text>
<text text-anchor="middle" x="369.5" y="-443.5" font-family="Helvetica,sans-Serif" font-size="10.00">addEmptySection</text>
</a>
</g>
</g>
<!-- Node1&#45;&gt;Node23 -->
<g id="edge34" class="edge"><title>Node1&#45;&gt;Node23</title>
<path fill="none" stroke="midnightblue" d="M119.157,-408.427C170.669,-418.461 245.644,-433.067 299.917,-443.64"/>
<polygon fill="midnightblue" stroke="midnightblue" points="299.315,-447.088 309.799,-445.565 300.653,-440.217 299.315,-447.088"/>
</g>
<!-- Node3&#45;&gt;Node4 -->
<g id="edge3" class="edge"><title>Node3&#45;&gt;Node4</title>
<path fill="none" stroke="midnightblue" d="M429.019,-520.232C474.043,-520.528 536.838,-516.082 587,-494 626.486,-476.618 662.2,-441.351 684.204,-416.274"/>
<polygon fill="midnightblue" stroke="midnightblue" points="686.997,-418.394 690.853,-408.526 681.684,-413.836 686.997,-418.394"/>
</g>
<!-- Node5 -->
<g id="node5" class="node"><title>Node5</title>
<g id="a_node5"><a xlink:href="namespaceqtreports_1_1detail.html#a57ac54d6807a30b13e419a3106735b19" target="_top" xlink:title="qtreports::detail::\lcreateLayout">
<polygon fill="none" stroke="black" points="476.5,-455 476.5,-485 575.5,-485 575.5,-455 476.5,-455"/>
<text text-anchor="start" x="484.5" y="-473" font-family="Helvetica,sans-Serif" font-size="10.00">qtreports::detail::</text>
<text text-anchor="middle" x="526" y="-462" font-family="Helvetica,sans-Serif" font-size="10.00">createLayout</text>
</a>
</g>
</g>
<!-- Node3&#45;&gt;Node5 -->
<g id="edge4" class="edge"><title>Node3&#45;&gt;Node5</title>
<path fill="none" stroke="midnightblue" d="M429.351,-499.097C441.597,-495.372 454.499,-491.447 466.724,-487.728"/>
<polygon fill="midnightblue" stroke="midnightblue" points="467.81,-491.056 476.359,-484.797 465.773,-484.359 467.81,-491.056"/>
</g>
<!-- Node6&#45;&gt;Node4 -->
<g id="edge7" class="edge"><title>Node6&#45;&gt;Node4</title>
<path fill="none" stroke="midnightblue" d="M429.114,-395.432C487.441,-393.872 576.904,-391.48 638.48,-389.833"/>
<polygon fill="midnightblue" stroke="midnightblue" points="638.591,-393.331 648.494,-389.565 638.404,-386.333 638.591,-393.331"/>
</g>
<!-- Node6&#45;&gt;Node5 -->
<g id="edge8" class="edge"><title>Node6&#45;&gt;Node5</title>
<path fill="none" stroke="midnightblue" d="M413.948,-417.529C435.873,-427.888 462.322,-440.385 483.908,-450.584"/>
<polygon fill="midnightblue" stroke="midnightblue" points="482.604,-453.839 493.141,-454.947 485.595,-447.51 482.604,-453.839"/>
</g>
<!-- Node7&#45;&gt;Node4 -->
<g id="edge10" class="edge"><title>Node7&#45;&gt;Node4</title>
<path fill="none" stroke="midnightblue" d="M411.246,-221.536C417.228,-224.655 423.294,-227.875 429,-231 445.247,-239.896 448.925,-242.796 465,-252 533.114,-291.003 612.507,-335.423 661.26,-362.582"/>
<polygon fill="midnightblue" stroke="midnightblue" points="659.557,-365.64 669.997,-367.447 662.963,-359.524 659.557,-365.64"/>
</g>
<!-- Node8 -->
<g id="node8" class="node"><title>Node8</title>
<g id="a_node8"><a xlink:href="classqtreports_1_1detail_1_1_replacer.html#af7ccb83be264f7c72b7485cf38455450" target="_top" xlink:title="Заменяет текст всех виджетов секции текстом с подставленными значениями. ">
<polygon fill="none" stroke="black" points="476.5,-164 476.5,-194 575.5,-194 575.5,-164 476.5,-164"/>
<text text-anchor="start" x="484.5" y="-182" font-family="Helvetica,sans-Serif" font-size="10.00">qtreports::detail::</text>
<text text-anchor="middle" x="526" y="-171" font-family="Helvetica,sans-Serif" font-size="10.00">Replacer::replace</text>
</a>
</g>
</g>
<!-- Node7&#45;&gt;Node8 -->
<g id="edge11" class="edge"><title>Node7&#45;&gt;Node8</title>
<path fill="none" stroke="midnightblue" d="M429.351,-192.62C441.476,-190.893 454.243,-189.075 466.361,-187.35"/>
<polygon fill="midnightblue" stroke="midnightblue" points="466.952,-190.801 476.359,-185.926 465.965,-183.871 466.952,-190.801"/>
</g>
<!-- Node15 -->
<g id="node15" class="node"><title>Node15</title>
<g id="a_node15"><a xlink:href="classqtreports_1_1detail_1_1_replacer.html#a677f7802e444f2de3af4cb43b6cedf30" target="_top" xlink:title="Возвращает описание последней произошедшей ошибки. ">
<polygon fill="none" stroke="black" points="465,-213 465,-243 587,-243 587,-213 465,-213"/>
<text text-anchor="start" x="473" y="-231" font-family="Helvetica,sans-Serif" font-size="10.00">qtreports::detail::</text>
<text text-anchor="middle" x="526" y="-220" font-family="Helvetica,sans-Serif" font-size="10.00">Replacer::getLastError</text>
</a>
</g>
</g>
<!-- Node7&#45;&gt;Node15 -->
<g id="edge18" class="edge"><title>Node7&#45;&gt;Node15</title>
<path fill="none" stroke="midnightblue" d="M429.351,-211.285C437.686,-212.741 446.326,-214.251 454.849,-215.741"/>
<polygon fill="midnightblue" stroke="midnightblue" points="454.322,-219.202 464.775,-217.475 455.527,-212.306 454.322,-219.202"/>
</g>
<!-- Node16 -->
<g id="node16" class="node"><title>Node16</title>
<g id="a_node16"><a xlink:href="classqtreports_1_1detail_1_1_converter_to_q_widget.html#aa3be16e037533a4a5b58596087207187" target="_top" xlink:title="Создает band. ">
<polygon fill="none" stroke="black" points="466.5,-104.5 466.5,-145.5 585.5,-145.5 585.5,-104.5 466.5,-104.5"/>
<text text-anchor="start" x="474.5" y="-133.5" font-family="Helvetica,sans-Serif" font-size="10.00">qtreports::detail::</text>
<text text-anchor="start" x="474.5" y="-122.5" font-family="Helvetica,sans-Serif" font-size="10.00">ConverterToQWidget::</text>
<text text-anchor="middle" x="526" y="-111.5" font-family="Helvetica,sans-Serif" font-size="10.00">createBands</text>
</a>
</g>
</g>
<!-- Node7&#45;&gt;Node16 -->
<g id="edge19" class="edge"><title>Node7&#45;&gt;Node16</title>
<path fill="none" stroke="midnightblue" d="M411.85,-180.308C428.362,-172.079 447.561,-162.551 465,-154 467.717,-152.668 470.505,-151.305 473.322,-149.932"/>
<polygon fill="midnightblue" stroke="midnightblue" points="474.899,-153.057 482.361,-145.536 471.837,-146.762 474.899,-153.057"/>
</g>
<!-- Node9 -->
<g id="node9" class="node"><title>Node9</title>
<g id="a_node9"><a xlink:href="classqtreports_1_1detail_1_1_replacer.html#a58cf857aa78eb3e273f6543769af425b" target="_top" xlink:title="Заменяет текст всех виджетов секции текстом с подставленными значениями полей из источника данных...">
<polygon fill="none" stroke="black" points="626,-229 626,-259 790,-259 790,-229 626,-229"/>
<text text-anchor="start" x="634" y="-247" font-family="Helvetica,sans-Serif" font-size="10.00">qtreports::detail::</text>
<text text-anchor="middle" x="708" y="-236" font-family="Helvetica,sans-Serif" font-size="10.00">Replacer::replaceFieldInSection</text>
</a>
</g>
</g>
<!-- Node8&#45;&gt;Node9 -->
<g id="edge12" class="edge"><title>Node8&#45;&gt;Node9</title>
<path fill="none" stroke="midnightblue" d="M565.177,-194.02C572.443,-196.95 579.971,-200.034 587,-203 603.131,-209.808 606.575,-212.935 623,-219 629.329,-221.337 635.986,-223.615 642.668,-225.784"/>
<polygon fill="midnightblue" stroke="midnightblue" points="641.848,-229.195 652.438,-228.877 643.961,-222.522 641.848,-229.195"/>
</g>
<!-- Node14 -->
<g id="node14" class="node"><title>Node14</title>
<g id="a_node14"><a xlink:href="classqtreports_1_1detail_1_1_replacer.html#abb903f1c1172efa7e26b040a5695cc86" target="_top" xlink:title="Возвращает текст с подставленными значениями параметров. ">
<polygon fill="none" stroke="black" points="631,-180 631,-210 785,-210 785,-180 631,-180"/>
<text text-anchor="start" x="639" y="-198" font-family="Helvetica,sans-Serif" font-size="10.00">qtreports::detail::</text>
<text text-anchor="middle" x="708" y="-187" font-family="Helvetica,sans-Serif" font-size="10.00">Replacer::replaceParameters</text>
</a>
</g>
</g>
<!-- Node8&#45;&gt;Node14 -->
<g id="edge17" class="edge"><title>Node8&#45;&gt;Node14</title>
<path fill="none" stroke="midnightblue" d="M575.711,-183.33C589.632,-184.567 605.236,-185.954 620.695,-187.328"/>
<polygon fill="midnightblue" stroke="midnightblue" points="620.543,-190.829 630.814,-188.228 621.163,-183.856 620.543,-190.829"/>
</g>
<!-- Node10 -->
<g id="node10" class="node"><title>Node10</title>
<g id="a_node10"><a xlink:href="classqtreports_1_1detail_1_1_replacer.html#a2be57bd514335f9b9f2a520247562ce1" target="_top" xlink:title="Заменяет текст виджета текстом с подставленными значениями полей из источника данных. ">
<polygon fill="none" stroke="black" points="838,-180.5 838,-221.5 984,-221.5 984,-180.5 838,-180.5"/>
<text text-anchor="start" x="846" y="-209.5" font-family="Helvetica,sans-Serif" font-size="10.00">qtreports::detail::</text>
<text text-anchor="start" x="846" y="-198.5" font-family="Helvetica,sans-Serif" font-size="10.00">Replacer::replaceFieldInText</text>
<text text-anchor="middle" x="911" y="-187.5" font-family="Helvetica,sans-Serif" font-size="10.00">Widget</text>
</a>
</g>
</g>
<!-- Node9&#45;&gt;Node10 -->
<g id="edge13" class="edge"><title>Node9&#45;&gt;Node10</title>
<path fill="none" stroke="midnightblue" d="M779.3,-228.961C794.956,-225.611 811.691,-222.031 827.778,-218.59"/>
<polygon fill="midnightblue" stroke="midnightblue" points="828.65,-221.983 837.696,-216.468 827.185,-215.137 828.65,-221.983"/>
</g>
<!-- Node12 -->
<g id="node12" class="node"><title>Node12</title>
<g id="a_node12"><a xlink:href="classqtreports_1_1detail_1_1_replacer.html#a4aeb7794f90c0be34a30ab60a6df1920" target="_top" xlink:title="На основе текста виджета вставляет в него изображение из источника данных. ">
<polygon fill="none" stroke="black" points="832,-240.5 832,-281.5 990,-281.5 990,-240.5 832,-240.5"/>
<text text-anchor="start" x="840" y="-269.5" font-family="Helvetica,sans-Serif" font-size="10.00">qtreports::detail::</text>
<text text-anchor="start" x="840" y="-258.5" font-family="Helvetica,sans-Serif" font-size="10.00">Replacer::replaceFieldInImage</text>
<text text-anchor="middle" x="911" y="-247.5" font-family="Helvetica,sans-Serif" font-size="10.00">Widget</text>
</a>
</g>
</g>
<!-- Node9&#45;&gt;Node12 -->
<g id="edge15" class="edge"><title>Node9&#45;&gt;Node12</title>
<path fill="none" stroke="midnightblue" d="M790.175,-250.866C800.579,-251.745 811.269,-252.65 821.778,-253.538"/>
<polygon fill="midnightblue" stroke="midnightblue" points="821.523,-257.029 831.782,-254.385 822.113,-250.054 821.523,-257.029"/>
</g>
<!-- Node11 -->
<g id="node11" class="node"><title>Node11</title>
<g id="a_node11"><a xlink:href="classqtreports_1_1detail_1_1_replacer.html#a4642b07160798f2ee4de276e1d0c1ecd" target="_top" xlink:title="Возвращает текст с подставленными значениями полей из источника данных. ">
<polygon fill="none" stroke="black" points="1044,-156 1044,-186 1163,-186 1163,-156 1044,-156"/>
<text text-anchor="start" x="1052" y="-174" font-family="Helvetica,sans-Serif" font-size="10.00">qtreports::detail::</text>
<text text-anchor="middle" x="1103.5" y="-163" font-family="Helvetica,sans-Serif" font-size="10.00">Replacer::replaceField</text>
</a>
</g>
</g>
<!-- Node10&#45;&gt;Node11 -->
<g id="edge14" class="edge"><title>Node10&#45;&gt;Node11</title>
<path fill="none" stroke="midnightblue" d="M984.02,-189.658C1000.34,-187.089 1017.62,-184.367 1033.8,-181.819"/>
<polygon fill="midnightblue" stroke="midnightblue" points="1034.37,-185.272 1043.71,-180.259 1033.28,-178.357 1034.37,-185.272"/>
</g>
<!-- Node13 -->
<g id="node13" class="node"><title>Node13</title>
<g id="a_node13"><a xlink:href="classqtreports_1_1detail_1_1_replacer.html#ae1ac521aeaf5fdd694e79e2ae52d4704" target="_top" xlink:title="Возвращает изображение на основе первого найденного выражения. ">
<polygon fill="none" stroke="black" points="1029,-246 1029,-276 1178,-276 1178,-246 1029,-246"/>
<text text-anchor="start" x="1037" y="-264" font-family="Helvetica,sans-Serif" font-size="10.00">qtreports::detail::</text>
<text text-anchor="middle" x="1103.5" y="-253" font-family="Helvetica,sans-Serif" font-size="10.00">Replacer::replaceFieldImage</text>
</a>
</g>
</g>
<!-- Node12&#45;&gt;Node13 -->
<g id="edge16" class="edge"><title>Node12&#45;&gt;Node13</title>
<path fill="none" stroke="midnightblue" d="M990.033,-261C999.466,-261 1009.13,-261 1018.64,-261"/>
<polygon fill="midnightblue" stroke="midnightblue" points="1018.89,-264.5 1028.88,-261 1018.88,-257.5 1018.89,-264.5"/>
</g>
<!-- Node16&#45;&gt;Node2 -->
<g id="edge20" class="edge"><title>Node16&#45;&gt;Node2</title>
<path fill="none" stroke="midnightblue" d="M549.625,-104.242C568.227,-88.0258 595.851,-65.8268 623,-51 628.05,-48.2422 633.403,-45.6529 638.866,-43.2414"/>
<polygon fill="midnightblue" stroke="midnightblue" points="640.263,-46.451 648.128,-39.3523 637.553,-39.9968 640.263,-46.451"/>
</g>
<!-- Node16&#45;&gt;Node4 -->
<g id="edge21" class="edge"><title>Node16&#45;&gt;Node4</title>
<path fill="none" stroke="midnightblue" d="M578.019,-145.675C581.304,-148.171 584.351,-150.938 587,-154 621.764,-194.182 599.493,-220.35 623,-268 639.434,-301.311 664.459,-335.675 682.923,-359.046"/>
<polygon fill="midnightblue" stroke="midnightblue" points="680.419,-361.518 689.401,-367.136 685.883,-357.143 680.419,-361.518"/>
</g>
<!-- Node17 -->
<g id="node17" class="node"><title>Node17</title>
<g id="a_node17"><a xlink:href="classqtreports_1_1detail_1_1_replacer.html#aa9fa83cf51d75301b62e11a0a93e2dcc" target="_top" xlink:title="qtreports::detail::\lReplacer::replaceColumnGroups\lInCrosstab">
<polygon fill="none" stroke="black" points="623,-120.5 623,-161.5 793,-161.5 793,-120.5 623,-120.5"/>
<text text-anchor="start" x="631" y="-149.5" font-family="Helvetica,sans-Serif" font-size="10.00">qtreports::detail::</text>
<text text-anchor="start" x="631" y="-138.5" font-family="Helvetica,sans-Serif" font-size="10.00">Replacer::replaceColumnGroups</text>
<text text-anchor="middle" x="708" y="-127.5" font-family="Helvetica,sans-Serif" font-size="10.00">InCrosstab</text>
</a>
</g>
</g>
<!-- Node16&#45;&gt;Node17 -->
<g id="edge22" class="edge"><title>Node16&#45;&gt;Node17</title>
<path fill="none" stroke="midnightblue" d="M585.939,-130.239C594.506,-131.001 603.501,-131.8 612.556,-132.605"/>
<polygon fill="midnightblue" stroke="midnightblue" points="612.514,-136.115 622.785,-133.514 613.134,-129.142 612.514,-136.115"/>
</g>
<!-- Node19 -->
<g id="node19" class="node"><title>Node19</title>
<g id="a_node19"><a xlink:href="classqtreports_1_1detail_1_1_replacer.html#ae0f12ba0e77e9ef89b9479272e843fe6" target="_top" xlink:title="qtreports::detail::\lReplacer::replaceRowGroups\lInCrosstab">
<polygon fill="none" stroke="black" points="632.5,-60.5 632.5,-101.5 783.5,-101.5 783.5,-60.5 632.5,-60.5"/>
<text text-anchor="start" x="640.5" y="-89.5" font-family="Helvetica,sans-Serif" font-size="10.00">qtreports::detail::</text>
<text text-anchor="start" x="640.5" y="-78.5" font-family="Helvetica,sans-Serif" font-size="10.00">Replacer::replaceRowGroups</text>
<text text-anchor="middle" x="708" y="-67.5" font-family="Helvetica,sans-Serif" font-size="10.00">InCrosstab</text>
</a>
</g>
</g>
<!-- Node16&#45;&gt;Node19 -->
<g id="edge25" class="edge"><title>Node16&#45;&gt;Node19</title>
<path fill="none" stroke="midnightblue" d="M585.939,-110.593C597.67,-107.725 610.203,-104.661 622.595,-101.632"/>
<polygon fill="midnightblue" stroke="midnightblue" points="623.601,-104.99 632.484,-99.2151 621.939,-98.1898 623.601,-104.99"/>
</g>
<!-- Node18 -->
<g id="node18" class="node"><title>Node18</title>
<g id="a_node18"><a xlink:href="classqtreports_1_1detail_1_1_replacer.html#a781b476a4e964da9e5afe4f642b2f275" target="_top" xlink:title="qtreports::detail::\lReplacer::replaceColumnGroup\lInCrosstab">
<polygon fill="none" stroke="black" points="829,-120.5 829,-161.5 993,-161.5 993,-120.5 829,-120.5"/>
<text text-anchor="start" x="837" y="-149.5" font-family="Helvetica,sans-Serif" font-size="10.00">qtreports::detail::</text>
<text text-anchor="start" x="837" y="-138.5" font-family="Helvetica,sans-Serif" font-size="10.00">Replacer::replaceColumnGroup</text>
<text text-anchor="middle" x="911" y="-127.5" font-family="Helvetica,sans-Serif" font-size="10.00">InCrosstab</text>
</a>
</g>
</g>
<!-- Node17&#45;&gt;Node18 -->
<g id="edge23" class="edge"><title>Node17&#45;&gt;Node18</title>
<path fill="none" stroke="midnightblue" d="M793.077,-141C801.583,-141 810.249,-141 818.825,-141"/>
<polygon fill="midnightblue" stroke="midnightblue" points="818.834,-144.5 828.834,-141 818.834,-137.5 818.834,-144.5"/>
</g>
<!-- Node18&#45;&gt;Node11 -->
<g id="edge24" class="edge"><title>Node18&#45;&gt;Node11</title>
<path fill="none" stroke="midnightblue" d="M993.065,-153.766C1006.62,-155.901 1020.57,-158.098 1033.78,-160.178"/>
<polygon fill="midnightblue" stroke="midnightblue" points="1033.3,-163.645 1043.72,-161.743 1034.39,-156.73 1033.3,-163.645"/>
</g>
<!-- Node20 -->
<g id="node20" class="node"><title>Node20</title>
<g id="a_node20"><a xlink:href="classqtreports_1_1detail_1_1_replacer.html#a2114b58c90fe02b17e7bf99e144013b6" target="_top" xlink:title="qtreports::detail::\lReplacer::replaceRowGroupIn\lCrosstab">
<polygon fill="none" stroke="black" points="834,-60.5 834,-101.5 988,-101.5 988,-60.5 834,-60.5"/>
<text text-anchor="start" x="842" y="-89.5" font-family="Helvetica,sans-Serif" font-size="10.00">qtreports::detail::</text>
<text text-anchor="start" x="842" y="-78.5" font-family="Helvetica,sans-Serif" font-size="10.00">Replacer::replaceRowGroupIn</text>
<text text-anchor="middle" x="911" y="-67.5" font-family="Helvetica,sans-Serif" font-size="10.00">Crosstab</text>
</a>
</g>
</g>
<!-- Node19&#45;&gt;Node20 -->
<g id="edge26" class="edge"><title>Node19&#45;&gt;Node20</title>
<path fill="none" stroke="midnightblue" d="M783.559,-81C796.647,-81 810.364,-81 823.738,-81"/>
<polygon fill="midnightblue" stroke="midnightblue" points="823.882,-84.5001 833.882,-81 823.882,-77.5001 823.882,-84.5001"/>
</g>
<!-- Node20&#45;&gt;Node11 -->
<g id="edge27" class="edge"><title>Node20&#45;&gt;Node11</title>
<path fill="none" stroke="midnightblue" d="M970.816,-101.624C978.351,-104.604 985.905,-107.764 993,-111 1019.06,-122.887 1047.39,-138.486 1068.7,-150.8"/>
<polygon fill="midnightblue" stroke="midnightblue" points="1066.98,-153.846 1077.38,-155.855 1070.5,-147.797 1066.98,-153.846"/>
</g>
<!-- Node21&#45;&gt;Node4 -->
<g id="edge30" class="edge"><title>Node21&#45;&gt;Node4</title>
<path fill="none" stroke="midnightblue" d="M274.298,-336.058C365.6,-347.018 541.036,-368.078 638.128,-379.733"/>
<polygon fill="midnightblue" stroke="midnightblue" points="637.788,-383.217 648.134,-380.934 638.623,-376.267 637.788,-383.217"/>
</g>
<!-- Node21&#45;&gt;Node6 -->
<g id="edge31" class="edge"><title>Node21&#45;&gt;Node6</title>
<path fill="none" stroke="midnightblue" d="M261.82,-349.587C277.998,-356.777 296.32,-364.92 313.158,-372.404"/>
<polygon fill="midnightblue" stroke="midnightblue" points="311.778,-375.62 322.337,-376.483 314.621,-369.223 311.778,-375.62"/>
</g>
<!-- Node21&#45;&gt;Node7 -->
<g id="edge32" class="edge"><title>Node21&#45;&gt;Node7</title>
<path fill="none" stroke="midnightblue" d="M231.932,-308.297C249.582,-287.008 279.259,-253.827 310,-231 311.824,-229.645 313.718,-228.32 315.661,-227.028"/>
<polygon fill="midnightblue" stroke="midnightblue" points="317.773,-229.836 324.417,-221.583 314.076,-223.892 317.773,-229.836"/>
</g>
<!-- Node21&#45;&gt;Node11 -->
<g id="edge29" class="edge"><title>Node21&#45;&gt;Node11</title>
<path fill="none" stroke="midnightblue" d="M274.192,-323.248C336.393,-317.656 437.52,-310 525,-310 525,-310 525,-310 709,-310 835.504,-310 883.788,-354.845 993,-291 1018.22,-276.255 1009.89,-258.096 1029,-236 1042.69,-220.168 1060.18,-204.559 1074.66,-192.606"/>
<polygon fill="midnightblue" stroke="midnightblue" points="1077.22,-195.033 1082.78,-186.017 1072.81,-189.596 1077.22,-195.033"/>
</g>
<!-- Node22 -->
<g id="node22" class="node"><title>Node22</title>
<g id="a_node22"><a xlink:href="classqtreports_1_1detail_1_1_converter_to_q_widget.html#a5e49976fe8fac12633ccda1ba928b9b1" target="_top" xlink:title="Проверяет, является ли виджет типа WidgetType::Report. ">
<polygon fill="none" stroke="black" points="310,-240.5 310,-281.5 429,-281.5 429,-240.5 310,-240.5"/>
<text text-anchor="start" x="318" y="-269.5" font-family="Helvetica,sans-Serif" font-size="10.00">qtreports::detail::</text>
<text text-anchor="start" x="318" y="-258.5" font-family="Helvetica,sans-Serif" font-size="10.00">ConverterToQWidget::</text>
<text text-anchor="middle" x="369.5" y="-247.5" font-family="Helvetica,sans-Serif" font-size="10.00">isReport</text>
</a>
</g>
</g>
<!-- Node21&#45;&gt;Node22 -->
<g id="edge33" class="edge"><title>Node21&#45;&gt;Node22</title>
<path fill="none" stroke="midnightblue" d="M261.82,-308.413C277.998,-301.223 296.32,-293.08 313.158,-285.596"/>
<polygon fill="midnightblue" stroke="midnightblue" points="314.621,-288.777 322.337,-281.517 311.778,-282.38 314.621,-288.777"/>
</g>
<!-- Node23&#45;&gt;Node4 -->
<g id="edge35" class="edge"><title>Node23&#45;&gt;Node4</title>
<path fill="none" stroke="midnightblue" d="M429.114,-444.981C487.441,-433.021 576.904,-414.677 638.48,-402.05"/>
<polygon fill="midnightblue" stroke="midnightblue" points="639.401,-405.434 648.494,-399.997 637.995,-398.577 639.401,-405.434"/>
</g>
<!-- Node23&#45;&gt;Node5 -->
<g id="edge36" class="edge"><title>Node23&#45;&gt;Node5</title>
<path fill="none" stroke="midnightblue" d="M429.351,-461.952C441.476,-462.972 454.243,-464.046 466.361,-465.066"/>
<polygon fill="midnightblue" stroke="midnightblue" points="466.1,-468.556 476.359,-465.907 466.687,-461.581 466.1,-468.556"/>
</g>
</g>
</svg>
        <g id="navigator" transform="translate(0 0)" fill="#404254">
                <rect fill="#f2f5e9" fill-opacity="0.5" stroke="#606060" stroke-width=".5" x="0" y="0" width="60" height="60"/>
                <use id="zoomplus" xlink:href="#zoomPlus" x="17" y="9" onmousedown="handleZoom(evt,'in')"/>
                <use id="zoomminus" xlink:href="#zoomMin" x="42" y="9" onmousedown="handleZoom(evt,'out')"/>
                <use id="reset" xlink:href="#resetDef" x="30" y="36" onmousedown="handleReset()"/>
                <g id="arrowUp" xlink:href="#dirArrow" transform="translate(30 24)" onmousedown="handlePan(0,-1)">
                  <use xlink:href="#rim" fill="#404040">
                        <set attributeName="fill" to="#808080" begin="arrowUp.mouseover" end="arrowUp.mouseout"/>
                  </use>
                  <path fill="none" stroke="white" stroke-width="1.5" d="M0,-3.0v7 M-2.5,-0.5L0,-3.0L2.5,-0.5"/>
                </g>
                <g id="arrowRight" xlink:href="#dirArrow" transform="rotate(90) translate(36 -43)" onmousedown="handlePan(1,0)">
                  <use xlink:href="#rim" fill="#404040">
                        <set attributeName="fill" to="#808080" begin="arrowRight.mouseover" end="arrowRight.mouseout"/>
                  </use>
                  <path fill="none" stroke="white" stroke-width="1.5" d="M0,-3.0v7 M-2.5,-0.5L0,-3.0L2.5,-0.5"/>
                </g>
                <g id="arrowDown" xlink:href="#dirArrow" transform="rotate(180) translate(-30 -48)" onmousedown="handlePan(0,1)">
                  <use xlink:href="#rim" fill="#404040">
                        <set attributeName="fill" to="#808080" begin="arrowDown.mouseover" end="arrowDown.mouseout"/>
                  </use>
                  <path fill="none" stroke="white" stroke-width="1.5" d="M0,-3.0v7 M-2.5,-0.5L0,-3.0L2.5,-0.5"/>
                </g>
                <g id="arrowLeft" xlink:href="#dirArrow" transform="rotate(270) translate(-36 17)" onmousedown="handlePan(-1,0)">
                  <use xlink:href="#rim" fill="#404040">
                        <set attributeName="fill" to="#808080" begin="arrowLeft.mouseover" end="arrowLeft.mouseout"/>
                  </use>
                  <path fill="none" stroke="white" stroke-width="1.5" d="M0,-3.0v7 M-2.5,-0.5L0,-3.0L2.5,-0.5"/>
                </g>
        </g>
        <svg viewBox="0 0 15 15" width="100%" height="30px" preserveAspectRatio="xMaxYMin meet">
         <g id="arrow_out" transform="scale(0.3 0.3)">
          <a xlink:href="classqtreports_1_1detail_1_1_converter_to_q_widget_a96a53267cf2b8092e174906ea7f0f56f_cgraph_org.svg" target="_base">
           <rect id="button" ry="5" rx="5" y="6" x="6" height="38" width="38"
                fill="#f2f5e9" fill-opacity="0.5" stroke="#606060" stroke-width="1.0"/>
           <path id="arrow"
             d="M 11.500037,31.436501 C 11.940474,20.09759 22.043105,11.32322 32.158766,21.979434 L 37.068811,17.246167 C 37.068811,17.246167 37.088388,32 37.088388,32 L 22.160133,31.978069 C 22.160133,31.978069 26.997745,27.140456 26.997745,27.140456 C 18.528582,18.264221 13.291696,25.230495 11.500037,31.436501 z"
             style="fill:#404040;"/>
          </a>
         </g>
        </svg>
</svg>
