<?xml version="1.0" encoding="UTF-8" standalone="no"?>
<!DOCTYPE svg PUBLIC "-//W3C//DTD SVG 1.1//EN"
 "http://www.w3.org/Graphics/SVG/1.1/DTD/svg11.dtd">
<!-- Generated by graphviz version 2.38.0 (20140413.2041)
 -->
<!-- Title: qtreports::detail::ParserFromXML::parseTextFieldExpression Pages: 1 -->
<svg width="550pt" height="99pt"
 viewBox="0.00 0.00 550.00 98.50" xmlns="http://www.w3.org/2000/svg" xmlns:xlink="http://www.w3.org/1999/xlink">
<g id="graph0" class="graph" transform="scale(1 1) rotate(0) translate(4 94.5)">
<title>qtreports::detail::ParserFromXML::parseTextFieldExpression</title>
<!-- Node1 -->
<g id="node1" class="node"><title>Node1</title>
<polygon fill="#bfbfbf" stroke="black" points="0,-22 0,-63 163,-63 163,-22 0,-22"/>
<text text-anchor="start" x="8" y="-51" font-family="Helvetica,sans-Serif" font-size="10.00">qtreports::detail::</text>
<text text-anchor="start" x="8" y="-40" font-family="Helvetica,sans-Serif" font-size="10.00">ParserFromXML::parseTextField</text>
<text text-anchor="middle" x="81.5" y="-29" font-family="Helvetica,sans-Serif" font-size="10.00">Expression</text>
</g>
<!-- Node2 -->
<g id="node2" class="node"><title>Node2</title>
<g id="a_node2"><a xlink:href="classqtreports_1_1detail_1_1_parser_from_x_m_l.html#ab1cbf7385fa2d56c5e8526bf97cda9b1" target="_top" xlink:title="Вызывает функцию getAttribute с переданными параметрами и с параметром option &#45; &quot;обязательный аттрибу...">
<polygon fill="none" stroke="black" points="199,-49 199,-90 352,-90 352,-49 199,-49"/>
<text text-anchor="start" x="207" y="-78" font-family="Helvetica,sans-Serif" font-size="10.00">qtreports::detail::</text>
<text text-anchor="start" x="207" y="-67" font-family="Helvetica,sans-Serif" font-size="10.00">ParserFromXML::getRequired</text>
<text text-anchor="middle" x="275.5" y="-56" font-family="Helvetica,sans-Serif" font-size="10.00">Attribute</text>
</a>
</g>
</g>
<!-- Node1&#45;&gt;Node2 -->
<g id="edge1" class="edge"><title>Node1&#45;&gt;Node2</title>
<path fill="none" stroke="midnightblue" d="M163.091,-53.8331C171.573,-55.0259 180.22,-56.2419 188.758,-57.4425"/>
<polygon fill="midnightblue" stroke="midnightblue" points="188.324,-60.9159 198.714,-58.8426 189.299,-53.9841 188.324,-60.9159"/>
</g>
<!-- Node4 -->
<g id="node4" class="node"><title>Node4</title>
<g id="a_node4"><a xlink:href="classqtreports_1_1detail_1_1_parser_from_x_m_l.html#a79b3db940ae07e1f3128371d529ca38b" target="_top" xlink:title="Считывает xml элемент в data. ">
<polygon fill="none" stroke="black" points="206.5,-0.5 206.5,-30.5 344.5,-30.5 344.5,-0.5 206.5,-0.5"/>
<text text-anchor="start" x="214.5" y="-18.5" font-family="Helvetica,sans-Serif" font-size="10.00">qtreports::detail::</text>
<text text-anchor="middle" x="275.5" y="-7.5" font-family="Helvetica,sans-Serif" font-size="10.00">ParserFromXML::getValue</text>
</a>
</g>
</g>
<!-- Node1&#45;&gt;Node4 -->
<g id="edge3" class="edge"><title>Node1&#45;&gt;Node4</title>
<path fill="none" stroke="midnightblue" d="M163.091,-31.1669C174.091,-29.6201 185.368,-28.0342 196.324,-26.4935"/>
<polygon fill="midnightblue" stroke="midnightblue" points="196.863,-29.9523 206.278,-25.0937 195.888,-23.0205 196.863,-29.9523"/>
</g>
<!-- Node3 -->
<g id="node3" class="node"><title>Node3</title>
<g id="a_node3"><a xlink:href="classqtreports_1_1detail_1_1_parser_from_x_m_l.html#ad0cab06b62d590495eaa6a16465ed2b4" target="_top" xlink:title="Записывает в data значение аттрибута с именем name текущего тэга ">
<polygon fill="none" stroke="black" points="388,-54.5 388,-84.5 542,-84.5 542,-54.5 388,-54.5"/>
<text text-anchor="start" x="396" y="-72.5" font-family="Helvetica,sans-Serif" font-size="10.00">qtreports::detail::</text>
<text text-anchor="middle" x="465" y="-61.5" font-family="Helvetica,sans-Serif" font-size="10.00">ParserFromXML::getAttribute</text>
</a>
</g>
</g>
<!-- Node2&#45;&gt;Node3 -->
<g id="edge2" class="edge"><title>Node2&#45;&gt;Node3</title>
<path fill="none" stroke="midnightblue" d="M352.223,-69.5C360.697,-69.5 369.375,-69.5 377.966,-69.5"/>
<polygon fill="midnightblue" stroke="midnightblue" points="377.994,-73.0001 387.994,-69.5 377.994,-66.0001 377.994,-73.0001"/>
</g>
</g>
</svg>
