<?xml version="1.0" encoding="UTF-8" standalone="no"?>
<!DOCTYPE svg PUBLIC "-//W3C//DTD SVG 1.1//EN"
 "http://www.w3.org/Graphics/SVG/1.1/DTD/svg11.dtd">
<!-- Generated by graphviz version 2.38.0 (20140413.2041)
 -->
<!-- Title: qtreports::detail::Replacer::getLastError Pages: 1 -->
<svg width="1230pt" height="311pt"
 viewBox="0.00 0.00 1230.00 311.00" xmlns="http://www.w3.org/2000/svg" xmlns:xlink="http://www.w3.org/1999/xlink">
<g id="graph0" class="graph" transform="scale(1 1) rotate(0) translate(4 307)">
<title>qtreports::detail::Replacer::getLastError</title>
<!-- Node1 -->
<g id="node1" class="node"><title>Node1</title>
<polygon fill="#bfbfbf" stroke="black" points="0,-149.5 0,-179.5 122,-179.5 122,-149.5 0,-149.5"/>
<text text-anchor="start" x="8" y="-167.5" font-family="Helvetica,sans-Serif" font-size="10.00">qtreports::detail::</text>
<text text-anchor="middle" x="61" y="-156.5" font-family="Helvetica,sans-Serif" font-size="10.00">Replacer::getLastError</text>
</g>
<!-- Node2 -->
<g id="node2" class="node"><title>Node2</title>
<g id="a_node2"><a xlink:href="classqtreports_1_1detail_1_1_converter_to_h_t_m_l.html#acd1d271ed38019d408d8597000e974be" target="_top" xlink:title="Добавление &lt;band&gt; в документ HTML. ">
<polygon fill="none" stroke="black" points="165.5,-220.5 165.5,-250.5 314.5,-250.5 314.5,-220.5 165.5,-220.5"/>
<text text-anchor="start" x="173.5" y="-238.5" font-family="Helvetica,sans-Serif" font-size="10.00">qtreports::detail::</text>
<text text-anchor="middle" x="240" y="-227.5" font-family="Helvetica,sans-Serif" font-size="10.00">ConverterToHTML::addBand</text>
</a>
</g>
</g>
<!-- Node1&#45;&gt;Node2 -->
<g id="edge1" class="edge"><title>Node1&#45;&gt;Node2</title>
<path fill="none" stroke="midnightblue" d="M109.032,-183.366C137.967,-194.973 174.543,-209.644 201.517,-220.464"/>
<polygon fill="midnightblue" stroke="midnightblue" points="110.121,-180.032 99.5371,-179.557 107.515,-186.529 110.121,-180.032"/>
</g>
<!-- Node8 -->
<g id="node8" class="node"><title>Node8</title>
<g id="a_node8"><a xlink:href="classqtreports_1_1detail_1_1_converter_to_p_d_f.html#a5d9212cf5250d8d938359c417537337c" target="_top" xlink:title="Создает секцию. ">
<polygon fill="none" stroke="black" points="158,-149.5 158,-179.5 322,-179.5 322,-149.5 158,-149.5"/>
<text text-anchor="start" x="166" y="-167.5" font-family="Helvetica,sans-Serif" font-size="10.00">qtreports::detail::</text>
<text text-anchor="middle" x="240" y="-156.5" font-family="Helvetica,sans-Serif" font-size="10.00">ConverterToPDF::createSection</text>
</a>
</g>
</g>
<!-- Node1&#45;&gt;Node8 -->
<g id="edge8" class="edge"><title>Node1&#45;&gt;Node8</title>
<path fill="none" stroke="midnightblue" d="M132.472,-164.5C140.823,-164.5 149.397,-164.5 157.88,-164.5"/>
<polygon fill="midnightblue" stroke="midnightblue" points="132.418,-161 122.418,-164.5 132.418,-168 132.418,-161"/>
</g>
<!-- Node13 -->
<g id="node13" class="node"><title>Node13</title>
<g id="a_node13"><a xlink:href="classqtreports_1_1detail_1_1_converter_to_q_widget.html#a3c95daf9bd10efc4feb71e0d976bbd6e" target="_top" xlink:title="Создает секцию. ">
<polygon fill="none" stroke="black" points="180.5,-68 180.5,-109 299.5,-109 299.5,-68 180.5,-68"/>
<text text-anchor="start" x="188.5" y="-97" font-family="Helvetica,sans-Serif" font-size="10.00">qtreports::detail::</text>
<text text-anchor="start" x="188.5" y="-86" font-family="Helvetica,sans-Serif" font-size="10.00">ConverterToQWidget::</text>
<text text-anchor="middle" x="240" y="-75" font-family="Helvetica,sans-Serif" font-size="10.00">createSection</text>
</a>
</g>
</g>
<!-- Node1&#45;&gt;Node13 -->
<g id="edge14" class="edge"><title>Node1&#45;&gt;Node13</title>
<path fill="none" stroke="midnightblue" d="M106.491,-145.396C132.259,-134.332 164.702,-120.402 191.037,-109.094"/>
<polygon fill="midnightblue" stroke="midnightblue" points="104.777,-142.323 96.9695,-149.485 107.539,-148.755 104.777,-142.323"/>
</g>
<!-- Node3 -->
<g id="node3" class="node"><title>Node3</title>
<g id="a_node3"><a xlink:href="classqtreports_1_1detail_1_1_converter_to_h_t_m_l.html#ace8358a3612fc8085b7c34f1f92341e2" target="_top" xlink:title="Процесс конвертации репорта в HTML формат. ">
<polygon fill="none" stroke="black" points="562,-229.5 562,-259.5 725,-259.5 725,-229.5 562,-229.5"/>
<text text-anchor="start" x="570" y="-247.5" font-family="Helvetica,sans-Serif" font-size="10.00">qtreports::detail::</text>
<text text-anchor="middle" x="643.5" y="-236.5" font-family="Helvetica,sans-Serif" font-size="10.00">ConverterToHTML::createHTML</text>
</a>
</g>
</g>
<!-- Node2&#45;&gt;Node3 -->
<g id="edge2" class="edge"><title>Node2&#45;&gt;Node3</title>
<path fill="none" stroke="midnightblue" d="M297.947,-253.154C316.86,-258.195 338.158,-262.997 358,-265.5 432.079,-274.846 451.63,-272.149 526,-265.5 540.534,-264.201 555.967,-262.007 570.683,-259.514"/>
<polygon fill="midnightblue" stroke="midnightblue" points="298.863,-249.776 288.294,-250.507 297.012,-256.527 298.863,-249.776"/>
</g>
<!-- Node7 -->
<g id="node7" class="node"><title>Node7</title>
<g id="a_node7"><a xlink:href="classqtreports_1_1detail_1_1_converter_to_h_t_m_l.html#a602c8f3bd3bc44df48b2edcee8bcdfa0" target="_top" xlink:title="Добавление &lt;group&gt; в документ HTML. ">
<polygon fill="none" stroke="black" points="363,-215 363,-256 521,-256 521,-215 363,-215"/>
<text text-anchor="start" x="371" y="-244" font-family="Helvetica,sans-Serif" font-size="10.00">qtreports::detail::</text>
<text text-anchor="start" x="371" y="-233" font-family="Helvetica,sans-Serif" font-size="10.00">ConverterToHTML::addGroups</text>
<text text-anchor="middle" x="442" y="-222" font-family="Helvetica,sans-Serif" font-size="10.00">IntoReport</text>
</a>
</g>
</g>
<!-- Node2&#45;&gt;Node7 -->
<g id="edge6" class="edge"><title>Node2&#45;&gt;Node7</title>
<path fill="none" stroke="midnightblue" d="M324.667,-235.5C337.311,-235.5 350.312,-235.5 362.833,-235.5"/>
<polygon fill="midnightblue" stroke="midnightblue" points="324.621,-232 314.621,-235.5 324.621,-239 324.621,-232"/>
</g>
<!-- Node4 -->
<g id="node4" class="node"><title>Node4</title>
<g id="a_node4"><a xlink:href="classqtreports_1_1detail_1_1_converter_to_h_t_m_l.html#ad91ac333abf7d02f7590970a54ef7aae" target="_top" xlink:title="Запускает процесс конвертации репорта в HTML формат. ">
<polygon fill="none" stroke="black" points="761,-229.5 761,-259.5 903,-259.5 903,-229.5 761,-229.5"/>
<text text-anchor="start" x="769" y="-247.5" font-family="Helvetica,sans-Serif" font-size="10.00">qtreports::detail::</text>
<text text-anchor="middle" x="832" y="-236.5" font-family="Helvetica,sans-Serif" font-size="10.00">ConverterToHTML::convert</text>
</a>
</g>
</g>
<!-- Node3&#45;&gt;Node4 -->
<g id="edge3" class="edge"><title>Node3&#45;&gt;Node4</title>
<path fill="none" stroke="midnightblue" d="M735.316,-244.5C743.944,-244.5 752.601,-244.5 760.989,-244.5"/>
<polygon fill="midnightblue" stroke="midnightblue" points="735.217,-241 725.217,-244.5 735.217,-248 735.217,-241"/>
</g>
<!-- Node5 -->
<g id="node5" class="node"><title>Node5</title>
<g id="a_node5"><a xlink:href="classqtreports_1_1detail_1_1_converter_to_h_t_m_l.html#a38e92f3fd70f61c44871b22cddffd15a" target="_top" xlink:title="Создает HTML документ при успешной конвертации репорта в HTML формат. ">
<polygon fill="none" stroke="black" points="939,-272.5 939,-302.5 1081,-302.5 1081,-272.5 939,-272.5"/>
<text text-anchor="start" x="947" y="-290.5" font-family="Helvetica,sans-Serif" font-size="10.00">qtreports::detail::</text>
<text text-anchor="middle" x="1010" y="-279.5" font-family="Helvetica,sans-Serif" font-size="10.00">ConverterToHTML::convert</text>
</a>
</g>
</g>
<!-- Node4&#45;&gt;Node5 -->
<g id="edge4" class="edge"><title>Node4&#45;&gt;Node5</title>
<path fill="none" stroke="midnightblue" d="M904.339,-261.929C918.638,-265.423 933.547,-269.065 947.478,-272.469"/>
<polygon fill="midnightblue" stroke="midnightblue" points="905.101,-258.513 894.556,-259.539 903.44,-265.313 905.101,-258.513"/>
</g>
<!-- Node6 -->
<g id="node6" class="node"><title>Node6</title>
<g id="a_node6"><a xlink:href="classqtreports_1_1_engine.html#a551b0db0510d572d56447c471daa0891" target="_top" xlink:title="Создает HTML документ отчета по указанному пути ">
<polygon fill="none" stroke="black" points="957.5,-223.5 957.5,-253.5 1062.5,-253.5 1062.5,-223.5 957.5,-223.5"/>
<text text-anchor="start" x="965.5" y="-241.5" font-family="Helvetica,sans-Serif" font-size="10.00">qtreports::Engine::</text>
<text text-anchor="middle" x="1010" y="-230.5" font-family="Helvetica,sans-Serif" font-size="10.00">createHTML</text>
</a>
</g>
</g>
<!-- Node4&#45;&gt;Node6 -->
<g id="edge5" class="edge"><title>Node4&#45;&gt;Node6</title>
<path fill="none" stroke="midnightblue" d="M913.347,-241.761C928.298,-241.251 943.545,-240.731 957.345,-240.261"/>
<polygon fill="midnightblue" stroke="midnightblue" points="912.94,-238.273 903.066,-242.111 913.179,-245.269 912.94,-238.273"/>
</g>
<!-- Node7&#45;&gt;Node3 -->
<g id="edge7" class="edge"><title>Node7&#45;&gt;Node3</title>
<path fill="none" stroke="midnightblue" d="M531.348,-239.486C541.49,-239.943 551.791,-240.408 561.825,-240.861"/>
<polygon fill="midnightblue" stroke="midnightblue" points="531.423,-235.986 521.275,-239.031 531.107,-242.978 531.423,-235.986"/>
</g>
<!-- Node9 -->
<g id="node9" class="node"><title>Node9</title>
<g id="a_node9"><a xlink:href="classqtreports_1_1detail_1_1_converter_to_p_d_f.html#aad8435572f5ba065f8f2fef428d97b22" target="_top" xlink:title="Конвертирует отчет в PDF документ. ">
<polygon fill="none" stroke="black" points="579.5,-162.5 579.5,-192.5 707.5,-192.5 707.5,-162.5 579.5,-162.5"/>
<text text-anchor="start" x="587.5" y="-180.5" font-family="Helvetica,sans-Serif" font-size="10.00">qtreports::detail::</text>
<text text-anchor="middle" x="643.5" y="-169.5" font-family="Helvetica,sans-Serif" font-size="10.00">ConverterToPDF::create</text>
</a>
</g>
</g>
<!-- Node8&#45;&gt;Node9 -->
<g id="edge9" class="edge"><title>Node8&#45;&gt;Node9</title>
<path fill="none" stroke="midnightblue" d="M332.696,-167.469C408.173,-169.913 513.176,-173.313 579.479,-175.459"/>
<polygon fill="midnightblue" stroke="midnightblue" points="332.358,-163.956 322.25,-167.131 332.131,-170.953 332.358,-163.956"/>
</g>
<!-- Node12 -->
<g id="node12" class="node"><title>Node12</title>
<g id="a_node12"><a xlink:href="classqtreports_1_1detail_1_1_converter_to_p_d_f.html#adda58d86ecfee05cdcc5e5ce161926ff" target="_top" xlink:title="Добавляет группу в репорт. ">
<polygon fill="none" stroke="black" points="358,-117 358,-158 526,-158 526,-117 358,-117"/>
<text text-anchor="start" x="366" y="-146" font-family="Helvetica,sans-Serif" font-size="10.00">qtreports::detail::</text>
<text text-anchor="start" x="366" y="-135" font-family="Helvetica,sans-Serif" font-size="10.00">ConverterToPDF::addGroupsInto</text>
<text text-anchor="middle" x="442" y="-124" font-family="Helvetica,sans-Serif" font-size="10.00">Report</text>
</a>
</g>
</g>
<!-- Node8&#45;&gt;Node12 -->
<g id="edge12" class="edge"><title>Node8&#45;&gt;Node12</title>
<path fill="none" stroke="midnightblue" d="M332.089,-152.203C340.681,-151.043 349.361,-149.871 357.873,-148.722"/>
<polygon fill="midnightblue" stroke="midnightblue" points="331.501,-148.751 322.059,-153.557 332.438,-155.688 331.501,-148.751"/>
</g>
<!-- Node10 -->
<g id="node10" class="node"><title>Node10</title>
<g id="a_node10"><a xlink:href="classqtreports_1_1detail_1_1_converter_to_p_d_f.html#af39953d8db1bdcbbcf59cc00b05747eb" target="_top" xlink:title="Запускает процесс конвертации. ">
<polygon fill="none" stroke="black" points="765,-162.5 765,-192.5 899,-192.5 899,-162.5 765,-162.5"/>
<text text-anchor="start" x="773" y="-180.5" font-family="Helvetica,sans-Serif" font-size="10.00">qtreports::detail::</text>
<text text-anchor="middle" x="832" y="-169.5" font-family="Helvetica,sans-Serif" font-size="10.00">ConverterToPDF::convert</text>
</a>
</g>
</g>
<!-- Node9&#45;&gt;Node10 -->
<g id="edge10" class="edge"><title>Node9&#45;&gt;Node10</title>
<path fill="none" stroke="midnightblue" d="M717.703,-177.5C733.214,-177.5 749.502,-177.5 764.738,-177.5"/>
<polygon fill="midnightblue" stroke="midnightblue" points="717.64,-174 707.64,-177.5 717.64,-181 717.64,-174"/>
</g>
<!-- Node11 -->
<g id="node11" class="node"><title>Node11</title>
<g id="a_node11"><a xlink:href="classqtreports_1_1_engine.html#a34b6ccdf31af3bd275d9fb95100c6bda" target="_top" xlink:title="Создает PDF документ отчета по указанному пути ">
<polygon fill="none" stroke="black" points="957.5,-162.5 957.5,-192.5 1062.5,-192.5 1062.5,-162.5 957.5,-162.5"/>
<text text-anchor="start" x="965.5" y="-180.5" font-family="Helvetica,sans-Serif" font-size="10.00">qtreports::Engine::</text>
<text text-anchor="middle" x="1010" y="-169.5" font-family="Helvetica,sans-Serif" font-size="10.00">createPDF</text>
</a>
</g>
</g>
<!-- Node10&#45;&gt;Node11 -->
<g id="edge11" class="edge"><title>Node10&#45;&gt;Node11</title>
<path fill="none" stroke="midnightblue" d="M909.108,-177.5C925.432,-177.5 942.311,-177.5 957.445,-177.5"/>
<polygon fill="midnightblue" stroke="midnightblue" points="909.037,-174 899.037,-177.5 909.037,-181 909.037,-174"/>
</g>
<!-- Node12&#45;&gt;Node9 -->
<g id="edge13" class="edge"><title>Node12&#45;&gt;Node9</title>
<path fill="none" stroke="midnightblue" d="M536.205,-156.188C550.778,-159.11 565.539,-162.069 579.235,-164.815"/>
<polygon fill="midnightblue" stroke="midnightblue" points="536.654,-152.708 526.161,-154.174 535.278,-159.572 536.654,-152.708"/>
</g>
<!-- Node14 -->
<g id="node14" class="node"><title>Node14</title>
<g id="a_node14"><a xlink:href="classqtreports_1_1detail_1_1_converter_to_q_widget.html#a96a53267cf2b8092e174906ea7f0f56f" target="_top" xlink:title="Конвертирует отчет в QWidget. ">
<polygon fill="none" stroke="black" points="584,-44 584,-85 703,-85 703,-44 584,-44"/>
<text text-anchor="start" x="592" y="-73" font-family="Helvetica,sans-Serif" font-size="10.00">qtreports::detail::</text>
<text text-anchor="start" x="592" y="-62" font-family="Helvetica,sans-Serif" font-size="10.00">ConverterToQWidget::</text>
<text text-anchor="middle" x="643.5" y="-51" font-family="Helvetica,sans-Serif" font-size="10.00">createQWidget</text>
</a>
</g>
</g>
<!-- Node13&#45;&gt;Node14 -->
<g id="edge15" class="edge"><title>Node13&#45;&gt;Node14</title>
<path fill="none" stroke="midnightblue" d="M309.925,-84.38C387.167,-79.7627 511.082,-72.3556 583.858,-68.0054"/>
<polygon fill="midnightblue" stroke="midnightblue" points="309.585,-80.8939 299.812,-84.9845 310.003,-87.8815 309.585,-80.8939"/>
</g>
<!-- Node20 -->
<g id="node20" class="node"><title>Node20</title>
<g id="a_node20"><a xlink:href="classqtreports_1_1detail_1_1_converter_to_q_widget.html#ac98aceb5ee703053d7691029da84e296" target="_top" xlink:title="Функция добавления группировок в отчет. ">
<polygon fill="none" stroke="black" points="382.5,-19 382.5,-60 501.5,-60 501.5,-19 382.5,-19"/>
<text text-anchor="start" x="390.5" y="-48" font-family="Helvetica,sans-Serif" font-size="10.00">qtreports::detail::</text>
<text text-anchor="start" x="390.5" y="-37" font-family="Helvetica,sans-Serif" font-size="10.00">ConverterToQWidget::</text>
<text text-anchor="middle" x="442" y="-26" font-family="Helvetica,sans-Serif" font-size="10.00">addGroupsIntoReport</text>
</a>
</g>
</g>
<!-- Node13&#45;&gt;Node20 -->
<g id="edge21" class="edge"><title>Node13&#45;&gt;Node20</title>
<path fill="none" stroke="midnightblue" d="M309.619,-71.6884C333.282,-65.891 359.553,-59.4546 382.346,-53.8703"/>
<polygon fill="midnightblue" stroke="midnightblue" points="308.535,-68.3503 299.655,-74.1295 310.201,-75.1492 308.535,-68.3503"/>
</g>
<!-- Node15 -->
<g id="node15" class="node"><title>Node15</title>
<g id="a_node15"><a xlink:href="classqtreports_1_1detail_1_1_converter_to_q_widget.html#a4b42725ccbbc910522dca786da95fbb6" target="_top" xlink:title="Конвертирует отчет в виджет. ">
<polygon fill="none" stroke="black" points="772.5,-44 772.5,-85 891.5,-85 891.5,-44 772.5,-44"/>
<text text-anchor="start" x="780.5" y="-73" font-family="Helvetica,sans-Serif" font-size="10.00">qtreports::detail::</text>
<text text-anchor="start" x="780.5" y="-62" font-family="Helvetica,sans-Serif" font-size="10.00">ConverterToQWidget::</text>
<text text-anchor="middle" x="832" y="-51" font-family="Helvetica,sans-Serif" font-size="10.00">convert</text>
</a>
</g>
</g>
<!-- Node14&#45;&gt;Node15 -->
<g id="edge16" class="edge"><title>Node14&#45;&gt;Node15</title>
<path fill="none" stroke="midnightblue" d="M713.493,-64.5C732.789,-64.5 753.575,-64.5 772.221,-64.5"/>
<polygon fill="midnightblue" stroke="midnightblue" points="713.254,-61.0001 703.254,-64.5 713.254,-68.0001 713.254,-61.0001"/>
</g>
<!-- Node16 -->
<g id="node16" class="node"><title>Node16</title>
<g id="a_node16"><a xlink:href="classqtreports_1_1_engine.html#a2a0fef0c95335eec5df4f61e4ffa7434" target="_top" xlink:title="Создает виджет отчета для вывода на экран. ">
<polygon fill="none" stroke="black" points="957.5,-98.5 957.5,-128.5 1062.5,-128.5 1062.5,-98.5 957.5,-98.5"/>
<text text-anchor="start" x="965.5" y="-116.5" font-family="Helvetica,sans-Serif" font-size="10.00">qtreports::Engine::</text>
<text text-anchor="middle" x="1010" y="-105.5" font-family="Helvetica,sans-Serif" font-size="10.00">createWidget</text>
</a>
</g>
</g>
<!-- Node15&#45;&gt;Node16 -->
<g id="edge17" class="edge"><title>Node15&#45;&gt;Node16</title>
<path fill="none" stroke="midnightblue" d="M901.243,-83.4994C919.927,-88.7013 939.864,-94.252 957.445,-99.1465"/>
<polygon fill="midnightblue" stroke="midnightblue" points="902.178,-80.1267 891.605,-80.8163 900.3,-86.8702 902.178,-80.1267"/>
</g>
<!-- Node17 -->
<g id="node17" class="node"><title>Node17</title>
<g id="a_node17"><a xlink:href="classqtreports_1_1_engine.html#a3966d8f0ebb6c1f94812ec21e21680c0" target="_top" xlink:title="qtreports::Engine::\lcreateLayout">
<polygon fill="none" stroke="black" points="957.5,-49.5 957.5,-79.5 1062.5,-79.5 1062.5,-49.5 957.5,-49.5"/>
<text text-anchor="start" x="965.5" y="-67.5" font-family="Helvetica,sans-Serif" font-size="10.00">qtreports::Engine::</text>
<text text-anchor="middle" x="1010" y="-56.5" font-family="Helvetica,sans-Serif" font-size="10.00">createLayout</text>
</a>
</g>
</g>
<!-- Node15&#45;&gt;Node17 -->
<g id="edge18" class="edge"><title>Node15&#45;&gt;Node17</title>
<path fill="none" stroke="midnightblue" d="M901.757,-64.5C920.293,-64.5 940.026,-64.5 957.445,-64.5"/>
<polygon fill="midnightblue" stroke="midnightblue" points="901.605,-61.0001 891.605,-64.5 901.605,-68.0001 901.605,-61.0001"/>
</g>
<!-- Node18 -->
<g id="node18" class="node"><title>Node18</title>
<g id="a_node18"><a xlink:href="classqtreports_1_1_engine.html#a93dc7711446a155f87d9146efb493f9e" target="_top" xlink:title="qtreports::Engine::\ldrawPreview">
<polygon fill="none" stroke="black" points="957.5,-0.5 957.5,-30.5 1062.5,-30.5 1062.5,-0.5 957.5,-0.5"/>
<text text-anchor="start" x="965.5" y="-18.5" font-family="Helvetica,sans-Serif" font-size="10.00">qtreports::Engine::</text>
<text text-anchor="middle" x="1010" y="-7.5" font-family="Helvetica,sans-Serif" font-size="10.00">drawPreview</text>
</a>
</g>
</g>
<!-- Node15&#45;&gt;Node18 -->
<g id="edge19" class="edge"><title>Node15&#45;&gt;Node18</title>
<path fill="none" stroke="midnightblue" d="M901.243,-45.5006C919.927,-40.2987 939.864,-34.748 957.445,-29.8535"/>
<polygon fill="midnightblue" stroke="midnightblue" points="900.3,-42.1298 891.605,-48.1837 902.178,-48.8733 900.3,-42.1298"/>
</g>
<!-- Node19 -->
<g id="node19" class="node"><title>Node19</title>
<g id="a_node19"><a xlink:href="classqtreports_1_1_engine.html#ae80c66a0bc958bf82e023b646e18d55b" target="_top" xlink:title="qtreports::Engine::\lprint">
<polygon fill="none" stroke="black" points="1117,-0.5 1117,-30.5 1222,-30.5 1222,-0.5 1117,-0.5"/>
<text text-anchor="start" x="1125" y="-18.5" font-family="Helvetica,sans-Serif" font-size="10.00">qtreports::Engine::</text>
<text text-anchor="middle" x="1169.5" y="-7.5" font-family="Helvetica,sans-Serif" font-size="10.00">print</text>
</a>
</g>
</g>
<!-- Node18&#45;&gt;Node19 -->
<g id="edge20" class="edge"><title>Node18&#45;&gt;Node19</title>
<path fill="none" stroke="midnightblue" d="M1072.97,-15.5C1087.49,-15.5 1102.8,-15.5 1116.81,-15.5"/>
<polygon fill="midnightblue" stroke="midnightblue" points="1072.57,-12.0001 1062.57,-15.5 1072.57,-19.0001 1072.57,-12.0001"/>
</g>
<!-- Node20&#45;&gt;Node14 -->
<g id="edge22" class="edge"><title>Node20&#45;&gt;Node14</title>
<path fill="none" stroke="midnightblue" d="M511.447,-48.0774C535.051,-51.0352 561.256,-54.3191 583.992,-57.1682"/>
<polygon fill="midnightblue" stroke="midnightblue" points="511.866,-44.6026 501.509,-46.8319 510.996,-51.5482 511.866,-44.6026"/>
</g>
</g>
</svg>
