<?xml version="1.0" encoding="UTF-8" standalone="no"?>
<!DOCTYPE svg PUBLIC "-//W3C//DTD SVG 1.1//EN"
 "http://www.w3.org/Graphics/SVG/1.1/DTD/svg11.dtd">
<!-- Generated by graphviz version 2.38.0 (20140413.2041)
 -->
<!-- Title: qtreports::detail::Section Pages: 1 -->
<svg width="812pt" height="595pt"
 viewBox="0.00 0.00 811.50 595.00" xmlns="http://www.w3.org/2000/svg" xmlns:xlink="http://www.w3.org/1999/xlink">
<g id="graph0" class="graph" transform="scale(1 1) rotate(0) translate(4 591)">
<title>qtreports::detail::Section</title>
<!-- Node1 -->
<g id="node1" class="node"><title>Node1</title>
<polygon fill="#bfbfbf" stroke="black" points="373.5,-204.5 373.5,-382.5 474.5,-382.5 474.5,-204.5 373.5,-204.5"/>
<text text-anchor="start" x="381.5" y="-370.5" font-family="Helvetica,sans-Serif" font-size="10.00">qtreports::detail::</text>
<text text-anchor="middle" x="424" y="-359.5" font-family="Helvetica,sans-Serif" font-size="10.00">Section</text>
<polyline fill="none" stroke="black" points="373.5,-352.5 474.5,-352.5 "/>
<text text-anchor="start" x="381.5" y="-340.5" font-family="Helvetica,sans-Serif" font-size="10.00"># m_bands</text>
<text text-anchor="start" x="381.5" y="-329.5" font-family="Helvetica,sans-Serif" font-size="10.00"># m_width</text>
<text text-anchor="start" x="381.5" y="-318.5" font-family="Helvetica,sans-Serif" font-size="10.00"># m_height</text>
<polyline fill="none" stroke="black" points="373.5,-311.5 474.5,-311.5 "/>
<text text-anchor="start" x="381.5" y="-299.5" font-family="Helvetica,sans-Serif" font-size="10.00">+ Section()</text>
<text text-anchor="start" x="381.5" y="-288.5" font-family="Helvetica,sans-Serif" font-size="10.00">+ ~Section()</text>
<text text-anchor="start" x="381.5" y="-277.5" font-family="Helvetica,sans-Serif" font-size="10.00">+ setWidth()</text>
<text text-anchor="start" x="381.5" y="-266.5" font-family="Helvetica,sans-Serif" font-size="10.00">+ getWidth()</text>
<text text-anchor="start" x="381.5" y="-255.5" font-family="Helvetica,sans-Serif" font-size="10.00">+ getHeight()</text>
<text text-anchor="start" x="381.5" y="-244.5" font-family="Helvetica,sans-Serif" font-size="10.00">+ addBand()</text>
<text text-anchor="start" x="381.5" y="-233.5" font-family="Helvetica,sans-Serif" font-size="10.00">+ getBand()</text>
<text text-anchor="start" x="381.5" y="-222.5" font-family="Helvetica,sans-Serif" font-size="10.00">+ getBandsSize()</text>
<text text-anchor="start" x="381.5" y="-211.5" font-family="Helvetica,sans-Serif" font-size="10.00">+ getBands()</text>
</g>
<!-- Node3 -->
<g id="node3" class="node"><title>Node3</title>
<g id="a_node3"><a xlink:href="classqtreports_1_1detail_1_1_column_group.html" target="_top" xlink:title="{qtreports::detail::\lColumnGroup\n|&#45; m_crosstabColumnHeaderPtr\l|+ ColumnGroup()\l+ ~ColumnGroup()\l+ setCrosstabColumnHeader()\l+ getCrosstabColumnHeader()\l}">
<polygon fill="none" stroke="black" points="0,-33.5 0,-134.5 166,-134.5 166,-33.5 0,-33.5"/>
<text text-anchor="start" x="8" y="-122.5" font-family="Helvetica,sans-Serif" font-size="10.00">qtreports::detail::</text>
<text text-anchor="middle" x="83" y="-111.5" font-family="Helvetica,sans-Serif" font-size="10.00">ColumnGroup</text>
<polyline fill="none" stroke="black" points="0,-104.5 166,-104.5 "/>
<text text-anchor="start" x="8" y="-92.5" font-family="Helvetica,sans-Serif" font-size="10.00">&#45; m_crosstabColumnHeaderPtr</text>
<polyline fill="none" stroke="black" points="0,-85.5 166,-85.5 "/>
<text text-anchor="start" x="8" y="-73.5" font-family="Helvetica,sans-Serif" font-size="10.00">+ ColumnGroup()</text>
<text text-anchor="start" x="8" y="-62.5" font-family="Helvetica,sans-Serif" font-size="10.00">+ ~ColumnGroup()</text>
<text text-anchor="start" x="8" y="-51.5" font-family="Helvetica,sans-Serif" font-size="10.00">+ setCrosstabColumnHeader()</text>
<text text-anchor="start" x="8" y="-40.5" font-family="Helvetica,sans-Serif" font-size="10.00">+ getCrosstabColumnHeader()</text>
</a>
</g>
</g>
<!-- Node1&#45;&gt;Node3 -->
<g id="edge2" class="edge"><title>Node1&#45;&gt;Node3</title>
<path fill="none" stroke="midnightblue" d="M363.703,-267.862C311.65,-245.331 235.508,-209.292 175,-168 160.607,-158.178 146.112,-146.262 133.02,-134.561"/>
<polygon fill="none" stroke="midnightblue" points="362.564,-271.182 373.133,-271.911 365.325,-264.75 362.564,-271.182"/>
</g>
<!-- Node4 -->
<g id="node4" class="node"><title>Node4</title>
<g id="a_node4"><a xlink:href="classqtreports_1_1detail_1_1_detail.html" target="_top" xlink:title="Класс, реализующий тэг &lt;detail&gt; ">
<polygon fill="none" stroke="black" points="184.5,-44.5 184.5,-123.5 283.5,-123.5 283.5,-44.5 184.5,-44.5"/>
<text text-anchor="start" x="192.5" y="-111.5" font-family="Helvetica,sans-Serif" font-size="10.00">qtreports::detail::</text>
<text text-anchor="middle" x="234" y="-100.5" font-family="Helvetica,sans-Serif" font-size="10.00">Detail</text>
<polyline fill="none" stroke="black" points="184.5,-93.5 283.5,-93.5 "/>
<text text-anchor="middle" x="234" y="-81.5" font-family="Helvetica,sans-Serif" font-size="10.00"> </text>
<polyline fill="none" stroke="black" points="184.5,-74.5 283.5,-74.5 "/>
<text text-anchor="start" x="192.5" y="-62.5" font-family="Helvetica,sans-Serif" font-size="10.00">+ Detail()</text>
<text text-anchor="start" x="192.5" y="-51.5" font-family="Helvetica,sans-Serif" font-size="10.00">+ ~Detail()</text>
</a>
</g>
</g>
<!-- Node1&#45;&gt;Node4 -->
<g id="edge3" class="edge"><title>Node1&#45;&gt;Node4</title>
<path fill="none" stroke="midnightblue" d="M365.732,-242.309C341.794,-220.506 314.479,-194.033 292,-168 280.166,-154.295 268.466,-138.183 258.707,-123.818"/>
<polygon fill="none" stroke="midnightblue" points="363.609,-245.108 373.375,-249.218 368.303,-239.915 363.609,-245.108"/>
</g>
<!-- Node5 -->
<g id="node5" class="node"><title>Node5</title>
<g id="a_node5"><a xlink:href="classqtreports_1_1detail_1_1_group.html" target="_top" xlink:title="Класс, реализующий тэг &lt;group&gt; ">
<polygon fill="none" stroke="black" points="301.5,-0.5 301.5,-167.5 404.5,-167.5 404.5,-0.5 301.5,-0.5"/>
<text text-anchor="start" x="309.5" y="-155.5" font-family="Helvetica,sans-Serif" font-size="10.00">qtreports::detail::</text>
<text text-anchor="middle" x="353" y="-144.5" font-family="Helvetica,sans-Serif" font-size="10.00">Group</text>
<polyline fill="none" stroke="black" points="301.5,-137.5 404.5,-137.5 "/>
<text text-anchor="start" x="309.5" y="-125.5" font-family="Helvetica,sans-Serif" font-size="10.00">&#45; m_expression</text>
<text text-anchor="start" x="309.5" y="-114.5" font-family="Helvetica,sans-Serif" font-size="10.00">&#45; m_header</text>
<text text-anchor="start" x="309.5" y="-103.5" font-family="Helvetica,sans-Serif" font-size="10.00">&#45; m_footer</text>
<polyline fill="none" stroke="black" points="301.5,-96.5 404.5,-96.5 "/>
<text text-anchor="start" x="309.5" y="-84.5" font-family="Helvetica,sans-Serif" font-size="10.00">+ Group()</text>
<text text-anchor="start" x="309.5" y="-73.5" font-family="Helvetica,sans-Serif" font-size="10.00">+ ~Group()</text>
<text text-anchor="start" x="309.5" y="-62.5" font-family="Helvetica,sans-Serif" font-size="10.00">+ setExpression()</text>
<text text-anchor="start" x="309.5" y="-51.5" font-family="Helvetica,sans-Serif" font-size="10.00">+ getExpression()</text>
<text text-anchor="start" x="309.5" y="-40.5" font-family="Helvetica,sans-Serif" font-size="10.00">+ setHeader()</text>
<text text-anchor="start" x="309.5" y="-29.5" font-family="Helvetica,sans-Serif" font-size="10.00">+ getHeader()</text>
<text text-anchor="start" x="309.5" y="-18.5" font-family="Helvetica,sans-Serif" font-size="10.00">+ setFooter()</text>
<text text-anchor="start" x="309.5" y="-7.5" font-family="Helvetica,sans-Serif" font-size="10.00">+ getFooter()</text>
</a>
</g>
</g>
<!-- Node1&#45;&gt;Node5 -->
<g id="edge4" class="edge"><title>Node1&#45;&gt;Node5</title>
<path fill="none" stroke="midnightblue" d="M390.462,-194.483C387.386,-185.496 384.291,-176.45 381.269,-167.619"/>
<polygon fill="none" stroke="midnightblue" points="387.238,-195.872 393.787,-204.2 393.861,-193.606 387.238,-195.872"/>
</g>
<!-- Node6 -->
<g id="node6" class="node"><title>Node6</title>
<g id="a_node6"><a xlink:href="classqtreports_1_1detail_1_1_row_group.html" target="_top" xlink:title="{qtreports::detail::\lRowGroup\n|&#45; m_crosstabRowHeaderPtr\l|+ RowGroup()\l+ ~RowGroup()\l+ setCrosstabRowHeader()\l+ getCrosstabRowHeader()\l}">
<polygon fill="none" stroke="black" points="422.5,-33.5 422.5,-134.5 569.5,-134.5 569.5,-33.5 422.5,-33.5"/>
<text text-anchor="start" x="430.5" y="-122.5" font-family="Helvetica,sans-Serif" font-size="10.00">qtreports::detail::</text>
<text text-anchor="middle" x="496" y="-111.5" font-family="Helvetica,sans-Serif" font-size="10.00">RowGroup</text>
<polyline fill="none" stroke="black" points="422.5,-104.5 569.5,-104.5 "/>
<text text-anchor="start" x="430.5" y="-92.5" font-family="Helvetica,sans-Serif" font-size="10.00">&#45; m_crosstabRowHeaderPtr</text>
<polyline fill="none" stroke="black" points="422.5,-85.5 569.5,-85.5 "/>
<text text-anchor="start" x="430.5" y="-73.5" font-family="Helvetica,sans-Serif" font-size="10.00">+ RowGroup()</text>
<text text-anchor="start" x="430.5" y="-62.5" font-family="Helvetica,sans-Serif" font-size="10.00">+ ~RowGroup()</text>
<text text-anchor="start" x="430.5" y="-51.5" font-family="Helvetica,sans-Serif" font-size="10.00">+ setCrosstabRowHeader()</text>
<text text-anchor="start" x="430.5" y="-40.5" font-family="Helvetica,sans-Serif" font-size="10.00">+ getCrosstabRowHeader()</text>
</a>
</g>
</g>
<!-- Node1&#45;&gt;Node6 -->
<g id="edge5" class="edge"><title>Node1&#45;&gt;Node6</title>
<path fill="none" stroke="midnightblue" d="M457.949,-194.661C465.18,-173.822 472.521,-152.665 478.801,-134.565"/>
<polygon fill="none" stroke="midnightblue" points="454.61,-193.606 454.639,-204.2 461.224,-195.9 454.61,-193.606"/>
</g>
<!-- Node7 -->
<g id="node7" class="node"><title>Node7</title>
<g id="a_node7"><a xlink:href="classqtreports_1_1detail_1_1_summary.html" target="_top" xlink:title="Класс, реализующий тэг ">
<polygon fill="none" stroke="black" points="587.5,-44.5 587.5,-123.5 686.5,-123.5 686.5,-44.5 587.5,-44.5"/>
<text text-anchor="start" x="595.5" y="-111.5" font-family="Helvetica,sans-Serif" font-size="10.00">qtreports::detail::</text>
<text text-anchor="middle" x="637" y="-100.5" font-family="Helvetica,sans-Serif" font-size="10.00">Summary</text>
<polyline fill="none" stroke="black" points="587.5,-93.5 686.5,-93.5 "/>
<text text-anchor="middle" x="637" y="-81.5" font-family="Helvetica,sans-Serif" font-size="10.00"> </text>
<polyline fill="none" stroke="black" points="587.5,-74.5 686.5,-74.5 "/>
<text text-anchor="start" x="595.5" y="-62.5" font-family="Helvetica,sans-Serif" font-size="10.00">+ Summary()</text>
<text text-anchor="start" x="595.5" y="-51.5" font-family="Helvetica,sans-Serif" font-size="10.00">+ ~Summary()</text>
</a>
</g>
</g>
<!-- Node1&#45;&gt;Node7 -->
<g id="edge6" class="edge"><title>Node1&#45;&gt;Node7</title>
<path fill="none" stroke="midnightblue" d="M482.94,-251.424C513.394,-228.706 550.121,-198.875 579,-168 591.489,-154.648 603.403,-138.446 613.148,-123.914"/>
<polygon fill="none" stroke="midnightblue" points="480.492,-248.881 474.529,-257.638 484.652,-254.511 480.492,-248.881"/>
</g>
<!-- Node8 -->
<g id="node8" class="node"><title>Node8</title>
<g id="a_node8"><a xlink:href="classqtreports_1_1detail_1_1_title.html" target="_top" xlink:title="Класс, реализующий тэг &lt;title&gt; ">
<polygon fill="none" stroke="black" points="704.5,-44.5 704.5,-123.5 803.5,-123.5 803.5,-44.5 704.5,-44.5"/>
<text text-anchor="start" x="712.5" y="-111.5" font-family="Helvetica,sans-Serif" font-size="10.00">qtreports::detail::</text>
<text text-anchor="middle" x="754" y="-100.5" font-family="Helvetica,sans-Serif" font-size="10.00">Title</text>
<polyline fill="none" stroke="black" points="704.5,-93.5 803.5,-93.5 "/>
<text text-anchor="middle" x="754" y="-81.5" font-family="Helvetica,sans-Serif" font-size="10.00"> </text>
<polyline fill="none" stroke="black" points="704.5,-74.5 803.5,-74.5 "/>
<text text-anchor="start" x="712.5" y="-62.5" font-family="Helvetica,sans-Serif" font-size="10.00">+ Title()</text>
<text text-anchor="start" x="712.5" y="-51.5" font-family="Helvetica,sans-Serif" font-size="10.00">+ ~Title()</text>
</a>
</g>
</g>
<!-- Node1&#45;&gt;Node8 -->
<g id="edge7" class="edge"><title>Node1&#45;&gt;Node8</title>
<path fill="none" stroke="midnightblue" d="M484.453,-275.132C543.226,-256.02 632.656,-220.822 696,-168 710.716,-155.728 723.415,-138.86 733.147,-123.533"/>
<polygon fill="none" stroke="midnightblue" points="483.033,-271.912 474.571,-278.288 485.162,-278.58 483.033,-271.912"/>
</g>
<!-- Node2 -->
<g id="node2" class="node"><title>Node2</title>
<g id="a_node2"><a xlink:href="classqtreports_1_1detail_1_1_object.html" target="_top" xlink:title="Базовый класс для любого тэга ">
<polygon fill="none" stroke="black" points="374.5,-419.5 374.5,-586.5 473.5,-586.5 473.5,-419.5 374.5,-419.5"/>
<text text-anchor="start" x="382.5" y="-574.5" font-family="Helvetica,sans-Serif" font-size="10.00">qtreports::detail::</text>
<text text-anchor="middle" x="424" y="-563.5" font-family="Helvetica,sans-Serif" font-size="10.00">Object</text>
<polyline fill="none" stroke="black" points="374.5,-556.5 473.5,-556.5 "/>
<text text-anchor="start" x="382.5" y="-544.5" font-family="Helvetica,sans-Serif" font-size="10.00"># m_name</text>
<text text-anchor="start" x="382.5" y="-533.5" font-family="Helvetica,sans-Serif" font-size="10.00"># m_tagName</text>
<text text-anchor="start" x="382.5" y="-522.5" font-family="Helvetica,sans-Serif" font-size="10.00"># m_lastError</text>
<polyline fill="none" stroke="black" points="374.5,-515.5 473.5,-515.5 "/>
<text text-anchor="start" x="382.5" y="-503.5" font-family="Helvetica,sans-Serif" font-size="10.00">+ Object()</text>
<text text-anchor="start" x="382.5" y="-492.5" font-family="Helvetica,sans-Serif" font-size="10.00">+ Object()</text>
<text text-anchor="start" x="382.5" y="-481.5" font-family="Helvetica,sans-Serif" font-size="10.00">+ ~Object()</text>
<text text-anchor="start" x="382.5" y="-470.5" font-family="Helvetica,sans-Serif" font-size="10.00">+ setName()</text>
<text text-anchor="start" x="382.5" y="-459.5" font-family="Helvetica,sans-Serif" font-size="10.00">+ getName()</text>
<text text-anchor="start" x="382.5" y="-448.5" font-family="Helvetica,sans-Serif" font-size="10.00">+ setTagName()</text>
<text text-anchor="start" x="382.5" y="-437.5" font-family="Helvetica,sans-Serif" font-size="10.00">+ getTagName()</text>
<text text-anchor="start" x="382.5" y="-426.5" font-family="Helvetica,sans-Serif" font-size="10.00">+ getLastError()</text>
</a>
</g>
</g>
<!-- Node2&#45;&gt;Node1 -->
<g id="edge1" class="edge"><title>Node2&#45;&gt;Node1</title>
<path fill="none" stroke="midnightblue" d="M424,-409.111C424,-400.297 424,-391.378 424,-382.61"/>
<polygon fill="none" stroke="midnightblue" points="420.5,-409.394 424,-419.394 427.5,-409.394 420.5,-409.394"/>
</g>
</g>
</svg>
