<?xml version="1.0" encoding="UTF-8" standalone="no"?>
<!DOCTYPE svg PUBLIC "-//W3C//DTD SVG 1.1//EN"
 "http://www.w3.org/Graphics/SVG/1.1/DTD/svg11.dtd">
<!-- Generated by graphviz version 2.38.0 (20140413.2041)
 -->
<!-- Title: qtreports::detail::Replacer::replaceField Pages: 1 -->
<svg width="1791pt" height="387pt"
 viewBox="0.00 0.00 1791.00 387.00" xmlns="http://www.w3.org/2000/svg" xmlns:xlink="http://www.w3.org/1999/xlink">
<g id="graph0" class="graph" transform="scale(1 1) rotate(0) translate(4 383)">
<title>qtreports::detail::Replacer::replaceField</title>
<!-- Node1 -->
<g id="node1" class="node"><title>Node1</title>
<polygon fill="#bfbfbf" stroke="black" points="0,-153.5 0,-183.5 119,-183.5 119,-153.5 0,-153.5"/>
<text text-anchor="start" x="8" y="-171.5" font-family="Helvetica,sans-Serif" font-size="10.00">qtreports::detail::</text>
<text text-anchor="middle" x="59.5" y="-160.5" font-family="Helvetica,sans-Serif" font-size="10.00">Replacer::replaceField</text>
</g>
<!-- Node2 -->
<g id="node2" class="node"><title>Node2</title>
<g id="a_node2"><a xlink:href="classqtreports_1_1detail_1_1_converter_to_h_t_m_l.html#a587e5f6bfbd1185f6bf32d76ac231a13" target="_top" xlink:title="Добавление &lt;group&gt; в документ HTML. ">
<polygon fill="none" stroke="black" points="924,-334 924,-375 1082,-375 1082,-334 924,-334"/>
<text text-anchor="start" x="932" y="-363" font-family="Helvetica,sans-Serif" font-size="10.00">qtreports::detail::</text>
<text text-anchor="start" x="932" y="-352" font-family="Helvetica,sans-Serif" font-size="10.00">ConverterToHTML::addGroups</text>
<text text-anchor="middle" x="1003" y="-341" font-family="Helvetica,sans-Serif" font-size="10.00">IntoReport</text>
</a>
</g>
</g>
<!-- Node1&#45;&gt;Node2 -->
<g id="edge1" class="edge"><title>Node1&#45;&gt;Node2</title>
<path fill="none" stroke="midnightblue" d="M71.5049,-192.761C86.1774,-222.196 115.02,-271.036 155,-296.5 264.762,-366.409 311.866,-354.5 442,-354.5 442,-354.5 442,-354.5 624.5,-354.5 728.05,-354.5 847.578,-354.5 923.917,-354.5"/>
<polygon fill="midnightblue" stroke="midnightblue" points="74.5749,-191.069 67.0767,-183.584 68.2705,-194.111 74.5749,-191.069"/>
</g>
<!-- Node7 -->
<g id="node7" class="node"><title>Node7</title>
<g id="a_node7"><a xlink:href="classqtreports_1_1detail_1_1_converter_to_p_d_f.html#adda58d86ecfee05cdcc5e5ce161926ff" target="_top" xlink:title="Добавляет группу в репорт. ">
<polygon fill="none" stroke="black" points="919,-197 919,-238 1087,-238 1087,-197 919,-197"/>
<text text-anchor="start" x="927" y="-226" font-family="Helvetica,sans-Serif" font-size="10.00">qtreports::detail::</text>
<text text-anchor="start" x="927" y="-215" font-family="Helvetica,sans-Serif" font-size="10.00">ConverterToPDF::addGroupsInto</text>
<text text-anchor="middle" x="1003" y="-204" font-family="Helvetica,sans-Serif" font-size="10.00">Report</text>
</a>
</g>
</g>
<!-- Node1&#45;&gt;Node7 -->
<g id="edge6" class="edge"><title>Node1&#45;&gt;Node7</title>
<path fill="none" stroke="midnightblue" d="M110.07,-186.708C124.388,-191.289 140.158,-195.696 155,-198.5 280.612,-222.235 314.165,-217.5 442,-217.5 442,-217.5 442,-217.5 624.5,-217.5 725.757,-217.5 842.29,-217.5 918.781,-217.5"/>
<polygon fill="midnightblue" stroke="midnightblue" points="111.011,-183.333 100.418,-183.526 108.819,-189.981 111.011,-183.333"/>
</g>
<!-- Node11 -->
<g id="node11" class="node"><title>Node11</title>
<g id="a_node11"><a xlink:href="classqtreports_1_1detail_1_1_converter_to_q_widget.html#ac98aceb5ee703053d7691029da84e296" target="_top" xlink:title="Функция добавления группировок в отчет. ">
<polygon fill="none" stroke="black" points="943.5,-64 943.5,-105 1062.5,-105 1062.5,-64 943.5,-64"/>
<text text-anchor="start" x="951.5" y="-93" font-family="Helvetica,sans-Serif" font-size="10.00">qtreports::detail::</text>
<text text-anchor="start" x="951.5" y="-82" font-family="Helvetica,sans-Serif" font-size="10.00">ConverterToQWidget::</text>
<text text-anchor="middle" x="1003" y="-71" font-family="Helvetica,sans-Serif" font-size="10.00">addGroupsIntoReport</text>
</a>
</g>
</g>
<!-- Node1&#45;&gt;Node11 -->
<g id="edge10" class="edge"><title>Node1&#45;&gt;Node11</title>
<path fill="none" stroke="midnightblue" d="M77.0245,-145.365C93.8981,-123.806 122.216,-92.8879 155,-78.5 272.058,-27.1269 314.165,-59.5 442,-59.5 442,-59.5 442,-59.5 624.5,-59.5 737.473,-59.5 869.048,-70.7854 943.231,-78.1914"/>
<polygon fill="midnightblue" stroke="midnightblue" points="74.1869,-143.314 70.9261,-153.395 79.7615,-147.548 74.1869,-143.314"/>
</g>
<!-- Node18 -->
<g id="node18" class="node"><title>Node18</title>
<g id="a_node18"><a xlink:href="classqtreports_1_1detail_1_1_replacer.html#a2114b58c90fe02b17e7bf99e144013b6" target="_top" xlink:title="qtreports::detail::\lReplacer::replaceRowGroupIn\lCrosstab">
<polygon fill="none" stroke="black" points="161.5,-88 161.5,-129 315.5,-129 315.5,-88 161.5,-88"/>
<text text-anchor="start" x="169.5" y="-117" font-family="Helvetica,sans-Serif" font-size="10.00">qtreports::detail::</text>
<text text-anchor="start" x="169.5" y="-106" font-family="Helvetica,sans-Serif" font-size="10.00">Replacer::replaceRowGroupIn</text>
<text text-anchor="middle" x="238.5" y="-95" font-family="Helvetica,sans-Serif" font-size="10.00">Crosstab</text>
</a>
</g>
</g>
<!-- Node1&#45;&gt;Node18 -->
<g id="edge17" class="edge"><title>Node1&#45;&gt;Node18</title>
<path fill="none" stroke="midnightblue" d="M114.851,-150.076C134.452,-143.431 156.694,-135.892 176.803,-129.075"/>
<polygon fill="midnightblue" stroke="midnightblue" points="113.512,-146.834 105.165,-153.359 115.759,-153.464 113.512,-146.834"/>
</g>
<!-- Node22 -->
<g id="node22" class="node"><title>Node22</title>
<g id="a_node22"><a xlink:href="classqtreports_1_1detail_1_1_replacer.html#a781b476a4e964da9e5afe4f642b2f275" target="_top" xlink:title="qtreports::detail::\lReplacer::replaceColumnGroup\lInCrosstab">
<polygon fill="none" stroke="black" points="156.5,-148 156.5,-189 320.5,-189 320.5,-148 156.5,-148"/>
<text text-anchor="start" x="164.5" y="-177" font-family="Helvetica,sans-Serif" font-size="10.00">qtreports::detail::</text>
<text text-anchor="start" x="164.5" y="-166" font-family="Helvetica,sans-Serif" font-size="10.00">Replacer::replaceColumnGroup</text>
<text text-anchor="middle" x="238.5" y="-155" font-family="Helvetica,sans-Serif" font-size="10.00">InCrosstab</text>
</a>
</g>
</g>
<!-- Node1&#45;&gt;Node22 -->
<g id="edge23" class="edge"><title>Node1&#45;&gt;Node22</title>
<path fill="none" stroke="midnightblue" d="M129.619,-168.5C138.415,-168.5 147.48,-168.5 156.442,-168.5"/>
<polygon fill="midnightblue" stroke="midnightblue" points="129.438,-165 119.438,-168.5 129.438,-172 129.438,-165"/>
</g>
<!-- Node24 -->
<g id="node24" class="node"><title>Node24</title>
<g id="a_node24"><a xlink:href="classqtreports_1_1detail_1_1_replacer.html#a9ad7270fd6bdb9a2ba85bdc9652968c8" target="_top" xlink:title="qtreports::detail::\lReplacer::replaceCellInCrosstab">
<polygon fill="none" stroke="black" points="155,-0.5 155,-30.5 322,-30.5 322,-0.5 155,-0.5"/>
<text text-anchor="start" x="163" y="-18.5" font-family="Helvetica,sans-Serif" font-size="10.00">qtreports::detail::</text>
<text text-anchor="middle" x="238.5" y="-7.5" font-family="Helvetica,sans-Serif" font-size="10.00">Replacer::replaceCellInCrosstab</text>
</a>
</g>
</g>
<!-- Node1&#45;&gt;Node24 -->
<g id="edge26" class="edge"><title>Node1&#45;&gt;Node24</title>
<path fill="none" stroke="midnightblue" d="M73.3364,-144.451C89.1513,-116.943 118.467,-72.2621 155,-45.5 163.237,-39.4658 172.814,-34.5352 182.465,-30.5439"/>
<polygon fill="midnightblue" stroke="midnightblue" points="70.1526,-142.973 68.3159,-153.408 76.2587,-146.396 70.1526,-142.973"/>
</g>
<!-- Node25 -->
<g id="node25" class="node"><title>Node25</title>
<g id="a_node25"><a xlink:href="classqtreports_1_1detail_1_1_replacer.html#a2be57bd514335f9b9f2a520247562ce1" target="_top" xlink:title="Заменяет текст виджета текстом с подставленными значениями полей из источника данных. ">
<polygon fill="none" stroke="black" points="165.5,-246 165.5,-287 311.5,-287 311.5,-246 165.5,-246"/>
<text text-anchor="start" x="173.5" y="-275" font-family="Helvetica,sans-Serif" font-size="10.00">qtreports::detail::</text>
<text text-anchor="start" x="173.5" y="-264" font-family="Helvetica,sans-Serif" font-size="10.00">Replacer::replaceFieldInText</text>
<text text-anchor="middle" x="238.5" y="-253" font-family="Helvetica,sans-Serif" font-size="10.00">Widget</text>
</a>
</g>
</g>
<!-- Node1&#45;&gt;Node25 -->
<g id="edge27" class="edge"><title>Node1&#45;&gt;Node25</title>
<path fill="none" stroke="midnightblue" d="M89.2692,-189.727C107.556,-202.696 132.032,-219.113 155,-231.5 164.449,-236.596 174.797,-241.488 184.875,-245.915"/>
<polygon fill="midnightblue" stroke="midnightblue" points="90.989,-186.653 80.8229,-183.669 86.9096,-192.341 90.989,-186.653"/>
</g>
<!-- Node3 -->
<g id="node3" class="node"><title>Node3</title>
<g id="a_node3"><a xlink:href="classqtreports_1_1detail_1_1_converter_to_h_t_m_l.html#ace8358a3612fc8085b7c34f1f92341e2" target="_top" xlink:title="Процесс конвертации репорта в HTML формат. ">
<polygon fill="none" stroke="black" points="1123,-309.5 1123,-339.5 1286,-339.5 1286,-309.5 1123,-309.5"/>
<text text-anchor="start" x="1131" y="-327.5" font-family="Helvetica,sans-Serif" font-size="10.00">qtreports::detail::</text>
<text text-anchor="middle" x="1204.5" y="-316.5" font-family="Helvetica,sans-Serif" font-size="10.00">ConverterToHTML::createHTML</text>
</a>
</g>
</g>
<!-- Node2&#45;&gt;Node3 -->
<g id="edge2" class="edge"><title>Node2&#45;&gt;Node3</title>
<path fill="none" stroke="midnightblue" d="M1092.35,-341.215C1102.49,-339.689 1112.79,-338.14 1122.83,-336.632"/>
<polygon fill="midnightblue" stroke="midnightblue" points="1091.64,-337.781 1082.28,-342.729 1092.68,-344.703 1091.64,-337.781"/>
</g>
<!-- Node4 -->
<g id="node4" class="node"><title>Node4</title>
<g id="a_node4"><a xlink:href="classqtreports_1_1detail_1_1_converter_to_h_t_m_l.html#ad91ac333abf7d02f7590970a54ef7aae" target="_top" xlink:title="Запускает процесс конвертации репорта в HTML формат. ">
<polygon fill="none" stroke="black" points="1322,-309.5 1322,-339.5 1464,-339.5 1464,-309.5 1322,-309.5"/>
<text text-anchor="start" x="1330" y="-327.5" font-family="Helvetica,sans-Serif" font-size="10.00">qtreports::detail::</text>
<text text-anchor="middle" x="1393" y="-316.5" font-family="Helvetica,sans-Serif" font-size="10.00">ConverterToHTML::convert</text>
</a>
</g>
</g>
<!-- Node3&#45;&gt;Node4 -->
<g id="edge3" class="edge"><title>Node3&#45;&gt;Node4</title>
<path fill="none" stroke="midnightblue" d="M1296.32,-324.5C1304.94,-324.5 1313.6,-324.5 1321.99,-324.5"/>
<polygon fill="midnightblue" stroke="midnightblue" points="1296.22,-321 1286.22,-324.5 1296.22,-328 1296.22,-321"/>
</g>
<!-- Node5 -->
<g id="node5" class="node"><title>Node5</title>
<g id="a_node5"><a xlink:href="classqtreports_1_1detail_1_1_converter_to_h_t_m_l.html#a38e92f3fd70f61c44871b22cddffd15a" target="_top" xlink:title="Создает HTML документ при успешной конвертации репорта в HTML формат. ">
<polygon fill="none" stroke="black" points="1500,-348.5 1500,-378.5 1642,-378.5 1642,-348.5 1500,-348.5"/>
<text text-anchor="start" x="1508" y="-366.5" font-family="Helvetica,sans-Serif" font-size="10.00">qtreports::detail::</text>
<text text-anchor="middle" x="1571" y="-355.5" font-family="Helvetica,sans-Serif" font-size="10.00">ConverterToHTML::convert</text>
</a>
</g>
</g>
<!-- Node4&#45;&gt;Node5 -->
<g id="edge4" class="edge"><title>Node4&#45;&gt;Node5</title>
<path fill="none" stroke="midnightblue" d="M1471.85,-341.75C1481.98,-343.995 1492.29,-346.28 1502.24,-348.485"/>
<polygon fill="midnightblue" stroke="midnightblue" points="1472.31,-338.269 1461.79,-339.523 1470.8,-345.103 1472.31,-338.269"/>
</g>
<!-- Node6 -->
<g id="node6" class="node"><title>Node6</title>
<g id="a_node6"><a xlink:href="classqtreports_1_1_engine.html#a551b0db0510d572d56447c471daa0891" target="_top" xlink:title="Создает HTML документ отчета по указанному пути ">
<polygon fill="none" stroke="black" points="1518.5,-299.5 1518.5,-329.5 1623.5,-329.5 1623.5,-299.5 1518.5,-299.5"/>
<text text-anchor="start" x="1526.5" y="-317.5" font-family="Helvetica,sans-Serif" font-size="10.00">qtreports::Engine::</text>
<text text-anchor="middle" x="1571" y="-306.5" font-family="Helvetica,sans-Serif" font-size="10.00">createHTML</text>
</a>
</g>
</g>
<!-- Node4&#45;&gt;Node6 -->
<g id="edge5" class="edge"><title>Node4&#45;&gt;Node6</title>
<path fill="none" stroke="midnightblue" d="M1474.35,-319.935C1489.3,-319.085 1504.54,-318.219 1518.35,-317.435"/>
<polygon fill="midnightblue" stroke="midnightblue" points="1473.85,-316.457 1464.07,-320.519 1474.25,-323.446 1473.85,-316.457"/>
</g>
<!-- Node8 -->
<g id="node8" class="node"><title>Node8</title>
<g id="a_node8"><a xlink:href="classqtreports_1_1detail_1_1_converter_to_p_d_f.html#aad8435572f5ba065f8f2fef428d97b22" target="_top" xlink:title="Конвертирует отчет в PDF документ. ">
<polygon fill="none" stroke="black" points="1140.5,-231.5 1140.5,-261.5 1268.5,-261.5 1268.5,-231.5 1140.5,-231.5"/>
<text text-anchor="start" x="1148.5" y="-249.5" font-family="Helvetica,sans-Serif" font-size="10.00">qtreports::detail::</text>
<text text-anchor="middle" x="1204.5" y="-238.5" font-family="Helvetica,sans-Serif" font-size="10.00">ConverterToPDF::create</text>
</a>
</g>
</g>
<!-- Node7&#45;&gt;Node8 -->
<g id="edge7" class="edge"><title>Node7&#45;&gt;Node8</title>
<path fill="none" stroke="midnightblue" d="M1097.21,-231.049C1111.78,-233.167 1126.54,-235.313 1140.23,-237.304"/>
<polygon fill="midnightblue" stroke="midnightblue" points="1097.56,-227.564 1087.16,-229.589 1096.55,-234.491 1097.56,-227.564"/>
</g>
<!-- Node9 -->
<g id="node9" class="node"><title>Node9</title>
<g id="a_node9"><a xlink:href="classqtreports_1_1detail_1_1_converter_to_p_d_f.html#af39953d8db1bdcbbcf59cc00b05747eb" target="_top" xlink:title="Запускает процесс конвертации. ">
<polygon fill="none" stroke="black" points="1326,-231.5 1326,-261.5 1460,-261.5 1460,-231.5 1326,-231.5"/>
<text text-anchor="start" x="1334" y="-249.5" font-family="Helvetica,sans-Serif" font-size="10.00">qtreports::detail::</text>
<text text-anchor="middle" x="1393" y="-238.5" font-family="Helvetica,sans-Serif" font-size="10.00">ConverterToPDF::convert</text>
</a>
</g>
</g>
<!-- Node8&#45;&gt;Node9 -->
<g id="edge8" class="edge"><title>Node8&#45;&gt;Node9</title>
<path fill="none" stroke="midnightblue" d="M1278.7,-246.5C1294.21,-246.5 1310.5,-246.5 1325.74,-246.5"/>
<polygon fill="midnightblue" stroke="midnightblue" points="1278.64,-243 1268.64,-246.5 1278.64,-250 1278.64,-243"/>
</g>
<!-- Node10 -->
<g id="node10" class="node"><title>Node10</title>
<g id="a_node10"><a xlink:href="classqtreports_1_1_engine.html#a34b6ccdf31af3bd275d9fb95100c6bda" target="_top" xlink:title="Создает PDF документ отчета по указанному пути ">
<polygon fill="none" stroke="black" points="1518.5,-231.5 1518.5,-261.5 1623.5,-261.5 1623.5,-231.5 1518.5,-231.5"/>
<text text-anchor="start" x="1526.5" y="-249.5" font-family="Helvetica,sans-Serif" font-size="10.00">qtreports::Engine::</text>
<text text-anchor="middle" x="1571" y="-238.5" font-family="Helvetica,sans-Serif" font-size="10.00">createPDF</text>
</a>
</g>
</g>
<!-- Node9&#45;&gt;Node10 -->
<g id="edge9" class="edge"><title>Node9&#45;&gt;Node10</title>
<path fill="none" stroke="midnightblue" d="M1470.11,-246.5C1486.43,-246.5 1503.31,-246.5 1518.44,-246.5"/>
<polygon fill="midnightblue" stroke="midnightblue" points="1470.04,-243 1460.04,-246.5 1470.04,-250 1470.04,-243"/>
</g>
<!-- Node12 -->
<g id="node12" class="node"><title>Node12</title>
<g id="a_node12"><a xlink:href="classqtreports_1_1detail_1_1_converter_to_q_widget.html#a96a53267cf2b8092e174906ea7f0f56f" target="_top" xlink:title="Конвертирует отчет в QWidget. ">
<polygon fill="none" stroke="black" points="1145,-89 1145,-130 1264,-130 1264,-89 1145,-89"/>
<text text-anchor="start" x="1153" y="-118" font-family="Helvetica,sans-Serif" font-size="10.00">qtreports::detail::</text>
<text text-anchor="start" x="1153" y="-107" font-family="Helvetica,sans-Serif" font-size="10.00">ConverterToQWidget::</text>
<text text-anchor="middle" x="1204.5" y="-96" font-family="Helvetica,sans-Serif" font-size="10.00">createQWidget</text>
</a>
</g>
</g>
<!-- Node11&#45;&gt;Node12 -->
<g id="edge11" class="edge"><title>Node11&#45;&gt;Node12</title>
<path fill="none" stroke="midnightblue" d="M1072.45,-93.0774C1096.05,-96.0352 1122.26,-99.3191 1144.99,-102.168"/>
<polygon fill="midnightblue" stroke="midnightblue" points="1072.87,-89.6026 1062.51,-91.8319 1072,-96.5482 1072.87,-89.6026"/>
</g>
<!-- Node13 -->
<g id="node13" class="node"><title>Node13</title>
<g id="a_node13"><a xlink:href="classqtreports_1_1detail_1_1_converter_to_q_widget.html#a4b42725ccbbc910522dca786da95fbb6" target="_top" xlink:title="Конвертирует отчет в виджет. ">
<polygon fill="none" stroke="black" points="1333.5,-89 1333.5,-130 1452.5,-130 1452.5,-89 1333.5,-89"/>
<text text-anchor="start" x="1341.5" y="-118" font-family="Helvetica,sans-Serif" font-size="10.00">qtreports::detail::</text>
<text text-anchor="start" x="1341.5" y="-107" font-family="Helvetica,sans-Serif" font-size="10.00">ConverterToQWidget::</text>
<text text-anchor="middle" x="1393" y="-96" font-family="Helvetica,sans-Serif" font-size="10.00">convert</text>
</a>
</g>
</g>
<!-- Node12&#45;&gt;Node13 -->
<g id="edge12" class="edge"><title>Node12&#45;&gt;Node13</title>
<path fill="none" stroke="midnightblue" d="M1274.49,-109.5C1293.79,-109.5 1314.58,-109.5 1333.22,-109.5"/>
<polygon fill="midnightblue" stroke="midnightblue" points="1274.25,-106 1264.25,-109.5 1274.25,-113 1274.25,-106"/>
</g>
<!-- Node14 -->
<g id="node14" class="node"><title>Node14</title>
<g id="a_node14"><a xlink:href="classqtreports_1_1_engine.html#a2a0fef0c95335eec5df4f61e4ffa7434" target="_top" xlink:title="Создает виджет отчета для вывода на экран. ">
<polygon fill="none" stroke="black" points="1518.5,-45.5 1518.5,-75.5 1623.5,-75.5 1623.5,-45.5 1518.5,-45.5"/>
<text text-anchor="start" x="1526.5" y="-63.5" font-family="Helvetica,sans-Serif" font-size="10.00">qtreports::Engine::</text>
<text text-anchor="middle" x="1571" y="-52.5" font-family="Helvetica,sans-Serif" font-size="10.00">createWidget</text>
</a>
</g>
</g>
<!-- Node13&#45;&gt;Node14 -->
<g id="edge13" class="edge"><title>Node13&#45;&gt;Node14</title>
<path fill="none" stroke="midnightblue" d="M1462.24,-90.5006C1480.93,-85.2987 1500.86,-79.748 1518.44,-74.8535"/>
<polygon fill="midnightblue" stroke="midnightblue" points="1461.3,-87.1298 1452.61,-93.1837 1463.18,-93.8733 1461.3,-87.1298"/>
</g>
<!-- Node15 -->
<g id="node15" class="node"><title>Node15</title>
<g id="a_node15"><a xlink:href="classqtreports_1_1_engine.html#a3966d8f0ebb6c1f94812ec21e21680c0" target="_top" xlink:title="qtreports::Engine::\lcreateLayout">
<polygon fill="none" stroke="black" points="1518.5,-143.5 1518.5,-173.5 1623.5,-173.5 1623.5,-143.5 1518.5,-143.5"/>
<text text-anchor="start" x="1526.5" y="-161.5" font-family="Helvetica,sans-Serif" font-size="10.00">qtreports::Engine::</text>
<text text-anchor="middle" x="1571" y="-150.5" font-family="Helvetica,sans-Serif" font-size="10.00">createLayout</text>
</a>
</g>
</g>
<!-- Node13&#45;&gt;Node15 -->
<g id="edge14" class="edge"><title>Node13&#45;&gt;Node15</title>
<path fill="none" stroke="midnightblue" d="M1462.24,-128.499C1480.93,-133.701 1500.86,-139.252 1518.44,-144.146"/>
<polygon fill="midnightblue" stroke="midnightblue" points="1463.18,-125.127 1452.61,-125.816 1461.3,-131.87 1463.18,-125.127"/>
</g>
<!-- Node16 -->
<g id="node16" class="node"><title>Node16</title>
<g id="a_node16"><a xlink:href="classqtreports_1_1_engine.html#a93dc7711446a155f87d9146efb493f9e" target="_top" xlink:title="qtreports::Engine::\ldrawPreview">
<polygon fill="none" stroke="black" points="1518.5,-94.5 1518.5,-124.5 1623.5,-124.5 1623.5,-94.5 1518.5,-94.5"/>
<text text-anchor="start" x="1526.5" y="-112.5" font-family="Helvetica,sans-Serif" font-size="10.00">qtreports::Engine::</text>
<text text-anchor="middle" x="1571" y="-101.5" font-family="Helvetica,sans-Serif" font-size="10.00">drawPreview</text>
</a>
</g>
</g>
<!-- Node13&#45;&gt;Node16 -->
<g id="edge15" class="edge"><title>Node13&#45;&gt;Node16</title>
<path fill="none" stroke="midnightblue" d="M1462.76,-109.5C1481.29,-109.5 1501.03,-109.5 1518.44,-109.5"/>
<polygon fill="midnightblue" stroke="midnightblue" points="1462.61,-106 1452.61,-109.5 1462.61,-113 1462.61,-106"/>
</g>
<!-- Node17 -->
<g id="node17" class="node"><title>Node17</title>
<g id="a_node17"><a xlink:href="classqtreports_1_1_engine.html#ae80c66a0bc958bf82e023b646e18d55b" target="_top" xlink:title="qtreports::Engine::\lprint">
<polygon fill="none" stroke="black" points="1678,-94.5 1678,-124.5 1783,-124.5 1783,-94.5 1678,-94.5"/>
<text text-anchor="start" x="1686" y="-112.5" font-family="Helvetica,sans-Serif" font-size="10.00">qtreports::Engine::</text>
<text text-anchor="middle" x="1730.5" y="-101.5" font-family="Helvetica,sans-Serif" font-size="10.00">print</text>
</a>
</g>
</g>
<!-- Node16&#45;&gt;Node17 -->
<g id="edge16" class="edge"><title>Node16&#45;&gt;Node17</title>
<path fill="none" stroke="midnightblue" d="M1633.97,-109.5C1648.49,-109.5 1663.8,-109.5 1677.81,-109.5"/>
<polygon fill="midnightblue" stroke="midnightblue" points="1633.57,-106 1623.57,-109.5 1633.57,-113 1633.57,-106"/>
</g>
<!-- Node19 -->
<g id="node19" class="node"><title>Node19</title>
<g id="a_node19"><a xlink:href="classqtreports_1_1detail_1_1_replacer.html#ae0f12ba0e77e9ef89b9479272e843fe6" target="_top" xlink:title="qtreports::detail::\lReplacer::replaceRowGroups\lInCrosstab">
<polygon fill="none" stroke="black" points="367.5,-88 367.5,-129 518.5,-129 518.5,-88 367.5,-88"/>
<text text-anchor="start" x="375.5" y="-117" font-family="Helvetica,sans-Serif" font-size="10.00">qtreports::detail::</text>
<text text-anchor="start" x="375.5" y="-106" font-family="Helvetica,sans-Serif" font-size="10.00">Replacer::replaceRowGroups</text>
<text text-anchor="middle" x="443" y="-95" font-family="Helvetica,sans-Serif" font-size="10.00">InCrosstab</text>
</a>
</g>
</g>
<!-- Node18&#45;&gt;Node19 -->
<g id="edge18" class="edge"><title>Node18&#45;&gt;Node19</title>
<path fill="none" stroke="midnightblue" d="M325.786,-108.5C339.658,-108.5 353.913,-108.5 367.479,-108.5"/>
<polygon fill="midnightblue" stroke="midnightblue" points="325.768,-105 315.768,-108.5 325.768,-112 325.768,-105"/>
</g>
<!-- Node20 -->
<g id="node20" class="node"><title>Node20</title>
<g id="a_node20"><a xlink:href="classqtreports_1_1detail_1_1_converter_to_q_widget.html#aa3be16e037533a4a5b58596087207187" target="_top" xlink:title="Создает band. ">
<polygon fill="none" stroke="black" points="564,-113 564,-154 683,-154 683,-113 564,-113"/>
<text text-anchor="start" x="572" y="-142" font-family="Helvetica,sans-Serif" font-size="10.00">qtreports::detail::</text>
<text text-anchor="start" x="572" y="-131" font-family="Helvetica,sans-Serif" font-size="10.00">ConverterToQWidget::</text>
<text text-anchor="middle" x="623.5" y="-120" font-family="Helvetica,sans-Serif" font-size="10.00">createBands</text>
</a>
</g>
</g>
<!-- Node19&#45;&gt;Node20 -->
<g id="edge19" class="edge"><title>Node19&#45;&gt;Node20</title>
<path fill="none" stroke="midnightblue" d="M528.635,-120.354C540.556,-122.023 552.587,-123.708 563.875,-125.289"/>
<polygon fill="midnightblue" stroke="midnightblue" points="529.055,-116.878 518.666,-118.957 528.084,-123.811 529.055,-116.878"/>
</g>
<!-- Node21 -->
<g id="node21" class="node"><title>Node21</title>
<g id="a_node21"><a xlink:href="classqtreports_1_1detail_1_1_converter_to_q_widget.html#a3c95daf9bd10efc4feb71e0d976bbd6e" target="_top" xlink:title="Создает секцию. ">
<polygon fill="none" stroke="black" points="741.5,-113 741.5,-154 860.5,-154 860.5,-113 741.5,-113"/>
<text text-anchor="start" x="749.5" y="-142" font-family="Helvetica,sans-Serif" font-size="10.00">qtreports::detail::</text>
<text text-anchor="start" x="749.5" y="-131" font-family="Helvetica,sans-Serif" font-size="10.00">ConverterToQWidget::</text>
<text text-anchor="middle" x="801" y="-120" font-family="Helvetica,sans-Serif" font-size="10.00">createSection</text>
</a>
</g>
</g>
<!-- Node20&#45;&gt;Node21 -->
<g id="edge20" class="edge"><title>Node20&#45;&gt;Node21</title>
<path fill="none" stroke="midnightblue" d="M693.631,-133.5C709.377,-133.5 725.962,-133.5 741.228,-133.5"/>
<polygon fill="midnightblue" stroke="midnightblue" points="693.427,-130 683.427,-133.5 693.427,-137 693.427,-130"/>
</g>
<!-- Node21&#45;&gt;Node11 -->
<g id="edge22" class="edge"><title>Node21&#45;&gt;Node11</title>
<path fill="none" stroke="midnightblue" d="M870.619,-116.688C894.282,-110.891 920.553,-104.455 943.346,-98.8703"/>
<polygon fill="midnightblue" stroke="midnightblue" points="869.535,-113.35 860.655,-119.129 871.201,-120.149 869.535,-113.35"/>
</g>
<!-- Node21&#45;&gt;Node12 -->
<g id="edge21" class="edge"><title>Node21&#45;&gt;Node12</title>
<path fill="none" stroke="midnightblue" d="M870.925,-129.38C948.167,-124.763 1072.08,-117.356 1144.86,-113.005"/>
<polygon fill="midnightblue" stroke="midnightblue" points="870.585,-125.894 860.812,-129.984 871.003,-132.881 870.585,-125.894"/>
</g>
<!-- Node23 -->
<g id="node23" class="node"><title>Node23</title>
<g id="a_node23"><a xlink:href="classqtreports_1_1detail_1_1_replacer.html#aa9fa83cf51d75301b62e11a0a93e2dcc" target="_top" xlink:title="qtreports::detail::\lReplacer::replaceColumnGroups\lInCrosstab">
<polygon fill="none" stroke="black" points="358,-148 358,-189 528,-189 528,-148 358,-148"/>
<text text-anchor="start" x="366" y="-177" font-family="Helvetica,sans-Serif" font-size="10.00">qtreports::detail::</text>
<text text-anchor="start" x="366" y="-166" font-family="Helvetica,sans-Serif" font-size="10.00">Replacer::replaceColumnGroups</text>
<text text-anchor="middle" x="443" y="-155" font-family="Helvetica,sans-Serif" font-size="10.00">InCrosstab</text>
</a>
</g>
</g>
<!-- Node22&#45;&gt;Node23 -->
<g id="edge24" class="edge"><title>Node22&#45;&gt;Node23</title>
<path fill="none" stroke="midnightblue" d="M330.792,-168.5C339.787,-168.5 348.887,-168.5 357.805,-168.5"/>
<polygon fill="midnightblue" stroke="midnightblue" points="330.698,-165 320.698,-168.5 330.698,-172 330.698,-165"/>
</g>
<!-- Node23&#45;&gt;Node20 -->
<g id="edge25" class="edge"><title>Node23&#45;&gt;Node20</title>
<path fill="none" stroke="midnightblue" d="M537.973,-150.074C546.78,-148.347 555.524,-146.633 563.863,-144.997"/>
<polygon fill="midnightblue" stroke="midnightblue" points="537.163,-146.666 528.023,-152.025 538.51,-153.535 537.163,-146.666"/>
</g>
<!-- Node26 -->
<g id="node26" class="node"><title>Node26</title>
<g id="a_node26"><a xlink:href="classqtreports_1_1detail_1_1_replacer.html#a58cf857aa78eb3e273f6543769af425b" target="_top" xlink:title="Заменяет текст всех виджетов секции текстом с подставленными значениями полей из источника данных...">
<polygon fill="none" stroke="black" points="361,-250.5 361,-280.5 525,-280.5 525,-250.5 361,-250.5"/>
<text text-anchor="start" x="369" y="-268.5" font-family="Helvetica,sans-Serif" font-size="10.00">qtreports::detail::</text>
<text text-anchor="middle" x="443" y="-257.5" font-family="Helvetica,sans-Serif" font-size="10.00">Replacer::replaceFieldInSection</text>
</a>
</g>
</g>
<!-- Node25&#45;&gt;Node26 -->
<g id="edge28" class="edge"><title>Node25&#45;&gt;Node26</title>
<path fill="none" stroke="midnightblue" d="M321.935,-266.093C334.768,-266.03 348.018,-265.964 360.823,-265.901"/>
<polygon fill="midnightblue" stroke="midnightblue" points="321.732,-262.594 311.75,-266.143 321.767,-269.594 321.732,-262.594"/>
</g>
<!-- Node27 -->
<g id="node27" class="node"><title>Node27</title>
<g id="a_node27"><a xlink:href="classqtreports_1_1detail_1_1_replacer.html#af7ccb83be264f7c72b7485cf38455450" target="_top" xlink:title="Заменяет текст всех виджетов секции текстом с подставленными значениями. ">
<polygon fill="none" stroke="black" points="574,-248.5 574,-278.5 673,-278.5 673,-248.5 574,-248.5"/>
<text text-anchor="start" x="582" y="-266.5" font-family="Helvetica,sans-Serif" font-size="10.00">qtreports::detail::</text>
<text text-anchor="middle" x="623.5" y="-255.5" font-family="Helvetica,sans-Serif" font-size="10.00">Replacer::replace</text>
</a>
</g>
</g>
<!-- Node26&#45;&gt;Node27 -->
<g id="edge29" class="edge"><title>Node26&#45;&gt;Node27</title>
<path fill="none" stroke="midnightblue" d="M535.283,-264.477C548.539,-264.329 561.735,-264.181 573.7,-264.047"/>
<polygon fill="midnightblue" stroke="midnightblue" points="535.114,-260.979 525.154,-264.591 535.193,-267.978 535.114,-260.979"/>
</g>
<!-- Node27&#45;&gt;Node21 -->
<g id="edge36" class="edge"><title>Node27&#45;&gt;Node21</title>
<path fill="none" stroke="midnightblue" d="M653.272,-242.188C686.169,-217.82 739.655,-178.2 772.158,-154.124"/>
<polygon fill="midnightblue" stroke="midnightblue" points="650.928,-239.568 644.976,-248.333 655.094,-245.193 650.928,-239.568"/>
</g>
<!-- Node28 -->
<g id="node28" class="node"><title>Node28</title>
<g id="a_node28"><a xlink:href="classqtreports_1_1detail_1_1_converter_to_h_t_m_l.html#aa9d511353f62cfc489c3e071ebf5182b" target="_top" xlink:title="Добавление &lt;band&gt;, принадлежащего конкретной &lt;section&gt;, в документ HTML. ">
<polygon fill="none" stroke="black" points="724,-295.5 724,-325.5 878,-325.5 878,-295.5 724,-295.5"/>
<text text-anchor="start" x="732" y="-313.5" font-family="Helvetica,sans-Serif" font-size="10.00">qtreports::detail::</text>
<text text-anchor="middle" x="801" y="-302.5" font-family="Helvetica,sans-Serif" font-size="10.00">ConverterToHTML::addBands</text>
</a>
</g>
</g>
<!-- Node27&#45;&gt;Node28 -->
<g id="edge30" class="edge"><title>Node27&#45;&gt;Node28</title>
<path fill="none" stroke="midnightblue" d="M683.117,-279.198C702.729,-284.45 724.531,-290.289 743.943,-295.488"/>
<polygon fill="midnightblue" stroke="midnightblue" points="683.952,-275.798 673.387,-276.592 682.141,-282.56 683.952,-275.798"/>
</g>
<!-- Node29 -->
<g id="node29" class="node"><title>Node29</title>
<g id="a_node29"><a xlink:href="classqtreports_1_1detail_1_1_converter_to_p_d_f.html#a5d9212cf5250d8d938359c417537337c" target="_top" xlink:title="Создает секцию. ">
<polygon fill="none" stroke="black" points="719,-246.5 719,-276.5 883,-276.5 883,-246.5 719,-246.5"/>
<text text-anchor="start" x="727" y="-264.5" font-family="Helvetica,sans-Serif" font-size="10.00">qtreports::detail::</text>
<text text-anchor="middle" x="801" y="-253.5" font-family="Helvetica,sans-Serif" font-size="10.00">ConverterToPDF::createSection</text>
</a>
</g>
</g>
<!-- Node27&#45;&gt;Node29 -->
<g id="edge33" class="edge"><title>Node27&#45;&gt;Node29</title>
<path fill="none" stroke="midnightblue" d="M683.55,-262.827C694.864,-262.698 706.893,-262.561 718.762,-262.426"/>
<polygon fill="midnightblue" stroke="midnightblue" points="683.346,-259.329 673.387,-262.943 683.426,-266.329 683.346,-259.329"/>
</g>
<!-- Node28&#45;&gt;Node2 -->
<g id="edge32" class="edge"><title>Node28&#45;&gt;Node2</title>
<path fill="none" stroke="midnightblue" d="M880.076,-327.677C894.411,-330.83 909.377,-334.123 923.717,-337.278"/>
<polygon fill="midnightblue" stroke="midnightblue" points="880.788,-324.25 870.269,-325.519 879.284,-331.086 880.788,-324.25"/>
</g>
<!-- Node28&#45;&gt;Node3 -->
<g id="edge31" class="edge"><title>Node28&#45;&gt;Node3</title>
<path fill="none" stroke="midnightblue" d="M888.515,-313.517C958.029,-315.941 1054.93,-319.32 1122.85,-321.688"/>
<polygon fill="midnightblue" stroke="midnightblue" points="888.58,-310.017 878.464,-313.166 888.336,-317.013 888.58,-310.017"/>
</g>
<!-- Node29&#45;&gt;Node7 -->
<g id="edge35" class="edge"><title>Node29&#45;&gt;Node7</title>
<path fill="none" stroke="midnightblue" d="M880.289,-244.276C892.933,-241.495 906.063,-238.606 918.818,-235.8"/>
<polygon fill="midnightblue" stroke="midnightblue" points="879.284,-240.914 870.269,-246.481 880.788,-247.75 879.284,-240.914"/>
</g>
<!-- Node29&#45;&gt;Node8 -->
<g id="edge34" class="edge"><title>Node29&#45;&gt;Node8</title>
<path fill="none" stroke="midnightblue" d="M893.696,-258.074C969.173,-255.254 1074.18,-251.332 1140.48,-248.854"/>
<polygon fill="midnightblue" stroke="midnightblue" points="893.112,-254.594 883.25,-258.465 893.373,-261.589 893.112,-254.594"/>
</g>
</g>
</svg>
