<?xml version="1.0" encoding="UTF-8" standalone="no"?>
<!DOCTYPE svg PUBLIC "-//W3C//DTD SVG 1.1//EN"
 "http://www.w3.org/Graphics/SVG/1.1/DTD/svg11.dtd">
<!-- Generated by graphviz version 2.38.0 (20140413.2041)
 -->
<!-- Title: qtreports::Engine::print Pages: 1 -->
<svg width="1801pt" height="621pt"
 viewBox="0.00 0.00 1801.00 620.82" xmlns="http://www.w3.org/2000/svg" xmlns:xlink="http://www.w3.org/1999/xlink">
<g id="graph0" class="graph" transform="scale(1 1) rotate(0) translate(4 616.815)">
<title>qtreports::Engine::print</title>
<!-- Node1 -->
<g id="node1" class="node"><title>Node1</title>
<polygon fill="#bfbfbf" stroke="black" points="0,-263.815 0,-293.815 105,-293.815 105,-263.815 0,-263.815"/>
<text text-anchor="start" x="8" y="-281.815" font-family="Helvetica,sans-Serif" font-size="10.00">qtreports::Engine::</text>
<text text-anchor="middle" x="52.5" y="-270.815" font-family="Helvetica,sans-Serif" font-size="10.00">print</text>
</g>
<!-- Node2 -->
<g id="node2" class="node"><title>Node2</title>
<g id="a_node2"><a xlink:href="classqtreports_1_1_engine.html#a3dda769530e3713bba33c49124ad1ab6" target="_top" xlink:title="qtreports::Engine::\lprepareDB">
<polygon fill="none" stroke="black" points="141,-326.815 141,-356.815 246,-356.815 246,-326.815 141,-326.815"/>
<text text-anchor="start" x="149" y="-344.815" font-family="Helvetica,sans-Serif" font-size="10.00">qtreports::Engine::</text>
<text text-anchor="middle" x="193.5" y="-333.815" font-family="Helvetica,sans-Serif" font-size="10.00">prepareDB</text>
</a>
</g>
</g>
<!-- Node1&#45;&gt;Node2 -->
<g id="edge1" class="edge"><title>Node1&#45;&gt;Node2</title>
<path fill="none" stroke="midnightblue" d="M86.794,-293.905C105.653,-302.453 129.447,-313.237 149.683,-322.409"/>
<polygon fill="midnightblue" stroke="midnightblue" points="148.443,-325.69 158.996,-326.63 151.333,-319.314 148.443,-325.69"/>
</g>
<!-- Node7 -->
<g id="node7" class="node"><title>Node7</title>
<g id="a_node7"><a xlink:href="classqtreports_1_1_engine.html#a93dc7711446a155f87d9146efb493f9e" target="_top" xlink:title="qtreports::Engine::\ldrawPreview">
<polygon fill="none" stroke="black" points="141,-201.815 141,-231.815 246,-231.815 246,-201.815 141,-201.815"/>
<text text-anchor="start" x="149" y="-219.815" font-family="Helvetica,sans-Serif" font-size="10.00">qtreports::Engine::</text>
<text text-anchor="middle" x="193.5" y="-208.815" font-family="Helvetica,sans-Serif" font-size="10.00">drawPreview</text>
</a>
</g>
</g>
<!-- Node1&#45;&gt;Node7 -->
<g id="edge6" class="edge"><title>Node1&#45;&gt;Node7</title>
<path fill="none" stroke="midnightblue" d="M87.148,-263.807C105.876,-255.453 129.386,-244.967 149.443,-236.02"/>
<polygon fill="midnightblue" stroke="midnightblue" points="150.973,-239.17 158.68,-231.9 148.122,-232.778 150.973,-239.17"/>
</g>
<!-- Node3 -->
<g id="node3" class="node"><title>Node3</title>
<g id="a_node3"><a xlink:href="classqtreports_1_1_engine.html#a0c7bf107b4774cccb70577946d67666c" target="_top" xlink:title="Устанавливает запрос, по которому будут заполнятся поля отчета ">
<polygon fill="none" stroke="black" points="289,-373.815 289,-403.815 394,-403.815 394,-373.815 289,-373.815"/>
<text text-anchor="start" x="297" y="-391.815" font-family="Helvetica,sans-Serif" font-size="10.00">qtreports::Engine::</text>
<text text-anchor="middle" x="341.5" y="-380.815" font-family="Helvetica,sans-Serif" font-size="10.00">setQuery</text>
</a>
</g>
</g>
<!-- Node2&#45;&gt;Node3 -->
<g id="edge2" class="edge"><title>Node2&#45;&gt;Node3</title>
<path fill="none" stroke="midnightblue" d="M241.097,-356.816C254.793,-361.225 269.923,-366.095 284.16,-370.678"/>
<polygon fill="midnightblue" stroke="midnightblue" points="283.254,-374.063 293.845,-373.796 285.399,-367.4 283.254,-374.063"/>
</g>
<!-- Node4 -->
<g id="node4" class="node"><title>Node4</title>
<g id="a_node4"><a xlink:href="classqtreports_1_1_engine.html#ac214aea9f2f2b795307550290fa1d1ae" target="_top" xlink:title="qtreports::Engine::\lexecuteQueries">
<polygon fill="none" stroke="black" points="444,-550.815 444,-580.815 549,-580.815 549,-550.815 444,-550.815"/>
<text text-anchor="start" x="452" y="-568.815" font-family="Helvetica,sans-Serif" font-size="10.00">qtreports::Engine::</text>
<text text-anchor="middle" x="496.5" y="-557.815" font-family="Helvetica,sans-Serif" font-size="10.00">executeQueries</text>
</a>
</g>
</g>
<!-- Node3&#45;&gt;Node4 -->
<g id="edge3" class="edge"><title>Node3&#45;&gt;Node4</title>
<path fill="none" stroke="midnightblue" d="M355.545,-403.906C382.418,-434.995 444.086,-506.336 475.828,-543.057"/>
<polygon fill="midnightblue" stroke="midnightblue" points="473.301,-545.486 482.488,-550.762 478.597,-540.908 473.301,-545.486"/>
</g>
<!-- Node5 -->
<g id="node5" class="node"><title>Node5</title>
<g id="a_node5"><a xlink:href="classqtreports_1_1_engine.html#a1d96729622d140d02108a29034aecea0" target="_top" xlink:title="qtreports::Engine::\lprepareDataSource">
<polygon fill="none" stroke="black" points="596,-573.815 596,-603.815 707,-603.815 707,-573.815 596,-573.815"/>
<text text-anchor="start" x="604" y="-591.815" font-family="Helvetica,sans-Serif" font-size="10.00">qtreports::Engine::</text>
<text text-anchor="middle" x="651.5" y="-580.815" font-family="Helvetica,sans-Serif" font-size="10.00">prepareDataSource</text>
</a>
</g>
</g>
<!-- Node4&#45;&gt;Node5 -->
<g id="edge4" class="edge"><title>Node4&#45;&gt;Node5</title>
<path fill="none" stroke="midnightblue" d="M549.299,-573.602C561.016,-575.363 573.599,-577.255 585.774,-579.085"/>
<polygon fill="midnightblue" stroke="midnightblue" points="585.469,-582.578 595.878,-580.604 586.509,-575.656 585.469,-582.578"/>
</g>
<!-- Node6 -->
<g id="node6" class="node"><title>Node6</title>
<g id="a_node6"><a xlink:href="classqtreports_1_1_engine.html#ad6379f091871349d33f9a59e982160c4" target="_top" xlink:title="qtreports::Engine::\lgetReport">
<polygon fill="none" stroke="black" points="754,-573.815 754,-603.815 859,-603.815 859,-573.815 754,-573.815"/>
<text text-anchor="start" x="762" y="-591.815" font-family="Helvetica,sans-Serif" font-size="10.00">qtreports::Engine::</text>
<text text-anchor="middle" x="806.5" y="-580.815" font-family="Helvetica,sans-Serif" font-size="10.00">getReport</text>
</a>
</g>
</g>
<!-- Node5&#45;&gt;Node6 -->
<g id="edge5" class="edge"><title>Node5&#45;&gt;Node6</title>
<path fill="none" stroke="midnightblue" d="M707.304,-588.815C719.161,-588.815 731.776,-588.815 743.875,-588.815"/>
<polygon fill="midnightblue" stroke="midnightblue" points="743.889,-592.315 753.889,-588.815 743.889,-585.315 743.889,-592.315"/>
</g>
<!-- Node8 -->
<g id="node8" class="node"><title>Node8</title>
<g id="a_node8"><a xlink:href="classqtreports_1_1detail_1_1_converter_to_q_widget.html#a4b42725ccbbc910522dca786da95fbb6" target="_top" xlink:title="Конвертирует отчет в виджет. ">
<polygon fill="none" stroke="black" points="282,-226.315 282,-267.315 401,-267.315 401,-226.315 282,-226.315"/>
<text text-anchor="start" x="290" y="-255.315" font-family="Helvetica,sans-Serif" font-size="10.00">qtreports::detail::</text>
<text text-anchor="start" x="290" y="-244.315" font-family="Helvetica,sans-Serif" font-size="10.00">ConverterToQWidget::</text>
<text text-anchor="middle" x="341.5" y="-233.315" font-family="Helvetica,sans-Serif" font-size="10.00">convert</text>
</a>
</g>
</g>
<!-- Node7&#45;&gt;Node8 -->
<g id="edge7" class="edge"><title>Node7&#45;&gt;Node8</title>
<path fill="none" stroke="midnightblue" d="M246.385,-227.477C254.633,-229.171 263.274,-230.947 271.835,-232.706"/>
<polygon fill="midnightblue" stroke="midnightblue" points="271.32,-236.173 281.82,-234.758 272.729,-229.316 271.32,-236.173"/>
</g>
<!-- Node34 -->
<g id="node34" class="node"><title>Node34</title>
<g id="a_node34"><a xlink:href="classqtreports_1_1detail_1_1_converter_to_q_widget.html#aba09b9782ffddba920ee7b881f3e8f99" target="_top" xlink:title="Возвращает информацию о последней ошибке, возникшей в процессе конвертации. ">
<polygon fill="none" stroke="black" points="282,-166.315 282,-207.315 401,-207.315 401,-166.315 282,-166.315"/>
<text text-anchor="start" x="290" y="-195.315" font-family="Helvetica,sans-Serif" font-size="10.00">qtreports::detail::</text>
<text text-anchor="start" x="290" y="-184.315" font-family="Helvetica,sans-Serif" font-size="10.00">ConverterToQWidget::</text>
<text text-anchor="middle" x="341.5" y="-173.315" font-family="Helvetica,sans-Serif" font-size="10.00">getLastError</text>
</a>
</g>
</g>
<!-- Node7&#45;&gt;Node34 -->
<g id="edge50" class="edge"><title>Node7&#45;&gt;Node34</title>
<path fill="none" stroke="midnightblue" d="M246.385,-206.154C254.633,-204.459 263.274,-202.684 271.835,-200.925"/>
<polygon fill="midnightblue" stroke="midnightblue" points="272.729,-204.314 281.82,-198.873 271.32,-197.457 272.729,-204.314"/>
</g>
<!-- Node35 -->
<g id="node35" class="node"><title>Node35</title>
<g id="a_node35"><a xlink:href="classqtreports_1_1detail_1_1_converter_to_q_widget.html#a7ee736dd6be3d2cd5b3407751d94617a" target="_top" xlink:title="Возвращает список всех страниц виджета. ">
<polygon fill="none" stroke="black" points="282,-106.315 282,-147.315 401,-147.315 401,-106.315 282,-106.315"/>
<text text-anchor="start" x="290" y="-135.315" font-family="Helvetica,sans-Serif" font-size="10.00">qtreports::detail::</text>
<text text-anchor="start" x="290" y="-124.315" font-family="Helvetica,sans-Serif" font-size="10.00">ConverterToQWidget::</text>
<text text-anchor="middle" x="341.5" y="-113.315" font-family="Helvetica,sans-Serif" font-size="10.00">getPages</text>
</a>
</g>
</g>
<!-- Node7&#45;&gt;Node35 -->
<g id="edge51" class="edge"><title>Node7&#45;&gt;Node35</title>
<path fill="none" stroke="midnightblue" d="M214.875,-201.749C232.305,-189.128 258.266,-170.96 282,-156.815 284.482,-155.336 287.045,-153.856 289.649,-152.39"/>
<polygon fill="midnightblue" stroke="midnightblue" points="291.516,-155.358 298.6,-147.48 288.149,-149.221 291.516,-155.358"/>
</g>
<!-- Node9 -->
<g id="node9" class="node"><title>Node9</title>
<g id="a_node9"><a xlink:href="classqtreports_1_1detail_1_1_converter_to_q_widget.html#a96a53267cf2b8092e174906ea7f0f56f" target="_top" xlink:title="Конвертирует отчет в QWidget. ">
<polygon fill="none" stroke="black" points="437,-182.315 437,-223.315 556,-223.315 556,-182.315 437,-182.315"/>
<text text-anchor="start" x="445" y="-211.315" font-family="Helvetica,sans-Serif" font-size="10.00">qtreports::detail::</text>
<text text-anchor="start" x="445" y="-200.315" font-family="Helvetica,sans-Serif" font-size="10.00">ConverterToQWidget::</text>
<text text-anchor="middle" x="496.5" y="-189.315" font-family="Helvetica,sans-Serif" font-size="10.00">createQWidget</text>
</a>
</g>
</g>
<!-- Node8&#45;&gt;Node9 -->
<g id="edge8" class="edge"><title>Node8&#45;&gt;Node9</title>
<path fill="none" stroke="midnightblue" d="M401.216,-229.929C409.727,-227.482 418.549,-224.945 427.227,-222.449"/>
<polygon fill="midnightblue" stroke="midnightblue" points="428.298,-225.783 436.941,-219.656 426.363,-219.056 428.298,-225.783"/>
</g>
<!-- Node10 -->
<g id="node10" class="node"><title>Node10</title>
<g id="a_node10"><a xlink:href="classqtreports_1_1detail_1_1_converter_to_q_widget.html#a23d6229235fca8bd8bbddcc5e2e28f92" target="_top" xlink:title="Добавляет новую страницу на виджет. ">
<polygon fill="none" stroke="black" points="1086.5,-571.315 1086.5,-612.315 1205.5,-612.315 1205.5,-571.315 1086.5,-571.315"/>
<text text-anchor="start" x="1094.5" y="-600.315" font-family="Helvetica,sans-Serif" font-size="10.00">qtreports::detail::</text>
<text text-anchor="start" x="1094.5" y="-589.315" font-family="Helvetica,sans-Serif" font-size="10.00">ConverterToQWidget::</text>
<text text-anchor="middle" x="1146" y="-578.315" font-family="Helvetica,sans-Serif" font-size="10.00">addPage</text>
</a>
</g>
</g>
<!-- Node9&#45;&gt;Node10 -->
<g id="edge9" class="edge"><title>Node9&#45;&gt;Node10</title>
<path fill="none" stroke="midnightblue" d="M511.173,-223.634C528.188,-248.568 559.048,-290.733 592,-320.815 713.99,-432.181 751.498,-457.748 902,-525.815 958.269,-551.264 1026.43,-568.724 1076.23,-579.263"/>
<polygon fill="midnightblue" stroke="midnightblue" points="1075.75,-582.737 1086.25,-581.342 1077.17,-575.883 1075.75,-582.737"/>
</g>
<!-- Node11 -->
<g id="node11" class="node"><title>Node11</title>
<g id="a_node11"><a xlink:href="classqtreports_1_1detail_1_1_converter_to_q_widget.html#af350953efb07bf3393c33846a81b1121" target="_top" xlink:title="Добавляет вертикальную границу. ">
<polygon fill="none" stroke="black" points="747,-23.3152 747,-64.3152 866,-64.3152 866,-23.3152 747,-23.3152"/>
<text text-anchor="start" x="755" y="-52.3152" font-family="Helvetica,sans-Serif" font-size="10.00">qtreports::detail::</text>
<text text-anchor="start" x="755" y="-41.3152" font-family="Helvetica,sans-Serif" font-size="10.00">ConverterToQWidget::</text>
<text text-anchor="middle" x="806.5" y="-30.3152" font-family="Helvetica,sans-Serif" font-size="10.00">addVerticalBorder</text>
</a>
</g>
</g>
<!-- Node9&#45;&gt;Node11 -->
<g id="edge10" class="edge"><title>Node9&#45;&gt;Node11</title>
<path fill="none" stroke="midnightblue" d="M520.303,-182.299C538.694,-166.491 565.738,-144.863 592,-129.815 638.255,-103.311 694.283,-81.0751 737.335,-65.8571"/>
<polygon fill="midnightblue" stroke="midnightblue" points="738.584,-69.1281 746.87,-62.5259 736.276,-62.5198 738.584,-69.1281"/>
</g>
<!-- Node12 -->
<g id="node12" class="node"><title>Node12</title>
<g id="a_node12"><a xlink:href="classqtreports_1_1detail_1_1_converter_to_q_widget.html#a76bb37f2855d12afc9056c75cdbc5e0b" target="_top" xlink:title="Проверяет, является ли виджет типа WidgetType::Layout. ">
<polygon fill="none" stroke="black" points="1086.5,-160.315 1086.5,-201.315 1205.5,-201.315 1205.5,-160.315 1086.5,-160.315"/>
<text text-anchor="start" x="1094.5" y="-189.315" font-family="Helvetica,sans-Serif" font-size="10.00">qtreports::detail::</text>
<text text-anchor="start" x="1094.5" y="-178.315" font-family="Helvetica,sans-Serif" font-size="10.00">ConverterToQWidget::</text>
<text text-anchor="middle" x="1146" y="-167.315" font-family="Helvetica,sans-Serif" font-size="10.00">isLayout</text>
</a>
</g>
</g>
<!-- Node9&#45;&gt;Node12 -->
<g id="edge13" class="edge"><title>Node9&#45;&gt;Node12</title>
<path fill="none" stroke="midnightblue" d="M507.358,-181.986C521.993,-153.156 552.091,-101.213 592,-70.8152 650.391,-26.3405 674.737,-26.681 747,-13.8152 869.4,7.97729 916.59,9.79397 1024,-52.8152 1066.8,-77.7639 1103.89,-122.398 1125.35,-151.81"/>
<polygon fill="midnightblue" stroke="midnightblue" points="1122.58,-153.946 1131.24,-160.042 1128.27,-149.873 1122.58,-153.946"/>
</g>
<!-- Node14 -->
<g id="node14" class="node"><title>Node14</title>
<g id="a_node14"><a xlink:href="classqtreports_1_1detail_1_1_converter_to_q_widget.html#ae126b16c5a846e84f12d86ca8ef253dd" target="_top" xlink:title="Добавляет секцию. ">
<polygon fill="none" stroke="black" points="747,-143.315 747,-184.315 866,-184.315 866,-143.315 747,-143.315"/>
<text text-anchor="start" x="755" y="-172.315" font-family="Helvetica,sans-Serif" font-size="10.00">qtreports::detail::</text>
<text text-anchor="start" x="755" y="-161.315" font-family="Helvetica,sans-Serif" font-size="10.00">ConverterToQWidget::</text>
<text text-anchor="middle" x="806.5" y="-150.315" font-family="Helvetica,sans-Serif" font-size="10.00">addSectionLayout</text>
</a>
</g>
</g>
<!-- Node9&#45;&gt;Node14 -->
<g id="edge14" class="edge"><title>Node9&#45;&gt;Node14</title>
<path fill="none" stroke="midnightblue" d="M556.157,-195.388C607.562,-188.879 682.333,-179.411 736.579,-172.542"/>
<polygon fill="midnightblue" stroke="midnightblue" points="737.318,-175.977 746.799,-171.248 736.439,-169.032 737.318,-175.977"/>
</g>
<!-- Node15 -->
<g id="node15" class="node"><title>Node15</title>
<g id="a_node15"><a xlink:href="classqtreports_1_1detail_1_1_converter_to_q_widget.html#a3c95daf9bd10efc4feb71e0d976bbd6e" target="_top" xlink:title="Создает секцию. ">
<polygon fill="none" stroke="black" points="747,-356.315 747,-397.315 866,-397.315 866,-356.315 747,-356.315"/>
<text text-anchor="start" x="755" y="-385.315" font-family="Helvetica,sans-Serif" font-size="10.00">qtreports::detail::</text>
<text text-anchor="start" x="755" y="-374.315" font-family="Helvetica,sans-Serif" font-size="10.00">ConverterToQWidget::</text>
<text text-anchor="middle" x="806.5" y="-363.315" font-family="Helvetica,sans-Serif" font-size="10.00">createSection</text>
</a>
</g>
</g>
<!-- Node9&#45;&gt;Node15 -->
<g id="edge17" class="edge"><title>Node9&#45;&gt;Node15</title>
<path fill="none" stroke="midnightblue" d="M520.431,-223.567C538.894,-239.628 565.97,-261.766 592,-277.815 640.438,-307.681 699.367,-334.354 743.033,-352.467"/>
<polygon fill="midnightblue" stroke="midnightblue" points="741.808,-355.748 752.388,-356.314 744.47,-349.274 741.808,-355.748"/>
</g>
<!-- Node31 -->
<g id="node31" class="node"><title>Node31</title>
<g id="a_node31"><a xlink:href="classqtreports_1_1detail_1_1_converter_to_q_widget.html#ac98aceb5ee703053d7691029da84e296" target="_top" xlink:title="Функция добавления группировок в отчет. ">
<polygon fill="none" stroke="black" points="592,-227.315 592,-268.315 711,-268.315 711,-227.315 592,-227.315"/>
<text text-anchor="start" x="600" y="-256.315" font-family="Helvetica,sans-Serif" font-size="10.00">qtreports::detail::</text>
<text text-anchor="start" x="600" y="-245.315" font-family="Helvetica,sans-Serif" font-size="10.00">ConverterToQWidget::</text>
<text text-anchor="middle" x="651.5" y="-234.315" font-family="Helvetica,sans-Serif" font-size="10.00">addGroupsIntoReport</text>
</a>
</g>
</g>
<!-- Node9&#45;&gt;Node31 -->
<g id="edge41" class="edge"><title>Node9&#45;&gt;Node31</title>
<path fill="none" stroke="midnightblue" d="M556.216,-220.085C564.727,-222.588 573.549,-225.182 582.227,-227.735"/>
<polygon fill="midnightblue" stroke="midnightblue" points="581.36,-231.128 591.941,-230.592 583.335,-224.412 581.36,-231.128"/>
</g>
<!-- Node33 -->
<g id="node33" class="node"><title>Node33</title>
<g id="a_node33"><a xlink:href="classqtreports_1_1detail_1_1_converter_to_q_widget.html#a21d211f4a1f0f46f2220a0959c36367b" target="_top" xlink:title="Добавляет пустую секцию. ">
<polygon fill="none" stroke="black" points="747,-83.3152 747,-124.315 866,-124.315 866,-83.3152 747,-83.3152"/>
<text text-anchor="start" x="755" y="-112.315" font-family="Helvetica,sans-Serif" font-size="10.00">qtreports::detail::</text>
<text text-anchor="start" x="755" y="-101.315" font-family="Helvetica,sans-Serif" font-size="10.00">ConverterToQWidget::</text>
<text text-anchor="middle" x="806.5" y="-90.3152" font-family="Helvetica,sans-Serif" font-size="10.00">addEmptySection</text>
</a>
</g>
</g>
<!-- Node9&#45;&gt;Node33 -->
<g id="edge47" class="edge"><title>Node9&#45;&gt;Node33</title>
<path fill="none" stroke="midnightblue" d="M556.202,-183.471C568.047,-179.593 580.417,-175.559 592,-171.815 640.419,-156.163 695.101,-138.752 737.002,-125.466"/>
<polygon fill="midnightblue" stroke="midnightblue" points="738.077,-128.797 746.553,-122.439 735.962,-122.124 738.077,-128.797"/>
</g>
<!-- Node11&#45;&gt;Node12 -->
<g id="edge11" class="edge"><title>Node11&#45;&gt;Node12</title>
<path fill="none" stroke="midnightblue" d="M866.036,-50.9229C910.788,-57.8563 973.22,-70.8228 1024,-93.8152 1057.52,-108.994 1091.15,-134.162 1114.41,-153.533"/>
<polygon fill="midnightblue" stroke="midnightblue" points="1112.3,-156.329 1122.19,-160.117 1116.82,-150.986 1112.3,-156.329"/>
</g>
<!-- Node13 -->
<g id="node13" class="node"><title>Node13</title>
<g id="a_node13"><a xlink:href="namespaceqtreports_1_1detail.html#a57ac54d6807a30b13e419a3106735b19" target="_top" xlink:title="qtreports::detail::\lcreateLayout">
<polygon fill="none" stroke="black" points="913.5,-121.815 913.5,-151.815 1012.5,-151.815 1012.5,-121.815 913.5,-121.815"/>
<text text-anchor="start" x="921.5" y="-139.815" font-family="Helvetica,sans-Serif" font-size="10.00">qtreports::detail::</text>
<text text-anchor="middle" x="963" y="-128.815" font-family="Helvetica,sans-Serif" font-size="10.00">createLayout</text>
</a>
</g>
</g>
<!-- Node11&#45;&gt;Node13 -->
<g id="edge12" class="edge"><title>Node11&#45;&gt;Node13</title>
<path fill="none" stroke="midnightblue" d="M849.027,-64.4138C854.781,-67.4699 860.575,-70.6563 866,-73.8152 888.605,-86.9783 913.259,-103.199 931.922,-115.885"/>
<polygon fill="midnightblue" stroke="midnightblue" points="930.077,-118.863 940.307,-121.62 934.029,-113.086 930.077,-118.863"/>
</g>
<!-- Node14&#45;&gt;Node12 -->
<g id="edge15" class="edge"><title>Node14&#45;&gt;Node12</title>
<path fill="none" stroke="midnightblue" d="M866.288,-166.776C924.788,-169.723 1014.52,-174.243 1076.28,-177.354"/>
<polygon fill="midnightblue" stroke="midnightblue" points="1076.16,-180.852 1086.32,-177.859 1076.51,-173.861 1076.16,-180.852"/>
</g>
<!-- Node14&#45;&gt;Node13 -->
<g id="edge16" class="edge"><title>Node14&#45;&gt;Node13</title>
<path fill="none" stroke="midnightblue" d="M866.351,-153.531C878.476,-151.412 891.243,-149.18 903.361,-147.063"/>
<polygon fill="midnightblue" stroke="midnightblue" points="904.111,-150.485 913.359,-145.316 902.905,-143.589 904.111,-150.485"/>
</g>
<!-- Node15&#45;&gt;Node12 -->
<g id="edge18" class="edge"><title>Node15&#45;&gt;Node12</title>
<path fill="none" stroke="midnightblue" d="M866.049,-358.317C911.088,-342.733 973.89,-318.002 1024,-286.815 1059.73,-264.578 1095.32,-231.792 1118.56,-208.581"/>
<polygon fill="midnightblue" stroke="midnightblue" points="1121.11,-210.978 1125.65,-201.407 1116.13,-206.056 1121.11,-210.978"/>
</g>
<!-- Node16 -->
<g id="node16" class="node"><title>Node16</title>
<g id="a_node16"><a xlink:href="classqtreports_1_1detail_1_1_replacer.html#af7ccb83be264f7c72b7485cf38455450" target="_top" xlink:title="Заменяет текст всех виджетов секции текстом с подставленными значениями. ">
<polygon fill="none" stroke="black" points="913.5,-377.815 913.5,-407.815 1012.5,-407.815 1012.5,-377.815 913.5,-377.815"/>
<text text-anchor="start" x="921.5" y="-395.815" font-family="Helvetica,sans-Serif" font-size="10.00">qtreports::detail::</text>
<text text-anchor="middle" x="963" y="-384.815" font-family="Helvetica,sans-Serif" font-size="10.00">Replacer::replace</text>
</a>
</g>
</g>
<!-- Node15&#45;&gt;Node16 -->
<g id="edge19" class="edge"><title>Node15&#45;&gt;Node16</title>
<path fill="none" stroke="midnightblue" d="M866.351,-382.91C878.476,-384.165 891.243,-385.488 903.361,-386.743"/>
<polygon fill="midnightblue" stroke="midnightblue" points="903.051,-390.229 913.359,-387.778 903.773,-383.266 903.051,-390.229"/>
</g>
<!-- Node23 -->
<g id="node23" class="node"><title>Node23</title>
<g id="a_node23"><a xlink:href="classqtreports_1_1detail_1_1_replacer.html#a677f7802e444f2de3af4cb43b6cedf30" target="_top" xlink:title="Возвращает описание последней произошедшей ошибки. ">
<polygon fill="none" stroke="black" points="902,-426.815 902,-456.815 1024,-456.815 1024,-426.815 902,-426.815"/>
<text text-anchor="start" x="910" y="-444.815" font-family="Helvetica,sans-Serif" font-size="10.00">qtreports::detail::</text>
<text text-anchor="middle" x="963" y="-433.815" font-family="Helvetica,sans-Serif" font-size="10.00">Replacer::getLastError</text>
</a>
</g>
</g>
<!-- Node15&#45;&gt;Node23 -->
<g id="edge26" class="edge"><title>Node15&#45;&gt;Node23</title>
<path fill="none" stroke="midnightblue" d="M854.492,-397.521C869.62,-404.101 886.483,-411.347 902,-417.815 906.071,-419.512 910.307,-421.254 914.56,-422.987"/>
<polygon fill="midnightblue" stroke="midnightblue" points="913.262,-426.237 923.844,-426.745 915.888,-419.748 913.262,-426.237"/>
</g>
<!-- Node24 -->
<g id="node24" class="node"><title>Node24</title>
<g id="a_node24"><a xlink:href="classqtreports_1_1detail_1_1_converter_to_q_widget.html#aa3be16e037533a4a5b58596087207187" target="_top" xlink:title="Создает band. ">
<polygon fill="none" stroke="black" points="903.5,-475.315 903.5,-516.315 1022.5,-516.315 1022.5,-475.315 903.5,-475.315"/>
<text text-anchor="start" x="911.5" y="-504.315" font-family="Helvetica,sans-Serif" font-size="10.00">qtreports::detail::</text>
<text text-anchor="start" x="911.5" y="-493.315" font-family="Helvetica,sans-Serif" font-size="10.00">ConverterToQWidget::</text>
<text text-anchor="middle" x="963" y="-482.315" font-family="Helvetica,sans-Serif" font-size="10.00">createBands</text>
</a>
</g>
</g>
<!-- Node15&#45;&gt;Node24 -->
<g id="edge27" class="edge"><title>Node15&#45;&gt;Node24</title>
<path fill="none" stroke="midnightblue" d="M825.504,-397.326C843.47,-416.93 872.57,-446.437 902,-466.815 903.605,-467.927 905.259,-469.018 906.949,-470.086"/>
<polygon fill="midnightblue" stroke="midnightblue" points="905.246,-473.145 915.633,-475.229 908.813,-467.121 905.246,-473.145"/>
</g>
<!-- Node17 -->
<g id="node17" class="node"><title>Node17</title>
<g id="a_node17"><a xlink:href="classqtreports_1_1detail_1_1_replacer.html#a58cf857aa78eb3e273f6543769af425b" target="_top" xlink:title="Заменяет текст всех виджетов секции текстом с подставленными значениями полей из источника данных...">
<polygon fill="none" stroke="black" points="1064,-345.815 1064,-375.815 1228,-375.815 1228,-345.815 1064,-345.815"/>
<text text-anchor="start" x="1072" y="-363.815" font-family="Helvetica,sans-Serif" font-size="10.00">qtreports::detail::</text>
<text text-anchor="middle" x="1146" y="-352.815" font-family="Helvetica,sans-Serif" font-size="10.00">Replacer::replaceFieldInSection</text>
</a>
</g>
</g>
<!-- Node16&#45;&gt;Node17 -->
<g id="edge20" class="edge"><title>Node16&#45;&gt;Node17</title>
<path fill="none" stroke="midnightblue" d="M1012.5,-384.24C1025.35,-381.968 1039.65,-379.441 1053.97,-376.91"/>
<polygon fill="midnightblue" stroke="midnightblue" points="1054.62,-380.348 1063.86,-375.16 1053.41,-373.454 1054.62,-380.348"/>
</g>
<!-- Node22 -->
<g id="node22" class="node"><title>Node22</title>
<g id="a_node22"><a xlink:href="classqtreports_1_1detail_1_1_replacer.html#abb903f1c1172efa7e26b040a5695cc86" target="_top" xlink:title="Возвращает текст с подставленными значениями параметров. ">
<polygon fill="none" stroke="black" points="1069,-394.815 1069,-424.815 1223,-424.815 1223,-394.815 1069,-394.815"/>
<text text-anchor="start" x="1077" y="-412.815" font-family="Helvetica,sans-Serif" font-size="10.00">qtreports::detail::</text>
<text text-anchor="middle" x="1146" y="-401.815" font-family="Helvetica,sans-Serif" font-size="10.00">Replacer::replaceParameters</text>
</a>
</g>
</g>
<!-- Node16&#45;&gt;Node22 -->
<g id="edge25" class="edge"><title>Node16&#45;&gt;Node22</title>
<path fill="none" stroke="midnightblue" d="M1012.5,-397.371C1026.68,-398.702 1042.62,-400.199 1058.4,-401.681"/>
<polygon fill="midnightblue" stroke="midnightblue" points="1058.44,-405.201 1068.73,-402.651 1059.1,-398.231 1058.44,-405.201"/>
</g>
<!-- Node18 -->
<g id="node18" class="node"><title>Node18</title>
<g id="a_node18"><a xlink:href="classqtreports_1_1detail_1_1_replacer.html#a2be57bd514335f9b9f2a520247562ce1" target="_top" xlink:title="Заменяет текст виджета текстом с подставленными значениями полей из источника данных. ">
<polygon fill="none" stroke="black" points="1483,-388.315 1483,-429.315 1629,-429.315 1629,-388.315 1483,-388.315"/>
<text text-anchor="start" x="1491" y="-417.315" font-family="Helvetica,sans-Serif" font-size="10.00">qtreports::detail::</text>
<text text-anchor="start" x="1491" y="-406.315" font-family="Helvetica,sans-Serif" font-size="10.00">Replacer::replaceFieldInText</text>
<text text-anchor="middle" x="1556" y="-395.315" font-family="Helvetica,sans-Serif" font-size="10.00">Widget</text>
</a>
</g>
</g>
<!-- Node17&#45;&gt;Node18 -->
<g id="edge21" class="edge"><title>Node17&#45;&gt;Node18</title>
<path fill="none" stroke="midnightblue" d="M1201.13,-375.855C1221.89,-381.077 1245.9,-386.459 1268,-389.815 1336.58,-400.227 1415.24,-404.934 1472.84,-407.061"/>
<polygon fill="midnightblue" stroke="midnightblue" points="1472.87,-410.564 1482.98,-407.417 1473.11,-403.568 1472.87,-410.564"/>
</g>
<!-- Node20 -->
<g id="node20" class="node"><title>Node20</title>
<g id="a_node20"><a xlink:href="classqtreports_1_1detail_1_1_replacer.html#a4aeb7794f90c0be34a30ab60a6df1920" target="_top" xlink:title="На основе текста виджета вставляет в него изображение из источника данных. ">
<polygon fill="none" stroke="black" points="1274,-339.315 1274,-380.315 1432,-380.315 1432,-339.315 1274,-339.315"/>
<text text-anchor="start" x="1282" y="-368.315" font-family="Helvetica,sans-Serif" font-size="10.00">qtreports::detail::</text>
<text text-anchor="start" x="1282" y="-357.315" font-family="Helvetica,sans-Serif" font-size="10.00">Replacer::replaceFieldInImage</text>
<text text-anchor="middle" x="1353" y="-346.315" font-family="Helvetica,sans-Serif" font-size="10.00">Widget</text>
</a>
</g>
</g>
<!-- Node17&#45;&gt;Node20 -->
<g id="edge23" class="edge"><title>Node17&#45;&gt;Node20</title>
<path fill="none" stroke="midnightblue" d="M1228.02,-360.42C1239.71,-360.363 1251.78,-360.304 1263.6,-360.246"/>
<polygon fill="midnightblue" stroke="midnightblue" points="1263.93,-363.745 1273.91,-360.196 1263.89,-356.745 1263.93,-363.745"/>
</g>
<!-- Node19 -->
<g id="node19" class="node"><title>Node19</title>
<g id="a_node19"><a xlink:href="classqtreports_1_1detail_1_1_replacer.html#a4642b07160798f2ee4de276e1d0c1ecd" target="_top" xlink:title="Возвращает текст с подставленными значениями полей из источника данных. ">
<polygon fill="none" stroke="black" points="1674,-442.815 1674,-472.815 1793,-472.815 1793,-442.815 1674,-442.815"/>
<text text-anchor="start" x="1682" y="-460.815" font-family="Helvetica,sans-Serif" font-size="10.00">qtreports::detail::</text>
<text text-anchor="middle" x="1733.5" y="-449.815" font-family="Helvetica,sans-Serif" font-size="10.00">Replacer::replaceField</text>
</a>
</g>
</g>
<!-- Node18&#45;&gt;Node19 -->
<g id="edge22" class="edge"><title>Node18&#45;&gt;Node19</title>
<path fill="none" stroke="midnightblue" d="M1629.14,-428.957C1642.33,-432.639 1656,-436.455 1668.91,-440.06"/>
<polygon fill="midnightblue" stroke="midnightblue" points="1668.04,-443.452 1678.62,-442.771 1669.93,-436.71 1668.04,-443.452"/>
</g>
<!-- Node21 -->
<g id="node21" class="node"><title>Node21</title>
<g id="a_node21"><a xlink:href="classqtreports_1_1detail_1_1_replacer.html#ae1ac521aeaf5fdd694e79e2ae52d4704" target="_top" xlink:title="Возвращает изображение на основе первого найденного выражения. ">
<polygon fill="none" stroke="black" points="1481.5,-339.815 1481.5,-369.815 1630.5,-369.815 1630.5,-339.815 1481.5,-339.815"/>
<text text-anchor="start" x="1489.5" y="-357.815" font-family="Helvetica,sans-Serif" font-size="10.00">qtreports::detail::</text>
<text text-anchor="middle" x="1556" y="-346.815" font-family="Helvetica,sans-Serif" font-size="10.00">Replacer::replaceFieldImage</text>
</a>
</g>
</g>
<!-- Node20&#45;&gt;Node21 -->
<g id="edge24" class="edge"><title>Node20&#45;&gt;Node21</title>
<path fill="none" stroke="midnightblue" d="M1432.29,-357.868C1444.99,-357.552 1458.18,-357.224 1471.01,-356.904"/>
<polygon fill="midnightblue" stroke="midnightblue" points="1471.29,-360.399 1481.2,-356.651 1471.12,-353.401 1471.29,-360.399"/>
</g>
<!-- Node24&#45;&gt;Node10 -->
<g id="edge28" class="edge"><title>Node24&#45;&gt;Node10</title>
<path fill="none" stroke="midnightblue" d="M1000.52,-516.353C1008.35,-520.971 1016.52,-525.949 1024,-530.815 1040.54,-541.578 1042.76,-547.214 1060,-556.815 1066.42,-560.391 1073.29,-563.814 1080.22,-567.022"/>
<polygon fill="midnightblue" stroke="midnightblue" points="1079.14,-570.37 1089.69,-571.258 1082,-563.98 1079.14,-570.37"/>
</g>
<!-- Node24&#45;&gt;Node12 -->
<g id="edge29" class="edge"><title>Node24&#45;&gt;Node12</title>
<path fill="none" stroke="midnightblue" d="M1015.14,-475.245C1018.4,-472.725 1021.41,-469.924 1024,-466.815 1062.41,-420.783 1037.51,-392.39 1060,-336.815 1078.56,-290.954 1107.23,-241.318 1126.06,-210.643"/>
<polygon fill="midnightblue" stroke="midnightblue" points="1129.27,-212.101 1131.56,-201.757 1123.32,-208.415 1129.27,-212.101"/>
</g>
<!-- Node25 -->
<g id="node25" class="node"><title>Node25</title>
<g id="a_node25"><a xlink:href="classqtreports_1_1detail_1_1_replacer.html#aa9fa83cf51d75301b62e11a0a93e2dcc" target="_top" xlink:title="qtreports::detail::\lReplacer::replaceColumnGroups\lInCrosstab">
<polygon fill="none" stroke="black" points="1268,-486.315 1268,-527.315 1438,-527.315 1438,-486.315 1268,-486.315"/>
<text text-anchor="start" x="1276" y="-515.315" font-family="Helvetica,sans-Serif" font-size="10.00">qtreports::detail::</text>
<text text-anchor="start" x="1276" y="-504.315" font-family="Helvetica,sans-Serif" font-size="10.00">Replacer::replaceColumnGroups</text>
<text text-anchor="middle" x="1353" y="-493.315" font-family="Helvetica,sans-Serif" font-size="10.00">InCrosstab</text>
</a>
</g>
</g>
<!-- Node24&#45;&gt;Node25 -->
<g id="edge30" class="edge"><title>Node24&#45;&gt;Node25</title>
<path fill="none" stroke="midnightblue" d="M1022.51,-497.474C1084.78,-499.239 1184.26,-502.06 1257.64,-504.14"/>
<polygon fill="midnightblue" stroke="midnightblue" points="1257.72,-507.644 1267.81,-504.428 1257.92,-500.646 1257.72,-507.644"/>
</g>
<!-- Node27 -->
<g id="node27" class="node"><title>Node27</title>
<g id="a_node27"><a xlink:href="classqtreports_1_1detail_1_1_replacer.html#ae0f12ba0e77e9ef89b9479272e843fe6" target="_top" xlink:title="qtreports::detail::\lReplacer::replaceRowGroups\lInCrosstab">
<polygon fill="none" stroke="black" points="1277.5,-546.315 1277.5,-587.315 1428.5,-587.315 1428.5,-546.315 1277.5,-546.315"/>
<text text-anchor="start" x="1285.5" y="-575.315" font-family="Helvetica,sans-Serif" font-size="10.00">qtreports::detail::</text>
<text text-anchor="start" x="1285.5" y="-564.315" font-family="Helvetica,sans-Serif" font-size="10.00">Replacer::replaceRowGroups</text>
<text text-anchor="middle" x="1353" y="-553.315" font-family="Helvetica,sans-Serif" font-size="10.00">InCrosstab</text>
</a>
</g>
</g>
<!-- Node24&#45;&gt;Node27 -->
<g id="edge33" class="edge"><title>Node24&#45;&gt;Node27</title>
<path fill="none" stroke="midnightblue" d="M1022.6,-507.599C1034.95,-510.029 1047.89,-512.54 1060,-514.815 1129.72,-527.922 1208.98,-541.983 1267.31,-552.174"/>
<polygon fill="midnightblue" stroke="midnightblue" points="1266.76,-555.632 1277.21,-553.903 1267.96,-548.736 1266.76,-555.632"/>
</g>
<!-- Node29 -->
<g id="node29" class="node"><title>Node29</title>
<g id="a_node29"><a xlink:href="classqtreports_1_1detail_1_1_replacer.html#a5dc72251354d389091776142436ebd22" target="_top" xlink:title="qtreports::detail::\lReplacer::replaceCellsInCrosstab">
<polygon fill="none" stroke="black" points="1060,-445.815 1060,-475.815 1232,-475.815 1232,-445.815 1060,-445.815"/>
<text text-anchor="start" x="1068" y="-463.815" font-family="Helvetica,sans-Serif" font-size="10.00">qtreports::detail::</text>
<text text-anchor="middle" x="1146" y="-452.815" font-family="Helvetica,sans-Serif" font-size="10.00">Replacer::replaceCellsInCrosstab</text>
</a>
</g>
</g>
<!-- Node24&#45;&gt;Node29 -->
<g id="edge36" class="edge"><title>Node24&#45;&gt;Node29</title>
<path fill="none" stroke="midnightblue" d="M1022.77,-484.452C1033.89,-482.3 1045.76,-480.006 1057.55,-477.726"/>
<polygon fill="midnightblue" stroke="midnightblue" points="1058.27,-481.152 1067.42,-475.817 1056.94,-474.279 1058.27,-481.152"/>
</g>
<!-- Node26 -->
<g id="node26" class="node"><title>Node26</title>
<g id="a_node26"><a xlink:href="classqtreports_1_1detail_1_1_replacer.html#a781b476a4e964da9e5afe4f642b2f275" target="_top" xlink:title="qtreports::detail::\lReplacer::replaceColumnGroup\lInCrosstab">
<polygon fill="none" stroke="black" points="1474,-486.315 1474,-527.315 1638,-527.315 1638,-486.315 1474,-486.315"/>
<text text-anchor="start" x="1482" y="-515.315" font-family="Helvetica,sans-Serif" font-size="10.00">qtreports::detail::</text>
<text text-anchor="start" x="1482" y="-504.315" font-family="Helvetica,sans-Serif" font-size="10.00">Replacer::replaceColumnGroup</text>
<text text-anchor="middle" x="1556" y="-493.315" font-family="Helvetica,sans-Serif" font-size="10.00">InCrosstab</text>
</a>
</g>
</g>
<!-- Node25&#45;&gt;Node26 -->
<g id="edge31" class="edge"><title>Node25&#45;&gt;Node26</title>
<path fill="none" stroke="midnightblue" d="M1438.08,-506.815C1446.58,-506.815 1455.25,-506.815 1463.82,-506.815"/>
<polygon fill="midnightblue" stroke="midnightblue" points="1463.83,-510.315 1473.83,-506.815 1463.83,-503.315 1463.83,-510.315"/>
</g>
<!-- Node26&#45;&gt;Node19 -->
<g id="edge32" class="edge"><title>Node26&#45;&gt;Node19</title>
<path fill="none" stroke="midnightblue" d="M1630.66,-486.248C1643.4,-482.693 1656.53,-479.025 1668.97,-475.554"/>
<polygon fill="midnightblue" stroke="midnightblue" points="1670.08,-478.878 1678.77,-472.818 1668.19,-472.136 1670.08,-478.878"/>
</g>
<!-- Node28 -->
<g id="node28" class="node"><title>Node28</title>
<g id="a_node28"><a xlink:href="classqtreports_1_1detail_1_1_replacer.html#a2114b58c90fe02b17e7bf99e144013b6" target="_top" xlink:title="qtreports::detail::\lReplacer::replaceRowGroupIn\lCrosstab">
<polygon fill="none" stroke="black" points="1479,-546.315 1479,-587.315 1633,-587.315 1633,-546.315 1479,-546.315"/>
<text text-anchor="start" x="1487" y="-575.315" font-family="Helvetica,sans-Serif" font-size="10.00">qtreports::detail::</text>
<text text-anchor="start" x="1487" y="-564.315" font-family="Helvetica,sans-Serif" font-size="10.00">Replacer::replaceRowGroupIn</text>
<text text-anchor="middle" x="1556" y="-553.315" font-family="Helvetica,sans-Serif" font-size="10.00">Crosstab</text>
</a>
</g>
</g>
<!-- Node27&#45;&gt;Node28 -->
<g id="edge34" class="edge"><title>Node27&#45;&gt;Node28</title>
<path fill="none" stroke="midnightblue" d="M1428.56,-566.815C1441.65,-566.815 1455.36,-566.815 1468.74,-566.815"/>
<polygon fill="midnightblue" stroke="midnightblue" points="1468.88,-570.315 1478.88,-566.815 1468.88,-563.315 1468.88,-570.315"/>
</g>
<!-- Node28&#45;&gt;Node19 -->
<g id="edge35" class="edge"><title>Node28&#45;&gt;Node19</title>
<path fill="none" stroke="midnightblue" d="M1619.47,-546.169C1625.87,-543.322 1632.16,-540.2 1638,-536.815 1665.19,-521.046 1692.32,-497.338 1710.48,-480.009"/>
<polygon fill="midnightblue" stroke="midnightblue" points="1712.95,-482.488 1717.69,-473.014 1708.08,-477.464 1712.95,-482.488"/>
</g>
<!-- Node29&#45;&gt;Node25 -->
<g id="edge38" class="edge"><title>Node29&#45;&gt;Node25</title>
<path fill="none" stroke="midnightblue" d="M1214.12,-475.877C1228.07,-479.007 1243.01,-482.36 1257.73,-485.662"/>
<polygon fill="midnightblue" stroke="midnightblue" points="1257.34,-489.162 1267.87,-487.936 1258.87,-482.332 1257.34,-489.162"/>
</g>
<!-- Node29&#45;&gt;Node27 -->
<g id="edge37" class="edge"><title>Node29&#45;&gt;Node27</title>
<path fill="none" stroke="midnightblue" d="M1168.04,-476.022C1191.56,-492.535 1231.18,-518.941 1268,-536.815 1271.84,-538.679 1275.83,-540.489 1279.88,-542.236"/>
<polygon fill="midnightblue" stroke="midnightblue" points="1278.87,-545.602 1289.44,-546.191 1281.54,-539.134 1278.87,-545.602"/>
</g>
<!-- Node30 -->
<g id="node30" class="node"><title>Node30</title>
<g id="a_node30"><a xlink:href="classqtreports_1_1detail_1_1_replacer.html#a9ad7270fd6bdb9a2ba85bdc9652968c8" target="_top" xlink:title="qtreports::detail::\lReplacer::replaceCellInCrosstab">
<polygon fill="none" stroke="black" points="1269.5,-437.815 1269.5,-467.815 1436.5,-467.815 1436.5,-437.815 1269.5,-437.815"/>
<text text-anchor="start" x="1277.5" y="-455.815" font-family="Helvetica,sans-Serif" font-size="10.00">qtreports::detail::</text>
<text text-anchor="middle" x="1353" y="-444.815" font-family="Helvetica,sans-Serif" font-size="10.00">Replacer::replaceCellInCrosstab</text>
</a>
</g>
</g>
<!-- Node29&#45;&gt;Node30 -->
<g id="edge39" class="edge"><title>Node29&#45;&gt;Node30</title>
<path fill="none" stroke="midnightblue" d="M1232.16,-457.492C1241.11,-457.143 1250.24,-456.786 1259.27,-456.434"/>
<polygon fill="midnightblue" stroke="midnightblue" points="1259.56,-459.925 1269.41,-456.038 1259.28,-452.931 1259.56,-459.925"/>
</g>
<!-- Node30&#45;&gt;Node19 -->
<g id="edge40" class="edge"><title>Node30&#45;&gt;Node19</title>
<path fill="none" stroke="midnightblue" d="M1436.6,-453.906C1504.49,-454.803 1599.57,-456.059 1663.46,-456.903"/>
<polygon fill="midnightblue" stroke="midnightblue" points="1663.79,-460.408 1673.83,-457.04 1663.88,-453.408 1663.79,-460.408"/>
</g>
<!-- Node31&#45;&gt;Node12 -->
<g id="edge43" class="edge"><title>Node31&#45;&gt;Node12</title>
<path fill="none" stroke="midnightblue" d="M711.2,-252.122C723.046,-252.828 735.416,-253.448 747,-253.815 799.862,-255.492 813.543,-260.564 866,-253.815 939.197,-244.398 1020.6,-221.624 1076.49,-203.996"/>
<polygon fill="midnightblue" stroke="midnightblue" points="1077.81,-207.25 1086.27,-200.881 1075.68,-200.58 1077.81,-207.25"/>
</g>
<!-- Node31&#45;&gt;Node14 -->
<g id="edge44" class="edge"><title>Node31&#45;&gt;Node14</title>
<path fill="none" stroke="midnightblue" d="M687.738,-227.175C705.419,-216.948 727.229,-204.526 747,-193.815 749.86,-192.266 752.809,-190.689 755.79,-189.111"/>
<polygon fill="midnightblue" stroke="midnightblue" points="757.548,-192.142 764.779,-184.398 754.297,-185.942 757.548,-192.142"/>
</g>
<!-- Node31&#45;&gt;Node15 -->
<g id="edge45" class="edge"><title>Node31&#45;&gt;Node15</title>
<path fill="none" stroke="midnightblue" d="M677.082,-268.541C703.18,-290.545 744.541,-325.419 773.243,-349.618"/>
<polygon fill="midnightblue" stroke="midnightblue" points="771.078,-352.37 780.979,-356.141 775.59,-347.019 771.078,-352.37"/>
</g>
<!-- Node31&#45;&gt;Node19 -->
<g id="edge42" class="edge"><title>Node31&#45;&gt;Node19</title>
<path fill="none" stroke="midnightblue" d="M711.111,-267.06C772.824,-285.587 873.168,-310.815 962,-310.815 962,-310.815 962,-310.815 1354,-310.815 1480.53,-310.815 1527,-270.074 1638,-330.815 1679.59,-353.573 1708.04,-403.325 1722.17,-433.359"/>
<polygon fill="midnightblue" stroke="midnightblue" points="1719.1,-435.057 1726.41,-442.721 1725.47,-432.168 1719.1,-435.057"/>
</g>
<!-- Node32 -->
<g id="node32" class="node"><title>Node32</title>
<g id="a_node32"><a xlink:href="classqtreports_1_1detail_1_1_converter_to_q_widget.html#a5e49976fe8fac12633ccda1ba928b9b1" target="_top" xlink:title="Проверяет, является ли виджет типа WidgetType::Report. ">
<polygon fill="none" stroke="black" points="747,-203.315 747,-244.315 866,-244.315 866,-203.315 747,-203.315"/>
<text text-anchor="start" x="755" y="-232.315" font-family="Helvetica,sans-Serif" font-size="10.00">qtreports::detail::</text>
<text text-anchor="start" x="755" y="-221.315" font-family="Helvetica,sans-Serif" font-size="10.00">ConverterToQWidget::</text>
<text text-anchor="middle" x="806.5" y="-210.315" font-family="Helvetica,sans-Serif" font-size="10.00">isReport</text>
</a>
</g>
</g>
<!-- Node31&#45;&gt;Node32 -->
<g id="edge46" class="edge"><title>Node31&#45;&gt;Node32</title>
<path fill="none" stroke="midnightblue" d="M711.216,-238.605C719.635,-237.284 728.359,-235.916 736.947,-234.569"/>
<polygon fill="midnightblue" stroke="midnightblue" points="737.604,-238.008 746.941,-233.001 736.519,-231.093 737.604,-238.008"/>
</g>
<!-- Node33&#45;&gt;Node12 -->
<g id="edge48" class="edge"><title>Node33&#45;&gt;Node12</title>
<path fill="none" stroke="midnightblue" d="M866.098,-98.9556C910.332,-97.0224 972.071,-98.0641 1024,-112.815 1054.63,-121.515 1085.87,-139.347 1108.93,-154.568"/>
<polygon fill="midnightblue" stroke="midnightblue" points="1107.11,-157.558 1117.36,-160.249 1111.02,-151.755 1107.11,-157.558"/>
</g>
<!-- Node33&#45;&gt;Node13 -->
<g id="edge49" class="edge"><title>Node33&#45;&gt;Node13</title>
<path fill="none" stroke="midnightblue" d="M866.351,-116.385C878.476,-118.975 891.243,-121.702 903.361,-124.29"/>
<polygon fill="midnightblue" stroke="midnightblue" points="902.848,-127.76 913.359,-126.426 904.31,-120.914 902.848,-127.76"/>
</g>
</g>
</svg>
