<?xml version="1.0" encoding="UTF-8" standalone="no"?>
<!DOCTYPE svg PUBLIC "-//W3C//DTD SVG 1.1//EN"
 "http://www.w3.org/Graphics/SVG/1.1/DTD/svg11.dtd">
<!-- Generated by graphviz version 2.38.0 (20140413.2041)
 -->
<!-- Title: qtreports::detail::ConverterToQWidget::createSection Pages: 1 -->
<svg width="864pt" height="264pt"
 viewBox="0.00 0.00 864.00 264.00" xmlns="http://www.w3.org/2000/svg" xmlns:xlink="http://www.w3.org/1999/xlink">
<g id="graph0" class="graph" transform="scale(1 1) rotate(0) translate(4 260)">
<title>qtreports::detail::ConverterToQWidget::createSection</title>
<!-- Node1 -->
<g id="node1" class="node"><title>Node1</title>
<polygon fill="#bfbfbf" stroke="black" points="0,-76.5 0,-117.5 119,-117.5 119,-76.5 0,-76.5"/>
<text text-anchor="start" x="8" y="-105.5" font-family="Helvetica,sans-Serif" font-size="10.00">qtreports::detail::</text>
<text text-anchor="start" x="8" y="-94.5" font-family="Helvetica,sans-Serif" font-size="10.00">ConverterToQWidget::</text>
<text text-anchor="middle" x="59.5" y="-83.5" font-family="Helvetica,sans-Serif" font-size="10.00">createSection</text>
</g>
<!-- Node2 -->
<g id="node2" class="node"><title>Node2</title>
<g id="a_node2"><a xlink:href="classqtreports_1_1detail_1_1_converter_to_q_widget.html#a76bb37f2855d12afc9056c75cdbc5e0b" target="_top" xlink:title="Проверяет, является ли виджет типа WidgetType::Layout. ">
<polygon fill="none" stroke="black" points="335.5,-67.5 335.5,-108.5 454.5,-108.5 454.5,-67.5 335.5,-67.5"/>
<text text-anchor="start" x="343.5" y="-96.5" font-family="Helvetica,sans-Serif" font-size="10.00">qtreports::detail::</text>
<text text-anchor="start" x="343.5" y="-85.5" font-family="Helvetica,sans-Serif" font-size="10.00">ConverterToQWidget::</text>
<text text-anchor="middle" x="395" y="-74.5" font-family="Helvetica,sans-Serif" font-size="10.00">isLayout</text>
</a>
</g>
</g>
<!-- Node1&#45;&gt;Node2 -->
<g id="edge1" class="edge"><title>Node1&#45;&gt;Node2</title>
<path fill="none" stroke="midnightblue" d="M119.225,-98.4357C131.068,-98.6709 143.432,-98.8776 155,-99 209.219,-99.5737 222.837,-101.541 277,-99 292.631,-98.2668 309.398,-96.9856 325.217,-95.5505"/>
<polygon fill="midnightblue" stroke="midnightblue" points="325.826,-99.0089 335.455,-94.5894 325.171,-92.0395 325.826,-99.0089"/>
</g>
<!-- Node3 -->
<g id="node3" class="node"><title>Node3</title>
<g id="a_node3"><a xlink:href="classqtreports_1_1detail_1_1_replacer.html#af7ccb83be264f7c72b7485cf38455450" target="_top" xlink:title="Заменяет текст всех виджетов секции текстом с подставленными значениями. ">
<polygon fill="none" stroke="black" points="166.5,-148 166.5,-178 265.5,-178 265.5,-148 166.5,-148"/>
<text text-anchor="start" x="174.5" y="-166" font-family="Helvetica,sans-Serif" font-size="10.00">qtreports::detail::</text>
<text text-anchor="middle" x="216" y="-155" font-family="Helvetica,sans-Serif" font-size="10.00">Replacer::replace</text>
</a>
</g>
</g>
<!-- Node1&#45;&gt;Node3 -->
<g id="edge2" class="edge"><title>Node1&#45;&gt;Node3</title>
<path fill="none" stroke="midnightblue" d="M108.538,-117.521C128.33,-125.976 151.123,-135.713 170.528,-144.002"/>
<polygon fill="midnightblue" stroke="midnightblue" points="169.183,-147.234 179.754,-147.944 171.933,-140.796 169.183,-147.234"/>
</g>
<!-- Node10 -->
<g id="node10" class="node"><title>Node10</title>
<g id="a_node10"><a xlink:href="classqtreports_1_1detail_1_1_replacer.html#a677f7802e444f2de3af4cb43b6cedf30" target="_top" xlink:title="Возвращает описание последней произошедшей ошибки. ">
<polygon fill="none" stroke="black" points="155,-60 155,-90 277,-90 277,-60 155,-60"/>
<text text-anchor="start" x="163" y="-78" font-family="Helvetica,sans-Serif" font-size="10.00">qtreports::detail::</text>
<text text-anchor="middle" x="216" y="-67" font-family="Helvetica,sans-Serif" font-size="10.00">Replacer::getLastError</text>
</a>
</g>
</g>
<!-- Node1&#45;&gt;Node10 -->
<g id="edge9" class="edge"><title>Node1&#45;&gt;Node10</title>
<path fill="none" stroke="midnightblue" d="M119.351,-88.62C127.686,-87.433 136.326,-86.2028 144.849,-84.9892"/>
<polygon fill="midnightblue" stroke="midnightblue" points="145.369,-88.4505 154.775,-83.5757 144.382,-81.5204 145.369,-88.4505"/>
</g>
<!-- Node11 -->
<g id="node11" class="node"><title>Node11</title>
<g id="a_node11"><a xlink:href="classqtreports_1_1detail_1_1_converter_to_q_widget.html#aa3be16e037533a4a5b58596087207187" target="_top" xlink:title="Создает band. ">
<polygon fill="none" stroke="black" points="156.5,-0.5 156.5,-41.5 275.5,-41.5 275.5,-0.5 156.5,-0.5"/>
<text text-anchor="start" x="164.5" y="-29.5" font-family="Helvetica,sans-Serif" font-size="10.00">qtreports::detail::</text>
<text text-anchor="start" x="164.5" y="-18.5" font-family="Helvetica,sans-Serif" font-size="10.00">ConverterToQWidget::</text>
<text text-anchor="middle" x="216" y="-7.5" font-family="Helvetica,sans-Serif" font-size="10.00">createBands</text>
</a>
</g>
</g>
<!-- Node1&#45;&gt;Node11 -->
<g id="edge10" class="edge"><title>Node1&#45;&gt;Node11</title>
<path fill="none" stroke="midnightblue" d="M101.85,-76.3082C118.362,-68.0786 137.561,-58.5509 155,-50 157.717,-48.6677 160.505,-47.305 163.322,-45.9318"/>
<polygon fill="midnightblue" stroke="midnightblue" points="164.899,-49.057 172.361,-41.5358 161.837,-42.7621 164.899,-49.057"/>
</g>
<!-- Node4 -->
<g id="node4" class="node"><title>Node4</title>
<g id="a_node4"><a xlink:href="classqtreports_1_1detail_1_1_replacer.html#a58cf857aa78eb3e273f6543769af425b" target="_top" xlink:title="Заменяет текст всех виджетов секции текстом с подставленными значениями полей из источника данных...">
<polygon fill="none" stroke="black" points="313,-190 313,-220 477,-220 477,-190 313,-190"/>
<text text-anchor="start" x="321" y="-208" font-family="Helvetica,sans-Serif" font-size="10.00">qtreports::detail::</text>
<text text-anchor="middle" x="395" y="-197" font-family="Helvetica,sans-Serif" font-size="10.00">Replacer::replaceFieldInSection</text>
</a>
</g>
</g>
<!-- Node3&#45;&gt;Node4 -->
<g id="edge3" class="edge"><title>Node3&#45;&gt;Node4</title>
<path fill="none" stroke="midnightblue" d="M265.835,-174.588C282.835,-178.622 302.298,-183.24 320.835,-187.639"/>
<polygon fill="midnightblue" stroke="midnightblue" points="320.182,-191.081 330.72,-189.984 321.798,-184.27 320.182,-191.081"/>
</g>
<!-- Node9 -->
<g id="node9" class="node"><title>Node9</title>
<g id="a_node9"><a xlink:href="classqtreports_1_1detail_1_1_replacer.html#abb903f1c1172efa7e26b040a5695cc86" target="_top" xlink:title="Возвращает текст с подставленными значениями параметров. ">
<polygon fill="none" stroke="black" points="318,-141 318,-171 472,-171 472,-141 318,-141"/>
<text text-anchor="start" x="326" y="-159" font-family="Helvetica,sans-Serif" font-size="10.00">qtreports::detail::</text>
<text text-anchor="middle" x="395" y="-148" font-family="Helvetica,sans-Serif" font-size="10.00">Replacer::replaceParameters</text>
</a>
</g>
</g>
<!-- Node3&#45;&gt;Node9 -->
<g id="edge8" class="edge"><title>Node3&#45;&gt;Node9</title>
<path fill="none" stroke="midnightblue" d="M265.835,-161.069C278.762,-160.557 293.113,-159.99 307.398,-159.425"/>
<polygon fill="midnightblue" stroke="midnightblue" points="307.913,-162.907 317.767,-159.015 307.637,-155.913 307.913,-162.907"/>
</g>
<!-- Node5 -->
<g id="node5" class="node"><title>Node5</title>
<g id="a_node5"><a xlink:href="classqtreports_1_1detail_1_1_replacer.html#a2be57bd514335f9b9f2a520247562ce1" target="_top" xlink:title="Заменяет текст виджета текстом с подставленными значениями полей из источника данных. ">
<polygon fill="none" stroke="black" points="519,-214.5 519,-255.5 665,-255.5 665,-214.5 519,-214.5"/>
<text text-anchor="start" x="527" y="-243.5" font-family="Helvetica,sans-Serif" font-size="10.00">qtreports::detail::</text>
<text text-anchor="start" x="527" y="-232.5" font-family="Helvetica,sans-Serif" font-size="10.00">Replacer::replaceFieldInText</text>
<text text-anchor="middle" x="592" y="-221.5" font-family="Helvetica,sans-Serif" font-size="10.00">Widget</text>
</a>
</g>
</g>
<!-- Node4&#45;&gt;Node5 -->
<g id="edge4" class="edge"><title>Node4&#45;&gt;Node5</title>
<path fill="none" stroke="midnightblue" d="M477.003,-217.462C487.55,-219.085 498.362,-220.748 508.926,-222.373"/>
<polygon fill="midnightblue" stroke="midnightblue" points="508.546,-225.856 518.962,-223.917 509.61,-218.937 508.546,-225.856"/>
</g>
<!-- Node7 -->
<g id="node7" class="node"><title>Node7</title>
<g id="a_node7"><a xlink:href="classqtreports_1_1detail_1_1_replacer.html#a4aeb7794f90c0be34a30ab60a6df1920" target="_top" xlink:title="На основе текста виджета вставляет в него изображение из источника данных. ">
<polygon fill="none" stroke="black" points="513,-154.5 513,-195.5 671,-195.5 671,-154.5 513,-154.5"/>
<text text-anchor="start" x="521" y="-183.5" font-family="Helvetica,sans-Serif" font-size="10.00">qtreports::detail::</text>
<text text-anchor="start" x="521" y="-172.5" font-family="Helvetica,sans-Serif" font-size="10.00">Replacer::replaceFieldInImage</text>
<text text-anchor="middle" x="592" y="-161.5" font-family="Helvetica,sans-Serif" font-size="10.00">Widget</text>
</a>
</g>
</g>
<!-- Node4&#45;&gt;Node7 -->
<g id="edge6" class="edge"><title>Node4&#45;&gt;Node7</title>
<path fill="none" stroke="midnightblue" d="M477.003,-192.538C485.502,-191.23 494.173,-189.896 502.748,-188.577"/>
<polygon fill="midnightblue" stroke="midnightblue" points="503.402,-192.018 512.754,-187.038 502.338,-185.099 503.402,-192.018"/>
</g>
<!-- Node6 -->
<g id="node6" class="node"><title>Node6</title>
<g id="a_node6"><a xlink:href="classqtreports_1_1detail_1_1_replacer.html#a4642b07160798f2ee4de276e1d0c1ecd" target="_top" xlink:title="Возвращает текст с подставленными значениями полей из источника данных. ">
<polygon fill="none" stroke="black" points="722,-220 722,-250 841,-250 841,-220 722,-220"/>
<text text-anchor="start" x="730" y="-238" font-family="Helvetica,sans-Serif" font-size="10.00">qtreports::detail::</text>
<text text-anchor="middle" x="781.5" y="-227" font-family="Helvetica,sans-Serif" font-size="10.00">Replacer::replaceField</text>
</a>
</g>
</g>
<!-- Node5&#45;&gt;Node6 -->
<g id="edge5" class="edge"><title>Node5&#45;&gt;Node6</title>
<path fill="none" stroke="midnightblue" d="M665.224,-235C680.479,-235 696.539,-235 711.665,-235"/>
<polygon fill="midnightblue" stroke="midnightblue" points="711.966,-238.5 721.966,-235 711.966,-231.5 711.966,-238.5"/>
</g>
<!-- Node8 -->
<g id="node8" class="node"><title>Node8</title>
<g id="a_node8"><a xlink:href="classqtreports_1_1detail_1_1_replacer.html#ae1ac521aeaf5fdd694e79e2ae52d4704" target="_top" xlink:title="Возвращает изображение на основе первого найденного выражения. ">
<polygon fill="none" stroke="black" points="707,-160 707,-190 856,-190 856,-160 707,-160"/>
<text text-anchor="start" x="715" y="-178" font-family="Helvetica,sans-Serif" font-size="10.00">qtreports::detail::</text>
<text text-anchor="middle" x="781.5" y="-167" font-family="Helvetica,sans-Serif" font-size="10.00">Replacer::replaceFieldImage</text>
</a>
</g>
</g>
<!-- Node7&#45;&gt;Node8 -->
<g id="edge7" class="edge"><title>Node7&#45;&gt;Node8</title>
<path fill="none" stroke="midnightblue" d="M671.159,-175C679.681,-175 688.381,-175 696.964,-175"/>
<polygon fill="midnightblue" stroke="midnightblue" points="696.97,-178.5 706.97,-175 696.97,-171.5 696.97,-178.5"/>
</g>
<!-- Node11&#45;&gt;Node2 -->
<g id="edge12" class="edge"><title>Node11&#45;&gt;Node2</title>
<path fill="none" stroke="midnightblue" d="M271.55,-41.6489C290.059,-48.655 310.902,-56.545 330.075,-63.8024"/>
<polygon fill="midnightblue" stroke="midnightblue" points="329.039,-67.1524 339.63,-67.4193 331.517,-60.6057 329.039,-67.1524"/>
</g>
<!-- Node12 -->
<g id="node12" class="node"><title>Node12</title>
<g id="a_node12"><a xlink:href="classqtreports_1_1detail_1_1_converter_to_q_widget.html#a23d6229235fca8bd8bbddcc5e2e28f92" target="_top" xlink:title="Добавляет новую страницу на виджет. ">
<polygon fill="none" stroke="black" points="335.5,-0.5 335.5,-41.5 454.5,-41.5 454.5,-0.5 335.5,-0.5"/>
<text text-anchor="start" x="343.5" y="-29.5" font-family="Helvetica,sans-Serif" font-size="10.00">qtreports::detail::</text>
<text text-anchor="start" x="343.5" y="-18.5" font-family="Helvetica,sans-Serif" font-size="10.00">ConverterToQWidget::</text>
<text text-anchor="middle" x="395" y="-7.5" font-family="Helvetica,sans-Serif" font-size="10.00">addPage</text>
</a>
</g>
</g>
<!-- Node11&#45;&gt;Node12 -->
<g id="edge11" class="edge"><title>Node11&#45;&gt;Node12</title>
<path fill="none" stroke="midnightblue" d="M275.938,-21C291.762,-21 309.009,-21 325.312,-21"/>
<polygon fill="midnightblue" stroke="midnightblue" points="325.319,-24.5001 335.319,-21 325.319,-17.5001 325.319,-24.5001"/>
</g>
</g>
</svg>
