<?xml version="1.0" encoding="UTF-8" standalone="no"?>
<!DOCTYPE svg PUBLIC "-//W3C//DTD SVG 1.1//EN"
 "http://www.w3.org/Graphics/SVG/1.1/DTD/svg11.dtd">
<!-- Generated by graphviz version 2.38.0 (20140413.2041)
 -->
<!-- Title: qtreports::Engine::prepareDataSource Pages: 1 -->
<!--zoomable 112 -->
<svg id="main" version="1.1" xmlns="http://www.w3.org/2000/svg" xmlns:xlink="http://www.w3.org/1999/xlink" xml:space="preserve" onload="init(evt)">
<style type="text/css"><![CDATA[
.edge:hover path { stroke: red; }
.edge:hover polygon { stroke: red; fill: red; }
]]></style>
<script type="text/javascript"><![CDATA[
var edges = document.getElementsByTagName('g');
if (edges && edges.length) {
  for (var i=0;i<edges.length;i++) {
    if (edges[i].id.substr(0,4)=='edge') {
      edges[i].setAttribute('class','edge');
    }
  }
}
]]></script>
        <defs>
                <circle id="rim" cx="0" cy="0" r="7"/>
                <circle id="rim2" cx="0" cy="0" r="3.5"/>
                <g id="zoomPlus">
                        <use xlink:href="#rim" fill="#404040">
                                <set attributeName="fill" to="#808080" begin="zoomplus.mouseover" end="zoomplus.mouseout"/>
                        </use>
                        <path d="M-4,0h8M0,-4v8" fill="none" stroke="white" stroke-width="1.5" pointer-events="none"/>
                </g>
                <g id="zoomMin">
                        <use xlink:href="#rim" fill="#404040">
                                <set attributeName="fill" to="#808080" begin="zoomminus.mouseover" end="zoomminus.mouseout"/>
                        </use>
                        <path d="M-4,0h8" fill="none" stroke="white" stroke-width="1.5" pointer-events="none"/>
                </g>
                <g id="dirArrow">
                        <path fill="none" stroke="white" stroke-width="1.5" d="M0,-3.0v7 M-2.5,-0.5L0,-3.0L2.5,-0.5"/>
                </g>
               <g id="resetDef">
                       <use xlink:href="#rim2" fill="#404040">
                               <set attributeName="fill" to="#808080" begin="reset.mouseover" end="reset.mouseout"/>
                       </use>
               </g>
        </defs>

<script type="text/javascript">
var viewWidth = 698;
var viewHeight = 112;
var sectionId = 'dynsection-18';
</script>
<script xlink:href="svgpan.js"/>
<svg id="graph" class="graph">
<g id="viewport">
<title>qtreports::Engine::prepareDataSource</title>
<!-- Node1 -->
<g id="node1" class="node"><title>Node1</title>
<polygon fill="#bfbfbf" stroke="black" points="0,-48.5 0,-78.5 111,-78.5 111,-48.5 0,-48.5"/>
<text text-anchor="start" x="8" y="-66.5" font-family="Helvetica,sans-Serif" font-size="10.00">qtreports::Engine::</text>
<text text-anchor="middle" x="55.5" y="-55.5" font-family="Helvetica,sans-Serif" font-size="10.00">prepareDataSource</text>
</g>
<!-- Node2 -->
<g id="node2" class="node"><title>Node2</title>
<g id="a_node2"><a xlink:href="classqtreports_1_1_engine.html#a03be86e3a0c711b1e64ab8337f67aa7e" target="_top" xlink:title="qtreports::Engine::\lsetDataSource">
<polygon fill="none" stroke="black" points="147,-73.5 147,-103.5 252,-103.5 252,-73.5 147,-73.5"/>
<text text-anchor="start" x="155" y="-91.5" font-family="Helvetica,sans-Serif" font-size="10.00">qtreports::Engine::</text>
<text text-anchor="middle" x="199.5" y="-80.5" font-family="Helvetica,sans-Serif" font-size="10.00">setDataSource</text>
</a>
</g>
</g>
<!-- Node1&#45;&gt;Node2 -->
<g id="edge1" class="edge"><title>Node1&#45;&gt;Node2</title>
<path fill="none" stroke="midnightblue" d="M121.26,-74.9014C129.73,-76.3926 138.319,-77.9048 146.541,-79.3523"/>
<polygon fill="midnightblue" stroke="midnightblue" points="121.856,-71.4526 111.401,-73.1657 120.643,-78.3466 121.856,-71.4526"/>
</g>
<!-- Node3 -->
<g id="node3" class="node"><title>Node3</title>
<g id="a_node3"><a xlink:href="classqtreports_1_1_engine.html#ac214aea9f2f2b795307550290fa1d1ae" target="_top" xlink:title="qtreports::Engine::\lexecuteQueries">
<polygon fill="none" stroke="black" points="147,-24.5 147,-54.5 252,-54.5 252,-24.5 147,-24.5"/>
<text text-anchor="start" x="155" y="-42.5" font-family="Helvetica,sans-Serif" font-size="10.00">qtreports::Engine::</text>
<text text-anchor="middle" x="199.5" y="-31.5" font-family="Helvetica,sans-Serif" font-size="10.00">executeQueries</text>
</a>
</g>
</g>
<!-- Node1&#45;&gt;Node3 -->
<g id="edge2" class="edge"><title>Node1&#45;&gt;Node3</title>
<path fill="none" stroke="midnightblue" d="M121.536,-52.508C129.917,-51.0916 138.409,-49.6563 146.541,-48.2818"/>
<polygon fill="midnightblue" stroke="midnightblue" points="120.678,-49.1033 111.401,-54.221 121.844,-56.0054 120.678,-49.1033"/>
</g>
<!-- Node4 -->
<g id="node4" class="node"><title>Node4</title>
<g id="a_node4"><a xlink:href="classqtreports_1_1_engine.html#a0c7bf107b4774cccb70577946d67666c" target="_top" xlink:title="qtreports::Engine::\lsetQuery">
<polygon fill="none" stroke="black" points="288,-24.5 288,-54.5 393,-54.5 393,-24.5 288,-24.5"/>
<text text-anchor="start" x="296" y="-42.5" font-family="Helvetica,sans-Serif" font-size="10.00">qtreports::Engine::</text>
<text text-anchor="middle" x="340.5" y="-31.5" font-family="Helvetica,sans-Serif" font-size="10.00">setQuery</text>
</a>
</g>
</g>
<!-- Node3&#45;&gt;Node4 -->
<g id="edge3" class="edge"><title>Node3&#45;&gt;Node4</title>
<path fill="none" stroke="midnightblue" d="M262.441,-39.5C270.878,-39.5 279.466,-39.5 287.698,-39.5"/>
<polygon fill="midnightblue" stroke="midnightblue" points="262.259,-36.0001 252.258,-39.5 262.258,-43.0001 262.259,-36.0001"/>
</g>
<!-- Node5 -->
<g id="node5" class="node"><title>Node5</title>
<g id="a_node5"><a xlink:href="classqtreports_1_1_engine.html#a3dda769530e3713bba33c49124ad1ab6" target="_top" xlink:title="qtreports::Engine::\lprepareDB">
<polygon fill="none" stroke="black" points="429,-24.5 429,-54.5 534,-54.5 534,-24.5 429,-24.5"/>
<text text-anchor="start" x="437" y="-42.5" font-family="Helvetica,sans-Serif" font-size="10.00">qtreports::Engine::</text>
<text text-anchor="middle" x="481.5" y="-31.5" font-family="Helvetica,sans-Serif" font-size="10.00">prepareDB</text>
</a>
</g>
</g>
<!-- Node4&#45;&gt;Node5 -->
<g id="edge4" class="edge"><title>Node4&#45;&gt;Node5</title>
<path fill="none" stroke="midnightblue" d="M403.441,-39.5C411.878,-39.5 420.466,-39.5 428.698,-39.5"/>
<polygon fill="midnightblue" stroke="midnightblue" points="403.259,-36.0001 393.258,-39.5 403.258,-43.0001 403.259,-36.0001"/>
</g>
<!-- Node6 -->
<g id="node6" class="node"><title>Node6</title>
<g id="a_node6"><a xlink:href="classqtreports_1_1_engine.html#a0615663aaca4ce8e80f654f2380fef64" target="_top" xlink:title="qtreports::Engine::\lsetConnection">
<polygon fill="none" stroke="black" points="577.5,-49.5 577.5,-79.5 682.5,-79.5 682.5,-49.5 577.5,-49.5"/>
<text text-anchor="start" x="585.5" y="-67.5" font-family="Helvetica,sans-Serif" font-size="10.00">qtreports::Engine::</text>
<text text-anchor="middle" x="630" y="-56.5" font-family="Helvetica,sans-Serif" font-size="10.00">setConnection</text>
</a>
</g>
</g>
<!-- Node5&#45;&gt;Node6 -->
<g id="edge5" class="edge"><title>Node5&#45;&gt;Node6</title>
<path fill="none" stroke="midnightblue" d="M544.158,-50.0219C555.198,-51.9059 566.599,-53.8513 577.322,-55.6813"/>
<polygon fill="midnightblue" stroke="midnightblue" points="544.597,-46.5462 534.15,-48.3141 543.419,-53.4464 544.597,-46.5462"/>
</g>
<!-- Node7 -->
<g id="node7" class="node"><title>Node7</title>
<g id="a_node7"><a xlink:href="classqtreports_1_1_engine.html#aad905c82a23399294dc3a83ba1988c2e" target="_top" xlink:title="qtreports::Engine::\lgetPrintPreviewDialog">
<polygon fill="none" stroke="black" points="570,-0.5 570,-30.5 690,-30.5 690,-0.5 570,-0.5"/>
<text text-anchor="start" x="578" y="-18.5" font-family="Helvetica,sans-Serif" font-size="10.00">qtreports::Engine::</text>
<text text-anchor="middle" x="630" y="-7.5" font-family="Helvetica,sans-Serif" font-size="10.00">getPrintPreviewDialog</text>
</a>
</g>
</g>
<!-- Node5&#45;&gt;Node7 -->
<g id="edge6" class="edge"><title>Node5&#45;&gt;Node7</title>
<path fill="none" stroke="midnightblue" d="M544.039,-29.4185C552.572,-28.0206 561.323,-26.587 569.812,-25.1963"/>
<polygon fill="midnightblue" stroke="midnightblue" points="543.453,-25.9678 534.15,-31.0385 544.585,-32.8757 543.453,-25.9678"/>
</g>
</g>
</svg>
        <g id="navigator" transform="translate(0 0)" fill="#404254">
                <rect fill="#f2f5e9" fill-opacity="0.5" stroke="#606060" stroke-width=".5" x="0" y="0" width="60" height="60"/>
                <use id="zoomplus" xlink:href="#zoomPlus" x="17" y="9" onmousedown="handleZoom(evt,'in')"/>
                <use id="zoomminus" xlink:href="#zoomMin" x="42" y="9" onmousedown="handleZoom(evt,'out')"/>
                <use id="reset" xlink:href="#resetDef" x="30" y="36" onmousedown="handleReset()"/>
                <g id="arrowUp" xlink:href="#dirArrow" transform="translate(30 24)" onmousedown="handlePan(0,-1)">
                  <use xlink:href="#rim" fill="#404040">
                        <set attributeName="fill" to="#808080" begin="arrowUp.mouseover" end="arrowUp.mouseout"/>
                  </use>
                  <path fill="none" stroke="white" stroke-width="1.5" d="M0,-3.0v7 M-2.5,-0.5L0,-3.0L2.5,-0.5"/>
                </g>
                <g id="arrowRight" xlink:href="#dirArrow" transform="rotate(90) translate(36 -43)" onmousedown="handlePan(1,0)">
                  <use xlink:href="#rim" fill="#404040">
                        <set attributeName="fill" to="#808080" begin="arrowRight.mouseover" end="arrowRight.mouseout"/>
                  </use>
                  <path fill="none" stroke="white" stroke-width="1.5" d="M0,-3.0v7 M-2.5,-0.5L0,-3.0L2.5,-0.5"/>
                </g>
                <g id="arrowDown" xlink:href="#dirArrow" transform="rotate(180) translate(-30 -48)" onmousedown="handlePan(0,1)">
                  <use xlink:href="#rim" fill="#404040">
                        <set attributeName="fill" to="#808080" begin="arrowDown.mouseover" end="arrowDown.mouseout"/>
                  </use>
                  <path fill="none" stroke="white" stroke-width="1.5" d="M0,-3.0v7 M-2.5,-0.5L0,-3.0L2.5,-0.5"/>
                </g>
                <g id="arrowLeft" xlink:href="#dirArrow" transform="rotate(270) translate(-36 17)" onmousedown="handlePan(-1,0)">
                  <use xlink:href="#rim" fill="#404040">
                        <set attributeName="fill" to="#808080" begin="arrowLeft.mouseover" end="arrowLeft.mouseout"/>
                  </use>
                  <path fill="none" stroke="white" stroke-width="1.5" d="M0,-3.0v7 M-2.5,-0.5L0,-3.0L2.5,-0.5"/>
                </g>
        </g>
        <svg viewBox="0 0 15 15" width="100%" height="30px" preserveAspectRatio="xMaxYMin meet">
         <g id="arrow_out" transform="scale(0.3 0.3)">
          <a xlink:href="classqtreports_1_1_engine_a1d96729622d140d02108a29034aecea0_icgraph_org.svg" target="_base">
           <rect id="button" ry="5" rx="5" y="6" x="6" height="38" width="38"
                fill="#f2f5e9" fill-opacity="0.5" stroke="#606060" stroke-width="1.0"/>
           <path id="arrow"
             d="M 11.500037,31.436501 C 11.940474,20.09759 22.043105,11.32322 32.158766,21.979434 L 37.068811,17.246167 C 37.068811,17.246167 37.088388,32 37.088388,32 L 22.160133,31.978069 C 22.160133,31.978069 26.997745,27.140456 26.997745,27.140456 C 18.528582,18.264221 13.291696,25.230495 11.500037,31.436501 z"
             style="fill:#404040;"/>
          </a>
         </g>
        </svg>
</svg>
