<?xml version="1.0" encoding="UTF-8" standalone="no"?>
<!DOCTYPE svg PUBLIC "-//W3C//DTD SVG 1.1//EN"
 "http://www.w3.org/Graphics/SVG/1.1/DTD/svg11.dtd">
<!-- Generated by graphviz version 2.38.0 (20140413.2041)
 -->
<!-- Title: qtreports::detail::ParserFromXML::parseChilds Pages: 1 -->
<svg width="896pt" height="872pt"
 viewBox="0.00 0.00 896.00 872.00" xmlns="http://www.w3.org/2000/svg" xmlns:xlink="http://www.w3.org/1999/xlink">
<g id="graph0" class="graph" transform="scale(1 1) rotate(0) translate(4 868)">
<title>qtreports::detail::ParserFromXML::parseChilds</title>
<!-- Node1 -->
<g id="node1" class="node"><title>Node1</title>
<polygon fill="#bfbfbf" stroke="black" points="0,-416.5 0,-446.5 152,-446.5 152,-416.5 0,-416.5"/>
<text text-anchor="start" x="8" y="-434.5" font-family="Helvetica,sans-Serif" font-size="10.00">qtreports::detail::</text>
<text text-anchor="middle" x="76" y="-423.5" font-family="Helvetica,sans-Serif" font-size="10.00">ParserFromXML::parseChilds</text>
</g>
<!-- Node2 -->
<g id="node2" class="node"><title>Node2</title>
<g id="a_node2"><a xlink:href="classqtreports_1_1detail_1_1_parser_from_x_m_l.html#aa67a21faa016b0ef4686b22a390fd446" target="_top" xlink:title="Начинает парсинг документа ">
<polygon fill="none" stroke="black" points="195.5,-833.5 195.5,-863.5 368.5,-863.5 368.5,-833.5 195.5,-833.5"/>
<text text-anchor="start" x="203.5" y="-851.5" font-family="Helvetica,sans-Serif" font-size="10.00">qtreports::detail::</text>
<text text-anchor="middle" x="282" y="-840.5" font-family="Helvetica,sans-Serif" font-size="10.00">ParserFromXML::parseDocument</text>
</a>
</g>
</g>
<!-- Node1&#45;&gt;Node2 -->
<g id="edge1" class="edge"><title>Node1&#45;&gt;Node2</title>
<path fill="none" stroke="midnightblue" d="M76.1205,-456.971C75.1828,-526.543 82.5843,-721.452 188,-824.5 191.458,-827.88 195.326,-830.803 199.467,-833.328"/>
<polygon fill="midnightblue" stroke="midnightblue" points="79.6285,-456.626 76.3392,-446.555 72.63,-456.479 79.6285,-456.626"/>
</g>
<!-- Node6 -->
<g id="node6" class="node"><title>Node6</title>
<g id="a_node6"><a xlink:href="classqtreports_1_1detail_1_1_parser_from_x_m_l.html#a8247dc85ae5cae03ab3f175982a0857e" target="_top" xlink:title="Парсит тэг report. ">
<polygon fill="none" stroke="black" points="205,-784.5 205,-814.5 359,-814.5 359,-784.5 205,-784.5"/>
<text text-anchor="start" x="213" y="-802.5" font-family="Helvetica,sans-Serif" font-size="10.00">qtreports::detail::</text>
<text text-anchor="middle" x="282" y="-791.5" font-family="Helvetica,sans-Serif" font-size="10.00">ParserFromXML::parseReport</text>
</a>
</g>
</g>
<!-- Node1&#45;&gt;Node6 -->
<g id="edge5" class="edge"><title>Node1&#45;&gt;Node6</title>
<path fill="none" stroke="midnightblue" d="M77.3217,-456.785C79.5556,-520.236 94.4973,-687.408 188,-775.5 192.976,-780.188 198.744,-783.99 204.922,-787.07"/>
<polygon fill="midnightblue" stroke="midnightblue" points="80.8131,-456.418 77.0425,-446.517 73.8157,-456.608 80.8131,-456.418"/>
</g>
<!-- Node8 -->
<g id="node8" class="node"><title>Node8</title>
<g id="a_node8"><a xlink:href="classqtreports_1_1detail_1_1_parser_from_x_m_l.html#a20a5b5081956769e0d219779407ba76c" target="_top" xlink:title="Парсит тэг Field. ">
<polygon fill="none" stroke="black" points="210,-735.5 210,-765.5 354,-765.5 354,-735.5 210,-735.5"/>
<text text-anchor="start" x="218" y="-753.5" font-family="Helvetica,sans-Serif" font-size="10.00">qtreports::detail::</text>
<text text-anchor="middle" x="282" y="-742.5" font-family="Helvetica,sans-Serif" font-size="10.00">ParserFromXML::parseField</text>
</a>
</g>
</g>
<!-- Node1&#45;&gt;Node8 -->
<g id="edge7" class="edge"><title>Node1&#45;&gt;Node8</title>
<path fill="none" stroke="midnightblue" d="M78.9083,-457.041C84.5926,-514.237 106.51,-653.318 188,-726.5 194.327,-732.182 201.824,-736.553 209.774,-739.909"/>
<polygon fill="midnightblue" stroke="midnightblue" points="82.3629,-456.381 77.975,-446.738 75.3914,-457.013 82.3629,-456.381"/>
</g>
<!-- Node9 -->
<g id="node9" class="node"><title>Node9</title>
<g id="a_node9"><a xlink:href="classqtreports_1_1detail_1_1_parser_from_x_m_l.html#a477a961860b1de77b5a0da28e361987a" target="_top" xlink:title="Парсит тэг group. ">
<polygon fill="none" stroke="black" points="206,-686.5 206,-716.5 358,-716.5 358,-686.5 206,-686.5"/>
<text text-anchor="start" x="214" y="-704.5" font-family="Helvetica,sans-Serif" font-size="10.00">qtreports::detail::</text>
<text text-anchor="middle" x="282" y="-693.5" font-family="Helvetica,sans-Serif" font-size="10.00">ParserFromXML::parseGroup</text>
</a>
</g>
</g>
<!-- Node1&#45;&gt;Node9 -->
<g id="edge9" class="edge"><title>Node1&#45;&gt;Node9</title>
<path fill="none" stroke="midnightblue" d="M80.9724,-456.586C90.2352,-506.52 118.04,-618.604 188,-677.5 193.358,-682.01 199.461,-685.687 205.92,-688.681"/>
<polygon fill="midnightblue" stroke="midnightblue" points="84.4031,-455.886 79.2236,-446.643 77.5089,-457.098 84.4031,-455.886"/>
</g>
<!-- Node10 -->
<g id="node10" class="node"><title>Node10</title>
<g id="a_node10"><a xlink:href="classqtreports_1_1detail_1_1_parser_from_x_m_l.html#a5a92ffb4f04daa047da0ddfe3d583262" target="_top" xlink:title="Парсит тэг groupHeader. ">
<polygon fill="none" stroke="black" points="188,-637.5 188,-667.5 376,-667.5 376,-637.5 188,-637.5"/>
<text text-anchor="start" x="196" y="-655.5" font-family="Helvetica,sans-Serif" font-size="10.00">qtreports::detail::</text>
<text text-anchor="middle" x="282" y="-644.5" font-family="Helvetica,sans-Serif" font-size="10.00">ParserFromXML::parseGroupHeader</text>
</a>
</g>
</g>
<!-- Node1&#45;&gt;Node10 -->
<g id="edge11" class="edge"><title>Node1&#45;&gt;Node10</title>
<path fill="none" stroke="midnightblue" d="M83.9339,-456.255C97.0246,-498.312 129.457,-583.52 188,-628.5 192.496,-631.954 197.438,-634.914 202.628,-637.45"/>
<polygon fill="midnightblue" stroke="midnightblue" points="87.2459,-455.114 81.0184,-446.543 80.5415,-457.127 87.2459,-455.114"/>
</g>
<!-- Node11 -->
<g id="node11" class="node"><title>Node11</title>
<g id="a_node11"><a xlink:href="classqtreports_1_1detail_1_1_parser_from_x_m_l.html#acfd1224b98c50412fd1b1897da5a362a" target="_top" xlink:title="Парсит тэг groupFooter. ">
<polygon fill="none" stroke="black" points="190.5,-588.5 190.5,-618.5 373.5,-618.5 373.5,-588.5 190.5,-588.5"/>
<text text-anchor="start" x="198.5" y="-606.5" font-family="Helvetica,sans-Serif" font-size="10.00">qtreports::detail::</text>
<text text-anchor="middle" x="282" y="-595.5" font-family="Helvetica,sans-Serif" font-size="10.00">ParserFromXML::parseGroupFooter</text>
</a>
</g>
</g>
<!-- Node1&#45;&gt;Node11 -->
<g id="edge13" class="edge"><title>Node1&#45;&gt;Node11</title>
<path fill="none" stroke="midnightblue" d="M88.5527,-455.779C105.591,-488.913 140.631,-547.789 188,-579.5 193.127,-582.932 198.714,-585.874 204.523,-588.394"/>
<polygon fill="midnightblue" stroke="midnightblue" points="91.6477,-454.143 84.0386,-446.77 85.3894,-457.279 91.6477,-454.143"/>
</g>
<!-- Node12 -->
<g id="node12" class="node"><title>Node12</title>
<g id="a_node12"><a xlink:href="classqtreports_1_1detail_1_1_parser_from_x_m_l.html#a88dc32b7c6b8727e6a7fed5e222a7aab" target="_top" xlink:title="Парсит тэг Title. ">
<polygon fill="none" stroke="black" points="210.5,-539.5 210.5,-569.5 353.5,-569.5 353.5,-539.5 210.5,-539.5"/>
<text text-anchor="start" x="218.5" y="-557.5" font-family="Helvetica,sans-Serif" font-size="10.00">qtreports::detail::</text>
<text text-anchor="middle" x="282" y="-546.5" font-family="Helvetica,sans-Serif" font-size="10.00">ParserFromXML::parseTitle</text>
</a>
</g>
</g>
<!-- Node1&#45;&gt;Node12 -->
<g id="edge15" class="edge"><title>Node1&#45;&gt;Node12</title>
<path fill="none" stroke="midnightblue" d="M96.3559,-454.185C116.872,-476.803 151.323,-510.917 188,-530.5 194.913,-534.191 202.423,-537.336 210.077,-540.011"/>
<polygon fill="midnightblue" stroke="midnightblue" points="98.9625,-451.849 89.6994,-446.707 93.7338,-456.504 98.9625,-451.849"/>
</g>
<!-- Node13 -->
<g id="node13" class="node"><title>Node13</title>
<g id="a_node13"><a xlink:href="classqtreports_1_1detail_1_1_parser_from_x_m_l.html#a79d177b44a8d13065f226fd7940bdde0" target="_top" xlink:title="Парсит тэг Detail. ">
<polygon fill="none" stroke="black" points="206.5,-490.5 206.5,-520.5 357.5,-520.5 357.5,-490.5 206.5,-490.5"/>
<text text-anchor="start" x="214.5" y="-508.5" font-family="Helvetica,sans-Serif" font-size="10.00">qtreports::detail::</text>
<text text-anchor="middle" x="282" y="-497.5" font-family="Helvetica,sans-Serif" font-size="10.00">ParserFromXML::parseDetail</text>
</a>
</g>
</g>
<!-- Node1&#45;&gt;Node13 -->
<g id="edge17" class="edge"><title>Node1&#45;&gt;Node13</title>
<path fill="none" stroke="midnightblue" d="M116.263,-451.164C137.205,-461.143 163.618,-472.933 188,-481.5 197.125,-484.706 206.888,-487.691 216.533,-490.391"/>
<polygon fill="midnightblue" stroke="midnightblue" points="117.58,-447.913 107.053,-446.724 114.541,-454.219 117.58,-447.913"/>
</g>
<!-- Node14 -->
<g id="node14" class="node"><title>Node14</title>
<g id="a_node14"><a xlink:href="classqtreports_1_1detail_1_1_parser_from_x_m_l.html#a1d2dfaa79bc7e339443ac12d56b3ba11" target="_top" xlink:title="Парсит тэг Summary. ">
<polygon fill="none" stroke="black" points="197,-441.5 197,-471.5 367,-471.5 367,-441.5 197,-441.5"/>
<text text-anchor="start" x="205" y="-459.5" font-family="Helvetica,sans-Serif" font-size="10.00">qtreports::detail::</text>
<text text-anchor="middle" x="282" y="-448.5" font-family="Helvetica,sans-Serif" font-size="10.00">ParserFromXML::parseSummary</text>
</a>
</g>
</g>
<!-- Node1&#45;&gt;Node14 -->
<g id="edge19" class="edge"><title>Node1&#45;&gt;Node14</title>
<path fill="none" stroke="midnightblue" d="M162.083,-441.927C173.554,-443.333 185.318,-444.774 196.774,-446.178"/>
<polygon fill="midnightblue" stroke="midnightblue" points="162.444,-438.445 152.093,-440.703 161.593,-445.393 162.444,-438.445"/>
</g>
<!-- Node15 -->
<g id="node15" class="node"><title>Node15</title>
<g id="a_node15"><a xlink:href="classqtreports_1_1detail_1_1_parser_from_x_m_l.html#af04b8018f1bb3d60ecb6525f31d29885" target="_top" xlink:title="Парсит тэг Band. ">
<polygon fill="none" stroke="black" points="208,-392.5 208,-422.5 356,-422.5 356,-392.5 208,-392.5"/>
<text text-anchor="start" x="216" y="-410.5" font-family="Helvetica,sans-Serif" font-size="10.00">qtreports::detail::</text>
<text text-anchor="middle" x="282" y="-399.5" font-family="Helvetica,sans-Serif" font-size="10.00">ParserFromXML::parseBand</text>
</a>
</g>
</g>
<!-- Node1&#45;&gt;Node15 -->
<g id="edge21" class="edge"><title>Node1&#45;&gt;Node15</title>
<path fill="none" stroke="midnightblue" d="M162.43,-421.449C177.501,-419.676 193.067,-417.845 207.766,-416.116"/>
<polygon fill="midnightblue" stroke="midnightblue" points="161.616,-418.021 152.093,-422.666 162.433,-424.973 161.616,-418.021"/>
</g>
<!-- Node16 -->
<g id="node16" class="node"><title>Node16</title>
<g id="a_node16"><a xlink:href="classqtreports_1_1detail_1_1_parser_from_x_m_l.html#a55d48b0d7875a6a4366c0e30f6cf5624" target="_top" xlink:title="Парсит Crosstab элемент ">
<polygon fill="none" stroke="black" points="199,-343.5 199,-373.5 365,-373.5 365,-343.5 199,-343.5"/>
<text text-anchor="start" x="207" y="-361.5" font-family="Helvetica,sans-Serif" font-size="10.00">qtreports::detail::</text>
<text text-anchor="middle" x="282" y="-350.5" font-family="Helvetica,sans-Serif" font-size="10.00">ParserFromXML::parseCrosstab</text>
</a>
</g>
</g>
<!-- Node1&#45;&gt;Node16 -->
<g id="edge23" class="edge"><title>Node1&#45;&gt;Node16</title>
<path fill="none" stroke="midnightblue" d="M117.724,-412.196C138.474,-402.797 164.274,-391.77 188,-383.5 198.262,-379.923 209.308,-376.551 220.079,-373.51"/>
<polygon fill="midnightblue" stroke="midnightblue" points="116.207,-409.041 108.571,-416.385 119.12,-415.406 116.207,-409.041"/>
</g>
<!-- Node17 -->
<g id="node17" class="node"><title>Node17</title>
<g id="a_node17"><a xlink:href="classqtreports_1_1detail_1_1_parser_from_x_m_l.html#a53c4121976bc3f27125f8f698d4d8304" target="_top" xlink:title="Парсит тэг StaticText. ">
<polygon fill="none" stroke="black" points="197,-294.5 197,-324.5 367,-324.5 367,-294.5 197,-294.5"/>
<text text-anchor="start" x="205" y="-312.5" font-family="Helvetica,sans-Serif" font-size="10.00">qtreports::detail::</text>
<text text-anchor="middle" x="282" y="-301.5" font-family="Helvetica,sans-Serif" font-size="10.00">ParserFromXML::parseStaticText</text>
</a>
</g>
</g>
<!-- Node1&#45;&gt;Node17 -->
<g id="edge25" class="edge"><title>Node1&#45;&gt;Node17</title>
<path fill="none" stroke="midnightblue" d="M97.1069,-408.705C117.798,-386.616 152.009,-353.716 188,-334.5 195.227,-330.642 203.094,-327.344 211.092,-324.535"/>
<polygon fill="midnightblue" stroke="midnightblue" points="94.3083,-406.577 90.1175,-416.308 99.4618,-411.315 94.3083,-406.577"/>
</g>
<!-- Node18 -->
<g id="node18" class="node"><title>Node18</title>
<g id="a_node18"><a xlink:href="classqtreports_1_1detail_1_1_parser_from_x_m_l.html#a6249b073f54ee7fbb194e467349b9f4f" target="_top" xlink:title="Парсит тэг TextField. ">
<polygon fill="none" stroke="black" points="200.5,-245.5 200.5,-275.5 363.5,-275.5 363.5,-245.5 200.5,-245.5"/>
<text text-anchor="start" x="208.5" y="-263.5" font-family="Helvetica,sans-Serif" font-size="10.00">qtreports::detail::</text>
<text text-anchor="middle" x="282" y="-252.5" font-family="Helvetica,sans-Serif" font-size="10.00">ParserFromXML::parseTextField</text>
</a>
</g>
</g>
<!-- Node1&#45;&gt;Node18 -->
<g id="edge27" class="edge"><title>Node1&#45;&gt;Node18</title>
<path fill="none" stroke="midnightblue" d="M88.906,-407.195C106.178,-374.512 141.297,-316.884 188,-285.5 193.69,-281.677 199.942,-278.437 206.431,-275.691"/>
<polygon fill="midnightblue" stroke="midnightblue" points="85.591,-405.988 84.1255,-416.481 91.8146,-409.192 85.591,-405.988"/>
</g>
<!-- Node19 -->
<g id="node19" class="node"><title>Node19</title>
<g id="a_node19"><a xlink:href="classqtreports_1_1detail_1_1_parser_from_x_m_l.html#a14d5b8d1921d17d067c10554864120a2" target="_top" xlink:title="Парсит тэг Line. ">
<polygon fill="none" stroke="black" points="210.5,-196.5 210.5,-226.5 353.5,-226.5 353.5,-196.5 210.5,-196.5"/>
<text text-anchor="start" x="218.5" y="-214.5" font-family="Helvetica,sans-Serif" font-size="10.00">qtreports::detail::</text>
<text text-anchor="middle" x="282" y="-203.5" font-family="Helvetica,sans-Serif" font-size="10.00">ParserFromXML::parseLine</text>
</a>
</g>
</g>
<!-- Node1&#45;&gt;Node19 -->
<g id="edge29" class="edge"><title>Node1&#45;&gt;Node19</title>
<path fill="none" stroke="midnightblue" d="M84.1539,-406.748C97.4916,-365.099 130.176,-281.188 188,-236.5 194.614,-231.388 202.193,-227.319 210.106,-224.081"/>
<polygon fill="midnightblue" stroke="midnightblue" points="80.7871,-405.789 81.1763,-416.377 87.4746,-407.857 80.7871,-405.789"/>
</g>
<!-- Node20 -->
<g id="node20" class="node"><title>Node20</title>
<g id="a_node20"><a xlink:href="classqtreports_1_1detail_1_1_parser_from_x_m_l.html#a8b364c4886eb32dc960079052e5158ec" target="_top" xlink:title="Парсит тэг Rect. ">
<polygon fill="none" stroke="black" points="210.5,-147.5 210.5,-177.5 353.5,-177.5 353.5,-147.5 210.5,-147.5"/>
<text text-anchor="start" x="218.5" y="-165.5" font-family="Helvetica,sans-Serif" font-size="10.00">qtreports::detail::</text>
<text text-anchor="middle" x="282" y="-154.5" font-family="Helvetica,sans-Serif" font-size="10.00">ParserFromXML::parseRect</text>
</a>
</g>
</g>
<!-- Node1&#45;&gt;Node20 -->
<g id="edge31" class="edge"><title>Node1&#45;&gt;Node20</title>
<path fill="none" stroke="midnightblue" d="M81.1552,-406.318C90.6915,-356.714 118.882,-246.101 188,-187.5 194.504,-181.986 202.107,-177.677 210.114,-174.311"/>
<polygon fill="midnightblue" stroke="midnightblue" points="77.7028,-405.741 79.3485,-416.207 84.5888,-406.999 77.7028,-405.741"/>
</g>
<!-- Node21 -->
<g id="node21" class="node"><title>Node21</title>
<g id="a_node21"><a xlink:href="classqtreports_1_1detail_1_1_parser_from_x_m_l.html#a7dc4d03466c276ea931ad46b295d5ee7" target="_top" xlink:title="Парсит тэг Ellipse. ">
<polygon fill="none" stroke="black" points="205.5,-98.5 205.5,-128.5 358.5,-128.5 358.5,-98.5 205.5,-98.5"/>
<text text-anchor="start" x="213.5" y="-116.5" font-family="Helvetica,sans-Serif" font-size="10.00">qtreports::detail::</text>
<text text-anchor="middle" x="282" y="-105.5" font-family="Helvetica,sans-Serif" font-size="10.00">ParserFromXML::parseEllipse</text>
</a>
</g>
</g>
<!-- Node1&#45;&gt;Node21 -->
<g id="edge33" class="edge"><title>Node1&#45;&gt;Node21</title>
<path fill="none" stroke="midnightblue" d="M79.018,-406.186C84.9278,-349.488 107.278,-211.563 188,-138.5 193.082,-133.9 198.922,-130.132 205.146,-127.048"/>
<polygon fill="midnightblue" stroke="midnightblue" points="75.5092,-406.111 78.0428,-416.399 82.4775,-406.777 75.5092,-406.111"/>
</g>
<!-- Node22 -->
<g id="node22" class="node"><title>Node22</title>
<g id="a_node22"><a xlink:href="classqtreports_1_1detail_1_1_parser_from_x_m_l.html#a877a6f05ca0b9dda625083f9860202cc" target="_top" xlink:title="Парсит тэг Image. ">
<polygon fill="none" stroke="black" points="205.5,-49.5 205.5,-79.5 358.5,-79.5 358.5,-49.5 205.5,-49.5"/>
<text text-anchor="start" x="213.5" y="-67.5" font-family="Helvetica,sans-Serif" font-size="10.00">qtreports::detail::</text>
<text text-anchor="middle" x="282" y="-56.5" font-family="Helvetica,sans-Serif" font-size="10.00">ParserFromXML::parseImage</text>
</a>
</g>
</g>
<!-- Node1&#45;&gt;Node22 -->
<g id="edge35" class="edge"><title>Node1&#45;&gt;Node22</title>
<path fill="none" stroke="midnightblue" d="M77.4424,-405.978C79.9713,-342.69 95.5695,-177.313 188,-89.5 193.091,-84.6635 199.014,-80.7411 205.361,-77.5629"/>
<polygon fill="midnightblue" stroke="midnightblue" points="73.9359,-406.128 77.1144,-416.234 80.9323,-406.351 73.9359,-406.128"/>
</g>
<!-- Node23 -->
<g id="node23" class="node"><title>Node23</title>
<g id="a_node23"><a xlink:href="classqtreports_1_1detail_1_1_parser_from_x_m_l.html#a3693d70428f413c6adb999bf0ad69abe" target="_top" xlink:title="Парсит тэг TextElement &#45; общие данные о текстовом элементе (выравнивание текста и пр...">
<polygon fill="none" stroke="black" points="191,-0.5 191,-30.5 373,-30.5 373,-0.5 191,-0.5"/>
<text text-anchor="start" x="199" y="-18.5" font-family="Helvetica,sans-Serif" font-size="10.00">qtreports::detail::</text>
<text text-anchor="middle" x="282" y="-7.5" font-family="Helvetica,sans-Serif" font-size="10.00">ParserFromXML::parseTextElement</text>
</a>
</g>
</g>
<!-- Node1&#45;&gt;Node23 -->
<g id="edge37" class="edge"><title>Node1&#45;&gt;Node23</title>
<path fill="none" stroke="midnightblue" d="M76.1432,-406.092C75.2632,-336.693 82.7984,-142.27 188,-39.5 191.459,-36.1209 195.328,-33.1993 199.469,-30.6751"/>
<polygon fill="midnightblue" stroke="midnightblue" points="72.6517,-406.555 76.353,-416.482 79.6503,-406.414 72.6517,-406.555"/>
</g>
<!-- Node3 -->
<g id="node3" class="node"><title>Node3</title>
<g id="a_node3"><a xlink:href="classqtreports_1_1detail_1_1_parser_from_x_m_l.html#ac5de42ec7fdd07773b0435484df51c2e" target="_top" xlink:title="Парсит отчет и создает из него внутреннюю структуру данных Report. ">
<polygon fill="none" stroke="black" points="435.5,-833.5 435.5,-863.5 558.5,-863.5 558.5,-833.5 435.5,-833.5"/>
<text text-anchor="start" x="443.5" y="-851.5" font-family="Helvetica,sans-Serif" font-size="10.00">qtreports::detail::</text>
<text text-anchor="middle" x="497" y="-840.5" font-family="Helvetica,sans-Serif" font-size="10.00">ParserFromXML::parse</text>
</a>
</g>
</g>
<!-- Node2&#45;&gt;Node3 -->
<g id="edge2" class="edge"><title>Node2&#45;&gt;Node3</title>
<path fill="none" stroke="midnightblue" d="M378.72,-848.5C397.962,-848.5 417.678,-848.5 435.321,-848.5"/>
<polygon fill="midnightblue" stroke="midnightblue" points="378.715,-845 368.715,-848.5 378.715,-852 378.715,-845"/>
</g>
<!-- Node4 -->
<g id="node4" class="node"><title>Node4</title>
<g id="a_node4"><a xlink:href="classqtreports_1_1_engine.html#a12cebdcb817b3c9a0c730b9439b2ff85" target="_top" xlink:title="Загружает макет отчета из файла path. ">
<polygon fill="none" stroke="black" points="618,-839 618,-858 747,-858 747,-839 618,-839"/>
<text text-anchor="middle" x="682.5" y="-846" font-family="Helvetica,sans-Serif" font-size="10.00">qtreports::Engine::open</text>
</a>
</g>
</g>
<!-- Node3&#45;&gt;Node4 -->
<g id="edge3" class="edge"><title>Node3&#45;&gt;Node4</title>
<path fill="none" stroke="midnightblue" d="M569.009,-848.5C585.089,-848.5 602.066,-848.5 617.822,-848.5"/>
<polygon fill="midnightblue" stroke="midnightblue" points="568.593,-845 558.593,-848.5 568.593,-852 568.593,-845"/>
</g>
<!-- Node5 -->
<g id="node5" class="node"><title>Node5</title>
<g id="a_node5"><a xlink:href="classqtreports_1_1_engine.html#a18298bdce3e086347705e133eccfd7fa" target="_top" xlink:title="qtreports::Engine::\lEngine">
<polygon fill="none" stroke="black" points="783,-833.5 783,-863.5 888,-863.5 888,-833.5 783,-833.5"/>
<text text-anchor="start" x="791" y="-851.5" font-family="Helvetica,sans-Serif" font-size="10.00">qtreports::Engine::</text>
<text text-anchor="middle" x="835.5" y="-840.5" font-family="Helvetica,sans-Serif" font-size="10.00">Engine</text>
</a>
</g>
</g>
<!-- Node4&#45;&gt;Node5 -->
<g id="edge4" class="edge"><title>Node4&#45;&gt;Node5</title>
<path fill="none" stroke="midnightblue" d="M757.234,-848.5C765.902,-848.5 774.601,-848.5 782.874,-848.5"/>
<polygon fill="midnightblue" stroke="midnightblue" points="757.1,-845 747.1,-848.5 757.1,-852 757.1,-845"/>
</g>
<!-- Node7 -->
<g id="node7" class="node"><title>Node7</title>
<g id="a_node7"><a xlink:href="classqtreports_1_1detail_1_1_parser_from_x_m_l.html#ab548bd252b2e13a315daefae6b43f1d6" target="_top" xlink:title="qtreports::detail::\lParserFromXML::ParserFromXML">
<polygon fill="none" stroke="black" points="412,-392.5 412,-422.5 582,-422.5 582,-392.5 412,-392.5"/>
<text text-anchor="start" x="420" y="-410.5" font-family="Helvetica,sans-Serif" font-size="10.00">qtreports::detail::</text>
<text text-anchor="middle" x="497" y="-399.5" font-family="Helvetica,sans-Serif" font-size="10.00">ParserFromXML::ParserFromXML</text>
</a>
</g>
</g>
<!-- Node6&#45;&gt;Node7 -->
<g id="edge6" class="edge"><title>Node6&#45;&gt;Node7</title>
<path fill="none" stroke="midnightblue" d="M367.981,-781.878C370.819,-779.96 373.508,-777.84 376,-775.5 482.782,-675.208 494.72,-478.867 495.911,-422.789"/>
<polygon fill="midnightblue" stroke="midnightblue" points="365.955,-779.007 359.063,-787.054 369.469,-785.061 365.955,-779.007"/>
</g>
<!-- Node8&#45;&gt;Node7 -->
<g id="edge8" class="edge"><title>Node8&#45;&gt;Node7</title>
<path fill="none" stroke="midnightblue" d="M363.292,-735.494C367.854,-732.938 372.144,-729.963 376,-726.5 470.868,-641.297 491.052,-473.491 495.063,-422.528"/>
<polygon fill="midnightblue" stroke="midnightblue" points="361.684,-732.384 354.226,-739.91 364.749,-738.678 361.684,-732.384"/>
</g>
<!-- Node9&#45;&gt;Node7 -->
<g id="edge10" class="edge"><title>Node9&#45;&gt;Node7</title>
<path fill="none" stroke="midnightblue" d="M367.188,-683.852C370.289,-681.944 373.244,-679.833 376,-677.5 458.799,-607.396 486.693,-468.837 493.888,-422.784"/>
<polygon fill="midnightblue" stroke="midnightblue" points="365.271,-680.908 358.107,-688.713 368.575,-687.08 365.271,-680.908"/>
</g>
<!-- Node10&#45;&gt;Node7 -->
<g id="edge12" class="edge"><title>Node10&#45;&gt;Node7</title>
<path fill="none" stroke="midnightblue" d="M370.95,-632.113C372.687,-630.973 374.374,-629.77 376,-628.5 447.231,-572.879 481.727,-462.713 492.323,-422.577"/>
<polygon fill="midnightblue" stroke="midnightblue" points="368.827,-629.296 361.889,-637.303 372.306,-635.37 368.827,-629.296"/>
</g>
<!-- Node11&#45;&gt;Node7 -->
<g id="edge14" class="edge"><title>Node11&#45;&gt;Node7</title>
<path fill="none" stroke="midnightblue" d="M369.288,-583.72C371.599,-582.403 373.843,-580.998 376,-579.5 435.808,-537.957 475.408,-456.344 489.871,-422.627"/>
<polygon fill="midnightblue" stroke="midnightblue" points="367.421,-580.742 360.077,-588.378 370.58,-586.989 367.421,-580.742"/>
</g>
<!-- Node12&#45;&gt;Node7 -->
<g id="edge16" class="edge"><title>Node12&#45;&gt;Node7</title>
<path fill="none" stroke="midnightblue" d="M363.057,-536.971C367.539,-535.032 371.888,-532.883 376,-530.5 424.787,-502.232 466.944,-448.661 485.669,-422.556"/>
<polygon fill="midnightblue" stroke="midnightblue" points="361.72,-533.736 353.702,-540.662 364.289,-540.247 361.72,-533.736"/>
</g>
<!-- Node13&#45;&gt;Node7 -->
<g id="edge18" class="edge"><title>Node13&#45;&gt;Node7</title>
<path fill="none" stroke="midnightblue" d="M361.179,-487.177C366.251,-485.421 371.232,-483.53 376,-481.5 413.382,-465.582 452.741,-439.193 475.795,-422.605"/>
<polygon fill="midnightblue" stroke="midnightblue" points="359.766,-483.957 351.346,-490.388 361.938,-490.611 359.766,-483.957"/>
</g>
<!-- Node14&#45;&gt;Node7 -->
<g id="edge20" class="edge"><title>Node14&#45;&gt;Node7</title>
<path fill="none" stroke="midnightblue" d="M358.337,-439.169C381.985,-433.729 407.881,-427.771 430.769,-422.506"/>
<polygon fill="midnightblue" stroke="midnightblue" points="357.315,-435.812 348.355,-441.465 358.885,-442.634 357.315,-435.812"/>
</g>
<!-- Node15&#45;&gt;Node7 -->
<g id="edge22" class="edge"><title>Node15&#45;&gt;Node7</title>
<path fill="none" stroke="midnightblue" d="M366.231,-407.5C381.174,-407.5 396.76,-407.5 411.731,-407.5"/>
<polygon fill="midnightblue" stroke="midnightblue" points="366.005,-404 356.005,-407.5 366.004,-411 366.005,-404"/>
</g>
<!-- Node16&#45;&gt;Node7 -->
<g id="edge24" class="edge"><title>Node16&#45;&gt;Node7</title>
<path fill="none" stroke="midnightblue" d="M358.337,-375.831C381.985,-381.271 407.881,-387.229 430.769,-392.494"/>
<polygon fill="midnightblue" stroke="midnightblue" points="358.885,-372.366 348.355,-373.535 357.315,-379.188 358.885,-372.366"/>
</g>
<!-- Node17&#45;&gt;Node7 -->
<g id="edge26" class="edge"><title>Node17&#45;&gt;Node7</title>
<path fill="none" stroke="midnightblue" d="M358.048,-327.67C364.196,-329.762 370.251,-332.038 376,-334.5 412.988,-350.338 452.146,-376.085 475.312,-392.389"/>
<polygon fill="midnightblue" stroke="midnightblue" points="358.932,-324.278 348.34,-324.534 356.78,-330.939 358.932,-324.278"/>
</g>
<!-- Node18&#45;&gt;Node7 -->
<g id="edge28" class="edge"><title>Node18&#45;&gt;Node7</title>
<path fill="none" stroke="midnightblue" d="M363.946,-279.349C368.113,-281.215 372.16,-283.259 376,-285.5 424.243,-313.646 466.346,-366.248 485.309,-392.207"/>
<polygon fill="midnightblue" stroke="midnightblue" points="365.241,-276.097 354.661,-275.545 362.587,-282.575 365.241,-276.097"/>
</g>
<!-- Node19&#45;&gt;Node7 -->
<g id="edge30" class="edge"><title>Node19&#45;&gt;Node7</title>
<path fill="none" stroke="midnightblue" d="M363.278,-229.03C367.735,-231.232 372.015,-233.71 376,-236.5 435.274,-277.994 475.041,-358.665 489.706,-392.252"/>
<polygon fill="midnightblue" stroke="midnightblue" points="364.48,-225.735 353.919,-224.888 361.646,-232.136 364.48,-225.735"/>
</g>
<!-- Node20&#45;&gt;Node7 -->
<g id="edge32" class="edge"><title>Node20&#45;&gt;Node7</title>
<path fill="none" stroke="midnightblue" d="M362.767,-179.04C367.456,-181.483 371.918,-184.285 376,-187.5 446.585,-243.081 481.377,-352.141 492.192,-392.239"/>
<polygon fill="midnightblue" stroke="midnightblue" points="364.057,-175.78 353.51,-174.771 361.125,-182.137 364.057,-175.78"/>
</g>
<!-- Node21&#45;&gt;Node7 -->
<g id="edge34" class="edge"><title>Node21&#45;&gt;Node7</title>
<path fill="none" stroke="midnightblue" d="M367.416,-132.22C370.435,-134.117 373.312,-136.204 376,-138.5 458.239,-208.745 486.498,-346.53 493.838,-392.309"/>
<polygon fill="midnightblue" stroke="midnightblue" points="369.028,-129.112 358.579,-127.361 365.655,-135.246 369.028,-129.112"/>
</g>
<!-- Node22&#45;&gt;Node7 -->
<g id="edge36" class="edge"><title>Node22&#45;&gt;Node7</title>
<path fill="none" stroke="midnightblue" d="M367.589,-83.0235C370.56,-84.9744 373.381,-87.1264 376,-89.5 470.005,-174.697 490.752,-341.087 494.986,-392.198"/>
<polygon fill="midnightblue" stroke="midnightblue" points="369.28,-79.9586 358.86,-78.0411 365.81,-86.038 369.28,-79.9586"/>
</g>
<!-- Node23&#45;&gt;Node7 -->
<g id="edge38" class="edge"><title>Node23&#45;&gt;Node7</title>
<path fill="none" stroke="midnightblue" d="M372.462,-36.426C373.68,-37.4057 374.861,-38.4298 376,-39.5 482.782,-139.792 494.72,-336.133 495.911,-392.211"/>
<polygon fill="midnightblue" stroke="midnightblue" points="374.169,-33.3521 363.942,-30.5812 370.209,-39.1244 374.169,-33.3521"/>
</g>
</g>
</svg>
