<?xml version="1.0" encoding="UTF-8" standalone="no"?>
<!DOCTYPE svg PUBLIC "-//W3C//DTD SVG 1.1//EN"
 "http://www.w3.org/Graphics/SVG/1.1/DTD/svg11.dtd">
<!-- Generated by graphviz version 2.38.0 (20140413.2041)
 -->
<!-- Title: qtreports::Engine::createLayout Pages: 1 -->
<svg width="1482pt" height="575pt"
 viewBox="0.00 0.00 1482.00 574.71" xmlns="http://www.w3.org/2000/svg" xmlns:xlink="http://www.w3.org/1999/xlink">
<g id="graph0" class="graph" transform="scale(1 1) rotate(0) translate(4 570.706)">
<title>qtreports::Engine::createLayout</title>
<!-- Node1 -->
<g id="node1" class="node"><title>Node1</title>
<polygon fill="#bfbfbf" stroke="black" points="0,-322 0,-352 105,-352 105,-322 0,-322"/>
<text text-anchor="start" x="8" y="-340" font-family="Helvetica,sans-Serif" font-size="10.00">qtreports::Engine::</text>
<text text-anchor="middle" x="52.5" y="-329" font-family="Helvetica,sans-Serif" font-size="10.00">createLayout</text>
</g>
<!-- Node2 -->
<g id="node2" class="node"><title>Node2</title>
<g id="a_node2"><a xlink:href="classqtreports_1_1detail_1_1_converter_to_q_widget.html#a4b42725ccbbc910522dca786da95fbb6" target="_top" xlink:title="Конвертирует отчет в виджет. ">
<polygon fill="none" stroke="black" points="141,-376.5 141,-417.5 260,-417.5 260,-376.5 141,-376.5"/>
<text text-anchor="start" x="149" y="-405.5" font-family="Helvetica,sans-Serif" font-size="10.00">qtreports::detail::</text>
<text text-anchor="start" x="149" y="-394.5" font-family="Helvetica,sans-Serif" font-size="10.00">ConverterToQWidget::</text>
<text text-anchor="middle" x="200.5" y="-383.5" font-family="Helvetica,sans-Serif" font-size="10.00">convert</text>
</a>
</g>
</g>
<!-- Node1&#45;&gt;Node2 -->
<g id="edge1" class="edge"><title>Node1&#45;&gt;Node2</title>
<path fill="none" stroke="midnightblue" d="M90.342,-352.141C105.313,-358.293 122.997,-365.561 139.724,-372.435"/>
<polygon fill="midnightblue" stroke="midnightblue" points="138.854,-375.861 149.434,-376.425 141.515,-369.386 138.854,-375.861"/>
</g>
<!-- Node26 -->
<g id="node26" class="node"><title>Node26</title>
<g id="a_node26"><a xlink:href="classqtreports_1_1detail_1_1_converter_to_q_widget.html#aba09b9782ffddba920ee7b881f3e8f99" target="_top" xlink:title="Возвращает информацию о последней ошибке, возникшей в процессе конвертации. ">
<polygon fill="none" stroke="black" points="141,-316.5 141,-357.5 260,-357.5 260,-316.5 141,-316.5"/>
<text text-anchor="start" x="149" y="-345.5" font-family="Helvetica,sans-Serif" font-size="10.00">qtreports::detail::</text>
<text text-anchor="start" x="149" y="-334.5" font-family="Helvetica,sans-Serif" font-size="10.00">ConverterToQWidget::</text>
<text text-anchor="middle" x="200.5" y="-323.5" font-family="Helvetica,sans-Serif" font-size="10.00">getLastError</text>
</a>
</g>
</g>
<!-- Node1&#45;&gt;Node26 -->
<g id="edge39" class="edge"><title>Node1&#45;&gt;Node26</title>
<path fill="none" stroke="midnightblue" d="M105.385,-337C113.543,-337 122.086,-337 130.555,-337"/>
<polygon fill="midnightblue" stroke="midnightblue" points="130.82,-340.5 140.82,-337 130.82,-333.5 130.82,-340.5"/>
</g>
<!-- Node27 -->
<g id="node27" class="node"><title>Node27</title>
<g id="a_node27"><a xlink:href="classqtreports_1_1detail_1_1_converter_to_q_widget.html#ab01f3bcd13f00483adbdec4eacc272e8" target="_top" xlink:title="Возвращает указатель на объект QWidget. ">
<polygon fill="none" stroke="black" points="141,-256.5 141,-297.5 260,-297.5 260,-256.5 141,-256.5"/>
<text text-anchor="start" x="149" y="-285.5" font-family="Helvetica,sans-Serif" font-size="10.00">qtreports::detail::</text>
<text text-anchor="start" x="149" y="-274.5" font-family="Helvetica,sans-Serif" font-size="10.00">ConverterToQWidget::</text>
<text text-anchor="middle" x="200.5" y="-263.5" font-family="Helvetica,sans-Serif" font-size="10.00">getQWidget</text>
</a>
</g>
</g>
<!-- Node1&#45;&gt;Node27 -->
<g id="edge40" class="edge"><title>Node1&#45;&gt;Node27</title>
<path fill="none" stroke="midnightblue" d="M90.342,-321.859C105.313,-315.707 122.997,-308.439 139.724,-301.565"/>
<polygon fill="midnightblue" stroke="midnightblue" points="141.515,-304.614 149.434,-297.575 138.854,-298.139 141.515,-304.614"/>
</g>
<!-- Node3 -->
<g id="node3" class="node"><title>Node3</title>
<g id="a_node3"><a xlink:href="classqtreports_1_1detail_1_1_converter_to_q_widget.html#a96a53267cf2b8092e174906ea7f0f56f" target="_top" xlink:title="Конвертирует отчет в QWidget. ">
<polygon fill="none" stroke="black" points="296,-376.5 296,-417.5 415,-417.5 415,-376.5 296,-376.5"/>
<text text-anchor="start" x="304" y="-405.5" font-family="Helvetica,sans-Serif" font-size="10.00">qtreports::detail::</text>
<text text-anchor="start" x="304" y="-394.5" font-family="Helvetica,sans-Serif" font-size="10.00">ConverterToQWidget::</text>
<text text-anchor="middle" x="355.5" y="-383.5" font-family="Helvetica,sans-Serif" font-size="10.00">createQWidget</text>
</a>
</g>
</g>
<!-- Node2&#45;&gt;Node3 -->
<g id="edge2" class="edge"><title>Node2&#45;&gt;Node3</title>
<path fill="none" stroke="midnightblue" d="M260.216,-397C268.544,-397 277.169,-397 285.667,-397"/>
<polygon fill="midnightblue" stroke="midnightblue" points="285.941,-400.5 295.941,-397 285.941,-393.5 285.941,-400.5"/>
</g>
<!-- Node4 -->
<g id="node4" class="node"><title>Node4</title>
<g id="a_node4"><a xlink:href="classqtreports_1_1detail_1_1_converter_to_q_widget.html#a23d6229235fca8bd8bbddcc5e2e28f92" target="_top" xlink:title="Добавляет новую страницу на виджет. ">
<polygon fill="none" stroke="black" points="944.5,-0.5 944.5,-41.5 1063.5,-41.5 1063.5,-0.5 944.5,-0.5"/>
<text text-anchor="start" x="952.5" y="-29.5" font-family="Helvetica,sans-Serif" font-size="10.00">qtreports::detail::</text>
<text text-anchor="start" x="952.5" y="-18.5" font-family="Helvetica,sans-Serif" font-size="10.00">ConverterToQWidget::</text>
<text text-anchor="middle" x="1004" y="-7.5" font-family="Helvetica,sans-Serif" font-size="10.00">addPage</text>
</a>
</g>
</g>
<!-- Node3&#45;&gt;Node4 -->
<g id="edge3" class="edge"><title>Node3&#45;&gt;Node4</title>
<path fill="none" stroke="midnightblue" d="M363.5,-376.232C376.011,-341.948 405.262,-273.212 451,-232 593.053,-104.002 820.842,-50.5411 934.24,-30.9292"/>
<polygon fill="midnightblue" stroke="midnightblue" points="934.913,-34.365 944.189,-29.2448 933.745,-27.4632 934.913,-34.365"/>
</g>
<!-- Node5 -->
<g id="node5" class="node"><title>Node5</title>
<g id="a_node5"><a xlink:href="classqtreports_1_1detail_1_1_converter_to_q_widget.html#af350953efb07bf3393c33846a81b1121" target="_top" xlink:title="Добавляет вертикальную границу. ">
<polygon fill="none" stroke="black" points="606,-496.5 606,-537.5 725,-537.5 725,-496.5 606,-496.5"/>
<text text-anchor="start" x="614" y="-525.5" font-family="Helvetica,sans-Serif" font-size="10.00">qtreports::detail::</text>
<text text-anchor="start" x="614" y="-514.5" font-family="Helvetica,sans-Serif" font-size="10.00">ConverterToQWidget::</text>
<text text-anchor="middle" x="665.5" y="-503.5" font-family="Helvetica,sans-Serif" font-size="10.00">addVerticalBorder</text>
</a>
</g>
</g>
<!-- Node3&#45;&gt;Node5 -->
<g id="edge4" class="edge"><title>Node3&#45;&gt;Node5</title>
<path fill="none" stroke="midnightblue" d="M398.464,-417.568C414.722,-425.264 433.584,-433.864 451,-441 498.962,-460.652 554.099,-480.204 596.326,-494.555"/>
<polygon fill="midnightblue" stroke="midnightblue" points="595.355,-497.921 605.949,-497.811 597.599,-491.29 595.355,-497.921"/>
</g>
<!-- Node6 -->
<g id="node6" class="node"><title>Node6</title>
<g id="a_node6"><a xlink:href="classqtreports_1_1detail_1_1_converter_to_q_widget.html#a76bb37f2855d12afc9056c75cdbc5e0b" target="_top" xlink:title="Проверяет, является ли виджет типа WidgetType::Layout. ">
<polygon fill="none" stroke="black" points="944.5,-367.5 944.5,-408.5 1063.5,-408.5 1063.5,-367.5 944.5,-367.5"/>
<text text-anchor="start" x="952.5" y="-396.5" font-family="Helvetica,sans-Serif" font-size="10.00">qtreports::detail::</text>
<text text-anchor="start" x="952.5" y="-385.5" font-family="Helvetica,sans-Serif" font-size="10.00">ConverterToQWidget::</text>
<text text-anchor="middle" x="1004" y="-374.5" font-family="Helvetica,sans-Serif" font-size="10.00">isLayout</text>
</a>
</g>
</g>
<!-- Node3&#45;&gt;Node6 -->
<g id="edge7" class="edge"><title>Node3&#45;&gt;Node6</title>
<path fill="none" stroke="midnightblue" d="M377.736,-417.612C396.092,-434.702 423.873,-458.882 451,-476 515.081,-516.436 531.969,-530.851 606,-547 726.811,-573.353 774.48,-580.273 883,-521 927.963,-496.441 964.75,-448.414 985.265,-417.293"/>
<polygon fill="midnightblue" stroke="midnightblue" points="988.385,-418.912 990.856,-408.61 982.5,-415.122 988.385,-418.912"/>
</g>
<!-- Node8 -->
<g id="node8" class="node"><title>Node8</title>
<g id="a_node8"><a xlink:href="classqtreports_1_1detail_1_1_converter_to_q_widget.html#ae126b16c5a846e84f12d86ca8ef253dd" target="_top" xlink:title="Добавляет секцию. ">
<polygon fill="none" stroke="black" points="606,-376.5 606,-417.5 725,-417.5 725,-376.5 606,-376.5"/>
<text text-anchor="start" x="614" y="-405.5" font-family="Helvetica,sans-Serif" font-size="10.00">qtreports::detail::</text>
<text text-anchor="start" x="614" y="-394.5" font-family="Helvetica,sans-Serif" font-size="10.00">ConverterToQWidget::</text>
<text text-anchor="middle" x="665.5" y="-383.5" font-family="Helvetica,sans-Serif" font-size="10.00">addSectionLayout</text>
</a>
</g>
</g>
<!-- Node3&#45;&gt;Node8 -->
<g id="edge8" class="edge"><title>Node3&#45;&gt;Node8</title>
<path fill="none" stroke="midnightblue" d="M415.157,-397C466.562,-397 541.333,-397 595.579,-397"/>
<polygon fill="midnightblue" stroke="midnightblue" points="595.799,-400.5 605.799,-397 595.799,-393.5 595.799,-400.5"/>
</g>
<!-- Node9 -->
<g id="node9" class="node"><title>Node9</title>
<g id="a_node9"><a xlink:href="classqtreports_1_1detail_1_1_converter_to_q_widget.html#a3c95daf9bd10efc4feb71e0d976bbd6e" target="_top" xlink:title="Создает секцию. ">
<polygon fill="none" stroke="black" points="606,-180.5 606,-221.5 725,-221.5 725,-180.5 606,-180.5"/>
<text text-anchor="start" x="614" y="-209.5" font-family="Helvetica,sans-Serif" font-size="10.00">qtreports::detail::</text>
<text text-anchor="start" x="614" y="-198.5" font-family="Helvetica,sans-Serif" font-size="10.00">ConverterToQWidget::</text>
<text text-anchor="middle" x="665.5" y="-187.5" font-family="Helvetica,sans-Serif" font-size="10.00">createSection</text>
</a>
</g>
</g>
<!-- Node3&#45;&gt;Node9 -->
<g id="edge11" class="edge"><title>Node3&#45;&gt;Node9</title>
<path fill="none" stroke="midnightblue" d="M372.412,-376.422C389.858,-354.925 419.577,-321.289 451,-299 495.783,-267.235 552.506,-241.778 596.228,-224.778"/>
<polygon fill="midnightblue" stroke="midnightblue" points="597.548,-228.021 605.633,-221.174 595.043,-221.485 597.548,-228.021"/>
</g>
<!-- Node23 -->
<g id="node23" class="node"><title>Node23</title>
<g id="a_node23"><a xlink:href="classqtreports_1_1detail_1_1_converter_to_q_widget.html#ac98aceb5ee703053d7691029da84e296" target="_top" xlink:title="Функция добавления группировок в отчет. ">
<polygon fill="none" stroke="black" points="451,-308.5 451,-349.5 570,-349.5 570,-308.5 451,-308.5"/>
<text text-anchor="start" x="459" y="-337.5" font-family="Helvetica,sans-Serif" font-size="10.00">qtreports::detail::</text>
<text text-anchor="start" x="459" y="-326.5" font-family="Helvetica,sans-Serif" font-size="10.00">ConverterToQWidget::</text>
<text text-anchor="middle" x="510.5" y="-315.5" font-family="Helvetica,sans-Serif" font-size="10.00">addGroupsIntoReport</text>
</a>
</g>
</g>
<!-- Node3&#45;&gt;Node23 -->
<g id="edge30" class="edge"><title>Node3&#45;&gt;Node23</title>
<path fill="none" stroke="midnightblue" d="M402.82,-376.413C418.998,-369.223 437.32,-361.08 454.158,-353.596"/>
<polygon fill="midnightblue" stroke="midnightblue" points="455.621,-356.777 463.337,-349.517 452.778,-350.38 455.621,-356.777"/>
</g>
<!-- Node25 -->
<g id="node25" class="node"><title>Node25</title>
<g id="a_node25"><a xlink:href="classqtreports_1_1detail_1_1_converter_to_q_widget.html#a21d211f4a1f0f46f2220a0959c36367b" target="_top" xlink:title="Добавляет пустую секцию. ">
<polygon fill="none" stroke="black" points="606,-436.5 606,-477.5 725,-477.5 725,-436.5 606,-436.5"/>
<text text-anchor="start" x="614" y="-465.5" font-family="Helvetica,sans-Serif" font-size="10.00">qtreports::detail::</text>
<text text-anchor="start" x="614" y="-454.5" font-family="Helvetica,sans-Serif" font-size="10.00">ConverterToQWidget::</text>
<text text-anchor="middle" x="665.5" y="-443.5" font-family="Helvetica,sans-Serif" font-size="10.00">addEmptySection</text>
</a>
</g>
</g>
<!-- Node3&#45;&gt;Node25 -->
<g id="edge36" class="edge"><title>Node3&#45;&gt;Node25</title>
<path fill="none" stroke="midnightblue" d="M415.157,-408.427C466.669,-418.461 541.644,-433.067 595.917,-443.64"/>
<polygon fill="midnightblue" stroke="midnightblue" points="595.315,-447.088 605.799,-445.565 596.653,-440.217 595.315,-447.088"/>
</g>
<!-- Node5&#45;&gt;Node6 -->
<g id="edge5" class="edge"><title>Node5&#45;&gt;Node6</title>
<path fill="none" stroke="midnightblue" d="M725.033,-520.628C770.065,-521.2 832.863,-517.074 883,-495 922.649,-477.544 958.329,-441.926 980.279,-416.583"/>
<polygon fill="midnightblue" stroke="midnightblue" points="983.119,-418.645 986.911,-408.752 977.778,-414.121 983.119,-418.645"/>
</g>
<!-- Node7 -->
<g id="node7" class="node"><title>Node7</title>
<g id="a_node7"><a xlink:href="namespaceqtreports_1_1detail.html#a57ac54d6807a30b13e419a3106735b19" target="_top" xlink:title="qtreports::detail::\lcreateLayout">
<polygon fill="none" stroke="black" points="772.5,-455 772.5,-485 871.5,-485 871.5,-455 772.5,-455"/>
<text text-anchor="start" x="780.5" y="-473" font-family="Helvetica,sans-Serif" font-size="10.00">qtreports::detail::</text>
<text text-anchor="middle" x="822" y="-462" font-family="Helvetica,sans-Serif" font-size="10.00">createLayout</text>
</a>
</g>
</g>
<!-- Node5&#45;&gt;Node7 -->
<g id="edge6" class="edge"><title>Node5&#45;&gt;Node7</title>
<path fill="none" stroke="midnightblue" d="M725.351,-499.097C737.597,-495.372 750.499,-491.447 762.724,-487.728"/>
<polygon fill="midnightblue" stroke="midnightblue" points="763.81,-491.056 772.359,-484.797 761.773,-484.359 763.81,-491.056"/>
</g>
<!-- Node8&#45;&gt;Node6 -->
<g id="edge9" class="edge"><title>Node8&#45;&gt;Node6</title>
<path fill="none" stroke="midnightblue" d="M725.114,-395.432C783.441,-393.872 872.904,-391.48 934.48,-389.833"/>
<polygon fill="midnightblue" stroke="midnightblue" points="934.591,-393.331 944.494,-389.565 934.404,-386.333 934.591,-393.331"/>
</g>
<!-- Node8&#45;&gt;Node7 -->
<g id="edge10" class="edge"><title>Node8&#45;&gt;Node7</title>
<path fill="none" stroke="midnightblue" d="M709.948,-417.529C731.873,-427.888 758.322,-440.385 779.908,-450.584"/>
<polygon fill="midnightblue" stroke="midnightblue" points="778.604,-453.839 789.141,-454.947 781.595,-447.51 778.604,-453.839"/>
</g>
<!-- Node9&#45;&gt;Node6 -->
<g id="edge12" class="edge"><title>Node9&#45;&gt;Node6</title>
<path fill="none" stroke="midnightblue" d="M707.619,-221.596C713.49,-224.679 719.425,-227.873 725,-231 741.354,-240.174 744.809,-243.542 761,-253 828.263,-292.293 907.253,-335.889 956.226,-362.624"/>
<polygon fill="midnightblue" stroke="midnightblue" points="954.556,-365.7 965.011,-367.415 957.908,-359.555 954.556,-365.7"/>
</g>
<!-- Node10 -->
<g id="node10" class="node"><title>Node10</title>
<g id="a_node10"><a xlink:href="classqtreports_1_1detail_1_1_replacer.html#af7ccb83be264f7c72b7485cf38455450" target="_top" xlink:title="Заменяет текст всех виджетов секции текстом с подставленными значениями. ">
<polygon fill="none" stroke="black" points="772.5,-164 772.5,-194 871.5,-194 871.5,-164 772.5,-164"/>
<text text-anchor="start" x="780.5" y="-182" font-family="Helvetica,sans-Serif" font-size="10.00">qtreports::detail::</text>
<text text-anchor="middle" x="822" y="-171" font-family="Helvetica,sans-Serif" font-size="10.00">Replacer::replace</text>
</a>
</g>
</g>
<!-- Node9&#45;&gt;Node10 -->
<g id="edge13" class="edge"><title>Node9&#45;&gt;Node10</title>
<path fill="none" stroke="midnightblue" d="M725.351,-192.62C737.476,-190.893 750.243,-189.075 762.361,-187.35"/>
<polygon fill="midnightblue" stroke="midnightblue" points="762.952,-190.801 772.359,-185.926 761.965,-183.871 762.952,-190.801"/>
</g>
<!-- Node17 -->
<g id="node17" class="node"><title>Node17</title>
<g id="a_node17"><a xlink:href="classqtreports_1_1detail_1_1_replacer.html#a677f7802e444f2de3af4cb43b6cedf30" target="_top" xlink:title="Возвращает описание последней произошедшей ошибки. ">
<polygon fill="none" stroke="black" points="761,-213 761,-243 883,-243 883,-213 761,-213"/>
<text text-anchor="start" x="769" y="-231" font-family="Helvetica,sans-Serif" font-size="10.00">qtreports::detail::</text>
<text text-anchor="middle" x="822" y="-220" font-family="Helvetica,sans-Serif" font-size="10.00">Replacer::getLastError</text>
</a>
</g>
</g>
<!-- Node9&#45;&gt;Node17 -->
<g id="edge20" class="edge"><title>Node9&#45;&gt;Node17</title>
<path fill="none" stroke="midnightblue" d="M725.351,-211.285C733.686,-212.741 742.326,-214.251 750.849,-215.741"/>
<polygon fill="midnightblue" stroke="midnightblue" points="750.322,-219.202 760.775,-217.475 751.527,-212.306 750.322,-219.202"/>
</g>
<!-- Node18 -->
<g id="node18" class="node"><title>Node18</title>
<g id="a_node18"><a xlink:href="classqtreports_1_1detail_1_1_converter_to_q_widget.html#aa3be16e037533a4a5b58596087207187" target="_top" xlink:title="Создает band. ">
<polygon fill="none" stroke="black" points="762.5,-104.5 762.5,-145.5 881.5,-145.5 881.5,-104.5 762.5,-104.5"/>
<text text-anchor="start" x="770.5" y="-133.5" font-family="Helvetica,sans-Serif" font-size="10.00">qtreports::detail::</text>
<text text-anchor="start" x="770.5" y="-122.5" font-family="Helvetica,sans-Serif" font-size="10.00">ConverterToQWidget::</text>
<text text-anchor="middle" x="822" y="-111.5" font-family="Helvetica,sans-Serif" font-size="10.00">createBands</text>
</a>
</g>
</g>
<!-- Node9&#45;&gt;Node18 -->
<g id="edge21" class="edge"><title>Node9&#45;&gt;Node18</title>
<path fill="none" stroke="midnightblue" d="M707.85,-180.308C724.362,-172.079 743.561,-162.551 761,-154 763.717,-152.668 766.505,-151.305 769.322,-149.932"/>
<polygon fill="midnightblue" stroke="midnightblue" points="770.899,-153.057 778.361,-145.536 767.837,-146.762 770.899,-153.057"/>
</g>
<!-- Node11 -->
<g id="node11" class="node"><title>Node11</title>
<g id="a_node11"><a xlink:href="classqtreports_1_1detail_1_1_replacer.html#a58cf857aa78eb3e273f6543769af425b" target="_top" xlink:title="Заменяет текст всех виджетов секции текстом с подставленными значениями полей из источника данных...">
<polygon fill="none" stroke="black" points="922,-229 922,-259 1086,-259 1086,-229 922,-229"/>
<text text-anchor="start" x="930" y="-247" font-family="Helvetica,sans-Serif" font-size="10.00">qtreports::detail::</text>
<text text-anchor="middle" x="1004" y="-236" font-family="Helvetica,sans-Serif" font-size="10.00">Replacer::replaceFieldInSection</text>
</a>
</g>
</g>
<!-- Node10&#45;&gt;Node11 -->
<g id="edge14" class="edge"><title>Node10&#45;&gt;Node11</title>
<path fill="none" stroke="midnightblue" d="M859.546,-194.067C867.303,-197.31 875.433,-200.743 883,-204 899.082,-210.923 902.542,-214.025 919,-220 924.571,-222.023 930.399,-223.987 936.275,-225.864"/>
<polygon fill="midnightblue" stroke="midnightblue" points="935.584,-229.314 946.173,-228.934 937.659,-222.628 935.584,-229.314"/>
</g>
<!-- Node16 -->
<g id="node16" class="node"><title>Node16</title>
<g id="a_node16"><a xlink:href="classqtreports_1_1detail_1_1_replacer.html#abb903f1c1172efa7e26b040a5695cc86" target="_top" xlink:title="Возвращает текст с подставленными значениями параметров. ">
<polygon fill="none" stroke="black" points="927,-180 927,-210 1081,-210 1081,-180 927,-180"/>
<text text-anchor="start" x="935" y="-198" font-family="Helvetica,sans-Serif" font-size="10.00">qtreports::detail::</text>
<text text-anchor="middle" x="1004" y="-187" font-family="Helvetica,sans-Serif" font-size="10.00">Replacer::replaceParameters</text>
</a>
</g>
</g>
<!-- Node10&#45;&gt;Node16 -->
<g id="edge19" class="edge"><title>Node10&#45;&gt;Node16</title>
<path fill="none" stroke="midnightblue" d="M871.711,-183.33C885.632,-184.567 901.236,-185.954 916.695,-187.328"/>
<polygon fill="midnightblue" stroke="midnightblue" points="916.543,-190.829 926.814,-188.228 917.163,-183.856 916.543,-190.829"/>
</g>
<!-- Node12 -->
<g id="node12" class="node"><title>Node12</title>
<g id="a_node12"><a xlink:href="classqtreports_1_1detail_1_1_replacer.html#a2be57bd514335f9b9f2a520247562ce1" target="_top" xlink:title="Заменяет текст виджета текстом с подставленными значениями полей из источника данных. ">
<polygon fill="none" stroke="black" points="1134,-180.5 1134,-221.5 1280,-221.5 1280,-180.5 1134,-180.5"/>
<text text-anchor="start" x="1142" y="-209.5" font-family="Helvetica,sans-Serif" font-size="10.00">qtreports::detail::</text>
<text text-anchor="start" x="1142" y="-198.5" font-family="Helvetica,sans-Serif" font-size="10.00">Replacer::replaceFieldInText</text>
<text text-anchor="middle" x="1207" y="-187.5" font-family="Helvetica,sans-Serif" font-size="10.00">Widget</text>
</a>
</g>
</g>
<!-- Node11&#45;&gt;Node12 -->
<g id="edge15" class="edge"><title>Node11&#45;&gt;Node12</title>
<path fill="none" stroke="midnightblue" d="M1075.3,-228.961C1090.96,-225.611 1107.69,-222.031 1123.78,-218.59"/>
<polygon fill="midnightblue" stroke="midnightblue" points="1124.65,-221.983 1133.7,-216.468 1123.19,-215.137 1124.65,-221.983"/>
</g>
<!-- Node14 -->
<g id="node14" class="node"><title>Node14</title>
<g id="a_node14"><a xlink:href="classqtreports_1_1detail_1_1_replacer.html#a4aeb7794f90c0be34a30ab60a6df1920" target="_top" xlink:title="На основе текста виджета вставляет в него изображение из источника данных. ">
<polygon fill="none" stroke="black" points="1128,-240.5 1128,-281.5 1286,-281.5 1286,-240.5 1128,-240.5"/>
<text text-anchor="start" x="1136" y="-269.5" font-family="Helvetica,sans-Serif" font-size="10.00">qtreports::detail::</text>
<text text-anchor="start" x="1136" y="-258.5" font-family="Helvetica,sans-Serif" font-size="10.00">Replacer::replaceFieldInImage</text>
<text text-anchor="middle" x="1207" y="-247.5" font-family="Helvetica,sans-Serif" font-size="10.00">Widget</text>
</a>
</g>
</g>
<!-- Node11&#45;&gt;Node14 -->
<g id="edge17" class="edge"><title>Node11&#45;&gt;Node14</title>
<path fill="none" stroke="midnightblue" d="M1086.18,-250.866C1096.58,-251.745 1107.27,-252.65 1117.78,-253.538"/>
<polygon fill="midnightblue" stroke="midnightblue" points="1117.52,-257.029 1127.78,-254.385 1118.11,-250.054 1117.52,-257.029"/>
</g>
<!-- Node13 -->
<g id="node13" class="node"><title>Node13</title>
<g id="a_node13"><a xlink:href="classqtreports_1_1detail_1_1_replacer.html#a4642b07160798f2ee4de276e1d0c1ecd" target="_top" xlink:title="Возвращает текст с подставленными значениями полей из источника данных. ">
<polygon fill="none" stroke="black" points="1340,-156 1340,-186 1459,-186 1459,-156 1340,-156"/>
<text text-anchor="start" x="1348" y="-174" font-family="Helvetica,sans-Serif" font-size="10.00">qtreports::detail::</text>
<text text-anchor="middle" x="1399.5" y="-163" font-family="Helvetica,sans-Serif" font-size="10.00">Replacer::replaceField</text>
</a>
</g>
</g>
<!-- Node12&#45;&gt;Node13 -->
<g id="edge16" class="edge"><title>Node12&#45;&gt;Node13</title>
<path fill="none" stroke="midnightblue" d="M1280.02,-189.658C1296.34,-187.089 1313.62,-184.367 1329.8,-181.819"/>
<polygon fill="midnightblue" stroke="midnightblue" points="1330.37,-185.272 1339.71,-180.259 1329.28,-178.357 1330.37,-185.272"/>
</g>
<!-- Node15 -->
<g id="node15" class="node"><title>Node15</title>
<g id="a_node15"><a xlink:href="classqtreports_1_1detail_1_1_replacer.html#ae1ac521aeaf5fdd694e79e2ae52d4704" target="_top" xlink:title="Возвращает изображение на основе первого найденного выражения. ">
<polygon fill="none" stroke="black" points="1325,-246 1325,-276 1474,-276 1474,-246 1325,-246"/>
<text text-anchor="start" x="1333" y="-264" font-family="Helvetica,sans-Serif" font-size="10.00">qtreports::detail::</text>
<text text-anchor="middle" x="1399.5" y="-253" font-family="Helvetica,sans-Serif" font-size="10.00">Replacer::replaceFieldImage</text>
</a>
</g>
</g>
<!-- Node14&#45;&gt;Node15 -->
<g id="edge18" class="edge"><title>Node14&#45;&gt;Node15</title>
<path fill="none" stroke="midnightblue" d="M1286.03,-261C1295.47,-261 1305.13,-261 1314.64,-261"/>
<polygon fill="midnightblue" stroke="midnightblue" points="1314.89,-264.5 1324.88,-261 1314.88,-257.5 1314.89,-264.5"/>
</g>
<!-- Node18&#45;&gt;Node4 -->
<g id="edge22" class="edge"><title>Node18&#45;&gt;Node4</title>
<path fill="none" stroke="midnightblue" d="M845.625,-104.242C864.227,-88.0258 891.851,-65.8268 919,-51 924.05,-48.2422 929.403,-45.6529 934.866,-43.2414"/>
<polygon fill="midnightblue" stroke="midnightblue" points="936.263,-46.451 944.128,-39.3523 933.553,-39.9968 936.263,-46.451"/>
</g>
<!-- Node18&#45;&gt;Node6 -->
<g id="edge23" class="edge"><title>Node18&#45;&gt;Node6</title>
<path fill="none" stroke="midnightblue" d="M874.027,-145.668C877.311,-148.165 880.354,-150.934 883,-154 917.99,-194.547 895.27,-220.987 919,-269 935.366,-302.113 960.401,-336.179 978.886,-359.331"/>
<polygon fill="midnightblue" stroke="midnightblue" points="976.36,-361.773 985.371,-367.345 981.801,-357.37 976.36,-361.773"/>
</g>
<!-- Node19 -->
<g id="node19" class="node"><title>Node19</title>
<g id="a_node19"><a xlink:href="classqtreports_1_1detail_1_1_replacer.html#aa9fa83cf51d75301b62e11a0a93e2dcc" target="_top" xlink:title="qtreports::detail::\lReplacer::replaceColumnGroups\lInCrosstab">
<polygon fill="none" stroke="black" points="919,-120.5 919,-161.5 1089,-161.5 1089,-120.5 919,-120.5"/>
<text text-anchor="start" x="927" y="-149.5" font-family="Helvetica,sans-Serif" font-size="10.00">qtreports::detail::</text>
<text text-anchor="start" x="927" y="-138.5" font-family="Helvetica,sans-Serif" font-size="10.00">Replacer::replaceColumnGroups</text>
<text text-anchor="middle" x="1004" y="-127.5" font-family="Helvetica,sans-Serif" font-size="10.00">InCrosstab</text>
</a>
</g>
</g>
<!-- Node18&#45;&gt;Node19 -->
<g id="edge24" class="edge"><title>Node18&#45;&gt;Node19</title>
<path fill="none" stroke="midnightblue" d="M881.939,-130.239C890.506,-131.001 899.501,-131.8 908.556,-132.605"/>
<polygon fill="midnightblue" stroke="midnightblue" points="908.514,-136.115 918.785,-133.514 909.134,-129.142 908.514,-136.115"/>
</g>
<!-- Node21 -->
<g id="node21" class="node"><title>Node21</title>
<g id="a_node21"><a xlink:href="classqtreports_1_1detail_1_1_replacer.html#ae0f12ba0e77e9ef89b9479272e843fe6" target="_top" xlink:title="qtreports::detail::\lReplacer::replaceRowGroups\lInCrosstab">
<polygon fill="none" stroke="black" points="928.5,-60.5 928.5,-101.5 1079.5,-101.5 1079.5,-60.5 928.5,-60.5"/>
<text text-anchor="start" x="936.5" y="-89.5" font-family="Helvetica,sans-Serif" font-size="10.00">qtreports::detail::</text>
<text text-anchor="start" x="936.5" y="-78.5" font-family="Helvetica,sans-Serif" font-size="10.00">Replacer::replaceRowGroups</text>
<text text-anchor="middle" x="1004" y="-67.5" font-family="Helvetica,sans-Serif" font-size="10.00">InCrosstab</text>
</a>
</g>
</g>
<!-- Node18&#45;&gt;Node21 -->
<g id="edge27" class="edge"><title>Node18&#45;&gt;Node21</title>
<path fill="none" stroke="midnightblue" d="M881.939,-110.593C893.67,-107.725 906.203,-104.661 918.595,-101.632"/>
<polygon fill="midnightblue" stroke="midnightblue" points="919.601,-104.99 928.484,-99.2151 917.939,-98.1898 919.601,-104.99"/>
</g>
<!-- Node20 -->
<g id="node20" class="node"><title>Node20</title>
<g id="a_node20"><a xlink:href="classqtreports_1_1detail_1_1_replacer.html#a781b476a4e964da9e5afe4f642b2f275" target="_top" xlink:title="qtreports::detail::\lReplacer::replaceColumnGroup\lInCrosstab">
<polygon fill="none" stroke="black" points="1125,-120.5 1125,-161.5 1289,-161.5 1289,-120.5 1125,-120.5"/>
<text text-anchor="start" x="1133" y="-149.5" font-family="Helvetica,sans-Serif" font-size="10.00">qtreports::detail::</text>
<text text-anchor="start" x="1133" y="-138.5" font-family="Helvetica,sans-Serif" font-size="10.00">Replacer::replaceColumnGroup</text>
<text text-anchor="middle" x="1207" y="-127.5" font-family="Helvetica,sans-Serif" font-size="10.00">InCrosstab</text>
</a>
</g>
</g>
<!-- Node19&#45;&gt;Node20 -->
<g id="edge25" class="edge"><title>Node19&#45;&gt;Node20</title>
<path fill="none" stroke="midnightblue" d="M1089.08,-141C1097.58,-141 1106.25,-141 1114.82,-141"/>
<polygon fill="midnightblue" stroke="midnightblue" points="1114.83,-144.5 1124.83,-141 1114.83,-137.5 1114.83,-144.5"/>
</g>
<!-- Node20&#45;&gt;Node13 -->
<g id="edge26" class="edge"><title>Node20&#45;&gt;Node13</title>
<path fill="none" stroke="midnightblue" d="M1289.07,-153.766C1302.62,-155.901 1316.57,-158.098 1329.78,-160.178"/>
<polygon fill="midnightblue" stroke="midnightblue" points="1329.3,-163.645 1339.72,-161.743 1330.39,-156.73 1329.3,-163.645"/>
</g>
<!-- Node22 -->
<g id="node22" class="node"><title>Node22</title>
<g id="a_node22"><a xlink:href="classqtreports_1_1detail_1_1_replacer.html#a2114b58c90fe02b17e7bf99e144013b6" target="_top" xlink:title="qtreports::detail::\lReplacer::replaceRowGroupIn\lCrosstab">
<polygon fill="none" stroke="black" points="1130,-60.5 1130,-101.5 1284,-101.5 1284,-60.5 1130,-60.5"/>
<text text-anchor="start" x="1138" y="-89.5" font-family="Helvetica,sans-Serif" font-size="10.00">qtreports::detail::</text>
<text text-anchor="start" x="1138" y="-78.5" font-family="Helvetica,sans-Serif" font-size="10.00">Replacer::replaceRowGroupIn</text>
<text text-anchor="middle" x="1207" y="-67.5" font-family="Helvetica,sans-Serif" font-size="10.00">Crosstab</text>
</a>
</g>
</g>
<!-- Node21&#45;&gt;Node22 -->
<g id="edge28" class="edge"><title>Node21&#45;&gt;Node22</title>
<path fill="none" stroke="midnightblue" d="M1079.56,-81C1092.65,-81 1106.36,-81 1119.74,-81"/>
<polygon fill="midnightblue" stroke="midnightblue" points="1119.88,-84.5001 1129.88,-81 1119.88,-77.5001 1119.88,-84.5001"/>
</g>
<!-- Node22&#45;&gt;Node13 -->
<g id="edge29" class="edge"><title>Node22&#45;&gt;Node13</title>
<path fill="none" stroke="midnightblue" d="M1266.82,-101.624C1274.35,-104.604 1281.91,-107.764 1289,-111 1315.06,-122.887 1343.39,-138.486 1364.7,-150.8"/>
<polygon fill="midnightblue" stroke="midnightblue" points="1362.98,-153.846 1373.38,-155.855 1366.5,-147.797 1362.98,-153.846"/>
</g>
<!-- Node23&#45;&gt;Node6 -->
<g id="edge32" class="edge"><title>Node23&#45;&gt;Node6</title>
<path fill="none" stroke="midnightblue" d="M570.298,-336.058C661.6,-347.018 837.036,-368.078 934.128,-379.733"/>
<polygon fill="midnightblue" stroke="midnightblue" points="933.788,-383.217 944.134,-380.934 934.623,-376.267 933.788,-383.217"/>
</g>
<!-- Node23&#45;&gt;Node8 -->
<g id="edge33" class="edge"><title>Node23&#45;&gt;Node8</title>
<path fill="none" stroke="midnightblue" d="M557.82,-349.587C573.998,-356.777 592.32,-364.92 609.158,-372.404"/>
<polygon fill="midnightblue" stroke="midnightblue" points="607.778,-375.62 618.337,-376.483 610.621,-369.223 607.778,-375.62"/>
</g>
<!-- Node23&#45;&gt;Node9 -->
<g id="edge34" class="edge"><title>Node23&#45;&gt;Node9</title>
<path fill="none" stroke="midnightblue" d="M527.932,-308.297C545.582,-287.008 575.259,-253.827 606,-231 607.824,-229.645 609.718,-228.32 611.661,-227.028"/>
<polygon fill="midnightblue" stroke="midnightblue" points="613.773,-229.836 620.417,-221.583 610.076,-223.892 613.773,-229.836"/>
</g>
<!-- Node23&#45;&gt;Node13 -->
<g id="edge31" class="edge"><title>Node23&#45;&gt;Node13</title>
<path fill="none" stroke="midnightblue" d="M570.192,-323.248C632.393,-317.656 733.52,-310 821,-310 821,-310 821,-310 1005,-310 1131.5,-310 1179.52,-354.384 1289,-291 1313.96,-276.548 1306.12,-258.807 1325,-237 1339.02,-220.809 1356.85,-204.709 1371.44,-192.465"/>
<polygon fill="midnightblue" stroke="midnightblue" points="1373.68,-195.149 1379.16,-186.082 1369.22,-189.752 1373.68,-195.149"/>
</g>
<!-- Node24 -->
<g id="node24" class="node"><title>Node24</title>
<g id="a_node24"><a xlink:href="classqtreports_1_1detail_1_1_converter_to_q_widget.html#a5e49976fe8fac12633ccda1ba928b9b1" target="_top" xlink:title="Проверяет, является ли виджет типа WidgetType::Report. ">
<polygon fill="none" stroke="black" points="606,-240.5 606,-281.5 725,-281.5 725,-240.5 606,-240.5"/>
<text text-anchor="start" x="614" y="-269.5" font-family="Helvetica,sans-Serif" font-size="10.00">qtreports::detail::</text>
<text text-anchor="start" x="614" y="-258.5" font-family="Helvetica,sans-Serif" font-size="10.00">ConverterToQWidget::</text>
<text text-anchor="middle" x="665.5" y="-247.5" font-family="Helvetica,sans-Serif" font-size="10.00">isReport</text>
</a>
</g>
</g>
<!-- Node23&#45;&gt;Node24 -->
<g id="edge35" class="edge"><title>Node23&#45;&gt;Node24</title>
<path fill="none" stroke="midnightblue" d="M557.82,-308.413C573.998,-301.223 592.32,-293.08 609.158,-285.596"/>
<polygon fill="midnightblue" stroke="midnightblue" points="610.621,-288.777 618.337,-281.517 607.778,-282.38 610.621,-288.777"/>
</g>
<!-- Node25&#45;&gt;Node6 -->
<g id="edge37" class="edge"><title>Node25&#45;&gt;Node6</title>
<path fill="none" stroke="midnightblue" d="M725.114,-444.981C783.441,-433.021 872.904,-414.677 934.48,-402.05"/>
<polygon fill="midnightblue" stroke="midnightblue" points="935.401,-405.434 944.494,-399.997 933.995,-398.577 935.401,-405.434"/>
</g>
<!-- Node25&#45;&gt;Node7 -->
<g id="edge38" class="edge"><title>Node25&#45;&gt;Node7</title>
<path fill="none" stroke="midnightblue" d="M725.351,-461.952C737.476,-462.972 750.243,-464.046 762.361,-465.066"/>
<polygon fill="midnightblue" stroke="midnightblue" points="762.1,-468.556 772.359,-465.907 762.687,-461.581 762.1,-468.556"/>
</g>
</g>
</svg>
