<?xml version="1.0" encoding="UTF-8" standalone="no"?>
<!DOCTYPE svg PUBLIC "-//W3C//DTD SVG 1.1//EN"
 "http://www.w3.org/Graphics/SVG/1.1/DTD/svg11.dtd">
<!-- Generated by graphviz version 2.38.0 (20140413.2041)
 -->
<!-- Title: qtreports::Engine::open Pages: 1 -->
<svg width="937pt" height="284pt"
 viewBox="0.00 0.00 937.00 284.00" xmlns="http://www.w3.org/2000/svg" xmlns:xlink="http://www.w3.org/1999/xlink">
<g id="graph0" class="graph" transform="scale(1 1) rotate(0) translate(4 280)">
<title>qtreports::Engine::open</title>
<!-- Node1 -->
<g id="node1" class="node"><title>Node1</title>
<polygon fill="#bfbfbf" stroke="black" points="0,-128 0,-147 129,-147 129,-128 0,-128"/>
<text text-anchor="middle" x="64.5" y="-135" font-family="Helvetica,sans-Serif" font-size="10.00">qtreports::Engine::open</text>
</g>
<!-- Node2 -->
<g id="node2" class="node"><title>Node2</title>
<g id="a_node2"><a xlink:href="classqtreports_1_1_engine.html#aa3bb792af61b2661226814de9c3881ea" target="_top" xlink:title="qtreports::Engine::\lisOpened">
<polygon fill="none" stroke="black" points="190,-245.5 190,-275.5 295,-275.5 295,-245.5 190,-245.5"/>
<text text-anchor="start" x="198" y="-263.5" font-family="Helvetica,sans-Serif" font-size="10.00">qtreports::Engine::</text>
<text text-anchor="middle" x="242.5" y="-252.5" font-family="Helvetica,sans-Serif" font-size="10.00">isOpened</text>
</a>
</g>
</g>
<!-- Node1&#45;&gt;Node2 -->
<g id="edge1" class="edge"><title>Node1&#45;&gt;Node2</title>
<path fill="none" stroke="midnightblue" d="M72.5981,-147.196C87.512,-166.891 124.119,-211.803 165,-236.5 169.766,-239.379 174.91,-241.944 180.198,-244.224"/>
<polygon fill="midnightblue" stroke="midnightblue" points="179.234,-247.606 189.82,-248.023 181.805,-241.095 179.234,-247.606"/>
</g>
<!-- Node3 -->
<g id="node3" class="node"><title>Node3</title>
<g id="a_node3"><a xlink:href="classqtreports_1_1_engine.html#a2a4b818b959aa56fedc37ffbdfae47f6" target="_top" xlink:title="qtreports::Engine::\lclose">
<polygon fill="none" stroke="black" points="190,-196.5 190,-226.5 295,-226.5 295,-196.5 190,-196.5"/>
<text text-anchor="start" x="198" y="-214.5" font-family="Helvetica,sans-Serif" font-size="10.00">qtreports::Engine::</text>
<text text-anchor="middle" x="242.5" y="-203.5" font-family="Helvetica,sans-Serif" font-size="10.00">close</text>
</a>
</g>
</g>
<!-- Node1&#45;&gt;Node3 -->
<g id="edge2" class="edge"><title>Node1&#45;&gt;Node3</title>
<path fill="none" stroke="midnightblue" d="M82.3659,-147.033C101.851,-157.795 135.076,-175.38 165,-187.5 169.796,-189.442 174.812,-191.327 179.883,-193.129"/>
<polygon fill="midnightblue" stroke="midnightblue" points="179.065,-196.548 189.659,-196.487 181.339,-189.928 179.065,-196.548"/>
</g>
<!-- Node4 -->
<g id="node4" class="node"><title>Node4</title>
<g id="a_node4"><a xlink:href="classqtreports_1_1detail_1_1_parser_from_x_m_l.html#ac5de42ec7fdd07773b0435484df51c2e" target="_top" xlink:title="qtreports::detail::\lParserFromXML::parse">
<polygon fill="none" stroke="black" points="181,-147.5 181,-177.5 304,-177.5 304,-147.5 181,-147.5"/>
<text text-anchor="start" x="189" y="-165.5" font-family="Helvetica,sans-Serif" font-size="10.00">qtreports::detail::</text>
<text text-anchor="middle" x="242.5" y="-154.5" font-family="Helvetica,sans-Serif" font-size="10.00">ParserFromXML::parse</text>
</a>
</g>
</g>
<!-- Node1&#45;&gt;Node4 -->
<g id="edge3" class="edge"><title>Node1&#45;&gt;Node4</title>
<path fill="none" stroke="midnightblue" d="M129.04,-146.526C142.668,-148.461 157.146,-150.518 171.019,-152.488"/>
<polygon fill="midnightblue" stroke="midnightblue" points="170.599,-155.964 180.992,-153.905 171.584,-149.034 170.599,-155.964"/>
</g>
<!-- Node8 -->
<g id="node8" class="node"><title>Node8</title>
<g id="a_node8"><a xlink:href="classqtreports_1_1detail_1_1_parser_from_x_m_l.html#a39cecb46637a228bcc6135a2cc2eb7a9" target="_top" xlink:title="qtreports::detail::\lParserFromXML::getLastError">
<polygon fill="none" stroke="black" points="165,-98.5 165,-128.5 320,-128.5 320,-98.5 165,-98.5"/>
<text text-anchor="start" x="173" y="-116.5" font-family="Helvetica,sans-Serif" font-size="10.00">qtreports::detail::</text>
<text text-anchor="middle" x="242.5" y="-105.5" font-family="Helvetica,sans-Serif" font-size="10.00">ParserFromXML::getLastError</text>
</a>
</g>
</g>
<!-- Node1&#45;&gt;Node8 -->
<g id="edge7" class="edge"><title>Node1&#45;&gt;Node8</title>
<path fill="none" stroke="midnightblue" d="M129.04,-128.835C137.391,-127.697 146.061,-126.514 154.716,-125.334"/>
<polygon fill="midnightblue" stroke="midnightblue" points="155.412,-128.772 164.848,-123.953 154.467,-121.836 155.412,-128.772"/>
</g>
<!-- Node9 -->
<g id="node9" class="node"><title>Node9</title>
<g id="a_node9"><a xlink:href="classqtreports_1_1detail_1_1_parser_from_x_m_l.html#a02bfc8c0470ec16ff1bb34a5b6b78981" target="_top" xlink:title="qtreports::detail::\lParserFromXML::getReport">
<polygon fill="none" stroke="black" points="171,-49.5 171,-79.5 314,-79.5 314,-49.5 171,-49.5"/>
<text text-anchor="start" x="179" y="-67.5" font-family="Helvetica,sans-Serif" font-size="10.00">qtreports::detail::</text>
<text text-anchor="middle" x="242.5" y="-56.5" font-family="Helvetica,sans-Serif" font-size="10.00">ParserFromXML::getReport</text>
</a>
</g>
</g>
<!-- Node1&#45;&gt;Node9 -->
<g id="edge8" class="edge"><title>Node1&#45;&gt;Node9</title>
<path fill="none" stroke="midnightblue" d="M83.5097,-127.909C103.193,-117.641 135.821,-101.245 165,-89.5 170.699,-87.206 176.697,-84.9626 182.724,-82.82"/>
<polygon fill="midnightblue" stroke="midnightblue" points="183.875,-86.1251 192.178,-79.5432 181.583,-79.5111 183.875,-86.1251"/>
</g>
<!-- Node10 -->
<g id="node10" class="node"><title>Node10</title>
<g id="a_node10"><a xlink:href="classqtreports_1_1detail_1_1_parser_from_x_m_l.html#a1fedf145e441f88832bd7f7e4b890e28" target="_top" xlink:title="qtreports::detail::\lParserFromXML::getLog">
<polygon fill="none" stroke="black" points="178,-0.5 178,-30.5 307,-30.5 307,-0.5 178,-0.5"/>
<text text-anchor="start" x="186" y="-18.5" font-family="Helvetica,sans-Serif" font-size="10.00">qtreports::detail::</text>
<text text-anchor="middle" x="242.5" y="-7.5" font-family="Helvetica,sans-Serif" font-size="10.00">ParserFromXML::getLog</text>
</a>
</g>
</g>
<!-- Node1&#45;&gt;Node10 -->
<g id="edge9" class="edge"><title>Node1&#45;&gt;Node10</title>
<path fill="none" stroke="midnightblue" d="M72.9007,-127.751C88.089,-108.389 124.754,-64.8584 165,-40.5 168.399,-38.4426 171.987,-36.5338 175.68,-34.766"/>
<polygon fill="midnightblue" stroke="midnightblue" points="177.282,-37.8854 185.028,-30.6576 174.465,-31.477 177.282,-37.8854"/>
</g>
<!-- Node5 -->
<g id="node5" class="node"><title>Node5</title>
<g id="a_node5"><a xlink:href="classqtreports_1_1detail_1_1_parser_from_x_m_l.html#aa67a21faa016b0ef4686b22a390fd446" target="_top" xlink:title="qtreports::detail::\lParserFromXML::parseDocument">
<polygon fill="none" stroke="black" points="356,-147.5 356,-177.5 529,-177.5 529,-147.5 356,-147.5"/>
<text text-anchor="start" x="364" y="-165.5" font-family="Helvetica,sans-Serif" font-size="10.00">qtreports::detail::</text>
<text text-anchor="middle" x="442.5" y="-154.5" font-family="Helvetica,sans-Serif" font-size="10.00">ParserFromXML::parseDocument</text>
</a>
</g>
</g>
<!-- Node4&#45;&gt;Node5 -->
<g id="edge4" class="edge"><title>Node4&#45;&gt;Node5</title>
<path fill="none" stroke="midnightblue" d="M304.252,-162.5C317.333,-162.5 331.467,-162.5 345.519,-162.5"/>
<polygon fill="midnightblue" stroke="midnightblue" points="345.721,-166 355.721,-162.5 345.721,-159 345.721,-166"/>
</g>
<!-- Node6 -->
<g id="node6" class="node"><title>Node6</title>
<g id="a_node6"><a xlink:href="classqtreports_1_1detail_1_1_parser_from_x_m_l.html#a905c36f37ab8c2833ab85e4d8c22716f" target="_top" xlink:title="qtreports::detail::\lParserFromXML::parseChilds">
<polygon fill="none" stroke="black" points="565,-147.5 565,-177.5 717,-177.5 717,-147.5 565,-147.5"/>
<text text-anchor="start" x="573" y="-165.5" font-family="Helvetica,sans-Serif" font-size="10.00">qtreports::detail::</text>
<text text-anchor="middle" x="641" y="-154.5" font-family="Helvetica,sans-Serif" font-size="10.00">ParserFromXML::parseChilds</text>
</a>
</g>
</g>
<!-- Node5&#45;&gt;Node6 -->
<g id="edge5" class="edge"><title>Node5&#45;&gt;Node6</title>
<path fill="none" stroke="midnightblue" d="M529.116,-162.5C537.572,-162.5 546.154,-162.5 554.608,-162.5"/>
<polygon fill="midnightblue" stroke="midnightblue" points="554.838,-166 564.838,-162.5 554.838,-159 554.838,-166"/>
</g>
<!-- Node7 -->
<g id="node7" class="node"><title>Node7</title>
<g id="a_node7"><a xlink:href="classqtreports_1_1detail_1_1_parser_from_x_m_l.html#ace9dca09d283384d721c2a985991c9bf" target="_top" xlink:title="qtreports::detail::\lParserFromXML::goToElementEnd">
<polygon fill="none" stroke="black" points="753,-147.5 753,-177.5 929,-177.5 929,-147.5 753,-147.5"/>
<text text-anchor="start" x="761" y="-165.5" font-family="Helvetica,sans-Serif" font-size="10.00">qtreports::detail::</text>
<text text-anchor="middle" x="841" y="-154.5" font-family="Helvetica,sans-Serif" font-size="10.00">ParserFromXML::goToElementEnd</text>
</a>
</g>
</g>
<!-- Node6&#45;&gt;Node7 -->
<g id="edge6" class="edge"><title>Node6&#45;&gt;Node7</title>
<path fill="none" stroke="midnightblue" d="M717.138,-162.5C725.551,-162.5 734.209,-162.5 742.848,-162.5"/>
<polygon fill="midnightblue" stroke="midnightblue" points="742.966,-166 752.966,-162.5 742.966,-159 742.966,-166"/>
</g>
</g>
</svg>
