<?xml version="1.0" encoding="UTF-8" standalone="no"?>
<!DOCTYPE svg PUBLIC "-//W3C//DTD SVG 1.1//EN"
 "http://www.w3.org/Graphics/SVG/1.1/DTD/svg11.dtd">
<!-- Generated by graphviz version 2.38.0 (20140413.2041)
 -->
<!-- Title: qtreports::detail::ParserFromXML Pages: 1 -->
<svg width="498pt" height="655pt"
 viewBox="0.00 0.00 498.00 655.00" xmlns="http://www.w3.org/2000/svg" xmlns:xlink="http://www.w3.org/1999/xlink">
<g id="graph0" class="graph" transform="scale(1 1) rotate(0) translate(4 651)">
<title>qtreports::detail::ParserFromXML</title>
<!-- Node1 -->
<g id="node1" class="node"><title>Node1</title>
<polygon fill="#bfbfbf" stroke="black" points="96,-0.5 96,-541.5 269,-541.5 269,-0.5 96,-0.5"/>
<text text-anchor="start" x="104" y="-529.5" font-family="Helvetica,sans-Serif" font-size="10.00">qtreports::detail::</text>
<text text-anchor="middle" x="182.5" y="-518.5" font-family="Helvetica,sans-Serif" font-size="10.00">ParserFromXML</text>
<polyline fill="none" stroke="black" points="96,-511.5 269,-511.5 "/>
<text text-anchor="middle" x="182.5" y="-499.5" font-family="Helvetica,sans-Serif" font-size="10.00"> </text>
<polyline fill="none" stroke="black" points="96,-492.5 269,-492.5 "/>
<text text-anchor="start" x="104" y="-480.5" font-family="Helvetica,sans-Serif" font-size="10.00">+ ParserFromXML()</text>
<text text-anchor="start" x="104" y="-469.5" font-family="Helvetica,sans-Serif" font-size="10.00">+ ~ParserFromXML()</text>
<text text-anchor="start" x="104" y="-458.5" font-family="Helvetica,sans-Serif" font-size="10.00">+ parse()</text>
<text text-anchor="start" x="104" y="-447.5" font-family="Helvetica,sans-Serif" font-size="10.00">+ getReport()</text>
<text text-anchor="start" x="104" y="-436.5" font-family="Helvetica,sans-Serif" font-size="10.00">+ getLastError()</text>
<text text-anchor="start" x="104" y="-425.5" font-family="Helvetica,sans-Serif" font-size="10.00">+ getLog()</text>
<text text-anchor="start" x="104" y="-414.5" font-family="Helvetica,sans-Serif" font-size="10.00">&#45; getValue()</text>
<text text-anchor="start" x="104" y="-403.5" font-family="Helvetica,sans-Serif" font-size="10.00">&#45; getAttribute()</text>
<text text-anchor="start" x="104" y="-392.5" font-family="Helvetica,sans-Serif" font-size="10.00">&#45; getRequiredAttribute()</text>
<text text-anchor="start" x="104" y="-381.5" font-family="Helvetica,sans-Serif" font-size="10.00">&#45; getOptionalAttribute()</text>
<text text-anchor="start" x="104" y="-370.5" font-family="Helvetica,sans-Serif" font-size="10.00">&#45; goToElementEnd()</text>
<text text-anchor="start" x="104" y="-359.5" font-family="Helvetica,sans-Serif" font-size="10.00">&#45; parseChilds()</text>
<text text-anchor="start" x="104" y="-348.5" font-family="Helvetica,sans-Serif" font-size="10.00">&#45; parseDocument()</text>
<text text-anchor="start" x="104" y="-337.5" font-family="Helvetica,sans-Serif" font-size="10.00">&#45; parseReport()</text>
<text text-anchor="start" x="104" y="-326.5" font-family="Helvetica,sans-Serif" font-size="10.00">&#45; parseStyle()</text>
<text text-anchor="start" x="104" y="-315.5" font-family="Helvetica,sans-Serif" font-size="10.00">&#45; parseQueryString()</text>
<text text-anchor="start" x="104" y="-304.5" font-family="Helvetica,sans-Serif" font-size="10.00">&#45; parseField()</text>
<text text-anchor="start" x="104" y="-293.5" font-family="Helvetica,sans-Serif" font-size="10.00">&#45; parseGroup()</text>
<text text-anchor="start" x="104" y="-282.5" font-family="Helvetica,sans-Serif" font-size="10.00">&#45; parseGroupExpression()</text>
<text text-anchor="start" x="104" y="-271.5" font-family="Helvetica,sans-Serif" font-size="10.00">&#45; parseGroupHeader()</text>
<text text-anchor="start" x="104" y="-260.5" font-family="Helvetica,sans-Serif" font-size="10.00">&#45; parseGroupFooter()</text>
<text text-anchor="start" x="104" y="-249.5" font-family="Helvetica,sans-Serif" font-size="10.00">&#45; parseTitle()</text>
<text text-anchor="start" x="104" y="-238.5" font-family="Helvetica,sans-Serif" font-size="10.00">&#45; parseDetail()</text>
<text text-anchor="start" x="104" y="-227.5" font-family="Helvetica,sans-Serif" font-size="10.00">&#45; parseSummary()</text>
<text text-anchor="start" x="104" y="-216.5" font-family="Helvetica,sans-Serif" font-size="10.00">&#45; parseBand()</text>
<text text-anchor="start" x="104" y="-205.5" font-family="Helvetica,sans-Serif" font-size="10.00">&#45; parseCrosstab()</text>
<text text-anchor="start" x="104" y="-194.5" font-family="Helvetica,sans-Serif" font-size="10.00">&#45; parseRowGroup()</text>
<text text-anchor="start" x="104" y="-183.5" font-family="Helvetica,sans-Serif" font-size="10.00">&#45; parseColumnGroup()</text>
<text text-anchor="start" x="104" y="-172.5" font-family="Helvetica,sans-Serif" font-size="10.00">&#45; parseCrosstabCell()</text>
<text text-anchor="start" x="104" y="-161.5" font-family="Helvetica,sans-Serif" font-size="10.00">&#45; parseCrosstabRowHeader()</text>
<text text-anchor="start" x="104" y="-150.5" font-family="Helvetica,sans-Serif" font-size="10.00">&#45; parseCrosstabColumnHeader()</text>
<text text-anchor="start" x="104" y="-139.5" font-family="Helvetica,sans-Serif" font-size="10.00">&#45; parseCrosstabCellContents()</text>
<text text-anchor="start" x="104" y="-128.5" font-family="Helvetica,sans-Serif" font-size="10.00">&#45; parseStaticText()</text>
<text text-anchor="start" x="104" y="-117.5" font-family="Helvetica,sans-Serif" font-size="10.00">&#45; parseTextField()</text>
<text text-anchor="start" x="104" y="-106.5" font-family="Helvetica,sans-Serif" font-size="10.00">&#45; parseLine()</text>
<text text-anchor="start" x="104" y="-95.5" font-family="Helvetica,sans-Serif" font-size="10.00">&#45; parseRect()</text>
<text text-anchor="start" x="104" y="-84.5" font-family="Helvetica,sans-Serif" font-size="10.00">&#45; parseEllipse()</text>
<text text-anchor="start" x="104" y="-73.5" font-family="Helvetica,sans-Serif" font-size="10.00">&#45; parseImage()</text>
<text text-anchor="start" x="104" y="-62.5" font-family="Helvetica,sans-Serif" font-size="10.00">&#45; parseReportElement()</text>
<text text-anchor="start" x="104" y="-51.5" font-family="Helvetica,sans-Serif" font-size="10.00">&#45; parseTextElement()</text>
<text text-anchor="start" x="104" y="-40.5" font-family="Helvetica,sans-Serif" font-size="10.00">&#45; parseFont()</text>
<text text-anchor="start" x="104" y="-29.5" font-family="Helvetica,sans-Serif" font-size="10.00">&#45; parseText()</text>
<text text-anchor="start" x="104" y="-18.5" font-family="Helvetica,sans-Serif" font-size="10.00">&#45; parseTextFieldExpression()</text>
<text text-anchor="start" x="104" y="-7.5" font-family="Helvetica,sans-Serif" font-size="10.00">&#45; parseImageExpression()</text>
</g>
<!-- Node2 -->
<g id="node2" class="node"><title>Node2</title>
<polygon fill="none" stroke="#bfbfbf" points="0,-589.5 0,-646.5 79,-646.5 79,-589.5 0,-589.5"/>
<text text-anchor="middle" x="39.5" y="-634.5" font-family="Helvetica,sans-Serif" font-size="10.00">QTextStream</text>
<polyline fill="none" stroke="#bfbfbf" points="0,-627.5 79,-627.5 "/>
<text text-anchor="middle" x="39.5" y="-615.5" font-family="Helvetica,sans-Serif" font-size="10.00"> </text>
<polyline fill="none" stroke="#bfbfbf" points="0,-608.5 79,-608.5 "/>
<text text-anchor="middle" x="39.5" y="-596.5" font-family="Helvetica,sans-Serif" font-size="10.00"> </text>
</g>
<!-- Node2&#45;&gt;Node1 -->
<g id="edge1" class="edge"><title>Node2&#45;&gt;Node1</title>
<path fill="none" stroke="#404040" d="M50.9606,-589.35C60.5215,-566.284 75.1373,-531.022 91.2004,-492.268"/>
<polygon fill="none" stroke="#404040" points="91.4012,-491.784 90.0035,-484.709 95.9961,-480.698 97.3938,-487.773 91.4012,-491.784"/>
<text text-anchor="middle" x="79" y="-563" font-family="Helvetica,sans-Serif" font-size="10.00"> &#45;m_log</text>
</g>
<!-- Node3 -->
<g id="node3" class="node"><title>Node3</title>
<polygon fill="none" stroke="#bfbfbf" points="97,-589.5 97,-646.5 150,-646.5 150,-589.5 97,-589.5"/>
<text text-anchor="middle" x="123.5" y="-634.5" font-family="Helvetica,sans-Serif" font-size="10.00">QString</text>
<polyline fill="none" stroke="#bfbfbf" points="97,-627.5 150,-627.5 "/>
<text text-anchor="middle" x="123.5" y="-615.5" font-family="Helvetica,sans-Serif" font-size="10.00"> </text>
<polyline fill="none" stroke="#bfbfbf" points="97,-608.5 150,-608.5 "/>
<text text-anchor="middle" x="123.5" y="-596.5" font-family="Helvetica,sans-Serif" font-size="10.00"> </text>
</g>
<!-- Node3&#45;&gt;Node1 -->
<g id="edge2" class="edge"><title>Node3&#45;&gt;Node1</title>
<path fill="none" stroke="#404040" d="M128.228,-589.35C129.927,-579.419 132.012,-567.228 134.365,-553.47"/>
<polygon fill="none" stroke="#404040" points="134.378,-553.389 131.447,-546.8 136.401,-541.561 139.333,-548.149 134.378,-553.389"/>
<text text-anchor="middle" x="164" y="-563" font-family="Helvetica,sans-Serif" font-size="10.00"> &#45;m_lastError</text>
</g>
<!-- Node4 -->
<g id="node4" class="node"><title>Node4</title>
<polygon fill="none" stroke="#bfbfbf" points="168.5,-589.5 168.5,-646.5 314.5,-646.5 314.5,-589.5 168.5,-589.5"/>
<text text-anchor="middle" x="241.5" y="-634.5" font-family="Helvetica,sans-Serif" font-size="10.00">QSharedPointer&lt; Report &gt;</text>
<polyline fill="none" stroke="#bfbfbf" points="168.5,-627.5 314.5,-627.5 "/>
<text text-anchor="middle" x="241.5" y="-615.5" font-family="Helvetica,sans-Serif" font-size="10.00"> </text>
<polyline fill="none" stroke="#bfbfbf" points="168.5,-608.5 314.5,-608.5 "/>
<text text-anchor="middle" x="241.5" y="-596.5" font-family="Helvetica,sans-Serif" font-size="10.00"> </text>
</g>
<!-- Node4&#45;&gt;Node1 -->
<g id="edge3" class="edge"><title>Node4&#45;&gt;Node1</title>
<path fill="none" stroke="#404040" d="M236.772,-589.35C235.073,-579.419 232.988,-567.228 230.635,-553.47"/>
<polygon fill="none" stroke="#404040" points="230.622,-553.389 225.667,-548.149 228.599,-541.561 233.553,-546.8 230.622,-553.389"/>
<text text-anchor="middle" x="259.5" y="-563" font-family="Helvetica,sans-Serif" font-size="10.00"> &#45;m_report</text>
</g>
<!-- Node5 -->
<g id="node5" class="node"><title>Node5</title>
<polygon fill="none" stroke="#bfbfbf" points="333,-589.5 333,-646.5 490,-646.5 490,-589.5 333,-589.5"/>
<text text-anchor="middle" x="411.5" y="-634.5" font-family="Helvetica,sans-Serif" font-size="10.00">QMap&lt; QString, ParseFunc &gt;</text>
<polyline fill="none" stroke="#bfbfbf" points="333,-627.5 490,-627.5 "/>
<text text-anchor="middle" x="411.5" y="-615.5" font-family="Helvetica,sans-Serif" font-size="10.00"> </text>
<polyline fill="none" stroke="#bfbfbf" points="333,-608.5 490,-608.5 "/>
<text text-anchor="middle" x="411.5" y="-596.5" font-family="Helvetica,sans-Serif" font-size="10.00"> </text>
</g>
<!-- Node5&#45;&gt;Node1 -->
<g id="edge4" class="edge"><title>Node5&#45;&gt;Node1</title>
<path fill="none" stroke="#404040" d="M393.147,-589.35C367.606,-550.872 319.54,-478.458 275.765,-412.508"/>
<polygon fill="none" stroke="#404040" points="275.697,-412.407 269.047,-409.62 269.061,-402.409 275.712,-405.195 275.697,-412.407"/>
<text text-anchor="middle" x="411.5" y="-563" font-family="Helvetica,sans-Serif" font-size="10.00"> &#45;m_functions</text>
</g>
</g>
</svg>
