<?xml version="1.0" encoding="UTF-8" standalone="no"?>
<!DOCTYPE svg PUBLIC "-//W3C//DTD SVG 1.1//EN"
 "http://www.w3.org/Graphics/SVG/1.1/DTD/svg11.dtd">
<!-- Generated by graphviz version 2.38.0 (20140413.2041)
 -->
<!-- Title: qtreports::detail::Replacer::replaceRowGroupsInCrosstab Pages: 1 -->
<!--zoomable 208 -->
<svg id="main" version="1.1" xmlns="http://www.w3.org/2000/svg" xmlns:xlink="http://www.w3.org/1999/xlink" xml:space="preserve" onload="init(evt)">
<style type="text/css"><![CDATA[
.edge:hover path { stroke: red; }
.edge:hover polygon { stroke: red; fill: red; }
]]></style>
<script type="text/javascript"><![CDATA[
var edges = document.getElementsByTagName('g');
if (edges && edges.length) {
  for (var i=0;i<edges.length;i++) {
    if (edges[i].id.substr(0,4)=='edge') {
      edges[i].setAttribute('class','edge');
    }
  }
}
]]></script>
        <defs>
                <circle id="rim" cx="0" cy="0" r="7"/>
                <circle id="rim2" cx="0" cy="0" r="3.5"/>
                <g id="zoomPlus">
                        <use xlink:href="#rim" fill="#404040">
                                <set attributeName="fill" to="#808080" begin="zoomplus.mouseover" end="zoomplus.mouseout"/>
                        </use>
                        <path d="M-4,0h8M0,-4v8" fill="none" stroke="white" stroke-width="1.5" pointer-events="none"/>
                </g>
                <g id="zoomMin">
                        <use xlink:href="#rim" fill="#404040">
                                <set attributeName="fill" to="#808080" begin="zoomminus.mouseover" end="zoomminus.mouseout"/>
                        </use>
                        <path d="M-4,0h8" fill="none" stroke="white" stroke-width="1.5" pointer-events="none"/>
                </g>
                <g id="dirArrow">
                        <path fill="none" stroke="white" stroke-width="1.5" d="M0,-3.0v7 M-2.5,-0.5L0,-3.0L2.5,-0.5"/>
                </g>
               <g id="resetDef">
                       <use xlink:href="#rim2" fill="#404040">
                               <set attributeName="fill" to="#808080" begin="reset.mouseover" end="reset.mouseout"/>
                       </use>
               </g>
        </defs>

<script type="text/javascript">
var viewWidth = 1373;
var viewHeight = 208;
var sectionId = 'dynsection-26';
</script>
<script xlink:href="svgpan.js"/>
<svg id="graph" class="graph">
<g id="viewport">
<title>qtreports::detail::Replacer::replaceRowGroupsInCrosstab</title>
<!-- Node1 -->
<g id="node1" class="node"><title>Node1</title>
<polygon fill="#bfbfbf" stroke="black" points="0,-117 0,-158 151,-158 151,-117 0,-117"/>
<text text-anchor="start" x="8" y="-146" font-family="Helvetica,sans-Serif" font-size="10.00">qtreports::detail::</text>
<text text-anchor="start" x="8" y="-135" font-family="Helvetica,sans-Serif" font-size="10.00">Replacer::replaceRowGroups</text>
<text text-anchor="middle" x="75.5" y="-124" font-family="Helvetica,sans-Serif" font-size="10.00">InCrosstab</text>
</g>
<!-- Node2 -->
<g id="node2" class="node"><title>Node2</title>
<g id="a_node2"><a xlink:href="classqtreports_1_1detail_1_1_converter_to_p_d_f.html#aba1de1bf9abc3ea9b7b5c2b8317f5a0f" target="_top" xlink:title="Создает band. ">
<polygon fill="none" stroke="black" points="187,-149.5 187,-179.5 345,-179.5 345,-149.5 187,-149.5"/>
<text text-anchor="start" x="195" y="-167.5" font-family="Helvetica,sans-Serif" font-size="10.00">qtreports::detail::</text>
<text text-anchor="middle" x="266" y="-156.5" font-family="Helvetica,sans-Serif" font-size="10.00">ConverterToPDF::createBands</text>
</a>
</g>
</g>
<!-- Node1&#45;&gt;Node2 -->
<g id="edge1" class="edge"><title>Node1&#45;&gt;Node2</title>
<path fill="none" stroke="midnightblue" d="M160.983,-149.601C169.544,-150.827 178.214,-152.069 186.705,-153.285"/>
<polygon fill="midnightblue" stroke="midnightblue" points="161.395,-146.124 151,-148.171 160.403,-153.054 161.395,-146.124"/>
</g>
<!-- Node8 -->
<g id="node8" class="node"><title>Node8</title>
<g id="a_node8"><a xlink:href="classqtreports_1_1detail_1_1_converter_to_q_widget.html#aa3be16e037533a4a5b58596087207187" target="_top" xlink:title="Создает band. ">
<polygon fill="none" stroke="black" points="206.5,-90 206.5,-131 325.5,-131 325.5,-90 206.5,-90"/>
<text text-anchor="start" x="214.5" y="-119" font-family="Helvetica,sans-Serif" font-size="10.00">qtreports::detail::</text>
<text text-anchor="start" x="214.5" y="-108" font-family="Helvetica,sans-Serif" font-size="10.00">ConverterToQWidget::</text>
<text text-anchor="middle" x="266" y="-97" font-family="Helvetica,sans-Serif" font-size="10.00">createBands</text>
</a>
</g>
</g>
<!-- Node1&#45;&gt;Node8 -->
<g id="edge8" class="edge"><title>Node1&#45;&gt;Node8</title>
<path fill="none" stroke="midnightblue" d="M161.015,-125.394C176.357,-123.197 192.047,-120.95 206.435,-118.889"/>
<polygon fill="midnightblue" stroke="midnightblue" points="160.403,-121.946 151,-126.829 161.395,-128.876 160.403,-121.946"/>
</g>
<!-- Node3 -->
<g id="node3" class="node"><title>Node3</title>
<g id="a_node3"><a xlink:href="classqtreports_1_1detail_1_1_converter_to_p_d_f.html#a5d9212cf5250d8d938359c417537337c" target="_top" xlink:title="Создает секцию. ">
<polygon fill="none" stroke="black" points="381,-149.5 381,-179.5 545,-179.5 545,-149.5 381,-149.5"/>
<text text-anchor="start" x="389" y="-167.5" font-family="Helvetica,sans-Serif" font-size="10.00">qtreports::detail::</text>
<text text-anchor="middle" x="463" y="-156.5" font-family="Helvetica,sans-Serif" font-size="10.00">ConverterToPDF::createSection</text>
</a>
</g>
</g>
<!-- Node2&#45;&gt;Node3 -->
<g id="edge2" class="edge"><title>Node2&#45;&gt;Node3</title>
<path fill="none" stroke="midnightblue" d="M355.191,-164.5C363.761,-164.5 372.428,-164.5 380.924,-164.5"/>
<polygon fill="midnightblue" stroke="midnightblue" points="355.19,-161 345.19,-164.5 355.19,-168 355.19,-161"/>
</g>
<!-- Node4 -->
<g id="node4" class="node"><title>Node4</title>
<g id="a_node4"><a xlink:href="classqtreports_1_1detail_1_1_converter_to_p_d_f.html#aad8435572f5ba065f8f2fef428d97b22" target="_top" xlink:title="Конвертирует отчет в PDF документ. ">
<polygon fill="none" stroke="black" points="785,-148.5 785,-178.5 913,-178.5 913,-148.5 785,-148.5"/>
<text text-anchor="start" x="793" y="-166.5" font-family="Helvetica,sans-Serif" font-size="10.00">qtreports::detail::</text>
<text text-anchor="middle" x="849" y="-155.5" font-family="Helvetica,sans-Serif" font-size="10.00">ConverterToPDF::create</text>
</a>
</g>
</g>
<!-- Node3&#45;&gt;Node4 -->
<g id="edge3" class="edge"><title>Node3&#45;&gt;Node4</title>
<path fill="none" stroke="midnightblue" d="M525.087,-181.979C542.954,-186.311 562.624,-190.332 581,-192.5 655.152,-201.249 675.09,-203.102 749,-192.5 768.147,-189.753 788.758,-184.163 806.191,-178.617"/>
<polygon fill="midnightblue" stroke="midnightblue" points="525.916,-178.579 515.366,-179.551 524.219,-185.37 525.916,-178.579"/>
</g>
<!-- Node7 -->
<g id="node7" class="node"><title>Node7</title>
<g id="a_node7"><a xlink:href="classqtreports_1_1detail_1_1_converter_to_p_d_f.html#adda58d86ecfee05cdcc5e5ce161926ff" target="_top" xlink:title="Добавляет группу в репорт. ">
<polygon fill="none" stroke="black" points="581,-142 581,-183 749,-183 749,-142 581,-142"/>
<text text-anchor="start" x="589" y="-171" font-family="Helvetica,sans-Serif" font-size="10.00">qtreports::detail::</text>
<text text-anchor="start" x="589" y="-160" font-family="Helvetica,sans-Serif" font-size="10.00">ConverterToPDF::addGroupsInto</text>
<text text-anchor="middle" x="665" y="-149" font-family="Helvetica,sans-Serif" font-size="10.00">Report</text>
</a>
</g>
</g>
<!-- Node3&#45;&gt;Node7 -->
<g id="edge6" class="edge"><title>Node3&#45;&gt;Node7</title>
<path fill="none" stroke="midnightblue" d="M555.089,-163.589C563.681,-163.503 572.361,-163.416 580.873,-163.331"/>
<polygon fill="midnightblue" stroke="midnightblue" points="555.024,-160.089 545.059,-163.689 555.094,-167.089 555.024,-160.089"/>
</g>
<!-- Node5 -->
<g id="node5" class="node"><title>Node5</title>
<g id="a_node5"><a xlink:href="classqtreports_1_1detail_1_1_converter_to_p_d_f.html#af39953d8db1bdcbbcf59cc00b05747eb" target="_top" xlink:title="Запускает процесс конвертации. ">
<polygon fill="none" stroke="black" points="949,-148.5 949,-178.5 1083,-178.5 1083,-148.5 949,-148.5"/>
<text text-anchor="start" x="957" y="-166.5" font-family="Helvetica,sans-Serif" font-size="10.00">qtreports::detail::</text>
<text text-anchor="middle" x="1016" y="-155.5" font-family="Helvetica,sans-Serif" font-size="10.00">ConverterToPDF::convert</text>
</a>
</g>
</g>
<!-- Node4&#45;&gt;Node5 -->
<g id="edge4" class="edge"><title>Node4&#45;&gt;Node5</title>
<path fill="none" stroke="midnightblue" d="M923.52,-163.5C931.952,-163.5 940.511,-163.5 948.839,-163.5"/>
<polygon fill="midnightblue" stroke="midnightblue" points="923.321,-160 913.321,-163.5 923.321,-167 923.321,-160"/>
</g>
<!-- Node6 -->
<g id="node6" class="node"><title>Node6</title>
<g id="a_node6"><a xlink:href="classqtreports_1_1_engine.html#a34b6ccdf31af3bd275d9fb95100c6bda" target="_top" xlink:title="Создает PDF документ отчета по указанному пути ">
<polygon fill="none" stroke="black" points="1119,-148.5 1119,-178.5 1224,-178.5 1224,-148.5 1119,-148.5"/>
<text text-anchor="start" x="1127" y="-166.5" font-family="Helvetica,sans-Serif" font-size="10.00">qtreports::Engine::</text>
<text text-anchor="middle" x="1171.5" y="-155.5" font-family="Helvetica,sans-Serif" font-size="10.00">createPDF</text>
</a>
</g>
</g>
<!-- Node5&#45;&gt;Node6 -->
<g id="edge5" class="edge"><title>Node5&#45;&gt;Node6</title>
<path fill="none" stroke="midnightblue" d="M1093.47,-163.5C1102.04,-163.5 1110.62,-163.5 1118.77,-163.5"/>
<polygon fill="midnightblue" stroke="midnightblue" points="1093.43,-160 1083.43,-163.5 1093.43,-167 1093.43,-160"/>
</g>
<!-- Node7&#45;&gt;Node4 -->
<g id="edge7" class="edge"><title>Node7&#45;&gt;Node4</title>
<path fill="none" stroke="midnightblue" d="M759.241,-163.012C767.961,-163.06 776.654,-163.108 784.999,-163.154"/>
<polygon fill="midnightblue" stroke="midnightblue" points="759.03,-159.511 749.011,-162.956 758.992,-166.511 759.03,-159.511"/>
</g>
<!-- Node9 -->
<g id="node9" class="node"><title>Node9</title>
<g id="a_node9"><a xlink:href="classqtreports_1_1detail_1_1_converter_to_q_widget.html#a3c95daf9bd10efc4feb71e0d976bbd6e" target="_top" xlink:title="Создает секцию. ">
<polygon fill="none" stroke="black" points="403.5,-90 403.5,-131 522.5,-131 522.5,-90 403.5,-90"/>
<text text-anchor="start" x="411.5" y="-119" font-family="Helvetica,sans-Serif" font-size="10.00">qtreports::detail::</text>
<text text-anchor="start" x="411.5" y="-108" font-family="Helvetica,sans-Serif" font-size="10.00">ConverterToQWidget::</text>
<text text-anchor="middle" x="463" y="-97" font-family="Helvetica,sans-Serif" font-size="10.00">createSection</text>
</a>
</g>
</g>
<!-- Node8&#45;&gt;Node9 -->
<g id="edge9" class="edge"><title>Node8&#45;&gt;Node9</title>
<path fill="none" stroke="midnightblue" d="M335.785,-110.5C357.801,-110.5 381.961,-110.5 403.198,-110.5"/>
<polygon fill="midnightblue" stroke="midnightblue" points="335.506,-107 325.506,-110.5 335.506,-114 335.506,-107"/>
</g>
<!-- Node10 -->
<g id="node10" class="node"><title>Node10</title>
<g id="a_node10"><a xlink:href="classqtreports_1_1detail_1_1_converter_to_q_widget.html#a96a53267cf2b8092e174906ea7f0f56f" target="_top" xlink:title="Конвертирует отчет в QWidget. ">
<polygon fill="none" stroke="black" points="789.5,-44 789.5,-85 908.5,-85 908.5,-44 789.5,-44"/>
<text text-anchor="start" x="797.5" y="-73" font-family="Helvetica,sans-Serif" font-size="10.00">qtreports::detail::</text>
<text text-anchor="start" x="797.5" y="-62" font-family="Helvetica,sans-Serif" font-size="10.00">ConverterToQWidget::</text>
<text text-anchor="middle" x="849" y="-51" font-family="Helvetica,sans-Serif" font-size="10.00">createQWidget</text>
</a>
</g>
</g>
<!-- Node9&#45;&gt;Node10 -->
<g id="edge10" class="edge"><title>Node9&#45;&gt;Node10</title>
<path fill="none" stroke="midnightblue" d="M532.729,-110.721C590.767,-109.879 675.868,-106.224 749,-93.5 762.233,-91.1975 776.21,-87.755 789.359,-84.0381"/>
<polygon fill="midnightblue" stroke="midnightblue" points="532.532,-107.223 522.575,-110.844 532.617,-114.223 532.532,-107.223"/>
</g>
<!-- Node16 -->
<g id="node16" class="node"><title>Node16</title>
<g id="a_node16"><a xlink:href="classqtreports_1_1detail_1_1_converter_to_q_widget.html#ac98aceb5ee703053d7691029da84e296" target="_top" xlink:title="Функция добавления группировок в отчет. ">
<polygon fill="none" stroke="black" points="605.5,-43 605.5,-84 724.5,-84 724.5,-43 605.5,-43"/>
<text text-anchor="start" x="613.5" y="-72" font-family="Helvetica,sans-Serif" font-size="10.00">qtreports::detail::</text>
<text text-anchor="start" x="613.5" y="-61" font-family="Helvetica,sans-Serif" font-size="10.00">ConverterToQWidget::</text>
<text text-anchor="middle" x="665" y="-50" font-family="Helvetica,sans-Serif" font-size="10.00">addGroupsIntoReport</text>
</a>
</g>
</g>
<!-- Node9&#45;&gt;Node16 -->
<g id="edge16" class="edge"><title>Node9&#45;&gt;Node16</title>
<path fill="none" stroke="midnightblue" d="M532.619,-94.3746C556.282,-88.8138 582.553,-82.6401 605.346,-77.2837"/>
<polygon fill="midnightblue" stroke="midnightblue" points="531.589,-91.0211 522.655,-96.716 533.191,-97.8354 531.589,-91.0211"/>
</g>
<!-- Node11 -->
<g id="node11" class="node"><title>Node11</title>
<g id="a_node11"><a xlink:href="classqtreports_1_1detail_1_1_converter_to_q_widget.html#a4b42725ccbbc910522dca786da95fbb6" target="_top" xlink:title="Конвертирует отчет в виджет. ">
<polygon fill="none" stroke="black" points="956.5,-44 956.5,-85 1075.5,-85 1075.5,-44 956.5,-44"/>
<text text-anchor="start" x="964.5" y="-73" font-family="Helvetica,sans-Serif" font-size="10.00">qtreports::detail::</text>
<text text-anchor="start" x="964.5" y="-62" font-family="Helvetica,sans-Serif" font-size="10.00">ConverterToQWidget::</text>
<text text-anchor="middle" x="1016" y="-51" font-family="Helvetica,sans-Serif" font-size="10.00">convert</text>
</a>
</g>
</g>
<!-- Node10&#45;&gt;Node11 -->
<g id="edge11" class="edge"><title>Node10&#45;&gt;Node11</title>
<path fill="none" stroke="midnightblue" d="M918.939,-64.5C931.351,-64.5 944.185,-64.5 956.274,-64.5"/>
<polygon fill="midnightblue" stroke="midnightblue" points="918.637,-61.0001 908.637,-64.5 918.637,-68.0001 918.637,-61.0001"/>
</g>
<!-- Node12 -->
<g id="node12" class="node"><title>Node12</title>
<g id="a_node12"><a xlink:href="classqtreports_1_1_engine.html#a2a0fef0c95335eec5df4f61e4ffa7434" target="_top" xlink:title="Создает виджет отчета для вывода на экран. ">
<polygon fill="none" stroke="black" points="1119,-98.5 1119,-128.5 1224,-128.5 1224,-98.5 1119,-98.5"/>
<text text-anchor="start" x="1127" y="-116.5" font-family="Helvetica,sans-Serif" font-size="10.00">qtreports::Engine::</text>
<text text-anchor="middle" x="1171.5" y="-105.5" font-family="Helvetica,sans-Serif" font-size="10.00">createWidget</text>
</a>
</g>
</g>
<!-- Node11&#45;&gt;Node12 -->
<g id="edge12" class="edge"><title>Node11&#45;&gt;Node12</title>
<path fill="none" stroke="midnightblue" d="M1085.6,-86.3977C1098.38,-90.4775 1111.46,-94.6545 1123.41,-98.4696"/>
<polygon fill="midnightblue" stroke="midnightblue" points="1086.5,-83.0114 1075.91,-83.3045 1084.37,-89.6799 1086.5,-83.0114"/>
</g>
<!-- Node13 -->
<g id="node13" class="node"><title>Node13</title>
<g id="a_node13"><a xlink:href="classqtreports_1_1_engine.html#a3966d8f0ebb6c1f94812ec21e21680c0" target="_top" xlink:title="qtreports::Engine::\lcreateLayout">
<polygon fill="none" stroke="black" points="1119,-49.5 1119,-79.5 1224,-79.5 1224,-49.5 1119,-49.5"/>
<text text-anchor="start" x="1127" y="-67.5" font-family="Helvetica,sans-Serif" font-size="10.00">qtreports::Engine::</text>
<text text-anchor="middle" x="1171.5" y="-56.5" font-family="Helvetica,sans-Serif" font-size="10.00">createLayout</text>
</a>
</g>
</g>
<!-- Node11&#45;&gt;Node13 -->
<g id="edge13" class="edge"><title>Node11&#45;&gt;Node13</title>
<path fill="none" stroke="midnightblue" d="M1086.22,-64.5C1097.08,-64.5 1108.14,-64.5 1118.52,-64.5"/>
<polygon fill="midnightblue" stroke="midnightblue" points="1085.91,-61.0001 1075.91,-64.5 1085.91,-68.0001 1085.91,-61.0001"/>
</g>
<!-- Node14 -->
<g id="node14" class="node"><title>Node14</title>
<g id="a_node14"><a xlink:href="classqtreports_1_1_engine.html#a93dc7711446a155f87d9146efb493f9e" target="_top" xlink:title="qtreports::Engine::\ldrawPreview">
<polygon fill="none" stroke="black" points="1119,-0.5 1119,-30.5 1224,-30.5 1224,-0.5 1119,-0.5"/>
<text text-anchor="start" x="1127" y="-18.5" font-family="Helvetica,sans-Serif" font-size="10.00">qtreports::Engine::</text>
<text text-anchor="middle" x="1171.5" y="-7.5" font-family="Helvetica,sans-Serif" font-size="10.00">drawPreview</text>
</a>
</g>
</g>
<!-- Node11&#45;&gt;Node14 -->
<g id="edge14" class="edge"><title>Node11&#45;&gt;Node14</title>
<path fill="none" stroke="midnightblue" d="M1085.6,-42.6023C1098.38,-38.5225 1111.46,-34.3455 1123.41,-30.5304"/>
<polygon fill="midnightblue" stroke="midnightblue" points="1084.37,-39.3201 1075.91,-45.6955 1086.5,-45.9886 1084.37,-39.3201"/>
</g>
<!-- Node15 -->
<g id="node15" class="node"><title>Node15</title>
<g id="a_node15"><a xlink:href="classqtreports_1_1_engine.html#ae80c66a0bc958bf82e023b646e18d55b" target="_top" xlink:title="qtreports::Engine::\lprint">
<polygon fill="none" stroke="black" points="1260,-0.5 1260,-30.5 1365,-30.5 1365,-0.5 1260,-0.5"/>
<text text-anchor="start" x="1268" y="-18.5" font-family="Helvetica,sans-Serif" font-size="10.00">qtreports::Engine::</text>
<text text-anchor="middle" x="1312.5" y="-7.5" font-family="Helvetica,sans-Serif" font-size="10.00">print</text>
</a>
</g>
</g>
<!-- Node14&#45;&gt;Node15 -->
<g id="edge15" class="edge"><title>Node14&#45;&gt;Node15</title>
<path fill="none" stroke="midnightblue" d="M1234.44,-15.5C1242.88,-15.5 1251.47,-15.5 1259.7,-15.5"/>
<polygon fill="midnightblue" stroke="midnightblue" points="1234.26,-12.0001 1224.26,-15.5 1234.26,-19.0001 1234.26,-12.0001"/>
</g>
<!-- Node16&#45;&gt;Node10 -->
<g id="edge17" class="edge"><title>Node16&#45;&gt;Node10</title>
<path fill="none" stroke="midnightblue" d="M734.7,-63.8775C752.648,-63.9761 771.829,-64.0815 789.21,-64.177"/>
<polygon fill="midnightblue" stroke="midnightblue" points="734.607,-60.377 724.588,-63.8219 734.568,-67.3769 734.607,-60.377"/>
</g>
</g>
</svg>
        <g id="navigator" transform="translate(0 0)" fill="#404254">
                <rect fill="#f2f5e9" fill-opacity="0.5" stroke="#606060" stroke-width=".5" x="0" y="0" width="60" height="60"/>
                <use id="zoomplus" xlink:href="#zoomPlus" x="17" y="9" onmousedown="handleZoom(evt,'in')"/>
                <use id="zoomminus" xlink:href="#zoomMin" x="42" y="9" onmousedown="handleZoom(evt,'out')"/>
                <use id="reset" xlink:href="#resetDef" x="30" y="36" onmousedown="handleReset()"/>
                <g id="arrowUp" xlink:href="#dirArrow" transform="translate(30 24)" onmousedown="handlePan(0,-1)">
                  <use xlink:href="#rim" fill="#404040">
                        <set attributeName="fill" to="#808080" begin="arrowUp.mouseover" end="arrowUp.mouseout"/>
                  </use>
                  <path fill="none" stroke="white" stroke-width="1.5" d="M0,-3.0v7 M-2.5,-0.5L0,-3.0L2.5,-0.5"/>
                </g>
                <g id="arrowRight" xlink:href="#dirArrow" transform="rotate(90) translate(36 -43)" onmousedown="handlePan(1,0)">
                  <use xlink:href="#rim" fill="#404040">
                        <set attributeName="fill" to="#808080" begin="arrowRight.mouseover" end="arrowRight.mouseout"/>
                  </use>
                  <path fill="none" stroke="white" stroke-width="1.5" d="M0,-3.0v7 M-2.5,-0.5L0,-3.0L2.5,-0.5"/>
                </g>
                <g id="arrowDown" xlink:href="#dirArrow" transform="rotate(180) translate(-30 -48)" onmousedown="handlePan(0,1)">
                  <use xlink:href="#rim" fill="#404040">
                        <set attributeName="fill" to="#808080" begin="arrowDown.mouseover" end="arrowDown.mouseout"/>
                  </use>
                  <path fill="none" stroke="white" stroke-width="1.5" d="M0,-3.0v7 M-2.5,-0.5L0,-3.0L2.5,-0.5"/>
                </g>
                <g id="arrowLeft" xlink:href="#dirArrow" transform="rotate(270) translate(-36 17)" onmousedown="handlePan(-1,0)">
                  <use xlink:href="#rim" fill="#404040">
                        <set attributeName="fill" to="#808080" begin="arrowLeft.mouseover" end="arrowLeft.mouseout"/>
                  </use>
                  <path fill="none" stroke="white" stroke-width="1.5" d="M0,-3.0v7 M-2.5,-0.5L0,-3.0L2.5,-0.5"/>
                </g>
        </g>
        <svg viewBox="0 0 15 15" width="100%" height="30px" preserveAspectRatio="xMaxYMin meet">
         <g id="arrow_out" transform="scale(0.3 0.3)">
          <a xlink:href="classqtreports_1_1detail_1_1_replacer_ae0f12ba0e77e9ef89b9479272e843fe6_icgraph_org.svg" target="_base">
           <rect id="button" ry="5" rx="5" y="6" x="6" height="38" width="38"
                fill="#f2f5e9" fill-opacity="0.5" stroke="#606060" stroke-width="1.0"/>
           <path id="arrow"
             d="M 11.500037,31.436501 C 11.940474,20.09759 22.043105,11.32322 32.158766,21.979434 L 37.068811,17.246167 C 37.068811,17.246167 37.088388,32 37.088388,32 L 22.160133,31.978069 C 22.160133,31.978069 26.997745,27.140456 26.997745,27.140456 C 18.528582,18.264221 13.291696,25.230495 11.500037,31.436501 z"
             style="fill:#404040;"/>
          </a>
         </g>
        </svg>
</svg>
