<?xml version="1.0" encoding="UTF-8" standalone="no"?>
<!DOCTYPE svg PUBLIC "-//W3C//DTD SVG 1.1//EN"
 "http://www.w3.org/Graphics/SVG/1.1/DTD/svg11.dtd">
<!-- Generated by graphviz version 2.38.0 (20140413.2041)
 -->
<!-- Title: qtreports::detail::ParserFromXML::getAttribute Pages: 1 -->
<!--zoomable 658 -->
<svg id="main" version="1.1" xmlns="http://www.w3.org/2000/svg" xmlns:xlink="http://www.w3.org/1999/xlink" xml:space="preserve" onload="init(evt)">
<style type="text/css"><![CDATA[
.edge:hover path { stroke: red; }
.edge:hover polygon { stroke: red; fill: red; }
]]></style>
<script type="text/javascript"><![CDATA[
var edges = document.getElementsByTagName('g');
if (edges && edges.length) {
  for (var i=0;i<edges.length;i++) {
    if (edges[i].id.substr(0,4)=='edge') {
      edges[i].setAttribute('class','edge');
    }
  }
}
]]></script>
        <defs>
                <circle id="rim" cx="0" cy="0" r="7"/>
                <circle id="rim2" cx="0" cy="0" r="3.5"/>
                <g id="zoomPlus">
                        <use xlink:href="#rim" fill="#404040">
                                <set attributeName="fill" to="#808080" begin="zoomplus.mouseover" end="zoomplus.mouseout"/>
                        </use>
                        <path d="M-4,0h8M0,-4v8" fill="none" stroke="white" stroke-width="1.5" pointer-events="none"/>
                </g>
                <g id="zoomMin">
                        <use xlink:href="#rim" fill="#404040">
                                <set attributeName="fill" to="#808080" begin="zoomminus.mouseover" end="zoomminus.mouseout"/>
                        </use>
                        <path d="M-4,0h8" fill="none" stroke="white" stroke-width="1.5" pointer-events="none"/>
                </g>
                <g id="dirArrow">
                        <path fill="none" stroke="white" stroke-width="1.5" d="M0,-3.0v7 M-2.5,-0.5L0,-3.0L2.5,-0.5"/>
                </g>
               <g id="resetDef">
                       <use xlink:href="#rim2" fill="#404040">
                               <set attributeName="fill" to="#808080" begin="reset.mouseover" end="reset.mouseout"/>
                       </use>
               </g>
        </defs>

<script type="text/javascript">
var viewWidth = 776;
var viewHeight = 658;
var sectionId = 'dynsection-2';
</script>
<script xlink:href="svgpan.js"/>
<svg id="graph" class="graph">
<g id="viewport">
<title>qtreports::detail::ParserFromXML::getAttribute</title>
<!-- Node1 -->
<g id="node1" class="node"><title>Node1</title>
<polygon fill="#bfbfbf" stroke="black" points="0,-252.5 0,-282.5 154,-282.5 154,-252.5 0,-252.5"/>
<text text-anchor="start" x="8" y="-270.5" font-family="Helvetica,sans-Serif" font-size="10.00">qtreports::detail::</text>
<text text-anchor="middle" x="77" y="-259.5" font-family="Helvetica,sans-Serif" font-size="10.00">ParserFromXML::getAttribute</text>
</g>
<!-- Node2 -->
<g id="node2" class="node"><title>Node2</title>
<g id="a_node2"><a xlink:href="classqtreports_1_1detail_1_1_parser_from_x_m_l.html#ab1cbf7385fa2d56c5e8526bf97cda9b1" target="_top" xlink:title="Вызывает функцию getAttribute с переданными параметрами и с параметром option &#45; &quot;обязательный аттрибу...">
<polygon fill="none" stroke="black" points="190,-305 190,-346 343,-346 343,-305 190,-305"/>
<text text-anchor="start" x="198" y="-334" font-family="Helvetica,sans-Serif" font-size="10.00">qtreports::detail::</text>
<text text-anchor="start" x="198" y="-323" font-family="Helvetica,sans-Serif" font-size="10.00">ParserFromXML::getRequired</text>
<text text-anchor="middle" x="266.5" y="-312" font-family="Helvetica,sans-Serif" font-size="10.00">Attribute</text>
</a>
</g>
</g>
<!-- Node1&#45;&gt;Node2 -->
<g id="edge1" class="edge"><title>Node1&#45;&gt;Node2</title>
<path fill="none" stroke="midnightblue" d="M136.576,-285.619C156.369,-291.742 178.609,-298.622 198.973,-304.921"/>
<polygon fill="midnightblue" stroke="midnightblue" points="137.362,-282.199 126.774,-282.587 135.293,-288.886 137.362,-282.199"/>
</g>
<!-- Node16 -->
<g id="node16" class="node"><title>Node16</title>
<g id="a_node16"><a xlink:href="classqtreports_1_1detail_1_1_parser_from_x_m_l.html#a478329a44761310039078ee6871a355d" target="_top" xlink:title="Вызывает функцию getAttribute с переданными параметрами и с параметром option &#45; &quot;опциональный аттрибу...">
<polygon fill="none" stroke="black" points="190.5,-166 190.5,-207 342.5,-207 342.5,-166 190.5,-166"/>
<text text-anchor="start" x="198.5" y="-195" font-family="Helvetica,sans-Serif" font-size="10.00">qtreports::detail::</text>
<text text-anchor="start" x="198.5" y="-184" font-family="Helvetica,sans-Serif" font-size="10.00">ParserFromXML::getOptional</text>
<text text-anchor="middle" x="266.5" y="-173" font-family="Helvetica,sans-Serif" font-size="10.00">Attribute</text>
</a>
</g>
</g>
<!-- Node1&#45;&gt;Node16 -->
<g id="edge26" class="edge"><title>Node1&#45;&gt;Node16</title>
<path fill="none" stroke="midnightblue" d="M122.213,-248.4C150.942,-235.989 188.379,-219.816 217.781,-207.114"/>
<polygon fill="midnightblue" stroke="midnightblue" points="120.62,-245.276 112.828,-252.454 123.396,-251.702 120.62,-245.276"/>
</g>
<!-- Node3 -->
<g id="node3" class="node"><title>Node3</title>
<g id="a_node3"><a xlink:href="classqtreports_1_1detail_1_1_parser_from_x_m_l.html#a8247dc85ae5cae03ab3f175982a0857e" target="_top" xlink:title="Парсит тэг report. ">
<polygon fill="none" stroke="black" points="393.5,-147.5 393.5,-177.5 547.5,-177.5 547.5,-147.5 393.5,-147.5"/>
<text text-anchor="start" x="401.5" y="-165.5" font-family="Helvetica,sans-Serif" font-size="10.00">qtreports::detail::</text>
<text text-anchor="middle" x="470.5" y="-154.5" font-family="Helvetica,sans-Serif" font-size="10.00">ParserFromXML::parseReport</text>
</a>
</g>
</g>
<!-- Node2&#45;&gt;Node3 -->
<g id="edge2" class="edge"><title>Node2&#45;&gt;Node3</title>
<path fill="none" stroke="midnightblue" d="M287.324,-296.689C312.784,-260.466 356.376,-201.225 379,-186.5 384.313,-183.042 390.108,-180.08 396.114,-177.544"/>
<polygon fill="midnightblue" stroke="midnightblue" points="284.43,-294.721 281.571,-304.922 290.168,-298.73 284.43,-294.721"/>
</g>
<!-- Node5 -->
<g id="node5" class="node"><title>Node5</title>
<g id="a_node5"><a xlink:href="classqtreports_1_1detail_1_1_parser_from_x_m_l.html#a5a366e39f908935a618b137e7e27496c" target="_top" xlink:title="Парсит тэг style. ">
<polygon fill="none" stroke="black" points="397,-98.5 397,-128.5 544,-128.5 544,-98.5 397,-98.5"/>
<text text-anchor="start" x="405" y="-116.5" font-family="Helvetica,sans-Serif" font-size="10.00">qtreports::detail::</text>
<text text-anchor="middle" x="470.5" y="-105.5" font-family="Helvetica,sans-Serif" font-size="10.00">ParserFromXML::parseStyle</text>
</a>
</g>
</g>
<!-- Node2&#45;&gt;Node5 -->
<g id="edge4" class="edge"><title>Node2&#45;&gt;Node5</title>
<path fill="none" stroke="midnightblue" d="M289.43,-296.874C305.348,-275.406 326.837,-244.948 343,-216.5 362.061,-182.952 349.519,-162.393 379,-137.5 384.34,-132.991 390.44,-129.319 396.893,-126.331"/>
<polygon fill="midnightblue" stroke="midnightblue" points="286.597,-294.818 283.411,-304.922 292.203,-299.01 286.597,-294.818"/>
</g>
<!-- Node6 -->
<g id="node6" class="node"><title>Node6</title>
<g id="a_node6"><a xlink:href="classqtreports_1_1detail_1_1_parser_from_x_m_l.html#a20a5b5081956769e0d219779407ba76c" target="_top" xlink:title="Парсит тэг Field. ">
<polygon fill="none" stroke="black" points="398.5,-462.5 398.5,-492.5 542.5,-492.5 542.5,-462.5 398.5,-462.5"/>
<text text-anchor="start" x="406.5" y="-480.5" font-family="Helvetica,sans-Serif" font-size="10.00">qtreports::detail::</text>
<text text-anchor="middle" x="470.5" y="-469.5" font-family="Helvetica,sans-Serif" font-size="10.00">ParserFromXML::parseField</text>
</a>
</g>
</g>
<!-- Node2&#45;&gt;Node6 -->
<g id="edge6" class="edge"><title>Node2&#45;&gt;Node6</title>
<path fill="none" stroke="midnightblue" d="M285.412,-354.77C304.87,-384.094 338.638,-428.38 379,-453.5 384.934,-457.193 391.428,-460.323 398.126,-462.974"/>
<polygon fill="midnightblue" stroke="midnightblue" points="288.222,-352.67 279.842,-346.188 282.35,-356.481 288.222,-352.67"/>
</g>
<!-- Node7 -->
<g id="node7" class="node"><title>Node7</title>
<g id="a_node7"><a xlink:href="classqtreports_1_1detail_1_1_parser_from_x_m_l.html#a477a961860b1de77b5a0da28e361987a" target="_top" xlink:title="Парсит тэг group. ">
<polygon fill="none" stroke="black" points="394.5,-413.5 394.5,-443.5 546.5,-443.5 546.5,-413.5 394.5,-413.5"/>
<text text-anchor="start" x="402.5" y="-431.5" font-family="Helvetica,sans-Serif" font-size="10.00">qtreports::detail::</text>
<text text-anchor="middle" x="470.5" y="-420.5" font-family="Helvetica,sans-Serif" font-size="10.00">ParserFromXML::parseGroup</text>
</a>
</g>
</g>
<!-- Node2&#45;&gt;Node7 -->
<g id="edge8" class="edge"><title>Node2&#45;&gt;Node7</title>
<path fill="none" stroke="midnightblue" d="M298.925,-352.41C320.282,-369.484 349.85,-390.854 379,-404.5 386.214,-407.877 393.981,-410.84 401.827,-413.425"/>
<polygon fill="midnightblue" stroke="midnightblue" points="301.128,-349.69 291.16,-346.101 296.714,-355.123 301.128,-349.69"/>
</g>
<!-- Node8 -->
<g id="node8" class="node"><title>Node8</title>
<g id="a_node8"><a xlink:href="classqtreports_1_1detail_1_1_parser_from_x_m_l.html#af04b8018f1bb3d60ecb6525f31d29885" target="_top" xlink:title="Парсит тэг Band. ">
<polygon fill="none" stroke="black" points="396.5,-364.5 396.5,-394.5 544.5,-394.5 544.5,-364.5 396.5,-364.5"/>
<text text-anchor="start" x="404.5" y="-382.5" font-family="Helvetica,sans-Serif" font-size="10.00">qtreports::detail::</text>
<text text-anchor="middle" x="470.5" y="-371.5" font-family="Helvetica,sans-Serif" font-size="10.00">ParserFromXML::parseBand</text>
</a>
</g>
</g>
<!-- Node2&#45;&gt;Node8 -->
<g id="edge10" class="edge"><title>Node2&#45;&gt;Node8</title>
<path fill="none" stroke="midnightblue" d="M352.965,-348.529C361.757,-350.888 370.557,-353.245 379,-355.5 389.836,-358.395 401.405,-361.472 412.525,-364.424"/>
<polygon fill="midnightblue" stroke="midnightblue" points="353.627,-345.083 343.062,-345.87 351.812,-351.843 353.627,-345.083"/>
</g>
<!-- Node9 -->
<g id="node9" class="node"><title>Node9</title>
<g id="a_node9"><a xlink:href="classqtreports_1_1detail_1_1_parser_from_x_m_l.html#a9f70ead2687f2b3fc8f21dd6bf85049f" target="_top" xlink:title="Парсит тэг rowGroup. ">
<polygon fill="none" stroke="black" points="385.5,-49.5 385.5,-79.5 555.5,-79.5 555.5,-49.5 385.5,-49.5"/>
<text text-anchor="start" x="393.5" y="-67.5" font-family="Helvetica,sans-Serif" font-size="10.00">qtreports::detail::</text>
<text text-anchor="middle" x="470.5" y="-56.5" font-family="Helvetica,sans-Serif" font-size="10.00">ParserFromXML::parseRowGroup</text>
</a>
</g>
</g>
<!-- Node2&#45;&gt;Node9 -->
<g id="edge12" class="edge"><title>Node2&#45;&gt;Node9</title>
<path fill="none" stroke="midnightblue" d="M291.372,-296.768C307.869,-275.68 329.238,-245.735 343,-216.5 368.17,-163.032 336.902,-129.974 379,-88.5 382.474,-85.0777 386.376,-82.1279 390.559,-79.5868"/>
<polygon fill="midnightblue" stroke="midnightblue" points="288.57,-294.668 285.09,-304.675 294.051,-299.023 288.57,-294.668"/>
</g>
<!-- Node10 -->
<g id="node10" class="node"><title>Node10</title>
<g id="a_node10"><a xlink:href="classqtreports_1_1detail_1_1_parser_from_x_m_l.html#a400e9daf7e859228f6ac7419963bb808" target="_top" xlink:title="Парсит тэг columnGroup. ">
<polygon fill="none" stroke="black" points="390.5,-305 390.5,-346 550.5,-346 550.5,-305 390.5,-305"/>
<text text-anchor="start" x="398.5" y="-334" font-family="Helvetica,sans-Serif" font-size="10.00">qtreports::detail::</text>
<text text-anchor="start" x="398.5" y="-323" font-family="Helvetica,sans-Serif" font-size="10.00">ParserFromXML::parseColumn</text>
<text text-anchor="middle" x="470.5" y="-312" font-family="Helvetica,sans-Serif" font-size="10.00">Group</text>
</a>
</g>
</g>
<!-- Node2&#45;&gt;Node10 -->
<g id="edge14" class="edge"><title>Node2&#45;&gt;Node10</title>
<path fill="none" stroke="midnightblue" d="M353.259,-325.5C365.573,-325.5 378.196,-325.5 390.374,-325.5"/>
<polygon fill="midnightblue" stroke="midnightblue" points="353.005,-322 343.005,-325.5 353.005,-329 353.005,-322"/>
</g>
<!-- Node11 -->
<g id="node11" class="node"><title>Node11</title>
<g id="a_node11"><a xlink:href="classqtreports_1_1detail_1_1_parser_from_x_m_l.html#ac7539fad6732c571ad578861a5259807" target="_top" xlink:title="Парсит тэг crosstabCell. ">
<polygon fill="none" stroke="black" points="379,-619.5 379,-649.5 562,-649.5 562,-619.5 379,-619.5"/>
<text text-anchor="start" x="387" y="-637.5" font-family="Helvetica,sans-Serif" font-size="10.00">qtreports::detail::</text>
<text text-anchor="middle" x="470.5" y="-626.5" font-family="Helvetica,sans-Serif" font-size="10.00">ParserFromXML::parseCrosstabCell</text>
</a>
</g>
</g>
<!-- Node2&#45;&gt;Node11 -->
<g id="edge16" class="edge"><title>Node2&#45;&gt;Node11</title>
<path fill="none" stroke="midnightblue" d="M270.535,-356.392C277.971,-414.926 302.493,-542.232 379,-610.5 382.881,-613.963 387.206,-616.936 391.803,-619.486"/>
<polygon fill="midnightblue" stroke="midnightblue" points="273.99,-355.81 269.336,-346.292 267.039,-356.635 273.99,-355.81"/>
</g>
<!-- Node12 -->
<g id="node12" class="node"><title>Node12</title>
<g id="a_node12"><a xlink:href="classqtreports_1_1detail_1_1_parser_from_x_m_l.html#aee6cb5359125988f68abfcd2f6fe4514" target="_top" xlink:title="Парсит тэг ReportElement &#45; общие данные о элементе отчета (положение, размеры и пр.) ">
<polygon fill="none" stroke="black" points="393.5,-245 393.5,-286 547.5,-286 547.5,-245 393.5,-245"/>
<text text-anchor="start" x="401.5" y="-274" font-family="Helvetica,sans-Serif" font-size="10.00">qtreports::detail::</text>
<text text-anchor="start" x="401.5" y="-263" font-family="Helvetica,sans-Serif" font-size="10.00">ParserFromXML::parseReport</text>
<text text-anchor="middle" x="470.5" y="-252" font-family="Helvetica,sans-Serif" font-size="10.00">Element</text>
</a>
</g>
</g>
<!-- Node2&#45;&gt;Node12 -->
<g id="edge18" class="edge"><title>Node2&#45;&gt;Node12</title>
<path fill="none" stroke="midnightblue" d="M346.499,-302.035C364.279,-296.754 383.016,-291.188 400.356,-286.038"/>
<polygon fill="midnightblue" stroke="midnightblue" points="345.324,-298.733 336.734,-304.935 347.317,-305.443 345.324,-298.733"/>
</g>
<!-- Node13 -->
<g id="node13" class="node"><title>Node13</title>
<g id="a_node13"><a xlink:href="classqtreports_1_1detail_1_1_parser_from_x_m_l.html#a3693d70428f413c6adb999bf0ad69abe" target="_top" xlink:title="Парсит тэг TextElement &#45; общие данные о текстовом элементе (выравнивание текста и пр...">
<polygon fill="none" stroke="black" points="379.5,-196.5 379.5,-226.5 561.5,-226.5 561.5,-196.5 379.5,-196.5"/>
<text text-anchor="start" x="387.5" y="-214.5" font-family="Helvetica,sans-Serif" font-size="10.00">qtreports::detail::</text>
<text text-anchor="middle" x="470.5" y="-203.5" font-family="Helvetica,sans-Serif" font-size="10.00">ParserFromXML::parseTextElement</text>
</a>
</g>
</g>
<!-- Node2&#45;&gt;Node13 -->
<g id="edge20" class="edge"><title>Node2&#45;&gt;Node13</title>
<path fill="none" stroke="midnightblue" d="M294.774,-297.939C316.028,-277.925 347.183,-251.628 379,-235.5 385.669,-232.119 392.864,-229.179 400.18,-226.629"/>
<polygon fill="midnightblue" stroke="midnightblue" points="292.207,-295.552 287.409,-304.998 297.051,-300.606 292.207,-295.552"/>
</g>
<!-- Node14 -->
<g id="node14" class="node"><title>Node14</title>
<g id="a_node14"><a xlink:href="classqtreports_1_1detail_1_1_parser_from_x_m_l.html#a459f21efce7b714320d84d304d304d60" target="_top" xlink:title="Парсит текст для textField. ">
<polygon fill="none" stroke="black" points="389,-560 389,-601 552,-601 552,-560 389,-560"/>
<text text-anchor="start" x="397" y="-589" font-family="Helvetica,sans-Serif" font-size="10.00">qtreports::detail::</text>
<text text-anchor="start" x="397" y="-578" font-family="Helvetica,sans-Serif" font-size="10.00">ParserFromXML::parseTextField</text>
<text text-anchor="middle" x="470.5" y="-567" font-family="Helvetica,sans-Serif" font-size="10.00">Expression</text>
</a>
</g>
</g>
<!-- Node2&#45;&gt;Node14 -->
<g id="edge22" class="edge"><title>Node2&#45;&gt;Node14</title>
<path fill="none" stroke="midnightblue" d="M274.338,-355.87C286.784,-404.237 317.709,-498.681 379,-551.5 382.624,-554.623 386.589,-557.411 390.77,-559.9"/>
<polygon fill="midnightblue" stroke="midnightblue" points="277.695,-354.866 271.891,-346.002 270.9,-356.551 277.695,-354.866"/>
</g>
<!-- Node15 -->
<g id="node15" class="node"><title>Node15</title>
<g id="a_node15"><a xlink:href="classqtreports_1_1detail_1_1_parser_from_x_m_l.html#abae86fff31affc499e427922f199dfd6" target="_top" xlink:title="qtreports::detail::\lParserFromXML::parseVariable">
<polygon fill="none" stroke="black" points="390,-511.5 390,-541.5 551,-541.5 551,-511.5 390,-511.5"/>
<text text-anchor="start" x="398" y="-529.5" font-family="Helvetica,sans-Serif" font-size="10.00">qtreports::detail::</text>
<text text-anchor="middle" x="470.5" y="-518.5" font-family="Helvetica,sans-Serif" font-size="10.00">ParserFromXML::parseVariable</text>
</a>
</g>
</g>
<!-- Node2&#45;&gt;Node15 -->
<g id="edge24" class="edge"><title>Node2&#45;&gt;Node15</title>
<path fill="none" stroke="midnightblue" d="M278.376,-355.72C294.257,-395.479 327.612,-464.721 379,-502.5 383.715,-505.966 388.893,-508.932 394.312,-511.47"/>
<polygon fill="midnightblue" stroke="midnightblue" points="281.595,-354.341 274.715,-346.284 275.069,-356.873 281.595,-354.341"/>
</g>
<!-- Node4 -->
<g id="node4" class="node"><title>Node4</title>
<g id="a_node4"><a xlink:href="classqtreports_1_1detail_1_1_parser_from_x_m_l.html#ab548bd252b2e13a315daefae6b43f1d6" target="_top" xlink:title="qtreports::detail::\lParserFromXML::ParserFromXML">
<polygon fill="none" stroke="black" points="598,-310.5 598,-340.5 768,-340.5 768,-310.5 598,-310.5"/>
<text text-anchor="start" x="606" y="-328.5" font-family="Helvetica,sans-Serif" font-size="10.00">qtreports::detail::</text>
<text text-anchor="middle" x="683" y="-317.5" font-family="Helvetica,sans-Serif" font-size="10.00">ParserFromXML::ParserFromXML</text>
</a>
</g>
</g>
<!-- Node3&#45;&gt;Node4 -->
<g id="edge3" class="edge"><title>Node3&#45;&gt;Node4</title>
<path fill="none" stroke="midnightblue" d="M553.402,-181.688C556.366,-183.175 559.244,-184.776 562,-186.5 614.166,-219.128 655.881,-281.563 673.253,-310.317"/>
<polygon fill="midnightblue" stroke="midnightblue" points="554.842,-178.498 544.289,-177.562 551.955,-184.875 554.842,-178.498"/>
</g>
<!-- Node5&#45;&gt;Node4 -->
<g id="edge5" class="edge"><title>Node5&#45;&gt;Node4</title>
<path fill="none" stroke="midnightblue" d="M553.521,-132.072C556.469,-133.729 559.309,-135.534 562,-137.5 625.313,-183.756 663.548,-274.466 676.763,-310.36"/>
<polygon fill="midnightblue" stroke="midnightblue" points="554.905,-128.852 544.393,-127.531 551.787,-135.119 554.905,-128.852"/>
</g>
<!-- Node6&#45;&gt;Node4 -->
<g id="edge7" class="edge"><title>Node6&#45;&gt;Node4</title>
<path fill="none" stroke="midnightblue" d="M552.034,-458.778C555.473,-457.16 558.812,-455.404 562,-453.5 611.687,-423.822 653.721,-367.689 672.092,-340.719"/>
<polygon fill="midnightblue" stroke="midnightblue" points="550.558,-455.602 542.735,-462.748 553.307,-462.04 550.558,-455.602"/>
</g>
<!-- Node7&#45;&gt;Node4 -->
<g id="edge9" class="edge"><title>Node7&#45;&gt;Node4</title>
<path fill="none" stroke="midnightblue" d="M547.644,-410.253C552.563,-408.479 557.389,-406.563 562,-404.5 600.477,-387.284 640.449,-358.37 663.174,-340.706"/>
<polygon fill="midnightblue" stroke="midnightblue" points="546.444,-406.964 538.099,-413.491 548.693,-413.593 546.444,-406.964"/>
</g>
<!-- Node8&#45;&gt;Node4 -->
<g id="edge11" class="edge"><title>Node8&#45;&gt;Node4</title>
<path fill="none" stroke="midnightblue" d="M539.874,-361.96C566.8,-355.052 597.413,-347.199 623.314,-340.555"/>
<polygon fill="midnightblue" stroke="midnightblue" points="538.953,-358.583 530.136,-364.458 540.692,-365.363 538.953,-358.583"/>
</g>
<!-- Node9&#45;&gt;Node4 -->
<g id="edge13" class="edge"><title>Node9&#45;&gt;Node4</title>
<path fill="none" stroke="midnightblue" d="M557.139,-84.8978C558.813,-86.0345 560.437,-87.2341 562,-88.5 636.731,-149.014 669.332,-268.166 678.858,-310.3"/>
<polygon fill="midnightblue" stroke="midnightblue" points="558.776,-81.7997 548.386,-79.722 555.212,-87.8249 558.776,-81.7997"/>
</g>
<!-- Node10&#45;&gt;Node4 -->
<g id="edge15" class="edge"><title>Node10&#45;&gt;Node4</title>
<path fill="none" stroke="midnightblue" d="M560.975,-325.5C573.21,-325.5 585.736,-325.5 597.871,-325.5"/>
<polygon fill="midnightblue" stroke="midnightblue" points="560.781,-322 550.781,-325.5 560.781,-329 560.781,-322"/>
</g>
<!-- Node11&#45;&gt;Node4 -->
<g id="edge17" class="edge"><title>Node11&#45;&gt;Node4</title>
<path fill="none" stroke="midnightblue" d="M557.806,-613.853C559.25,-612.79 560.651,-611.673 562,-610.5 648.29,-535.464 674.061,-387.994 680.284,-340.57"/>
<polygon fill="midnightblue" stroke="midnightblue" points="555.67,-611.063 549.096,-619.371 559.416,-616.976 555.67,-611.063"/>
</g>
<!-- Node12&#45;&gt;Node4 -->
<g id="edge19" class="edge"><title>Node12&#45;&gt;Node4</title>
<path fill="none" stroke="midnightblue" d="M553.314,-288.82C578.819,-296.09 606.258,-303.911 629.219,-310.456"/>
<polygon fill="midnightblue" stroke="midnightblue" points="554.224,-285.44 543.648,-286.065 552.305,-292.172 554.224,-285.44"/>
</g>
<!-- Node13&#45;&gt;Node4 -->
<g id="edge21" class="edge"><title>Node13&#45;&gt;Node4</title>
<path fill="none" stroke="midnightblue" d="M549.36,-230.023C553.699,-231.709 557.941,-233.532 562,-235.5 603.243,-255.492 644.496,-290.534 666.251,-310.483"/>
<polygon fill="midnightblue" stroke="midnightblue" points="550.338,-226.654 539.743,-226.545 547.957,-233.237 550.338,-226.654"/>
</g>
<!-- Node14&#45;&gt;Node4 -->
<g id="edge23" class="edge"><title>Node14&#45;&gt;Node4</title>
<path fill="none" stroke="midnightblue" d="M558.827,-554.014C559.909,-553.201 560.968,-552.363 562,-551.5 632.547,-492.513 667.465,-381.155 678.248,-340.687"/>
<polygon fill="midnightblue" stroke="midnightblue" points="556.531,-551.336 550.121,-559.772 560.392,-557.175 556.531,-551.336"/>
</g>
<!-- Node15&#45;&gt;Node4 -->
<g id="edge25" class="edge"><title>Node15&#45;&gt;Node4</title>
<path fill="none" stroke="midnightblue" d="M555.498,-506.676C557.739,-505.372 559.912,-503.982 562,-502.5 622.858,-459.317 662.126,-374.83 676.19,-340.52"/>
<polygon fill="midnightblue" stroke="midnightblue" points="553.839,-503.593 546.561,-511.293 557.052,-509.813 553.839,-503.593"/>
</g>
<!-- Node16&#45;&gt;Node3 -->
<g id="edge27" class="edge"><title>Node16&#45;&gt;Node3</title>
<path fill="none" stroke="midnightblue" d="M352.871,-176.357C366.266,-174.765 380.036,-173.129 393.209,-171.564"/>
<polygon fill="midnightblue" stroke="midnightblue" points="352.235,-172.908 342.717,-177.563 353.06,-179.859 352.235,-172.908"/>
</g>
<!-- Node16&#45;&gt;Node5 -->
<g id="edge28" class="edge"><title>Node16&#45;&gt;Node5</title>
<path fill="none" stroke="midnightblue" d="M319.207,-161.785C337.808,-153.428 359.11,-144.461 379,-137.5 388.052,-134.332 397.739,-131.35 407.287,-128.635"/>
<polygon fill="midnightblue" stroke="midnightblue" points="317.687,-158.631 310.031,-165.956 320.583,-165.004 317.687,-158.631"/>
</g>
<!-- Node16&#45;&gt;Node9 -->
<g id="edge29" class="edge"><title>Node16&#45;&gt;Node9</title>
<path fill="none" stroke="midnightblue" d="M292.494,-158.298C313.514,-136.242 345.44,-106.407 379,-88.5 385.454,-85.0566 392.435,-82.0822 399.558,-79.5183"/>
<polygon fill="midnightblue" stroke="midnightblue" points="289.805,-156.049 285.529,-165.743 294.916,-160.831 289.805,-156.049"/>
</g>
<!-- Node16&#45;&gt;Node10 -->
<g id="edge30" class="edge"><title>Node16&#45;&gt;Node10</title>
<path fill="none" stroke="midnightblue" d="M290.054,-214.9C310.823,-239.349 343.688,-273.992 379,-295.5 384.655,-298.944 390.752,-302.045 397.015,-304.824"/>
<polygon fill="midnightblue" stroke="midnightblue" points="292.583,-212.468 283.489,-207.034 287.209,-216.954 292.583,-212.468"/>
</g>
<!-- Node16&#45;&gt;Node12 -->
<g id="edge31" class="edge"><title>Node16&#45;&gt;Node12</title>
<path fill="none" stroke="midnightblue" d="M320.908,-211.188C339.179,-219.307 359.841,-228.133 379,-235.5 387.343,-238.708 396.193,-241.897 404.965,-244.933"/>
<polygon fill="midnightblue" stroke="midnightblue" points="322.15,-207.91 311.593,-207.019 319.29,-214.299 322.15,-207.91"/>
</g>
<!-- Node16&#45;&gt;Node13 -->
<g id="edge32" class="edge"><title>Node16&#45;&gt;Node13</title>
<path fill="none" stroke="midnightblue" d="M352.855,-197.064C361.566,-198.142 370.437,-199.24 379.199,-200.324"/>
<polygon fill="midnightblue" stroke="midnightblue" points="353.072,-193.564 342.717,-195.809 352.212,-200.511 353.072,-193.564"/>
</g>
<!-- Node17 -->
<g id="node17" class="node"><title>Node17</title>
<g id="a_node17"><a xlink:href="classqtreports_1_1detail_1_1_parser_from_x_m_l.html#a4f7803080037058f482a499ebc1a51ee" target="_top" xlink:title="Парсит font &#45; данные о шрифте текста ">
<polygon fill="none" stroke="black" points="398.5,-0.5 398.5,-30.5 542.5,-30.5 542.5,-0.5 398.5,-0.5"/>
<text text-anchor="start" x="406.5" y="-18.5" font-family="Helvetica,sans-Serif" font-size="10.00">qtreports::detail::</text>
<text text-anchor="middle" x="470.5" y="-7.5" font-family="Helvetica,sans-Serif" font-size="10.00">ParserFromXML::parseFont</text>
</a>
</g>
</g>
<!-- Node16&#45;&gt;Node17 -->
<g id="edge33" class="edge"><title>Node16&#45;&gt;Node17</title>
<path fill="none" stroke="midnightblue" d="M282.062,-157.066C300.174,-123.528 334.251,-69.4977 379,-39.5 384.941,-35.5175 391.513,-32.1951 398.324,-29.4234"/>
<polygon fill="midnightblue" stroke="midnightblue" points="278.948,-155.467 277.381,-165.945 285.141,-158.731 278.948,-155.467"/>
</g>
<!-- Node17&#45;&gt;Node4 -->
<g id="edge34" class="edge"><title>Node17&#45;&gt;Node4</title>
<path fill="none" stroke="midnightblue" d="M552.027,-32.3002C555.564,-34.4257 558.916,-36.8149 562,-39.5 648.5,-114.814 674.132,-262.792 680.302,-310.378"/>
<polygon fill="midnightblue" stroke="midnightblue" points="553.385,-29.0612 542.9,-27.5418 550.149,-35.2683 553.385,-29.0612"/>
</g>
</g>
</svg>
        <g id="navigator" transform="translate(0 0)" fill="#404254">
                <rect fill="#f2f5e9" fill-opacity="0.5" stroke="#606060" stroke-width=".5" x="0" y="0" width="60" height="60"/>
                <use id="zoomplus" xlink:href="#zoomPlus" x="17" y="9" onmousedown="handleZoom(evt,'in')"/>
                <use id="zoomminus" xlink:href="#zoomMin" x="42" y="9" onmousedown="handleZoom(evt,'out')"/>
                <use id="reset" xlink:href="#resetDef" x="30" y="36" onmousedown="handleReset()"/>
                <g id="arrowUp" xlink:href="#dirArrow" transform="translate(30 24)" onmousedown="handlePan(0,-1)">
                  <use xlink:href="#rim" fill="#404040">
                        <set attributeName="fill" to="#808080" begin="arrowUp.mouseover" end="arrowUp.mouseout"/>
                  </use>
                  <path fill="none" stroke="white" stroke-width="1.5" d="M0,-3.0v7 M-2.5,-0.5L0,-3.0L2.5,-0.5"/>
                </g>
                <g id="arrowRight" xlink:href="#dirArrow" transform="rotate(90) translate(36 -43)" onmousedown="handlePan(1,0)">
                  <use xlink:href="#rim" fill="#404040">
                        <set attributeName="fill" to="#808080" begin="arrowRight.mouseover" end="arrowRight.mouseout"/>
                  </use>
                  <path fill="none" stroke="white" stroke-width="1.5" d="M0,-3.0v7 M-2.5,-0.5L0,-3.0L2.5,-0.5"/>
                </g>
                <g id="arrowDown" xlink:href="#dirArrow" transform="rotate(180) translate(-30 -48)" onmousedown="handlePan(0,1)">
                  <use xlink:href="#rim" fill="#404040">
                        <set attributeName="fill" to="#808080" begin="arrowDown.mouseover" end="arrowDown.mouseout"/>
                  </use>
                  <path fill="none" stroke="white" stroke-width="1.5" d="M0,-3.0v7 M-2.5,-0.5L0,-3.0L2.5,-0.5"/>
                </g>
                <g id="arrowLeft" xlink:href="#dirArrow" transform="rotate(270) translate(-36 17)" onmousedown="handlePan(-1,0)">
                  <use xlink:href="#rim" fill="#404040">
                        <set attributeName="fill" to="#808080" begin="arrowLeft.mouseover" end="arrowLeft.mouseout"/>
                  </use>
                  <path fill="none" stroke="white" stroke-width="1.5" d="M0,-3.0v7 M-2.5,-0.5L0,-3.0L2.5,-0.5"/>
                </g>
        </g>
        <svg viewBox="0 0 15 15" width="100%" height="30px" preserveAspectRatio="xMaxYMin meet">
         <g id="arrow_out" transform="scale(0.3 0.3)">
          <a xlink:href="classqtreports_1_1detail_1_1_parser_from_x_m_l_ad0cab06b62d590495eaa6a16465ed2b4_icgraph_org.svg" target="_base">
           <rect id="button" ry="5" rx="5" y="6" x="6" height="38" width="38"
                fill="#f2f5e9" fill-opacity="0.5" stroke="#606060" stroke-width="1.0"/>
           <path id="arrow"
             d="M 11.500037,31.436501 C 11.940474,20.09759 22.043105,11.32322 32.158766,21.979434 L 37.068811,17.246167 C 37.068811,17.246167 37.088388,32 37.088388,32 L 22.160133,31.978069 C 22.160133,31.978069 26.997745,27.140456 26.997745,27.140456 C 18.528582,18.264221 13.291696,25.230495 11.500037,31.436501 z"
             style="fill:#404040;"/>
          </a>
         </g>
        </svg>
</svg>
