<?xml version="1.0" encoding="UTF-8" standalone="no"?>
<!DOCTYPE svg PUBLIC "-//W3C//DTD SVG 1.1//EN"
 "http://www.w3.org/Graphics/SVG/1.1/DTD/svg11.dtd">
<!-- Generated by graphviz version 2.38.0 (20140413.2041)
 -->
<!-- Title: qtreports::detail::StaticText Pages: 1 -->
<svg width="468pt" height="917pt"
 viewBox="0.00 0.00 468.00 917.00" xmlns="http://www.w3.org/2000/svg" xmlns:xlink="http://www.w3.org/1999/xlink">
<g id="graph0" class="graph" transform="scale(1 1) rotate(0) translate(4 913)">
<title>qtreports::detail::StaticText</title>
<!-- Node1 -->
<g id="node1" class="node"><title>Node1</title>
<polygon fill="#bfbfbf" stroke="black" points="3.5,-0.5 3.5,-79.5 102.5,-79.5 102.5,-0.5 3.5,-0.5"/>
<text text-anchor="start" x="11.5" y="-67.5" font-family="Helvetica,sans-Serif" font-size="10.00">qtreports::detail::</text>
<text text-anchor="middle" x="53" y="-56.5" font-family="Helvetica,sans-Serif" font-size="10.00">StaticText</text>
<polyline fill="none" stroke="black" points="3.5,-49.5 102.5,-49.5 "/>
<text text-anchor="middle" x="53" y="-37.5" font-family="Helvetica,sans-Serif" font-size="10.00"> </text>
<polyline fill="none" stroke="black" points="3.5,-30.5 102.5,-30.5 "/>
<text text-anchor="start" x="11.5" y="-18.5" font-family="Helvetica,sans-Serif" font-size="10.00">+ StaticText()</text>
<text text-anchor="start" x="11.5" y="-7.5" font-family="Helvetica,sans-Serif" font-size="10.00">+ ~StaticText()</text>
</g>
<!-- Node2 -->
<g id="node2" class="node"><title>Node2</title>
<g id="a_node2"><a xlink:href="classqtreports_1_1detail_1_1_text_widget.html" target="_top" xlink:title="Базовый класс для тегов, имеющих текстовое содержание. ">
<polygon fill="none" stroke="black" points="0,-117.5 0,-240.5 106,-240.5 106,-117.5 0,-117.5"/>
<text text-anchor="start" x="8" y="-228.5" font-family="Helvetica,sans-Serif" font-size="10.00">qtreports::detail::</text>
<text text-anchor="middle" x="53" y="-217.5" font-family="Helvetica,sans-Serif" font-size="10.00">TextWidget</text>
<polyline fill="none" stroke="black" points="0,-210.5 106,-210.5 "/>
<text text-anchor="middle" x="53" y="-198.5" font-family="Helvetica,sans-Serif" font-size="10.00"> </text>
<polyline fill="none" stroke="black" points="0,-191.5 106,-191.5 "/>
<text text-anchor="start" x="8" y="-179.5" font-family="Helvetica,sans-Serif" font-size="10.00">+ TextWidget()</text>
<text text-anchor="start" x="8" y="-168.5" font-family="Helvetica,sans-Serif" font-size="10.00">+ ~TextWidget()</text>
<text text-anchor="start" x="8" y="-157.5" font-family="Helvetica,sans-Serif" font-size="10.00">+ setText()</text>
<text text-anchor="start" x="8" y="-146.5" font-family="Helvetica,sans-Serif" font-size="10.00">+ getText()</text>
<text text-anchor="start" x="8" y="-135.5" font-family="Helvetica,sans-Serif" font-size="10.00">+ setOriginalText()</text>
<text text-anchor="start" x="8" y="-124.5" font-family="Helvetica,sans-Serif" font-size="10.00">+ getOriginalText()</text>
</a>
</g>
</g>
<!-- Node2&#45;&gt;Node1 -->
<g id="edge1" class="edge"><title>Node2&#45;&gt;Node1</title>
<path fill="none" stroke="midnightblue" d="M53,-106.934C53,-97.5462 53,-88.2231 53,-79.6708"/>
<polygon fill="none" stroke="midnightblue" points="49.5001,-107.112 53,-117.112 56.5001,-107.112 49.5001,-107.112"/>
</g>
<!-- Node3 -->
<g id="node3" class="node"><title>Node3</title>
<g id="a_node3"><a xlink:href="classqtreports_1_1detail_1_1_widget.html" target="_top" xlink:title="Базовый класс для тэгов, которые подлежат отображению ">
<polygon fill="none" stroke="black" points="196,-278.5 196,-577.5 296,-577.5 296,-278.5 196,-278.5"/>
<text text-anchor="start" x="204" y="-565.5" font-family="Helvetica,sans-Serif" font-size="10.00">qtreports::detail::</text>
<text text-anchor="middle" x="246" y="-554.5" font-family="Helvetica,sans-Serif" font-size="10.00">Widget</text>
<polyline fill="none" stroke="black" points="196,-547.5 296,-547.5 "/>
<text text-anchor="middle" x="246" y="-535.5" font-family="Helvetica,sans-Serif" font-size="10.00"> </text>
<polyline fill="none" stroke="black" points="196,-528.5 296,-528.5 "/>
<text text-anchor="start" x="204" y="-516.5" font-family="Helvetica,sans-Serif" font-size="10.00">+ Widget()</text>
<text text-anchor="start" x="204" y="-505.5" font-family="Helvetica,sans-Serif" font-size="10.00">+ ~Widget()</text>
<text text-anchor="start" x="204" y="-494.5" font-family="Helvetica,sans-Serif" font-size="10.00">+ setPosition()</text>
<text text-anchor="start" x="204" y="-483.5" font-family="Helvetica,sans-Serif" font-size="10.00">+ setX()</text>
<text text-anchor="start" x="204" y="-472.5" font-family="Helvetica,sans-Serif" font-size="10.00">+ setY()</text>
<text text-anchor="start" x="204" y="-461.5" font-family="Helvetica,sans-Serif" font-size="10.00">+ setSize()</text>
<text text-anchor="start" x="204" y="-450.5" font-family="Helvetica,sans-Serif" font-size="10.00">+ setWidth()</text>
<text text-anchor="start" x="204" y="-439.5" font-family="Helvetica,sans-Serif" font-size="10.00">+ setHeight()</text>
<text text-anchor="start" x="204" y="-428.5" font-family="Helvetica,sans-Serif" font-size="10.00">+ setRect()</text>
<text text-anchor="start" x="204" y="-417.5" font-family="Helvetica,sans-Serif" font-size="10.00">+ setStyle()</text>
<text text-anchor="start" x="204" y="-406.5" font-family="Helvetica,sans-Serif" font-size="10.00">+ setAlignment()</text>
<text text-anchor="start" x="204" y="-395.5" font-family="Helvetica,sans-Serif" font-size="10.00">+ getAlignment()</text>
<text text-anchor="start" x="204" y="-384.5" font-family="Helvetica,sans-Serif" font-size="10.00">+ getPos()</text>
<text text-anchor="start" x="204" y="-373.5" font-family="Helvetica,sans-Serif" font-size="10.00">+ getX()</text>
<text text-anchor="start" x="204" y="-362.5" font-family="Helvetica,sans-Serif" font-size="10.00">+ getY()</text>
<text text-anchor="start" x="204" y="-351.5" font-family="Helvetica,sans-Serif" font-size="10.00">+ getSize()</text>
<text text-anchor="start" x="204" y="-340.5" font-family="Helvetica,sans-Serif" font-size="10.00">+ getWidth()</text>
<text text-anchor="start" x="204" y="-329.5" font-family="Helvetica,sans-Serif" font-size="10.00">+ getHeight()</text>
<text text-anchor="start" x="204" y="-318.5" font-family="Helvetica,sans-Serif" font-size="10.00">+ getRect()</text>
<text text-anchor="start" x="204" y="-307.5" font-family="Helvetica,sans-Serif" font-size="10.00">+ getStyle()</text>
<text text-anchor="start" x="204" y="-296.5" font-family="Helvetica,sans-Serif" font-size="10.00">+ isBold()</text>
<text text-anchor="start" x="204" y="-285.5" font-family="Helvetica,sans-Serif" font-size="10.00">+ setBold()</text>
</a>
</g>
</g>
<!-- Node3&#45;&gt;Node2 -->
<g id="edge2" class="edge"><title>Node3&#45;&gt;Node2</title>
<path fill="none" stroke="midnightblue" d="M189.469,-354.652C161.14,-318.397 127.229,-274.998 100.298,-240.532"/>
<polygon fill="none" stroke="midnightblue" points="186.88,-357.024 195.795,-362.748 192.396,-352.714 186.88,-357.024"/>
</g>
<!-- Node4 -->
<g id="node4" class="node"><title>Node4</title>
<g id="a_node4"><a xlink:href="classqtreports_1_1detail_1_1_object.html" target="_top" xlink:title="Базовый класс для любого тэга ">
<polygon fill="none" stroke="black" points="146.5,-636.5 146.5,-781.5 245.5,-781.5 245.5,-636.5 146.5,-636.5"/>
<text text-anchor="start" x="154.5" y="-769.5" font-family="Helvetica,sans-Serif" font-size="10.00">qtreports::detail::</text>
<text text-anchor="middle" x="196" y="-758.5" font-family="Helvetica,sans-Serif" font-size="10.00">Object</text>
<polyline fill="none" stroke="black" points="146.5,-751.5 245.5,-751.5 "/>
<text text-anchor="middle" x="196" y="-739.5" font-family="Helvetica,sans-Serif" font-size="10.00"> </text>
<polyline fill="none" stroke="black" points="146.5,-732.5 245.5,-732.5 "/>
<text text-anchor="start" x="154.5" y="-720.5" font-family="Helvetica,sans-Serif" font-size="10.00">+ Object()</text>
<text text-anchor="start" x="154.5" y="-709.5" font-family="Helvetica,sans-Serif" font-size="10.00">+ Object()</text>
<text text-anchor="start" x="154.5" y="-698.5" font-family="Helvetica,sans-Serif" font-size="10.00">+ ~Object()</text>
<text text-anchor="start" x="154.5" y="-687.5" font-family="Helvetica,sans-Serif" font-size="10.00">+ setName()</text>
<text text-anchor="start" x="154.5" y="-676.5" font-family="Helvetica,sans-Serif" font-size="10.00">+ getName()</text>
<text text-anchor="start" x="154.5" y="-665.5" font-family="Helvetica,sans-Serif" font-size="10.00">+ setTagName()</text>
<text text-anchor="start" x="154.5" y="-654.5" font-family="Helvetica,sans-Serif" font-size="10.00">+ getTagName()</text>
<text text-anchor="start" x="154.5" y="-643.5" font-family="Helvetica,sans-Serif" font-size="10.00">+ getLastError()</text>
</a>
</g>
</g>
<!-- Node4&#45;&gt;Node3 -->
<g id="edge3" class="edge"><title>Node4&#45;&gt;Node3</title>
<path fill="none" stroke="midnightblue" d="M210.656,-626.219C213.412,-610.841 216.371,-594.328 219.362,-577.639"/>
<polygon fill="none" stroke="midnightblue" points="207.195,-625.69 208.876,-636.151 214.085,-626.925 207.195,-625.69"/>
</g>
<!-- Node5 -->
<g id="node5" class="node"><title>Node5</title>
<polygon fill="none" stroke="#bfbfbf" points="52.5,-851.5 52.5,-908.5 105.5,-908.5 105.5,-851.5 52.5,-851.5"/>
<text text-anchor="middle" x="79" y="-896.5" font-family="Helvetica,sans-Serif" font-size="10.00">QString</text>
<polyline fill="none" stroke="#bfbfbf" points="52.5,-889.5 105.5,-889.5 "/>
<text text-anchor="middle" x="79" y="-877.5" font-family="Helvetica,sans-Serif" font-size="10.00"> </text>
<polyline fill="none" stroke="#bfbfbf" points="52.5,-870.5 105.5,-870.5 "/>
<text text-anchor="middle" x="79" y="-858.5" font-family="Helvetica,sans-Serif" font-size="10.00"> </text>
</g>
<!-- Node5&#45;&gt;Node2 -->
<g id="edge9" class="edge"><title>Node5&#45;&gt;Node2</title>
<path fill="none" stroke="#404040" d="M69.8089,-851.219C54.7166,-803.965 25.3275,-704.631 15,-618 -0.295354,-489.696 21.2554,-339.548 37.6095,-252.553"/>
<polygon fill="none" stroke="#404040" points="37.6213,-252.491 34.8212,-245.846 39.8783,-240.705 42.6784,-247.35 37.6213,-252.491"/>
<text text-anchor="middle" x="53.5" y="-610" font-family="Helvetica,sans-Serif" font-size="10.00"> #m_text</text>
<text text-anchor="middle" x="53.5" y="-599" font-family="Helvetica,sans-Serif" font-size="10.00">#m_originalText</text>
</g>
<!-- Node5&#45;&gt;Node3 -->
<g id="edge5" class="edge"><title>Node5&#45;&gt;Node3</title>
<path fill="none" stroke="#404040" d="M74.7506,-851.381C68.7862,-805.207 61.4107,-710.108 88,-636 108.637,-578.482 151.527,-523.997 187.419,-485.375"/>
<polygon fill="none" stroke="#404040" points="187.659,-485.121 188.873,-478.013 195.901,-476.399 194.688,-483.507 187.659,-485.121"/>
<text text-anchor="middle" x="112.5" y="-706.5" font-family="Helvetica,sans-Serif" font-size="10.00"> #m_style</text>
</g>
<!-- Node5&#45;&gt;Node4 -->
<g id="edge4" class="edge"><title>Node5&#45;&gt;Node4</title>
<path fill="none" stroke="#404040" d="M98.0585,-851.471C109.457,-835.006 124.596,-813.139 139.556,-791.531"/>
<polygon fill="none" stroke="#404040" points="139.571,-791.508 139.698,-784.298 146.402,-781.642 146.275,-788.852 139.571,-791.508"/>
<text text-anchor="middle" x="167" y="-825" font-family="Helvetica,sans-Serif" font-size="10.00"> #m_tagName</text>
<text text-anchor="middle" x="167" y="-814" font-family="Helvetica,sans-Serif" font-size="10.00">#m_name</text>
<text text-anchor="middle" x="167" y="-803" font-family="Helvetica,sans-Serif" font-size="10.00">#m_lastError</text>
</g>
<!-- Node6 -->
<g id="node6" class="node"><title>Node6</title>
<polygon fill="none" stroke="#bfbfbf" points="263.5,-680.5 263.5,-737.5 300.5,-737.5 300.5,-680.5 263.5,-680.5"/>
<text text-anchor="middle" x="282" y="-725.5" font-family="Helvetica,sans-Serif" font-size="10.00">bool</text>
<polyline fill="none" stroke="#bfbfbf" points="263.5,-718.5 300.5,-718.5 "/>
<text text-anchor="middle" x="282" y="-706.5" font-family="Helvetica,sans-Serif" font-size="10.00"> </text>
<polyline fill="none" stroke="#bfbfbf" points="263.5,-699.5 300.5,-699.5 "/>
<text text-anchor="middle" x="282" y="-687.5" font-family="Helvetica,sans-Serif" font-size="10.00"> </text>
</g>
<!-- Node6&#45;&gt;Node3 -->
<g id="edge6" class="edge"><title>Node6&#45;&gt;Node3</title>
<path fill="none" stroke="#404040" d="M275.665,-680.156C271.825,-662.44 267.087,-638.967 264,-618 262.65,-608.829 261.379,-599.391 260.186,-589.857"/>
<polygon fill="none" stroke="#404040" points="260.162,-589.654 255.469,-584.179 258.718,-577.741 263.411,-583.216 260.162,-589.654"/>
<text text-anchor="middle" x="291.5" y="-604.5" font-family="Helvetica,sans-Serif" font-size="10.00"> #m_isBold</text>
</g>
<!-- Node7 -->
<g id="node7" class="node"><title>Node7</title>
<polygon fill="none" stroke="#bfbfbf" points="319,-680.5 319,-737.5 363,-737.5 363,-680.5 319,-680.5"/>
<text text-anchor="middle" x="341" y="-725.5" font-family="Helvetica,sans-Serif" font-size="10.00">QRect</text>
<polyline fill="none" stroke="#bfbfbf" points="319,-718.5 363,-718.5 "/>
<text text-anchor="middle" x="341" y="-706.5" font-family="Helvetica,sans-Serif" font-size="10.00"> </text>
<polyline fill="none" stroke="#bfbfbf" points="319,-699.5 363,-699.5 "/>
<text text-anchor="middle" x="341" y="-687.5" font-family="Helvetica,sans-Serif" font-size="10.00"> </text>
</g>
<!-- Node7&#45;&gt;Node3 -->
<g id="edge7" class="edge"><title>Node7&#45;&gt;Node3</title>
<path fill="none" stroke="#404040" d="M337.3,-680.427C333.818,-657.498 327.811,-624.181 319,-596 313.821,-579.437 307.511,-562.306 300.792,-545.611"/>
<polygon fill="none" stroke="#404040" points="300.639,-545.236 294.661,-541.204 296.084,-534.134 302.062,-538.167 300.639,-545.236"/>
<text text-anchor="middle" x="348" y="-604.5" font-family="Helvetica,sans-Serif" font-size="10.00"> #m_rect</text>
</g>
<!-- Node8 -->
<g id="node8" class="node"><title>Node8</title>
<polygon fill="none" stroke="#bfbfbf" points="381.5,-680.5 381.5,-737.5 446.5,-737.5 446.5,-680.5 381.5,-680.5"/>
<text text-anchor="middle" x="414" y="-725.5" font-family="Helvetica,sans-Serif" font-size="10.00">Alignment</text>
<polyline fill="none" stroke="#bfbfbf" points="381.5,-718.5 446.5,-718.5 "/>
<text text-anchor="middle" x="414" y="-706.5" font-family="Helvetica,sans-Serif" font-size="10.00"> </text>
<polyline fill="none" stroke="#bfbfbf" points="381.5,-699.5 446.5,-699.5 "/>
<text text-anchor="middle" x="414" y="-687.5" font-family="Helvetica,sans-Serif" font-size="10.00"> </text>
</g>
<!-- Node8&#45;&gt;Node3 -->
<g id="edge8" class="edge"><title>Node8&#45;&gt;Node3</title>
<path fill="none" stroke="#404040" d="M407.043,-680.263C400.571,-656.941 389.709,-623.157 375,-596 355.477,-559.956 328.377,-523.517 304.052,-493.914"/>
<polygon fill="none" stroke="#404040" points="303.939,-493.778 297.027,-491.723 296.266,-484.552 303.178,-486.607 303.939,-493.778"/>
<text text-anchor="middle" x="422.5" y="-604.5" font-family="Helvetica,sans-Serif" font-size="10.00"> #m_alignment</text>
</g>
</g>
</svg>
