<?xml version="1.0" encoding="UTF-8" standalone="no"?>
<!DOCTYPE svg PUBLIC "-//W3C//DTD SVG 1.1//EN"
 "http://www.w3.org/Graphics/SVG/1.1/DTD/svg11.dtd">
<!-- Generated by graphviz version 2.38.0 (20140413.2041)
 -->
<!-- Title: qtreports::Engine::print Pages: 1 -->
<svg width="1611pt" height="512pt"
 viewBox="0.00 0.00 1611.00 512.00" xmlns="http://www.w3.org/2000/svg" xmlns:xlink="http://www.w3.org/1999/xlink">
<g id="graph0" class="graph" transform="scale(1 1) rotate(0) translate(4 508)">
<title>qtreports::Engine::print</title>
<!-- Node1 -->
<g id="node1" class="node"><title>Node1</title>
<polygon fill="#bfbfbf" stroke="black" points="0,-339 0,-369 105,-369 105,-339 0,-339"/>
<text text-anchor="start" x="8" y="-357" font-family="Helvetica,sans-Serif" font-size="10.00">qtreports::Engine::</text>
<text text-anchor="middle" x="52.5" y="-346" font-family="Helvetica,sans-Serif" font-size="10.00">print</text>
</g>
<!-- Node2 -->
<g id="node2" class="node"><title>Node2</title>
<g id="a_node2"><a xlink:href="classqtreports_1_1_engine.html#a3dda769530e3713bba33c49124ad1ab6" target="_top" xlink:title="qtreports::Engine::\lprepareDB">
<polygon fill="none" stroke="black" points="141,-382 141,-412 246,-412 246,-382 141,-382"/>
<text text-anchor="start" x="149" y="-400" font-family="Helvetica,sans-Serif" font-size="10.00">qtreports::Engine::</text>
<text text-anchor="middle" x="193.5" y="-389" font-family="Helvetica,sans-Serif" font-size="10.00">prepareDB</text>
</a>
</g>
</g>
<!-- Node1&#45;&gt;Node2 -->
<g id="edge1" class="edge"><title>Node1&#45;&gt;Node2</title>
<path fill="none" stroke="midnightblue" d="M102.115,-369.039C112.425,-372.229 123.411,-375.627 134.042,-378.916"/>
<polygon fill="midnightblue" stroke="midnightblue" points="133.089,-382.285 143.677,-381.896 135.158,-375.597 133.089,-382.285"/>
</g>
<!-- Node6 -->
<g id="node6" class="node"><title>Node6</title>
<g id="a_node6"><a xlink:href="classqtreports_1_1_engine.html#a93dc7711446a155f87d9146efb493f9e" target="_top" xlink:title="qtreports::Engine::\ldrawPreview">
<polygon fill="none" stroke="black" points="141,-297 141,-327 246,-327 246,-297 141,-297"/>
<text text-anchor="start" x="149" y="-315" font-family="Helvetica,sans-Serif" font-size="10.00">qtreports::Engine::</text>
<text text-anchor="middle" x="193.5" y="-304" font-family="Helvetica,sans-Serif" font-size="10.00">drawPreview</text>
</a>
</g>
</g>
<!-- Node1&#45;&gt;Node6 -->
<g id="edge5" class="edge"><title>Node1&#45;&gt;Node6</title>
<path fill="none" stroke="midnightblue" d="M103.29,-338.956C112.871,-336.06 122.998,-333.001 132.854,-330.022"/>
<polygon fill="midnightblue" stroke="midnightblue" points="134.031,-333.323 142.591,-327.08 132.006,-326.623 134.031,-333.323"/>
</g>
<!-- Node3 -->
<g id="node3" class="node"><title>Node3</title>
<g id="a_node3"><a xlink:href="classqtreports_1_1_engine.html#a0c7bf107b4774cccb70577946d67666c" target="_top" xlink:title="Устанавливает запрос, по которому будут заполнятся поля отчета ">
<polygon fill="none" stroke="black" points="289,-400 289,-430 394,-430 394,-400 289,-400"/>
<text text-anchor="start" x="297" y="-418" font-family="Helvetica,sans-Serif" font-size="10.00">qtreports::Engine::</text>
<text text-anchor="middle" x="341.5" y="-407" font-family="Helvetica,sans-Serif" font-size="10.00">setQuery</text>
</a>
</g>
</g>
<!-- Node2&#45;&gt;Node3 -->
<g id="edge2" class="edge"><title>Node2&#45;&gt;Node3</title>
<path fill="none" stroke="midnightblue" d="M246.385,-403.397C256.82,-404.683 267.885,-406.047 278.621,-407.371"/>
<polygon fill="midnightblue" stroke="midnightblue" points="278.429,-410.874 288.782,-408.624 279.285,-403.926 278.429,-410.874"/>
</g>
<!-- Node4 -->
<g id="node4" class="node"><title>Node4</title>
<g id="a_node4"><a xlink:href="classqtreports_1_1_engine.html#ac214aea9f2f2b795307550290fa1d1ae" target="_top" xlink:title="qtreports::Engine::\lexecuteQueries">
<polygon fill="none" stroke="black" points="444,-454 444,-484 549,-484 549,-454 444,-454"/>
<text text-anchor="start" x="452" y="-472" font-family="Helvetica,sans-Serif" font-size="10.00">qtreports::Engine::</text>
<text text-anchor="middle" x="496.5" y="-461" font-family="Helvetica,sans-Serif" font-size="10.00">executeQueries</text>
</a>
</g>
</g>
<!-- Node3&#45;&gt;Node4 -->
<g id="edge3" class="edge"><title>Node3&#45;&gt;Node4</title>
<path fill="none" stroke="midnightblue" d="M385.119,-430.042C403.115,-436.393 424.245,-443.851 443.174,-450.532"/>
<polygon fill="midnightblue" stroke="midnightblue" points="442.25,-453.917 452.844,-453.945 444.579,-447.316 442.25,-453.917"/>
</g>
<!-- Node5 -->
<g id="node5" class="node"><title>Node5</title>
<g id="a_node5"><a xlink:href="classqtreports_1_1_engine.html#a1d96729622d140d02108a29034aecea0" target="_top" xlink:title="qtreports::Engine::\lprepareDataSource">
<polygon fill="none" stroke="black" points="596,-458 596,-488 707,-488 707,-458 596,-458"/>
<text text-anchor="start" x="604" y="-476" font-family="Helvetica,sans-Serif" font-size="10.00">qtreports::Engine::</text>
<text text-anchor="middle" x="651.5" y="-465" font-family="Helvetica,sans-Serif" font-size="10.00">prepareDataSource</text>
</a>
</g>
</g>
<!-- Node4&#45;&gt;Node5 -->
<g id="edge4" class="edge"><title>Node4&#45;&gt;Node5</title>
<path fill="none" stroke="midnightblue" d="M549.299,-470.354C561.016,-470.661 573.599,-470.99 585.774,-471.308"/>
<polygon fill="midnightblue" stroke="midnightblue" points="585.79,-474.809 595.878,-471.572 585.973,-467.812 585.79,-474.809"/>
</g>
<!-- Node7 -->
<g id="node7" class="node"><title>Node7</title>
<g id="a_node7"><a xlink:href="classqtreports_1_1detail_1_1_converter_to_q_widget.html#a4b42725ccbbc910522dca786da95fbb6" target="_top" xlink:title="Конвертирует отчет в виджет. ">
<polygon fill="none" stroke="black" points="282,-199.5 282,-240.5 401,-240.5 401,-199.5 282,-199.5"/>
<text text-anchor="start" x="290" y="-228.5" font-family="Helvetica,sans-Serif" font-size="10.00">qtreports::detail::</text>
<text text-anchor="start" x="290" y="-217.5" font-family="Helvetica,sans-Serif" font-size="10.00">ConverterToQWidget::</text>
<text text-anchor="middle" x="341.5" y="-206.5" font-family="Helvetica,sans-Serif" font-size="10.00">convert</text>
</a>
</g>
</g>
<!-- Node6&#45;&gt;Node7 -->
<g id="edge6" class="edge"><title>Node6&#45;&gt;Node7</title>
<path fill="none" stroke="midnightblue" d="M218.609,-296.808C240.512,-283.006 273.282,-262.357 299.329,-245.943"/>
<polygon fill="midnightblue" stroke="midnightblue" points="301.285,-248.848 307.88,-240.555 297.553,-242.925 301.285,-248.848"/>
</g>
<!-- Node27 -->
<g id="node27" class="node"><title>Node27</title>
<g id="a_node27"><a xlink:href="classqtreports_1_1detail_1_1_converter_to_q_widget.html#aba09b9782ffddba920ee7b881f3e8f99" target="_top" xlink:title="Возвращает информацию о последней ошибке, возникшей в процессе конвертации. ">
<polygon fill="none" stroke="black" points="282,-333.5 282,-374.5 401,-374.5 401,-333.5 282,-333.5"/>
<text text-anchor="start" x="290" y="-362.5" font-family="Helvetica,sans-Serif" font-size="10.00">qtreports::detail::</text>
<text text-anchor="start" x="290" y="-351.5" font-family="Helvetica,sans-Serif" font-size="10.00">ConverterToQWidget::</text>
<text text-anchor="middle" x="341.5" y="-340.5" font-family="Helvetica,sans-Serif" font-size="10.00">getLastError</text>
</a>
</g>
</g>
<!-- Node6&#45;&gt;Node27 -->
<g id="edge38" class="edge"><title>Node6&#45;&gt;Node27</title>
<path fill="none" stroke="midnightblue" d="M246.385,-326.926C254.722,-329.324 263.461,-331.838 272.114,-334.327"/>
<polygon fill="midnightblue" stroke="midnightblue" points="271.242,-337.718 281.82,-337.119 273.177,-330.991 271.242,-337.718"/>
</g>
<!-- Node28 -->
<g id="node28" class="node"><title>Node28</title>
<g id="a_node28"><a xlink:href="classqtreports_1_1detail_1_1_converter_to_q_widget.html#a7ee736dd6be3d2cd5b3407751d94617a" target="_top" xlink:title="Возвращает список всех страниц виджета. ">
<polygon fill="none" stroke="black" points="282,-273.5 282,-314.5 401,-314.5 401,-273.5 282,-273.5"/>
<text text-anchor="start" x="290" y="-302.5" font-family="Helvetica,sans-Serif" font-size="10.00">qtreports::detail::</text>
<text text-anchor="start" x="290" y="-291.5" font-family="Helvetica,sans-Serif" font-size="10.00">ConverterToQWidget::</text>
<text text-anchor="middle" x="341.5" y="-280.5" font-family="Helvetica,sans-Serif" font-size="10.00">getPages</text>
</a>
</g>
</g>
<!-- Node6&#45;&gt;Node28 -->
<g id="edge39" class="edge"><title>Node6&#45;&gt;Node28</title>
<path fill="none" stroke="midnightblue" d="M246.385,-305.603C254.633,-304.586 263.274,-303.521 271.835,-302.466"/>
<polygon fill="midnightblue" stroke="midnightblue" points="272.323,-305.932 281.82,-301.235 271.466,-298.985 272.323,-305.932"/>
</g>
<!-- Node8 -->
<g id="node8" class="node"><title>Node8</title>
<g id="a_node8"><a xlink:href="classqtreports_1_1detail_1_1_converter_to_q_widget.html#a96a53267cf2b8092e174906ea7f0f56f" target="_top" xlink:title="Конвертирует отчет в QWidget. ">
<polygon fill="none" stroke="black" points="437,-172.5 437,-213.5 556,-213.5 556,-172.5 437,-172.5"/>
<text text-anchor="start" x="445" y="-201.5" font-family="Helvetica,sans-Serif" font-size="10.00">qtreports::detail::</text>
<text text-anchor="start" x="445" y="-190.5" font-family="Helvetica,sans-Serif" font-size="10.00">ConverterToQWidget::</text>
<text text-anchor="middle" x="496.5" y="-179.5" font-family="Helvetica,sans-Serif" font-size="10.00">createQWidget</text>
</a>
</g>
</g>
<!-- Node7&#45;&gt;Node8 -->
<g id="edge7" class="edge"><title>Node7&#45;&gt;Node8</title>
<path fill="none" stroke="midnightblue" d="M401.216,-209.638C409.635,-208.153 418.359,-206.613 426.947,-205.098"/>
<polygon fill="midnightblue" stroke="midnightblue" points="427.701,-208.519 436.941,-203.334 426.485,-201.625 427.701,-208.519"/>
</g>
<!-- Node9 -->
<g id="node9" class="node"><title>Node9</title>
<g id="a_node9"><a xlink:href="classqtreports_1_1detail_1_1_converter_to_q_widget.html#a23d6229235fca8bd8bbddcc5e2e28f92" target="_top" xlink:title="Добавляет новую страницу на виджет. ">
<polygon fill="none" stroke="black" points="1082.5,-359.5 1082.5,-400.5 1201.5,-400.5 1201.5,-359.5 1082.5,-359.5"/>
<text text-anchor="start" x="1090.5" y="-388.5" font-family="Helvetica,sans-Serif" font-size="10.00">qtreports::detail::</text>
<text text-anchor="start" x="1090.5" y="-377.5" font-family="Helvetica,sans-Serif" font-size="10.00">ConverterToQWidget::</text>
<text text-anchor="middle" x="1142" y="-366.5" font-family="Helvetica,sans-Serif" font-size="10.00">addPage</text>
</a>
</g>
</g>
<!-- Node8&#45;&gt;Node9 -->
<g id="edge8" class="edge"><title>Node8&#45;&gt;Node9</title>
<path fill="none" stroke="midnightblue" d="M506.992,-213.552C521.592,-243.266 552.103,-298.44 592,-333 649.844,-383.108 672.517,-390.42 747,-408 866.822,-436.281 901.854,-425.41 1024,-410 1039.94,-407.989 1056.81,-404.496 1072.64,-400.587"/>
<polygon fill="midnightblue" stroke="midnightblue" points="1073.51,-403.975 1082.34,-398.109 1071.78,-397.193 1073.51,-403.975"/>
</g>
<!-- Node10 -->
<g id="node10" class="node"><title>Node10</title>
<g id="a_node10"><a xlink:href="classqtreports_1_1detail_1_1_converter_to_q_widget.html#af350953efb07bf3393c33846a81b1121" target="_top" xlink:title="Добавляет вертикальную границу. ">
<polygon fill="none" stroke="black" points="747,-0.5 747,-41.5 866,-41.5 866,-0.5 747,-0.5"/>
<text text-anchor="start" x="755" y="-29.5" font-family="Helvetica,sans-Serif" font-size="10.00">qtreports::detail::</text>
<text text-anchor="start" x="755" y="-18.5" font-family="Helvetica,sans-Serif" font-size="10.00">ConverterToQWidget::</text>
<text text-anchor="middle" x="806.5" y="-7.5" font-family="Helvetica,sans-Serif" font-size="10.00">addVerticalBorder</text>
</a>
</g>
</g>
<!-- Node8&#45;&gt;Node10 -->
<g id="edge9" class="edge"><title>Node8&#45;&gt;Node10</title>
<path fill="none" stroke="midnightblue" d="M509.8,-172.162C525.67,-147.081 555.609,-105.424 592,-82 635.755,-53.8363 692.727,-38.4133 736.812,-30.1255"/>
<polygon fill="midnightblue" stroke="midnightblue" points="737.645,-33.5319 746.867,-28.316 736.406,-26.6426 737.645,-33.5319"/>
</g>
<!-- Node11 -->
<g id="node11" class="node"><title>Node11</title>
<g id="a_node11"><a xlink:href="classqtreports_1_1detail_1_1_converter_to_q_widget.html#a76bb37f2855d12afc9056c75cdbc5e0b" target="_top" xlink:title="Проверяет, является ли виджет типа WidgetType::Layout. ">
<polygon fill="none" stroke="black" points="1082.5,-147.5 1082.5,-188.5 1201.5,-188.5 1201.5,-147.5 1082.5,-147.5"/>
<text text-anchor="start" x="1090.5" y="-176.5" font-family="Helvetica,sans-Serif" font-size="10.00">qtreports::detail::</text>
<text text-anchor="start" x="1090.5" y="-165.5" font-family="Helvetica,sans-Serif" font-size="10.00">ConverterToQWidget::</text>
<text text-anchor="middle" x="1142" y="-154.5" font-family="Helvetica,sans-Serif" font-size="10.00">isLayout</text>
</a>
</g>
</g>
<!-- Node8&#45;&gt;Node11 -->
<g id="edge12" class="edge"><title>Node8&#45;&gt;Node11</title>
<path fill="none" stroke="midnightblue" d="M556.097,-179.681C606.416,-168.963 681.055,-154.77 747,-149 860.768,-139.045 993.507,-150.122 1072.22,-159.055"/>
<polygon fill="midnightblue" stroke="midnightblue" points="1072.16,-162.57 1082.49,-160.243 1072.96,-155.617 1072.16,-162.57"/>
</g>
<!-- Node13 -->
<g id="node13" class="node"><title>Node13</title>
<g id="a_node13"><a xlink:href="classqtreports_1_1detail_1_1_converter_to_q_widget.html#ae126b16c5a846e84f12d86ca8ef253dd" target="_top" xlink:title="Добавляет секцию. ">
<polygon fill="none" stroke="black" points="747,-158.5 747,-199.5 866,-199.5 866,-158.5 747,-158.5"/>
<text text-anchor="start" x="755" y="-187.5" font-family="Helvetica,sans-Serif" font-size="10.00">qtreports::detail::</text>
<text text-anchor="start" x="755" y="-176.5" font-family="Helvetica,sans-Serif" font-size="10.00">ConverterToQWidget::</text>
<text text-anchor="middle" x="806.5" y="-165.5" font-family="Helvetica,sans-Serif" font-size="10.00">addSectionLayout</text>
</a>
</g>
</g>
<!-- Node8&#45;&gt;Node13 -->
<g id="edge13" class="edge"><title>Node8&#45;&gt;Node13</title>
<path fill="none" stroke="midnightblue" d="M556.157,-190.334C607.562,-187.997 682.333,-184.599 736.579,-182.133"/>
<polygon fill="midnightblue" stroke="midnightblue" points="736.969,-185.619 746.799,-181.668 736.651,-178.626 736.969,-185.619"/>
</g>
<!-- Node14 -->
<g id="node14" class="node"><title>Node14</title>
<g id="a_node14"><a xlink:href="classqtreports_1_1detail_1_1_converter_to_q_widget.html#a3c95daf9bd10efc4feb71e0d976bbd6e" target="_top" xlink:title="Создает секцию. ">
<polygon fill="none" stroke="black" points="747,-357.5 747,-398.5 866,-398.5 866,-357.5 747,-357.5"/>
<text text-anchor="start" x="755" y="-386.5" font-family="Helvetica,sans-Serif" font-size="10.00">qtreports::detail::</text>
<text text-anchor="start" x="755" y="-375.5" font-family="Helvetica,sans-Serif" font-size="10.00">ConverterToQWidget::</text>
<text text-anchor="middle" x="806.5" y="-364.5" font-family="Helvetica,sans-Serif" font-size="10.00">createSection</text>
</a>
</g>
</g>
<!-- Node8&#45;&gt;Node14 -->
<g id="edge16" class="edge"><title>Node8&#45;&gt;Node14</title>
<path fill="none" stroke="midnightblue" d="M513.285,-213.602C530.625,-235.075 560.257,-268.529 592,-290 636.612,-320.175 693.195,-342.914 736.901,-357.711"/>
<polygon fill="midnightblue" stroke="midnightblue" points="735.992,-361.097 746.586,-360.932 738.201,-354.455 735.992,-361.097"/>
</g>
<!-- Node24 -->
<g id="node24" class="node"><title>Node24</title>
<g id="a_node24"><a xlink:href="classqtreports_1_1detail_1_1_converter_to_q_widget.html#ac98aceb5ee703053d7691029da84e296" target="_top" xlink:title="Функция добавления группировок в отчет. ">
<polygon fill="none" stroke="black" points="592,-239.5 592,-280.5 711,-280.5 711,-239.5 592,-239.5"/>
<text text-anchor="start" x="600" y="-268.5" font-family="Helvetica,sans-Serif" font-size="10.00">qtreports::detail::</text>
<text text-anchor="start" x="600" y="-257.5" font-family="Helvetica,sans-Serif" font-size="10.00">ConverterToQWidget::</text>
<text text-anchor="middle" x="651.5" y="-246.5" font-family="Helvetica,sans-Serif" font-size="10.00">addGroupsIntoReport</text>
</a>
</g>
</g>
<!-- Node8&#45;&gt;Node24 -->
<g id="edge29" class="edge"><title>Node8&#45;&gt;Node24</title>
<path fill="none" stroke="midnightblue" d="M544.653,-213.649C560.287,-220.495 577.848,-228.185 594.105,-235.304"/>
<polygon fill="midnightblue" stroke="midnightblue" points="592.938,-238.614 603.502,-239.419 595.746,-232.202 592.938,-238.614"/>
</g>
<!-- Node26 -->
<g id="node26" class="node"><title>Node26</title>
<g id="a_node26"><a xlink:href="classqtreports_1_1detail_1_1_converter_to_q_widget.html#a21d211f4a1f0f46f2220a0959c36367b" target="_top" xlink:title="Добавляет пустую секцию. ">
<polygon fill="none" stroke="black" points="747,-60.5 747,-101.5 866,-101.5 866,-60.5 747,-60.5"/>
<text text-anchor="start" x="755" y="-89.5" font-family="Helvetica,sans-Serif" font-size="10.00">qtreports::detail::</text>
<text text-anchor="start" x="755" y="-78.5" font-family="Helvetica,sans-Serif" font-size="10.00">ConverterToQWidget::</text>
<text text-anchor="middle" x="806.5" y="-67.5" font-family="Helvetica,sans-Serif" font-size="10.00">addEmptySection</text>
</a>
</g>
</g>
<!-- Node8&#45;&gt;Node26 -->
<g id="edge35" class="edge"><title>Node8&#45;&gt;Node26</title>
<path fill="none" stroke="midnightblue" d="M516.399,-172.442C534.122,-154.528 562.283,-129.381 592,-116 637.658,-95.4405 693.66,-86.8025 736.852,-83.2449"/>
<polygon fill="midnightblue" stroke="midnightblue" points="737.271,-86.7234 746.981,-82.4838 736.747,-79.7431 737.271,-86.7234"/>
</g>
<!-- Node10&#45;&gt;Node11 -->
<g id="edge10" class="edge"><title>Node10&#45;&gt;Node11</title>
<path fill="none" stroke="midnightblue" d="M866.125,-17.2742C911.492,-16.7981 974.686,-21.5281 1024,-46 1066.41,-67.0434 1101.83,-110.008 1122.23,-138.912"/>
<polygon fill="midnightblue" stroke="midnightblue" points="1119.51,-141.141 1128.07,-147.391 1125.28,-137.17 1119.51,-141.141"/>
</g>
<!-- Node12 -->
<g id="node12" class="node"><title>Node12</title>
<g id="a_node12"><a xlink:href="namespaceqtreports_1_1detail.html#a57ac54d6807a30b13e419a3106735b19" target="_top" xlink:title="qtreports::detail::\lcreateLayout">
<polygon fill="none" stroke="black" points="913.5,-71 913.5,-101 1012.5,-101 1012.5,-71 913.5,-71"/>
<text text-anchor="start" x="921.5" y="-89" font-family="Helvetica,sans-Serif" font-size="10.00">qtreports::detail::</text>
<text text-anchor="middle" x="963" y="-78" font-family="Helvetica,sans-Serif" font-size="10.00">createLayout</text>
</a>
</g>
</g>
<!-- Node10&#45;&gt;Node12 -->
<g id="edge11" class="edge"><title>Node10&#45;&gt;Node12</title>
<path fill="none" stroke="midnightblue" d="M856.385,-41.5664C875.746,-49.7117 897.867,-59.0184 916.845,-67.0027"/>
<polygon fill="midnightblue" stroke="midnightblue" points="915.591,-70.2725 926.166,-70.9243 918.306,-63.8202 915.591,-70.2725"/>
</g>
<!-- Node13&#45;&gt;Node11 -->
<g id="edge14" class="edge"><title>Node13&#45;&gt;Node11</title>
<path fill="none" stroke="midnightblue" d="M866.355,-177.059C923.894,-175.161 1011.47,-172.272 1072.19,-170.269"/>
<polygon fill="midnightblue" stroke="midnightblue" points="1072.57,-173.759 1082.45,-169.931 1072.34,-166.763 1072.57,-173.759"/>
</g>
<!-- Node13&#45;&gt;Node12 -->
<g id="edge15" class="edge"><title>Node13&#45;&gt;Node12</title>
<path fill="none" stroke="midnightblue" d="M841.789,-158.36C867.554,-142.851 902.67,-121.713 928.293,-106.289"/>
<polygon fill="midnightblue" stroke="midnightblue" points="930.167,-109.247 936.93,-101.091 926.557,-103.249 930.167,-109.247"/>
</g>
<!-- Node14&#45;&gt;Node11 -->
<g id="edge17" class="edge"><title>Node14&#45;&gt;Node11</title>
<path fill="none" stroke="midnightblue" d="M852.875,-357.349C857.498,-354.488 861.969,-351.364 866,-348 886.201,-331.14 882.088,-318.201 902,-301 956.464,-253.951 1030.21,-215.993 1081.32,-192.853"/>
<polygon fill="midnightblue" stroke="midnightblue" points="1082.89,-195.985 1090.59,-188.706 1080.03,-189.595 1082.89,-195.985"/>
</g>
<!-- Node15 -->
<g id="node15" class="node"><title>Node15</title>
<g id="a_node15"><a xlink:href="classqtreports_1_1detail_1_1_replacer.html#af7ccb83be264f7c72b7485cf38455450" target="_top" xlink:title="Заменяет текст всех виджетов секции текстом с подставленными значениями. ">
<polygon fill="none" stroke="black" points="913.5,-458 913.5,-488 1012.5,-488 1012.5,-458 913.5,-458"/>
<text text-anchor="start" x="921.5" y="-476" font-family="Helvetica,sans-Serif" font-size="10.00">qtreports::detail::</text>
<text text-anchor="middle" x="963" y="-465" font-family="Helvetica,sans-Serif" font-size="10.00">Replacer::replace</text>
</a>
</g>
</g>
<!-- Node14&#45;&gt;Node15 -->
<g id="edge18" class="edge"><title>Node14&#45;&gt;Node15</title>
<path fill="none" stroke="midnightblue" d="M841.024,-398.614C866.905,-414.527 902.549,-436.445 928.439,-452.364"/>
<polygon fill="midnightblue" stroke="midnightblue" points="926.806,-455.469 937.158,-457.725 930.473,-449.506 926.806,-455.469"/>
</g>
<!-- Node22 -->
<g id="node22" class="node"><title>Node22</title>
<g id="a_node22"><a xlink:href="classqtreports_1_1detail_1_1_replacer.html#a677f7802e444f2de3af4cb43b6cedf30" target="_top" xlink:title="Возвращает описание последней произошедшей ошибки. ">
<polygon fill="none" stroke="black" points="902,-311 902,-341 1024,-341 1024,-311 902,-311"/>
<text text-anchor="start" x="910" y="-329" font-family="Helvetica,sans-Serif" font-size="10.00">qtreports::detail::</text>
<text text-anchor="middle" x="963" y="-318" font-family="Helvetica,sans-Serif" font-size="10.00">Replacer::getLastError</text>
</a>
</g>
</g>
<!-- Node14&#45;&gt;Node22 -->
<g id="edge25" class="edge"><title>Node14&#45;&gt;Node22</title>
<path fill="none" stroke="midnightblue" d="M866.351,-358.193C879.938,-353.62 894.331,-348.775 907.713,-344.271"/>
<polygon fill="midnightblue" stroke="midnightblue" points="908.891,-347.568 917.252,-341.061 906.658,-340.934 908.891,-347.568"/>
</g>
<!-- Node23 -->
<g id="node23" class="node"><title>Node23</title>
<g id="a_node23"><a xlink:href="classqtreports_1_1detail_1_1_converter_to_q_widget.html#aa3be16e037533a4a5b58596087207187" target="_top" xlink:title="Создает band. ">
<polygon fill="none" stroke="black" points="903.5,-359.5 903.5,-400.5 1022.5,-400.5 1022.5,-359.5 903.5,-359.5"/>
<text text-anchor="start" x="911.5" y="-388.5" font-family="Helvetica,sans-Serif" font-size="10.00">qtreports::detail::</text>
<text text-anchor="start" x="911.5" y="-377.5" font-family="Helvetica,sans-Serif" font-size="10.00">ConverterToQWidget::</text>
<text text-anchor="middle" x="963" y="-366.5" font-family="Helvetica,sans-Serif" font-size="10.00">createBands</text>
</a>
</g>
</g>
<!-- Node14&#45;&gt;Node23 -->
<g id="edge26" class="edge"><title>Node14&#45;&gt;Node23</title>
<path fill="none" stroke="midnightblue" d="M866.351,-378.762C875.149,-378.876 884.285,-378.994 893.266,-379.11"/>
<polygon fill="midnightblue" stroke="midnightblue" points="893.269,-382.61 903.313,-379.24 893.359,-375.611 893.269,-382.61"/>
</g>
<!-- Node16 -->
<g id="node16" class="node"><title>Node16</title>
<g id="a_node16"><a xlink:href="classqtreports_1_1detail_1_1_replacer.html#a58cf857aa78eb3e273f6543769af425b" target="_top" xlink:title="Заменяет текст всех виджетов секции текстом с подставленными значениями полей из источника данных...">
<polygon fill="none" stroke="black" points="1060,-468 1060,-498 1224,-498 1224,-468 1060,-468"/>
<text text-anchor="start" x="1068" y="-486" font-family="Helvetica,sans-Serif" font-size="10.00">qtreports::detail::</text>
<text text-anchor="middle" x="1142" y="-475" font-family="Helvetica,sans-Serif" font-size="10.00">Replacer::replaceFieldInSection</text>
</a>
</g>
</g>
<!-- Node15&#45;&gt;Node16 -->
<g id="edge19" class="edge"><title>Node15&#45;&gt;Node16</title>
<path fill="none" stroke="midnightblue" d="M1012.83,-475.759C1024.3,-476.407 1036.89,-477.118 1049.55,-477.833"/>
<polygon fill="midnightblue" stroke="midnightblue" points="1049.52,-481.337 1059.71,-478.407 1049.92,-474.349 1049.52,-481.337"/>
</g>
<!-- Node21 -->
<g id="node21" class="node"><title>Node21</title>
<g id="a_node21"><a xlink:href="classqtreports_1_1detail_1_1_replacer.html#abb903f1c1172efa7e26b040a5695cc86" target="_top" xlink:title="Возвращает текст с подставленными значениями параметров. ">
<polygon fill="none" stroke="black" points="1065,-419 1065,-449 1219,-449 1219,-419 1065,-419"/>
<text text-anchor="start" x="1073" y="-437" font-family="Helvetica,sans-Serif" font-size="10.00">qtreports::detail::</text>
<text text-anchor="middle" x="1142" y="-426" font-family="Helvetica,sans-Serif" font-size="10.00">Replacer::replaceParameters</text>
</a>
</g>
</g>
<!-- Node15&#45;&gt;Node21 -->
<g id="edge24" class="edge"><title>Node15&#45;&gt;Node21</title>
<path fill="none" stroke="midnightblue" d="M1012.83,-462.24C1028.32,-458.828 1045.84,-454.967 1062.85,-451.22"/>
<polygon fill="midnightblue" stroke="midnightblue" points="1063.77,-454.601 1072.78,-449.031 1062.26,-447.765 1063.77,-454.601"/>
</g>
<!-- Node17 -->
<g id="node17" class="node"><title>Node17</title>
<g id="a_node17"><a xlink:href="classqtreports_1_1detail_1_1_replacer.html#a2be57bd514335f9b9f2a520247562ce1" target="_top" xlink:title="Заменяет текст виджета текстом с подставленными значениями полей из источника данных. ">
<polygon fill="none" stroke="black" points="1266,-356.5 1266,-397.5 1412,-397.5 1412,-356.5 1266,-356.5"/>
<text text-anchor="start" x="1274" y="-385.5" font-family="Helvetica,sans-Serif" font-size="10.00">qtreports::detail::</text>
<text text-anchor="start" x="1274" y="-374.5" font-family="Helvetica,sans-Serif" font-size="10.00">Replacer::replaceFieldInText</text>
<text text-anchor="middle" x="1339" y="-363.5" font-family="Helvetica,sans-Serif" font-size="10.00">Widget</text>
</a>
</g>
</g>
<!-- Node16&#45;&gt;Node17 -->
<g id="edge20" class="edge"><title>Node16&#45;&gt;Node17</title>
<path fill="none" stroke="midnightblue" d="M1202.29,-467.964C1209.74,-465.341 1217.15,-462.357 1224,-459 1253.89,-444.345 1284.33,-421.993 1306.23,-404.325"/>
<polygon fill="midnightblue" stroke="midnightblue" points="1308.67,-406.853 1314.18,-397.809 1304.23,-401.438 1308.67,-406.853"/>
</g>
<!-- Node19 -->
<g id="node19" class="node"><title>Node19</title>
<g id="a_node19"><a xlink:href="classqtreports_1_1detail_1_1_replacer.html#a4aeb7794f90c0be34a30ab60a6df1920" target="_top" xlink:title="На основе текста виджета вставляет в него изображение из источника данных. ">
<polygon fill="none" stroke="black" points="1260,-462.5 1260,-503.5 1418,-503.5 1418,-462.5 1260,-462.5"/>
<text text-anchor="start" x="1268" y="-491.5" font-family="Helvetica,sans-Serif" font-size="10.00">qtreports::detail::</text>
<text text-anchor="start" x="1268" y="-480.5" font-family="Helvetica,sans-Serif" font-size="10.00">Replacer::replaceFieldInImage</text>
<text text-anchor="middle" x="1339" y="-469.5" font-family="Helvetica,sans-Serif" font-size="10.00">Widget</text>
</a>
</g>
</g>
<!-- Node16&#45;&gt;Node19 -->
<g id="edge22" class="edge"><title>Node16&#45;&gt;Node19</title>
<path fill="none" stroke="midnightblue" d="M1224,-483C1232.5,-483 1241.17,-483 1249.75,-483"/>
<polygon fill="midnightblue" stroke="midnightblue" points="1249.75,-486.5 1259.75,-483 1249.75,-479.5 1249.75,-486.5"/>
</g>
<!-- Node18 -->
<g id="node18" class="node"><title>Node18</title>
<g id="a_node18"><a xlink:href="classqtreports_1_1detail_1_1_replacer.html#a4642b07160798f2ee4de276e1d0c1ecd" target="_top" xlink:title="Возвращает текст с подставленными значениями полей из источника данных. ">
<polygon fill="none" stroke="black" points="1469,-315 1469,-345 1588,-345 1588,-315 1469,-315"/>
<text text-anchor="start" x="1477" y="-333" font-family="Helvetica,sans-Serif" font-size="10.00">qtreports::detail::</text>
<text text-anchor="middle" x="1528.5" y="-322" font-family="Helvetica,sans-Serif" font-size="10.00">Replacer::replaceField</text>
</a>
</g>
</g>
<!-- Node17&#45;&gt;Node18 -->
<g id="edge21" class="edge"><title>Node17&#45;&gt;Node18</title>
<path fill="none" stroke="midnightblue" d="M1412.22,-358.896C1427.63,-355.035 1443.85,-350.969 1459.1,-347.145"/>
<polygon fill="midnightblue" stroke="midnightblue" points="1460.12,-350.499 1468.97,-344.672 1458.42,-343.709 1460.12,-350.499"/>
</g>
<!-- Node20 -->
<g id="node20" class="node"><title>Node20</title>
<g id="a_node20"><a xlink:href="classqtreports_1_1detail_1_1_replacer.html#ae1ac521aeaf5fdd694e79e2ae52d4704" target="_top" xlink:title="Возвращает изображение на основе первого найденного выражения. ">
<polygon fill="none" stroke="black" points="1454,-468 1454,-498 1603,-498 1603,-468 1454,-468"/>
<text text-anchor="start" x="1462" y="-486" font-family="Helvetica,sans-Serif" font-size="10.00">qtreports::detail::</text>
<text text-anchor="middle" x="1528.5" y="-475" font-family="Helvetica,sans-Serif" font-size="10.00">Replacer::replaceFieldImage</text>
</a>
</g>
</g>
<!-- Node19&#45;&gt;Node20 -->
<g id="edge23" class="edge"><title>Node19&#45;&gt;Node20</title>
<path fill="none" stroke="midnightblue" d="M1418.16,-483C1426.68,-483 1435.38,-483 1443.96,-483"/>
<polygon fill="midnightblue" stroke="midnightblue" points="1443.97,-486.5 1453.97,-483 1443.97,-479.5 1443.97,-486.5"/>
</g>
<!-- Node23&#45;&gt;Node9 -->
<g id="edge27" class="edge"><title>Node23&#45;&gt;Node9</title>
<path fill="none" stroke="midnightblue" d="M1022.94,-380C1038.76,-380 1056.01,-380 1072.31,-380"/>
<polygon fill="midnightblue" stroke="midnightblue" points="1072.32,-383.5 1082.32,-380 1072.32,-376.5 1072.32,-383.5"/>
</g>
<!-- Node23&#45;&gt;Node11 -->
<g id="edge28" class="edge"><title>Node23&#45;&gt;Node11</title>
<path fill="none" stroke="midnightblue" d="M1011.45,-359.397C1015.91,-356.556 1020.19,-353.423 1024,-350 1072.96,-306.048 1109.69,-237.04 1128.01,-197.838"/>
<polygon fill="midnightblue" stroke="midnightblue" points="1131.29,-199.096 1132.27,-188.547 1124.92,-196.18 1131.29,-199.096"/>
</g>
<!-- Node24&#45;&gt;Node11 -->
<g id="edge31" class="edge"><title>Node24&#45;&gt;Node11</title>
<path fill="none" stroke="midnightblue" d="M711.425,-248.903C802.23,-231.801 975.938,-199.086 1072.31,-180.936"/>
<polygon fill="midnightblue" stroke="midnightblue" points="1073.07,-184.355 1082.25,-179.065 1071.77,-177.476 1073.07,-184.355"/>
</g>
<!-- Node24&#45;&gt;Node13 -->
<g id="edge32" class="edge"><title>Node24&#45;&gt;Node13</title>
<path fill="none" stroke="midnightblue" d="M691.504,-239.351C711.646,-228.687 736.395,-215.585 757.68,-204.316"/>
<polygon fill="midnightblue" stroke="midnightblue" points="759.367,-207.384 766.567,-199.612 756.091,-201.197 759.367,-207.384"/>
</g>
<!-- Node24&#45;&gt;Node14 -->
<g id="edge33" class="edge"><title>Node24&#45;&gt;Node14</title>
<path fill="none" stroke="midnightblue" d="M671.388,-280.598C689.543,-299.629 718.372,-327.913 747,-348 748.898,-349.332 750.863,-350.641 752.872,-351.923"/>
<polygon fill="midnightblue" stroke="midnightblue" points="751.525,-355.197 761.898,-357.354 755.134,-349.199 751.525,-355.197"/>
</g>
<!-- Node24&#45;&gt;Node18 -->
<g id="edge30" class="edge"><title>Node24&#45;&gt;Node18</title>
<path fill="none" stroke="midnightblue" d="M711.27,-264.702C867.402,-277.192 1291.99,-311.159 1458.85,-324.508"/>
<polygon fill="midnightblue" stroke="midnightblue" points="1458.74,-328.01 1468.99,-325.319 1459.3,-321.032 1458.74,-328.01"/>
</g>
<!-- Node25 -->
<g id="node25" class="node"><title>Node25</title>
<g id="a_node25"><a xlink:href="classqtreports_1_1detail_1_1_converter_to_q_widget.html#a5e49976fe8fac12633ccda1ba928b9b1" target="_top" xlink:title="Проверяет, является ли виджет типа WidgetType::Report. ">
<polygon fill="none" stroke="black" points="747,-297.5 747,-338.5 866,-338.5 866,-297.5 747,-297.5"/>
<text text-anchor="start" x="755" y="-326.5" font-family="Helvetica,sans-Serif" font-size="10.00">qtreports::detail::</text>
<text text-anchor="start" x="755" y="-315.5" font-family="Helvetica,sans-Serif" font-size="10.00">ConverterToQWidget::</text>
<text text-anchor="middle" x="806.5" y="-304.5" font-family="Helvetica,sans-Serif" font-size="10.00">isReport</text>
</a>
</g>
</g>
<!-- Node24&#45;&gt;Node25 -->
<g id="edge34" class="edge"><title>Node24&#45;&gt;Node25</title>
<path fill="none" stroke="midnightblue" d="M706.873,-280.612C718.146,-284.885 730.121,-289.425 741.697,-293.813"/>
<polygon fill="midnightblue" stroke="midnightblue" points="740.711,-297.182 751.302,-297.454 743.192,-290.637 740.711,-297.182"/>
</g>
<!-- Node26&#45;&gt;Node11 -->
<g id="edge36" class="edge"><title>Node26&#45;&gt;Node11</title>
<path fill="none" stroke="midnightblue" d="M866.464,-61.5671C911.162,-50.1119 973.331,-41.3243 1024,-61 1064.29,-76.6441 1099.17,-113.347 1120.12,-139.393"/>
<polygon fill="midnightblue" stroke="midnightblue" points="1117.5,-141.723 1126.42,-147.435 1123.01,-137.405 1117.5,-141.723"/>
</g>
<!-- Node26&#45;&gt;Node12 -->
<g id="edge37" class="edge"><title>Node26&#45;&gt;Node12</title>
<path fill="none" stroke="midnightblue" d="M866.351,-82.9045C878.476,-83.297 891.243,-83.7101 903.361,-84.1023"/>
<polygon fill="midnightblue" stroke="midnightblue" points="903.251,-87.6005 913.359,-84.4258 903.477,-80.6041 903.251,-87.6005"/>
</g>
</g>
</svg>
