<?xml version="1.0" encoding="UTF-8" standalone="no"?>
<!DOCTYPE svg PUBLIC "-//W3C//DTD SVG 1.1//EN"
 "http://www.w3.org/Graphics/SVG/1.1/DTD/svg11.dtd">
<!-- Generated by graphviz version 2.38.0 (20140413.2041)
 -->
<!-- Title: qtreports::detail::ConverterToPDF::convert Pages: 1 -->
<svg width="1495pt" height="271pt"
 viewBox="0.00 0.00 1495.00 271.00" xmlns="http://www.w3.org/2000/svg" xmlns:xlink="http://www.w3.org/1999/xlink">
<g id="graph0" class="graph" transform="scale(1 1) rotate(0) translate(4 267)">
<title>qtreports::detail::ConverterToPDF::convert</title>
<!-- Node1 -->
<g id="node1" class="node"><title>Node1</title>
<polygon fill="#bfbfbf" stroke="black" points="0,-30 0,-60 134,-60 134,-30 0,-30"/>
<text text-anchor="start" x="8" y="-48" font-family="Helvetica,sans-Serif" font-size="10.00">qtreports::detail::</text>
<text text-anchor="middle" x="67" y="-37" font-family="Helvetica,sans-Serif" font-size="10.00">ConverterToPDF::convert</text>
</g>
<!-- Node2 -->
<g id="node2" class="node"><title>Node2</title>
<g id="a_node2"><a xlink:href="classqtreports_1_1detail_1_1_converter_to_p_d_f.html#aad8435572f5ba065f8f2fef428d97b22" target="_top" xlink:title="Конвертирует отчет в PDF документ. ">
<polygon fill="none" stroke="black" points="170,-30 170,-60 298,-60 298,-30 170,-30"/>
<text text-anchor="start" x="178" y="-48" font-family="Helvetica,sans-Serif" font-size="10.00">qtreports::detail::</text>
<text text-anchor="middle" x="234" y="-37" font-family="Helvetica,sans-Serif" font-size="10.00">ConverterToPDF::create</text>
</a>
</g>
</g>
<!-- Node1&#45;&gt;Node2 -->
<g id="edge1" class="edge"><title>Node1&#45;&gt;Node2</title>
<path fill="none" stroke="midnightblue" d="M134.161,-45C142.511,-45 151.094,-45 159.548,-45"/>
<polygon fill="midnightblue" stroke="midnightblue" points="159.773,-48.5001 169.773,-45 159.772,-41.5001 159.773,-48.5001"/>
</g>
<!-- Node3 -->
<g id="node3" class="node"><title>Node3</title>
<g id="a_node3"><a xlink:href="classqtreports_1_1detail_1_1_converter_to_p_d_f.html#a5d9212cf5250d8d938359c417537337c" target="_top" xlink:title="Создает секцию. ">
<polygon fill="none" stroke="black" points="538,-55 538,-85 702,-85 702,-55 538,-55"/>
<text text-anchor="start" x="546" y="-73" font-family="Helvetica,sans-Serif" font-size="10.00">qtreports::detail::</text>
<text text-anchor="middle" x="620" y="-62" font-family="Helvetica,sans-Serif" font-size="10.00">ConverterToPDF::createSection</text>
</a>
</g>
</g>
<!-- Node2&#45;&gt;Node3 -->
<g id="edge2" class="edge"><title>Node2&#45;&gt;Node3</title>
<path fill="none" stroke="midnightblue" d="M298.41,-49.1282C360.843,-53.1929 456.85,-59.4433 527.534,-64.0452"/>
<polygon fill="midnightblue" stroke="midnightblue" points="527.566,-67.5546 537.773,-64.7118 528.021,-60.5694 527.566,-67.5546"/>
</g>
<!-- Node17 -->
<g id="node17" class="node"><title>Node17</title>
<g id="a_node17"><a xlink:href="classqtreports_1_1detail_1_1_converter_to_p_d_f.html#adda58d86ecfee05cdcc5e5ce161926ff" target="_top" xlink:title="Добавляет группу в репорт. ">
<polygon fill="none" stroke="black" points="334,-0.5 334,-41.5 502,-41.5 502,-0.5 334,-0.5"/>
<text text-anchor="start" x="342" y="-29.5" font-family="Helvetica,sans-Serif" font-size="10.00">qtreports::detail::</text>
<text text-anchor="start" x="342" y="-18.5" font-family="Helvetica,sans-Serif" font-size="10.00">ConverterToPDF::addGroupsInto</text>
<text text-anchor="middle" x="418" y="-7.5" font-family="Helvetica,sans-Serif" font-size="10.00">Report</text>
</a>
</g>
</g>
<!-- Node2&#45;&gt;Node17 -->
<g id="edge18" class="edge"><title>Node2&#45;&gt;Node17</title>
<path fill="none" stroke="midnightblue" d="M298.144,-36.6733C306.409,-35.5835 315.013,-34.4489 323.645,-33.3105"/>
<polygon fill="midnightblue" stroke="midnightblue" points="324.316,-36.7524 333.773,-31.975 323.401,-29.8125 324.316,-36.7524"/>
</g>
<!-- Node4 -->
<g id="node4" class="node"><title>Node4</title>
<g id="a_node4"><a xlink:href="classqtreports_1_1detail_1_1_replacer.html#af7ccb83be264f7c72b7485cf38455450" target="_top" xlink:title="Заменяет текст всех виджетов секции текстом с подставленными значениями. ">
<polygon fill="none" stroke="black" points="767.5,-161 767.5,-191 866.5,-191 866.5,-161 767.5,-161"/>
<text text-anchor="start" x="775.5" y="-179" font-family="Helvetica,sans-Serif" font-size="10.00">qtreports::detail::</text>
<text text-anchor="middle" x="817" y="-168" font-family="Helvetica,sans-Serif" font-size="10.00">Replacer::replace</text>
</a>
</g>
</g>
<!-- Node3&#45;&gt;Node4 -->
<g id="edge3" class="edge"><title>Node3&#45;&gt;Node4</title>
<path fill="none" stroke="midnightblue" d="M642.817,-85.068C665.87,-100.638 703.58,-125.123 738,-143 747.394,-147.879 757.673,-152.624 767.596,-156.924"/>
<polygon fill="midnightblue" stroke="midnightblue" points="766.389,-160.213 776.961,-160.9 769.124,-153.77 766.389,-160.213"/>
</g>
<!-- Node11 -->
<g id="node11" class="node"><title>Node11</title>
<g id="a_node11"><a xlink:href="classqtreports_1_1detail_1_1_replacer.html#a677f7802e444f2de3af4cb43b6cedf30" target="_top" xlink:title="Возвращает описание последней произошедшей ошибки. ">
<polygon fill="none" stroke="black" points="756,-104 756,-134 878,-134 878,-104 756,-104"/>
<text text-anchor="start" x="764" y="-122" font-family="Helvetica,sans-Serif" font-size="10.00">qtreports::detail::</text>
<text text-anchor="middle" x="817" y="-111" font-family="Helvetica,sans-Serif" font-size="10.00">Replacer::getLastError</text>
</a>
</g>
</g>
<!-- Node3&#45;&gt;Node11 -->
<g id="edge10" class="edge"><title>Node3&#45;&gt;Node11</title>
<path fill="none" stroke="midnightblue" d="M680.832,-85.0346C701.608,-90.2554 725.081,-96.1537 746.567,-101.553"/>
<polygon fill="midnightblue" stroke="midnightblue" points="745.73,-104.951 756.282,-103.994 747.436,-98.1622 745.73,-104.951"/>
</g>
<!-- Node12 -->
<g id="node12" class="node"><title>Node12</title>
<g id="a_node12"><a xlink:href="classqtreports_1_1detail_1_1_converter_to_p_d_f.html#aba1de1bf9abc3ea9b7b5c2b8317f5a0f" target="_top" xlink:title="Создает band. ">
<polygon fill="none" stroke="black" points="738,-55 738,-85 896,-85 896,-55 738,-55"/>
<text text-anchor="start" x="746" y="-73" font-family="Helvetica,sans-Serif" font-size="10.00">qtreports::detail::</text>
<text text-anchor="middle" x="817" y="-62" font-family="Helvetica,sans-Serif" font-size="10.00">ConverterToPDF::createBands</text>
</a>
</g>
</g>
<!-- Node3&#45;&gt;Node12 -->
<g id="edge11" class="edge"><title>Node3&#45;&gt;Node12</title>
<path fill="none" stroke="midnightblue" d="M702.003,-70C710.502,-70 719.173,-70 727.748,-70"/>
<polygon fill="midnightblue" stroke="midnightblue" points="727.754,-73.5001 737.754,-70 727.754,-66.5001 727.754,-73.5001"/>
</g>
<!-- Node5 -->
<g id="node5" class="node"><title>Node5</title>
<g id="a_node5"><a xlink:href="classqtreports_1_1detail_1_1_replacer.html#a58cf857aa78eb3e273f6543769af425b" target="_top" xlink:title="Заменяет текст всех виджетов секции текстом с подставленными значениями полей из источника данных...">
<polygon fill="none" stroke="black" points="935,-210 935,-240 1099,-240 1099,-210 935,-210"/>
<text text-anchor="start" x="943" y="-228" font-family="Helvetica,sans-Serif" font-size="10.00">qtreports::detail::</text>
<text text-anchor="middle" x="1017" y="-217" font-family="Helvetica,sans-Serif" font-size="10.00">Replacer::replaceFieldInSection</text>
</a>
</g>
</g>
<!-- Node4&#45;&gt;Node5 -->
<g id="edge4" class="edge"><title>Node4&#45;&gt;Node5</title>
<path fill="none" stroke="midnightblue" d="M866.69,-188.05C890.347,-193.904 919.224,-201.05 945.257,-207.493"/>
<polygon fill="midnightblue" stroke="midnightblue" points="944.53,-210.918 955.078,-209.923 946.211,-204.123 944.53,-210.918"/>
</g>
<!-- Node10 -->
<g id="node10" class="node"><title>Node10</title>
<g id="a_node10"><a xlink:href="classqtreports_1_1detail_1_1_replacer.html#abb903f1c1172efa7e26b040a5695cc86" target="_top" xlink:title="Возвращает текст с подставленными значениями параметров. ">
<polygon fill="none" stroke="black" points="940,-161 940,-191 1094,-191 1094,-161 940,-161"/>
<text text-anchor="start" x="948" y="-179" font-family="Helvetica,sans-Serif" font-size="10.00">qtreports::detail::</text>
<text text-anchor="middle" x="1017" y="-168" font-family="Helvetica,sans-Serif" font-size="10.00">Replacer::replaceParameters</text>
</a>
</g>
</g>
<!-- Node4&#45;&gt;Node10 -->
<g id="edge9" class="edge"><title>Node4&#45;&gt;Node10</title>
<path fill="none" stroke="midnightblue" d="M866.69,-176C885.669,-176 908.008,-176 929.542,-176"/>
<polygon fill="midnightblue" stroke="midnightblue" points="929.696,-179.5 939.696,-176 929.696,-172.5 929.696,-179.5"/>
</g>
<!-- Node6 -->
<g id="node6" class="node"><title>Node6</title>
<g id="a_node6"><a xlink:href="classqtreports_1_1detail_1_1_replacer.html#a2be57bd514335f9b9f2a520247562ce1" target="_top" xlink:title="Заменяет текст виджета текстом с подставленными значениями полей из источника данных. ">
<polygon fill="none" stroke="black" points="1147,-161.5 1147,-202.5 1293,-202.5 1293,-161.5 1147,-161.5"/>
<text text-anchor="start" x="1155" y="-190.5" font-family="Helvetica,sans-Serif" font-size="10.00">qtreports::detail::</text>
<text text-anchor="start" x="1155" y="-179.5" font-family="Helvetica,sans-Serif" font-size="10.00">Replacer::replaceFieldInText</text>
<text text-anchor="middle" x="1220" y="-168.5" font-family="Helvetica,sans-Serif" font-size="10.00">Widget</text>
</a>
</g>
</g>
<!-- Node5&#45;&gt;Node6 -->
<g id="edge5" class="edge"><title>Node5&#45;&gt;Node6</title>
<path fill="none" stroke="midnightblue" d="M1088.3,-209.961C1103.96,-206.611 1120.69,-203.031 1136.78,-199.59"/>
<polygon fill="midnightblue" stroke="midnightblue" points="1137.65,-202.983 1146.7,-197.468 1136.19,-196.137 1137.65,-202.983"/>
</g>
<!-- Node8 -->
<g id="node8" class="node"><title>Node8</title>
<g id="a_node8"><a xlink:href="classqtreports_1_1detail_1_1_replacer.html#a4aeb7794f90c0be34a30ab60a6df1920" target="_top" xlink:title="На основе текста виджета вставляет в него изображение из источника данных. ">
<polygon fill="none" stroke="black" points="1141,-221.5 1141,-262.5 1299,-262.5 1299,-221.5 1141,-221.5"/>
<text text-anchor="start" x="1149" y="-250.5" font-family="Helvetica,sans-Serif" font-size="10.00">qtreports::detail::</text>
<text text-anchor="start" x="1149" y="-239.5" font-family="Helvetica,sans-Serif" font-size="10.00">Replacer::replaceFieldInImage</text>
<text text-anchor="middle" x="1220" y="-228.5" font-family="Helvetica,sans-Serif" font-size="10.00">Widget</text>
</a>
</g>
</g>
<!-- Node5&#45;&gt;Node8 -->
<g id="edge7" class="edge"><title>Node5&#45;&gt;Node8</title>
<path fill="none" stroke="midnightblue" d="M1099.18,-231.866C1109.58,-232.745 1120.27,-233.65 1130.78,-234.538"/>
<polygon fill="midnightblue" stroke="midnightblue" points="1130.52,-238.029 1140.78,-235.385 1131.11,-231.054 1130.52,-238.029"/>
</g>
<!-- Node7 -->
<g id="node7" class="node"><title>Node7</title>
<g id="a_node7"><a xlink:href="classqtreports_1_1detail_1_1_replacer.html#a4642b07160798f2ee4de276e1d0c1ecd" target="_top" xlink:title="Возвращает текст с подставленными значениями полей из источника данных. ">
<polygon fill="none" stroke="black" points="1353,-77 1353,-107 1472,-107 1472,-77 1353,-77"/>
<text text-anchor="start" x="1361" y="-95" font-family="Helvetica,sans-Serif" font-size="10.00">qtreports::detail::</text>
<text text-anchor="middle" x="1412.5" y="-84" font-family="Helvetica,sans-Serif" font-size="10.00">Replacer::replaceField</text>
</a>
</g>
</g>
<!-- Node6&#45;&gt;Node7 -->
<g id="edge6" class="edge"><title>Node6&#45;&gt;Node7</title>
<path fill="none" stroke="midnightblue" d="M1279.82,-161.376C1287.35,-158.396 1294.91,-155.236 1302,-152 1328.06,-140.113 1356.39,-124.514 1377.7,-112.2"/>
<polygon fill="midnightblue" stroke="midnightblue" points="1379.5,-115.203 1386.38,-107.145 1375.98,-109.154 1379.5,-115.203"/>
</g>
<!-- Node9 -->
<g id="node9" class="node"><title>Node9</title>
<g id="a_node9"><a xlink:href="classqtreports_1_1detail_1_1_replacer.html#ae1ac521aeaf5fdd694e79e2ae52d4704" target="_top" xlink:title="Возвращает изображение на основе первого найденного выражения. ">
<polygon fill="none" stroke="black" points="1338,-227 1338,-257 1487,-257 1487,-227 1338,-227"/>
<text text-anchor="start" x="1346" y="-245" font-family="Helvetica,sans-Serif" font-size="10.00">qtreports::detail::</text>
<text text-anchor="middle" x="1412.5" y="-234" font-family="Helvetica,sans-Serif" font-size="10.00">Replacer::replaceFieldImage</text>
</a>
</g>
</g>
<!-- Node8&#45;&gt;Node9 -->
<g id="edge8" class="edge"><title>Node8&#45;&gt;Node9</title>
<path fill="none" stroke="midnightblue" d="M1299.03,-242C1308.47,-242 1318.13,-242 1327.64,-242"/>
<polygon fill="midnightblue" stroke="midnightblue" points="1327.89,-245.5 1337.88,-242 1327.88,-238.5 1327.89,-245.5"/>
</g>
<!-- Node13 -->
<g id="node13" class="node"><title>Node13</title>
<g id="a_node13"><a xlink:href="classqtreports_1_1detail_1_1_replacer.html#aa9fa83cf51d75301b62e11a0a93e2dcc" target="_top" xlink:title="qtreports::detail::\lReplacer::replaceColumnGroups\lInCrosstab">
<polygon fill="none" stroke="black" points="932,-101.5 932,-142.5 1102,-142.5 1102,-101.5 932,-101.5"/>
<text text-anchor="start" x="940" y="-130.5" font-family="Helvetica,sans-Serif" font-size="10.00">qtreports::detail::</text>
<text text-anchor="start" x="940" y="-119.5" font-family="Helvetica,sans-Serif" font-size="10.00">Replacer::replaceColumnGroups</text>
<text text-anchor="middle" x="1017" y="-108.5" font-family="Helvetica,sans-Serif" font-size="10.00">InCrosstab</text>
</a>
</g>
</g>
<!-- Node12&#45;&gt;Node13 -->
<g id="edge12" class="edge"><title>Node12&#45;&gt;Node13</title>
<path fill="none" stroke="midnightblue" d="M875.27,-85.0406C891.749,-89.3683 910.115,-94.1919 927.998,-98.8883"/>
<polygon fill="midnightblue" stroke="midnightblue" points="927.306,-102.325 937.867,-101.48 929.084,-95.5549 927.306,-102.325"/>
</g>
<!-- Node15 -->
<g id="node15" class="node"><title>Node15</title>
<g id="a_node15"><a xlink:href="classqtreports_1_1detail_1_1_replacer.html#ae0f12ba0e77e9ef89b9479272e843fe6" target="_top" xlink:title="qtreports::detail::\lReplacer::replaceRowGroups\lInCrosstab">
<polygon fill="none" stroke="black" points="941.5,-41.5 941.5,-82.5 1092.5,-82.5 1092.5,-41.5 941.5,-41.5"/>
<text text-anchor="start" x="949.5" y="-70.5" font-family="Helvetica,sans-Serif" font-size="10.00">qtreports::detail::</text>
<text text-anchor="start" x="949.5" y="-59.5" font-family="Helvetica,sans-Serif" font-size="10.00">Replacer::replaceRowGroups</text>
<text text-anchor="middle" x="1017" y="-48.5" font-family="Helvetica,sans-Serif" font-size="10.00">InCrosstab</text>
</a>
</g>
</g>
<!-- Node12&#45;&gt;Node15 -->
<g id="edge15" class="edge"><title>Node12&#45;&gt;Node15</title>
<path fill="none" stroke="midnightblue" d="M896.255,-66.8382C907.709,-66.3754 919.55,-65.897 931.129,-65.4291"/>
<polygon fill="midnightblue" stroke="midnightblue" points="931.369,-68.9224 941.22,-65.0214 931.086,-61.9281 931.369,-68.9224"/>
</g>
<!-- Node14 -->
<g id="node14" class="node"><title>Node14</title>
<g id="a_node14"><a xlink:href="classqtreports_1_1detail_1_1_replacer.html#a781b476a4e964da9e5afe4f642b2f275" target="_top" xlink:title="qtreports::detail::\lReplacer::replaceColumnGroup\lInCrosstab">
<polygon fill="none" stroke="black" points="1138,-101.5 1138,-142.5 1302,-142.5 1302,-101.5 1138,-101.5"/>
<text text-anchor="start" x="1146" y="-130.5" font-family="Helvetica,sans-Serif" font-size="10.00">qtreports::detail::</text>
<text text-anchor="start" x="1146" y="-119.5" font-family="Helvetica,sans-Serif" font-size="10.00">Replacer::replaceColumnGroup</text>
<text text-anchor="middle" x="1220" y="-108.5" font-family="Helvetica,sans-Serif" font-size="10.00">InCrosstab</text>
</a>
</g>
</g>
<!-- Node13&#45;&gt;Node14 -->
<g id="edge13" class="edge"><title>Node13&#45;&gt;Node14</title>
<path fill="none" stroke="midnightblue" d="M1102.08,-122C1110.58,-122 1119.25,-122 1127.82,-122"/>
<polygon fill="midnightblue" stroke="midnightblue" points="1127.83,-125.5 1137.83,-122 1127.83,-118.5 1127.83,-125.5"/>
</g>
<!-- Node14&#45;&gt;Node7 -->
<g id="edge14" class="edge"><title>Node14&#45;&gt;Node7</title>
<path fill="none" stroke="midnightblue" d="M1302.07,-109.234C1315.62,-107.099 1329.57,-104.902 1342.78,-102.822"/>
<polygon fill="midnightblue" stroke="midnightblue" points="1343.39,-106.27 1352.72,-101.257 1342.3,-99.355 1343.39,-106.27"/>
</g>
<!-- Node16 -->
<g id="node16" class="node"><title>Node16</title>
<g id="a_node16"><a xlink:href="classqtreports_1_1detail_1_1_replacer.html#a2114b58c90fe02b17e7bf99e144013b6" target="_top" xlink:title="qtreports::detail::\lReplacer::replaceRowGroupIn\lCrosstab">
<polygon fill="none" stroke="black" points="1143,-41.5 1143,-82.5 1297,-82.5 1297,-41.5 1143,-41.5"/>
<text text-anchor="start" x="1151" y="-70.5" font-family="Helvetica,sans-Serif" font-size="10.00">qtreports::detail::</text>
<text text-anchor="start" x="1151" y="-59.5" font-family="Helvetica,sans-Serif" font-size="10.00">Replacer::replaceRowGroupIn</text>
<text text-anchor="middle" x="1220" y="-48.5" font-family="Helvetica,sans-Serif" font-size="10.00">Crosstab</text>
</a>
</g>
</g>
<!-- Node15&#45;&gt;Node16 -->
<g id="edge16" class="edge"><title>Node15&#45;&gt;Node16</title>
<path fill="none" stroke="midnightblue" d="M1092.56,-62C1105.65,-62 1119.36,-62 1132.74,-62"/>
<polygon fill="midnightblue" stroke="midnightblue" points="1132.88,-65.5001 1142.88,-62 1132.88,-58.5001 1132.88,-65.5001"/>
</g>
<!-- Node16&#45;&gt;Node7 -->
<g id="edge17" class="edge"><title>Node16&#45;&gt;Node7</title>
<path fill="none" stroke="midnightblue" d="M1297.11,-73.9861C1312.18,-76.3598 1327.92,-78.8384 1342.74,-81.1709"/>
<polygon fill="midnightblue" stroke="midnightblue" points="1342.4,-84.6609 1352.82,-82.7593 1343.49,-77.7462 1342.4,-84.6609"/>
</g>
<!-- Node17&#45;&gt;Node3 -->
<g id="edge20" class="edge"><title>Node17&#45;&gt;Node3</title>
<path fill="none" stroke="midnightblue" d="M502.08,-41.3547C517.166,-45.0507 532.781,-48.8763 547.497,-52.4818"/>
<polygon fill="midnightblue" stroke="midnightblue" points="546.979,-55.9583 557.525,-54.9385 548.645,-49.1593 546.979,-55.9583"/>
</g>
<!-- Node17&#45;&gt;Node7 -->
<g id="edge19" class="edge"><title>Node17&#45;&gt;Node7</title>
<path fill="none" stroke="midnightblue" d="M502.253,-18.3472C582.575,-16.0185 707.596,-13 816,-13 816,-13 816,-13 1018,-13 1144.5,-13 1180.56,3.45024 1302,-32 1330.95,-40.4513 1360.77,-57.4375 1381.97,-71.1858"/>
<polygon fill="midnightblue" stroke="midnightblue" points="1380.23,-74.2326 1390.5,-76.8454 1384.1,-68.3999 1380.23,-74.2326"/>
</g>
</g>
</svg>
