<?xml version="1.0" encoding="UTF-8" standalone="no"?>
<!DOCTYPE svg PUBLIC "-//W3C//DTD SVG 1.1//EN"
 "http://www.w3.org/Graphics/SVG/1.1/DTD/svg11.dtd">
<!-- Generated by graphviz version 2.38.0 (20140413.2041)
 -->
<!-- Title: qtreports::detail::Replacer::replaceCellsInCrosstab Pages: 1 -->
<svg width="744pt" height="159pt"
 viewBox="0.00 0.00 744.00 158.50" xmlns="http://www.w3.org/2000/svg" xmlns:xlink="http://www.w3.org/1999/xlink">
<g id="graph0" class="graph" transform="scale(1 1) rotate(0) translate(4 154.5)">
<title>qtreports::detail::Replacer::replaceCellsInCrosstab</title>
<!-- Node1 -->
<g id="node1" class="node"><title>Node1</title>
<polygon fill="#bfbfbf" stroke="black" points="0,-54.5 0,-84.5 172,-84.5 172,-54.5 0,-54.5"/>
<text text-anchor="start" x="8" y="-72.5" font-family="Helvetica,sans-Serif" font-size="10.00">qtreports::detail::</text>
<text text-anchor="middle" x="86" y="-61.5" font-family="Helvetica,sans-Serif" font-size="10.00">Replacer::replaceCellsInCrosstab</text>
</g>
<!-- Node2 -->
<g id="node2" class="node"><title>Node2</title>
<g id="a_node2"><a xlink:href="classqtreports_1_1detail_1_1_replacer.html#ae0f12ba0e77e9ef89b9479272e843fe6" target="_top" xlink:title="qtreports::detail::\lReplacer::replaceRowGroups\lInCrosstab">
<polygon fill="none" stroke="black" points="217.5,-109 217.5,-150 368.5,-150 368.5,-109 217.5,-109"/>
<text text-anchor="start" x="225.5" y="-138" font-family="Helvetica,sans-Serif" font-size="10.00">qtreports::detail::</text>
<text text-anchor="start" x="225.5" y="-127" font-family="Helvetica,sans-Serif" font-size="10.00">Replacer::replaceRowGroups</text>
<text text-anchor="middle" x="293" y="-116" font-family="Helvetica,sans-Serif" font-size="10.00">InCrosstab</text>
</a>
</g>
</g>
<!-- Node1&#45;&gt;Node2 -->
<g id="edge1" class="edge"><title>Node1&#45;&gt;Node2</title>
<path fill="none" stroke="midnightblue" d="M138.466,-84.5631C160.768,-91.0905 187.397,-98.8846 212.168,-106.134"/>
<polygon fill="midnightblue" stroke="midnightblue" points="211.339,-109.539 221.919,-108.989 213.305,-102.82 211.339,-109.539"/>
</g>
<!-- Node5 -->
<g id="node5" class="node"><title>Node5</title>
<g id="a_node5"><a xlink:href="classqtreports_1_1detail_1_1_replacer.html#aa9fa83cf51d75301b62e11a0a93e2dcc" target="_top" xlink:title="qtreports::detail::\lReplacer::replaceColumnGroups\lInCrosstab">
<polygon fill="none" stroke="black" points="208,-49 208,-90 378,-90 378,-49 208,-49"/>
<text text-anchor="start" x="216" y="-78" font-family="Helvetica,sans-Serif" font-size="10.00">qtreports::detail::</text>
<text text-anchor="start" x="216" y="-67" font-family="Helvetica,sans-Serif" font-size="10.00">Replacer::replaceColumnGroups</text>
<text text-anchor="middle" x="293" y="-56" font-family="Helvetica,sans-Serif" font-size="10.00">InCrosstab</text>
</a>
</g>
</g>
<!-- Node1&#45;&gt;Node5 -->
<g id="edge4" class="edge"><title>Node1&#45;&gt;Node5</title>
<path fill="none" stroke="midnightblue" d="M172.158,-69.5C180.526,-69.5 189.053,-69.5 197.507,-69.5"/>
<polygon fill="midnightblue" stroke="midnightblue" points="197.767,-73.0001 207.767,-69.5 197.767,-66.0001 197.767,-73.0001"/>
</g>
<!-- Node7 -->
<g id="node7" class="node"><title>Node7</title>
<g id="a_node7"><a xlink:href="classqtreports_1_1detail_1_1_replacer.html#a9ad7270fd6bdb9a2ba85bdc9652968c8" target="_top" xlink:title="qtreports::detail::\lReplacer::replaceCellInCrosstab">
<polygon fill="none" stroke="black" points="414,-0.5 414,-30.5 581,-30.5 581,-0.5 414,-0.5"/>
<text text-anchor="start" x="422" y="-18.5" font-family="Helvetica,sans-Serif" font-size="10.00">qtreports::detail::</text>
<text text-anchor="middle" x="497.5" y="-7.5" font-family="Helvetica,sans-Serif" font-size="10.00">Replacer::replaceCellInCrosstab</text>
</a>
</g>
</g>
<!-- Node1&#45;&gt;Node7 -->
<g id="edge7" class="edge"><title>Node1&#45;&gt;Node7</title>
<path fill="none" stroke="midnightblue" d="M139.927,-54.4279C160.959,-48.9521 185.469,-43.2057 208,-39.5 273.03,-28.8041 347.134,-22.7687 403.954,-19.4256"/>
<polygon fill="midnightblue" stroke="midnightblue" points="404.212,-22.9167 413.996,-18.8521 403.813,-15.9281 404.212,-22.9167"/>
</g>
<!-- Node3 -->
<g id="node3" class="node"><title>Node3</title>
<g id="a_node3"><a xlink:href="classqtreports_1_1detail_1_1_replacer.html#a2114b58c90fe02b17e7bf99e144013b6" target="_top" xlink:title="qtreports::detail::\lReplacer::replaceRowGroupIn\lCrosstab">
<polygon fill="none" stroke="black" points="420.5,-109 420.5,-150 574.5,-150 574.5,-109 420.5,-109"/>
<text text-anchor="start" x="428.5" y="-138" font-family="Helvetica,sans-Serif" font-size="10.00">qtreports::detail::</text>
<text text-anchor="start" x="428.5" y="-127" font-family="Helvetica,sans-Serif" font-size="10.00">Replacer::replaceRowGroupIn</text>
<text text-anchor="middle" x="497.5" y="-116" font-family="Helvetica,sans-Serif" font-size="10.00">Crosstab</text>
</a>
</g>
</g>
<!-- Node2&#45;&gt;Node3 -->
<g id="edge2" class="edge"><title>Node2&#45;&gt;Node3</title>
<path fill="none" stroke="midnightblue" d="M368.541,-129.5C382.153,-129.5 396.458,-129.5 410.374,-129.5"/>
<polygon fill="midnightblue" stroke="midnightblue" points="410.422,-133 420.422,-129.5 410.422,-126 410.422,-133"/>
</g>
<!-- Node4 -->
<g id="node4" class="node"><title>Node4</title>
<g id="a_node4"><a xlink:href="classqtreports_1_1detail_1_1_replacer.html#a4642b07160798f2ee4de276e1d0c1ecd" target="_top" xlink:title="Возвращает текст с подставленными значениями полей из источника данных. ">
<polygon fill="none" stroke="black" points="617,-54.5 617,-84.5 736,-84.5 736,-54.5 617,-54.5"/>
<text text-anchor="start" x="625" y="-72.5" font-family="Helvetica,sans-Serif" font-size="10.00">qtreports::detail::</text>
<text text-anchor="middle" x="676.5" y="-61.5" font-family="Helvetica,sans-Serif" font-size="10.00">Replacer::replaceField</text>
</a>
</g>
</g>
<!-- Node3&#45;&gt;Node4 -->
<g id="edge3" class="edge"><title>Node3&#45;&gt;Node4</title>
<path fill="none" stroke="midnightblue" d="M559.413,-108.851C579.602,-102.008 601.919,-94.4426 621.547,-87.789"/>
<polygon fill="midnightblue" stroke="midnightblue" points="622.895,-91.0279 631.242,-84.5027 620.648,-84.3984 622.895,-91.0279"/>
</g>
<!-- Node6 -->
<g id="node6" class="node"><title>Node6</title>
<g id="a_node6"><a xlink:href="classqtreports_1_1detail_1_1_replacer.html#a781b476a4e964da9e5afe4f642b2f275" target="_top" xlink:title="qtreports::detail::\lReplacer::replaceColumnGroup\lInCrosstab">
<polygon fill="none" stroke="black" points="415.5,-49 415.5,-90 579.5,-90 579.5,-49 415.5,-49"/>
<text text-anchor="start" x="423.5" y="-78" font-family="Helvetica,sans-Serif" font-size="10.00">qtreports::detail::</text>
<text text-anchor="start" x="423.5" y="-67" font-family="Helvetica,sans-Serif" font-size="10.00">Replacer::replaceColumnGroup</text>
<text text-anchor="middle" x="497.5" y="-56" font-family="Helvetica,sans-Serif" font-size="10.00">InCrosstab</text>
</a>
</g>
</g>
<!-- Node5&#45;&gt;Node6 -->
<g id="edge5" class="edge"><title>Node5&#45;&gt;Node6</title>
<path fill="none" stroke="midnightblue" d="M378.119,-69.5C387.041,-69.5 396.145,-69.5 405.144,-69.5"/>
<polygon fill="midnightblue" stroke="midnightblue" points="405.244,-73.0001 415.244,-69.5 405.244,-66.0001 405.244,-73.0001"/>
</g>
<!-- Node6&#45;&gt;Node4 -->
<g id="edge6" class="edge"><title>Node6&#45;&gt;Node4</title>
<path fill="none" stroke="midnightblue" d="M579.747,-69.5C588.762,-69.5 597.877,-69.5 606.715,-69.5"/>
<polygon fill="midnightblue" stroke="midnightblue" points="606.942,-73.0001 616.942,-69.5 606.942,-66.0001 606.942,-73.0001"/>
</g>
<!-- Node7&#45;&gt;Node4 -->
<g id="edge8" class="edge"><title>Node7&#45;&gt;Node4</title>
<path fill="none" stroke="midnightblue" d="M550.929,-30.5443C560.926,-33.4717 571.296,-36.5485 581,-39.5 593.345,-43.2545 606.563,-47.3825 619.084,-51.3433"/>
<polygon fill="midnightblue" stroke="midnightblue" points="618.356,-54.7843 628.946,-54.4736 620.474,-48.1123 618.356,-54.7843"/>
</g>
</g>
</svg>
