<?xml version="1.0" encoding="UTF-8" standalone="no"?>
<!DOCTYPE svg PUBLIC "-//W3C//DTD SVG 1.1//EN"
 "http://www.w3.org/Graphics/SVG/1.1/DTD/svg11.dtd">
<!-- Generated by graphviz version 2.38.0 (20140413.2041)
 -->
<!-- Title: qtreports::detail::Box Pages: 1 -->
<svg width="218pt" height="431pt"
 viewBox="0.00 0.00 218.00 431.00" xmlns="http://www.w3.org/2000/svg" xmlns:xlink="http://www.w3.org/1999/xlink">
<g id="graph0" class="graph" transform="scale(1 1) rotate(0) translate(4 427)">
<title>qtreports::detail::Box</title>
<!-- Node1 -->
<g id="node1" class="node"><title>Node1</title>
<polygon fill="#bfbfbf" stroke="black" points="0,-0.5 0,-112.5 117,-112.5 117,-0.5 0,-0.5"/>
<text text-anchor="middle" x="58.5" y="-100.5" font-family="Helvetica,sans-Serif" font-size="10.00">qtreports::detail::Box</text>
<polyline fill="none" stroke="black" points="0,-93.5 117,-93.5 "/>
<text text-anchor="middle" x="58.5" y="-81.5" font-family="Helvetica,sans-Serif" font-size="10.00"> </text>
<polyline fill="none" stroke="black" points="0,-74.5 117,-74.5 "/>
<text text-anchor="start" x="8" y="-62.5" font-family="Helvetica,sans-Serif" font-size="10.00">+ Box()</text>
<text text-anchor="start" x="8" y="-51.5" font-family="Helvetica,sans-Serif" font-size="10.00">+ ~Box()</text>
<text text-anchor="start" x="8" y="-40.5" font-family="Helvetica,sans-Serif" font-size="10.00">+ setBorder()</text>
<text text-anchor="start" x="8" y="-29.5" font-family="Helvetica,sans-Serif" font-size="10.00">+ setBorderColor()</text>
<text text-anchor="start" x="8" y="-18.5" font-family="Helvetica,sans-Serif" font-size="10.00">+ getBorder()</text>
<text text-anchor="start" x="8" y="-7.5" font-family="Helvetica,sans-Serif" font-size="10.00">+ getBorderColor()</text>
</g>
<!-- Node2 -->
<g id="node2" class="node"><title>Node2</title>
<g id="a_node2"><a xlink:href="classqtreports_1_1detail_1_1_object.html" target="_top" xlink:title="Базовый класс для любого тэга ">
<polygon fill="none" stroke="black" points="111,-150.5 111,-295.5 210,-295.5 210,-150.5 111,-150.5"/>
<text text-anchor="start" x="119" y="-283.5" font-family="Helvetica,sans-Serif" font-size="10.00">qtreports::detail::</text>
<text text-anchor="middle" x="160.5" y="-272.5" font-family="Helvetica,sans-Serif" font-size="10.00">Object</text>
<polyline fill="none" stroke="black" points="111,-265.5 210,-265.5 "/>
<text text-anchor="middle" x="160.5" y="-253.5" font-family="Helvetica,sans-Serif" font-size="10.00"> </text>
<polyline fill="none" stroke="black" points="111,-246.5 210,-246.5 "/>
<text text-anchor="start" x="119" y="-234.5" font-family="Helvetica,sans-Serif" font-size="10.00">+ Object()</text>
<text text-anchor="start" x="119" y="-223.5" font-family="Helvetica,sans-Serif" font-size="10.00">+ Object()</text>
<text text-anchor="start" x="119" y="-212.5" font-family="Helvetica,sans-Serif" font-size="10.00">+ ~Object()</text>
<text text-anchor="start" x="119" y="-201.5" font-family="Helvetica,sans-Serif" font-size="10.00">+ setName()</text>
<text text-anchor="start" x="119" y="-190.5" font-family="Helvetica,sans-Serif" font-size="10.00">+ getName()</text>
<text text-anchor="start" x="119" y="-179.5" font-family="Helvetica,sans-Serif" font-size="10.00">+ setTagName()</text>
<text text-anchor="start" x="119" y="-168.5" font-family="Helvetica,sans-Serif" font-size="10.00">+ getTagName()</text>
<text text-anchor="start" x="119" y="-157.5" font-family="Helvetica,sans-Serif" font-size="10.00">+ getLastError()</text>
</a>
</g>
</g>
<!-- Node2&#45;&gt;Node1 -->
<g id="edge1" class="edge"><title>Node2&#45;&gt;Node1</title>
<path fill="none" stroke="midnightblue" d="M110.707,-141.697C104.601,-131.85 98.4723,-121.965 92.6706,-112.609"/>
<polygon fill="none" stroke="midnightblue" points="107.814,-143.672 116.058,-150.326 113.763,-139.983 107.814,-143.672"/>
</g>
<!-- Node3 -->
<g id="node3" class="node"><title>Node3</title>
<polygon fill="none" stroke="#bfbfbf" points="34,-365.5 34,-422.5 87,-422.5 87,-365.5 34,-365.5"/>
<text text-anchor="middle" x="60.5" y="-410.5" font-family="Helvetica,sans-Serif" font-size="10.00">QString</text>
<polyline fill="none" stroke="#bfbfbf" points="34,-403.5 87,-403.5 "/>
<text text-anchor="middle" x="60.5" y="-391.5" font-family="Helvetica,sans-Serif" font-size="10.00"> </text>
<polyline fill="none" stroke="#bfbfbf" points="34,-384.5 87,-384.5 "/>
<text text-anchor="middle" x="60.5" y="-372.5" font-family="Helvetica,sans-Serif" font-size="10.00"> </text>
</g>
<!-- Node3&#45;&gt;Node1 -->
<g id="edge3" class="edge"><title>Node3&#45;&gt;Node1</title>
<path fill="none" stroke="#404040" d="M47.9488,-365.23C40.0505,-346.186 30.6015,-320.101 26.5,-296 15.6136,-232.031 15.744,-213.991 26.5,-150 27.8976,-141.685 29.9555,-133.119 32.3653,-124.711"/>
<polygon fill="none" stroke="#404040" points="32.4479,-124.442 30.3878,-117.531 35.9744,-112.971 38.0345,-119.882 32.4479,-124.442"/>
<text text-anchor="middle" x="64.5" y="-226" font-family="Helvetica,sans-Serif" font-size="10.00"> &#45;m_border</text>
<text text-anchor="middle" x="64.5" y="-215" font-family="Helvetica,sans-Serif" font-size="10.00">&#45;m_borderColor</text>
</g>
<!-- Node3&#45;&gt;Node2 -->
<g id="edge2" class="edge"><title>Node3&#45;&gt;Node2</title>
<path fill="none" stroke="#404040" d="M76.7893,-365.471C86.4442,-349.154 99.2382,-327.532 111.911,-306.115"/>
<polygon fill="none" stroke="#404040" points="111.998,-305.969 111.611,-298.768 118.109,-295.642 118.496,-302.842 111.998,-305.969"/>
<text text-anchor="middle" x="140.5" y="-339" font-family="Helvetica,sans-Serif" font-size="10.00"> #m_tagName</text>
<text text-anchor="middle" x="140.5" y="-328" font-family="Helvetica,sans-Serif" font-size="10.00">#m_name</text>
<text text-anchor="middle" x="140.5" y="-317" font-family="Helvetica,sans-Serif" font-size="10.00">#m_lastError</text>
</g>
</g>
</svg>
