<?xml version="1.0" encoding="UTF-8" standalone="no"?>
<!DOCTYPE svg PUBLIC "-//W3C//DTD SVG 1.1//EN"
 "http://www.w3.org/Graphics/SVG/1.1/DTD/svg11.dtd">
<!-- Generated by graphviz version 2.38.0 (20140413.2041)
 -->
<!-- Title: qtreports::detail::Band Pages: 1 -->
<!--zoomable 1063 -->
<svg id="main" version="1.1" xmlns="http://www.w3.org/2000/svg" xmlns:xlink="http://www.w3.org/1999/xlink" xml:space="preserve" onload="init(evt)">
<style type="text/css"><![CDATA[
.edge:hover path { stroke: red; }
.edge:hover polygon { stroke: red; fill: red; }
]]></style>
<script type="text/javascript"><![CDATA[
var edges = document.getElementsByTagName('g');
if (edges && edges.length) {
  for (var i=0;i<edges.length;i++) {
    if (edges[i].id.substr(0,4)=='edge') {
      edges[i].setAttribute('class','edge');
    }
  }
}
]]></script>
        <defs>
                <circle id="rim" cx="0" cy="0" r="7"/>
                <circle id="rim2" cx="0" cy="0" r="3.5"/>
                <g id="zoomPlus">
                        <use xlink:href="#rim" fill="#404040">
                                <set attributeName="fill" to="#808080" begin="zoomplus.mouseover" end="zoomplus.mouseout"/>
                        </use>
                        <path d="M-4,0h8M0,-4v8" fill="none" stroke="white" stroke-width="1.5" pointer-events="none"/>
                </g>
                <g id="zoomMin">
                        <use xlink:href="#rim" fill="#404040">
                                <set attributeName="fill" to="#808080" begin="zoomminus.mouseover" end="zoomminus.mouseout"/>
                        </use>
                        <path d="M-4,0h8" fill="none" stroke="white" stroke-width="1.5" pointer-events="none"/>
                </g>
                <g id="dirArrow">
                        <path fill="none" stroke="white" stroke-width="1.5" d="M0,-3.0v7 M-2.5,-0.5L0,-3.0L2.5,-0.5"/>
                </g>
               <g id="resetDef">
                       <use xlink:href="#rim2" fill="#404040">
                               <set attributeName="fill" to="#808080" begin="reset.mouseover" end="reset.mouseout"/>
                       </use>
               </g>
        </defs>

<script type="text/javascript">
var viewWidth = 1408;
var viewHeight = 1063;
var sectionId = 'dynsection-1';
</script>
<script xlink:href="svgpan.js"/>
<svg id="graph" class="graph">
<g id="viewport">
<title>qtreports::detail::Band</title>
<!-- Node1 -->
<g id="node1" class="node"><title>Node1</title>
<polygon fill="#bfbfbf" stroke="black" points="686.768,-0.5 686.768,-387.5 814.768,-387.5 814.768,-0.5 686.768,-0.5"/>
<text text-anchor="middle" x="750.768" y="-375.5" font-family="Helvetica,sans-Serif" font-size="10.00">qtreports::detail::Band</text>
<polyline fill="none" stroke="black" points="686.768,-368.5 814.768,-368.5 "/>
<text text-anchor="middle" x="750.768" y="-356.5" font-family="Helvetica,sans-Serif" font-size="10.00"> </text>
<polyline fill="none" stroke="black" points="686.768,-349.5 814.768,-349.5 "/>
<text text-anchor="start" x="694.768" y="-337.5" font-family="Helvetica,sans-Serif" font-size="10.00">+ Band()</text>
<text text-anchor="start" x="694.768" y="-326.5" font-family="Helvetica,sans-Serif" font-size="10.00">+ ~Band()</text>
<text text-anchor="start" x="694.768" y="-315.5" font-family="Helvetica,sans-Serif" font-size="10.00">+ addCrosstab()</text>
<text text-anchor="start" x="694.768" y="-304.5" font-family="Helvetica,sans-Serif" font-size="10.00">+ getCrosstabs()</text>
<text text-anchor="start" x="694.768" y="-293.5" font-family="Helvetica,sans-Serif" font-size="10.00">+ getCrosstab()</text>
<text text-anchor="start" x="694.768" y="-282.5" font-family="Helvetica,sans-Serif" font-size="10.00">+ addStaticText()</text>
<text text-anchor="start" x="694.768" y="-271.5" font-family="Helvetica,sans-Serif" font-size="10.00">+ getStaticTexts()</text>
<text text-anchor="start" x="694.768" y="-260.5" font-family="Helvetica,sans-Serif" font-size="10.00">+ getStaticText()</text>
<text text-anchor="start" x="694.768" y="-249.5" font-family="Helvetica,sans-Serif" font-size="10.00">+ getStaticTextsSize()</text>
<text text-anchor="start" x="694.768" y="-238.5" font-family="Helvetica,sans-Serif" font-size="10.00">+ addTextField()</text>
<text text-anchor="start" x="694.768" y="-227.5" font-family="Helvetica,sans-Serif" font-size="10.00">+ getTextFields()</text>
<text text-anchor="start" x="694.768" y="-216.5" font-family="Helvetica,sans-Serif" font-size="10.00">+ getTextField()</text>
<text text-anchor="start" x="694.768" y="-205.5" font-family="Helvetica,sans-Serif" font-size="10.00">+ getTextFieldsSize()</text>
<text text-anchor="start" x="694.768" y="-194.5" font-family="Helvetica,sans-Serif" font-size="10.00">+ getTextWidgetsSize()</text>
<text text-anchor="start" x="694.768" y="-183.5" font-family="Helvetica,sans-Serif" font-size="10.00">+ getTextWidgets()</text>
<text text-anchor="start" x="694.768" y="-172.5" font-family="Helvetica,sans-Serif" font-size="10.00">+ addLine()</text>
<text text-anchor="start" x="694.768" y="-161.5" font-family="Helvetica,sans-Serif" font-size="10.00">+ getLine()</text>
<text text-anchor="start" x="694.768" y="-150.5" font-family="Helvetica,sans-Serif" font-size="10.00">+ getLinesSize()</text>
<text text-anchor="start" x="694.768" y="-139.5" font-family="Helvetica,sans-Serif" font-size="10.00">+ getLines()</text>
<text text-anchor="start" x="694.768" y="-128.5" font-family="Helvetica,sans-Serif" font-size="10.00">+ addRect()</text>
<text text-anchor="start" x="694.768" y="-117.5" font-family="Helvetica,sans-Serif" font-size="10.00">+ getRect()</text>
<text text-anchor="start" x="694.768" y="-106.5" font-family="Helvetica,sans-Serif" font-size="10.00">+ getRectsSize()</text>
<text text-anchor="start" x="694.768" y="-95.5" font-family="Helvetica,sans-Serif" font-size="10.00">+ getRects()</text>
<text text-anchor="start" x="694.768" y="-84.5" font-family="Helvetica,sans-Serif" font-size="10.00">+ addEllipse()</text>
<text text-anchor="start" x="694.768" y="-73.5" font-family="Helvetica,sans-Serif" font-size="10.00">+ getEllipse()</text>
<text text-anchor="start" x="694.768" y="-62.5" font-family="Helvetica,sans-Serif" font-size="10.00">+ getEllipsesSize()</text>
<text text-anchor="start" x="694.768" y="-51.5" font-family="Helvetica,sans-Serif" font-size="10.00">+ getEllipses()</text>
<text text-anchor="start" x="694.768" y="-40.5" font-family="Helvetica,sans-Serif" font-size="10.00">+ addImage()</text>
<text text-anchor="start" x="694.768" y="-29.5" font-family="Helvetica,sans-Serif" font-size="10.00">+ getImage()</text>
<text text-anchor="start" x="694.768" y="-18.5" font-family="Helvetica,sans-Serif" font-size="10.00">+ getImagesSize()</text>
<text text-anchor="start" x="694.768" y="-7.5" font-family="Helvetica,sans-Serif" font-size="10.00">+ getImages()</text>
</g>
<!-- Node2 -->
<g id="node2" class="node"><title>Node2</title>
<g id="a_node2"><a xlink:href="classqtreports_1_1detail_1_1_widget.html" target="_top" xlink:title="Базовый класс для тэгов, которые подлежат отображению ">
<polygon fill="none" stroke="black" points="146.768,-435.5 146.768,-734.5 246.768,-734.5 246.768,-435.5 146.768,-435.5"/>
<text text-anchor="start" x="154.768" y="-722.5" font-family="Helvetica,sans-Serif" font-size="10.00">qtreports::detail::</text>
<text text-anchor="middle" x="196.768" y="-711.5" font-family="Helvetica,sans-Serif" font-size="10.00">Widget</text>
<polyline fill="none" stroke="black" points="146.768,-704.5 246.768,-704.5 "/>
<text text-anchor="middle" x="196.768" y="-692.5" font-family="Helvetica,sans-Serif" font-size="10.00"> </text>
<polyline fill="none" stroke="black" points="146.768,-685.5 246.768,-685.5 "/>
<text text-anchor="start" x="154.768" y="-673.5" font-family="Helvetica,sans-Serif" font-size="10.00">+ Widget()</text>
<text text-anchor="start" x="154.768" y="-662.5" font-family="Helvetica,sans-Serif" font-size="10.00">+ ~Widget()</text>
<text text-anchor="start" x="154.768" y="-651.5" font-family="Helvetica,sans-Serif" font-size="10.00">+ setPosition()</text>
<text text-anchor="start" x="154.768" y="-640.5" font-family="Helvetica,sans-Serif" font-size="10.00">+ setX()</text>
<text text-anchor="start" x="154.768" y="-629.5" font-family="Helvetica,sans-Serif" font-size="10.00">+ setY()</text>
<text text-anchor="start" x="154.768" y="-618.5" font-family="Helvetica,sans-Serif" font-size="10.00">+ setSize()</text>
<text text-anchor="start" x="154.768" y="-607.5" font-family="Helvetica,sans-Serif" font-size="10.00">+ setWidth()</text>
<text text-anchor="start" x="154.768" y="-596.5" font-family="Helvetica,sans-Serif" font-size="10.00">+ setHeight()</text>
<text text-anchor="start" x="154.768" y="-585.5" font-family="Helvetica,sans-Serif" font-size="10.00">+ setRect()</text>
<text text-anchor="start" x="154.768" y="-574.5" font-family="Helvetica,sans-Serif" font-size="10.00">+ setStyle()</text>
<text text-anchor="start" x="154.768" y="-563.5" font-family="Helvetica,sans-Serif" font-size="10.00">+ setAlignment()</text>
<text text-anchor="start" x="154.768" y="-552.5" font-family="Helvetica,sans-Serif" font-size="10.00">+ getAlignment()</text>
<text text-anchor="start" x="154.768" y="-541.5" font-family="Helvetica,sans-Serif" font-size="10.00">+ getPos()</text>
<text text-anchor="start" x="154.768" y="-530.5" font-family="Helvetica,sans-Serif" font-size="10.00">+ getX()</text>
<text text-anchor="start" x="154.768" y="-519.5" font-family="Helvetica,sans-Serif" font-size="10.00">+ getY()</text>
<text text-anchor="start" x="154.768" y="-508.5" font-family="Helvetica,sans-Serif" font-size="10.00">+ getSize()</text>
<text text-anchor="start" x="154.768" y="-497.5" font-family="Helvetica,sans-Serif" font-size="10.00">+ getWidth()</text>
<text text-anchor="start" x="154.768" y="-486.5" font-family="Helvetica,sans-Serif" font-size="10.00">+ getHeight()</text>
<text text-anchor="start" x="154.768" y="-475.5" font-family="Helvetica,sans-Serif" font-size="10.00">+ getRect()</text>
<text text-anchor="start" x="154.768" y="-464.5" font-family="Helvetica,sans-Serif" font-size="10.00">+ getStyle()</text>
<text text-anchor="start" x="154.768" y="-453.5" font-family="Helvetica,sans-Serif" font-size="10.00">+ isBold()</text>
<text text-anchor="start" x="154.768" y="-442.5" font-family="Helvetica,sans-Serif" font-size="10.00">+ setBold()</text>
</a>
</g>
</g>
<!-- Node2&#45;&gt;Node1 -->
<g id="edge1" class="edge"><title>Node2&#45;&gt;Node1</title>
<path fill="none" stroke="midnightblue" d="M253.455,-437.558C254.217,-436.694 254.987,-435.841 255.768,-435 376.457,-304.978 582.611,-237.286 686.665,-209.926"/>
<polygon fill="none" stroke="midnightblue" points="250.489,-435.656 246.864,-445.612 255.906,-440.089 250.489,-435.656"/>
</g>
<!-- Node3 -->
<g id="node3" class="node"><title>Node3</title>
<g id="a_node3"><a xlink:href="classqtreports_1_1detail_1_1_object.html" target="_top" xlink:title="Базовый класс для любого тэга ">
<polygon fill="none" stroke="black" points="71.2682,-782.5 71.2682,-927.5 170.268,-927.5 170.268,-782.5 71.2682,-782.5"/>
<text text-anchor="start" x="79.2682" y="-915.5" font-family="Helvetica,sans-Serif" font-size="10.00">qtreports::detail::</text>
<text text-anchor="middle" x="120.768" y="-904.5" font-family="Helvetica,sans-Serif" font-size="10.00">Object</text>
<polyline fill="none" stroke="black" points="71.2682,-897.5 170.268,-897.5 "/>
<text text-anchor="middle" x="120.768" y="-885.5" font-family="Helvetica,sans-Serif" font-size="10.00"> </text>
<polyline fill="none" stroke="black" points="71.2682,-878.5 170.268,-878.5 "/>
<text text-anchor="start" x="79.2682" y="-866.5" font-family="Helvetica,sans-Serif" font-size="10.00">+ Object()</text>
<text text-anchor="start" x="79.2682" y="-855.5" font-family="Helvetica,sans-Serif" font-size="10.00">+ Object()</text>
<text text-anchor="start" x="79.2682" y="-844.5" font-family="Helvetica,sans-Serif" font-size="10.00">+ ~Object()</text>
<text text-anchor="start" x="79.2682" y="-833.5" font-family="Helvetica,sans-Serif" font-size="10.00">+ setName()</text>
<text text-anchor="start" x="79.2682" y="-822.5" font-family="Helvetica,sans-Serif" font-size="10.00">+ getName()</text>
<text text-anchor="start" x="79.2682" y="-811.5" font-family="Helvetica,sans-Serif" font-size="10.00">+ setTagName()</text>
<text text-anchor="start" x="79.2682" y="-800.5" font-family="Helvetica,sans-Serif" font-size="10.00">+ getTagName()</text>
<text text-anchor="start" x="79.2682" y="-789.5" font-family="Helvetica,sans-Serif" font-size="10.00">+ getLastError()</text>
</a>
</g>
</g>
<!-- Node3&#45;&gt;Node2 -->
<g id="edge2" class="edge"><title>Node3&#45;&gt;Node2</title>
<path fill="none" stroke="midnightblue" d="M143.955,-772.235C147.37,-760.195 150.973,-747.487 154.629,-734.598"/>
<polygon fill="none" stroke="midnightblue" points="140.496,-771.605 141.135,-782.181 147.23,-773.515 140.496,-771.605"/>
</g>
<!-- Node4 -->
<g id="node4" class="node"><title>Node4</title>
<polygon fill="none" stroke="#bfbfbf" points="14.2682,-997.5 14.2682,-1054.5 67.2682,-1054.5 67.2682,-997.5 14.2682,-997.5"/>
<text text-anchor="middle" x="40.7682" y="-1042.5" font-family="Helvetica,sans-Serif" font-size="10.00">QString</text>
<polyline fill="none" stroke="#bfbfbf" points="14.2682,-1035.5 67.2682,-1035.5 "/>
<text text-anchor="middle" x="40.7682" y="-1023.5" font-family="Helvetica,sans-Serif" font-size="10.00"> </text>
<polyline fill="none" stroke="#bfbfbf" points="14.2682,-1016.5 67.2682,-1016.5 "/>
<text text-anchor="middle" x="40.7682" y="-1004.5" font-family="Helvetica,sans-Serif" font-size="10.00"> </text>
</g>
<!-- Node4&#45;&gt;Node2 -->
<g id="edge4" class="edge"><title>Node4&#45;&gt;Node2</title>
<path fill="none" stroke="#404040" d="M29.2523,-997.277C11.8013,-950.953 -16.3817,-855.641 12.7682,-782 37.7341,-718.929 93.6568,-664.3 137.34,-628.855"/>
<polygon fill="none" stroke="#404040" points="137.355,-628.843 139.556,-621.976 146.741,-621.367 144.54,-628.234 137.355,-628.843"/>
<text text-anchor="middle" x="37.2682" y="-852.5" font-family="Helvetica,sans-Serif" font-size="10.00"> #m_style</text>
</g>
<!-- Node4&#45;&gt;Node3 -->
<g id="edge3" class="edge"><title>Node4&#45;&gt;Node3</title>
<path fill="none" stroke="#404040" d="M53.7997,-997.471C61.4534,-981.303 71.5729,-959.925 81.6207,-938.699"/>
<polygon fill="none" stroke="#404040" points="81.7207,-938.488 80.6725,-931.353 86.8551,-927.642 87.9033,-934.776 81.7207,-938.488"/>
<text text-anchor="middle" x="112.768" y="-971" font-family="Helvetica,sans-Serif" font-size="10.00"> #m_tagName</text>
<text text-anchor="middle" x="112.768" y="-960" font-family="Helvetica,sans-Serif" font-size="10.00">#m_name</text>
<text text-anchor="middle" x="112.768" y="-949" font-family="Helvetica,sans-Serif" font-size="10.00">#m_lastError</text>
</g>
<!-- Node5 -->
<g id="node5" class="node"><title>Node5</title>
<polygon fill="none" stroke="#bfbfbf" points="188.268,-826.5 188.268,-883.5 225.268,-883.5 225.268,-826.5 188.268,-826.5"/>
<text text-anchor="middle" x="206.768" y="-871.5" font-family="Helvetica,sans-Serif" font-size="10.00">bool</text>
<polyline fill="none" stroke="#bfbfbf" points="188.268,-864.5 225.268,-864.5 "/>
<text text-anchor="middle" x="206.768" y="-852.5" font-family="Helvetica,sans-Serif" font-size="10.00"> </text>
<polyline fill="none" stroke="#bfbfbf" points="188.268,-845.5 225.268,-845.5 "/>
<text text-anchor="middle" x="206.768" y="-833.5" font-family="Helvetica,sans-Serif" font-size="10.00"> </text>
</g>
<!-- Node5&#45;&gt;Node2 -->
<g id="edge5" class="edge"><title>Node5&#45;&gt;Node2</title>
<path fill="none" stroke="#404040" d="M203.339,-826.478C201.289,-808.687 198.875,-785.013 197.768,-764 197.469,-758.32 197.208,-752.536 196.98,-746.693"/>
<polygon fill="none" stroke="#404040" points="196.978,-746.624 192.771,-740.767 196.56,-734.631 200.766,-740.488 196.978,-746.624"/>
<text text-anchor="middle" x="225.268" y="-756" font-family="Helvetica,sans-Serif" font-size="10.00"> #m_isBold</text>
</g>
<!-- Node6 -->
<g id="node6" class="node"><title>Node6</title>
<polygon fill="none" stroke="#bfbfbf" points="252.768,-826.5 252.768,-883.5 296.768,-883.5 296.768,-826.5 252.768,-826.5"/>
<text text-anchor="middle" x="274.768" y="-871.5" font-family="Helvetica,sans-Serif" font-size="10.00">QRect</text>
<polyline fill="none" stroke="#bfbfbf" points="252.768,-864.5 296.768,-864.5 "/>
<text text-anchor="middle" x="274.768" y="-852.5" font-family="Helvetica,sans-Serif" font-size="10.00"> </text>
<polyline fill="none" stroke="#bfbfbf" points="252.768,-845.5 296.768,-845.5 "/>
<text text-anchor="middle" x="274.768" y="-833.5" font-family="Helvetica,sans-Serif" font-size="10.00"> </text>
</g>
<!-- Node6&#45;&gt;Node2 -->
<g id="edge6" class="edge"><title>Node6&#45;&gt;Node2</title>
<path fill="none" stroke="#404040" d="M269.595,-826.367C265.569,-805.955 259.541,-777.567 252.768,-753 251.95,-750.034 251.11,-747.042 250.251,-744.033"/>
<polygon fill="none" stroke="#404040" points="250.204,-743.869 244.685,-739.227 246.848,-732.348 252.366,-736.99 250.204,-743.869"/>
<text text-anchor="middle" x="278.768" y="-756" font-family="Helvetica,sans-Serif" font-size="10.00"> #m_rect</text>
</g>
<!-- Node7 -->
<g id="node7" class="node"><title>Node7</title>
<polygon fill="none" stroke="#bfbfbf" points="315.268,-826.5 315.268,-883.5 380.268,-883.5 380.268,-826.5 315.268,-826.5"/>
<text text-anchor="middle" x="347.768" y="-871.5" font-family="Helvetica,sans-Serif" font-size="10.00">Alignment</text>
<polyline fill="none" stroke="#bfbfbf" points="315.268,-864.5 380.268,-864.5 "/>
<text text-anchor="middle" x="347.768" y="-852.5" font-family="Helvetica,sans-Serif" font-size="10.00"> </text>
<polyline fill="none" stroke="#bfbfbf" points="315.268,-845.5 380.268,-845.5 "/>
<text text-anchor="middle" x="347.768" y="-833.5" font-family="Helvetica,sans-Serif" font-size="10.00"> </text>
</g>
<!-- Node7&#45;&gt;Node2 -->
<g id="edge7" class="edge"><title>Node7&#45;&gt;Node2</title>
<path fill="none" stroke="#404040" d="M342.737,-826.497C337.268,-803.946 326.393,-772.648 305.768,-753 288.667,-736.709 272.73,-751.436 255.768,-735 255.575,-734.812 255.382,-734.624 255.189,-734.435"/>
<polygon fill="none" stroke="#404040" points="255.074,-734.31 248.067,-732.605 246.946,-725.482 253.952,-727.186 255.074,-734.31"/>
<text text-anchor="middle" x="353.268" y="-756" font-family="Helvetica,sans-Serif" font-size="10.00"> #m_alignment</text>
</g>
<!-- Node8 -->
<g id="node8" class="node"><title>Node8</title>
<polygon fill="none" stroke="#bfbfbf" points="265.268,-556.5 265.268,-613.5 386.268,-613.5 386.268,-556.5 265.268,-556.5"/>
<text text-anchor="middle" x="325.768" y="-601.5" font-family="Helvetica,sans-Serif" font-size="10.00">QVector&lt; EllipsePtr &gt;</text>
<polyline fill="none" stroke="#bfbfbf" points="265.268,-594.5 386.268,-594.5 "/>
<text text-anchor="middle" x="325.768" y="-582.5" font-family="Helvetica,sans-Serif" font-size="10.00"> </text>
<polyline fill="none" stroke="#bfbfbf" points="265.268,-575.5 386.268,-575.5 "/>
<text text-anchor="middle" x="325.768" y="-563.5" font-family="Helvetica,sans-Serif" font-size="10.00"> </text>
</g>
<!-- Node8&#45;&gt;Node1 -->
<g id="edge8" class="edge"><title>Node8&#45;&gt;Node1</title>
<path fill="none" stroke="#404040" d="M333.523,-556.493C343.58,-524.546 363.616,-471.563 394.768,-435 473.718,-342.336 596.824,-270.226 675.615,-230.157"/>
<polygon fill="none" stroke="#404040" points="675.709,-230.11 679.271,-223.84 686.429,-224.717 682.866,-230.987 675.709,-230.11"/>
<text text-anchor="middle" x="447.768" y="-409" font-family="Helvetica,sans-Serif" font-size="10.00"> &#45;m_ellipses</text>
</g>
<!-- Node9 -->
<g id="node9" class="node"><title>Node9</title>
<polygon fill="none" stroke="#bfbfbf" points="404.268,-556.5 404.268,-613.5 525.268,-613.5 525.268,-556.5 404.268,-556.5"/>
<text text-anchor="middle" x="464.768" y="-601.5" font-family="Helvetica,sans-Serif" font-size="10.00">QVector&lt; ImagePtr &gt;</text>
<polyline fill="none" stroke="#bfbfbf" points="404.268,-594.5 525.268,-594.5 "/>
<text text-anchor="middle" x="464.768" y="-582.5" font-family="Helvetica,sans-Serif" font-size="10.00"> </text>
<polyline fill="none" stroke="#bfbfbf" points="404.268,-575.5 525.268,-575.5 "/>
<text text-anchor="middle" x="464.768" y="-563.5" font-family="Helvetica,sans-Serif" font-size="10.00"> </text>
</g>
<!-- Node9&#45;&gt;Node1 -->
<g id="edge9" class="edge"><title>Node9&#45;&gt;Node1</title>
<path fill="none" stroke="#404040" d="M474.911,-556.358C486.887,-525.443 508.53,-474.528 534.768,-435 576.125,-372.696 633.034,-310.154 678.056,-264.54"/>
<polygon fill="none" stroke="#404040" points="678.147,-264.449 679.539,-257.373 686.606,-255.937 685.214,-263.012 678.147,-264.449"/>
<text text-anchor="middle" x="584.768" y="-409" font-family="Helvetica,sans-Serif" font-size="10.00"> &#45;m_images</text>
</g>
<!-- Node10 -->
<g id="node10" class="node"><title>Node10</title>
<polygon fill="none" stroke="#bfbfbf" points="543.768,-556.5 543.768,-613.5 677.768,-613.5 677.768,-556.5 543.768,-556.5"/>
<text text-anchor="middle" x="610.768" y="-601.5" font-family="Helvetica,sans-Serif" font-size="10.00">QVector&lt; CrosstabPtr &gt;</text>
<polyline fill="none" stroke="#bfbfbf" points="543.768,-594.5 677.768,-594.5 "/>
<text text-anchor="middle" x="610.768" y="-582.5" font-family="Helvetica,sans-Serif" font-size="10.00"> </text>
<polyline fill="none" stroke="#bfbfbf" points="543.768,-575.5 677.768,-575.5 "/>
<text text-anchor="middle" x="610.768" y="-563.5" font-family="Helvetica,sans-Serif" font-size="10.00"> </text>
</g>
<!-- Node10&#45;&gt;Node1 -->
<g id="edge10" class="edge"><title>Node10&#45;&gt;Node1</title>
<path fill="none" stroke="#404040" d="M620.724,-556.336C633.923,-519.663 658.372,-451.728 682.54,-384.576"/>
<polygon fill="none" stroke="#404040" points="682.666,-384.227 680.934,-377.227 686.73,-372.936 688.462,-379.936 682.666,-384.227"/>
<text text-anchor="middle" x="707.268" y="-409" font-family="Helvetica,sans-Serif" font-size="10.00"> &#45;m_crosstabs</text>
</g>
<!-- Node11 -->
<g id="node11" class="node"><title>Node11</title>
<polygon fill="none" stroke="#bfbfbf" points="695.768,-556.5 695.768,-613.5 805.768,-613.5 805.768,-556.5 695.768,-556.5"/>
<text text-anchor="middle" x="750.768" y="-601.5" font-family="Helvetica,sans-Serif" font-size="10.00">QVector&lt; LinePtr &gt;</text>
<polyline fill="none" stroke="#bfbfbf" points="695.768,-594.5 805.768,-594.5 "/>
<text text-anchor="middle" x="750.768" y="-582.5" font-family="Helvetica,sans-Serif" font-size="10.00"> </text>
<polyline fill="none" stroke="#bfbfbf" points="695.768,-575.5 805.768,-575.5 "/>
<text text-anchor="middle" x="750.768" y="-563.5" font-family="Helvetica,sans-Serif" font-size="10.00"> </text>
</g>
<!-- Node11&#45;&gt;Node1 -->
<g id="edge11" class="edge"><title>Node11&#45;&gt;Node1</title>
<path fill="none" stroke="#404040" d="M750.768,-556.336C750.768,-522.418 750.768,-461.758 750.768,-399.709"/>
<polygon fill="none" stroke="#404040" points="750.768,-399.702 746.768,-393.702 750.768,-387.702 754.768,-393.701 750.768,-399.702"/>
<text text-anchor="middle" x="772.768" y="-409" font-family="Helvetica,sans-Serif" font-size="10.00"> &#45;m_lines</text>
</g>
<!-- Node12 -->
<g id="node12" class="node"><title>Node12</title>
<polygon fill="none" stroke="#bfbfbf" points="824.268,-556.5 824.268,-613.5 955.268,-613.5 955.268,-556.5 824.268,-556.5"/>
<text text-anchor="middle" x="889.768" y="-601.5" font-family="Helvetica,sans-Serif" font-size="10.00">QVector&lt; TextFieldPtr &gt;</text>
<polyline fill="none" stroke="#bfbfbf" points="824.268,-594.5 955.268,-594.5 "/>
<text text-anchor="middle" x="889.768" y="-582.5" font-family="Helvetica,sans-Serif" font-size="10.00"> </text>
<polyline fill="none" stroke="#bfbfbf" points="824.268,-575.5 955.268,-575.5 "/>
<text text-anchor="middle" x="889.768" y="-563.5" font-family="Helvetica,sans-Serif" font-size="10.00"> </text>
</g>
<!-- Node12&#45;&gt;Node1 -->
<g id="edge12" class="edge"><title>Node12&#45;&gt;Node1</title>
<path fill="none" stroke="#404040" d="M879.883,-556.336C866.867,-519.91 842.829,-452.639 818.992,-385.928"/>
<polygon fill="none" stroke="#404040" points="818.897,-385.662 813.111,-381.358 814.859,-374.362 820.645,-378.666 818.897,-385.662"/>
<text text-anchor="middle" x="862.268" y="-409" font-family="Helvetica,sans-Serif" font-size="10.00"> &#45;m_textFields</text>
</g>
<!-- Node13 -->
<g id="node13" class="node"><title>Node13</title>
<polygon fill="none" stroke="#bfbfbf" points="973.768,-556.5 973.768,-613.5 1115.77,-613.5 1115.77,-556.5 973.768,-556.5"/>
<text text-anchor="middle" x="1044.77" y="-601.5" font-family="Helvetica,sans-Serif" font-size="10.00">QVector&lt; TextWidgetPtr &gt;</text>
<polyline fill="none" stroke="#bfbfbf" points="973.768,-594.5 1115.77,-594.5 "/>
<text text-anchor="middle" x="1044.77" y="-582.5" font-family="Helvetica,sans-Serif" font-size="10.00"> </text>
<polyline fill="none" stroke="#bfbfbf" points="973.768,-575.5 1115.77,-575.5 "/>
<text text-anchor="middle" x="1044.77" y="-563.5" font-family="Helvetica,sans-Serif" font-size="10.00"> </text>
</g>
<!-- Node13&#45;&gt;Node1 -->
<g id="edge13" class="edge"><title>Node13&#45;&gt;Node1</title>
<path fill="none" stroke="#404040" d="M1032.05,-556.257C1017.41,-525.475 991.759,-474.887 963.768,-435 921.842,-375.255 867.041,-313.802 823.525,-268.038"/>
<polygon fill="none" stroke="#404040" points="823.272,-267.773 816.234,-266.2 814.979,-259.099 822.017,-260.672 823.272,-267.773"/>
<text text-anchor="middle" x="988.268" y="-409" font-family="Helvetica,sans-Serif" font-size="10.00"> &#45;m_textWidgets</text>
</g>
<!-- Node14 -->
<g id="node14" class="node"><title>Node14</title>
<polygon fill="none" stroke="#bfbfbf" points="1134.27,-556.5 1134.27,-613.5 1271.27,-613.5 1271.27,-556.5 1134.27,-556.5"/>
<text text-anchor="middle" x="1202.77" y="-601.5" font-family="Helvetica,sans-Serif" font-size="10.00">QVector&lt; StaticTextPtr &gt;</text>
<polyline fill="none" stroke="#bfbfbf" points="1134.27,-594.5 1271.27,-594.5 "/>
<text text-anchor="middle" x="1202.77" y="-582.5" font-family="Helvetica,sans-Serif" font-size="10.00"> </text>
<polyline fill="none" stroke="#bfbfbf" points="1134.27,-575.5 1271.27,-575.5 "/>
<text text-anchor="middle" x="1202.77" y="-563.5" font-family="Helvetica,sans-Serif" font-size="10.00"> </text>
</g>
<!-- Node14&#45;&gt;Node1 -->
<g id="edge14" class="edge"><title>Node14&#45;&gt;Node1</title>
<path fill="none" stroke="#404040" d="M1193.3,-556.397C1181.27,-524.359 1157.99,-471.29 1124.77,-435 1038.61,-340.878 907.664,-268.195 825.77,-228.538"/>
<polygon fill="none" stroke="#404040" points="825.619,-228.466 818.48,-229.48 814.798,-223.28 821.937,-222.265 825.619,-228.466"/>
<text text-anchor="middle" x="1136.27" y="-409" font-family="Helvetica,sans-Serif" font-size="10.00"> &#45;m_staticTexts</text>
</g>
<!-- Node15 -->
<g id="node15" class="node"><title>Node15</title>
<polygon fill="none" stroke="#bfbfbf" points="1289.27,-556.5 1289.27,-613.5 1400.27,-613.5 1400.27,-556.5 1289.27,-556.5"/>
<text text-anchor="middle" x="1344.77" y="-601.5" font-family="Helvetica,sans-Serif" font-size="10.00">QVector&lt; RectPtr &gt;</text>
<polyline fill="none" stroke="#bfbfbf" points="1289.27,-594.5 1400.27,-594.5 "/>
<text text-anchor="middle" x="1344.77" y="-582.5" font-family="Helvetica,sans-Serif" font-size="10.00"> </text>
<polyline fill="none" stroke="#bfbfbf" points="1289.27,-575.5 1400.27,-575.5 "/>
<text text-anchor="middle" x="1344.77" y="-563.5" font-family="Helvetica,sans-Serif" font-size="10.00"> </text>
</g>
<!-- Node15&#45;&gt;Node1 -->
<g id="edge15" class="edge"><title>Node15&#45;&gt;Node1</title>
<path fill="none" stroke="#404040" d="M1339.09,-556.421C1331.06,-523.665 1313.45,-469.172 1279.77,-435 1151.53,-304.882 939.899,-238.738 827.105,-211.183"/>
<polygon fill="none" stroke="#404040" points="826.847,-211.121 820.08,-213.612 815.178,-208.324 821.945,-205.833 826.847,-211.121"/>
<text text-anchor="middle" x="1280.77" y="-409" font-family="Helvetica,sans-Serif" font-size="10.00"> &#45;m_rects</text>
</g>
</g>
</svg>
        <g id="navigator" transform="translate(0 0)" fill="#404254">
                <rect fill="#f2f5e9" fill-opacity="0.5" stroke="#606060" stroke-width=".5" x="0" y="0" width="60" height="60"/>
                <use id="zoomplus" xlink:href="#zoomPlus" x="17" y="9" onmousedown="handleZoom(evt,'in')"/>
                <use id="zoomminus" xlink:href="#zoomMin" x="42" y="9" onmousedown="handleZoom(evt,'out')"/>
                <use id="reset" xlink:href="#resetDef" x="30" y="36" onmousedown="handleReset()"/>
                <g id="arrowUp" xlink:href="#dirArrow" transform="translate(30 24)" onmousedown="handlePan(0,-1)">
                  <use xlink:href="#rim" fill="#404040">
                        <set attributeName="fill" to="#808080" begin="arrowUp.mouseover" end="arrowUp.mouseout"/>
                  </use>
                  <path fill="none" stroke="white" stroke-width="1.5" d="M0,-3.0v7 M-2.5,-0.5L0,-3.0L2.5,-0.5"/>
                </g>
                <g id="arrowRight" xlink:href="#dirArrow" transform="rotate(90) translate(36 -43)" onmousedown="handlePan(1,0)">
                  <use xlink:href="#rim" fill="#404040">
                        <set attributeName="fill" to="#808080" begin="arrowRight.mouseover" end="arrowRight.mouseout"/>
                  </use>
                  <path fill="none" stroke="white" stroke-width="1.5" d="M0,-3.0v7 M-2.5,-0.5L0,-3.0L2.5,-0.5"/>
                </g>
                <g id="arrowDown" xlink:href="#dirArrow" transform="rotate(180) translate(-30 -48)" onmousedown="handlePan(0,1)">
                  <use xlink:href="#rim" fill="#404040">
                        <set attributeName="fill" to="#808080" begin="arrowDown.mouseover" end="arrowDown.mouseout"/>
                  </use>
                  <path fill="none" stroke="white" stroke-width="1.5" d="M0,-3.0v7 M-2.5,-0.5L0,-3.0L2.5,-0.5"/>
                </g>
                <g id="arrowLeft" xlink:href="#dirArrow" transform="rotate(270) translate(-36 17)" onmousedown="handlePan(-1,0)">
                  <use xlink:href="#rim" fill="#404040">
                        <set attributeName="fill" to="#808080" begin="arrowLeft.mouseover" end="arrowLeft.mouseout"/>
                  </use>
                  <path fill="none" stroke="white" stroke-width="1.5" d="M0,-3.0v7 M-2.5,-0.5L0,-3.0L2.5,-0.5"/>
                </g>
        </g>
        <svg viewBox="0 0 15 15" width="100%" height="30px" preserveAspectRatio="xMaxYMin meet">
         <g id="arrow_out" transform="scale(0.3 0.3)">
          <a xlink:href="classqtreports_1_1detail_1_1_band__coll__graph_org.svg" target="_base">
           <rect id="button" ry="5" rx="5" y="6" x="6" height="38" width="38"
                fill="#f2f5e9" fill-opacity="0.5" stroke="#606060" stroke-width="1.0"/>
           <path id="arrow"
             d="M 11.500037,31.436501 C 11.940474,20.09759 22.043105,11.32322 32.158766,21.979434 L 37.068811,17.246167 C 37.068811,17.246167 37.088388,32 37.088388,32 L 22.160133,31.978069 C 22.160133,31.978069 26.997745,27.140456 26.997745,27.140456 C 18.528582,18.264221 13.291696,25.230495 11.500037,31.436501 z"
             style="fill:#404040;"/>
          </a>
         </g>
        </svg>
</svg>
