<?xml version="1.0" encoding="UTF-8" standalone="no"?>
<!DOCTYPE svg PUBLIC "-//W3C//DTD SVG 1.1//EN"
 "http://www.w3.org/Graphics/SVG/1.1/DTD/svg11.dtd">
<!-- Generated by graphviz version 2.38.0 (20140413.2041)
 -->
<!-- Title: qtreports::detail::ConverterToHTML::addGroupsIntoReport Pages: 1 -->
<svg width="1131pt" height="171pt"
 viewBox="0.00 0.00 1131.00 170.50" xmlns="http://www.w3.org/2000/svg" xmlns:xlink="http://www.w3.org/1999/xlink">
<g id="graph0" class="graph" transform="scale(1 1) rotate(0) translate(4 166.5)">
<title>qtreports::detail::ConverterToHTML::addGroupsIntoReport</title>
<!-- Node1 -->
<g id="node1" class="node"><title>Node1</title>
<polygon fill="#bfbfbf" stroke="black" points="0,-117 0,-158 158,-158 158,-117 0,-117"/>
<text text-anchor="start" x="8" y="-146" font-family="Helvetica,sans-Serif" font-size="10.00">qtreports::detail::</text>
<text text-anchor="start" x="8" y="-135" font-family="Helvetica,sans-Serif" font-size="10.00">ConverterToHTML::addGroups</text>
<text text-anchor="middle" x="79" y="-124" font-family="Helvetica,sans-Serif" font-size="10.00">IntoReport</text>
</g>
<!-- Node2 -->
<g id="node2" class="node"><title>Node2</title>
<g id="a_node2"><a xlink:href="classqtreports_1_1detail_1_1_replacer.html#a4642b07160798f2ee4de276e1d0c1ecd" target="_top" xlink:title="Возвращает текст с подставленными значениями полей из источника данных. ">
<polygon fill="none" stroke="black" points="989,-122.5 989,-152.5 1108,-152.5 1108,-122.5 989,-122.5"/>
<text text-anchor="start" x="997" y="-140.5" font-family="Helvetica,sans-Serif" font-size="10.00">qtreports::detail::</text>
<text text-anchor="middle" x="1048.5" y="-129.5" font-family="Helvetica,sans-Serif" font-size="10.00">Replacer::replaceField</text>
</a>
</g>
</g>
<!-- Node1&#45;&gt;Node2 -->
<g id="edge1" class="edge"><title>Node1&#45;&gt;Node2</title>
<path fill="none" stroke="midnightblue" d="M158.024,-145.582C235.349,-152.886 357.218,-162.5 463,-162.5 463,-162.5 463,-162.5 663,-162.5 773.755,-162.5 902.077,-152.043 978.918,-144.655"/>
<polygon fill="midnightblue" stroke="midnightblue" points="979.336,-148.131 988.95,-143.68 978.658,-141.164 979.336,-148.131"/>
</g>
<!-- Node3 -->
<g id="node3" class="node"><title>Node3</title>
<g id="a_node3"><a xlink:href="classqtreports_1_1detail_1_1_converter_to_h_t_m_l.html#aa9d511353f62cfc489c3e071ebf5182b" target="_top" xlink:title="Добавление &lt;band&gt;, принадлежащего конкретной &lt;section&gt;, в документ HTML. ">
<polygon fill="none" stroke="black" points="194,-73.5 194,-103.5 348,-103.5 348,-73.5 194,-73.5"/>
<text text-anchor="start" x="202" y="-91.5" font-family="Helvetica,sans-Serif" font-size="10.00">qtreports::detail::</text>
<text text-anchor="middle" x="271" y="-80.5" font-family="Helvetica,sans-Serif" font-size="10.00">ConverterToHTML::addBands</text>
</a>
</g>
</g>
<!-- Node1&#45;&gt;Node3 -->
<g id="edge2" class="edge"><title>Node1&#45;&gt;Node3</title>
<path fill="none" stroke="midnightblue" d="M158.103,-117.358C172.656,-113.604 187.756,-109.71 201.977,-106.043"/>
<polygon fill="midnightblue" stroke="midnightblue" points="202.854,-109.431 211.664,-103.545 201.106,-102.653 202.854,-109.431"/>
</g>
<!-- Node4 -->
<g id="node4" class="node"><title>Node4</title>
<g id="a_node4"><a xlink:href="classqtreports_1_1detail_1_1_replacer.html#af7ccb83be264f7c72b7485cf38455450" target="_top" xlink:title="Заменяет текст всех виджетов секции текстом с подставленными значениями. ">
<polygon fill="none" stroke="black" points="414.5,-98.5 414.5,-128.5 513.5,-128.5 513.5,-98.5 414.5,-98.5"/>
<text text-anchor="start" x="422.5" y="-116.5" font-family="Helvetica,sans-Serif" font-size="10.00">qtreports::detail::</text>
<text text-anchor="middle" x="464" y="-105.5" font-family="Helvetica,sans-Serif" font-size="10.00">Replacer::replace</text>
</a>
</g>
</g>
<!-- Node3&#45;&gt;Node4 -->
<g id="edge3" class="edge"><title>Node3&#45;&gt;Node4</title>
<path fill="none" stroke="midnightblue" d="M348.037,-98.4525C366.734,-100.9 386.471,-103.483 404.213,-105.805"/>
<polygon fill="midnightblue" stroke="midnightblue" points="404.036,-109.312 414.406,-107.14 404.945,-102.371 404.036,-109.312"/>
</g>
<!-- Node10 -->
<g id="node10" class="node"><title>Node10</title>
<g id="a_node10"><a xlink:href="classqtreports_1_1detail_1_1_replacer.html#a677f7802e444f2de3af4cb43b6cedf30" target="_top" xlink:title="Возвращает описание последней произошедшей ошибки. ">
<polygon fill="none" stroke="black" points="403,-49.5 403,-79.5 525,-79.5 525,-49.5 403,-49.5"/>
<text text-anchor="start" x="411" y="-67.5" font-family="Helvetica,sans-Serif" font-size="10.00">qtreports::detail::</text>
<text text-anchor="middle" x="464" y="-56.5" font-family="Helvetica,sans-Serif" font-size="10.00">Replacer::getLastError</text>
</a>
</g>
</g>
<!-- Node3&#45;&gt;Node10 -->
<g id="edge10" class="edge"><title>Node3&#45;&gt;Node10</title>
<path fill="none" stroke="midnightblue" d="M348.037,-78.9456C362.829,-77.0869 378.271,-75.1465 392.862,-73.3131"/>
<polygon fill="midnightblue" stroke="midnightblue" points="393.324,-76.7828 402.809,-72.0633 392.451,-69.8374 393.324,-76.7828"/>
</g>
<!-- Node11 -->
<g id="node11" class="node"><title>Node11</title>
<g id="a_node11"><a xlink:href="classqtreports_1_1detail_1_1_converter_to_h_t_m_l.html#a759cb19710076fd669793a84e62d14eb" target="_top" xlink:title="Добавление &lt;shape&gt;, принадлежащего конретному &lt;band&gt;, в документ HTML. ">
<polygon fill="none" stroke="black" points="384,-0.5 384,-30.5 544,-30.5 544,-0.5 384,-0.5"/>
<text text-anchor="start" x="392" y="-18.5" font-family="Helvetica,sans-Serif" font-size="10.00">qtreports::detail::</text>
<text text-anchor="middle" x="464" y="-7.5" font-family="Helvetica,sans-Serif" font-size="10.00">ConverterToHTML::addShapes</text>
</a>
</g>
</g>
<!-- Node3&#45;&gt;Node11 -->
<g id="edge11" class="edge"><title>Node3&#45;&gt;Node11</title>
<path fill="none" stroke="midnightblue" d="M303.938,-73.331C326.124,-63.0905 356.524,-49.6441 384,-39.5 389.427,-37.4963 395.107,-35.5279 400.824,-33.6334"/>
<polygon fill="midnightblue" stroke="midnightblue" points="402.006,-36.9296 410.444,-30.5218 399.852,-30.2694 402.006,-36.9296"/>
</g>
<!-- Node5 -->
<g id="node5" class="node"><title>Node5</title>
<g id="a_node5"><a xlink:href="classqtreports_1_1detail_1_1_replacer.html#a58cf857aa78eb3e273f6543769af425b" target="_top" xlink:title="Заменяет текст всех виджетов секции текстом с подставленными значениями полей из источника данных...">
<polygon fill="none" stroke="black" points="580,-98.5 580,-128.5 744,-128.5 744,-98.5 580,-98.5"/>
<text text-anchor="start" x="588" y="-116.5" font-family="Helvetica,sans-Serif" font-size="10.00">qtreports::detail::</text>
<text text-anchor="middle" x="662" y="-105.5" font-family="Helvetica,sans-Serif" font-size="10.00">Replacer::replaceFieldInSection</text>
</a>
</g>
</g>
<!-- Node4&#45;&gt;Node5 -->
<g id="edge4" class="edge"><title>Node4&#45;&gt;Node5</title>
<path fill="none" stroke="midnightblue" d="M513.701,-113.5C530.693,-113.5 550.359,-113.5 569.677,-113.5"/>
<polygon fill="midnightblue" stroke="midnightblue" points="569.732,-117 579.732,-113.5 569.732,-110 569.732,-117"/>
</g>
<!-- Node9 -->
<g id="node9" class="node"><title>Node9</title>
<g id="a_node9"><a xlink:href="classqtreports_1_1detail_1_1_replacer.html#abb903f1c1172efa7e26b040a5695cc86" target="_top" xlink:title="Возвращает текст с подставленными значениями параметров. ">
<polygon fill="none" stroke="black" points="585,-49.5 585,-79.5 739,-79.5 739,-49.5 585,-49.5"/>
<text text-anchor="start" x="593" y="-67.5" font-family="Helvetica,sans-Serif" font-size="10.00">qtreports::detail::</text>
<text text-anchor="middle" x="662" y="-56.5" font-family="Helvetica,sans-Serif" font-size="10.00">Replacer::replaceParameters</text>
</a>
</g>
</g>
<!-- Node4&#45;&gt;Node9 -->
<g id="edge9" class="edge"><title>Node4&#45;&gt;Node9</title>
<path fill="none" stroke="midnightblue" d="M513.701,-101.325C537.022,-95.4945 565.379,-88.4053 590.961,-82.0097"/>
<polygon fill="midnightblue" stroke="midnightblue" points="592.132,-85.3249 600.984,-79.504 590.434,-78.5339 592.132,-85.3249"/>
</g>
<!-- Node6 -->
<g id="node6" class="node"><title>Node6</title>
<g id="a_node6"><a xlink:href="classqtreports_1_1detail_1_1_replacer.html#a2be57bd514335f9b9f2a520247562ce1" target="_top" xlink:title="Заменяет текст виджета текстом с подставленными значениями полей из источника данных. ">
<polygon fill="none" stroke="black" points="786,-93 786,-134 932,-134 932,-93 786,-93"/>
<text text-anchor="start" x="794" y="-122" font-family="Helvetica,sans-Serif" font-size="10.00">qtreports::detail::</text>
<text text-anchor="start" x="794" y="-111" font-family="Helvetica,sans-Serif" font-size="10.00">Replacer::replaceFieldInText</text>
<text text-anchor="middle" x="859" y="-100" font-family="Helvetica,sans-Serif" font-size="10.00">Widget</text>
</a>
</g>
</g>
<!-- Node5&#45;&gt;Node6 -->
<g id="edge5" class="edge"><title>Node5&#45;&gt;Node6</title>
<path fill="none" stroke="midnightblue" d="M744.003,-113.5C754.55,-113.5 765.362,-113.5 775.926,-113.5"/>
<polygon fill="midnightblue" stroke="midnightblue" points="775.962,-117 785.962,-113.5 775.962,-110 775.962,-117"/>
</g>
<!-- Node7 -->
<g id="node7" class="node"><title>Node7</title>
<g id="a_node7"><a xlink:href="classqtreports_1_1detail_1_1_replacer.html#a4aeb7794f90c0be34a30ab60a6df1920" target="_top" xlink:title="На основе текста виджета вставляет в него изображение из источника данных. ">
<polygon fill="none" stroke="black" points="780,-33 780,-74 938,-74 938,-33 780,-33"/>
<text text-anchor="start" x="788" y="-62" font-family="Helvetica,sans-Serif" font-size="10.00">qtreports::detail::</text>
<text text-anchor="start" x="788" y="-51" font-family="Helvetica,sans-Serif" font-size="10.00">Replacer::replaceFieldInImage</text>
<text text-anchor="middle" x="859" y="-40" font-family="Helvetica,sans-Serif" font-size="10.00">Widget</text>
</a>
</g>
</g>
<!-- Node5&#45;&gt;Node7 -->
<g id="edge7" class="edge"><title>Node5&#45;&gt;Node7</title>
<path fill="none" stroke="midnightblue" d="M711.955,-98.4369C733.075,-91.9384 758.276,-84.1844 781.749,-76.9618"/>
<polygon fill="midnightblue" stroke="midnightblue" points="782.809,-80.2976 791.338,-74.0114 780.751,-73.6071 782.809,-80.2976"/>
</g>
<!-- Node6&#45;&gt;Node2 -->
<g id="edge6" class="edge"><title>Node6&#45;&gt;Node2</title>
<path fill="none" stroke="midnightblue" d="M932.224,-122.745C947.479,-124.697 963.539,-126.753 978.665,-128.689"/>
<polygon fill="midnightblue" stroke="midnightblue" points="978.603,-132.21 988.966,-130.008 979.491,-125.266 978.603,-132.21"/>
</g>
<!-- Node8 -->
<g id="node8" class="node"><title>Node8</title>
<g id="a_node8"><a xlink:href="classqtreports_1_1detail_1_1_replacer.html#ae1ac521aeaf5fdd694e79e2ae52d4704" target="_top" xlink:title="Возвращает изображение на основе первого найденного выражения. ">
<polygon fill="none" stroke="black" points="974,-38.5 974,-68.5 1123,-68.5 1123,-38.5 974,-38.5"/>
<text text-anchor="start" x="982" y="-56.5" font-family="Helvetica,sans-Serif" font-size="10.00">qtreports::detail::</text>
<text text-anchor="middle" x="1048.5" y="-45.5" font-family="Helvetica,sans-Serif" font-size="10.00">Replacer::replaceFieldImage</text>
</a>
</g>
</g>
<!-- Node7&#45;&gt;Node8 -->
<g id="edge8" class="edge"><title>Node7&#45;&gt;Node8</title>
<path fill="none" stroke="midnightblue" d="M938.159,-53.5C946.681,-53.5 955.381,-53.5 963.964,-53.5"/>
<polygon fill="midnightblue" stroke="midnightblue" points="963.97,-57.0001 973.97,-53.5 963.97,-50.0001 963.97,-57.0001"/>
</g>
</g>
</svg>
