<?xml version="1.0" encoding="UTF-8" standalone="no"?>
<!DOCTYPE svg PUBLIC "-//W3C//DTD SVG 1.1//EN"
 "http://www.w3.org/Graphics/SVG/1.1/DTD/svg11.dtd">
<!-- Generated by graphviz version 2.38.0 (20140413.2041)
 -->
<!-- Title: qtreports::detail::ParserFromXML::getAttribute Pages: 1 -->
<svg width="775pt" height="451pt"
 viewBox="0.00 0.00 775.00 451.00" xmlns="http://www.w3.org/2000/svg" xmlns:xlink="http://www.w3.org/1999/xlink">
<g id="graph0" class="graph" transform="scale(1 1) rotate(0) translate(4 447)">
<title>qtreports::detail::ParserFromXML::getAttribute</title>
<!-- Node1 -->
<g id="node1" class="node"><title>Node1</title>
<polygon fill="#bfbfbf" stroke="black" points="0,-176.5 0,-206.5 154,-206.5 154,-176.5 0,-176.5"/>
<text text-anchor="start" x="8" y="-194.5" font-family="Helvetica,sans-Serif" font-size="10.00">qtreports::detail::</text>
<text text-anchor="middle" x="77" y="-183.5" font-family="Helvetica,sans-Serif" font-size="10.00">ParserFromXML::getAttribute</text>
</g>
<!-- Node2 -->
<g id="node2" class="node"><title>Node2</title>
<g id="a_node2"><a xlink:href="classqtreports_1_1detail_1_1_parser_from_x_m_l.html#ab1cbf7385fa2d56c5e8526bf97cda9b1" target="_top" xlink:title="Вызывает функцию getAttribute с переданными параметрами и с параметром option &#45; &quot;обязательный аттрибу...">
<polygon fill="none" stroke="black" points="190,-201 190,-242 343,-242 343,-201 190,-201"/>
<text text-anchor="start" x="198" y="-230" font-family="Helvetica,sans-Serif" font-size="10.00">qtreports::detail::</text>
<text text-anchor="start" x="198" y="-219" font-family="Helvetica,sans-Serif" font-size="10.00">ParserFromXML::getRequired</text>
<text text-anchor="middle" x="266.5" y="-208" font-family="Helvetica,sans-Serif" font-size="10.00">Attribute</text>
</a>
</g>
</g>
<!-- Node1&#45;&gt;Node2 -->
<g id="edge1" class="edge"><title>Node1&#45;&gt;Node2</title>
<path fill="none" stroke="midnightblue" d="M164.26,-205.302C172.823,-206.672 181.47,-208.055 189.912,-209.406"/>
<polygon fill="midnightblue" stroke="midnightblue" points="164.691,-201.826 154.263,-203.702 163.585,-208.738 164.691,-201.826"/>
</g>
<!-- Node12 -->
<g id="node12" class="node"><title>Node12</title>
<g id="a_node12"><a xlink:href="classqtreports_1_1detail_1_1_parser_from_x_m_l.html#a478329a44761310039078ee6871a355d" target="_top" xlink:title="Вызывает функцию getAttribute с переданными параметрами и с параметром option &#45; &quot;опциональный аттрибу...">
<polygon fill="none" stroke="black" points="190.5,-122 190.5,-163 342.5,-163 342.5,-122 190.5,-122"/>
<text text-anchor="start" x="198.5" y="-151" font-family="Helvetica,sans-Serif" font-size="10.00">qtreports::detail::</text>
<text text-anchor="start" x="198.5" y="-140" font-family="Helvetica,sans-Serif" font-size="10.00">ParserFromXML::getOptional</text>
<text text-anchor="middle" x="266.5" y="-129" font-family="Helvetica,sans-Serif" font-size="10.00">Attribute</text>
</a>
</g>
</g>
<!-- Node1&#45;&gt;Node12 -->
<g id="edge18" class="edge"><title>Node1&#45;&gt;Node12</title>
<path fill="none" stroke="midnightblue" d="M145.466,-173.869C160.058,-170.055 175.575,-166 190.439,-162.116"/>
<polygon fill="midnightblue" stroke="midnightblue" points="144.321,-170.551 135.53,-176.465 146.09,-177.323 144.321,-170.551"/>
</g>
<!-- Node3 -->
<g id="node3" class="node"><title>Node3</title>
<g id="a_node3"><a xlink:href="classqtreports_1_1detail_1_1_parser_from_x_m_l.html#a8247dc85ae5cae03ab3f175982a0857e" target="_top" xlink:title="Парсит тэг report. ">
<polygon fill="none" stroke="black" points="393,-157.5 393,-187.5 547,-187.5 547,-157.5 393,-157.5"/>
<text text-anchor="start" x="401" y="-175.5" font-family="Helvetica,sans-Serif" font-size="10.00">qtreports::detail::</text>
<text text-anchor="middle" x="470" y="-164.5" font-family="Helvetica,sans-Serif" font-size="10.00">ParserFromXML::parseReport</text>
</a>
</g>
</g>
<!-- Node2&#45;&gt;Node3 -->
<g id="edge2" class="edge"><title>Node2&#45;&gt;Node3</title>
<path fill="none" stroke="midnightblue" d="M352.846,-200.746C371.063,-196.316 389.969,-191.718 407.104,-187.552"/>
<polygon fill="midnightblue" stroke="midnightblue" points="351.994,-197.351 343.104,-203.115 353.648,-204.153 351.994,-197.351"/>
</g>
<!-- Node5 -->
<g id="node5" class="node"><title>Node5</title>
<g id="a_node5"><a xlink:href="classqtreports_1_1detail_1_1_parser_from_x_m_l.html#a5a366e39f908935a618b137e7e27496c" target="_top" xlink:title="Парсит тэг style. ">
<polygon fill="none" stroke="black" points="396.5,-108.5 396.5,-138.5 543.5,-138.5 543.5,-108.5 396.5,-108.5"/>
<text text-anchor="start" x="404.5" y="-126.5" font-family="Helvetica,sans-Serif" font-size="10.00">qtreports::detail::</text>
<text text-anchor="middle" x="470" y="-115.5" font-family="Helvetica,sans-Serif" font-size="10.00">ParserFromXML::parseStyle</text>
</a>
</g>
</g>
<!-- Node2&#45;&gt;Node5 -->
<g id="edge4" class="edge"><title>Node2&#45;&gt;Node5</title>
<path fill="none" stroke="midnightblue" d="M308.066,-195.504C319.419,-188.139 331.732,-180.066 343,-172.5 359.172,-161.641 361.325,-155.688 379,-147.5 386.337,-144.102 394.241,-141.115 402.21,-138.509"/>
<polygon fill="midnightblue" stroke="midnightblue" points="306.101,-192.607 299.606,-200.977 309.903,-198.484 306.101,-192.607"/>
</g>
<!-- Node6 -->
<g id="node6" class="node"><title>Node6</title>
<g id="a_node6"><a xlink:href="classqtreports_1_1detail_1_1_parser_from_x_m_l.html#a20a5b5081956769e0d219779407ba76c" target="_top" xlink:title="Парсит тэг Field. ">
<polygon fill="none" stroke="black" points="398,-255.5 398,-285.5 542,-285.5 542,-255.5 398,-255.5"/>
<text text-anchor="start" x="406" y="-273.5" font-family="Helvetica,sans-Serif" font-size="10.00">qtreports::detail::</text>
<text text-anchor="middle" x="470" y="-262.5" font-family="Helvetica,sans-Serif" font-size="10.00">ParserFromXML::parseField</text>
</a>
</g>
</g>
<!-- Node2&#45;&gt;Node6 -->
<g id="edge6" class="edge"><title>Node2&#45;&gt;Node6</title>
<path fill="none" stroke="midnightblue" d="M352.846,-242.254C371.063,-246.684 389.969,-251.282 407.104,-255.448"/>
<polygon fill="midnightblue" stroke="midnightblue" points="353.648,-238.847 343.104,-239.885 351.994,-245.649 353.648,-238.847"/>
</g>
<!-- Node7 -->
<g id="node7" class="node"><title>Node7</title>
<g id="a_node7"><a xlink:href="classqtreports_1_1detail_1_1_parser_from_x_m_l.html#a477a961860b1de77b5a0da28e361987a" target="_top" xlink:title="Парсит тэг group. ">
<polygon fill="none" stroke="black" points="394,-412.5 394,-442.5 546,-442.5 546,-412.5 394,-412.5"/>
<text text-anchor="start" x="402" y="-430.5" font-family="Helvetica,sans-Serif" font-size="10.00">qtreports::detail::</text>
<text text-anchor="middle" x="470" y="-419.5" font-family="Helvetica,sans-Serif" font-size="10.00">ParserFromXML::parseGroup</text>
</a>
</g>
</g>
<!-- Node2&#45;&gt;Node7 -->
<g id="edge8" class="edge"><title>Node2&#45;&gt;Node7</title>
<path fill="none" stroke="midnightblue" d="M277.804,-251.655C293.283,-292.364 326.452,-364.305 379,-403.5 383.537,-406.884 388.515,-409.791 393.73,-412.289"/>
<polygon fill="midnightblue" stroke="midnightblue" points="281.082,-250.428 274.335,-242.259 274.515,-252.852 281.082,-250.428"/>
</g>
<!-- Node8 -->
<g id="node8" class="node"><title>Node8</title>
<g id="a_node8"><a xlink:href="classqtreports_1_1detail_1_1_parser_from_x_m_l.html#af04b8018f1bb3d60ecb6525f31d29885" target="_top" xlink:title="Парсит тэг Band. ">
<polygon fill="none" stroke="black" points="396,-363.5 396,-393.5 544,-393.5 544,-363.5 396,-363.5"/>
<text text-anchor="start" x="404" y="-381.5" font-family="Helvetica,sans-Serif" font-size="10.00">qtreports::detail::</text>
<text text-anchor="middle" x="470" y="-370.5" font-family="Helvetica,sans-Serif" font-size="10.00">ParserFromXML::parseBand</text>
</a>
</g>
</g>
<!-- Node2&#45;&gt;Node8 -->
<g id="edge10" class="edge"><title>Node2&#45;&gt;Node8</title>
<path fill="none" stroke="midnightblue" d="M284.506,-250.893C303.642,-281.347 337.536,-328.107 379,-354.5 384.457,-357.973 390.405,-360.947 396.559,-363.493"/>
<polygon fill="midnightblue" stroke="midnightblue" points="287.264,-248.696 279.049,-242.005 281.299,-252.359 287.264,-248.696"/>
</g>
<!-- Node9 -->
<g id="node9" class="node"><title>Node9</title>
<g id="a_node9"><a xlink:href="classqtreports_1_1detail_1_1_parser_from_x_m_l.html#aee6cb5359125988f68abfcd2f6fe4514" target="_top" xlink:title="Парсит тэг ReportElement &#45; общие данные о элементе отчета (положение, размеры и пр.) ">
<polygon fill="none" stroke="black" points="393,-49 393,-90 547,-90 547,-49 393,-49"/>
<text text-anchor="start" x="401" y="-78" font-family="Helvetica,sans-Serif" font-size="10.00">qtreports::detail::</text>
<text text-anchor="start" x="401" y="-67" font-family="Helvetica,sans-Serif" font-size="10.00">ParserFromXML::parseReport</text>
<text text-anchor="middle" x="470" y="-56" font-family="Helvetica,sans-Serif" font-size="10.00">Element</text>
</a>
</g>
</g>
<!-- Node2&#45;&gt;Node9 -->
<g id="edge12" class="edge"><title>Node2&#45;&gt;Node9</title>
<path fill="none" stroke="midnightblue" d="M316.314,-195.411C325.936,-188.803 335.395,-181.102 343,-172.5 367.225,-145.099 351.38,-122.475 379,-98.5 383.215,-94.8412 387.898,-91.6428 392.85,-88.847"/>
<polygon fill="midnightblue" stroke="midnightblue" points="314.318,-192.534 307.858,-200.932 318.145,-198.395 314.318,-192.534"/>
</g>
<!-- Node10 -->
<g id="node10" class="node"><title>Node10</title>
<g id="a_node10"><a xlink:href="classqtreports_1_1detail_1_1_parser_from_x_m_l.html#a3693d70428f413c6adb999bf0ad69abe" target="_top" xlink:title="Парсит тэг TextElement &#45; общие данные о текстовом элементе (выравнивание текста и пр...">
<polygon fill="none" stroke="black" points="379,-206.5 379,-236.5 561,-236.5 561,-206.5 379,-206.5"/>
<text text-anchor="start" x="387" y="-224.5" font-family="Helvetica,sans-Serif" font-size="10.00">qtreports::detail::</text>
<text text-anchor="middle" x="470" y="-213.5" font-family="Helvetica,sans-Serif" font-size="10.00">ParserFromXML::parseTextElement</text>
</a>
</g>
</g>
<!-- Node2&#45;&gt;Node10 -->
<g id="edge14" class="edge"><title>Node2&#45;&gt;Node10</title>
<path fill="none" stroke="midnightblue" d="M353.279,-221.5C361.692,-221.5 370.247,-221.5 378.702,-221.5"/>
<polygon fill="midnightblue" stroke="midnightblue" points="353.104,-218 343.104,-221.5 353.104,-225 353.104,-218"/>
</g>
<!-- Node11 -->
<g id="node11" class="node"><title>Node11</title>
<g id="a_node11"><a xlink:href="classqtreports_1_1detail_1_1_parser_from_x_m_l.html#a459f21efce7b714320d84d304d304d60" target="_top" xlink:title="Парсит текст для textField. ">
<polygon fill="none" stroke="black" points="388.5,-304 388.5,-345 551.5,-345 551.5,-304 388.5,-304"/>
<text text-anchor="start" x="396.5" y="-333" font-family="Helvetica,sans-Serif" font-size="10.00">qtreports::detail::</text>
<text text-anchor="start" x="396.5" y="-322" font-family="Helvetica,sans-Serif" font-size="10.00">ParserFromXML::parseTextField</text>
<text text-anchor="middle" x="470" y="-311" font-family="Helvetica,sans-Serif" font-size="10.00">Expression</text>
</a>
</g>
</g>
<!-- Node2&#45;&gt;Node11 -->
<g id="edge16" class="edge"><title>Node2&#45;&gt;Node11</title>
<path fill="none" stroke="midnightblue" d="M303.097,-248.212C324.327,-263.258 352.275,-281.567 379,-294.5 385.968,-297.872 393.411,-301.017 400.92,-303.905"/>
<polygon fill="midnightblue" stroke="midnightblue" points="304.89,-245.19 294.725,-242.201 300.807,-250.876 304.89,-245.19"/>
</g>
<!-- Node4 -->
<g id="node4" class="node"><title>Node4</title>
<g id="a_node4"><a xlink:href="classqtreports_1_1detail_1_1_parser_from_x_m_l.html#ab548bd252b2e13a315daefae6b43f1d6" target="_top" xlink:title="qtreports::detail::\lParserFromXML::ParserFromXML">
<polygon fill="none" stroke="black" points="597,-206.5 597,-236.5 767,-236.5 767,-206.5 597,-206.5"/>
<text text-anchor="start" x="605" y="-224.5" font-family="Helvetica,sans-Serif" font-size="10.00">qtreports::detail::</text>
<text text-anchor="middle" x="682" y="-213.5" font-family="Helvetica,sans-Serif" font-size="10.00">ParserFromXML::ParserFromXML</text>
</a>
</g>
</g>
<!-- Node3&#45;&gt;Node4 -->
<g id="edge3" class="edge"><title>Node3&#45;&gt;Node4</title>
<path fill="none" stroke="midnightblue" d="M545.275,-189.831C568.591,-195.271 594.122,-201.229 616.688,-206.494"/>
<polygon fill="midnightblue" stroke="midnightblue" points="545.968,-186.399 535.434,-187.535 544.377,-193.215 545.968,-186.399"/>
</g>
<!-- Node5&#45;&gt;Node4 -->
<g id="edge5" class="edge"><title>Node5&#45;&gt;Node4</title>
<path fill="none" stroke="midnightblue" d="M546.364,-141.82C551.373,-143.581 556.294,-145.473 561,-147.5 598.318,-163.569 637.696,-189.913 660.771,-206.451"/>
<polygon fill="midnightblue" stroke="midnightblue" points="547.249,-138.426 536.655,-138.596 545.043,-145.069 547.249,-138.426"/>
</g>
<!-- Node6&#45;&gt;Node4 -->
<g id="edge7" class="edge"><title>Node6&#45;&gt;Node4</title>
<path fill="none" stroke="midnightblue" d="M545.275,-253.169C568.591,-247.729 594.122,-241.771 616.688,-236.506"/>
<polygon fill="midnightblue" stroke="midnightblue" points="544.377,-249.785 535.434,-255.465 545.968,-256.601 544.377,-249.785"/>
</g>
<!-- Node7&#45;&gt;Node4 -->
<g id="edge9" class="edge"><title>Node7&#45;&gt;Node4</title>
<path fill="none" stroke="midnightblue" d="M554.56,-407.695C556.78,-406.385 558.933,-404.989 561,-403.5 622.88,-358.926 661.692,-271.765 675.413,-236.673"/>
<polygon fill="midnightblue" stroke="midnightblue" points="552.936,-404.594 545.696,-412.329 556.179,-410.797 552.936,-404.594"/>
</g>
<!-- Node8&#45;&gt;Node4 -->
<g id="edge11" class="edge"><title>Node8&#45;&gt;Node4</title>
<path fill="none" stroke="midnightblue" d="M552.18,-359.327C555.219,-357.835 558.172,-356.229 561,-354.5 611.682,-323.52 653.535,-264.733 671.522,-236.877"/>
<polygon fill="midnightblue" stroke="midnightblue" points="550.566,-356.213 542.844,-363.467 553.404,-362.612 550.566,-356.213"/>
</g>
<!-- Node9&#45;&gt;Node4 -->
<g id="edge13" class="edge"><title>Node9&#45;&gt;Node4</title>
<path fill="none" stroke="midnightblue" d="M554.213,-94.5859C556.534,-95.8341 558.802,-97.1382 561,-98.5 608.676,-128.042 651.045,-180.529 670.189,-206.328"/>
<polygon fill="midnightblue" stroke="midnightblue" points="555.546,-91.3408 545.031,-90.0442 552.443,-97.6152 555.546,-91.3408"/>
</g>
<!-- Node10&#45;&gt;Node4 -->
<g id="edge15" class="edge"><title>Node10&#45;&gt;Node4</title>
<path fill="none" stroke="midnightblue" d="M571.545,-221.5C579.99,-221.5 588.473,-221.5 596.776,-221.5"/>
<polygon fill="midnightblue" stroke="midnightblue" points="571.278,-218 561.278,-221.5 571.278,-225 571.278,-218"/>
</g>
<!-- Node11&#45;&gt;Node4 -->
<g id="edge17" class="edge"><title>Node11&#45;&gt;Node4</title>
<path fill="none" stroke="midnightblue" d="M547.813,-300.211C552.316,-298.381 556.741,-296.474 561,-294.5 597.061,-277.781 635.85,-252.757 659.273,-236.783"/>
<polygon fill="midnightblue" stroke="midnightblue" points="546.53,-296.954 538.49,-303.854 549.078,-303.474 546.53,-296.954"/>
</g>
<!-- Node12&#45;&gt;Node3 -->
<g id="edge19" class="edge"><title>Node12&#45;&gt;Node3</title>
<path fill="none" stroke="midnightblue" d="M352.66,-155.179C366.021,-157.168 379.757,-159.213 392.898,-161.17"/>
<polygon fill="midnightblue" stroke="midnightblue" points="352.938,-151.682 342.531,-153.671 351.907,-158.605 352.938,-151.682"/>
</g>
<!-- Node12&#45;&gt;Node5 -->
<g id="edge20" class="edge"><title>Node12&#45;&gt;Node5</title>
<path fill="none" stroke="midnightblue" d="M352.515,-134.484C367.062,-133.112 382.058,-131.698 396.249,-130.36"/>
<polygon fill="midnightblue" stroke="midnightblue" points="352.158,-131.002 342.531,-135.425 352.816,-137.971 352.158,-131.002"/>
</g>
<!-- Node12&#45;&gt;Node9 -->
<g id="edge21" class="edge"><title>Node12&#45;&gt;Node9</title>
<path fill="none" stroke="midnightblue" d="M327.113,-118.16C343.819,-111.561 362.049,-104.569 379,-98.5 386.882,-95.6781 395.196,-92.8296 403.456,-90.0771"/>
<polygon fill="midnightblue" stroke="midnightblue" points="325.474,-115.044 317.473,-121.989 328.059,-121.55 325.474,-115.044"/>
</g>
<!-- Node12&#45;&gt;Node10 -->
<g id="edge22" class="edge"><title>Node12&#45;&gt;Node10</title>
<path fill="none" stroke="midnightblue" d="M314.704,-167.693C334.252,-177.508 357.373,-188.335 379,-196.5 388.558,-200.108 398.862,-203.455 408.967,-206.45"/>
<polygon fill="midnightblue" stroke="midnightblue" points="316.206,-164.53 305.705,-163.121 313.035,-170.771 316.206,-164.53"/>
</g>
<!-- Node13 -->
<g id="node13" class="node"><title>Node13</title>
<g id="a_node13"><a xlink:href="classqtreports_1_1detail_1_1_parser_from_x_m_l.html#a4f7803080037058f482a499ebc1a51ee" target="_top" xlink:title="Парсит font &#45; данные о шрифте текста ">
<polygon fill="none" stroke="black" points="398,-0.5 398,-30.5 542,-30.5 542,-0.5 398,-0.5"/>
<text text-anchor="start" x="406" y="-18.5" font-family="Helvetica,sans-Serif" font-size="10.00">qtreports::detail::</text>
<text text-anchor="middle" x="470" y="-7.5" font-family="Helvetica,sans-Serif" font-size="10.00">ParserFromXML::parseFont</text>
</a>
</g>
</g>
<!-- Node12&#45;&gt;Node13 -->
<g id="edge23" class="edge"><title>Node12&#45;&gt;Node13</title>
<path fill="none" stroke="midnightblue" d="M290.818,-114.387C311.638,-91.0498 344.154,-58.6814 379,-39.5 385.233,-36.0688 391.983,-33.1081 398.886,-30.5575"/>
<polygon fill="midnightblue" stroke="midnightblue" points="288.173,-112.094 284.219,-121.923 293.44,-116.705 288.173,-112.094"/>
</g>
<!-- Node13&#45;&gt;Node4 -->
<g id="edge24" class="edge"><title>Node13&#45;&gt;Node4</title>
<path fill="none" stroke="midnightblue" d="M551.288,-33.4634C554.676,-35.2847 557.933,-37.2907 561,-39.5 622.88,-84.0739 661.692,-171.235 675.413,-206.327"/>
<polygon fill="midnightblue" stroke="midnightblue" points="552.592,-30.2077 542.06,-29.0607 549.578,-36.5256 552.592,-30.2077"/>
</g>
</g>
</svg>
