<?xml version="1.0" encoding="UTF-8" standalone="no"?>
<!DOCTYPE svg PUBLIC "-//W3C//DTD SVG 1.1//EN"
 "http://www.w3.org/Graphics/SVG/1.1/DTD/svg11.dtd">
<!-- Generated by graphviz version 2.38.0 (20140413.2041)
 -->
<!-- Title: qtreports::detail::TextWidget Pages: 1 -->
<svg width="468pt" height="800pt"
 viewBox="0.00 0.00 468.00 800.00" xmlns="http://www.w3.org/2000/svg" xmlns:xlink="http://www.w3.org/1999/xlink">
<g id="graph0" class="graph" transform="scale(1 1) rotate(0) translate(4 796)">
<title>qtreports::detail::TextWidget</title>
<!-- Node1 -->
<g id="node1" class="node"><title>Node1</title>
<polygon fill="#bfbfbf" stroke="black" points="0,-0.5 0,-123.5 106,-123.5 106,-0.5 0,-0.5"/>
<text text-anchor="start" x="8" y="-111.5" font-family="Helvetica,sans-Serif" font-size="10.00">qtreports::detail::</text>
<text text-anchor="middle" x="53" y="-100.5" font-family="Helvetica,sans-Serif" font-size="10.00">TextWidget</text>
<polyline fill="none" stroke="black" points="0,-93.5 106,-93.5 "/>
<text text-anchor="middle" x="53" y="-81.5" font-family="Helvetica,sans-Serif" font-size="10.00"> </text>
<polyline fill="none" stroke="black" points="0,-74.5 106,-74.5 "/>
<text text-anchor="start" x="8" y="-62.5" font-family="Helvetica,sans-Serif" font-size="10.00">+ TextWidget()</text>
<text text-anchor="start" x="8" y="-51.5" font-family="Helvetica,sans-Serif" font-size="10.00">+ ~TextWidget()</text>
<text text-anchor="start" x="8" y="-40.5" font-family="Helvetica,sans-Serif" font-size="10.00">+ setText()</text>
<text text-anchor="start" x="8" y="-29.5" font-family="Helvetica,sans-Serif" font-size="10.00">+ getText()</text>
<text text-anchor="start" x="8" y="-18.5" font-family="Helvetica,sans-Serif" font-size="10.00">+ setOriginalText()</text>
<text text-anchor="start" x="8" y="-7.5" font-family="Helvetica,sans-Serif" font-size="10.00">+ getOriginalText()</text>
</g>
<!-- Node2 -->
<g id="node2" class="node"><title>Node2</title>
<g id="a_node2"><a xlink:href="classqtreports_1_1detail_1_1_widget.html" target="_top" xlink:title="Базовый класс для тэгов, которые подлежат отображению ">
<polygon fill="none" stroke="black" points="196,-161.5 196,-460.5 296,-460.5 296,-161.5 196,-161.5"/>
<text text-anchor="start" x="204" y="-448.5" font-family="Helvetica,sans-Serif" font-size="10.00">qtreports::detail::</text>
<text text-anchor="middle" x="246" y="-437.5" font-family="Helvetica,sans-Serif" font-size="10.00">Widget</text>
<polyline fill="none" stroke="black" points="196,-430.5 296,-430.5 "/>
<text text-anchor="middle" x="246" y="-418.5" font-family="Helvetica,sans-Serif" font-size="10.00"> </text>
<polyline fill="none" stroke="black" points="196,-411.5 296,-411.5 "/>
<text text-anchor="start" x="204" y="-399.5" font-family="Helvetica,sans-Serif" font-size="10.00">+ Widget()</text>
<text text-anchor="start" x="204" y="-388.5" font-family="Helvetica,sans-Serif" font-size="10.00">+ ~Widget()</text>
<text text-anchor="start" x="204" y="-377.5" font-family="Helvetica,sans-Serif" font-size="10.00">+ setPosition()</text>
<text text-anchor="start" x="204" y="-366.5" font-family="Helvetica,sans-Serif" font-size="10.00">+ setX()</text>
<text text-anchor="start" x="204" y="-355.5" font-family="Helvetica,sans-Serif" font-size="10.00">+ setY()</text>
<text text-anchor="start" x="204" y="-344.5" font-family="Helvetica,sans-Serif" font-size="10.00">+ setSize()</text>
<text text-anchor="start" x="204" y="-333.5" font-family="Helvetica,sans-Serif" font-size="10.00">+ setWidth()</text>
<text text-anchor="start" x="204" y="-322.5" font-family="Helvetica,sans-Serif" font-size="10.00">+ setHeight()</text>
<text text-anchor="start" x="204" y="-311.5" font-family="Helvetica,sans-Serif" font-size="10.00">+ setRect()</text>
<text text-anchor="start" x="204" y="-300.5" font-family="Helvetica,sans-Serif" font-size="10.00">+ setStyle()</text>
<text text-anchor="start" x="204" y="-289.5" font-family="Helvetica,sans-Serif" font-size="10.00">+ setAlignment()</text>
<text text-anchor="start" x="204" y="-278.5" font-family="Helvetica,sans-Serif" font-size="10.00">+ getAlignment()</text>
<text text-anchor="start" x="204" y="-267.5" font-family="Helvetica,sans-Serif" font-size="10.00">+ getPos()</text>
<text text-anchor="start" x="204" y="-256.5" font-family="Helvetica,sans-Serif" font-size="10.00">+ getX()</text>
<text text-anchor="start" x="204" y="-245.5" font-family="Helvetica,sans-Serif" font-size="10.00">+ getY()</text>
<text text-anchor="start" x="204" y="-234.5" font-family="Helvetica,sans-Serif" font-size="10.00">+ getSize()</text>
<text text-anchor="start" x="204" y="-223.5" font-family="Helvetica,sans-Serif" font-size="10.00">+ getWidth()</text>
<text text-anchor="start" x="204" y="-212.5" font-family="Helvetica,sans-Serif" font-size="10.00">+ getHeight()</text>
<text text-anchor="start" x="204" y="-201.5" font-family="Helvetica,sans-Serif" font-size="10.00">+ getRect()</text>
<text text-anchor="start" x="204" y="-190.5" font-family="Helvetica,sans-Serif" font-size="10.00">+ getStyle()</text>
<text text-anchor="start" x="204" y="-179.5" font-family="Helvetica,sans-Serif" font-size="10.00">+ isBold()</text>
<text text-anchor="start" x="204" y="-168.5" font-family="Helvetica,sans-Serif" font-size="10.00">+ setBold()</text>
</a>
</g>
</g>
<!-- Node2&#45;&gt;Node1 -->
<g id="edge1" class="edge"><title>Node2&#45;&gt;Node1</title>
<path fill="none" stroke="midnightblue" d="M189.469,-237.652C161.14,-201.397 127.229,-157.998 100.298,-123.532"/>
<polygon fill="none" stroke="midnightblue" points="186.88,-240.024 195.795,-245.748 192.396,-235.714 186.88,-240.024"/>
</g>
<!-- Node3 -->
<g id="node3" class="node"><title>Node3</title>
<g id="a_node3"><a xlink:href="classqtreports_1_1detail_1_1_object.html" target="_top" xlink:title="Базовый класс для любого тэга ">
<polygon fill="none" stroke="black" points="146.5,-519.5 146.5,-664.5 245.5,-664.5 245.5,-519.5 146.5,-519.5"/>
<text text-anchor="start" x="154.5" y="-652.5" font-family="Helvetica,sans-Serif" font-size="10.00">qtreports::detail::</text>
<text text-anchor="middle" x="196" y="-641.5" font-family="Helvetica,sans-Serif" font-size="10.00">Object</text>
<polyline fill="none" stroke="black" points="146.5,-634.5 245.5,-634.5 "/>
<text text-anchor="middle" x="196" y="-622.5" font-family="Helvetica,sans-Serif" font-size="10.00"> </text>
<polyline fill="none" stroke="black" points="146.5,-615.5 245.5,-615.5 "/>
<text text-anchor="start" x="154.5" y="-603.5" font-family="Helvetica,sans-Serif" font-size="10.00">+ Object()</text>
<text text-anchor="start" x="154.5" y="-592.5" font-family="Helvetica,sans-Serif" font-size="10.00">+ Object()</text>
<text text-anchor="start" x="154.5" y="-581.5" font-family="Helvetica,sans-Serif" font-size="10.00">+ ~Object()</text>
<text text-anchor="start" x="154.5" y="-570.5" font-family="Helvetica,sans-Serif" font-size="10.00">+ setName()</text>
<text text-anchor="start" x="154.5" y="-559.5" font-family="Helvetica,sans-Serif" font-size="10.00">+ getName()</text>
<text text-anchor="start" x="154.5" y="-548.5" font-family="Helvetica,sans-Serif" font-size="10.00">+ setTagName()</text>
<text text-anchor="start" x="154.5" y="-537.5" font-family="Helvetica,sans-Serif" font-size="10.00">+ getTagName()</text>
<text text-anchor="start" x="154.5" y="-526.5" font-family="Helvetica,sans-Serif" font-size="10.00">+ getLastError()</text>
</a>
</g>
</g>
<!-- Node3&#45;&gt;Node2 -->
<g id="edge2" class="edge"><title>Node3&#45;&gt;Node2</title>
<path fill="none" stroke="midnightblue" d="M210.656,-509.219C213.412,-493.841 216.371,-477.328 219.362,-460.639"/>
<polygon fill="none" stroke="midnightblue" points="207.195,-508.69 208.876,-519.151 214.085,-509.925 207.195,-508.69"/>
</g>
<!-- Node4 -->
<g id="node4" class="node"><title>Node4</title>
<polygon fill="none" stroke="#bfbfbf" points="52.5,-734.5 52.5,-791.5 105.5,-791.5 105.5,-734.5 52.5,-734.5"/>
<text text-anchor="middle" x="79" y="-779.5" font-family="Helvetica,sans-Serif" font-size="10.00">QString</text>
<polyline fill="none" stroke="#bfbfbf" points="52.5,-772.5 105.5,-772.5 "/>
<text text-anchor="middle" x="79" y="-760.5" font-family="Helvetica,sans-Serif" font-size="10.00"> </text>
<polyline fill="none" stroke="#bfbfbf" points="52.5,-753.5 105.5,-753.5 "/>
<text text-anchor="middle" x="79" y="-741.5" font-family="Helvetica,sans-Serif" font-size="10.00"> </text>
</g>
<!-- Node4&#45;&gt;Node1 -->
<g id="edge8" class="edge"><title>Node4&#45;&gt;Node1</title>
<path fill="none" stroke="#404040" d="M69.8089,-734.219C54.7166,-686.965 25.3275,-587.631 15,-501 -0.295354,-372.696 21.2554,-222.548 37.6095,-135.553"/>
<polygon fill="none" stroke="#404040" points="37.6213,-135.491 34.8212,-128.846 39.8783,-123.705 42.6784,-130.35 37.6213,-135.491"/>
<text text-anchor="middle" x="53.5" y="-493" font-family="Helvetica,sans-Serif" font-size="10.00"> #m_text</text>
<text text-anchor="middle" x="53.5" y="-482" font-family="Helvetica,sans-Serif" font-size="10.00">#m_originalText</text>
</g>
<!-- Node4&#45;&gt;Node2 -->
<g id="edge4" class="edge"><title>Node4&#45;&gt;Node2</title>
<path fill="none" stroke="#404040" d="M74.7506,-734.381C68.7862,-688.207 61.4107,-593.108 88,-519 108.637,-461.482 151.527,-406.997 187.419,-368.375"/>
<polygon fill="none" stroke="#404040" points="187.659,-368.121 188.873,-361.013 195.901,-359.399 194.688,-366.507 187.659,-368.121"/>
<text text-anchor="middle" x="112.5" y="-589.5" font-family="Helvetica,sans-Serif" font-size="10.00"> #m_style</text>
</g>
<!-- Node4&#45;&gt;Node3 -->
<g id="edge3" class="edge"><title>Node4&#45;&gt;Node3</title>
<path fill="none" stroke="#404040" d="M98.0585,-734.471C109.457,-718.006 124.596,-696.139 139.556,-674.531"/>
<polygon fill="none" stroke="#404040" points="139.571,-674.508 139.698,-667.298 146.402,-664.642 146.275,-671.852 139.571,-674.508"/>
<text text-anchor="middle" x="167" y="-708" font-family="Helvetica,sans-Serif" font-size="10.00"> #m_tagName</text>
<text text-anchor="middle" x="167" y="-697" font-family="Helvetica,sans-Serif" font-size="10.00">#m_name</text>
<text text-anchor="middle" x="167" y="-686" font-family="Helvetica,sans-Serif" font-size="10.00">#m_lastError</text>
</g>
<!-- Node5 -->
<g id="node5" class="node"><title>Node5</title>
<polygon fill="none" stroke="#bfbfbf" points="263.5,-563.5 263.5,-620.5 300.5,-620.5 300.5,-563.5 263.5,-563.5"/>
<text text-anchor="middle" x="282" y="-608.5" font-family="Helvetica,sans-Serif" font-size="10.00">bool</text>
<polyline fill="none" stroke="#bfbfbf" points="263.5,-601.5 300.5,-601.5 "/>
<text text-anchor="middle" x="282" y="-589.5" font-family="Helvetica,sans-Serif" font-size="10.00"> </text>
<polyline fill="none" stroke="#bfbfbf" points="263.5,-582.5 300.5,-582.5 "/>
<text text-anchor="middle" x="282" y="-570.5" font-family="Helvetica,sans-Serif" font-size="10.00"> </text>
</g>
<!-- Node5&#45;&gt;Node2 -->
<g id="edge5" class="edge"><title>Node5&#45;&gt;Node2</title>
<path fill="none" stroke="#404040" d="M275.665,-563.156C271.825,-545.44 267.087,-521.967 264,-501 262.65,-491.829 261.379,-482.391 260.186,-472.857"/>
<polygon fill="none" stroke="#404040" points="260.162,-472.654 255.469,-467.179 258.718,-460.741 263.411,-466.216 260.162,-472.654"/>
<text text-anchor="middle" x="291.5" y="-487.5" font-family="Helvetica,sans-Serif" font-size="10.00"> #m_isBold</text>
</g>
<!-- Node6 -->
<g id="node6" class="node"><title>Node6</title>
<polygon fill="none" stroke="#bfbfbf" points="319,-563.5 319,-620.5 363,-620.5 363,-563.5 319,-563.5"/>
<text text-anchor="middle" x="341" y="-608.5" font-family="Helvetica,sans-Serif" font-size="10.00">QRect</text>
<polyline fill="none" stroke="#bfbfbf" points="319,-601.5 363,-601.5 "/>
<text text-anchor="middle" x="341" y="-589.5" font-family="Helvetica,sans-Serif" font-size="10.00"> </text>
<polyline fill="none" stroke="#bfbfbf" points="319,-582.5 363,-582.5 "/>
<text text-anchor="middle" x="341" y="-570.5" font-family="Helvetica,sans-Serif" font-size="10.00"> </text>
</g>
<!-- Node6&#45;&gt;Node2 -->
<g id="edge6" class="edge"><title>Node6&#45;&gt;Node2</title>
<path fill="none" stroke="#404040" d="M337.3,-563.427C333.818,-540.498 327.811,-507.181 319,-479 313.821,-462.437 307.511,-445.306 300.792,-428.611"/>
<polygon fill="none" stroke="#404040" points="300.639,-428.236 294.661,-424.204 296.084,-417.134 302.062,-421.167 300.639,-428.236"/>
<text text-anchor="middle" x="348" y="-487.5" font-family="Helvetica,sans-Serif" font-size="10.00"> #m_rect</text>
</g>
<!-- Node7 -->
<g id="node7" class="node"><title>Node7</title>
<polygon fill="none" stroke="#bfbfbf" points="381.5,-563.5 381.5,-620.5 446.5,-620.5 446.5,-563.5 381.5,-563.5"/>
<text text-anchor="middle" x="414" y="-608.5" font-family="Helvetica,sans-Serif" font-size="10.00">Alignment</text>
<polyline fill="none" stroke="#bfbfbf" points="381.5,-601.5 446.5,-601.5 "/>
<text text-anchor="middle" x="414" y="-589.5" font-family="Helvetica,sans-Serif" font-size="10.00"> </text>
<polyline fill="none" stroke="#bfbfbf" points="381.5,-582.5 446.5,-582.5 "/>
<text text-anchor="middle" x="414" y="-570.5" font-family="Helvetica,sans-Serif" font-size="10.00"> </text>
</g>
<!-- Node7&#45;&gt;Node2 -->
<g id="edge7" class="edge"><title>Node7&#45;&gt;Node2</title>
<path fill="none" stroke="#404040" d="M407.043,-563.263C400.571,-539.941 389.709,-506.157 375,-479 355.477,-442.956 328.377,-406.517 304.052,-376.914"/>
<polygon fill="none" stroke="#404040" points="303.939,-376.778 297.027,-374.723 296.266,-367.552 303.178,-369.607 303.939,-376.778"/>
<text text-anchor="middle" x="422.5" y="-487.5" font-family="Helvetica,sans-Serif" font-size="10.00"> #m_alignment</text>
</g>
</g>
</svg>
