<?xml version="1.0" encoding="UTF-8" standalone="no"?>
<!DOCTYPE svg PUBLIC "-//W3C//DTD SVG 1.1//EN"
 "http://www.w3.org/Graphics/SVG/1.1/DTD/svg11.dtd">
<!-- Generated by graphviz version 2.38.0 (20140413.2041)
 -->
<!-- Title: qtreports::detail::ParserFromXML::parseReportElement Pages: 1 -->
<svg width="564pt" height="159pt"
 viewBox="0.00 0.00 564.00 158.50" xmlns="http://www.w3.org/2000/svg" xmlns:xlink="http://www.w3.org/1999/xlink">
<g id="graph0" class="graph" transform="scale(1 1) rotate(0) translate(4 154.5)">
<title>qtreports::detail::ParserFromXML::parseReportElement</title>
<!-- Node1 -->
<g id="node1" class="node"><title>Node1</title>
<polygon fill="#bfbfbf" stroke="black" points="0,-49 0,-90 154,-90 154,-49 0,-49"/>
<text text-anchor="start" x="8" y="-78" font-family="Helvetica,sans-Serif" font-size="10.00">qtreports::detail::</text>
<text text-anchor="start" x="8" y="-67" font-family="Helvetica,sans-Serif" font-size="10.00">ParserFromXML::parseReport</text>
<text text-anchor="middle" x="77" y="-56" font-family="Helvetica,sans-Serif" font-size="10.00">Element</text>
</g>
<!-- Node2 -->
<g id="node2" class="node"><title>Node2</title>
<g id="a_node2"><a xlink:href="classqtreports_1_1detail_1_1_parser_from_x_m_l.html#ab1cbf7385fa2d56c5e8526bf97cda9b1" target="_top" xlink:title="qtreports::detail::\lParserFromXML::getRequired\lAttribute">
<polygon fill="none" stroke="black" points="201.5,-109 201.5,-150 354.5,-150 354.5,-109 201.5,-109"/>
<text text-anchor="start" x="209.5" y="-138" font-family="Helvetica,sans-Serif" font-size="10.00">qtreports::detail::</text>
<text text-anchor="start" x="209.5" y="-127" font-family="Helvetica,sans-Serif" font-size="10.00">ParserFromXML::getRequired</text>
<text text-anchor="middle" x="278" y="-116" font-family="Helvetica,sans-Serif" font-size="10.00">Attribute</text>
</a>
</g>
</g>
<!-- Node1&#45;&gt;Node2 -->
<g id="edge1" class="edge"><title>Node1&#45;&gt;Node2</title>
<path fill="none" stroke="midnightblue" d="M146.206,-90.0647C163.294,-95.2168 181.753,-100.782 199.266,-106.063"/>
<polygon fill="midnightblue" stroke="midnightblue" points="198.298,-109.426 208.883,-108.962 200.319,-102.724 198.298,-109.426"/>
</g>
<!-- Node4 -->
<g id="node4" class="node"><title>Node4</title>
<g id="a_node4"><a xlink:href="classqtreports_1_1detail_1_1_parser_from_x_m_l.html#a478329a44761310039078ee6871a355d" target="_top" xlink:title="qtreports::detail::\lParserFromXML::getOptional\lAttribute">
<polygon fill="none" stroke="black" points="202,-49 202,-90 354,-90 354,-49 202,-49"/>
<text text-anchor="start" x="210" y="-78" font-family="Helvetica,sans-Serif" font-size="10.00">qtreports::detail::</text>
<text text-anchor="start" x="210" y="-67" font-family="Helvetica,sans-Serif" font-size="10.00">ParserFromXML::getOptional</text>
<text text-anchor="middle" x="278" y="-56" font-family="Helvetica,sans-Serif" font-size="10.00">Attribute</text>
</a>
</g>
</g>
<!-- Node1&#45;&gt;Node4 -->
<g id="edge3" class="edge"><title>Node1&#45;&gt;Node4</title>
<path fill="none" stroke="midnightblue" d="M154.085,-69.5C166.466,-69.5 179.359,-69.5 191.938,-69.5"/>
<polygon fill="midnightblue" stroke="midnightblue" points="191.943,-73.0001 201.943,-69.5 191.943,-66.0001 191.943,-73.0001"/>
</g>
<!-- Node5 -->
<g id="node5" class="node"><title>Node5</title>
<g id="a_node5"><a xlink:href="classqtreports_1_1detail_1_1_parser_from_x_m_l.html#ace9dca09d283384d721c2a985991c9bf" target="_top" xlink:title="qtreports::detail::\lParserFromXML::goToElementEnd">
<polygon fill="none" stroke="black" points="190,-0.5 190,-30.5 366,-30.5 366,-0.5 190,-0.5"/>
<text text-anchor="start" x="198" y="-18.5" font-family="Helvetica,sans-Serif" font-size="10.00">qtreports::detail::</text>
<text text-anchor="middle" x="278" y="-7.5" font-family="Helvetica,sans-Serif" font-size="10.00">ParserFromXML::goToElementEnd</text>
</a>
</g>
</g>
<!-- Node1&#45;&gt;Node5 -->
<g id="edge5" class="edge"><title>Node1&#45;&gt;Node5</title>
<path fill="none" stroke="midnightblue" d="M153.801,-48.9309C172.888,-43.7516 193.21,-38.2371 211.73,-33.2115"/>
<polygon fill="midnightblue" stroke="midnightblue" points="212.789,-36.5508 221.523,-30.5541 210.955,-29.7952 212.789,-36.5508"/>
</g>
<!-- Node3 -->
<g id="node3" class="node"><title>Node3</title>
<g id="a_node3"><a xlink:href="classqtreports_1_1detail_1_1_parser_from_x_m_l.html#ad0cab06b62d590495eaa6a16465ed2b4" target="_top" xlink:title="qtreports::detail::\lParserFromXML::getAttribute">
<polygon fill="none" stroke="black" points="402,-84.5 402,-114.5 556,-114.5 556,-84.5 402,-84.5"/>
<text text-anchor="start" x="410" y="-102.5" font-family="Helvetica,sans-Serif" font-size="10.00">qtreports::detail::</text>
<text text-anchor="middle" x="479" y="-91.5" font-family="Helvetica,sans-Serif" font-size="10.00">ParserFromXML::getAttribute</text>
</a>
</g>
</g>
<!-- Node2&#45;&gt;Node3 -->
<g id="edge2" class="edge"><title>Node2&#45;&gt;Node3</title>
<path fill="none" stroke="midnightblue" d="M354.517,-118.116C366.75,-116.271 379.498,-114.35 391.958,-112.471"/>
<polygon fill="midnightblue" stroke="midnightblue" points="392.508,-115.928 401.874,-110.976 391.464,-109.006 392.508,-115.928"/>
</g>
<!-- Node4&#45;&gt;Node3 -->
<g id="edge4" class="edge"><title>Node4&#45;&gt;Node3</title>
<path fill="none" stroke="midnightblue" d="M354.233,-80.8417C366.566,-82.7009 379.428,-84.6399 391.997,-86.5348"/>
<polygon fill="midnightblue" stroke="midnightblue" points="391.589,-90.0127 401.999,-88.0426 392.633,-83.0909 391.589,-90.0127"/>
</g>
</g>
</svg>
