<?xml version="1.0" encoding="UTF-8" standalone="no"?>
<!DOCTYPE svg PUBLIC "-//W3C//DTD SVG 1.1//EN"
 "http://www.w3.org/Graphics/SVG/1.1/DTD/svg11.dtd">
<!-- Generated by graphviz version 2.38.0 (20140413.2041)
 -->
<!-- Title: qtreports::detail::TextWidget Pages: 1 -->
<svg width="474pt" height="887pt"
 viewBox="0.00 0.00 473.50 887.00" xmlns="http://www.w3.org/2000/svg" xmlns:xlink="http://www.w3.org/1999/xlink">
<g id="graph0" class="graph" transform="scale(1 1) rotate(0) translate(4 883)">
<title>qtreports::detail::TextWidget</title>
<!-- Node1 -->
<g id="node1" class="node"><title>Node1</title>
<polygon fill="#bfbfbf" stroke="black" points="177.5,-171.5 177.5,-305.5 283.5,-305.5 283.5,-171.5 177.5,-171.5"/>
<text text-anchor="start" x="185.5" y="-293.5" font-family="Helvetica,sans-Serif" font-size="10.00">qtreports::detail::</text>
<text text-anchor="middle" x="230.5" y="-282.5" font-family="Helvetica,sans-Serif" font-size="10.00">TextWidget</text>
<polyline fill="none" stroke="black" points="177.5,-275.5 283.5,-275.5 "/>
<text text-anchor="start" x="185.5" y="-263.5" font-family="Helvetica,sans-Serif" font-size="10.00"># m_text</text>
<text text-anchor="start" x="185.5" y="-252.5" font-family="Helvetica,sans-Serif" font-size="10.00"># m_originalText</text>
<polyline fill="none" stroke="black" points="177.5,-245.5 283.5,-245.5 "/>
<text text-anchor="start" x="185.5" y="-233.5" font-family="Helvetica,sans-Serif" font-size="10.00">+ TextWidget()</text>
<text text-anchor="start" x="185.5" y="-222.5" font-family="Helvetica,sans-Serif" font-size="10.00">+ ~TextWidget()</text>
<text text-anchor="start" x="185.5" y="-211.5" font-family="Helvetica,sans-Serif" font-size="10.00">+ setText()</text>
<text text-anchor="start" x="185.5" y="-200.5" font-family="Helvetica,sans-Serif" font-size="10.00">+ getText()</text>
<text text-anchor="start" x="185.5" y="-189.5" font-family="Helvetica,sans-Serif" font-size="10.00">+ setOriginalText()</text>
<text text-anchor="start" x="185.5" y="-178.5" font-family="Helvetica,sans-Serif" font-size="10.00">+ getOriginalText()</text>
</g>
<!-- Node4 -->
<g id="node4" class="node"><title>Node4</title>
<g id="a_node4"><a xlink:href="classqtreports_1_1detail_1_1_image.html" target="_top" xlink:title="Класс, реализующий тэг &lt;image&gt; ">
<polygon fill="none" stroke="black" points="0,-17 0,-118 99,-118 99,-17 0,-17"/>
<text text-anchor="start" x="8" y="-106" font-family="Helvetica,sans-Serif" font-size="10.00">qtreports::detail::</text>
<text text-anchor="middle" x="49.5" y="-95" font-family="Helvetica,sans-Serif" font-size="10.00">Image</text>
<polyline fill="none" stroke="black" points="0,-88 99,-88 "/>
<text text-anchor="start" x="8" y="-76" font-family="Helvetica,sans-Serif" font-size="10.00">&#45; m_image</text>
<polyline fill="none" stroke="black" points="0,-69 99,-69 "/>
<text text-anchor="start" x="8" y="-57" font-family="Helvetica,sans-Serif" font-size="10.00">+ Image()</text>
<text text-anchor="start" x="8" y="-46" font-family="Helvetica,sans-Serif" font-size="10.00">+ ~Image()</text>
<text text-anchor="start" x="8" y="-35" font-family="Helvetica,sans-Serif" font-size="10.00">+ setImage()</text>
<text text-anchor="start" x="8" y="-24" font-family="Helvetica,sans-Serif" font-size="10.00">+ getImage()</text>
</a>
</g>
</g>
<!-- Node1&#45;&gt;Node4 -->
<g id="edge3" class="edge"><title>Node1&#45;&gt;Node4</title>
<path fill="none" stroke="midnightblue" d="M169.544,-189.257C149.547,-172.659 127.575,-153.568 108.5,-135 103.081,-129.725 97.5746,-124.033 92.2132,-118.277"/>
<polygon fill="none" stroke="midnightblue" points="167.449,-192.066 177.391,-195.728 171.903,-186.665 167.449,-192.066"/>
</g>
<!-- Node5 -->
<g id="node5" class="node"><title>Node5</title>
<g id="a_node5"><a xlink:href="classqtreports_1_1detail_1_1_measure.html" target="_top" xlink:title="{qtreports::detail::\lMeasure\n|&#45; m_className\l&#45; m_calculation\l|+ Measure()\l+ ~Measure()\l+ setClassName()\l+ setCalculation()\l+ getClassName()\l+ getCalculation()\l}">
<polygon fill="none" stroke="black" points="117.5,-0.5 117.5,-134.5 223.5,-134.5 223.5,-0.5 117.5,-0.5"/>
<text text-anchor="start" x="125.5" y="-122.5" font-family="Helvetica,sans-Serif" font-size="10.00">qtreports::detail::</text>
<text text-anchor="middle" x="170.5" y="-111.5" font-family="Helvetica,sans-Serif" font-size="10.00">Measure</text>
<polyline fill="none" stroke="black" points="117.5,-104.5 223.5,-104.5 "/>
<text text-anchor="start" x="125.5" y="-92.5" font-family="Helvetica,sans-Serif" font-size="10.00">&#45; m_className</text>
<text text-anchor="start" x="125.5" y="-81.5" font-family="Helvetica,sans-Serif" font-size="10.00">&#45; m_calculation</text>
<polyline fill="none" stroke="black" points="117.5,-74.5 223.5,-74.5 "/>
<text text-anchor="start" x="125.5" y="-62.5" font-family="Helvetica,sans-Serif" font-size="10.00">+ Measure()</text>
<text text-anchor="start" x="125.5" y="-51.5" font-family="Helvetica,sans-Serif" font-size="10.00">+ ~Measure()</text>
<text text-anchor="start" x="125.5" y="-40.5" font-family="Helvetica,sans-Serif" font-size="10.00">+ setClassName()</text>
<text text-anchor="start" x="125.5" y="-29.5" font-family="Helvetica,sans-Serif" font-size="10.00">+ setCalculation()</text>
<text text-anchor="start" x="125.5" y="-18.5" font-family="Helvetica,sans-Serif" font-size="10.00">+ getClassName()</text>
<text text-anchor="start" x="125.5" y="-7.5" font-family="Helvetica,sans-Serif" font-size="10.00">+ getCalculation()</text>
</a>
</g>
</g>
<!-- Node1&#45;&gt;Node5 -->
<g id="edge4" class="edge"><title>Node1&#45;&gt;Node5</title>
<path fill="none" stroke="midnightblue" d="M203.526,-161.522C200.339,-152.547 197.106,-143.441 193.973,-134.617"/>
<polygon fill="none" stroke="midnightblue" points="200.315,-162.939 206.959,-171.192 206.911,-160.597 200.315,-162.939"/>
</g>
<!-- Node6 -->
<g id="node6" class="node"><title>Node6</title>
<g id="a_node6"><a xlink:href="classqtreports_1_1detail_1_1_static_text.html" target="_top" xlink:title="Класс, реализующий тэг &lt;staticText&gt; ">
<polygon fill="none" stroke="black" points="242,-28 242,-107 341,-107 341,-28 242,-28"/>
<text text-anchor="start" x="250" y="-95" font-family="Helvetica,sans-Serif" font-size="10.00">qtreports::detail::</text>
<text text-anchor="middle" x="291.5" y="-84" font-family="Helvetica,sans-Serif" font-size="10.00">StaticText</text>
<polyline fill="none" stroke="black" points="242,-77 341,-77 "/>
<text text-anchor="middle" x="291.5" y="-65" font-family="Helvetica,sans-Serif" font-size="10.00"> </text>
<polyline fill="none" stroke="black" points="242,-58 341,-58 "/>
<text text-anchor="start" x="250" y="-46" font-family="Helvetica,sans-Serif" font-size="10.00">+ StaticText()</text>
<text text-anchor="start" x="250" y="-35" font-family="Helvetica,sans-Serif" font-size="10.00">+ ~StaticText()</text>
</a>
</g>
</g>
<!-- Node1&#45;&gt;Node6 -->
<g id="edge5" class="edge"><title>Node1&#45;&gt;Node6</title>
<path fill="none" stroke="midnightblue" d="M257.851,-161.723C264.643,-142.907 271.645,-123.507 277.492,-107.31"/>
<polygon fill="none" stroke="midnightblue" points="254.537,-160.597 254.434,-171.192 261.121,-162.974 254.537,-160.597"/>
</g>
<!-- Node7 -->
<g id="node7" class="node"><title>Node7</title>
<g id="a_node7"><a xlink:href="classqtreports_1_1detail_1_1_text_field.html" target="_top" xlink:title="Класс, реализующий тэг &lt;textField&gt; ">
<polygon fill="none" stroke="black" points="359.5,-17 359.5,-118 465.5,-118 465.5,-17 359.5,-17"/>
<text text-anchor="start" x="367.5" y="-106" font-family="Helvetica,sans-Serif" font-size="10.00">qtreports::detail::</text>
<text text-anchor="middle" x="412.5" y="-95" font-family="Helvetica,sans-Serif" font-size="10.00">TextField</text>
<polyline fill="none" stroke="black" points="359.5,-88 465.5,-88 "/>
<text text-anchor="start" x="367.5" y="-76" font-family="Helvetica,sans-Serif" font-size="10.00">&#45; m_className</text>
<polyline fill="none" stroke="black" points="359.5,-69 465.5,-69 "/>
<text text-anchor="start" x="367.5" y="-57" font-family="Helvetica,sans-Serif" font-size="10.00">+ TextField()</text>
<text text-anchor="start" x="367.5" y="-46" font-family="Helvetica,sans-Serif" font-size="10.00">+ ~TextField()</text>
<text text-anchor="start" x="367.5" y="-35" font-family="Helvetica,sans-Serif" font-size="10.00">+ setClassName()</text>
<text text-anchor="start" x="367.5" y="-24" font-family="Helvetica,sans-Serif" font-size="10.00">+ getClassName()</text>
</a>
</g>
</g>
<!-- Node1&#45;&gt;Node7 -->
<g id="edge6" class="edge"><title>Node1&#45;&gt;Node7</title>
<path fill="none" stroke="midnightblue" d="M291.469,-187.73C310.757,-171.379 331.888,-152.819 350.5,-135 356.087,-129.651 361.806,-123.914 367.403,-118.132"/>
<polygon fill="none" stroke="midnightblue" points="289.001,-185.233 283.613,-194.355 293.514,-190.584 289.001,-185.233"/>
</g>
<!-- Node2 -->
<g id="node2" class="node"><title>Node2</title>
<g id="a_node2"><a xlink:href="classqtreports_1_1detail_1_1_widget.html" target="_top" xlink:title="Базовый класс для тэгов, которые подлежат отображению ">
<polygon fill="none" stroke="black" points="180.5,-342.5 180.5,-674.5 280.5,-674.5 280.5,-342.5 180.5,-342.5"/>
<text text-anchor="start" x="188.5" y="-662.5" font-family="Helvetica,sans-Serif" font-size="10.00">qtreports::detail::</text>
<text text-anchor="middle" x="230.5" y="-651.5" font-family="Helvetica,sans-Serif" font-size="10.00">Widget</text>
<polyline fill="none" stroke="black" points="180.5,-644.5 280.5,-644.5 "/>
<text text-anchor="start" x="188.5" y="-632.5" font-family="Helvetica,sans-Serif" font-size="10.00"># m_isBold</text>
<text text-anchor="start" x="188.5" y="-621.5" font-family="Helvetica,sans-Serif" font-size="10.00"># m_rect</text>
<text text-anchor="start" x="188.5" y="-610.5" font-family="Helvetica,sans-Serif" font-size="10.00"># m_alignment</text>
<text text-anchor="start" x="188.5" y="-599.5" font-family="Helvetica,sans-Serif" font-size="10.00"># m_style</text>
<polyline fill="none" stroke="black" points="180.5,-592.5 280.5,-592.5 "/>
<text text-anchor="start" x="188.5" y="-580.5" font-family="Helvetica,sans-Serif" font-size="10.00">+ Widget()</text>
<text text-anchor="start" x="188.5" y="-569.5" font-family="Helvetica,sans-Serif" font-size="10.00">+ ~Widget()</text>
<text text-anchor="start" x="188.5" y="-558.5" font-family="Helvetica,sans-Serif" font-size="10.00">+ setPosition()</text>
<text text-anchor="start" x="188.5" y="-547.5" font-family="Helvetica,sans-Serif" font-size="10.00">+ setX()</text>
<text text-anchor="start" x="188.5" y="-536.5" font-family="Helvetica,sans-Serif" font-size="10.00">+ setY()</text>
<text text-anchor="start" x="188.5" y="-525.5" font-family="Helvetica,sans-Serif" font-size="10.00">+ setSize()</text>
<text text-anchor="start" x="188.5" y="-514.5" font-family="Helvetica,sans-Serif" font-size="10.00">+ setWidth()</text>
<text text-anchor="start" x="188.5" y="-503.5" font-family="Helvetica,sans-Serif" font-size="10.00">+ setHeight()</text>
<text text-anchor="start" x="188.5" y="-492.5" font-family="Helvetica,sans-Serif" font-size="10.00">+ setRect()</text>
<text text-anchor="start" x="188.5" y="-481.5" font-family="Helvetica,sans-Serif" font-size="10.00">+ setStyle()</text>
<text text-anchor="start" x="188.5" y="-470.5" font-family="Helvetica,sans-Serif" font-size="10.00">+ setAlignment()</text>
<text text-anchor="start" x="188.5" y="-459.5" font-family="Helvetica,sans-Serif" font-size="10.00">+ getAlignment()</text>
<text text-anchor="start" x="188.5" y="-448.5" font-family="Helvetica,sans-Serif" font-size="10.00">+ getPos()</text>
<text text-anchor="start" x="188.5" y="-437.5" font-family="Helvetica,sans-Serif" font-size="10.00">+ getX()</text>
<text text-anchor="start" x="188.5" y="-426.5" font-family="Helvetica,sans-Serif" font-size="10.00">+ getY()</text>
<text text-anchor="start" x="188.5" y="-415.5" font-family="Helvetica,sans-Serif" font-size="10.00">+ getSize()</text>
<text text-anchor="start" x="188.5" y="-404.5" font-family="Helvetica,sans-Serif" font-size="10.00">+ getWidth()</text>
<text text-anchor="start" x="188.5" y="-393.5" font-family="Helvetica,sans-Serif" font-size="10.00">+ getHeight()</text>
<text text-anchor="start" x="188.5" y="-382.5" font-family="Helvetica,sans-Serif" font-size="10.00">+ getRect()</text>
<text text-anchor="start" x="188.5" y="-371.5" font-family="Helvetica,sans-Serif" font-size="10.00">+ getStyle()</text>
<text text-anchor="start" x="188.5" y="-360.5" font-family="Helvetica,sans-Serif" font-size="10.00">+ isBold()</text>
<text text-anchor="start" x="188.5" y="-349.5" font-family="Helvetica,sans-Serif" font-size="10.00">+ setBold()</text>
</a>
</g>
</g>
<!-- Node2&#45;&gt;Node1 -->
<g id="edge1" class="edge"><title>Node2&#45;&gt;Node1</title>
<path fill="none" stroke="midnightblue" d="M230.5,-332.229C230.5,-322.999 230.5,-314.059 230.5,-305.607"/>
<polygon fill="none" stroke="midnightblue" points="227,-332.349 230.5,-342.349 234,-332.349 227,-332.349"/>
</g>
<!-- Node3 -->
<g id="node3" class="node"><title>Node3</title>
<g id="a_node3"><a xlink:href="classqtreports_1_1detail_1_1_object.html" target="_top" xlink:title="Базовый класс для любого тэга ">
<polygon fill="none" stroke="black" points="181,-711.5 181,-878.5 280,-878.5 280,-711.5 181,-711.5"/>
<text text-anchor="start" x="189" y="-866.5" font-family="Helvetica,sans-Serif" font-size="10.00">qtreports::detail::</text>
<text text-anchor="middle" x="230.5" y="-855.5" font-family="Helvetica,sans-Serif" font-size="10.00">Object</text>
<polyline fill="none" stroke="black" points="181,-848.5 280,-848.5 "/>
<text text-anchor="start" x="189" y="-836.5" font-family="Helvetica,sans-Serif" font-size="10.00"># m_name</text>
<text text-anchor="start" x="189" y="-825.5" font-family="Helvetica,sans-Serif" font-size="10.00"># m_tagName</text>
<text text-anchor="start" x="189" y="-814.5" font-family="Helvetica,sans-Serif" font-size="10.00"># m_lastError</text>
<polyline fill="none" stroke="black" points="181,-807.5 280,-807.5 "/>
<text text-anchor="start" x="189" y="-795.5" font-family="Helvetica,sans-Serif" font-size="10.00">+ Object()</text>
<text text-anchor="start" x="189" y="-784.5" font-family="Helvetica,sans-Serif" font-size="10.00">+ Object()</text>
<text text-anchor="start" x="189" y="-773.5" font-family="Helvetica,sans-Serif" font-size="10.00">+ ~Object()</text>
<text text-anchor="start" x="189" y="-762.5" font-family="Helvetica,sans-Serif" font-size="10.00">+ setName()</text>
<text text-anchor="start" x="189" y="-751.5" font-family="Helvetica,sans-Serif" font-size="10.00">+ getName()</text>
<text text-anchor="start" x="189" y="-740.5" font-family="Helvetica,sans-Serif" font-size="10.00">+ setTagName()</text>
<text text-anchor="start" x="189" y="-729.5" font-family="Helvetica,sans-Serif" font-size="10.00">+ getTagName()</text>
<text text-anchor="start" x="189" y="-718.5" font-family="Helvetica,sans-Serif" font-size="10.00">+ getLastError()</text>
</a>
</g>
</g>
<!-- Node3&#45;&gt;Node2 -->
<g id="edge2" class="edge"><title>Node3&#45;&gt;Node2</title>
<path fill="none" stroke="midnightblue" d="M230.5,-701.284C230.5,-692.609 230.5,-683.654 230.5,-674.571"/>
<polygon fill="none" stroke="midnightblue" points="227,-701.329 230.5,-711.329 234,-701.329 227,-701.329"/>
</g>
</g>
</svg>
