<?xml version="1.0" encoding="UTF-8" standalone="no"?>
<!DOCTYPE svg PUBLIC "-//W3C//DTD SVG 1.1//EN"
 "http://www.w3.org/Graphics/SVG/1.1/DTD/svg11.dtd">
<!-- Generated by graphviz version 2.38.0 (20140413.2041)
 -->
<!-- Title: qtreports::detail::Detail Pages: 1 -->
<svg width="309pt" height="613pt"
 viewBox="0.00 0.00 308.50 613.00" xmlns="http://www.w3.org/2000/svg" xmlns:xlink="http://www.w3.org/1999/xlink">
<g id="graph0" class="graph" transform="scale(1 1) rotate(0) translate(4 609)">
<title>qtreports::detail::Detail</title>
<!-- Node1 -->
<g id="node1" class="node"><title>Node1</title>
<polygon fill="#bfbfbf" stroke="black" points="126,-0.5 126,-79.5 225,-79.5 225,-0.5 126,-0.5"/>
<text text-anchor="start" x="134" y="-67.5" font-family="Helvetica,sans-Serif" font-size="10.00">qtreports::detail::</text>
<text text-anchor="middle" x="175.5" y="-56.5" font-family="Helvetica,sans-Serif" font-size="10.00">Detail</text>
<polyline fill="none" stroke="black" points="126,-49.5 225,-49.5 "/>
<text text-anchor="middle" x="175.5" y="-37.5" font-family="Helvetica,sans-Serif" font-size="10.00"> </text>
<polyline fill="none" stroke="black" points="126,-30.5 225,-30.5 "/>
<text text-anchor="start" x="134" y="-18.5" font-family="Helvetica,sans-Serif" font-size="10.00">+ Detail()</text>
<text text-anchor="start" x="134" y="-7.5" font-family="Helvetica,sans-Serif" font-size="10.00">+ ~Detail()</text>
</g>
<!-- Node2 -->
<g id="node2" class="node"><title>Node2</title>
<g id="a_node2"><a xlink:href="classqtreports_1_1detail_1_1_section.html" target="_top" xlink:title="Базовый класс для тэгов &lt;title&gt;, &lt;detail&gt;,. ">
<polygon fill="none" stroke="black" points="125,-117.5 125,-273.5 226,-273.5 226,-117.5 125,-117.5"/>
<text text-anchor="start" x="133" y="-261.5" font-family="Helvetica,sans-Serif" font-size="10.00">qtreports::detail::</text>
<text text-anchor="middle" x="175.5" y="-250.5" font-family="Helvetica,sans-Serif" font-size="10.00">Section</text>
<polyline fill="none" stroke="black" points="125,-243.5 226,-243.5 "/>
<text text-anchor="middle" x="175.5" y="-231.5" font-family="Helvetica,sans-Serif" font-size="10.00"> </text>
<polyline fill="none" stroke="black" points="125,-224.5 226,-224.5 "/>
<text text-anchor="start" x="133" y="-212.5" font-family="Helvetica,sans-Serif" font-size="10.00">+ Section()</text>
<text text-anchor="start" x="133" y="-201.5" font-family="Helvetica,sans-Serif" font-size="10.00">+ ~Section()</text>
<text text-anchor="start" x="133" y="-190.5" font-family="Helvetica,sans-Serif" font-size="10.00">+ setWidth()</text>
<text text-anchor="start" x="133" y="-179.5" font-family="Helvetica,sans-Serif" font-size="10.00">+ getWidth()</text>
<text text-anchor="start" x="133" y="-168.5" font-family="Helvetica,sans-Serif" font-size="10.00">+ getHeight()</text>
<text text-anchor="start" x="133" y="-157.5" font-family="Helvetica,sans-Serif" font-size="10.00">+ addBand()</text>
<text text-anchor="start" x="133" y="-146.5" font-family="Helvetica,sans-Serif" font-size="10.00">+ getBand()</text>
<text text-anchor="start" x="133" y="-135.5" font-family="Helvetica,sans-Serif" font-size="10.00">+ getBandsSize()</text>
<text text-anchor="start" x="133" y="-124.5" font-family="Helvetica,sans-Serif" font-size="10.00">+ getBands()</text>
</a>
</g>
</g>
<!-- Node2&#45;&gt;Node1 -->
<g id="edge1" class="edge"><title>Node2&#45;&gt;Node1</title>
<path fill="none" stroke="midnightblue" d="M175.5,-107.282C175.5,-97.7207 175.5,-88.3803 175.5,-79.8694"/>
<polygon fill="none" stroke="midnightblue" points="172,-107.3 175.5,-117.3 179,-107.3 172,-107.3"/>
</g>
<!-- Node3 -->
<g id="node3" class="node"><title>Node3</title>
<g id="a_node3"><a xlink:href="classqtreports_1_1detail_1_1_object.html" target="_top" xlink:title="Базовый класс для любого тэга ">
<polygon fill="none" stroke="black" points="0,-332.5 0,-477.5 99,-477.5 99,-332.5 0,-332.5"/>
<text text-anchor="start" x="8" y="-465.5" font-family="Helvetica,sans-Serif" font-size="10.00">qtreports::detail::</text>
<text text-anchor="middle" x="49.5" y="-454.5" font-family="Helvetica,sans-Serif" font-size="10.00">Object</text>
<polyline fill="none" stroke="black" points="0,-447.5 99,-447.5 "/>
<text text-anchor="middle" x="49.5" y="-435.5" font-family="Helvetica,sans-Serif" font-size="10.00"> </text>
<polyline fill="none" stroke="black" points="0,-428.5 99,-428.5 "/>
<text text-anchor="start" x="8" y="-416.5" font-family="Helvetica,sans-Serif" font-size="10.00">+ Object()</text>
<text text-anchor="start" x="8" y="-405.5" font-family="Helvetica,sans-Serif" font-size="10.00">+ Object()</text>
<text text-anchor="start" x="8" y="-394.5" font-family="Helvetica,sans-Serif" font-size="10.00">+ ~Object()</text>
<text text-anchor="start" x="8" y="-383.5" font-family="Helvetica,sans-Serif" font-size="10.00">+ setName()</text>
<text text-anchor="start" x="8" y="-372.5" font-family="Helvetica,sans-Serif" font-size="10.00">+ getName()</text>
<text text-anchor="start" x="8" y="-361.5" font-family="Helvetica,sans-Serif" font-size="10.00">+ setTagName()</text>
<text text-anchor="start" x="8" y="-350.5" font-family="Helvetica,sans-Serif" font-size="10.00">+ getTagName()</text>
<text text-anchor="start" x="8" y="-339.5" font-family="Helvetica,sans-Serif" font-size="10.00">+ getLastError()</text>
</a>
</g>
</g>
<!-- Node3&#45;&gt;Node2 -->
<g id="edge2" class="edge"><title>Node3&#45;&gt;Node2</title>
<path fill="none" stroke="midnightblue" d="M98.5039,-323.299C108.444,-306.929 118.875,-289.752 128.735,-273.513"/>
<polygon fill="none" stroke="midnightblue" points="95.2372,-321.936 93.0385,-332.3 101.22,-325.569 95.2372,-321.936"/>
</g>
<!-- Node4 -->
<g id="node4" class="node"><title>Node4</title>
<polygon fill="none" stroke="#bfbfbf" points="23,-547.5 23,-604.5 76,-604.5 76,-547.5 23,-547.5"/>
<text text-anchor="middle" x="49.5" y="-592.5" font-family="Helvetica,sans-Serif" font-size="10.00">QString</text>
<polyline fill="none" stroke="#bfbfbf" points="23,-585.5 76,-585.5 "/>
<text text-anchor="middle" x="49.5" y="-573.5" font-family="Helvetica,sans-Serif" font-size="10.00"> </text>
<polyline fill="none" stroke="#bfbfbf" points="23,-566.5 76,-566.5 "/>
<text text-anchor="middle" x="49.5" y="-554.5" font-family="Helvetica,sans-Serif" font-size="10.00"> </text>
</g>
<!-- Node4&#45;&gt;Node3 -->
<g id="edge3" class="edge"><title>Node4&#45;&gt;Node3</title>
<path fill="none" stroke="#404040" d="M49.5,-547.471C49.5,-531.599 49.5,-510.708 49.5,-489.868"/>
<polygon fill="none" stroke="#404040" points="49.5001,-489.642 45.5,-483.642 49.5,-477.642 53.5,-483.642 49.5001,-489.642"/>
<text text-anchor="middle" x="85.5" y="-521" font-family="Helvetica,sans-Serif" font-size="10.00"> #m_tagName</text>
<text text-anchor="middle" x="85.5" y="-510" font-family="Helvetica,sans-Serif" font-size="10.00">#m_name</text>
<text text-anchor="middle" x="85.5" y="-499" font-family="Helvetica,sans-Serif" font-size="10.00">#m_lastError</text>
</g>
<!-- Node5 -->
<g id="node5" class="node"><title>Node5</title>
<polygon fill="none" stroke="#bfbfbf" points="117.5,-376.5 117.5,-433.5 233.5,-433.5 233.5,-376.5 117.5,-376.5"/>
<text text-anchor="middle" x="175.5" y="-421.5" font-family="Helvetica,sans-Serif" font-size="10.00">QVector&lt; BandPtr &gt;</text>
<polyline fill="none" stroke="#bfbfbf" points="117.5,-414.5 233.5,-414.5 "/>
<text text-anchor="middle" x="175.5" y="-402.5" font-family="Helvetica,sans-Serif" font-size="10.00"> </text>
<polyline fill="none" stroke="#bfbfbf" points="117.5,-395.5 233.5,-395.5 "/>
<text text-anchor="middle" x="175.5" y="-383.5" font-family="Helvetica,sans-Serif" font-size="10.00"> </text>
</g>
<!-- Node5&#45;&gt;Node2 -->
<g id="edge4" class="edge"><title>Node5&#45;&gt;Node2</title>
<path fill="none" stroke="#404040" d="M175.5,-376.446C175.5,-353.278 175.5,-318.813 175.5,-286.228"/>
<polygon fill="none" stroke="#404040" points="175.5,-285.859 171.5,-279.859 175.5,-273.859 179.5,-279.859 175.5,-285.859"/>
<text text-anchor="middle" x="203.5" y="-300.5" font-family="Helvetica,sans-Serif" font-size="10.00"> #m_bands</text>
</g>
<!-- Node6 -->
<g id="node6" class="node"><title>Node6</title>
<polygon fill="none" stroke="#bfbfbf" points="251,-376.5 251,-433.5 280,-433.5 280,-376.5 251,-376.5"/>
<text text-anchor="middle" x="265.5" y="-421.5" font-family="Helvetica,sans-Serif" font-size="10.00">int</text>
<polyline fill="none" stroke="#bfbfbf" points="251,-414.5 280,-414.5 "/>
<text text-anchor="middle" x="265.5" y="-402.5" font-family="Helvetica,sans-Serif" font-size="10.00"> </text>
<polyline fill="none" stroke="#bfbfbf" points="251,-395.5 280,-395.5 "/>
<text text-anchor="middle" x="265.5" y="-383.5" font-family="Helvetica,sans-Serif" font-size="10.00"> </text>
</g>
<!-- Node6&#45;&gt;Node2 -->
<g id="edge5" class="edge"><title>Node6&#45;&gt;Node2</title>
<path fill="none" stroke="#404040" d="M260.443,-376.066C255.688,-352.923 247.492,-319.492 235.5,-292 234.267,-289.173 232.959,-286.333 231.589,-283.491"/>
<polygon fill="none" stroke="#404040" points="231.466,-283.249 225.182,-279.712 226.03,-272.551 232.314,-276.088 231.466,-283.249"/>
<text text-anchor="middle" x="272" y="-306" font-family="Helvetica,sans-Serif" font-size="10.00"> #m_height</text>
<text text-anchor="middle" x="272" y="-295" font-family="Helvetica,sans-Serif" font-size="10.00">#m_width</text>
</g>
</g>
</svg>
