<?xml version="1.0" encoding="UTF-8" standalone="no"?>
<!DOCTYPE svg PUBLIC "-//W3C//DTD SVG 1.1//EN"
 "http://www.w3.org/Graphics/SVG/1.1/DTD/svg11.dtd">
<!-- Generated by graphviz version 2.38.0 (20140413.2041)
 -->
<!-- Title: qtreports::detail::Image Pages: 1 -->
<svg width="521pt" height="949pt"
 viewBox="0.00 0.00 521.00 949.00" xmlns="http://www.w3.org/2000/svg" xmlns:xlink="http://www.w3.org/1999/xlink">
<g id="graph0" class="graph" transform="scale(1 1) rotate(0) translate(4 945)">
<title>qtreports::detail::Image</title>
<!-- Node1 -->
<g id="node1" class="node"><title>Node1</title>
<polygon fill="#bfbfbf" stroke="black" points="76.5,-0.5 76.5,-101.5 175.5,-101.5 175.5,-0.5 76.5,-0.5"/>
<text text-anchor="start" x="84.5" y="-89.5" font-family="Helvetica,sans-Serif" font-size="10.00">qtreports::detail::</text>
<text text-anchor="middle" x="126" y="-78.5" font-family="Helvetica,sans-Serif" font-size="10.00">Image</text>
<polyline fill="none" stroke="black" points="76.5,-71.5 175.5,-71.5 "/>
<text text-anchor="middle" x="126" y="-59.5" font-family="Helvetica,sans-Serif" font-size="10.00"> </text>
<polyline fill="none" stroke="black" points="76.5,-52.5 175.5,-52.5 "/>
<text text-anchor="start" x="84.5" y="-40.5" font-family="Helvetica,sans-Serif" font-size="10.00">+ Image()</text>
<text text-anchor="start" x="84.5" y="-29.5" font-family="Helvetica,sans-Serif" font-size="10.00">+ ~Image()</text>
<text text-anchor="start" x="84.5" y="-18.5" font-family="Helvetica,sans-Serif" font-size="10.00">+ setImage()</text>
<text text-anchor="start" x="84.5" y="-7.5" font-family="Helvetica,sans-Serif" font-size="10.00">+ getImage()</text>
</g>
<!-- Node2 -->
<g id="node2" class="node"><title>Node2</title>
<g id="a_node2"><a xlink:href="classqtreports_1_1detail_1_1_text_widget.html" target="_top" xlink:title="Базовый класс для тегов, имеющих текстовое содержание. ">
<polygon fill="none" stroke="black" points="0,-149.5 0,-272.5 106,-272.5 106,-149.5 0,-149.5"/>
<text text-anchor="start" x="8" y="-260.5" font-family="Helvetica,sans-Serif" font-size="10.00">qtreports::detail::</text>
<text text-anchor="middle" x="53" y="-249.5" font-family="Helvetica,sans-Serif" font-size="10.00">TextWidget</text>
<polyline fill="none" stroke="black" points="0,-242.5 106,-242.5 "/>
<text text-anchor="middle" x="53" y="-230.5" font-family="Helvetica,sans-Serif" font-size="10.00"> </text>
<polyline fill="none" stroke="black" points="0,-223.5 106,-223.5 "/>
<text text-anchor="start" x="8" y="-211.5" font-family="Helvetica,sans-Serif" font-size="10.00">+ TextWidget()</text>
<text text-anchor="start" x="8" y="-200.5" font-family="Helvetica,sans-Serif" font-size="10.00">+ ~TextWidget()</text>
<text text-anchor="start" x="8" y="-189.5" font-family="Helvetica,sans-Serif" font-size="10.00">+ setText()</text>
<text text-anchor="start" x="8" y="-178.5" font-family="Helvetica,sans-Serif" font-size="10.00">+ getText()</text>
<text text-anchor="start" x="8" y="-167.5" font-family="Helvetica,sans-Serif" font-size="10.00">+ setOriginalText()</text>
<text text-anchor="start" x="8" y="-156.5" font-family="Helvetica,sans-Serif" font-size="10.00">+ getOriginalText()</text>
</a>
</g>
</g>
<!-- Node2&#45;&gt;Node1 -->
<g id="edge1" class="edge"><title>Node2&#45;&gt;Node1</title>
<path fill="none" stroke="midnightblue" d="M85.3244,-140.038C91.2921,-127.121 97.4107,-113.878 103.031,-101.714"/>
<polygon fill="none" stroke="midnightblue" points="82.0319,-138.819 81.0149,-149.365 88.3865,-141.755 82.0319,-138.819"/>
</g>
<!-- Node3 -->
<g id="node3" class="node"><title>Node3</title>
<g id="a_node3"><a xlink:href="classqtreports_1_1detail_1_1_widget.html" target="_top" xlink:title="Базовый класс для тэгов, которые подлежат отображению ">
<polygon fill="none" stroke="black" points="250,-310.5 250,-609.5 350,-609.5 350,-310.5 250,-310.5"/>
<text text-anchor="start" x="258" y="-597.5" font-family="Helvetica,sans-Serif" font-size="10.00">qtreports::detail::</text>
<text text-anchor="middle" x="300" y="-586.5" font-family="Helvetica,sans-Serif" font-size="10.00">Widget</text>
<polyline fill="none" stroke="black" points="250,-579.5 350,-579.5 "/>
<text text-anchor="middle" x="300" y="-567.5" font-family="Helvetica,sans-Serif" font-size="10.00"> </text>
<polyline fill="none" stroke="black" points="250,-560.5 350,-560.5 "/>
<text text-anchor="start" x="258" y="-548.5" font-family="Helvetica,sans-Serif" font-size="10.00">+ Widget()</text>
<text text-anchor="start" x="258" y="-537.5" font-family="Helvetica,sans-Serif" font-size="10.00">+ ~Widget()</text>
<text text-anchor="start" x="258" y="-526.5" font-family="Helvetica,sans-Serif" font-size="10.00">+ setPosition()</text>
<text text-anchor="start" x="258" y="-515.5" font-family="Helvetica,sans-Serif" font-size="10.00">+ setX()</text>
<text text-anchor="start" x="258" y="-504.5" font-family="Helvetica,sans-Serif" font-size="10.00">+ setY()</text>
<text text-anchor="start" x="258" y="-493.5" font-family="Helvetica,sans-Serif" font-size="10.00">+ setSize()</text>
<text text-anchor="start" x="258" y="-482.5" font-family="Helvetica,sans-Serif" font-size="10.00">+ setWidth()</text>
<text text-anchor="start" x="258" y="-471.5" font-family="Helvetica,sans-Serif" font-size="10.00">+ setHeight()</text>
<text text-anchor="start" x="258" y="-460.5" font-family="Helvetica,sans-Serif" font-size="10.00">+ setRect()</text>
<text text-anchor="start" x="258" y="-449.5" font-family="Helvetica,sans-Serif" font-size="10.00">+ setStyle()</text>
<text text-anchor="start" x="258" y="-438.5" font-family="Helvetica,sans-Serif" font-size="10.00">+ setAlignment()</text>
<text text-anchor="start" x="258" y="-427.5" font-family="Helvetica,sans-Serif" font-size="10.00">+ getAlignment()</text>
<text text-anchor="start" x="258" y="-416.5" font-family="Helvetica,sans-Serif" font-size="10.00">+ getPos()</text>
<text text-anchor="start" x="258" y="-405.5" font-family="Helvetica,sans-Serif" font-size="10.00">+ getX()</text>
<text text-anchor="start" x="258" y="-394.5" font-family="Helvetica,sans-Serif" font-size="10.00">+ getY()</text>
<text text-anchor="start" x="258" y="-383.5" font-family="Helvetica,sans-Serif" font-size="10.00">+ getSize()</text>
<text text-anchor="start" x="258" y="-372.5" font-family="Helvetica,sans-Serif" font-size="10.00">+ getWidth()</text>
<text text-anchor="start" x="258" y="-361.5" font-family="Helvetica,sans-Serif" font-size="10.00">+ getHeight()</text>
<text text-anchor="start" x="258" y="-350.5" font-family="Helvetica,sans-Serif" font-size="10.00">+ getRect()</text>
<text text-anchor="start" x="258" y="-339.5" font-family="Helvetica,sans-Serif" font-size="10.00">+ getStyle()</text>
<text text-anchor="start" x="258" y="-328.5" font-family="Helvetica,sans-Serif" font-size="10.00">+ isBold()</text>
<text text-anchor="start" x="258" y="-317.5" font-family="Helvetica,sans-Serif" font-size="10.00">+ setBold()</text>
</a>
</g>
</g>
<!-- Node3&#45;&gt;Node2 -->
<g id="edge2" class="edge"><title>Node3&#45;&gt;Node2</title>
<path fill="none" stroke="midnightblue" d="M242.462,-401.462C201.311,-360.311 146.332,-305.332 106.201,-265.201"/>
<polygon fill="none" stroke="midnightblue" points="240.172,-404.122 249.718,-408.718 245.122,-399.172 240.172,-404.122"/>
</g>
<!-- Node4 -->
<g id="node4" class="node"><title>Node4</title>
<g id="a_node4"><a xlink:href="classqtreports_1_1detail_1_1_object.html" target="_top" xlink:title="Базовый класс для любого тэга ">
<polygon fill="none" stroke="black" points="200.5,-668.5 200.5,-813.5 299.5,-813.5 299.5,-668.5 200.5,-668.5"/>
<text text-anchor="start" x="208.5" y="-801.5" font-family="Helvetica,sans-Serif" font-size="10.00">qtreports::detail::</text>
<text text-anchor="middle" x="250" y="-790.5" font-family="Helvetica,sans-Serif" font-size="10.00">Object</text>
<polyline fill="none" stroke="black" points="200.5,-783.5 299.5,-783.5 "/>
<text text-anchor="middle" x="250" y="-771.5" font-family="Helvetica,sans-Serif" font-size="10.00"> </text>
<polyline fill="none" stroke="black" points="200.5,-764.5 299.5,-764.5 "/>
<text text-anchor="start" x="208.5" y="-752.5" font-family="Helvetica,sans-Serif" font-size="10.00">+ Object()</text>
<text text-anchor="start" x="208.5" y="-741.5" font-family="Helvetica,sans-Serif" font-size="10.00">+ Object()</text>
<text text-anchor="start" x="208.5" y="-730.5" font-family="Helvetica,sans-Serif" font-size="10.00">+ ~Object()</text>
<text text-anchor="start" x="208.5" y="-719.5" font-family="Helvetica,sans-Serif" font-size="10.00">+ setName()</text>
<text text-anchor="start" x="208.5" y="-708.5" font-family="Helvetica,sans-Serif" font-size="10.00">+ getName()</text>
<text text-anchor="start" x="208.5" y="-697.5" font-family="Helvetica,sans-Serif" font-size="10.00">+ setTagName()</text>
<text text-anchor="start" x="208.5" y="-686.5" font-family="Helvetica,sans-Serif" font-size="10.00">+ getTagName()</text>
<text text-anchor="start" x="208.5" y="-675.5" font-family="Helvetica,sans-Serif" font-size="10.00">+ getLastError()</text>
</a>
</g>
</g>
<!-- Node4&#45;&gt;Node3 -->
<g id="edge3" class="edge"><title>Node4&#45;&gt;Node3</title>
<path fill="none" stroke="midnightblue" d="M264.656,-658.219C267.412,-642.841 270.371,-626.328 273.362,-609.639"/>
<polygon fill="none" stroke="midnightblue" points="261.195,-657.69 262.876,-668.151 268.085,-658.925 261.195,-657.69"/>
</g>
<!-- Node5 -->
<g id="node5" class="node"><title>Node5</title>
<polygon fill="none" stroke="#bfbfbf" points="106.5,-883.5 106.5,-940.5 159.5,-940.5 159.5,-883.5 106.5,-883.5"/>
<text text-anchor="middle" x="133" y="-928.5" font-family="Helvetica,sans-Serif" font-size="10.00">QString</text>
<polyline fill="none" stroke="#bfbfbf" points="106.5,-921.5 159.5,-921.5 "/>
<text text-anchor="middle" x="133" y="-909.5" font-family="Helvetica,sans-Serif" font-size="10.00"> </text>
<polyline fill="none" stroke="#bfbfbf" points="106.5,-902.5 159.5,-902.5 "/>
<text text-anchor="middle" x="133" y="-890.5" font-family="Helvetica,sans-Serif" font-size="10.00"> </text>
</g>
<!-- Node5&#45;&gt;Node2 -->
<g id="edge9" class="edge"><title>Node5&#45;&gt;Node2</title>
<path fill="none" stroke="#404040" d="M124.153,-883.175C109.568,-835.856 80.9072,-736.428 69,-650 51.4124,-522.341 50.0924,-371.902 51.2136,-284.691"/>
<polygon fill="none" stroke="#404040" points="51.2155,-284.551 47.3036,-278.494 51.3908,-272.553 55.3028,-278.61 51.2155,-284.551"/>
<text text-anchor="middle" x="107.5" y="-642" font-family="Helvetica,sans-Serif" font-size="10.00"> #m_text</text>
<text text-anchor="middle" x="107.5" y="-631" font-family="Helvetica,sans-Serif" font-size="10.00">#m_originalText</text>
</g>
<!-- Node5&#45;&gt;Node3 -->
<g id="edge5" class="edge"><title>Node5&#45;&gt;Node3</title>
<path fill="none" stroke="#404040" d="M128.751,-883.381C122.786,-837.207 115.411,-742.108 142,-668 162.637,-610.482 205.527,-555.997 241.419,-517.375"/>
<polygon fill="none" stroke="#404040" points="241.659,-517.121 242.873,-510.013 249.901,-508.399 248.688,-515.507 241.659,-517.121"/>
<text text-anchor="middle" x="166.5" y="-738.5" font-family="Helvetica,sans-Serif" font-size="10.00"> #m_style</text>
</g>
<!-- Node5&#45;&gt;Node4 -->
<g id="edge4" class="edge"><title>Node5&#45;&gt;Node4</title>
<path fill="none" stroke="#404040" d="M152.058,-883.471C163.457,-867.006 178.596,-845.139 193.556,-823.531"/>
<polygon fill="none" stroke="#404040" points="193.571,-823.508 193.698,-816.298 200.402,-813.642 200.275,-820.852 193.571,-823.508"/>
<text text-anchor="middle" x="221" y="-857" font-family="Helvetica,sans-Serif" font-size="10.00"> #m_tagName</text>
<text text-anchor="middle" x="221" y="-846" font-family="Helvetica,sans-Serif" font-size="10.00">#m_name</text>
<text text-anchor="middle" x="221" y="-835" font-family="Helvetica,sans-Serif" font-size="10.00">#m_lastError</text>
</g>
<!-- Node6 -->
<g id="node6" class="node"><title>Node6</title>
<polygon fill="none" stroke="#bfbfbf" points="317.5,-712.5 317.5,-769.5 354.5,-769.5 354.5,-712.5 317.5,-712.5"/>
<text text-anchor="middle" x="336" y="-757.5" font-family="Helvetica,sans-Serif" font-size="10.00">bool</text>
<polyline fill="none" stroke="#bfbfbf" points="317.5,-750.5 354.5,-750.5 "/>
<text text-anchor="middle" x="336" y="-738.5" font-family="Helvetica,sans-Serif" font-size="10.00"> </text>
<polyline fill="none" stroke="#bfbfbf" points="317.5,-731.5 354.5,-731.5 "/>
<text text-anchor="middle" x="336" y="-719.5" font-family="Helvetica,sans-Serif" font-size="10.00"> </text>
</g>
<!-- Node6&#45;&gt;Node3 -->
<g id="edge6" class="edge"><title>Node6&#45;&gt;Node3</title>
<path fill="none" stroke="#404040" d="M329.665,-712.156C325.825,-694.44 321.087,-670.967 318,-650 316.65,-640.829 315.379,-631.391 314.186,-621.857"/>
<polygon fill="none" stroke="#404040" points="314.162,-621.654 309.469,-616.179 312.718,-609.741 317.411,-615.216 314.162,-621.654"/>
<text text-anchor="middle" x="345.5" y="-636.5" font-family="Helvetica,sans-Serif" font-size="10.00"> #m_isBold</text>
</g>
<!-- Node7 -->
<g id="node7" class="node"><title>Node7</title>
<polygon fill="none" stroke="#bfbfbf" points="373,-712.5 373,-769.5 417,-769.5 417,-712.5 373,-712.5"/>
<text text-anchor="middle" x="395" y="-757.5" font-family="Helvetica,sans-Serif" font-size="10.00">QRect</text>
<polyline fill="none" stroke="#bfbfbf" points="373,-750.5 417,-750.5 "/>
<text text-anchor="middle" x="395" y="-738.5" font-family="Helvetica,sans-Serif" font-size="10.00"> </text>
<polyline fill="none" stroke="#bfbfbf" points="373,-731.5 417,-731.5 "/>
<text text-anchor="middle" x="395" y="-719.5" font-family="Helvetica,sans-Serif" font-size="10.00"> </text>
</g>
<!-- Node7&#45;&gt;Node3 -->
<g id="edge7" class="edge"><title>Node7&#45;&gt;Node3</title>
<path fill="none" stroke="#404040" d="M391.3,-712.427C387.818,-689.498 381.811,-656.181 373,-628 367.821,-611.437 361.511,-594.306 354.792,-577.611"/>
<polygon fill="none" stroke="#404040" points="354.639,-577.236 348.661,-573.204 350.084,-566.134 356.062,-570.167 354.639,-577.236"/>
<text text-anchor="middle" x="402" y="-636.5" font-family="Helvetica,sans-Serif" font-size="10.00"> #m_rect</text>
</g>
<!-- Node8 -->
<g id="node8" class="node"><title>Node8</title>
<polygon fill="none" stroke="#bfbfbf" points="435.5,-712.5 435.5,-769.5 500.5,-769.5 500.5,-712.5 435.5,-712.5"/>
<text text-anchor="middle" x="468" y="-757.5" font-family="Helvetica,sans-Serif" font-size="10.00">Alignment</text>
<polyline fill="none" stroke="#bfbfbf" points="435.5,-750.5 500.5,-750.5 "/>
<text text-anchor="middle" x="468" y="-738.5" font-family="Helvetica,sans-Serif" font-size="10.00"> </text>
<polyline fill="none" stroke="#bfbfbf" points="435.5,-731.5 500.5,-731.5 "/>
<text text-anchor="middle" x="468" y="-719.5" font-family="Helvetica,sans-Serif" font-size="10.00"> </text>
</g>
<!-- Node8&#45;&gt;Node3 -->
<g id="edge8" class="edge"><title>Node8&#45;&gt;Node3</title>
<path fill="none" stroke="#404040" d="M461.043,-712.263C454.571,-688.941 443.709,-655.157 429,-628 409.477,-591.956 382.377,-555.517 358.052,-525.914"/>
<polygon fill="none" stroke="#404040" points="357.939,-525.778 351.027,-523.723 350.266,-516.552 357.178,-518.607 357.939,-525.778"/>
<text text-anchor="middle" x="475.5" y="-636.5" font-family="Helvetica,sans-Serif" font-size="10.00"> #m_alignment</text>
</g>
<!-- Node9 -->
<g id="node9" class="node"><title>Node9</title>
<polygon fill="none" stroke="#bfbfbf" points="124,-182.5 124,-239.5 178,-239.5 178,-182.5 124,-182.5"/>
<text text-anchor="middle" x="151" y="-227.5" font-family="Helvetica,sans-Serif" font-size="10.00">QImage</text>
<polyline fill="none" stroke="#bfbfbf" points="124,-220.5 178,-220.5 "/>
<text text-anchor="middle" x="151" y="-208.5" font-family="Helvetica,sans-Serif" font-size="10.00"> </text>
<polyline fill="none" stroke="#bfbfbf" points="124,-201.5 178,-201.5 "/>
<text text-anchor="middle" x="151" y="-189.5" font-family="Helvetica,sans-Serif" font-size="10.00"> </text>
</g>
<!-- Node9&#45;&gt;Node1 -->
<g id="edge10" class="edge"><title>Node9&#45;&gt;Node1</title>
<path fill="none" stroke="#404040" d="M146.645,-182.479C143.629,-163.418 139.493,-137.277 135.715,-113.397"/>
<polygon fill="none" stroke="#404040" points="135.713,-113.384 130.824,-108.083 133.837,-101.532 138.726,-106.833 135.713,-113.384"/>
<text text-anchor="middle" x="165" y="-123" font-family="Helvetica,sans-Serif" font-size="10.00"> &#45;m_image</text>
</g>
</g>
</svg>
