<?xml version="1.0" encoding="UTF-8" standalone="no"?>
<!DOCTYPE svg PUBLIC "-//W3C//DTD SVG 1.1//EN"
 "http://www.w3.org/Graphics/SVG/1.1/DTD/svg11.dtd">
<!-- Generated by graphviz version 2.38.0 (20140413.2041)
 -->
<!-- Title: qtreports::detail::Widget Pages: 1 -->
<svg width="395pt" height="628pt"
 viewBox="0.00 0.00 394.77 628.00" xmlns="http://www.w3.org/2000/svg" xmlns:xlink="http://www.w3.org/1999/xlink">
<g id="graph0" class="graph" transform="scale(1 1) rotate(0) translate(4 624)">
<title>qtreports::detail::Widget</title>
<!-- Node1 -->
<g id="node1" class="node"><title>Node1</title>
<polygon fill="#bfbfbf" stroke="black" points="146.768,-0.5 146.768,-299.5 246.768,-299.5 246.768,-0.5 146.768,-0.5"/>
<text text-anchor="start" x="154.768" y="-287.5" font-family="Helvetica,sans-Serif" font-size="10.00">qtreports::detail::</text>
<text text-anchor="middle" x="196.768" y="-276.5" font-family="Helvetica,sans-Serif" font-size="10.00">Widget</text>
<polyline fill="none" stroke="black" points="146.768,-269.5 246.768,-269.5 "/>
<text text-anchor="middle" x="196.768" y="-257.5" font-family="Helvetica,sans-Serif" font-size="10.00"> </text>
<polyline fill="none" stroke="black" points="146.768,-250.5 246.768,-250.5 "/>
<text text-anchor="start" x="154.768" y="-238.5" font-family="Helvetica,sans-Serif" font-size="10.00">+ Widget()</text>
<text text-anchor="start" x="154.768" y="-227.5" font-family="Helvetica,sans-Serif" font-size="10.00">+ ~Widget()</text>
<text text-anchor="start" x="154.768" y="-216.5" font-family="Helvetica,sans-Serif" font-size="10.00">+ setPosition()</text>
<text text-anchor="start" x="154.768" y="-205.5" font-family="Helvetica,sans-Serif" font-size="10.00">+ setX()</text>
<text text-anchor="start" x="154.768" y="-194.5" font-family="Helvetica,sans-Serif" font-size="10.00">+ setY()</text>
<text text-anchor="start" x="154.768" y="-183.5" font-family="Helvetica,sans-Serif" font-size="10.00">+ setSize()</text>
<text text-anchor="start" x="154.768" y="-172.5" font-family="Helvetica,sans-Serif" font-size="10.00">+ setWidth()</text>
<text text-anchor="start" x="154.768" y="-161.5" font-family="Helvetica,sans-Serif" font-size="10.00">+ setHeight()</text>
<text text-anchor="start" x="154.768" y="-150.5" font-family="Helvetica,sans-Serif" font-size="10.00">+ setRect()</text>
<text text-anchor="start" x="154.768" y="-139.5" font-family="Helvetica,sans-Serif" font-size="10.00">+ setStyle()</text>
<text text-anchor="start" x="154.768" y="-128.5" font-family="Helvetica,sans-Serif" font-size="10.00">+ setAlignment()</text>
<text text-anchor="start" x="154.768" y="-117.5" font-family="Helvetica,sans-Serif" font-size="10.00">+ getAlignment()</text>
<text text-anchor="start" x="154.768" y="-106.5" font-family="Helvetica,sans-Serif" font-size="10.00">+ getPos()</text>
<text text-anchor="start" x="154.768" y="-95.5" font-family="Helvetica,sans-Serif" font-size="10.00">+ getX()</text>
<text text-anchor="start" x="154.768" y="-84.5" font-family="Helvetica,sans-Serif" font-size="10.00">+ getY()</text>
<text text-anchor="start" x="154.768" y="-73.5" font-family="Helvetica,sans-Serif" font-size="10.00">+ getSize()</text>
<text text-anchor="start" x="154.768" y="-62.5" font-family="Helvetica,sans-Serif" font-size="10.00">+ getWidth()</text>
<text text-anchor="start" x="154.768" y="-51.5" font-family="Helvetica,sans-Serif" font-size="10.00">+ getHeight()</text>
<text text-anchor="start" x="154.768" y="-40.5" font-family="Helvetica,sans-Serif" font-size="10.00">+ getRect()</text>
<text text-anchor="start" x="154.768" y="-29.5" font-family="Helvetica,sans-Serif" font-size="10.00">+ getStyle()</text>
<text text-anchor="start" x="154.768" y="-18.5" font-family="Helvetica,sans-Serif" font-size="10.00">+ isBold()</text>
<text text-anchor="start" x="154.768" y="-7.5" font-family="Helvetica,sans-Serif" font-size="10.00">+ setBold()</text>
</g>
<!-- Node2 -->
<g id="node2" class="node"><title>Node2</title>
<g id="a_node2"><a xlink:href="classqtreports_1_1detail_1_1_object.html" target="_top" xlink:title="Базовый класс для любого тэга ">
<polygon fill="none" stroke="black" points="71.2682,-347.5 71.2682,-492.5 170.268,-492.5 170.268,-347.5 71.2682,-347.5"/>
<text text-anchor="start" x="79.2682" y="-480.5" font-family="Helvetica,sans-Serif" font-size="10.00">qtreports::detail::</text>
<text text-anchor="middle" x="120.768" y="-469.5" font-family="Helvetica,sans-Serif" font-size="10.00">Object</text>
<polyline fill="none" stroke="black" points="71.2682,-462.5 170.268,-462.5 "/>
<text text-anchor="middle" x="120.768" y="-450.5" font-family="Helvetica,sans-Serif" font-size="10.00"> </text>
<polyline fill="none" stroke="black" points="71.2682,-443.5 170.268,-443.5 "/>
<text text-anchor="start" x="79.2682" y="-431.5" font-family="Helvetica,sans-Serif" font-size="10.00">+ Object()</text>
<text text-anchor="start" x="79.2682" y="-420.5" font-family="Helvetica,sans-Serif" font-size="10.00">+ Object()</text>
<text text-anchor="start" x="79.2682" y="-409.5" font-family="Helvetica,sans-Serif" font-size="10.00">+ ~Object()</text>
<text text-anchor="start" x="79.2682" y="-398.5" font-family="Helvetica,sans-Serif" font-size="10.00">+ setName()</text>
<text text-anchor="start" x="79.2682" y="-387.5" font-family="Helvetica,sans-Serif" font-size="10.00">+ getName()</text>
<text text-anchor="start" x="79.2682" y="-376.5" font-family="Helvetica,sans-Serif" font-size="10.00">+ setTagName()</text>
<text text-anchor="start" x="79.2682" y="-365.5" font-family="Helvetica,sans-Serif" font-size="10.00">+ getTagName()</text>
<text text-anchor="start" x="79.2682" y="-354.5" font-family="Helvetica,sans-Serif" font-size="10.00">+ getLastError()</text>
</a>
</g>
</g>
<!-- Node2&#45;&gt;Node1 -->
<g id="edge1" class="edge"><title>Node2&#45;&gt;Node1</title>
<path fill="none" stroke="midnightblue" d="M143.955,-337.235C147.37,-325.195 150.973,-312.487 154.629,-299.598"/>
<polygon fill="none" stroke="midnightblue" points="140.496,-336.605 141.135,-347.181 147.23,-338.515 140.496,-336.605"/>
</g>
<!-- Node3 -->
<g id="node3" class="node"><title>Node3</title>
<polygon fill="none" stroke="#bfbfbf" points="14.2682,-562.5 14.2682,-619.5 67.2682,-619.5 67.2682,-562.5 14.2682,-562.5"/>
<text text-anchor="middle" x="40.7682" y="-607.5" font-family="Helvetica,sans-Serif" font-size="10.00">QString</text>
<polyline fill="none" stroke="#bfbfbf" points="14.2682,-600.5 67.2682,-600.5 "/>
<text text-anchor="middle" x="40.7682" y="-588.5" font-family="Helvetica,sans-Serif" font-size="10.00"> </text>
<polyline fill="none" stroke="#bfbfbf" points="14.2682,-581.5 67.2682,-581.5 "/>
<text text-anchor="middle" x="40.7682" y="-569.5" font-family="Helvetica,sans-Serif" font-size="10.00"> </text>
</g>
<!-- Node3&#45;&gt;Node1 -->
<g id="edge3" class="edge"><title>Node3&#45;&gt;Node1</title>
<path fill="none" stroke="#404040" d="M29.2523,-562.277C11.8013,-515.953 -16.3817,-420.641 12.7682,-347 37.7341,-283.929 93.6568,-229.3 137.34,-193.855"/>
<polygon fill="none" stroke="#404040" points="137.355,-193.843 139.556,-186.976 146.741,-186.367 144.54,-193.234 137.355,-193.843"/>
<text text-anchor="middle" x="37.2682" y="-417.5" font-family="Helvetica,sans-Serif" font-size="10.00"> #m_style</text>
</g>
<!-- Node3&#45;&gt;Node2 -->
<g id="edge2" class="edge"><title>Node3&#45;&gt;Node2</title>
<path fill="none" stroke="#404040" d="M53.7997,-562.471C61.4534,-546.303 71.5729,-524.925 81.6207,-503.699"/>
<polygon fill="none" stroke="#404040" points="81.7207,-503.488 80.6725,-496.353 86.8551,-492.642 87.9033,-499.776 81.7207,-503.488"/>
<text text-anchor="middle" x="112.768" y="-536" font-family="Helvetica,sans-Serif" font-size="10.00"> #m_tagName</text>
<text text-anchor="middle" x="112.768" y="-525" font-family="Helvetica,sans-Serif" font-size="10.00">#m_name</text>
<text text-anchor="middle" x="112.768" y="-514" font-family="Helvetica,sans-Serif" font-size="10.00">#m_lastError</text>
</g>
<!-- Node4 -->
<g id="node4" class="node"><title>Node4</title>
<polygon fill="none" stroke="#bfbfbf" points="188.268,-391.5 188.268,-448.5 225.268,-448.5 225.268,-391.5 188.268,-391.5"/>
<text text-anchor="middle" x="206.768" y="-436.5" font-family="Helvetica,sans-Serif" font-size="10.00">bool</text>
<polyline fill="none" stroke="#bfbfbf" points="188.268,-429.5 225.268,-429.5 "/>
<text text-anchor="middle" x="206.768" y="-417.5" font-family="Helvetica,sans-Serif" font-size="10.00"> </text>
<polyline fill="none" stroke="#bfbfbf" points="188.268,-410.5 225.268,-410.5 "/>
<text text-anchor="middle" x="206.768" y="-398.5" font-family="Helvetica,sans-Serif" font-size="10.00"> </text>
</g>
<!-- Node4&#45;&gt;Node1 -->
<g id="edge4" class="edge"><title>Node4&#45;&gt;Node1</title>
<path fill="none" stroke="#404040" d="M203.339,-391.478C201.289,-373.687 198.875,-350.013 197.768,-329 197.469,-323.32 197.208,-317.536 196.98,-311.693"/>
<polygon fill="none" stroke="#404040" points="196.978,-311.624 192.771,-305.767 196.56,-299.631 200.766,-305.488 196.978,-311.624"/>
<text text-anchor="middle" x="225.268" y="-321" font-family="Helvetica,sans-Serif" font-size="10.00"> #m_isBold</text>
</g>
<!-- Node5 -->
<g id="node5" class="node"><title>Node5</title>
<polygon fill="none" stroke="#bfbfbf" points="252.768,-391.5 252.768,-448.5 296.768,-448.5 296.768,-391.5 252.768,-391.5"/>
<text text-anchor="middle" x="274.768" y="-436.5" font-family="Helvetica,sans-Serif" font-size="10.00">QRect</text>
<polyline fill="none" stroke="#bfbfbf" points="252.768,-429.5 296.768,-429.5 "/>
<text text-anchor="middle" x="274.768" y="-417.5" font-family="Helvetica,sans-Serif" font-size="10.00"> </text>
<polyline fill="none" stroke="#bfbfbf" points="252.768,-410.5 296.768,-410.5 "/>
<text text-anchor="middle" x="274.768" y="-398.5" font-family="Helvetica,sans-Serif" font-size="10.00"> </text>
</g>
<!-- Node5&#45;&gt;Node1 -->
<g id="edge5" class="edge"><title>Node5&#45;&gt;Node1</title>
<path fill="none" stroke="#404040" d="M269.595,-391.367C265.569,-370.955 259.541,-342.567 252.768,-318 251.95,-315.034 251.11,-312.042 250.251,-309.033"/>
<polygon fill="none" stroke="#404040" points="250.204,-308.869 244.685,-304.227 246.848,-297.348 252.366,-301.99 250.204,-308.869"/>
<text text-anchor="middle" x="278.768" y="-321" font-family="Helvetica,sans-Serif" font-size="10.00"> #m_rect</text>
</g>
<!-- Node6 -->
<g id="node6" class="node"><title>Node6</title>
<polygon fill="none" stroke="#bfbfbf" points="315.268,-391.5 315.268,-448.5 380.268,-448.5 380.268,-391.5 315.268,-391.5"/>
<text text-anchor="middle" x="347.768" y="-436.5" font-family="Helvetica,sans-Serif" font-size="10.00">Alignment</text>
<polyline fill="none" stroke="#bfbfbf" points="315.268,-429.5 380.268,-429.5 "/>
<text text-anchor="middle" x="347.768" y="-417.5" font-family="Helvetica,sans-Serif" font-size="10.00"> </text>
<polyline fill="none" stroke="#bfbfbf" points="315.268,-410.5 380.268,-410.5 "/>
<text text-anchor="middle" x="347.768" y="-398.5" font-family="Helvetica,sans-Serif" font-size="10.00"> </text>
</g>
<!-- Node6&#45;&gt;Node1 -->
<g id="edge6" class="edge"><title>Node6&#45;&gt;Node1</title>
<path fill="none" stroke="#404040" d="M337.86,-391.37C330.075,-370.711 318.457,-342.01 305.768,-318 290.419,-288.957 271.476,-258.503 253.71,-231.673"/>
<polygon fill="none" stroke="#404040" points="253.633,-231.558 246.974,-228.789 246.969,-221.578 253.627,-224.346 253.633,-231.558"/>
<text text-anchor="middle" x="349.268" y="-321" font-family="Helvetica,sans-Serif" font-size="10.00"> #m_alignment</text>
</g>
</g>
</svg>
