<?xml version="1.0" encoding="UTF-8" standalone="no"?>
<!DOCTYPE svg PUBLIC "-//W3C//DTD SVG 1.1//EN"
 "http://www.w3.org/Graphics/SVG/1.1/DTD/svg11.dtd">
<!-- Generated by graphviz version 2.38.0 (20140413.2041)
 -->
<!-- Title: qtreports::detail::ParserFromXML::getOptionalAttribute Pages: 1 -->
<!--zoomable 245 -->
<svg id="main" version="1.1" xmlns="http://www.w3.org/2000/svg" xmlns:xlink="http://www.w3.org/1999/xlink" xml:space="preserve" onload="init(evt)">
<style type="text/css"><![CDATA[
.edge:hover path { stroke: red; }
.edge:hover polygon { stroke: red; fill: red; }
]]></style>
<script type="text/javascript"><![CDATA[
var edges = document.getElementsByTagName('g');
if (edges && edges.length) {
  for (var i=0;i<edges.length;i++) {
    if (edges[i].id.substr(0,4)=='edge') {
      edges[i].setAttribute('class','edge');
    }
  }
}
]]></script>
        <defs>
                <circle id="rim" cx="0" cy="0" r="7"/>
                <circle id="rim2" cx="0" cy="0" r="3.5"/>
                <g id="zoomPlus">
                        <use xlink:href="#rim" fill="#404040">
                                <set attributeName="fill" to="#808080" begin="zoomplus.mouseover" end="zoomplus.mouseout"/>
                        </use>
                        <path d="M-4,0h8M0,-4v8" fill="none" stroke="white" stroke-width="1.5" pointer-events="none"/>
                </g>
                <g id="zoomMin">
                        <use xlink:href="#rim" fill="#404040">
                                <set attributeName="fill" to="#808080" begin="zoomminus.mouseover" end="zoomminus.mouseout"/>
                        </use>
                        <path d="M-4,0h8" fill="none" stroke="white" stroke-width="1.5" pointer-events="none"/>
                </g>
                <g id="dirArrow">
                        <path fill="none" stroke="white" stroke-width="1.5" d="M0,-3.0v7 M-2.5,-0.5L0,-3.0L2.5,-0.5"/>
                </g>
               <g id="resetDef">
                       <use xlink:href="#rim2" fill="#404040">
                               <set attributeName="fill" to="#808080" begin="reset.mouseover" end="reset.mouseout"/>
                       </use>
               </g>
        </defs>

<script type="text/javascript">
var viewWidth = 584;
var viewHeight = 245;
var sectionId = 'dynsection-6';
</script>
<script xlink:href="svgpan.js"/>
<svg id="graph" class="graph">
<g id="viewport">
<title>qtreports::detail::ParserFromXML::getOptionalAttribute</title>
<!-- Node1 -->
<g id="node1" class="node"><title>Node1</title>
<polygon fill="#bfbfbf" stroke="black" points="0,-98 0,-139 152,-139 152,-98 0,-98"/>
<text text-anchor="start" x="8" y="-127" font-family="Helvetica,sans-Serif" font-size="10.00">qtreports::detail::</text>
<text text-anchor="start" x="8" y="-116" font-family="Helvetica,sans-Serif" font-size="10.00">ParserFromXML::getOptional</text>
<text text-anchor="middle" x="76" y="-105" font-family="Helvetica,sans-Serif" font-size="10.00">Attribute</text>
</g>
<!-- Node2 -->
<g id="node2" class="node"><title>Node2</title>
<g id="a_node2"><a xlink:href="classqtreports_1_1detail_1_1_parser_from_x_m_l.html#a8247dc85ae5cae03ab3f175982a0857e" target="_top" xlink:title="Парсит тэг report. ">
<polygon fill="none" stroke="black" points="202,-206.5 202,-236.5 356,-236.5 356,-206.5 202,-206.5"/>
<text text-anchor="start" x="210" y="-224.5" font-family="Helvetica,sans-Serif" font-size="10.00">qtreports::detail::</text>
<text text-anchor="middle" x="279" y="-213.5" font-family="Helvetica,sans-Serif" font-size="10.00">ParserFromXML::parseReport</text>
</a>
</g>
</g>
<!-- Node1&#45;&gt;Node2 -->
<g id="edge1" class="edge"><title>Node1&#45;&gt;Node2</title>
<path fill="none" stroke="midnightblue" d="M108.552,-145.629C129.785,-162.663 159.089,-183.904 188,-197.5 195.171,-200.872 202.893,-203.832 210.694,-206.415"/>
<polygon fill="midnightblue" stroke="midnightblue" points="110.504,-142.705 100.543,-139.096 106.079,-148.129 110.504,-142.705"/>
</g>
<!-- Node4 -->
<g id="node4" class="node"><title>Node4</title>
<g id="a_node4"><a xlink:href="classqtreports_1_1detail_1_1_parser_from_x_m_l.html#a5a366e39f908935a618b137e7e27496c" target="_top" xlink:title="Парсит тэг style. ">
<polygon fill="none" stroke="black" points="205.5,-157.5 205.5,-187.5 352.5,-187.5 352.5,-157.5 205.5,-157.5"/>
<text text-anchor="start" x="213.5" y="-175.5" font-family="Helvetica,sans-Serif" font-size="10.00">qtreports::detail::</text>
<text text-anchor="middle" x="279" y="-164.5" font-family="Helvetica,sans-Serif" font-size="10.00">ParserFromXML::parseStyle</text>
</a>
</g>
</g>
<!-- Node1&#45;&gt;Node4 -->
<g id="edge3" class="edge"><title>Node1&#45;&gt;Node4</title>
<path fill="none" stroke="midnightblue" d="M162.082,-141.526C170.834,-143.886 179.595,-146.244 188,-148.5 198.776,-151.393 210.282,-154.47 221.341,-157.422"/>
<polygon fill="midnightblue" stroke="midnightblue" points="162.79,-138.092 152.224,-138.867 160.967,-144.851 162.79,-138.092"/>
</g>
<!-- Node5 -->
<g id="node5" class="node"><title>Node5</title>
<g id="a_node5"><a xlink:href="classqtreports_1_1detail_1_1_parser_from_x_m_l.html#aee6cb5359125988f68abfcd2f6fe4514" target="_top" xlink:title="Парсит тэг ReportElement &#45; общие данные о элементе отчета (положение, размеры и пр.) ">
<polygon fill="none" stroke="black" points="202,-98 202,-139 356,-139 356,-98 202,-98"/>
<text text-anchor="start" x="210" y="-127" font-family="Helvetica,sans-Serif" font-size="10.00">qtreports::detail::</text>
<text text-anchor="start" x="210" y="-116" font-family="Helvetica,sans-Serif" font-size="10.00">ParserFromXML::parseReport</text>
<text text-anchor="middle" x="279" y="-105" font-family="Helvetica,sans-Serif" font-size="10.00">Element</text>
</a>
</g>
</g>
<!-- Node1&#45;&gt;Node5 -->
<g id="edge5" class="edge"><title>Node1&#45;&gt;Node5</title>
<path fill="none" stroke="midnightblue" d="M162.153,-118.5C175.373,-118.5 188.955,-118.5 201.956,-118.5"/>
<polygon fill="midnightblue" stroke="midnightblue" points="162.131,-115 152.131,-118.5 162.131,-122 162.131,-115"/>
</g>
<!-- Node6 -->
<g id="node6" class="node"><title>Node6</title>
<g id="a_node6"><a xlink:href="classqtreports_1_1detail_1_1_parser_from_x_m_l.html#a3693d70428f413c6adb999bf0ad69abe" target="_top" xlink:title="Парсит тэг TextElement &#45; общие данные о текстовом элементе (выравнивание текста и пр...">
<polygon fill="none" stroke="black" points="188,-49.5 188,-79.5 370,-79.5 370,-49.5 188,-49.5"/>
<text text-anchor="start" x="196" y="-67.5" font-family="Helvetica,sans-Serif" font-size="10.00">qtreports::detail::</text>
<text text-anchor="middle" x="279" y="-56.5" font-family="Helvetica,sans-Serif" font-size="10.00">ParserFromXML::parseTextElement</text>
</a>
</g>
</g>
<!-- Node1&#45;&gt;Node6 -->
<g id="edge7" class="edge"><title>Node1&#45;&gt;Node6</title>
<path fill="none" stroke="midnightblue" d="M162.082,-95.4736C170.834,-93.1142 179.595,-90.7564 188,-88.5 198.776,-85.6069 210.282,-82.5298 221.341,-79.5781"/>
<polygon fill="midnightblue" stroke="midnightblue" points="160.967,-92.1492 152.224,-98.1326 162.79,-98.9076 160.967,-92.1492"/>
</g>
<!-- Node7 -->
<g id="node7" class="node"><title>Node7</title>
<g id="a_node7"><a xlink:href="classqtreports_1_1detail_1_1_parser_from_x_m_l.html#a4f7803080037058f482a499ebc1a51ee" target="_top" xlink:title="Парсит font &#45; данные о шрифте текста ">
<polygon fill="none" stroke="black" points="207,-0.5 207,-30.5 351,-30.5 351,-0.5 207,-0.5"/>
<text text-anchor="start" x="215" y="-18.5" font-family="Helvetica,sans-Serif" font-size="10.00">qtreports::detail::</text>
<text text-anchor="middle" x="279" y="-7.5" font-family="Helvetica,sans-Serif" font-size="10.00">ParserFromXML::parseFont</text>
</a>
</g>
</g>
<!-- Node1&#45;&gt;Node7 -->
<g id="edge9" class="edge"><title>Node1&#45;&gt;Node7</title>
<path fill="none" stroke="midnightblue" d="M109.072,-91.5034C130.312,-74.7893 159.429,-54.0117 188,-40.5 195.916,-36.7563 204.498,-33.4795 213.111,-30.6394"/>
<polygon fill="midnightblue" stroke="midnightblue" points="106.674,-88.9394 101.05,-97.9181 111.046,-94.4066 106.674,-88.9394"/>
</g>
<!-- Node3 -->
<g id="node3" class="node"><title>Node3</title>
<g id="a_node3"><a xlink:href="classqtreports_1_1detail_1_1_parser_from_x_m_l.html#ab548bd252b2e13a315daefae6b43f1d6" target="_top" xlink:title="qtreports::detail::\lParserFromXML::ParserFromXML">
<polygon fill="none" stroke="black" points="406,-103.5 406,-133.5 576,-133.5 576,-103.5 406,-103.5"/>
<text text-anchor="start" x="414" y="-121.5" font-family="Helvetica,sans-Serif" font-size="10.00">qtreports::detail::</text>
<text text-anchor="middle" x="491" y="-110.5" font-family="Helvetica,sans-Serif" font-size="10.00">ParserFromXML::ParserFromXML</text>
</a>
</g>
</g>
<!-- Node2&#45;&gt;Node3 -->
<g id="edge2" class="edge"><title>Node2&#45;&gt;Node3</title>
<path fill="none" stroke="midnightblue" d="M355.723,-203.236C360.615,-201.466 365.414,-199.556 370,-197.5 408.465,-180.258 448.441,-151.352 471.17,-133.696"/>
<polygon fill="midnightblue" stroke="midnightblue" points="354.568,-199.932 346.23,-206.468 356.824,-206.558 354.568,-199.932"/>
</g>
<!-- Node4&#45;&gt;Node3 -->
<g id="edge4" class="edge"><title>Node4&#45;&gt;Node3</title>
<path fill="none" stroke="midnightblue" d="M348.212,-154.96C375.074,-148.052 405.614,-140.199 431.453,-133.555"/>
<polygon fill="midnightblue" stroke="midnightblue" points="347.31,-151.578 338.497,-157.458 349.053,-158.357 347.31,-151.578"/>
</g>
<!-- Node5&#45;&gt;Node3 -->
<g id="edge6" class="edge"><title>Node5&#45;&gt;Node3</title>
<path fill="none" stroke="midnightblue" d="M366.479,-118.5C379.531,-118.5 392.978,-118.5 405.978,-118.5"/>
<polygon fill="midnightblue" stroke="midnightblue" points="366.112,-115 356.112,-118.5 366.112,-122 366.112,-115"/>
</g>
<!-- Node6&#45;&gt;Node3 -->
<g id="edge8" class="edge"><title>Node6&#45;&gt;Node3</title>
<path fill="none" stroke="midnightblue" d="M348.212,-82.0401C375.074,-88.9476 405.614,-96.8008 431.453,-103.445"/>
<polygon fill="midnightblue" stroke="midnightblue" points="349.053,-78.6428 338.497,-79.542 347.31,-85.4222 349.053,-78.6428"/>
</g>
<!-- Node7&#45;&gt;Node3 -->
<g id="edge10" class="edge"><title>Node7&#45;&gt;Node3</title>
<path fill="none" stroke="midnightblue" d="M353.43,-33.8598C359.112,-35.896 364.697,-38.1083 370,-40.5 408.053,-57.661 447.841,-85.89 470.699,-103.27"/>
<polygon fill="midnightblue" stroke="midnightblue" points="354.4,-30.4933 343.806,-30.5986 352.154,-37.123 354.4,-30.4933"/>
</g>
</g>
</svg>
        <g id="navigator" transform="translate(0 0)" fill="#404254">
                <rect fill="#f2f5e9" fill-opacity="0.5" stroke="#606060" stroke-width=".5" x="0" y="0" width="60" height="60"/>
                <use id="zoomplus" xlink:href="#zoomPlus" x="17" y="9" onmousedown="handleZoom(evt,'in')"/>
                <use id="zoomminus" xlink:href="#zoomMin" x="42" y="9" onmousedown="handleZoom(evt,'out')"/>
                <use id="reset" xlink:href="#resetDef" x="30" y="36" onmousedown="handleReset()"/>
                <g id="arrowUp" xlink:href="#dirArrow" transform="translate(30 24)" onmousedown="handlePan(0,-1)">
                  <use xlink:href="#rim" fill="#404040">
                        <set attributeName="fill" to="#808080" begin="arrowUp.mouseover" end="arrowUp.mouseout"/>
                  </use>
                  <path fill="none" stroke="white" stroke-width="1.5" d="M0,-3.0v7 M-2.5,-0.5L0,-3.0L2.5,-0.5"/>
                </g>
                <g id="arrowRight" xlink:href="#dirArrow" transform="rotate(90) translate(36 -43)" onmousedown="handlePan(1,0)">
                  <use xlink:href="#rim" fill="#404040">
                        <set attributeName="fill" to="#808080" begin="arrowRight.mouseover" end="arrowRight.mouseout"/>
                  </use>
                  <path fill="none" stroke="white" stroke-width="1.5" d="M0,-3.0v7 M-2.5,-0.5L0,-3.0L2.5,-0.5"/>
                </g>
                <g id="arrowDown" xlink:href="#dirArrow" transform="rotate(180) translate(-30 -48)" onmousedown="handlePan(0,1)">
                  <use xlink:href="#rim" fill="#404040">
                        <set attributeName="fill" to="#808080" begin="arrowDown.mouseover" end="arrowDown.mouseout"/>
                  </use>
                  <path fill="none" stroke="white" stroke-width="1.5" d="M0,-3.0v7 M-2.5,-0.5L0,-3.0L2.5,-0.5"/>
                </g>
                <g id="arrowLeft" xlink:href="#dirArrow" transform="rotate(270) translate(-36 17)" onmousedown="handlePan(-1,0)">
                  <use xlink:href="#rim" fill="#404040">
                        <set attributeName="fill" to="#808080" begin="arrowLeft.mouseover" end="arrowLeft.mouseout"/>
                  </use>
                  <path fill="none" stroke="white" stroke-width="1.5" d="M0,-3.0v7 M-2.5,-0.5L0,-3.0L2.5,-0.5"/>
                </g>
        </g>
        <svg viewBox="0 0 15 15" width="100%" height="30px" preserveAspectRatio="xMaxYMin meet">
         <g id="arrow_out" transform="scale(0.3 0.3)">
          <a xlink:href="classqtreports_1_1detail_1_1_parser_from_x_m_l_a478329a44761310039078ee6871a355d_icgraph_org.svg" target="_base">
           <rect id="button" ry="5" rx="5" y="6" x="6" height="38" width="38"
                fill="#f2f5e9" fill-opacity="0.5" stroke="#606060" stroke-width="1.0"/>
           <path id="arrow"
             d="M 11.500037,31.436501 C 11.940474,20.09759 22.043105,11.32322 32.158766,21.979434 L 37.068811,17.246167 C 37.068811,17.246167 37.088388,32 37.088388,32 L 22.160133,31.978069 C 22.160133,31.978069 26.997745,27.140456 26.997745,27.140456 C 18.528582,18.264221 13.291696,25.230495 11.500037,31.436501 z"
             style="fill:#404040;"/>
          </a>
         </g>
        </svg>
</svg>
