<?xml version="1.0" encoding="UTF-8" standalone="no"?>
<!DOCTYPE svg PUBLIC "-//W3C//DTD SVG 1.1//EN"
 "http://www.w3.org/Graphics/SVG/1.1/DTD/svg11.dtd">
<!-- Generated by graphviz version 2.38.0 (20140413.2041)
 -->
<!-- Title: qtreports::detail::ParserFromXML::parseCrosstab Pages: 1 -->
<svg width="574pt" height="148pt"
 viewBox="0.00 0.00 574.00 147.50" xmlns="http://www.w3.org/2000/svg" xmlns:xlink="http://www.w3.org/1999/xlink">
<g id="graph0" class="graph" transform="scale(1 1) rotate(0) translate(4 143.5)">
<title>qtreports::detail::ParserFromXML::parseCrosstab</title>
<!-- Node1 -->
<g id="node1" class="node"><title>Node1</title>
<polygon fill="#bfbfbf" stroke="black" points="0,-49.5 0,-79.5 166,-79.5 166,-49.5 0,-49.5"/>
<text text-anchor="start" x="8" y="-67.5" font-family="Helvetica,sans-Serif" font-size="10.00">qtreports::detail::</text>
<text text-anchor="middle" x="83" y="-56.5" font-family="Helvetica,sans-Serif" font-size="10.00">ParserFromXML::parseCrosstab</text>
</g>
<!-- Node2 -->
<g id="node2" class="node"><title>Node2</title>
<g id="a_node2"><a xlink:href="classqtreports_1_1detail_1_1_parser_from_x_m_l.html#a478329a44761310039078ee6871a355d" target="_top" xlink:title="qtreports::detail::\lParserFromXML::getOptional\lAttribute">
<polygon fill="none" stroke="black" points="202,-98 202,-139 354,-139 354,-98 202,-98"/>
<text text-anchor="start" x="210" y="-127" font-family="Helvetica,sans-Serif" font-size="10.00">qtreports::detail::</text>
<text text-anchor="start" x="210" y="-116" font-family="Helvetica,sans-Serif" font-size="10.00">ParserFromXML::getOptional</text>
<text text-anchor="middle" x="278" y="-105" font-family="Helvetica,sans-Serif" font-size="10.00">Attribute</text>
</a>
</g>
</g>
<!-- Node1&#45;&gt;Node2 -->
<g id="edge1" class="edge"><title>Node1&#45;&gt;Node2</title>
<path fill="none" stroke="midnightblue" d="M137.761,-79.542C155.143,-84.4052 174.843,-89.9171 193.839,-95.2322"/>
<polygon fill="midnightblue" stroke="midnightblue" points="193.12,-98.6653 203.693,-97.9893 195.006,-91.9242 193.12,-98.6653"/>
</g>
<!-- Node4 -->
<g id="node4" class="node"><title>Node4</title>
<g id="a_node4"><a xlink:href="namespaceqtreports_1_1detail.html#af0dcf7d492b98dd5908ab3b40edeef55" target="_top" xlink:title="qtreports::detail::\ltoBool">
<polygon fill="none" stroke="black" points="228.5,-49.5 228.5,-79.5 327.5,-79.5 327.5,-49.5 228.5,-49.5"/>
<text text-anchor="start" x="236.5" y="-67.5" font-family="Helvetica,sans-Serif" font-size="10.00">qtreports::detail::</text>
<text text-anchor="middle" x="278" y="-56.5" font-family="Helvetica,sans-Serif" font-size="10.00">toBool</text>
</a>
</g>
</g>
<!-- Node1&#45;&gt;Node4 -->
<g id="edge3" class="edge"><title>Node1&#45;&gt;Node4</title>
<path fill="none" stroke="midnightblue" d="M166.129,-64.5C183.717,-64.5 201.955,-64.5 218.438,-64.5"/>
<polygon fill="midnightblue" stroke="midnightblue" points="218.452,-68.0001 228.452,-64.5 218.452,-61.0001 218.452,-68.0001"/>
</g>
<!-- Node6 -->
<g id="node6" class="node"><title>Node6</title>
<g id="a_node6"><a xlink:href="classqtreports_1_1detail_1_1_parser_from_x_m_l.html#a905c36f37ab8c2833ab85e4d8c22716f" target="_top" xlink:title="qtreports::detail::\lParserFromXML::parseChilds">
<polygon fill="none" stroke="black" points="202,-0.5 202,-30.5 354,-30.5 354,-0.5 202,-0.5"/>
<text text-anchor="start" x="210" y="-18.5" font-family="Helvetica,sans-Serif" font-size="10.00">qtreports::detail::</text>
<text text-anchor="middle" x="278" y="-7.5" font-family="Helvetica,sans-Serif" font-size="10.00">ParserFromXML::parseChilds</text>
</a>
</g>
</g>
<!-- Node1&#45;&gt;Node6 -->
<g id="edge5" class="edge"><title>Node1&#45;&gt;Node6</title>
<path fill="none" stroke="midnightblue" d="M143.218,-49.4654C163.689,-44.2682 186.804,-38.3994 207.991,-33.0204"/>
<polygon fill="midnightblue" stroke="midnightblue" points="209.063,-36.3594 217.894,-30.5062 207.34,-29.5747 209.063,-36.3594"/>
</g>
<!-- Node3 -->
<g id="node3" class="node"><title>Node3</title>
<g id="a_node3"><a xlink:href="classqtreports_1_1detail_1_1_parser_from_x_m_l.html#ad0cab06b62d590495eaa6a16465ed2b4" target="_top" xlink:title="qtreports::detail::\lParserFromXML::getAttribute">
<polygon fill="none" stroke="black" points="401,-103.5 401,-133.5 555,-133.5 555,-103.5 401,-103.5"/>
<text text-anchor="start" x="409" y="-121.5" font-family="Helvetica,sans-Serif" font-size="10.00">qtreports::detail::</text>
<text text-anchor="middle" x="478" y="-110.5" font-family="Helvetica,sans-Serif" font-size="10.00">ParserFromXML::getAttribute</text>
</a>
</g>
</g>
<!-- Node2&#45;&gt;Node3 -->
<g id="edge2" class="edge"><title>Node2&#45;&gt;Node3</title>
<path fill="none" stroke="midnightblue" d="M354.138,-118.5C366.103,-118.5 378.563,-118.5 390.761,-118.5"/>
<polygon fill="midnightblue" stroke="midnightblue" points="390.928,-122 400.928,-118.5 390.928,-115 390.928,-122"/>
</g>
<!-- Node5 -->
<g id="node5" class="node"><title>Node5</title>
<g id="a_node5"><a xlink:href="namespaceqtreports_1_1detail.html#a3ce46912811f49a63ad2d9b6a5d310d3" target="_top" xlink:title="qtreports::detail::\lisEquals">
<polygon fill="none" stroke="black" points="428.5,-49.5 428.5,-79.5 527.5,-79.5 527.5,-49.5 428.5,-49.5"/>
<text text-anchor="start" x="436.5" y="-67.5" font-family="Helvetica,sans-Serif" font-size="10.00">qtreports::detail::</text>
<text text-anchor="middle" x="478" y="-56.5" font-family="Helvetica,sans-Serif" font-size="10.00">isEquals</text>
</a>
</g>
</g>
<!-- Node4&#45;&gt;Node5 -->
<g id="edge4" class="edge"><title>Node4&#45;&gt;Node5</title>
<path fill="none" stroke="midnightblue" d="M327.69,-64.5C355.02,-64.5 389.318,-64.5 418.148,-64.5"/>
<polygon fill="midnightblue" stroke="midnightblue" points="418.498,-68.0001 428.498,-64.5 418.498,-61.0001 418.498,-68.0001"/>
</g>
<!-- Node7 -->
<g id="node7" class="node"><title>Node7</title>
<g id="a_node7"><a xlink:href="classqtreports_1_1detail_1_1_parser_from_x_m_l.html#ace9dca09d283384d721c2a985991c9bf" target="_top" xlink:title="qtreports::detail::\lParserFromXML::goToElementEnd">
<polygon fill="none" stroke="black" points="390,-0.5 390,-30.5 566,-30.5 566,-0.5 390,-0.5"/>
<text text-anchor="start" x="398" y="-18.5" font-family="Helvetica,sans-Serif" font-size="10.00">qtreports::detail::</text>
<text text-anchor="middle" x="478" y="-7.5" font-family="Helvetica,sans-Serif" font-size="10.00">ParserFromXML::goToElementEnd</text>
</a>
</g>
</g>
<!-- Node6&#45;&gt;Node7 -->
<g id="edge6" class="edge"><title>Node6&#45;&gt;Node7</title>
<path fill="none" stroke="midnightblue" d="M354.138,-15.5C362.551,-15.5 371.209,-15.5 379.848,-15.5"/>
<polygon fill="midnightblue" stroke="midnightblue" points="379.966,-19.0001 389.966,-15.5 379.966,-12.0001 379.966,-19.0001"/>
</g>
</g>
</svg>
