<?xml version="1.0" encoding="UTF-8" standalone="no"?>
<!DOCTYPE svg PUBLIC "-//W3C//DTD SVG 1.1//EN"
 "http://www.w3.org/Graphics/SVG/1.1/DTD/svg11.dtd">
<!-- Generated by graphviz version 2.38.0 (20140413.2041)
 -->
<!-- Title: qtreports::detail::ConverterToQWidget Pages: 1 -->
<svg width="684pt" height="369pt"
 viewBox="0.00 0.00 683.50 369.00" xmlns="http://www.w3.org/2000/svg" xmlns:xlink="http://www.w3.org/1999/xlink">
<g id="graph0" class="graph" transform="scale(1 1) rotate(0) translate(4 365)">
<title>qtreports::detail::ConverterToQWidget</title>
<!-- Node1 -->
<g id="node1" class="node"><title>Node1</title>
<polygon fill="#bfbfbf" stroke="black" points="275.5,-0.5 275.5,-255.5 415.5,-255.5 415.5,-0.5 275.5,-0.5"/>
<text text-anchor="start" x="283.5" y="-243.5" font-family="Helvetica,sans-Serif" font-size="10.00">qtreports::detail::</text>
<text text-anchor="middle" x="345.5" y="-232.5" font-family="Helvetica,sans-Serif" font-size="10.00">ConverterToQWidget</text>
<polyline fill="none" stroke="black" points="275.5,-225.5 415.5,-225.5 "/>
<text text-anchor="middle" x="345.5" y="-213.5" font-family="Helvetica,sans-Serif" font-size="10.00"> </text>
<polyline fill="none" stroke="black" points="275.5,-206.5 415.5,-206.5 "/>
<text text-anchor="start" x="283.5" y="-194.5" font-family="Helvetica,sans-Serif" font-size="10.00">+ ConverterToQWidget()</text>
<text text-anchor="start" x="283.5" y="-183.5" font-family="Helvetica,sans-Serif" font-size="10.00">+ ~ConverterToQWidget()</text>
<text text-anchor="start" x="283.5" y="-172.5" font-family="Helvetica,sans-Serif" font-size="10.00">+ convert()</text>
<text text-anchor="start" x="283.5" y="-161.5" font-family="Helvetica,sans-Serif" font-size="10.00">+ isReport()</text>
<text text-anchor="start" x="283.5" y="-150.5" font-family="Helvetica,sans-Serif" font-size="10.00">+ isLayout()</text>
<text text-anchor="start" x="283.5" y="-139.5" font-family="Helvetica,sans-Serif" font-size="10.00">+ getType()</text>
<text text-anchor="start" x="283.5" y="-128.5" font-family="Helvetica,sans-Serif" font-size="10.00">+ getQWidget()</text>
<text text-anchor="start" x="283.5" y="-117.5" font-family="Helvetica,sans-Serif" font-size="10.00">+ getPage()</text>
<text text-anchor="start" x="283.5" y="-106.5" font-family="Helvetica,sans-Serif" font-size="10.00">+ getPages()</text>
<text text-anchor="start" x="283.5" y="-95.5" font-family="Helvetica,sans-Serif" font-size="10.00">+ getLastError()</text>
<text text-anchor="start" x="283.5" y="-84.5" font-family="Helvetica,sans-Serif" font-size="10.00">&#45; addVerticalBorder()</text>
<text text-anchor="start" x="283.5" y="-73.5" font-family="Helvetica,sans-Serif" font-size="10.00">&#45; addEmptySection()</text>
<text text-anchor="start" x="283.5" y="-62.5" font-family="Helvetica,sans-Serif" font-size="10.00">&#45; addSectionLayout()</text>
<text text-anchor="start" x="283.5" y="-51.5" font-family="Helvetica,sans-Serif" font-size="10.00">&#45; addPage()</text>
<text text-anchor="start" x="283.5" y="-40.5" font-family="Helvetica,sans-Serif" font-size="10.00">&#45; addGroupsIntoReport()</text>
<text text-anchor="start" x="283.5" y="-29.5" font-family="Helvetica,sans-Serif" font-size="10.00">&#45; createQWidget()</text>
<text text-anchor="start" x="283.5" y="-18.5" font-family="Helvetica,sans-Serif" font-size="10.00">&#45; createSection()</text>
<text text-anchor="start" x="283.5" y="-7.5" font-family="Helvetica,sans-Serif" font-size="10.00">&#45; createBands()</text>
</g>
<!-- Node2 -->
<g id="node2" class="node"><title>Node2</title>
<polygon fill="none" stroke="#bfbfbf" points="0,-303.5 0,-360.5 53,-360.5 53,-303.5 0,-303.5"/>
<text text-anchor="middle" x="26.5" y="-348.5" font-family="Helvetica,sans-Serif" font-size="10.00">QString</text>
<polyline fill="none" stroke="#bfbfbf" points="0,-341.5 53,-341.5 "/>
<text text-anchor="middle" x="26.5" y="-329.5" font-family="Helvetica,sans-Serif" font-size="10.00"> </text>
<polyline fill="none" stroke="#bfbfbf" points="0,-322.5 53,-322.5 "/>
<text text-anchor="middle" x="26.5" y="-310.5" font-family="Helvetica,sans-Serif" font-size="10.00"> </text>
</g>
<!-- Node2&#45;&gt;Node1 -->
<g id="edge1" class="edge"><title>Node2&#45;&gt;Node1</title>
<path fill="none" stroke="#404040" d="M53.3758,-308.951C56.0862,-306.894 58.8253,-304.878 61.5,-303 127.989,-256.31 207.044,-208.457 264.842,-174.782"/>
<polygon fill="none" stroke="#404040" points="265.002,-174.689 268.182,-168.217 275.379,-168.662 272.199,-175.135 265.002,-174.689"/>
<text text-anchor="middle" x="131" y="-277" font-family="Helvetica,sans-Serif" font-size="10.00"> &#45;m_lastError</text>
</g>
<!-- Node3 -->
<g id="node3" class="node"><title>Node3</title>
<polygon fill="none" stroke="#bfbfbf" points="71,-303.5 71,-360.5 202,-360.5 202,-303.5 71,-303.5"/>
<text text-anchor="middle" x="136.5" y="-348.5" font-family="Helvetica,sans-Serif" font-size="10.00">QVector&lt; QWidgetPtr &gt;</text>
<polyline fill="none" stroke="#bfbfbf" points="71,-341.5 202,-341.5 "/>
<text text-anchor="middle" x="136.5" y="-329.5" font-family="Helvetica,sans-Serif" font-size="10.00"> </text>
<polyline fill="none" stroke="#bfbfbf" points="71,-322.5 202,-322.5 "/>
<text text-anchor="middle" x="136.5" y="-310.5" font-family="Helvetica,sans-Serif" font-size="10.00"> </text>
</g>
<!-- Node3&#45;&gt;Node1 -->
<g id="edge2" class="edge"><title>Node3&#45;&gt;Node1</title>
<path fill="none" stroke="#404040" d="M165.122,-303.336C191.197,-278.135 230.947,-239.717 266.501,-205.353"/>
<polygon fill="none" stroke="#404040" points="266.811,-205.054 268.345,-198.008 275.439,-196.714 273.905,-203.76 266.811,-205.054"/>
<text text-anchor="middle" x="219.5" y="-277" font-family="Helvetica,sans-Serif" font-size="10.00"> &#45;m_pages</text>
</g>
<!-- Node4 -->
<g id="node4" class="node"><title>Node4</title>
<polygon fill="none" stroke="#bfbfbf" points="220.5,-303.5 220.5,-360.5 366.5,-360.5 366.5,-303.5 220.5,-303.5"/>
<text text-anchor="middle" x="293.5" y="-348.5" font-family="Helvetica,sans-Serif" font-size="10.00">QSharedPointer&lt; Report &gt;</text>
<polyline fill="none" stroke="#bfbfbf" points="220.5,-341.5 366.5,-341.5 "/>
<text text-anchor="middle" x="293.5" y="-329.5" font-family="Helvetica,sans-Serif" font-size="10.00"> </text>
<polyline fill="none" stroke="#bfbfbf" points="220.5,-322.5 366.5,-322.5 "/>
<text text-anchor="middle" x="293.5" y="-310.5" font-family="Helvetica,sans-Serif" font-size="10.00"> </text>
</g>
<!-- Node4&#45;&gt;Node1 -->
<g id="edge3" class="edge"><title>Node4&#45;&gt;Node1</title>
<path fill="none" stroke="#404040" d="M300.621,-303.336C303.224,-293.224 306.375,-280.984 309.787,-267.732"/>
<polygon fill="none" stroke="#404040" points="309.853,-267.474 307.475,-260.667 312.845,-255.853 315.223,-262.661 309.853,-267.474"/>
<text text-anchor="middle" x="333.5" y="-277" font-family="Helvetica,sans-Serif" font-size="10.00"> &#45;m_report</text>
</g>
<!-- Node5 -->
<g id="node5" class="node"><title>Node5</title>
<polygon fill="none" stroke="#bfbfbf" points="385,-303.5 385,-360.5 414,-360.5 414,-303.5 385,-303.5"/>
<text text-anchor="middle" x="399.5" y="-348.5" font-family="Helvetica,sans-Serif" font-size="10.00">int</text>
<polyline fill="none" stroke="#bfbfbf" points="385,-341.5 414,-341.5 "/>
<text text-anchor="middle" x="399.5" y="-329.5" font-family="Helvetica,sans-Serif" font-size="10.00"> </text>
<polyline fill="none" stroke="#bfbfbf" points="385,-322.5 414,-322.5 "/>
<text text-anchor="middle" x="399.5" y="-310.5" font-family="Helvetica,sans-Serif" font-size="10.00"> </text>
</g>
<!-- Node5&#45;&gt;Node1 -->
<g id="edge4" class="edge"><title>Node5&#45;&gt;Node1</title>
<path fill="none" stroke="#404040" d="M392.105,-303.336C389.402,-293.224 386.129,-280.984 382.587,-267.732"/>
<polygon fill="none" stroke="#404040" points="382.51,-267.446 377.097,-262.683 379.411,-255.853 384.825,-260.617 382.51,-267.446"/>
<text text-anchor="middle" x="430.5" y="-277" font-family="Helvetica,sans-Serif" font-size="10.00"> &#45;m_currentHeight</text>
</g>
<!-- Node6 -->
<g id="node6" class="node"><title>Node6</title>
<polygon fill="none" stroke="#bfbfbf" points="432,-303.5 432,-360.5 587,-360.5 587,-303.5 432,-303.5"/>
<text text-anchor="middle" x="509.5" y="-348.5" font-family="Helvetica,sans-Serif" font-size="10.00">QSharedPointer&lt; QWidget &gt;</text>
<polyline fill="none" stroke="#bfbfbf" points="432,-341.5 587,-341.5 "/>
<text text-anchor="middle" x="509.5" y="-329.5" font-family="Helvetica,sans-Serif" font-size="10.00"> </text>
<polyline fill="none" stroke="#bfbfbf" points="432,-322.5 587,-322.5 "/>
<text text-anchor="middle" x="509.5" y="-310.5" font-family="Helvetica,sans-Serif" font-size="10.00"> </text>
</g>
<!-- Node6&#45;&gt;Node1 -->
<g id="edge5" class="edge"><title>Node6&#45;&gt;Node1</title>
<path fill="none" stroke="#404040" d="M496.136,-303.22C491.086,-293.656 484.981,-283.075 478.5,-274 462.33,-251.359 442.987,-228.448 424.126,-207.73"/>
<polygon fill="none" stroke="#404040" points="423.925,-207.512 416.918,-205.807 415.796,-198.684 422.803,-200.388 423.925,-207.512"/>
<text text-anchor="middle" x="515" y="-277" font-family="Helvetica,sans-Serif" font-size="10.00"> &#45;m_qwidget</text>
</g>
<!-- Node7 -->
<g id="node7" class="node"><title>Node7</title>
<polygon fill="none" stroke="#bfbfbf" points="605.5,-303.5 605.5,-360.5 675.5,-360.5 675.5,-303.5 605.5,-303.5"/>
<text text-anchor="middle" x="640.5" y="-348.5" font-family="Helvetica,sans-Serif" font-size="10.00">WidgetType</text>
<polyline fill="none" stroke="#bfbfbf" points="605.5,-341.5 675.5,-341.5 "/>
<text text-anchor="middle" x="640.5" y="-329.5" font-family="Helvetica,sans-Serif" font-size="10.00"> </text>
<polyline fill="none" stroke="#bfbfbf" points="605.5,-322.5 675.5,-322.5 "/>
<text text-anchor="middle" x="640.5" y="-310.5" font-family="Helvetica,sans-Serif" font-size="10.00"> </text>
</g>
<!-- Node7&#45;&gt;Node1 -->
<g id="edge6" class="edge"><title>Node7&#45;&gt;Node1</title>
<path fill="none" stroke="#404040" d="M605.209,-306.835C561.115,-276.641 484.325,-224.06 425.646,-183.88"/>
<polygon fill="none" stroke="#404040" points="425.555,-183.818 418.345,-183.728 415.654,-177.038 422.865,-177.127 425.555,-183.818"/>
<text text-anchor="middle" x="591" y="-277" font-family="Helvetica,sans-Serif" font-size="10.00"> &#45;m_type</text>
</g>
</g>
</svg>
