<?xml version="1.0" encoding="UTF-8" standalone="no"?>
<!DOCTYPE svg PUBLIC "-//W3C//DTD SVG 1.1//EN"
 "http://www.w3.org/Graphics/SVG/1.1/DTD/svg11.dtd">
<!-- Generated by graphviz version 2.38.0 (20140413.2041)
 -->
<!-- Title: qtreports::detail::Replacer::replaceField Pages: 1 -->
<!--zoomable 482 -->
<svg id="main" version="1.1" xmlns="http://www.w3.org/2000/svg" xmlns:xlink="http://www.w3.org/1999/xlink" xml:space="preserve" onload="init(evt)">
<style type="text/css"><![CDATA[
.edge:hover path { stroke: red; }
.edge:hover polygon { stroke: red; fill: red; }
]]></style>
<script type="text/javascript"><![CDATA[
var edges = document.getElementsByTagName('g');
if (edges && edges.length) {
  for (var i=0;i<edges.length;i++) {
    if (edges[i].id.substr(0,4)=='edge') {
      edges[i].setAttribute('class','edge');
    }
  }
}
]]></script>
        <defs>
                <circle id="rim" cx="0" cy="0" r="7"/>
                <circle id="rim2" cx="0" cy="0" r="3.5"/>
                <g id="zoomPlus">
                        <use xlink:href="#rim" fill="#404040">
                                <set attributeName="fill" to="#808080" begin="zoomplus.mouseover" end="zoomplus.mouseout"/>
                        </use>
                        <path d="M-4,0h8M0,-4v8" fill="none" stroke="white" stroke-width="1.5" pointer-events="none"/>
                </g>
                <g id="zoomMin">
                        <use xlink:href="#rim" fill="#404040">
                                <set attributeName="fill" to="#808080" begin="zoomminus.mouseover" end="zoomminus.mouseout"/>
                        </use>
                        <path d="M-4,0h8" fill="none" stroke="white" stroke-width="1.5" pointer-events="none"/>
                </g>
                <g id="dirArrow">
                        <path fill="none" stroke="white" stroke-width="1.5" d="M0,-3.0v7 M-2.5,-0.5L0,-3.0L2.5,-0.5"/>
                </g>
               <g id="resetDef">
                       <use xlink:href="#rim2" fill="#404040">
                               <set attributeName="fill" to="#808080" begin="reset.mouseover" end="reset.mouseout"/>
                       </use>
               </g>
        </defs>

<script type="text/javascript">
var viewWidth = 2049;
var viewHeight = 482;
var sectionId = 'dynsection-12';
</script>
<script xlink:href="svgpan.js"/>
<svg id="graph" class="graph">
<g id="viewport">
<title>qtreports::detail::Replacer::replaceField</title>
<!-- Node1 -->
<g id="node1" class="node"><title>Node1</title>
<polygon fill="#bfbfbf" stroke="black" points="0,-229.5 0,-259.5 119,-259.5 119,-229.5 0,-229.5"/>
<text text-anchor="start" x="8" y="-247.5" font-family="Helvetica,sans-Serif" font-size="10.00">qtreports::detail::</text>
<text text-anchor="middle" x="59.5" y="-236.5" font-family="Helvetica,sans-Serif" font-size="10.00">Replacer::replaceField</text>
</g>
<!-- Node2 -->
<g id="node2" class="node"><title>Node2</title>
<g id="a_node2"><a xlink:href="classqtreports_1_1detail_1_1_converter_to_h_t_m_l.html#a602c8f3bd3bc44df48b2edcee8bcdfa0" target="_top" xlink:title="Добавление &lt;group&gt; в документ HTML. ">
<polygon fill="none" stroke="black" points="1182,-202 1182,-243 1340,-243 1340,-202 1182,-202"/>
<text text-anchor="start" x="1190" y="-231" font-family="Helvetica,sans-Serif" font-size="10.00">qtreports::detail::</text>
<text text-anchor="start" x="1190" y="-220" font-family="Helvetica,sans-Serif" font-size="10.00">ConverterToHTML::addGroups</text>
<text text-anchor="middle" x="1261" y="-209" font-family="Helvetica,sans-Serif" font-size="10.00">IntoReport</text>
</a>
</g>
</g>
<!-- Node1&#45;&gt;Node2 -->
<g id="edge1" class="edge"><title>Node1&#45;&gt;Node2</title>
<path fill="none" stroke="midnightblue" d="M90.9403,-223.682C153.287,-183.134 301.262,-97.5 439,-97.5 439,-97.5 439,-97.5 856,-97.5 984.758,-97.5 1020.74,-103.497 1141,-149.5 1174.96,-162.489 1209.98,-185.319 1233.15,-201.999"/>
<polygon fill="midnightblue" stroke="midnightblue" points="88.8019,-220.9 82.3743,-229.322 92.6513,-226.746 88.8019,-220.9"/>
</g>
<!-- Node7 -->
<g id="node7" class="node"><title>Node7</title>
<g id="a_node7"><a xlink:href="classqtreports_1_1detail_1_1_converter_to_p_d_f.html#adda58d86ecfee05cdcc5e5ce161926ff" target="_top" xlink:title="Добавляет группу в репорт. ">
<polygon fill="none" stroke="black" points="1177,-104 1177,-145 1345,-145 1345,-104 1177,-104"/>
<text text-anchor="start" x="1185" y="-133" font-family="Helvetica,sans-Serif" font-size="10.00">qtreports::detail::</text>
<text text-anchor="start" x="1185" y="-122" font-family="Helvetica,sans-Serif" font-size="10.00">ConverterToPDF::addGroupsInto</text>
<text text-anchor="middle" x="1261" y="-111" font-family="Helvetica,sans-Serif" font-size="10.00">Report</text>
</a>
</g>
</g>
<!-- Node1&#45;&gt;Node7 -->
<g id="edge6" class="edge"><title>Node1&#45;&gt;Node7</title>
<path fill="none" stroke="midnightblue" d="M71.3697,-219.81C85.904,-189.863 114.605,-140.207 155,-114.5 263.465,-45.4718 310.433,-59.5 439,-59.5 439,-59.5 439,-59.5 856,-59.5 969.665,-59.5 1099.06,-84.8906 1180.12,-103.934"/>
<polygon fill="midnightblue" stroke="midnightblue" points="68.0677,-218.608 66.9874,-229.147 74.4045,-221.582 68.0677,-218.608"/>
</g>
<!-- Node11 -->
<g id="node11" class="node"><title>Node11</title>
<g id="a_node11"><a xlink:href="classqtreports_1_1detail_1_1_converter_to_q_widget.html#ac98aceb5ee703053d7691029da84e296" target="_top" xlink:title="Функция добавления группировок в отчет. ">
<polygon fill="none" stroke="black" points="1201.5,-414 1201.5,-455 1320.5,-455 1320.5,-414 1201.5,-414"/>
<text text-anchor="start" x="1209.5" y="-443" font-family="Helvetica,sans-Serif" font-size="10.00">qtreports::detail::</text>
<text text-anchor="start" x="1209.5" y="-432" font-family="Helvetica,sans-Serif" font-size="10.00">ConverterToQWidget::</text>
<text text-anchor="middle" x="1261" y="-421" font-family="Helvetica,sans-Serif" font-size="10.00">addGroupsIntoReport</text>
</a>
</g>
</g>
<!-- Node1&#45;&gt;Node11 -->
<g id="edge10" class="edge"><title>Node1&#45;&gt;Node11</title>
<path fill="none" stroke="midnightblue" d="M66.1287,-269.658C76.4018,-309.234 102.181,-385.343 155,-422.5 259.307,-495.877 311.469,-463.5 439,-463.5 439,-463.5 439,-463.5 856,-463.5 979.059,-463.5 1122.66,-449.948 1201.22,-441.373"/>
<polygon fill="midnightblue" stroke="midnightblue" points="69.4783,-268.623 63.6852,-259.752 62.682,-270.299 69.4783,-268.623"/>
</g>
<!-- Node18 -->
<g id="node18" class="node"><title>Node18</title>
<g id="a_node18"><a xlink:href="classqtreports_1_1detail_1_1_replacer.html#a2114b58c90fe02b17e7bf99e144013b6" target="_top" xlink:title="qtreports::detail::\lReplacer::replaceRowGroupIn\lCrosstab">
<polygon fill="none" stroke="black" points="160,-304 160,-345 314,-345 314,-304 160,-304"/>
<text text-anchor="start" x="168" y="-333" font-family="Helvetica,sans-Serif" font-size="10.00">qtreports::detail::</text>
<text text-anchor="start" x="168" y="-322" font-family="Helvetica,sans-Serif" font-size="10.00">Replacer::replaceRowGroupIn</text>
<text text-anchor="middle" x="237" y="-311" font-family="Helvetica,sans-Serif" font-size="10.00">Crosstab</text>
</a>
</g>
</g>
<!-- Node1&#45;&gt;Node18 -->
<g id="edge17" class="edge"><title>Node1&#45;&gt;Node18</title>
<path fill="none" stroke="midnightblue" d="M102.936,-263.844C129.536,-275.969 163.792,-291.585 190.885,-303.935"/>
<polygon fill="midnightblue" stroke="midnightblue" points="104.061,-260.511 93.5102,-259.547 101.158,-266.88 104.061,-260.511"/>
</g>
<!-- Node27 -->
<g id="node27" class="node"><title>Node27</title>
<g id="a_node27"><a xlink:href="classqtreports_1_1detail_1_1_replacer.html#a781b476a4e964da9e5afe4f642b2f275" target="_top" xlink:title="qtreports::detail::\lReplacer::replaceColumnGroup\lInCrosstab">
<polygon fill="none" stroke="black" points="155,-199 155,-240 319,-240 319,-199 155,-199"/>
<text text-anchor="start" x="163" y="-228" font-family="Helvetica,sans-Serif" font-size="10.00">qtreports::detail::</text>
<text text-anchor="start" x="163" y="-217" font-family="Helvetica,sans-Serif" font-size="10.00">Replacer::replaceColumnGroup</text>
<text text-anchor="middle" x="237" y="-206" font-family="Helvetica,sans-Serif" font-size="10.00">InCrosstab</text>
</a>
</g>
</g>
<!-- Node1&#45;&gt;Node27 -->
<g id="edge35" class="edge"><title>Node1&#45;&gt;Node27</title>
<path fill="none" stroke="midnightblue" d="M129.432,-234.681C137.747,-233.496 146.299,-232.278 154.77,-231.071"/>
<polygon fill="midnightblue" stroke="midnightblue" points="128.834,-231.23 119.427,-236.106 129.821,-238.16 128.834,-231.23"/>
</g>
<!-- Node29 -->
<g id="node29" class="node"><title>Node29</title>
<g id="a_node29"><a xlink:href="classqtreports_1_1detail_1_1_replacer.html#a9ad7270fd6bdb9a2ba85bdc9652968c8" target="_top" xlink:title="qtreports::detail::\lReplacer::replaceCellInCrosstab">
<polygon fill="none" stroke="black" points="356.5,-257.5 356.5,-287.5 523.5,-287.5 523.5,-257.5 356.5,-257.5"/>
<text text-anchor="start" x="364.5" y="-275.5" font-family="Helvetica,sans-Serif" font-size="10.00">qtreports::detail::</text>
<text text-anchor="middle" x="440" y="-264.5" font-family="Helvetica,sans-Serif" font-size="10.00">Replacer::replaceCellInCrosstab</text>
</a>
</g>
</g>
<!-- Node1&#45;&gt;Node29 -->
<g id="edge41" class="edge"><title>Node1&#45;&gt;Node29</title>
<path fill="none" stroke="midnightblue" d="M129.587,-249.611C193.418,-254.333 288.354,-261.356 356.216,-266.376"/>
<polygon fill="midnightblue" stroke="midnightblue" points="129.456,-246.092 119.225,-248.844 128.94,-253.073 129.456,-246.092"/>
</g>
<!-- Node30 -->
<g id="node30" class="node"><title>Node30</title>
<g id="a_node30"><a xlink:href="classqtreports_1_1detail_1_1_replacer.html#a2be57bd514335f9b9f2a520247562ce1" target="_top" xlink:title="Заменяет текст виджета текстом с подставленными значениями полей из источника данных. ">
<polygon fill="none" stroke="black" points="164,-372 164,-413 310,-413 310,-372 164,-372"/>
<text text-anchor="start" x="172" y="-401" font-family="Helvetica,sans-Serif" font-size="10.00">qtreports::detail::</text>
<text text-anchor="start" x="172" y="-390" font-family="Helvetica,sans-Serif" font-size="10.00">Replacer::replaceFieldInText</text>
<text text-anchor="middle" x="237" y="-379" font-family="Helvetica,sans-Serif" font-size="10.00">Widget</text>
</a>
</g>
</g>
<!-- Node1&#45;&gt;Node30 -->
<g id="edge43" class="edge"><title>Node1&#45;&gt;Node30</title>
<path fill="none" stroke="midnightblue" d="M76.2023,-268.077C93.2761,-292.284 122.508,-329.807 155,-354.5 163.657,-361.079 173.636,-366.901 183.566,-371.889"/>
<polygon fill="midnightblue" stroke="midnightblue" points="79.0485,-266.04 70.4785,-259.81 73.2933,-270.024 79.0485,-266.04"/>
</g>
<!-- Node33 -->
<g id="node33" class="node"><title>Node33</title>
<g id="a_node33"><a xlink:href="classqtreports_1_1detail_1_1_report.html#affe78e092884b14167194cf609b26681" target="_top" xlink:title="Сформировать таблицу соответствия групп и строк. ">
<polygon fill="none" stroke="black" points="176.5,-0.5 176.5,-30.5 297.5,-30.5 297.5,-0.5 176.5,-0.5"/>
<text text-anchor="start" x="184.5" y="-18.5" font-family="Helvetica,sans-Serif" font-size="10.00">qtreports::detail::</text>
<text text-anchor="middle" x="237" y="-7.5" font-family="Helvetica,sans-Serif" font-size="10.00">Report::fillGroupsData</text>
</a>
</g>
</g>
<!-- Node1&#45;&gt;Node33 -->
<g id="edge49" class="edge"><title>Node1&#45;&gt;Node33</title>
<path fill="none" stroke="midnightblue" d="M65.8619,-219.582C76.0765,-177.894 102.179,-93.8349 155,-45.5 161.638,-39.4259 169.614,-34.551 177.936,-30.647"/>
<polygon fill="midnightblue" stroke="midnightblue" points="62.4225,-218.919 63.5484,-229.454 69.2378,-220.516 62.4225,-218.919"/>
</g>
<!-- Node3 -->
<g id="node3" class="node"><title>Node3</title>
<g id="a_node3"><a xlink:href="classqtreports_1_1detail_1_1_converter_to_h_t_m_l.html#ace8358a3612fc8085b7c34f1f92341e2" target="_top" xlink:title="Процесс конвертации репорта в HTML формат. ">
<polygon fill="none" stroke="black" points="1381,-207.5 1381,-237.5 1544,-237.5 1544,-207.5 1381,-207.5"/>
<text text-anchor="start" x="1389" y="-225.5" font-family="Helvetica,sans-Serif" font-size="10.00">qtreports::detail::</text>
<text text-anchor="middle" x="1462.5" y="-214.5" font-family="Helvetica,sans-Serif" font-size="10.00">ConverterToHTML::createHTML</text>
</a>
</g>
</g>
<!-- Node2&#45;&gt;Node3 -->
<g id="edge2" class="edge"><title>Node2&#45;&gt;Node3</title>
<path fill="none" stroke="midnightblue" d="M1350.35,-222.5C1360.49,-222.5 1370.79,-222.5 1380.83,-222.5"/>
<polygon fill="midnightblue" stroke="midnightblue" points="1350.28,-219 1340.28,-222.5 1350.28,-226 1350.28,-219"/>
</g>
<!-- Node4 -->
<g id="node4" class="node"><title>Node4</title>
<g id="a_node4"><a xlink:href="classqtreports_1_1detail_1_1_converter_to_h_t_m_l.html#ad91ac333abf7d02f7590970a54ef7aae" target="_top" xlink:title="Запускает процесс конвертации репорта в HTML формат. ">
<polygon fill="none" stroke="black" points="1580,-207.5 1580,-237.5 1722,-237.5 1722,-207.5 1580,-207.5"/>
<text text-anchor="start" x="1588" y="-225.5" font-family="Helvetica,sans-Serif" font-size="10.00">qtreports::detail::</text>
<text text-anchor="middle" x="1651" y="-214.5" font-family="Helvetica,sans-Serif" font-size="10.00">ConverterToHTML::convert</text>
</a>
</g>
</g>
<!-- Node3&#45;&gt;Node4 -->
<g id="edge3" class="edge"><title>Node3&#45;&gt;Node4</title>
<path fill="none" stroke="midnightblue" d="M1554.32,-222.5C1562.94,-222.5 1571.6,-222.5 1579.99,-222.5"/>
<polygon fill="midnightblue" stroke="midnightblue" points="1554.22,-219 1544.22,-222.5 1554.22,-226 1554.22,-219"/>
</g>
<!-- Node5 -->
<g id="node5" class="node"><title>Node5</title>
<g id="a_node5"><a xlink:href="classqtreports_1_1detail_1_1_converter_to_h_t_m_l.html#a38e92f3fd70f61c44871b22cddffd15a" target="_top" xlink:title="Создает HTML документ при успешной конвертации репорта в HTML формат. ">
<polygon fill="none" stroke="black" points="1758,-256.5 1758,-286.5 1900,-286.5 1900,-256.5 1758,-256.5"/>
<text text-anchor="start" x="1766" y="-274.5" font-family="Helvetica,sans-Serif" font-size="10.00">qtreports::detail::</text>
<text text-anchor="middle" x="1829" y="-263.5" font-family="Helvetica,sans-Serif" font-size="10.00">ConverterToHTML::convert</text>
</a>
</g>
</g>
<!-- Node4&#45;&gt;Node5 -->
<g id="edge4" class="edge"><title>Node4&#45;&gt;Node5</title>
<path fill="none" stroke="midnightblue" d="M1716.01,-240.321C1735.01,-245.612 1755.63,-251.352 1773.94,-256.448"/>
<polygon fill="midnightblue" stroke="midnightblue" points="1716.81,-236.912 1706.24,-237.601 1714.94,-243.655 1716.81,-236.912"/>
</g>
<!-- Node6 -->
<g id="node6" class="node"><title>Node6</title>
<g id="a_node6"><a xlink:href="classqtreports_1_1_engine.html#a551b0db0510d572d56447c471daa0891" target="_top" xlink:title="Создает HTML документ отчета по указанному пути ">
<polygon fill="none" stroke="black" points="1776.5,-207.5 1776.5,-237.5 1881.5,-237.5 1881.5,-207.5 1776.5,-207.5"/>
<text text-anchor="start" x="1784.5" y="-225.5" font-family="Helvetica,sans-Serif" font-size="10.00">qtreports::Engine::</text>
<text text-anchor="middle" x="1829" y="-214.5" font-family="Helvetica,sans-Serif" font-size="10.00">createHTML</text>
</a>
</g>
</g>
<!-- Node4&#45;&gt;Node6 -->
<g id="edge5" class="edge"><title>Node4&#45;&gt;Node6</title>
<path fill="none" stroke="midnightblue" d="M1732.35,-222.5C1747.3,-222.5 1762.54,-222.5 1776.35,-222.5"/>
<polygon fill="midnightblue" stroke="midnightblue" points="1732.07,-219 1722.07,-222.5 1732.07,-226 1732.07,-219"/>
</g>
<!-- Node8 -->
<g id="node8" class="node"><title>Node8</title>
<g id="a_node8"><a xlink:href="classqtreports_1_1detail_1_1_converter_to_p_d_f.html#aad8435572f5ba065f8f2fef428d97b22" target="_top" xlink:title="Конвертирует отчет в PDF документ. ">
<polygon fill="none" stroke="black" points="1398.5,-134.5 1398.5,-164.5 1526.5,-164.5 1526.5,-134.5 1398.5,-134.5"/>
<text text-anchor="start" x="1406.5" y="-152.5" font-family="Helvetica,sans-Serif" font-size="10.00">qtreports::detail::</text>
<text text-anchor="middle" x="1462.5" y="-141.5" font-family="Helvetica,sans-Serif" font-size="10.00">ConverterToPDF::create</text>
</a>
</g>
</g>
<!-- Node7&#45;&gt;Node8 -->
<g id="edge7" class="edge"><title>Node7&#45;&gt;Node8</title>
<path fill="none" stroke="midnightblue" d="M1355.21,-136.18C1369.78,-138.006 1384.54,-139.856 1398.23,-141.572"/>
<polygon fill="midnightblue" stroke="midnightblue" points="1355.52,-132.692 1345.16,-134.921 1354.65,-139.638 1355.52,-132.692"/>
</g>
<!-- Node9 -->
<g id="node9" class="node"><title>Node9</title>
<g id="a_node9"><a xlink:href="classqtreports_1_1detail_1_1_converter_to_p_d_f.html#af39953d8db1bdcbbcf59cc00b05747eb" target="_top" xlink:title="Запускает процесс конвертации. ">
<polygon fill="none" stroke="black" points="1584,-134.5 1584,-164.5 1718,-164.5 1718,-134.5 1584,-134.5"/>
<text text-anchor="start" x="1592" y="-152.5" font-family="Helvetica,sans-Serif" font-size="10.00">qtreports::detail::</text>
<text text-anchor="middle" x="1651" y="-141.5" font-family="Helvetica,sans-Serif" font-size="10.00">ConverterToPDF::convert</text>
</a>
</g>
</g>
<!-- Node8&#45;&gt;Node9 -->
<g id="edge8" class="edge"><title>Node8&#45;&gt;Node9</title>
<path fill="none" stroke="midnightblue" d="M1536.7,-149.5C1552.21,-149.5 1568.5,-149.5 1583.74,-149.5"/>
<polygon fill="midnightblue" stroke="midnightblue" points="1536.64,-146 1526.64,-149.5 1536.64,-153 1536.64,-146"/>
</g>
<!-- Node10 -->
<g id="node10" class="node"><title>Node10</title>
<g id="a_node10"><a xlink:href="classqtreports_1_1_engine.html#a34b6ccdf31af3bd275d9fb95100c6bda" target="_top" xlink:title="Создает PDF документ отчета по указанному пути ">
<polygon fill="none" stroke="black" points="1776.5,-134.5 1776.5,-164.5 1881.5,-164.5 1881.5,-134.5 1776.5,-134.5"/>
<text text-anchor="start" x="1784.5" y="-152.5" font-family="Helvetica,sans-Serif" font-size="10.00">qtreports::Engine::</text>
<text text-anchor="middle" x="1829" y="-141.5" font-family="Helvetica,sans-Serif" font-size="10.00">createPDF</text>
</a>
</g>
</g>
<!-- Node9&#45;&gt;Node10 -->
<g id="edge9" class="edge"><title>Node9&#45;&gt;Node10</title>
<path fill="none" stroke="midnightblue" d="M1728.11,-149.5C1744.43,-149.5 1761.31,-149.5 1776.44,-149.5"/>
<polygon fill="midnightblue" stroke="midnightblue" points="1728.04,-146 1718.04,-149.5 1728.04,-153 1728.04,-146"/>
</g>
<!-- Node12 -->
<g id="node12" class="node"><title>Node12</title>
<g id="a_node12"><a xlink:href="classqtreports_1_1detail_1_1_converter_to_q_widget.html#a96a53267cf2b8092e174906ea7f0f56f" target="_top" xlink:title="Конвертирует отчет в QWidget. ">
<polygon fill="none" stroke="black" points="1403,-389 1403,-430 1522,-430 1522,-389 1403,-389"/>
<text text-anchor="start" x="1411" y="-418" font-family="Helvetica,sans-Serif" font-size="10.00">qtreports::detail::</text>
<text text-anchor="start" x="1411" y="-407" font-family="Helvetica,sans-Serif" font-size="10.00">ConverterToQWidget::</text>
<text text-anchor="middle" x="1462.5" y="-396" font-family="Helvetica,sans-Serif" font-size="10.00">createQWidget</text>
</a>
</g>
</g>
<!-- Node11&#45;&gt;Node12 -->
<g id="edge11" class="edge"><title>Node11&#45;&gt;Node12</title>
<path fill="none" stroke="midnightblue" d="M1330.45,-425.923C1354.05,-422.965 1380.26,-419.681 1402.99,-416.832"/>
<polygon fill="midnightblue" stroke="midnightblue" points="1330,-422.452 1320.51,-427.168 1330.87,-429.397 1330,-422.452"/>
</g>
<!-- Node13 -->
<g id="node13" class="node"><title>Node13</title>
<g id="a_node13"><a xlink:href="classqtreports_1_1detail_1_1_converter_to_q_widget.html#a4b42725ccbbc910522dca786da95fbb6" target="_top" xlink:title="Конвертирует отчет в виджет. ">
<polygon fill="none" stroke="black" points="1591.5,-389 1591.5,-430 1710.5,-430 1710.5,-389 1591.5,-389"/>
<text text-anchor="start" x="1599.5" y="-418" font-family="Helvetica,sans-Serif" font-size="10.00">qtreports::detail::</text>
<text text-anchor="start" x="1599.5" y="-407" font-family="Helvetica,sans-Serif" font-size="10.00">ConverterToQWidget::</text>
<text text-anchor="middle" x="1651" y="-396" font-family="Helvetica,sans-Serif" font-size="10.00">convert</text>
</a>
</g>
</g>
<!-- Node12&#45;&gt;Node13 -->
<g id="edge12" class="edge"><title>Node12&#45;&gt;Node13</title>
<path fill="none" stroke="midnightblue" d="M1532.49,-409.5C1551.79,-409.5 1572.58,-409.5 1591.22,-409.5"/>
<polygon fill="midnightblue" stroke="midnightblue" points="1532.25,-406 1522.25,-409.5 1532.25,-413 1532.25,-406"/>
</g>
<!-- Node14 -->
<g id="node14" class="node"><title>Node14</title>
<g id="a_node14"><a xlink:href="classqtreports_1_1_engine.html#a2a0fef0c95335eec5df4f61e4ffa7434" target="_top" xlink:title="Создает виджет отчета для вывода на экран. ">
<polygon fill="none" stroke="black" points="1776.5,-443.5 1776.5,-473.5 1881.5,-473.5 1881.5,-443.5 1776.5,-443.5"/>
<text text-anchor="start" x="1784.5" y="-461.5" font-family="Helvetica,sans-Serif" font-size="10.00">qtreports::Engine::</text>
<text text-anchor="middle" x="1829" y="-450.5" font-family="Helvetica,sans-Serif" font-size="10.00">createWidget</text>
</a>
</g>
</g>
<!-- Node13&#45;&gt;Node14 -->
<g id="edge13" class="edge"><title>Node13&#45;&gt;Node14</title>
<path fill="none" stroke="midnightblue" d="M1720.24,-428.499C1738.93,-433.701 1758.86,-439.252 1776.44,-444.146"/>
<polygon fill="midnightblue" stroke="midnightblue" points="1721.18,-425.127 1710.61,-425.816 1719.3,-431.87 1721.18,-425.127"/>
</g>
<!-- Node15 -->
<g id="node15" class="node"><title>Node15</title>
<g id="a_node15"><a xlink:href="classqtreports_1_1_engine.html#a3966d8f0ebb6c1f94812ec21e21680c0" target="_top" xlink:title="qtreports::Engine::\lcreateLayout">
<polygon fill="none" stroke="black" points="1776.5,-394.5 1776.5,-424.5 1881.5,-424.5 1881.5,-394.5 1776.5,-394.5"/>
<text text-anchor="start" x="1784.5" y="-412.5" font-family="Helvetica,sans-Serif" font-size="10.00">qtreports::Engine::</text>
<text text-anchor="middle" x="1829" y="-401.5" font-family="Helvetica,sans-Serif" font-size="10.00">createLayout</text>
</a>
</g>
</g>
<!-- Node13&#45;&gt;Node15 -->
<g id="edge14" class="edge"><title>Node13&#45;&gt;Node15</title>
<path fill="none" stroke="midnightblue" d="M1720.76,-409.5C1739.29,-409.5 1759.03,-409.5 1776.44,-409.5"/>
<polygon fill="midnightblue" stroke="midnightblue" points="1720.61,-406 1710.61,-409.5 1720.61,-413 1720.61,-406"/>
</g>
<!-- Node16 -->
<g id="node16" class="node"><title>Node16</title>
<g id="a_node16"><a xlink:href="classqtreports_1_1_engine.html#a93dc7711446a155f87d9146efb493f9e" target="_top" xlink:title="qtreports::Engine::\ldrawPreview">
<polygon fill="none" stroke="black" points="1776.5,-345.5 1776.5,-375.5 1881.5,-375.5 1881.5,-345.5 1776.5,-345.5"/>
<text text-anchor="start" x="1784.5" y="-363.5" font-family="Helvetica,sans-Serif" font-size="10.00">qtreports::Engine::</text>
<text text-anchor="middle" x="1829" y="-352.5" font-family="Helvetica,sans-Serif" font-size="10.00">drawPreview</text>
</a>
</g>
</g>
<!-- Node13&#45;&gt;Node16 -->
<g id="edge15" class="edge"><title>Node13&#45;&gt;Node16</title>
<path fill="none" stroke="midnightblue" d="M1720.24,-390.501C1738.93,-385.299 1758.86,-379.748 1776.44,-374.854"/>
<polygon fill="midnightblue" stroke="midnightblue" points="1719.3,-387.13 1710.61,-393.184 1721.18,-393.873 1719.3,-387.13"/>
</g>
<!-- Node17 -->
<g id="node17" class="node"><title>Node17</title>
<g id="a_node17"><a xlink:href="classqtreports_1_1_engine.html#ae80c66a0bc958bf82e023b646e18d55b" target="_top" xlink:title="qtreports::Engine::\lprint">
<polygon fill="none" stroke="black" points="1936,-345.5 1936,-375.5 2041,-375.5 2041,-345.5 1936,-345.5"/>
<text text-anchor="start" x="1944" y="-363.5" font-family="Helvetica,sans-Serif" font-size="10.00">qtreports::Engine::</text>
<text text-anchor="middle" x="1988.5" y="-352.5" font-family="Helvetica,sans-Serif" font-size="10.00">print</text>
</a>
</g>
</g>
<!-- Node16&#45;&gt;Node17 -->
<g id="edge16" class="edge"><title>Node16&#45;&gt;Node17</title>
<path fill="none" stroke="midnightblue" d="M1891.97,-360.5C1906.49,-360.5 1921.8,-360.5 1935.81,-360.5"/>
<polygon fill="midnightblue" stroke="midnightblue" points="1891.57,-357 1881.57,-360.5 1891.57,-364 1891.57,-357"/>
</g>
<!-- Node19 -->
<g id="node19" class="node"><title>Node19</title>
<g id="a_node19"><a xlink:href="classqtreports_1_1detail_1_1_replacer.html#ae0f12ba0e77e9ef89b9479272e843fe6" target="_top" xlink:title="qtreports::detail::\lReplacer::replaceRowGroups\lInCrosstab">
<polygon fill="none" stroke="black" points="364.5,-306 364.5,-347 515.5,-347 515.5,-306 364.5,-306"/>
<text text-anchor="start" x="372.5" y="-335" font-family="Helvetica,sans-Serif" font-size="10.00">qtreports::detail::</text>
<text text-anchor="start" x="372.5" y="-324" font-family="Helvetica,sans-Serif" font-size="10.00">Replacer::replaceRowGroups</text>
<text text-anchor="middle" x="440" y="-313" font-family="Helvetica,sans-Serif" font-size="10.00">InCrosstab</text>
</a>
</g>
</g>
<!-- Node18&#45;&gt;Node19 -->
<g id="edge18" class="edge"><title>Node18&#45;&gt;Node19</title>
<path fill="none" stroke="midnightblue" d="M324.39,-325.36C337.723,-325.492 351.393,-325.628 364.438,-325.758"/>
<polygon fill="midnightblue" stroke="midnightblue" points="324.31,-321.859 314.276,-325.259 324.241,-328.858 324.31,-321.859"/>
</g>
<!-- Node20 -->
<g id="node20" class="node"><title>Node20</title>
<g id="a_node20"><a xlink:href="classqtreports_1_1detail_1_1_converter_to_h_t_m_l.html#a5b8d80606e58c8bcdadc7ce6134e9c2f" target="_top" xlink:title="Добавление объектов Crosstab в документ HTML. ">
<polygon fill="none" stroke="black" points="769,-251 769,-292 941,-292 941,-251 769,-251"/>
<text text-anchor="start" x="777" y="-280" font-family="Helvetica,sans-Serif" font-size="10.00">qtreports::detail::</text>
<text text-anchor="start" x="777" y="-269" font-family="Helvetica,sans-Serif" font-size="10.00">ConverterToHTML::addCrosstabs</text>
<text text-anchor="middle" x="855" y="-258" font-family="Helvetica,sans-Serif" font-size="10.00">IntoReport</text>
</a>
</g>
</g>
<!-- Node19&#45;&gt;Node20 -->
<g id="edge19" class="edge"><title>Node19&#45;&gt;Node20</title>
<path fill="none" stroke="midnightblue" d="M525.611,-333.284C584.558,-335.813 664.57,-334.832 733,-318.5 750.211,-314.392 752.636,-308.231 769,-301.5 776.815,-298.285 785.115,-295.092 793.348,-292.054"/>
<polygon fill="midnightblue" stroke="midnightblue" points="525.752,-329.787 515.599,-332.812 525.423,-336.779 525.752,-329.787"/>
</g>
<!-- Node22 -->
<g id="node22" class="node"><title>Node22</title>
<g id="a_node22"><a xlink:href="classqtreports_1_1detail_1_1_converter_to_p_d_f.html#aba1de1bf9abc3ea9b7b5c2b8317f5a0f" target="_top" xlink:title="Создает band. ">
<polygon fill="none" stroke="black" points="776,-158.5 776,-188.5 934,-188.5 934,-158.5 776,-158.5"/>
<text text-anchor="start" x="784" y="-176.5" font-family="Helvetica,sans-Serif" font-size="10.00">qtreports::detail::</text>
<text text-anchor="middle" x="855" y="-165.5" font-family="Helvetica,sans-Serif" font-size="10.00">ConverterToPDF::createBands</text>
</a>
</g>
</g>
<!-- Node19&#45;&gt;Node22 -->
<g id="edge23" class="edge"><title>Node19&#45;&gt;Node22</title>
<path fill="none" stroke="midnightblue" d="M516.686,-301.724C519.525,-300.368 522.306,-298.96 525,-297.5 542.82,-287.84 543.104,-279.019 561,-269.5 633.898,-230.726 725.323,-203.825 786.482,-188.566"/>
<polygon fill="midnightblue" stroke="midnightblue" points="515.145,-298.579 507.459,-305.872 518.015,-304.964 515.145,-298.579"/>
</g>
<!-- Node24 -->
<g id="node24" class="node"><title>Node24</title>
<g id="a_node24"><a xlink:href="classqtreports_1_1detail_1_1_converter_to_q_widget.html#aa3be16e037533a4a5b58596087207187" target="_top" xlink:title="Создает band. ">
<polygon fill="none" stroke="black" points="795.5,-311 795.5,-352 914.5,-352 914.5,-311 795.5,-311"/>
<text text-anchor="start" x="803.5" y="-340" font-family="Helvetica,sans-Serif" font-size="10.00">qtreports::detail::</text>
<text text-anchor="start" x="803.5" y="-329" font-family="Helvetica,sans-Serif" font-size="10.00">ConverterToQWidget::</text>
<text text-anchor="middle" x="855" y="-318" font-family="Helvetica,sans-Serif" font-size="10.00">createBands</text>
</a>
</g>
</g>
<!-- Node19&#45;&gt;Node24 -->
<g id="edge27" class="edge"><title>Node19&#45;&gt;Node24</title>
<path fill="none" stroke="midnightblue" d="M525.435,-346.351C537.317,-348.483 549.423,-350.307 561,-351.5 637.042,-359.337 656.812,-357.754 733,-351.5 753.478,-349.819 775.711,-346.563 795.466,-343.159"/>
<polygon fill="midnightblue" stroke="midnightblue" points="525.997,-342.896 515.523,-344.496 524.709,-349.776 525.997,-342.896"/>
</g>
<!-- Node26 -->
<g id="node26" class="node"><title>Node26</title>
<g id="a_node26"><a xlink:href="classqtreports_1_1detail_1_1_replacer.html#a5dc72251354d389091776142436ebd22" target="_top" xlink:title="qtreports::detail::\lReplacer::replaceCellsInCrosstab">
<polygon fill="none" stroke="black" points="561,-278.5 561,-308.5 733,-308.5 733,-278.5 561,-278.5"/>
<text text-anchor="start" x="569" y="-296.5" font-family="Helvetica,sans-Serif" font-size="10.00">qtreports::detail::</text>
<text text-anchor="middle" x="647" y="-285.5" font-family="Helvetica,sans-Serif" font-size="10.00">Replacer::replaceCellsInCrosstab</text>
</a>
</g>
</g>
<!-- Node19&#45;&gt;Node26 -->
<g id="edge31" class="edge"><title>Node19&#45;&gt;Node26</title>
<path fill="none" stroke="midnightblue" d="M525.661,-312.872C537.231,-311.009 549.113,-309.096 560.694,-307.232"/>
<polygon fill="midnightblue" stroke="midnightblue" points="524.906,-309.448 515.59,-314.493 526.019,-316.359 524.906,-309.448"/>
</g>
<!-- Node21 -->
<g id="node21" class="node"><title>Node21</title>
<g id="a_node21"><a xlink:href="classqtreports_1_1detail_1_1_converter_to_h_t_m_l.html#acd1d271ed38019d408d8597000e974be" target="_top" xlink:title="Добавление &lt;band&gt; в документ HTML. ">
<polygon fill="none" stroke="black" points="984.5,-256.5 984.5,-286.5 1133.5,-286.5 1133.5,-256.5 984.5,-256.5"/>
<text text-anchor="start" x="992.5" y="-274.5" font-family="Helvetica,sans-Serif" font-size="10.00">qtreports::detail::</text>
<text text-anchor="middle" x="1059" y="-263.5" font-family="Helvetica,sans-Serif" font-size="10.00">ConverterToHTML::addBand</text>
</a>
</g>
</g>
<!-- Node20&#45;&gt;Node21 -->
<g id="edge20" class="edge"><title>Node20&#45;&gt;Node21</title>
<path fill="none" stroke="midnightblue" d="M951.221,-271.5C962.308,-271.5 973.487,-271.5 984.224,-271.5"/>
<polygon fill="midnightblue" stroke="midnightblue" points="951.081,-268 941.081,-271.5 951.081,-275 951.081,-268"/>
</g>
<!-- Node21&#45;&gt;Node2 -->
<g id="edge22" class="edge"><title>Node21&#45;&gt;Node2</title>
<path fill="none" stroke="midnightblue" d="M1131.37,-254.014C1147.7,-250.013 1165.15,-245.739 1181.75,-241.671"/>
<polygon fill="midnightblue" stroke="midnightblue" points="1130.25,-250.686 1121.37,-256.465 1131.91,-257.485 1130.25,-250.686"/>
</g>
<!-- Node21&#45;&gt;Node3 -->
<g id="edge21" class="edge"><title>Node21&#45;&gt;Node3</title>
<path fill="none" stroke="midnightblue" d="M1143.69,-269.998C1200.73,-267.978 1277.8,-263.297 1345,-252.5 1367.06,-248.955 1391.04,-243.133 1411.47,-237.556"/>
<polygon fill="midnightblue" stroke="midnightblue" points="1143.52,-266.501 1133.64,-270.333 1143.75,-273.497 1143.52,-266.501"/>
</g>
<!-- Node23 -->
<g id="node23" class="node"><title>Node23</title>
<g id="a_node23"><a xlink:href="classqtreports_1_1detail_1_1_converter_to_p_d_f.html#a5d9212cf5250d8d938359c417537337c" target="_top" xlink:title="Создает секцию. ">
<polygon fill="none" stroke="black" points="977,-158.5 977,-188.5 1141,-188.5 1141,-158.5 977,-158.5"/>
<text text-anchor="start" x="985" y="-176.5" font-family="Helvetica,sans-Serif" font-size="10.00">qtreports::detail::</text>
<text text-anchor="middle" x="1059" y="-165.5" font-family="Helvetica,sans-Serif" font-size="10.00">ConverterToPDF::createSection</text>
</a>
</g>
</g>
<!-- Node22&#45;&gt;Node23 -->
<g id="edge24" class="edge"><title>Node22&#45;&gt;Node23</title>
<path fill="none" stroke="midnightblue" d="M944.355,-173.5C955.131,-173.5 966.103,-173.5 976.769,-173.5"/>
<polygon fill="midnightblue" stroke="midnightblue" points="944.099,-170 934.098,-173.5 944.098,-177 944.099,-170"/>
</g>
<!-- Node23&#45;&gt;Node7 -->
<g id="edge26" class="edge"><title>Node23&#45;&gt;Node7</title>
<path fill="none" stroke="midnightblue" d="M1131.36,-156.016C1146.03,-152.422 1161.6,-148.608 1176.65,-144.92"/>
<polygon fill="midnightblue" stroke="midnightblue" points="1130.25,-152.686 1121.37,-158.465 1131.91,-159.485 1130.25,-152.686"/>
</g>
<!-- Node23&#45;&gt;Node8 -->
<g id="edge25" class="edge"><title>Node23&#45;&gt;Node8</title>
<path fill="none" stroke="midnightblue" d="M1151.23,-168.046C1226.74,-163.533 1332.04,-157.239 1398.48,-153.267"/>
<polygon fill="midnightblue" stroke="midnightblue" points="1151.02,-164.553 1141.25,-168.643 1151.44,-171.54 1151.02,-164.553"/>
</g>
<!-- Node25 -->
<g id="node25" class="node"><title>Node25</title>
<g id="a_node25"><a xlink:href="classqtreports_1_1detail_1_1_converter_to_q_widget.html#a3c95daf9bd10efc4feb71e0d976bbd6e" target="_top" xlink:title="Создает секцию. ">
<polygon fill="none" stroke="black" points="999.5,-365 999.5,-406 1118.5,-406 1118.5,-365 999.5,-365"/>
<text text-anchor="start" x="1007.5" y="-394" font-family="Helvetica,sans-Serif" font-size="10.00">qtreports::detail::</text>
<text text-anchor="start" x="1007.5" y="-383" font-family="Helvetica,sans-Serif" font-size="10.00">ConverterToQWidget::</text>
<text text-anchor="middle" x="1059" y="-372" font-family="Helvetica,sans-Serif" font-size="10.00">createSection</text>
</a>
</g>
</g>
<!-- Node24&#45;&gt;Node25 -->
<g id="edge28" class="edge"><title>Node24&#45;&gt;Node25</title>
<path fill="none" stroke="midnightblue" d="M924.539,-349.822C948.773,-356.301 975.797,-363.525 999.155,-369.769"/>
<polygon fill="midnightblue" stroke="midnightblue" points="925.263,-346.393 914.698,-347.192 923.455,-353.155 925.263,-346.393"/>
</g>
<!-- Node25&#45;&gt;Node11 -->
<g id="edge30" class="edge"><title>Node25&#45;&gt;Node11</title>
<path fill="none" stroke="midnightblue" d="M1128.62,-402.312C1152.28,-408.109 1178.55,-414.545 1201.35,-420.13"/>
<polygon fill="midnightblue" stroke="midnightblue" points="1129.2,-398.851 1118.66,-399.871 1127.54,-405.65 1129.2,-398.851"/>
</g>
<!-- Node25&#45;&gt;Node12 -->
<g id="edge29" class="edge"><title>Node25&#45;&gt;Node12</title>
<path fill="none" stroke="midnightblue" d="M1128.92,-389.62C1206.17,-394.237 1330.08,-401.644 1402.86,-405.995"/>
<polygon fill="midnightblue" stroke="midnightblue" points="1129,-386.119 1118.81,-389.016 1128.58,-393.106 1129,-386.119"/>
</g>
<!-- Node26&#45;&gt;Node20 -->
<g id="edge32" class="edge"><title>Node26&#45;&gt;Node20</title>
<path fill="none" stroke="midnightblue" d="M743.236,-283.329C751.761,-282.419 760.357,-281.501 768.789,-280.6"/>
<polygon fill="midnightblue" stroke="midnightblue" points="742.847,-279.851 733.275,-284.393 743.59,-286.811 742.847,-279.851"/>
</g>
<!-- Node26&#45;&gt;Node22 -->
<g id="edge33" class="edge"><title>Node26&#45;&gt;Node22</title>
<path fill="none" stroke="midnightblue" d="M682.947,-273.142C724.074,-249.185 791.4,-209.966 828.122,-188.575"/>
<polygon fill="midnightblue" stroke="midnightblue" points="680.969,-270.244 674.09,-278.302 684.493,-276.293 680.969,-270.244"/>
</g>
<!-- Node26&#45;&gt;Node24 -->
<g id="edge34" class="edge"><title>Node26&#45;&gt;Node24</title>
<path fill="none" stroke="midnightblue" d="M739.31,-310.344C758.349,-313.856 777.928,-317.467 795.399,-320.69"/>
<polygon fill="midnightblue" stroke="midnightblue" points="739.886,-306.891 729.417,-308.519 738.616,-313.775 739.886,-306.891"/>
</g>
<!-- Node28 -->
<g id="node28" class="node"><title>Node28</title>
<g id="a_node28"><a xlink:href="classqtreports_1_1detail_1_1_replacer.html#aa9fa83cf51d75301b62e11a0a93e2dcc" target="_top" xlink:title="qtreports::detail::\lReplacer::replaceColumnGroups\lInCrosstab">
<polygon fill="none" stroke="black" points="355,-198 355,-239 525,-239 525,-198 355,-198"/>
<text text-anchor="start" x="363" y="-227" font-family="Helvetica,sans-Serif" font-size="10.00">qtreports::detail::</text>
<text text-anchor="start" x="363" y="-216" font-family="Helvetica,sans-Serif" font-size="10.00">Replacer::replaceColumnGroups</text>
<text text-anchor="middle" x="440" y="-205" font-family="Helvetica,sans-Serif" font-size="10.00">InCrosstab</text>
</a>
</g>
</g>
<!-- Node27&#45;&gt;Node28 -->
<g id="edge36" class="edge"><title>Node27&#45;&gt;Node28</title>
<path fill="none" stroke="midnightblue" d="M329.176,-219.046C337.743,-219.004 346.402,-218.961 354.9,-218.918"/>
<polygon fill="midnightblue" stroke="midnightblue" points="329.157,-215.546 319.175,-219.096 329.192,-222.546 329.157,-215.546"/>
</g>
<!-- Node28&#45;&gt;Node20 -->
<g id="edge37" class="edge"><title>Node28&#45;&gt;Node20</title>
<path fill="none" stroke="midnightblue" d="M535.458,-218.49C592.946,-219.845 667.651,-224.036 733,-235.5 753.508,-239.098 775.458,-244.983 794.956,-250.962"/>
<polygon fill="midnightblue" stroke="midnightblue" points="535.367,-214.988 525.295,-218.276 535.219,-221.986 535.367,-214.988"/>
</g>
<!-- Node28&#45;&gt;Node22 -->
<g id="edge38" class="edge"><title>Node28&#45;&gt;Node22</title>
<path fill="none" stroke="midnightblue" d="M481.488,-192.795C503.965,-180.05 532.978,-166.016 561,-159.5 633.048,-142.746 717.662,-149.511 777.388,-158.5"/>
<polygon fill="midnightblue" stroke="midnightblue" points="479.476,-189.916 472.589,-197.967 482.994,-195.968 479.476,-189.916"/>
</g>
<!-- Node28&#45;&gt;Node24 -->
<g id="edge39" class="edge"><title>Node28&#45;&gt;Node24</title>
<path fill="none" stroke="midnightblue" d="M535.124,-232.31C613.541,-244.25 715.195,-260.904 733,-269.5 752.278,-278.807 750.562,-290.623 769,-301.5 777.222,-306.35 786.352,-310.592 795.49,-314.241"/>
<polygon fill="midnightblue" stroke="midnightblue" points="535.61,-228.844 525.198,-230.805 534.56,-235.765 535.61,-228.844"/>
</g>
<!-- Node28&#45;&gt;Node26 -->
<g id="edge40" class="edge"><title>Node28&#45;&gt;Node26</title>
<path fill="none" stroke="midnightblue" d="M509.417,-242.601C514.702,-244.565 519.945,-246.546 525,-248.5 541.167,-254.75 544.821,-257.28 561,-263.5 574.146,-268.554 588.554,-273.763 601.713,-278.392"/>
<polygon fill="midnightblue" stroke="midnightblue" points="510.483,-239.265 499.89,-239.096 508.066,-245.834 510.483,-239.265"/>
</g>
<!-- Node29&#45;&gt;Node26 -->
<g id="edge42" class="edge"><title>Node29&#45;&gt;Node26</title>
<path fill="none" stroke="midnightblue" d="M533.89,-282.016C542.886,-282.937 551.981,-283.869 560.896,-284.782"/>
<polygon fill="midnightblue" stroke="midnightblue" points="534.095,-278.518 523.79,-280.981 533.382,-285.482 534.095,-278.518"/>
</g>
<!-- Node31 -->
<g id="node31" class="node"><title>Node31</title>
<g id="a_node31"><a xlink:href="classqtreports_1_1detail_1_1_replacer.html#a58cf857aa78eb3e273f6543769af425b" target="_top" xlink:title="Заменяет текст всех виджетов секции текстом с подставленными значениями полей из источника данных...">
<polygon fill="none" stroke="black" points="565,-404.5 565,-434.5 729,-434.5 729,-404.5 565,-404.5"/>
<text text-anchor="start" x="573" y="-422.5" font-family="Helvetica,sans-Serif" font-size="10.00">qtreports::detail::</text>
<text text-anchor="middle" x="647" y="-411.5" font-family="Helvetica,sans-Serif" font-size="10.00">Replacer::replaceFieldInSection</text>
</a>
</g>
</g>
<!-- Node30&#45;&gt;Node31 -->
<g id="edge44" class="edge"><title>Node30&#45;&gt;Node31</title>
<path fill="none" stroke="midnightblue" d="M320.282,-397.945C391.535,-402.66 494.02,-409.443 564.92,-414.134"/>
<polygon fill="midnightblue" stroke="midnightblue" points="320.212,-394.433 310.003,-397.265 319.75,-401.418 320.212,-394.433"/>
</g>
<!-- Node32 -->
<g id="node32" class="node"><title>Node32</title>
<g id="a_node32"><a xlink:href="classqtreports_1_1detail_1_1_replacer.html#af7ccb83be264f7c72b7485cf38455450" target="_top" xlink:title="Заменяет текст всех виджетов секции текстом с подставленными значениями. ">
<polygon fill="none" stroke="black" points="805.5,-370.5 805.5,-400.5 904.5,-400.5 904.5,-370.5 805.5,-370.5"/>
<text text-anchor="start" x="813.5" y="-388.5" font-family="Helvetica,sans-Serif" font-size="10.00">qtreports::detail::</text>
<text text-anchor="middle" x="855" y="-377.5" font-family="Helvetica,sans-Serif" font-size="10.00">Replacer::replace</text>
</a>
</g>
</g>
<!-- Node31&#45;&gt;Node32 -->
<g id="edge45" class="edge"><title>Node31&#45;&gt;Node32</title>
<path fill="none" stroke="midnightblue" d="M739.173,-404.452C761.964,-400.69 785.537,-396.8 805.351,-393.53"/>
<polygon fill="midnightblue" stroke="midnightblue" points="738.417,-401.029 729.121,-406.111 739.557,-407.936 738.417,-401.029"/>
</g>
<!-- Node32&#45;&gt;Node21 -->
<g id="edge46" class="edge"><title>Node32&#45;&gt;Node21</title>
<path fill="none" stroke="midnightblue" d="M914.624,-372.131C923.676,-369.167 932.748,-365.644 941,-361.5 981.076,-341.372 1021.03,-306.706 1042.31,-286.783"/>
<polygon fill="midnightblue" stroke="midnightblue" points="913.384,-368.85 904.851,-375.131 915.438,-375.542 913.384,-368.85"/>
</g>
<!-- Node32&#45;&gt;Node23 -->
<g id="edge47" class="edge"><title>Node32&#45;&gt;Node23</title>
<path fill="none" stroke="midnightblue" d="M914.63,-377.227C924.357,-373.667 933.652,-368.626 941,-361.5 979.143,-324.51 948.408,-292.284 977,-247.5 992.375,-223.418 1017.54,-202.151 1035.75,-188.669"/>
<polygon fill="midnightblue" stroke="midnightblue" points="913.304,-373.975 904.815,-380.315 915.405,-380.652 913.304,-373.975"/>
</g>
<!-- Node32&#45;&gt;Node25 -->
<g id="edge48" class="edge"><title>Node32&#45;&gt;Node25</title>
<path fill="none" stroke="midnightblue" d="M914.95,-385.5C941.518,-385.5 972.813,-385.5 999.346,-385.5"/>
<polygon fill="midnightblue" stroke="midnightblue" points="914.641,-382 904.641,-385.5 914.641,-389 914.641,-382"/>
</g>
</g>
</svg>
        <g id="navigator" transform="translate(0 0)" fill="#404254">
                <rect fill="#f2f5e9" fill-opacity="0.5" stroke="#606060" stroke-width=".5" x="0" y="0" width="60" height="60"/>
                <use id="zoomplus" xlink:href="#zoomPlus" x="17" y="9" onmousedown="handleZoom(evt,'in')"/>
                <use id="zoomminus" xlink:href="#zoomMin" x="42" y="9" onmousedown="handleZoom(evt,'out')"/>
                <use id="reset" xlink:href="#resetDef" x="30" y="36" onmousedown="handleReset()"/>
                <g id="arrowUp" xlink:href="#dirArrow" transform="translate(30 24)" onmousedown="handlePan(0,-1)">
                  <use xlink:href="#rim" fill="#404040">
                        <set attributeName="fill" to="#808080" begin="arrowUp.mouseover" end="arrowUp.mouseout"/>
                  </use>
                  <path fill="none" stroke="white" stroke-width="1.5" d="M0,-3.0v7 M-2.5,-0.5L0,-3.0L2.5,-0.5"/>
                </g>
                <g id="arrowRight" xlink:href="#dirArrow" transform="rotate(90) translate(36 -43)" onmousedown="handlePan(1,0)">
                  <use xlink:href="#rim" fill="#404040">
                        <set attributeName="fill" to="#808080" begin="arrowRight.mouseover" end="arrowRight.mouseout"/>
                  </use>
                  <path fill="none" stroke="white" stroke-width="1.5" d="M0,-3.0v7 M-2.5,-0.5L0,-3.0L2.5,-0.5"/>
                </g>
                <g id="arrowDown" xlink:href="#dirArrow" transform="rotate(180) translate(-30 -48)" onmousedown="handlePan(0,1)">
                  <use xlink:href="#rim" fill="#404040">
                        <set attributeName="fill" to="#808080" begin="arrowDown.mouseover" end="arrowDown.mouseout"/>
                  </use>
                  <path fill="none" stroke="white" stroke-width="1.5" d="M0,-3.0v7 M-2.5,-0.5L0,-3.0L2.5,-0.5"/>
                </g>
                <g id="arrowLeft" xlink:href="#dirArrow" transform="rotate(270) translate(-36 17)" onmousedown="handlePan(-1,0)">
                  <use xlink:href="#rim" fill="#404040">
                        <set attributeName="fill" to="#808080" begin="arrowLeft.mouseover" end="arrowLeft.mouseout"/>
                  </use>
                  <path fill="none" stroke="white" stroke-width="1.5" d="M0,-3.0v7 M-2.5,-0.5L0,-3.0L2.5,-0.5"/>
                </g>
        </g>
        <svg viewBox="0 0 15 15" width="100%" height="30px" preserveAspectRatio="xMaxYMin meet">
         <g id="arrow_out" transform="scale(0.3 0.3)">
          <a xlink:href="classqtreports_1_1detail_1_1_replacer_a4642b07160798f2ee4de276e1d0c1ecd_icgraph_org.svg" target="_base">
           <rect id="button" ry="5" rx="5" y="6" x="6" height="38" width="38"
                fill="#f2f5e9" fill-opacity="0.5" stroke="#606060" stroke-width="1.0"/>
           <path id="arrow"
             d="M 11.500037,31.436501 C 11.940474,20.09759 22.043105,11.32322 32.158766,21.979434 L 37.068811,17.246167 C 37.068811,17.246167 37.088388,32 37.088388,32 L 22.160133,31.978069 C 22.160133,31.978069 26.997745,27.140456 26.997745,27.140456 C 18.528582,18.264221 13.291696,25.230495 11.500037,31.436501 z"
             style="fill:#404040;"/>
          </a>
         </g>
        </svg>
</svg>
