<?xml version="1.0" encoding="UTF-8" standalone="no"?>
<!DOCTYPE svg PUBLIC "-//W3C//DTD SVG 1.1//EN"
 "http://www.w3.org/Graphics/SVG/1.1/DTD/svg11.dtd">
<!-- Generated by graphviz version 2.38.0 (20140413.2041)
 -->
<!-- Title: qtreports::detail::Group Pages: 1 -->
<svg width="402pt" height="700pt"
 viewBox="0.00 0.00 402.00 700.00" xmlns="http://www.w3.org/2000/svg" xmlns:xlink="http://www.w3.org/1999/xlink">
<g id="graph0" class="graph" transform="scale(1 1) rotate(0) translate(4 696)">
<title>qtreports::detail::Group</title>
<!-- Node1 -->
<g id="node1" class="node"><title>Node1</title>
<polygon fill="#bfbfbf" stroke="black" points="123,-0.5 123,-145.5 226,-145.5 226,-0.5 123,-0.5"/>
<text text-anchor="start" x="131" y="-133.5" font-family="Helvetica,sans-Serif" font-size="10.00">qtreports::detail::</text>
<text text-anchor="middle" x="174.5" y="-122.5" font-family="Helvetica,sans-Serif" font-size="10.00">Group</text>
<polyline fill="none" stroke="black" points="123,-115.5 226,-115.5 "/>
<text text-anchor="middle" x="174.5" y="-103.5" font-family="Helvetica,sans-Serif" font-size="10.00"> </text>
<polyline fill="none" stroke="black" points="123,-96.5 226,-96.5 "/>
<text text-anchor="start" x="131" y="-84.5" font-family="Helvetica,sans-Serif" font-size="10.00">+ Group()</text>
<text text-anchor="start" x="131" y="-73.5" font-family="Helvetica,sans-Serif" font-size="10.00">+ ~Group()</text>
<text text-anchor="start" x="131" y="-62.5" font-family="Helvetica,sans-Serif" font-size="10.00">+ setExpression()</text>
<text text-anchor="start" x="131" y="-51.5" font-family="Helvetica,sans-Serif" font-size="10.00">+ getExpression()</text>
<text text-anchor="start" x="131" y="-40.5" font-family="Helvetica,sans-Serif" font-size="10.00">+ setHeader()</text>
<text text-anchor="start" x="131" y="-29.5" font-family="Helvetica,sans-Serif" font-size="10.00">+ getHeader()</text>
<text text-anchor="start" x="131" y="-18.5" font-family="Helvetica,sans-Serif" font-size="10.00">+ setFooter()</text>
<text text-anchor="start" x="131" y="-7.5" font-family="Helvetica,sans-Serif" font-size="10.00">+ getFooter()</text>
</g>
<!-- Node2 -->
<g id="node2" class="node"><title>Node2</title>
<g id="a_node2"><a xlink:href="classqtreports_1_1detail_1_1_section.html" target="_top" xlink:title="Базовый класс для тэгов &lt;title&gt;, &lt;detail&gt;,. ">
<polygon fill="none" stroke="black" points="124,-204.5 124,-360.5 225,-360.5 225,-204.5 124,-204.5"/>
<text text-anchor="start" x="132" y="-348.5" font-family="Helvetica,sans-Serif" font-size="10.00">qtreports::detail::</text>
<text text-anchor="middle" x="174.5" y="-337.5" font-family="Helvetica,sans-Serif" font-size="10.00">Section</text>
<polyline fill="none" stroke="black" points="124,-330.5 225,-330.5 "/>
<text text-anchor="middle" x="174.5" y="-318.5" font-family="Helvetica,sans-Serif" font-size="10.00"> </text>
<polyline fill="none" stroke="black" points="124,-311.5 225,-311.5 "/>
<text text-anchor="start" x="132" y="-299.5" font-family="Helvetica,sans-Serif" font-size="10.00">+ Section()</text>
<text text-anchor="start" x="132" y="-288.5" font-family="Helvetica,sans-Serif" font-size="10.00">+ ~Section()</text>
<text text-anchor="start" x="132" y="-277.5" font-family="Helvetica,sans-Serif" font-size="10.00">+ setWidth()</text>
<text text-anchor="start" x="132" y="-266.5" font-family="Helvetica,sans-Serif" font-size="10.00">+ getWidth()</text>
<text text-anchor="start" x="132" y="-255.5" font-family="Helvetica,sans-Serif" font-size="10.00">+ getHeight()</text>
<text text-anchor="start" x="132" y="-244.5" font-family="Helvetica,sans-Serif" font-size="10.00">+ addBand()</text>
<text text-anchor="start" x="132" y="-233.5" font-family="Helvetica,sans-Serif" font-size="10.00">+ getBand()</text>
<text text-anchor="start" x="132" y="-222.5" font-family="Helvetica,sans-Serif" font-size="10.00">+ getBandsSize()</text>
<text text-anchor="start" x="132" y="-211.5" font-family="Helvetica,sans-Serif" font-size="10.00">+ getBands()</text>
</a>
</g>
</g>
<!-- Node2&#45;&gt;Node1 -->
<g id="edge1" class="edge"><title>Node2&#45;&gt;Node1</title>
<path fill="none" stroke="midnightblue" d="M174.5,-193.816C174.5,-177.821 174.5,-161.305 174.5,-145.837"/>
<polygon fill="none" stroke="midnightblue" points="171,-194.235 174.5,-204.235 178,-194.235 171,-194.235"/>
</g>
<!-- Node3 -->
<g id="node3" class="node"><title>Node3</title>
<g id="a_node3"><a xlink:href="classqtreports_1_1detail_1_1_object.html" target="_top" xlink:title="Базовый класс для любого тэга ">
<polygon fill="none" stroke="black" points="28,-419.5 28,-564.5 127,-564.5 127,-419.5 28,-419.5"/>
<text text-anchor="start" x="36" y="-552.5" font-family="Helvetica,sans-Serif" font-size="10.00">qtreports::detail::</text>
<text text-anchor="middle" x="77.5" y="-541.5" font-family="Helvetica,sans-Serif" font-size="10.00">Object</text>
<polyline fill="none" stroke="black" points="28,-534.5 127,-534.5 "/>
<text text-anchor="middle" x="77.5" y="-522.5" font-family="Helvetica,sans-Serif" font-size="10.00"> </text>
<polyline fill="none" stroke="black" points="28,-515.5 127,-515.5 "/>
<text text-anchor="start" x="36" y="-503.5" font-family="Helvetica,sans-Serif" font-size="10.00">+ Object()</text>
<text text-anchor="start" x="36" y="-492.5" font-family="Helvetica,sans-Serif" font-size="10.00">+ Object()</text>
<text text-anchor="start" x="36" y="-481.5" font-family="Helvetica,sans-Serif" font-size="10.00">+ ~Object()</text>
<text text-anchor="start" x="36" y="-470.5" font-family="Helvetica,sans-Serif" font-size="10.00">+ setName()</text>
<text text-anchor="start" x="36" y="-459.5" font-family="Helvetica,sans-Serif" font-size="10.00">+ getName()</text>
<text text-anchor="start" x="36" y="-448.5" font-family="Helvetica,sans-Serif" font-size="10.00">+ setTagName()</text>
<text text-anchor="start" x="36" y="-437.5" font-family="Helvetica,sans-Serif" font-size="10.00">+ getTagName()</text>
<text text-anchor="start" x="36" y="-426.5" font-family="Helvetica,sans-Serif" font-size="10.00">+ getLastError()</text>
</a>
</g>
</g>
<!-- Node3&#45;&gt;Node2 -->
<g id="edge2" class="edge"><title>Node3&#45;&gt;Node2</title>
<path fill="none" stroke="midnightblue" d="M115.438,-409.844C123.027,-393.611 130.978,-376.602 138.499,-360.513"/>
<polygon fill="none" stroke="midnightblue" points="112.082,-408.758 111.018,-419.3 118.423,-411.723 112.082,-408.758"/>
</g>
<!-- Node4 -->
<g id="node4" class="node"><title>Node4</title>
<polygon fill="none" stroke="#bfbfbf" points="0,-634.5 0,-691.5 53,-691.5 53,-634.5 0,-634.5"/>
<text text-anchor="middle" x="26.5" y="-679.5" font-family="Helvetica,sans-Serif" font-size="10.00">QString</text>
<polyline fill="none" stroke="#bfbfbf" points="0,-672.5 53,-672.5 "/>
<text text-anchor="middle" x="26.5" y="-660.5" font-family="Helvetica,sans-Serif" font-size="10.00"> </text>
<polyline fill="none" stroke="#bfbfbf" points="0,-653.5 53,-653.5 "/>
<text text-anchor="middle" x="26.5" y="-641.5" font-family="Helvetica,sans-Serif" font-size="10.00"> </text>
</g>
<!-- Node4&#45;&gt;Node1 -->
<g id="edge6" class="edge"><title>Node4&#45;&gt;Node1</title>
<path fill="none" stroke="#404040" d="M21.3008,-634.287C13.7114,-588.768 2.17949,-495.58 18.5,-419 38.7237,-324.105 87.487,-223.946 125.156,-156.141"/>
<polygon fill="none" stroke="#404040" points="125.231,-156.008 124.677,-148.819 131.101,-145.542 131.654,-152.732 125.231,-156.008"/>
<text text-anchor="middle" x="65.5" y="-387.5" font-family="Helvetica,sans-Serif" font-size="10.00"> &#45;m_expression</text>
</g>
<!-- Node4&#45;&gt;Node3 -->
<g id="edge3" class="edge"><title>Node4&#45;&gt;Node3</title>
<path fill="none" stroke="#404040" d="M34.8075,-634.471C39.642,-618.451 46.0198,-597.317 52.3671,-576.283"/>
<polygon fill="none" stroke="#404040" points="52.4134,-576.13 50.3175,-569.23 55.8804,-564.642 57.9763,-571.541 52.4134,-576.13"/>
<text text-anchor="middle" x="85.5" y="-608" font-family="Helvetica,sans-Serif" font-size="10.00"> #m_tagName</text>
<text text-anchor="middle" x="85.5" y="-597" font-family="Helvetica,sans-Serif" font-size="10.00">#m_name</text>
<text text-anchor="middle" x="85.5" y="-586" font-family="Helvetica,sans-Serif" font-size="10.00">#m_lastError</text>
</g>
<!-- Node5 -->
<g id="node5" class="node"><title>Node5</title>
<polygon fill="none" stroke="#bfbfbf" points="145.5,-463.5 145.5,-520.5 261.5,-520.5 261.5,-463.5 145.5,-463.5"/>
<text text-anchor="middle" x="203.5" y="-508.5" font-family="Helvetica,sans-Serif" font-size="10.00">QVector&lt; BandPtr &gt;</text>
<polyline fill="none" stroke="#bfbfbf" points="145.5,-501.5 261.5,-501.5 "/>
<text text-anchor="middle" x="203.5" y="-489.5" font-family="Helvetica,sans-Serif" font-size="10.00"> </text>
<polyline fill="none" stroke="#bfbfbf" points="145.5,-482.5 261.5,-482.5 "/>
<text text-anchor="middle" x="203.5" y="-470.5" font-family="Helvetica,sans-Serif" font-size="10.00"> </text>
</g>
<!-- Node5&#45;&gt;Node2 -->
<g id="edge4" class="edge"><title>Node5&#45;&gt;Node2</title>
<path fill="none" stroke="#404040" d="M199.649,-463.446C196.397,-440.176 191.552,-405.509 186.98,-372.797"/>
<polygon fill="none" stroke="#404040" points="186.973,-372.743 182.181,-367.355 185.312,-360.859 190.104,-366.247 186.973,-372.743"/>
<text text-anchor="middle" x="219.5" y="-387.5" font-family="Helvetica,sans-Serif" font-size="10.00"> #m_bands</text>
</g>
<!-- Node6 -->
<g id="node6" class="node"><title>Node6</title>
<polygon fill="none" stroke="#bfbfbf" points="279,-463.5 279,-520.5 308,-520.5 308,-463.5 279,-463.5"/>
<text text-anchor="middle" x="293.5" y="-508.5" font-family="Helvetica,sans-Serif" font-size="10.00">int</text>
<polyline fill="none" stroke="#bfbfbf" points="279,-501.5 308,-501.5 "/>
<text text-anchor="middle" x="293.5" y="-489.5" font-family="Helvetica,sans-Serif" font-size="10.00"> </text>
<polyline fill="none" stroke="#bfbfbf" points="279,-482.5 308,-482.5 "/>
<text text-anchor="middle" x="293.5" y="-470.5" font-family="Helvetica,sans-Serif" font-size="10.00"> </text>
</g>
<!-- Node6&#45;&gt;Node2 -->
<g id="edge5" class="edge"><title>Node6&#45;&gt;Node2</title>
<path fill="none" stroke="#404040" d="M285.616,-463.344C281.522,-449.823 276.191,-433.401 270.5,-419 263.267,-400.696 262.846,-395.082 251.5,-379 244.978,-369.756 240.943,-369.52 233.5,-361 233.326,-360.801 233.152,-360.602 232.978,-360.402"/>
<polygon fill="none" stroke="#404040" points="232.892,-360.3 225.96,-358.313 225.128,-351.15 232.06,-353.137 232.892,-360.3"/>
<text text-anchor="middle" x="293" y="-393" font-family="Helvetica,sans-Serif" font-size="10.00"> #m_height</text>
<text text-anchor="middle" x="293" y="-382" font-family="Helvetica,sans-Serif" font-size="10.00">#m_width</text>
</g>
<!-- Node7 -->
<g id="node7" class="node"><title>Node7</title>
<polygon fill="none" stroke="#bfbfbf" points="243,-254 243,-311 394,-311 394,-254 243,-254"/>
<text text-anchor="middle" x="318.5" y="-299" font-family="Helvetica,sans-Serif" font-size="10.00">QSharedPointer&lt; Section &gt;</text>
<polyline fill="none" stroke="#bfbfbf" points="243,-292 394,-292 "/>
<text text-anchor="middle" x="318.5" y="-280" font-family="Helvetica,sans-Serif" font-size="10.00"> </text>
<polyline fill="none" stroke="#bfbfbf" points="243,-273 394,-273 "/>
<text text-anchor="middle" x="318.5" y="-261" font-family="Helvetica,sans-Serif" font-size="10.00"> </text>
</g>
<!-- Node7&#45;&gt;Node1 -->
<g id="edge7" class="edge"><title>Node7&#45;&gt;Node1</title>
<path fill="none" stroke="#404040" d="M299.378,-253.946C282.04,-228.962 255.584,-190.839 231.479,-156.104"/>
<polygon fill="none" stroke="#404040" points="231.262,-155.792 224.554,-153.143 224.42,-145.933 231.127,-148.582 231.262,-155.792"/>
<text text-anchor="middle" x="278" y="-178" font-family="Helvetica,sans-Serif" font-size="10.00"> &#45;m_footer</text>
<text text-anchor="middle" x="278" y="-167" font-family="Helvetica,sans-Serif" font-size="10.00">&#45;m_header</text>
</g>
</g>
</svg>
