<?xml version="1.0" encoding="UTF-8" standalone="no"?>
<!DOCTYPE svg PUBLIC "-//W3C//DTD SVG 1.1//EN"
 "http://www.w3.org/Graphics/SVG/1.1/DTD/svg11.dtd">
<!-- Generated by graphviz version 2.38.0 (20140413.2041)
 -->
<!-- Title: qtreports::detail::Ellipse Pages: 1 -->
<svg width="395pt" height="745pt"
 viewBox="0.00 0.00 394.77 745.00" xmlns="http://www.w3.org/2000/svg" xmlns:xlink="http://www.w3.org/1999/xlink">
<g id="graph0" class="graph" transform="scale(1 1) rotate(0) translate(4 741)">
<title>qtreports::detail::Ellipse</title>
<!-- Node1 -->
<g id="node1" class="node"><title>Node1</title>
<polygon fill="#bfbfbf" stroke="black" points="147.268,-0.5 147.268,-79.5 246.268,-79.5 246.268,-0.5 147.268,-0.5"/>
<text text-anchor="start" x="155.268" y="-67.5" font-family="Helvetica,sans-Serif" font-size="10.00">qtreports::detail::</text>
<text text-anchor="middle" x="196.768" y="-56.5" font-family="Helvetica,sans-Serif" font-size="10.00">Ellipse</text>
<polyline fill="none" stroke="black" points="147.268,-49.5 246.268,-49.5 "/>
<text text-anchor="middle" x="196.768" y="-37.5" font-family="Helvetica,sans-Serif" font-size="10.00"> </text>
<polyline fill="none" stroke="black" points="147.268,-30.5 246.268,-30.5 "/>
<text text-anchor="start" x="155.268" y="-18.5" font-family="Helvetica,sans-Serif" font-size="10.00">+ Ellipse()</text>
<text text-anchor="start" x="155.268" y="-7.5" font-family="Helvetica,sans-Serif" font-size="10.00">+ ~Ellipse()</text>
</g>
<!-- Node2 -->
<g id="node2" class="node"><title>Node2</title>
<g id="a_node2"><a xlink:href="classqtreports_1_1detail_1_1_widget.html" target="_top" xlink:title="Базовый класс для тэгов, которые подлежат отображению ">
<polygon fill="none" stroke="black" points="146.768,-117.5 146.768,-416.5 246.768,-416.5 246.768,-117.5 146.768,-117.5"/>
<text text-anchor="start" x="154.768" y="-404.5" font-family="Helvetica,sans-Serif" font-size="10.00">qtreports::detail::</text>
<text text-anchor="middle" x="196.768" y="-393.5" font-family="Helvetica,sans-Serif" font-size="10.00">Widget</text>
<polyline fill="none" stroke="black" points="146.768,-386.5 246.768,-386.5 "/>
<text text-anchor="middle" x="196.768" y="-374.5" font-family="Helvetica,sans-Serif" font-size="10.00"> </text>
<polyline fill="none" stroke="black" points="146.768,-367.5 246.768,-367.5 "/>
<text text-anchor="start" x="154.768" y="-355.5" font-family="Helvetica,sans-Serif" font-size="10.00">+ Widget()</text>
<text text-anchor="start" x="154.768" y="-344.5" font-family="Helvetica,sans-Serif" font-size="10.00">+ ~Widget()</text>
<text text-anchor="start" x="154.768" y="-333.5" font-family="Helvetica,sans-Serif" font-size="10.00">+ setPosition()</text>
<text text-anchor="start" x="154.768" y="-322.5" font-family="Helvetica,sans-Serif" font-size="10.00">+ setX()</text>
<text text-anchor="start" x="154.768" y="-311.5" font-family="Helvetica,sans-Serif" font-size="10.00">+ setY()</text>
<text text-anchor="start" x="154.768" y="-300.5" font-family="Helvetica,sans-Serif" font-size="10.00">+ setSize()</text>
<text text-anchor="start" x="154.768" y="-289.5" font-family="Helvetica,sans-Serif" font-size="10.00">+ setWidth()</text>
<text text-anchor="start" x="154.768" y="-278.5" font-family="Helvetica,sans-Serif" font-size="10.00">+ setHeight()</text>
<text text-anchor="start" x="154.768" y="-267.5" font-family="Helvetica,sans-Serif" font-size="10.00">+ setRect()</text>
<text text-anchor="start" x="154.768" y="-256.5" font-family="Helvetica,sans-Serif" font-size="10.00">+ setStyle()</text>
<text text-anchor="start" x="154.768" y="-245.5" font-family="Helvetica,sans-Serif" font-size="10.00">+ setAlignment()</text>
<text text-anchor="start" x="154.768" y="-234.5" font-family="Helvetica,sans-Serif" font-size="10.00">+ getAlignment()</text>
<text text-anchor="start" x="154.768" y="-223.5" font-family="Helvetica,sans-Serif" font-size="10.00">+ getPos()</text>
<text text-anchor="start" x="154.768" y="-212.5" font-family="Helvetica,sans-Serif" font-size="10.00">+ getX()</text>
<text text-anchor="start" x="154.768" y="-201.5" font-family="Helvetica,sans-Serif" font-size="10.00">+ getY()</text>
<text text-anchor="start" x="154.768" y="-190.5" font-family="Helvetica,sans-Serif" font-size="10.00">+ getSize()</text>
<text text-anchor="start" x="154.768" y="-179.5" font-family="Helvetica,sans-Serif" font-size="10.00">+ getWidth()</text>
<text text-anchor="start" x="154.768" y="-168.5" font-family="Helvetica,sans-Serif" font-size="10.00">+ getHeight()</text>
<text text-anchor="start" x="154.768" y="-157.5" font-family="Helvetica,sans-Serif" font-size="10.00">+ getRect()</text>
<text text-anchor="start" x="154.768" y="-146.5" font-family="Helvetica,sans-Serif" font-size="10.00">+ getStyle()</text>
<text text-anchor="start" x="154.768" y="-135.5" font-family="Helvetica,sans-Serif" font-size="10.00">+ isBold()</text>
<text text-anchor="start" x="154.768" y="-124.5" font-family="Helvetica,sans-Serif" font-size="10.00">+ setBold()</text>
</a>
</g>
</g>
<!-- Node2&#45;&gt;Node1 -->
<g id="edge1" class="edge"><title>Node2&#45;&gt;Node1</title>
<path fill="none" stroke="midnightblue" d="M196.768,-107.322C196.768,-97.3371 196.768,-87.939 196.768,-79.531"/>
<polygon fill="none" stroke="midnightblue" points="193.268,-107.489 196.768,-117.489 200.268,-107.489 193.268,-107.489"/>
</g>
<!-- Node3 -->
<g id="node3" class="node"><title>Node3</title>
<g id="a_node3"><a xlink:href="classqtreports_1_1detail_1_1_object.html" target="_top" xlink:title="Базовый класс для любого тэга ">
<polygon fill="none" stroke="black" points="71.2682,-464.5 71.2682,-609.5 170.268,-609.5 170.268,-464.5 71.2682,-464.5"/>
<text text-anchor="start" x="79.2682" y="-597.5" font-family="Helvetica,sans-Serif" font-size="10.00">qtreports::detail::</text>
<text text-anchor="middle" x="120.768" y="-586.5" font-family="Helvetica,sans-Serif" font-size="10.00">Object</text>
<polyline fill="none" stroke="black" points="71.2682,-579.5 170.268,-579.5 "/>
<text text-anchor="middle" x="120.768" y="-567.5" font-family="Helvetica,sans-Serif" font-size="10.00"> </text>
<polyline fill="none" stroke="black" points="71.2682,-560.5 170.268,-560.5 "/>
<text text-anchor="start" x="79.2682" y="-548.5" font-family="Helvetica,sans-Serif" font-size="10.00">+ Object()</text>
<text text-anchor="start" x="79.2682" y="-537.5" font-family="Helvetica,sans-Serif" font-size="10.00">+ Object()</text>
<text text-anchor="start" x="79.2682" y="-526.5" font-family="Helvetica,sans-Serif" font-size="10.00">+ ~Object()</text>
<text text-anchor="start" x="79.2682" y="-515.5" font-family="Helvetica,sans-Serif" font-size="10.00">+ setName()</text>
<text text-anchor="start" x="79.2682" y="-504.5" font-family="Helvetica,sans-Serif" font-size="10.00">+ getName()</text>
<text text-anchor="start" x="79.2682" y="-493.5" font-family="Helvetica,sans-Serif" font-size="10.00">+ setTagName()</text>
<text text-anchor="start" x="79.2682" y="-482.5" font-family="Helvetica,sans-Serif" font-size="10.00">+ getTagName()</text>
<text text-anchor="start" x="79.2682" y="-471.5" font-family="Helvetica,sans-Serif" font-size="10.00">+ getLastError()</text>
</a>
</g>
</g>
<!-- Node3&#45;&gt;Node2 -->
<g id="edge2" class="edge"><title>Node3&#45;&gt;Node2</title>
<path fill="none" stroke="midnightblue" d="M143.955,-454.235C147.37,-442.195 150.973,-429.487 154.629,-416.598"/>
<polygon fill="none" stroke="midnightblue" points="140.496,-453.605 141.135,-464.181 147.23,-455.515 140.496,-453.605"/>
</g>
<!-- Node4 -->
<g id="node4" class="node"><title>Node4</title>
<polygon fill="none" stroke="#bfbfbf" points="14.2682,-679.5 14.2682,-736.5 67.2682,-736.5 67.2682,-679.5 14.2682,-679.5"/>
<text text-anchor="middle" x="40.7682" y="-724.5" font-family="Helvetica,sans-Serif" font-size="10.00">QString</text>
<polyline fill="none" stroke="#bfbfbf" points="14.2682,-717.5 67.2682,-717.5 "/>
<text text-anchor="middle" x="40.7682" y="-705.5" font-family="Helvetica,sans-Serif" font-size="10.00"> </text>
<polyline fill="none" stroke="#bfbfbf" points="14.2682,-698.5 67.2682,-698.5 "/>
<text text-anchor="middle" x="40.7682" y="-686.5" font-family="Helvetica,sans-Serif" font-size="10.00"> </text>
</g>
<!-- Node4&#45;&gt;Node2 -->
<g id="edge4" class="edge"><title>Node4&#45;&gt;Node2</title>
<path fill="none" stroke="#404040" d="M29.2523,-679.277C11.8013,-632.953 -16.3817,-537.641 12.7682,-464 37.7341,-400.929 93.6568,-346.3 137.34,-310.855"/>
<polygon fill="none" stroke="#404040" points="137.355,-310.843 139.556,-303.976 146.741,-303.367 144.54,-310.234 137.355,-310.843"/>
<text text-anchor="middle" x="37.2682" y="-534.5" font-family="Helvetica,sans-Serif" font-size="10.00"> #m_style</text>
</g>
<!-- Node4&#45;&gt;Node3 -->
<g id="edge3" class="edge"><title>Node4&#45;&gt;Node3</title>
<path fill="none" stroke="#404040" d="M53.7997,-679.471C61.4534,-663.303 71.5729,-641.925 81.6207,-620.699"/>
<polygon fill="none" stroke="#404040" points="81.7207,-620.488 80.6725,-613.353 86.8551,-609.642 87.9033,-616.776 81.7207,-620.488"/>
<text text-anchor="middle" x="112.768" y="-653" font-family="Helvetica,sans-Serif" font-size="10.00"> #m_tagName</text>
<text text-anchor="middle" x="112.768" y="-642" font-family="Helvetica,sans-Serif" font-size="10.00">#m_name</text>
<text text-anchor="middle" x="112.768" y="-631" font-family="Helvetica,sans-Serif" font-size="10.00">#m_lastError</text>
</g>
<!-- Node5 -->
<g id="node5" class="node"><title>Node5</title>
<polygon fill="none" stroke="#bfbfbf" points="188.268,-508.5 188.268,-565.5 225.268,-565.5 225.268,-508.5 188.268,-508.5"/>
<text text-anchor="middle" x="206.768" y="-553.5" font-family="Helvetica,sans-Serif" font-size="10.00">bool</text>
<polyline fill="none" stroke="#bfbfbf" points="188.268,-546.5 225.268,-546.5 "/>
<text text-anchor="middle" x="206.768" y="-534.5" font-family="Helvetica,sans-Serif" font-size="10.00"> </text>
<polyline fill="none" stroke="#bfbfbf" points="188.268,-527.5 225.268,-527.5 "/>
<text text-anchor="middle" x="206.768" y="-515.5" font-family="Helvetica,sans-Serif" font-size="10.00"> </text>
</g>
<!-- Node5&#45;&gt;Node2 -->
<g id="edge5" class="edge"><title>Node5&#45;&gt;Node2</title>
<path fill="none" stroke="#404040" d="M203.339,-508.478C201.289,-490.687 198.875,-467.013 197.768,-446 197.469,-440.32 197.208,-434.536 196.98,-428.693"/>
<polygon fill="none" stroke="#404040" points="196.978,-428.624 192.771,-422.767 196.56,-416.631 200.766,-422.488 196.978,-428.624"/>
<text text-anchor="middle" x="225.268" y="-438" font-family="Helvetica,sans-Serif" font-size="10.00"> #m_isBold</text>
</g>
<!-- Node6 -->
<g id="node6" class="node"><title>Node6</title>
<polygon fill="none" stroke="#bfbfbf" points="252.768,-508.5 252.768,-565.5 296.768,-565.5 296.768,-508.5 252.768,-508.5"/>
<text text-anchor="middle" x="274.768" y="-553.5" font-family="Helvetica,sans-Serif" font-size="10.00">QRect</text>
<polyline fill="none" stroke="#bfbfbf" points="252.768,-546.5 296.768,-546.5 "/>
<text text-anchor="middle" x="274.768" y="-534.5" font-family="Helvetica,sans-Serif" font-size="10.00"> </text>
<polyline fill="none" stroke="#bfbfbf" points="252.768,-527.5 296.768,-527.5 "/>
<text text-anchor="middle" x="274.768" y="-515.5" font-family="Helvetica,sans-Serif" font-size="10.00"> </text>
</g>
<!-- Node6&#45;&gt;Node2 -->
<g id="edge6" class="edge"><title>Node6&#45;&gt;Node2</title>
<path fill="none" stroke="#404040" d="M269.595,-508.367C265.569,-487.955 259.541,-459.567 252.768,-435 251.95,-432.034 251.11,-429.042 250.251,-426.033"/>
<polygon fill="none" stroke="#404040" points="250.204,-425.869 244.685,-421.227 246.848,-414.348 252.366,-418.99 250.204,-425.869"/>
<text text-anchor="middle" x="278.768" y="-438" font-family="Helvetica,sans-Serif" font-size="10.00"> #m_rect</text>
</g>
<!-- Node7 -->
<g id="node7" class="node"><title>Node7</title>
<polygon fill="none" stroke="#bfbfbf" points="315.268,-508.5 315.268,-565.5 380.268,-565.5 380.268,-508.5 315.268,-508.5"/>
<text text-anchor="middle" x="347.768" y="-553.5" font-family="Helvetica,sans-Serif" font-size="10.00">Alignment</text>
<polyline fill="none" stroke="#bfbfbf" points="315.268,-546.5 380.268,-546.5 "/>
<text text-anchor="middle" x="347.768" y="-534.5" font-family="Helvetica,sans-Serif" font-size="10.00"> </text>
<polyline fill="none" stroke="#bfbfbf" points="315.268,-527.5 380.268,-527.5 "/>
<text text-anchor="middle" x="347.768" y="-515.5" font-family="Helvetica,sans-Serif" font-size="10.00"> </text>
</g>
<!-- Node7&#45;&gt;Node2 -->
<g id="edge7" class="edge"><title>Node7&#45;&gt;Node2</title>
<path fill="none" stroke="#404040" d="M337.86,-508.37C330.075,-487.711 318.457,-459.01 305.768,-435 290.419,-405.957 271.476,-375.503 253.71,-348.673"/>
<polygon fill="none" stroke="#404040" points="253.633,-348.558 246.974,-345.789 246.969,-338.578 253.627,-341.346 253.633,-348.558"/>
<text text-anchor="middle" x="349.268" y="-438" font-family="Helvetica,sans-Serif" font-size="10.00"> #m_alignment</text>
</g>
</g>
</svg>
