<?xml version="1.0" encoding="UTF-8" standalone="no"?>
<!DOCTYPE svg PUBLIC "-//W3C//DTD SVG 1.1//EN"
 "http://www.w3.org/Graphics/SVG/1.1/DTD/svg11.dtd">
<!-- Generated by graphviz version 2.38.0 (20140413.2041)
 -->
<!-- Title: qtreports::Engine::createPDF Pages: 1 -->
<svg width="1647pt" height="184pt"
 viewBox="0.00 0.00 1647.00 184.00" xmlns="http://www.w3.org/2000/svg" xmlns:xlink="http://www.w3.org/1999/xlink">
<g id="graph0" class="graph" transform="scale(1 1) rotate(0) translate(4 180)">
<title>qtreports::Engine::createPDF</title>
<!-- Node1 -->
<g id="node1" class="node"><title>Node1</title>
<polygon fill="#bfbfbf" stroke="black" points="0,-24.5 0,-54.5 105,-54.5 105,-24.5 0,-24.5"/>
<text text-anchor="start" x="8" y="-42.5" font-family="Helvetica,sans-Serif" font-size="10.00">qtreports::Engine::</text>
<text text-anchor="middle" x="52.5" y="-31.5" font-family="Helvetica,sans-Serif" font-size="10.00">createPDF</text>
</g>
<!-- Node2 -->
<g id="node2" class="node"><title>Node2</title>
<g id="a_node2"><a xlink:href="classqtreports_1_1detail_1_1_converter_to_p_d_f.html#af39953d8db1bdcbbcf59cc00b05747eb" target="_top" xlink:title="Запускает процесс конвертации. ">
<polygon fill="none" stroke="black" points="152.5,-49.5 152.5,-79.5 286.5,-79.5 286.5,-49.5 152.5,-49.5"/>
<text text-anchor="start" x="160.5" y="-67.5" font-family="Helvetica,sans-Serif" font-size="10.00">qtreports::detail::</text>
<text text-anchor="middle" x="219.5" y="-56.5" font-family="Helvetica,sans-Serif" font-size="10.00">ConverterToPDF::convert</text>
</a>
</g>
</g>
<!-- Node1&#45;&gt;Node2 -->
<g id="edge1" class="edge"><title>Node1&#45;&gt;Node2</title>
<path fill="none" stroke="midnightblue" d="M105.254,-47.3416C117.037,-49.1268 129.796,-51.06 142.358,-52.9633"/>
<polygon fill="midnightblue" stroke="midnightblue" points="141.955,-56.4422 152.367,-54.4798 143.004,-49.5212 141.955,-56.4422"/>
</g>
<!-- Node15 -->
<g id="node15" class="node"><title>Node15</title>
<g id="a_node15"><a xlink:href="classqtreports_1_1detail_1_1_converter_to_p_d_f.html#a2d5862efb544884825efeafcf6fec683" target="_top" xlink:title="Возвращает строку, содержащую описание последней произошедшей ошибки. ">
<polygon fill="none" stroke="black" points="141,-0.5 141,-30.5 298,-30.5 298,-0.5 141,-0.5"/>
<text text-anchor="start" x="149" y="-18.5" font-family="Helvetica,sans-Serif" font-size="10.00">qtreports::detail::</text>
<text text-anchor="middle" x="219.5" y="-7.5" font-family="Helvetica,sans-Serif" font-size="10.00">ConverterToPDF::getLastError</text>
</a>
</g>
</g>
<!-- Node1&#45;&gt;Node15 -->
<g id="edge16" class="edge"><title>Node1&#45;&gt;Node15</title>
<path fill="none" stroke="midnightblue" d="M105.254,-31.9721C113.494,-30.7735 122.212,-29.5055 131.006,-28.2265"/>
<polygon fill="midnightblue" stroke="midnightblue" points="131.553,-31.6838 140.945,-26.7808 130.545,-24.7567 131.553,-31.6838"/>
</g>
<!-- Node3 -->
<g id="node3" class="node"><title>Node3</title>
<g id="a_node3"><a xlink:href="classqtreports_1_1detail_1_1_converter_to_p_d_f.html#aad8435572f5ba065f8f2fef428d97b22" target="_top" xlink:title="Конвертирует отчет в PDF документ. ">
<polygon fill="none" stroke="black" points="334,-49.5 334,-79.5 462,-79.5 462,-49.5 334,-49.5"/>
<text text-anchor="start" x="342" y="-67.5" font-family="Helvetica,sans-Serif" font-size="10.00">qtreports::detail::</text>
<text text-anchor="middle" x="398" y="-56.5" font-family="Helvetica,sans-Serif" font-size="10.00">ConverterToPDF::create</text>
</a>
</g>
</g>
<!-- Node2&#45;&gt;Node3 -->
<g id="edge2" class="edge"><title>Node2&#45;&gt;Node3</title>
<path fill="none" stroke="midnightblue" d="M286.724,-64.5C298.799,-64.5 311.461,-64.5 323.725,-64.5"/>
<polygon fill="midnightblue" stroke="midnightblue" points="323.912,-68.0001 333.912,-64.5 323.912,-61.0001 323.912,-68.0001"/>
</g>
<!-- Node4 -->
<g id="node4" class="node"><title>Node4</title>
<g id="a_node4"><a xlink:href="classqtreports_1_1detail_1_1_converter_to_p_d_f.html#a5d9212cf5250d8d938359c417537337c" target="_top" xlink:title="Создает секцию. ">
<polygon fill="none" stroke="black" points="702,-74.5 702,-104.5 866,-104.5 866,-74.5 702,-74.5"/>
<text text-anchor="start" x="710" y="-92.5" font-family="Helvetica,sans-Serif" font-size="10.00">qtreports::detail::</text>
<text text-anchor="middle" x="784" y="-81.5" font-family="Helvetica,sans-Serif" font-size="10.00">ConverterToPDF::createSection</text>
</a>
</g>
</g>
<!-- Node3&#45;&gt;Node4 -->
<g id="edge3" class="edge"><title>Node3&#45;&gt;Node4</title>
<path fill="none" stroke="midnightblue" d="M462.41,-68.6282C524.843,-72.6929 620.85,-78.9433 691.534,-83.5452"/>
<polygon fill="midnightblue" stroke="midnightblue" points="691.566,-87.0546 701.773,-84.2118 692.021,-80.0694 691.566,-87.0546"/>
</g>
<!-- Node14 -->
<g id="node14" class="node"><title>Node14</title>
<g id="a_node14"><a xlink:href="classqtreports_1_1detail_1_1_converter_to_p_d_f.html#adda58d86ecfee05cdcc5e5ce161926ff" target="_top" xlink:title="Добавляет группу в репорт. ">
<polygon fill="none" stroke="black" points="498,-20 498,-61 666,-61 666,-20 498,-20"/>
<text text-anchor="start" x="506" y="-49" font-family="Helvetica,sans-Serif" font-size="10.00">qtreports::detail::</text>
<text text-anchor="start" x="506" y="-38" font-family="Helvetica,sans-Serif" font-size="10.00">ConverterToPDF::addGroupsInto</text>
<text text-anchor="middle" x="582" y="-27" font-family="Helvetica,sans-Serif" font-size="10.00">Report</text>
</a>
</g>
</g>
<!-- Node3&#45;&gt;Node14 -->
<g id="edge13" class="edge"><title>Node3&#45;&gt;Node14</title>
<path fill="none" stroke="midnightblue" d="M462.144,-56.1733C470.409,-55.0835 479.013,-53.9489 487.645,-52.8105"/>
<polygon fill="midnightblue" stroke="midnightblue" points="488.316,-56.2524 497.773,-51.475 487.401,-49.3125 488.316,-56.2524"/>
</g>
<!-- Node5 -->
<g id="node5" class="node"><title>Node5</title>
<g id="a_node5"><a xlink:href="classqtreports_1_1detail_1_1_replacer.html#af7ccb83be264f7c72b7485cf38455450" target="_top" xlink:title="Заменяет текст всех виджетов секции текстом с подставленными значениями. ">
<polygon fill="none" stroke="black" points="931.5,-96.5 931.5,-126.5 1030.5,-126.5 1030.5,-96.5 931.5,-96.5"/>
<text text-anchor="start" x="939.5" y="-114.5" font-family="Helvetica,sans-Serif" font-size="10.00">qtreports::detail::</text>
<text text-anchor="middle" x="981" y="-103.5" font-family="Helvetica,sans-Serif" font-size="10.00">Replacer::replace</text>
</a>
</g>
</g>
<!-- Node4&#45;&gt;Node5 -->
<g id="edge4" class="edge"><title>Node4&#45;&gt;Node5</title>
<path fill="none" stroke="midnightblue" d="M866.003,-98.6389C884.548,-100.731 903.912,-102.916 921.307,-104.878"/>
<polygon fill="midnightblue" stroke="midnightblue" points="920.971,-108.362 931.3,-106.006 921.756,-101.407 920.971,-108.362"/>
</g>
<!-- Node12 -->
<g id="node12" class="node"><title>Node12</title>
<g id="a_node12"><a xlink:href="classqtreports_1_1detail_1_1_replacer.html#a677f7802e444f2de3af4cb43b6cedf30" target="_top" xlink:title="Возвращает описание последней произошедшей ошибки. ">
<polygon fill="none" stroke="black" points="920,-47.5 920,-77.5 1042,-77.5 1042,-47.5 920,-47.5"/>
<text text-anchor="start" x="928" y="-65.5" font-family="Helvetica,sans-Serif" font-size="10.00">qtreports::detail::</text>
<text text-anchor="middle" x="981" y="-54.5" font-family="Helvetica,sans-Serif" font-size="10.00">Replacer::getLastError</text>
</a>
</g>
</g>
<!-- Node4&#45;&gt;Node12 -->
<g id="edge11" class="edge"><title>Node4&#45;&gt;Node12</title>
<path fill="none" stroke="midnightblue" d="M866.003,-78.2841C880.486,-76.2788 895.469,-74.2042 909.624,-72.2444"/>
<polygon fill="midnightblue" stroke="midnightblue" points="910.34,-75.6787 919.765,-70.8402 909.38,-68.7449 910.34,-75.6787"/>
</g>
<!-- Node13 -->
<g id="node13" class="node"><title>Node13</title>
<g id="a_node13"><a xlink:href="classqtreports_1_1detail_1_1_converter_to_p_d_f.html#aba1de1bf9abc3ea9b7b5c2b8317f5a0f" target="_top" xlink:title="Создает band. ">
<polygon fill="none" stroke="black" points="902,-145.5 902,-175.5 1060,-175.5 1060,-145.5 902,-145.5"/>
<text text-anchor="start" x="910" y="-163.5" font-family="Helvetica,sans-Serif" font-size="10.00">qtreports::detail::</text>
<text text-anchor="middle" x="981" y="-152.5" font-family="Helvetica,sans-Serif" font-size="10.00">ConverterToPDF::createBands</text>
</a>
</g>
</g>
<!-- Node4&#45;&gt;Node13 -->
<g id="edge12" class="edge"><title>Node4&#45;&gt;Node13</title>
<path fill="none" stroke="midnightblue" d="M820.292,-104.572C843.359,-114.2 874.246,-126.675 902,-136.5 907.562,-138.469 913.378,-140.432 919.218,-142.34"/>
<polygon fill="midnightblue" stroke="midnightblue" points="918.438,-145.765 929.03,-145.488 920.577,-139.1 918.438,-145.765"/>
</g>
<!-- Node6 -->
<g id="node6" class="node"><title>Node6</title>
<g id="a_node6"><a xlink:href="classqtreports_1_1detail_1_1_replacer.html#a58cf857aa78eb3e273f6543769af425b" target="_top" xlink:title="Заменяет текст всех виджетов секции текстом с подставленными значениями полей из источника данных...">
<polygon fill="none" stroke="black" points="1096,-74.5 1096,-104.5 1260,-104.5 1260,-74.5 1096,-74.5"/>
<text text-anchor="start" x="1104" y="-92.5" font-family="Helvetica,sans-Serif" font-size="10.00">qtreports::detail::</text>
<text text-anchor="middle" x="1178" y="-81.5" font-family="Helvetica,sans-Serif" font-size="10.00">Replacer::replaceFieldInSection</text>
</a>
</g>
</g>
<!-- Node5&#45;&gt;Node6 -->
<g id="edge5" class="edge"><title>Node5&#45;&gt;Node6</title>
<path fill="none" stroke="midnightblue" d="M1030.7,-106.005C1047.44,-104.117 1066.76,-101.938 1085.75,-99.7943"/>
<polygon fill="midnightblue" stroke="midnightblue" points="1086.41,-103.243 1095.95,-98.6439 1085.62,-96.2872 1086.41,-103.243"/>
</g>
<!-- Node11 -->
<g id="node11" class="node"><title>Node11</title>
<g id="a_node11"><a xlink:href="classqtreports_1_1detail_1_1_replacer.html#abb903f1c1172efa7e26b040a5695cc86" target="_top" xlink:title="Возвращает текст с подставленными значениями параметров. ">
<polygon fill="none" stroke="black" points="1101,-123.5 1101,-153.5 1255,-153.5 1255,-123.5 1101,-123.5"/>
<text text-anchor="start" x="1109" y="-141.5" font-family="Helvetica,sans-Serif" font-size="10.00">qtreports::detail::</text>
<text text-anchor="middle" x="1178" y="-130.5" font-family="Helvetica,sans-Serif" font-size="10.00">Replacer::replaceParameters</text>
</a>
</g>
</g>
<!-- Node5&#45;&gt;Node11 -->
<g id="edge10" class="edge"><title>Node5&#45;&gt;Node11</title>
<path fill="none" stroke="midnightblue" d="M1030.7,-118.244C1048.93,-120.767 1070.22,-123.715 1090.83,-126.568"/>
<polygon fill="midnightblue" stroke="midnightblue" points="1090.48,-130.054 1100.87,-127.959 1091.45,-123.12 1090.48,-130.054"/>
</g>
<!-- Node7 -->
<g id="node7" class="node"><title>Node7</title>
<g id="a_node7"><a xlink:href="classqtreports_1_1detail_1_1_replacer.html#a2be57bd514335f9b9f2a520247562ce1" target="_top" xlink:title="Заменяет текст виджета текстом с подставленными значениями полей из источника данных. ">
<polygon fill="none" stroke="black" points="1302,-47 1302,-88 1448,-88 1448,-47 1302,-47"/>
<text text-anchor="start" x="1310" y="-76" font-family="Helvetica,sans-Serif" font-size="10.00">qtreports::detail::</text>
<text text-anchor="start" x="1310" y="-65" font-family="Helvetica,sans-Serif" font-size="10.00">Replacer::replaceFieldInText</text>
<text text-anchor="middle" x="1375" y="-54" font-family="Helvetica,sans-Serif" font-size="10.00">Widget</text>
</a>
</g>
</g>
<!-- Node6&#45;&gt;Node7 -->
<g id="edge6" class="edge"><title>Node6&#45;&gt;Node7</title>
<path fill="none" stroke="midnightblue" d="M1260,-80.3611C1270.55,-79.1713 1281.36,-77.9515 1291.93,-76.7596"/>
<polygon fill="midnightblue" stroke="midnightblue" points="1292.42,-80.2265 1301.96,-75.6274 1291.63,-73.2707 1292.42,-80.2265"/>
</g>
<!-- Node9 -->
<g id="node9" class="node"><title>Node9</title>
<g id="a_node9"><a xlink:href="classqtreports_1_1detail_1_1_replacer.html#a4aeb7794f90c0be34a30ab60a6df1920" target="_top" xlink:title="На основе текста виджета вставляет в него изображение из источника данных. ">
<polygon fill="none" stroke="black" points="1296,-107 1296,-148 1454,-148 1454,-107 1296,-107"/>
<text text-anchor="start" x="1304" y="-136" font-family="Helvetica,sans-Serif" font-size="10.00">qtreports::detail::</text>
<text text-anchor="start" x="1304" y="-125" font-family="Helvetica,sans-Serif" font-size="10.00">Replacer::replaceFieldInImage</text>
<text text-anchor="middle" x="1375" y="-114" font-family="Helvetica,sans-Serif" font-size="10.00">Widget</text>
</a>
</g>
</g>
<!-- Node6&#45;&gt;Node9 -->
<g id="edge8" class="edge"><title>Node6&#45;&gt;Node9</title>
<path fill="none" stroke="midnightblue" d="M1256.07,-104.519C1265.89,-106.432 1276,-108.403 1285.98,-110.347"/>
<polygon fill="midnightblue" stroke="midnightblue" points="1285.41,-113.802 1295.89,-112.279 1286.75,-106.931 1285.41,-113.802"/>
</g>
<!-- Node8 -->
<g id="node8" class="node"><title>Node8</title>
<g id="a_node8"><a xlink:href="classqtreports_1_1detail_1_1_replacer.html#a4642b07160798f2ee4de276e1d0c1ecd" target="_top" xlink:title="Возвращает текст с подставленными значениями полей из источника данных. ">
<polygon fill="none" stroke="black" points="1505,-27.5 1505,-57.5 1624,-57.5 1624,-27.5 1505,-27.5"/>
<text text-anchor="start" x="1513" y="-45.5" font-family="Helvetica,sans-Serif" font-size="10.00">qtreports::detail::</text>
<text text-anchor="middle" x="1564.5" y="-34.5" font-family="Helvetica,sans-Serif" font-size="10.00">Replacer::replaceField</text>
</a>
</g>
</g>
<!-- Node7&#45;&gt;Node8 -->
<g id="edge7" class="edge"><title>Node7&#45;&gt;Node8</title>
<path fill="none" stroke="midnightblue" d="M1448.22,-57.8701C1463.48,-55.8361 1479.54,-53.6949 1494.66,-51.678"/>
<polygon fill="midnightblue" stroke="midnightblue" points="1495.52,-55.0955 1504.97,-50.3045 1494.59,-48.1569 1495.52,-55.0955"/>
</g>
<!-- Node10 -->
<g id="node10" class="node"><title>Node10</title>
<g id="a_node10"><a xlink:href="classqtreports_1_1detail_1_1_replacer.html#ae1ac521aeaf5fdd694e79e2ae52d4704" target="_top" xlink:title="Возвращает изображение на основе первого найденного выражения. ">
<polygon fill="none" stroke="black" points="1490,-112.5 1490,-142.5 1639,-142.5 1639,-112.5 1490,-112.5"/>
<text text-anchor="start" x="1498" y="-130.5" font-family="Helvetica,sans-Serif" font-size="10.00">qtreports::detail::</text>
<text text-anchor="middle" x="1564.5" y="-119.5" font-family="Helvetica,sans-Serif" font-size="10.00">Replacer::replaceFieldImage</text>
</a>
</g>
</g>
<!-- Node9&#45;&gt;Node10 -->
<g id="edge9" class="edge"><title>Node9&#45;&gt;Node10</title>
<path fill="none" stroke="midnightblue" d="M1454.16,-127.5C1462.68,-127.5 1471.38,-127.5 1479.96,-127.5"/>
<polygon fill="midnightblue" stroke="midnightblue" points="1479.97,-131 1489.97,-127.5 1479.97,-124 1479.97,-131"/>
</g>
<!-- Node14&#45;&gt;Node4 -->
<g id="edge15" class="edge"><title>Node14&#45;&gt;Node4</title>
<path fill="none" stroke="midnightblue" d="M666.08,-60.8547C681.166,-64.5507 696.781,-68.3763 711.497,-71.9818"/>
<polygon fill="midnightblue" stroke="midnightblue" points="710.979,-75.4583 721.525,-74.4385 712.645,-68.6593 710.979,-75.4583"/>
</g>
<!-- Node14&#45;&gt;Node8 -->
<g id="edge14" class="edge"><title>Node14&#45;&gt;Node8</title>
<path fill="none" stroke="midnightblue" d="M666.189,-33.2049C746.463,-26.8009 871.451,-18.5 980,-18.5 980,-18.5 980,-18.5 1179,-18.5 1289.74,-18.5 1418.06,-28.5387 1494.91,-35.6311"/>
<polygon fill="midnightblue" stroke="midnightblue" points="1494.66,-39.123 1504.94,-36.5674 1495.31,-32.1533 1494.66,-39.123"/>
</g>
</g>
</svg>
