<?xml version="1.0" encoding="UTF-8" standalone="no"?>
<!DOCTYPE svg PUBLIC "-//W3C//DTD SVG 1.1//EN"
 "http://www.w3.org/Graphics/SVG/1.1/DTD/svg11.dtd">
<!-- Generated by graphviz version 2.38.0 (20140413.2041)
 -->
<!-- Title: qtreports::detail::Replacer::replaceRowGroupInCrosstab Pages: 1 -->
<svg width="1771pt" height="206pt"
 viewBox="0.00 0.00 1771.00 206.23" xmlns="http://www.w3.org/2000/svg" xmlns:xlink="http://www.w3.org/1999/xlink">
<g id="graph0" class="graph" transform="scale(1 1) rotate(0) translate(4 202.229)">
<title>qtreports::detail::Replacer::replaceRowGroupInCrosstab</title>
<!-- Node1 -->
<g id="node1" class="node"><title>Node1</title>
<polygon fill="#bfbfbf" stroke="black" points="0,-110 0,-151 154,-151 154,-110 0,-110"/>
<text text-anchor="start" x="8" y="-139" font-family="Helvetica,sans-Serif" font-size="10.00">qtreports::detail::</text>
<text text-anchor="start" x="8" y="-128" font-family="Helvetica,sans-Serif" font-size="10.00">Replacer::replaceRowGroupIn</text>
<text text-anchor="middle" x="77" y="-117" font-family="Helvetica,sans-Serif" font-size="10.00">Crosstab</text>
</g>
<!-- Node2 -->
<g id="node2" class="node"><title>Node2</title>
<g id="a_node2"><a xlink:href="classqtreports_1_1detail_1_1_replacer.html#ae0f12ba0e77e9ef89b9479272e843fe6" target="_top" xlink:title="qtreports::detail::\lReplacer::replaceRowGroups\lInCrosstab">
<polygon fill="none" stroke="black" points="190,-110 190,-151 341,-151 341,-110 190,-110"/>
<text text-anchor="start" x="198" y="-139" font-family="Helvetica,sans-Serif" font-size="10.00">qtreports::detail::</text>
<text text-anchor="start" x="198" y="-128" font-family="Helvetica,sans-Serif" font-size="10.00">Replacer::replaceRowGroups</text>
<text text-anchor="middle" x="265.5" y="-117" font-family="Helvetica,sans-Serif" font-size="10.00">InCrosstab</text>
</a>
</g>
</g>
<!-- Node1&#45;&gt;Node2 -->
<g id="edge1" class="edge"><title>Node1&#45;&gt;Node2</title>
<path fill="none" stroke="midnightblue" d="M164.141,-130.5C172.719,-130.5 181.378,-130.5 189.824,-130.5"/>
<polygon fill="midnightblue" stroke="midnightblue" points="164.126,-127 154.126,-130.5 164.126,-134 164.126,-127"/>
</g>
<!-- Node3 -->
<g id="node3" class="node"><title>Node3</title>
<g id="a_node3"><a xlink:href="classqtreports_1_1detail_1_1_converter_to_p_d_f.html#aba1de1bf9abc3ea9b7b5c2b8317f5a0f" target="_top" xlink:title="Создает band. ">
<polygon fill="none" stroke="black" points="585,-150.5 585,-180.5 743,-180.5 743,-150.5 585,-150.5"/>
<text text-anchor="start" x="593" y="-168.5" font-family="Helvetica,sans-Serif" font-size="10.00">qtreports::detail::</text>
<text text-anchor="middle" x="664" y="-157.5" font-family="Helvetica,sans-Serif" font-size="10.00">ConverterToPDF::createBands</text>
</a>
</g>
</g>
<!-- Node2&#45;&gt;Node3 -->
<g id="edge2" class="edge"><title>Node2&#45;&gt;Node3</title>
<path fill="none" stroke="midnightblue" d="M350.944,-150.425C359.707,-152.017 368.51,-153.423 377,-154.5 446.875,-163.362 527.055,-165.783 584.705,-166.178"/>
<polygon fill="midnightblue" stroke="midnightblue" points="351.563,-146.98 341.087,-148.557 350.26,-153.858 351.563,-146.98"/>
</g>
<!-- Node9 -->
<g id="node9" class="node"><title>Node9</title>
<g id="a_node9"><a xlink:href="classqtreports_1_1detail_1_1_converter_to_q_widget.html#aa3be16e037533a4a5b58596087207187" target="_top" xlink:title="Создает band. ">
<polygon fill="none" stroke="black" points="604.5,-83 604.5,-124 723.5,-124 723.5,-83 604.5,-83"/>
<text text-anchor="start" x="612.5" y="-112" font-family="Helvetica,sans-Serif" font-size="10.00">qtreports::detail::</text>
<text text-anchor="start" x="612.5" y="-101" font-family="Helvetica,sans-Serif" font-size="10.00">ConverterToQWidget::</text>
<text text-anchor="middle" x="664" y="-90" font-family="Helvetica,sans-Serif" font-size="10.00">createBands</text>
</a>
</g>
</g>
<!-- Node2&#45;&gt;Node9 -->
<g id="edge9" class="edge"><title>Node2&#45;&gt;Node9</title>
<path fill="none" stroke="midnightblue" d="M350.886,-109.455C359.661,-107.854 368.482,-106.482 377,-105.5 455.307,-96.4749 546.475,-97.874 604.441,-100.239"/>
<polygon fill="midnightblue" stroke="midnightblue" points="350.178,-106.027 341.019,-111.352 351.5,-112.902 350.178,-106.027"/>
</g>
<!-- Node18 -->
<g id="node18" class="node"><title>Node18</title>
<g id="a_node18"><a xlink:href="classqtreports_1_1detail_1_1_replacer.html#a5dc72251354d389091776142436ebd22" target="_top" xlink:title="qtreports::detail::\lReplacer::replaceCellsInCrosstab">
<polygon fill="none" stroke="black" points="377,-115.5 377,-145.5 549,-145.5 549,-115.5 377,-115.5"/>
<text text-anchor="start" x="385" y="-133.5" font-family="Helvetica,sans-Serif" font-size="10.00">qtreports::detail::</text>
<text text-anchor="middle" x="463" y="-122.5" font-family="Helvetica,sans-Serif" font-size="10.00">Replacer::replaceCellsInCrosstab</text>
</a>
</g>
</g>
<!-- Node2&#45;&gt;Node18 -->
<g id="edge19" class="edge"><title>Node2&#45;&gt;Node18</title>
<path fill="none" stroke="midnightblue" d="M351.441,-130.5C359.865,-130.5 368.418,-130.5 376.844,-130.5"/>
<polygon fill="midnightblue" stroke="midnightblue" points="351.247,-127 341.247,-130.5 351.247,-134 351.247,-127"/>
</g>
<!-- Node4 -->
<g id="node4" class="node"><title>Node4</title>
<g id="a_node4"><a xlink:href="classqtreports_1_1detail_1_1_converter_to_p_d_f.html#a5d9212cf5250d8d938359c417537337c" target="_top" xlink:title="Создает секцию. ">
<polygon fill="none" stroke="black" points="779,-150.5 779,-180.5 943,-180.5 943,-150.5 779,-150.5"/>
<text text-anchor="start" x="787" y="-168.5" font-family="Helvetica,sans-Serif" font-size="10.00">qtreports::detail::</text>
<text text-anchor="middle" x="861" y="-157.5" font-family="Helvetica,sans-Serif" font-size="10.00">ConverterToPDF::createSection</text>
</a>
</g>
</g>
<!-- Node3&#45;&gt;Node4 -->
<g id="edge3" class="edge"><title>Node3&#45;&gt;Node4</title>
<path fill="none" stroke="midnightblue" d="M753.191,-165.5C761.761,-165.5 770.428,-165.5 778.924,-165.5"/>
<polygon fill="midnightblue" stroke="midnightblue" points="753.19,-162 743.19,-165.5 753.19,-169 753.19,-162"/>
</g>
<!-- Node5 -->
<g id="node5" class="node"><title>Node5</title>
<g id="a_node5"><a xlink:href="classqtreports_1_1detail_1_1_converter_to_p_d_f.html#aad8435572f5ba065f8f2fef428d97b22" target="_top" xlink:title="Конвертирует отчет в PDF документ. ">
<polygon fill="none" stroke="black" points="1183,-150.5 1183,-180.5 1311,-180.5 1311,-150.5 1183,-150.5"/>
<text text-anchor="start" x="1191" y="-168.5" font-family="Helvetica,sans-Serif" font-size="10.00">qtreports::detail::</text>
<text text-anchor="middle" x="1247" y="-157.5" font-family="Helvetica,sans-Serif" font-size="10.00">ConverterToPDF::create</text>
</a>
</g>
</g>
<!-- Node4&#45;&gt;Node5 -->
<g id="edge4" class="edge"><title>Node4&#45;&gt;Node5</title>
<path fill="none" stroke="midnightblue" d="M927.944,-182.795C944.495,-186.404 962.299,-189.667 979,-191.5 1053.22,-199.647 1072.95,-201.062 1147,-191.5 1164.18,-189.281 1182.64,-184.981 1198.9,-180.507"/>
<polygon fill="midnightblue" stroke="midnightblue" points="928.347,-179.298 917.822,-180.513 926.807,-186.126 928.347,-179.298"/>
</g>
<!-- Node8 -->
<g id="node8" class="node"><title>Node8</title>
<g id="a_node8"><a xlink:href="classqtreports_1_1detail_1_1_converter_to_p_d_f.html#adda58d86ecfee05cdcc5e5ce161926ff" target="_top" xlink:title="Добавляет группу в репорт. ">
<polygon fill="none" stroke="black" points="979,-141 979,-182 1147,-182 1147,-141 979,-141"/>
<text text-anchor="start" x="987" y="-170" font-family="Helvetica,sans-Serif" font-size="10.00">qtreports::detail::</text>
<text text-anchor="start" x="987" y="-159" font-family="Helvetica,sans-Serif" font-size="10.00">ConverterToPDF::addGroupsInto</text>
<text text-anchor="middle" x="1063" y="-148" font-family="Helvetica,sans-Serif" font-size="10.00">Report</text>
</a>
</g>
</g>
<!-- Node4&#45;&gt;Node8 -->
<g id="edge7" class="edge"><title>Node4&#45;&gt;Node8</title>
<path fill="none" stroke="midnightblue" d="M953.089,-163.678C961.681,-163.506 970.361,-163.333 978.873,-163.163"/>
<polygon fill="midnightblue" stroke="midnightblue" points="952.987,-160.179 943.059,-163.879 953.127,-167.178 952.987,-160.179"/>
</g>
<!-- Node6 -->
<g id="node6" class="node"><title>Node6</title>
<g id="a_node6"><a xlink:href="classqtreports_1_1detail_1_1_converter_to_p_d_f.html#af39953d8db1bdcbbcf59cc00b05747eb" target="_top" xlink:title="Запускает процесс конвертации. ">
<polygon fill="none" stroke="black" points="1347,-150.5 1347,-180.5 1481,-180.5 1481,-150.5 1347,-150.5"/>
<text text-anchor="start" x="1355" y="-168.5" font-family="Helvetica,sans-Serif" font-size="10.00">qtreports::detail::</text>
<text text-anchor="middle" x="1414" y="-157.5" font-family="Helvetica,sans-Serif" font-size="10.00">ConverterToPDF::convert</text>
</a>
</g>
</g>
<!-- Node5&#45;&gt;Node6 -->
<g id="edge5" class="edge"><title>Node5&#45;&gt;Node6</title>
<path fill="none" stroke="midnightblue" d="M1321.52,-165.5C1329.95,-165.5 1338.51,-165.5 1346.84,-165.5"/>
<polygon fill="midnightblue" stroke="midnightblue" points="1321.32,-162 1311.32,-165.5 1321.32,-169 1321.32,-162"/>
</g>
<!-- Node7 -->
<g id="node7" class="node"><title>Node7</title>
<g id="a_node7"><a xlink:href="classqtreports_1_1_engine.html#a34b6ccdf31af3bd275d9fb95100c6bda" target="_top" xlink:title="Создает PDF документ отчета по указанному пути ">
<polygon fill="none" stroke="black" points="1517,-150.5 1517,-180.5 1622,-180.5 1622,-150.5 1517,-150.5"/>
<text text-anchor="start" x="1525" y="-168.5" font-family="Helvetica,sans-Serif" font-size="10.00">qtreports::Engine::</text>
<text text-anchor="middle" x="1569.5" y="-157.5" font-family="Helvetica,sans-Serif" font-size="10.00">createPDF</text>
</a>
</g>
</g>
<!-- Node6&#45;&gt;Node7 -->
<g id="edge6" class="edge"><title>Node6&#45;&gt;Node7</title>
<path fill="none" stroke="midnightblue" d="M1491.47,-165.5C1500.04,-165.5 1508.62,-165.5 1516.77,-165.5"/>
<polygon fill="midnightblue" stroke="midnightblue" points="1491.43,-162 1481.43,-165.5 1491.43,-169 1491.43,-162"/>
</g>
<!-- Node8&#45;&gt;Node5 -->
<g id="edge8" class="edge"><title>Node8&#45;&gt;Node5</title>
<path fill="none" stroke="midnightblue" d="M1157.24,-163.549C1165.96,-163.741 1174.65,-163.932 1183,-164.115"/>
<polygon fill="midnightblue" stroke="midnightblue" points="1157.09,-160.045 1147.01,-163.324 1156.93,-167.043 1157.09,-160.045"/>
</g>
<!-- Node10 -->
<g id="node10" class="node"><title>Node10</title>
<g id="a_node10"><a xlink:href="classqtreports_1_1detail_1_1_converter_to_q_widget.html#a3c95daf9bd10efc4feb71e0d976bbd6e" target="_top" xlink:title="Создает секцию. ">
<polygon fill="none" stroke="black" points="801.5,-83 801.5,-124 920.5,-124 920.5,-83 801.5,-83"/>
<text text-anchor="start" x="809.5" y="-112" font-family="Helvetica,sans-Serif" font-size="10.00">qtreports::detail::</text>
<text text-anchor="start" x="809.5" y="-101" font-family="Helvetica,sans-Serif" font-size="10.00">ConverterToQWidget::</text>
<text text-anchor="middle" x="861" y="-90" font-family="Helvetica,sans-Serif" font-size="10.00">createSection</text>
</a>
</g>
</g>
<!-- Node9&#45;&gt;Node10 -->
<g id="edge10" class="edge"><title>Node9&#45;&gt;Node10</title>
<path fill="none" stroke="midnightblue" d="M733.785,-103.5C755.801,-103.5 779.961,-103.5 801.198,-103.5"/>
<polygon fill="midnightblue" stroke="midnightblue" points="733.506,-100 723.506,-103.5 733.506,-107 733.506,-100"/>
</g>
<!-- Node11 -->
<g id="node11" class="node"><title>Node11</title>
<g id="a_node11"><a xlink:href="classqtreports_1_1detail_1_1_converter_to_q_widget.html#a96a53267cf2b8092e174906ea7f0f56f" target="_top" xlink:title="Конвертирует отчет в QWidget. ">
<polygon fill="none" stroke="black" points="1187.5,-44 1187.5,-85 1306.5,-85 1306.5,-44 1187.5,-44"/>
<text text-anchor="start" x="1195.5" y="-73" font-family="Helvetica,sans-Serif" font-size="10.00">qtreports::detail::</text>
<text text-anchor="start" x="1195.5" y="-62" font-family="Helvetica,sans-Serif" font-size="10.00">ConverterToQWidget::</text>
<text text-anchor="middle" x="1247" y="-51" font-family="Helvetica,sans-Serif" font-size="10.00">createQWidget</text>
</a>
</g>
</g>
<!-- Node10&#45;&gt;Node11 -->
<g id="edge11" class="edge"><title>Node10&#45;&gt;Node11</title>
<path fill="none" stroke="midnightblue" d="M930.853,-103.437C988.796,-102.535 1073.69,-99.2201 1147,-88.5 1160.21,-86.5679 1174.24,-83.688 1187.46,-80.5873"/>
<polygon fill="midnightblue" stroke="midnightblue" points="930.668,-99.9395 920.716,-103.575 930.763,-106.939 930.668,-99.9395"/>
</g>
<!-- Node17 -->
<g id="node17" class="node"><title>Node17</title>
<g id="a_node17"><a xlink:href="classqtreports_1_1detail_1_1_converter_to_q_widget.html#ac98aceb5ee703053d7691029da84e296" target="_top" xlink:title="Функция добавления группировок в отчет. ">
<polygon fill="none" stroke="black" points="1003.5,-38 1003.5,-79 1122.5,-79 1122.5,-38 1003.5,-38"/>
<text text-anchor="start" x="1011.5" y="-67" font-family="Helvetica,sans-Serif" font-size="10.00">qtreports::detail::</text>
<text text-anchor="start" x="1011.5" y="-56" font-family="Helvetica,sans-Serif" font-size="10.00">ConverterToQWidget::</text>
<text text-anchor="middle" x="1063" y="-45" font-family="Helvetica,sans-Serif" font-size="10.00">addGroupsIntoReport</text>
</a>
</g>
</g>
<!-- Node10&#45;&gt;Node17 -->
<g id="edge17" class="edge"><title>Node10&#45;&gt;Node17</title>
<path fill="none" stroke="midnightblue" d="M930.619,-88.0607C954.282,-82.7367 980.553,-76.8256 1003.35,-71.6972"/>
<polygon fill="midnightblue" stroke="midnightblue" points="929.643,-84.6927 920.655,-90.3026 931.18,-91.522 929.643,-84.6927"/>
</g>
<!-- Node12 -->
<g id="node12" class="node"><title>Node12</title>
<g id="a_node12"><a xlink:href="classqtreports_1_1detail_1_1_converter_to_q_widget.html#a4b42725ccbbc910522dca786da95fbb6" target="_top" xlink:title="Конвертирует отчет в виджет. ">
<polygon fill="none" stroke="black" points="1354.5,-44 1354.5,-85 1473.5,-85 1473.5,-44 1354.5,-44"/>
<text text-anchor="start" x="1362.5" y="-73" font-family="Helvetica,sans-Serif" font-size="10.00">qtreports::detail::</text>
<text text-anchor="start" x="1362.5" y="-62" font-family="Helvetica,sans-Serif" font-size="10.00">ConverterToQWidget::</text>
<text text-anchor="middle" x="1414" y="-51" font-family="Helvetica,sans-Serif" font-size="10.00">convert</text>
</a>
</g>
</g>
<!-- Node11&#45;&gt;Node12 -->
<g id="edge12" class="edge"><title>Node11&#45;&gt;Node12</title>
<path fill="none" stroke="midnightblue" d="M1316.94,-64.5C1329.35,-64.5 1342.18,-64.5 1354.27,-64.5"/>
<polygon fill="midnightblue" stroke="midnightblue" points="1316.64,-61.0001 1306.64,-64.5 1316.64,-68.0001 1316.64,-61.0001"/>
</g>
<!-- Node13 -->
<g id="node13" class="node"><title>Node13</title>
<g id="a_node13"><a xlink:href="classqtreports_1_1_engine.html#a2a0fef0c95335eec5df4f61e4ffa7434" target="_top" xlink:title="Создает виджет отчета для вывода на экран. ">
<polygon fill="none" stroke="black" points="1517,-98.5 1517,-128.5 1622,-128.5 1622,-98.5 1517,-98.5"/>
<text text-anchor="start" x="1525" y="-116.5" font-family="Helvetica,sans-Serif" font-size="10.00">qtreports::Engine::</text>
<text text-anchor="middle" x="1569.5" y="-105.5" font-family="Helvetica,sans-Serif" font-size="10.00">createWidget</text>
</a>
</g>
</g>
<!-- Node12&#45;&gt;Node13 -->
<g id="edge13" class="edge"><title>Node12&#45;&gt;Node13</title>
<path fill="none" stroke="midnightblue" d="M1483.6,-86.3977C1496.38,-90.4775 1509.46,-94.6545 1521.41,-98.4696"/>
<polygon fill="midnightblue" stroke="midnightblue" points="1484.5,-83.0114 1473.91,-83.3045 1482.37,-89.6799 1484.5,-83.0114"/>
</g>
<!-- Node14 -->
<g id="node14" class="node"><title>Node14</title>
<g id="a_node14"><a xlink:href="classqtreports_1_1_engine.html#a3966d8f0ebb6c1f94812ec21e21680c0" target="_top" xlink:title="qtreports::Engine::\lcreateLayout">
<polygon fill="none" stroke="black" points="1517,-49.5 1517,-79.5 1622,-79.5 1622,-49.5 1517,-49.5"/>
<text text-anchor="start" x="1525" y="-67.5" font-family="Helvetica,sans-Serif" font-size="10.00">qtreports::Engine::</text>
<text text-anchor="middle" x="1569.5" y="-56.5" font-family="Helvetica,sans-Serif" font-size="10.00">createLayout</text>
</a>
</g>
</g>
<!-- Node12&#45;&gt;Node14 -->
<g id="edge14" class="edge"><title>Node12&#45;&gt;Node14</title>
<path fill="none" stroke="midnightblue" d="M1484.22,-64.5C1495.08,-64.5 1506.14,-64.5 1516.52,-64.5"/>
<polygon fill="midnightblue" stroke="midnightblue" points="1483.91,-61.0001 1473.91,-64.5 1483.91,-68.0001 1483.91,-61.0001"/>
</g>
<!-- Node15 -->
<g id="node15" class="node"><title>Node15</title>
<g id="a_node15"><a xlink:href="classqtreports_1_1_engine.html#a93dc7711446a155f87d9146efb493f9e" target="_top" xlink:title="qtreports::Engine::\ldrawPreview">
<polygon fill="none" stroke="black" points="1517,-0.5 1517,-30.5 1622,-30.5 1622,-0.5 1517,-0.5"/>
<text text-anchor="start" x="1525" y="-18.5" font-family="Helvetica,sans-Serif" font-size="10.00">qtreports::Engine::</text>
<text text-anchor="middle" x="1569.5" y="-7.5" font-family="Helvetica,sans-Serif" font-size="10.00">drawPreview</text>
</a>
</g>
</g>
<!-- Node12&#45;&gt;Node15 -->
<g id="edge15" class="edge"><title>Node12&#45;&gt;Node15</title>
<path fill="none" stroke="midnightblue" d="M1483.6,-42.6023C1496.38,-38.5225 1509.46,-34.3455 1521.41,-30.5304"/>
<polygon fill="midnightblue" stroke="midnightblue" points="1482.37,-39.3201 1473.91,-45.6955 1484.5,-45.9886 1482.37,-39.3201"/>
</g>
<!-- Node16 -->
<g id="node16" class="node"><title>Node16</title>
<g id="a_node16"><a xlink:href="classqtreports_1_1_engine.html#ae80c66a0bc958bf82e023b646e18d55b" target="_top" xlink:title="qtreports::Engine::\lprint">
<polygon fill="none" stroke="black" points="1658,-0.5 1658,-30.5 1763,-30.5 1763,-0.5 1658,-0.5"/>
<text text-anchor="start" x="1666" y="-18.5" font-family="Helvetica,sans-Serif" font-size="10.00">qtreports::Engine::</text>
<text text-anchor="middle" x="1710.5" y="-7.5" font-family="Helvetica,sans-Serif" font-size="10.00">print</text>
</a>
</g>
</g>
<!-- Node15&#45;&gt;Node16 -->
<g id="edge16" class="edge"><title>Node15&#45;&gt;Node16</title>
<path fill="none" stroke="midnightblue" d="M1632.44,-15.5C1640.88,-15.5 1649.47,-15.5 1657.7,-15.5"/>
<polygon fill="midnightblue" stroke="midnightblue" points="1632.26,-12.0001 1622.26,-15.5 1632.26,-19.0001 1632.26,-12.0001"/>
</g>
<!-- Node17&#45;&gt;Node11 -->
<g id="edge18" class="edge"><title>Node17&#45;&gt;Node11</title>
<path fill="none" stroke="midnightblue" d="M1132.7,-60.7648C1150.65,-61.3565 1169.83,-61.9889 1187.21,-62.5619"/>
<polygon fill="midnightblue" stroke="midnightblue" points="1132.7,-57.263 1122.59,-60.4315 1132.47,-64.2592 1132.7,-57.263"/>
</g>
<!-- Node18&#45;&gt;Node3 -->
<g id="edge20" class="edge"><title>Node18&#45;&gt;Node3</title>
<path fill="none" stroke="midnightblue" d="M559.279,-147.258C567.842,-148.764 576.448,-150.277 584.841,-151.753"/>
<polygon fill="midnightblue" stroke="midnightblue" points="559.715,-143.781 549.26,-145.495 558.502,-150.675 559.715,-143.781"/>
</g>
<!-- Node18&#45;&gt;Node9 -->
<g id="edge21" class="edge"><title>Node18&#45;&gt;Node9</title>
<path fill="none" stroke="midnightblue" d="M559.318,-117.567C574.678,-115.483 590.17,-113.381 604.328,-111.461"/>
<polygon fill="midnightblue" stroke="midnightblue" points="558.699,-114.119 549.26,-118.932 559.64,-121.056 558.699,-114.119"/>
</g>
</g>
</svg>
