<?xml version="1.0" encoding="UTF-8" standalone="no"?>
<!DOCTYPE svg PUBLIC "-//W3C//DTD SVG 1.1//EN"
 "http://www.w3.org/Graphics/SVG/1.1/DTD/svg11.dtd">
<!-- Generated by graphviz version 2.38.0 (20140413.2041)
 -->
<!-- Title: qtreports::detail::ParserFromXML::goToElementEnd Pages: 1 -->
<!--zoomable 1352 -->
<svg id="main" version="1.1" xmlns="http://www.w3.org/2000/svg" xmlns:xlink="http://www.w3.org/1999/xlink" xml:space="preserve" onload="init(evt)">
<style type="text/css"><![CDATA[
.edge:hover path { stroke: red; }
.edge:hover polygon { stroke: red; fill: red; }
]]></style>
<script type="text/javascript"><![CDATA[
var edges = document.getElementsByTagName('g');
if (edges && edges.length) {
  for (var i=0;i<edges.length;i++) {
    if (edges[i].id.substr(0,4)=='edge') {
      edges[i].setAttribute('class','edge');
    }
  }
}
]]></script>
        <defs>
                <circle id="rim" cx="0" cy="0" r="7"/>
                <circle id="rim2" cx="0" cy="0" r="3.5"/>
                <g id="zoomPlus">
                        <use xlink:href="#rim" fill="#404040">
                                <set attributeName="fill" to="#808080" begin="zoomplus.mouseover" end="zoomplus.mouseout"/>
                        </use>
                        <path d="M-4,0h8M0,-4v8" fill="none" stroke="white" stroke-width="1.5" pointer-events="none"/>
                </g>
                <g id="zoomMin">
                        <use xlink:href="#rim" fill="#404040">
                                <set attributeName="fill" to="#808080" begin="zoomminus.mouseover" end="zoomminus.mouseout"/>
                        </use>
                        <path d="M-4,0h8" fill="none" stroke="white" stroke-width="1.5" pointer-events="none"/>
                </g>
                <g id="dirArrow">
                        <path fill="none" stroke="white" stroke-width="1.5" d="M0,-3.0v7 M-2.5,-0.5L0,-3.0L2.5,-0.5"/>
                </g>
               <g id="resetDef">
                       <use xlink:href="#rim2" fill="#404040">
                               <set attributeName="fill" to="#808080" begin="reset.mouseover" end="reset.mouseout"/>
                       </use>
               </g>
        </defs>

<script type="text/javascript">
var viewWidth = 1110;
var viewHeight = 1352;
var sectionId = 'dynsection-11';
</script>
<script xlink:href="svgpan.js"/>
<svg id="graph" class="graph">
<g id="viewport">
<title>qtreports::detail::ParserFromXML::goToElementEnd</title>
<!-- Node1 -->
<g id="node1" class="node"><title>Node1</title>
<polygon fill="#bfbfbf" stroke="black" points="0,-67.8329 0,-97.8329 176,-97.8329 176,-67.8329 0,-67.8329"/>
<text text-anchor="start" x="8" y="-85.8329" font-family="Helvetica,sans-Serif" font-size="10.00">qtreports::detail::</text>
<text text-anchor="middle" x="88" y="-74.8329" font-family="Helvetica,sans-Serif" font-size="10.00">ParserFromXML::goToElementEnd</text>
</g>
<!-- Node2 -->
<g id="node2" class="node"><title>Node2</title>
<g id="a_node2"><a xlink:href="classqtreports_1_1detail_1_1_parser_from_x_m_l.html#a905c36f37ab8c2833ab85e4d8c22716f" target="_top" xlink:title="Парсит дочерние тэги объекта object. ">
<polygon fill="none" stroke="black" points="213,-693.833 213,-723.833 365,-723.833 365,-693.833 213,-693.833"/>
<text text-anchor="start" x="221" y="-711.833" font-family="Helvetica,sans-Serif" font-size="10.00">qtreports::detail::</text>
<text text-anchor="middle" x="289" y="-700.833" font-family="Helvetica,sans-Serif" font-size="10.00">ParserFromXML::parseChilds</text>
</a>
</g>
</g>
<!-- Node1&#45;&gt;Node2 -->
<g id="edge1" class="edge"><title>Node1&#45;&gt;Node2</title>
<path fill="none" stroke="midnightblue" d="M96.8848,-107.636C129.923,-211.564 256.721,-610.437 283.154,-693.589"/>
<polygon fill="midnightblue" stroke="midnightblue" points="100.186,-106.467 93.8205,-97.9969 93.5146,-108.587 100.186,-106.467"/>
</g>
<!-- Node32 -->
<g id="node32" class="node"><title>Node32</title>
<g id="a_node32"><a xlink:href="classqtreports_1_1detail_1_1_parser_from_x_m_l.html#aee6cb5359125988f68abfcd2f6fe4514" target="_top" xlink:title="Парсит тэг ReportElement &#45; общие данные о элементе отчета (положение, размеры и пр.) ">
<polygon fill="none" stroke="black" points="212,-62.3329 212,-103.333 366,-103.333 366,-62.3329 212,-62.3329"/>
<text text-anchor="start" x="220" y="-91.3329" font-family="Helvetica,sans-Serif" font-size="10.00">qtreports::detail::</text>
<text text-anchor="start" x="220" y="-80.3329" font-family="Helvetica,sans-Serif" font-size="10.00">ParserFromXML::parseReport</text>
<text text-anchor="middle" x="289" y="-69.3329" font-family="Helvetica,sans-Serif" font-size="10.00">Element</text>
</a>
</g>
</g>
<!-- Node1&#45;&gt;Node32 -->
<g id="edge54" class="edge"><title>Node1&#45;&gt;Node32</title>
<path fill="none" stroke="midnightblue" d="M186.56,-82.8329C195.005,-82.8329 203.468,-82.8329 211.707,-82.8329"/>
<polygon fill="midnightblue" stroke="midnightblue" points="186.284,-79.333 176.284,-82.8329 186.284,-86.333 186.284,-79.333"/>
</g>
<!-- Node33 -->
<g id="node33" class="node"><title>Node33</title>
<g id="a_node33"><a xlink:href="classqtreports_1_1detail_1_1_parser_from_x_m_l.html#a4f7803080037058f482a499ebc1a51ee" target="_top" xlink:title="Парсит font &#45; данные о шрифте текста ">
<polygon fill="none" stroke="black" points="217,-13.8329 217,-43.8329 361,-43.8329 361,-13.8329 217,-13.8329"/>
<text text-anchor="start" x="225" y="-31.8329" font-family="Helvetica,sans-Serif" font-size="10.00">qtreports::detail::</text>
<text text-anchor="middle" x="289" y="-20.8329" font-family="Helvetica,sans-Serif" font-size="10.00">ParserFromXML::parseFont</text>
</a>
</g>
</g>
<!-- Node1&#45;&gt;Node33 -->
<g id="edge56" class="edge"><title>Node1&#45;&gt;Node33</title>
<path fill="none" stroke="midnightblue" d="M154.309,-65.1108C179.601,-58.2476 208.249,-50.4738 232.52,-43.8878"/>
<polygon fill="midnightblue" stroke="midnightblue" points="153.167,-61.7941 144.433,-67.7909 155,-68.5498 153.167,-61.7941"/>
</g>
<!-- Node3 -->
<g id="node3" class="node"><title>Node3</title>
<g id="a_node3"><a xlink:href="classqtreports_1_1detail_1_1_parser_from_x_m_l.html#aa67a21faa016b0ef4686b22a390fd446" target="_top" xlink:title="Начинает парсинг документа ">
<polygon fill="none" stroke="black" points="409.5,-1313.83 409.5,-1343.83 582.5,-1343.83 582.5,-1313.83 409.5,-1313.83"/>
<text text-anchor="start" x="417.5" y="-1331.83" font-family="Helvetica,sans-Serif" font-size="10.00">qtreports::detail::</text>
<text text-anchor="middle" x="496" y="-1320.83" font-family="Helvetica,sans-Serif" font-size="10.00">ParserFromXML::parseDocument</text>
</a>
</g>
</g>
<!-- Node2&#45;&gt;Node3 -->
<g id="edge2" class="edge"><title>Node2&#45;&gt;Node3</title>
<path fill="none" stroke="midnightblue" d="M291.219,-733.843C296.701,-835.934 322.374,-1219.7 402,-1304.83 405.189,-1308.24 408.794,-1311.19 412.684,-1313.75"/>
<polygon fill="midnightblue" stroke="midnightblue" points="294.714,-733.638 290.699,-723.834 287.723,-734.002 294.714,-733.638"/>
</g>
<!-- Node7 -->
<g id="node7" class="node"><title>Node7</title>
<g id="a_node7"><a xlink:href="classqtreports_1_1detail_1_1_parser_from_x_m_l.html#a8247dc85ae5cae03ab3f175982a0857e" target="_top" xlink:title="Парсит тэг report. ">
<polygon fill="none" stroke="black" points="419,-1264.83 419,-1294.83 573,-1294.83 573,-1264.83 419,-1264.83"/>
<text text-anchor="start" x="427" y="-1282.83" font-family="Helvetica,sans-Serif" font-size="10.00">qtreports::detail::</text>
<text text-anchor="middle" x="496" y="-1271.83" font-family="Helvetica,sans-Serif" font-size="10.00">ParserFromXML::parseReport</text>
</a>
</g>
</g>
<!-- Node2&#45;&gt;Node7 -->
<g id="edge6" class="edge"><title>Node2&#45;&gt;Node7</title>
<path fill="none" stroke="midnightblue" d="M291.684,-733.948C298.683,-830.821 328.607,-1178.63 402,-1255.83 406.825,-1260.91 412.571,-1264.97 418.804,-1268.2"/>
<polygon fill="midnightblue" stroke="midnightblue" points="295.17,-733.624 290.976,-723.895 288.187,-734.116 295.17,-733.624"/>
</g>
<!-- Node9 -->
<g id="node9" class="node"><title>Node9</title>
<g id="a_node9"><a xlink:href="classqtreports_1_1detail_1_1_parser_from_x_m_l.html#a20a5b5081956769e0d219779407ba76c" target="_top" xlink:title="Парсит тэг Field. ">
<polygon fill="none" stroke="black" points="424,-1215.83 424,-1245.83 568,-1245.83 568,-1215.83 424,-1215.83"/>
<text text-anchor="start" x="432" y="-1233.83" font-family="Helvetica,sans-Serif" font-size="10.00">qtreports::detail::</text>
<text text-anchor="middle" x="496" y="-1222.83" font-family="Helvetica,sans-Serif" font-size="10.00">ParserFromXML::parseField</text>
</a>
</g>
</g>
<!-- Node2&#45;&gt;Node9 -->
<g id="edge8" class="edge"><title>Node2&#45;&gt;Node9</title>
<path fill="none" stroke="midnightblue" d="M292.24,-734.044C300.859,-825.419 334.81,-1137.5 402,-1206.83 408.15,-1213.18 415.74,-1217.93 423.91,-1221.46"/>
<polygon fill="midnightblue" stroke="midnightblue" points="295.72,-733.661 291.314,-724.026 288.749,-734.305 295.72,-733.661"/>
</g>
<!-- Node10 -->
<g id="node10" class="node"><title>Node10</title>
<g id="a_node10"><a xlink:href="classqtreports_1_1detail_1_1_parser_from_x_m_l.html#a477a961860b1de77b5a0da28e361987a" target="_top" xlink:title="Парсит тэг group. ">
<polygon fill="none" stroke="black" points="420,-1166.83 420,-1196.83 572,-1196.83 572,-1166.83 420,-1166.83"/>
<text text-anchor="start" x="428" y="-1184.83" font-family="Helvetica,sans-Serif" font-size="10.00">qtreports::detail::</text>
<text text-anchor="middle" x="496" y="-1173.83" font-family="Helvetica,sans-Serif" font-size="10.00">ParserFromXML::parseGroup</text>
</a>
</g>
</g>
<!-- Node2&#45;&gt;Node10 -->
<g id="edge10" class="edge"><title>Node2&#45;&gt;Node10</title>
<path fill="none" stroke="midnightblue" d="M292.938,-734.314C303.327,-820.083 341.022,-1096.36 402,-1157.83 407.167,-1163.04 413.305,-1167.17 419.928,-1170.43"/>
<polygon fill="midnightblue" stroke="midnightblue" points="296.387,-733.683 291.729,-724.167 289.437,-734.511 296.387,-733.683"/>
</g>
<!-- Node11 -->
<g id="node11" class="node"><title>Node11</title>
<g id="a_node11"><a xlink:href="classqtreports_1_1detail_1_1_parser_from_x_m_l.html#a5a92ffb4f04daa047da0ddfe3d583262" target="_top" xlink:title="Парсит тэг groupHeader. ">
<polygon fill="none" stroke="black" points="402,-1117.83 402,-1147.83 590,-1147.83 590,-1117.83 402,-1117.83"/>
<text text-anchor="start" x="410" y="-1135.83" font-family="Helvetica,sans-Serif" font-size="10.00">qtreports::detail::</text>
<text text-anchor="middle" x="496" y="-1124.83" font-family="Helvetica,sans-Serif" font-size="10.00">ParserFromXML::parseGroupHeader</text>
</a>
</g>
</g>
<!-- Node2&#45;&gt;Node11 -->
<g id="edge12" class="edge"><title>Node2&#45;&gt;Node11</title>
<path fill="none" stroke="midnightblue" d="M293.778,-734.368C306.042,-813.906 347.144,-1055.09 402,-1108.83 405.454,-1112.22 409.319,-1115.14 413.458,-1117.67"/>
<polygon fill="midnightblue" stroke="midnightblue" points="297.204,-733.615 292.24,-724.254 290.283,-734.667 297.204,-733.615"/>
</g>
<!-- Node12 -->
<g id="node12" class="node"><title>Node12</title>
<g id="a_node12"><a xlink:href="classqtreports_1_1detail_1_1_parser_from_x_m_l.html#acfd1224b98c50412fd1b1897da5a362a" target="_top" xlink:title="Парсит тэг groupFooter. ">
<polygon fill="none" stroke="black" points="404.5,-1068.83 404.5,-1098.83 587.5,-1098.83 587.5,-1068.83 404.5,-1068.83"/>
<text text-anchor="start" x="412.5" y="-1086.83" font-family="Helvetica,sans-Serif" font-size="10.00">qtreports::detail::</text>
<text text-anchor="middle" x="496" y="-1075.83" font-family="Helvetica,sans-Serif" font-size="10.00">ParserFromXML::parseGroupFooter</text>
</a>
</g>
</g>
<!-- Node2&#45;&gt;Node12 -->
<g id="edge14" class="edge"><title>Node2&#45;&gt;Node12</title>
<path fill="none" stroke="midnightblue" d="M290.214,-734.224C292.192,-798.644 306.643,-969.701 402,-1059.83 405.635,-1063.27 409.696,-1066.23 414.032,-1068.78"/>
<polygon fill="midnightblue" stroke="midnightblue" points="293.711,-734.068 289.983,-724.151 286.713,-734.229 293.711,-734.068"/>
</g>
<!-- Node13 -->
<g id="node13" class="node"><title>Node13</title>
<g id="a_node13"><a xlink:href="classqtreports_1_1detail_1_1_parser_from_x_m_l.html#a88dc32b7c6b8727e6a7fed5e222a7aab" target="_top" xlink:title="Парсит тэг Title. ">
<polygon fill="none" stroke="black" points="424.5,-1019.83 424.5,-1049.83 567.5,-1049.83 567.5,-1019.83 424.5,-1019.83"/>
<text text-anchor="start" x="432.5" y="-1037.83" font-family="Helvetica,sans-Serif" font-size="10.00">qtreports::detail::</text>
<text text-anchor="middle" x="496" y="-1026.83" font-family="Helvetica,sans-Serif" font-size="10.00">ParserFromXML::parseTitle</text>
</a>
</g>
</g>
<!-- Node2&#45;&gt;Node13 -->
<g id="edge16" class="edge"><title>Node2&#45;&gt;Node13</title>
<path fill="none" stroke="midnightblue" d="M291.729,-734.198C297.089,-792.243 318.534,-935.518 402,-1010.83 408.438,-1016.64 416.097,-1021.08 424.216,-1024.47"/>
<polygon fill="midnightblue" stroke="midnightblue" points="295.204,-733.751 290.881,-724.078 288.228,-734.336 295.204,-733.751"/>
</g>
<!-- Node14 -->
<g id="node14" class="node"><title>Node14</title>
<g id="a_node14"><a xlink:href="classqtreports_1_1detail_1_1_parser_from_x_m_l.html#a79d177b44a8d13065f226fd7940bdde0" target="_top" xlink:title="Парсит тэг Detail. ">
<polygon fill="none" stroke="black" points="420.5,-970.833 420.5,-1000.83 571.5,-1000.83 571.5,-970.833 420.5,-970.833"/>
<text text-anchor="start" x="428.5" y="-988.833" font-family="Helvetica,sans-Serif" font-size="10.00">qtreports::detail::</text>
<text text-anchor="middle" x="496" y="-977.833" font-family="Helvetica,sans-Serif" font-size="10.00">ParserFromXML::parseDetail</text>
</a>
</g>
</g>
<!-- Node2&#45;&gt;Node14 -->
<g id="edge18" class="edge"><title>Node2&#45;&gt;Node14</title>
<path fill="none" stroke="midnightblue" d="M293.788,-734.255C302.787,-785.407 330.322,-901.054 402,-961.833 407.469,-966.47 413.724,-970.227 420.348,-973.267"/>
<polygon fill="midnightblue" stroke="midnightblue" points="297.19,-733.375 292.097,-724.084 290.285,-734.523 297.19,-733.375"/>
</g>
<!-- Node15 -->
<g id="node15" class="node"><title>Node15</title>
<g id="a_node15"><a xlink:href="classqtreports_1_1detail_1_1_parser_from_x_m_l.html#a1d2dfaa79bc7e339443ac12d56b3ba11" target="_top" xlink:title="Парсит тэг Summary. ">
<polygon fill="none" stroke="black" points="411,-921.833 411,-951.833 581,-951.833 581,-921.833 411,-921.833"/>
<text text-anchor="start" x="419" y="-939.833" font-family="Helvetica,sans-Serif" font-size="10.00">qtreports::detail::</text>
<text text-anchor="middle" x="496" y="-928.833" font-family="Helvetica,sans-Serif" font-size="10.00">ParserFromXML::parseSummary</text>
</a>
</g>
</g>
<!-- Node2&#45;&gt;Node15 -->
<g id="edge20" class="edge"><title>Node2&#45;&gt;Node15</title>
<path fill="none" stroke="midnightblue" d="M296.531,-733.546C309.261,-776.752 341.581,-865.88 402,-912.833 406.345,-916.209 411.115,-919.114 416.129,-921.613"/>
<polygon fill="midnightblue" stroke="midnightblue" points="299.875,-732.509 293.777,-723.845 293.141,-734.421 299.875,-732.509"/>
</g>
<!-- Node16 -->
<g id="node16" class="node"><title>Node16</title>
<g id="a_node16"><a xlink:href="classqtreports_1_1detail_1_1_parser_from_x_m_l.html#af04b8018f1bb3d60ecb6525f31d29885" target="_top" xlink:title="Парсит тэг Band. ">
<polygon fill="none" stroke="black" points="422,-872.833 422,-902.833 570,-902.833 570,-872.833 422,-872.833"/>
<text text-anchor="start" x="430" y="-890.833" font-family="Helvetica,sans-Serif" font-size="10.00">qtreports::detail::</text>
<text text-anchor="middle" x="496" y="-879.833" font-family="Helvetica,sans-Serif" font-size="10.00">ParserFromXML::parseBand</text>
</a>
</g>
</g>
<!-- Node2&#45;&gt;Node16 -->
<g id="edge22" class="edge"><title>Node2&#45;&gt;Node16</title>
<path fill="none" stroke="midnightblue" d="M300.895,-733.2C317.595,-767.692 352.83,-830.279 402,-863.833 408.06,-867.968 414.785,-871.391 421.766,-874.224"/>
<polygon fill="midnightblue" stroke="midnightblue" points="303.924,-731.417 296.496,-723.862 297.592,-734.4 303.924,-731.417"/>
</g>
<!-- Node17 -->
<g id="node17" class="node"><title>Node17</title>
<g id="a_node17"><a xlink:href="classqtreports_1_1detail_1_1_parser_from_x_m_l.html#a55d48b0d7875a6a4366c0e30f6cf5624" target="_top" xlink:title="Парсит тэг Crosstab. ">
<polygon fill="none" stroke="black" points="413,-823.833 413,-853.833 579,-853.833 579,-823.833 413,-823.833"/>
<text text-anchor="start" x="421" y="-841.833" font-family="Helvetica,sans-Serif" font-size="10.00">qtreports::detail::</text>
<text text-anchor="middle" x="496" y="-830.833" font-family="Helvetica,sans-Serif" font-size="10.00">ParserFromXML::parseCrosstab</text>
</a>
</g>
</g>
<!-- Node2&#45;&gt;Node17 -->
<g id="edge24" class="edge"><title>Node2&#45;&gt;Node17</title>
<path fill="none" stroke="midnightblue" d="M308.224,-731.963C328.549,-756.194 363.649,-793.621 402,-814.833 408.128,-818.223 414.749,-821.146 421.536,-823.665"/>
<polygon fill="midnightblue" stroke="midnightblue" points="310.724,-729.492 301.669,-723.991 305.316,-733.938 310.724,-729.492"/>
</g>
<!-- Node18 -->
<g id="node18" class="node"><title>Node18</title>
<g id="a_node18"><a xlink:href="classqtreports_1_1detail_1_1_parser_from_x_m_l.html#a9f70ead2687f2b3fc8f21dd6bf85049f" target="_top" xlink:title="Парсит тэг rowGroup. ">
<polygon fill="none" stroke="black" points="411,-774.833 411,-804.833 581,-804.833 581,-774.833 411,-774.833"/>
<text text-anchor="start" x="419" y="-792.833" font-family="Helvetica,sans-Serif" font-size="10.00">qtreports::detail::</text>
<text text-anchor="middle" x="496" y="-781.833" font-family="Helvetica,sans-Serif" font-size="10.00">ParserFromXML::parseRowGroup</text>
</a>
</g>
</g>
<!-- Node2&#45;&gt;Node18 -->
<g id="edge26" class="edge"><title>Node2&#45;&gt;Node18</title>
<path fill="none" stroke="midnightblue" d="M324.355,-728.791C346.073,-740.779 375.038,-755.633 402,-765.833 410.734,-769.137 420.097,-772.144 429.396,-774.826"/>
<polygon fill="midnightblue" stroke="midnightblue" points="325.954,-725.675 315.518,-723.851 322.538,-731.785 325.954,-725.675"/>
</g>
<!-- Node19 -->
<g id="node19" class="node"><title>Node19</title>
<g id="a_node19"><a xlink:href="classqtreports_1_1detail_1_1_parser_from_x_m_l.html#a400e9daf7e859228f6ac7419963bb808" target="_top" xlink:title="Парсит тэг columnGroup. ">
<polygon fill="none" stroke="black" points="416,-715.333 416,-756.333 576,-756.333 576,-715.333 416,-715.333"/>
<text text-anchor="start" x="424" y="-744.333" font-family="Helvetica,sans-Serif" font-size="10.00">qtreports::detail::</text>
<text text-anchor="start" x="424" y="-733.333" font-family="Helvetica,sans-Serif" font-size="10.00">ParserFromXML::parseColumn</text>
<text text-anchor="middle" x="496" y="-722.333" font-family="Helvetica,sans-Serif" font-size="10.00">Group</text>
</a>
</g>
</g>
<!-- Node2&#45;&gt;Node19 -->
<g id="edge28" class="edge"><title>Node2&#45;&gt;Node19</title>
<path fill="none" stroke="midnightblue" d="M375.307,-720.068C388.687,-721.831 402.468,-723.646 415.705,-725.389"/>
<polygon fill="midnightblue" stroke="midnightblue" points="375.542,-716.569 365.17,-718.733 374.628,-723.509 375.542,-716.569"/>
</g>
<!-- Node20 -->
<g id="node20" class="node"><title>Node20</title>
<g id="a_node20"><a xlink:href="classqtreports_1_1detail_1_1_parser_from_x_m_l.html#ac7539fad6732c571ad578861a5259807" target="_top" xlink:title="Парсит тэг crosstabCell. ">
<polygon fill="none" stroke="black" points="404.5,-666.833 404.5,-696.833 587.5,-696.833 587.5,-666.833 404.5,-666.833"/>
<text text-anchor="start" x="412.5" y="-684.833" font-family="Helvetica,sans-Serif" font-size="10.00">qtreports::detail::</text>
<text text-anchor="middle" x="496" y="-673.833" font-family="Helvetica,sans-Serif" font-size="10.00">ParserFromXML::parseCrosstabCell</text>
</a>
</g>
</g>
<!-- Node2&#45;&gt;Node20 -->
<g id="edge30" class="edge"><title>Node2&#45;&gt;Node20</title>
<path fill="none" stroke="midnightblue" d="M375.086,-697.626C384.688,-696.362 394.501,-695.069 404.172,-693.796"/>
<polygon fill="midnightblue" stroke="midnightblue" points="374.628,-694.156 365.17,-698.932 375.542,-701.097 374.628,-694.156"/>
</g>
<!-- Node21 -->
<g id="node21" class="node"><title>Node21</title>
<g id="a_node21"><a xlink:href="classqtreports_1_1detail_1_1_parser_from_x_m_l.html#a939abd9300aa969d1a16d822370183cd" target="_top" xlink:title="Парсит тэг crosstabRowHeader. ">
<polygon fill="none" stroke="black" points="413,-607.333 413,-648.333 579,-648.333 579,-607.333 413,-607.333"/>
<text text-anchor="start" x="421" y="-636.333" font-family="Helvetica,sans-Serif" font-size="10.00">qtreports::detail::</text>
<text text-anchor="start" x="421" y="-625.333" font-family="Helvetica,sans-Serif" font-size="10.00">ParserFromXML::parseCrosstab</text>
<text text-anchor="middle" x="496" y="-614.333" font-family="Helvetica,sans-Serif" font-size="10.00">RowHeader</text>
</a>
</g>
</g>
<!-- Node2&#45;&gt;Node21 -->
<g id="edge32" class="edge"><title>Node2&#45;&gt;Node21</title>
<path fill="none" stroke="midnightblue" d="M329.529,-689.485C350.76,-679.437 377.531,-667.314 402,-657.833 410.384,-654.584 419.283,-651.395 428.124,-648.379"/>
<polygon fill="midnightblue" stroke="midnightblue" points="328.012,-686.33 320.492,-693.794 331.025,-692.649 328.012,-686.33"/>
</g>
<!-- Node22 -->
<g id="node22" class="node"><title>Node22</title>
<g id="a_node22"><a xlink:href="classqtreports_1_1detail_1_1_parser_from_x_m_l.html#a8768348db3be505ca13d1bd45173715d" target="_top" xlink:title="Парсит тэг crosstabColumnHeader. ">
<polygon fill="none" stroke="black" points="413,-547.333 413,-588.333 579,-588.333 579,-547.333 413,-547.333"/>
<text text-anchor="start" x="421" y="-576.333" font-family="Helvetica,sans-Serif" font-size="10.00">qtreports::detail::</text>
<text text-anchor="start" x="421" y="-565.333" font-family="Helvetica,sans-Serif" font-size="10.00">ParserFromXML::parseCrosstab</text>
<text text-anchor="middle" x="496" y="-554.333" font-family="Helvetica,sans-Serif" font-size="10.00">ColumnHeader</text>
</a>
</g>
</g>
<!-- Node2&#45;&gt;Node22 -->
<g id="edge34" class="edge"><title>Node2&#45;&gt;Node22</title>
<path fill="none" stroke="midnightblue" d="M307.651,-685.767C327.902,-660.782 363.335,-621.352 402,-597.833 407.653,-594.394 413.742,-591.307 420.002,-588.545"/>
<polygon fill="midnightblue" stroke="midnightblue" points="304.871,-683.639 301.382,-693.643 310.348,-687.999 304.871,-683.639"/>
</g>
<!-- Node23 -->
<g id="node23" class="node"><title>Node23</title>
<g id="a_node23"><a xlink:href="classqtreports_1_1detail_1_1_parser_from_x_m_l.html#a7d6ac273ba11965a23a0b0d330ce822f" target="_top" xlink:title="Парсит тэг cellContents. ">
<polygon fill="none" stroke="black" points="413,-487.333 413,-528.333 579,-528.333 579,-487.333 413,-487.333"/>
<text text-anchor="start" x="421" y="-516.333" font-family="Helvetica,sans-Serif" font-size="10.00">qtreports::detail::</text>
<text text-anchor="start" x="421" y="-505.333" font-family="Helvetica,sans-Serif" font-size="10.00">ParserFromXML::parseCrosstab</text>
<text text-anchor="middle" x="496" y="-494.333" font-family="Helvetica,sans-Serif" font-size="10.00">CellContents</text>
</a>
</g>
</g>
<!-- Node2&#45;&gt;Node23 -->
<g id="edge36" class="edge"><title>Node2&#45;&gt;Node23</title>
<path fill="none" stroke="midnightblue" d="M299.697,-684.263C315.563,-647.177 350.54,-577.074 402,-537.833 406.587,-534.335 411.596,-531.238 416.833,-528.495"/>
<polygon fill="midnightblue" stroke="midnightblue" points="296.342,-683.218 295.732,-693.795 302.805,-685.907 296.342,-683.218"/>
</g>
<!-- Node24 -->
<g id="node24" class="node"><title>Node24</title>
<g id="a_node24"><a xlink:href="classqtreports_1_1detail_1_1_parser_from_x_m_l.html#a53c4121976bc3f27125f8f698d4d8304" target="_top" xlink:title="Парсит тэг StaticText. ">
<polygon fill="none" stroke="black" points="411,-438.833 411,-468.833 581,-468.833 581,-438.833 411,-438.833"/>
<text text-anchor="start" x="419" y="-456.833" font-family="Helvetica,sans-Serif" font-size="10.00">qtreports::detail::</text>
<text text-anchor="middle" x="496" y="-445.833" font-family="Helvetica,sans-Serif" font-size="10.00">ParserFromXML::parseStaticText</text>
</a>
</g>
</g>
<!-- Node2&#45;&gt;Node24 -->
<g id="edge38" class="edge"><title>Node2&#45;&gt;Node24</title>
<path fill="none" stroke="midnightblue" d="M294.855,-683.926C305.465,-636.347 335.308,-532.424 402,-477.833 406.129,-474.453 410.679,-471.543 415.48,-469.039"/>
<polygon fill="midnightblue" stroke="midnightblue" points="291.431,-683.198 292.77,-693.708 298.278,-684.657 291.431,-683.198"/>
</g>
<!-- Node25 -->
<g id="node25" class="node"><title>Node25</title>
<g id="a_node25"><a xlink:href="classqtreports_1_1detail_1_1_parser_from_x_m_l.html#a65b13ade0e7ee85dee9c8c1beab76d7a" target="_top" xlink:title="Парсит тэг TextField. ">
<polygon fill="none" stroke="black" points="414.5,-389.833 414.5,-419.833 577.5,-419.833 577.5,-389.833 414.5,-389.833"/>
<text text-anchor="start" x="422.5" y="-407.833" font-family="Helvetica,sans-Serif" font-size="10.00">qtreports::detail::</text>
<text text-anchor="middle" x="496" y="-396.833" font-family="Helvetica,sans-Serif" font-size="10.00">ParserFromXML::parseTextField</text>
</a>
</g>
</g>
<!-- Node2&#45;&gt;Node25 -->
<g id="edge40" class="edge"><title>Node2&#45;&gt;Node25</title>
<path fill="none" stroke="midnightblue" d="M292.652,-683.589C299.776,-628.866 324.389,-498.708 402,-429.833 406.377,-425.949 411.295,-422.659 416.525,-419.875"/>
<polygon fill="midnightblue" stroke="midnightblue" points="289.145,-683.432 291.417,-693.78 296.094,-684.274 289.145,-683.432"/>
</g>
<!-- Node26 -->
<g id="node26" class="node"><title>Node26</title>
<g id="a_node26"><a xlink:href="classqtreports_1_1detail_1_1_parser_from_x_m_l.html#a14d5b8d1921d17d067c10554864120a2" target="_top" xlink:title="Парсит тэг Line. ">
<polygon fill="none" stroke="black" points="424.5,-340.833 424.5,-370.833 567.5,-370.833 567.5,-340.833 424.5,-340.833"/>
<text text-anchor="start" x="432.5" y="-358.833" font-family="Helvetica,sans-Serif" font-size="10.00">qtreports::detail::</text>
<text text-anchor="middle" x="496" y="-347.833" font-family="Helvetica,sans-Serif" font-size="10.00">ParserFromXML::parseLine</text>
</a>
</g>
</g>
<!-- Node2&#45;&gt;Node26 -->
<g id="edge42" class="edge"><title>Node2&#45;&gt;Node26</title>
<path fill="none" stroke="midnightblue" d="M290.926,-683.521C294.581,-622.169 312.654,-464.431 402,-380.833 408.348,-374.893 415.955,-370.335 424.046,-366.842"/>
<polygon fill="midnightblue" stroke="midnightblue" points="287.415,-683.65 290.397,-693.816 294.406,-684.009 287.415,-683.65"/>
</g>
<!-- Node27 -->
<g id="node27" class="node"><title>Node27</title>
<g id="a_node27"><a xlink:href="classqtreports_1_1detail_1_1_parser_from_x_m_l.html#a8b364c4886eb32dc960079052e5158ec" target="_top" xlink:title="Парсит тэг Rect. ">
<polygon fill="none" stroke="black" points="424.5,-291.833 424.5,-321.833 567.5,-321.833 567.5,-291.833 424.5,-291.833"/>
<text text-anchor="start" x="432.5" y="-309.833" font-family="Helvetica,sans-Serif" font-size="10.00">qtreports::detail::</text>
<text text-anchor="middle" x="496" y="-298.833" font-family="Helvetica,sans-Serif" font-size="10.00">ParserFromXML::parseRect</text>
</a>
</g>
</g>
<!-- Node2&#45;&gt;Node27 -->
<g id="edge44" class="edge"><title>Node2&#45;&gt;Node27</title>
<path fill="none" stroke="midnightblue" d="M289.612,-683.502C290.018,-616.039 300.772,-430.446 402,-331.833 408.347,-325.65 416.052,-320.955 424.281,-317.398"/>
<polygon fill="midnightblue" stroke="midnightblue" points="286.112,-683.641 289.627,-693.636 293.112,-683.631 286.112,-683.641"/>
</g>
<!-- Node28 -->
<g id="node28" class="node"><title>Node28</title>
<g id="a_node28"><a xlink:href="classqtreports_1_1detail_1_1_parser_from_x_m_l.html#a7dc4d03466c276ea931ad46b295d5ee7" target="_top" xlink:title="Парсит тэг Ellipse. ">
<polygon fill="none" stroke="black" points="419.5,-242.833 419.5,-272.833 572.5,-272.833 572.5,-242.833 419.5,-242.833"/>
<text text-anchor="start" x="427.5" y="-260.833" font-family="Helvetica,sans-Serif" font-size="10.00">qtreports::detail::</text>
<text text-anchor="middle" x="496" y="-249.833" font-family="Helvetica,sans-Serif" font-size="10.00">ParserFromXML::parseEllipse</text>
</a>
</g>
</g>
<!-- Node2&#45;&gt;Node28 -->
<g id="edge46" class="edge"><title>Node2&#45;&gt;Node28</title>
<path fill="none" stroke="midnightblue" d="M293.336,-683.317C304.664,-600.463 344.2,-340.953 402,-282.833 406.952,-277.854 412.782,-273.836 419.069,-270.597"/>
<polygon fill="midnightblue" stroke="midnightblue" points="289.847,-682.997 291.981,-693.375 296.785,-683.931 289.847,-682.997"/>
</g>
<!-- Node29 -->
<g id="node29" class="node"><title>Node29</title>
<g id="a_node29"><a xlink:href="classqtreports_1_1detail_1_1_parser_from_x_m_l.html#a877a6f05ca0b9dda625083f9860202cc" target="_top" xlink:title="Парсит тэг Image. ">
<polygon fill="none" stroke="black" points="419.5,-193.833 419.5,-223.833 572.5,-223.833 572.5,-193.833 419.5,-193.833"/>
<text text-anchor="start" x="427.5" y="-211.833" font-family="Helvetica,sans-Serif" font-size="10.00">qtreports::detail::</text>
<text text-anchor="middle" x="496" y="-200.833" font-family="Helvetica,sans-Serif" font-size="10.00">ParserFromXML::parseImage</text>
</a>
</g>
</g>
<!-- Node2&#45;&gt;Node29 -->
<g id="edge48" class="edge"><title>Node2&#45;&gt;Node29</title>
<path fill="none" stroke="midnightblue" d="M292.557,-683.655C302.046,-595.108 338.028,-299.823 402,-233.833 407.004,-228.671 412.951,-224.538 419.383,-221.234"/>
<polygon fill="midnightblue" stroke="midnightblue" points="289.074,-683.313 291.508,-693.624 296.036,-684.046 289.074,-683.313"/>
</g>
<!-- Node30 -->
<g id="node30" class="node"><title>Node30</title>
<g id="a_node30"><a xlink:href="classqtreports_1_1detail_1_1_parser_from_x_m_l.html#a3693d70428f413c6adb999bf0ad69abe" target="_top" xlink:title="Парсит тэг TextElement &#45; общие данные о текстовом элементе (выравнивание текста и пр...">
<polygon fill="none" stroke="black" points="405,-144.833 405,-174.833 587,-174.833 587,-144.833 405,-144.833"/>
<text text-anchor="start" x="413" y="-162.833" font-family="Helvetica,sans-Serif" font-size="10.00">qtreports::detail::</text>
<text text-anchor="middle" x="496" y="-151.833" font-family="Helvetica,sans-Serif" font-size="10.00">ParserFromXML::parseTextElement</text>
</a>
</g>
</g>
<!-- Node2&#45;&gt;Node30 -->
<g id="edge50" class="edge"><title>Node2&#45;&gt;Node30</title>
<path fill="none" stroke="midnightblue" d="M291.965,-683.576C299.811,-589.168 331.922,-258.656 402,-184.833 405.683,-180.953 409.899,-177.652 414.456,-174.846"/>
<polygon fill="midnightblue" stroke="midnightblue" points="288.468,-683.398 291.146,-693.649 295.445,-683.966 288.468,-683.398"/>
</g>
<!-- Node31 -->
<g id="node31" class="node"><title>Node31</title>
<g id="a_node31"><a xlink:href="classqtreports_1_1detail_1_1_parser_from_x_m_l.html#abae86fff31affc499e427922f199dfd6" target="_top" xlink:title="qtreports::detail::\lParserFromXML::parseVariable">
<polygon fill="none" stroke="black" points="415.5,-95.8329 415.5,-125.833 576.5,-125.833 576.5,-95.8329 415.5,-95.8329"/>
<text text-anchor="start" x="423.5" y="-113.833" font-family="Helvetica,sans-Serif" font-size="10.00">qtreports::detail::</text>
<text text-anchor="middle" x="496" y="-102.833" font-family="Helvetica,sans-Serif" font-size="10.00">ParserFromXML::parseVariable</text>
</a>
</g>
</g>
<!-- Node2&#45;&gt;Node31 -->
<g id="edge52" class="edge"><title>Node2&#45;&gt;Node31</title>
<path fill="none" stroke="midnightblue" d="M291.468,-683.526C297.772,-583.547 325.782,-217.548 402,-135.833 405.877,-131.676 410.365,-128.182 415.233,-125.249"/>
<polygon fill="midnightblue" stroke="midnightblue" points="287.968,-683.424 290.849,-693.62 294.955,-683.853 287.968,-683.424"/>
</g>
<!-- Node4 -->
<g id="node4" class="node"><title>Node4</title>
<g id="a_node4"><a xlink:href="classqtreports_1_1detail_1_1_parser_from_x_m_l.html#ac5de42ec7fdd07773b0435484df51c2e" target="_top" xlink:title="Парсит отчет и создает из него внутреннюю структуру данных Report. ">
<polygon fill="none" stroke="black" points="649.5,-1313.83 649.5,-1343.83 772.5,-1343.83 772.5,-1313.83 649.5,-1313.83"/>
<text text-anchor="start" x="657.5" y="-1331.83" font-family="Helvetica,sans-Serif" font-size="10.00">qtreports::detail::</text>
<text text-anchor="middle" x="711" y="-1320.83" font-family="Helvetica,sans-Serif" font-size="10.00">ParserFromXML::parse</text>
</a>
</g>
</g>
<!-- Node3&#45;&gt;Node4 -->
<g id="edge3" class="edge"><title>Node3&#45;&gt;Node4</title>
<path fill="none" stroke="midnightblue" d="M592.72,-1328.83C611.962,-1328.83 631.678,-1328.83 649.321,-1328.83"/>
<polygon fill="midnightblue" stroke="midnightblue" points="592.715,-1325.33 582.715,-1328.83 592.715,-1332.33 592.715,-1325.33"/>
</g>
<!-- Node5 -->
<g id="node5" class="node"><title>Node5</title>
<g id="a_node5"><a xlink:href="classqtreports_1_1_engine.html#a12cebdcb817b3c9a0c730b9439b2ff85" target="_top" xlink:title="Загружает макет отчета из файла path. ">
<polygon fill="none" stroke="black" points="832,-1319.33 832,-1338.33 961,-1338.33 961,-1319.33 832,-1319.33"/>
<text text-anchor="middle" x="896.5" y="-1326.33" font-family="Helvetica,sans-Serif" font-size="10.00">qtreports::Engine::open</text>
</a>
</g>
</g>
<!-- Node4&#45;&gt;Node5 -->
<g id="edge4" class="edge"><title>Node4&#45;&gt;Node5</title>
<path fill="none" stroke="midnightblue" d="M783.009,-1328.83C799.089,-1328.83 816.066,-1328.83 831.822,-1328.83"/>
<polygon fill="midnightblue" stroke="midnightblue" points="782.593,-1325.33 772.593,-1328.83 782.593,-1332.33 782.593,-1325.33"/>
</g>
<!-- Node6 -->
<g id="node6" class="node"><title>Node6</title>
<g id="a_node6"><a xlink:href="classqtreports_1_1_engine.html#a18298bdce3e086347705e133eccfd7fa" target="_top" xlink:title="qtreports::Engine::\lEngine">
<polygon fill="none" stroke="black" points="997,-1313.83 997,-1343.83 1102,-1343.83 1102,-1313.83 997,-1313.83"/>
<text text-anchor="start" x="1005" y="-1331.83" font-family="Helvetica,sans-Serif" font-size="10.00">qtreports::Engine::</text>
<text text-anchor="middle" x="1049.5" y="-1320.83" font-family="Helvetica,sans-Serif" font-size="10.00">Engine</text>
</a>
</g>
</g>
<!-- Node5&#45;&gt;Node6 -->
<g id="edge5" class="edge"><title>Node5&#45;&gt;Node6</title>
<path fill="none" stroke="midnightblue" d="M971.234,-1328.83C979.902,-1328.83 988.601,-1328.83 996.874,-1328.83"/>
<polygon fill="midnightblue" stroke="midnightblue" points="971.1,-1325.33 961.1,-1328.83 971.1,-1332.33 971.1,-1325.33"/>
</g>
<!-- Node8 -->
<g id="node8" class="node"><title>Node8</title>
<g id="a_node8"><a xlink:href="classqtreports_1_1detail_1_1_parser_from_x_m_l.html#ab548bd252b2e13a315daefae6b43f1d6" target="_top" xlink:title="qtreports::detail::\lParserFromXML::ParserFromXML">
<polygon fill="none" stroke="black" points="626,-639.833 626,-669.833 796,-669.833 796,-639.833 626,-639.833"/>
<text text-anchor="start" x="634" y="-657.833" font-family="Helvetica,sans-Serif" font-size="10.00">qtreports::detail::</text>
<text text-anchor="middle" x="711" y="-646.833" font-family="Helvetica,sans-Serif" font-size="10.00">ParserFromXML::ParserFromXML</text>
</a>
</g>
</g>
<!-- Node7&#45;&gt;Node8 -->
<g id="edge7" class="edge"><title>Node7&#45;&gt;Node8</title>
<path fill="none" stroke="midnightblue" d="M581.877,-1262.91C584.791,-1260.81 587.518,-1258.46 590,-1255.83 673.906,-1167.14 703.813,-754.456 709.106,-669.968"/>
<polygon fill="midnightblue" stroke="midnightblue" points="579.915,-1260.01 573.222,-1268.22 583.576,-1265.98 579.915,-1260.01"/>
</g>
<!-- Node9&#45;&gt;Node8 -->
<g id="edge9" class="edge"><title>Node9&#45;&gt;Node8</title>
<path fill="none" stroke="midnightblue" d="M577.379,-1216.77C581.994,-1214 586.266,-1210.71 590,-1206.83 667.605,-1126.18 702.219,-750.534 708.811,-670.042"/>
<polygon fill="midnightblue" stroke="midnightblue" points="575.439,-1213.83 568.133,-1221.51 578.629,-1220.06 575.439,-1213.83"/>
</g>
<!-- Node10&#45;&gt;Node8 -->
<g id="edge11" class="edge"><title>Node10&#45;&gt;Node8</title>
<path fill="none" stroke="midnightblue" d="M581.051,-1165.29C584.262,-1163.09 587.269,-1160.61 590,-1157.83 661.387,-1085.12 700.526,-745.866 708.477,-669.936"/>
<polygon fill="midnightblue" stroke="midnightblue" points="579.005,-1162.43 572.127,-1170.49 582.529,-1168.48 579.005,-1162.43"/>
</g>
<!-- Node11&#45;&gt;Node8 -->
<g id="edge13" class="edge"><title>Node11&#45;&gt;Node8</title>
<path fill="none" stroke="midnightblue" d="M587.011,-1111.6C588.038,-1110.71 589.035,-1109.79 590,-1108.83 655.188,-1044.03 698.643,-741.126 708.072,-669.87"/>
<polygon fill="midnightblue" stroke="midnightblue" points="584.621,-1109.01 578.601,-1117.73 588.744,-1114.67 584.621,-1109.01"/>
</g>
<!-- Node12&#45;&gt;Node8 -->
<g id="edge15" class="edge"><title>Node12&#45;&gt;Node8</title>
<path fill="none" stroke="midnightblue" d="M586.971,-1062.56C588.011,-1061.69 589.021,-1060.78 590,-1059.83 706.088,-947.795 711.273,-729.219 710.435,-669.961"/>
<polygon fill="midnightblue" stroke="midnightblue" points="584.596,-1059.95 578.483,-1068.61 588.658,-1065.66 584.596,-1059.95"/>
</g>
<!-- Node13&#45;&gt;Node8 -->
<g id="edge17" class="edge"><title>Node13&#45;&gt;Node8</title>
<path fill="none" stroke="midnightblue" d="M577.166,-1020.13C581.794,-1017.51 586.131,-1014.43 590,-1010.83 693.882,-914.228 707.866,-724.802 709.723,-670.012"/>
<polygon fill="midnightblue" stroke="midnightblue" points="575.39,-1017.11 567.951,-1024.65 578.471,-1023.39 575.39,-1017.11"/>
</g>
<!-- Node14&#45;&gt;Node8 -->
<g id="edge19" class="edge"><title>Node14&#45;&gt;Node8</title>
<path fill="none" stroke="midnightblue" d="M580.818,-968.661C584.068,-966.627 587.15,-964.36 590,-961.833 681.848,-880.4 704.026,-719.898 708.803,-670"/>
<polygon fill="midnightblue" stroke="midnightblue" points="578.989,-965.671 571.867,-973.516 582.326,-971.824 578.989,-965.671"/>
</g>
<!-- Node15&#45;&gt;Node8 -->
<g id="edge21" class="edge"><title>Node15&#45;&gt;Node8</title>
<path fill="none" stroke="midnightblue" d="M585.214,-916.474C586.864,-915.325 588.462,-914.113 590,-912.833 669.934,-846.322 699.548,-714.751 707.55,-670.083"/>
<polygon fill="midnightblue" stroke="midnightblue" points="583.322,-913.528 576.583,-921.703 586.949,-919.515 583.322,-913.528"/>
</g>
<!-- Node16&#45;&gt;Node8 -->
<g id="edge23" class="edge"><title>Node16&#45;&gt;Node8</title>
<path fill="none" stroke="midnightblue" d="M579.273,-870.722C583.04,-868.678 586.643,-866.391 590,-863.833 658.393,-811.724 694.309,-708.599 705.818,-669.94"/>
<polygon fill="midnightblue" stroke="midnightblue" points="577.726,-867.582 570.225,-875.065 580.755,-873.893 577.726,-867.582"/>
</g>
<!-- Node17&#45;&gt;Node8 -->
<g id="edge25" class="edge"><title>Node17&#45;&gt;Node8</title>
<path fill="none" stroke="midnightblue" d="M582.511,-819.343C585.092,-817.943 587.597,-816.442 590,-814.833 647.13,-776.587 687.672,-701.79 703.11,-669.861"/>
<polygon fill="midnightblue" stroke="midnightblue" points="580.946,-816.212 573.477,-823.727 584.002,-822.51 580.946,-816.212"/>
</g>
<!-- Node18&#45;&gt;Node8 -->
<g id="edge27" class="edge"><title>Node18&#45;&gt;Node8</title>
<path fill="none" stroke="midnightblue" d="M579.274,-771.05C582.963,-769.447 586.558,-767.711 590,-765.833 636.087,-740.685 678.232,-693.916 698.064,-669.908"/>
<polygon fill="midnightblue" stroke="midnightblue" points="577.933,-767.817 569.938,-774.77 580.523,-774.32 577.933,-767.817"/>
</g>
<!-- Node19&#45;&gt;Node8 -->
<g id="edge29" class="edge"><title>Node19&#45;&gt;Node8</title>
<path fill="none" stroke="midnightblue" d="M575.417,-712.04C580.371,-710.334 585.266,-708.591 590,-706.833 620.224,-695.608 653.84,-680.837 677.785,-669.907"/>
<polygon fill="midnightblue" stroke="midnightblue" points="574.199,-708.757 565.845,-715.273 576.439,-715.389 574.199,-708.757"/>
</g>
<!-- Node20&#45;&gt;Node8 -->
<g id="edge31" class="edge"><title>Node20&#45;&gt;Node8</title>
<path fill="none" stroke="midnightblue" d="M597.797,-669.056C607.191,-667.865 616.645,-666.667 625.865,-665.498"/>
<polygon fill="midnightblue" stroke="midnightblue" points="597.12,-665.613 587.64,-670.343 598.001,-672.558 597.12,-665.613"/>
</g>
<!-- Node21&#45;&gt;Node8 -->
<g id="edge33" class="edge"><title>Node21&#45;&gt;Node8</title>
<path fill="none" stroke="midnightblue" d="M589.21,-639.521C601.398,-641.066 613.84,-642.644 625.882,-644.17"/>
<polygon fill="midnightblue" stroke="midnightblue" points="589.407,-636.019 579.047,-638.233 588.527,-642.963 589.407,-636.019"/>
</g>
<!-- Node22&#45;&gt;Node8 -->
<g id="edge35" class="edge"><title>Node22&#45;&gt;Node8</title>
<path fill="none" stroke="midnightblue" d="M574.165,-591.855C579.552,-593.799 584.875,-595.799 590,-597.833 621.728,-610.423 656.878,-627.507 680.889,-639.68"/>
<polygon fill="midnightblue" stroke="midnightblue" points="575.021,-588.446 564.426,-588.424 572.695,-595.048 575.021,-588.446"/>
</g>
<!-- Node23&#45;&gt;Node8 -->
<g id="edge37" class="edge"><title>Node23&#45;&gt;Node8</title>
<path fill="none" stroke="midnightblue" d="M580.686,-532.7C583.886,-534.317 587.003,-536.027 590,-537.833 636.353,-565.769 678.696,-614.874 698.387,-639.639"/>
<polygon fill="midnightblue" stroke="midnightblue" points="582.025,-529.462 571.485,-528.383 579.052,-535.799 582.025,-529.462"/>
</g>
<!-- Node24&#45;&gt;Node8 -->
<g id="edge39" class="edge"><title>Node24&#45;&gt;Node8</title>
<path fill="none" stroke="midnightblue" d="M583.315,-473.575C585.618,-474.903 587.853,-476.32 590,-477.833 651.002,-520.813 690.188,-605.416 704.21,-639.785"/>
<polygon fill="midnightblue" stroke="midnightblue" points="584.625,-470.314 574.128,-468.882 581.441,-476.548 584.625,-470.314"/>
</g>
<!-- Node25&#45;&gt;Node8 -->
<g id="edge41" class="edge"><title>Node25&#45;&gt;Node8</title>
<path fill="none" stroke="midnightblue" d="M582.859,-424.799C585.341,-426.353 587.73,-428.028 590,-429.833 661.905,-487.002 696.084,-599.316 706.453,-639.821"/>
<polygon fill="midnightblue" stroke="midnightblue" points="584.549,-421.734 574.103,-419.965 581.166,-427.862 584.549,-421.734"/>
</g>
<!-- Node26&#45;&gt;Node8 -->
<g id="edge43" class="edge"><title>Node26&#45;&gt;Node8</title>
<path fill="none" stroke="midnightblue" d="M577.098,-371.971C581.707,-374.511 586.061,-377.445 590,-380.833 673.47,-452.622 700.988,-593.417 707.981,-639.695"/>
<polygon fill="midnightblue" stroke="midnightblue" points="578.488,-368.755 567.961,-367.556 575.442,-375.058 578.488,-368.755"/>
</g>
<!-- Node27&#45;&gt;Node8 -->
<g id="edge45" class="edge"><title>Node27&#45;&gt;Node8</title>
<path fill="none" stroke="midnightblue" d="M577.057,-322.561C581.712,-325.198 586.084,-328.265 590,-331.833 685.3,-418.649 705.188,-588.187 709.096,-639.657"/>
<polygon fill="midnightblue" stroke="midnightblue" points="578.321,-319.282 567.804,-318.004 575.229,-325.562 578.321,-319.282"/>
</g>
<!-- Node28&#45;&gt;Node8 -->
<g id="edge47" class="edge"><title>Node28&#45;&gt;Node8</title>
<path fill="none" stroke="midnightblue" d="M581.523,-276.051C584.533,-278.084 587.377,-280.337 590,-282.833 697.405,-385.056 708.885,-583.779 709.944,-639.805"/>
<polygon fill="midnightblue" stroke="midnightblue" points="583.052,-272.892 572.648,-270.886 579.531,-278.942 583.052,-272.892"/>
</g>
<!-- Node29&#45;&gt;Node8 -->
<g id="edge49" class="edge"><title>Node29&#45;&gt;Node8</title>
<path fill="none" stroke="midnightblue" d="M581.632,-226.939C584.612,-229.002 587.421,-231.292 590,-233.833 709.388,-351.436 712.138,-578.783 710.605,-639.575"/>
<polygon fill="midnightblue" stroke="midnightblue" points="583.209,-223.805 572.824,-221.705 579.633,-229.822 583.209,-223.805"/>
</g>
<!-- Node30&#45;&gt;Node8 -->
<g id="edge51" class="edge"><title>Node30&#45;&gt;Node8</title>
<path fill="none" stroke="midnightblue" d="M585.564,-180.783C587.108,-182.057 588.59,-183.405 590,-184.833 656.864,-252.547 699.194,-567.002 708.197,-639.772"/>
<polygon fill="midnightblue" stroke="midnightblue" points="587.562,-177.908 577.37,-175.015 583.533,-183.633 587.562,-177.908"/>
</g>
<!-- Node31&#45;&gt;Node8 -->
<g id="edge53" class="edge"><title>Node31&#45;&gt;Node8</title>
<path fill="none" stroke="midnightblue" d="M584.911,-131.161C586.695,-132.616 588.396,-134.171 590,-135.833 663.058,-211.523 701.035,-562.56 708.586,-639.782"/>
<polygon fill="midnightblue" stroke="midnightblue" points="586.819,-128.225 576.608,-125.4 582.829,-133.976 586.819,-128.225"/>
</g>
<!-- Node32&#45;&gt;Node8 -->
<g id="edge55" class="edge"><title>Node32&#45;&gt;Node8</title>
<path fill="none" stroke="midnightblue" d="M364.644,-59.8397C431.291,-44.3031 527.729,-34.8066 590,-85.8329 679.412,-159.099 704.883,-556.593 709.261,-639.625"/>
<polygon fill="midnightblue" stroke="midnightblue" points="363.516,-56.5118 354.625,-62.2727 365.168,-63.3141 363.516,-56.5118"/>
</g>
<!-- Node33&#45;&gt;Node8 -->
<g id="edge57" class="edge"><title>Node33&#45;&gt;Node8</title>
<path fill="none" stroke="midnightblue" d="M353.237,-11.5873C420.302,2.54109 525.302,12.1614 590,-43.8329 684.001,-125.189 705.957,-553.551 709.447,-639.723"/>
<polygon fill="midnightblue" stroke="midnightblue" points="352.234,-8.22415 343.22,-13.7905 353.738,-15.0608 352.234,-8.22415"/>
</g>
</g>
</svg>
        <g id="navigator" transform="translate(0 0)" fill="#404254">
                <rect fill="#f2f5e9" fill-opacity="0.5" stroke="#606060" stroke-width=".5" x="0" y="0" width="60" height="60"/>
                <use id="zoomplus" xlink:href="#zoomPlus" x="17" y="9" onmousedown="handleZoom(evt,'in')"/>
                <use id="zoomminus" xlink:href="#zoomMin" x="42" y="9" onmousedown="handleZoom(evt,'out')"/>
                <use id="reset" xlink:href="#resetDef" x="30" y="36" onmousedown="handleReset()"/>
                <g id="arrowUp" xlink:href="#dirArrow" transform="translate(30 24)" onmousedown="handlePan(0,-1)">
                  <use xlink:href="#rim" fill="#404040">
                        <set attributeName="fill" to="#808080" begin="arrowUp.mouseover" end="arrowUp.mouseout"/>
                  </use>
                  <path fill="none" stroke="white" stroke-width="1.5" d="M0,-3.0v7 M-2.5,-0.5L0,-3.0L2.5,-0.5"/>
                </g>
                <g id="arrowRight" xlink:href="#dirArrow" transform="rotate(90) translate(36 -43)" onmousedown="handlePan(1,0)">
                  <use xlink:href="#rim" fill="#404040">
                        <set attributeName="fill" to="#808080" begin="arrowRight.mouseover" end="arrowRight.mouseout"/>
                  </use>
                  <path fill="none" stroke="white" stroke-width="1.5" d="M0,-3.0v7 M-2.5,-0.5L0,-3.0L2.5,-0.5"/>
                </g>
                <g id="arrowDown" xlink:href="#dirArrow" transform="rotate(180) translate(-30 -48)" onmousedown="handlePan(0,1)">
                  <use xlink:href="#rim" fill="#404040">
                        <set attributeName="fill" to="#808080" begin="arrowDown.mouseover" end="arrowDown.mouseout"/>
                  </use>
                  <path fill="none" stroke="white" stroke-width="1.5" d="M0,-3.0v7 M-2.5,-0.5L0,-3.0L2.5,-0.5"/>
                </g>
                <g id="arrowLeft" xlink:href="#dirArrow" transform="rotate(270) translate(-36 17)" onmousedown="handlePan(-1,0)">
                  <use xlink:href="#rim" fill="#404040">
                        <set attributeName="fill" to="#808080" begin="arrowLeft.mouseover" end="arrowLeft.mouseout"/>
                  </use>
                  <path fill="none" stroke="white" stroke-width="1.5" d="M0,-3.0v7 M-2.5,-0.5L0,-3.0L2.5,-0.5"/>
                </g>
        </g>
        <svg viewBox="0 0 15 15" width="100%" height="30px" preserveAspectRatio="xMaxYMin meet">
         <g id="arrow_out" transform="scale(0.3 0.3)">
          <a xlink:href="classqtreports_1_1detail_1_1_parser_from_x_m_l_ace9dca09d283384d721c2a985991c9bf_icgraph_org.svg" target="_base">
           <rect id="button" ry="5" rx="5" y="6" x="6" height="38" width="38"
                fill="#f2f5e9" fill-opacity="0.5" stroke="#606060" stroke-width="1.0"/>
           <path id="arrow"
             d="M 11.500037,31.436501 C 11.940474,20.09759 22.043105,11.32322 32.158766,21.979434 L 37.068811,17.246167 C 37.068811,17.246167 37.088388,32 37.088388,32 L 22.160133,31.978069 C 22.160133,31.978069 26.997745,27.140456 26.997745,27.140456 C 18.528582,18.264221 13.291696,25.230495 11.500037,31.436501 z"
             style="fill:#404040;"/>
          </a>
         </g>
        </svg>
</svg>
