<?xml version="1.0" encoding="UTF-8" standalone="no"?>
<!DOCTYPE svg PUBLIC "-//W3C//DTD SVG 1.1//EN"
 "http://www.w3.org/Graphics/SVG/1.1/DTD/svg11.dtd">
<!-- Generated by graphviz version 2.38.0 (20140413.2041)
 -->
<!-- Title: qtreports::detail::Replacer::replaceCellsInCrosstab Pages: 1 -->
<svg width="1394pt" height="208pt"
 viewBox="0.00 0.00 1394.00 207.87" xmlns="http://www.w3.org/2000/svg" xmlns:xlink="http://www.w3.org/1999/xlink">
<g id="graph0" class="graph" transform="scale(1 1) rotate(0) translate(4 203.873)">
<title>qtreports::detail::Replacer::replaceCellsInCrosstab</title>
<!-- Node1 -->
<g id="node1" class="node"><title>Node1</title>
<polygon fill="#bfbfbf" stroke="black" points="0,-122.5 0,-152.5 172,-152.5 172,-122.5 0,-122.5"/>
<text text-anchor="start" x="8" y="-140.5" font-family="Helvetica,sans-Serif" font-size="10.00">qtreports::detail::</text>
<text text-anchor="middle" x="86" y="-129.5" font-family="Helvetica,sans-Serif" font-size="10.00">Replacer::replaceCellsInCrosstab</text>
</g>
<!-- Node2 -->
<g id="node2" class="node"><title>Node2</title>
<g id="a_node2"><a xlink:href="classqtreports_1_1detail_1_1_converter_to_p_d_f.html#aba1de1bf9abc3ea9b7b5c2b8317f5a0f" target="_top" xlink:title="Создает band. ">
<polygon fill="none" stroke="black" points="208,-149.5 208,-179.5 366,-179.5 366,-149.5 208,-149.5"/>
<text text-anchor="start" x="216" y="-167.5" font-family="Helvetica,sans-Serif" font-size="10.00">qtreports::detail::</text>
<text text-anchor="middle" x="287" y="-156.5" font-family="Helvetica,sans-Serif" font-size="10.00">ConverterToPDF::createBands</text>
</a>
</g>
</g>
<!-- Node1&#45;&gt;Node2 -->
<g id="edge1" class="edge"><title>Node1&#45;&gt;Node2</title>
<path fill="none" stroke="midnightblue" d="M182.279,-150.427C190.842,-151.589 199.448,-152.757 207.841,-153.895"/>
<polygon fill="midnightblue" stroke="midnightblue" points="182.64,-146.944 172.26,-149.068 181.699,-153.881 182.64,-146.944"/>
</g>
<!-- Node8 -->
<g id="node8" class="node"><title>Node8</title>
<g id="a_node8"><a xlink:href="classqtreports_1_1detail_1_1_converter_to_q_widget.html#aa3be16e037533a4a5b58596087207187" target="_top" xlink:title="Создает band. ">
<polygon fill="none" stroke="black" points="227.5,-90 227.5,-131 346.5,-131 346.5,-90 227.5,-90"/>
<text text-anchor="start" x="235.5" y="-119" font-family="Helvetica,sans-Serif" font-size="10.00">qtreports::detail::</text>
<text text-anchor="start" x="235.5" y="-108" font-family="Helvetica,sans-Serif" font-size="10.00">ConverterToQWidget::</text>
<text text-anchor="middle" x="287" y="-97" font-family="Helvetica,sans-Serif" font-size="10.00">createBands</text>
</a>
</g>
</g>
<!-- Node1&#45;&gt;Node8 -->
<g id="edge8" class="edge"><title>Node1&#45;&gt;Node8</title>
<path fill="none" stroke="midnightblue" d="M182.318,-124.567C197.678,-122.483 213.17,-120.381 227.328,-118.461"/>
<polygon fill="midnightblue" stroke="midnightblue" points="181.699,-121.119 172.26,-125.932 182.64,-128.056 181.699,-121.119"/>
</g>
<!-- Node3 -->
<g id="node3" class="node"><title>Node3</title>
<g id="a_node3"><a xlink:href="classqtreports_1_1detail_1_1_converter_to_p_d_f.html#a5d9212cf5250d8d938359c417537337c" target="_top" xlink:title="Создает секцию. ">
<polygon fill="none" stroke="black" points="402,-149.5 402,-179.5 566,-179.5 566,-149.5 402,-149.5"/>
<text text-anchor="start" x="410" y="-167.5" font-family="Helvetica,sans-Serif" font-size="10.00">qtreports::detail::</text>
<text text-anchor="middle" x="484" y="-156.5" font-family="Helvetica,sans-Serif" font-size="10.00">ConverterToPDF::createSection</text>
</a>
</g>
</g>
<!-- Node2&#45;&gt;Node3 -->
<g id="edge2" class="edge"><title>Node2&#45;&gt;Node3</title>
<path fill="none" stroke="midnightblue" d="M376.191,-164.5C384.761,-164.5 393.428,-164.5 401.924,-164.5"/>
<polygon fill="midnightblue" stroke="midnightblue" points="376.19,-161 366.19,-164.5 376.19,-168 376.19,-161"/>
</g>
<!-- Node4 -->
<g id="node4" class="node"><title>Node4</title>
<g id="a_node4"><a xlink:href="classqtreports_1_1detail_1_1_converter_to_p_d_f.html#aad8435572f5ba065f8f2fef428d97b22" target="_top" xlink:title="Конвертирует отчет в PDF документ. ">
<polygon fill="none" stroke="black" points="806,-148.5 806,-178.5 934,-178.5 934,-148.5 806,-148.5"/>
<text text-anchor="start" x="814" y="-166.5" font-family="Helvetica,sans-Serif" font-size="10.00">qtreports::detail::</text>
<text text-anchor="middle" x="870" y="-155.5" font-family="Helvetica,sans-Serif" font-size="10.00">ConverterToPDF::create</text>
</a>
</g>
</g>
<!-- Node3&#45;&gt;Node4 -->
<g id="edge3" class="edge"><title>Node3&#45;&gt;Node4</title>
<path fill="none" stroke="midnightblue" d="M546.087,-181.979C563.954,-186.311 583.624,-190.332 602,-192.5 676.152,-201.249 696.09,-203.102 770,-192.5 789.147,-189.753 809.758,-184.163 827.191,-178.617"/>
<polygon fill="midnightblue" stroke="midnightblue" points="546.916,-178.579 536.366,-179.551 545.219,-185.37 546.916,-178.579"/>
</g>
<!-- Node7 -->
<g id="node7" class="node"><title>Node7</title>
<g id="a_node7"><a xlink:href="classqtreports_1_1detail_1_1_converter_to_p_d_f.html#adda58d86ecfee05cdcc5e5ce161926ff" target="_top" xlink:title="Добавляет группу в репорт. ">
<polygon fill="none" stroke="black" points="602,-142 602,-183 770,-183 770,-142 602,-142"/>
<text text-anchor="start" x="610" y="-171" font-family="Helvetica,sans-Serif" font-size="10.00">qtreports::detail::</text>
<text text-anchor="start" x="610" y="-160" font-family="Helvetica,sans-Serif" font-size="10.00">ConverterToPDF::addGroupsInto</text>
<text text-anchor="middle" x="686" y="-149" font-family="Helvetica,sans-Serif" font-size="10.00">Report</text>
</a>
</g>
</g>
<!-- Node3&#45;&gt;Node7 -->
<g id="edge6" class="edge"><title>Node3&#45;&gt;Node7</title>
<path fill="none" stroke="midnightblue" d="M576.089,-163.589C584.681,-163.503 593.361,-163.416 601.873,-163.331"/>
<polygon fill="midnightblue" stroke="midnightblue" points="576.024,-160.089 566.059,-163.689 576.094,-167.089 576.024,-160.089"/>
</g>
<!-- Node5 -->
<g id="node5" class="node"><title>Node5</title>
<g id="a_node5"><a xlink:href="classqtreports_1_1detail_1_1_converter_to_p_d_f.html#af39953d8db1bdcbbcf59cc00b05747eb" target="_top" xlink:title="Запускает процесс конвертации. ">
<polygon fill="none" stroke="black" points="970,-148.5 970,-178.5 1104,-178.5 1104,-148.5 970,-148.5"/>
<text text-anchor="start" x="978" y="-166.5" font-family="Helvetica,sans-Serif" font-size="10.00">qtreports::detail::</text>
<text text-anchor="middle" x="1037" y="-155.5" font-family="Helvetica,sans-Serif" font-size="10.00">ConverterToPDF::convert</text>
</a>
</g>
</g>
<!-- Node4&#45;&gt;Node5 -->
<g id="edge4" class="edge"><title>Node4&#45;&gt;Node5</title>
<path fill="none" stroke="midnightblue" d="M944.52,-163.5C952.952,-163.5 961.511,-163.5 969.839,-163.5"/>
<polygon fill="midnightblue" stroke="midnightblue" points="944.321,-160 934.321,-163.5 944.321,-167 944.321,-160"/>
</g>
<!-- Node6 -->
<g id="node6" class="node"><title>Node6</title>
<g id="a_node6"><a xlink:href="classqtreports_1_1_engine.html#a34b6ccdf31af3bd275d9fb95100c6bda" target="_top" xlink:title="Создает PDF документ отчета по указанному пути ">
<polygon fill="none" stroke="black" points="1140,-148.5 1140,-178.5 1245,-178.5 1245,-148.5 1140,-148.5"/>
<text text-anchor="start" x="1148" y="-166.5" font-family="Helvetica,sans-Serif" font-size="10.00">qtreports::Engine::</text>
<text text-anchor="middle" x="1192.5" y="-155.5" font-family="Helvetica,sans-Serif" font-size="10.00">createPDF</text>
</a>
</g>
</g>
<!-- Node5&#45;&gt;Node6 -->
<g id="edge5" class="edge"><title>Node5&#45;&gt;Node6</title>
<path fill="none" stroke="midnightblue" d="M1114.47,-163.5C1123.04,-163.5 1131.62,-163.5 1139.77,-163.5"/>
<polygon fill="midnightblue" stroke="midnightblue" points="1114.43,-160 1104.43,-163.5 1114.43,-167 1114.43,-160"/>
</g>
<!-- Node7&#45;&gt;Node4 -->
<g id="edge7" class="edge"><title>Node7&#45;&gt;Node4</title>
<path fill="none" stroke="midnightblue" d="M780.241,-163.012C788.961,-163.06 797.654,-163.108 805.999,-163.154"/>
<polygon fill="midnightblue" stroke="midnightblue" points="780.03,-159.511 770.011,-162.956 779.992,-166.511 780.03,-159.511"/>
</g>
<!-- Node9 -->
<g id="node9" class="node"><title>Node9</title>
<g id="a_node9"><a xlink:href="classqtreports_1_1detail_1_1_converter_to_q_widget.html#a3c95daf9bd10efc4feb71e0d976bbd6e" target="_top" xlink:title="Создает секцию. ">
<polygon fill="none" stroke="black" points="424.5,-90 424.5,-131 543.5,-131 543.5,-90 424.5,-90"/>
<text text-anchor="start" x="432.5" y="-119" font-family="Helvetica,sans-Serif" font-size="10.00">qtreports::detail::</text>
<text text-anchor="start" x="432.5" y="-108" font-family="Helvetica,sans-Serif" font-size="10.00">ConverterToQWidget::</text>
<text text-anchor="middle" x="484" y="-97" font-family="Helvetica,sans-Serif" font-size="10.00">createSection</text>
</a>
</g>
</g>
<!-- Node8&#45;&gt;Node9 -->
<g id="edge9" class="edge"><title>Node8&#45;&gt;Node9</title>
<path fill="none" stroke="midnightblue" d="M356.785,-110.5C378.801,-110.5 402.961,-110.5 424.198,-110.5"/>
<polygon fill="midnightblue" stroke="midnightblue" points="356.506,-107 346.506,-110.5 356.506,-114 356.506,-107"/>
</g>
<!-- Node10 -->
<g id="node10" class="node"><title>Node10</title>
<g id="a_node10"><a xlink:href="classqtreports_1_1detail_1_1_converter_to_q_widget.html#a96a53267cf2b8092e174906ea7f0f56f" target="_top" xlink:title="Конвертирует отчет в QWidget. ">
<polygon fill="none" stroke="black" points="810.5,-44 810.5,-85 929.5,-85 929.5,-44 810.5,-44"/>
<text text-anchor="start" x="818.5" y="-73" font-family="Helvetica,sans-Serif" font-size="10.00">qtreports::detail::</text>
<text text-anchor="start" x="818.5" y="-62" font-family="Helvetica,sans-Serif" font-size="10.00">ConverterToQWidget::</text>
<text text-anchor="middle" x="870" y="-51" font-family="Helvetica,sans-Serif" font-size="10.00">createQWidget</text>
</a>
</g>
</g>
<!-- Node9&#45;&gt;Node10 -->
<g id="edge10" class="edge"><title>Node9&#45;&gt;Node10</title>
<path fill="none" stroke="midnightblue" d="M553.729,-110.721C611.767,-109.879 696.868,-106.224 770,-93.5 783.233,-91.1975 797.21,-87.755 810.359,-84.0381"/>
<polygon fill="midnightblue" stroke="midnightblue" points="553.532,-107.223 543.575,-110.844 553.617,-114.223 553.532,-107.223"/>
</g>
<!-- Node16 -->
<g id="node16" class="node"><title>Node16</title>
<g id="a_node16"><a xlink:href="classqtreports_1_1detail_1_1_converter_to_q_widget.html#ac98aceb5ee703053d7691029da84e296" target="_top" xlink:title="Функция добавления группировок в отчет. ">
<polygon fill="none" stroke="black" points="626.5,-43 626.5,-84 745.5,-84 745.5,-43 626.5,-43"/>
<text text-anchor="start" x="634.5" y="-72" font-family="Helvetica,sans-Serif" font-size="10.00">qtreports::detail::</text>
<text text-anchor="start" x="634.5" y="-61" font-family="Helvetica,sans-Serif" font-size="10.00">ConverterToQWidget::</text>
<text text-anchor="middle" x="686" y="-50" font-family="Helvetica,sans-Serif" font-size="10.00">addGroupsIntoReport</text>
</a>
</g>
</g>
<!-- Node9&#45;&gt;Node16 -->
<g id="edge16" class="edge"><title>Node9&#45;&gt;Node16</title>
<path fill="none" stroke="midnightblue" d="M553.619,-94.3746C577.282,-88.8138 603.553,-82.6401 626.346,-77.2837"/>
<polygon fill="midnightblue" stroke="midnightblue" points="552.589,-91.0211 543.655,-96.716 554.191,-97.8354 552.589,-91.0211"/>
</g>
<!-- Node11 -->
<g id="node11" class="node"><title>Node11</title>
<g id="a_node11"><a xlink:href="classqtreports_1_1detail_1_1_converter_to_q_widget.html#a4b42725ccbbc910522dca786da95fbb6" target="_top" xlink:title="Конвертирует отчет в виджет. ">
<polygon fill="none" stroke="black" points="977.5,-44 977.5,-85 1096.5,-85 1096.5,-44 977.5,-44"/>
<text text-anchor="start" x="985.5" y="-73" font-family="Helvetica,sans-Serif" font-size="10.00">qtreports::detail::</text>
<text text-anchor="start" x="985.5" y="-62" font-family="Helvetica,sans-Serif" font-size="10.00">ConverterToQWidget::</text>
<text text-anchor="middle" x="1037" y="-51" font-family="Helvetica,sans-Serif" font-size="10.00">convert</text>
</a>
</g>
</g>
<!-- Node10&#45;&gt;Node11 -->
<g id="edge11" class="edge"><title>Node10&#45;&gt;Node11</title>
<path fill="none" stroke="midnightblue" d="M939.939,-64.5C952.351,-64.5 965.185,-64.5 977.274,-64.5"/>
<polygon fill="midnightblue" stroke="midnightblue" points="939.637,-61.0001 929.637,-64.5 939.637,-68.0001 939.637,-61.0001"/>
</g>
<!-- Node12 -->
<g id="node12" class="node"><title>Node12</title>
<g id="a_node12"><a xlink:href="classqtreports_1_1_engine.html#a2a0fef0c95335eec5df4f61e4ffa7434" target="_top" xlink:title="Создает виджет отчета для вывода на экран. ">
<polygon fill="none" stroke="black" points="1140,-98.5 1140,-128.5 1245,-128.5 1245,-98.5 1140,-98.5"/>
<text text-anchor="start" x="1148" y="-116.5" font-family="Helvetica,sans-Serif" font-size="10.00">qtreports::Engine::</text>
<text text-anchor="middle" x="1192.5" y="-105.5" font-family="Helvetica,sans-Serif" font-size="10.00">createWidget</text>
</a>
</g>
</g>
<!-- Node11&#45;&gt;Node12 -->
<g id="edge12" class="edge"><title>Node11&#45;&gt;Node12</title>
<path fill="none" stroke="midnightblue" d="M1106.6,-86.3977C1119.38,-90.4775 1132.46,-94.6545 1144.41,-98.4696"/>
<polygon fill="midnightblue" stroke="midnightblue" points="1107.5,-83.0114 1096.91,-83.3045 1105.37,-89.6799 1107.5,-83.0114"/>
</g>
<!-- Node13 -->
<g id="node13" class="node"><title>Node13</title>
<g id="a_node13"><a xlink:href="classqtreports_1_1_engine.html#a3966d8f0ebb6c1f94812ec21e21680c0" target="_top" xlink:title="qtreports::Engine::\lcreateLayout">
<polygon fill="none" stroke="black" points="1140,-49.5 1140,-79.5 1245,-79.5 1245,-49.5 1140,-49.5"/>
<text text-anchor="start" x="1148" y="-67.5" font-family="Helvetica,sans-Serif" font-size="10.00">qtreports::Engine::</text>
<text text-anchor="middle" x="1192.5" y="-56.5" font-family="Helvetica,sans-Serif" font-size="10.00">createLayout</text>
</a>
</g>
</g>
<!-- Node11&#45;&gt;Node13 -->
<g id="edge13" class="edge"><title>Node11&#45;&gt;Node13</title>
<path fill="none" stroke="midnightblue" d="M1107.22,-64.5C1118.08,-64.5 1129.14,-64.5 1139.52,-64.5"/>
<polygon fill="midnightblue" stroke="midnightblue" points="1106.91,-61.0001 1096.91,-64.5 1106.91,-68.0001 1106.91,-61.0001"/>
</g>
<!-- Node14 -->
<g id="node14" class="node"><title>Node14</title>
<g id="a_node14"><a xlink:href="classqtreports_1_1_engine.html#a93dc7711446a155f87d9146efb493f9e" target="_top" xlink:title="qtreports::Engine::\ldrawPreview">
<polygon fill="none" stroke="black" points="1140,-0.5 1140,-30.5 1245,-30.5 1245,-0.5 1140,-0.5"/>
<text text-anchor="start" x="1148" y="-18.5" font-family="Helvetica,sans-Serif" font-size="10.00">qtreports::Engine::</text>
<text text-anchor="middle" x="1192.5" y="-7.5" font-family="Helvetica,sans-Serif" font-size="10.00">drawPreview</text>
</a>
</g>
</g>
<!-- Node11&#45;&gt;Node14 -->
<g id="edge14" class="edge"><title>Node11&#45;&gt;Node14</title>
<path fill="none" stroke="midnightblue" d="M1106.6,-42.6023C1119.38,-38.5225 1132.46,-34.3455 1144.41,-30.5304"/>
<polygon fill="midnightblue" stroke="midnightblue" points="1105.37,-39.3201 1096.91,-45.6955 1107.5,-45.9886 1105.37,-39.3201"/>
</g>
<!-- Node15 -->
<g id="node15" class="node"><title>Node15</title>
<g id="a_node15"><a xlink:href="classqtreports_1_1_engine.html#ae80c66a0bc958bf82e023b646e18d55b" target="_top" xlink:title="qtreports::Engine::\lprint">
<polygon fill="none" stroke="black" points="1281,-0.5 1281,-30.5 1386,-30.5 1386,-0.5 1281,-0.5"/>
<text text-anchor="start" x="1289" y="-18.5" font-family="Helvetica,sans-Serif" font-size="10.00">qtreports::Engine::</text>
<text text-anchor="middle" x="1333.5" y="-7.5" font-family="Helvetica,sans-Serif" font-size="10.00">print</text>
</a>
</g>
</g>
<!-- Node14&#45;&gt;Node15 -->
<g id="edge15" class="edge"><title>Node14&#45;&gt;Node15</title>
<path fill="none" stroke="midnightblue" d="M1255.44,-15.5C1263.88,-15.5 1272.47,-15.5 1280.7,-15.5"/>
<polygon fill="midnightblue" stroke="midnightblue" points="1255.26,-12.0001 1245.26,-15.5 1255.26,-19.0001 1255.26,-12.0001"/>
</g>
<!-- Node16&#45;&gt;Node10 -->
<g id="edge17" class="edge"><title>Node16&#45;&gt;Node10</title>
<path fill="none" stroke="midnightblue" d="M755.7,-63.8775C773.648,-63.9761 792.829,-64.0815 810.21,-64.177"/>
<polygon fill="midnightblue" stroke="midnightblue" points="755.607,-60.377 745.588,-63.8219 755.568,-67.3769 755.607,-60.377"/>
</g>
</g>
</svg>
