<?xml version="1.0" encoding="UTF-8" standalone="no"?>
<!DOCTYPE svg PUBLIC "-//W3C//DTD SVG 1.1//EN"
 "http://www.w3.org/Graphics/SVG/1.1/DTD/svg11.dtd">
<!-- Generated by graphviz version 2.38.0 (20140413.2041)
 -->
<!-- Title: qtreports::detail::Replacer::replaceRowGroupInCrosstab Pages: 1 -->
<svg width="1880pt" height="311pt"
 viewBox="0.00 0.00 1880.00 311.00" xmlns="http://www.w3.org/2000/svg" xmlns:xlink="http://www.w3.org/1999/xlink">
<g id="graph0" class="graph" transform="scale(1 1) rotate(0) translate(4 307)">
<title>qtreports::detail::Replacer::replaceRowGroupInCrosstab</title>
<!-- Node1 -->
<g id="node1" class="node"><title>Node1</title>
<polygon fill="#bfbfbf" stroke="black" points="0,-138 0,-179 154,-179 154,-138 0,-138"/>
<text text-anchor="start" x="8" y="-167" font-family="Helvetica,sans-Serif" font-size="10.00">qtreports::detail::</text>
<text text-anchor="start" x="8" y="-156" font-family="Helvetica,sans-Serif" font-size="10.00">Replacer::replaceRowGroupIn</text>
<text text-anchor="middle" x="77" y="-145" font-family="Helvetica,sans-Serif" font-size="10.00">Crosstab</text>
</g>
<!-- Node2 -->
<g id="node2" class="node"><title>Node2</title>
<g id="a_node2"><a xlink:href="classqtreports_1_1detail_1_1_replacer.html#ae0f12ba0e77e9ef89b9479272e843fe6" target="_top" xlink:title="qtreports::detail::\lReplacer::replaceRowGroups\lInCrosstab">
<polygon fill="none" stroke="black" points="190,-138 190,-179 341,-179 341,-138 190,-138"/>
<text text-anchor="start" x="198" y="-167" font-family="Helvetica,sans-Serif" font-size="10.00">qtreports::detail::</text>
<text text-anchor="start" x="198" y="-156" font-family="Helvetica,sans-Serif" font-size="10.00">Replacer::replaceRowGroups</text>
<text text-anchor="middle" x="265.5" y="-145" font-family="Helvetica,sans-Serif" font-size="10.00">InCrosstab</text>
</a>
</g>
</g>
<!-- Node1&#45;&gt;Node2 -->
<g id="edge1" class="edge"><title>Node1&#45;&gt;Node2</title>
<path fill="none" stroke="midnightblue" d="M164.141,-158.5C172.719,-158.5 181.378,-158.5 189.824,-158.5"/>
<polygon fill="midnightblue" stroke="midnightblue" points="164.126,-155 154.126,-158.5 164.126,-162 164.126,-155"/>
</g>
<!-- Node3 -->
<g id="node3" class="node"><title>Node3</title>
<g id="a_node3"><a xlink:href="classqtreports_1_1detail_1_1_converter_to_h_t_m_l.html#a5b8d80606e58c8bcdadc7ce6134e9c2f" target="_top" xlink:title="Добавление объектов Crosstab в документ HTML. ">
<polygon fill="none" stroke="black" points="585,-204 585,-245 757,-245 757,-204 585,-204"/>
<text text-anchor="start" x="593" y="-233" font-family="Helvetica,sans-Serif" font-size="10.00">qtreports::detail::</text>
<text text-anchor="start" x="593" y="-222" font-family="Helvetica,sans-Serif" font-size="10.00">ConverterToHTML::addCrosstabs</text>
<text text-anchor="middle" x="671" y="-211" font-family="Helvetica,sans-Serif" font-size="10.00">IntoReport</text>
</a>
</g>
</g>
<!-- Node2&#45;&gt;Node3 -->
<g id="edge2" class="edge"><title>Node2&#45;&gt;Node3</title>
<path fill="none" stroke="midnightblue" d="M316.064,-183.184C334.721,-191.384 356.409,-199.65 377,-204.5 445.735,-220.689 525.857,-225.215 584.927,-225.959"/>
<polygon fill="midnightblue" stroke="midnightblue" points="317.443,-179.967 306.888,-179.051 314.568,-186.349 317.443,-179.967"/>
</g>
<!-- Node10 -->
<g id="node10" class="node"><title>Node10</title>
<g id="a_node10"><a xlink:href="classqtreports_1_1detail_1_1_converter_to_p_d_f.html#aba1de1bf9abc3ea9b7b5c2b8317f5a0f" target="_top" xlink:title="Создает band. ">
<polygon fill="none" stroke="black" points="592,-137.5 592,-167.5 750,-167.5 750,-137.5 592,-137.5"/>
<text text-anchor="start" x="600" y="-155.5" font-family="Helvetica,sans-Serif" font-size="10.00">qtreports::detail::</text>
<text text-anchor="middle" x="671" y="-144.5" font-family="Helvetica,sans-Serif" font-size="10.00">ConverterToPDF::createBands</text>
</a>
</g>
</g>
<!-- Node2&#45;&gt;Node10 -->
<g id="edge10" class="edge"><title>Node2&#45;&gt;Node10</title>
<path fill="none" stroke="midnightblue" d="M351.269,-156.053C359.959,-155.846 368.656,-155.656 377,-155.5 449.86,-154.138 532.923,-153.361 591.957,-152.941"/>
<polygon fill="midnightblue" stroke="midnightblue" points="351.003,-152.558 341.092,-156.303 351.175,-159.556 351.003,-152.558"/>
</g>
<!-- Node16 -->
<g id="node16" class="node"><title>Node16</title>
<g id="a_node16"><a xlink:href="classqtreports_1_1detail_1_1_converter_to_q_widget.html#aa3be16e037533a4a5b58596087207187" target="_top" xlink:title="Создает band. ">
<polygon fill="none" stroke="black" points="611.5,-78 611.5,-119 730.5,-119 730.5,-78 611.5,-78"/>
<text text-anchor="start" x="619.5" y="-107" font-family="Helvetica,sans-Serif" font-size="10.00">qtreports::detail::</text>
<text text-anchor="start" x="619.5" y="-96" font-family="Helvetica,sans-Serif" font-size="10.00">ConverterToQWidget::</text>
<text text-anchor="middle" x="671" y="-85" font-family="Helvetica,sans-Serif" font-size="10.00">createBands</text>
</a>
</g>
</g>
<!-- Node2&#45;&gt;Node16 -->
<g id="edge17" class="edge"><title>Node2&#45;&gt;Node16</title>
<path fill="none" stroke="midnightblue" d="M351.74,-145.825C429.785,-134.22 543.22,-117.352 611.482,-107.202"/>
<polygon fill="midnightblue" stroke="midnightblue" points="350.826,-142.422 341.45,-147.355 351.856,-149.346 350.826,-142.422"/>
</g>
<!-- Node25 -->
<g id="node25" class="node"><title>Node25</title>
<g id="a_node25"><a xlink:href="classqtreports_1_1detail_1_1_replacer.html#a5dc72251354d389091776142436ebd22" target="_top" xlink:title="qtreports::detail::\lReplacer::replaceCellsInCrosstab">
<polygon fill="none" stroke="black" points="377,-165.5 377,-195.5 549,-195.5 549,-165.5 377,-165.5"/>
<text text-anchor="start" x="385" y="-183.5" font-family="Helvetica,sans-Serif" font-size="10.00">qtreports::detail::</text>
<text text-anchor="middle" x="463" y="-172.5" font-family="Helvetica,sans-Serif" font-size="10.00">Replacer::replaceCellsInCrosstab</text>
</a>
</g>
</g>
<!-- Node2&#45;&gt;Node25 -->
<g id="edge27" class="edge"><title>Node2&#45;&gt;Node25</title>
<path fill="none" stroke="midnightblue" d="M351.441,-168.059C359.865,-169.007 368.418,-169.969 376.844,-170.917"/>
<polygon fill="midnightblue" stroke="midnightblue" points="351.576,-164.552 341.247,-166.911 350.793,-171.508 351.576,-164.552"/>
</g>
<!-- Node4 -->
<g id="node4" class="node"><title>Node4</title>
<g id="a_node4"><a xlink:href="classqtreports_1_1detail_1_1_converter_to_h_t_m_l.html#acd1d271ed38019d408d8597000e974be" target="_top" xlink:title="Добавление &lt;band&gt; в документ HTML. ">
<polygon fill="none" stroke="black" points="800.5,-220.5 800.5,-250.5 949.5,-250.5 949.5,-220.5 800.5,-220.5"/>
<text text-anchor="start" x="808.5" y="-238.5" font-family="Helvetica,sans-Serif" font-size="10.00">qtreports::detail::</text>
<text text-anchor="middle" x="875" y="-227.5" font-family="Helvetica,sans-Serif" font-size="10.00">ConverterToHTML::addBand</text>
</a>
</g>
</g>
<!-- Node3&#45;&gt;Node4 -->
<g id="edge3" class="edge"><title>Node3&#45;&gt;Node4</title>
<path fill="none" stroke="midnightblue" d="M767.221,-229.685C778.308,-230.289 789.487,-230.898 800.224,-231.482"/>
<polygon fill="midnightblue" stroke="midnightblue" points="767.256,-226.182 757.081,-229.133 766.876,-233.172 767.256,-226.182"/>
</g>
<!-- Node5 -->
<g id="node5" class="node"><title>Node5</title>
<g id="a_node5"><a xlink:href="classqtreports_1_1detail_1_1_converter_to_h_t_m_l.html#ace8358a3612fc8085b7c34f1f92341e2" target="_top" xlink:title="Процесс конвертации репорта в HTML формат. ">
<polygon fill="none" stroke="black" points="1197,-229.5 1197,-259.5 1360,-259.5 1360,-229.5 1197,-229.5"/>
<text text-anchor="start" x="1205" y="-247.5" font-family="Helvetica,sans-Serif" font-size="10.00">qtreports::detail::</text>
<text text-anchor="middle" x="1278.5" y="-236.5" font-family="Helvetica,sans-Serif" font-size="10.00">ConverterToHTML::createHTML</text>
</a>
</g>
</g>
<!-- Node4&#45;&gt;Node5 -->
<g id="edge4" class="edge"><title>Node4&#45;&gt;Node5</title>
<path fill="none" stroke="midnightblue" d="M932.947,-253.154C951.86,-258.195 973.158,-262.997 993,-265.5 1067.08,-274.846 1086.63,-272.149 1161,-265.5 1175.53,-264.201 1190.97,-262.007 1205.68,-259.514"/>
<polygon fill="midnightblue" stroke="midnightblue" points="933.863,-249.776 923.294,-250.507 932.012,-256.527 933.863,-249.776"/>
</g>
<!-- Node9 -->
<g id="node9" class="node"><title>Node9</title>
<g id="a_node9"><a xlink:href="classqtreports_1_1detail_1_1_converter_to_h_t_m_l.html#a602c8f3bd3bc44df48b2edcee8bcdfa0" target="_top" xlink:title="Добавление &lt;group&gt; в документ HTML. ">
<polygon fill="none" stroke="black" points="998,-215 998,-256 1156,-256 1156,-215 998,-215"/>
<text text-anchor="start" x="1006" y="-244" font-family="Helvetica,sans-Serif" font-size="10.00">qtreports::detail::</text>
<text text-anchor="start" x="1006" y="-233" font-family="Helvetica,sans-Serif" font-size="10.00">ConverterToHTML::addGroups</text>
<text text-anchor="middle" x="1077" y="-222" font-family="Helvetica,sans-Serif" font-size="10.00">IntoReport</text>
</a>
</g>
</g>
<!-- Node4&#45;&gt;Node9 -->
<g id="edge8" class="edge"><title>Node4&#45;&gt;Node9</title>
<path fill="none" stroke="midnightblue" d="M959.667,-235.5C972.311,-235.5 985.312,-235.5 997.833,-235.5"/>
<polygon fill="midnightblue" stroke="midnightblue" points="959.621,-232 949.621,-235.5 959.621,-239 959.621,-232"/>
</g>
<!-- Node6 -->
<g id="node6" class="node"><title>Node6</title>
<g id="a_node6"><a xlink:href="classqtreports_1_1detail_1_1_converter_to_h_t_m_l.html#ad91ac333abf7d02f7590970a54ef7aae" target="_top" xlink:title="Запускает процесс конвертации репорта в HTML формат. ">
<polygon fill="none" stroke="black" points="1396,-229.5 1396,-259.5 1538,-259.5 1538,-229.5 1396,-229.5"/>
<text text-anchor="start" x="1404" y="-247.5" font-family="Helvetica,sans-Serif" font-size="10.00">qtreports::detail::</text>
<text text-anchor="middle" x="1467" y="-236.5" font-family="Helvetica,sans-Serif" font-size="10.00">ConverterToHTML::convert</text>
</a>
</g>
</g>
<!-- Node5&#45;&gt;Node6 -->
<g id="edge5" class="edge"><title>Node5&#45;&gt;Node6</title>
<path fill="none" stroke="midnightblue" d="M1370.32,-244.5C1378.94,-244.5 1387.6,-244.5 1395.99,-244.5"/>
<polygon fill="midnightblue" stroke="midnightblue" points="1370.22,-241 1360.22,-244.5 1370.22,-248 1370.22,-241"/>
</g>
<!-- Node7 -->
<g id="node7" class="node"><title>Node7</title>
<g id="a_node7"><a xlink:href="classqtreports_1_1detail_1_1_converter_to_h_t_m_l.html#a38e92f3fd70f61c44871b22cddffd15a" target="_top" xlink:title="Создает HTML документ при успешной конвертации репорта в HTML формат. ">
<polygon fill="none" stroke="black" points="1574,-272.5 1574,-302.5 1716,-302.5 1716,-272.5 1574,-272.5"/>
<text text-anchor="start" x="1582" y="-290.5" font-family="Helvetica,sans-Serif" font-size="10.00">qtreports::detail::</text>
<text text-anchor="middle" x="1645" y="-279.5" font-family="Helvetica,sans-Serif" font-size="10.00">ConverterToHTML::convert</text>
</a>
</g>
</g>
<!-- Node6&#45;&gt;Node7 -->
<g id="edge6" class="edge"><title>Node6&#45;&gt;Node7</title>
<path fill="none" stroke="midnightblue" d="M1539.34,-261.929C1553.64,-265.423 1568.55,-269.065 1582.48,-272.469"/>
<polygon fill="midnightblue" stroke="midnightblue" points="1540.1,-258.513 1529.56,-259.539 1538.44,-265.313 1540.1,-258.513"/>
</g>
<!-- Node8 -->
<g id="node8" class="node"><title>Node8</title>
<g id="a_node8"><a xlink:href="classqtreports_1_1_engine.html#a551b0db0510d572d56447c471daa0891" target="_top" xlink:title="Создает HTML документ отчета по указанному пути ">
<polygon fill="none" stroke="black" points="1592.5,-223.5 1592.5,-253.5 1697.5,-253.5 1697.5,-223.5 1592.5,-223.5"/>
<text text-anchor="start" x="1600.5" y="-241.5" font-family="Helvetica,sans-Serif" font-size="10.00">qtreports::Engine::</text>
<text text-anchor="middle" x="1645" y="-230.5" font-family="Helvetica,sans-Serif" font-size="10.00">createHTML</text>
</a>
</g>
</g>
<!-- Node6&#45;&gt;Node8 -->
<g id="edge7" class="edge"><title>Node6&#45;&gt;Node8</title>
<path fill="none" stroke="midnightblue" d="M1548.35,-241.761C1563.3,-241.251 1578.54,-240.731 1592.35,-240.261"/>
<polygon fill="midnightblue" stroke="midnightblue" points="1547.94,-238.273 1538.07,-242.111 1548.18,-245.269 1547.94,-238.273"/>
</g>
<!-- Node9&#45;&gt;Node5 -->
<g id="edge9" class="edge"><title>Node9&#45;&gt;Node5</title>
<path fill="none" stroke="midnightblue" d="M1166.35,-239.486C1176.49,-239.943 1186.79,-240.408 1196.83,-240.861"/>
<polygon fill="midnightblue" stroke="midnightblue" points="1166.42,-235.986 1156.28,-239.031 1166.11,-242.978 1166.42,-235.986"/>
</g>
<!-- Node11 -->
<g id="node11" class="node"><title>Node11</title>
<g id="a_node11"><a xlink:href="classqtreports_1_1detail_1_1_converter_to_p_d_f.html#a5d9212cf5250d8d938359c417537337c" target="_top" xlink:title="Создает секцию. ">
<polygon fill="none" stroke="black" points="793,-137.5 793,-167.5 957,-167.5 957,-137.5 793,-137.5"/>
<text text-anchor="start" x="801" y="-155.5" font-family="Helvetica,sans-Serif" font-size="10.00">qtreports::detail::</text>
<text text-anchor="middle" x="875" y="-144.5" font-family="Helvetica,sans-Serif" font-size="10.00">ConverterToPDF::createSection</text>
</a>
</g>
</g>
<!-- Node10&#45;&gt;Node11 -->
<g id="edge11" class="edge"><title>Node10&#45;&gt;Node11</title>
<path fill="none" stroke="midnightblue" d="M760.355,-152.5C771.131,-152.5 782.103,-152.5 792.769,-152.5"/>
<polygon fill="midnightblue" stroke="midnightblue" points="760.099,-149 750.098,-152.5 760.098,-156 760.099,-149"/>
</g>
<!-- Node12 -->
<g id="node12" class="node"><title>Node12</title>
<g id="a_node12"><a xlink:href="classqtreports_1_1detail_1_1_converter_to_p_d_f.html#aad8435572f5ba065f8f2fef428d97b22" target="_top" xlink:title="Конвертирует отчет в PDF документ. ">
<polygon fill="none" stroke="black" points="1214.5,-162.5 1214.5,-192.5 1342.5,-192.5 1342.5,-162.5 1214.5,-162.5"/>
<text text-anchor="start" x="1222.5" y="-180.5" font-family="Helvetica,sans-Serif" font-size="10.00">qtreports::detail::</text>
<text text-anchor="middle" x="1278.5" y="-169.5" font-family="Helvetica,sans-Serif" font-size="10.00">ConverterToPDF::create</text>
</a>
</g>
</g>
<!-- Node11&#45;&gt;Node12 -->
<g id="edge12" class="edge"><title>Node11&#45;&gt;Node12</title>
<path fill="none" stroke="midnightblue" d="M967.27,-165.028C975.956,-165.971 984.638,-166.818 993,-167.5 1068.98,-173.693 1156.69,-176.053 1214.41,-176.951"/>
<polygon fill="midnightblue" stroke="midnightblue" points="967.42,-161.523 957.091,-163.881 966.637,-168.479 967.42,-161.523"/>
</g>
<!-- Node15 -->
<g id="node15" class="node"><title>Node15</title>
<g id="a_node15"><a xlink:href="classqtreports_1_1detail_1_1_converter_to_p_d_f.html#adda58d86ecfee05cdcc5e5ce161926ff" target="_top" xlink:title="Добавляет группу в репорт. ">
<polygon fill="none" stroke="black" points="993,-117 993,-158 1161,-158 1161,-117 993,-117"/>
<text text-anchor="start" x="1001" y="-146" font-family="Helvetica,sans-Serif" font-size="10.00">qtreports::detail::</text>
<text text-anchor="start" x="1001" y="-135" font-family="Helvetica,sans-Serif" font-size="10.00">ConverterToPDF::addGroupsInto</text>
<text text-anchor="middle" x="1077" y="-124" font-family="Helvetica,sans-Serif" font-size="10.00">Report</text>
</a>
</g>
</g>
<!-- Node11&#45;&gt;Node15 -->
<g id="edge15" class="edge"><title>Node11&#45;&gt;Node15</title>
<path fill="none" stroke="midnightblue" d="M967.089,-145.668C975.681,-145.024 984.361,-144.373 992.873,-143.735"/>
<polygon fill="midnightblue" stroke="midnightblue" points="966.77,-142.182 957.059,-146.421 967.293,-149.163 966.77,-142.182"/>
</g>
<!-- Node13 -->
<g id="node13" class="node"><title>Node13</title>
<g id="a_node13"><a xlink:href="classqtreports_1_1detail_1_1_converter_to_p_d_f.html#af39953d8db1bdcbbcf59cc00b05747eb" target="_top" xlink:title="Запускает процесс конвертации. ">
<polygon fill="none" stroke="black" points="1400,-162.5 1400,-192.5 1534,-192.5 1534,-162.5 1400,-162.5"/>
<text text-anchor="start" x="1408" y="-180.5" font-family="Helvetica,sans-Serif" font-size="10.00">qtreports::detail::</text>
<text text-anchor="middle" x="1467" y="-169.5" font-family="Helvetica,sans-Serif" font-size="10.00">ConverterToPDF::convert</text>
</a>
</g>
</g>
<!-- Node12&#45;&gt;Node13 -->
<g id="edge13" class="edge"><title>Node12&#45;&gt;Node13</title>
<path fill="none" stroke="midnightblue" d="M1352.7,-177.5C1368.21,-177.5 1384.5,-177.5 1399.74,-177.5"/>
<polygon fill="midnightblue" stroke="midnightblue" points="1352.64,-174 1342.64,-177.5 1352.64,-181 1352.64,-174"/>
</g>
<!-- Node14 -->
<g id="node14" class="node"><title>Node14</title>
<g id="a_node14"><a xlink:href="classqtreports_1_1_engine.html#a34b6ccdf31af3bd275d9fb95100c6bda" target="_top" xlink:title="Создает PDF документ отчета по указанному пути ">
<polygon fill="none" stroke="black" points="1592.5,-162.5 1592.5,-192.5 1697.5,-192.5 1697.5,-162.5 1592.5,-162.5"/>
<text text-anchor="start" x="1600.5" y="-180.5" font-family="Helvetica,sans-Serif" font-size="10.00">qtreports::Engine::</text>
<text text-anchor="middle" x="1645" y="-169.5" font-family="Helvetica,sans-Serif" font-size="10.00">createPDF</text>
</a>
</g>
</g>
<!-- Node13&#45;&gt;Node14 -->
<g id="edge14" class="edge"><title>Node13&#45;&gt;Node14</title>
<path fill="none" stroke="midnightblue" d="M1544.11,-177.5C1560.43,-177.5 1577.31,-177.5 1592.44,-177.5"/>
<polygon fill="midnightblue" stroke="midnightblue" points="1544.04,-174 1534.04,-177.5 1544.04,-181 1544.04,-174"/>
</g>
<!-- Node15&#45;&gt;Node12 -->
<g id="edge16" class="edge"><title>Node15&#45;&gt;Node12</title>
<path fill="none" stroke="midnightblue" d="M1171.21,-156.188C1185.78,-159.11 1200.54,-162.069 1214.23,-164.815"/>
<polygon fill="midnightblue" stroke="midnightblue" points="1171.65,-152.708 1161.16,-154.174 1170.28,-159.572 1171.65,-152.708"/>
</g>
<!-- Node17 -->
<g id="node17" class="node"><title>Node17</title>
<g id="a_node17"><a xlink:href="classqtreports_1_1detail_1_1_converter_to_q_widget.html#a3c95daf9bd10efc4feb71e0d976bbd6e" target="_top" xlink:title="Создает секцию. ">
<polygon fill="none" stroke="black" points="815.5,-68 815.5,-109 934.5,-109 934.5,-68 815.5,-68"/>
<text text-anchor="start" x="823.5" y="-97" font-family="Helvetica,sans-Serif" font-size="10.00">qtreports::detail::</text>
<text text-anchor="start" x="823.5" y="-86" font-family="Helvetica,sans-Serif" font-size="10.00">ConverterToQWidget::</text>
<text text-anchor="middle" x="875" y="-75" font-family="Helvetica,sans-Serif" font-size="10.00">createSection</text>
</a>
</g>
</g>
<!-- Node16&#45;&gt;Node17 -->
<g id="edge18" class="edge"><title>Node16&#45;&gt;Node17</title>
<path fill="none" stroke="midnightblue" d="M740.862,-95.091C765.013,-93.8954 791.901,-92.5643 815.155,-91.4131"/>
<polygon fill="midnightblue" stroke="midnightblue" points="740.513,-91.6039 730.698,-95.5942 740.859,-98.5953 740.513,-91.6039"/>
</g>
<!-- Node18 -->
<g id="node18" class="node"><title>Node18</title>
<g id="a_node18"><a xlink:href="classqtreports_1_1detail_1_1_converter_to_q_widget.html#a96a53267cf2b8092e174906ea7f0f56f" target="_top" xlink:title="Конвертирует отчет в QWidget. ">
<polygon fill="none" stroke="black" points="1219,-44 1219,-85 1338,-85 1338,-44 1219,-44"/>
<text text-anchor="start" x="1227" y="-73" font-family="Helvetica,sans-Serif" font-size="10.00">qtreports::detail::</text>
<text text-anchor="start" x="1227" y="-62" font-family="Helvetica,sans-Serif" font-size="10.00">ConverterToQWidget::</text>
<text text-anchor="middle" x="1278.5" y="-51" font-family="Helvetica,sans-Serif" font-size="10.00">createQWidget</text>
</a>
</g>
</g>
<!-- Node17&#45;&gt;Node18 -->
<g id="edge19" class="edge"><title>Node17&#45;&gt;Node18</title>
<path fill="none" stroke="midnightblue" d="M944.925,-84.38C1022.17,-79.7627 1146.08,-72.3556 1218.86,-68.0054"/>
<polygon fill="midnightblue" stroke="midnightblue" points="944.585,-80.8939 934.812,-84.9845 945.003,-87.8815 944.585,-80.8939"/>
</g>
<!-- Node24 -->
<g id="node24" class="node"><title>Node24</title>
<g id="a_node24"><a xlink:href="classqtreports_1_1detail_1_1_converter_to_q_widget.html#ac98aceb5ee703053d7691029da84e296" target="_top" xlink:title="Функция добавления группировок в отчет. ">
<polygon fill="none" stroke="black" points="1017.5,-19 1017.5,-60 1136.5,-60 1136.5,-19 1017.5,-19"/>
<text text-anchor="start" x="1025.5" y="-48" font-family="Helvetica,sans-Serif" font-size="10.00">qtreports::detail::</text>
<text text-anchor="start" x="1025.5" y="-37" font-family="Helvetica,sans-Serif" font-size="10.00">ConverterToQWidget::</text>
<text text-anchor="middle" x="1077" y="-26" font-family="Helvetica,sans-Serif" font-size="10.00">addGroupsIntoReport</text>
</a>
</g>
</g>
<!-- Node17&#45;&gt;Node24 -->
<g id="edge25" class="edge"><title>Node17&#45;&gt;Node24</title>
<path fill="none" stroke="midnightblue" d="M944.619,-71.6884C968.282,-65.891 994.553,-59.4546 1017.35,-53.8703"/>
<polygon fill="midnightblue" stroke="midnightblue" points="943.535,-68.3503 934.655,-74.1295 945.201,-75.1492 943.535,-68.3503"/>
</g>
<!-- Node19 -->
<g id="node19" class="node"><title>Node19</title>
<g id="a_node19"><a xlink:href="classqtreports_1_1detail_1_1_converter_to_q_widget.html#a4b42725ccbbc910522dca786da95fbb6" target="_top" xlink:title="Конвертирует отчет в виджет. ">
<polygon fill="none" stroke="black" points="1407.5,-44 1407.5,-85 1526.5,-85 1526.5,-44 1407.5,-44"/>
<text text-anchor="start" x="1415.5" y="-73" font-family="Helvetica,sans-Serif" font-size="10.00">qtreports::detail::</text>
<text text-anchor="start" x="1415.5" y="-62" font-family="Helvetica,sans-Serif" font-size="10.00">ConverterToQWidget::</text>
<text text-anchor="middle" x="1467" y="-51" font-family="Helvetica,sans-Serif" font-size="10.00">convert</text>
</a>
</g>
</g>
<!-- Node18&#45;&gt;Node19 -->
<g id="edge20" class="edge"><title>Node18&#45;&gt;Node19</title>
<path fill="none" stroke="midnightblue" d="M1348.49,-64.5C1367.79,-64.5 1388.58,-64.5 1407.22,-64.5"/>
<polygon fill="midnightblue" stroke="midnightblue" points="1348.25,-61.0001 1338.25,-64.5 1348.25,-68.0001 1348.25,-61.0001"/>
</g>
<!-- Node20 -->
<g id="node20" class="node"><title>Node20</title>
<g id="a_node20"><a xlink:href="classqtreports_1_1_engine.html#a2a0fef0c95335eec5df4f61e4ffa7434" target="_top" xlink:title="Создает виджет отчета для вывода на экран. ">
<polygon fill="none" stroke="black" points="1592.5,-98.5 1592.5,-128.5 1697.5,-128.5 1697.5,-98.5 1592.5,-98.5"/>
<text text-anchor="start" x="1600.5" y="-116.5" font-family="Helvetica,sans-Serif" font-size="10.00">qtreports::Engine::</text>
<text text-anchor="middle" x="1645" y="-105.5" font-family="Helvetica,sans-Serif" font-size="10.00">createWidget</text>
</a>
</g>
</g>
<!-- Node19&#45;&gt;Node20 -->
<g id="edge21" class="edge"><title>Node19&#45;&gt;Node20</title>
<path fill="none" stroke="midnightblue" d="M1536.24,-83.4994C1554.93,-88.7013 1574.86,-94.252 1592.44,-99.1465"/>
<polygon fill="midnightblue" stroke="midnightblue" points="1537.18,-80.1267 1526.61,-80.8163 1535.3,-86.8702 1537.18,-80.1267"/>
</g>
<!-- Node21 -->
<g id="node21" class="node"><title>Node21</title>
<g id="a_node21"><a xlink:href="classqtreports_1_1_engine.html#a3966d8f0ebb6c1f94812ec21e21680c0" target="_top" xlink:title="qtreports::Engine::\lcreateLayout">
<polygon fill="none" stroke="black" points="1592.5,-49.5 1592.5,-79.5 1697.5,-79.5 1697.5,-49.5 1592.5,-49.5"/>
<text text-anchor="start" x="1600.5" y="-67.5" font-family="Helvetica,sans-Serif" font-size="10.00">qtreports::Engine::</text>
<text text-anchor="middle" x="1645" y="-56.5" font-family="Helvetica,sans-Serif" font-size="10.00">createLayout</text>
</a>
</g>
</g>
<!-- Node19&#45;&gt;Node21 -->
<g id="edge22" class="edge"><title>Node19&#45;&gt;Node21</title>
<path fill="none" stroke="midnightblue" d="M1536.76,-64.5C1555.29,-64.5 1575.03,-64.5 1592.44,-64.5"/>
<polygon fill="midnightblue" stroke="midnightblue" points="1536.61,-61.0001 1526.61,-64.5 1536.61,-68.0001 1536.61,-61.0001"/>
</g>
<!-- Node22 -->
<g id="node22" class="node"><title>Node22</title>
<g id="a_node22"><a xlink:href="classqtreports_1_1_engine.html#a93dc7711446a155f87d9146efb493f9e" target="_top" xlink:title="qtreports::Engine::\ldrawPreview">
<polygon fill="none" stroke="black" points="1592.5,-0.5 1592.5,-30.5 1697.5,-30.5 1697.5,-0.5 1592.5,-0.5"/>
<text text-anchor="start" x="1600.5" y="-18.5" font-family="Helvetica,sans-Serif" font-size="10.00">qtreports::Engine::</text>
<text text-anchor="middle" x="1645" y="-7.5" font-family="Helvetica,sans-Serif" font-size="10.00">drawPreview</text>
</a>
</g>
</g>
<!-- Node19&#45;&gt;Node22 -->
<g id="edge23" class="edge"><title>Node19&#45;&gt;Node22</title>
<path fill="none" stroke="midnightblue" d="M1536.24,-45.5006C1554.93,-40.2987 1574.86,-34.748 1592.44,-29.8535"/>
<polygon fill="midnightblue" stroke="midnightblue" points="1535.3,-42.1298 1526.61,-48.1837 1537.18,-48.8733 1535.3,-42.1298"/>
</g>
<!-- Node23 -->
<g id="node23" class="node"><title>Node23</title>
<g id="a_node23"><a xlink:href="classqtreports_1_1_engine.html#aad905c82a23399294dc3a83ba1988c2e" target="_top" xlink:title="qtreports::Engine::\lgetPrintPreviewDialog">
<polygon fill="none" stroke="black" points="1752,-0.5 1752,-30.5 1872,-30.5 1872,-0.5 1752,-0.5"/>
<text text-anchor="start" x="1760" y="-18.5" font-family="Helvetica,sans-Serif" font-size="10.00">qtreports::Engine::</text>
<text text-anchor="middle" x="1812" y="-7.5" font-family="Helvetica,sans-Serif" font-size="10.00">getPrintPreviewDialog</text>
</a>
</g>
</g>
<!-- Node22&#45;&gt;Node23 -->
<g id="edge24" class="edge"><title>Node22&#45;&gt;Node23</title>
<path fill="none" stroke="midnightblue" d="M1708.04,-15.5C1722.43,-15.5 1737.7,-15.5 1751.95,-15.5"/>
<polygon fill="midnightblue" stroke="midnightblue" points="1707.75,-12.0001 1697.75,-15.5 1707.75,-19.0001 1707.75,-12.0001"/>
</g>
<!-- Node24&#45;&gt;Node18 -->
<g id="edge26" class="edge"><title>Node24&#45;&gt;Node18</title>
<path fill="none" stroke="midnightblue" d="M1146.45,-48.0774C1170.05,-51.0352 1196.26,-54.3191 1218.99,-57.1682"/>
<polygon fill="midnightblue" stroke="midnightblue" points="1146.87,-44.6026 1136.51,-46.8319 1146,-51.5482 1146.87,-44.6026"/>
</g>
<!-- Node25&#45;&gt;Node3 -->
<g id="edge28" class="edge"><title>Node25&#45;&gt;Node3</title>
<path fill="none" stroke="midnightblue" d="M544.323,-197.656C557.563,-200.484 571.328,-203.424 584.684,-206.277"/>
<polygon fill="midnightblue" stroke="midnightblue" points="544.828,-194.185 534.317,-195.519 543.366,-201.031 544.828,-194.185"/>
</g>
<!-- Node25&#45;&gt;Node10 -->
<g id="edge29" class="edge"><title>Node25&#45;&gt;Node10</title>
<path fill="none" stroke="midnightblue" d="M559.22,-167.557C570.1,-166.079 581.096,-164.584 591.719,-163.14"/>
<polygon fill="midnightblue" stroke="midnightblue" points="558.713,-164.094 549.275,-168.909 559.655,-171.03 558.713,-164.094"/>
</g>
<!-- Node25&#45;&gt;Node16 -->
<g id="edge30" class="edge"><title>Node25&#45;&gt;Node16</title>
<path fill="none" stroke="midnightblue" d="M505.502,-161.291C528.691,-150.818 558.229,-137.909 585,-127.5 593.429,-124.223 602.401,-120.942 611.239,-117.828"/>
<polygon fill="midnightblue" stroke="midnightblue" points="503.96,-158.146 496.302,-165.467 506.854,-164.52 503.96,-158.146"/>
</g>
</g>
</svg>
