<?xml version="1.0" encoding="UTF-8" standalone="no"?>
<!DOCTYPE svg PUBLIC "-//W3C//DTD SVG 1.1//EN"
 "http://www.w3.org/Graphics/SVG/1.1/DTD/svg11.dtd">
<!-- Generated by graphviz version 2.38.0 (20140413.2041)
 -->
<!-- Title: qtreports::detail::ParserFromXML::getRequiredAttribute Pages: 1 -->
<svg width="585pt" height="403pt"
 viewBox="0.00 0.00 585.00 402.50" xmlns="http://www.w3.org/2000/svg" xmlns:xlink="http://www.w3.org/1999/xlink">
<g id="graph0" class="graph" transform="scale(1 1) rotate(0) translate(4 398.5)">
<title>qtreports::detail::ParserFromXML::getRequiredAttribute</title>
<!-- Node1 -->
<g id="node1" class="node"><title>Node1</title>
<polygon fill="#bfbfbf" stroke="black" points="0,-186.5 0,-227.5 153,-227.5 153,-186.5 0,-186.5"/>
<text text-anchor="start" x="8" y="-215.5" font-family="Helvetica,sans-Serif" font-size="10.00">qtreports::detail::</text>
<text text-anchor="start" x="8" y="-204.5" font-family="Helvetica,sans-Serif" font-size="10.00">ParserFromXML::getRequired</text>
<text text-anchor="middle" x="76.5" y="-193.5" font-family="Helvetica,sans-Serif" font-size="10.00">Attribute</text>
</g>
<!-- Node2 -->
<g id="node2" class="node"><title>Node2</title>
<g id="a_node2"><a xlink:href="classqtreports_1_1detail_1_1_parser_from_x_m_l.html#a8247dc85ae5cae03ab3f175982a0857e" target="_top" xlink:title="Парсит тэг report. ">
<polygon fill="none" stroke="black" points="203,-364 203,-394 357,-394 357,-364 203,-364"/>
<text text-anchor="start" x="211" y="-382" font-family="Helvetica,sans-Serif" font-size="10.00">qtreports::detail::</text>
<text text-anchor="middle" x="280" y="-371" font-family="Helvetica,sans-Serif" font-size="10.00">ParserFromXML::parseReport</text>
</a>
</g>
</g>
<!-- Node1&#45;&gt;Node2 -->
<g id="edge1" class="edge"><title>Node1&#45;&gt;Node2</title>
<path fill="none" stroke="midnightblue" d="M92.0181,-236.624C110.09,-270.379 144.127,-324.768 189,-355 194.096,-358.433 199.663,-361.376 205.447,-363.899"/>
<polygon fill="midnightblue" stroke="midnightblue" points="95.0819,-234.929 87.3487,-227.687 88.8778,-238.171 95.0819,-234.929"/>
</g>
<!-- Node4 -->
<g id="node4" class="node"><title>Node4</title>
<g id="a_node4"><a xlink:href="classqtreports_1_1detail_1_1_parser_from_x_m_l.html#a5a366e39f908935a618b137e7e27496c" target="_top" xlink:title="Парсит тэг style. ">
<polygon fill="none" stroke="black" points="206.5,-315 206.5,-345 353.5,-345 353.5,-315 206.5,-315"/>
<text text-anchor="start" x="214.5" y="-333" font-family="Helvetica,sans-Serif" font-size="10.00">qtreports::detail::</text>
<text text-anchor="middle" x="280" y="-322" font-family="Helvetica,sans-Serif" font-size="10.00">ParserFromXML::parseStyle</text>
</a>
</g>
</g>
<!-- Node1&#45;&gt;Node4 -->
<g id="edge3" class="edge"><title>Node1&#45;&gt;Node4</title>
<path fill="none" stroke="midnightblue" d="M102.064,-235.083C123.049,-257.401 155.144,-287.796 189,-306 195.409,-309.446 202.346,-312.422 209.427,-314.987"/>
<polygon fill="midnightblue" stroke="midnightblue" points="104.474,-232.534 95.1196,-227.559 99.3298,-237.281 104.474,-232.534"/>
</g>
<!-- Node5 -->
<g id="node5" class="node"><title>Node5</title>
<g id="a_node5"><a xlink:href="classqtreports_1_1detail_1_1_parser_from_x_m_l.html#a20a5b5081956769e0d219779407ba76c" target="_top" xlink:title="Парсит тэг Field. ">
<polygon fill="none" stroke="black" points="208,-266 208,-296 352,-296 352,-266 208,-266"/>
<text text-anchor="start" x="216" y="-284" font-family="Helvetica,sans-Serif" font-size="10.00">qtreports::detail::</text>
<text text-anchor="middle" x="280" y="-273" font-family="Helvetica,sans-Serif" font-size="10.00">ParserFromXML::parseField</text>
</a>
</g>
</g>
<!-- Node1&#45;&gt;Node5 -->
<g id="edge5" class="edge"><title>Node1&#45;&gt;Node5</title>
<path fill="none" stroke="midnightblue" d="M128.213,-231.815C147.033,-240.469 168.733,-249.806 189,-257 197.991,-260.191 207.619,-263.187 217.111,-265.906"/>
<polygon fill="midnightblue" stroke="midnightblue" points="129.484,-228.546 118.941,-227.5 126.531,-234.893 129.484,-228.546"/>
</g>
<!-- Node6 -->
<g id="node6" class="node"><title>Node6</title>
<g id="a_node6"><a xlink:href="classqtreports_1_1detail_1_1_parser_from_x_m_l.html#a477a961860b1de77b5a0da28e361987a" target="_top" xlink:title="Парсит тэг group. ">
<polygon fill="none" stroke="black" points="204,-217 204,-247 356,-247 356,-217 204,-217"/>
<text text-anchor="start" x="212" y="-235" font-family="Helvetica,sans-Serif" font-size="10.00">qtreports::detail::</text>
<text text-anchor="middle" x="280" y="-224" font-family="Helvetica,sans-Serif" font-size="10.00">ParserFromXML::parseGroup</text>
</a>
</g>
</g>
<!-- Node1&#45;&gt;Node6 -->
<g id="edge7" class="edge"><title>Node1&#45;&gt;Node6</title>
<path fill="none" stroke="midnightblue" d="M163.348,-217.651C176.859,-219.327 190.736,-221.049 203.977,-222.692"/>
<polygon fill="midnightblue" stroke="midnightblue" points="163.459,-214.138 153.104,-216.38 162.597,-221.085 163.459,-214.138"/>
</g>
<!-- Node7 -->
<g id="node7" class="node"><title>Node7</title>
<g id="a_node7"><a xlink:href="classqtreports_1_1detail_1_1_parser_from_x_m_l.html#af04b8018f1bb3d60ecb6525f31d29885" target="_top" xlink:title="Парсит тэг Band. ">
<polygon fill="none" stroke="black" points="206,-168 206,-198 354,-198 354,-168 206,-168"/>
<text text-anchor="start" x="214" y="-186" font-family="Helvetica,sans-Serif" font-size="10.00">qtreports::detail::</text>
<text text-anchor="middle" x="280" y="-175" font-family="Helvetica,sans-Serif" font-size="10.00">ParserFromXML::parseBand</text>
</a>
</g>
</g>
<!-- Node1&#45;&gt;Node7 -->
<g id="edge9" class="edge"><title>Node1&#45;&gt;Node7</title>
<path fill="none" stroke="midnightblue" d="M163.351,-196.775C177.544,-195.084 192.14,-193.346 205.979,-191.697"/>
<polygon fill="midnightblue" stroke="midnightblue" points="162.62,-193.337 153.104,-197.995 163.448,-200.288 162.62,-193.337"/>
</g>
<!-- Node8 -->
<g id="node8" class="node"><title>Node8</title>
<g id="a_node8"><a xlink:href="classqtreports_1_1detail_1_1_parser_from_x_m_l.html#aee6cb5359125988f68abfcd2f6fe4514" target="_top" xlink:title="Парсит тэг ReportElement &#45; общие данные о элементе отчета (положение, размеры и пр.) ">
<polygon fill="none" stroke="black" points="203,-108.5 203,-149.5 357,-149.5 357,-108.5 203,-108.5"/>
<text text-anchor="start" x="211" y="-137.5" font-family="Helvetica,sans-Serif" font-size="10.00">qtreports::detail::</text>
<text text-anchor="start" x="211" y="-126.5" font-family="Helvetica,sans-Serif" font-size="10.00">ParserFromXML::parseReport</text>
<text text-anchor="middle" x="280" y="-115.5" font-family="Helvetica,sans-Serif" font-size="10.00">Element</text>
</a>
</g>
</g>
<!-- Node1&#45;&gt;Node8 -->
<g id="edge11" class="edge"><title>Node1&#45;&gt;Node8</title>
<path fill="none" stroke="midnightblue" d="M132.162,-182.373C150.135,-174.57 170.301,-166.127 189,-159 197.311,-155.833 206.12,-152.667 214.847,-149.642"/>
<polygon fill="midnightblue" stroke="midnightblue" points="130.744,-179.173 122.982,-186.384 133.547,-185.587 130.744,-179.173"/>
</g>
<!-- Node9 -->
<g id="node9" class="node"><title>Node9</title>
<g id="a_node9"><a xlink:href="classqtreports_1_1detail_1_1_parser_from_x_m_l.html#a3693d70428f413c6adb999bf0ad69abe" target="_top" xlink:title="Парсит тэг TextElement &#45; общие данные о текстовом элементе (выравнивание текста и пр...">
<polygon fill="none" stroke="black" points="189,-60 189,-90 371,-90 371,-60 189,-60"/>
<text text-anchor="start" x="197" y="-78" font-family="Helvetica,sans-Serif" font-size="10.00">qtreports::detail::</text>
<text text-anchor="middle" x="280" y="-67" font-family="Helvetica,sans-Serif" font-size="10.00">ParserFromXML::parseTextElement</text>
</a>
</g>
</g>
<!-- Node1&#45;&gt;Node9 -->
<g id="edge13" class="edge"><title>Node1&#45;&gt;Node9</title>
<path fill="none" stroke="midnightblue" d="M99.8053,-178.354C120.411,-153.8 153.178,-119.274 189,-99 195.052,-95.575 201.609,-92.6234 208.333,-90.0829"/>
<polygon fill="midnightblue" stroke="midnightblue" points="96.9478,-176.319 93.2964,-186.264 102.353,-180.766 96.9478,-176.319"/>
</g>
<!-- Node10 -->
<g id="node10" class="node"><title>Node10</title>
<g id="a_node10"><a xlink:href="classqtreports_1_1detail_1_1_parser_from_x_m_l.html#a459f21efce7b714320d84d304d304d60" target="_top" xlink:title="Парсит текст для textField. ">
<polygon fill="none" stroke="black" points="198.5,-0.5 198.5,-41.5 361.5,-41.5 361.5,-0.5 198.5,-0.5"/>
<text text-anchor="start" x="206.5" y="-29.5" font-family="Helvetica,sans-Serif" font-size="10.00">qtreports::detail::</text>
<text text-anchor="start" x="206.5" y="-18.5" font-family="Helvetica,sans-Serif" font-size="10.00">ParserFromXML::parseTextField</text>
<text text-anchor="middle" x="280" y="-7.5" font-family="Helvetica,sans-Serif" font-size="10.00">Expression</text>
</a>
</g>
</g>
<!-- Node1&#45;&gt;Node10 -->
<g id="edge15" class="edge"><title>Node1&#45;&gt;Node10</title>
<path fill="none" stroke="midnightblue" d="M91.5207,-177.12C109.42,-142.078 143.59,-84.5278 189,-51 193.77,-47.4781 198.978,-44.3535 204.407,-41.5841"/>
<polygon fill="midnightblue" stroke="midnightblue" points="88.2393,-175.858 86.908,-186.369 94.5034,-178.982 88.2393,-175.858"/>
</g>
<!-- Node3 -->
<g id="node3" class="node"><title>Node3</title>
<g id="a_node3"><a xlink:href="classqtreports_1_1detail_1_1_parser_from_x_m_l.html#ab548bd252b2e13a315daefae6b43f1d6" target="_top" xlink:title="qtreports::detail::\lParserFromXML::ParserFromXML">
<polygon fill="none" stroke="black" points="407,-192 407,-222 577,-222 577,-192 407,-192"/>
<text text-anchor="start" x="415" y="-210" font-family="Helvetica,sans-Serif" font-size="10.00">qtreports::detail::</text>
<text text-anchor="middle" x="492" y="-199" font-family="Helvetica,sans-Serif" font-size="10.00">ParserFromXML::ParserFromXML</text>
</a>
</g>
</g>
<!-- Node2&#45;&gt;Node3 -->
<g id="edge2" class="edge"><title>Node2&#45;&gt;Node3</title>
<path fill="none" stroke="midnightblue" d="M363.271,-359.509C365.934,-358.108 368.519,-356.608 371,-355 425.13,-319.918 466.422,-252.409 483.027,-222.229"/>
<polygon fill="midnightblue" stroke="midnightblue" points="361.516,-356.467 353.962,-363.895 364.5,-362.799 361.516,-356.467"/>
</g>
<!-- Node4&#45;&gt;Node3 -->
<g id="edge4" class="edge"><title>Node4&#45;&gt;Node3</title>
<path fill="none" stroke="midnightblue" d="M359.408,-311.327C363.391,-309.687 367.279,-307.914 371,-306 414.228,-283.758 455.993,-243.85 476.981,-222.114"/>
<polygon fill="midnightblue" stroke="midnightblue" points="358.075,-308.089 349.974,-314.917 360.565,-314.631 358.075,-308.089"/>
</g>
<!-- Node5&#45;&gt;Node3 -->
<g id="edge6" class="edge"><title>Node5&#45;&gt;Node3</title>
<path fill="none" stroke="midnightblue" d="M351.539,-263.163C358.153,-261.198 364.725,-259.133 371,-257 401.129,-246.757 434.473,-232.63 458.349,-222.004"/>
<polygon fill="midnightblue" stroke="midnightblue" points="350.483,-259.825 341.849,-265.965 352.427,-266.549 350.483,-259.825"/>
</g>
<!-- Node6&#45;&gt;Node3 -->
<g id="edge8" class="edge"><title>Node6&#45;&gt;Node3</title>
<path fill="none" stroke="midnightblue" d="M366.306,-221.845C379.624,-220.259 393.38,-218.621 406.676,-217.039"/>
<polygon fill="midnightblue" stroke="midnightblue" points="365.738,-218.387 356.222,-223.045 366.565,-225.338 365.738,-218.387"/>
</g>
<!-- Node7&#45;&gt;Node3 -->
<g id="edge10" class="edge"><title>Node7&#45;&gt;Node3</title>
<path fill="none" stroke="midnightblue" d="M364.267,-192.516C378.309,-194.121 392.894,-195.788 406.955,-197.395"/>
<polygon fill="midnightblue" stroke="midnightblue" points="364.486,-189.019 354.153,-191.36 363.691,-195.973 364.486,-189.019"/>
</g>
<!-- Node8&#45;&gt;Node3 -->
<g id="edge12" class="edge"><title>Node8&#45;&gt;Node3</title>
<path fill="none" stroke="midnightblue" d="M353.887,-152.89C359.691,-154.916 365.452,-156.968 371,-159 399.443,-169.419 431.259,-182.198 454.98,-191.95"/>
<polygon fill="midnightblue" stroke="midnightblue" points="354.701,-149.468 344.106,-149.513 352.416,-156.085 354.701,-149.468"/>
</g>
<!-- Node9&#45;&gt;Node3 -->
<g id="edge14" class="edge"><title>Node9&#45;&gt;Node3</title>
<path fill="none" stroke="midnightblue" d="M360.654,-93.9742C364.21,-95.5263 367.677,-97.1987 371,-99 416.094,-123.442 458.038,-168.128 478.292,-191.625"/>
<polygon fill="midnightblue" stroke="midnightblue" points="361.653,-90.6042 351.068,-90.1409 359.054,-97.1038 361.653,-90.6042"/>
</g>
<!-- Node10&#45;&gt;Node3 -->
<g id="edge16" class="edge"><title>Node10&#45;&gt;Node3</title>
<path fill="none" stroke="midnightblue" d="M364.247,-46.5861C366.57,-47.9842 368.828,-49.4543 371,-51 425.568,-89.827 466.921,-160.645 483.307,-191.707"/>
<polygon fill="midnightblue" stroke="midnightblue" points="365.457,-43.2595 355.002,-41.5445 362.106,-49.4051 365.457,-43.2595"/>
</g>
</g>
</svg>
