<?xml version="1.0" encoding="UTF-8" standalone="no"?>
<!DOCTYPE svg PUBLIC "-//W3C//DTD SVG 1.1//EN"
 "http://www.w3.org/Graphics/SVG/1.1/DTD/svg11.dtd">
<!-- Generated by graphviz version 2.38.0 (20140413.2041)
 -->
<!-- Title: qtreports::detail::ConverterToHTML::addBands Pages: 1 -->
<svg width="937pt" height="197pt"
 viewBox="0.00 0.00 937.00 196.50" xmlns="http://www.w3.org/2000/svg" xmlns:xlink="http://www.w3.org/1999/xlink">
<g id="graph0" class="graph" transform="scale(1 1) rotate(0) translate(4 192.5)">
<title>qtreports::detail::ConverterToHTML::addBands</title>
<!-- Node1 -->
<g id="node1" class="node"><title>Node1</title>
<polygon fill="#bfbfbf" stroke="black" points="0,-49.5 0,-79.5 154,-79.5 154,-49.5 0,-49.5"/>
<text text-anchor="start" x="8" y="-67.5" font-family="Helvetica,sans-Serif" font-size="10.00">qtreports::detail::</text>
<text text-anchor="middle" x="77" y="-56.5" font-family="Helvetica,sans-Serif" font-size="10.00">ConverterToHTML::addBands</text>
</g>
<!-- Node2 -->
<g id="node2" class="node"><title>Node2</title>
<g id="a_node2"><a xlink:href="classqtreports_1_1detail_1_1_replacer.html#af7ccb83be264f7c72b7485cf38455450" target="_top" xlink:title="Заменяет текст всех виджетов секции текстом с подставленными значениями. ">
<polygon fill="none" stroke="black" points="220.5,-98.5 220.5,-128.5 319.5,-128.5 319.5,-98.5 220.5,-98.5"/>
<text text-anchor="start" x="228.5" y="-116.5" font-family="Helvetica,sans-Serif" font-size="10.00">qtreports::detail::</text>
<text text-anchor="middle" x="270" y="-105.5" font-family="Helvetica,sans-Serif" font-size="10.00">Replacer::replace</text>
</a>
</g>
</g>
<!-- Node1&#45;&gt;Node2 -->
<g id="edge1" class="edge"><title>Node1&#45;&gt;Node2</title>
<path fill="none" stroke="midnightblue" d="M136.604,-79.5346C160.112,-85.5655 187.145,-92.5006 210.63,-98.5254"/>
<polygon fill="midnightblue" stroke="midnightblue" points="209.901,-101.952 220.457,-101.046 211.64,-95.1712 209.901,-101.952"/>
</g>
<!-- Node9 -->
<g id="node9" class="node"><title>Node9</title>
<g id="a_node9"><a xlink:href="classqtreports_1_1detail_1_1_replacer.html#a677f7802e444f2de3af4cb43b6cedf30" target="_top" xlink:title="Возвращает описание последней произошедшей ошибки. ">
<polygon fill="none" stroke="black" points="209,-49.5 209,-79.5 331,-79.5 331,-49.5 209,-49.5"/>
<text text-anchor="start" x="217" y="-67.5" font-family="Helvetica,sans-Serif" font-size="10.00">qtreports::detail::</text>
<text text-anchor="middle" x="270" y="-56.5" font-family="Helvetica,sans-Serif" font-size="10.00">Replacer::getLastError</text>
</a>
</g>
</g>
<!-- Node1&#45;&gt;Node9 -->
<g id="edge8" class="edge"><title>Node1&#45;&gt;Node9</title>
<path fill="none" stroke="midnightblue" d="M154.037,-64.5C168.687,-64.5 183.974,-64.5 198.441,-64.5"/>
<polygon fill="midnightblue" stroke="midnightblue" points="198.809,-68.0001 208.809,-64.5 198.809,-61.0001 198.809,-68.0001"/>
</g>
<!-- Node10 -->
<g id="node10" class="node"><title>Node10</title>
<g id="a_node10"><a xlink:href="classqtreports_1_1detail_1_1_converter_to_h_t_m_l.html#a759cb19710076fd669793a84e62d14eb" target="_top" xlink:title="Добавление &lt;shape&gt;, принадлежащего конретному &lt;band&gt;, в документ HTML. ">
<polygon fill="none" stroke="black" points="190,-0.5 190,-30.5 350,-30.5 350,-0.5 190,-0.5"/>
<text text-anchor="start" x="198" y="-18.5" font-family="Helvetica,sans-Serif" font-size="10.00">qtreports::detail::</text>
<text text-anchor="middle" x="270" y="-7.5" font-family="Helvetica,sans-Serif" font-size="10.00">ConverterToHTML::addShapes</text>
</a>
</g>
</g>
<!-- Node1&#45;&gt;Node10 -->
<g id="edge9" class="edge"><title>Node1&#45;&gt;Node10</title>
<path fill="none" stroke="midnightblue" d="M136.604,-49.4654C156.863,-44.2682 179.739,-38.3994 200.706,-33.0204"/>
<polygon fill="midnightblue" stroke="midnightblue" points="201.69,-36.3814 210.506,-30.5062 199.95,-29.601 201.69,-36.3814"/>
</g>
<!-- Node3 -->
<g id="node3" class="node"><title>Node3</title>
<g id="a_node3"><a xlink:href="classqtreports_1_1detail_1_1_replacer.html#a58cf857aa78eb3e273f6543769af425b" target="_top" xlink:title="Заменяет текст всех виджетов секции текстом с подставленными значениями полей из источника данных...">
<polygon fill="none" stroke="black" points="386,-122.5 386,-152.5 550,-152.5 550,-122.5 386,-122.5"/>
<text text-anchor="start" x="394" y="-140.5" font-family="Helvetica,sans-Serif" font-size="10.00">qtreports::detail::</text>
<text text-anchor="middle" x="468" y="-129.5" font-family="Helvetica,sans-Serif" font-size="10.00">Replacer::replaceFieldInSection</text>
</a>
</g>
</g>
<!-- Node2&#45;&gt;Node3 -->
<g id="edge2" class="edge"><title>Node2&#45;&gt;Node3</title>
<path fill="none" stroke="midnightblue" d="M319.701,-119.463C336.693,-121.544 356.359,-123.952 375.677,-126.318"/>
<polygon fill="midnightblue" stroke="midnightblue" points="375.38,-129.807 385.732,-127.549 376.231,-122.859 375.38,-129.807"/>
</g>
<!-- Node8 -->
<g id="node8" class="node"><title>Node8</title>
<g id="a_node8"><a xlink:href="classqtreports_1_1detail_1_1_replacer.html#abb903f1c1172efa7e26b040a5695cc86" target="_top" xlink:title="Возвращает текст с подставленными значениями параметров. ">
<polygon fill="none" stroke="black" points="391,-73.5 391,-103.5 545,-103.5 545,-73.5 391,-73.5"/>
<text text-anchor="start" x="399" y="-91.5" font-family="Helvetica,sans-Serif" font-size="10.00">qtreports::detail::</text>
<text text-anchor="middle" x="468" y="-80.5" font-family="Helvetica,sans-Serif" font-size="10.00">Replacer::replaceParameters</text>
</a>
</g>
</g>
<!-- Node2&#45;&gt;Node8 -->
<g id="edge7" class="edge"><title>Node2&#45;&gt;Node8</title>
<path fill="none" stroke="midnightblue" d="M319.701,-107.288C338.116,-104.939 359.67,-102.19 380.52,-99.5306"/>
<polygon fill="midnightblue" stroke="midnightblue" points="381.205,-102.972 390.681,-98.2345 380.319,-96.028 381.205,-102.972"/>
</g>
<!-- Node4 -->
<g id="node4" class="node"><title>Node4</title>
<g id="a_node4"><a xlink:href="classqtreports_1_1detail_1_1_replacer.html#a2be57bd514335f9b9f2a520247562ce1" target="_top" xlink:title="Заменяет текст виджета текстом с подставленными значениями полей из источника данных. ">
<polygon fill="none" stroke="black" points="592,-147 592,-188 738,-188 738,-147 592,-147"/>
<text text-anchor="start" x="600" y="-176" font-family="Helvetica,sans-Serif" font-size="10.00">qtreports::detail::</text>
<text text-anchor="start" x="600" y="-165" font-family="Helvetica,sans-Serif" font-size="10.00">Replacer::replaceFieldInText</text>
<text text-anchor="middle" x="665" y="-154" font-family="Helvetica,sans-Serif" font-size="10.00">Widget</text>
</a>
</g>
</g>
<!-- Node3&#45;&gt;Node4 -->
<g id="edge3" class="edge"><title>Node3&#45;&gt;Node4</title>
<path fill="none" stroke="midnightblue" d="M550.003,-149.962C560.55,-151.585 571.362,-153.248 581.926,-154.873"/>
<polygon fill="midnightblue" stroke="midnightblue" points="581.546,-158.356 591.962,-156.417 582.61,-151.437 581.546,-158.356"/>
</g>
<!-- Node6 -->
<g id="node6" class="node"><title>Node6</title>
<g id="a_node6"><a xlink:href="classqtreports_1_1detail_1_1_replacer.html#a4aeb7794f90c0be34a30ab60a6df1920" target="_top" xlink:title="На основе текста виджета вставляет в него изображение из источника данных. ">
<polygon fill="none" stroke="black" points="586,-87 586,-128 744,-128 744,-87 586,-87"/>
<text text-anchor="start" x="594" y="-116" font-family="Helvetica,sans-Serif" font-size="10.00">qtreports::detail::</text>
<text text-anchor="start" x="594" y="-105" font-family="Helvetica,sans-Serif" font-size="10.00">Replacer::replaceFieldInImage</text>
<text text-anchor="middle" x="665" y="-94" font-family="Helvetica,sans-Serif" font-size="10.00">Widget</text>
</a>
</g>
</g>
<!-- Node3&#45;&gt;Node6 -->
<g id="edge5" class="edge"><title>Node3&#45;&gt;Node6</title>
<path fill="none" stroke="midnightblue" d="M550.003,-125.038C558.502,-123.73 567.173,-122.396 575.748,-121.077"/>
<polygon fill="midnightblue" stroke="midnightblue" points="576.402,-124.518 585.754,-119.538 575.338,-117.599 576.402,-124.518"/>
</g>
<!-- Node5 -->
<g id="node5" class="node"><title>Node5</title>
<g id="a_node5"><a xlink:href="classqtreports_1_1detail_1_1_replacer.html#a4642b07160798f2ee4de276e1d0c1ecd" target="_top" xlink:title="Возвращает текст с подставленными значениями полей из источника данных. ">
<polygon fill="none" stroke="black" points="795,-152.5 795,-182.5 914,-182.5 914,-152.5 795,-152.5"/>
<text text-anchor="start" x="803" y="-170.5" font-family="Helvetica,sans-Serif" font-size="10.00">qtreports::detail::</text>
<text text-anchor="middle" x="854.5" y="-159.5" font-family="Helvetica,sans-Serif" font-size="10.00">Replacer::replaceField</text>
</a>
</g>
</g>
<!-- Node4&#45;&gt;Node5 -->
<g id="edge4" class="edge"><title>Node4&#45;&gt;Node5</title>
<path fill="none" stroke="midnightblue" d="M738.224,-167.5C753.479,-167.5 769.539,-167.5 784.665,-167.5"/>
<polygon fill="midnightblue" stroke="midnightblue" points="784.966,-171 794.966,-167.5 784.966,-164 784.966,-171"/>
</g>
<!-- Node7 -->
<g id="node7" class="node"><title>Node7</title>
<g id="a_node7"><a xlink:href="classqtreports_1_1detail_1_1_replacer.html#ae1ac521aeaf5fdd694e79e2ae52d4704" target="_top" xlink:title="Возвращает изображение на основе первого найденного выражения. ">
<polygon fill="none" stroke="black" points="780,-92.5 780,-122.5 929,-122.5 929,-92.5 780,-92.5"/>
<text text-anchor="start" x="788" y="-110.5" font-family="Helvetica,sans-Serif" font-size="10.00">qtreports::detail::</text>
<text text-anchor="middle" x="854.5" y="-99.5" font-family="Helvetica,sans-Serif" font-size="10.00">Replacer::replaceFieldImage</text>
</a>
</g>
</g>
<!-- Node6&#45;&gt;Node7 -->
<g id="edge6" class="edge"><title>Node6&#45;&gt;Node7</title>
<path fill="none" stroke="midnightblue" d="M744.159,-107.5C752.681,-107.5 761.381,-107.5 769.964,-107.5"/>
<polygon fill="midnightblue" stroke="midnightblue" points="769.97,-111 779.97,-107.5 769.97,-104 769.97,-111"/>
</g>
</g>
</svg>
