<?xml version="1.0" encoding="UTF-8" standalone="no"?>
<!DOCTYPE svg PUBLIC "-//W3C//DTD SVG 1.1//EN"
 "http://www.w3.org/Graphics/SVG/1.1/DTD/svg11.dtd">
<!-- Generated by graphviz version 2.38.0 (20140413.2041)
 -->
<!-- Title: qtreports::detail::ParserFromXML::parseCrosstab Pages: 1 -->
<!--zoomable 148 -->
<svg id="main" version="1.1" xmlns="http://www.w3.org/2000/svg" xmlns:xlink="http://www.w3.org/1999/xlink" xml:space="preserve" onload="init(evt)">
<style type="text/css"><![CDATA[
.edge:hover path { stroke: red; }
.edge:hover polygon { stroke: red; fill: red; }
]]></style>
<script type="text/javascript"><![CDATA[
var edges = document.getElementsByTagName('g');
if (edges && edges.length) {
  for (var i=0;i<edges.length;i++) {
    if (edges[i].id.substr(0,4)=='edge') {
      edges[i].setAttribute('class','edge');
    }
  }
}
]]></script>
        <defs>
                <circle id="rim" cx="0" cy="0" r="7"/>
                <circle id="rim2" cx="0" cy="0" r="3.5"/>
                <g id="zoomPlus">
                        <use xlink:href="#rim" fill="#404040">
                                <set attributeName="fill" to="#808080" begin="zoomplus.mouseover" end="zoomplus.mouseout"/>
                        </use>
                        <path d="M-4,0h8M0,-4v8" fill="none" stroke="white" stroke-width="1.5" pointer-events="none"/>
                </g>
                <g id="zoomMin">
                        <use xlink:href="#rim" fill="#404040">
                                <set attributeName="fill" to="#808080" begin="zoomminus.mouseover" end="zoomminus.mouseout"/>
                        </use>
                        <path d="M-4,0h8" fill="none" stroke="white" stroke-width="1.5" pointer-events="none"/>
                </g>
                <g id="dirArrow">
                        <path fill="none" stroke="white" stroke-width="1.5" d="M0,-3.0v7 M-2.5,-0.5L0,-3.0L2.5,-0.5"/>
                </g>
               <g id="resetDef">
                       <use xlink:href="#rim2" fill="#404040">
                               <set attributeName="fill" to="#808080" begin="reset.mouseover" end="reset.mouseout"/>
                       </use>
               </g>
        </defs>

<script type="text/javascript">
var viewWidth = 574;
var viewHeight = 148;
var sectionId = 'dynsection-20';
</script>
<script xlink:href="svgpan.js"/>
<svg id="graph" class="graph">
<g id="viewport">
<title>qtreports::detail::ParserFromXML::parseCrosstab</title>
<!-- Node1 -->
<g id="node1" class="node"><title>Node1</title>
<polygon fill="#bfbfbf" stroke="black" points="0,-49.5 0,-79.5 166,-79.5 166,-49.5 0,-49.5"/>
<text text-anchor="start" x="8" y="-67.5" font-family="Helvetica,sans-Serif" font-size="10.00">qtreports::detail::</text>
<text text-anchor="middle" x="83" y="-56.5" font-family="Helvetica,sans-Serif" font-size="10.00">ParserFromXML::parseCrosstab</text>
</g>
<!-- Node2 -->
<g id="node2" class="node"><title>Node2</title>
<g id="a_node2"><a xlink:href="classqtreports_1_1detail_1_1_parser_from_x_m_l.html#a478329a44761310039078ee6871a355d" target="_top" xlink:title="Вызывает функцию getAttribute с переданными параметрами и с параметром option &#45; &quot;опциональный аттрибу...">
<polygon fill="none" stroke="black" points="202,-98 202,-139 354,-139 354,-98 202,-98"/>
<text text-anchor="start" x="210" y="-127" font-family="Helvetica,sans-Serif" font-size="10.00">qtreports::detail::</text>
<text text-anchor="start" x="210" y="-116" font-family="Helvetica,sans-Serif" font-size="10.00">ParserFromXML::getOptional</text>
<text text-anchor="middle" x="278" y="-105" font-family="Helvetica,sans-Serif" font-size="10.00">Attribute</text>
</a>
</g>
</g>
<!-- Node1&#45;&gt;Node2 -->
<g id="edge1" class="edge"><title>Node1&#45;&gt;Node2</title>
<path fill="none" stroke="midnightblue" d="M137.761,-79.542C155.143,-84.4052 174.843,-89.9171 193.839,-95.2322"/>
<polygon fill="midnightblue" stroke="midnightblue" points="193.12,-98.6653 203.693,-97.9893 195.006,-91.9242 193.12,-98.6653"/>
</g>
<!-- Node4 -->
<g id="node4" class="node"><title>Node4</title>
<g id="a_node4"><a xlink:href="namespaceqtreports_1_1detail.html#af0dcf7d492b98dd5908ab3b40edeef55" target="_top" xlink:title="qtreports::detail::\ltoBool">
<polygon fill="none" stroke="black" points="228.5,-49.5 228.5,-79.5 327.5,-79.5 327.5,-49.5 228.5,-49.5"/>
<text text-anchor="start" x="236.5" y="-67.5" font-family="Helvetica,sans-Serif" font-size="10.00">qtreports::detail::</text>
<text text-anchor="middle" x="278" y="-56.5" font-family="Helvetica,sans-Serif" font-size="10.00">toBool</text>
</a>
</g>
</g>
<!-- Node1&#45;&gt;Node4 -->
<g id="edge3" class="edge"><title>Node1&#45;&gt;Node4</title>
<path fill="none" stroke="midnightblue" d="M166.129,-64.5C183.717,-64.5 201.955,-64.5 218.438,-64.5"/>
<polygon fill="midnightblue" stroke="midnightblue" points="218.452,-68.0001 228.452,-64.5 218.452,-61.0001 218.452,-68.0001"/>
</g>
<!-- Node6 -->
<g id="node6" class="node"><title>Node6</title>
<g id="a_node6"><a xlink:href="classqtreports_1_1detail_1_1_parser_from_x_m_l.html#a905c36f37ab8c2833ab85e4d8c22716f" target="_top" xlink:title="Парсит дочерние тэги объекта object. ">
<polygon fill="none" stroke="black" points="202,-0.5 202,-30.5 354,-30.5 354,-0.5 202,-0.5"/>
<text text-anchor="start" x="210" y="-18.5" font-family="Helvetica,sans-Serif" font-size="10.00">qtreports::detail::</text>
<text text-anchor="middle" x="278" y="-7.5" font-family="Helvetica,sans-Serif" font-size="10.00">ParserFromXML::parseChilds</text>
</a>
</g>
</g>
<!-- Node1&#45;&gt;Node6 -->
<g id="edge5" class="edge"><title>Node1&#45;&gt;Node6</title>
<path fill="none" stroke="midnightblue" d="M143.218,-49.4654C163.689,-44.2682 186.804,-38.3994 207.991,-33.0204"/>
<polygon fill="midnightblue" stroke="midnightblue" points="209.063,-36.3594 217.894,-30.5062 207.34,-29.5747 209.063,-36.3594"/>
</g>
<!-- Node3 -->
<g id="node3" class="node"><title>Node3</title>
<g id="a_node3"><a xlink:href="classqtreports_1_1detail_1_1_parser_from_x_m_l.html#ad0cab06b62d590495eaa6a16465ed2b4" target="_top" xlink:title="Записывает в data значение аттрибута с именем name текущего тэга ">
<polygon fill="none" stroke="black" points="401,-103.5 401,-133.5 555,-133.5 555,-103.5 401,-103.5"/>
<text text-anchor="start" x="409" y="-121.5" font-family="Helvetica,sans-Serif" font-size="10.00">qtreports::detail::</text>
<text text-anchor="middle" x="478" y="-110.5" font-family="Helvetica,sans-Serif" font-size="10.00">ParserFromXML::getAttribute</text>
</a>
</g>
</g>
<!-- Node2&#45;&gt;Node3 -->
<g id="edge2" class="edge"><title>Node2&#45;&gt;Node3</title>
<path fill="none" stroke="midnightblue" d="M354.138,-118.5C366.103,-118.5 378.563,-118.5 390.761,-118.5"/>
<polygon fill="midnightblue" stroke="midnightblue" points="390.928,-122 400.928,-118.5 390.928,-115 390.928,-122"/>
</g>
<!-- Node5 -->
<g id="node5" class="node"><title>Node5</title>
<g id="a_node5"><a xlink:href="namespaceqtreports_1_1detail.html#a3ce46912811f49a63ad2d9b6a5d310d3" target="_top" xlink:title="qtreports::detail::\lisEquals">
<polygon fill="none" stroke="black" points="428.5,-49.5 428.5,-79.5 527.5,-79.5 527.5,-49.5 428.5,-49.5"/>
<text text-anchor="start" x="436.5" y="-67.5" font-family="Helvetica,sans-Serif" font-size="10.00">qtreports::detail::</text>
<text text-anchor="middle" x="478" y="-56.5" font-family="Helvetica,sans-Serif" font-size="10.00">isEquals</text>
</a>
</g>
</g>
<!-- Node4&#45;&gt;Node5 -->
<g id="edge4" class="edge"><title>Node4&#45;&gt;Node5</title>
<path fill="none" stroke="midnightblue" d="M327.69,-64.5C355.02,-64.5 389.318,-64.5 418.148,-64.5"/>
<polygon fill="midnightblue" stroke="midnightblue" points="418.498,-68.0001 428.498,-64.5 418.498,-61.0001 418.498,-68.0001"/>
</g>
<!-- Node7 -->
<g id="node7" class="node"><title>Node7</title>
<g id="a_node7"><a xlink:href="classqtreports_1_1detail_1_1_parser_from_x_m_l.html#ace9dca09d283384d721c2a985991c9bf" target="_top" xlink:title="Устанавлиает курсор reader(а) к к началу следующего тэга или к концу документа ">
<polygon fill="none" stroke="black" points="390,-0.5 390,-30.5 566,-30.5 566,-0.5 390,-0.5"/>
<text text-anchor="start" x="398" y="-18.5" font-family="Helvetica,sans-Serif" font-size="10.00">qtreports::detail::</text>
<text text-anchor="middle" x="478" y="-7.5" font-family="Helvetica,sans-Serif" font-size="10.00">ParserFromXML::goToElementEnd</text>
</a>
</g>
</g>
<!-- Node6&#45;&gt;Node7 -->
<g id="edge6" class="edge"><title>Node6&#45;&gt;Node7</title>
<path fill="none" stroke="midnightblue" d="M354.138,-15.5C362.551,-15.5 371.209,-15.5 379.848,-15.5"/>
<polygon fill="midnightblue" stroke="midnightblue" points="379.966,-19.0001 389.966,-15.5 379.966,-12.0001 379.966,-19.0001"/>
</g>
</g>
</svg>
        <g id="navigator" transform="translate(0 0)" fill="#404254">
                <rect fill="#f2f5e9" fill-opacity="0.5" stroke="#606060" stroke-width=".5" x="0" y="0" width="60" height="60"/>
                <use id="zoomplus" xlink:href="#zoomPlus" x="17" y="9" onmousedown="handleZoom(evt,'in')"/>
                <use id="zoomminus" xlink:href="#zoomMin" x="42" y="9" onmousedown="handleZoom(evt,'out')"/>
                <use id="reset" xlink:href="#resetDef" x="30" y="36" onmousedown="handleReset()"/>
                <g id="arrowUp" xlink:href="#dirArrow" transform="translate(30 24)" onmousedown="handlePan(0,-1)">
                  <use xlink:href="#rim" fill="#404040">
                        <set attributeName="fill" to="#808080" begin="arrowUp.mouseover" end="arrowUp.mouseout"/>
                  </use>
                  <path fill="none" stroke="white" stroke-width="1.5" d="M0,-3.0v7 M-2.5,-0.5L0,-3.0L2.5,-0.5"/>
                </g>
                <g id="arrowRight" xlink:href="#dirArrow" transform="rotate(90) translate(36 -43)" onmousedown="handlePan(1,0)">
                  <use xlink:href="#rim" fill="#404040">
                        <set attributeName="fill" to="#808080" begin="arrowRight.mouseover" end="arrowRight.mouseout"/>
                  </use>
                  <path fill="none" stroke="white" stroke-width="1.5" d="M0,-3.0v7 M-2.5,-0.5L0,-3.0L2.5,-0.5"/>
                </g>
                <g id="arrowDown" xlink:href="#dirArrow" transform="rotate(180) translate(-30 -48)" onmousedown="handlePan(0,1)">
                  <use xlink:href="#rim" fill="#404040">
                        <set attributeName="fill" to="#808080" begin="arrowDown.mouseover" end="arrowDown.mouseout"/>
                  </use>
                  <path fill="none" stroke="white" stroke-width="1.5" d="M0,-3.0v7 M-2.5,-0.5L0,-3.0L2.5,-0.5"/>
                </g>
                <g id="arrowLeft" xlink:href="#dirArrow" transform="rotate(270) translate(-36 17)" onmousedown="handlePan(-1,0)">
                  <use xlink:href="#rim" fill="#404040">
                        <set attributeName="fill" to="#808080" begin="arrowLeft.mouseover" end="arrowLeft.mouseout"/>
                  </use>
                  <path fill="none" stroke="white" stroke-width="1.5" d="M0,-3.0v7 M-2.5,-0.5L0,-3.0L2.5,-0.5"/>
                </g>
        </g>
        <svg viewBox="0 0 15 15" width="100%" height="30px" preserveAspectRatio="xMaxYMin meet">
         <g id="arrow_out" transform="scale(0.3 0.3)">
          <a xlink:href="classqtreports_1_1detail_1_1_parser_from_x_m_l_a55d48b0d7875a6a4366c0e30f6cf5624_cgraph_org.svg" target="_base">
           <rect id="button" ry="5" rx="5" y="6" x="6" height="38" width="38"
                fill="#f2f5e9" fill-opacity="0.5" stroke="#606060" stroke-width="1.0"/>
           <path id="arrow"
             d="M 11.500037,31.436501 C 11.940474,20.09759 22.043105,11.32322 32.158766,21.979434 L 37.068811,17.246167 C 37.068811,17.246167 37.088388,32 37.088388,32 L 22.160133,31.978069 C 22.160133,31.978069 26.997745,27.140456 26.997745,27.140456 C 18.528582,18.264221 13.291696,25.230495 11.500037,31.436501 z"
             style="fill:#404040;"/>
          </a>
         </g>
        </svg>
</svg>
