<?xml version="1.0" encoding="UTF-8" standalone="no"?>
<!DOCTYPE svg PUBLIC "-//W3C//DTD SVG 1.1//EN"
 "http://www.w3.org/Graphics/SVG/1.1/DTD/svg11.dtd">
<!-- Generated by graphviz version 2.38.0 (20140413.2041)
 -->
<!-- Title: qtreports::Engine::createLayout Pages: 1 -->
<!--zoomable 562 -->
<svg id="main" version="1.1" xmlns="http://www.w3.org/2000/svg" xmlns:xlink="http://www.w3.org/1999/xlink" xml:space="preserve" onload="init(evt)">
<style type="text/css"><![CDATA[
.edge:hover path { stroke: red; }
.edge:hover polygon { stroke: red; fill: red; }
]]></style>
<script type="text/javascript"><![CDATA[
var edges = document.getElementsByTagName('g');
if (edges && edges.length) {
  for (var i=0;i<edges.length;i++) {
    if (edges[i].id.substr(0,4)=='edge') {
      edges[i].setAttribute('class','edge');
    }
  }
}
]]></script>
        <defs>
                <circle id="rim" cx="0" cy="0" r="7"/>
                <circle id="rim2" cx="0" cy="0" r="3.5"/>
                <g id="zoomPlus">
                        <use xlink:href="#rim" fill="#404040">
                                <set attributeName="fill" to="#808080" begin="zoomplus.mouseover" end="zoomplus.mouseout"/>
                        </use>
                        <path d="M-4,0h8M0,-4v8" fill="none" stroke="white" stroke-width="1.5" pointer-events="none"/>
                </g>
                <g id="zoomMin">
                        <use xlink:href="#rim" fill="#404040">
                                <set attributeName="fill" to="#808080" begin="zoomminus.mouseover" end="zoomminus.mouseout"/>
                        </use>
                        <path d="M-4,0h8" fill="none" stroke="white" stroke-width="1.5" pointer-events="none"/>
                </g>
                <g id="dirArrow">
                        <path fill="none" stroke="white" stroke-width="1.5" d="M0,-3.0v7 M-2.5,-0.5L0,-3.0L2.5,-0.5"/>
                </g>
               <g id="resetDef">
                       <use xlink:href="#rim2" fill="#404040">
                               <set attributeName="fill" to="#808080" begin="reset.mouseover" end="reset.mouseout"/>
                       </use>
               </g>
        </defs>

<script type="text/javascript">
var viewWidth = 1470;
var viewHeight = 562;
var sectionId = 'dynsection-5';
</script>
<script xlink:href="svgpan.js"/>
<svg id="graph" class="graph">
<g id="viewport">
<title>qtreports::Engine::createLayout</title>
<!-- Node1 -->
<g id="node1" class="node"><title>Node1</title>
<polygon fill="#bfbfbf" stroke="black" points="0,-81.8856 0,-111.886 105,-111.886 105,-81.8856 0,-81.8856"/>
<text text-anchor="start" x="8" y="-99.8856" font-family="Helvetica,sans-Serif" font-size="10.00">qtreports::Engine::</text>
<text text-anchor="middle" x="52.5" y="-88.8856" font-family="Helvetica,sans-Serif" font-size="10.00">createLayout</text>
</g>
<!-- Node2 -->
<g id="node2" class="node"><title>Node2</title>
<g id="a_node2"><a xlink:href="classqtreports_1_1detail_1_1_converter_to_q_widget.html#a4b42725ccbbc910522dca786da95fbb6" target="_top" xlink:title="Конвертирует отчет в виджет. ">
<polygon fill="none" stroke="black" points="141,-136.386 141,-177.386 260,-177.386 260,-136.386 141,-136.386"/>
<text text-anchor="start" x="149" y="-165.386" font-family="Helvetica,sans-Serif" font-size="10.00">qtreports::detail::</text>
<text text-anchor="start" x="149" y="-154.386" font-family="Helvetica,sans-Serif" font-size="10.00">ConverterToQWidget::</text>
<text text-anchor="middle" x="200.5" y="-143.386" font-family="Helvetica,sans-Serif" font-size="10.00">convert</text>
</a>
</g>
</g>
<!-- Node1&#45;&gt;Node2 -->
<g id="edge1" class="edge"><title>Node1&#45;&gt;Node2</title>
<path fill="none" stroke="midnightblue" d="M90.342,-112.026C105.313,-118.178 122.997,-125.446 139.724,-132.32"/>
<polygon fill="midnightblue" stroke="midnightblue" points="138.854,-135.747 149.434,-136.31 141.515,-129.272 138.854,-135.747"/>
</g>
<!-- Node22 -->
<g id="node22" class="node"><title>Node22</title>
<g id="a_node22"><a xlink:href="classqtreports_1_1detail_1_1_converter_to_q_widget.html#aba09b9782ffddba920ee7b881f3e8f99" target="_top" xlink:title="Возвращает информацию о последней ошибке, возникшей в процессе конвертации. ">
<polygon fill="none" stroke="black" points="141,-76.3856 141,-117.386 260,-117.386 260,-76.3856 141,-76.3856"/>
<text text-anchor="start" x="149" y="-105.386" font-family="Helvetica,sans-Serif" font-size="10.00">qtreports::detail::</text>
<text text-anchor="start" x="149" y="-94.3856" font-family="Helvetica,sans-Serif" font-size="10.00">ConverterToQWidget::</text>
<text text-anchor="middle" x="200.5" y="-83.3856" font-family="Helvetica,sans-Serif" font-size="10.00">getLastError</text>
</a>
</g>
</g>
<!-- Node1&#45;&gt;Node22 -->
<g id="edge33" class="edge"><title>Node1&#45;&gt;Node22</title>
<path fill="none" stroke="midnightblue" d="M105.385,-96.8856C113.543,-96.8856 122.086,-96.8856 130.555,-96.8856"/>
<polygon fill="midnightblue" stroke="midnightblue" points="130.82,-100.386 140.82,-96.8856 130.82,-93.3857 130.82,-100.386"/>
</g>
<!-- Node23 -->
<g id="node23" class="node"><title>Node23</title>
<g id="a_node23"><a xlink:href="classqtreports_1_1detail_1_1_converter_to_q_widget.html#ab01f3bcd13f00483adbdec4eacc272e8" target="_top" xlink:title="Возвращает указатель на объект QWidget. ">
<polygon fill="none" stroke="black" points="141,-16.3856 141,-57.3856 260,-57.3856 260,-16.3856 141,-16.3856"/>
<text text-anchor="start" x="149" y="-45.3856" font-family="Helvetica,sans-Serif" font-size="10.00">qtreports::detail::</text>
<text text-anchor="start" x="149" y="-34.3856" font-family="Helvetica,sans-Serif" font-size="10.00">ConverterToQWidget::</text>
<text text-anchor="middle" x="200.5" y="-23.3856" font-family="Helvetica,sans-Serif" font-size="10.00">getQWidget</text>
</a>
</g>
</g>
<!-- Node1&#45;&gt;Node23 -->
<g id="edge34" class="edge"><title>Node1&#45;&gt;Node23</title>
<path fill="none" stroke="midnightblue" d="M90.342,-81.745C105.313,-75.5927 122.997,-68.325 139.724,-61.4511"/>
<polygon fill="midnightblue" stroke="midnightblue" points="141.515,-64.4992 149.434,-57.4607 138.854,-58.0246 141.515,-64.4992"/>
</g>
<!-- Node3 -->
<g id="node3" class="node"><title>Node3</title>
<g id="a_node3"><a xlink:href="classqtreports_1_1detail_1_1_converter_to_q_widget.html#a96a53267cf2b8092e174906ea7f0f56f" target="_top" xlink:title="Конвертирует отчет в QWidget. ">
<polygon fill="none" stroke="black" points="296,-136.386 296,-177.386 415,-177.386 415,-136.386 296,-136.386"/>
<text text-anchor="start" x="304" y="-165.386" font-family="Helvetica,sans-Serif" font-size="10.00">qtreports::detail::</text>
<text text-anchor="start" x="304" y="-154.386" font-family="Helvetica,sans-Serif" font-size="10.00">ConverterToQWidget::</text>
<text text-anchor="middle" x="355.5" y="-143.386" font-family="Helvetica,sans-Serif" font-size="10.00">createQWidget</text>
</a>
</g>
</g>
<!-- Node2&#45;&gt;Node3 -->
<g id="edge2" class="edge"><title>Node2&#45;&gt;Node3</title>
<path fill="none" stroke="midnightblue" d="M260.216,-156.886C268.544,-156.886 277.169,-156.886 285.667,-156.886"/>
<polygon fill="midnightblue" stroke="midnightblue" points="285.941,-160.386 295.941,-156.886 285.941,-153.386 285.941,-160.386"/>
</g>
<!-- Node4 -->
<g id="node4" class="node"><title>Node4</title>
<g id="a_node4"><a xlink:href="classqtreports_1_1detail_1_1_converter_to_q_widget.html#a23d6229235fca8bd8bbddcc5e2e28f92" target="_top" xlink:title="Добавляет новую страницу на виджет. ">
<polygon fill="none" stroke="black" points="941.5,-389.386 941.5,-430.386 1060.5,-430.386 1060.5,-389.386 941.5,-389.386"/>
<text text-anchor="start" x="949.5" y="-418.386" font-family="Helvetica,sans-Serif" font-size="10.00">qtreports::detail::</text>
<text text-anchor="start" x="949.5" y="-407.386" font-family="Helvetica,sans-Serif" font-size="10.00">ConverterToQWidget::</text>
<text text-anchor="middle" x="1001" y="-396.386" font-family="Helvetica,sans-Serif" font-size="10.00">addPage</text>
</a>
</g>
</g>
<!-- Node3&#45;&gt;Node4 -->
<g id="edge3" class="edge"><title>Node3&#45;&gt;Node4</title>
<path fill="none" stroke="midnightblue" d="M364.382,-177.398C377.87,-210.296 408.13,-275.362 451,-316.886 561.362,-423.783 610.626,-438.351 761,-469.886 814.068,-481.014 830.293,-482.612 883,-469.886 910.694,-463.199 939.193,-448.771 961.13,-435.74"/>
<polygon fill="midnightblue" stroke="midnightblue" points="963.085,-438.648 969.805,-430.457 959.444,-432.669 963.085,-438.648"/>
</g>
<!-- Node5 -->
<g id="node5" class="node"><title>Node5</title>
<g id="a_node5"><a xlink:href="classqtreports_1_1detail_1_1_converter_to_q_widget.html#af350953efb07bf3393c33846a81b1121" target="_top" xlink:title="Добавляет вертикальную границу. ">
<polygon fill="none" stroke="black" points="606,-16.3856 606,-57.3856 725,-57.3856 725,-16.3856 606,-16.3856"/>
<text text-anchor="start" x="614" y="-45.3856" font-family="Helvetica,sans-Serif" font-size="10.00">qtreports::detail::</text>
<text text-anchor="start" x="614" y="-34.3856" font-family="Helvetica,sans-Serif" font-size="10.00">ConverterToQWidget::</text>
<text text-anchor="middle" x="665.5" y="-23.3856" font-family="Helvetica,sans-Serif" font-size="10.00">addVerticalBorder</text>
</a>
</g>
</g>
<!-- Node3&#45;&gt;Node5 -->
<g id="edge4" class="edge"><title>Node3&#45;&gt;Node5</title>
<path fill="none" stroke="midnightblue" d="M397.471,-136.205C413.93,-128.206 433.193,-119.229 451,-111.886 498.847,-92.1551 553.988,-72.8702 596.245,-58.7971"/>
<polygon fill="midnightblue" stroke="midnightblue" points="597.484,-62.0737 605.876,-55.6056 595.282,-55.429 597.484,-62.0737"/>
</g>
<!-- Node6 -->
<g id="node6" class="node"><title>Node6</title>
<g id="a_node6"><a xlink:href="classqtreports_1_1detail_1_1_converter_to_q_widget.html#a76bb37f2855d12afc9056c75cdbc5e0b" target="_top" xlink:title="Проверяет, является ли виджет типа WidgetType::Layout. ">
<polygon fill="none" stroke="black" points="941.5,-153.386 941.5,-194.386 1060.5,-194.386 1060.5,-153.386 941.5,-153.386"/>
<text text-anchor="start" x="949.5" y="-182.386" font-family="Helvetica,sans-Serif" font-size="10.00">qtreports::detail::</text>
<text text-anchor="start" x="949.5" y="-171.386" font-family="Helvetica,sans-Serif" font-size="10.00">ConverterToQWidget::</text>
<text text-anchor="middle" x="1001" y="-160.386" font-family="Helvetica,sans-Serif" font-size="10.00">isLayout</text>
</a>
</g>
</g>
<!-- Node3&#45;&gt;Node6 -->
<g id="edge7" class="edge"><title>Node3&#45;&gt;Node6</title>
<path fill="none" stroke="midnightblue" d="M373.347,-136.052C390.88,-115.535 420.059,-84.5016 451,-64.8856 556.129,1.76399 601.434,8.13921 725,-6.88556 796.801,-15.6161 820.819,-8.93843 883,-45.8856 924.752,-70.6939 960.342,-115.061 980.957,-144.488"/>
<polygon fill="midnightblue" stroke="midnightblue" points="978.323,-146.834 986.865,-153.102 984.096,-142.876 978.323,-146.834"/>
</g>
<!-- Node8 -->
<g id="node8" class="node"><title>Node8</title>
<g id="a_node8"><a xlink:href="classqtreports_1_1detail_1_1_converter_to_q_widget.html#ae126b16c5a846e84f12d86ca8ef253dd" target="_top" xlink:title="Добавляет секцию. ">
<polygon fill="none" stroke="black" points="606,-136.386 606,-177.386 725,-177.386 725,-136.386 606,-136.386"/>
<text text-anchor="start" x="614" y="-165.386" font-family="Helvetica,sans-Serif" font-size="10.00">qtreports::detail::</text>
<text text-anchor="start" x="614" y="-154.386" font-family="Helvetica,sans-Serif" font-size="10.00">ConverterToQWidget::</text>
<text text-anchor="middle" x="665.5" y="-143.386" font-family="Helvetica,sans-Serif" font-size="10.00">addSectionLayout</text>
</a>
</g>
</g>
<!-- Node3&#45;&gt;Node8 -->
<g id="edge8" class="edge"><title>Node3&#45;&gt;Node8</title>
<path fill="none" stroke="midnightblue" d="M415.157,-156.886C466.562,-156.886 541.333,-156.886 595.579,-156.886"/>
<polygon fill="midnightblue" stroke="midnightblue" points="595.799,-160.386 605.799,-156.886 595.799,-153.386 595.799,-160.386"/>
</g>
<!-- Node9 -->
<g id="node9" class="node"><title>Node9</title>
<g id="a_node9"><a xlink:href="classqtreports_1_1detail_1_1_converter_to_q_widget.html#a3c95daf9bd10efc4feb71e0d976bbd6e" target="_top" xlink:title="Создает секцию. ">
<polygon fill="none" stroke="black" points="606,-351.386 606,-392.386 725,-392.386 725,-351.386 606,-351.386"/>
<text text-anchor="start" x="614" y="-380.386" font-family="Helvetica,sans-Serif" font-size="10.00">qtreports::detail::</text>
<text text-anchor="start" x="614" y="-369.386" font-family="Helvetica,sans-Serif" font-size="10.00">ConverterToQWidget::</text>
<text text-anchor="middle" x="665.5" y="-358.386" font-family="Helvetica,sans-Serif" font-size="10.00">createSection</text>
</a>
</g>
</g>
<!-- Node3&#45;&gt;Node9 -->
<g id="edge11" class="edge"><title>Node3&#45;&gt;Node9</title>
<path fill="none" stroke="midnightblue" d="M369.642,-177.763C386.136,-202.605 416.482,-244.082 451,-270.886 494.901,-304.976 552.171,-331.282 596.343,-348.49"/>
<polygon fill="midnightblue" stroke="midnightblue" points="595.254,-351.821 605.844,-352.13 597.758,-345.284 595.254,-351.821"/>
</g>
<!-- Node19 -->
<g id="node19" class="node"><title>Node19</title>
<g id="a_node19"><a xlink:href="classqtreports_1_1detail_1_1_converter_to_q_widget.html#ac98aceb5ee703053d7691029da84e296" target="_top" xlink:title="Функция добавления группировок в отчет. ">
<polygon fill="none" stroke="black" points="451,-220.386 451,-261.386 570,-261.386 570,-220.386 451,-220.386"/>
<text text-anchor="start" x="459" y="-249.386" font-family="Helvetica,sans-Serif" font-size="10.00">qtreports::detail::</text>
<text text-anchor="start" x="459" y="-238.386" font-family="Helvetica,sans-Serif" font-size="10.00">ConverterToQWidget::</text>
<text text-anchor="middle" x="510.5" y="-227.386" font-family="Helvetica,sans-Serif" font-size="10.00">addGroupsIntoReport</text>
</a>
</g>
</g>
<!-- Node3&#45;&gt;Node19 -->
<g id="edge24" class="edge"><title>Node3&#45;&gt;Node19</title>
<path fill="none" stroke="midnightblue" d="M393.928,-177.434C414.766,-188.875 440.892,-203.218 463.029,-215.372"/>
<polygon fill="midnightblue" stroke="midnightblue" points="461.478,-218.513 471.928,-220.258 464.847,-212.377 461.478,-218.513"/>
</g>
<!-- Node21 -->
<g id="node21" class="node"><title>Node21</title>
<g id="a_node21"><a xlink:href="classqtreports_1_1detail_1_1_converter_to_q_widget.html#a21d211f4a1f0f46f2220a0959c36367b" target="_top" xlink:title="Добавляет пустую секцию. ">
<polygon fill="none" stroke="black" points="606,-76.3856 606,-117.386 725,-117.386 725,-76.3856 606,-76.3856"/>
<text text-anchor="start" x="614" y="-105.386" font-family="Helvetica,sans-Serif" font-size="10.00">qtreports::detail::</text>
<text text-anchor="start" x="614" y="-94.3856" font-family="Helvetica,sans-Serif" font-size="10.00">ConverterToQWidget::</text>
<text text-anchor="middle" x="665.5" y="-83.3856" font-family="Helvetica,sans-Serif" font-size="10.00">addEmptySection</text>
</a>
</g>
</g>
<!-- Node3&#45;&gt;Node21 -->
<g id="edge30" class="edge"><title>Node3&#45;&gt;Node21</title>
<path fill="none" stroke="midnightblue" d="M415.157,-145.459C466.669,-135.424 541.644,-120.819 595.917,-110.246"/>
<polygon fill="midnightblue" stroke="midnightblue" points="596.653,-113.668 605.799,-108.321 595.315,-106.798 596.653,-113.668"/>
</g>
<!-- Node5&#45;&gt;Node6 -->
<g id="edge5" class="edge"><title>Node5&#45;&gt;Node6</title>
<path fill="none" stroke="midnightblue" d="M725.142,-43.7623C769.949,-50.5731 832.406,-63.4873 883,-86.8856 915.534,-101.932 947.876,-126.953 970.283,-146.31"/>
<polygon fill="midnightblue" stroke="midnightblue" points="968.249,-149.182 978.07,-153.156 972.871,-143.925 968.249,-149.182"/>
</g>
<!-- Node7 -->
<g id="node7" class="node"><title>Node7</title>
<g id="a_node7"><a xlink:href="namespaceqtreports_1_1detail.html#a57ac54d6807a30b13e419a3106735b19" target="_top" xlink:title="qtreports::detail::\lcreateLayout">
<polygon fill="none" stroke="black" points="772.5,-114.886 772.5,-144.886 871.5,-144.886 871.5,-114.886 772.5,-114.886"/>
<text text-anchor="start" x="780.5" y="-132.886" font-family="Helvetica,sans-Serif" font-size="10.00">qtreports::detail::</text>
<text text-anchor="middle" x="822" y="-121.886" font-family="Helvetica,sans-Serif" font-size="10.00">createLayout</text>
</a>
</g>
</g>
<!-- Node5&#45;&gt;Node7 -->
<g id="edge6" class="edge"><title>Node5&#45;&gt;Node7</title>
<path fill="none" stroke="midnightblue" d="M708.027,-57.4842C713.781,-60.5403 719.575,-63.7266 725,-66.8856 747.605,-80.0487 772.259,-96.2697 790.922,-108.956"/>
<polygon fill="midnightblue" stroke="midnightblue" points="789.077,-111.934 799.307,-114.691 793.029,-106.156 789.077,-111.934"/>
</g>
<!-- Node8&#45;&gt;Node6 -->
<g id="edge9" class="edge"><title>Node8&#45;&gt;Node6</title>
<path fill="none" stroke="midnightblue" d="M725.355,-159.886C782.894,-162.819 870.467,-167.283 931.194,-170.378"/>
<polygon fill="midnightblue" stroke="midnightblue" points="931.288,-173.887 941.453,-170.901 931.644,-166.897 931.288,-173.887"/>
</g>
<!-- Node8&#45;&gt;Node7 -->
<g id="edge10" class="edge"><title>Node8&#45;&gt;Node7</title>
<path fill="none" stroke="midnightblue" d="M725.351,-146.601C737.476,-144.482 750.243,-142.251 762.361,-140.133"/>
<polygon fill="midnightblue" stroke="midnightblue" points="763.111,-143.555 772.359,-138.386 761.905,-136.66 763.111,-143.555"/>
</g>
<!-- Node9&#45;&gt;Node6 -->
<g id="edge12" class="edge"><title>Node9&#45;&gt;Node6</title>
<path fill="none" stroke="midnightblue" d="M725.174,-352.99C770.281,-337.067 833.112,-311.79 883,-279.886 917.646,-257.729 951.87,-225.133 974.266,-201.945"/>
<polygon fill="midnightblue" stroke="midnightblue" points="977.025,-204.124 981.391,-194.471 971.958,-199.294 977.025,-204.124"/>
</g>
<!-- Node10 -->
<g id="node10" class="node"><title>Node10</title>
<g id="a_node10"><a xlink:href="classqtreports_1_1detail_1_1_replacer.html#af7ccb83be264f7c72b7485cf38455450" target="_top" xlink:title="Заменяет текст всех виджетов секции текстом с подставленными значениями. ">
<polygon fill="none" stroke="black" points="772.5,-517.886 772.5,-547.886 871.5,-547.886 871.5,-517.886 772.5,-517.886"/>
<text text-anchor="start" x="780.5" y="-535.886" font-family="Helvetica,sans-Serif" font-size="10.00">qtreports::detail::</text>
<text text-anchor="middle" x="822" y="-524.886" font-family="Helvetica,sans-Serif" font-size="10.00">Replacer::replace</text>
</a>
</g>
</g>
<!-- Node9&#45;&gt;Node10 -->
<g id="edge13" class="edge"><title>Node9&#45;&gt;Node10</title>
<path fill="none" stroke="midnightblue" d="M686.382,-392.604C715.383,-422.825 769.098,-478.799 799.165,-510.132"/>
<polygon fill="midnightblue" stroke="midnightblue" points="796.821,-512.744 806.27,-517.536 801.871,-507.897 796.821,-512.744"/>
</g>
<!-- Node17 -->
<g id="node17" class="node"><title>Node17</title>
<g id="a_node17"><a xlink:href="classqtreports_1_1detail_1_1_replacer.html#a677f7802e444f2de3af4cb43b6cedf30" target="_top" xlink:title="Возвращает описание последней произошедшей ошибки. ">
<polygon fill="none" stroke="black" points="761,-429.886 761,-459.886 883,-459.886 883,-429.886 761,-429.886"/>
<text text-anchor="start" x="769" y="-447.886" font-family="Helvetica,sans-Serif" font-size="10.00">qtreports::detail::</text>
<text text-anchor="middle" x="822" y="-436.886" font-family="Helvetica,sans-Serif" font-size="10.00">Replacer::getLastError</text>
</a>
</g>
</g>
<!-- Node9&#45;&gt;Node17 -->
<g id="edge20" class="edge"><title>Node9&#45;&gt;Node17</title>
<path fill="none" stroke="midnightblue" d="M704.244,-392.534C721.376,-401.625 742.013,-412.191 761,-420.886 764.626,-422.546 768.402,-424.208 772.216,-425.839"/>
<polygon fill="midnightblue" stroke="midnightblue" points="771.136,-429.181 781.712,-429.812 773.838,-422.724 771.136,-429.181"/>
</g>
<!-- Node18 -->
<g id="node18" class="node"><title>Node18</title>
<g id="a_node18"><a xlink:href="classqtreports_1_1detail_1_1_converter_to_q_widget.html#aa3be16e037533a4a5b58596087207187" target="_top" xlink:title="Создает band. ">
<polygon fill="none" stroke="black" points="762.5,-370.386 762.5,-411.386 881.5,-411.386 881.5,-370.386 762.5,-370.386"/>
<text text-anchor="start" x="770.5" y="-399.386" font-family="Helvetica,sans-Serif" font-size="10.00">qtreports::detail::</text>
<text text-anchor="start" x="770.5" y="-388.386" font-family="Helvetica,sans-Serif" font-size="10.00">ConverterToQWidget::</text>
<text text-anchor="middle" x="822" y="-377.386" font-family="Helvetica,sans-Serif" font-size="10.00">createBands</text>
</a>
</g>
</g>
<!-- Node9&#45;&gt;Node18 -->
<g id="edge21" class="edge"><title>Node9&#45;&gt;Node18</title>
<path fill="none" stroke="midnightblue" d="M725.351,-379.123C734.149,-380.205 743.285,-381.328 752.266,-382.433"/>
<polygon fill="midnightblue" stroke="midnightblue" points="751.961,-385.922 762.313,-383.668 752.815,-378.974 751.961,-385.922"/>
</g>
<!-- Node11 -->
<g id="node11" class="node"><title>Node11</title>
<g id="a_node11"><a xlink:href="classqtreports_1_1detail_1_1_replacer.html#a58cf857aa78eb3e273f6543769af425b" target="_top" xlink:title="Заменяет текст всех виджетов секции текстом с подставленными значениями полей из источника данных...">
<polygon fill="none" stroke="black" points="919,-517.886 919,-547.886 1083,-547.886 1083,-517.886 919,-517.886"/>
<text text-anchor="start" x="927" y="-535.886" font-family="Helvetica,sans-Serif" font-size="10.00">qtreports::detail::</text>
<text text-anchor="middle" x="1001" y="-524.886" font-family="Helvetica,sans-Serif" font-size="10.00">Replacer::replaceFieldInSection</text>
</a>
</g>
</g>
<!-- Node10&#45;&gt;Node11 -->
<g id="edge14" class="edge"><title>Node10&#45;&gt;Node11</title>
<path fill="none" stroke="midnightblue" d="M871.835,-532.886C883.3,-532.886 895.885,-532.886 908.551,-532.886"/>
<polygon fill="midnightblue" stroke="midnightblue" points="908.706,-536.386 918.706,-532.886 908.706,-529.386 908.706,-536.386"/>
</g>
<!-- Node16 -->
<g id="node16" class="node"><title>Node16</title>
<g id="a_node16"><a xlink:href="classqtreports_1_1detail_1_1_replacer.html#abb903f1c1172efa7e26b040a5695cc86" target="_top" xlink:title="Возвращает текст с подставленными значениями параметров. ">
<polygon fill="none" stroke="black" points="924,-468.886 924,-498.886 1078,-498.886 1078,-468.886 924,-468.886"/>
<text text-anchor="start" x="932" y="-486.886" font-family="Helvetica,sans-Serif" font-size="10.00">qtreports::detail::</text>
<text text-anchor="middle" x="1001" y="-475.886" font-family="Helvetica,sans-Serif" font-size="10.00">Replacer::replaceParameters</text>
</a>
</g>
</g>
<!-- Node10&#45;&gt;Node16 -->
<g id="edge19" class="edge"><title>Node10&#45;&gt;Node16</title>
<path fill="none" stroke="midnightblue" d="M871.835,-519.366C891.622,-513.889 914.745,-507.487 935.861,-501.642"/>
<polygon fill="midnightblue" stroke="midnightblue" points="937.018,-504.953 945.721,-498.912 935.15,-498.207 937.018,-504.953"/>
</g>
<!-- Node12 -->
<g id="node12" class="node"><title>Node12</title>
<g id="a_node12"><a xlink:href="classqtreports_1_1detail_1_1_replacer.html#a2be57bd514335f9b9f2a520247562ce1" target="_top" xlink:title="Заменяет текст виджета текстом с подставленными значениями полей из источника данных. ">
<polygon fill="none" stroke="black" points="1125,-392.386 1125,-433.386 1271,-433.386 1271,-392.386 1125,-392.386"/>
<text text-anchor="start" x="1133" y="-421.386" font-family="Helvetica,sans-Serif" font-size="10.00">qtreports::detail::</text>
<text text-anchor="start" x="1133" y="-410.386" font-family="Helvetica,sans-Serif" font-size="10.00">Replacer::replaceFieldInText</text>
<text text-anchor="middle" x="1198" y="-399.386" font-family="Helvetica,sans-Serif" font-size="10.00">Widget</text>
</a>
</g>
</g>
<!-- Node11&#45;&gt;Node12 -->
<g id="edge15" class="edge"><title>Node11&#45;&gt;Node12</title>
<path fill="none" stroke="midnightblue" d="M1062.82,-517.87C1069.8,-515.275 1076.67,-512.293 1083,-508.886 1116.22,-490.998 1148.58,-462.344 1170.28,-440.991"/>
<polygon fill="midnightblue" stroke="midnightblue" points="1172.9,-443.318 1177.5,-433.772 1167.95,-438.369 1172.9,-443.318"/>
</g>
<!-- Node14 -->
<g id="node14" class="node"><title>Node14</title>
<g id="a_node14"><a xlink:href="classqtreports_1_1detail_1_1_replacer.html#a4aeb7794f90c0be34a30ab60a6df1920" target="_top" xlink:title="На основе текста виджета вставляет в него изображение из источника данных. ">
<polygon fill="none" stroke="black" points="1119,-512.386 1119,-553.386 1277,-553.386 1277,-512.386 1119,-512.386"/>
<text text-anchor="start" x="1127" y="-541.386" font-family="Helvetica,sans-Serif" font-size="10.00">qtreports::detail::</text>
<text text-anchor="start" x="1127" y="-530.386" font-family="Helvetica,sans-Serif" font-size="10.00">Replacer::replaceFieldInImage</text>
<text text-anchor="middle" x="1198" y="-519.386" font-family="Helvetica,sans-Serif" font-size="10.00">Widget</text>
</a>
</g>
</g>
<!-- Node11&#45;&gt;Node14 -->
<g id="edge17" class="edge"><title>Node11&#45;&gt;Node14</title>
<path fill="none" stroke="midnightblue" d="M1083,-532.886C1091.5,-532.886 1100.17,-532.886 1108.75,-532.886"/>
<polygon fill="midnightblue" stroke="midnightblue" points="1108.75,-536.386 1118.75,-532.886 1108.75,-529.386 1108.75,-536.386"/>
</g>
<!-- Node13 -->
<g id="node13" class="node"><title>Node13</title>
<g id="a_node13"><a xlink:href="classqtreports_1_1detail_1_1_replacer.html#a4642b07160798f2ee4de276e1d0c1ecd" target="_top" xlink:title="Возвращает текст с подставленными значениями полей из источника данных. ">
<polygon fill="none" stroke="black" points="1328,-343.886 1328,-373.886 1447,-373.886 1447,-343.886 1328,-343.886"/>
<text text-anchor="start" x="1336" y="-361.886" font-family="Helvetica,sans-Serif" font-size="10.00">qtreports::detail::</text>
<text text-anchor="middle" x="1387.5" y="-350.886" font-family="Helvetica,sans-Serif" font-size="10.00">Replacer::replaceField</text>
</a>
</g>
</g>
<!-- Node12&#45;&gt;Node13 -->
<g id="edge16" class="edge"><title>Node12&#45;&gt;Node13</title>
<path fill="none" stroke="midnightblue" d="M1270.42,-392.316C1288.16,-387.209 1307.02,-381.775 1324.28,-376.806"/>
<polygon fill="midnightblue" stroke="midnightblue" points="1325.59,-380.071 1334.23,-373.94 1323.65,-373.344 1325.59,-380.071"/>
</g>
<!-- Node15 -->
<g id="node15" class="node"><title>Node15</title>
<g id="a_node15"><a xlink:href="classqtreports_1_1detail_1_1_replacer.html#ae1ac521aeaf5fdd694e79e2ae52d4704" target="_top" xlink:title="Возвращает изображение на основе первого найденного выражения. ">
<polygon fill="none" stroke="black" points="1313,-517.886 1313,-547.886 1462,-547.886 1462,-517.886 1313,-517.886"/>
<text text-anchor="start" x="1321" y="-535.886" font-family="Helvetica,sans-Serif" font-size="10.00">qtreports::detail::</text>
<text text-anchor="middle" x="1387.5" y="-524.886" font-family="Helvetica,sans-Serif" font-size="10.00">Replacer::replaceFieldImage</text>
</a>
</g>
</g>
<!-- Node14&#45;&gt;Node15 -->
<g id="edge18" class="edge"><title>Node14&#45;&gt;Node15</title>
<path fill="none" stroke="midnightblue" d="M1277.16,-532.886C1285.68,-532.886 1294.38,-532.886 1302.96,-532.886"/>
<polygon fill="midnightblue" stroke="midnightblue" points="1302.97,-536.386 1312.97,-532.886 1302.97,-529.386 1302.97,-536.386"/>
</g>
<!-- Node18&#45;&gt;Node4 -->
<g id="edge22" class="edge"><title>Node18&#45;&gt;Node4</title>
<path fill="none" stroke="midnightblue" d="M881.938,-397.212C897.762,-398.911 915.009,-400.762 931.312,-402.512"/>
<polygon fill="midnightblue" stroke="midnightblue" points="931.002,-405.999 941.319,-403.586 931.75,-399.039 931.002,-405.999"/>
</g>
<!-- Node18&#45;&gt;Node6 -->
<g id="edge23" class="edge"><title>Node18&#45;&gt;Node6</title>
<path fill="none" stroke="midnightblue" d="M864.218,-370.362C870.889,-366.08 877.426,-361.224 883,-355.886 930.269,-310.619 967.392,-242.663 986.284,-203.872"/>
<polygon fill="midnightblue" stroke="midnightblue" points="989.528,-205.2 990.689,-194.669 983.214,-202.178 989.528,-205.2"/>
</g>
<!-- Node19&#45;&gt;Node6 -->
<g id="edge26" class="edge"><title>Node19&#45;&gt;Node6</title>
<path fill="none" stroke="midnightblue" d="M570.2,-245.192C582.046,-245.898 594.416,-246.518 606,-246.886 658.862,-248.562 672.556,-253.728 725,-246.886 796.852,-237.511 876.655,-214.911 931.704,-197.32"/>
<polygon fill="midnightblue" stroke="midnightblue" points="932.903,-200.611 941.345,-194.209 930.754,-193.949 932.903,-200.611"/>
</g>
<!-- Node19&#45;&gt;Node8 -->
<g id="edge27" class="edge"><title>Node19&#45;&gt;Node8</title>
<path fill="none" stroke="midnightblue" d="M546.738,-220.245C564.419,-210.018 586.229,-197.597 606,-186.886 608.86,-185.336 611.809,-183.76 614.79,-182.182"/>
<polygon fill="midnightblue" stroke="midnightblue" points="616.548,-185.212 623.779,-177.468 613.297,-179.013 616.548,-185.212"/>
</g>
<!-- Node19&#45;&gt;Node9 -->
<g id="edge28" class="edge"><title>Node19&#45;&gt;Node9</title>
<path fill="none" stroke="midnightblue" d="M535.743,-261.643C561.93,-284.064 603.766,-319.884 632.605,-344.576"/>
<polygon fill="midnightblue" stroke="midnightblue" points="630.498,-347.38 640.37,-351.225 635.05,-342.063 630.498,-347.38"/>
</g>
<!-- Node19&#45;&gt;Node13 -->
<g id="edge25" class="edge"><title>Node19&#45;&gt;Node13</title>
<path fill="none" stroke="midnightblue" d="M570.111,-260.13C631.824,-278.657 732.168,-303.886 821,-303.886 821,-303.886 821,-303.886 1002,-303.886 1113.48,-303.886 1241.34,-326.824 1317.92,-343.074"/>
<polygon fill="midnightblue" stroke="midnightblue" points="1317.41,-346.543 1327.92,-345.219 1318.88,-339.699 1317.41,-346.543"/>
</g>
<!-- Node20 -->
<g id="node20" class="node"><title>Node20</title>
<g id="a_node20"><a xlink:href="classqtreports_1_1detail_1_1_converter_to_q_widget.html#a5e49976fe8fac12633ccda1ba928b9b1" target="_top" xlink:title="Проверяет, является ли виджет типа WidgetType::Report. ">
<polygon fill="none" stroke="black" points="606,-196.386 606,-237.386 725,-237.386 725,-196.386 606,-196.386"/>
<text text-anchor="start" x="614" y="-225.386" font-family="Helvetica,sans-Serif" font-size="10.00">qtreports::detail::</text>
<text text-anchor="start" x="614" y="-214.386" font-family="Helvetica,sans-Serif" font-size="10.00">ConverterToQWidget::</text>
<text text-anchor="middle" x="665.5" y="-203.386" font-family="Helvetica,sans-Serif" font-size="10.00">isReport</text>
</a>
</g>
</g>
<!-- Node19&#45;&gt;Node20 -->
<g id="edge29" class="edge"><title>Node19&#45;&gt;Node20</title>
<path fill="none" stroke="midnightblue" d="M570.216,-231.675C578.635,-230.355 587.359,-228.986 595.947,-227.639"/>
<polygon fill="midnightblue" stroke="midnightblue" points="596.604,-231.079 605.941,-226.071 595.519,-224.163 596.604,-231.079"/>
</g>
<!-- Node21&#45;&gt;Node6 -->
<g id="edge31" class="edge"><title>Node21&#45;&gt;Node6</title>
<path fill="none" stroke="midnightblue" d="M725.161,-91.8084C769.427,-89.7627 831.179,-90.7588 883,-105.886 912.666,-114.545 942.735,-132.259 964.962,-147.436"/>
<polygon fill="midnightblue" stroke="midnightblue" points="963.177,-150.459 973.379,-153.319 967.187,-144.721 963.177,-150.459"/>
</g>
<!-- Node21&#45;&gt;Node7 -->
<g id="edge32" class="edge"><title>Node21&#45;&gt;Node7</title>
<path fill="none" stroke="midnightblue" d="M725.351,-109.456C737.476,-112.045 750.243,-114.772 762.361,-117.361"/>
<polygon fill="midnightblue" stroke="midnightblue" points="761.848,-120.83 772.359,-119.496 763.31,-113.984 761.848,-120.83"/>
</g>
</g>
</svg>
        <g id="navigator" transform="translate(0 0)" fill="#404254">
                <rect fill="#f2f5e9" fill-opacity="0.5" stroke="#606060" stroke-width=".5" x="0" y="0" width="60" height="60"/>
                <use id="zoomplus" xlink:href="#zoomPlus" x="17" y="9" onmousedown="handleZoom(evt,'in')"/>
                <use id="zoomminus" xlink:href="#zoomMin" x="42" y="9" onmousedown="handleZoom(evt,'out')"/>
                <use id="reset" xlink:href="#resetDef" x="30" y="36" onmousedown="handleReset()"/>
                <g id="arrowUp" xlink:href="#dirArrow" transform="translate(30 24)" onmousedown="handlePan(0,-1)">
                  <use xlink:href="#rim" fill="#404040">
                        <set attributeName="fill" to="#808080" begin="arrowUp.mouseover" end="arrowUp.mouseout"/>
                  </use>
                  <path fill="none" stroke="white" stroke-width="1.5" d="M0,-3.0v7 M-2.5,-0.5L0,-3.0L2.5,-0.5"/>
                </g>
                <g id="arrowRight" xlink:href="#dirArrow" transform="rotate(90) translate(36 -43)" onmousedown="handlePan(1,0)">
                  <use xlink:href="#rim" fill="#404040">
                        <set attributeName="fill" to="#808080" begin="arrowRight.mouseover" end="arrowRight.mouseout"/>
                  </use>
                  <path fill="none" stroke="white" stroke-width="1.5" d="M0,-3.0v7 M-2.5,-0.5L0,-3.0L2.5,-0.5"/>
                </g>
                <g id="arrowDown" xlink:href="#dirArrow" transform="rotate(180) translate(-30 -48)" onmousedown="handlePan(0,1)">
                  <use xlink:href="#rim" fill="#404040">
                        <set attributeName="fill" to="#808080" begin="arrowDown.mouseover" end="arrowDown.mouseout"/>
                  </use>
                  <path fill="none" stroke="white" stroke-width="1.5" d="M0,-3.0v7 M-2.5,-0.5L0,-3.0L2.5,-0.5"/>
                </g>
                <g id="arrowLeft" xlink:href="#dirArrow" transform="rotate(270) translate(-36 17)" onmousedown="handlePan(-1,0)">
                  <use xlink:href="#rim" fill="#404040">
                        <set attributeName="fill" to="#808080" begin="arrowLeft.mouseover" end="arrowLeft.mouseout"/>
                  </use>
                  <path fill="none" stroke="white" stroke-width="1.5" d="M0,-3.0v7 M-2.5,-0.5L0,-3.0L2.5,-0.5"/>
                </g>
        </g>
        <svg viewBox="0 0 15 15" width="100%" height="30px" preserveAspectRatio="xMaxYMin meet">
         <g id="arrow_out" transform="scale(0.3 0.3)">
          <a xlink:href="classqtreports_1_1_engine_a3966d8f0ebb6c1f94812ec21e21680c0_cgraph_org.svg" target="_base">
           <rect id="button" ry="5" rx="5" y="6" x="6" height="38" width="38"
                fill="#f2f5e9" fill-opacity="0.5" stroke="#606060" stroke-width="1.0"/>
           <path id="arrow"
             d="M 11.500037,31.436501 C 11.940474,20.09759 22.043105,11.32322 32.158766,21.979434 L 37.068811,17.246167 C 37.068811,17.246167 37.088388,32 37.088388,32 L 22.160133,31.978069 C 22.160133,31.978069 26.997745,27.140456 26.997745,27.140456 C 18.528582,18.264221 13.291696,25.230495 11.500037,31.436501 z"
             style="fill:#404040;"/>
          </a>
         </g>
        </svg>
</svg>
