<?xml version="1.0" encoding="UTF-8" standalone="no"?>
<!DOCTYPE svg PUBLIC "-//W3C//DTD SVG 1.1//EN"
 "http://www.w3.org/Graphics/SVG/1.1/DTD/svg11.dtd">
<!-- Generated by graphviz version 2.38.0 (20140413.2041)
 -->
<!-- Title: qtreports::detail::Section Pages: 1 -->
<svg width="309pt" height="496pt"
 viewBox="0.00 0.00 308.50 496.00" xmlns="http://www.w3.org/2000/svg" xmlns:xlink="http://www.w3.org/1999/xlink">
<g id="graph0" class="graph" transform="scale(1 1) rotate(0) translate(4 492)">
<title>qtreports::detail::Section</title>
<!-- Node1 -->
<g id="node1" class="node"><title>Node1</title>
<polygon fill="#bfbfbf" stroke="black" points="125,-0.5 125,-156.5 226,-156.5 226,-0.5 125,-0.5"/>
<text text-anchor="start" x="133" y="-144.5" font-family="Helvetica,sans-Serif" font-size="10.00">qtreports::detail::</text>
<text text-anchor="middle" x="175.5" y="-133.5" font-family="Helvetica,sans-Serif" font-size="10.00">Section</text>
<polyline fill="none" stroke="black" points="125,-126.5 226,-126.5 "/>
<text text-anchor="middle" x="175.5" y="-114.5" font-family="Helvetica,sans-Serif" font-size="10.00"> </text>
<polyline fill="none" stroke="black" points="125,-107.5 226,-107.5 "/>
<text text-anchor="start" x="133" y="-95.5" font-family="Helvetica,sans-Serif" font-size="10.00">+ Section()</text>
<text text-anchor="start" x="133" y="-84.5" font-family="Helvetica,sans-Serif" font-size="10.00">+ ~Section()</text>
<text text-anchor="start" x="133" y="-73.5" font-family="Helvetica,sans-Serif" font-size="10.00">+ setWidth()</text>
<text text-anchor="start" x="133" y="-62.5" font-family="Helvetica,sans-Serif" font-size="10.00">+ getWidth()</text>
<text text-anchor="start" x="133" y="-51.5" font-family="Helvetica,sans-Serif" font-size="10.00">+ getHeight()</text>
<text text-anchor="start" x="133" y="-40.5" font-family="Helvetica,sans-Serif" font-size="10.00">+ addBand()</text>
<text text-anchor="start" x="133" y="-29.5" font-family="Helvetica,sans-Serif" font-size="10.00">+ getBand()</text>
<text text-anchor="start" x="133" y="-18.5" font-family="Helvetica,sans-Serif" font-size="10.00">+ getBandsSize()</text>
<text text-anchor="start" x="133" y="-7.5" font-family="Helvetica,sans-Serif" font-size="10.00">+ getBands()</text>
</g>
<!-- Node2 -->
<g id="node2" class="node"><title>Node2</title>
<g id="a_node2"><a xlink:href="classqtreports_1_1detail_1_1_object.html" target="_top" xlink:title="Базовый класс для любого тэга ">
<polygon fill="none" stroke="black" points="0,-215.5 0,-360.5 99,-360.5 99,-215.5 0,-215.5"/>
<text text-anchor="start" x="8" y="-348.5" font-family="Helvetica,sans-Serif" font-size="10.00">qtreports::detail::</text>
<text text-anchor="middle" x="49.5" y="-337.5" font-family="Helvetica,sans-Serif" font-size="10.00">Object</text>
<polyline fill="none" stroke="black" points="0,-330.5 99,-330.5 "/>
<text text-anchor="middle" x="49.5" y="-318.5" font-family="Helvetica,sans-Serif" font-size="10.00"> </text>
<polyline fill="none" stroke="black" points="0,-311.5 99,-311.5 "/>
<text text-anchor="start" x="8" y="-299.5" font-family="Helvetica,sans-Serif" font-size="10.00">+ Object()</text>
<text text-anchor="start" x="8" y="-288.5" font-family="Helvetica,sans-Serif" font-size="10.00">+ Object()</text>
<text text-anchor="start" x="8" y="-277.5" font-family="Helvetica,sans-Serif" font-size="10.00">+ ~Object()</text>
<text text-anchor="start" x="8" y="-266.5" font-family="Helvetica,sans-Serif" font-size="10.00">+ setName()</text>
<text text-anchor="start" x="8" y="-255.5" font-family="Helvetica,sans-Serif" font-size="10.00">+ getName()</text>
<text text-anchor="start" x="8" y="-244.5" font-family="Helvetica,sans-Serif" font-size="10.00">+ setTagName()</text>
<text text-anchor="start" x="8" y="-233.5" font-family="Helvetica,sans-Serif" font-size="10.00">+ getTagName()</text>
<text text-anchor="start" x="8" y="-222.5" font-family="Helvetica,sans-Serif" font-size="10.00">+ getLastError()</text>
</a>
</g>
</g>
<!-- Node2&#45;&gt;Node1 -->
<g id="edge1" class="edge"><title>Node2&#45;&gt;Node1</title>
<path fill="none" stroke="midnightblue" d="M98.5039,-206.299C108.444,-189.929 118.875,-172.752 128.735,-156.513"/>
<polygon fill="none" stroke="midnightblue" points="95.2372,-204.936 93.0385,-215.3 101.22,-208.569 95.2372,-204.936"/>
</g>
<!-- Node3 -->
<g id="node3" class="node"><title>Node3</title>
<polygon fill="none" stroke="#bfbfbf" points="23,-430.5 23,-487.5 76,-487.5 76,-430.5 23,-430.5"/>
<text text-anchor="middle" x="49.5" y="-475.5" font-family="Helvetica,sans-Serif" font-size="10.00">QString</text>
<polyline fill="none" stroke="#bfbfbf" points="23,-468.5 76,-468.5 "/>
<text text-anchor="middle" x="49.5" y="-456.5" font-family="Helvetica,sans-Serif" font-size="10.00"> </text>
<polyline fill="none" stroke="#bfbfbf" points="23,-449.5 76,-449.5 "/>
<text text-anchor="middle" x="49.5" y="-437.5" font-family="Helvetica,sans-Serif" font-size="10.00"> </text>
</g>
<!-- Node3&#45;&gt;Node2 -->
<g id="edge2" class="edge"><title>Node3&#45;&gt;Node2</title>
<path fill="none" stroke="#404040" d="M49.5,-430.471C49.5,-414.599 49.5,-393.708 49.5,-372.868"/>
<polygon fill="none" stroke="#404040" points="49.5001,-372.642 45.5,-366.642 49.5,-360.642 53.5,-366.642 49.5001,-372.642"/>
<text text-anchor="middle" x="85.5" y="-404" font-family="Helvetica,sans-Serif" font-size="10.00"> #m_tagName</text>
<text text-anchor="middle" x="85.5" y="-393" font-family="Helvetica,sans-Serif" font-size="10.00">#m_name</text>
<text text-anchor="middle" x="85.5" y="-382" font-family="Helvetica,sans-Serif" font-size="10.00">#m_lastError</text>
</g>
<!-- Node4 -->
<g id="node4" class="node"><title>Node4</title>
<polygon fill="none" stroke="#bfbfbf" points="117.5,-259.5 117.5,-316.5 233.5,-316.5 233.5,-259.5 117.5,-259.5"/>
<text text-anchor="middle" x="175.5" y="-304.5" font-family="Helvetica,sans-Serif" font-size="10.00">QVector&lt; BandPtr &gt;</text>
<polyline fill="none" stroke="#bfbfbf" points="117.5,-297.5 233.5,-297.5 "/>
<text text-anchor="middle" x="175.5" y="-285.5" font-family="Helvetica,sans-Serif" font-size="10.00"> </text>
<polyline fill="none" stroke="#bfbfbf" points="117.5,-278.5 233.5,-278.5 "/>
<text text-anchor="middle" x="175.5" y="-266.5" font-family="Helvetica,sans-Serif" font-size="10.00"> </text>
</g>
<!-- Node4&#45;&gt;Node1 -->
<g id="edge3" class="edge"><title>Node4&#45;&gt;Node1</title>
<path fill="none" stroke="#404040" d="M175.5,-259.446C175.5,-236.278 175.5,-201.813 175.5,-169.228"/>
<polygon fill="none" stroke="#404040" points="175.5,-168.859 171.5,-162.859 175.5,-156.859 179.5,-162.859 175.5,-168.859"/>
<text text-anchor="middle" x="203.5" y="-183.5" font-family="Helvetica,sans-Serif" font-size="10.00"> #m_bands</text>
</g>
<!-- Node5 -->
<g id="node5" class="node"><title>Node5</title>
<polygon fill="none" stroke="#bfbfbf" points="251,-259.5 251,-316.5 280,-316.5 280,-259.5 251,-259.5"/>
<text text-anchor="middle" x="265.5" y="-304.5" font-family="Helvetica,sans-Serif" font-size="10.00">int</text>
<polyline fill="none" stroke="#bfbfbf" points="251,-297.5 280,-297.5 "/>
<text text-anchor="middle" x="265.5" y="-285.5" font-family="Helvetica,sans-Serif" font-size="10.00"> </text>
<polyline fill="none" stroke="#bfbfbf" points="251,-278.5 280,-278.5 "/>
<text text-anchor="middle" x="265.5" y="-266.5" font-family="Helvetica,sans-Serif" font-size="10.00"> </text>
</g>
<!-- Node5&#45;&gt;Node1 -->
<g id="edge4" class="edge"><title>Node5&#45;&gt;Node1</title>
<path fill="none" stroke="#404040" d="M260.443,-259.066C255.688,-235.923 247.492,-202.492 235.5,-175 234.267,-172.173 232.959,-169.333 231.589,-166.491"/>
<polygon fill="none" stroke="#404040" points="231.466,-166.249 225.182,-162.712 226.03,-155.551 232.314,-159.088 231.466,-166.249"/>
<text text-anchor="middle" x="272" y="-189" font-family="Helvetica,sans-Serif" font-size="10.00"> #m_height</text>
<text text-anchor="middle" x="272" y="-178" font-family="Helvetica,sans-Serif" font-size="10.00">#m_width</text>
</g>
</g>
</svg>
