<?xml version="1.0" encoding="UTF-8" standalone="no"?>
<!DOCTYPE svg PUBLIC "-//W3C//DTD SVG 1.1//EN"
 "http://www.w3.org/Graphics/SVG/1.1/DTD/svg11.dtd">
<!-- Generated by graphviz version 2.38.0 (20140413.2041)
 -->
<!-- Title: qtreports::detail::ConverterToQWidget::createQWidget Pages: 1 -->
<svg width="1364pt" height="604pt"
 viewBox="0.00 0.00 1364.00 603.86" xmlns="http://www.w3.org/2000/svg" xmlns:xlink="http://www.w3.org/1999/xlink">
<g id="graph0" class="graph" transform="scale(1 1) rotate(0) translate(4 599.862)">
<title>qtreports::detail::ConverterToQWidget::createQWidget</title>
<!-- Node1 -->
<g id="node1" class="node"><title>Node1</title>
<polygon fill="#bfbfbf" stroke="black" points="0,-136.362 0,-177.362 119,-177.362 119,-136.362 0,-136.362"/>
<text text-anchor="start" x="8" y="-165.362" font-family="Helvetica,sans-Serif" font-size="10.00">qtreports::detail::</text>
<text text-anchor="start" x="8" y="-154.362" font-family="Helvetica,sans-Serif" font-size="10.00">ConverterToQWidget::</text>
<text text-anchor="middle" x="59.5" y="-143.362" font-family="Helvetica,sans-Serif" font-size="10.00">createQWidget</text>
</g>
<!-- Node2 -->
<g id="node2" class="node"><title>Node2</title>
<g id="a_node2"><a xlink:href="classqtreports_1_1detail_1_1_converter_to_q_widget.html#a23d6229235fca8bd8bbddcc5e2e28f92" target="_top" xlink:title="Добавляет новую страницу на виджет. ">
<polygon fill="none" stroke="black" points="649.5,-451.362 649.5,-492.362 768.5,-492.362 768.5,-451.362 649.5,-451.362"/>
<text text-anchor="start" x="657.5" y="-480.362" font-family="Helvetica,sans-Serif" font-size="10.00">qtreports::detail::</text>
<text text-anchor="start" x="657.5" y="-469.362" font-family="Helvetica,sans-Serif" font-size="10.00">ConverterToQWidget::</text>
<text text-anchor="middle" x="709" y="-458.362" font-family="Helvetica,sans-Serif" font-size="10.00">addPage</text>
</a>
</g>
</g>
<!-- Node1&#45;&gt;Node2 -->
<g id="edge1" class="edge"><title>Node1&#45;&gt;Node2</title>
<path fill="none" stroke="midnightblue" d="M68.433,-177.607C81.796,-210.123 111.649,-273.345 155,-311.862 294.612,-435.905 525.044,-464.11 639.329,-470.298"/>
<polygon fill="midnightblue" stroke="midnightblue" points="639.191,-473.795 649.353,-470.8 639.541,-466.804 639.191,-473.795"/>
</g>
<!-- Node3 -->
<g id="node3" class="node"><title>Node3</title>
<g id="a_node3"><a xlink:href="classqtreports_1_1detail_1_1_converter_to_q_widget.html#af350953efb07bf3393c33846a81b1121" target="_top" xlink:title="Добавляет вертикальную границу. ">
<polygon fill="none" stroke="black" points="310,-136.362 310,-177.362 429,-177.362 429,-136.362 310,-136.362"/>
<text text-anchor="start" x="318" y="-165.362" font-family="Helvetica,sans-Serif" font-size="10.00">qtreports::detail::</text>
<text text-anchor="start" x="318" y="-154.362" font-family="Helvetica,sans-Serif" font-size="10.00">ConverterToQWidget::</text>
<text text-anchor="middle" x="369.5" y="-143.362" font-family="Helvetica,sans-Serif" font-size="10.00">addVerticalBorder</text>
</a>
</g>
</g>
<!-- Node1&#45;&gt;Node3 -->
<g id="edge2" class="edge"><title>Node1&#45;&gt;Node3</title>
<path fill="none" stroke="midnightblue" d="M119.157,-156.862C170.562,-156.862 245.333,-156.862 299.579,-156.862"/>
<polygon fill="midnightblue" stroke="midnightblue" points="299.799,-160.362 309.799,-156.862 299.799,-153.362 299.799,-160.362"/>
</g>
<!-- Node4 -->
<g id="node4" class="node"><title>Node4</title>
<g id="a_node4"><a xlink:href="classqtreports_1_1detail_1_1_converter_to_q_widget.html#a76bb37f2855d12afc9056c75cdbc5e0b" target="_top" xlink:title="Проверяет, является ли виджет типа WidgetType::Layout. ">
<polygon fill="none" stroke="black" points="649.5,-153.362 649.5,-194.362 768.5,-194.362 768.5,-153.362 649.5,-153.362"/>
<text text-anchor="start" x="657.5" y="-182.362" font-family="Helvetica,sans-Serif" font-size="10.00">qtreports::detail::</text>
<text text-anchor="start" x="657.5" y="-171.362" font-family="Helvetica,sans-Serif" font-size="10.00">ConverterToQWidget::</text>
<text text-anchor="middle" x="709" y="-160.362" font-family="Helvetica,sans-Serif" font-size="10.00">isLayout</text>
</a>
</g>
</g>
<!-- Node1&#45;&gt;Node4 -->
<g id="edge5" class="edge"><title>Node1&#45;&gt;Node4</title>
<path fill="none" stroke="midnightblue" d="M77.4167,-136.302C95.0038,-116.046 124.224,-85.3775 155,-65.8621 260.201,0.846909 305.387,8.54213 429,-6.86208 500.882,-15.8197 524.455,-10.3193 587,-46.8621 629.599,-71.7515 666.741,-116.001 688.271,-145.139"/>
<polygon fill="midnightblue" stroke="midnightblue" points="685.479,-147.25 694.181,-153.293 691.147,-143.142 685.479,-147.25"/>
</g>
<!-- Node6 -->
<g id="node6" class="node"><title>Node6</title>
<g id="a_node6"><a xlink:href="classqtreports_1_1detail_1_1_converter_to_q_widget.html#ae126b16c5a846e84f12d86ca8ef253dd" target="_top" xlink:title="Добавляет секцию. ">
<polygon fill="none" stroke="black" points="310,-76.3621 310,-117.362 429,-117.362 429,-76.3621 310,-76.3621"/>
<text text-anchor="start" x="318" y="-105.362" font-family="Helvetica,sans-Serif" font-size="10.00">qtreports::detail::</text>
<text text-anchor="start" x="318" y="-94.3621" font-family="Helvetica,sans-Serif" font-size="10.00">ConverterToQWidget::</text>
<text text-anchor="middle" x="369.5" y="-83.3621" font-family="Helvetica,sans-Serif" font-size="10.00">addSectionLayout</text>
</a>
</g>
</g>
<!-- Node1&#45;&gt;Node6 -->
<g id="edge6" class="edge"><title>Node1&#45;&gt;Node6</title>
<path fill="none" stroke="midnightblue" d="M119.157,-145.435C170.669,-135.401 245.644,-120.795 299.917,-110.222"/>
<polygon fill="midnightblue" stroke="midnightblue" points="300.653,-113.645 309.799,-108.297 299.315,-106.774 300.653,-113.645"/>
</g>
<!-- Node7 -->
<g id="node7" class="node"><title>Node7</title>
<g id="a_node7"><a xlink:href="classqtreports_1_1detail_1_1_converter_to_q_widget.html#a3c95daf9bd10efc4feb71e0d976bbd6e" target="_top" xlink:title="Создает секцию. ">
<polygon fill="none" stroke="black" points="310,-332.362 310,-373.362 429,-373.362 429,-332.362 310,-332.362"/>
<text text-anchor="start" x="318" y="-361.362" font-family="Helvetica,sans-Serif" font-size="10.00">qtreports::detail::</text>
<text text-anchor="start" x="318" y="-350.362" font-family="Helvetica,sans-Serif" font-size="10.00">ConverterToQWidget::</text>
<text text-anchor="middle" x="369.5" y="-339.362" font-family="Helvetica,sans-Serif" font-size="10.00">createSection</text>
</a>
</g>
</g>
<!-- Node1&#45;&gt;Node7 -->
<g id="edge9" class="edge"><title>Node1&#45;&gt;Node7</title>
<path fill="none" stroke="midnightblue" d="M73.4317,-177.752C89.7178,-202.532 119.86,-243.648 155,-268.862 198.777,-300.273 255.9,-321.942 300.043,-335.395"/>
<polygon fill="midnightblue" stroke="midnightblue" points="299.242,-338.808 309.825,-338.306 301.239,-332.099 299.242,-338.808"/>
</g>
<!-- Node23 -->
<g id="node23" class="node"><title>Node23</title>
<g id="a_node23"><a xlink:href="classqtreports_1_1detail_1_1_converter_to_q_widget.html#ac98aceb5ee703053d7691029da84e296" target="_top" xlink:title="Функция добавления группировок в отчет. ">
<polygon fill="none" stroke="black" points="155,-218.362 155,-259.362 274,-259.362 274,-218.362 155,-218.362"/>
<text text-anchor="start" x="163" y="-247.362" font-family="Helvetica,sans-Serif" font-size="10.00">qtreports::detail::</text>
<text text-anchor="start" x="163" y="-236.362" font-family="Helvetica,sans-Serif" font-size="10.00">ConverterToQWidget::</text>
<text text-anchor="middle" x="214.5" y="-225.362" font-family="Helvetica,sans-Serif" font-size="10.00">addGroupsIntoReport</text>
</a>
</g>
</g>
<!-- Node1&#45;&gt;Node23 -->
<g id="edge33" class="edge"><title>Node1&#45;&gt;Node23</title>
<path fill="none" stroke="midnightblue" d="M99.1084,-177.554C119.48,-188.472 144.648,-201.961 166.186,-213.504"/>
<polygon fill="midnightblue" stroke="midnightblue" points="164.702,-216.68 175.169,-218.319 168.009,-210.51 164.702,-216.68"/>
</g>
<!-- Node25 -->
<g id="node25" class="node"><title>Node25</title>
<g id="a_node25"><a xlink:href="classqtreports_1_1detail_1_1_converter_to_q_widget.html#a21d211f4a1f0f46f2220a0959c36367b" target="_top" xlink:title="Добавляет пустую секцию. ">
<polygon fill="none" stroke="black" points="310,-16.3621 310,-57.3621 429,-57.3621 429,-16.3621 310,-16.3621"/>
<text text-anchor="start" x="318" y="-45.3621" font-family="Helvetica,sans-Serif" font-size="10.00">qtreports::detail::</text>
<text text-anchor="start" x="318" y="-34.3621" font-family="Helvetica,sans-Serif" font-size="10.00">ConverterToQWidget::</text>
<text text-anchor="middle" x="369.5" y="-23.3621" font-family="Helvetica,sans-Serif" font-size="10.00">addEmptySection</text>
</a>
</g>
</g>
<!-- Node1&#45;&gt;Node25 -->
<g id="edge39" class="edge"><title>Node1&#45;&gt;Node25</title>
<path fill="none" stroke="midnightblue" d="M102.464,-136.294C118.722,-128.598 137.584,-119.998 155,-112.862 202.962,-93.2104 258.099,-73.6583 300.326,-59.3074"/>
<polygon fill="midnightblue" stroke="midnightblue" points="301.599,-62.5718 309.949,-56.0509 299.355,-55.9411 301.599,-62.5718"/>
</g>
<!-- Node3&#45;&gt;Node4 -->
<g id="edge3" class="edge"><title>Node3&#45;&gt;Node4</title>
<path fill="none" stroke="midnightblue" d="M429.288,-159.823C487.788,-162.77 577.517,-167.29 639.276,-170.4"/>
<polygon fill="midnightblue" stroke="midnightblue" points="639.157,-173.899 649.32,-170.906 639.509,-166.908 639.157,-173.899"/>
</g>
<!-- Node5 -->
<g id="node5" class="node"><title>Node5</title>
<g id="a_node5"><a xlink:href="namespaceqtreports_1_1detail.html#a57ac54d6807a30b13e419a3106735b19" target="_top" xlink:title="qtreports::detail::\lcreateLayout">
<polygon fill="none" stroke="black" points="476.5,-114.862 476.5,-144.862 575.5,-144.862 575.5,-114.862 476.5,-114.862"/>
<text text-anchor="start" x="484.5" y="-132.862" font-family="Helvetica,sans-Serif" font-size="10.00">qtreports::detail::</text>
<text text-anchor="middle" x="526" y="-121.862" font-family="Helvetica,sans-Serif" font-size="10.00">createLayout</text>
</a>
</g>
</g>
<!-- Node3&#45;&gt;Node5 -->
<g id="edge4" class="edge"><title>Node3&#45;&gt;Node5</title>
<path fill="none" stroke="midnightblue" d="M429.351,-146.578C441.476,-144.459 454.243,-142.227 466.361,-140.11"/>
<polygon fill="midnightblue" stroke="midnightblue" points="467.111,-143.532 476.359,-138.362 465.905,-136.636 467.111,-143.532"/>
</g>
<!-- Node6&#45;&gt;Node4 -->
<g id="edge7" class="edge"><title>Node6&#45;&gt;Node4</title>
<path fill="none" stroke="midnightblue" d="M429.11,-91.5697C473.351,-89.3483 535.092,-90.0709 587,-104.862 617.933,-113.677 649.386,-131.958 672.469,-147.489"/>
<polygon fill="midnightblue" stroke="midnightblue" points="670.665,-150.497 680.887,-153.282 674.633,-144.73 670.665,-150.497"/>
</g>
<!-- Node6&#45;&gt;Node5 -->
<g id="edge8" class="edge"><title>Node6&#45;&gt;Node5</title>
<path fill="none" stroke="midnightblue" d="M429.351,-109.432C441.476,-112.022 454.243,-114.749 466.361,-117.337"/>
<polygon fill="midnightblue" stroke="midnightblue" points="465.848,-120.807 476.359,-119.473 467.31,-113.961 465.848,-120.807"/>
</g>
<!-- Node7&#45;&gt;Node4 -->
<g id="edge10" class="edge"><title>Node7&#45;&gt;Node4</title>
<path fill="none" stroke="midnightblue" d="M411.846,-332.254C455.596,-310.311 526.531,-274.339 587,-241.862 612.488,-228.173 640.683,-212.367 663.44,-199.441"/>
<polygon fill="midnightblue" stroke="midnightblue" points="665.236,-202.446 672.196,-194.457 661.774,-196.362 665.236,-202.446"/>
</g>
<!-- Node8 -->
<g id="node8" class="node"><title>Node8</title>
<g id="a_node8"><a xlink:href="classqtreports_1_1detail_1_1_replacer.html#af7ccb83be264f7c72b7485cf38455450" target="_top" xlink:title="Заменяет текст всех виджетов секции текстом с подставленными значениями. ">
<polygon fill="none" stroke="black" points="476.5,-510.862 476.5,-540.862 575.5,-540.862 575.5,-510.862 476.5,-510.862"/>
<text text-anchor="start" x="484.5" y="-528.862" font-family="Helvetica,sans-Serif" font-size="10.00">qtreports::detail::</text>
<text text-anchor="middle" x="526" y="-517.862" font-family="Helvetica,sans-Serif" font-size="10.00">Replacer::replace</text>
</a>
</g>
</g>
<!-- Node7&#45;&gt;Node8 -->
<g id="edge11" class="edge"><title>Node7&#45;&gt;Node8</title>
<path fill="none" stroke="midnightblue" d="M388.83,-373.387C417.838,-405.868 474.136,-468.907 504.464,-502.867"/>
<polygon fill="midnightblue" stroke="midnightblue" points="501.958,-505.316 511.23,-510.443 507.179,-500.653 501.958,-505.316"/>
</g>
<!-- Node15 -->
<g id="node15" class="node"><title>Node15</title>
<g id="a_node15"><a xlink:href="classqtreports_1_1detail_1_1_replacer.html#a677f7802e444f2de3af4cb43b6cedf30" target="_top" xlink:title="Возвращает описание последней произошедшей ошибки. ">
<polygon fill="none" stroke="black" points="465,-391.862 465,-421.862 587,-421.862 587,-391.862 465,-391.862"/>
<text text-anchor="start" x="473" y="-409.862" font-family="Helvetica,sans-Serif" font-size="10.00">qtreports::detail::</text>
<text text-anchor="middle" x="526" y="-398.862" font-family="Helvetica,sans-Serif" font-size="10.00">Replacer::getLastError</text>
</a>
</g>
</g>
<!-- Node7&#45;&gt;Node15 -->
<g id="edge18" class="edge"><title>Node7&#45;&gt;Node15</title>
<path fill="none" stroke="midnightblue" d="M429.351,-373.431C443.349,-378.324 458.204,-383.516 471.926,-388.312"/>
<polygon fill="midnightblue" stroke="midnightblue" points="471.095,-391.729 481.69,-391.725 473.405,-385.121 471.095,-391.729"/>
</g>
<!-- Node16 -->
<g id="node16" class="node"><title>Node16</title>
<g id="a_node16"><a xlink:href="classqtreports_1_1detail_1_1_converter_to_q_widget.html#aa3be16e037533a4a5b58596087207187" target="_top" xlink:title="Создает band. ">
<polygon fill="none" stroke="black" points="466.5,-332.362 466.5,-373.362 585.5,-373.362 585.5,-332.362 466.5,-332.362"/>
<text text-anchor="start" x="474.5" y="-361.362" font-family="Helvetica,sans-Serif" font-size="10.00">qtreports::detail::</text>
<text text-anchor="start" x="474.5" y="-350.362" font-family="Helvetica,sans-Serif" font-size="10.00">ConverterToQWidget::</text>
<text text-anchor="middle" x="526" y="-339.362" font-family="Helvetica,sans-Serif" font-size="10.00">createBands</text>
</a>
</g>
</g>
<!-- Node7&#45;&gt;Node16 -->
<g id="edge19" class="edge"><title>Node7&#45;&gt;Node16</title>
<path fill="none" stroke="midnightblue" d="M429.351,-352.862C438.149,-352.862 447.285,-352.862 456.266,-352.862"/>
<polygon fill="midnightblue" stroke="midnightblue" points="456.313,-356.362 466.313,-352.862 456.313,-349.362 456.313,-356.362"/>
</g>
<!-- Node9 -->
<g id="node9" class="node"><title>Node9</title>
<g id="a_node9"><a xlink:href="classqtreports_1_1detail_1_1_replacer.html#a58cf857aa78eb3e273f6543769af425b" target="_top" xlink:title="Заменяет текст всех виджетов секции текстом с подставленными значениями полей из источника данных...">
<polygon fill="none" stroke="black" points="627,-559.862 627,-589.862 791,-589.862 791,-559.862 627,-559.862"/>
<text text-anchor="start" x="635" y="-577.862" font-family="Helvetica,sans-Serif" font-size="10.00">qtreports::detail::</text>
<text text-anchor="middle" x="709" y="-566.862" font-family="Helvetica,sans-Serif" font-size="10.00">Replacer::replaceFieldInSection</text>
</a>
</g>
</g>
<!-- Node8&#45;&gt;Node9 -->
<g id="edge12" class="edge"><title>Node8&#45;&gt;Node9</title>
<path fill="none" stroke="midnightblue" d="M575.505,-538.993C596.12,-544.574 620.47,-551.166 642.636,-557.167"/>
<polygon fill="midnightblue" stroke="midnightblue" points="641.746,-560.552 652.314,-559.787 643.576,-553.795 641.746,-560.552"/>
</g>
<!-- Node14 -->
<g id="node14" class="node"><title>Node14</title>
<g id="a_node14"><a xlink:href="classqtreports_1_1detail_1_1_replacer.html#abb903f1c1172efa7e26b040a5695cc86" target="_top" xlink:title="Возвращает текст с подставленными значениями параметров. ">
<polygon fill="none" stroke="black" points="632,-510.862 632,-540.862 786,-540.862 786,-510.862 632,-510.862"/>
<text text-anchor="start" x="640" y="-528.862" font-family="Helvetica,sans-Serif" font-size="10.00">qtreports::detail::</text>
<text text-anchor="middle" x="709" y="-517.862" font-family="Helvetica,sans-Serif" font-size="10.00">Replacer::replaceParameters</text>
</a>
</g>
</g>
<!-- Node8&#45;&gt;Node14 -->
<g id="edge17" class="edge"><title>Node8&#45;&gt;Node14</title>
<path fill="none" stroke="midnightblue" d="M575.505,-525.862C589.678,-525.862 605.617,-525.862 621.398,-525.862"/>
<polygon fill="midnightblue" stroke="midnightblue" points="621.725,-529.362 631.725,-525.862 621.725,-522.362 621.725,-529.362"/>
</g>
<!-- Node10 -->
<g id="node10" class="node"><title>Node10</title>
<g id="a_node10"><a xlink:href="classqtreports_1_1detail_1_1_replacer.html#a2be57bd514335f9b9f2a520247562ce1" target="_top" xlink:title="Заменяет текст виджета текстом с подставленными значениями полей из источника данных. ">
<polygon fill="none" stroke="black" points="1046,-496.362 1046,-537.362 1192,-537.362 1192,-496.362 1046,-496.362"/>
<text text-anchor="start" x="1054" y="-525.362" font-family="Helvetica,sans-Serif" font-size="10.00">qtreports::detail::</text>
<text text-anchor="start" x="1054" y="-514.362" font-family="Helvetica,sans-Serif" font-size="10.00">Replacer::replaceFieldInText</text>
<text text-anchor="middle" x="1119" y="-503.362" font-family="Helvetica,sans-Serif" font-size="10.00">Widget</text>
</a>
</g>
</g>
<!-- Node9&#45;&gt;Node10 -->
<g id="edge13" class="edge"><title>Node9&#45;&gt;Node10</title>
<path fill="none" stroke="midnightblue" d="M763.554,-559.801C784.455,-554.394 808.71,-548.692 831,-544.862 899.538,-533.087 978.198,-525.846 1035.82,-521.686"/>
<polygon fill="midnightblue" stroke="midnightblue" points="1036.23,-525.166 1045.96,-520.97 1035.74,-518.183 1036.23,-525.166"/>
</g>
<!-- Node12 -->
<g id="node12" class="node"><title>Node12</title>
<g id="a_node12"><a xlink:href="classqtreports_1_1detail_1_1_replacer.html#a4aeb7794f90c0be34a30ab60a6df1920" target="_top" xlink:title="На основе текста виджета вставляет в него изображение из источника данных. ">
<polygon fill="none" stroke="black" points="837,-554.362 837,-595.362 995,-595.362 995,-554.362 837,-554.362"/>
<text text-anchor="start" x="845" y="-583.362" font-family="Helvetica,sans-Serif" font-size="10.00">qtreports::detail::</text>
<text text-anchor="start" x="845" y="-572.362" font-family="Helvetica,sans-Serif" font-size="10.00">Replacer::replaceFieldInImage</text>
<text text-anchor="middle" x="916" y="-561.362" font-family="Helvetica,sans-Serif" font-size="10.00">Widget</text>
</a>
</g>
</g>
<!-- Node9&#45;&gt;Node12 -->
<g id="edge15" class="edge"><title>Node9&#45;&gt;Node12</title>
<path fill="none" stroke="midnightblue" d="M791.021,-574.862C802.707,-574.862 814.783,-574.862 826.603,-574.862"/>
<polygon fill="midnightblue" stroke="midnightblue" points="826.909,-578.362 836.909,-574.862 826.909,-571.362 826.909,-578.362"/>
</g>
<!-- Node11 -->
<g id="node11" class="node"><title>Node11</title>
<g id="a_node11"><a xlink:href="classqtreports_1_1detail_1_1_replacer.html#a4642b07160798f2ee4de276e1d0c1ecd" target="_top" xlink:title="Возвращает текст с подставленными значениями полей из источника данных. ">
<polygon fill="none" stroke="black" points="1237,-384.862 1237,-414.862 1356,-414.862 1356,-384.862 1237,-384.862"/>
<text text-anchor="start" x="1245" y="-402.862" font-family="Helvetica,sans-Serif" font-size="10.00">qtreports::detail::</text>
<text text-anchor="middle" x="1296.5" y="-391.862" font-family="Helvetica,sans-Serif" font-size="10.00">Replacer::replaceField</text>
</a>
</g>
</g>
<!-- Node10&#45;&gt;Node11 -->
<g id="edge14" class="edge"><title>Node10&#45;&gt;Node11</title>
<path fill="none" stroke="midnightblue" d="M1173.91,-496.336C1183.2,-492.027 1192.57,-487.162 1201,-481.862 1228.19,-464.765 1255.5,-440.059 1273.72,-422.24"/>
<polygon fill="midnightblue" stroke="midnightblue" points="1276.31,-424.596 1280.94,-415.067 1271.38,-419.629 1276.31,-424.596"/>
</g>
<!-- Node13 -->
<g id="node13" class="node"><title>Node13</title>
<g id="a_node13"><a xlink:href="classqtreports_1_1detail_1_1_replacer.html#ae1ac521aeaf5fdd694e79e2ae52d4704" target="_top" xlink:title="Возвращает изображение на основе первого найденного выражения. ">
<polygon fill="none" stroke="black" points="1044.5,-559.862 1044.5,-589.862 1193.5,-589.862 1193.5,-559.862 1044.5,-559.862"/>
<text text-anchor="start" x="1052.5" y="-577.862" font-family="Helvetica,sans-Serif" font-size="10.00">qtreports::detail::</text>
<text text-anchor="middle" x="1119" y="-566.862" font-family="Helvetica,sans-Serif" font-size="10.00">Replacer::replaceFieldImage</text>
</a>
</g>
</g>
<!-- Node12&#45;&gt;Node13 -->
<g id="edge16" class="edge"><title>Node12&#45;&gt;Node13</title>
<path fill="none" stroke="midnightblue" d="M995.287,-574.862C1007.99,-574.862 1021.18,-574.862 1034.01,-574.862"/>
<polygon fill="midnightblue" stroke="midnightblue" points="1034.2,-578.362 1044.2,-574.862 1034.2,-571.362 1034.2,-578.362"/>
</g>
<!-- Node16&#45;&gt;Node2 -->
<g id="edge20" class="edge"><title>Node16&#45;&gt;Node2</title>
<path fill="none" stroke="midnightblue" d="M575.637,-373.437C579.668,-376 583.523,-378.808 587,-381.862 608.95,-401.142 600.485,-418.245 623,-436.862 628.206,-441.167 634.014,-445.005 640.083,-448.413"/>
<polygon fill="midnightblue" stroke="midnightblue" points="638.633,-451.604 649.122,-453.103 641.857,-445.39 638.633,-451.604"/>
</g>
<!-- Node16&#45;&gt;Node4 -->
<g id="edge21" class="edge"><title>Node16&#45;&gt;Node4</title>
<path fill="none" stroke="midnightblue" d="M547.763,-332.329C580.272,-300.179 643.243,-237.903 679.818,-201.733"/>
<polygon fill="midnightblue" stroke="midnightblue" points="682.552,-203.951 687.201,-194.431 677.63,-198.974 682.552,-203.951"/>
</g>
<!-- Node17 -->
<g id="node17" class="node"><title>Node17</title>
<g id="a_node17"><a xlink:href="classqtreports_1_1detail_1_1_replacer.html#aa9fa83cf51d75301b62e11a0a93e2dcc" target="_top" xlink:title="qtreports::detail::\lReplacer::replaceColumnGroups\lInCrosstab">
<polygon fill="none" stroke="black" points="831,-325.362 831,-366.362 1001,-366.362 1001,-325.362 831,-325.362"/>
<text text-anchor="start" x="839" y="-354.362" font-family="Helvetica,sans-Serif" font-size="10.00">qtreports::detail::</text>
<text text-anchor="start" x="839" y="-343.362" font-family="Helvetica,sans-Serif" font-size="10.00">Replacer::replaceColumnGroups</text>
<text text-anchor="middle" x="916" y="-332.362" font-family="Helvetica,sans-Serif" font-size="10.00">InCrosstab</text>
</a>
</g>
</g>
<!-- Node16&#45;&gt;Node17 -->
<g id="edge22" class="edge"><title>Node16&#45;&gt;Node17</title>
<path fill="none" stroke="midnightblue" d="M585.508,-351.807C647.783,-350.683 747.263,-348.888 820.64,-347.564"/>
<polygon fill="midnightblue" stroke="midnightblue" points="820.878,-351.061 830.814,-347.381 820.752,-344.062 820.878,-351.061"/>
</g>
<!-- Node19 -->
<g id="node19" class="node"><title>Node19</title>
<g id="a_node19"><a xlink:href="classqtreports_1_1detail_1_1_replacer.html#ae0f12ba0e77e9ef89b9479272e843fe6" target="_top" xlink:title="qtreports::detail::\lReplacer::replaceRowGroups\lInCrosstab">
<polygon fill="none" stroke="black" points="840.5,-433.362 840.5,-474.362 991.5,-474.362 991.5,-433.362 840.5,-433.362"/>
<text text-anchor="start" x="848.5" y="-462.362" font-family="Helvetica,sans-Serif" font-size="10.00">qtreports::detail::</text>
<text text-anchor="start" x="848.5" y="-451.362" font-family="Helvetica,sans-Serif" font-size="10.00">Replacer::replaceRowGroups</text>
<text text-anchor="middle" x="916" y="-440.362" font-family="Helvetica,sans-Serif" font-size="10.00">InCrosstab</text>
</a>
</g>
</g>
<!-- Node16&#45;&gt;Node19 -->
<g id="edge25" class="edge"><title>Node16&#45;&gt;Node19</title>
<path fill="none" stroke="midnightblue" d="M570.462,-373.373C576.061,-376.16 581.689,-379.035 587,-381.862 603.351,-390.566 605.603,-396.502 623,-402.862 660.16,-416.447 758.029,-432.113 830.27,-442.458"/>
<polygon fill="midnightblue" stroke="midnightblue" points="829.891,-445.939 840.284,-443.881 830.876,-439.009 829.891,-445.939"/>
</g>
<!-- Node21 -->
<g id="node21" class="node"><title>Node21</title>
<g id="a_node21"><a xlink:href="classqtreports_1_1detail_1_1_replacer.html#a5dc72251354d389091776142436ebd22" target="_top" xlink:title="qtreports::detail::\lReplacer::replaceCellsInCrosstab">
<polygon fill="none" stroke="black" points="623,-363.862 623,-393.862 795,-393.862 795,-363.862 623,-363.862"/>
<text text-anchor="start" x="631" y="-381.862" font-family="Helvetica,sans-Serif" font-size="10.00">qtreports::detail::</text>
<text text-anchor="middle" x="709" y="-370.862" font-family="Helvetica,sans-Serif" font-size="10.00">Replacer::replaceCellsInCrosstab</text>
</a>
</g>
</g>
<!-- Node16&#45;&gt;Node21 -->
<g id="edge28" class="edge"><title>Node16&#45;&gt;Node21</title>
<path fill="none" stroke="midnightblue" d="M585.766,-361.304C594.483,-362.556 603.651,-363.873 612.882,-365.199"/>
<polygon fill="midnightblue" stroke="midnightblue" points="612.51,-368.681 622.907,-366.639 613.506,-361.752 612.51,-368.681"/>
</g>
<!-- Node18 -->
<g id="node18" class="node"><title>Node18</title>
<g id="a_node18"><a xlink:href="classqtreports_1_1detail_1_1_replacer.html#a781b476a4e964da9e5afe4f642b2f275" target="_top" xlink:title="qtreports::detail::\lReplacer::replaceColumnGroup\lInCrosstab">
<polygon fill="none" stroke="black" points="1037,-328.362 1037,-369.362 1201,-369.362 1201,-328.362 1037,-328.362"/>
<text text-anchor="start" x="1045" y="-357.362" font-family="Helvetica,sans-Serif" font-size="10.00">qtreports::detail::</text>
<text text-anchor="start" x="1045" y="-346.362" font-family="Helvetica,sans-Serif" font-size="10.00">Replacer::replaceColumnGroup</text>
<text text-anchor="middle" x="1119" y="-335.362" font-family="Helvetica,sans-Serif" font-size="10.00">InCrosstab</text>
</a>
</g>
</g>
<!-- Node17&#45;&gt;Node18 -->
<g id="edge23" class="edge"><title>Node17&#45;&gt;Node18</title>
<path fill="none" stroke="midnightblue" d="M1001.08,-347.117C1009.58,-347.244 1018.25,-347.373 1026.82,-347.501"/>
<polygon fill="midnightblue" stroke="midnightblue" points="1026.78,-351.001 1036.83,-347.651 1026.89,-344.002 1026.78,-351.001"/>
</g>
<!-- Node18&#45;&gt;Node11 -->
<g id="edge24" class="edge"><title>Node18&#45;&gt;Node11</title>
<path fill="none" stroke="midnightblue" d="M1190.62,-369.385C1204.88,-373.528 1219.76,-377.853 1233.69,-381.9"/>
<polygon fill="midnightblue" stroke="midnightblue" points="1233.06,-385.361 1243.64,-384.791 1235.01,-378.639 1233.06,-385.361"/>
</g>
<!-- Node20 -->
<g id="node20" class="node"><title>Node20</title>
<g id="a_node20"><a xlink:href="classqtreports_1_1detail_1_1_replacer.html#a2114b58c90fe02b17e7bf99e144013b6" target="_top" xlink:title="qtreports::detail::\lReplacer::replaceRowGroupIn\lCrosstab">
<polygon fill="none" stroke="black" points="1042,-431.362 1042,-472.362 1196,-472.362 1196,-431.362 1042,-431.362"/>
<text text-anchor="start" x="1050" y="-460.362" font-family="Helvetica,sans-Serif" font-size="10.00">qtreports::detail::</text>
<text text-anchor="start" x="1050" y="-449.362" font-family="Helvetica,sans-Serif" font-size="10.00">Replacer::replaceRowGroupIn</text>
<text text-anchor="middle" x="1119" y="-438.362" font-family="Helvetica,sans-Serif" font-size="10.00">Crosstab</text>
</a>
</g>
</g>
<!-- Node19&#45;&gt;Node20 -->
<g id="edge26" class="edge"><title>Node19&#45;&gt;Node20</title>
<path fill="none" stroke="midnightblue" d="M991.559,-453.12C1004.65,-452.99 1018.36,-452.853 1031.74,-452.72"/>
<polygon fill="midnightblue" stroke="midnightblue" points="1031.92,-456.219 1041.88,-452.619 1031.85,-449.219 1031.92,-456.219"/>
</g>
<!-- Node20&#45;&gt;Node11 -->
<g id="edge27" class="edge"><title>Node20&#45;&gt;Node11</title>
<path fill="none" stroke="midnightblue" d="M1189.36,-431.31C1204.39,-426.859 1220.16,-422.184 1234.82,-417.84"/>
<polygon fill="midnightblue" stroke="midnightblue" points="1236.18,-421.09 1244.77,-414.893 1234.19,-414.378 1236.18,-421.09"/>
</g>
<!-- Node21&#45;&gt;Node17 -->
<g id="edge30" class="edge"><title>Node21&#45;&gt;Node17</title>
<path fill="none" stroke="midnightblue" d="M795.158,-365.154C803.618,-363.792 812.24,-362.404 820.786,-361.028"/>
<polygon fill="midnightblue" stroke="midnightblue" points="821.45,-364.466 830.767,-359.422 820.338,-357.555 821.45,-364.466"/>
</g>
<!-- Node21&#45;&gt;Node19 -->
<g id="edge29" class="edge"><title>Node21&#45;&gt;Node19</title>
<path fill="none" stroke="midnightblue" d="M754.287,-393.97C767.446,-398.6 781.854,-403.808 795,-408.862 811.179,-415.082 814.833,-417.612 831,-423.862 836.055,-425.816 841.298,-427.797 846.583,-429.761"/>
<polygon fill="midnightblue" stroke="midnightblue" points="845.517,-433.098 856.11,-433.266 847.934,-426.528 845.517,-433.098"/>
</g>
<!-- Node22 -->
<g id="node22" class="node"><title>Node22</title>
<g id="a_node22"><a xlink:href="classqtreports_1_1detail_1_1_replacer.html#a9ad7270fd6bdb9a2ba85bdc9652968c8" target="_top" xlink:title="qtreports::detail::\lReplacer::replaceCellInCrosstab">
<polygon fill="none" stroke="black" points="832.5,-384.862 832.5,-414.862 999.5,-414.862 999.5,-384.862 832.5,-384.862"/>
<text text-anchor="start" x="840.5" y="-402.862" font-family="Helvetica,sans-Serif" font-size="10.00">qtreports::detail::</text>
<text text-anchor="middle" x="916" y="-391.862" font-family="Helvetica,sans-Serif" font-size="10.00">Replacer::replaceCellInCrosstab</text>
</a>
</g>
</g>
<!-- Node21&#45;&gt;Node22 -->
<g id="edge31" class="edge"><title>Node21&#45;&gt;Node22</title>
<path fill="none" stroke="midnightblue" d="M795.158,-387.586C804.109,-388.503 813.243,-389.438 822.274,-390.363"/>
<polygon fill="midnightblue" stroke="midnightblue" points="822.108,-393.865 832.413,-391.402 822.821,-386.901 822.108,-393.865"/>
</g>
<!-- Node22&#45;&gt;Node11 -->
<g id="edge32" class="edge"><title>Node22&#45;&gt;Node11</title>
<path fill="none" stroke="midnightblue" d="M999.596,-399.862C1067.49,-399.862 1162.57,-399.862 1226.46,-399.862"/>
<polygon fill="midnightblue" stroke="midnightblue" points="1226.83,-403.362 1236.83,-399.862 1226.83,-396.362 1226.83,-403.362"/>
</g>
<!-- Node23&#45;&gt;Node4 -->
<g id="edge35" class="edge"><title>Node23&#45;&gt;Node4</title>
<path fill="none" stroke="midnightblue" d="M274.179,-244.604C286.026,-245.545 298.403,-246.372 310,-246.862 362.842,-249.095 376.543,-253.611 429,-246.862 502.197,-237.445 583.598,-214.671 639.489,-197.043"/>
<polygon fill="midnightblue" stroke="midnightblue" points="640.807,-200.297 649.274,-193.928 638.683,-193.627 640.807,-200.297"/>
</g>
<!-- Node23&#45;&gt;Node6 -->
<g id="edge36" class="edge"><title>Node23&#45;&gt;Node6</title>
<path fill="none" stroke="midnightblue" d="M229.165,-218.121C245.945,-193.863 276.35,-153.626 310,-126.862 311.574,-125.61 313.209,-124.388 314.889,-123.198"/>
<polygon fill="midnightblue" stroke="midnightblue" points="317.124,-125.919 323.587,-117.523 313.299,-120.056 317.124,-125.919"/>
</g>
<!-- Node23&#45;&gt;Node7 -->
<g id="edge37" class="edge"><title>Node23&#45;&gt;Node7</title>
<path fill="none" stroke="midnightblue" d="M237.991,-259.392C256.647,-275.992 284.2,-299.532 310,-317.862 314.233,-320.87 318.733,-323.874 323.285,-326.789"/>
<polygon fill="midnightblue" stroke="midnightblue" points="321.709,-329.931 332.045,-332.259 325.417,-323.994 321.709,-329.931"/>
</g>
<!-- Node23&#45;&gt;Node11 -->
<g id="edge34" class="edge"><title>Node23&#45;&gt;Node11</title>
<path fill="none" stroke="midnightblue" d="M274.129,-255.549C285.925,-258.397 298.294,-261.024 310,-262.862 701.979,-324.407 833.368,-169.591 1201,-318.862 1231.48,-331.239 1259.13,-357.544 1276.54,-376.832"/>
<polygon fill="midnightblue" stroke="midnightblue" points="1274.13,-379.391 1283.35,-384.608 1279.39,-374.779 1274.13,-379.391"/>
</g>
<!-- Node24 -->
<g id="node24" class="node"><title>Node24</title>
<g id="a_node24"><a xlink:href="classqtreports_1_1detail_1_1_converter_to_q_widget.html#a5e49976fe8fac12633ccda1ba928b9b1" target="_top" xlink:title="Проверяет, является ли виджет типа WidgetType::Report. ">
<polygon fill="none" stroke="black" points="310,-196.362 310,-237.362 429,-237.362 429,-196.362 310,-196.362"/>
<text text-anchor="start" x="318" y="-225.362" font-family="Helvetica,sans-Serif" font-size="10.00">qtreports::detail::</text>
<text text-anchor="start" x="318" y="-214.362" font-family="Helvetica,sans-Serif" font-size="10.00">ConverterToQWidget::</text>
<text text-anchor="middle" x="369.5" y="-203.362" font-family="Helvetica,sans-Serif" font-size="10.00">isReport</text>
</a>
</g>
</g>
<!-- Node23&#45;&gt;Node24 -->
<g id="edge38" class="edge"><title>Node23&#45;&gt;Node24</title>
<path fill="none" stroke="midnightblue" d="M274.216,-230.419C282.635,-229.209 291.359,-227.954 299.947,-226.719"/>
<polygon fill="midnightblue" stroke="midnightblue" points="300.541,-230.17 309.941,-225.282 299.545,-223.241 300.541,-230.17"/>
</g>
<!-- Node25&#45;&gt;Node4 -->
<g id="edge40" class="edge"><title>Node25&#45;&gt;Node4</title>
<path fill="none" stroke="midnightblue" d="M429.036,-43.9698C473.788,-50.9032 536.22,-63.8697 587,-86.8621 620.523,-102.041 654.146,-127.208 677.41,-146.58"/>
<polygon fill="midnightblue" stroke="midnightblue" points="675.296,-149.376 685.19,-153.164 679.818,-144.032 675.296,-149.376"/>
</g>
<!-- Node25&#45;&gt;Node5 -->
<g id="edge41" class="edge"><title>Node25&#45;&gt;Node5</title>
<path fill="none" stroke="midnightblue" d="M412.027,-57.4607C417.781,-60.5168 423.575,-63.7032 429,-66.8621 451.605,-80.0252 476.259,-96.2463 494.922,-108.932"/>
<polygon fill="midnightblue" stroke="midnightblue" points="493.077,-111.91 503.307,-114.667 497.029,-106.132 493.077,-111.91"/>
</g>
</g>
</svg>
