<?xml version="1.0" encoding="UTF-8" standalone="no"?>
<!DOCTYPE svg PUBLIC "-//W3C//DTD SVG 1.1//EN"
 "http://www.w3.org/Graphics/SVG/1.1/DTD/svg11.dtd">
<!-- Generated by graphviz version 2.38.0 (20140413.2041)
 -->
<!-- Title: qtreports::detail::Report::getGroupByIndex Pages: 1 -->
<svg width="352pt" height="137pt"
 viewBox="0.00 0.00 352.00 137.00" xmlns="http://www.w3.org/2000/svg" xmlns:xlink="http://www.w3.org/1999/xlink">
<g id="graph0" class="graph" transform="scale(1 1) rotate(0) translate(4 133)">
<title>qtreports::detail::Report::getGroupByIndex</title>
<!-- Node1 -->
<g id="node1" class="node"><title>Node1</title>
<polygon fill="#bfbfbf" stroke="black" points="0,-49.5 0,-79.5 136,-79.5 136,-49.5 0,-49.5"/>
<text text-anchor="start" x="8" y="-67.5" font-family="Helvetica,sans-Serif" font-size="10.00">qtreports::detail::</text>
<text text-anchor="middle" x="68" y="-56.5" font-family="Helvetica,sans-Serif" font-size="10.00">Report::getGroupByIndex</text>
</g>
<!-- Node2 -->
<g id="node2" class="node"><title>Node2</title>
<g id="a_node2"><a xlink:href="classqtreports_1_1detail_1_1_report.html#a2317483290ac109877b05e90d8f86835" target="_top" xlink:title="qtreports::detail::\lReport::isDetailHasGroupHeader">
<polygon fill="none" stroke="black" points="172,-98.5 172,-128.5 344,-128.5 344,-98.5 172,-98.5"/>
<text text-anchor="start" x="180" y="-116.5" font-family="Helvetica,sans-Serif" font-size="10.00">qtreports::detail::</text>
<text text-anchor="middle" x="258" y="-105.5" font-family="Helvetica,sans-Serif" font-size="10.00">Report::isDetailHasGroupHeader</text>
</a>
</g>
</g>
<!-- Node1&#45;&gt;Node2 -->
<g id="edge1" class="edge"><title>Node1&#45;&gt;Node2</title>
<path fill="none" stroke="midnightblue" d="M136.614,-82.1229C157.182,-87.4837 179.584,-93.3225 199.425,-98.4938"/>
<polygon fill="midnightblue" stroke="midnightblue" points="137.243,-78.67 126.684,-79.5346 135.478,-85.4437 137.243,-78.67"/>
</g>
<!-- Node3 -->
<g id="node3" class="node"><title>Node3</title>
<g id="a_node3"><a xlink:href="classqtreports_1_1detail_1_1_report.html#a36b4f8b33892fabbfd4858602bb511e1" target="_top" xlink:title="qtreports::detail::\lReport::isDetailHasGroupFooter">
<polygon fill="none" stroke="black" points="174.5,-49.5 174.5,-79.5 341.5,-79.5 341.5,-49.5 174.5,-49.5"/>
<text text-anchor="start" x="182.5" y="-67.5" font-family="Helvetica,sans-Serif" font-size="10.00">qtreports::detail::</text>
<text text-anchor="middle" x="258" y="-56.5" font-family="Helvetica,sans-Serif" font-size="10.00">Report::isDetailHasGroupFooter</text>
</a>
</g>
</g>
<!-- Node1&#45;&gt;Node3 -->
<g id="edge2" class="edge"><title>Node1&#45;&gt;Node3</title>
<path fill="none" stroke="midnightblue" d="M146.119,-64.5C155.474,-64.5 165.061,-64.5 174.49,-64.5"/>
<polygon fill="midnightblue" stroke="midnightblue" points="146.076,-61.0001 136.076,-64.5 146.076,-68.0001 146.076,-61.0001"/>
</g>
<!-- Node4 -->
<g id="node4" class="node"><title>Node4</title>
<g id="a_node4"><a xlink:href="classqtreports_1_1detail_1_1_report.html#a963b1c807eb08e9b8b38b842d27acca0" target="_top" xlink:title="qtreports::detail::\lReport::getGroupVec">
<polygon fill="none" stroke="black" points="200,-0.5 200,-30.5 316,-30.5 316,-0.5 200,-0.5"/>
<text text-anchor="start" x="208" y="-18.5" font-family="Helvetica,sans-Serif" font-size="10.00">qtreports::detail::</text>
<text text-anchor="middle" x="258" y="-7.5" font-family="Helvetica,sans-Serif" font-size="10.00">Report::getGroupVec</text>
</a>
</g>
</g>
<!-- Node1&#45;&gt;Node4 -->
<g id="edge3" class="edge"><title>Node1&#45;&gt;Node4</title>
<path fill="none" stroke="midnightblue" d="M136.38,-46.9382C157.124,-41.5316 179.753,-35.6336 199.749,-30.4219"/>
<polygon fill="midnightblue" stroke="midnightblue" points="135.478,-43.5563 126.684,-49.4654 137.243,-50.33 135.478,-43.5563"/>
</g>
</g>
</svg>
