<?xml version="1.0" encoding="UTF-8" standalone="no"?>
<!DOCTYPE svg PUBLIC "-//W3C//DTD SVG 1.1//EN"
 "http://www.w3.org/Graphics/SVG/1.1/DTD/svg11.dtd">
<!-- Generated by graphviz version 2.38.0 (20140413.2041)
 -->
<!-- Title: qtreports::detail::ConverterToHTML::createHTML Pages: 1 -->
<!--zoomable 335 -->
<svg id="main" version="1.1" xmlns="http://www.w3.org/2000/svg" xmlns:xlink="http://www.w3.org/1999/xlink" xml:space="preserve" onload="init(evt)">
<style type="text/css"><![CDATA[
.edge:hover path { stroke: red; }
.edge:hover polygon { stroke: red; fill: red; }
]]></style>
<script type="text/javascript"><![CDATA[
var edges = document.getElementsByTagName('g');
if (edges && edges.length) {
  for (var i=0;i<edges.length;i++) {
    if (edges[i].id.substr(0,4)=='edge') {
      edges[i].setAttribute('class','edge');
    }
  }
}
]]></script>
        <defs>
                <circle id="rim" cx="0" cy="0" r="7"/>
                <circle id="rim2" cx="0" cy="0" r="3.5"/>
                <g id="zoomPlus">
                        <use xlink:href="#rim" fill="#404040">
                                <set attributeName="fill" to="#808080" begin="zoomplus.mouseover" end="zoomplus.mouseout"/>
                        </use>
                        <path d="M-4,0h8M0,-4v8" fill="none" stroke="white" stroke-width="1.5" pointer-events="none"/>
                </g>
                <g id="zoomMin">
                        <use xlink:href="#rim" fill="#404040">
                                <set attributeName="fill" to="#808080" begin="zoomminus.mouseover" end="zoomminus.mouseout"/>
                        </use>
                        <path d="M-4,0h8" fill="none" stroke="white" stroke-width="1.5" pointer-events="none"/>
                </g>
                <g id="dirArrow">
                        <path fill="none" stroke="white" stroke-width="1.5" d="M0,-3.0v7 M-2.5,-0.5L0,-3.0L2.5,-0.5"/>
                </g>
               <g id="resetDef">
                       <use xlink:href="#rim2" fill="#404040">
                               <set attributeName="fill" to="#808080" begin="reset.mouseover" end="reset.mouseout"/>
                       </use>
               </g>
        </defs>

<script type="text/javascript">
var viewWidth = 1330;
var viewHeight = 335;
var sectionId = 'dynsection-9';
</script>
<script xlink:href="svgpan.js"/>
<svg id="graph" class="graph">
<g id="viewport">
<title>qtreports::detail::ConverterToHTML::createHTML</title>
<!-- Node1 -->
<g id="node1" class="node"><title>Node1</title>
<polygon fill="#bfbfbf" stroke="black" points="0,-149 0,-179 163,-179 163,-149 0,-149"/>
<text text-anchor="start" x="8" y="-167" font-family="Helvetica,sans-Serif" font-size="10.00">qtreports::detail::</text>
<text text-anchor="middle" x="81.5" y="-156" font-family="Helvetica,sans-Serif" font-size="10.00">ConverterToHTML::createHTML</text>
</g>
<!-- Node2 -->
<g id="node2" class="node"><title>Node2</title>
<g id="a_node2"><a xlink:href="classqtreports_1_1detail_1_1_style.html#ae233bf8f53b1ceb560398925a50fcb44" target="_top" xlink:title="Возвращает название шрифта ">
<polygon fill="none" stroke="black" points="221.5,-296 221.5,-326 334.5,-326 334.5,-296 221.5,-296"/>
<text text-anchor="start" x="229.5" y="-314" font-family="Helvetica,sans-Serif" font-size="10.00">qtreports::detail::</text>
<text text-anchor="middle" x="278" y="-303" font-family="Helvetica,sans-Serif" font-size="10.00">Style::getFontName</text>
</a>
</g>
</g>
<!-- Node1&#45;&gt;Node2 -->
<g id="edge1" class="edge"><title>Node1&#45;&gt;Node2</title>
<path fill="none" stroke="midnightblue" d="M92.8485,-179.252C111.213,-205.173 152.02,-257.838 199,-287 203.074,-289.529 207.434,-291.808 211.933,-293.861"/>
<polygon fill="midnightblue" stroke="midnightblue" points="210.74,-297.155 221.317,-297.76 213.426,-290.691 210.74,-297.155"/>
</g>
<!-- Node3 -->
<g id="node3" class="node"><title>Node3</title>
<g id="a_node3"><a xlink:href="classqtreports_1_1detail_1_1_style.html#ac969a5ba6cd39a890a72ec4146ba8dda" target="_top" xlink:title="Возвращает размер шрифта ">
<polygon fill="none" stroke="black" points="226,-247 226,-277 330,-277 330,-247 226,-247"/>
<text text-anchor="start" x="234" y="-265" font-family="Helvetica,sans-Serif" font-size="10.00">qtreports::detail::</text>
<text text-anchor="middle" x="278" y="-254" font-family="Helvetica,sans-Serif" font-size="10.00">Style::getFontSize</text>
</a>
</g>
</g>
<!-- Node1&#45;&gt;Node3 -->
<g id="edge2" class="edge"><title>Node1&#45;&gt;Node3</title>
<path fill="none" stroke="midnightblue" d="M102.588,-179.126C125.081,-195.486 163.1,-221.44 199,-238 204.44,-240.509 210.21,-242.844 216.054,-244.994"/>
<polygon fill="midnightblue" stroke="midnightblue" points="215.317,-248.444 225.912,-248.436 217.624,-241.835 215.317,-248.444"/>
</g>
<!-- Node4 -->
<g id="node4" class="node"><title>Node4</title>
<g id="a_node4"><a xlink:href="classqtreports_1_1detail_1_1_style.html#a2d8d9d0d898c4306e47dcca067c60c28" target="_top" xlink:title="Возвращает цвет шрифта ">
<polygon fill="none" stroke="black" points="224,-198 224,-228 332,-228 332,-198 224,-198"/>
<text text-anchor="start" x="232" y="-216" font-family="Helvetica,sans-Serif" font-size="10.00">qtreports::detail::</text>
<text text-anchor="middle" x="278" y="-205" font-family="Helvetica,sans-Serif" font-size="10.00">Style::getFontColor</text>
</a>
</g>
</g>
<!-- Node1&#45;&gt;Node4 -->
<g id="edge3" class="edge"><title>Node1&#45;&gt;Node4</title>
<path fill="none" stroke="midnightblue" d="M142.178,-179.035C164.843,-184.744 190.725,-191.265 213.712,-197.056"/>
<polygon fill="midnightblue" stroke="midnightblue" points="213.155,-200.525 223.707,-199.574 214.865,-193.737 213.155,-200.525"/>
</g>
<!-- Node5 -->
<g id="node5" class="node"><title>Node5</title>
<g id="a_node5"><a xlink:href="classqtreports_1_1detail_1_1_style.html#a058eab1051810ffdb26d43fb08e523c9" target="_top" xlink:title="Возвращает, является ли шрифт курсивом или нет ">
<polygon fill="none" stroke="black" points="228.5,-149 228.5,-179 327.5,-179 327.5,-149 228.5,-149"/>
<text text-anchor="start" x="236.5" y="-167" font-family="Helvetica,sans-Serif" font-size="10.00">qtreports::detail::</text>
<text text-anchor="middle" x="278" y="-156" font-family="Helvetica,sans-Serif" font-size="10.00">Style::isItalic</text>
</a>
</g>
</g>
<!-- Node1&#45;&gt;Node5 -->
<g id="edge4" class="edge"><title>Node1&#45;&gt;Node5</title>
<path fill="none" stroke="midnightblue" d="M163.015,-164C181.362,-164 200.529,-164 217.797,-164"/>
<polygon fill="midnightblue" stroke="midnightblue" points="218.278,-167.5 228.278,-164 218.278,-160.5 218.278,-167.5"/>
</g>
<!-- Node6 -->
<g id="node6" class="node"><title>Node6</title>
<g id="a_node6"><a xlink:href="classqtreports_1_1detail_1_1_style.html#a9f4c8c581c08ffd758fbd3e1b93dee07" target="_top" xlink:title="Возвращает, является ли шрифт жирным или нет ">
<polygon fill="none" stroke="black" points="228.5,-100 228.5,-130 327.5,-130 327.5,-100 228.5,-100"/>
<text text-anchor="start" x="236.5" y="-118" font-family="Helvetica,sans-Serif" font-size="10.00">qtreports::detail::</text>
<text text-anchor="middle" x="278" y="-107" font-family="Helvetica,sans-Serif" font-size="10.00">Style::isBold</text>
</a>
</g>
</g>
<!-- Node1&#45;&gt;Node6 -->
<g id="edge5" class="edge"><title>Node1&#45;&gt;Node6</title>
<path fill="none" stroke="midnightblue" d="M142.178,-148.965C166.42,-142.858 194.343,-135.824 218.467,-129.746"/>
<polygon fill="midnightblue" stroke="midnightblue" points="219.36,-133.13 228.202,-127.293 217.65,-126.343 219.36,-133.13"/>
</g>
<!-- Node7 -->
<g id="node7" class="node"><title>Node7</title>
<g id="a_node7"><a xlink:href="classqtreports_1_1detail_1_1_converter_to_h_t_m_l.html#aa9d511353f62cfc489c3e071ebf5182b" target="_top" xlink:title="Добавление &lt;band&gt;, принадлежащего конкретной &lt;section&gt;, в документ HTML. ">
<polygon fill="none" stroke="black" points="393,-56 393,-86 547,-86 547,-56 393,-56"/>
<text text-anchor="start" x="401" y="-74" font-family="Helvetica,sans-Serif" font-size="10.00">qtreports::detail::</text>
<text text-anchor="middle" x="470" y="-63" font-family="Helvetica,sans-Serif" font-size="10.00">ConverterToHTML::addBands</text>
</a>
</g>
</g>
<!-- Node1&#45;&gt;Node7 -->
<g id="edge6" class="edge"><title>Node1&#45;&gt;Node7</title>
<path fill="none" stroke="midnightblue" d="M100.01,-148.87C121.631,-131.191 160.31,-102.739 199,-90 258.228,-70.4989 328.6,-66.1095 382.649,-66.4053"/>
<polygon fill="midnightblue" stroke="midnightblue" points="382.85,-69.9076 392.888,-66.5181 382.928,-62.908 382.85,-69.9076"/>
</g>
<!-- Node17 -->
<g id="node17" class="node"><title>Node17</title>
<g id="a_node17"><a xlink:href="classqtreports_1_1detail_1_1_converter_to_h_t_m_l.html#a587e5f6bfbd1185f6bf32d76ac231a13" target="_top" xlink:title="Добавление &lt;group&gt; в документ HTML. ">
<polygon fill="none" stroke="black" points="199,-1.5 199,-42.5 357,-42.5 357,-1.5 199,-1.5"/>
<text text-anchor="start" x="207" y="-30.5" font-family="Helvetica,sans-Serif" font-size="10.00">qtreports::detail::</text>
<text text-anchor="start" x="207" y="-19.5" font-family="Helvetica,sans-Serif" font-size="10.00">ConverterToHTML::addGroups</text>
<text text-anchor="middle" x="278" y="-8.5" font-family="Helvetica,sans-Serif" font-size="10.00">IntoReport</text>
</a>
</g>
</g>
<!-- Node1&#45;&gt;Node17 -->
<g id="edge16" class="edge"><title>Node1&#45;&gt;Node17</title>
<path fill="none" stroke="midnightblue" d="M95.9496,-148.869C116.438,-126.507 157.487,-84.3379 199,-57 204.288,-53.5179 209.979,-50.2244 215.792,-47.1535"/>
<polygon fill="midnightblue" stroke="midnightblue" points="217.635,-50.144 224.988,-42.5156 214.483,-43.8939 217.635,-50.144"/>
</g>
<!-- Node8 -->
<g id="node8" class="node"><title>Node8</title>
<g id="a_node8"><a xlink:href="classqtreports_1_1detail_1_1_replacer.html#af7ccb83be264f7c72b7485cf38455450" target="_top" xlink:title="Заменяет текст всех виджетов секции текстом с подставленными значениями. ">
<polygon fill="none" stroke="black" points="613.5,-78 613.5,-108 712.5,-108 712.5,-78 613.5,-78"/>
<text text-anchor="start" x="621.5" y="-96" font-family="Helvetica,sans-Serif" font-size="10.00">qtreports::detail::</text>
<text text-anchor="middle" x="663" y="-85" font-family="Helvetica,sans-Serif" font-size="10.00">Replacer::replace</text>
</a>
</g>
</g>
<!-- Node7&#45;&gt;Node8 -->
<g id="edge7" class="edge"><title>Node7&#45;&gt;Node8</title>
<path fill="none" stroke="midnightblue" d="M547.037,-79.7582C565.734,-81.9118 585.471,-84.1851 603.213,-86.2287"/>
<polygon fill="midnightblue" stroke="midnightblue" points="603.071,-89.7354 613.406,-87.4028 603.872,-82.7814 603.071,-89.7354"/>
</g>
<!-- Node15 -->
<g id="node15" class="node"><title>Node15</title>
<g id="a_node15"><a xlink:href="classqtreports_1_1detail_1_1_replacer.html#a677f7802e444f2de3af4cb43b6cedf30" target="_top" xlink:title="Возвращает описание последней произошедшей ошибки. ">
<polygon fill="none" stroke="black" points="602,-29 602,-59 724,-59 724,-29 602,-29"/>
<text text-anchor="start" x="610" y="-47" font-family="Helvetica,sans-Serif" font-size="10.00">qtreports::detail::</text>
<text text-anchor="middle" x="663" y="-36" font-family="Helvetica,sans-Serif" font-size="10.00">Replacer::getLastError</text>
</a>
</g>
</g>
<!-- Node7&#45;&gt;Node15 -->
<g id="edge14" class="edge"><title>Node7&#45;&gt;Node15</title>
<path fill="none" stroke="midnightblue" d="M547.037,-60.2513C561.829,-58.1603 577.271,-55.9773 591.862,-53.9148"/>
<polygon fill="midnightblue" stroke="midnightblue" points="592.397,-57.374 601.809,-52.5087 591.418,-50.4429 592.397,-57.374"/>
</g>
<!-- Node16 -->
<g id="node16" class="node"><title>Node16</title>
<g id="a_node16"><a xlink:href="classqtreports_1_1detail_1_1_converter_to_h_t_m_l.html#a759cb19710076fd669793a84e62d14eb" target="_top" xlink:title="Добавление &lt;shape&gt;, принадлежащего конретному &lt;band&gt;, в документ HTML. ">
<polygon fill="none" stroke="black" points="583,-127 583,-157 743,-157 743,-127 583,-127"/>
<text text-anchor="start" x="591" y="-145" font-family="Helvetica,sans-Serif" font-size="10.00">qtreports::detail::</text>
<text text-anchor="middle" x="663" y="-134" font-family="Helvetica,sans-Serif" font-size="10.00">ConverterToHTML::addShapes</text>
</a>
</g>
</g>
<!-- Node7&#45;&gt;Node16 -->
<g id="edge15" class="edge"><title>Node7&#45;&gt;Node16</title>
<path fill="none" stroke="midnightblue" d="M505.52,-86.0485C527.516,-95.42 556.719,-107.463 583,-117 589.269,-119.275 595.858,-121.546 602.446,-123.739"/>
<polygon fill="midnightblue" stroke="midnightblue" points="601.467,-127.102 612.06,-126.889 603.647,-120.45 601.467,-127.102"/>
</g>
<!-- Node9 -->
<g id="node9" class="node"><title>Node9</title>
<g id="a_node9"><a xlink:href="classqtreports_1_1detail_1_1_replacer.html#a58cf857aa78eb3e273f6543769af425b" target="_top" xlink:title="Заменяет текст всех виджетов секции текстом с подставленными значениями полей из источника данных...">
<polygon fill="none" stroke="black" points="779,-56 779,-86 943,-86 943,-56 779,-56"/>
<text text-anchor="start" x="787" y="-74" font-family="Helvetica,sans-Serif" font-size="10.00">qtreports::detail::</text>
<text text-anchor="middle" x="861" y="-63" font-family="Helvetica,sans-Serif" font-size="10.00">Replacer::replaceFieldInSection</text>
</a>
</g>
</g>
<!-- Node8&#45;&gt;Node9 -->
<g id="edge8" class="edge"><title>Node8&#45;&gt;Node9</title>
<path fill="none" stroke="midnightblue" d="M712.701,-87.5335C729.693,-85.6263 749.359,-83.4189 768.677,-81.2505"/>
<polygon fill="midnightblue" stroke="midnightblue" points="769.185,-84.7156 778.732,-80.122 768.404,-77.7593 769.185,-84.7156"/>
</g>
<!-- Node14 -->
<g id="node14" class="node"><title>Node14</title>
<g id="a_node14"><a xlink:href="classqtreports_1_1detail_1_1_replacer.html#abb903f1c1172efa7e26b040a5695cc86" target="_top" xlink:title="Возвращает текст с подставленными значениями параметров. ">
<polygon fill="none" stroke="black" points="784,-105 784,-135 938,-135 938,-105 784,-105"/>
<text text-anchor="start" x="792" y="-123" font-family="Helvetica,sans-Serif" font-size="10.00">qtreports::detail::</text>
<text text-anchor="middle" x="861" y="-112" font-family="Helvetica,sans-Serif" font-size="10.00">Replacer::replaceParameters</text>
</a>
</g>
</g>
<!-- Node8&#45;&gt;Node14 -->
<g id="edge13" class="edge"><title>Node8&#45;&gt;Node14</title>
<path fill="none" stroke="midnightblue" d="M712.701,-99.7088C731.116,-102.246 752.67,-105.215 773.52,-108.087"/>
<polygon fill="midnightblue" stroke="midnightblue" points="773.297,-111.589 783.681,-109.487 774.253,-104.655 773.297,-111.589"/>
</g>
<!-- Node10 -->
<g id="node10" class="node"><title>Node10</title>
<g id="a_node10"><a xlink:href="classqtreports_1_1detail_1_1_replacer.html#a2be57bd514335f9b9f2a520247562ce1" target="_top" xlink:title="Заменяет текст виджета текстом с подставленными значениями полей из источника данных. ">
<polygon fill="none" stroke="black" points="985,-28.5 985,-69.5 1131,-69.5 1131,-28.5 985,-28.5"/>
<text text-anchor="start" x="993" y="-57.5" font-family="Helvetica,sans-Serif" font-size="10.00">qtreports::detail::</text>
<text text-anchor="start" x="993" y="-46.5" font-family="Helvetica,sans-Serif" font-size="10.00">Replacer::replaceFieldInText</text>
<text text-anchor="middle" x="1058" y="-35.5" font-family="Helvetica,sans-Serif" font-size="10.00">Widget</text>
</a>
</g>
</g>
<!-- Node9&#45;&gt;Node10 -->
<g id="edge9" class="edge"><title>Node9&#45;&gt;Node10</title>
<path fill="none" stroke="midnightblue" d="M943.003,-61.8611C953.55,-60.6713 964.362,-59.4515 974.926,-58.2596"/>
<polygon fill="midnightblue" stroke="midnightblue" points="975.417,-61.7265 984.962,-57.1274 974.632,-54.7707 975.417,-61.7265"/>
</g>
<!-- Node12 -->
<g id="node12" class="node"><title>Node12</title>
<g id="a_node12"><a xlink:href="classqtreports_1_1detail_1_1_replacer.html#a4aeb7794f90c0be34a30ab60a6df1920" target="_top" xlink:title="На основе текста виджета вставляет в него изображение из источника данных. ">
<polygon fill="none" stroke="black" points="979,-88.5 979,-129.5 1137,-129.5 1137,-88.5 979,-88.5"/>
<text text-anchor="start" x="987" y="-117.5" font-family="Helvetica,sans-Serif" font-size="10.00">qtreports::detail::</text>
<text text-anchor="start" x="987" y="-106.5" font-family="Helvetica,sans-Serif" font-size="10.00">Replacer::replaceFieldInImage</text>
<text text-anchor="middle" x="1058" y="-95.5" font-family="Helvetica,sans-Serif" font-size="10.00">Widget</text>
</a>
</g>
</g>
<!-- Node9&#45;&gt;Node12 -->
<g id="edge11" class="edge"><title>Node9&#45;&gt;Node12</title>
<path fill="none" stroke="midnightblue" d="M939.069,-86.0186C948.89,-87.9324 959,-89.9026 968.977,-91.8467"/>
<polygon fill="midnightblue" stroke="midnightblue" points="968.408,-95.3017 978.893,-93.7791 969.747,-88.4309 968.408,-95.3017"/>
</g>
<!-- Node11 -->
<g id="node11" class="node"><title>Node11</title>
<g id="a_node11"><a xlink:href="classqtreports_1_1detail_1_1_replacer.html#a4642b07160798f2ee4de276e1d0c1ecd" target="_top" xlink:title="Возвращает текст с подставленными значениями полей из источника данных. ">
<polygon fill="none" stroke="black" points="1188,-9 1188,-39 1307,-39 1307,-9 1188,-9"/>
<text text-anchor="start" x="1196" y="-27" font-family="Helvetica,sans-Serif" font-size="10.00">qtreports::detail::</text>
<text text-anchor="middle" x="1247.5" y="-16" font-family="Helvetica,sans-Serif" font-size="10.00">Replacer::replaceField</text>
</a>
</g>
</g>
<!-- Node10&#45;&gt;Node11 -->
<g id="edge10" class="edge"><title>Node10&#45;&gt;Node11</title>
<path fill="none" stroke="midnightblue" d="M1131.22,-39.3701C1146.48,-37.3361 1162.54,-35.1949 1177.66,-33.178"/>
<polygon fill="midnightblue" stroke="midnightblue" points="1178.52,-36.5955 1187.97,-31.8045 1177.59,-29.6569 1178.52,-36.5955"/>
</g>
<!-- Node13 -->
<g id="node13" class="node"><title>Node13</title>
<g id="a_node13"><a xlink:href="classqtreports_1_1detail_1_1_replacer.html#ae1ac521aeaf5fdd694e79e2ae52d4704" target="_top" xlink:title="Возвращает изображение на основе первого найденного выражения. ">
<polygon fill="none" stroke="black" points="1173,-94 1173,-124 1322,-124 1322,-94 1173,-94"/>
<text text-anchor="start" x="1181" y="-112" font-family="Helvetica,sans-Serif" font-size="10.00">qtreports::detail::</text>
<text text-anchor="middle" x="1247.5" y="-101" font-family="Helvetica,sans-Serif" font-size="10.00">Replacer::replaceFieldImage</text>
</a>
</g>
</g>
<!-- Node12&#45;&gt;Node13 -->
<g id="edge12" class="edge"><title>Node12&#45;&gt;Node13</title>
<path fill="none" stroke="midnightblue" d="M1137.16,-109C1145.68,-109 1154.38,-109 1162.96,-109"/>
<polygon fill="midnightblue" stroke="midnightblue" points="1162.97,-112.5 1172.97,-109 1162.97,-105.5 1162.97,-112.5"/>
</g>
<!-- Node17&#45;&gt;Node7 -->
<g id="edge18" class="edge"><title>Node17&#45;&gt;Node7</title>
<path fill="none" stroke="midnightblue" d="M357.103,-42.1423C371.656,-45.8955 386.756,-49.7897 400.977,-53.4571"/>
<polygon fill="midnightblue" stroke="midnightblue" points="400.106,-56.8471 410.664,-55.9553 401.854,-50.0689 400.106,-56.8471"/>
</g>
<!-- Node17&#45;&gt;Node11 -->
<g id="edge17" class="edge"><title>Node17&#45;&gt;Node11</title>
<path fill="none" stroke="midnightblue" d="M357.045,-14.8876C434.388,-8.46 556.268,-0 662,-0 662,-0 662,-0 862,-0 972.736,-0 1101.06,-10.0387 1177.91,-17.1311"/>
<polygon fill="midnightblue" stroke="midnightblue" points="1177.66,-20.623 1187.94,-18.0674 1178.31,-13.6533 1177.66,-20.623"/>
</g>
</g>
</svg>
        <g id="navigator" transform="translate(0 0)" fill="#404254">
                <rect fill="#f2f5e9" fill-opacity="0.5" stroke="#606060" stroke-width=".5" x="0" y="0" width="60" height="60"/>
                <use id="zoomplus" xlink:href="#zoomPlus" x="17" y="9" onmousedown="handleZoom(evt,'in')"/>
                <use id="zoomminus" xlink:href="#zoomMin" x="42" y="9" onmousedown="handleZoom(evt,'out')"/>
                <use id="reset" xlink:href="#resetDef" x="30" y="36" onmousedown="handleReset()"/>
                <g id="arrowUp" xlink:href="#dirArrow" transform="translate(30 24)" onmousedown="handlePan(0,-1)">
                  <use xlink:href="#rim" fill="#404040">
                        <set attributeName="fill" to="#808080" begin="arrowUp.mouseover" end="arrowUp.mouseout"/>
                  </use>
                  <path fill="none" stroke="white" stroke-width="1.5" d="M0,-3.0v7 M-2.5,-0.5L0,-3.0L2.5,-0.5"/>
                </g>
                <g id="arrowRight" xlink:href="#dirArrow" transform="rotate(90) translate(36 -43)" onmousedown="handlePan(1,0)">
                  <use xlink:href="#rim" fill="#404040">
                        <set attributeName="fill" to="#808080" begin="arrowRight.mouseover" end="arrowRight.mouseout"/>
                  </use>
                  <path fill="none" stroke="white" stroke-width="1.5" d="M0,-3.0v7 M-2.5,-0.5L0,-3.0L2.5,-0.5"/>
                </g>
                <g id="arrowDown" xlink:href="#dirArrow" transform="rotate(180) translate(-30 -48)" onmousedown="handlePan(0,1)">
                  <use xlink:href="#rim" fill="#404040">
                        <set attributeName="fill" to="#808080" begin="arrowDown.mouseover" end="arrowDown.mouseout"/>
                  </use>
                  <path fill="none" stroke="white" stroke-width="1.5" d="M0,-3.0v7 M-2.5,-0.5L0,-3.0L2.5,-0.5"/>
                </g>
                <g id="arrowLeft" xlink:href="#dirArrow" transform="rotate(270) translate(-36 17)" onmousedown="handlePan(-1,0)">
                  <use xlink:href="#rim" fill="#404040">
                        <set attributeName="fill" to="#808080" begin="arrowLeft.mouseover" end="arrowLeft.mouseout"/>
                  </use>
                  <path fill="none" stroke="white" stroke-width="1.5" d="M0,-3.0v7 M-2.5,-0.5L0,-3.0L2.5,-0.5"/>
                </g>
        </g>
        <svg viewBox="0 0 15 15" width="100%" height="30px" preserveAspectRatio="xMaxYMin meet">
         <g id="arrow_out" transform="scale(0.3 0.3)">
          <a xlink:href="classqtreports_1_1detail_1_1_converter_to_h_t_m_l_ace8358a3612fc8085b7c34f1f92341e2_cgraph_org.svg" target="_base">
           <rect id="button" ry="5" rx="5" y="6" x="6" height="38" width="38"
                fill="#f2f5e9" fill-opacity="0.5" stroke="#606060" stroke-width="1.0"/>
           <path id="arrow"
             d="M 11.500037,31.436501 C 11.940474,20.09759 22.043105,11.32322 32.158766,21.979434 L 37.068811,17.246167 C 37.068811,17.246167 37.088388,32 37.088388,32 L 22.160133,31.978069 C 22.160133,31.978069 26.997745,27.140456 26.997745,27.140456 C 18.528582,18.264221 13.291696,25.230495 11.500037,31.436501 z"
             style="fill:#404040;"/>
          </a>
         </g>
        </svg>
</svg>
