<?xml version="1.0" encoding="UTF-8" standalone="no"?>
<!DOCTYPE svg PUBLIC "-//W3C//DTD SVG 1.1//EN"
 "http://www.w3.org/Graphics/SVG/1.1/DTD/svg11.dtd">
<!-- Generated by graphviz version 2.38.0 (20140413.2041)
 -->
<!-- Title: qtreports::detail::ParserFromXML::getValue Pages: 1 -->
<svg width="593pt" height="245pt"
 viewBox="0.00 0.00 593.00 245.00" xmlns="http://www.w3.org/2000/svg" xmlns:xlink="http://www.w3.org/1999/xlink">
<g id="graph0" class="graph" transform="scale(1 1) rotate(0) translate(4 241)">
<title>qtreports::detail::ParserFromXML::getValue</title>
<!-- Node1 -->
<g id="node1" class="node"><title>Node1</title>
<polygon fill="#bfbfbf" stroke="black" points="0,-103.5 0,-133.5 138,-133.5 138,-103.5 0,-103.5"/>
<text text-anchor="start" x="8" y="-121.5" font-family="Helvetica,sans-Serif" font-size="10.00">qtreports::detail::</text>
<text text-anchor="middle" x="69" y="-110.5" font-family="Helvetica,sans-Serif" font-size="10.00">ParserFromXML::getValue</text>
</g>
<!-- Node2 -->
<g id="node2" class="node"><title>Node2</title>
<g id="a_node2"><a xlink:href="classqtreports_1_1detail_1_1_parser_from_x_m_l.html#a5227072dac0a691b04214b47f55f96ad" target="_top" xlink:title="Парсит тэг groupExpression. ">
<polygon fill="none" stroke="black" points="174.5,-206.5 174.5,-236.5 378.5,-236.5 378.5,-206.5 174.5,-206.5"/>
<text text-anchor="start" x="182.5" y="-224.5" font-family="Helvetica,sans-Serif" font-size="10.00">qtreports::detail::</text>
<text text-anchor="middle" x="276.5" y="-213.5" font-family="Helvetica,sans-Serif" font-size="10.00">ParserFromXML::parseGroupExpression</text>
</a>
</g>
</g>
<!-- Node1&#45;&gt;Node2 -->
<g id="edge1" class="edge"><title>Node1&#45;&gt;Node2</title>
<path fill="none" stroke="midnightblue" d="M93.1393,-140.661C113.06,-158.55 143.362,-183.042 174,-197.5 181.287,-200.939 189.108,-203.907 197.056,-206.465"/>
<polygon fill="midnightblue" stroke="midnightblue" points="95.2615,-137.859 85.5227,-133.687 90.5342,-143.022 95.2615,-137.859"/>
</g>
<!-- Node4 -->
<g id="node4" class="node"><title>Node4</title>
<g id="a_node4"><a xlink:href="classqtreports_1_1detail_1_1_parser_from_x_m_l.html#ae037521ded63aa8447653b9079b4de08" target="_top" xlink:title="Парсит текст для staticText. ">
<polygon fill="none" stroke="black" points="205.5,-157.5 205.5,-187.5 347.5,-187.5 347.5,-157.5 205.5,-157.5"/>
<text text-anchor="start" x="213.5" y="-175.5" font-family="Helvetica,sans-Serif" font-size="10.00">qtreports::detail::</text>
<text text-anchor="middle" x="276.5" y="-164.5" font-family="Helvetica,sans-Serif" font-size="10.00">ParserFromXML::parseText</text>
</a>
</g>
</g>
<!-- Node1&#45;&gt;Node4 -->
<g id="edge3" class="edge"><title>Node1&#45;&gt;Node4</title>
<path fill="none" stroke="midnightblue" d="M130.133,-136.384C144.471,-140.499 159.748,-144.762 174,-148.5 185.56,-151.532 197.906,-154.596 209.864,-157.474"/>
<polygon fill="midnightblue" stroke="midnightblue" points="130.959,-132.98 120.381,-133.567 129.016,-139.705 130.959,-132.98"/>
</g>
<!-- Node5 -->
<g id="node5" class="node"><title>Node5</title>
<g id="a_node5"><a xlink:href="classqtreports_1_1detail_1_1_parser_from_x_m_l.html#a459f21efce7b714320d84d304d304d60" target="_top" xlink:title="Парсит текст для textField. ">
<polygon fill="none" stroke="black" points="195,-98 195,-139 358,-139 358,-98 195,-98"/>
<text text-anchor="start" x="203" y="-127" font-family="Helvetica,sans-Serif" font-size="10.00">qtreports::detail::</text>
<text text-anchor="start" x="203" y="-116" font-family="Helvetica,sans-Serif" font-size="10.00">ParserFromXML::parseTextField</text>
<text text-anchor="middle" x="276.5" y="-105" font-family="Helvetica,sans-Serif" font-size="10.00">Expression</text>
</a>
</g>
</g>
<!-- Node1&#45;&gt;Node5 -->
<g id="edge5" class="edge"><title>Node1&#45;&gt;Node5</title>
<path fill="none" stroke="midnightblue" d="M148.483,-118.5C163.617,-118.5 179.495,-118.5 194.7,-118.5"/>
<polygon fill="midnightblue" stroke="midnightblue" points="148.143,-115 138.143,-118.5 148.143,-122 148.143,-115"/>
</g>
<!-- Node6 -->
<g id="node6" class="node"><title>Node6</title>
<g id="a_node6"><a xlink:href="classqtreports_1_1detail_1_1_parser_from_x_m_l.html#a5bb40e2d4ed991c7d61f2c16d8aeaf26" target="_top" xlink:title="Парсит текст (imageExpression) для image. ">
<polygon fill="none" stroke="black" points="174,-49.5 174,-79.5 379,-79.5 379,-49.5 174,-49.5"/>
<text text-anchor="start" x="182" y="-67.5" font-family="Helvetica,sans-Serif" font-size="10.00">qtreports::detail::</text>
<text text-anchor="middle" x="276.5" y="-56.5" font-family="Helvetica,sans-Serif" font-size="10.00">ParserFromXML::parseImageExpression</text>
</a>
</g>
</g>
<!-- Node1&#45;&gt;Node6 -->
<g id="edge7" class="edge"><title>Node1&#45;&gt;Node6</title>
<path fill="none" stroke="midnightblue" d="M130.133,-100.616C144.471,-96.5006 159.748,-92.2381 174,-88.5 185.56,-85.4679 197.906,-82.4041 209.864,-79.5263"/>
<polygon fill="midnightblue" stroke="midnightblue" points="129.016,-97.2948 120.381,-103.433 130.959,-104.02 129.016,-97.2948"/>
</g>
<!-- Node7 -->
<g id="node7" class="node"><title>Node7</title>
<g id="a_node7"><a xlink:href="classqtreports_1_1detail_1_1_parser_from_x_m_l.html#a027c1caea8508dc831486969bc47734c" target="_top" xlink:title="Парсит запросы ">
<polygon fill="none" stroke="black" points="186.5,-0.5 186.5,-30.5 366.5,-30.5 366.5,-0.5 186.5,-0.5"/>
<text text-anchor="start" x="194.5" y="-18.5" font-family="Helvetica,sans-Serif" font-size="10.00">qtreports::detail::</text>
<text text-anchor="middle" x="276.5" y="-7.5" font-family="Helvetica,sans-Serif" font-size="10.00">ParserFromXML::parseQueryString</text>
</a>
</g>
</g>
<!-- Node1&#45;&gt;Node7 -->
<g id="edge9" class="edge"><title>Node1&#45;&gt;Node7</title>
<path fill="none" stroke="midnightblue" d="M93.5782,-96.3934C113.554,-78.8105 143.705,-54.8548 174,-40.5 182.118,-36.6533 190.892,-33.3595 199.764,-30.5487"/>
<polygon fill="midnightblue" stroke="midnightblue" points="91.0343,-93.9736 85.9273,-103.256 95.7085,-99.1844 91.0343,-93.9736"/>
</g>
<!-- Node3 -->
<g id="node3" class="node"><title>Node3</title>
<g id="a_node3"><a xlink:href="classqtreports_1_1detail_1_1_parser_from_x_m_l.html#ab548bd252b2e13a315daefae6b43f1d6" target="_top" xlink:title="qtreports::detail::\lParserFromXML::ParserFromXML">
<polygon fill="none" stroke="black" points="415,-103.5 415,-133.5 585,-133.5 585,-103.5 415,-103.5"/>
<text text-anchor="start" x="423" y="-121.5" font-family="Helvetica,sans-Serif" font-size="10.00">qtreports::detail::</text>
<text text-anchor="middle" x="500" y="-110.5" font-family="Helvetica,sans-Serif" font-size="10.00">ParserFromXML::ParserFromXML</text>
</a>
</g>
</g>
<!-- Node2&#45;&gt;Node3 -->
<g id="edge2" class="edge"><title>Node2&#45;&gt;Node3</title>
<path fill="none" stroke="midnightblue" d="M363.649,-203.385C368.908,-201.587 374.064,-199.629 379,-197.5 417.935,-180.707 458.077,-151.38 480.653,-133.571"/>
<polygon fill="midnightblue" stroke="midnightblue" points="362.549,-200.062 354.097,-206.451 364.688,-206.727 362.549,-200.062"/>
</g>
<!-- Node4&#45;&gt;Node3 -->
<g id="edge4" class="edge"><title>Node4&#45;&gt;Node3</title>
<path fill="none" stroke="midnightblue" d="M351.64,-155.085C360.857,-152.886 370.149,-150.653 379,-148.5 398.719,-143.704 420.231,-138.361 439.526,-133.528"/>
<polygon fill="midnightblue" stroke="midnightblue" points="350.609,-151.733 341.691,-157.453 352.23,-158.543 350.609,-151.733"/>
</g>
<!-- Node5&#45;&gt;Node3 -->
<g id="edge6" class="edge"><title>Node5&#45;&gt;Node3</title>
<path fill="none" stroke="midnightblue" d="M368.132,-118.5C383.547,-118.5 399.499,-118.5 414.741,-118.5"/>
<polygon fill="midnightblue" stroke="midnightblue" points="368.093,-115 358.093,-118.5 368.093,-122 368.093,-115"/>
</g>
<!-- Node6&#45;&gt;Node3 -->
<g id="edge8" class="edge"><title>Node6&#45;&gt;Node3</title>
<path fill="none" stroke="midnightblue" d="M351.64,-81.9147C360.857,-84.1139 370.149,-86.3473 379,-88.5 398.719,-93.2959 420.231,-98.639 439.526,-103.472"/>
<polygon fill="midnightblue" stroke="midnightblue" points="352.23,-78.4575 341.691,-79.5471 350.609,-85.2673 352.23,-78.4575"/>
</g>
<!-- Node7&#45;&gt;Node3 -->
<g id="edge10" class="edge"><title>Node7&#45;&gt;Node3</title>
<path fill="none" stroke="midnightblue" d="M360.914,-33.6182C367.117,-35.7007 373.208,-37.9901 379,-40.5 417.53,-57.1976 457.485,-85.8421 480.192,-103.383"/>
<polygon fill="midnightblue" stroke="midnightblue" points="361.692,-30.1934 351.102,-30.5142 359.58,-36.8674 361.692,-30.1934"/>
</g>
</g>
</svg>
