<?xml version="1.0" encoding="UTF-8" standalone="no"?>
<!DOCTYPE svg PUBLIC "-//W3C//DTD SVG 1.1//EN"
 "http://www.w3.org/Graphics/SVG/1.1/DTD/svg11.dtd">
<!-- Generated by graphviz version 2.38.0 (20140413.2041)
 -->
<!-- Title: qtreports::detail::ConverterToHTML::addShapes Pages: 1 -->
<svg width="1102pt" height="94pt"
 viewBox="0.00 0.00 1102.00 93.50" xmlns="http://www.w3.org/2000/svg" xmlns:xlink="http://www.w3.org/1999/xlink">
<g id="graph0" class="graph" transform="scale(1 1) rotate(0) translate(4 89.5)">
<title>qtreports::detail::ConverterToHTML::addShapes</title>
<!-- Node1 -->
<g id="node1" class="node"><title>Node1</title>
<polygon fill="#bfbfbf" stroke="black" points="0,-30 0,-60 160,-60 160,-30 0,-30"/>
<text text-anchor="start" x="8" y="-48" font-family="Helvetica,sans-Serif" font-size="10.00">qtreports::detail::</text>
<text text-anchor="middle" x="80" y="-37" font-family="Helvetica,sans-Serif" font-size="10.00">ConverterToHTML::addShapes</text>
</g>
<!-- Node2 -->
<g id="node2" class="node"><title>Node2</title>
<g id="a_node2"><a xlink:href="classqtreports_1_1detail_1_1_converter_to_h_t_m_l.html#acd1d271ed38019d408d8597000e974be" target="_top" xlink:title="qtreports::detail::\lConverterToHTML::addBand">
<polygon fill="none" stroke="black" points="196,-30 196,-60 345,-60 345,-30 196,-30"/>
<text text-anchor="start" x="204" y="-48" font-family="Helvetica,sans-Serif" font-size="10.00">qtreports::detail::</text>
<text text-anchor="middle" x="270.5" y="-37" font-family="Helvetica,sans-Serif" font-size="10.00">ConverterToHTML::addBand</text>
</a>
</g>
</g>
<!-- Node1&#45;&gt;Node2 -->
<g id="edge1" class="edge"><title>Node1&#45;&gt;Node2</title>
<path fill="none" stroke="midnightblue" d="M170.214,-45C178.847,-45 187.538,-45 195.994,-45"/>
<polygon fill="midnightblue" stroke="midnightblue" points="170.122,-41.5001 160.122,-45 170.122,-48.5001 170.122,-41.5001"/>
</g>
<!-- Node3 -->
<g id="node3" class="node"><title>Node3</title>
<g id="a_node3"><a xlink:href="classqtreports_1_1detail_1_1_converter_to_h_t_m_l.html#ace8358a3612fc8085b7c34f1f92341e2" target="_top" xlink:title="qtreports::detail::\lConverterToHTML::createHTML">
<polygon fill="none" stroke="black" points="575,-30 575,-60 738,-60 738,-30 575,-30"/>
<text text-anchor="start" x="583" y="-48" font-family="Helvetica,sans-Serif" font-size="10.00">qtreports::detail::</text>
<text text-anchor="middle" x="656.5" y="-37" font-family="Helvetica,sans-Serif" font-size="10.00">ConverterToHTML::createHTML</text>
</a>
</g>
</g>
<!-- Node2&#45;&gt;Node3 -->
<g id="edge2" class="edge"><title>Node2&#45;&gt;Node3</title>
<path fill="none" stroke="midnightblue" d="M355.272,-50.0616C363.958,-50.4454 372.656,-50.7716 381,-51 451.196,-52.9217 468.801,-52.8065 539,-51 550.641,-50.7004 562.931,-50.2327 574.989,-49.6875"/>
<polygon fill="midnightblue" stroke="midnightblue" points="355.256,-46.5572 345.103,-49.5871 354.929,-53.5495 355.256,-46.5572"/>
</g>
<!-- Node7 -->
<g id="node7" class="node"><title>Node7</title>
<g id="a_node7"><a xlink:href="classqtreports_1_1detail_1_1_converter_to_h_t_m_l.html#a602c8f3bd3bc44df48b2edcee8bcdfa0" target="_top" xlink:title="qtreports::detail::\lConverterToHTML::addGroups\lIntoReport">
<polygon fill="none" stroke="black" points="381,-0.5 381,-41.5 539,-41.5 539,-0.5 381,-0.5"/>
<text text-anchor="start" x="389" y="-29.5" font-family="Helvetica,sans-Serif" font-size="10.00">qtreports::detail::</text>
<text text-anchor="start" x="389" y="-18.5" font-family="Helvetica,sans-Serif" font-size="10.00">ConverterToHTML::addGroups</text>
<text text-anchor="middle" x="460" y="-7.5" font-family="Helvetica,sans-Serif" font-size="10.00">IntoReport</text>
</a>
</g>
</g>
<!-- Node2&#45;&gt;Node7 -->
<g id="edge6" class="edge"><title>Node2&#45;&gt;Node7</title>
<path fill="none" stroke="midnightblue" d="M355.022,-34.3091C363.563,-33.216 372.217,-32.1082 380.699,-31.0225"/>
<polygon fill="midnightblue" stroke="midnightblue" points="354.541,-30.842 345.067,-35.5834 355.43,-37.7854 354.541,-30.842"/>
</g>
<!-- Node4 -->
<g id="node4" class="node"><title>Node4</title>
<g id="a_node4"><a xlink:href="classqtreports_1_1detail_1_1_converter_to_h_t_m_l.html#ad91ac333abf7d02f7590970a54ef7aae" target="_top" xlink:title="qtreports::detail::\lConverterToHTML::convert">
<polygon fill="none" stroke="black" points="774,-30 774,-60 916,-60 916,-30 774,-30"/>
<text text-anchor="start" x="782" y="-48" font-family="Helvetica,sans-Serif" font-size="10.00">qtreports::detail::</text>
<text text-anchor="middle" x="845" y="-37" font-family="Helvetica,sans-Serif" font-size="10.00">ConverterToHTML::convert</text>
</a>
</g>
</g>
<!-- Node3&#45;&gt;Node4 -->
<g id="edge3" class="edge"><title>Node3&#45;&gt;Node4</title>
<path fill="none" stroke="midnightblue" d="M748.316,-45C756.944,-45 765.601,-45 773.989,-45"/>
<polygon fill="midnightblue" stroke="midnightblue" points="748.217,-41.5001 738.217,-45 748.217,-48.5001 748.217,-41.5001"/>
</g>
<!-- Node5 -->
<g id="node5" class="node"><title>Node5</title>
<g id="a_node5"><a xlink:href="classqtreports_1_1detail_1_1_converter_to_h_t_m_l.html#a38e92f3fd70f61c44871b22cddffd15a" target="_top" xlink:title="qtreports::detail::\lConverterToHTML::convert">
<polygon fill="none" stroke="black" points="952,-55 952,-85 1094,-85 1094,-55 952,-55"/>
<text text-anchor="start" x="960" y="-73" font-family="Helvetica,sans-Serif" font-size="10.00">qtreports::detail::</text>
<text text-anchor="middle" x="1023" y="-62" font-family="Helvetica,sans-Serif" font-size="10.00">ConverterToHTML::convert</text>
</a>
</g>
</g>
<!-- Node4&#45;&gt;Node5 -->
<g id="edge4" class="edge"><title>Node4&#45;&gt;Node5</title>
<path fill="none" stroke="midnightblue" d="M926.101,-56.3779C934.706,-57.6003 943.412,-58.837 951.888,-60.0409"/>
<polygon fill="midnightblue" stroke="midnightblue" points="926.458,-52.8937 916.066,-54.9525 925.474,-59.8241 926.458,-52.8937"/>
</g>
<!-- Node6 -->
<g id="node6" class="node"><title>Node6</title>
<g id="a_node6"><a xlink:href="classqtreports_1_1_engine.html#a551b0db0510d572d56447c471daa0891" target="_top" xlink:title="qtreports::Engine::\lcreateHTML">
<polygon fill="none" stroke="black" points="970.5,-6 970.5,-36 1075.5,-36 1075.5,-6 970.5,-6"/>
<text text-anchor="start" x="978.5" y="-24" font-family="Helvetica,sans-Serif" font-size="10.00">qtreports::Engine::</text>
<text text-anchor="middle" x="1023" y="-13" font-family="Helvetica,sans-Serif" font-size="10.00">createHTML</text>
</a>
</g>
</g>
<!-- Node4&#45;&gt;Node6 -->
<g id="edge5" class="edge"><title>Node4&#45;&gt;Node6</title>
<path fill="none" stroke="midnightblue" d="M926.347,-34.0436C941.298,-32.0049 956.545,-29.9257 970.345,-28.0438"/>
<polygon fill="midnightblue" stroke="midnightblue" points="925.501,-30.6265 916.066,-35.4456 926.447,-37.5623 925.501,-30.6265"/>
</g>
<!-- Node7&#45;&gt;Node3 -->
<g id="edge7" class="edge"><title>Node7&#45;&gt;Node3</title>
<path fill="none" stroke="midnightblue" d="M549.231,-31.8871C557.767,-32.9403 566.396,-34.0051 574.852,-35.0486"/>
<polygon fill="midnightblue" stroke="midnightblue" points="549.623,-28.4091 539.27,-30.658 548.766,-35.3564 549.623,-28.4091"/>
</g>
</g>
</svg>
