<?xml version="1.0" encoding="UTF-8" standalone="no"?>
<!DOCTYPE svg PUBLIC "-//W3C//DTD SVG 1.1//EN"
 "http://www.w3.org/Graphics/SVG/1.1/DTD/svg11.dtd">
<!-- Generated by graphviz version 2.38.0 (20140413.2041)
 -->
<!-- Title: qtreports::detail::CrosstabCell Pages: 1 -->
<svg width="362pt" height="485pt"
 viewBox="0.00 0.00 361.50 485.00" xmlns="http://www.w3.org/2000/svg" xmlns:xlink="http://www.w3.org/1999/xlink">
<g id="graph0" class="graph" transform="scale(1 1) rotate(0) translate(4 481)">
<title>qtreports::detail::CrosstabCell</title>
<!-- Node1 -->
<g id="node1" class="node"><title>Node1</title>
<polygon fill="#bfbfbf" stroke="black" points="149.5,-0.5 149.5,-145.5 261.5,-145.5 261.5,-0.5 149.5,-0.5"/>
<text text-anchor="start" x="157.5" y="-133.5" font-family="Helvetica,sans-Serif" font-size="10.00">qtreports::detail::</text>
<text text-anchor="middle" x="205.5" y="-122.5" font-family="Helvetica,sans-Serif" font-size="10.00">CrosstabCell</text>
<polyline fill="none" stroke="black" points="149.5,-115.5 261.5,-115.5 "/>
<text text-anchor="middle" x="205.5" y="-103.5" font-family="Helvetica,sans-Serif" font-size="10.00"> </text>
<polyline fill="none" stroke="black" points="149.5,-96.5 261.5,-96.5 "/>
<text text-anchor="start" x="157.5" y="-84.5" font-family="Helvetica,sans-Serif" font-size="10.00">+ CrosstabCell()</text>
<text text-anchor="start" x="157.5" y="-73.5" font-family="Helvetica,sans-Serif" font-size="10.00">+ ~CrosstabCell()</text>
<text text-anchor="start" x="157.5" y="-62.5" font-family="Helvetica,sans-Serif" font-size="10.00">+ setCellContents()</text>
<text text-anchor="start" x="157.5" y="-51.5" font-family="Helvetica,sans-Serif" font-size="10.00">+ getCellContents()</text>
<text text-anchor="start" x="157.5" y="-40.5" font-family="Helvetica,sans-Serif" font-size="10.00">+ setWidth()</text>
<text text-anchor="start" x="157.5" y="-29.5" font-family="Helvetica,sans-Serif" font-size="10.00">+ getWidth()</text>
<text text-anchor="start" x="157.5" y="-18.5" font-family="Helvetica,sans-Serif" font-size="10.00">+ setHeight()</text>
<text text-anchor="start" x="157.5" y="-7.5" font-family="Helvetica,sans-Serif" font-size="10.00">+ getHeight()</text>
</g>
<!-- Node2 -->
<g id="node2" class="node"><title>Node2</title>
<g id="a_node2"><a xlink:href="classqtreports_1_1detail_1_1_object.html" target="_top" xlink:title="Базовый класс для любого тэга ">
<polygon fill="none" stroke="black" points="0,-204.5 0,-349.5 99,-349.5 99,-204.5 0,-204.5"/>
<text text-anchor="start" x="8" y="-337.5" font-family="Helvetica,sans-Serif" font-size="10.00">qtreports::detail::</text>
<text text-anchor="middle" x="49.5" y="-326.5" font-family="Helvetica,sans-Serif" font-size="10.00">Object</text>
<polyline fill="none" stroke="black" points="0,-319.5 99,-319.5 "/>
<text text-anchor="middle" x="49.5" y="-307.5" font-family="Helvetica,sans-Serif" font-size="10.00"> </text>
<polyline fill="none" stroke="black" points="0,-300.5 99,-300.5 "/>
<text text-anchor="start" x="8" y="-288.5" font-family="Helvetica,sans-Serif" font-size="10.00">+ Object()</text>
<text text-anchor="start" x="8" y="-277.5" font-family="Helvetica,sans-Serif" font-size="10.00">+ Object()</text>
<text text-anchor="start" x="8" y="-266.5" font-family="Helvetica,sans-Serif" font-size="10.00">+ ~Object()</text>
<text text-anchor="start" x="8" y="-255.5" font-family="Helvetica,sans-Serif" font-size="10.00">+ setName()</text>
<text text-anchor="start" x="8" y="-244.5" font-family="Helvetica,sans-Serif" font-size="10.00">+ getName()</text>
<text text-anchor="start" x="8" y="-233.5" font-family="Helvetica,sans-Serif" font-size="10.00">+ setTagName()</text>
<text text-anchor="start" x="8" y="-222.5" font-family="Helvetica,sans-Serif" font-size="10.00">+ getTagName()</text>
<text text-anchor="start" x="8" y="-211.5" font-family="Helvetica,sans-Serif" font-size="10.00">+ getLastError()</text>
</a>
</g>
</g>
<!-- Node2&#45;&gt;Node1 -->
<g id="edge1" class="edge"><title>Node2&#45;&gt;Node1</title>
<path fill="none" stroke="midnightblue" d="M105.245,-203.817C119.823,-184.941 135.533,-164.599 150.093,-145.745"/>
<polygon fill="none" stroke="midnightblue" points="102.416,-201.754 99.0737,-211.808 107.956,-206.033 102.416,-201.754"/>
</g>
<!-- Node3 -->
<g id="node3" class="node"><title>Node3</title>
<polygon fill="none" stroke="#bfbfbf" points="23,-419.5 23,-476.5 76,-476.5 76,-419.5 23,-419.5"/>
<text text-anchor="middle" x="49.5" y="-464.5" font-family="Helvetica,sans-Serif" font-size="10.00">QString</text>
<polyline fill="none" stroke="#bfbfbf" points="23,-457.5 76,-457.5 "/>
<text text-anchor="middle" x="49.5" y="-445.5" font-family="Helvetica,sans-Serif" font-size="10.00"> </text>
<polyline fill="none" stroke="#bfbfbf" points="23,-438.5 76,-438.5 "/>
<text text-anchor="middle" x="49.5" y="-426.5" font-family="Helvetica,sans-Serif" font-size="10.00"> </text>
</g>
<!-- Node3&#45;&gt;Node2 -->
<g id="edge2" class="edge"><title>Node3&#45;&gt;Node2</title>
<path fill="none" stroke="#404040" d="M49.5,-419.471C49.5,-403.599 49.5,-382.708 49.5,-361.868"/>
<polygon fill="none" stroke="#404040" points="49.5001,-361.642 45.5,-355.642 49.5,-349.642 53.5,-355.642 49.5001,-361.642"/>
<text text-anchor="middle" x="85.5" y="-393" font-family="Helvetica,sans-Serif" font-size="10.00"> #m_tagName</text>
<text text-anchor="middle" x="85.5" y="-382" font-family="Helvetica,sans-Serif" font-size="10.00">#m_name</text>
<text text-anchor="middle" x="85.5" y="-371" font-family="Helvetica,sans-Serif" font-size="10.00">#m_lastError</text>
</g>
<!-- Node4 -->
<g id="node4" class="node"><title>Node4</title>
<polygon fill="none" stroke="#bfbfbf" points="117.5,-248.5 117.5,-305.5 293.5,-305.5 293.5,-248.5 117.5,-248.5"/>
<text text-anchor="middle" x="205.5" y="-293.5" font-family="Helvetica,sans-Serif" font-size="10.00">QSharedPointer&lt; CellContents &gt;</text>
<polyline fill="none" stroke="#bfbfbf" points="117.5,-286.5 293.5,-286.5 "/>
<text text-anchor="middle" x="205.5" y="-274.5" font-family="Helvetica,sans-Serif" font-size="10.00"> </text>
<polyline fill="none" stroke="#bfbfbf" points="117.5,-267.5 293.5,-267.5 "/>
<text text-anchor="middle" x="205.5" y="-255.5" font-family="Helvetica,sans-Serif" font-size="10.00"> </text>
</g>
<!-- Node4&#45;&gt;Node1 -->
<g id="edge3" class="edge"><title>Node4&#45;&gt;Node1</title>
<path fill="none" stroke="#404040" d="M205.5,-248.336C205.5,-224.958 205.5,-190.207 205.5,-157.869"/>
<polygon fill="none" stroke="#404040" points="205.5,-157.622 201.5,-151.622 205.5,-145.622 209.5,-151.622 205.5,-157.622"/>
<text text-anchor="middle" x="246.5" y="-172.5" font-family="Helvetica,sans-Serif" font-size="10.00"> &#45;m_cellContents</text>
</g>
<!-- Node5 -->
<g id="node5" class="node"><title>Node5</title>
<polygon fill="none" stroke="#bfbfbf" points="311,-248.5 311,-305.5 340,-305.5 340,-248.5 311,-248.5"/>
<text text-anchor="middle" x="325.5" y="-293.5" font-family="Helvetica,sans-Serif" font-size="10.00">int</text>
<polyline fill="none" stroke="#bfbfbf" points="311,-286.5 340,-286.5 "/>
<text text-anchor="middle" x="325.5" y="-274.5" font-family="Helvetica,sans-Serif" font-size="10.00"> </text>
<polyline fill="none" stroke="#bfbfbf" points="311,-267.5 340,-267.5 "/>
<text text-anchor="middle" x="325.5" y="-255.5" font-family="Helvetica,sans-Serif" font-size="10.00"> </text>
</g>
<!-- Node5&#45;&gt;Node1 -->
<g id="edge4" class="edge"><title>Node5&#45;&gt;Node1</title>
<path fill="none" stroke="#404040" d="M320.844,-248.303C316.026,-224.7 306.978,-190.495 291.5,-164 285.45,-153.643 277.981,-143.547 269.993,-134.085"/>
<polygon fill="none" stroke="#404040" points="269.792,-133.857 262.826,-131.995 261.865,-124.849 268.831,-126.71 269.792,-133.857"/>
<text text-anchor="middle" x="327.5" y="-178" font-family="Helvetica,sans-Serif" font-size="10.00"> &#45;m_height</text>
<text text-anchor="middle" x="327.5" y="-167" font-family="Helvetica,sans-Serif" font-size="10.00">&#45;m_width</text>
</g>
</g>
</svg>
