<?xml version="1.0" encoding="UTF-8" standalone="no"?>
<!DOCTYPE svg PUBLIC "-//W3C//DTD SVG 1.1//EN"
 "http://www.w3.org/Graphics/SVG/1.1/DTD/svg11.dtd">
<!-- Generated by graphviz version 2.38.0 (20140413.2041)
 -->
<!-- Title: qtreports::detail::ConverterToPDF::createSection Pages: 1 -->
<svg width="851pt" height="69pt"
 viewBox="0.00 0.00 851.00 68.50" xmlns="http://www.w3.org/2000/svg" xmlns:xlink="http://www.w3.org/1999/xlink">
<g id="graph0" class="graph" transform="scale(1 1) rotate(0) translate(4 64.5)">
<title>qtreports::detail::ConverterToPDF::createSection</title>
<!-- Node1 -->
<g id="node1" class="node"><title>Node1</title>
<polygon fill="#bfbfbf" stroke="black" points="0,-30 0,-60 164,-60 164,-30 0,-30"/>
<text text-anchor="start" x="8" y="-48" font-family="Helvetica,sans-Serif" font-size="10.00">qtreports::detail::</text>
<text text-anchor="middle" x="82" y="-37" font-family="Helvetica,sans-Serif" font-size="10.00">ConverterToPDF::createSection</text>
</g>
<!-- Node2 -->
<g id="node2" class="node"><title>Node2</title>
<g id="a_node2"><a xlink:href="classqtreports_1_1detail_1_1_converter_to_p_d_f.html#aad8435572f5ba065f8f2fef428d97b22" target="_top" xlink:title="Конвертирует отчет в PDF документ. ">
<polygon fill="none" stroke="black" points="404,-30 404,-60 532,-60 532,-30 404,-30"/>
<text text-anchor="start" x="412" y="-48" font-family="Helvetica,sans-Serif" font-size="10.00">qtreports::detail::</text>
<text text-anchor="middle" x="468" y="-37" font-family="Helvetica,sans-Serif" font-size="10.00">ConverterToPDF::create</text>
</a>
</g>
</g>
<!-- Node1&#45;&gt;Node2 -->
<g id="edge1" class="edge"><title>Node1&#45;&gt;Node2</title>
<path fill="none" stroke="midnightblue" d="M174.338,-50.1364C183.01,-50.4878 191.67,-50.7866 200,-51 274.642,-52.9126 293.368,-53.2595 368,-51 379.618,-50.6483 391.991,-50.0649 403.915,-49.3965"/>
<polygon fill="midnightblue" stroke="midnightblue" points="174.313,-46.6322 164.172,-49.7017 174.014,-53.6258 174.313,-46.6322"/>
</g>
<!-- Node5 -->
<g id="node5" class="node"><title>Node5</title>
<g id="a_node5"><a xlink:href="classqtreports_1_1detail_1_1_converter_to_p_d_f.html#adda58d86ecfee05cdcc5e5ce161926ff" target="_top" xlink:title="Добавляет группу в репорт. ">
<polygon fill="none" stroke="black" points="200,-0.5 200,-41.5 368,-41.5 368,-0.5 200,-0.5"/>
<text text-anchor="start" x="208" y="-29.5" font-family="Helvetica,sans-Serif" font-size="10.00">qtreports::detail::</text>
<text text-anchor="start" x="208" y="-18.5" font-family="Helvetica,sans-Serif" font-size="10.00">ConverterToPDF::addGroupsInto</text>
<text text-anchor="middle" x="284" y="-7.5" font-family="Helvetica,sans-Serif" font-size="10.00">Report</text>
</a>
</g>
</g>
<!-- Node1&#45;&gt;Node5 -->
<g id="edge4" class="edge"><title>Node1&#45;&gt;Node5</title>
<path fill="none" stroke="midnightblue" d="M174.089,-34.0693C182.681,-33.0383 191.361,-31.9967 199.873,-30.9753"/>
<polygon fill="midnightblue" stroke="midnightblue" points="173.571,-30.6063 164.059,-35.2729 174.405,-37.5564 173.571,-30.6063"/>
</g>
<!-- Node3 -->
<g id="node3" class="node"><title>Node3</title>
<g id="a_node3"><a xlink:href="classqtreports_1_1detail_1_1_converter_to_p_d_f.html#af39953d8db1bdcbbcf59cc00b05747eb" target="_top" xlink:title="Запускает процесс конвертации. ">
<polygon fill="none" stroke="black" points="568,-30 568,-60 702,-60 702,-30 568,-30"/>
<text text-anchor="start" x="576" y="-48" font-family="Helvetica,sans-Serif" font-size="10.00">qtreports::detail::</text>
<text text-anchor="middle" x="635" y="-37" font-family="Helvetica,sans-Serif" font-size="10.00">ConverterToPDF::convert</text>
</a>
</g>
</g>
<!-- Node2&#45;&gt;Node3 -->
<g id="edge2" class="edge"><title>Node2&#45;&gt;Node3</title>
<path fill="none" stroke="midnightblue" d="M542.52,-45C550.952,-45 559.511,-45 567.839,-45"/>
<polygon fill="midnightblue" stroke="midnightblue" points="542.321,-41.5001 532.321,-45 542.321,-48.5001 542.321,-41.5001"/>
</g>
<!-- Node4 -->
<g id="node4" class="node"><title>Node4</title>
<g id="a_node4"><a xlink:href="classqtreports_1_1_engine.html#a34b6ccdf31af3bd275d9fb95100c6bda" target="_top" xlink:title="Создает PDF документ отчета по указанному пути ">
<polygon fill="none" stroke="black" points="738,-30 738,-60 843,-60 843,-30 738,-30"/>
<text text-anchor="start" x="746" y="-48" font-family="Helvetica,sans-Serif" font-size="10.00">qtreports::Engine::</text>
<text text-anchor="middle" x="790.5" y="-37" font-family="Helvetica,sans-Serif" font-size="10.00">createPDF</text>
</a>
</g>
</g>
<!-- Node3&#45;&gt;Node4 -->
<g id="edge3" class="edge"><title>Node3&#45;&gt;Node4</title>
<path fill="none" stroke="midnightblue" d="M712.469,-45C721.041,-45 729.618,-45 737.771,-45"/>
<polygon fill="midnightblue" stroke="midnightblue" points="712.435,-41.5001 702.435,-45 712.435,-48.5001 712.435,-41.5001"/>
</g>
<!-- Node5&#45;&gt;Node2 -->
<g id="edge5" class="edge"><title>Node5&#45;&gt;Node2</title>
<path fill="none" stroke="midnightblue" d="M377.957,-33.258C386.772,-34.4205 395.563,-35.5798 403.999,-36.6921"/>
<polygon fill="midnightblue" stroke="midnightblue" points="378.383,-29.784 368.011,-31.9465 377.468,-36.7239 378.383,-29.784"/>
</g>
</g>
</svg>
