<?xml version="1.0" encoding="UTF-8" standalone="no"?>
<!DOCTYPE svg PUBLIC "-//W3C//DTD SVG 1.1//EN"
 "http://www.w3.org/Graphics/SVG/1.1/DTD/svg11.dtd">
<!-- Generated by graphviz version 2.38.0 (20140413.2041)
 -->
<!-- Title: qtreports::detail::ConverterToHTML::convert Pages: 1 -->
<svg width="1705pt" height="484pt"
 viewBox="0.00 0.00 1705.00 483.50" xmlns="http://www.w3.org/2000/svg" xmlns:xlink="http://www.w3.org/1999/xlink">
<g id="graph0" class="graph" transform="scale(1 1) rotate(0) translate(4 479.5)">
<title>qtreports::detail::ConverterToHTML::convert</title>
<!-- Node1 -->
<g id="node1" class="node"><title>Node1</title>
<polygon fill="#bfbfbf" stroke="black" points="0,-298 0,-328 142,-328 142,-298 0,-298"/>
<text text-anchor="start" x="8" y="-316" font-family="Helvetica,sans-Serif" font-size="10.00">qtreports::detail::</text>
<text text-anchor="middle" x="71" y="-305" font-family="Helvetica,sans-Serif" font-size="10.00">ConverterToHTML::convert</text>
</g>
<!-- Node2 -->
<g id="node2" class="node"><title>Node2</title>
<g id="a_node2"><a xlink:href="classqtreports_1_1detail_1_1_converter_to_h_t_m_l.html#ace8358a3612fc8085b7c34f1f92341e2" target="_top" xlink:title="Процесс конвертации репорта в HTML формат. ">
<polygon fill="none" stroke="black" points="178,-298 178,-328 341,-328 341,-298 178,-298"/>
<text text-anchor="start" x="186" y="-316" font-family="Helvetica,sans-Serif" font-size="10.00">qtreports::detail::</text>
<text text-anchor="middle" x="259.5" y="-305" font-family="Helvetica,sans-Serif" font-size="10.00">ConverterToHTML::createHTML</text>
</a>
</g>
</g>
<!-- Node1&#45;&gt;Node2 -->
<g id="edge1" class="edge"><title>Node1&#45;&gt;Node2</title>
<path fill="none" stroke="midnightblue" d="M142.242,-313C150.628,-313 159.279,-313 167.9,-313"/>
<polygon fill="midnightblue" stroke="midnightblue" points="167.989,-316.5 177.989,-313 167.989,-309.5 167.989,-316.5"/>
</g>
<!-- Node3 -->
<g id="node3" class="node"><title>Node3</title>
<g id="a_node3"><a xlink:href="classqtreports_1_1detail_1_1_style.html#ae233bf8f53b1ceb560398925a50fcb44" target="_top" xlink:title="Возвращает название шрифта ">
<polygon fill="none" stroke="black" points="399.5,-445 399.5,-475 512.5,-475 512.5,-445 399.5,-445"/>
<text text-anchor="start" x="407.5" y="-463" font-family="Helvetica,sans-Serif" font-size="10.00">qtreports::detail::</text>
<text text-anchor="middle" x="456" y="-452" font-family="Helvetica,sans-Serif" font-size="10.00">Style::getFontName</text>
</a>
</g>
</g>
<!-- Node2&#45;&gt;Node3 -->
<g id="edge2" class="edge"><title>Node2&#45;&gt;Node3</title>
<path fill="none" stroke="midnightblue" d="M270.848,-328.252C289.213,-354.173 330.02,-406.838 377,-436 381.074,-438.529 385.434,-440.808 389.933,-442.861"/>
<polygon fill="midnightblue" stroke="midnightblue" points="388.74,-446.155 399.317,-446.76 391.426,-439.691 388.74,-446.155"/>
</g>
<!-- Node4 -->
<g id="node4" class="node"><title>Node4</title>
<g id="a_node4"><a xlink:href="classqtreports_1_1detail_1_1_style.html#ac969a5ba6cd39a890a72ec4146ba8dda" target="_top" xlink:title="Возвращает размер шрифта ">
<polygon fill="none" stroke="black" points="404,-396 404,-426 508,-426 508,-396 404,-396"/>
<text text-anchor="start" x="412" y="-414" font-family="Helvetica,sans-Serif" font-size="10.00">qtreports::detail::</text>
<text text-anchor="middle" x="456" y="-403" font-family="Helvetica,sans-Serif" font-size="10.00">Style::getFontSize</text>
</a>
</g>
</g>
<!-- Node2&#45;&gt;Node4 -->
<g id="edge3" class="edge"><title>Node2&#45;&gt;Node4</title>
<path fill="none" stroke="midnightblue" d="M280.588,-328.126C303.081,-344.486 341.1,-370.44 377,-387 382.44,-389.509 388.21,-391.844 394.054,-393.994"/>
<polygon fill="midnightblue" stroke="midnightblue" points="393.317,-397.444 403.912,-397.436 395.624,-390.835 393.317,-397.444"/>
</g>
<!-- Node5 -->
<g id="node5" class="node"><title>Node5</title>
<g id="a_node5"><a xlink:href="classqtreports_1_1detail_1_1_style.html#a2d8d9d0d898c4306e47dcca067c60c28" target="_top" xlink:title="Возвращает цвет шрифта ">
<polygon fill="none" stroke="black" points="402,-347 402,-377 510,-377 510,-347 402,-347"/>
<text text-anchor="start" x="410" y="-365" font-family="Helvetica,sans-Serif" font-size="10.00">qtreports::detail::</text>
<text text-anchor="middle" x="456" y="-354" font-family="Helvetica,sans-Serif" font-size="10.00">Style::getFontColor</text>
</a>
</g>
</g>
<!-- Node2&#45;&gt;Node5 -->
<g id="edge4" class="edge"><title>Node2&#45;&gt;Node5</title>
<path fill="none" stroke="midnightblue" d="M320.178,-328.035C342.843,-333.744 368.725,-340.265 391.712,-346.056"/>
<polygon fill="midnightblue" stroke="midnightblue" points="391.155,-349.525 401.707,-348.574 392.865,-342.737 391.155,-349.525"/>
</g>
<!-- Node6 -->
<g id="node6" class="node"><title>Node6</title>
<g id="a_node6"><a xlink:href="classqtreports_1_1detail_1_1_style.html#a058eab1051810ffdb26d43fb08e523c9" target="_top" xlink:title="Возвращает, является ли шрифт курсивом или нет ">
<polygon fill="none" stroke="black" points="406.5,-298 406.5,-328 505.5,-328 505.5,-298 406.5,-298"/>
<text text-anchor="start" x="414.5" y="-316" font-family="Helvetica,sans-Serif" font-size="10.00">qtreports::detail::</text>
<text text-anchor="middle" x="456" y="-305" font-family="Helvetica,sans-Serif" font-size="10.00">Style::isItalic</text>
</a>
</g>
</g>
<!-- Node2&#45;&gt;Node6 -->
<g id="edge5" class="edge"><title>Node2&#45;&gt;Node6</title>
<path fill="none" stroke="midnightblue" d="M341.015,-313C359.362,-313 378.529,-313 395.797,-313"/>
<polygon fill="midnightblue" stroke="midnightblue" points="396.278,-316.5 406.278,-313 396.278,-309.5 396.278,-316.5"/>
</g>
<!-- Node7 -->
<g id="node7" class="node"><title>Node7</title>
<g id="a_node7"><a xlink:href="classqtreports_1_1detail_1_1_style.html#a9f4c8c581c08ffd758fbd3e1b93dee07" target="_top" xlink:title="Возвращает, является ли шрифт жирным или нет ">
<polygon fill="none" stroke="black" points="406.5,-249 406.5,-279 505.5,-279 505.5,-249 406.5,-249"/>
<text text-anchor="start" x="414.5" y="-267" font-family="Helvetica,sans-Serif" font-size="10.00">qtreports::detail::</text>
<text text-anchor="middle" x="456" y="-256" font-family="Helvetica,sans-Serif" font-size="10.00">Style::isBold</text>
</a>
</g>
</g>
<!-- Node2&#45;&gt;Node7 -->
<g id="edge6" class="edge"><title>Node2&#45;&gt;Node7</title>
<path fill="none" stroke="midnightblue" d="M320.178,-297.965C344.42,-291.858 372.343,-284.824 396.467,-278.746"/>
<polygon fill="midnightblue" stroke="midnightblue" points="397.36,-282.13 406.202,-276.293 395.65,-275.343 397.36,-282.13"/>
</g>
<!-- Node8 -->
<g id="node8" class="node"><title>Node8</title>
<g id="a_node8"><a xlink:href="classqtreports_1_1detail_1_1_converter_to_h_t_m_l.html#acd1d271ed38019d408d8597000e974be" target="_top" xlink:title="Добавление &lt;band&gt; в документ HTML. ">
<polygon fill="none" stroke="black" points="571,-146 571,-176 720,-176 720,-146 571,-146"/>
<text text-anchor="start" x="579" y="-164" font-family="Helvetica,sans-Serif" font-size="10.00">qtreports::detail::</text>
<text text-anchor="middle" x="645.5" y="-153" font-family="Helvetica,sans-Serif" font-size="10.00">ConverterToHTML::addBand</text>
</a>
</g>
</g>
<!-- Node2&#45;&gt;Node8 -->
<g id="edge7" class="edge"><title>Node2&#45;&gt;Node8</title>
<path fill="none" stroke="midnightblue" d="M268.555,-297.59C284.672,-268.569 323.946,-206.363 377,-180 433.718,-151.816 505.691,-148.22 560.691,-151.039"/>
<polygon fill="midnightblue" stroke="midnightblue" points="560.566,-154.538 570.756,-151.636 560.981,-147.55 560.566,-154.538"/>
</g>
<!-- Node25 -->
<g id="node25" class="node"><title>Node25</title>
<g id="a_node25"><a xlink:href="classqtreports_1_1detail_1_1_converter_to_h_t_m_l.html#a602c8f3bd3bc44df48b2edcee8bcdfa0" target="_top" xlink:title="Добавление &lt;group&gt; в документ HTML. ">
<polygon fill="none" stroke="black" points="377,-189.5 377,-230.5 535,-230.5 535,-189.5 377,-189.5"/>
<text text-anchor="start" x="385" y="-218.5" font-family="Helvetica,sans-Serif" font-size="10.00">qtreports::detail::</text>
<text text-anchor="start" x="385" y="-207.5" font-family="Helvetica,sans-Serif" font-size="10.00">ConverterToHTML::addGroups</text>
<text text-anchor="middle" x="456" y="-196.5" font-family="Helvetica,sans-Serif" font-size="10.00">IntoReport</text>
</a>
</g>
</g>
<!-- Node2&#45;&gt;Node25 -->
<g id="edge29" class="edge"><title>Node2&#45;&gt;Node25</title>
<path fill="none" stroke="midnightblue" d="M281.187,-297.97C303.892,-281.932 341.805,-256.478 377,-239 380.069,-237.476 383.239,-235.985 386.465,-234.535"/>
<polygon fill="midnightblue" stroke="midnightblue" points="387.874,-237.739 395.666,-230.56 385.098,-231.313 387.874,-237.739"/>
</g>
<!-- Node9 -->
<g id="node9" class="node"><title>Node9</title>
<g id="a_node9"><a xlink:href="classqtreports_1_1detail_1_1_replacer.html#af7ccb83be264f7c72b7485cf38455450" target="_top" xlink:title="Заменяет текст всех виджетов секции текстом с подставленными значениями. ">
<polygon fill="none" stroke="black" points="792.5,-48 792.5,-78 891.5,-78 891.5,-48 792.5,-48"/>
<text text-anchor="start" x="800.5" y="-66" font-family="Helvetica,sans-Serif" font-size="10.00">qtreports::detail::</text>
<text text-anchor="middle" x="842" y="-55" font-family="Helvetica,sans-Serif" font-size="10.00">Replacer::replace</text>
</a>
</g>
</g>
<!-- Node8&#45;&gt;Node9 -->
<g id="edge8" class="edge"><title>Node8&#45;&gt;Node9</title>
<path fill="none" stroke="midnightblue" d="M664.777,-145.941C685.669,-129.394 721.455,-103.042 756,-87 764.375,-83.1109 773.513,-79.7235 782.592,-76.8169"/>
<polygon fill="midnightblue" stroke="midnightblue" points="783.826,-80.1002 792.381,-73.8507 781.796,-73.4009 783.826,-80.1002"/>
</g>
<!-- Node16 -->
<g id="node16" class="node"><title>Node16</title>
<g id="a_node16"><a xlink:href="classqtreports_1_1detail_1_1_replacer.html#a677f7802e444f2de3af4cb43b6cedf30" target="_top" xlink:title="Возвращает описание последней произошедшей ошибки. ">
<polygon fill="none" stroke="black" points="781,-146 781,-176 903,-176 903,-146 781,-146"/>
<text text-anchor="start" x="789" y="-164" font-family="Helvetica,sans-Serif" font-size="10.00">qtreports::detail::</text>
<text text-anchor="middle" x="842" y="-153" font-family="Helvetica,sans-Serif" font-size="10.00">Replacer::getLastError</text>
</a>
</g>
</g>
<!-- Node8&#45;&gt;Node16 -->
<g id="edge15" class="edge"><title>Node8&#45;&gt;Node16</title>
<path fill="none" stroke="midnightblue" d="M720.032,-161C736.691,-161 754.339,-161 770.854,-161"/>
<polygon fill="midnightblue" stroke="midnightblue" points="770.972,-164.5 780.972,-161 770.971,-157.5 770.972,-164.5"/>
</g>
<!-- Node17 -->
<g id="node17" class="node"><title>Node17</title>
<g id="a_node17"><a xlink:href="classqtreports_1_1detail_1_1_converter_to_h_t_m_l.html#a76b4b701d1182ddd78d612d3b23be043" target="_top" xlink:title="Добавление объекта Shape в документ HTML. ">
<polygon fill="none" stroke="black" points="762,-97 762,-127 922,-127 922,-97 762,-97"/>
<text text-anchor="start" x="770" y="-115" font-family="Helvetica,sans-Serif" font-size="10.00">qtreports::detail::</text>
<text text-anchor="middle" x="842" y="-104" font-family="Helvetica,sans-Serif" font-size="10.00">ConverterToHTML::addShapes</text>
</a>
</g>
</g>
<!-- Node8&#45;&gt;Node17 -->
<g id="edge16" class="edge"><title>Node8&#45;&gt;Node17</title>
<path fill="none" stroke="midnightblue" d="M706.178,-145.965C726.808,-140.768 750.103,-134.899 771.455,-129.52"/>
<polygon fill="midnightblue" stroke="midnightblue" points="772.593,-132.843 781.435,-127.006 770.883,-126.055 772.593,-132.843"/>
</g>
<!-- Node18 -->
<g id="node18" class="node"><title>Node18</title>
<g id="a_node18"><a xlink:href="classqtreports_1_1detail_1_1_converter_to_h_t_m_l.html#a5b8d80606e58c8bcdadc7ce6134e9c2f" target="_top" xlink:title="Добавление объектов Crosstab в документ HTML. ">
<polygon fill="none" stroke="black" points="756,-194.5 756,-235.5 928,-235.5 928,-194.5 756,-194.5"/>
<text text-anchor="start" x="764" y="-223.5" font-family="Helvetica,sans-Serif" font-size="10.00">qtreports::detail::</text>
<text text-anchor="start" x="764" y="-212.5" font-family="Helvetica,sans-Serif" font-size="10.00">ConverterToHTML::addCrosstabs</text>
<text text-anchor="middle" x="842" y="-201.5" font-family="Helvetica,sans-Serif" font-size="10.00">IntoReport</text>
</a>
</g>
</g>
<!-- Node8&#45;&gt;Node18 -->
<g id="edge17" class="edge"><title>Node8&#45;&gt;Node18</title>
<path fill="none" stroke="midnightblue" d="M700.679,-176.042C718.276,-180.928 738.231,-186.468 757.456,-191.805"/>
<polygon fill="midnightblue" stroke="midnightblue" points="756.551,-195.186 767.123,-194.489 758.424,-188.442 756.551,-195.186"/>
</g>
<!-- Node10 -->
<g id="node10" class="node"><title>Node10</title>
<g id="a_node10"><a xlink:href="classqtreports_1_1detail_1_1_replacer.html#a58cf857aa78eb3e273f6543769af425b" target="_top" xlink:title="Заменяет текст всех виджетов секции текстом с подставленными значениями полей из источника данных...">
<polygon fill="none" stroke="black" points="968,-25 968,-55 1132,-55 1132,-25 968,-25"/>
<text text-anchor="start" x="976" y="-43" font-family="Helvetica,sans-Serif" font-size="10.00">qtreports::detail::</text>
<text text-anchor="middle" x="1050" y="-32" font-family="Helvetica,sans-Serif" font-size="10.00">Replacer::replaceFieldInSection</text>
</a>
</g>
</g>
<!-- Node9&#45;&gt;Node10 -->
<g id="edge9" class="edge"><title>Node9&#45;&gt;Node10</title>
<path fill="none" stroke="midnightblue" d="M891.558,-57.5784C911.349,-55.3688 934.903,-52.739 957.685,-50.1954"/>
<polygon fill="midnightblue" stroke="midnightblue" points="958.183,-53.6616 967.733,-49.0735 957.406,-46.7048 958.183,-53.6616"/>
</g>
<!-- Node15 -->
<g id="node15" class="node"><title>Node15</title>
<g id="a_node15"><a xlink:href="classqtreports_1_1detail_1_1_replacer.html#abb903f1c1172efa7e26b040a5695cc86" target="_top" xlink:title="Возвращает текст с подставленными значениями параметров. ">
<polygon fill="none" stroke="black" points="973,-74 973,-104 1127,-104 1127,-74 973,-74"/>
<text text-anchor="start" x="981" y="-92" font-family="Helvetica,sans-Serif" font-size="10.00">qtreports::detail::</text>
<text text-anchor="middle" x="1050" y="-81" font-family="Helvetica,sans-Serif" font-size="10.00">Replacer::replaceParameters</text>
</a>
</g>
</g>
<!-- Node9&#45;&gt;Node15 -->
<g id="edge14" class="edge"><title>Node9&#45;&gt;Node15</title>
<path fill="none" stroke="midnightblue" d="M891.558,-69.1287C912.886,-71.8205 938.583,-75.0639 962.975,-78.1425"/>
<polygon fill="midnightblue" stroke="midnightblue" points="962.608,-81.6238 972.968,-79.4037 963.485,-74.6789 962.608,-81.6238"/>
</g>
<!-- Node11 -->
<g id="node11" class="node"><title>Node11</title>
<g id="a_node11"><a xlink:href="classqtreports_1_1detail_1_1_replacer.html#a2be57bd514335f9b9f2a520247562ce1" target="_top" xlink:title="Заменяет текст виджета текстом с подставленными значениями полей из источника данных. ">
<polygon fill="none" stroke="black" points="1387,-0.5 1387,-41.5 1533,-41.5 1533,-0.5 1387,-0.5"/>
<text text-anchor="start" x="1395" y="-29.5" font-family="Helvetica,sans-Serif" font-size="10.00">qtreports::detail::</text>
<text text-anchor="start" x="1395" y="-18.5" font-family="Helvetica,sans-Serif" font-size="10.00">Replacer::replaceFieldInText</text>
<text text-anchor="middle" x="1460" y="-7.5" font-family="Helvetica,sans-Serif" font-size="10.00">Widget</text>
</a>
</g>
</g>
<!-- Node10&#45;&gt;Node11 -->
<g id="edge10" class="edge"><title>Node10&#45;&gt;Node11</title>
<path fill="none" stroke="midnightblue" d="M1132.1,-36.2235C1202.98,-32.9227 1305.41,-28.1523 1376.66,-24.8344"/>
<polygon fill="midnightblue" stroke="midnightblue" points="1377.11,-28.3173 1386.94,-24.3558 1376.79,-21.3249 1377.11,-28.3173"/>
</g>
<!-- Node13 -->
<g id="node13" class="node"><title>Node13</title>
<g id="a_node13"><a xlink:href="classqtreports_1_1detail_1_1_replacer.html#a4aeb7794f90c0be34a30ab60a6df1920" target="_top" xlink:title="На основе текста виджета вставляет в него изображение из источника данных. ">
<polygon fill="none" stroke="black" points="1178,-49.5 1178,-90.5 1336,-90.5 1336,-49.5 1178,-49.5"/>
<text text-anchor="start" x="1186" y="-78.5" font-family="Helvetica,sans-Serif" font-size="10.00">qtreports::detail::</text>
<text text-anchor="start" x="1186" y="-67.5" font-family="Helvetica,sans-Serif" font-size="10.00">Replacer::replaceFieldInImage</text>
<text text-anchor="middle" x="1257" y="-56.5" font-family="Helvetica,sans-Serif" font-size="10.00">Widget</text>
</a>
</g>
</g>
<!-- Node10&#45;&gt;Node13 -->
<g id="edge12" class="edge"><title>Node10&#45;&gt;Node13</title>
<path fill="none" stroke="midnightblue" d="M1132.02,-51.8568C1143.83,-53.5842 1156.03,-55.3697 1167.96,-57.1163"/>
<polygon fill="midnightblue" stroke="midnightblue" points="1167.51,-60.5871 1177.91,-58.572 1168.52,-53.6608 1167.51,-60.5871"/>
</g>
<!-- Node12 -->
<g id="node12" class="node"><title>Node12</title>
<g id="a_node12"><a xlink:href="classqtreports_1_1detail_1_1_replacer.html#a4642b07160798f2ee4de276e1d0c1ecd" target="_top" xlink:title="Возвращает текст с подставленными значениями полей из источника данных. ">
<polygon fill="none" stroke="black" points="1578,-169 1578,-199 1697,-199 1697,-169 1578,-169"/>
<text text-anchor="start" x="1586" y="-187" font-family="Helvetica,sans-Serif" font-size="10.00">qtreports::detail::</text>
<text text-anchor="middle" x="1637.5" y="-176" font-family="Helvetica,sans-Serif" font-size="10.00">Replacer::replaceField</text>
</a>
</g>
</g>
<!-- Node11&#45;&gt;Node12 -->
<g id="edge11" class="edge"><title>Node11&#45;&gt;Node12</title>
<path fill="none" stroke="midnightblue" d="M1528.97,-41.6658C1533.56,-44.1567 1537.96,-46.9258 1542,-50 1580.88,-79.5707 1610.1,-129.708 1625.14,-159.552"/>
<polygon fill="midnightblue" stroke="midnightblue" points="1622.14,-161.397 1629.69,-168.836 1628.43,-158.316 1622.14,-161.397"/>
</g>
<!-- Node14 -->
<g id="node14" class="node"><title>Node14</title>
<g id="a_node14"><a xlink:href="classqtreports_1_1detail_1_1_replacer.html#ae1ac521aeaf5fdd694e79e2ae52d4704" target="_top" xlink:title="Возвращает изображение на основе первого найденного выражения. ">
<polygon fill="none" stroke="black" points="1385.5,-60 1385.5,-90 1534.5,-90 1534.5,-60 1385.5,-60"/>
<text text-anchor="start" x="1393.5" y="-78" font-family="Helvetica,sans-Serif" font-size="10.00">qtreports::detail::</text>
<text text-anchor="middle" x="1460" y="-67" font-family="Helvetica,sans-Serif" font-size="10.00">Replacer::replaceFieldImage</text>
</a>
</g>
</g>
<!-- Node13&#45;&gt;Node14 -->
<g id="edge13" class="edge"><title>Node13&#45;&gt;Node14</title>
<path fill="none" stroke="midnightblue" d="M1336.29,-71.9474C1348.99,-72.2633 1362.18,-72.5916 1375.01,-72.9107"/>
<polygon fill="midnightblue" stroke="midnightblue" points="1375.12,-76.4144 1385.2,-73.1643 1375.29,-69.4166 1375.12,-76.4144"/>
</g>
<!-- Node19 -->
<g id="node19" class="node"><title>Node19</title>
<g id="a_node19"><a xlink:href="classqtreports_1_1detail_1_1_replacer.html#aa9fa83cf51d75301b62e11a0a93e2dcc" target="_top" xlink:title="qtreports::detail::\lReplacer::replaceColumnGroups\lInCrosstab">
<polygon fill="none" stroke="black" points="1172,-217.5 1172,-258.5 1342,-258.5 1342,-217.5 1172,-217.5"/>
<text text-anchor="start" x="1180" y="-246.5" font-family="Helvetica,sans-Serif" font-size="10.00">qtreports::detail::</text>
<text text-anchor="start" x="1180" y="-235.5" font-family="Helvetica,sans-Serif" font-size="10.00">Replacer::replaceColumnGroups</text>
<text text-anchor="middle" x="1257" y="-224.5" font-family="Helvetica,sans-Serif" font-size="10.00">InCrosstab</text>
</a>
</g>
</g>
<!-- Node18&#45;&gt;Node19 -->
<g id="edge18" class="edge"><title>Node18&#45;&gt;Node19</title>
<path fill="none" stroke="midnightblue" d="M928.073,-219.738C996.043,-223.523 1091.23,-228.824 1161.56,-232.74"/>
<polygon fill="midnightblue" stroke="midnightblue" points="1161.57,-236.246 1171.74,-233.308 1161.95,-229.257 1161.57,-236.246"/>
</g>
<!-- Node21 -->
<g id="node21" class="node"><title>Node21</title>
<g id="a_node21"><a xlink:href="classqtreports_1_1detail_1_1_replacer.html#ae0f12ba0e77e9ef89b9479272e843fe6" target="_top" xlink:title="qtreports::detail::\lReplacer::replaceRowGroups\lInCrosstab">
<polygon fill="none" stroke="black" points="1181.5,-109.5 1181.5,-150.5 1332.5,-150.5 1332.5,-109.5 1181.5,-109.5"/>
<text text-anchor="start" x="1189.5" y="-138.5" font-family="Helvetica,sans-Serif" font-size="10.00">qtreports::detail::</text>
<text text-anchor="start" x="1189.5" y="-127.5" font-family="Helvetica,sans-Serif" font-size="10.00">Replacer::replaceRowGroups</text>
<text text-anchor="middle" x="1257" y="-116.5" font-family="Helvetica,sans-Serif" font-size="10.00">InCrosstab</text>
</a>
</g>
</g>
<!-- Node18&#45;&gt;Node21 -->
<g id="edge21" class="edge"><title>Node18&#45;&gt;Node21</title>
<path fill="none" stroke="midnightblue" d="M904.177,-194.439C912.249,-191.426 920.365,-188.241 928,-185 944.466,-178.01 946.883,-172.198 964,-167 1031.94,-146.366 1112.16,-137.23 1171.31,-133.191"/>
<polygon fill="midnightblue" stroke="midnightblue" points="1171.61,-136.679 1181.36,-132.539 1171.15,-129.694 1171.61,-136.679"/>
</g>
<!-- Node23 -->
<g id="node23" class="node"><title>Node23</title>
<g id="a_node23"><a xlink:href="classqtreports_1_1detail_1_1_replacer.html#a5dc72251354d389091776142436ebd22" target="_top" xlink:title="qtreports::detail::\lReplacer::replaceCellsInCrosstab">
<polygon fill="none" stroke="black" points="964,-177 964,-207 1136,-207 1136,-177 964,-177"/>
<text text-anchor="start" x="972" y="-195" font-family="Helvetica,sans-Serif" font-size="10.00">qtreports::detail::</text>
<text text-anchor="middle" x="1050" y="-184" font-family="Helvetica,sans-Serif" font-size="10.00">Replacer::replaceCellsInCrosstab</text>
</a>
</g>
</g>
<!-- Node18&#45;&gt;Node23 -->
<g id="edge24" class="edge"><title>Node18&#45;&gt;Node23</title>
<path fill="none" stroke="midnightblue" d="M928.275,-205.479C936.708,-204.537 945.305,-203.578 953.829,-202.626"/>
<polygon fill="midnightblue" stroke="midnightblue" points="954.239,-206.102 963.789,-201.514 953.462,-199.145 954.239,-206.102"/>
</g>
<!-- Node20 -->
<g id="node20" class="node"><title>Node20</title>
<g id="a_node20"><a xlink:href="classqtreports_1_1detail_1_1_replacer.html#a781b476a4e964da9e5afe4f642b2f275" target="_top" xlink:title="qtreports::detail::\lReplacer::replaceColumnGroup\lInCrosstab">
<polygon fill="none" stroke="black" points="1378,-215.5 1378,-256.5 1542,-256.5 1542,-215.5 1378,-215.5"/>
<text text-anchor="start" x="1386" y="-244.5" font-family="Helvetica,sans-Serif" font-size="10.00">qtreports::detail::</text>
<text text-anchor="start" x="1386" y="-233.5" font-family="Helvetica,sans-Serif" font-size="10.00">Replacer::replaceColumnGroup</text>
<text text-anchor="middle" x="1460" y="-222.5" font-family="Helvetica,sans-Serif" font-size="10.00">InCrosstab</text>
</a>
</g>
</g>
<!-- Node19&#45;&gt;Node20 -->
<g id="edge19" class="edge"><title>Node19&#45;&gt;Node20</title>
<path fill="none" stroke="midnightblue" d="M1342.08,-237.163C1350.58,-237.079 1359.25,-236.993 1367.82,-236.907"/>
<polygon fill="midnightblue" stroke="midnightblue" points="1367.87,-240.407 1377.83,-236.808 1367.8,-233.407 1367.87,-240.407"/>
</g>
<!-- Node20&#45;&gt;Node12 -->
<g id="edge20" class="edge"><title>Node20&#45;&gt;Node12</title>
<path fill="none" stroke="midnightblue" d="M1530.36,-215.448C1545.39,-210.997 1561.16,-206.322 1575.82,-201.978"/>
<polygon fill="midnightblue" stroke="midnightblue" points="1577.18,-205.227 1585.77,-199.031 1575.19,-198.516 1577.18,-205.227"/>
</g>
<!-- Node22 -->
<g id="node22" class="node"><title>Node22</title>
<g id="a_node22"><a xlink:href="classqtreports_1_1detail_1_1_replacer.html#a2114b58c90fe02b17e7bf99e144013b6" target="_top" xlink:title="qtreports::detail::\lReplacer::replaceRowGroupIn\lCrosstab">
<polygon fill="none" stroke="black" points="1383,-112.5 1383,-153.5 1537,-153.5 1537,-112.5 1383,-112.5"/>
<text text-anchor="start" x="1391" y="-141.5" font-family="Helvetica,sans-Serif" font-size="10.00">qtreports::detail::</text>
<text text-anchor="start" x="1391" y="-130.5" font-family="Helvetica,sans-Serif" font-size="10.00">Replacer::replaceRowGroupIn</text>
<text text-anchor="middle" x="1460" y="-119.5" font-family="Helvetica,sans-Serif" font-size="10.00">Crosstab</text>
</a>
</g>
</g>
<!-- Node21&#45;&gt;Node22 -->
<g id="edge22" class="edge"><title>Node21&#45;&gt;Node22</title>
<path fill="none" stroke="midnightblue" d="M1332.56,-131.113C1345.65,-131.308 1359.36,-131.513 1372.74,-131.713"/>
<polygon fill="midnightblue" stroke="midnightblue" points="1372.83,-135.214 1382.88,-131.864 1372.94,-128.215 1372.83,-135.214"/>
</g>
<!-- Node22&#45;&gt;Node12 -->
<g id="edge23" class="edge"><title>Node22&#45;&gt;Node12</title>
<path fill="none" stroke="midnightblue" d="M1531.62,-153.523C1545.88,-157.666 1560.76,-161.991 1574.69,-166.038"/>
<polygon fill="midnightblue" stroke="midnightblue" points="1574.06,-169.499 1584.64,-168.929 1576.01,-162.777 1574.06,-169.499"/>
</g>
<!-- Node23&#45;&gt;Node19 -->
<g id="edge26" class="edge"><title>Node23&#45;&gt;Node19</title>
<path fill="none" stroke="midnightblue" d="M1118.12,-207.062C1132.07,-210.192 1147.01,-213.545 1161.73,-216.847"/>
<polygon fill="midnightblue" stroke="midnightblue" points="1161.34,-220.347 1171.87,-219.121 1162.87,-213.516 1161.34,-220.347"/>
</g>
<!-- Node23&#45;&gt;Node21 -->
<g id="edge25" class="edge"><title>Node23&#45;&gt;Node21</title>
<path fill="none" stroke="midnightblue" d="M1100.62,-176.992C1123.85,-169.969 1152.05,-161.438 1178.03,-153.582"/>
<polygon fill="midnightblue" stroke="midnightblue" points="1179.3,-156.854 1187.86,-150.609 1177.27,-150.154 1179.3,-156.854"/>
</g>
<!-- Node24 -->
<g id="node24" class="node"><title>Node24</title>
<g id="a_node24"><a xlink:href="classqtreports_1_1detail_1_1_replacer.html#a9ad7270fd6bdb9a2ba85bdc9652968c8" target="_top" xlink:title="qtreports::detail::\lReplacer::replaceCellInCrosstab">
<polygon fill="none" stroke="black" points="1173.5,-169 1173.5,-199 1340.5,-199 1340.5,-169 1173.5,-169"/>
<text text-anchor="start" x="1181.5" y="-187" font-family="Helvetica,sans-Serif" font-size="10.00">qtreports::detail::</text>
<text text-anchor="middle" x="1257" y="-176" font-family="Helvetica,sans-Serif" font-size="10.00">Replacer::replaceCellInCrosstab</text>
</a>
</g>
</g>
<!-- Node23&#45;&gt;Node24 -->
<g id="edge27" class="edge"><title>Node23&#45;&gt;Node24</title>
<path fill="none" stroke="midnightblue" d="M1136.16,-188.677C1145.11,-188.327 1154.24,-187.971 1163.27,-187.619"/>
<polygon fill="midnightblue" stroke="midnightblue" points="1163.56,-191.11 1173.41,-187.223 1163.28,-184.116 1163.56,-191.11"/>
</g>
<!-- Node24&#45;&gt;Node12 -->
<g id="edge28" class="edge"><title>Node24&#45;&gt;Node12</title>
<path fill="none" stroke="midnightblue" d="M1340.6,-184C1408.49,-184 1503.57,-184 1567.46,-184"/>
<polygon fill="midnightblue" stroke="midnightblue" points="1567.83,-187.5 1577.83,-184 1567.83,-180.5 1567.83,-187.5"/>
</g>
<!-- Node25&#45;&gt;Node8 -->
<g id="edge31" class="edge"><title>Node25&#45;&gt;Node8</title>
<path fill="none" stroke="midnightblue" d="M535.159,-189.574C549.148,-185.919 563.613,-182.139 577.261,-178.572"/>
<polygon fill="midnightblue" stroke="midnightblue" points="578.246,-181.932 587.036,-176.017 576.476,-175.159 578.246,-181.932"/>
</g>
<!-- Node25&#45;&gt;Node12 -->
<g id="edge30" class="edge"><title>Node25&#45;&gt;Node12</title>
<path fill="none" stroke="midnightblue" d="M519.756,-230.533C595.162,-253.344 725.921,-287 841,-287 841,-287 841,-287 1258,-287 1384.57,-287 1425.14,-314.617 1542,-266 1572.85,-253.167 1600.74,-226.154 1618.09,-206.633"/>
<polygon fill="midnightblue" stroke="midnightblue" points="1620.76,-208.903 1624.65,-199.047 1615.46,-204.327 1620.76,-208.903"/>
</g>
</g>
</svg>
