<?xml version="1.0" encoding="UTF-8" standalone="no"?>
<!DOCTYPE svg PUBLIC "-//W3C//DTD SVG 1.1//EN"
 "http://www.w3.org/Graphics/SVG/1.1/DTD/svg11.dtd">
<!-- Generated by graphviz version 2.38.0 (20140413.2041)
 -->
<!-- Title: qtreports::detail::ParserFromXML::getAttribute Pages: 1 -->
<svg width="776pt" height="707pt"
 viewBox="0.00 0.00 776.00 707.00" xmlns="http://www.w3.org/2000/svg" xmlns:xlink="http://www.w3.org/1999/xlink">
<g id="graph0" class="graph" transform="scale(1 1) rotate(0) translate(4 703)">
<title>qtreports::detail::ParserFromXML::getAttribute</title>
<!-- Node1 -->
<g id="node1" class="node"><title>Node1</title>
<polygon fill="#bfbfbf" stroke="black" points="0,-288.5 0,-318.5 154,-318.5 154,-288.5 0,-288.5"/>
<text text-anchor="start" x="8" y="-306.5" font-family="Helvetica,sans-Serif" font-size="10.00">qtreports::detail::</text>
<text text-anchor="middle" x="77" y="-295.5" font-family="Helvetica,sans-Serif" font-size="10.00">ParserFromXML::getAttribute</text>
</g>
<!-- Node2 -->
<g id="node2" class="node"><title>Node2</title>
<g id="a_node2"><a xlink:href="classqtreports_1_1detail_1_1_parser_from_x_m_l.html#ab1cbf7385fa2d56c5e8526bf97cda9b1" target="_top" xlink:title="qtreports::detail::\lParserFromXML::getRequired\lAttribute">
<polygon fill="none" stroke="black" points="190,-359 190,-400 343,-400 343,-359 190,-359"/>
<text text-anchor="start" x="198" y="-388" font-family="Helvetica,sans-Serif" font-size="10.00">qtreports::detail::</text>
<text text-anchor="start" x="198" y="-377" font-family="Helvetica,sans-Serif" font-size="10.00">ParserFromXML::getRequired</text>
<text text-anchor="middle" x="266.5" y="-366" font-family="Helvetica,sans-Serif" font-size="10.00">Attribute</text>
</a>
</g>
</g>
<!-- Node1&#45;&gt;Node2 -->
<g id="edge1" class="edge"><title>Node1&#45;&gt;Node2</title>
<path fill="none" stroke="midnightblue" d="M124.411,-322.312C151.82,-333.422 186.549,-347.499 214.692,-358.906"/>
<polygon fill="midnightblue" stroke="midnightblue" points="125.626,-319.028 115.044,-318.515 122.997,-325.515 125.626,-319.028"/>
</g>
<!-- Node16 -->
<g id="node16" class="node"><title>Node16</title>
<g id="a_node16"><a xlink:href="classqtreports_1_1detail_1_1_parser_from_x_m_l.html#a478329a44761310039078ee6871a355d" target="_top" xlink:title="qtreports::detail::\lParserFromXML::getOptional\lAttribute">
<polygon fill="none" stroke="black" points="190.5,-207 190.5,-248 342.5,-248 342.5,-207 190.5,-207"/>
<text text-anchor="start" x="198.5" y="-236" font-family="Helvetica,sans-Serif" font-size="10.00">qtreports::detail::</text>
<text text-anchor="start" x="198.5" y="-225" font-family="Helvetica,sans-Serif" font-size="10.00">ParserFromXML::getOptional</text>
<text text-anchor="middle" x="266.5" y="-214" font-family="Helvetica,sans-Serif" font-size="10.00">Attribute</text>
</a>
</g>
</g>
<!-- Node1&#45;&gt;Node16 -->
<g id="edge26" class="edge"><title>Node1&#45;&gt;Node16</title>
<path fill="none" stroke="midnightblue" d="M124.411,-284.688C151.82,-273.578 186.549,-259.501 214.692,-248.094"/>
<polygon fill="midnightblue" stroke="midnightblue" points="122.997,-281.485 115.044,-288.485 125.626,-287.972 122.997,-281.485"/>
</g>
<!-- Node3 -->
<g id="node3" class="node"><title>Node3</title>
<g id="a_node3"><a xlink:href="classqtreports_1_1detail_1_1_parser_from_x_m_l.html#a8247dc85ae5cae03ab3f175982a0857e" target="_top" xlink:title="qtreports::detail::\lParserFromXML::parseReport">
<polygon fill="none" stroke="black" points="393.5,-364.5 393.5,-394.5 547.5,-394.5 547.5,-364.5 393.5,-364.5"/>
<text text-anchor="start" x="401.5" y="-382.5" font-family="Helvetica,sans-Serif" font-size="10.00">qtreports::detail::</text>
<text text-anchor="middle" x="470.5" y="-371.5" font-family="Helvetica,sans-Serif" font-size="10.00">ParserFromXML::parseReport</text>
</a>
</g>
</g>
<!-- Node2&#45;&gt;Node3 -->
<g id="edge2" class="edge"><title>Node2&#45;&gt;Node3</title>
<path fill="none" stroke="midnightblue" d="M353.147,-379.5C366.524,-379.5 380.269,-379.5 393.414,-379.5"/>
<polygon fill="midnightblue" stroke="midnightblue" points="353.005,-376 343.005,-379.5 353.005,-383 353.005,-376"/>
</g>
<!-- Node5 -->
<g id="node5" class="node"><title>Node5</title>
<g id="a_node5"><a xlink:href="classqtreports_1_1detail_1_1_parser_from_x_m_l.html#a5a366e39f908935a618b137e7e27496c" target="_top" xlink:title="qtreports::detail::\lParserFromXML::parseStyle">
<polygon fill="none" stroke="black" points="397,-315.5 397,-345.5 544,-345.5 544,-315.5 397,-315.5"/>
<text text-anchor="start" x="405" y="-333.5" font-family="Helvetica,sans-Serif" font-size="10.00">qtreports::detail::</text>
<text text-anchor="middle" x="470.5" y="-322.5" font-family="Helvetica,sans-Serif" font-size="10.00">ParserFromXML::parseStyle</text>
</a>
</g>
</g>
<!-- Node2&#45;&gt;Node5 -->
<g id="edge4" class="edge"><title>Node2&#45;&gt;Node5</title>
<path fill="none" stroke="midnightblue" d="M352.834,-358.8C371.218,-354.341 390.312,-349.709 407.599,-345.516"/>
<polygon fill="midnightblue" stroke="midnightblue" points="351.898,-355.426 343.005,-361.185 353.548,-362.228 351.898,-355.426"/>
</g>
<!-- Node6 -->
<g id="node6" class="node"><title>Node6</title>
<g id="a_node6"><a xlink:href="classqtreports_1_1detail_1_1_parser_from_x_m_l.html#a20a5b5081956769e0d219779407ba76c" target="_top" xlink:title="qtreports::detail::\lParserFromXML::parseField">
<polygon fill="none" stroke="black" points="398.5,-668.5 398.5,-698.5 542.5,-698.5 542.5,-668.5 398.5,-668.5"/>
<text text-anchor="start" x="406.5" y="-686.5" font-family="Helvetica,sans-Serif" font-size="10.00">qtreports::detail::</text>
<text text-anchor="middle" x="470.5" y="-675.5" font-family="Helvetica,sans-Serif" font-size="10.00">ParserFromXML::parseField</text>
</a>
</g>
</g>
<!-- Node2&#45;&gt;Node6 -->
<g id="edge6" class="edge"><title>Node2&#45;&gt;Node6</title>
<path fill="none" stroke="midnightblue" d="M270.766,-410.284C278.566,-468.001 303.637,-592.661 379,-659.5 384.716,-664.569 391.383,-668.586 398.46,-671.766"/>
<polygon fill="midnightblue" stroke="midnightblue" points="274.232,-409.796 269.502,-400.316 267.288,-410.676 274.232,-409.796"/>
</g>
<!-- Node7 -->
<g id="node7" class="node"><title>Node7</title>
<g id="a_node7"><a xlink:href="classqtreports_1_1detail_1_1_parser_from_x_m_l.html#a477a961860b1de77b5a0da28e361987a" target="_top" xlink:title="qtreports::detail::\lParserFromXML::parseGroup">
<polygon fill="none" stroke="black" points="394.5,-619.5 394.5,-649.5 546.5,-649.5 546.5,-619.5 394.5,-619.5"/>
<text text-anchor="start" x="402.5" y="-637.5" font-family="Helvetica,sans-Serif" font-size="10.00">qtreports::detail::</text>
<text text-anchor="middle" x="470.5" y="-626.5" font-family="Helvetica,sans-Serif" font-size="10.00">ParserFromXML::parseGroup</text>
</a>
</g>
</g>
<!-- Node2&#45;&gt;Node7 -->
<g id="edge8" class="edge"><title>Node2&#45;&gt;Node7</title>
<path fill="none" stroke="midnightblue" d="M273.577,-409.839C285.128,-459.452 315.041,-557.695 379,-610.5 383.638,-614.329 388.826,-617.553 394.307,-620.266"/>
<polygon fill="midnightblue" stroke="midnightblue" points="276.98,-409.021 271.385,-400.024 270.149,-410.546 276.98,-409.021"/>
</g>
<!-- Node8 -->
<g id="node8" class="node"><title>Node8</title>
<g id="a_node8"><a xlink:href="classqtreports_1_1detail_1_1_parser_from_x_m_l.html#af04b8018f1bb3d60ecb6525f31d29885" target="_top" xlink:title="qtreports::detail::\lParserFromXML::parseBand">
<polygon fill="none" stroke="black" points="396.5,-570.5 396.5,-600.5 544.5,-600.5 544.5,-570.5 396.5,-570.5"/>
<text text-anchor="start" x="404.5" y="-588.5" font-family="Helvetica,sans-Serif" font-size="10.00">qtreports::detail::</text>
<text text-anchor="middle" x="470.5" y="-577.5" font-family="Helvetica,sans-Serif" font-size="10.00">ParserFromXML::parseBand</text>
</a>
</g>
</g>
<!-- Node2&#45;&gt;Node8 -->
<g id="edge10" class="edge"><title>Node2&#45;&gt;Node8</title>
<path fill="none" stroke="midnightblue" d="M277.796,-409.666C293.266,-450.387 326.425,-522.341 379,-561.5 384.214,-565.384 390.009,-568.64 396.075,-571.37"/>
<polygon fill="midnightblue" stroke="midnightblue" points="281.074,-408.437 274.33,-400.266 274.506,-410.859 281.074,-408.437"/>
</g>
<!-- Node9 -->
<g id="node9" class="node"><title>Node9</title>
<g id="a_node9"><a xlink:href="classqtreports_1_1detail_1_1_parser_from_x_m_l.html#a9f70ead2687f2b3fc8f21dd6bf85049f" target="_top" xlink:title="qtreports::detail::\lParserFromXML::parseRowGroup">
<polygon fill="none" stroke="black" points="385.5,-266.5 385.5,-296.5 555.5,-296.5 555.5,-266.5 385.5,-266.5"/>
<text text-anchor="start" x="393.5" y="-284.5" font-family="Helvetica,sans-Serif" font-size="10.00">qtreports::detail::</text>
<text text-anchor="middle" x="470.5" y="-273.5" font-family="Helvetica,sans-Serif" font-size="10.00">ParserFromXML::parseRowGroup</text>
</a>
</g>
</g>
<!-- Node2&#45;&gt;Node9 -->
<g id="edge12" class="edge"><title>Node2&#45;&gt;Node9</title>
<path fill="none" stroke="midnightblue" d="M301.174,-352.921C322.461,-337.224 351.128,-318.033 379,-305.5 386.413,-302.167 394.382,-299.22 402.408,-296.636"/>
<polygon fill="midnightblue" stroke="midnightblue" points="299.012,-350.168 293.107,-358.964 303.209,-355.771 299.012,-350.168"/>
</g>
<!-- Node10 -->
<g id="node10" class="node"><title>Node10</title>
<g id="a_node10"><a xlink:href="classqtreports_1_1detail_1_1_parser_from_x_m_l.html#a400e9daf7e859228f6ac7419963bb808" target="_top" xlink:title="qtreports::detail::\lParserFromXML::parseColumn\lGroup">
<polygon fill="none" stroke="black" points="390.5,-207 390.5,-248 550.5,-248 550.5,-207 390.5,-207"/>
<text text-anchor="start" x="398.5" y="-236" font-family="Helvetica,sans-Serif" font-size="10.00">qtreports::detail::</text>
<text text-anchor="start" x="398.5" y="-225" font-family="Helvetica,sans-Serif" font-size="10.00">ParserFromXML::parseColumn</text>
<text text-anchor="middle" x="470.5" y="-214" font-family="Helvetica,sans-Serif" font-size="10.00">Group</text>
</a>
</g>
</g>
<!-- Node2&#45;&gt;Node10 -->
<g id="edge14" class="edge"><title>Node2&#45;&gt;Node10</title>
<path fill="none" stroke="midnightblue" d="M286.953,-350.38C306.965,-322.543 340.572,-281.253 379,-256.5 383.855,-253.373 389.073,-250.559 394.466,-248.031"/>
<polygon fill="midnightblue" stroke="midnightblue" points="284.091,-348.365 281.189,-358.554 289.812,-352.399 284.091,-348.365"/>
</g>
<!-- Node11 -->
<g id="node11" class="node"><title>Node11</title>
<g id="a_node11"><a xlink:href="classqtreports_1_1detail_1_1_parser_from_x_m_l.html#ac7539fad6732c571ad578861a5259807" target="_top" xlink:title="qtreports::detail::\lParserFromXML::parseCrosstabCell">
<polygon fill="none" stroke="black" points="379,-521.5 379,-551.5 562,-551.5 562,-521.5 379,-521.5"/>
<text text-anchor="start" x="387" y="-539.5" font-family="Helvetica,sans-Serif" font-size="10.00">qtreports::detail::</text>
<text text-anchor="middle" x="470.5" y="-528.5" font-family="Helvetica,sans-Serif" font-size="10.00">ParserFromXML::parseCrosstabCell</text>
</a>
</g>
</g>
<!-- Node2&#45;&gt;Node11 -->
<g id="edge16" class="edge"><title>Node2&#45;&gt;Node11</title>
<path fill="none" stroke="midnightblue" d="M284.499,-408.904C303.629,-439.368 337.518,-486.135 379,-512.5 384.35,-515.9 390.171,-518.822 396.194,-521.331"/>
<polygon fill="midnightblue" stroke="midnightblue" points="287.257,-406.707 279.044,-400.014 281.291,-410.368 287.257,-406.707"/>
</g>
<!-- Node12 -->
<g id="node12" class="node"><title>Node12</title>
<g id="a_node12"><a xlink:href="classqtreports_1_1detail_1_1_parser_from_x_m_l.html#aee6cb5359125988f68abfcd2f6fe4514" target="_top" xlink:title="qtreports::detail::\lParserFromXML::parseReport\lElement">
<polygon fill="none" stroke="black" points="393.5,-147 393.5,-188 547.5,-188 547.5,-147 393.5,-147"/>
<text text-anchor="start" x="401.5" y="-176" font-family="Helvetica,sans-Serif" font-size="10.00">qtreports::detail::</text>
<text text-anchor="start" x="401.5" y="-165" font-family="Helvetica,sans-Serif" font-size="10.00">ParserFromXML::parseReport</text>
<text text-anchor="middle" x="470.5" y="-154" font-family="Helvetica,sans-Serif" font-size="10.00">Element</text>
</a>
</g>
</g>
<!-- Node2&#45;&gt;Node12 -->
<g id="edge18" class="edge"><title>Node2&#45;&gt;Node12</title>
<path fill="none" stroke="midnightblue" d="M285.729,-350.297C301.091,-325.625 323.606,-289.325 343,-257.5 359.183,-230.944 354.726,-216.939 379,-197.5 383.393,-193.982 388.215,-190.87 393.276,-188.117"/>
<polygon fill="midnightblue" stroke="midnightblue" points="282.729,-348.492 280.411,-358.83 288.67,-352.194 282.729,-348.492"/>
</g>
<!-- Node13 -->
<g id="node13" class="node"><title>Node13</title>
<g id="a_node13"><a xlink:href="classqtreports_1_1detail_1_1_parser_from_x_m_l.html#a3693d70428f413c6adb999bf0ad69abe" target="_top" xlink:title="qtreports::detail::\lParserFromXML::parseTextElement">
<polygon fill="none" stroke="black" points="379.5,-98.5 379.5,-128.5 561.5,-128.5 561.5,-98.5 379.5,-98.5"/>
<text text-anchor="start" x="387.5" y="-116.5" font-family="Helvetica,sans-Serif" font-size="10.00">qtreports::detail::</text>
<text text-anchor="middle" x="470.5" y="-105.5" font-family="Helvetica,sans-Serif" font-size="10.00">ParserFromXML::parseTextElement</text>
</a>
</g>
</g>
<!-- Node2&#45;&gt;Node13 -->
<g id="edge20" class="edge"><title>Node2&#45;&gt;Node13</title>
<path fill="none" stroke="midnightblue" d="M288.45,-350.554C305.051,-326.566 327.89,-291.083 343,-257.5 365.848,-206.722 338.998,-176.233 379,-137.5 382.503,-134.108 386.428,-131.181 390.628,-128.657"/>
<polygon fill="midnightblue" stroke="midnightblue" points="285.512,-348.648 282.642,-358.847 291.246,-352.664 285.512,-348.648"/>
</g>
<!-- Node14 -->
<g id="node14" class="node"><title>Node14</title>
<g id="a_node14"><a xlink:href="classqtreports_1_1detail_1_1_parser_from_x_m_l.html#a459f21efce7b714320d84d304d304d60" target="_top" xlink:title="qtreports::detail::\lParserFromXML::parseTextField\lExpression">
<polygon fill="none" stroke="black" points="389,-462 389,-503 552,-503 552,-462 389,-462"/>
<text text-anchor="start" x="397" y="-491" font-family="Helvetica,sans-Serif" font-size="10.00">qtreports::detail::</text>
<text text-anchor="start" x="397" y="-480" font-family="Helvetica,sans-Serif" font-size="10.00">ParserFromXML::parseTextField</text>
<text text-anchor="middle" x="470.5" y="-469" font-family="Helvetica,sans-Serif" font-size="10.00">Expression</text>
</a>
</g>
</g>
<!-- Node2&#45;&gt;Node14 -->
<g id="edge22" class="edge"><title>Node2&#45;&gt;Node14</title>
<path fill="none" stroke="midnightblue" d="M302.271,-406.205C323.549,-421.604 351.825,-440.44 379,-453.5 385.246,-456.502 391.878,-459.299 398.602,-461.878"/>
<polygon fill="midnightblue" stroke="midnightblue" points="304.321,-403.368 294.187,-400.276 300.181,-409.013 304.321,-403.368"/>
</g>
<!-- Node15 -->
<g id="node15" class="node"><title>Node15</title>
<g id="a_node15"><a xlink:href="classqtreports_1_1detail_1_1_parser_from_x_m_l.html#abae86fff31affc499e427922f199dfd6" target="_top" xlink:title="qtreports::detail::\lParserFromXML::parseVariable">
<polygon fill="none" stroke="black" points="390,-413.5 390,-443.5 551,-443.5 551,-413.5 390,-413.5"/>
<text text-anchor="start" x="398" y="-431.5" font-family="Helvetica,sans-Serif" font-size="10.00">qtreports::detail::</text>
<text text-anchor="middle" x="470.5" y="-420.5" font-family="Helvetica,sans-Serif" font-size="10.00">ParserFromXML::parseVariable</text>
</a>
</g>
</g>
<!-- Node2&#45;&gt;Node15 -->
<g id="edge24" class="edge"><title>Node2&#45;&gt;Node15</title>
<path fill="none" stroke="midnightblue" d="M352.834,-400.2C371.218,-404.659 390.312,-409.291 407.599,-413.484"/>
<polygon fill="midnightblue" stroke="midnightblue" points="353.548,-396.772 343.005,-397.815 351.898,-403.574 353.548,-396.772"/>
</g>
<!-- Node4 -->
<g id="node4" class="node"><title>Node4</title>
<g id="a_node4"><a xlink:href="classqtreports_1_1detail_1_1_parser_from_x_m_l.html#ab548bd252b2e13a315daefae6b43f1d6" target="_top" xlink:title="qtreports::detail::\lParserFromXML::ParserFromXML">
<polygon fill="none" stroke="black" points="598,-339.5 598,-369.5 768,-369.5 768,-339.5 598,-339.5"/>
<text text-anchor="start" x="606" y="-357.5" font-family="Helvetica,sans-Serif" font-size="10.00">qtreports::detail::</text>
<text text-anchor="middle" x="683" y="-346.5" font-family="Helvetica,sans-Serif" font-size="10.00">ParserFromXML::ParserFromXML</text>
</a>
</g>
</g>
<!-- Node3&#45;&gt;Node4 -->
<g id="edge3" class="edge"><title>Node3&#45;&gt;Node4</title>
<path fill="none" stroke="midnightblue" d="M557.796,-369.251C571.002,-367.683 584.618,-366.066 597.778,-364.503"/>
<polygon fill="midnightblue" stroke="midnightblue" points="557.31,-365.784 547.793,-370.439 558.136,-372.735 557.31,-365.784"/>
</g>
<!-- Node5&#45;&gt;Node4 -->
<g id="edge5" class="edge"><title>Node5&#45;&gt;Node4</title>
<path fill="none" stroke="midnightblue" d="M554.465,-339.959C568.671,-341.579 583.445,-343.263 597.686,-344.887"/>
<polygon fill="midnightblue" stroke="midnightblue" points="554.569,-336.448 544.237,-338.793 553.776,-343.403 554.569,-336.448"/>
</g>
<!-- Node6&#45;&gt;Node4 -->
<g id="edge7" class="edge"><title>Node6&#45;&gt;Node4</title>
<path fill="none" stroke="midnightblue" d="M551.562,-667.11C555.279,-664.882 558.791,-662.358 562,-659.5 653.148,-578.324 675.799,-419.053 680.748,-369.547"/>
<polygon fill="midnightblue" stroke="midnightblue" points="549.819,-664.071 542.561,-671.79 553.048,-670.282 549.819,-664.071"/>
</g>
<!-- Node7&#45;&gt;Node4 -->
<g id="edge9" class="edge"><title>Node7&#45;&gt;Node4</title>
<path fill="none" stroke="midnightblue" d="M555.644,-615.216C557.854,-613.756 559.98,-612.187 562,-610.5 641.302,-544.266 671.324,-413.869 679.491,-369.609"/>
<polygon fill="midnightblue" stroke="midnightblue" points="553.673,-612.312 546.741,-620.324 557.156,-618.383 553.673,-612.312"/>
</g>
<!-- Node8&#45;&gt;Node4 -->
<g id="edge11" class="edge"><title>Node8&#45;&gt;Node4</title>
<path fill="none" stroke="midnightblue" d="M553.629,-567.072C556.548,-565.376 559.352,-563.523 562,-561.5 629.671,-509.807 665.913,-408.165 677.667,-369.718"/>
<polygon fill="midnightblue" stroke="midnightblue" points="551.878,-564.037 544.573,-571.71 555.069,-570.267 551.878,-564.037"/>
</g>
<!-- Node9&#45;&gt;Node4 -->
<g id="edge13" class="edge"><title>Node9&#45;&gt;Node4</title>
<path fill="none" stroke="midnightblue" d="M542.416,-299.37C549.07,-301.328 555.683,-303.383 562,-305.5 591.764,-315.478 624.723,-329.131 648.556,-339.492"/>
<polygon fill="midnightblue" stroke="midnightblue" points="543.247,-295.968 532.669,-296.576 541.317,-302.696 543.247,-295.968"/>
</g>
<!-- Node10&#45;&gt;Node4 -->
<g id="edge15" class="edge"><title>Node10&#45;&gt;Node4</title>
<path fill="none" stroke="midnightblue" d="M553.545,-252.222C556.434,-253.587 559.261,-255.013 562,-256.5 604.312,-279.476 646.122,-318.234 667.446,-339.471"/>
<polygon fill="midnightblue" stroke="midnightblue" points="554.711,-248.911 544.15,-248.067 551.88,-255.313 554.711,-248.911"/>
</g>
<!-- Node11&#45;&gt;Node4 -->
<g id="edge17" class="edge"><title>Node11&#45;&gt;Node4</title>
<path fill="none" stroke="midnightblue" d="M554.499,-517.017C557.086,-515.615 559.594,-514.111 562,-512.5 618.376,-474.734 659.047,-401.528 674.8,-369.791"/>
<polygon fill="midnightblue" stroke="midnightblue" points="552.916,-513.895 545.446,-521.408 555.971,-520.194 552.916,-513.895"/>
</g>
<!-- Node12&#45;&gt;Node4 -->
<g id="edge19" class="edge"><title>Node12&#45;&gt;Node4</title>
<path fill="none" stroke="midnightblue" d="M555.405,-193.176C557.672,-194.547 559.877,-195.987 562,-197.5 616.76,-236.523 658.011,-307.822 674.339,-339.101"/>
<polygon fill="midnightblue" stroke="midnightblue" points="556.833,-189.967 546.383,-188.225 553.466,-196.104 556.833,-189.967"/>
</g>
<!-- Node13&#45;&gt;Node4 -->
<g id="edge21" class="edge"><title>Node13&#45;&gt;Node4</title>
<path fill="none" stroke="midnightblue" d="M556.923,-133.875C558.67,-135.018 560.366,-136.225 562,-137.5 632.096,-192.177 667.188,-299.84 678.138,-339.431"/>
<polygon fill="midnightblue" stroke="midnightblue" points="558.224,-130.588 547.804,-128.674 554.756,-136.668 558.224,-130.588"/>
</g>
<!-- Node14&#45;&gt;Node4 -->
<g id="edge23" class="edge"><title>Node14&#45;&gt;Node4</title>
<path fill="none" stroke="midnightblue" d="M553.555,-457.796C556.44,-456.426 559.265,-454.994 562,-453.5 604.427,-430.324 646.192,-391.157 667.477,-369.691"/>
<polygon fill="midnightblue" stroke="midnightblue" points="551.886,-454.707 544.166,-461.963 554.726,-461.105 551.886,-454.707"/>
</g>
<!-- Node15&#45;&gt;Node4 -->
<g id="edge25" class="edge"><title>Node15&#45;&gt;Node4</title>
<path fill="none" stroke="midnightblue" d="M540.01,-410.5C547.47,-408.266 554.92,-405.914 562,-403.5 591.606,-393.406 624.439,-379.827 648.267,-369.524"/>
<polygon fill="midnightblue" stroke="midnightblue" points="538.842,-407.196 530.229,-413.366 540.809,-413.913 538.842,-407.196"/>
</g>
<!-- Node16&#45;&gt;Node3 -->
<g id="edge27" class="edge"><title>Node16&#45;&gt;Node3</title>
<path fill="none" stroke="midnightblue" d="M285.85,-256.944C305.442,-285.971 339.123,-329.504 379,-354.5 385.215,-358.396 392.042,-361.694 399.072,-364.485"/>
<polygon fill="midnightblue" stroke="midnightblue" points="288.663,-254.853 280.23,-248.438 282.822,-258.711 288.663,-254.853"/>
</g>
<!-- Node16&#45;&gt;Node5 -->
<g id="edge28" class="edge"><title>Node16&#45;&gt;Node5</title>
<path fill="none" stroke="midnightblue" d="M299.729,-254.503C321.07,-271.22 350.319,-291.998 379,-305.5 386.964,-309.249 395.595,-312.529 404.257,-315.37"/>
<polygon fill="midnightblue" stroke="midnightblue" points="301.672,-251.577 291.668,-248.087 297.313,-257.054 301.672,-251.577"/>
</g>
<!-- Node16&#45;&gt;Node9 -->
<g id="edge31" class="edge"><title>Node16&#45;&gt;Node9</title>
<path fill="none" stroke="midnightblue" d="M352.459,-250.393C361.419,-252.797 370.395,-255.201 379,-257.5 389.836,-260.395 401.405,-263.472 412.525,-266.424"/>
<polygon fill="midnightblue" stroke="midnightblue" points="353.327,-247.002 342.761,-247.789 351.512,-253.763 353.327,-247.002"/>
</g>
<!-- Node16&#45;&gt;Node10 -->
<g id="edge32" class="edge"><title>Node16&#45;&gt;Node10</title>
<path fill="none" stroke="midnightblue" d="M352.983,-227.5C365.313,-227.5 377.959,-227.5 390.163,-227.5"/>
<polygon fill="midnightblue" stroke="midnightblue" points="352.717,-224 342.717,-227.5 352.717,-231 352.717,-224"/>
</g>
<!-- Node16&#45;&gt;Node12 -->
<g id="edge33" class="edge"><title>Node16&#45;&gt;Node12</title>
<path fill="none" stroke="midnightblue" d="M346.499,-204.035C364.279,-198.754 383.016,-193.188 400.356,-188.038"/>
<polygon fill="midnightblue" stroke="midnightblue" points="345.324,-200.733 336.734,-206.935 347.317,-207.443 345.324,-200.733"/>
</g>
<!-- Node16&#45;&gt;Node13 -->
<g id="edge34" class="edge"><title>Node16&#45;&gt;Node13</title>
<path fill="none" stroke="midnightblue" d="M294.774,-199.939C316.028,-179.925 347.183,-153.628 379,-137.5 385.669,-134.119 392.864,-131.179 400.18,-128.629"/>
<polygon fill="midnightblue" stroke="midnightblue" points="292.207,-197.552 287.409,-206.998 297.051,-202.606 292.207,-197.552"/>
</g>
<!-- Node17 -->
<g id="node17" class="node"><title>Node17</title>
<g id="a_node17"><a xlink:href="classqtreports_1_1detail_1_1_parser_from_x_m_l.html#a55d48b0d7875a6a4366c0e30f6cf5624" target="_top" xlink:title="qtreports::detail::\lParserFromXML::parseCrosstab">
<polygon fill="none" stroke="black" points="387.5,-49.5 387.5,-79.5 553.5,-79.5 553.5,-49.5 387.5,-49.5"/>
<text text-anchor="start" x="395.5" y="-67.5" font-family="Helvetica,sans-Serif" font-size="10.00">qtreports::detail::</text>
<text text-anchor="middle" x="470.5" y="-56.5" font-family="Helvetica,sans-Serif" font-size="10.00">ParserFromXML::parseCrosstab</text>
</a>
</g>
</g>
<!-- Node16&#45;&gt;Node17 -->
<g id="edge29" class="edge"><title>Node16&#45;&gt;Node17</title>
<path fill="none" stroke="midnightblue" d="M283.467,-197.963C302.186,-166.156 336.168,-116.378 379,-88.5 384.313,-85.0419 390.108,-82.0804 396.114,-79.5445"/>
<polygon fill="midnightblue" stroke="midnightblue" points="280.326,-196.404 278.376,-206.818 286.395,-199.893 280.326,-196.404"/>
</g>
<!-- Node18 -->
<g id="node18" class="node"><title>Node18</title>
<g id="a_node18"><a xlink:href="classqtreports_1_1detail_1_1_parser_from_x_m_l.html#a4f7803080037058f482a499ebc1a51ee" target="_top" xlink:title="qtreports::detail::\lParserFromXML::parseFont">
<polygon fill="none" stroke="black" points="398.5,-0.5 398.5,-30.5 542.5,-30.5 542.5,-0.5 398.5,-0.5"/>
<text text-anchor="start" x="406.5" y="-18.5" font-family="Helvetica,sans-Serif" font-size="10.00">qtreports::detail::</text>
<text text-anchor="middle" x="470.5" y="-7.5" font-family="Helvetica,sans-Serif" font-size="10.00">ParserFromXML::parseFont</text>
</a>
</g>
</g>
<!-- Node16&#45;&gt;Node18 -->
<g id="edge35" class="edge"><title>Node16&#45;&gt;Node18</title>
<path fill="none" stroke="midnightblue" d="M277.164,-197.333C292.15,-155.466 325.029,-80.3041 379,-39.5 384.835,-35.0887 391.415,-31.4866 398.297,-28.5457"/>
<polygon fill="midnightblue" stroke="midnightblue" points="273.791,-196.377 273.82,-206.972 280.404,-198.671 273.791,-196.377"/>
</g>
<!-- Node17&#45;&gt;Node4 -->
<g id="edge30" class="edge"><title>Node17&#45;&gt;Node4</title>
<path fill="none" stroke="midnightblue" d="M557.217,-84.8033C558.868,-85.9683 560.466,-87.1993 562,-88.5 643.738,-157.783 672.324,-294.148 679.792,-339.462"/>
<polygon fill="midnightblue" stroke="midnightblue" points="558.919,-81.7415 548.561,-79.5108 555.267,-87.7136 558.919,-81.7415"/>
</g>
<!-- Node18&#45;&gt;Node4 -->
<g id="edge36" class="edge"><title>Node18&#45;&gt;Node4</title>
<path fill="none" stroke="midnightblue" d="M551.6,-31.8483C555.307,-34.087 558.806,-36.6245 562,-39.5 655.505,-123.689 676.591,-288.648 680.947,-339.327"/>
<polygon fill="midnightblue" stroke="midnightblue" points="553.099,-28.6829 542.616,-27.1486 549.854,-34.8854 553.099,-28.6829"/>
</g>
</g>
</svg>
