<?xml version="1.0" encoding="UTF-8" standalone="no"?>
<!DOCTYPE svg PUBLIC "-//W3C//DTD SVG 1.1//EN"
 "http://www.w3.org/Graphics/SVG/1.1/DTD/svg11.dtd">
<!-- Generated by graphviz version 2.38.0 (20140413.2041)
 -->
<!-- Title: qtreports::detail::Style::getFontName Pages: 1 -->
<svg width="676pt" height="88pt"
 viewBox="0.00 0.00 676.00 88.00" xmlns="http://www.w3.org/2000/svg" xmlns:xlink="http://www.w3.org/1999/xlink">
<g id="graph0" class="graph" transform="scale(1 1) rotate(0) translate(4 84)">
<title>qtreports::detail::Style::getFontName</title>
<!-- Node1 -->
<g id="node1" class="node"><title>Node1</title>
<polygon fill="#bfbfbf" stroke="black" points="0,-24.5 0,-54.5 113,-54.5 113,-24.5 0,-24.5"/>
<text text-anchor="start" x="8" y="-42.5" font-family="Helvetica,sans-Serif" font-size="10.00">qtreports::detail::</text>
<text text-anchor="middle" x="56.5" y="-31.5" font-family="Helvetica,sans-Serif" font-size="10.00">Style::getFontName</text>
</g>
<!-- Node2 -->
<g id="node2" class="node"><title>Node2</title>
<g id="a_node2"><a xlink:href="classqtreports_1_1detail_1_1_converter_to_h_t_m_l.html#ace8358a3612fc8085b7c34f1f92341e2" target="_top" xlink:title="Процесс конвертации репорта в HTML формат. ">
<polygon fill="none" stroke="black" points="149,-24.5 149,-54.5 312,-54.5 312,-24.5 149,-24.5"/>
<text text-anchor="start" x="157" y="-42.5" font-family="Helvetica,sans-Serif" font-size="10.00">qtreports::detail::</text>
<text text-anchor="middle" x="230.5" y="-31.5" font-family="Helvetica,sans-Serif" font-size="10.00">ConverterToHTML::createHTML</text>
</a>
</g>
</g>
<!-- Node1&#45;&gt;Node2 -->
<g id="edge1" class="edge"><title>Node1&#45;&gt;Node2</title>
<path fill="none" stroke="midnightblue" d="M123.39,-39.5C131.755,-39.5 140.388,-39.5 148.949,-39.5"/>
<polygon fill="midnightblue" stroke="midnightblue" points="123.344,-36.0001 113.343,-39.5 123.343,-43.0001 123.344,-36.0001"/>
</g>
<!-- Node3 -->
<g id="node3" class="node"><title>Node3</title>
<g id="a_node3"><a xlink:href="classqtreports_1_1detail_1_1_converter_to_h_t_m_l.html#ad91ac333abf7d02f7590970a54ef7aae" target="_top" xlink:title="Запускает процесс конвертации репорта в HTML формат. ">
<polygon fill="none" stroke="black" points="348,-24.5 348,-54.5 490,-54.5 490,-24.5 348,-24.5"/>
<text text-anchor="start" x="356" y="-42.5" font-family="Helvetica,sans-Serif" font-size="10.00">qtreports::detail::</text>
<text text-anchor="middle" x="419" y="-31.5" font-family="Helvetica,sans-Serif" font-size="10.00">ConverterToHTML::convert</text>
</a>
</g>
</g>
<!-- Node2&#45;&gt;Node3 -->
<g id="edge2" class="edge"><title>Node2&#45;&gt;Node3</title>
<path fill="none" stroke="midnightblue" d="M322.316,-39.5C330.944,-39.5 339.601,-39.5 347.989,-39.5"/>
<polygon fill="midnightblue" stroke="midnightblue" points="322.217,-36.0001 312.217,-39.5 322.217,-43.0001 322.217,-36.0001"/>
</g>
<!-- Node4 -->
<g id="node4" class="node"><title>Node4</title>
<g id="a_node4"><a xlink:href="classqtreports_1_1detail_1_1_converter_to_h_t_m_l.html#a38e92f3fd70f61c44871b22cddffd15a" target="_top" xlink:title="Создает HTML документ при успешной конвертации репорта в HTML формат. ">
<polygon fill="none" stroke="black" points="526,-49.5 526,-79.5 668,-79.5 668,-49.5 526,-49.5"/>
<text text-anchor="start" x="534" y="-67.5" font-family="Helvetica,sans-Serif" font-size="10.00">qtreports::detail::</text>
<text text-anchor="middle" x="597" y="-56.5" font-family="Helvetica,sans-Serif" font-size="10.00">ConverterToHTML::convert</text>
</a>
</g>
</g>
<!-- Node3&#45;&gt;Node4 -->
<g id="edge3" class="edge"><title>Node3&#45;&gt;Node4</title>
<path fill="none" stroke="midnightblue" d="M500.101,-50.8779C508.706,-52.1003 517.412,-53.337 525.888,-54.5409"/>
<polygon fill="midnightblue" stroke="midnightblue" points="500.458,-47.3937 490.066,-49.4525 499.474,-54.3241 500.458,-47.3937"/>
</g>
<!-- Node5 -->
<g id="node5" class="node"><title>Node5</title>
<g id="a_node5"><a xlink:href="classqtreports_1_1_engine.html#a551b0db0510d572d56447c471daa0891" target="_top" xlink:title="Создает HTML документ отчета по указанному пути ">
<polygon fill="none" stroke="black" points="544.5,-0.5 544.5,-30.5 649.5,-30.5 649.5,-0.5 544.5,-0.5"/>
<text text-anchor="start" x="552.5" y="-18.5" font-family="Helvetica,sans-Serif" font-size="10.00">qtreports::Engine::</text>
<text text-anchor="middle" x="597" y="-7.5" font-family="Helvetica,sans-Serif" font-size="10.00">createHTML</text>
</a>
</g>
</g>
<!-- Node3&#45;&gt;Node5 -->
<g id="edge4" class="edge"><title>Node3&#45;&gt;Node5</title>
<path fill="none" stroke="midnightblue" d="M500.347,-28.5436C515.298,-26.5049 530.545,-24.4257 544.345,-22.5438"/>
<polygon fill="midnightblue" stroke="midnightblue" points="499.501,-25.1265 490.066,-29.9456 500.447,-32.0623 499.501,-25.1265"/>
</g>
</g>
</svg>
