<?xml version="1.0" encoding="UTF-8" standalone="no"?>
<!DOCTYPE svg PUBLIC "-//W3C//DTD SVG 1.1//EN"
 "http://www.w3.org/Graphics/SVG/1.1/DTD/svg11.dtd">
<!-- Generated by graphviz version 2.38.0 (20140413.2041)
 -->
<!-- Title: qtreports::detail::Report::isDetailHasGroupHeader Pages: 1 -->
<svg width="616pt" height="127pt"
 viewBox="0.00 0.00 616.00 127.00" xmlns="http://www.w3.org/2000/svg" xmlns:xlink="http://www.w3.org/1999/xlink">
<g id="graph0" class="graph" transform="scale(1 1) rotate(0) translate(4 123)">
<title>qtreports::detail::Report::isDetailHasGroupHeader</title>
<!-- Node1 -->
<g id="node1" class="node"><title>Node1</title>
<polygon fill="#bfbfbf" stroke="black" points="0,-44.5 0,-74.5 172,-74.5 172,-44.5 0,-44.5"/>
<text text-anchor="start" x="8" y="-62.5" font-family="Helvetica,sans-Serif" font-size="10.00">qtreports::detail::</text>
<text text-anchor="middle" x="86" y="-51.5" font-family="Helvetica,sans-Serif" font-size="10.00">Report::isDetailHasGroupHeader</text>
</g>
<!-- Node2 -->
<g id="node2" class="node"><title>Node2</title>
<g id="a_node2"><a xlink:href="classqtreports_1_1detail_1_1_report.html#a6bec8b279652c93ca97fbc981a1bbde6" target="_top" xlink:title="qtreports::detail::\lReport::getGroupIndexFromField">
<polygon fill="none" stroke="black" points="208,-88.5 208,-118.5 377,-118.5 377,-88.5 208,-88.5"/>
<text text-anchor="start" x="216" y="-106.5" font-family="Helvetica,sans-Serif" font-size="10.00">qtreports::detail::</text>
<text text-anchor="middle" x="292.5" y="-95.5" font-family="Helvetica,sans-Serif" font-size="10.00">Report::getGroupIndexFromField</text>
</a>
</g>
</g>
<!-- Node1&#45;&gt;Node2 -->
<g id="edge1" class="edge"><title>Node1&#45;&gt;Node2</title>
<path fill="none" stroke="midnightblue" d="M156.805,-74.5192C174.476,-78.3212 193.589,-82.4336 211.712,-86.3328"/>
<polygon fill="midnightblue" stroke="midnightblue" points="211.15,-89.792 221.662,-88.4738 212.622,-82.9486 211.15,-89.792"/>
</g>
<!-- Node3 -->
<g id="node3" class="node"><title>Node3</title>
<g id="a_node3"><a xlink:href="classqtreports_1_1detail_1_1_report.html#a7ed52dab72fd40799444c74426d4163e" target="_top" xlink:title="qtreports::detail::\lReport::getFieldFromGroupExpression">
<polygon fill="none" stroke="black" points="413,-66.5 413,-96.5 608,-96.5 608,-66.5 413,-66.5"/>
<text text-anchor="start" x="421" y="-84.5" font-family="Helvetica,sans-Serif" font-size="10.00">qtreports::detail::</text>
<text text-anchor="middle" x="510.5" y="-73.5" font-family="Helvetica,sans-Serif" font-size="10.00">Report::getFieldFromGroupExpression</text>
</a>
</g>
</g>
<!-- Node1&#45;&gt;Node3 -->
<g id="edge3" class="edge"><title>Node1&#45;&gt;Node3</title>
<path fill="none" stroke="midnightblue" d="M172.245,-63.9388C238.642,-67.3962 331.211,-72.2163 402.574,-75.9322"/>
<polygon fill="midnightblue" stroke="midnightblue" points="402.774,-79.4473 412.943,-76.4722 403.139,-72.4568 402.774,-79.4473"/>
</g>
<!-- Node4 -->
<g id="node4" class="node"><title>Node4</title>
<g id="a_node4"><a xlink:href="classqtreports_1_1detail_1_1_report.html#a0af8f2932f7b116c2db67cc8d8ee644e" target="_top" xlink:title="qtreports::detail::\lReport::getGroupByIndex">
<polygon fill="none" stroke="black" points="224.5,-0.5 224.5,-30.5 360.5,-30.5 360.5,-0.5 224.5,-0.5"/>
<text text-anchor="start" x="232.5" y="-18.5" font-family="Helvetica,sans-Serif" font-size="10.00">qtreports::detail::</text>
<text text-anchor="middle" x="292.5" y="-7.5" font-family="Helvetica,sans-Serif" font-size="10.00">Report::getGroupByIndex</text>
</a>
</g>
</g>
<!-- Node1&#45;&gt;Node4 -->
<g id="edge4" class="edge"><title>Node1&#45;&gt;Node4</title>
<path fill="none" stroke="midnightblue" d="M156.805,-44.4808C175.428,-40.474 195.652,-36.1225 214.631,-32.039"/>
<polygon fill="midnightblue" stroke="midnightblue" points="215.387,-35.4565 224.427,-29.9313 213.915,-28.6131 215.387,-35.4565"/>
</g>
<!-- Node2&#45;&gt;Node3 -->
<g id="edge2" class="edge"><title>Node2&#45;&gt;Node3</title>
<path fill="none" stroke="midnightblue" d="M377.011,-94.9942C385.459,-94.1338 394.117,-93.252 402.764,-92.3712"/>
<polygon fill="midnightblue" stroke="midnightblue" points="403.304,-95.8345 412.898,-91.3391 402.594,-88.8705 403.304,-95.8345"/>
</g>
</g>
</svg>
