<?xml version="1.0" encoding="UTF-8" standalone="no"?>
<!DOCTYPE svg PUBLIC "-//W3C//DTD SVG 1.1//EN"
 "http://www.w3.org/Graphics/SVG/1.1/DTD/svg11.dtd">
<!-- Generated by graphviz version 2.38.0 (20140413.2041)
 -->
<!-- Title: qtreports::detail::Report::getGroupVec Pages: 1 -->
<svg width="560pt" height="88pt"
 viewBox="0.00 0.00 560.00 88.00" xmlns="http://www.w3.org/2000/svg" xmlns:xlink="http://www.w3.org/1999/xlink">
<g id="graph0" class="graph" transform="scale(1 1) rotate(0) translate(4 84)">
<title>qtreports::detail::Report::getGroupVec</title>
<!-- Node1 -->
<g id="node1" class="node"><title>Node1</title>
<polygon fill="#bfbfbf" stroke="black" points="0,-24.5 0,-54.5 116,-54.5 116,-24.5 0,-24.5"/>
<text text-anchor="start" x="8" y="-42.5" font-family="Helvetica,sans-Serif" font-size="10.00">qtreports::detail::</text>
<text text-anchor="middle" x="58" y="-31.5" font-family="Helvetica,sans-Serif" font-size="10.00">Report::getGroupVec</text>
</g>
<!-- Node2 -->
<g id="node2" class="node"><title>Node2</title>
<g id="a_node2"><a xlink:href="classqtreports_1_1detail_1_1_report.html#a6bec8b279652c93ca97fbc981a1bbde6" target="_top" xlink:title="qtreports::detail::\lReport::getGroupIndexFromField">
<polygon fill="none" stroke="black" points="152,-49.5 152,-79.5 321,-79.5 321,-49.5 152,-49.5"/>
<text text-anchor="start" x="160" y="-67.5" font-family="Helvetica,sans-Serif" font-size="10.00">qtreports::detail::</text>
<text text-anchor="middle" x="236.5" y="-56.5" font-family="Helvetica,sans-Serif" font-size="10.00">Report::getGroupIndexFromField</text>
</a>
</g>
</g>
<!-- Node1&#45;&gt;Node2 -->
<g id="edge1" class="edge"><title>Node1&#45;&gt;Node2</title>
<path fill="none" stroke="midnightblue" d="M116.304,-47.6168C124.48,-48.7748 133.061,-49.9902 141.713,-51.2157"/>
<polygon fill="midnightblue" stroke="midnightblue" points="141.491,-54.7191 151.883,-52.6562 142.472,-47.7883 141.491,-54.7191"/>
</g>
<!-- Node4 -->
<g id="node4" class="node"><title>Node4</title>
<g id="a_node4"><a xlink:href="classqtreports_1_1detail_1_1_report.html#a0af8f2932f7b116c2db67cc8d8ee644e" target="_top" xlink:title="qtreports::detail::\lReport::getGroupByIndex">
<polygon fill="none" stroke="black" points="168.5,-0.5 168.5,-30.5 304.5,-30.5 304.5,-0.5 168.5,-0.5"/>
<text text-anchor="start" x="176.5" y="-18.5" font-family="Helvetica,sans-Serif" font-size="10.00">qtreports::detail::</text>
<text text-anchor="middle" x="236.5" y="-7.5" font-family="Helvetica,sans-Serif" font-size="10.00">Report::getGroupByIndex</text>
</a>
</g>
</g>
<!-- Node1&#45;&gt;Node4 -->
<g id="edge3" class="edge"><title>Node1&#45;&gt;Node4</title>
<path fill="none" stroke="midnightblue" d="M116.304,-31.7079C129.669,-29.8906 144.118,-27.9259 158.19,-26.0124"/>
<polygon fill="midnightblue" stroke="midnightblue" points="158.912,-29.4465 168.349,-24.631 157.969,-22.5104 158.912,-29.4465"/>
</g>
<!-- Node3 -->
<g id="node3" class="node"><title>Node3</title>
<g id="a_node3"><a xlink:href="classqtreports_1_1detail_1_1_report.html#a7ed52dab72fd40799444c74426d4163e" target="_top" xlink:title="qtreports::detail::\lReport::getFieldFromGroupExpression">
<polygon fill="none" stroke="black" points="357,-49.5 357,-79.5 552,-79.5 552,-49.5 357,-49.5"/>
<text text-anchor="start" x="365" y="-67.5" font-family="Helvetica,sans-Serif" font-size="10.00">qtreports::detail::</text>
<text text-anchor="middle" x="454.5" y="-56.5" font-family="Helvetica,sans-Serif" font-size="10.00">Report::getFieldFromGroupExpression</text>
</a>
</g>
</g>
<!-- Node2&#45;&gt;Node3 -->
<g id="edge2" class="edge"><title>Node2&#45;&gt;Node3</title>
<path fill="none" stroke="midnightblue" d="M321.011,-64.5C329.459,-64.5 338.117,-64.5 346.764,-64.5"/>
<polygon fill="midnightblue" stroke="midnightblue" points="346.898,-68.0001 356.898,-64.5 346.898,-61.0001 346.898,-68.0001"/>
</g>
</g>
</svg>
