<?xml version="1.0" encoding="UTF-8" standalone="no"?>
<!DOCTYPE svg PUBLIC "-//W3C//DTD SVG 1.1//EN"
 "http://www.w3.org/Graphics/SVG/1.1/DTD/svg11.dtd">
<!-- Generated by graphviz version 2.38.0 (20140413.2041)
 -->
<!-- Title: qtreports::detail::CrosstabGroup Pages: 1 -->
<svg width="409pt" height="507pt"
 viewBox="0.00 0.00 408.50 507.00" xmlns="http://www.w3.org/2000/svg" xmlns:xlink="http://www.w3.org/1999/xlink">
<g id="graph0" class="graph" transform="scale(1 1) rotate(0) translate(4 503)">
<title>qtreports::detail::CrosstabGroup</title>
<!-- Node1 -->
<g id="node1" class="node"><title>Node1</title>
<polygon fill="#bfbfbf" stroke="black" points="127.5,-0.5 127.5,-167.5 243.5,-167.5 243.5,-0.5 127.5,-0.5"/>
<text text-anchor="start" x="135.5" y="-155.5" font-family="Helvetica,sans-Serif" font-size="10.00">qtreports::detail::</text>
<text text-anchor="middle" x="185.5" y="-144.5" font-family="Helvetica,sans-Serif" font-size="10.00">CrosstabGroup</text>
<polyline fill="none" stroke="black" points="127.5,-137.5 243.5,-137.5 "/>
<text text-anchor="middle" x="185.5" y="-125.5" font-family="Helvetica,sans-Serif" font-size="10.00"> </text>
<polyline fill="none" stroke="black" points="127.5,-118.5 243.5,-118.5 "/>
<text text-anchor="start" x="135.5" y="-106.5" font-family="Helvetica,sans-Serif" font-size="10.00">+ CrosstabGroup()</text>
<text text-anchor="start" x="135.5" y="-95.5" font-family="Helvetica,sans-Serif" font-size="10.00">+ ~CrosstabGroup()</text>
<text text-anchor="start" x="135.5" y="-84.5" font-family="Helvetica,sans-Serif" font-size="10.00">+ setType()</text>
<text text-anchor="start" x="135.5" y="-73.5" font-family="Helvetica,sans-Serif" font-size="10.00">+ getType()</text>
<text text-anchor="start" x="135.5" y="-62.5" font-family="Helvetica,sans-Serif" font-size="10.00">+ setHeader()</text>
<text text-anchor="start" x="135.5" y="-51.5" font-family="Helvetica,sans-Serif" font-size="10.00">+ getHeader()</text>
<text text-anchor="start" x="135.5" y="-40.5" font-family="Helvetica,sans-Serif" font-size="10.00">+ setWidth()</text>
<text text-anchor="start" x="135.5" y="-29.5" font-family="Helvetica,sans-Serif" font-size="10.00">+ getWidth()</text>
<text text-anchor="start" x="135.5" y="-18.5" font-family="Helvetica,sans-Serif" font-size="10.00">+ setHeight()</text>
<text text-anchor="start" x="135.5" y="-7.5" font-family="Helvetica,sans-Serif" font-size="10.00">+ getHeight()</text>
</g>
<!-- Node2 -->
<g id="node2" class="node"><title>Node2</title>
<g id="a_node2"><a xlink:href="classqtreports_1_1detail_1_1_object.html" target="_top" xlink:title="Базовый класс для любого тэга ">
<polygon fill="none" stroke="black" points="0,-226.5 0,-371.5 99,-371.5 99,-226.5 0,-226.5"/>
<text text-anchor="start" x="8" y="-359.5" font-family="Helvetica,sans-Serif" font-size="10.00">qtreports::detail::</text>
<text text-anchor="middle" x="49.5" y="-348.5" font-family="Helvetica,sans-Serif" font-size="10.00">Object</text>
<polyline fill="none" stroke="black" points="0,-341.5 99,-341.5 "/>
<text text-anchor="middle" x="49.5" y="-329.5" font-family="Helvetica,sans-Serif" font-size="10.00"> </text>
<polyline fill="none" stroke="black" points="0,-322.5 99,-322.5 "/>
<text text-anchor="start" x="8" y="-310.5" font-family="Helvetica,sans-Serif" font-size="10.00">+ Object()</text>
<text text-anchor="start" x="8" y="-299.5" font-family="Helvetica,sans-Serif" font-size="10.00">+ Object()</text>
<text text-anchor="start" x="8" y="-288.5" font-family="Helvetica,sans-Serif" font-size="10.00">+ ~Object()</text>
<text text-anchor="start" x="8" y="-277.5" font-family="Helvetica,sans-Serif" font-size="10.00">+ setName()</text>
<text text-anchor="start" x="8" y="-266.5" font-family="Helvetica,sans-Serif" font-size="10.00">+ getName()</text>
<text text-anchor="start" x="8" y="-255.5" font-family="Helvetica,sans-Serif" font-size="10.00">+ setTagName()</text>
<text text-anchor="start" x="8" y="-244.5" font-family="Helvetica,sans-Serif" font-size="10.00">+ getTagName()</text>
<text text-anchor="start" x="8" y="-233.5" font-family="Helvetica,sans-Serif" font-size="10.00">+ getLastError()</text>
</a>
</g>
</g>
<!-- Node2&#45;&gt;Node1 -->
<g id="edge1" class="edge"><title>Node2&#45;&gt;Node1</title>
<path fill="none" stroke="midnightblue" d="M100.589,-217.986C111.072,-201.567 122.129,-184.25 132.672,-167.737"/>
<polygon fill="none" stroke="midnightblue" points="97.596,-216.17 95.1644,-226.482 103.496,-219.937 97.596,-216.17"/>
</g>
<!-- Node3 -->
<g id="node3" class="node"><title>Node3</title>
<polygon fill="none" stroke="#bfbfbf" points="23,-441.5 23,-498.5 76,-498.5 76,-441.5 23,-441.5"/>
<text text-anchor="middle" x="49.5" y="-486.5" font-family="Helvetica,sans-Serif" font-size="10.00">QString</text>
<polyline fill="none" stroke="#bfbfbf" points="23,-479.5 76,-479.5 "/>
<text text-anchor="middle" x="49.5" y="-467.5" font-family="Helvetica,sans-Serif" font-size="10.00"> </text>
<polyline fill="none" stroke="#bfbfbf" points="23,-460.5 76,-460.5 "/>
<text text-anchor="middle" x="49.5" y="-448.5" font-family="Helvetica,sans-Serif" font-size="10.00"> </text>
</g>
<!-- Node3&#45;&gt;Node2 -->
<g id="edge2" class="edge"><title>Node3&#45;&gt;Node2</title>
<path fill="none" stroke="#404040" d="M49.5,-441.471C49.5,-425.599 49.5,-404.708 49.5,-383.868"/>
<polygon fill="none" stroke="#404040" points="49.5001,-383.642 45.5,-377.642 49.5,-371.642 53.5,-377.642 49.5001,-383.642"/>
<text text-anchor="middle" x="85.5" y="-415" font-family="Helvetica,sans-Serif" font-size="10.00"> #m_tagName</text>
<text text-anchor="middle" x="85.5" y="-404" font-family="Helvetica,sans-Serif" font-size="10.00">#m_name</text>
<text text-anchor="middle" x="85.5" y="-393" font-family="Helvetica,sans-Serif" font-size="10.00">#m_lastError</text>
</g>
<!-- Node4 -->
<g id="node4" class="node"><title>Node4</title>
<polygon fill="none" stroke="#bfbfbf" points="117,-270.5 117,-327.5 184,-327.5 184,-270.5 117,-270.5"/>
<text text-anchor="middle" x="150.5" y="-315.5" font-family="Helvetica,sans-Serif" font-size="10.00">GroupType</text>
<polyline fill="none" stroke="#bfbfbf" points="117,-308.5 184,-308.5 "/>
<text text-anchor="middle" x="150.5" y="-296.5" font-family="Helvetica,sans-Serif" font-size="10.00"> </text>
<polyline fill="none" stroke="#bfbfbf" points="117,-289.5 184,-289.5 "/>
<text text-anchor="middle" x="150.5" y="-277.5" font-family="Helvetica,sans-Serif" font-size="10.00"> </text>
</g>
<!-- Node4&#45;&gt;Node1 -->
<g id="edge3" class="edge"><title>Node4&#45;&gt;Node1</title>
<path fill="none" stroke="#404040" d="M148.332,-270.171C147.134,-247.379 146.721,-214.379 151.5,-186 151.864,-183.836 152.268,-181.656 152.706,-179.466"/>
<polygon fill="none" stroke="#404040" points="152.721,-179.399 150.137,-172.667 155.357,-167.692 157.942,-174.424 152.721,-179.399"/>
<text text-anchor="middle" x="175.5" y="-194.5" font-family="Helvetica,sans-Serif" font-size="10.00"> #m_type</text>
</g>
<!-- Node5 -->
<g id="node5" class="node"><title>Node5</title>
<polygon fill="none" stroke="#bfbfbf" points="207,-270.5 207,-327.5 236,-327.5 236,-270.5 207,-270.5"/>
<text text-anchor="middle" x="221.5" y="-315.5" font-family="Helvetica,sans-Serif" font-size="10.00">int</text>
<polyline fill="none" stroke="#bfbfbf" points="207,-308.5 236,-308.5 "/>
<text text-anchor="middle" x="221.5" y="-296.5" font-family="Helvetica,sans-Serif" font-size="10.00"> </text>
<polyline fill="none" stroke="#bfbfbf" points="207,-289.5 236,-289.5 "/>
<text text-anchor="middle" x="221.5" y="-277.5" font-family="Helvetica,sans-Serif" font-size="10.00"> </text>
</g>
<!-- Node5&#45;&gt;Node1 -->
<g id="edge4" class="edge"><title>Node5&#45;&gt;Node1</title>
<path fill="none" stroke="#404040" d="M216.794,-270.154C212.873,-246.954 207.05,-212.503 201.487,-179.589"/>
<polygon fill="none" stroke="#404040" points="201.453,-179.388 196.509,-174.139 199.453,-167.556 204.397,-172.806 201.453,-179.388"/>
<text text-anchor="middle" x="235" y="-200" font-family="Helvetica,sans-Serif" font-size="10.00"> #m_height</text>
<text text-anchor="middle" x="235" y="-189" font-family="Helvetica,sans-Serif" font-size="10.00">#m_width</text>
</g>
<!-- Node6 -->
<g id="node6" class="node"><title>Node6</title>
<polygon fill="none" stroke="#bfbfbf" points="254.5,-265 254.5,-333 400.5,-333 400.5,-265 254.5,-265"/>
<text text-anchor="start" x="262.5" y="-321" font-family="Helvetica,sans-Serif" font-size="10.00">QSharedPointer&lt; Crosstab</text>
<text text-anchor="middle" x="327.5" y="-310" font-family="Helvetica,sans-Serif" font-size="10.00">Header &gt;</text>
<polyline fill="none" stroke="#bfbfbf" points="254.5,-303 400.5,-303 "/>
<text text-anchor="middle" x="327.5" y="-291" font-family="Helvetica,sans-Serif" font-size="10.00"> </text>
<polyline fill="none" stroke="#bfbfbf" points="254.5,-284 400.5,-284 "/>
<text text-anchor="middle" x="327.5" y="-272" font-family="Helvetica,sans-Serif" font-size="10.00"> </text>
</g>
<!-- Node6&#45;&gt;Node1 -->
<g id="edge5" class="edge"><title>Node6&#45;&gt;Node1</title>
<path fill="none" stroke="#404040" d="M311.753,-264.705C300.476,-241.913 284.357,-211.348 267.5,-186 262.355,-178.264 256.747,-170.407 250.957,-162.667"/>
<polygon fill="none" stroke="#404040" points="250.82,-162.487 244.002,-160.14 243.546,-152.943 250.365,-155.291 250.82,-162.487"/>
<text text-anchor="middle" x="311" y="-194.5" font-family="Helvetica,sans-Serif" font-size="10.00"> #m_header</text>
</g>
</g>
</svg>
