<?xml version="1.0" encoding="UTF-8" standalone="no"?>
<!DOCTYPE svg PUBLIC "-//W3C//DTD SVG 1.1//EN"
 "http://www.w3.org/Graphics/SVG/1.1/DTD/svg11.dtd">
<!-- Generated by graphviz version 2.38.0 (20140413.2041)
 -->
<!-- Title: qtreports::detail::Report::isDetailHasGroupFooter Pages: 1 -->
<svg width="611pt" height="176pt"
 viewBox="0.00 0.00 611.00 176.00" xmlns="http://www.w3.org/2000/svg" xmlns:xlink="http://www.w3.org/1999/xlink">
<g id="graph0" class="graph" transform="scale(1 1) rotate(0) translate(4 172)">
<title>qtreports::detail::Report::isDetailHasGroupFooter</title>
<!-- Node1 -->
<g id="node1" class="node"><title>Node1</title>
<polygon fill="#bfbfbf" stroke="black" points="0,-71.5 0,-101.5 167,-101.5 167,-71.5 0,-71.5"/>
<text text-anchor="start" x="8" y="-89.5" font-family="Helvetica,sans-Serif" font-size="10.00">qtreports::detail::</text>
<text text-anchor="middle" x="83.5" y="-78.5" font-family="Helvetica,sans-Serif" font-size="10.00">Report::isDetailHasGroupFooter</text>
</g>
<!-- Node2 -->
<g id="node2" class="node"><title>Node2</title>
<g id="a_node2"><a xlink:href="classqtreports_1_1detail_1_1_report.html#a6bec8b279652c93ca97fbc981a1bbde6" target="_top" xlink:title="qtreports::detail::\lReport::getGroupIndexFromField">
<polygon fill="none" stroke="black" points="203,-137.5 203,-167.5 372,-167.5 372,-137.5 203,-137.5"/>
<text text-anchor="start" x="211" y="-155.5" font-family="Helvetica,sans-Serif" font-size="10.00">qtreports::detail::</text>
<text text-anchor="middle" x="287.5" y="-144.5" font-family="Helvetica,sans-Serif" font-size="10.00">Report::getGroupIndexFromField</text>
</a>
</g>
</g>
<!-- Node1&#45;&gt;Node2 -->
<g id="edge1" class="edge"><title>Node1&#45;&gt;Node2</title>
<path fill="none" stroke="midnightblue" d="M130.59,-101.559C160.348,-111.282 199.243,-123.99 230.74,-134.281"/>
<polygon fill="midnightblue" stroke="midnightblue" points="229.667,-137.613 240.259,-137.392 231.841,-130.959 229.667,-137.613"/>
</g>
<!-- Node3 -->
<g id="node3" class="node"><title>Node3</title>
<g id="a_node3"><a xlink:href="classqtreports_1_1detail_1_1_report.html#a7ed52dab72fd40799444c74426d4163e" target="_top" xlink:title="qtreports::detail::\lReport::getFieldFromGroupExpression">
<polygon fill="none" stroke="black" points="408,-117.5 408,-147.5 603,-147.5 603,-117.5 408,-117.5"/>
<text text-anchor="start" x="416" y="-135.5" font-family="Helvetica,sans-Serif" font-size="10.00">qtreports::detail::</text>
<text text-anchor="middle" x="505.5" y="-124.5" font-family="Helvetica,sans-Serif" font-size="10.00">Report::getFieldFromGroupExpression</text>
</a>
</g>
</g>
<!-- Node1&#45;&gt;Node3 -->
<g id="edge5" class="edge"><title>Node1&#45;&gt;Node3</title>
<path fill="none" stroke="midnightblue" d="M167.228,-95.5607C233.305,-102.798 326.374,-112.991 398.012,-120.837"/>
<polygon fill="midnightblue" stroke="midnightblue" points="397.652,-124.318 407.973,-121.928 398.414,-117.36 397.652,-124.318"/>
</g>
<!-- Node4 -->
<g id="node4" class="node"><title>Node4</title>
<g id="a_node4"><a xlink:href="classqtreports_1_1detail_1_1_report.html#aedb49125bf91cbd57285b8c23ff2e4d8" target="_top" xlink:title="Возвращает количество строк ">
<polygon fill="none" stroke="black" points="229.5,-49.5 229.5,-79.5 345.5,-79.5 345.5,-49.5 229.5,-49.5"/>
<text text-anchor="start" x="237.5" y="-67.5" font-family="Helvetica,sans-Serif" font-size="10.00">qtreports::detail::</text>
<text text-anchor="middle" x="287.5" y="-56.5" font-family="Helvetica,sans-Serif" font-size="10.00">Report::getRowCount</text>
</a>
</g>
</g>
<!-- Node1&#45;&gt;Node4 -->
<g id="edge3" class="edge"><title>Node1&#45;&gt;Node4</title>
<path fill="none" stroke="midnightblue" d="M167.244,-77.4883C184.568,-75.6015 202.633,-73.634 219.308,-71.8179"/>
<polygon fill="midnightblue" stroke="midnightblue" points="219.93,-75.271 229.492,-70.7088 219.172,-68.3121 219.93,-75.271"/>
</g>
<!-- Node6 -->
<g id="node6" class="node"><title>Node6</title>
<g id="a_node6"><a xlink:href="classqtreports_1_1detail_1_1_report.html#a0af8f2932f7b116c2db67cc8d8ee644e" target="_top" xlink:title="qtreports::detail::\lReport::getGroupByIndex">
<polygon fill="none" stroke="black" points="219.5,-0.5 219.5,-30.5 355.5,-30.5 355.5,-0.5 219.5,-0.5"/>
<text text-anchor="start" x="227.5" y="-18.5" font-family="Helvetica,sans-Serif" font-size="10.00">qtreports::detail::</text>
<text text-anchor="middle" x="287.5" y="-7.5" font-family="Helvetica,sans-Serif" font-size="10.00">Report::getGroupByIndex</text>
</a>
</g>
</g>
<!-- Node1&#45;&gt;Node6 -->
<g id="edge6" class="edge"><title>Node1&#45;&gt;Node6</title>
<path fill="none" stroke="midnightblue" d="M119.683,-71.4984C143.082,-61.7818 174.617,-49.1818 203,-39.5 208.902,-37.4867 215.076,-35.4977 221.279,-33.5777"/>
<polygon fill="midnightblue" stroke="midnightblue" points="222.464,-36.8759 231.017,-30.6238 220.432,-30.1773 222.464,-36.8759"/>
</g>
<!-- Node2&#45;&gt;Node3 -->
<g id="edge2" class="edge"><title>Node2&#45;&gt;Node3</title>
<path fill="none" stroke="midnightblue" d="M372.011,-144.767C380.459,-143.985 389.117,-143.184 397.764,-142.383"/>
<polygon fill="midnightblue" stroke="midnightblue" points="398.263,-145.852 407.898,-141.445 397.618,-138.882 398.263,-145.852"/>
</g>
<!-- Node5 -->
<g id="node5" class="node"><title>Node5</title>
<g id="a_node5"><a xlink:href="classqtreports_1_1detail_1_1_report.html#a0954c5253b36d9a1fe2bd3784f70d7de" target="_top" xlink:title="Возвращает карту &lt;field&gt; ">
<polygon fill="none" stroke="black" points="456,-49.5 456,-79.5 555,-79.5 555,-49.5 456,-49.5"/>
<text text-anchor="start" x="464" y="-67.5" font-family="Helvetica,sans-Serif" font-size="10.00">qtreports::detail::</text>
<text text-anchor="middle" x="505.5" y="-56.5" font-family="Helvetica,sans-Serif" font-size="10.00">Report::getFields</text>
</a>
</g>
</g>
<!-- Node4&#45;&gt;Node5 -->
<g id="edge4" class="edge"><title>Node4&#45;&gt;Node5</title>
<path fill="none" stroke="midnightblue" d="M345.534,-64.5C376.415,-64.5 414.51,-64.5 445.665,-64.5"/>
<polygon fill="midnightblue" stroke="midnightblue" points="445.944,-68.0001 455.944,-64.5 445.944,-61.0001 445.944,-68.0001"/>
</g>
</g>
</svg>
