<?xml version="1.0" encoding="UTF-8" standalone="no"?>
<!DOCTYPE svg PUBLIC "-//W3C//DTD SVG 1.1//EN"
 "http://www.w3.org/Graphics/SVG/1.1/DTD/svg11.dtd">
<!-- Generated by graphviz version 2.38.0 (20140413.2041)
 -->
<!-- Title: qtreports::detail::ConverterToPDF::create Pages: 1 -->
<svg width="1325pt" height="271pt"
 viewBox="0.00 0.00 1325.00 271.00" xmlns="http://www.w3.org/2000/svg" xmlns:xlink="http://www.w3.org/1999/xlink">
<g id="graph0" class="graph" transform="scale(1 1) rotate(0) translate(4 267)">
<title>qtreports::detail::ConverterToPDF::create</title>
<!-- Node1 -->
<g id="node1" class="node"><title>Node1</title>
<polygon fill="#bfbfbf" stroke="black" points="0,-30 0,-60 128,-60 128,-30 0,-30"/>
<text text-anchor="start" x="8" y="-48" font-family="Helvetica,sans-Serif" font-size="10.00">qtreports::detail::</text>
<text text-anchor="middle" x="64" y="-37" font-family="Helvetica,sans-Serif" font-size="10.00">ConverterToPDF::create</text>
</g>
<!-- Node2 -->
<g id="node2" class="node"><title>Node2</title>
<g id="a_node2"><a xlink:href="classqtreports_1_1detail_1_1_converter_to_p_d_f.html#a5d9212cf5250d8d938359c417537337c" target="_top" xlink:title="Создает секцию. ">
<polygon fill="none" stroke="black" points="368,-55 368,-85 532,-85 532,-55 368,-55"/>
<text text-anchor="start" x="376" y="-73" font-family="Helvetica,sans-Serif" font-size="10.00">qtreports::detail::</text>
<text text-anchor="middle" x="450" y="-62" font-family="Helvetica,sans-Serif" font-size="10.00">ConverterToPDF::createSection</text>
</a>
</g>
</g>
<!-- Node1&#45;&gt;Node2 -->
<g id="edge1" class="edge"><title>Node1&#45;&gt;Node2</title>
<path fill="none" stroke="midnightblue" d="M128.41,-49.1282C190.843,-53.1929 286.85,-59.4433 357.534,-64.0452"/>
<polygon fill="midnightblue" stroke="midnightblue" points="357.566,-67.5546 367.773,-64.7118 358.021,-60.5694 357.566,-67.5546"/>
</g>
<!-- Node16 -->
<g id="node16" class="node"><title>Node16</title>
<g id="a_node16"><a xlink:href="classqtreports_1_1detail_1_1_converter_to_p_d_f.html#adda58d86ecfee05cdcc5e5ce161926ff" target="_top" xlink:title="Добавляет группу в репорт. ">
<polygon fill="none" stroke="black" points="164,-0.5 164,-41.5 332,-41.5 332,-0.5 164,-0.5"/>
<text text-anchor="start" x="172" y="-29.5" font-family="Helvetica,sans-Serif" font-size="10.00">qtreports::detail::</text>
<text text-anchor="start" x="172" y="-18.5" font-family="Helvetica,sans-Serif" font-size="10.00">ConverterToPDF::addGroupsInto</text>
<text text-anchor="middle" x="248" y="-7.5" font-family="Helvetica,sans-Serif" font-size="10.00">Report</text>
</a>
</g>
</g>
<!-- Node1&#45;&gt;Node16 -->
<g id="edge17" class="edge"><title>Node1&#45;&gt;Node16</title>
<path fill="none" stroke="midnightblue" d="M128.144,-36.6733C136.409,-35.5835 145.013,-34.4489 153.645,-33.3105"/>
<polygon fill="midnightblue" stroke="midnightblue" points="154.316,-36.7524 163.773,-31.975 153.401,-29.8125 154.316,-36.7524"/>
</g>
<!-- Node3 -->
<g id="node3" class="node"><title>Node3</title>
<g id="a_node3"><a xlink:href="classqtreports_1_1detail_1_1_replacer.html#af7ccb83be264f7c72b7485cf38455450" target="_top" xlink:title="Заменяет текст всех виджетов секции текстом с подставленными значениями. ">
<polygon fill="none" stroke="black" points="597.5,-161 597.5,-191 696.5,-191 696.5,-161 597.5,-161"/>
<text text-anchor="start" x="605.5" y="-179" font-family="Helvetica,sans-Serif" font-size="10.00">qtreports::detail::</text>
<text text-anchor="middle" x="647" y="-168" font-family="Helvetica,sans-Serif" font-size="10.00">Replacer::replace</text>
</a>
</g>
</g>
<!-- Node2&#45;&gt;Node3 -->
<g id="edge2" class="edge"><title>Node2&#45;&gt;Node3</title>
<path fill="none" stroke="midnightblue" d="M472.817,-85.068C495.87,-100.638 533.58,-125.123 568,-143 577.394,-147.879 587.673,-152.624 597.596,-156.924"/>
<polygon fill="midnightblue" stroke="midnightblue" points="596.389,-160.213 606.961,-160.9 599.124,-153.77 596.389,-160.213"/>
</g>
<!-- Node10 -->
<g id="node10" class="node"><title>Node10</title>
<g id="a_node10"><a xlink:href="classqtreports_1_1detail_1_1_replacer.html#a677f7802e444f2de3af4cb43b6cedf30" target="_top" xlink:title="Возвращает описание последней произошедшей ошибки. ">
<polygon fill="none" stroke="black" points="586,-104 586,-134 708,-134 708,-104 586,-104"/>
<text text-anchor="start" x="594" y="-122" font-family="Helvetica,sans-Serif" font-size="10.00">qtreports::detail::</text>
<text text-anchor="middle" x="647" y="-111" font-family="Helvetica,sans-Serif" font-size="10.00">Replacer::getLastError</text>
</a>
</g>
</g>
<!-- Node2&#45;&gt;Node10 -->
<g id="edge9" class="edge"><title>Node2&#45;&gt;Node10</title>
<path fill="none" stroke="midnightblue" d="M510.832,-85.0346C531.608,-90.2554 555.081,-96.1537 576.567,-101.553"/>
<polygon fill="midnightblue" stroke="midnightblue" points="575.73,-104.951 586.282,-103.994 577.436,-98.1622 575.73,-104.951"/>
</g>
<!-- Node11 -->
<g id="node11" class="node"><title>Node11</title>
<g id="a_node11"><a xlink:href="classqtreports_1_1detail_1_1_converter_to_p_d_f.html#aba1de1bf9abc3ea9b7b5c2b8317f5a0f" target="_top" xlink:title="Создает band. ">
<polygon fill="none" stroke="black" points="568,-55 568,-85 726,-85 726,-55 568,-55"/>
<text text-anchor="start" x="576" y="-73" font-family="Helvetica,sans-Serif" font-size="10.00">qtreports::detail::</text>
<text text-anchor="middle" x="647" y="-62" font-family="Helvetica,sans-Serif" font-size="10.00">ConverterToPDF::createBands</text>
</a>
</g>
</g>
<!-- Node2&#45;&gt;Node11 -->
<g id="edge10" class="edge"><title>Node2&#45;&gt;Node11</title>
<path fill="none" stroke="midnightblue" d="M532.003,-70C540.502,-70 549.173,-70 557.748,-70"/>
<polygon fill="midnightblue" stroke="midnightblue" points="557.754,-73.5001 567.754,-70 557.754,-66.5001 557.754,-73.5001"/>
</g>
<!-- Node4 -->
<g id="node4" class="node"><title>Node4</title>
<g id="a_node4"><a xlink:href="classqtreports_1_1detail_1_1_replacer.html#a58cf857aa78eb3e273f6543769af425b" target="_top" xlink:title="Заменяет текст всех виджетов секции текстом с подставленными значениями полей из источника данных...">
<polygon fill="none" stroke="black" points="765,-210 765,-240 929,-240 929,-210 765,-210"/>
<text text-anchor="start" x="773" y="-228" font-family="Helvetica,sans-Serif" font-size="10.00">qtreports::detail::</text>
<text text-anchor="middle" x="847" y="-217" font-family="Helvetica,sans-Serif" font-size="10.00">Replacer::replaceFieldInSection</text>
</a>
</g>
</g>
<!-- Node3&#45;&gt;Node4 -->
<g id="edge3" class="edge"><title>Node3&#45;&gt;Node4</title>
<path fill="none" stroke="midnightblue" d="M696.69,-188.05C720.347,-193.904 749.224,-201.05 775.257,-207.493"/>
<polygon fill="midnightblue" stroke="midnightblue" points="774.53,-210.918 785.078,-209.923 776.211,-204.123 774.53,-210.918"/>
</g>
<!-- Node9 -->
<g id="node9" class="node"><title>Node9</title>
<g id="a_node9"><a xlink:href="classqtreports_1_1detail_1_1_replacer.html#abb903f1c1172efa7e26b040a5695cc86" target="_top" xlink:title="Возвращает текст с подставленными значениями параметров. ">
<polygon fill="none" stroke="black" points="770,-161 770,-191 924,-191 924,-161 770,-161"/>
<text text-anchor="start" x="778" y="-179" font-family="Helvetica,sans-Serif" font-size="10.00">qtreports::detail::</text>
<text text-anchor="middle" x="847" y="-168" font-family="Helvetica,sans-Serif" font-size="10.00">Replacer::replaceParameters</text>
</a>
</g>
</g>
<!-- Node3&#45;&gt;Node9 -->
<g id="edge8" class="edge"><title>Node3&#45;&gt;Node9</title>
<path fill="none" stroke="midnightblue" d="M696.69,-176C715.669,-176 738.008,-176 759.542,-176"/>
<polygon fill="midnightblue" stroke="midnightblue" points="759.696,-179.5 769.696,-176 759.696,-172.5 759.696,-179.5"/>
</g>
<!-- Node5 -->
<g id="node5" class="node"><title>Node5</title>
<g id="a_node5"><a xlink:href="classqtreports_1_1detail_1_1_replacer.html#a2be57bd514335f9b9f2a520247562ce1" target="_top" xlink:title="Заменяет текст виджета текстом с подставленными значениями полей из источника данных. ">
<polygon fill="none" stroke="black" points="977,-161.5 977,-202.5 1123,-202.5 1123,-161.5 977,-161.5"/>
<text text-anchor="start" x="985" y="-190.5" font-family="Helvetica,sans-Serif" font-size="10.00">qtreports::detail::</text>
<text text-anchor="start" x="985" y="-179.5" font-family="Helvetica,sans-Serif" font-size="10.00">Replacer::replaceFieldInText</text>
<text text-anchor="middle" x="1050" y="-168.5" font-family="Helvetica,sans-Serif" font-size="10.00">Widget</text>
</a>
</g>
</g>
<!-- Node4&#45;&gt;Node5 -->
<g id="edge4" class="edge"><title>Node4&#45;&gt;Node5</title>
<path fill="none" stroke="midnightblue" d="M918.3,-209.961C933.956,-206.611 950.691,-203.031 966.778,-199.59"/>
<polygon fill="midnightblue" stroke="midnightblue" points="967.65,-202.983 976.696,-197.468 966.185,-196.137 967.65,-202.983"/>
</g>
<!-- Node7 -->
<g id="node7" class="node"><title>Node7</title>
<g id="a_node7"><a xlink:href="classqtreports_1_1detail_1_1_replacer.html#a4aeb7794f90c0be34a30ab60a6df1920" target="_top" xlink:title="На основе текста виджета вставляет в него изображение из источника данных. ">
<polygon fill="none" stroke="black" points="971,-221.5 971,-262.5 1129,-262.5 1129,-221.5 971,-221.5"/>
<text text-anchor="start" x="979" y="-250.5" font-family="Helvetica,sans-Serif" font-size="10.00">qtreports::detail::</text>
<text text-anchor="start" x="979" y="-239.5" font-family="Helvetica,sans-Serif" font-size="10.00">Replacer::replaceFieldInImage</text>
<text text-anchor="middle" x="1050" y="-228.5" font-family="Helvetica,sans-Serif" font-size="10.00">Widget</text>
</a>
</g>
</g>
<!-- Node4&#45;&gt;Node7 -->
<g id="edge6" class="edge"><title>Node4&#45;&gt;Node7</title>
<path fill="none" stroke="midnightblue" d="M929.175,-231.866C939.579,-232.745 950.269,-233.65 960.778,-234.538"/>
<polygon fill="midnightblue" stroke="midnightblue" points="960.523,-238.029 970.782,-235.385 961.113,-231.054 960.523,-238.029"/>
</g>
<!-- Node6 -->
<g id="node6" class="node"><title>Node6</title>
<g id="a_node6"><a xlink:href="classqtreports_1_1detail_1_1_replacer.html#a4642b07160798f2ee4de276e1d0c1ecd" target="_top" xlink:title="Возвращает текст с подставленными значениями полей из источника данных. ">
<polygon fill="none" stroke="black" points="1183,-77 1183,-107 1302,-107 1302,-77 1183,-77"/>
<text text-anchor="start" x="1191" y="-95" font-family="Helvetica,sans-Serif" font-size="10.00">qtreports::detail::</text>
<text text-anchor="middle" x="1242.5" y="-84" font-family="Helvetica,sans-Serif" font-size="10.00">Replacer::replaceField</text>
</a>
</g>
</g>
<!-- Node5&#45;&gt;Node6 -->
<g id="edge5" class="edge"><title>Node5&#45;&gt;Node6</title>
<path fill="none" stroke="midnightblue" d="M1109.82,-161.376C1117.35,-158.396 1124.91,-155.236 1132,-152 1158.06,-140.113 1186.39,-124.514 1207.7,-112.2"/>
<polygon fill="midnightblue" stroke="midnightblue" points="1209.5,-115.203 1216.38,-107.145 1205.98,-109.154 1209.5,-115.203"/>
</g>
<!-- Node8 -->
<g id="node8" class="node"><title>Node8</title>
<g id="a_node8"><a xlink:href="classqtreports_1_1detail_1_1_replacer.html#ae1ac521aeaf5fdd694e79e2ae52d4704" target="_top" xlink:title="Возвращает изображение на основе первого найденного выражения. ">
<polygon fill="none" stroke="black" points="1168,-227 1168,-257 1317,-257 1317,-227 1168,-227"/>
<text text-anchor="start" x="1176" y="-245" font-family="Helvetica,sans-Serif" font-size="10.00">qtreports::detail::</text>
<text text-anchor="middle" x="1242.5" y="-234" font-family="Helvetica,sans-Serif" font-size="10.00">Replacer::replaceFieldImage</text>
</a>
</g>
</g>
<!-- Node7&#45;&gt;Node8 -->
<g id="edge7" class="edge"><title>Node7&#45;&gt;Node8</title>
<path fill="none" stroke="midnightblue" d="M1129.03,-242C1138.47,-242 1148.13,-242 1157.64,-242"/>
<polygon fill="midnightblue" stroke="midnightblue" points="1157.89,-245.5 1167.88,-242 1157.88,-238.5 1157.89,-245.5"/>
</g>
<!-- Node12 -->
<g id="node12" class="node"><title>Node12</title>
<g id="a_node12"><a xlink:href="classqtreports_1_1detail_1_1_replacer.html#aa9fa83cf51d75301b62e11a0a93e2dcc" target="_top" xlink:title="qtreports::detail::\lReplacer::replaceColumnGroups\lInCrosstab">
<polygon fill="none" stroke="black" points="762,-101.5 762,-142.5 932,-142.5 932,-101.5 762,-101.5"/>
<text text-anchor="start" x="770" y="-130.5" font-family="Helvetica,sans-Serif" font-size="10.00">qtreports::detail::</text>
<text text-anchor="start" x="770" y="-119.5" font-family="Helvetica,sans-Serif" font-size="10.00">Replacer::replaceColumnGroups</text>
<text text-anchor="middle" x="847" y="-108.5" font-family="Helvetica,sans-Serif" font-size="10.00">InCrosstab</text>
</a>
</g>
</g>
<!-- Node11&#45;&gt;Node12 -->
<g id="edge11" class="edge"><title>Node11&#45;&gt;Node12</title>
<path fill="none" stroke="midnightblue" d="M705.27,-85.0406C721.749,-89.3683 740.115,-94.1919 757.998,-98.8883"/>
<polygon fill="midnightblue" stroke="midnightblue" points="757.306,-102.325 767.867,-101.48 759.084,-95.5549 757.306,-102.325"/>
</g>
<!-- Node14 -->
<g id="node14" class="node"><title>Node14</title>
<g id="a_node14"><a xlink:href="classqtreports_1_1detail_1_1_replacer.html#ae0f12ba0e77e9ef89b9479272e843fe6" target="_top" xlink:title="qtreports::detail::\lReplacer::replaceRowGroups\lInCrosstab">
<polygon fill="none" stroke="black" points="771.5,-41.5 771.5,-82.5 922.5,-82.5 922.5,-41.5 771.5,-41.5"/>
<text text-anchor="start" x="779.5" y="-70.5" font-family="Helvetica,sans-Serif" font-size="10.00">qtreports::detail::</text>
<text text-anchor="start" x="779.5" y="-59.5" font-family="Helvetica,sans-Serif" font-size="10.00">Replacer::replaceRowGroups</text>
<text text-anchor="middle" x="847" y="-48.5" font-family="Helvetica,sans-Serif" font-size="10.00">InCrosstab</text>
</a>
</g>
</g>
<!-- Node11&#45;&gt;Node14 -->
<g id="edge14" class="edge"><title>Node11&#45;&gt;Node14</title>
<path fill="none" stroke="midnightblue" d="M726.255,-66.8382C737.709,-66.3754 749.55,-65.897 761.129,-65.4291"/>
<polygon fill="midnightblue" stroke="midnightblue" points="761.369,-68.9224 771.22,-65.0214 761.086,-61.9281 761.369,-68.9224"/>
</g>
<!-- Node13 -->
<g id="node13" class="node"><title>Node13</title>
<g id="a_node13"><a xlink:href="classqtreports_1_1detail_1_1_replacer.html#a781b476a4e964da9e5afe4f642b2f275" target="_top" xlink:title="qtreports::detail::\lReplacer::replaceColumnGroup\lInCrosstab">
<polygon fill="none" stroke="black" points="968,-101.5 968,-142.5 1132,-142.5 1132,-101.5 968,-101.5"/>
<text text-anchor="start" x="976" y="-130.5" font-family="Helvetica,sans-Serif" font-size="10.00">qtreports::detail::</text>
<text text-anchor="start" x="976" y="-119.5" font-family="Helvetica,sans-Serif" font-size="10.00">Replacer::replaceColumnGroup</text>
<text text-anchor="middle" x="1050" y="-108.5" font-family="Helvetica,sans-Serif" font-size="10.00">InCrosstab</text>
</a>
</g>
</g>
<!-- Node12&#45;&gt;Node13 -->
<g id="edge12" class="edge"><title>Node12&#45;&gt;Node13</title>
<path fill="none" stroke="midnightblue" d="M932.077,-122C940.583,-122 949.249,-122 957.825,-122"/>
<polygon fill="midnightblue" stroke="midnightblue" points="957.834,-125.5 967.834,-122 957.834,-118.5 957.834,-125.5"/>
</g>
<!-- Node13&#45;&gt;Node6 -->
<g id="edge13" class="edge"><title>Node13&#45;&gt;Node6</title>
<path fill="none" stroke="midnightblue" d="M1132.07,-109.234C1145.62,-107.099 1159.57,-104.902 1172.78,-102.822"/>
<polygon fill="midnightblue" stroke="midnightblue" points="1173.39,-106.27 1182.72,-101.257 1172.3,-99.355 1173.39,-106.27"/>
</g>
<!-- Node15 -->
<g id="node15" class="node"><title>Node15</title>
<g id="a_node15"><a xlink:href="classqtreports_1_1detail_1_1_replacer.html#a2114b58c90fe02b17e7bf99e144013b6" target="_top" xlink:title="qtreports::detail::\lReplacer::replaceRowGroupIn\lCrosstab">
<polygon fill="none" stroke="black" points="973,-41.5 973,-82.5 1127,-82.5 1127,-41.5 973,-41.5"/>
<text text-anchor="start" x="981" y="-70.5" font-family="Helvetica,sans-Serif" font-size="10.00">qtreports::detail::</text>
<text text-anchor="start" x="981" y="-59.5" font-family="Helvetica,sans-Serif" font-size="10.00">Replacer::replaceRowGroupIn</text>
<text text-anchor="middle" x="1050" y="-48.5" font-family="Helvetica,sans-Serif" font-size="10.00">Crosstab</text>
</a>
</g>
</g>
<!-- Node14&#45;&gt;Node15 -->
<g id="edge15" class="edge"><title>Node14&#45;&gt;Node15</title>
<path fill="none" stroke="midnightblue" d="M922.559,-62C935.647,-62 949.364,-62 962.738,-62"/>
<polygon fill="midnightblue" stroke="midnightblue" points="962.882,-65.5001 972.882,-62 962.882,-58.5001 962.882,-65.5001"/>
</g>
<!-- Node15&#45;&gt;Node6 -->
<g id="edge16" class="edge"><title>Node15&#45;&gt;Node6</title>
<path fill="none" stroke="midnightblue" d="M1127.11,-73.9861C1142.18,-76.3598 1157.92,-78.8384 1172.74,-81.1709"/>
<polygon fill="midnightblue" stroke="midnightblue" points="1172.4,-84.6609 1182.82,-82.7593 1173.49,-77.7462 1172.4,-84.6609"/>
</g>
<!-- Node16&#45;&gt;Node2 -->
<g id="edge19" class="edge"><title>Node16&#45;&gt;Node2</title>
<path fill="none" stroke="midnightblue" d="M332.08,-41.3547C347.166,-45.0507 362.781,-48.8763 377.497,-52.4818"/>
<polygon fill="midnightblue" stroke="midnightblue" points="376.979,-55.9583 387.525,-54.9385 378.645,-49.1593 376.979,-55.9583"/>
</g>
<!-- Node16&#45;&gt;Node6 -->
<g id="edge18" class="edge"><title>Node16&#45;&gt;Node6</title>
<path fill="none" stroke="midnightblue" d="M332.253,-18.3472C412.575,-16.0185 537.596,-13 646,-13 646,-13 646,-13 848,-13 974.504,-13 1010.56,3.45024 1132,-32 1160.95,-40.4513 1190.77,-57.4375 1211.97,-71.1858"/>
<polygon fill="midnightblue" stroke="midnightblue" points="1210.23,-74.2326 1220.5,-76.8454 1214.1,-68.3999 1210.23,-74.2326"/>
</g>
</g>
</svg>
