<?xml version="1.0" encoding="UTF-8" standalone="no"?>
<!DOCTYPE svg PUBLIC "-//W3C//DTD SVG 1.1//EN"
 "http://www.w3.org/Graphics/SVG/1.1/DTD/svg11.dtd">
<!-- Generated by graphviz version 2.38.0 (20140413.2041)
 -->
<!-- Title: qtreports::detail::Report::getFields Pages: 1 -->
<svg width="462pt" height="88pt"
 viewBox="0.00 0.00 462.00 88.00" xmlns="http://www.w3.org/2000/svg" xmlns:xlink="http://www.w3.org/1999/xlink">
<g id="graph0" class="graph" transform="scale(1 1) rotate(0) translate(4 84)">
<title>qtreports::detail::Report::getFields</title>
<!-- Node1 -->
<g id="node1" class="node"><title>Node1</title>
<polygon fill="#bfbfbf" stroke="black" points="0,-24.5 0,-54.5 99,-54.5 99,-24.5 0,-24.5"/>
<text text-anchor="start" x="8" y="-42.5" font-family="Helvetica,sans-Serif" font-size="10.00">qtreports::detail::</text>
<text text-anchor="middle" x="49.5" y="-31.5" font-family="Helvetica,sans-Serif" font-size="10.00">Report::getFields</text>
</g>
<!-- Node2 -->
<g id="node2" class="node"><title>Node2</title>
<g id="a_node2"><a xlink:href="classqtreports_1_1detail_1_1_report.html#aedb49125bf91cbd57285b8c23ff2e4d8" target="_top" xlink:title="Возвращает количество строк ">
<polygon fill="none" stroke="black" points="135,-24.5 135,-54.5 251,-54.5 251,-24.5 135,-24.5"/>
<text text-anchor="start" x="143" y="-42.5" font-family="Helvetica,sans-Serif" font-size="10.00">qtreports::detail::</text>
<text text-anchor="middle" x="193" y="-31.5" font-family="Helvetica,sans-Serif" font-size="10.00">Report::getRowCount</text>
</a>
</g>
</g>
<!-- Node1&#45;&gt;Node2 -->
<g id="edge1" class="edge"><title>Node1&#45;&gt;Node2</title>
<path fill="none" stroke="midnightblue" d="M109.362,-39.5C117.819,-39.5 126.509,-39.5 134.931,-39.5"/>
<polygon fill="midnightblue" stroke="midnightblue" points="109.196,-36.0001 99.1963,-39.5 109.196,-43.0001 109.196,-36.0001"/>
</g>
<!-- Node3 -->
<g id="node3" class="node"><title>Node3</title>
<g id="a_node3"><a xlink:href="classqtreports_1_1detail_1_1_report.html#a36b4f8b33892fabbfd4858602bb511e1" target="_top" xlink:title="qtreports::detail::\lReport::isDetailHasGroupFooter">
<polygon fill="none" stroke="black" points="287,-49.5 287,-79.5 454,-79.5 454,-49.5 287,-49.5"/>
<text text-anchor="start" x="295" y="-67.5" font-family="Helvetica,sans-Serif" font-size="10.00">qtreports::detail::</text>
<text text-anchor="middle" x="370.5" y="-56.5" font-family="Helvetica,sans-Serif" font-size="10.00">Report::isDetailHasGroupFooter</text>
</a>
</g>
</g>
<!-- Node2&#45;&gt;Node3 -->
<g id="edge2" class="edge"><title>Node2&#45;&gt;Node3</title>
<path fill="none" stroke="midnightblue" d="M261.431,-49.1056C269.723,-50.2868 278.271,-51.5044 286.757,-52.7132"/>
<polygon fill="midnightblue" stroke="midnightblue" points="261.859,-45.6313 251.465,-47.6859 260.872,-52.5613 261.859,-45.6313"/>
</g>
<!-- Node4 -->
<g id="node4" class="node"><title>Node4</title>
<g id="a_node4"><a xlink:href="classqtreports_1_1detail_1_1_report.html#aa2eb56a54e9cb57831ab6fb6a7d745ab" target="_top" xlink:title="qtreports::detail::\lReport::reorderByGroups">
<polygon fill="none" stroke="black" points="303,-0.5 303,-30.5 438,-30.5 438,-0.5 303,-0.5"/>
<text text-anchor="start" x="311" y="-18.5" font-family="Helvetica,sans-Serif" font-size="10.00">qtreports::detail::</text>
<text text-anchor="middle" x="370.5" y="-7.5" font-family="Helvetica,sans-Serif" font-size="10.00">Report::reorderByGroups</text>
</a>
</g>
</g>
<!-- Node2&#45;&gt;Node4 -->
<g id="edge3" class="edge"><title>Node2&#45;&gt;Node4</title>
<path fill="none" stroke="midnightblue" d="M261.632,-30.2512C275.128,-28.4056 289.294,-26.4683 302.76,-24.6269"/>
<polygon fill="midnightblue" stroke="midnightblue" points="260.899,-26.8188 251.465,-31.6415 261.847,-33.7542 260.899,-26.8188"/>
</g>
</g>
</svg>
