<?xml version="1.0" encoding="UTF-8" standalone="no"?>
<!DOCTYPE svg PUBLIC "-//W3C//DTD SVG 1.1//EN"
 "http://www.w3.org/Graphics/SVG/1.1/DTD/svg11.dtd">
<!-- Generated by graphviz version 2.38.0 (20140413.2041)
 -->
<!-- Title: qtreports::detail::Replacer::replaceCellsInCrosstab Pages: 1 -->
<svg width="1488pt" height="311pt"
 viewBox="0.00 0.00 1488.00 311.00" xmlns="http://www.w3.org/2000/svg" xmlns:xlink="http://www.w3.org/1999/xlink">
<g id="graph0" class="graph" transform="scale(1 1) rotate(0) translate(4 307)">
<title>qtreports::detail::Replacer::replaceCellsInCrosstab</title>
<!-- Node1 -->
<g id="node1" class="node"><title>Node1</title>
<polygon fill="#bfbfbf" stroke="black" points="0,-142.5 0,-172.5 172,-172.5 172,-142.5 0,-142.5"/>
<text text-anchor="start" x="8" y="-160.5" font-family="Helvetica,sans-Serif" font-size="10.00">qtreports::detail::</text>
<text text-anchor="middle" x="86" y="-149.5" font-family="Helvetica,sans-Serif" font-size="10.00">Replacer::replaceCellsInCrosstab</text>
</g>
<!-- Node2 -->
<g id="node2" class="node"><title>Node2</title>
<g id="a_node2"><a xlink:href="classqtreports_1_1detail_1_1_converter_to_h_t_m_l.html#a5b8d80606e58c8bcdadc7ce6134e9c2f" target="_top" xlink:title="Добавление объектов Crosstab в документ HTML. ">
<polygon fill="none" stroke="black" points="208,-210 208,-251 380,-251 380,-210 208,-210"/>
<text text-anchor="start" x="216" y="-239" font-family="Helvetica,sans-Serif" font-size="10.00">qtreports::detail::</text>
<text text-anchor="start" x="216" y="-228" font-family="Helvetica,sans-Serif" font-size="10.00">ConverterToHTML::addCrosstabs</text>
<text text-anchor="middle" x="294" y="-217" font-family="Helvetica,sans-Serif" font-size="10.00">IntoReport</text>
</a>
</g>
</g>
<!-- Node1&#45;&gt;Node2 -->
<g id="edge1" class="edge"><title>Node1&#45;&gt;Node2</title>
<path fill="none" stroke="midnightblue" d="M139.301,-176.034C168.541,-186.395 205.042,-199.33 235.136,-209.995"/>
<polygon fill="midnightblue" stroke="midnightblue" points="140.278,-172.667 129.683,-172.626 137.94,-179.265 140.278,-172.667"/>
</g>
<!-- Node9 -->
<g id="node9" class="node"><title>Node9</title>
<g id="a_node9"><a xlink:href="classqtreports_1_1detail_1_1_converter_to_p_d_f.html#aba1de1bf9abc3ea9b7b5c2b8317f5a0f" target="_top" xlink:title="Создает band. ">
<polygon fill="none" stroke="black" points="215,-142.5 215,-172.5 373,-172.5 373,-142.5 215,-142.5"/>
<text text-anchor="start" x="223" y="-160.5" font-family="Helvetica,sans-Serif" font-size="10.00">qtreports::detail::</text>
<text text-anchor="middle" x="294" y="-149.5" font-family="Helvetica,sans-Serif" font-size="10.00">ConverterToPDF::createBands</text>
</a>
</g>
</g>
<!-- Node1&#45;&gt;Node9 -->
<g id="edge9" class="edge"><title>Node1&#45;&gt;Node9</title>
<path fill="none" stroke="midnightblue" d="M182.553,-157.5C193.324,-157.5 204.204,-157.5 214.719,-157.5"/>
<polygon fill="midnightblue" stroke="midnightblue" points="182.275,-154 172.275,-157.5 182.275,-161 182.275,-154"/>
</g>
<!-- Node15 -->
<g id="node15" class="node"><title>Node15</title>
<g id="a_node15"><a xlink:href="classqtreports_1_1detail_1_1_converter_to_q_widget.html#aa3be16e037533a4a5b58596087207187" target="_top" xlink:title="Создает band. ">
<polygon fill="none" stroke="black" points="234.5,-73 234.5,-114 353.5,-114 353.5,-73 234.5,-73"/>
<text text-anchor="start" x="242.5" y="-102" font-family="Helvetica,sans-Serif" font-size="10.00">qtreports::detail::</text>
<text text-anchor="start" x="242.5" y="-91" font-family="Helvetica,sans-Serif" font-size="10.00">ConverterToQWidget::</text>
<text text-anchor="middle" x="294" y="-80" font-family="Helvetica,sans-Serif" font-size="10.00">createBands</text>
</a>
</g>
</g>
<!-- Node1&#45;&gt;Node15 -->
<g id="edge16" class="edge"><title>Node1&#45;&gt;Node15</title>
<path fill="none" stroke="midnightblue" d="M144.933,-139.501C172.872,-130.821 206.323,-120.429 234.355,-111.72"/>
<polygon fill="midnightblue" stroke="midnightblue" points="143.809,-136.185 135.298,-142.495 145.886,-142.87 143.809,-136.185"/>
</g>
<!-- Node3 -->
<g id="node3" class="node"><title>Node3</title>
<g id="a_node3"><a xlink:href="classqtreports_1_1detail_1_1_converter_to_h_t_m_l.html#acd1d271ed38019d408d8597000e974be" target="_top" xlink:title="Добавление &lt;band&gt; в документ HTML. ">
<polygon fill="none" stroke="black" points="423.5,-220.5 423.5,-250.5 572.5,-250.5 572.5,-220.5 423.5,-220.5"/>
<text text-anchor="start" x="431.5" y="-238.5" font-family="Helvetica,sans-Serif" font-size="10.00">qtreports::detail::</text>
<text text-anchor="middle" x="498" y="-227.5" font-family="Helvetica,sans-Serif" font-size="10.00">ConverterToHTML::addBand</text>
</a>
</g>
</g>
<!-- Node2&#45;&gt;Node3 -->
<g id="edge2" class="edge"><title>Node2&#45;&gt;Node3</title>
<path fill="none" stroke="midnightblue" d="M390.221,-232.857C401.308,-233.131 412.487,-233.408 423.224,-233.674"/>
<polygon fill="midnightblue" stroke="midnightblue" points="390.164,-229.355 380.081,-232.606 389.991,-236.352 390.164,-229.355"/>
</g>
<!-- Node4 -->
<g id="node4" class="node"><title>Node4</title>
<g id="a_node4"><a xlink:href="classqtreports_1_1detail_1_1_converter_to_h_t_m_l.html#ace8358a3612fc8085b7c34f1f92341e2" target="_top" xlink:title="Процесс конвертации репорта в HTML формат. ">
<polygon fill="none" stroke="black" points="820,-229.5 820,-259.5 983,-259.5 983,-229.5 820,-229.5"/>
<text text-anchor="start" x="828" y="-247.5" font-family="Helvetica,sans-Serif" font-size="10.00">qtreports::detail::</text>
<text text-anchor="middle" x="901.5" y="-236.5" font-family="Helvetica,sans-Serif" font-size="10.00">ConverterToHTML::createHTML</text>
</a>
</g>
</g>
<!-- Node3&#45;&gt;Node4 -->
<g id="edge3" class="edge"><title>Node3&#45;&gt;Node4</title>
<path fill="none" stroke="midnightblue" d="M555.947,-253.154C574.86,-258.195 596.158,-262.997 616,-265.5 690.079,-274.846 709.63,-272.149 784,-265.5 798.534,-264.201 813.967,-262.007 828.683,-259.514"/>
<polygon fill="midnightblue" stroke="midnightblue" points="556.863,-249.776 546.294,-250.507 555.012,-256.527 556.863,-249.776"/>
</g>
<!-- Node8 -->
<g id="node8" class="node"><title>Node8</title>
<g id="a_node8"><a xlink:href="classqtreports_1_1detail_1_1_converter_to_h_t_m_l.html#a602c8f3bd3bc44df48b2edcee8bcdfa0" target="_top" xlink:title="Добавление &lt;group&gt; в документ HTML. ">
<polygon fill="none" stroke="black" points="621,-215 621,-256 779,-256 779,-215 621,-215"/>
<text text-anchor="start" x="629" y="-244" font-family="Helvetica,sans-Serif" font-size="10.00">qtreports::detail::</text>
<text text-anchor="start" x="629" y="-233" font-family="Helvetica,sans-Serif" font-size="10.00">ConverterToHTML::addGroups</text>
<text text-anchor="middle" x="700" y="-222" font-family="Helvetica,sans-Serif" font-size="10.00">IntoReport</text>
</a>
</g>
</g>
<!-- Node3&#45;&gt;Node8 -->
<g id="edge7" class="edge"><title>Node3&#45;&gt;Node8</title>
<path fill="none" stroke="midnightblue" d="M582.667,-235.5C595.311,-235.5 608.312,-235.5 620.833,-235.5"/>
<polygon fill="midnightblue" stroke="midnightblue" points="582.621,-232 572.621,-235.5 582.621,-239 582.621,-232"/>
</g>
<!-- Node5 -->
<g id="node5" class="node"><title>Node5</title>
<g id="a_node5"><a xlink:href="classqtreports_1_1detail_1_1_converter_to_h_t_m_l.html#ad91ac333abf7d02f7590970a54ef7aae" target="_top" xlink:title="Запускает процесс конвертации репорта в HTML формат. ">
<polygon fill="none" stroke="black" points="1019,-229.5 1019,-259.5 1161,-259.5 1161,-229.5 1019,-229.5"/>
<text text-anchor="start" x="1027" y="-247.5" font-family="Helvetica,sans-Serif" font-size="10.00">qtreports::detail::</text>
<text text-anchor="middle" x="1090" y="-236.5" font-family="Helvetica,sans-Serif" font-size="10.00">ConverterToHTML::convert</text>
</a>
</g>
</g>
<!-- Node4&#45;&gt;Node5 -->
<g id="edge4" class="edge"><title>Node4&#45;&gt;Node5</title>
<path fill="none" stroke="midnightblue" d="M993.316,-244.5C1001.94,-244.5 1010.6,-244.5 1018.99,-244.5"/>
<polygon fill="midnightblue" stroke="midnightblue" points="993.217,-241 983.217,-244.5 993.217,-248 993.217,-241"/>
</g>
<!-- Node6 -->
<g id="node6" class="node"><title>Node6</title>
<g id="a_node6"><a xlink:href="classqtreports_1_1detail_1_1_converter_to_h_t_m_l.html#a38e92f3fd70f61c44871b22cddffd15a" target="_top" xlink:title="Создает HTML документ при успешной конвертации репорта в HTML формат. ">
<polygon fill="none" stroke="black" points="1197,-272.5 1197,-302.5 1339,-302.5 1339,-272.5 1197,-272.5"/>
<text text-anchor="start" x="1205" y="-290.5" font-family="Helvetica,sans-Serif" font-size="10.00">qtreports::detail::</text>
<text text-anchor="middle" x="1268" y="-279.5" font-family="Helvetica,sans-Serif" font-size="10.00">ConverterToHTML::convert</text>
</a>
</g>
</g>
<!-- Node5&#45;&gt;Node6 -->
<g id="edge5" class="edge"><title>Node5&#45;&gt;Node6</title>
<path fill="none" stroke="midnightblue" d="M1162.34,-261.929C1176.64,-265.423 1191.55,-269.065 1205.48,-272.469"/>
<polygon fill="midnightblue" stroke="midnightblue" points="1163.1,-258.513 1152.56,-259.539 1161.44,-265.313 1163.1,-258.513"/>
</g>
<!-- Node7 -->
<g id="node7" class="node"><title>Node7</title>
<g id="a_node7"><a xlink:href="classqtreports_1_1_engine.html#a551b0db0510d572d56447c471daa0891" target="_top" xlink:title="Создает HTML документ отчета по указанному пути ">
<polygon fill="none" stroke="black" points="1215.5,-223.5 1215.5,-253.5 1320.5,-253.5 1320.5,-223.5 1215.5,-223.5"/>
<text text-anchor="start" x="1223.5" y="-241.5" font-family="Helvetica,sans-Serif" font-size="10.00">qtreports::Engine::</text>
<text text-anchor="middle" x="1268" y="-230.5" font-family="Helvetica,sans-Serif" font-size="10.00">createHTML</text>
</a>
</g>
</g>
<!-- Node5&#45;&gt;Node7 -->
<g id="edge6" class="edge"><title>Node5&#45;&gt;Node7</title>
<path fill="none" stroke="midnightblue" d="M1171.35,-241.761C1186.3,-241.251 1201.54,-240.731 1215.35,-240.261"/>
<polygon fill="midnightblue" stroke="midnightblue" points="1170.94,-238.273 1161.07,-242.111 1171.18,-245.269 1170.94,-238.273"/>
</g>
<!-- Node8&#45;&gt;Node4 -->
<g id="edge8" class="edge"><title>Node8&#45;&gt;Node4</title>
<path fill="none" stroke="midnightblue" d="M789.348,-239.486C799.49,-239.943 809.791,-240.408 819.825,-240.861"/>
<polygon fill="midnightblue" stroke="midnightblue" points="789.423,-235.986 779.275,-239.031 789.107,-242.978 789.423,-235.986"/>
</g>
<!-- Node10 -->
<g id="node10" class="node"><title>Node10</title>
<g id="a_node10"><a xlink:href="classqtreports_1_1detail_1_1_converter_to_p_d_f.html#a5d9212cf5250d8d938359c417537337c" target="_top" xlink:title="Создает секцию. ">
<polygon fill="none" stroke="black" points="416,-142.5 416,-172.5 580,-172.5 580,-142.5 416,-142.5"/>
<text text-anchor="start" x="424" y="-160.5" font-family="Helvetica,sans-Serif" font-size="10.00">qtreports::detail::</text>
<text text-anchor="middle" x="498" y="-149.5" font-family="Helvetica,sans-Serif" font-size="10.00">ConverterToPDF::createSection</text>
</a>
</g>
</g>
<!-- Node9&#45;&gt;Node10 -->
<g id="edge10" class="edge"><title>Node9&#45;&gt;Node10</title>
<path fill="none" stroke="midnightblue" d="M383.355,-157.5C394.131,-157.5 405.103,-157.5 415.769,-157.5"/>
<polygon fill="midnightblue" stroke="midnightblue" points="383.099,-154 373.098,-157.5 383.098,-161 383.099,-154"/>
</g>
<!-- Node11 -->
<g id="node11" class="node"><title>Node11</title>
<g id="a_node11"><a xlink:href="classqtreports_1_1detail_1_1_converter_to_p_d_f.html#aad8435572f5ba065f8f2fef428d97b22" target="_top" xlink:title="Конвертирует отчет в PDF документ. ">
<polygon fill="none" stroke="black" points="837.5,-162.5 837.5,-192.5 965.5,-192.5 965.5,-162.5 837.5,-162.5"/>
<text text-anchor="start" x="845.5" y="-180.5" font-family="Helvetica,sans-Serif" font-size="10.00">qtreports::detail::</text>
<text text-anchor="middle" x="901.5" y="-169.5" font-family="Helvetica,sans-Serif" font-size="10.00">ConverterToPDF::create</text>
</a>
</g>
</g>
<!-- Node10&#45;&gt;Node11 -->
<g id="edge11" class="edge"><title>Node10&#45;&gt;Node11</title>
<path fill="none" stroke="midnightblue" d="M590.323,-165.75C598.998,-166.4 607.663,-166.998 616,-167.5 692.097,-172.086 779.78,-174.776 837.459,-176.19"/>
<polygon fill="midnightblue" stroke="midnightblue" points="590.394,-162.245 580.155,-164.966 589.856,-169.225 590.394,-162.245"/>
</g>
<!-- Node14 -->
<g id="node14" class="node"><title>Node14</title>
<g id="a_node14"><a xlink:href="classqtreports_1_1detail_1_1_converter_to_p_d_f.html#adda58d86ecfee05cdcc5e5ce161926ff" target="_top" xlink:title="Добавляет группу в репорт. ">
<polygon fill="none" stroke="black" points="616,-117 616,-158 784,-158 784,-117 616,-117"/>
<text text-anchor="start" x="624" y="-146" font-family="Helvetica,sans-Serif" font-size="10.00">qtreports::detail::</text>
<text text-anchor="start" x="624" y="-135" font-family="Helvetica,sans-Serif" font-size="10.00">ConverterToPDF::addGroupsInto</text>
<text text-anchor="middle" x="700" y="-124" font-family="Helvetica,sans-Serif" font-size="10.00">Report</text>
</a>
</g>
</g>
<!-- Node10&#45;&gt;Node14 -->
<g id="edge14" class="edge"><title>Node10&#45;&gt;Node14</title>
<path fill="none" stroke="midnightblue" d="M590.089,-148.391C598.681,-147.532 607.361,-146.664 615.873,-145.813"/>
<polygon fill="midnightblue" stroke="midnightblue" points="589.661,-144.916 580.059,-149.394 590.358,-151.882 589.661,-144.916"/>
</g>
<!-- Node12 -->
<g id="node12" class="node"><title>Node12</title>
<g id="a_node12"><a xlink:href="classqtreports_1_1detail_1_1_converter_to_p_d_f.html#af39953d8db1bdcbbcf59cc00b05747eb" target="_top" xlink:title="Запускает процесс конвертации. ">
<polygon fill="none" stroke="black" points="1023,-162.5 1023,-192.5 1157,-192.5 1157,-162.5 1023,-162.5"/>
<text text-anchor="start" x="1031" y="-180.5" font-family="Helvetica,sans-Serif" font-size="10.00">qtreports::detail::</text>
<text text-anchor="middle" x="1090" y="-169.5" font-family="Helvetica,sans-Serif" font-size="10.00">ConverterToPDF::convert</text>
</a>
</g>
</g>
<!-- Node11&#45;&gt;Node12 -->
<g id="edge12" class="edge"><title>Node11&#45;&gt;Node12</title>
<path fill="none" stroke="midnightblue" d="M975.703,-177.5C991.214,-177.5 1007.5,-177.5 1022.74,-177.5"/>
<polygon fill="midnightblue" stroke="midnightblue" points="975.64,-174 965.64,-177.5 975.64,-181 975.64,-174"/>
</g>
<!-- Node13 -->
<g id="node13" class="node"><title>Node13</title>
<g id="a_node13"><a xlink:href="classqtreports_1_1_engine.html#a34b6ccdf31af3bd275d9fb95100c6bda" target="_top" xlink:title="Создает PDF документ отчета по указанному пути ">
<polygon fill="none" stroke="black" points="1215.5,-162.5 1215.5,-192.5 1320.5,-192.5 1320.5,-162.5 1215.5,-162.5"/>
<text text-anchor="start" x="1223.5" y="-180.5" font-family="Helvetica,sans-Serif" font-size="10.00">qtreports::Engine::</text>
<text text-anchor="middle" x="1268" y="-169.5" font-family="Helvetica,sans-Serif" font-size="10.00">createPDF</text>
</a>
</g>
</g>
<!-- Node12&#45;&gt;Node13 -->
<g id="edge13" class="edge"><title>Node12&#45;&gt;Node13</title>
<path fill="none" stroke="midnightblue" d="M1167.11,-177.5C1183.43,-177.5 1200.31,-177.5 1215.44,-177.5"/>
<polygon fill="midnightblue" stroke="midnightblue" points="1167.04,-174 1157.04,-177.5 1167.04,-181 1167.04,-174"/>
</g>
<!-- Node14&#45;&gt;Node11 -->
<g id="edge15" class="edge"><title>Node14&#45;&gt;Node11</title>
<path fill="none" stroke="midnightblue" d="M794.205,-156.188C808.778,-159.11 823.539,-162.069 837.235,-164.815"/>
<polygon fill="midnightblue" stroke="midnightblue" points="794.654,-152.708 784.161,-154.174 793.278,-159.572 794.654,-152.708"/>
</g>
<!-- Node16 -->
<g id="node16" class="node"><title>Node16</title>
<g id="a_node16"><a xlink:href="classqtreports_1_1detail_1_1_converter_to_q_widget.html#a3c95daf9bd10efc4feb71e0d976bbd6e" target="_top" xlink:title="Создает секцию. ">
<polygon fill="none" stroke="black" points="438.5,-68 438.5,-109 557.5,-109 557.5,-68 438.5,-68"/>
<text text-anchor="start" x="446.5" y="-97" font-family="Helvetica,sans-Serif" font-size="10.00">qtreports::detail::</text>
<text text-anchor="start" x="446.5" y="-86" font-family="Helvetica,sans-Serif" font-size="10.00">ConverterToQWidget::</text>
<text text-anchor="middle" x="498" y="-75" font-family="Helvetica,sans-Serif" font-size="10.00">createSection</text>
</a>
</g>
</g>
<!-- Node15&#45;&gt;Node16 -->
<g id="edge17" class="edge"><title>Node15&#45;&gt;Node16</title>
<path fill="none" stroke="midnightblue" d="M363.862,-91.7955C388.013,-91.1977 414.901,-90.5321 438.155,-89.9565"/>
<polygon fill="midnightblue" stroke="midnightblue" points="363.608,-88.3006 353.698,-92.0471 363.782,-95.2985 363.608,-88.3006"/>
</g>
<!-- Node17 -->
<g id="node17" class="node"><title>Node17</title>
<g id="a_node17"><a xlink:href="classqtreports_1_1detail_1_1_converter_to_q_widget.html#a96a53267cf2b8092e174906ea7f0f56f" target="_top" xlink:title="Конвертирует отчет в QWidget. ">
<polygon fill="none" stroke="black" points="842,-44 842,-85 961,-85 961,-44 842,-44"/>
<text text-anchor="start" x="850" y="-73" font-family="Helvetica,sans-Serif" font-size="10.00">qtreports::detail::</text>
<text text-anchor="start" x="850" y="-62" font-family="Helvetica,sans-Serif" font-size="10.00">ConverterToQWidget::</text>
<text text-anchor="middle" x="901.5" y="-51" font-family="Helvetica,sans-Serif" font-size="10.00">createQWidget</text>
</a>
</g>
</g>
<!-- Node16&#45;&gt;Node17 -->
<g id="edge18" class="edge"><title>Node16&#45;&gt;Node17</title>
<path fill="none" stroke="midnightblue" d="M567.925,-84.38C645.167,-79.7627 769.082,-72.3556 841.858,-68.0054"/>
<polygon fill="midnightblue" stroke="midnightblue" points="567.585,-80.8939 557.812,-84.9845 568.003,-87.8815 567.585,-80.8939"/>
</g>
<!-- Node23 -->
<g id="node23" class="node"><title>Node23</title>
<g id="a_node23"><a xlink:href="classqtreports_1_1detail_1_1_converter_to_q_widget.html#ac98aceb5ee703053d7691029da84e296" target="_top" xlink:title="Функция добавления группировок в отчет. ">
<polygon fill="none" stroke="black" points="640.5,-19 640.5,-60 759.5,-60 759.5,-19 640.5,-19"/>
<text text-anchor="start" x="648.5" y="-48" font-family="Helvetica,sans-Serif" font-size="10.00">qtreports::detail::</text>
<text text-anchor="start" x="648.5" y="-37" font-family="Helvetica,sans-Serif" font-size="10.00">ConverterToQWidget::</text>
<text text-anchor="middle" x="700" y="-26" font-family="Helvetica,sans-Serif" font-size="10.00">addGroupsIntoReport</text>
</a>
</g>
</g>
<!-- Node16&#45;&gt;Node23 -->
<g id="edge24" class="edge"><title>Node16&#45;&gt;Node23</title>
<path fill="none" stroke="midnightblue" d="M567.619,-71.6884C591.282,-65.891 617.553,-59.4546 640.346,-53.8703"/>
<polygon fill="midnightblue" stroke="midnightblue" points="566.535,-68.3503 557.655,-74.1295 568.201,-75.1492 566.535,-68.3503"/>
</g>
<!-- Node18 -->
<g id="node18" class="node"><title>Node18</title>
<g id="a_node18"><a xlink:href="classqtreports_1_1detail_1_1_converter_to_q_widget.html#a4b42725ccbbc910522dca786da95fbb6" target="_top" xlink:title="Конвертирует отчет в виджет. ">
<polygon fill="none" stroke="black" points="1030.5,-44 1030.5,-85 1149.5,-85 1149.5,-44 1030.5,-44"/>
<text text-anchor="start" x="1038.5" y="-73" font-family="Helvetica,sans-Serif" font-size="10.00">qtreports::detail::</text>
<text text-anchor="start" x="1038.5" y="-62" font-family="Helvetica,sans-Serif" font-size="10.00">ConverterToQWidget::</text>
<text text-anchor="middle" x="1090" y="-51" font-family="Helvetica,sans-Serif" font-size="10.00">convert</text>
</a>
</g>
</g>
<!-- Node17&#45;&gt;Node18 -->
<g id="edge19" class="edge"><title>Node17&#45;&gt;Node18</title>
<path fill="none" stroke="midnightblue" d="M971.493,-64.5C990.789,-64.5 1011.58,-64.5 1030.22,-64.5"/>
<polygon fill="midnightblue" stroke="midnightblue" points="971.254,-61.0001 961.254,-64.5 971.254,-68.0001 971.254,-61.0001"/>
</g>
<!-- Node19 -->
<g id="node19" class="node"><title>Node19</title>
<g id="a_node19"><a xlink:href="classqtreports_1_1_engine.html#a2a0fef0c95335eec5df4f61e4ffa7434" target="_top" xlink:title="Создает виджет отчета для вывода на экран. ">
<polygon fill="none" stroke="black" points="1215.5,-98.5 1215.5,-128.5 1320.5,-128.5 1320.5,-98.5 1215.5,-98.5"/>
<text text-anchor="start" x="1223.5" y="-116.5" font-family="Helvetica,sans-Serif" font-size="10.00">qtreports::Engine::</text>
<text text-anchor="middle" x="1268" y="-105.5" font-family="Helvetica,sans-Serif" font-size="10.00">createWidget</text>
</a>
</g>
</g>
<!-- Node18&#45;&gt;Node19 -->
<g id="edge20" class="edge"><title>Node18&#45;&gt;Node19</title>
<path fill="none" stroke="midnightblue" d="M1159.24,-83.4994C1177.93,-88.7013 1197.86,-94.252 1215.44,-99.1465"/>
<polygon fill="midnightblue" stroke="midnightblue" points="1160.18,-80.1267 1149.61,-80.8163 1158.3,-86.8702 1160.18,-80.1267"/>
</g>
<!-- Node20 -->
<g id="node20" class="node"><title>Node20</title>
<g id="a_node20"><a xlink:href="classqtreports_1_1_engine.html#a3966d8f0ebb6c1f94812ec21e21680c0" target="_top" xlink:title="qtreports::Engine::\lcreateLayout">
<polygon fill="none" stroke="black" points="1215.5,-49.5 1215.5,-79.5 1320.5,-79.5 1320.5,-49.5 1215.5,-49.5"/>
<text text-anchor="start" x="1223.5" y="-67.5" font-family="Helvetica,sans-Serif" font-size="10.00">qtreports::Engine::</text>
<text text-anchor="middle" x="1268" y="-56.5" font-family="Helvetica,sans-Serif" font-size="10.00">createLayout</text>
</a>
</g>
</g>
<!-- Node18&#45;&gt;Node20 -->
<g id="edge21" class="edge"><title>Node18&#45;&gt;Node20</title>
<path fill="none" stroke="midnightblue" d="M1159.76,-64.5C1178.29,-64.5 1198.03,-64.5 1215.44,-64.5"/>
<polygon fill="midnightblue" stroke="midnightblue" points="1159.61,-61.0001 1149.61,-64.5 1159.61,-68.0001 1159.61,-61.0001"/>
</g>
<!-- Node21 -->
<g id="node21" class="node"><title>Node21</title>
<g id="a_node21"><a xlink:href="classqtreports_1_1_engine.html#a93dc7711446a155f87d9146efb493f9e" target="_top" xlink:title="qtreports::Engine::\ldrawPreview">
<polygon fill="none" stroke="black" points="1215.5,-0.5 1215.5,-30.5 1320.5,-30.5 1320.5,-0.5 1215.5,-0.5"/>
<text text-anchor="start" x="1223.5" y="-18.5" font-family="Helvetica,sans-Serif" font-size="10.00">qtreports::Engine::</text>
<text text-anchor="middle" x="1268" y="-7.5" font-family="Helvetica,sans-Serif" font-size="10.00">drawPreview</text>
</a>
</g>
</g>
<!-- Node18&#45;&gt;Node21 -->
<g id="edge22" class="edge"><title>Node18&#45;&gt;Node21</title>
<path fill="none" stroke="midnightblue" d="M1159.24,-45.5006C1177.93,-40.2987 1197.86,-34.748 1215.44,-29.8535"/>
<polygon fill="midnightblue" stroke="midnightblue" points="1158.3,-42.1298 1149.61,-48.1837 1160.18,-48.8733 1158.3,-42.1298"/>
</g>
<!-- Node22 -->
<g id="node22" class="node"><title>Node22</title>
<g id="a_node22"><a xlink:href="classqtreports_1_1_engine.html#ae80c66a0bc958bf82e023b646e18d55b" target="_top" xlink:title="qtreports::Engine::\lprint">
<polygon fill="none" stroke="black" points="1375,-0.5 1375,-30.5 1480,-30.5 1480,-0.5 1375,-0.5"/>
<text text-anchor="start" x="1383" y="-18.5" font-family="Helvetica,sans-Serif" font-size="10.00">qtreports::Engine::</text>
<text text-anchor="middle" x="1427.5" y="-7.5" font-family="Helvetica,sans-Serif" font-size="10.00">print</text>
</a>
</g>
</g>
<!-- Node21&#45;&gt;Node22 -->
<g id="edge23" class="edge"><title>Node21&#45;&gt;Node22</title>
<path fill="none" stroke="midnightblue" d="M1330.97,-15.5C1345.49,-15.5 1360.8,-15.5 1374.81,-15.5"/>
<polygon fill="midnightblue" stroke="midnightblue" points="1330.57,-12.0001 1320.57,-15.5 1330.57,-19.0001 1330.57,-12.0001"/>
</g>
<!-- Node23&#45;&gt;Node17 -->
<g id="edge25" class="edge"><title>Node23&#45;&gt;Node17</title>
<path fill="none" stroke="midnightblue" d="M769.447,-48.0774C793.051,-51.0352 819.256,-54.3191 841.992,-57.1682"/>
<polygon fill="midnightblue" stroke="midnightblue" points="769.866,-44.6026 759.509,-46.8319 768.996,-51.5482 769.866,-44.6026"/>
</g>
</g>
</svg>
