<?xml version="1.0" encoding="UTF-8" standalone="no"?>
<!DOCTYPE svg PUBLIC "-//W3C//DTD SVG 1.1//EN"
 "http://www.w3.org/Graphics/SVG/1.1/DTD/svg11.dtd">
<!-- Generated by graphviz version 2.38.0 (20140413.2041)
 -->
<!-- Title: /home/travis/build/PO&#45;31/QtReports/qtreports/src/tags/columngroup.hpp Pages: 1 -->
<!--zoomable 498 -->
<svg id="main" version="1.1" xmlns="http://www.w3.org/2000/svg" xmlns:xlink="http://www.w3.org/1999/xlink" xml:space="preserve" onload="init(evt)">
<style type="text/css"><![CDATA[
.edge:hover path { stroke: red; }
.edge:hover polygon { stroke: red; fill: red; }
]]></style>
<script type="text/javascript"><![CDATA[
var edges = document.getElementsByTagName('g');
if (edges && edges.length) {
  for (var i=0;i<edges.length;i++) {
    if (edges[i].id.substr(0,4)=='edge') {
      edges[i].setAttribute('class','edge');
    }
  }
}
]]></script>
        <defs>
                <circle id="rim" cx="0" cy="0" r="7"/>
                <circle id="rim2" cx="0" cy="0" r="3.5"/>
                <g id="zoomPlus">
                        <use xlink:href="#rim" fill="#404040">
                                <set attributeName="fill" to="#808080" begin="zoomplus.mouseover" end="zoomplus.mouseout"/>
                        </use>
                        <path d="M-4,0h8M0,-4v8" fill="none" stroke="white" stroke-width="1.5" pointer-events="none"/>
                </g>
                <g id="zoomMin">
                        <use xlink:href="#rim" fill="#404040">
                                <set attributeName="fill" to="#808080" begin="zoomminus.mouseover" end="zoomminus.mouseout"/>
                        </use>
                        <path d="M-4,0h8" fill="none" stroke="white" stroke-width="1.5" pointer-events="none"/>
                </g>
                <g id="dirArrow">
                        <path fill="none" stroke="white" stroke-width="1.5" d="M0,-3.0v7 M-2.5,-0.5L0,-3.0L2.5,-0.5"/>
                </g>
               <g id="resetDef">
                       <use xlink:href="#rim2" fill="#404040">
                               <set attributeName="fill" to="#808080" begin="reset.mouseover" end="reset.mouseout"/>
                       </use>
               </g>
        </defs>

<script type="text/javascript">
var viewWidth = 1176;
var viewHeight = 498;
var sectionId = 'dynsection-0';
</script>
<script xlink:href="svgpan.js"/>
<svg id="graph" class="graph">
<g id="viewport">
<title>/home/travis/build/PO&#45;31/QtReports/qtreports/src/tags/columngroup.hpp</title>
<!-- Node1 -->
<g id="node1" class="node"><title>Node1</title>
<polygon fill="#bfbfbf" stroke="black" points="510,-448.5 510,-489.5 656,-489.5 656,-448.5 510,-448.5"/>
<text text-anchor="start" x="518" y="-477.5" font-family="Helvetica,sans-Serif" font-size="10.00">/home/travis/build</text>
<text text-anchor="start" x="518" y="-466.5" font-family="Helvetica,sans-Serif" font-size="10.00">/PO&#45;31/QtReports/qtreports</text>
<text text-anchor="middle" x="583" y="-455.5" font-family="Helvetica,sans-Serif" font-size="10.00">/src/tags/columngroup.hpp</text>
</g>
<!-- Node2 -->
<g id="node2" class="node"><title>Node2</title>
<polygon fill="none" stroke="#bfbfbf" points="125.5,-0.5 125.5,-19.5 178.5,-19.5 178.5,-0.5 125.5,-0.5"/>
<text text-anchor="middle" x="152" y="-7.5" font-family="Helvetica,sans-Serif" font-size="10.00">QString</text>
</g>
<!-- Node1&#45;&gt;Node2 -->
<g id="edge1" class="edge"><title>Node1&#45;&gt;Node2</title>
<path fill="none" stroke="midnightblue" d="M509.753,-467.98C353.171,-465.959 0,-449.985 0,-347 0,-347 0,-347 0,-121 0,-64.2179 70.4758,-33.7621 115.45,-20.1076"/>
<polygon fill="midnightblue" stroke="midnightblue" points="116.542,-23.4353 125.175,-17.2937 114.597,-16.7111 116.542,-23.4353"/>
</g>
<!-- Node3 -->
<g id="node3" class="node"><title>Node3</title>
<polygon fill="none" stroke="#bfbfbf" points="743,-0.5 743,-19.5 835,-19.5 835,-0.5 743,-0.5"/>
<text text-anchor="middle" x="789" y="-7.5" font-family="Helvetica,sans-Serif" font-size="10.00">QSharedPointer</text>
</g>
<!-- Node1&#45;&gt;Node3 -->
<g id="edge2" class="edge"><title>Node1&#45;&gt;Node3</title>
<path fill="none" stroke="midnightblue" d="M656.203,-468.034C813.172,-466.129 1168,-450.388 1168,-347 1168,-347 1168,-347 1168,-121 1168,-74.4945 1128.65,-74.5511 1086,-56 1007.23,-21.7331 906.863,-12.9329 845.306,-11.0138"/>
<polygon fill="midnightblue" stroke="midnightblue" points="845.112,-7.50768 835.024,-10.7463 844.93,-14.5053 845.112,-7.50768"/>
</g>
<!-- Node4 -->
<g id="node4" class="node"><title>Node4</title>
<g id="a_node4"><a xlink:href="section_8hpp.html" target="_top" xlink:title="section.hpp">
<polygon fill="none" stroke="black" points="829,-392.5 829,-411.5 901,-411.5 901,-392.5 829,-392.5"/>
<text text-anchor="middle" x="865" y="-399.5" font-family="Helvetica,sans-Serif" font-size="10.00">section.hpp</text>
</a>
</g>
</g>
<!-- Node1&#45;&gt;Node4 -->
<g id="edge3" class="edge"><title>Node1&#45;&gt;Node4</title>
<path fill="none" stroke="midnightblue" d="M656.356,-451.092C707.832,-439.227 775.072,-423.728 819.115,-413.576"/>
<polygon fill="midnightblue" stroke="midnightblue" points="820.008,-416.962 828.967,-411.306 818.436,-410.141 820.008,-416.962"/>
</g>
<!-- Node24 -->
<g id="node24" class="node"><title>Node24</title>
<g id="a_node24"><a xlink:href="crosstabcolumnheader_8hpp.html" target="_top" xlink:title="crosstabcolumnheader.hpp">
<polygon fill="none" stroke="black" points="228.5,-392.5 228.5,-411.5 375.5,-411.5 375.5,-392.5 228.5,-392.5"/>
<text text-anchor="middle" x="302" y="-399.5" font-family="Helvetica,sans-Serif" font-size="10.00">crosstabcolumnheader.hpp</text>
</a>
</g>
</g>
<!-- Node1&#45;&gt;Node24 -->
<g id="edge50" class="edge"><title>Node1&#45;&gt;Node24</title>
<path fill="none" stroke="midnightblue" d="M509.904,-451.092C459.063,-439.331 392.79,-424.001 348.889,-413.846"/>
<polygon fill="midnightblue" stroke="midnightblue" points="349.587,-410.415 339.055,-411.572 348.009,-417.235 349.587,-410.415"/>
</g>
<!-- Node4&#45;&gt;Node3 -->
<g id="edge5" class="edge"><title>Node4&#45;&gt;Node3</title>
<path fill="none" stroke="midnightblue" d="M901.015,-401.8C973.471,-401.341 1130,-389.007 1130,-291 1130,-291 1130,-291 1130,-121 1130,-73.7946 1089.18,-75.0739 1046,-56 980.799,-27.1991 898.651,-16.8025 845.025,-13.0665"/>
<polygon fill="midnightblue" stroke="midnightblue" points="845.227,-9.57242 835.024,-12.424 844.779,-16.558 845.227,-9.57242"/>
</g>
<!-- Node5 -->
<g id="node5" class="node"><title>Node5</title>
<polygon fill="none" stroke="#bfbfbf" points="1046.5,-280.5 1046.5,-299.5 1101.5,-299.5 1101.5,-280.5 1046.5,-280.5"/>
<text text-anchor="middle" x="1074" y="-287.5" font-family="Helvetica,sans-Serif" font-size="10.00">QVector</text>
</g>
<!-- Node4&#45;&gt;Node5 -->
<g id="edge4" class="edge"><title>Node4&#45;&gt;Node5</title>
<path fill="none" stroke="midnightblue" d="M881.4,-392.368C917.722,-373.251 1005.16,-327.229 1048.61,-304.361"/>
<polygon fill="midnightblue" stroke="midnightblue" points="1050.46,-307.346 1057.68,-299.591 1047.2,-301.152 1050.46,-307.346"/>
</g>
<!-- Node6 -->
<g id="node6" class="node"><title>Node6</title>
<g id="a_node6"><a xlink:href="object_8hpp.html" target="_top" xlink:title="object.hpp">
<polygon fill="none" stroke="black" points="306.5,-56.5 306.5,-75.5 373.5,-75.5 373.5,-56.5 306.5,-56.5"/>
<text text-anchor="middle" x="340" y="-63.5" font-family="Helvetica,sans-Serif" font-size="10.00">object.hpp</text>
</a>
</g>
</g>
<!-- Node4&#45;&gt;Node6 -->
<g id="edge6" class="edge"><title>Node4&#45;&gt;Node6</title>
<path fill="none" stroke="midnightblue" d="M828.979,-400.238C752.213,-397.025 569.376,-380.774 445,-300 369.189,-250.766 347.542,-132.324 341.863,-86.0137"/>
<polygon fill="midnightblue" stroke="midnightblue" points="345.32,-85.4336 340.74,-75.88 338.363,-86.2047 345.32,-85.4336"/>
</g>
<!-- Node8 -->
<g id="node8" class="node"><title>Node8</title>
<g id="a_node8"><a xlink:href="band_8hpp.html" target="_top" xlink:title="band.hpp">
<polygon fill="none" stroke="black" points="834,-336.5 834,-355.5 896,-355.5 896,-336.5 834,-336.5"/>
<text text-anchor="middle" x="865" y="-343.5" font-family="Helvetica,sans-Serif" font-size="10.00">band.hpp</text>
</a>
</g>
</g>
<!-- Node4&#45;&gt;Node8 -->
<g id="edge10" class="edge"><title>Node4&#45;&gt;Node8</title>
<path fill="none" stroke="midnightblue" d="M865,-392.083C865,-385.006 865,-374.861 865,-365.986"/>
<polygon fill="midnightblue" stroke="midnightblue" points="868.5,-365.751 865,-355.751 861.5,-365.751 868.5,-365.751"/>
</g>
<!-- Node6&#45;&gt;Node2 -->
<g id="edge7" class="edge"><title>Node6&#45;&gt;Node2</title>
<path fill="none" stroke="midnightblue" d="M310.211,-56.4435C277.229,-46.9699 224.044,-31.6935 188.563,-21.5022"/>
<polygon fill="midnightblue" stroke="midnightblue" points="189.188,-18.0401 178.61,-18.6433 187.255,-24.7681 189.188,-18.0401"/>
</g>
<!-- Node6&#45;&gt;Node3 -->
<g id="edge9" class="edge"><title>Node6&#45;&gt;Node3</title>
<path fill="none" stroke="midnightblue" d="M373.701,-59.2201C380.73,-58.0891 388.1,-56.958 395,-56 514.839,-39.3613 655.813,-24.3609 732.433,-16.5902"/>
<polygon fill="midnightblue" stroke="midnightblue" points="733.211,-20.0296 742.809,-15.5423 732.508,-13.065 733.211,-20.0296"/>
</g>
<!-- Node7 -->
<g id="node7" class="node"><title>Node7</title>
<polygon fill="none" stroke="#bfbfbf" points="311,-0.5 311,-19.5 369,-19.5 369,-0.5 311,-0.5"/>
<text text-anchor="middle" x="340" y="-7.5" font-family="Helvetica,sans-Serif" font-size="10.00">QVariant</text>
</g>
<!-- Node6&#45;&gt;Node7 -->
<g id="edge8" class="edge"><title>Node6&#45;&gt;Node7</title>
<path fill="none" stroke="midnightblue" d="M340,-56.083C340,-49.0059 340,-38.8611 340,-29.9865"/>
<polygon fill="midnightblue" stroke="midnightblue" points="343.5,-29.751 340,-19.7511 336.5,-29.7511 343.5,-29.751"/>
</g>
<!-- Node8&#45;&gt;Node3 -->
<g id="edge12" class="edge"><title>Node8&#45;&gt;Node3</title>
<path fill="none" stroke="midnightblue" d="M896.212,-338.521C941.975,-327.367 1026.84,-300.111 1073,-244 1092.12,-220.757 1092,-209.098 1092,-179 1092,-179 1092,-179 1092,-121 1092,-73.0886 1049.63,-75.7917 1006,-56 954.477,-32.629 890.548,-21.2596 845.464,-15.8152"/>
<polygon fill="midnightblue" stroke="midnightblue" points="845.62,-12.3102 835.286,-14.6479 844.822,-19.2646 845.62,-12.3102"/>
</g>
<!-- Node8&#45;&gt;Node5 -->
<g id="edge11" class="edge"><title>Node8&#45;&gt;Node5</title>
<path fill="none" stroke="midnightblue" d="M896.289,-336.916C933.687,-327.253 996.225,-311.095 1036.26,-300.75"/>
<polygon fill="midnightblue" stroke="midnightblue" points="1037.37,-304.079 1046.18,-298.188 1035.62,-297.301 1037.37,-304.079"/>
</g>
<!-- Node9 -->
<g id="node9" class="node"><title>Node9</title>
<g id="a_node9"><a xlink:href="statictext_8hpp.html" target="_top" xlink:title="statictext.hpp">
<polygon fill="none" stroke="black" points="788.5,-280.5 788.5,-299.5 871.5,-299.5 871.5,-280.5 788.5,-280.5"/>
<text text-anchor="middle" x="830" y="-287.5" font-family="Helvetica,sans-Serif" font-size="10.00">statictext.hpp</text>
</a>
</g>
</g>
<!-- Node8&#45;&gt;Node9 -->
<g id="edge13" class="edge"><title>Node8&#45;&gt;Node9</title>
<path fill="none" stroke="midnightblue" d="M859.22,-336.083C854.328,-328.534 847.173,-317.495 841.167,-308.23"/>
<polygon fill="midnightblue" stroke="midnightblue" points="844.048,-306.239 835.672,-299.751 838.174,-310.046 844.048,-306.239"/>
</g>
<!-- Node11 -->
<g id="node11" class="node"><title>Node11</title>
<g id="a_node11"><a xlink:href="widget_8hpp.html" target="_top" xlink:title="widget.hpp">
<polygon fill="none" stroke="black" points="640,-168.5 640,-187.5 708,-187.5 708,-168.5 640,-168.5"/>
<text text-anchor="middle" x="674" y="-175.5" font-family="Helvetica,sans-Serif" font-size="10.00">widget.hpp</text>
</a>
</g>
</g>
<!-- Node8&#45;&gt;Node11 -->
<g id="edge47" class="edge"><title>Node8&#45;&gt;Node11</title>
<path fill="none" stroke="midnightblue" d="M833.819,-340.957C789.53,-334.557 711.687,-320.659 693,-300 667.527,-271.839 668.346,-224.089 671.172,-197.782"/>
<polygon fill="midnightblue" stroke="midnightblue" points="674.672,-198.01 672.48,-187.644 667.729,-197.114 674.672,-198.01"/>
</g>
<!-- Node17 -->
<g id="node17" class="node"><title>Node17</title>
<g id="a_node17"><a xlink:href="textfield_8hpp.html" target="_top" xlink:title="textfield.hpp">
<polygon fill="none" stroke="black" points="454,-280.5 454,-299.5 530,-299.5 530,-280.5 454,-280.5"/>
<text text-anchor="middle" x="492" y="-287.5" font-family="Helvetica,sans-Serif" font-size="10.00">textfield.hpp</text>
</a>
</g>
</g>
<!-- Node8&#45;&gt;Node17 -->
<g id="edge30" class="edge"><title>Node8&#45;&gt;Node17</title>
<path fill="none" stroke="midnightblue" d="M833.84,-340.489C768.74,-331.064 617.922,-309.23 540.21,-297.979"/>
<polygon fill="midnightblue" stroke="midnightblue" points="540.598,-294.499 530.199,-296.53 539.595,-301.427 540.598,-294.499"/>
</g>
<!-- Node18 -->
<g id="node18" class="node"><title>Node18</title>
<g id="a_node18"><a xlink:href="line_8hpp.html" target="_top" xlink:title="line.hpp">
<polygon fill="none" stroke="black" points="936,-224.5 936,-243.5 990,-243.5 990,-224.5 936,-224.5"/>
<text text-anchor="middle" x="963" y="-231.5" font-family="Helvetica,sans-Serif" font-size="10.00">line.hpp</text>
</a>
</g>
</g>
<!-- Node8&#45;&gt;Node18 -->
<g id="edge34" class="edge"><title>Node8&#45;&gt;Node18</title>
<path fill="none" stroke="midnightblue" d="M872.69,-336.368C889.006,-318.055 927.32,-275.049 948.423,-251.362"/>
<polygon fill="midnightblue" stroke="midnightblue" points="951.307,-253.386 955.346,-243.591 946.08,-248.73 951.307,-253.386"/>
</g>
<!-- Node19 -->
<g id="node19" class="node"><title>Node19</title>
<g id="a_node19"><a xlink:href="rect_8hpp.html" target="_top" xlink:title="rect.hpp">
<polygon fill="none" stroke="black" points="1008,-224.5 1008,-243.5 1064,-243.5 1064,-224.5 1008,-224.5"/>
<text text-anchor="middle" x="1036" y="-231.5" font-family="Helvetica,sans-Serif" font-size="10.00">rect.hpp</text>
</a>
</g>
</g>
<!-- Node8&#45;&gt;Node19 -->
<g id="edge37" class="edge"><title>Node8&#45;&gt;Node19</title>
<path fill="none" stroke="midnightblue" d="M878.418,-336.368C907.762,-317.492 977.883,-272.385 1013.87,-249.237"/>
<polygon fill="midnightblue" stroke="midnightblue" points="1016.13,-251.945 1022.64,-243.591 1012.34,-246.058 1016.13,-251.945"/>
</g>
<!-- Node20 -->
<g id="node20" class="node"><title>Node20</title>
<g id="a_node20"><a xlink:href="ellipse_8hpp.html" target="_top" xlink:title="ellipse.hpp">
<polygon fill="none" stroke="black" points="812,-224.5 812,-243.5 880,-243.5 880,-224.5 812,-224.5"/>
<text text-anchor="middle" x="846" y="-231.5" font-family="Helvetica,sans-Serif" font-size="10.00">ellipse.hpp</text>
</a>
</g>
</g>
<!-- Node8&#45;&gt;Node20 -->
<g id="edge40" class="edge"><title>Node8&#45;&gt;Node20</title>
<path fill="none" stroke="midnightblue" d="M869.933,-336.441C876.519,-323.87 886.627,-299.765 880,-280 876.396,-269.251 869.097,-259.02 862.183,-251.038"/>
<polygon fill="midnightblue" stroke="midnightblue" points="864.655,-248.556 855.288,-243.605 859.523,-253.317 864.655,-248.556"/>
</g>
<!-- Node21 -->
<g id="node21" class="node"><title>Node21</title>
<g id="a_node21"><a xlink:href="image_8hpp.html" target="_top" xlink:title="image.hpp">
<polygon fill="none" stroke="black" points="702,-280.5 702,-299.5 770,-299.5 770,-280.5 702,-280.5"/>
<text text-anchor="middle" x="736" y="-287.5" font-family="Helvetica,sans-Serif" font-size="10.00">image.hpp</text>
</a>
</g>
</g>
<!-- Node8&#45;&gt;Node21 -->
<g id="edge43" class="edge"><title>Node8&#45;&gt;Node21</title>
<path fill="none" stroke="midnightblue" d="M844.56,-336.444C823.33,-327.557 789.901,-313.563 765.745,-303.451"/>
<polygon fill="midnightblue" stroke="midnightblue" points="766.921,-300.149 756.345,-299.516 764.218,-306.606 766.921,-300.149"/>
</g>
<!-- Node23 -->
<g id="node23" class="node"><title>Node23</title>
<g id="a_node23"><a xlink:href="crosstab_8hpp.html" target="_top" xlink:title="crosstab.hpp">
<polygon fill="none" stroke="black" points="566.5,-280.5 566.5,-299.5 645.5,-299.5 645.5,-280.5 566.5,-280.5"/>
<text text-anchor="middle" x="606" y="-287.5" font-family="Helvetica,sans-Serif" font-size="10.00">crosstab.hpp</text>
</a>
</g>
</g>
<!-- Node8&#45;&gt;Node23 -->
<g id="edge48" class="edge"><title>Node8&#45;&gt;Node23</title>
<path fill="none" stroke="midnightblue" d="M833.759,-338.486C789.612,-329.282 708.506,-312.372 655.945,-301.413"/>
<polygon fill="midnightblue" stroke="midnightblue" points="656.336,-297.92 645.833,-299.305 654.908,-304.772 656.336,-297.92"/>
</g>
<!-- Node9&#45;&gt;Node3 -->
<g id="edge14" class="edge"><title>Node9&#45;&gt;Node3</title>
<path fill="none" stroke="midnightblue" d="M846.918,-280.483C860.42,-272.795 878.72,-260.21 889,-244 933.952,-173.114 958.238,-122.485 907,-56 892.077,-36.6365 867.769,-25.6039 845.081,-19.3184"/>
<polygon fill="midnightblue" stroke="midnightblue" points="845.703,-15.8659 835.152,-16.8283 844,-22.6557 845.703,-15.8659"/>
</g>
<!-- Node10 -->
<g id="node10" class="node"><title>Node10</title>
<g id="a_node10"><a xlink:href="textwidget_8hpp.html" target="_top" xlink:title="textwidget.hpp">
<polygon fill="none" stroke="black" points="520.5,-224.5 520.5,-243.5 607.5,-243.5 607.5,-224.5 520.5,-224.5"/>
<text text-anchor="middle" x="564" y="-231.5" font-family="Helvetica,sans-Serif" font-size="10.00">textwidget.hpp</text>
</a>
</g>
</g>
<!-- Node9&#45;&gt;Node10 -->
<g id="edge15" class="edge"><title>Node9&#45;&gt;Node10</title>
<path fill="none" stroke="midnightblue" d="M788.438,-280.562C741.959,-271.127 666.606,-255.83 616.195,-245.596"/>
<polygon fill="midnightblue" stroke="midnightblue" points="616.645,-242.116 606.148,-243.556 615.252,-248.976 616.645,-242.116"/>
</g>
<!-- Node10&#45;&gt;Node2 -->
<g id="edge16" class="edge"><title>Node10&#45;&gt;Node2</title>
<path fill="none" stroke="midnightblue" d="M539.35,-224.436C500.358,-211.103 421.903,-185.137 354,-168 273.628,-147.717 228.475,-191.731 171,-132 144.671,-104.638 145.829,-56.5721 148.937,-30.0008"/>
<polygon fill="midnightblue" stroke="midnightblue" points="152.452,-30.1403 150.363,-19.7534 145.518,-29.1757 152.452,-30.1403"/>
</g>
<!-- Node10&#45;&gt;Node3 -->
<g id="edge17" class="edge"><title>Node10&#45;&gt;Node3</title>
<path fill="none" stroke="midnightblue" d="M560.245,-224.453C551.91,-204.191 533.76,-151.951 549,-112 560.892,-80.8253 570.335,-73.0758 599,-56 639.856,-31.6622 692.992,-20.4849 732.679,-15.353"/>
<polygon fill="midnightblue" stroke="midnightblue" points="733.21,-18.8145 742.721,-14.1455 732.374,-11.8645 733.21,-18.8145"/>
</g>
<!-- Node10&#45;&gt;Node11 -->
<g id="edge18" class="edge"><title>Node10&#45;&gt;Node11</title>
<path fill="none" stroke="midnightblue" d="M581.673,-224.324C599.394,-215.625 626.903,-202.12 647.288,-192.113"/>
<polygon fill="midnightblue" stroke="midnightblue" points="648.936,-195.203 656.37,-187.655 645.851,-188.919 648.936,-195.203"/>
</g>
<!-- Node11&#45;&gt;Node2 -->
<g id="edge19" class="edge"><title>Node11&#45;&gt;Node2</title>
<path fill="none" stroke="midnightblue" d="M639.811,-170.232C599.817,-162.101 531.722,-147.595 474,-132 394.346,-110.48 374.106,-105.369 297,-76 254.845,-59.9438 207.384,-37.8801 178.594,-24.034"/>
<polygon fill="midnightblue" stroke="midnightblue" points="180.107,-20.8779 169.581,-19.6739 177.059,-27.1794 180.107,-20.8779"/>
</g>
<!-- Node11&#45;&gt;Node3 -->
<g id="edge23" class="edge"><title>Node11&#45;&gt;Node3</title>
<path fill="none" stroke="midnightblue" d="M669.764,-168.112C664.223,-155.132 656.198,-130.521 665,-112 684.787,-70.3634 731.066,-40.2509 761.151,-24.2279"/>
<polygon fill="midnightblue" stroke="midnightblue" points="763.004,-27.2106 770.295,-19.5239 759.802,-20.9858 763.004,-27.2106"/>
</g>
<!-- Node11&#45;&gt;Node6 -->
<g id="edge29" class="edge"><title>Node11&#45;&gt;Node6</title>
<path fill="none" stroke="midnightblue" d="M648.07,-168.46C588.88,-148.966 443.719,-101.159 375.947,-78.839"/>
<polygon fill="midnightblue" stroke="midnightblue" points="376.737,-75.4142 366.144,-75.6104 374.548,-82.0629 376.737,-75.4142"/>
</g>
<!-- Node12 -->
<g id="node12" class="node"><title>Node12</title>
<polygon fill="none" stroke="#bfbfbf" points="736,-112.5 736,-131.5 784,-131.5 784,-112.5 736,-112.5"/>
<text text-anchor="middle" x="760" y="-119.5" font-family="Helvetica,sans-Serif" font-size="10.00">QPoint</text>
</g>
<!-- Node11&#45;&gt;Node12 -->
<g id="edge20" class="edge"><title>Node11&#45;&gt;Node12</title>
<path fill="none" stroke="midnightblue" d="M687.817,-168.324C701.233,-159.9 721.824,-146.971 737.586,-137.074"/>
<polygon fill="midnightblue" stroke="midnightblue" points="739.609,-139.936 746.217,-131.655 735.887,-134.008 739.609,-139.936"/>
</g>
<!-- Node13 -->
<g id="node13" class="node"><title>Node13</title>
<polygon fill="none" stroke="#bfbfbf" points="802,-112.5 802,-131.5 846,-131.5 846,-112.5 802,-112.5"/>
<text text-anchor="middle" x="824" y="-119.5" font-family="Helvetica,sans-Serif" font-size="10.00">QSize</text>
</g>
<!-- Node11&#45;&gt;Node13 -->
<g id="edge21" class="edge"><title>Node11&#45;&gt;Node13</title>
<path fill="none" stroke="midnightblue" d="M697.768,-168.444C723.336,-159.239 764.121,-144.556 792.382,-134.383"/>
<polygon fill="midnightblue" stroke="midnightblue" points="793.587,-137.669 801.81,-130.988 791.216,-131.082 793.587,-137.669"/>
</g>
<!-- Node14 -->
<g id="node14" class="node"><title>Node14</title>
<polygon fill="none" stroke="#bfbfbf" points="674,-112.5 674,-131.5 718,-131.5 718,-112.5 674,-112.5"/>
<text text-anchor="middle" x="696" y="-119.5" font-family="Helvetica,sans-Serif" font-size="10.00">QRect</text>
</g>
<!-- Node11&#45;&gt;Node14 -->
<g id="edge22" class="edge"><title>Node11&#45;&gt;Node14</title>
<path fill="none" stroke="midnightblue" d="M677.633,-168.083C680.612,-160.77 684.926,-150.181 688.625,-141.103"/>
<polygon fill="midnightblue" stroke="midnightblue" points="691.903,-142.333 692.435,-131.751 685.42,-139.691 691.903,-142.333"/>
</g>
<!-- Node15 -->
<g id="node15" class="node"><title>Node15</title>
<g id="a_node15"><a xlink:href="style_8hpp.html" target="_top" xlink:title="style.hpp">
<polygon fill="none" stroke="black" points="558,-112.5 558,-131.5 618,-131.5 618,-112.5 558,-112.5"/>
<text text-anchor="middle" x="588" y="-119.5" font-family="Helvetica,sans-Serif" font-size="10.00">style.hpp</text>
</a>
</g>
</g>
<!-- Node11&#45;&gt;Node15 -->
<g id="edge24" class="edge"><title>Node11&#45;&gt;Node15</title>
<path fill="none" stroke="midnightblue" d="M660.183,-168.324C646.767,-159.9 626.176,-146.971 610.414,-137.074"/>
<polygon fill="midnightblue" stroke="midnightblue" points="612.113,-134.008 601.783,-131.655 608.391,-139.936 612.113,-134.008"/>
</g>
<!-- Node15&#45;&gt;Node2 -->
<g id="edge25" class="edge"><title>Node15&#45;&gt;Node2</title>
<path fill="none" stroke="midnightblue" d="M563.838,-112.4C525.614,-99.0186 448.687,-72.9873 382,-56 314.511,-38.8084 234.449,-24.4887 188.798,-16.886"/>
<polygon fill="midnightblue" stroke="midnightblue" points="189.215,-13.4076 178.779,-15.2335 188.076,-20.3143 189.215,-13.4076"/>
</g>
<!-- Node15&#45;&gt;Node3 -->
<g id="edge27" class="edge"><title>Node15&#45;&gt;Node3</title>
<path fill="none" stroke="midnightblue" d="M589.529,-112.41C592.476,-98.4367 600.287,-70.8546 618,-56 650.035,-29.1341 696.384,-18.1176 732.749,-13.6903"/>
<polygon fill="midnightblue" stroke="midnightblue" points="733.156,-17.1667 742.72,-12.6086 732.401,-10.2075 733.156,-17.1667"/>
</g>
<!-- Node15&#45;&gt;Node6 -->
<g id="edge28" class="edge"><title>Node15&#45;&gt;Node6</title>
<path fill="none" stroke="midnightblue" d="M557.59,-114.379C514.028,-104.893 433.624,-87.3858 383.697,-76.5146"/>
<polygon fill="midnightblue" stroke="midnightblue" points="384.35,-73.0748 373.834,-74.367 382.86,-79.9146 384.35,-73.0748"/>
</g>
<!-- Node16 -->
<g id="node16" class="node"><title>Node16</title>
<polygon fill="none" stroke="#bfbfbf" points="627.5,-56.5 627.5,-75.5 676.5,-75.5 676.5,-56.5 627.5,-56.5"/>
<text text-anchor="middle" x="652" y="-63.5" font-family="Helvetica,sans-Serif" font-size="10.00">QColor</text>
</g>
<!-- Node15&#45;&gt;Node16 -->
<g id="edge26" class="edge"><title>Node15&#45;&gt;Node16</title>
<path fill="none" stroke="midnightblue" d="M598.283,-112.324C607.836,-104.263 622.28,-92.0765 633.784,-82.3695"/>
<polygon fill="midnightblue" stroke="midnightblue" points="636.144,-84.9577 641.53,-75.8339 631.63,-79.6076 636.144,-84.9577"/>
</g>
<!-- Node17&#45;&gt;Node2 -->
<g id="edge31" class="edge"><title>Node17&#45;&gt;Node2</title>
<path fill="none" stroke="midnightblue" d="M453.957,-283.026C382.821,-269.725 230.003,-230.674 154,-132 131.115,-102.289 139.172,-55.1833 146.147,-29.3851"/>
<polygon fill="midnightblue" stroke="midnightblue" points="149.518,-30.3272 148.977,-19.7462 142.801,-28.3553 149.518,-30.3272"/>
</g>
<!-- Node17&#45;&gt;Node3 -->
<g id="edge32" class="edge"><title>Node17&#45;&gt;Node3</title>
<path fill="none" stroke="midnightblue" d="M491.688,-280.387C490.947,-245.552 493.275,-114.177 567,-56 592.191,-36.1215 675.487,-23.2997 732.565,-16.6162"/>
<polygon fill="midnightblue" stroke="midnightblue" points="733.006,-20.0887 742.545,-15.4785 732.213,-13.1338 733.006,-20.0887"/>
</g>
<!-- Node17&#45;&gt;Node10 -->
<g id="edge33" class="edge"><title>Node17&#45;&gt;Node10</title>
<path fill="none" stroke="midnightblue" d="M503.568,-280.324C514.42,-272.185 530.881,-259.839 543.883,-250.087"/>
<polygon fill="midnightblue" stroke="midnightblue" points="546.321,-252.634 552.221,-243.834 542.121,-247.034 546.321,-252.634"/>
</g>
<!-- Node18&#45;&gt;Node3 -->
<g id="edge35" class="edge"><title>Node18&#45;&gt;Node3</title>
<path fill="none" stroke="midnightblue" d="M966.326,-224.467C976.523,-196.738 1004.3,-107.969 964,-56 949.435,-37.216 890.793,-24.9022 845.36,-17.9805"/>
<polygon fill="midnightblue" stroke="midnightblue" points="845.706,-14.4938 835.303,-16.5021 844.688,-21.4194 845.706,-14.4938"/>
</g>
<!-- Node18&#45;&gt;Node11 -->
<g id="edge36" class="edge"><title>Node18&#45;&gt;Node11</title>
<path fill="none" stroke="midnightblue" d="M935.812,-227.92C885.868,-218.588 779.092,-198.637 718.461,-187.308"/>
<polygon fill="midnightblue" stroke="midnightblue" points="718.894,-183.828 708.421,-185.432 717.608,-190.709 718.894,-183.828"/>
</g>
<!-- Node19&#45;&gt;Node3 -->
<g id="edge38" class="edge"><title>Node19&#45;&gt;Node3</title>
<path fill="none" stroke="midnightblue" d="M1036.28,-224.469C1036.73,-195.975 1034.11,-103.235 984,-56 964.192,-37.3264 895.568,-24.6525 845.313,-17.6302"/>
<polygon fill="midnightblue" stroke="midnightblue" points="845.59,-14.1358 835.21,-16.2592 844.648,-21.0722 845.59,-14.1358"/>
</g>
<!-- Node19&#45;&gt;Node11 -->
<g id="edge39" class="edge"><title>Node19&#45;&gt;Node11</title>
<path fill="none" stroke="midnightblue" d="M1007.78,-225.825C1004.83,-225.167 1001.86,-224.544 999,-224 899.348,-205.031 781.065,-190.677 718.297,-183.697"/>
<polygon fill="midnightblue" stroke="midnightblue" points="718.666,-180.216 708.343,-182.6 717.9,-187.174 718.666,-180.216"/>
</g>
<!-- Node20&#45;&gt;Node3 -->
<g id="edge41" class="edge"><title>Node20&#45;&gt;Node3</title>
<path fill="none" stroke="midnightblue" d="M852.239,-224.483C871.159,-197.533 924.419,-112.559 888,-56 877.694,-39.9949 860.149,-29.6167 842.666,-22.9158"/>
<polygon fill="midnightblue" stroke="midnightblue" points="843.6,-19.5353 833.006,-19.559 841.303,-26.1475 843.6,-19.5353"/>
</g>
<!-- Node20&#45;&gt;Node11 -->
<g id="edge42" class="edge"><title>Node20&#45;&gt;Node11</title>
<path fill="none" stroke="midnightblue" d="M818.746,-224.444C789.559,-215.28 743.079,-200.688 710.691,-190.519"/>
<polygon fill="midnightblue" stroke="midnightblue" points="711.716,-187.173 701.126,-187.516 709.619,-193.851 711.716,-187.173"/>
</g>
<!-- Node21&#45;&gt;Node3 -->
<g id="edge45" class="edge"><title>Node21&#45;&gt;Node3</title>
<path fill="none" stroke="midnightblue" d="M745.983,-280.384C770.402,-258.564 832.768,-198.135 855,-132 868.632,-91.4479 831.031,-48.5202 807.11,-26.3146"/>
<polygon fill="midnightblue" stroke="midnightblue" points="809.403,-23.6695 799.616,-19.6117 804.736,-28.8871 809.403,-23.6695"/>
</g>
<!-- Node21&#45;&gt;Node10 -->
<g id="edge46" class="edge"><title>Node21&#45;&gt;Node10</title>
<path fill="none" stroke="midnightblue" d="M708.746,-280.444C679.559,-271.28 633.079,-256.688 600.691,-246.519"/>
<polygon fill="midnightblue" stroke="midnightblue" points="601.716,-243.173 591.126,-243.516 599.619,-249.851 601.716,-243.173"/>
</g>
<!-- Node22 -->
<g id="node22" class="node"><title>Node22</title>
<polygon fill="none" stroke="#bfbfbf" points="702,-224.5 702,-243.5 756,-243.5 756,-224.5 702,-224.5"/>
<text text-anchor="middle" x="729" y="-231.5" font-family="Helvetica,sans-Serif" font-size="10.00">QImage</text>
</g>
<!-- Node21&#45;&gt;Node22 -->
<g id="edge44" class="edge"><title>Node21&#45;&gt;Node22</title>
<path fill="none" stroke="midnightblue" d="M734.844,-280.083C733.916,-272.927 732.582,-262.635 731.423,-253.691"/>
<polygon fill="midnightblue" stroke="midnightblue" points="734.891,-253.218 730.134,-243.751 727.949,-254.118 734.891,-253.218"/>
</g>
<!-- Node23&#45;&gt;Node11 -->
<g id="edge49" class="edge"><title>Node23&#45;&gt;Node11</title>
<path fill="none" stroke="midnightblue" d="M611.336,-280.368C622.508,-262.296 648.545,-220.176 663.301,-196.307"/>
<polygon fill="midnightblue" stroke="midnightblue" points="666.408,-197.938 668.689,-187.591 660.454,-194.257 666.408,-197.938"/>
</g>
<!-- Node24&#45;&gt;Node2 -->
<g id="edge51" class="edge"><title>Node24&#45;&gt;Node2</title>
<path fill="none" stroke="midnightblue" d="M228.461,-400.425C150.346,-395.466 38,-373.92 38,-291 38,-291 38,-291 38,-121 38,-74.1149 88.5515,-40.8944 122.329,-23.9302"/>
<polygon fill="midnightblue" stroke="midnightblue" points="123.868,-27.0742 131.355,-19.5787 120.828,-20.7687 123.868,-27.0742"/>
</g>
<!-- Node24&#45;&gt;Node3 -->
<g id="edge52" class="edge"><title>Node24&#45;&gt;Node3</title>
<path fill="none" stroke="midnightblue" d="M315.057,-392.435C327.131,-384.093 345.106,-370.571 358,-356 461.967,-238.516 414.408,-144.416 544,-56 574.033,-35.5096 670.303,-22.5231 732.846,-16.0226"/>
<polygon fill="midnightblue" stroke="midnightblue" points="733.365,-19.488 742.961,-14.997 732.659,-12.5237 733.365,-19.488"/>
</g>
<!-- Node24&#45;&gt;Node6 -->
<g id="edge53" class="edge"><title>Node24&#45;&gt;Node6</title>
<path fill="none" stroke="midnightblue" d="M283.918,-392.39C270.438,-384.872 253.028,-372.565 245,-356 241.124,-348.001 243.889,-344.819 245,-336 254.631,-259.53 260.632,-240.051 288,-168 299.623,-137.402 318.03,-104.029 329.54,-84.3382"/>
<polygon fill="midnightblue" stroke="midnightblue" points="332.627,-85.9955 334.718,-75.6091 326.606,-82.4244 332.627,-85.9955"/>
</g>
<!-- Node25 -->
<g id="node25" class="node"><title>Node25</title>
<g id="a_node25"><a xlink:href="cellcontents_8hpp.html" target="_top" xlink:title="cellcontents.hpp">
<polygon fill="none" stroke="black" points="254.5,-336.5 254.5,-355.5 349.5,-355.5 349.5,-336.5 254.5,-336.5"/>
<text text-anchor="middle" x="302" y="-343.5" font-family="Helvetica,sans-Serif" font-size="10.00">cellcontents.hpp</text>
</a>
</g>
</g>
<!-- Node24&#45;&gt;Node25 -->
<g id="edge54" class="edge"><title>Node24&#45;&gt;Node25</title>
<path fill="none" stroke="midnightblue" d="M302,-392.083C302,-385.006 302,-374.861 302,-365.986"/>
<polygon fill="midnightblue" stroke="midnightblue" points="305.5,-365.751 302,-355.751 298.5,-365.751 305.5,-365.751"/>
</g>
<!-- Node25&#45;&gt;Node2 -->
<g id="edge55" class="edge"><title>Node25&#45;&gt;Node2</title>
<path fill="none" stroke="midnightblue" d="M254.347,-342.466C188.042,-336.082 76,-313.655 76,-235 76,-235 76,-235 76,-121 76,-81.2757 109.964,-45.5045 132.482,-26.1536"/>
<polygon fill="midnightblue" stroke="midnightblue" points="134.976,-28.6337 140.457,-19.5672 130.518,-23.2364 134.976,-28.6337"/>
</g>
<!-- Node25&#45;&gt;Node3 -->
<g id="edge56" class="edge"><title>Node25&#45;&gt;Node3</title>
<path fill="none" stroke="midnightblue" d="M302.941,-336.284C307.761,-296.319 333.47,-129.406 433,-56 479.358,-21.8094 644.51,-13.5335 732.638,-11.5736"/>
<polygon fill="midnightblue" stroke="midnightblue" points="732.804,-15.071 742.731,-11.3693 732.663,-8.07247 732.804,-15.071"/>
</g>
<!-- Node25&#45;&gt;Node17 -->
<g id="edge61" class="edge"><title>Node25&#45;&gt;Node17</title>
<path fill="none" stroke="midnightblue" d="M332.106,-336.444C364.626,-327.201 416.579,-312.436 452.391,-302.257"/>
<polygon fill="midnightblue" stroke="midnightblue" points="453.373,-305.617 462.035,-299.516 451.459,-298.884 453.373,-305.617"/>
</g>
<!-- Node26 -->
<g id="node26" class="node"><title>Node26</title>
<g id="a_node26"><a xlink:href="box_8hpp.html" target="_top" xlink:title="box.hpp">
<polygon fill="none" stroke="black" points="180.5,-112.5 180.5,-131.5 235.5,-131.5 235.5,-112.5 180.5,-112.5"/>
<text text-anchor="middle" x="208" y="-119.5" font-family="Helvetica,sans-Serif" font-size="10.00">box.hpp</text>
</a>
</g>
</g>
<!-- Node25&#45;&gt;Node26 -->
<g id="edge57" class="edge"><title>Node25&#45;&gt;Node26</title>
<path fill="none" stroke="midnightblue" d="M298.315,-336.297C284.425,-303.494 235.05,-186.884 215.781,-141.377"/>
<polygon fill="midnightblue" stroke="midnightblue" points="218.884,-139.728 211.762,-131.884 212.438,-142.457 218.884,-139.728"/>
</g>
<!-- Node26&#45;&gt;Node2 -->
<g id="edge58" class="edge"><title>Node26&#45;&gt;Node2</title>
<path fill="none" stroke="midnightblue" d="M203.606,-112.368C194.446,-94.376 173.153,-52.5503 160.974,-28.6267"/>
<polygon fill="midnightblue" stroke="midnightblue" points="164.03,-26.9152 156.374,-19.5914 157.792,-30.091 164.03,-26.9152"/>
</g>
<!-- Node26&#45;&gt;Node3 -->
<g id="edge59" class="edge"><title>Node26&#45;&gt;Node3</title>
<path fill="none" stroke="midnightblue" d="M216.379,-112.367C231.124,-97.8047 263.348,-68.7054 297,-56 375.496,-26.3639 621.364,-15.7433 732.938,-12.3826"/>
<polygon fill="midnightblue" stroke="midnightblue" points="733.093,-15.8797 742.986,-12.0887 732.888,-8.88267 733.093,-15.8797"/>
</g>
<!-- Node26&#45;&gt;Node6 -->
<g id="edge60" class="edge"><title>Node26&#45;&gt;Node6</title>
<path fill="none" stroke="midnightblue" d="M228.916,-112.444C250.736,-103.517 285.15,-89.4387 309.892,-79.3168"/>
<polygon fill="midnightblue" stroke="midnightblue" points="311.252,-82.5422 319.182,-75.5164 308.601,-76.0634 311.252,-82.5422"/>
</g>
</g>
</svg>
        <g id="navigator" transform="translate(0 0)" fill="#404254">
                <rect fill="#f2f5e9" fill-opacity="0.5" stroke="#606060" stroke-width=".5" x="0" y="0" width="60" height="60"/>
                <use id="zoomplus" xlink:href="#zoomPlus" x="17" y="9" onmousedown="handleZoom(evt,'in')"/>
                <use id="zoomminus" xlink:href="#zoomMin" x="42" y="9" onmousedown="handleZoom(evt,'out')"/>
                <use id="reset" xlink:href="#resetDef" x="30" y="36" onmousedown="handleReset()"/>
                <g id="arrowUp" xlink:href="#dirArrow" transform="translate(30 24)" onmousedown="handlePan(0,-1)">
                  <use xlink:href="#rim" fill="#404040">
                        <set attributeName="fill" to="#808080" begin="arrowUp.mouseover" end="arrowUp.mouseout"/>
                  </use>
                  <path fill="none" stroke="white" stroke-width="1.5" d="M0,-3.0v7 M-2.5,-0.5L0,-3.0L2.5,-0.5"/>
                </g>
                <g id="arrowRight" xlink:href="#dirArrow" transform="rotate(90) translate(36 -43)" onmousedown="handlePan(1,0)">
                  <use xlink:href="#rim" fill="#404040">
                        <set attributeName="fill" to="#808080" begin="arrowRight.mouseover" end="arrowRight.mouseout"/>
                  </use>
                  <path fill="none" stroke="white" stroke-width="1.5" d="M0,-3.0v7 M-2.5,-0.5L0,-3.0L2.5,-0.5"/>
                </g>
                <g id="arrowDown" xlink:href="#dirArrow" transform="rotate(180) translate(-30 -48)" onmousedown="handlePan(0,1)">
                  <use xlink:href="#rim" fill="#404040">
                        <set attributeName="fill" to="#808080" begin="arrowDown.mouseover" end="arrowDown.mouseout"/>
                  </use>
                  <path fill="none" stroke="white" stroke-width="1.5" d="M0,-3.0v7 M-2.5,-0.5L0,-3.0L2.5,-0.5"/>
                </g>
                <g id="arrowLeft" xlink:href="#dirArrow" transform="rotate(270) translate(-36 17)" onmousedown="handlePan(-1,0)">
                  <use xlink:href="#rim" fill="#404040">
                        <set attributeName="fill" to="#808080" begin="arrowLeft.mouseover" end="arrowLeft.mouseout"/>
                  </use>
                  <path fill="none" stroke="white" stroke-width="1.5" d="M0,-3.0v7 M-2.5,-0.5L0,-3.0L2.5,-0.5"/>
                </g>
        </g>
        <svg viewBox="0 0 15 15" width="100%" height="30px" preserveAspectRatio="xMaxYMin meet">
         <g id="arrow_out" transform="scale(0.3 0.3)">
          <a xlink:href="columngroup_8hpp__incl_org.svg" target="_base">
           <rect id="button" ry="5" rx="5" y="6" x="6" height="38" width="38"
                fill="#f2f5e9" fill-opacity="0.5" stroke="#606060" stroke-width="1.0"/>
           <path id="arrow"
             d="M 11.500037,31.436501 C 11.940474,20.09759 22.043105,11.32322 32.158766,21.979434 L 37.068811,17.246167 C 37.068811,17.246167 37.088388,32 37.088388,32 L 22.160133,31.978069 C 22.160133,31.978069 26.997745,27.140456 26.997745,27.140456 C 18.528582,18.264221 13.291696,25.230495 11.500037,31.436501 z"
             style="fill:#404040;"/>
          </a>
         </g>
        </svg>
</svg>
