<?xml version="1.0" encoding="UTF-8" standalone="no"?>
<!DOCTYPE svg PUBLIC "-//W3C//DTD SVG 1.1//EN"
 "http://www.w3.org/Graphics/SVG/1.1/DTD/svg11.dtd">
<!-- Generated by graphviz version 2.38.0 (20140413.2041)
 -->
<!-- Title: /home/travis/build/PO&#45;31/QtReports/qtreports/src/converters/convertertohtml.hpp Pages: 1 -->
<svg width="1789pt" height="834pt"
 viewBox="0.00 0.00 1789.00 834.00" xmlns="http://www.w3.org/2000/svg" xmlns:xlink="http://www.w3.org/1999/xlink">
<g id="graph0" class="graph" transform="scale(1 1) rotate(0) translate(4 830)">
<title>/home/travis/build/PO&#45;31/QtReports/qtreports/src/converters/convertertohtml.hpp</title>
<!-- Node1 -->
<g id="node1" class="node"><title>Node1</title>
<polygon fill="#bfbfbf" stroke="black" points="114.5,-784.5 114.5,-825.5 303.5,-825.5 303.5,-784.5 114.5,-784.5"/>
<text text-anchor="start" x="122.5" y="-813.5" font-family="Helvetica,sans-Serif" font-size="10.00">/home/travis/build</text>
<text text-anchor="start" x="122.5" y="-802.5" font-family="Helvetica,sans-Serif" font-size="10.00">/PO&#45;31/QtReports/qtreports</text>
<text text-anchor="middle" x="209" y="-791.5" font-family="Helvetica,sans-Serif" font-size="10.00">/src/converters/convertertohtml.hpp</text>
</g>
<!-- Node2 -->
<g id="node2" class="node"><title>Node2</title>
<polygon fill="none" stroke="#bfbfbf" points="585.5,-0.5 585.5,-19.5 638.5,-19.5 638.5,-0.5 585.5,-0.5"/>
<text text-anchor="middle" x="612" y="-7.5" font-family="Helvetica,sans-Serif" font-size="10.00">QString</text>
</g>
<!-- Node1&#45;&gt;Node2 -->
<g id="edge1" class="edge"><title>Node1&#45;&gt;Node2</title>
<path fill="none" stroke="midnightblue" d="M114.284,-786.751C58.9854,-770.606 0,-740.021 0,-683 0,-683 0,-683 0,-121 0,-62.2062 443.188,-23.8189 575.278,-13.6834"/>
<polygon fill="midnightblue" stroke="midnightblue" points="575.603,-17.1689 585.31,-12.9223 575.073,-10.1889 575.603,-17.1689"/>
</g>
<!-- Node3 -->
<g id="node3" class="node"><title>Node3</title>
<polygon fill="none" stroke="#bfbfbf" points="182.5,-728.5 182.5,-747.5 235.5,-747.5 235.5,-728.5 182.5,-728.5"/>
<text text-anchor="middle" x="209" y="-735.5" font-family="Helvetica,sans-Serif" font-size="10.00">QBuffer</text>
</g>
<!-- Node1&#45;&gt;Node3 -->
<g id="edge2" class="edge"><title>Node1&#45;&gt;Node3</title>
<path fill="none" stroke="midnightblue" d="M209,-784.498C209,-776.065 209,-766.235 209,-757.874"/>
<polygon fill="midnightblue" stroke="midnightblue" points="212.5,-757.652 209,-747.652 205.5,-757.653 212.5,-757.652"/>
</g>
<!-- Node4 -->
<g id="node4" class="node"><title>Node4</title>
<g id="a_node4"><a xlink:href="report_8hpp.html" target="_top" xlink:title="../tags/report.hpp">
<polygon fill="none" stroke="black" points="428,-728.5 428,-747.5 528,-747.5 528,-728.5 428,-728.5"/>
<text text-anchor="middle" x="478" y="-735.5" font-family="Helvetica,sans-Serif" font-size="10.00">../tags/report.hpp</text>
</a>
</g>
</g>
<!-- Node1&#45;&gt;Node4 -->
<g id="edge3" class="edge"><title>Node1&#45;&gt;Node4</title>
<path fill="none" stroke="midnightblue" d="M289.709,-784.498C336.447,-773.204 393.561,-759.403 432.548,-749.983"/>
<polygon fill="midnightblue" stroke="midnightblue" points="433.647,-753.318 442.546,-747.567 432.003,-746.514 433.647,-753.318"/>
</g>
<!-- Node4&#45;&gt;Node2 -->
<g id="edge4" class="edge"><title>Node4&#45;&gt;Node2</title>
<path fill="none" stroke="midnightblue" d="M427.849,-734.337C333.922,-728.834 139.106,-714.783 119,-692 113.118,-685.335 116.555,-680.546 119,-672 199.667,-390.046 303.708,-354.927 468,-112 485.281,-86.4484 484.925,-75.2846 509,-56 528.722,-40.2022 554.846,-28.8726 575.849,-21.5329"/>
<polygon fill="midnightblue" stroke="midnightblue" points="577.021,-24.8317 585.397,-18.344 574.803,-18.1922 577.021,-24.8317"/>
</g>
<!-- Node5 -->
<g id="node5" class="node"><title>Node5</title>
<polygon fill="none" stroke="#bfbfbf" points="697,-112.5 697,-131.5 741,-131.5 741,-112.5 697,-112.5"/>
<text text-anchor="middle" x="719" y="-119.5" font-family="Helvetica,sans-Serif" font-size="10.00">QSize</text>
</g>
<!-- Node4&#45;&gt;Node5 -->
<g id="edge5" class="edge"><title>Node4&#45;&gt;Node5</title>
<path fill="none" stroke="midnightblue" d="M475.438,-728.249C470.251,-709.738 459,-665.179 459,-627 459,-627 459,-627 459,-345 459,-226.198 617.939,-157.459 687.281,-133.123"/>
<polygon fill="midnightblue" stroke="midnightblue" points="688.505,-136.404 696.833,-129.854 686.238,-129.781 688.505,-136.404"/>
</g>
<!-- Node6 -->
<g id="node6" class="node"><title>Node6</title>
<polygon fill="none" stroke="#bfbfbf" points="28,-672.5 28,-691.5 72,-691.5 72,-672.5 28,-672.5"/>
<text text-anchor="middle" x="50" y="-679.5" font-family="Helvetica,sans-Serif" font-size="10.00">QMap</text>
</g>
<!-- Node4&#45;&gt;Node6 -->
<g id="edge6" class="edge"><title>Node4&#45;&gt;Node6</title>
<path fill="none" stroke="midnightblue" d="M427.88,-733.356C353.037,-727.439 207.826,-714.123 86,-692 84.7521,-691.773 83.4832,-691.528 82.2039,-691.269"/>
<polygon fill="midnightblue" stroke="midnightblue" points="82.8926,-687.837 72.3701,-689.073 81.3669,-694.669 82.8926,-687.837"/>
</g>
<!-- Node7 -->
<g id="node7" class="node"><title>Node7</title>
<polygon fill="none" stroke="#bfbfbf" points="603.5,-224.5 603.5,-243.5 658.5,-243.5 658.5,-224.5 603.5,-224.5"/>
<text text-anchor="middle" x="631" y="-231.5" font-family="Helvetica,sans-Serif" font-size="10.00">QVector</text>
</g>
<!-- Node4&#45;&gt;Node7 -->
<g id="edge7" class="edge"><title>Node4&#45;&gt;Node7</title>
<path fill="none" stroke="midnightblue" d="M485.921,-728.152C514.554,-695.221 611,-575.636 611,-459 611,-459 611,-459 611,-345 611,-312.438 619.588,-275.315 625.509,-253.592"/>
<polygon fill="midnightblue" stroke="midnightblue" points="628.942,-254.317 628.303,-243.742 622.207,-252.408 628.942,-254.317"/>
</g>
<!-- Node8 -->
<g id="node8" class="node"><title>Node8</title>
<polygon fill="none" stroke="#bfbfbf" points="1332,-0.5 1332,-19.5 1424,-19.5 1424,-0.5 1332,-0.5"/>
<text text-anchor="middle" x="1378" y="-7.5" font-family="Helvetica,sans-Serif" font-size="10.00">QSharedPointer</text>
</g>
<!-- Node4&#45;&gt;Node8 -->
<g id="edge8" class="edge"><title>Node4&#45;&gt;Node8</title>
<path fill="none" stroke="midnightblue" d="M528.281,-735.439C767.742,-727.68 1781,-691.062 1781,-627 1781,-627 1781,-627 1781,-121 1781,-87.0792 1769.54,-74.3401 1741,-56 1691.48,-24.1703 1523.28,-14.8417 1434.28,-12.1172"/>
<polygon fill="midnightblue" stroke="midnightblue" points="1434.2,-8.61331 1424.1,-11.8237 1433.99,-15.6104 1434.2,-8.61331"/>
</g>
<!-- Node9 -->
<g id="node9" class="node"><title>Node9</title>
<polygon fill="none" stroke="#bfbfbf" points="128,-672.5 128,-691.5 190,-691.5 190,-672.5 128,-672.5"/>
<text text-anchor="middle" x="159" y="-679.5" font-family="Helvetica,sans-Serif" font-size="10.00">QMargins</text>
</g>
<!-- Node4&#45;&gt;Node9 -->
<g id="edge9" class="edge"><title>Node4&#45;&gt;Node9</title>
<path fill="none" stroke="midnightblue" d="M427.942,-729.873C374.054,-721.988 285.599,-708.437 200.256,-692.152"/>
<polygon fill="midnightblue" stroke="midnightblue" points="200.886,-688.709 190.405,-690.257 199.564,-695.583 200.886,-688.709"/>
</g>
<!-- Node10 -->
<g id="node10" class="node"><title>Node10</title>
<polygon fill="none" stroke="#bfbfbf" points="208,-672.5 208,-691.5 264,-691.5 264,-672.5 208,-672.5"/>
<text text-anchor="middle" x="236" y="-679.5" font-family="Helvetica,sans-Serif" font-size="10.00">QPrinter</text>
</g>
<!-- Node4&#45;&gt;Node10 -->
<g id="edge10" class="edge"><title>Node4&#45;&gt;Node10</title>
<path fill="none" stroke="midnightblue" d="M437.269,-728.478C397.768,-720.13 335.892,-706.833 274.179,-692.469"/>
<polygon fill="midnightblue" stroke="midnightblue" points="274.813,-689.023 264.279,-690.155 273.22,-695.839 274.813,-689.023"/>
</g>
<!-- Node11 -->
<g id="node11" class="node"><title>Node11</title>
<polygon fill="none" stroke="#bfbfbf" points="281.5,-672.5 281.5,-691.5 392.5,-691.5 392.5,-672.5 281.5,-672.5"/>
<text text-anchor="middle" x="337" y="-679.5" font-family="Helvetica,sans-Serif" font-size="10.00">QRegularExpression</text>
</g>
<!-- Node4&#45;&gt;Node11 -->
<g id="edge11" class="edge"><title>Node4&#45;&gt;Node11</title>
<path fill="none" stroke="midnightblue" d="M455.658,-728.444C432.247,-719.478 395.264,-705.314 368.81,-695.183"/>
<polygon fill="midnightblue" stroke="midnightblue" points="369.828,-691.824 359.237,-691.516 367.324,-698.361 369.828,-691.824"/>
</g>
<!-- Node12 -->
<g id="node12" class="node"><title>Node12</title>
<g id="a_node12"><a xlink:href="object_8hpp.html" target="_top" xlink:title="object.hpp">
<polygon fill="none" stroke="black" points="578.5,-56.5 578.5,-75.5 645.5,-75.5 645.5,-56.5 578.5,-56.5"/>
<text text-anchor="middle" x="612" y="-63.5" font-family="Helvetica,sans-Serif" font-size="10.00">object.hpp</text>
</a>
</g>
</g>
<!-- Node4&#45;&gt;Node12 -->
<g id="edge12" class="edge"><title>Node4&#45;&gt;Node12</title>
<path fill="none" stroke="midnightblue" d="M473.747,-728.255C469.596,-719.344 463.42,-705.021 460,-692 447.243,-643.425 448.341,-630.111 445,-580 436.113,-446.695 438.777,-411.198 464,-280 478.616,-203.977 459.463,-170.644 510,-112 524.984,-94.6118 547.976,-83.6767 568.339,-76.9474"/>
<polygon fill="midnightblue" stroke="midnightblue" points="569.537,-80.2412 578.078,-73.972 567.492,-73.5466 569.537,-80.2412"/>
</g>
<!-- Node14 -->
<g id="node14" class="node"><title>Node14</title>
<g id="a_node14"><a xlink:href="field_8hpp.html" target="_top" xlink:title="field.hpp">
<polygon fill="none" stroke="black" points="487.5,-280.5 487.5,-299.5 544.5,-299.5 544.5,-280.5 487.5,-280.5"/>
<text text-anchor="middle" x="516" y="-287.5" font-family="Helvetica,sans-Serif" font-size="10.00">field.hpp</text>
</a>
</g>
</g>
<!-- Node4&#45;&gt;Node14 -->
<g id="edge16" class="edge"><title>Node4&#45;&gt;Node14</title>
<path fill="none" stroke="midnightblue" d="M480.562,-728.249C485.749,-709.738 497,-665.179 497,-627 497,-627 497,-627 497,-569 497,-471.094 508.875,-354.244 513.849,-309.592"/>
<polygon fill="midnightblue" stroke="midnightblue" points="517.329,-309.963 514.978,-299.633 510.374,-309.174 517.329,-309.963"/>
</g>
<!-- Node16 -->
<g id="node16" class="node"><title>Node16</title>
<g id="a_node16"><a xlink:href="style_8hpp.html" target="_top" xlink:title="style.hpp">
<polygon fill="none" stroke="black" points="835,-112.5 835,-131.5 895,-131.5 895,-112.5 835,-112.5"/>
<text text-anchor="middle" x="865" y="-119.5" font-family="Helvetica,sans-Serif" font-size="10.00">style.hpp</text>
</a>
</g>
</g>
<!-- Node4&#45;&gt;Node16 -->
<g id="edge23" class="edge"><title>Node4&#45;&gt;Node16</title>
<path fill="none" stroke="midnightblue" d="M491.512,-728.312C504.061,-719.884 522.882,-706.302 537,-692 588.331,-640 578.349,-606.147 635,-560 710.234,-498.716 777.042,-547.275 833,-468 906.19,-364.311 880.473,-197.187 869.167,-141.627"/>
<polygon fill="midnightblue" stroke="midnightblue" points="872.522,-140.578 867.014,-131.527 865.676,-142.037 872.522,-140.578"/>
</g>
<!-- Node18 -->
<g id="node18" class="node"><title>Node18</title>
<g id="a_node18"><a xlink:href="group_8hpp.html" target="_top" xlink:title="group.hpp">
<polygon fill="none" stroke="black" points="628.5,-672.5 628.5,-691.5 693.5,-691.5 693.5,-672.5 628.5,-672.5"/>
<text text-anchor="middle" x="661" y="-679.5" font-family="Helvetica,sans-Serif" font-size="10.00">group.hpp</text>
</a>
</g>
</g>
<!-- Node4&#45;&gt;Node18 -->
<g id="edge28" class="edge"><title>Node4&#45;&gt;Node18</title>
<path fill="none" stroke="midnightblue" d="M506.997,-728.444C538.185,-719.241 587.93,-704.562 622.408,-694.388"/>
<polygon fill="midnightblue" stroke="midnightblue" points="623.538,-697.704 632.139,-691.516 621.557,-690.99 623.538,-697.704"/>
</g>
<!-- Node36 -->
<g id="node36" class="node"><title>Node36</title>
<g id="a_node36"><a xlink:href="title_8hpp.html" target="_top" xlink:title="title.hpp">
<polygon fill="none" stroke="black" points="712,-672.5 712,-691.5 768,-691.5 768,-672.5 712,-672.5"/>
<text text-anchor="middle" x="740" y="-679.5" font-family="Helvetica,sans-Serif" font-size="10.00">title.hpp</text>
</a>
</g>
</g>
<!-- Node4&#45;&gt;Node36 -->
<g id="edge81" class="edge"><title>Node4&#45;&gt;Node36</title>
<path fill="none" stroke="midnightblue" d="M522.719,-728.485C568.001,-719.752 640.001,-705.565 702,-692 702.099,-691.978 702.199,-691.956 702.298,-691.935"/>
<polygon fill="midnightblue" stroke="midnightblue" points="702.817,-695.406 711.803,-689.792 701.278,-688.577 702.817,-695.406"/>
</g>
<!-- Node37 -->
<g id="node37" class="node"><title>Node37</title>
<g id="a_node37"><a xlink:href="detail_8hpp.html" target="_top" xlink:title="detail.hpp">
<polygon fill="none" stroke="black" points="786,-672.5 786,-691.5 850,-691.5 850,-672.5 786,-672.5"/>
<text text-anchor="middle" x="818" y="-679.5" font-family="Helvetica,sans-Serif" font-size="10.00">detail.hpp</text>
</a>
</g>
</g>
<!-- Node4&#45;&gt;Node37 -->
<g id="edge84" class="edge"><title>Node4&#45;&gt;Node37</title>
<path fill="none" stroke="midnightblue" d="M528.164,-730.491C585.667,-722.798 682.955,-709.076 775.956,-692.093"/>
<polygon fill="midnightblue" stroke="midnightblue" points="776.612,-695.532 785.812,-690.278 775.344,-688.647 776.612,-695.532"/>
</g>
<!-- Node38 -->
<g id="node38" class="node"><title>Node38</title>
<g id="a_node38"><a xlink:href="summary_8hpp.html" target="_top" xlink:title="summary.hpp">
<polygon fill="none" stroke="black" points="868,-672.5 868,-691.5 950,-691.5 950,-672.5 868,-672.5"/>
<text text-anchor="middle" x="909" y="-679.5" font-family="Helvetica,sans-Serif" font-size="10.00">summary.hpp</text>
</a>
</g>
</g>
<!-- Node4&#45;&gt;Node38 -->
<g id="edge87" class="edge"><title>Node4&#45;&gt;Node38</title>
<path fill="none" stroke="midnightblue" d="M528.055,-732.064C599.086,-724.844 733.424,-710.397 857.754,-692.108"/>
<polygon fill="midnightblue" stroke="midnightblue" points="858.453,-695.543 867.832,-690.614 857.427,-688.619 858.453,-695.543"/>
</g>
<!-- Node12&#45;&gt;Node2 -->
<g id="edge13" class="edge"><title>Node12&#45;&gt;Node2</title>
<path fill="none" stroke="midnightblue" d="M612,-56.083C612,-49.0059 612,-38.8611 612,-29.9865"/>
<polygon fill="midnightblue" stroke="midnightblue" points="615.5,-29.751 612,-19.7511 608.5,-29.7511 615.5,-29.751"/>
</g>
<!-- Node12&#45;&gt;Node8 -->
<g id="edge15" class="edge"><title>Node12&#45;&gt;Node8</title>
<path fill="none" stroke="midnightblue" d="M645.902,-62.61C765.931,-54.1485 1171.53,-25.5553 1321.58,-14.9776"/>
<polygon fill="midnightblue" stroke="midnightblue" points="1322.2,-18.4423 1331.93,-14.2476 1321.71,-11.4596 1322.2,-18.4423"/>
</g>
<!-- Node13 -->
<g id="node13" class="node"><title>Node13</title>
<polygon fill="none" stroke="#bfbfbf" points="366,-0.5 366,-19.5 424,-19.5 424,-0.5 366,-0.5"/>
<text text-anchor="middle" x="395" y="-7.5" font-family="Helvetica,sans-Serif" font-size="10.00">QVariant</text>
</g>
<!-- Node12&#45;&gt;Node13 -->
<g id="edge14" class="edge"><title>Node12&#45;&gt;Node13</title>
<path fill="none" stroke="midnightblue" d="M578.094,-56.5625C539.083,-46.8548 475.137,-30.942 434.071,-20.7228"/>
<polygon fill="midnightblue" stroke="midnightblue" points="434.702,-17.2731 424.153,-18.2546 433.012,-24.066 434.702,-17.2731"/>
</g>
<!-- Node14&#45;&gt;Node2 -->
<g id="edge19" class="edge"><title>Node14&#45;&gt;Node2</title>
<path fill="none" stroke="midnightblue" d="M511.938,-280.268C508.029,-271.368 502.372,-257.053 500,-244 489.482,-186.113 482.2,-163.852 510,-112 529.735,-75.1916 567.344,-43.2914 590.968,-25.6478"/>
<polygon fill="midnightblue" stroke="midnightblue" points="593.246,-28.3185 599.27,-19.6032 589.126,-22.6594 593.246,-28.3185"/>
</g>
<!-- Node14&#45;&gt;Node7 -->
<g id="edge20" class="edge"><title>Node14&#45;&gt;Node7</title>
<path fill="none" stroke="midnightblue" d="M534.222,-280.444C552.896,-271.675 582.156,-257.935 603.617,-247.858"/>
<polygon fill="midnightblue" stroke="midnightblue" points="605.299,-250.935 612.863,-243.516 602.324,-244.599 605.299,-250.935"/>
</g>
<!-- Node14&#45;&gt;Node8 -->
<g id="edge17" class="edge"><title>Node14&#45;&gt;Node8</title>
<path fill="none" stroke="midnightblue" d="M544.689,-287.552C616.051,-283.575 799.716,-270.947 854,-244 965.318,-188.739 945.959,-103.022 1061,-56 1147.33,-20.7145 1256.66,-12.3512 1321.76,-10.7775"/>
<polygon fill="midnightblue" stroke="midnightblue" points="1321.89,-14.2757 1331.82,-10.5802 1321.75,-7.27709 1321.89,-14.2757"/>
</g>
<!-- Node14&#45;&gt;Node12 -->
<g id="edge22" class="edge"><title>Node14&#45;&gt;Node12</title>
<path fill="none" stroke="midnightblue" d="M513.529,-280.361C506.259,-253.046 487.591,-167.109 523,-112 533.424,-95.7765 551.623,-85.1519 568.86,-78.3253"/>
<polygon fill="midnightblue" stroke="midnightblue" points="570.071,-81.6091 578.281,-74.912 567.687,-75.0277 570.071,-81.6091"/>
</g>
<!-- Node14&#45;&gt;Node13 -->
<g id="edge18" class="edge"><title>Node14&#45;&gt;Node13</title>
<path fill="none" stroke="midnightblue" d="M511.399,-280.467C506.612,-271.485 498.994,-256.888 493,-244 456.294,-165.074 417.636,-68.5761 402.086,-29.1179"/>
<polygon fill="midnightblue" stroke="midnightblue" points="405.247,-27.5919 398.334,-19.5632 398.732,-30.1506 405.247,-27.5919"/>
</g>
<!-- Node15 -->
<g id="node15" class="node"><title>Node15</title>
<polygon fill="none" stroke="#bfbfbf" points="791,-224.5 791,-243.5 845,-243.5 845,-224.5 791,-224.5"/>
<text text-anchor="middle" x="818" y="-231.5" font-family="Helvetica,sans-Serif" font-size="10.00">QImage</text>
</g>
<!-- Node14&#45;&gt;Node15 -->
<g id="edge21" class="edge"><title>Node14&#45;&gt;Node15</title>
<path fill="none" stroke="midnightblue" d="M544.684,-283.871C599.661,-274.041 719.818,-252.556 780.843,-241.644"/>
<polygon fill="midnightblue" stroke="midnightblue" points="781.589,-245.066 790.817,-239.861 780.357,-238.175 781.589,-245.066"/>
</g>
<!-- Node16&#45;&gt;Node2 -->
<g id="edge24" class="edge"><title>Node16&#45;&gt;Node2</title>
<path fill="none" stroke="midnightblue" d="M857.996,-112.378C846.13,-98.3598 820.652,-70.7141 793,-56 746.752,-31.3907 686.668,-19.9135 648.707,-14.799"/>
<polygon fill="midnightblue" stroke="midnightblue" points="648.978,-11.3054 638.617,-13.5195 648.097,-18.2498 648.978,-11.3054"/>
</g>
<!-- Node16&#45;&gt;Node8 -->
<g id="edge26" class="edge"><title>Node16&#45;&gt;Node8</title>
<path fill="none" stroke="midnightblue" d="M881.56,-112.466C909.785,-98.3173 969.372,-70.1622 1023,-56 1126.34,-28.7105 1251.11,-17.7767 1321.84,-13.5401"/>
<polygon fill="midnightblue" stroke="midnightblue" points="1322.09,-17.0315 1331.87,-12.9624 1321.69,-10.043 1322.09,-17.0315"/>
</g>
<!-- Node16&#45;&gt;Node12 -->
<g id="edge27" class="edge"><title>Node16&#45;&gt;Node12</title>
<path fill="none" stroke="midnightblue" d="M834.984,-114.593C790.44,-105.086 706.598,-87.1909 655.378,-76.2586"/>
<polygon fill="midnightblue" stroke="midnightblue" points="656.101,-72.834 645.59,-74.1695 654.639,-79.6798 656.101,-72.834"/>
</g>
<!-- Node17 -->
<g id="node17" class="node"><title>Node17</title>
<polygon fill="none" stroke="#bfbfbf" points="845.5,-56.5 845.5,-75.5 894.5,-75.5 894.5,-56.5 845.5,-56.5"/>
<text text-anchor="middle" x="870" y="-63.5" font-family="Helvetica,sans-Serif" font-size="10.00">QColor</text>
</g>
<!-- Node16&#45;&gt;Node17 -->
<g id="edge25" class="edge"><title>Node16&#45;&gt;Node17</title>
<path fill="none" stroke="midnightblue" d="M865.826,-112.083C866.481,-105.006 867.42,-94.8611 868.242,-85.9865"/>
<polygon fill="midnightblue" stroke="midnightblue" points="871.753,-86.0312 869.19,-75.7511 864.783,-85.3858 871.753,-86.0312"/>
</g>
<!-- Node18&#45;&gt;Node2 -->
<g id="edge29" class="edge"><title>Node18&#45;&gt;Node2</title>
<path fill="none" stroke="midnightblue" d="M654.557,-672.498C625.097,-633.013 502.987,-462.564 464,-300 437.745,-190.527 450.578,-133.744 532,-56 546.126,-42.5124 565.063,-31.6249 580.966,-23.9394"/>
<polygon fill="midnightblue" stroke="midnightblue" points="582.799,-26.9479 590.406,-19.5733 579.861,-20.5945 582.799,-26.9479"/>
</g>
<!-- Node18&#45;&gt;Node8 -->
<g id="edge30" class="edge"><title>Node18&#45;&gt;Node8</title>
<path fill="none" stroke="midnightblue" d="M668.728,-672.29C681.242,-658.64 707.251,-632.107 734,-616 834.355,-555.568 902.426,-610.887 981,-524 1032.77,-466.752 1015.14,-432.553 1025,-356 1038.86,-248.4 953.752,-199.419 1018,-112 1053.99,-63.0334 1229.9,-31.667 1321.81,-18.3487"/>
<polygon fill="midnightblue" stroke="midnightblue" points="1322.38,-21.8036 1331.78,-16.927 1321.39,-14.8737 1322.38,-21.8036"/>
</g>
<!-- Node19 -->
<g id="node19" class="node"><title>Node19</title>
<g id="a_node19"><a xlink:href="section_8hpp.html" target="_top" xlink:title="section.hpp">
<polygon fill="none" stroke="black" points="743,-616.5 743,-635.5 815,-635.5 815,-616.5 743,-616.5"/>
<text text-anchor="middle" x="779" y="-623.5" font-family="Helvetica,sans-Serif" font-size="10.00">section.hpp</text>
</a>
</g>
</g>
<!-- Node18&#45;&gt;Node19 -->
<g id="edge31" class="edge"><title>Node18&#45;&gt;Node19</title>
<path fill="none" stroke="midnightblue" d="M679.697,-672.444C698.944,-663.636 729.152,-649.812 751.2,-639.722"/>
<polygon fill="midnightblue" stroke="midnightblue" points="752.753,-642.86 760.39,-635.516 749.84,-636.495 752.753,-642.86"/>
</g>
<!-- Node19&#45;&gt;Node7 -->
<g id="edge32" class="edge"><title>Node19&#45;&gt;Node7</title>
<path fill="none" stroke="midnightblue" d="M773.807,-616.393C756.946,-588.114 703.092,-495.113 673,-412 652.707,-355.95 639.507,-286.334 633.971,-253.624"/>
<polygon fill="midnightblue" stroke="midnightblue" points="637.412,-252.975 632.334,-243.676 630.505,-254.112 637.412,-252.975"/>
</g>
<!-- Node19&#45;&gt;Node8 -->
<g id="edge33" class="edge"><title>Node19&#45;&gt;Node8</title>
<path fill="none" stroke="midnightblue" d="M815.252,-624.186C977.492,-620.075 1629,-598.375 1629,-515 1629,-515 1629,-515 1629,-121 1629,-36.4814 1508.14,-16.2934 1434.15,-11.8532"/>
<polygon fill="midnightblue" stroke="midnightblue" points="1434.21,-8.35154 1424.04,-11.3261 1433.84,-15.3421 1434.21,-8.35154"/>
</g>
<!-- Node19&#45;&gt;Node12 -->
<g id="edge34" class="edge"><title>Node19&#45;&gt;Node12</title>
<path fill="none" stroke="midnightblue" d="M749.485,-616.472C692.524,-597.999 573,-548.565 573,-459 573,-459 573,-459 573,-345 573,-246.366 597.374,-129.939 607.584,-85.496"/>
<polygon fill="midnightblue" stroke="midnightblue" points="611.033,-86.12 609.903,-75.5855 604.217,-84.5251 611.033,-86.12"/>
</g>
<!-- Node20 -->
<g id="node20" class="node"><title>Node20</title>
<g id="a_node20"><a xlink:href="band_8hpp.html" target="_top" xlink:title="band.hpp">
<polygon fill="none" stroke="black" points="1226,-560.5 1226,-579.5 1288,-579.5 1288,-560.5 1226,-560.5"/>
<text text-anchor="middle" x="1257" y="-567.5" font-family="Helvetica,sans-Serif" font-size="10.00">band.hpp</text>
</a>
</g>
</g>
<!-- Node19&#45;&gt;Node20 -->
<g id="edge35" class="edge"><title>Node19&#45;&gt;Node20</title>
<path fill="none" stroke="midnightblue" d="M815.32,-620.897C902.59,-611.038 1123.65,-586.065 1215.74,-575.661"/>
<polygon fill="midnightblue" stroke="midnightblue" points="1216.25,-579.125 1225.8,-574.525 1215.47,-572.17 1216.25,-579.125"/>
</g>
<!-- Node20&#45;&gt;Node7 -->
<g id="edge36" class="edge"><title>Node20&#45;&gt;Node7</title>
<path fill="none" stroke="midnightblue" d="M1225.96,-564.7C1194.12,-559.19 1144.15,-547.406 1107,-524 1039.92,-481.736 1051.34,-438.336 987,-392 972.647,-381.663 743.402,-283.114 660.568,-247.643"/>
<polygon fill="midnightblue" stroke="midnightblue" points="661.786,-244.357 651.216,-243.64 659.032,-250.793 661.786,-244.357"/>
</g>
<!-- Node20&#45;&gt;Node8 -->
<g id="edge37" class="edge"><title>Node20&#45;&gt;Node8</title>
<path fill="none" stroke="midnightblue" d="M1288.21,-567.786C1336.23,-564.946 1430.29,-555.479 1503,-524 1547.62,-504.683 1591,-507.624 1591,-459 1591,-459 1591,-459 1591,-121 1591,-50.4302 1497.56,-25.0864 1434.45,-16.0172"/>
<polygon fill="midnightblue" stroke="midnightblue" points="1434.59,-12.5049 1424.22,-14.6489 1433.67,-19.4432 1434.59,-12.5049"/>
</g>
<!-- Node21 -->
<g id="node21" class="node"><title>Node21</title>
<g id="a_node21"><a xlink:href="statictext_8hpp.html" target="_top" xlink:title="statictext.hpp">
<polygon fill="none" stroke="black" points="1347.5,-280.5 1347.5,-299.5 1430.5,-299.5 1430.5,-280.5 1347.5,-280.5"/>
<text text-anchor="middle" x="1389" y="-287.5" font-family="Helvetica,sans-Serif" font-size="10.00">statictext.hpp</text>
</a>
</g>
</g>
<!-- Node20&#45;&gt;Node21 -->
<g id="edge38" class="edge"><title>Node20&#45;&gt;Node21</title>
<path fill="none" stroke="midnightblue" d="M1278.28,-560.403C1311.76,-545.299 1373,-510.622 1373,-459 1373,-459 1373,-459 1373,-401 1373,-368.626 1379.87,-331.445 1384.61,-309.659"/>
<polygon fill="midnightblue" stroke="midnightblue" points="1388.05,-310.303 1386.84,-299.777 1381.22,-308.759 1388.05,-310.303"/>
</g>
<!-- Node23 -->
<g id="node23" class="node"><title>Node23</title>
<g id="a_node23"><a xlink:href="widget_8hpp.html" target="_top" xlink:title="widget.hpp">
<polygon fill="none" stroke="black" points="1048,-168.5 1048,-187.5 1116,-187.5 1116,-168.5 1048,-168.5"/>
<text text-anchor="middle" x="1082" y="-175.5" font-family="Helvetica,sans-Serif" font-size="10.00">widget.hpp</text>
</a>
</g>
</g>
<!-- Node20&#45;&gt;Node23 -->
<g id="edge68" class="edge"><title>Node20&#45;&gt;Node23</title>
<path fill="none" stroke="midnightblue" d="M1229.15,-560.478C1189.36,-546.372 1121,-514.117 1121,-459 1121,-459 1121,-459 1121,-401 1121,-324.425 1098.21,-235.204 1087.47,-197.412"/>
<polygon fill="midnightblue" stroke="midnightblue" points="1090.83,-196.413 1084.68,-187.785 1084.11,-198.364 1090.83,-196.413"/>
</g>
<!-- Node26 -->
<g id="node26" class="node"><title>Node26</title>
<g id="a_node26"><a xlink:href="textfield_8hpp.html" target="_top" xlink:title="textfield.hpp">
<polygon fill="none" stroke="black" points="1129,-280.5 1129,-299.5 1205,-299.5 1205,-280.5 1129,-280.5"/>
<text text-anchor="middle" x="1167" y="-287.5" font-family="Helvetica,sans-Serif" font-size="10.00">textfield.hpp</text>
</a>
</g>
</g>
<!-- Node20&#45;&gt;Node26 -->
<g id="edge51" class="edge"><title>Node20&#45;&gt;Node26</title>
<path fill="none" stroke="midnightblue" d="M1247.56,-560.311C1229.75,-542.933 1193,-501.863 1193,-459 1193,-459 1193,-459 1193,-401 1193,-367.929 1181.73,-330.729 1174.03,-309.168"/>
<polygon fill="midnightblue" stroke="midnightblue" points="1177.27,-307.831 1170.51,-299.675 1170.71,-310.268 1177.27,-307.831"/>
</g>
<!-- Node27 -->
<g id="node27" class="node"><title>Node27</title>
<g id="a_node27"><a xlink:href="line_8hpp.html" target="_top" xlink:title="line.hpp">
<polygon fill="none" stroke="black" points="1273,-224.5 1273,-243.5 1327,-243.5 1327,-224.5 1273,-224.5"/>
<text text-anchor="middle" x="1300" y="-231.5" font-family="Helvetica,sans-Serif" font-size="10.00">line.hpp</text>
</a>
</g>
</g>
<!-- Node20&#45;&gt;Node27 -->
<g id="edge55" class="edge"><title>Node20&#45;&gt;Node27</title>
<path fill="none" stroke="midnightblue" d="M1266.15,-560.253C1283.39,-542.77 1319,-501.528 1319,-459 1319,-459 1319,-459 1319,-345 1319,-312.489 1310.84,-275.35 1305.22,-253.61"/>
<polygon fill="midnightblue" stroke="midnightblue" points="1308.54,-252.498 1302.56,-243.751 1301.78,-254.317 1308.54,-252.498"/>
</g>
<!-- Node28 -->
<g id="node28" class="node"><title>Node28</title>
<g id="a_node28"><a xlink:href="rect_8hpp.html" target="_top" xlink:title="rect.hpp">
<polygon fill="none" stroke="black" points="1383,-224.5 1383,-243.5 1439,-243.5 1439,-224.5 1383,-224.5"/>
<text text-anchor="middle" x="1411" y="-231.5" font-family="Helvetica,sans-Serif" font-size="10.00">rect.hpp</text>
</a>
</g>
</g>
<!-- Node20&#45;&gt;Node28 -->
<g id="edge58" class="edge"><title>Node20&#45;&gt;Node28</title>
<path fill="none" stroke="midnightblue" d="M1288.12,-566.242C1344.78,-559.332 1459,-535.869 1459,-459 1459,-459 1459,-459 1459,-345 1459,-309.585 1437.84,-272.707 1423.62,-251.92"/>
<polygon fill="midnightblue" stroke="midnightblue" points="1426.32,-249.684 1417.67,-243.565 1420.62,-253.742 1426.32,-249.684"/>
</g>
<!-- Node29 -->
<g id="node29" class="node"><title>Node29</title>
<g id="a_node29"><a xlink:href="ellipse_8hpp.html" target="_top" xlink:title="ellipse.hpp">
<polygon fill="none" stroke="black" points="1495,-224.5 1495,-243.5 1563,-243.5 1563,-224.5 1495,-224.5"/>
<text text-anchor="middle" x="1529" y="-231.5" font-family="Helvetica,sans-Serif" font-size="10.00">ellipse.hpp</text>
</a>
</g>
</g>
<!-- Node20&#45;&gt;Node29 -->
<g id="edge61" class="edge"><title>Node20&#45;&gt;Node29</title>
<path fill="none" stroke="midnightblue" d="M1288.13,-569.404C1356.36,-568.497 1513,-555.868 1513,-459 1513,-459 1513,-459 1513,-345 1513,-312.626 1519.87,-275.445 1524.61,-253.659"/>
<polygon fill="midnightblue" stroke="midnightblue" points="1528.05,-254.303 1526.84,-243.777 1521.22,-252.759 1528.05,-254.303"/>
</g>
<!-- Node30 -->
<g id="node30" class="node"><title>Node30</title>
<g id="a_node30"><a xlink:href="image_8hpp.html" target="_top" xlink:title="image.hpp">
<polygon fill="none" stroke="black" points="1223,-280.5 1223,-299.5 1291,-299.5 1291,-280.5 1223,-280.5"/>
<text text-anchor="middle" x="1257" y="-287.5" font-family="Helvetica,sans-Serif" font-size="10.00">image.hpp</text>
</a>
</g>
</g>
<!-- Node20&#45;&gt;Node30 -->
<g id="edge64" class="edge"><title>Node20&#45;&gt;Node30</title>
<path fill="none" stroke="midnightblue" d="M1257,-560.442C1257,-541.936 1257,-496.812 1257,-459 1257,-459 1257,-459 1257,-401 1257,-368.948 1257,-331.643 1257,-309.749"/>
<polygon fill="midnightblue" stroke="midnightblue" points="1260.5,-309.558 1257,-299.558 1253.5,-309.558 1260.5,-309.558"/>
</g>
<!-- Node31 -->
<g id="node31" class="node"><title>Node31</title>
<g id="a_node31"><a xlink:href="crosstab_8hpp.html" target="_top" xlink:title="crosstab.hpp">
<polygon fill="none" stroke="black" points="893.5,-504.5 893.5,-523.5 972.5,-523.5 972.5,-504.5 893.5,-504.5"/>
<text text-anchor="middle" x="933" y="-511.5" font-family="Helvetica,sans-Serif" font-size="10.00">crosstab.hpp</text>
</a>
</g>
</g>
<!-- Node20&#45;&gt;Node31 -->
<g id="edge69" class="edge"><title>Node20&#45;&gt;Node31</title>
<path fill="none" stroke="midnightblue" d="M1225.93,-563.822C1169.66,-554.444 1050.45,-534.574 982.729,-523.288"/>
<polygon fill="midnightblue" stroke="midnightblue" points="983.162,-519.812 972.722,-521.62 982.011,-526.717 983.162,-519.812"/>
</g>
<!-- Node21&#45;&gt;Node8 -->
<g id="edge39" class="edge"><title>Node21&#45;&gt;Node8</title>
<path fill="none" stroke="midnightblue" d="M1405.34,-280.437C1418.68,-272.641 1437.06,-259.929 1448,-244 1465.04,-219.19 1467,-209.098 1467,-179 1467,-179 1467,-179 1467,-121 1467,-78.8457 1427.01,-43.7791 1400.64,-25.2392"/>
<polygon fill="midnightblue" stroke="midnightblue" points="1402.54,-22.3003 1392.3,-19.5989 1398.62,-28.0994 1402.54,-22.3003"/>
</g>
<!-- Node22 -->
<g id="node22" class="node"><title>Node22</title>
<g id="a_node22"><a xlink:href="textwidget_8hpp.html" target="_top" xlink:title="textwidget.hpp">
<polygon fill="none" stroke="black" points="1129.5,-224.5 1129.5,-243.5 1216.5,-243.5 1216.5,-224.5 1129.5,-224.5"/>
<text text-anchor="middle" x="1173" y="-231.5" font-family="Helvetica,sans-Serif" font-size="10.00">textwidget.hpp</text>
</a>
</g>
</g>
<!-- Node21&#45;&gt;Node22 -->
<g id="edge40" class="edge"><title>Node21&#45;&gt;Node22</title>
<path fill="none" stroke="midnightblue" d="M1354.77,-280.444C1317.49,-271.122 1257.73,-256.183 1216.99,-245.997"/>
<polygon fill="midnightblue" stroke="midnightblue" points="1217.62,-242.546 1207.07,-243.516 1215.92,-249.337 1217.62,-242.546"/>
</g>
<!-- Node22&#45;&gt;Node2 -->
<g id="edge41" class="edge"><title>Node22&#45;&gt;Node2</title>
<path fill="none" stroke="midnightblue" d="M1173.86,-224.29C1175.51,-202.254 1176.61,-143.78 1146,-112 1076.88,-40.2311 758.305,-18.1363 648.962,-12.6022"/>
<polygon fill="midnightblue" stroke="midnightblue" points="648.91,-9.09563 638.751,-12.1032 648.568,-16.0873 648.91,-9.09563"/>
</g>
<!-- Node22&#45;&gt;Node8 -->
<g id="edge42" class="edge"><title>Node22&#45;&gt;Node8</title>
<path fill="none" stroke="midnightblue" d="M1183.74,-224.37C1193.57,-215.982 1207.92,-202.428 1217,-188 1250.24,-135.159 1221.53,-100.803 1265,-56 1280.74,-39.7766 1303.08,-29.2526 1323.74,-22.4983"/>
<polygon fill="midnightblue" stroke="midnightblue" points="1324.84,-25.8201 1333.4,-19.5652 1322.81,-19.1222 1324.84,-25.8201"/>
</g>
<!-- Node22&#45;&gt;Node23 -->
<g id="edge43" class="edge"><title>Node22&#45;&gt;Node23</title>
<path fill="none" stroke="midnightblue" d="M1158.38,-224.324C1144.05,-215.822 1121.99,-202.729 1105.25,-192.797"/>
<polygon fill="midnightblue" stroke="midnightblue" points="1106.97,-189.748 1096.58,-187.655 1103.4,-195.768 1106.97,-189.748"/>
</g>
<!-- Node23&#45;&gt;Node2 -->
<g id="edge44" class="edge"><title>Node23&#45;&gt;Node2</title>
<path fill="none" stroke="midnightblue" d="M1069.61,-168.405C1030.59,-141.373 912.319,-59.6566 903,-56 816.267,-21.9676 705.538,-13.5846 648.94,-11.5789"/>
<polygon fill="midnightblue" stroke="midnightblue" points="648.795,-8.07295 638.693,-11.2655 648.581,-15.0697 648.795,-8.07295"/>
</g>
<!-- Node23&#45;&gt;Node5 -->
<g id="edge46" class="edge"><title>Node23&#45;&gt;Node5</title>
<path fill="none" stroke="midnightblue" d="M1047.91,-173.538C988.223,-167.205 861.06,-152.493 755,-132 753.719,-131.753 752.416,-131.488 751.101,-131.21"/>
<polygon fill="midnightblue" stroke="midnightblue" points="751.529,-127.718 741.001,-128.901 749.969,-134.542 751.529,-127.718"/>
</g>
<!-- Node23&#45;&gt;Node8 -->
<g id="edge48" class="edge"><title>Node23&#45;&gt;Node8</title>
<path fill="none" stroke="midnightblue" d="M1095.39,-168.386C1108.62,-159.691 1129.25,-145.633 1146,-132 1184.29,-100.837 1184.2,-80.5971 1227,-56 1256.3,-39.1623 1292.48,-28.0961 1322.09,-21.1522"/>
<polygon fill="midnightblue" stroke="midnightblue" points="1322.87,-24.5642 1331.85,-18.9529 1321.33,-17.7352 1322.87,-24.5642"/>
</g>
<!-- Node23&#45;&gt;Node12 -->
<g id="edge50" class="edge"><title>Node23&#45;&gt;Node12</title>
<path fill="none" stroke="midnightblue" d="M1047.78,-172.328C998.422,-165.289 904.566,-150.764 826,-132 761.803,-116.667 688.507,-93.0382 646.501,-78.8904"/>
<polygon fill="midnightblue" stroke="midnightblue" points="647.365,-75.4879 636.771,-75.5942 645.119,-82.1178 647.365,-75.4879"/>
</g>
<!-- Node23&#45;&gt;Node16 -->
<g id="edge49" class="edge"><title>Node23&#45;&gt;Node16</title>
<path fill="none" stroke="midnightblue" d="M1047.62,-168.444C1008.84,-158.793 945.857,-143.121 904.932,-132.937"/>
<polygon fill="midnightblue" stroke="midnightblue" points="905.58,-129.492 895.03,-130.473 903.889,-136.284 905.58,-129.492"/>
</g>
<!-- Node24 -->
<g id="node24" class="node"><title>Node24</title>
<polygon fill="none" stroke="#bfbfbf" points="1089,-112.5 1089,-131.5 1137,-131.5 1137,-112.5 1089,-112.5"/>
<text text-anchor="middle" x="1113" y="-119.5" font-family="Helvetica,sans-Serif" font-size="10.00">QPoint</text>
</g>
<!-- Node23&#45;&gt;Node24 -->
<g id="edge45" class="edge"><title>Node23&#45;&gt;Node24</title>
<path fill="none" stroke="midnightblue" d="M1087.12,-168.083C1091.41,-160.613 1097.66,-149.724 1102.94,-140.52"/>
<polygon fill="midnightblue" stroke="midnightblue" points="1106.03,-142.166 1107.98,-131.751 1099.96,-138.681 1106.03,-142.166"/>
</g>
<!-- Node25 -->
<g id="node25" class="node"><title>Node25</title>
<polygon fill="none" stroke="#bfbfbf" points="1027,-112.5 1027,-131.5 1071,-131.5 1071,-112.5 1027,-112.5"/>
<text text-anchor="middle" x="1049" y="-119.5" font-family="Helvetica,sans-Serif" font-size="10.00">QRect</text>
</g>
<!-- Node23&#45;&gt;Node25 -->
<g id="edge47" class="edge"><title>Node23&#45;&gt;Node25</title>
<path fill="none" stroke="midnightblue" d="M1076.55,-168.083C1071.99,-160.613 1065.33,-149.724 1059.71,-140.52"/>
<polygon fill="midnightblue" stroke="midnightblue" points="1062.55,-138.459 1054.35,-131.751 1056.58,-142.109 1062.55,-138.459"/>
</g>
<!-- Node26&#45;&gt;Node2 -->
<g id="edge52" class="edge"><title>Node26&#45;&gt;Node2</title>
<path fill="none" stroke="midnightblue" d="M1146.73,-280.372C1093.49,-257.555 945.516,-193.168 826,-132 755.249,-95.7897 674.194,-48.234 635.262,-24.9987"/>
<polygon fill="midnightblue" stroke="midnightblue" points="636.682,-21.7694 626.304,-19.6371 633.087,-27.7759 636.682,-21.7694"/>
</g>
<!-- Node26&#45;&gt;Node8 -->
<g id="edge53" class="edge"><title>Node26&#45;&gt;Node8</title>
<path fill="none" stroke="midnightblue" d="M1181.21,-280.361C1193.84,-272.165 1212.23,-258.908 1225,-244 1287.11,-171.468 1269.96,-131.047 1329,-56 1337.62,-45.0475 1349,-34.423 1358.62,-26.2502"/>
<polygon fill="midnightblue" stroke="midnightblue" points="1361.02,-28.811 1366.51,-19.7526 1356.57,-23.4071 1361.02,-28.811"/>
</g>
<!-- Node26&#45;&gt;Node22 -->
<g id="edge54" class="edge"><title>Node26&#45;&gt;Node22</title>
<path fill="none" stroke="midnightblue" d="M1167.99,-280.083C1168.79,-272.927 1169.93,-262.635 1170.92,-253.691"/>
<polygon fill="midnightblue" stroke="midnightblue" points="1174.4,-254.076 1172.03,-243.751 1167.44,-253.303 1174.4,-254.076"/>
</g>
<!-- Node27&#45;&gt;Node8 -->
<g id="edge56" class="edge"><title>Node27&#45;&gt;Node8</title>
<path fill="none" stroke="midnightblue" d="M1300.6,-224.427C1302.72,-198.004 1311.44,-115.982 1341,-56 1346.23,-45.3853 1354.41,-35.0736 1361.75,-27.0052"/>
<polygon fill="midnightblue" stroke="midnightblue" points="1364.29,-29.4068 1368.67,-19.7563 1359.23,-24.5737 1364.29,-29.4068"/>
</g>
<!-- Node27&#45;&gt;Node23 -->
<g id="edge57" class="edge"><title>Node27&#45;&gt;Node23</title>
<path fill="none" stroke="midnightblue" d="M1272.83,-226.27C1236.09,-217.168 1170.11,-200.825 1126.18,-189.944"/>
<polygon fill="midnightblue" stroke="midnightblue" points="1126.89,-186.514 1116.34,-187.507 1125.21,-193.309 1126.89,-186.514"/>
</g>
<!-- Node28&#45;&gt;Node8 -->
<g id="edge59" class="edge"><title>Node28&#45;&gt;Node8</title>
<path fill="none" stroke="midnightblue" d="M1409.71,-224.297C1404.85,-191.633 1387.64,-75.8661 1380.82,-29.9573"/>
<polygon fill="midnightblue" stroke="midnightblue" points="1384.25,-29.2604 1379.32,-19.8837 1377.33,-30.2897 1384.25,-29.2604"/>
</g>
<!-- Node28&#45;&gt;Node23 -->
<g id="edge60" class="edge"><title>Node28&#45;&gt;Node23</title>
<path fill="none" stroke="midnightblue" d="M1382.95,-228.396C1325.67,-218.995 1194.9,-197.531 1126.13,-186.243"/>
<polygon fill="midnightblue" stroke="midnightblue" points="1126.48,-182.755 1116.05,-184.589 1125.35,-189.662 1126.48,-182.755"/>
</g>
<!-- Node29&#45;&gt;Node8 -->
<g id="edge62" class="edge"><title>Node29&#45;&gt;Node8</title>
<path fill="none" stroke="midnightblue" d="M1529.14,-224.436C1529.15,-196.614 1525.51,-107.589 1481,-56 1467.21,-40.0109 1446.67,-29.4984 1427.55,-22.6896"/>
<polygon fill="midnightblue" stroke="midnightblue" points="1428.62,-19.3558 1418.03,-19.5472 1426.43,-26.0035 1428.62,-19.3558"/>
</g>
<!-- Node29&#45;&gt;Node23 -->
<g id="edge63" class="edge"><title>Node29&#45;&gt;Node23</title>
<path fill="none" stroke="midnightblue" d="M1494.67,-228.852C1414.53,-219.172 1215.22,-195.094 1126.19,-184.338"/>
<polygon fill="midnightblue" stroke="midnightblue" points="1126.49,-180.849 1116.14,-183.125 1125.65,-187.799 1126.49,-180.849"/>
</g>
<!-- Node30&#45;&gt;Node8 -->
<g id="edge66" class="edge"><title>Node30&#45;&gt;Node8</title>
<path fill="none" stroke="midnightblue" d="M1282.15,-280.488C1299.64,-273.34 1322.2,-261.463 1336,-244 1354.66,-220.384 1355,-209.098 1355,-179 1355,-179 1355,-179 1355,-121 1355,-88.12 1364.97,-50.8595 1371.78,-29.2353"/>
<polygon fill="midnightblue" stroke="midnightblue" points="1375.11,-30.3032 1374.9,-19.7105 1368.46,-28.1248 1375.11,-30.3032"/>
</g>
<!-- Node30&#45;&gt;Node15 -->
<g id="edge65" class="edge"><title>Node30&#45;&gt;Node15</title>
<path fill="none" stroke="midnightblue" d="M1222.79,-281.539C1219.82,-280.983 1216.86,-280.461 1214,-280 1082.75,-258.854 925.447,-244.101 855.133,-238.056"/>
<polygon fill="midnightblue" stroke="midnightblue" points="855.268,-234.555 845.007,-237.195 854.674,-241.53 855.268,-234.555"/>
</g>
<!-- Node30&#45;&gt;Node22 -->
<g id="edge67" class="edge"><title>Node30&#45;&gt;Node22</title>
<path fill="none" stroke="midnightblue" d="M1243.5,-280.324C1230.4,-271.9 1210.29,-258.971 1194.89,-249.074"/>
<polygon fill="midnightblue" stroke="midnightblue" points="1196.77,-246.118 1186.46,-243.655 1192.98,-252.006 1196.77,-246.118"/>
</g>
<!-- Node31&#45;&gt;Node23 -->
<g id="edge70" class="edge"><title>Node31&#45;&gt;Node23</title>
<path fill="none" stroke="midnightblue" d="M939.115,-504.17C955.043,-480.865 998.416,-415.402 1025,-356 1049.89,-300.382 1069.06,-230.561 1077.42,-197.714"/>
<polygon fill="midnightblue" stroke="midnightblue" points="1080.89,-198.271 1079.91,-187.721 1074.1,-196.575 1080.89,-198.271"/>
</g>
<!-- Node32 -->
<g id="node32" class="node"><title>Node32</title>
<g id="a_node32"><a xlink:href="crosstabgroup_8hpp.html" target="_top" xlink:title="crosstabgroup.hpp">
<polygon fill="none" stroke="black" points="717.5,-448.5 717.5,-467.5 824.5,-467.5 824.5,-448.5 717.5,-448.5"/>
<text text-anchor="middle" x="771" y="-455.5" font-family="Helvetica,sans-Serif" font-size="10.00">crosstabgroup.hpp</text>
</a>
</g>
</g>
<!-- Node31&#45;&gt;Node32 -->
<g id="edge71" class="edge"><title>Node31&#45;&gt;Node32</title>
<path fill="none" stroke="midnightblue" d="M907.331,-504.444C880.077,-495.359 836.816,-480.939 806.349,-470.783"/>
<polygon fill="midnightblue" stroke="midnightblue" points="807.143,-467.358 796.549,-467.516 804.929,-473.999 807.143,-467.358"/>
</g>
<!-- Node35 -->
<g id="node35" class="node"><title>Node35</title>
<g id="a_node35"><a xlink:href="crosstabcell_8hpp.html" target="_top" xlink:title="crosstabcell.hpp">
<polygon fill="none" stroke="black" points="883.5,-392.5 883.5,-411.5 978.5,-411.5 978.5,-392.5 883.5,-392.5"/>
<text text-anchor="middle" x="931" y="-399.5" font-family="Helvetica,sans-Serif" font-size="10.00">crosstabcell.hpp</text>
</a>
</g>
</g>
<!-- Node31&#45;&gt;Node35 -->
<g id="edge78" class="edge"><title>Node31&#45;&gt;Node35</title>
<path fill="none" stroke="midnightblue" d="M932.843,-504.368C932.52,-486.617 931.776,-445.666 931.338,-421.597"/>
<polygon fill="midnightblue" stroke="midnightblue" points="934.838,-421.526 931.156,-411.591 927.839,-421.653 934.838,-421.526"/>
</g>
<!-- Node32&#45;&gt;Node12 -->
<g id="edge72" class="edge"><title>Node32&#45;&gt;Node12</title>
<path fill="none" stroke="midnightblue" d="M752.102,-448.373C737.482,-440.773 717.802,-428.364 706,-412 688.394,-387.589 687,-377.098 687,-347 687,-347 687,-347 687,-289 687,-258.775 680.716,-250.934 667,-224 657.924,-206.178 649.745,-205.465 640,-188 626.971,-164.648 624.179,-158.017 618,-132 614.354,-116.65 612.899,-98.7718 612.331,-85.6552"/>
<polygon fill="midnightblue" stroke="midnightblue" points="615.825,-85.4274 612.026,-75.5373 608.829,-85.638 615.825,-85.4274"/>
</g>
<!-- Node33 -->
<g id="node33" class="node"><title>Node33</title>
<g id="a_node33"><a xlink:href="crosstabheader_8hpp.html" target="_top" xlink:title="crosstabheader.hpp">
<polygon fill="none" stroke="black" points="715,-392.5 715,-411.5 827,-411.5 827,-392.5 715,-392.5"/>
<text text-anchor="middle" x="771" y="-399.5" font-family="Helvetica,sans-Serif" font-size="10.00">crosstabheader.hpp</text>
</a>
</g>
</g>
<!-- Node32&#45;&gt;Node33 -->
<g id="edge73" class="edge"><title>Node32&#45;&gt;Node33</title>
<path fill="none" stroke="midnightblue" d="M771,-448.083C771,-441.006 771,-430.861 771,-421.986"/>
<polygon fill="midnightblue" stroke="midnightblue" points="774.5,-421.751 771,-411.751 767.5,-421.751 774.5,-421.751"/>
</g>
<!-- Node33&#45;&gt;Node12 -->
<g id="edge74" class="edge"><title>Node33&#45;&gt;Node12</title>
<path fill="none" stroke="midnightblue" d="M769.304,-392.469C763.612,-365.475 743.129,-280.386 701,-224 685.461,-203.203 670.171,-209.067 655,-188 632.066,-156.152 620.34,-110.888 615.252,-85.7189"/>
<polygon fill="midnightblue" stroke="midnightblue" points="618.654,-84.8696 613.365,-75.6891 611.775,-86.1638 618.654,-84.8696"/>
</g>
<!-- Node34 -->
<g id="node34" class="node"><title>Node34</title>
<g id="a_node34"><a xlink:href="cellcontents_8hpp.html" target="_top" xlink:title="cellcontents.hpp">
<polygon fill="none" stroke="black" points="921.5,-336.5 921.5,-355.5 1016.5,-355.5 1016.5,-336.5 921.5,-336.5"/>
<text text-anchor="middle" x="969" y="-343.5" font-family="Helvetica,sans-Serif" font-size="10.00">cellcontents.hpp</text>
</a>
</g>
</g>
<!-- Node33&#45;&gt;Node34 -->
<g id="edge75" class="edge"><title>Node33&#45;&gt;Node34</title>
<path fill="none" stroke="midnightblue" d="M802.374,-392.444C836.263,-383.201 890.403,-368.436 927.724,-358.257"/>
<polygon fill="midnightblue" stroke="midnightblue" points="929.046,-361.524 937.773,-355.516 927.205,-354.771 929.046,-361.524"/>
</g>
<!-- Node34&#45;&gt;Node23 -->
<g id="edge76" class="edge"><title>Node34&#45;&gt;Node23</title>
<path fill="none" stroke="midnightblue" d="M974.485,-336.396C987.25,-316.439 1020.07,-265.534 1049,-224 1055.59,-214.543 1063.18,-204.157 1069.42,-195.748"/>
<polygon fill="midnightblue" stroke="midnightblue" points="1072.37,-197.645 1075.55,-187.537 1066.76,-193.458 1072.37,-197.645"/>
</g>
<!-- Node34&#45;&gt;Node26 -->
<g id="edge77" class="edge"><title>Node34&#45;&gt;Node26</title>
<path fill="none" stroke="midnightblue" d="M1000.37,-336.444C1034.26,-327.201 1088.4,-312.436 1125.72,-302.257"/>
<polygon fill="midnightblue" stroke="midnightblue" points="1127.05,-305.524 1135.77,-299.516 1125.2,-298.771 1127.05,-305.524"/>
</g>
<!-- Node35&#45;&gt;Node12 -->
<g id="edge79" class="edge"><title>Node35&#45;&gt;Node12</title>
<path fill="none" stroke="midnightblue" d="M922.794,-392.408C880.136,-347.744 683.516,-141.879 627.145,-82.8567"/>
<polygon fill="midnightblue" stroke="midnightblue" points="629.59,-80.3493 620.152,-75.5351 624.528,-85.1841 629.59,-80.3493"/>
</g>
<!-- Node35&#45;&gt;Node34 -->
<g id="edge80" class="edge"><title>Node35&#45;&gt;Node34</title>
<path fill="none" stroke="midnightblue" d="M937.275,-392.083C942.642,-384.455 950.518,-373.264 957.079,-363.941"/>
<polygon fill="midnightblue" stroke="midnightblue" points="959.949,-365.943 962.842,-355.751 954.225,-361.915 959.949,-365.943"/>
</g>
<!-- Node36&#45;&gt;Node8 -->
<g id="edge82" class="edge"><title>Node36&#45;&gt;Node8</title>
<path fill="none" stroke="midnightblue" d="M768.204,-673.753C771.164,-673.108 774.136,-672.509 777,-672 874.99,-654.593 1667,-670.524 1667,-571 1667,-571 1667,-571 1667,-121 1667,-85.0879 1649.43,-75.0656 1619,-56 1588.91,-37.1489 1495.67,-23.7552 1434.38,-16.7127"/>
<polygon fill="midnightblue" stroke="midnightblue" points="1434.41,-13.1942 1424.08,-15.5544 1433.63,-20.1503 1434.41,-13.1942"/>
</g>
<!-- Node36&#45;&gt;Node19 -->
<g id="edge83" class="edge"><title>Node36&#45;&gt;Node19</title>
<path fill="none" stroke="midnightblue" d="M746.44,-672.083C751.949,-664.455 760.031,-653.264 766.765,-643.941"/>
<polygon fill="midnightblue" stroke="midnightblue" points="769.662,-645.907 772.68,-635.751 763.987,-641.809 769.662,-645.907"/>
</g>
<!-- Node37&#45;&gt;Node8 -->
<g id="edge85" class="edge"><title>Node37&#45;&gt;Node8</title>
<path fill="none" stroke="midnightblue" d="M850.137,-673.397C853.121,-672.857 856.11,-672.378 859,-672 949.65,-660.155 1607.15,-689.892 1681,-636 1705.88,-617.846 1705,-601.795 1705,-571 1705,-571 1705,-571 1705,-121 1705,-90.2048 1704.9,-75.418 1681,-56 1644.11,-26.0335 1511.05,-15.9756 1434.07,-12.634"/>
<polygon fill="midnightblue" stroke="midnightblue" points="1434.19,-9.13613 1424.06,-12.2234 1433.91,-16.1302 1434.19,-9.13613"/>
</g>
<!-- Node37&#45;&gt;Node19 -->
<g id="edge86" class="edge"><title>Node37&#45;&gt;Node19</title>
<path fill="none" stroke="midnightblue" d="M811.56,-672.083C806.051,-664.455 797.969,-653.264 791.235,-643.941"/>
<polygon fill="midnightblue" stroke="midnightblue" points="794.013,-641.809 785.32,-635.751 788.338,-645.907 794.013,-641.809"/>
</g>
<!-- Node38&#45;&gt;Node8 -->
<g id="edge88" class="edge"><title>Node38&#45;&gt;Node8</title>
<path fill="none" stroke="midnightblue" d="M950.179,-681.319C1106.41,-682.178 1656.87,-681.899 1719,-636 1743.77,-617.701 1743,-601.795 1743,-571 1743,-571 1743,-571 1743,-121 1743,-90.2048 1743.06,-75.2234 1719,-56 1676.19,-21.7921 1519.48,-13.5041 1434.2,-11.553"/>
<polygon fill="midnightblue" stroke="midnightblue" points="1434.24,-8.05306 1424.17,-11.3451 1434.1,-15.0516 1434.24,-8.05306"/>
</g>
<!-- Node38&#45;&gt;Node19 -->
<g id="edge89" class="edge"><title>Node38&#45;&gt;Node19</title>
<path fill="none" stroke="midnightblue" d="M888.401,-672.444C867.007,-663.557 833.319,-649.563 808.976,-639.451"/>
<polygon fill="midnightblue" stroke="midnightblue" points="810.08,-636.12 799.503,-635.516 807.395,-642.585 810.08,-636.12"/>
</g>
</g>
</svg>
