<?xml version="1.0" encoding="UTF-8" standalone="no"?>
<!DOCTYPE svg PUBLIC "-//W3C//DTD SVG 1.1//EN"
 "http://www.w3.org/Graphics/SVG/1.1/DTD/svg11.dtd">
<!-- Generated by graphviz version 2.38.0 (20140413.2041)
 -->
<!-- Title: /home/travis/build/PO&#45;31/QtReports/qtreports/src/converters/convertertopdf.hpp Pages: 1 -->
<!--zoomable 610 -->
<svg id="main" version="1.1" xmlns="http://www.w3.org/2000/svg" xmlns:xlink="http://www.w3.org/1999/xlink" xml:space="preserve" onload="init(evt)">
<style type="text/css"><![CDATA[
.edge:hover path { stroke: red; }
.edge:hover polygon { stroke: red; fill: red; }
]]></style>
<script type="text/javascript"><![CDATA[
var edges = document.getElementsByTagName('g');
if (edges && edges.length) {
  for (var i=0;i<edges.length;i++) {
    if (edges[i].id.substr(0,4)=='edge') {
      edges[i].setAttribute('class','edge');
    }
  }
}
]]></script>
        <defs>
                <circle id="rim" cx="0" cy="0" r="7"/>
                <circle id="rim2" cx="0" cy="0" r="3.5"/>
                <g id="zoomPlus">
                        <use xlink:href="#rim" fill="#404040">
                                <set attributeName="fill" to="#808080" begin="zoomplus.mouseover" end="zoomplus.mouseout"/>
                        </use>
                        <path d="M-4,0h8M0,-4v8" fill="none" stroke="white" stroke-width="1.5" pointer-events="none"/>
                </g>
                <g id="zoomMin">
                        <use xlink:href="#rim" fill="#404040">
                                <set attributeName="fill" to="#808080" begin="zoomminus.mouseover" end="zoomminus.mouseout"/>
                        </use>
                        <path d="M-4,0h8" fill="none" stroke="white" stroke-width="1.5" pointer-events="none"/>
                </g>
                <g id="dirArrow">
                        <path fill="none" stroke="white" stroke-width="1.5" d="M0,-3.0v7 M-2.5,-0.5L0,-3.0L2.5,-0.5"/>
                </g>
               <g id="resetDef">
                       <use xlink:href="#rim2" fill="#404040">
                               <set attributeName="fill" to="#808080" begin="reset.mouseover" end="reset.mouseout"/>
                       </use>
               </g>
        </defs>

<script type="text/javascript">
var viewWidth = 1366;
var viewHeight = 610;
var sectionId = 'dynsection-0';
</script>
<script xlink:href="svgpan.js"/>
<svg id="graph" class="graph">
<g id="viewport">
<title>/home/travis/build/PO&#45;31/QtReports/qtreports/src/converters/convertertopdf.hpp</title>
<!-- Node1 -->
<g id="node1" class="node"><title>Node1</title>
<polygon fill="#bfbfbf" stroke="black" points="646,-560.5 646,-601.5 828,-601.5 828,-560.5 646,-560.5"/>
<text text-anchor="start" x="654" y="-589.5" font-family="Helvetica,sans-Serif" font-size="10.00">/home/travis/build</text>
<text text-anchor="start" x="654" y="-578.5" font-family="Helvetica,sans-Serif" font-size="10.00">/PO&#45;31/QtReports/qtreports</text>
<text text-anchor="middle" x="737" y="-567.5" font-family="Helvetica,sans-Serif" font-size="10.00">/src/converters/convertertopdf.hpp</text>
</g>
<!-- Node2 -->
<g id="node2" class="node"><title>Node2</title>
<polygon fill="none" stroke="#bfbfbf" points="244.5,-0.5 244.5,-19.5 297.5,-19.5 297.5,-0.5 244.5,-0.5"/>
<text text-anchor="middle" x="271" y="-7.5" font-family="Helvetica,sans-Serif" font-size="10.00">QString</text>
</g>
<!-- Node1&#45;&gt;Node2 -->
<g id="edge1" class="edge"><title>Node1&#45;&gt;Node2</title>
<path fill="none" stroke="midnightblue" d="M645.843,-578.875C547.938,-573.131 392.636,-550.376 290,-468 204.657,-399.503 259.035,-312.791 323,-224 361.462,-170.61 410.37,-191.247 439,-132 446.939,-115.571 446.409,-71.8138 433,-56 416.912,-37.0262 350.432,-23.3698 307.796,-16.3611"/>
<polygon fill="midnightblue" stroke="midnightblue" points="308.203,-12.8819 297.777,-14.7637 307.101,-19.7946 308.203,-12.8819"/>
</g>
<!-- Node3 -->
<g id="node3" class="node"><title>Node3</title>
<polygon fill="none" stroke="#bfbfbf" points="927,-504.5 927,-523.5 993,-523.5 993,-504.5 927,-504.5"/>
<text text-anchor="middle" x="960" y="-511.5" font-family="Helvetica,sans-Serif" font-size="10.00">QPdfWriter</text>
</g>
<!-- Node1&#45;&gt;Node3 -->
<g id="edge2" class="edge"><title>Node1&#45;&gt;Node3</title>
<path fill="none" stroke="midnightblue" d="M803.907,-560.498C841.994,-549.396 888.391,-535.872 920.657,-526.468"/>
<polygon fill="midnightblue" stroke="midnightblue" points="921.987,-529.726 930.608,-523.567 920.028,-523.005 921.987,-529.726"/>
</g>
<!-- Node4 -->
<g id="node4" class="node"><title>Node4</title>
<g id="a_node4"><a xlink:href="report_8hpp.html" target="_top" xlink:title="../tags/report.hpp">
<polygon fill="none" stroke="black" points="525,-504.5 525,-523.5 625,-523.5 625,-504.5 525,-504.5"/>
<text text-anchor="middle" x="575" y="-511.5" font-family="Helvetica,sans-Serif" font-size="10.00">../tags/report.hpp</text>
</a>
</g>
</g>
<!-- Node1&#45;&gt;Node4 -->
<g id="edge3" class="edge"><title>Node1&#45;&gt;Node4</title>
<path fill="none" stroke="midnightblue" d="M688.395,-560.498C661.646,-549.766 629.255,-536.769 605.952,-527.419"/>
<polygon fill="midnightblue" stroke="midnightblue" points="607.149,-524.128 596.565,-523.652 604.542,-530.625 607.149,-524.128"/>
</g>
<!-- Node19 -->
<g id="node19" class="node"><title>Node19</title>
<g id="a_node19"><a xlink:href="section_8hpp.html" target="_top" xlink:title="section.hpp">
<polygon fill="none" stroke="black" points="824,-392.5 824,-411.5 896,-411.5 896,-392.5 824,-392.5"/>
<text text-anchor="middle" x="860" y="-399.5" font-family="Helvetica,sans-Serif" font-size="10.00">section.hpp</text>
</a>
</g>
</g>
<!-- Node1&#45;&gt;Node19 -->
<g id="edge80" class="edge"><title>Node1&#45;&gt;Node19</title>
<path fill="none" stroke="midnightblue" d="M779.254,-560.353C813.45,-541.877 859.221,-510.669 880,-468 887.488,-452.625 880.1,-433.84 872.272,-420.426"/>
<polygon fill="midnightblue" stroke="midnightblue" points="875.044,-418.264 866.702,-411.733 869.151,-422.041 875.044,-418.264"/>
</g>
<!-- Node4&#45;&gt;Node2 -->
<g id="edge4" class="edge"><title>Node4&#45;&gt;Node2</title>
<path fill="none" stroke="midnightblue" d="M524.708,-513.844C450.63,-513.589 308.771,-507.337 196,-468 99.3383,-434.282 0,-449.374 0,-347 0,-347 0,-347 0,-121 0,-71.0494 160.067,-32.905 234.165,-17.9232"/>
<polygon fill="midnightblue" stroke="midnightblue" points="234.899,-21.346 244.025,-15.9641 233.534,-14.4802 234.899,-21.346"/>
</g>
<!-- Node5 -->
<g id="node5" class="node"><title>Node5</title>
<polygon fill="none" stroke="#bfbfbf" points="1020,-112.5 1020,-131.5 1064,-131.5 1064,-112.5 1020,-112.5"/>
<text text-anchor="middle" x="1042" y="-119.5" font-family="Helvetica,sans-Serif" font-size="10.00">QSize</text>
</g>
<!-- Node4&#45;&gt;Node5 -->
<g id="edge5" class="edge"><title>Node4&#45;&gt;Node5</title>
<path fill="none" stroke="midnightblue" d="M625.298,-513.021C716.12,-512.057 913.012,-505.371 1074,-468 1141.7,-452.285 1180.63,-469.27 1220,-412 1290.17,-309.925 1125.09,-180.625 1063.78,-137.634"/>
<polygon fill="midnightblue" stroke="midnightblue" points="1065.43,-134.515 1055.21,-131.711 1061.45,-140.274 1065.43,-134.515"/>
</g>
<!-- Node6 -->
<g id="node6" class="node"><title>Node6</title>
<polygon fill="none" stroke="#bfbfbf" points="444,-448.5 444,-467.5 488,-467.5 488,-448.5 444,-448.5"/>
<text text-anchor="middle" x="466" y="-455.5" font-family="Helvetica,sans-Serif" font-size="10.00">QMap</text>
</g>
<!-- Node4&#45;&gt;Node6 -->
<g id="edge6" class="edge"><title>Node4&#45;&gt;Node6</title>
<path fill="none" stroke="midnightblue" d="M557.487,-504.324C539.928,-495.625 512.669,-482.12 492.469,-472.113"/>
<polygon fill="midnightblue" stroke="midnightblue" points="493.984,-468.958 483.469,-467.655 490.876,-475.23 493.984,-468.958"/>
</g>
<!-- Node7 -->
<g id="node7" class="node"><title>Node7</title>
<polygon fill="none" stroke="#bfbfbf" points="332.5,-224.5 332.5,-243.5 387.5,-243.5 387.5,-224.5 332.5,-224.5"/>
<text text-anchor="middle" x="360" y="-231.5" font-family="Helvetica,sans-Serif" font-size="10.00">QVector</text>
</g>
<!-- Node4&#45;&gt;Node7 -->
<g id="edge7" class="edge"><title>Node4&#45;&gt;Node7</title>
<path fill="none" stroke="midnightblue" d="M524.814,-508.919C466.739,-503.194 375.882,-490.826 351,-468 328.821,-447.654 332,-433.098 332,-403 332,-403 332,-403 332,-345 332,-311.79 344.134,-274.634 352.427,-253.12"/>
<polygon fill="midnightblue" stroke="midnightblue" points="355.751,-254.233 356.224,-243.649 349.254,-251.628 355.751,-254.233"/>
</g>
<!-- Node8 -->
<g id="node8" class="node"><title>Node8</title>
<polygon fill="none" stroke="#bfbfbf" points="889,-0.5 889,-19.5 981,-19.5 981,-0.5 889,-0.5"/>
<text text-anchor="middle" x="935" y="-7.5" font-family="Helvetica,sans-Serif" font-size="10.00">QSharedPointer</text>
</g>
<!-- Node4&#45;&gt;Node8 -->
<g id="edge8" class="edge"><title>Node4&#45;&gt;Node8</title>
<path fill="none" stroke="midnightblue" d="M625.171,-511.258C797.988,-504.602 1358,-477.299 1358,-403 1358,-403 1358,-403 1358,-121 1358,-84.0042 1338.32,-74.0082 1306,-56 1253.27,-26.6163 1081.18,-16.1736 991.11,-12.6611"/>
<polygon fill="midnightblue" stroke="midnightblue" points="991.197,-9.16204 981.073,-12.2852 990.935,-16.1571 991.197,-9.16204"/>
</g>
<!-- Node9 -->
<g id="node9" class="node"><title>Node9</title>
<polygon fill="none" stroke="#bfbfbf" points="506,-448.5 506,-467.5 568,-467.5 568,-448.5 506,-448.5"/>
<text text-anchor="middle" x="537" y="-455.5" font-family="Helvetica,sans-Serif" font-size="10.00">QMargins</text>
</g>
<!-- Node4&#45;&gt;Node9 -->
<g id="edge9" class="edge"><title>Node4&#45;&gt;Node9</title>
<path fill="none" stroke="midnightblue" d="M568.725,-504.083C563.358,-496.455 555.482,-485.264 548.921,-475.941"/>
<polygon fill="midnightblue" stroke="midnightblue" points="551.775,-473.915 543.158,-467.751 546.051,-477.943 551.775,-473.915"/>
</g>
<!-- Node10 -->
<g id="node10" class="node"><title>Node10</title>
<polygon fill="none" stroke="#bfbfbf" points="586,-448.5 586,-467.5 642,-467.5 642,-448.5 586,-448.5"/>
<text text-anchor="middle" x="614" y="-455.5" font-family="Helvetica,sans-Serif" font-size="10.00">QPrinter</text>
</g>
<!-- Node4&#45;&gt;Node10 -->
<g id="edge10" class="edge"><title>Node4&#45;&gt;Node10</title>
<path fill="none" stroke="midnightblue" d="M581.44,-504.083C586.949,-496.455 595.031,-485.264 601.765,-475.941"/>
<polygon fill="midnightblue" stroke="midnightblue" points="604.662,-477.907 607.68,-467.751 598.987,-473.809 604.662,-477.907"/>
</g>
<!-- Node11 -->
<g id="node11" class="node"><title>Node11</title>
<polygon fill="none" stroke="#bfbfbf" points="659.5,-448.5 659.5,-467.5 770.5,-467.5 770.5,-448.5 659.5,-448.5"/>
<text text-anchor="middle" x="715" y="-455.5" font-family="Helvetica,sans-Serif" font-size="10.00">QRegularExpression</text>
</g>
<!-- Node4&#45;&gt;Node11 -->
<g id="edge11" class="edge"><title>Node4&#45;&gt;Node11</title>
<path fill="none" stroke="midnightblue" d="M597.183,-504.444C620.428,-495.478 657.149,-481.314 683.415,-471.183"/>
<polygon fill="midnightblue" stroke="midnightblue" points="684.85,-474.381 692.92,-467.516 682.331,-467.85 684.85,-474.381"/>
</g>
<!-- Node12 -->
<g id="node12" class="node"><title>Node12</title>
<g id="a_node12"><a xlink:href="object_8hpp.html" target="_top" xlink:title="object.hpp">
<polygon fill="none" stroke="black" points="175.5,-56.5 175.5,-75.5 242.5,-75.5 242.5,-56.5 175.5,-56.5"/>
<text text-anchor="middle" x="209" y="-63.5" font-family="Helvetica,sans-Serif" font-size="10.00">object.hpp</text>
</a>
</g>
</g>
<!-- Node4&#45;&gt;Node12 -->
<g id="edge12" class="edge"><title>Node4&#45;&gt;Node12</title>
<path fill="none" stroke="midnightblue" d="M524.835,-511.85C440.508,-509.053 274.855,-499.589 227,-468 149.036,-416.536 117.07,-372.05 133,-280 146.041,-204.647 183.232,-120.657 200.276,-84.7926"/>
<polygon fill="midnightblue" stroke="midnightblue" points="203.501,-86.1609 204.691,-75.6331 197.196,-83.121 203.501,-86.1609"/>
</g>
<!-- Node14 -->
<g id="node14" class="node"><title>Node14</title>
<g id="a_node14"><a xlink:href="field_8hpp.html" target="_top" xlink:title="field.hpp">
<polygon fill="none" stroke="black" points="142.5,-280.5 142.5,-299.5 199.5,-299.5 199.5,-280.5 142.5,-280.5"/>
<text text-anchor="middle" x="171" y="-287.5" font-family="Helvetica,sans-Serif" font-size="10.00">field.hpp</text>
</a>
</g>
</g>
<!-- Node4&#45;&gt;Node14 -->
<g id="edge16" class="edge"><title>Node4&#45;&gt;Node14</title>
<path fill="none" stroke="midnightblue" d="M524.909,-511.788C445.199,-508.927 294.177,-499.404 252,-468 199.186,-428.676 179.844,-346.678 173.617,-309.745"/>
<polygon fill="midnightblue" stroke="midnightblue" points="177.071,-309.174 172.083,-299.827 170.153,-310.244 177.071,-309.174"/>
</g>
<!-- Node16 -->
<g id="node16" class="node"><title>Node16</title>
<g id="a_node16"><a xlink:href="style_8hpp.html" target="_top" xlink:title="style.hpp">
<polygon fill="none" stroke="black" points="370,-112.5 370,-131.5 430,-131.5 430,-112.5 370,-112.5"/>
<text text-anchor="middle" x="400" y="-119.5" font-family="Helvetica,sans-Serif" font-size="10.00">style.hpp</text>
</a>
</g>
</g>
<!-- Node4&#45;&gt;Node16 -->
<g id="edge23" class="edge"><title>Node4&#45;&gt;Node16</title>
<path fill="none" stroke="midnightblue" d="M524.532,-512.033C473.583,-509.185 393.931,-499.493 333,-468 296.144,-448.95 266,-444.488 266,-403 266,-403 266,-403 266,-289 266,-219.223 338.572,-162.244 376.901,-137.017"/>
<polygon fill="midnightblue" stroke="midnightblue" points="378.871,-139.912 385.405,-131.571 375.096,-134.017 378.871,-139.912"/>
</g>
<!-- Node18 -->
<g id="node18" class="node"><title>Node18</title>
<g id="a_node18"><a xlink:href="group_8hpp.html" target="_top" xlink:title="group.hpp">
<polygon fill="none" stroke="black" points="360.5,-448.5 360.5,-467.5 425.5,-467.5 425.5,-448.5 360.5,-448.5"/>
<text text-anchor="middle" x="393" y="-455.5" font-family="Helvetica,sans-Serif" font-size="10.00">group.hpp</text>
</a>
</g>
</g>
<!-- Node4&#45;&gt;Node18 -->
<g id="edge28" class="edge"><title>Node4&#45;&gt;Node18</title>
<path fill="none" stroke="midnightblue" d="M546.162,-504.444C515.144,-495.241 465.671,-480.562 431.382,-470.388"/>
<polygon fill="midnightblue" stroke="midnightblue" points="432.286,-467.006 421.704,-467.516 430.295,-473.716 432.286,-467.006"/>
</g>
<!-- Node32 -->
<g id="node32" class="node"><title>Node32</title>
<g id="a_node32"><a xlink:href="title_8hpp.html" target="_top" xlink:title="title.hpp">
<polygon fill="none" stroke="black" points="927,-448.5 927,-467.5 983,-467.5 983,-448.5 927,-448.5"/>
<text text-anchor="middle" x="955" y="-455.5" font-family="Helvetica,sans-Serif" font-size="10.00">title.hpp</text>
</a>
</g>
</g>
<!-- Node4&#45;&gt;Node32 -->
<g id="edge71" class="edge"><title>Node4&#45;&gt;Node32</title>
<path fill="none" stroke="midnightblue" d="M625.069,-505.885C701.939,-494.961 847.379,-474.293 916.565,-464.462"/>
<polygon fill="midnightblue" stroke="midnightblue" points="917.19,-467.908 926.598,-463.036 916.205,-460.978 917.19,-467.908"/>
</g>
<!-- Node33 -->
<g id="node33" class="node"><title>Node33</title>
<g id="a_node33"><a xlink:href="detail_8hpp.html" target="_top" xlink:title="detail.hpp">
<polygon fill="none" stroke="black" points="1001,-448.5 1001,-467.5 1065,-467.5 1065,-448.5 1001,-448.5"/>
<text text-anchor="middle" x="1033" y="-455.5" font-family="Helvetica,sans-Serif" font-size="10.00">detail.hpp</text>
</a>
</g>
</g>
<!-- Node4&#45;&gt;Node33 -->
<g id="edge74" class="edge"><title>Node4&#45;&gt;Node33</title>
<path fill="none" stroke="midnightblue" d="M625.304,-509.346C702.066,-503.38 853.19,-490.107 990.941,-468.013"/>
<polygon fill="midnightblue" stroke="midnightblue" points="991.525,-471.464 1000.83,-466.407 990.403,-464.554 991.525,-471.464"/>
</g>
<!-- Node34 -->
<g id="node34" class="node"><title>Node34</title>
<g id="a_node34"><a xlink:href="summary_8hpp.html" target="_top" xlink:title="summary.hpp">
<polygon fill="none" stroke="black" points="789,-448.5 789,-467.5 871,-467.5 871,-448.5 789,-448.5"/>
<text text-anchor="middle" x="830" y="-455.5" font-family="Helvetica,sans-Serif" font-size="10.00">summary.hpp</text>
</a>
</g>
</g>
<!-- Node4&#45;&gt;Node34 -->
<g id="edge77" class="edge"><title>Node4&#45;&gt;Node34</title>
<path fill="none" stroke="midnightblue" d="M615.406,-504.444C659.983,-495.004 731.768,-479.802 779.892,-469.611"/>
<polygon fill="midnightblue" stroke="midnightblue" points="780.726,-473.012 789.784,-467.516 779.275,-466.164 780.726,-473.012"/>
</g>
<!-- Node12&#45;&gt;Node2 -->
<g id="edge13" class="edge"><title>Node12&#45;&gt;Node2</title>
<path fill="none" stroke="midnightblue" d="M218.961,-56.324C228.127,-48.3414 241.937,-36.3128 253.028,-26.6529"/>
<polygon fill="midnightblue" stroke="midnightblue" points="255.615,-29.041 260.857,-19.8339 251.018,-23.7624 255.615,-29.041"/>
</g>
<!-- Node12&#45;&gt;Node8 -->
<g id="edge15" class="edge"><title>Node12&#45;&gt;Node8</title>
<path fill="none" stroke="midnightblue" d="M242.56,-62.5038C357.235,-53.9743 734.36,-25.9236 878.395,-15.2103"/>
<polygon fill="midnightblue" stroke="midnightblue" points="879.05,-18.6713 888.763,-14.4391 878.531,-11.6906 879.05,-18.6713"/>
</g>
<!-- Node13 -->
<g id="node13" class="node"><title>Node13</title>
<polygon fill="none" stroke="#bfbfbf" points="89,-0.5 89,-19.5 147,-19.5 147,-0.5 89,-0.5"/>
<text text-anchor="middle" x="118" y="-7.5" font-family="Helvetica,sans-Serif" font-size="10.00">QVariant</text>
</g>
<!-- Node12&#45;&gt;Node13 -->
<g id="edge14" class="edge"><title>Node12&#45;&gt;Node13</title>
<path fill="none" stroke="midnightblue" d="M194.379,-56.324C180.051,-47.8215 157.987,-34.7288 141.251,-24.7975"/>
<polygon fill="midnightblue" stroke="midnightblue" points="142.97,-21.7478 132.584,-19.6545 139.398,-27.7677 142.97,-21.7478"/>
</g>
<!-- Node14&#45;&gt;Node2 -->
<g id="edge19" class="edge"><title>Node14&#45;&gt;Node2</title>
<path fill="none" stroke="midnightblue" d="M167.66,-280.441C155.559,-247.899 117.222,-129.974 166,-56 181.094,-33.1097 210.508,-21.8188 234.373,-16.2748"/>
<polygon fill="midnightblue" stroke="midnightblue" points="235.123,-19.6937 244.203,-14.2336 233.7,-12.8399 235.123,-19.6937"/>
</g>
<!-- Node14&#45;&gt;Node7 -->
<g id="edge20" class="edge"><title>Node14&#45;&gt;Node7</title>
<path fill="none" stroke="midnightblue" d="M199.705,-280.799C232.553,-271.413 286.457,-256.012 322.575,-245.693"/>
<polygon fill="midnightblue" stroke="midnightblue" points="323.605,-249.039 332.258,-242.926 321.682,-242.308 323.605,-249.039"/>
</g>
<!-- Node14&#45;&gt;Node8 -->
<g id="edge17" class="edge"><title>Node14&#45;&gt;Node8</title>
<path fill="none" stroke="midnightblue" d="M185.563,-280.493C254.478,-240.293 546.352,-70.7107 591,-56 688.807,-23.7741 809.409,-14.5213 878.732,-11.93"/>
<polygon fill="midnightblue" stroke="midnightblue" points="879.117,-15.419 888.993,-11.5813 878.879,-8.42302 879.117,-15.419"/>
</g>
<!-- Node14&#45;&gt;Node12 -->
<g id="edge22" class="edge"><title>Node14&#45;&gt;Node12</title>
<path fill="none" stroke="midnightblue" d="M172.49,-280.297C178.081,-247.633 197.897,-131.866 205.755,-85.9573"/>
<polygon fill="midnightblue" stroke="midnightblue" points="209.242,-86.3309 207.479,-75.8837 202.342,-85.1499 209.242,-86.3309"/>
</g>
<!-- Node14&#45;&gt;Node13 -->
<g id="edge18" class="edge"><title>Node14&#45;&gt;Node13</title>
<path fill="none" stroke="midnightblue" d="M161.918,-280.341C145.628,-264.094 112.024,-227.133 100,-188 82.7694,-131.921 88.9057,-113.608 100,-56 101.79,-46.7047 105.483,-36.8887 109.061,-28.8048"/>
<polygon fill="midnightblue" stroke="midnightblue" points="112.273,-30.1981 113.379,-19.6611 105.944,-27.2089 112.273,-30.1981"/>
</g>
<!-- Node15 -->
<g id="node15" class="node"><title>Node15</title>
<polygon fill="none" stroke="#bfbfbf" points="444,-224.5 444,-243.5 498,-243.5 498,-224.5 444,-224.5"/>
<text text-anchor="middle" x="471" y="-231.5" font-family="Helvetica,sans-Serif" font-size="10.00">QImage</text>
</g>
<!-- Node14&#45;&gt;Node15 -->
<g id="edge21" class="edge"><title>Node14&#45;&gt;Node15</title>
<path fill="none" stroke="midnightblue" d="M199.765,-283.822C254.388,-273.99 373.072,-252.627 433.71,-241.712"/>
<polygon fill="midnightblue" stroke="midnightblue" points="434.406,-245.143 443.628,-239.927 433.166,-238.254 434.406,-245.143"/>
</g>
<!-- Node16&#45;&gt;Node2 -->
<g id="edge24" class="edge"><title>Node16&#45;&gt;Node2</title>
<path fill="none" stroke="midnightblue" d="M389.878,-112.368C368.024,-93.7334 316.188,-49.5324 288.748,-26.1338"/>
<polygon fill="midnightblue" stroke="midnightblue" points="290.956,-23.4167 281.075,-19.5914 286.414,-28.7431 290.956,-23.4167"/>
</g>
<!-- Node16&#45;&gt;Node8 -->
<g id="edge26" class="edge"><title>Node16&#45;&gt;Node8</title>
<path fill="none" stroke="midnightblue" d="M411.342,-112.467C431.171,-98.0553 473.948,-69.1771 515,-56 581.343,-34.7052 780.61,-20.2296 878.912,-14.1828"/>
<polygon fill="midnightblue" stroke="midnightblue" points="879.189,-17.6725 888.958,-13.5725 878.765,-10.6853 879.189,-17.6725"/>
</g>
<!-- Node16&#45;&gt;Node12 -->
<g id="edge27" class="edge"><title>Node16&#45;&gt;Node12</title>
<path fill="none" stroke="midnightblue" d="M369.735,-112.444C337.045,-103.201 284.818,-88.4356 248.817,-78.2572"/>
<polygon fill="midnightblue" stroke="midnightblue" points="249.698,-74.8691 239.123,-75.5164 247.794,-81.6051 249.698,-74.8691"/>
</g>
<!-- Node17 -->
<g id="node17" class="node"><title>Node17</title>
<polygon fill="none" stroke="#bfbfbf" points="375.5,-56.5 375.5,-75.5 424.5,-75.5 424.5,-56.5 375.5,-56.5"/>
<text text-anchor="middle" x="400" y="-63.5" font-family="Helvetica,sans-Serif" font-size="10.00">QColor</text>
</g>
<!-- Node16&#45;&gt;Node17 -->
<g id="edge25" class="edge"><title>Node16&#45;&gt;Node17</title>
<path fill="none" stroke="midnightblue" d="M400,-112.083C400,-105.006 400,-94.8611 400,-85.9865"/>
<polygon fill="midnightblue" stroke="midnightblue" points="403.5,-85.751 400,-75.7511 396.5,-85.7511 403.5,-85.751"/>
</g>
<!-- Node18&#45;&gt;Node2 -->
<g id="edge29" class="edge"><title>Node18&#45;&gt;Node2</title>
<path fill="none" stroke="midnightblue" d="M360.343,-448.607C302.237,-431.704 182.369,-387.482 133,-300 79.5415,-205.27 80.3846,-137.87 152,-56 172.862,-32.1507 207.712,-20.8996 234.321,-15.6164"/>
<polygon fill="midnightblue" stroke="midnightblue" points="235.201,-19.0149 244.43,-13.8125 233.971,-12.1237 235.201,-19.0149"/>
</g>
<!-- Node18&#45;&gt;Node8 -->
<g id="edge30" class="edge"><title>Node18&#45;&gt;Node8</title>
<path fill="none" stroke="midnightblue" d="M397.536,-448.476C426.05,-395.207 581.968,-108.64 664,-56 698.648,-33.7665 809.808,-21.0554 878.528,-15.1346"/>
<polygon fill="midnightblue" stroke="midnightblue" points="879.088,-18.6001 888.76,-14.2761 878.502,-11.6246 879.088,-18.6001"/>
</g>
<!-- Node18&#45;&gt;Node19 -->
<g id="edge31" class="edge"><title>Node18&#45;&gt;Node19</title>
<path fill="none" stroke="midnightblue" d="M425.953,-449.595C429.004,-449.013 432.054,-448.47 435,-448 571.912,-426.145 735.388,-412.22 813.704,-406.292"/>
<polygon fill="midnightblue" stroke="midnightblue" points="814.017,-409.778 823.728,-405.542 813.494,-402.798 814.017,-409.778"/>
</g>
<!-- Node19&#45;&gt;Node7 -->
<g id="edge32" class="edge"><title>Node19&#45;&gt;Node7</title>
<path fill="none" stroke="midnightblue" d="M823.933,-394.609C754.888,-381.701 599.97,-349.468 477,-300 441.948,-285.899 404.223,-263.489 381.361,-249.013"/>
<polygon fill="midnightblue" stroke="midnightblue" points="383.111,-245.977 372.804,-243.524 379.331,-251.869 383.111,-245.977"/>
</g>
<!-- Node19&#45;&gt;Node8 -->
<g id="edge33" class="edge"><title>Node19&#45;&gt;Node8</title>
<path fill="none" stroke="midnightblue" d="M896.237,-395.898C977.655,-383.419 1168,-348.135 1168,-291 1168,-291 1168,-291 1168,-121 1168,-43.1362 1060.28,-20.3028 991.326,-13.6629"/>
<polygon fill="midnightblue" stroke="midnightblue" points="991.3,-10.1474 981.033,-12.7631 990.69,-17.1208 991.3,-10.1474"/>
</g>
<!-- Node19&#45;&gt;Node12 -->
<g id="edge34" class="edge"><title>Node19&#45;&gt;Node12</title>
<path fill="none" stroke="midnightblue" d="M823.887,-393.021C747.631,-375.066 566.413,-326.482 435,-244 351.763,-191.756 262.665,-114.977 226.122,-82.4593"/>
<polygon fill="midnightblue" stroke="midnightblue" points="228.162,-79.5883 218.377,-75.5273 223.494,-84.8043 228.162,-79.5883"/>
</g>
<!-- Node20 -->
<g id="node20" class="node"><title>Node20</title>
<g id="a_node20"><a xlink:href="band_8hpp.html" target="_top" xlink:title="band.hpp">
<polygon fill="none" stroke="black" points="829,-336.5 829,-355.5 891,-355.5 891,-336.5 829,-336.5"/>
<text text-anchor="middle" x="860" y="-343.5" font-family="Helvetica,sans-Serif" font-size="10.00">band.hpp</text>
</a>
</g>
</g>
<!-- Node19&#45;&gt;Node20 -->
<g id="edge35" class="edge"><title>Node19&#45;&gt;Node20</title>
<path fill="none" stroke="midnightblue" d="M860,-392.083C860,-385.006 860,-374.861 860,-365.986"/>
<polygon fill="midnightblue" stroke="midnightblue" points="863.5,-365.751 860,-355.751 856.5,-365.751 863.5,-365.751"/>
</g>
<!-- Node20&#45;&gt;Node7 -->
<g id="edge36" class="edge"><title>Node20&#45;&gt;Node7</title>
<path fill="none" stroke="midnightblue" d="M828.734,-342.431C772.259,-337.361 649.746,-324.384 549,-300 491.662,-286.122 427.123,-262.009 390.237,-247.376"/>
<polygon fill="midnightblue" stroke="midnightblue" points="391.18,-243.983 380.595,-243.516 388.578,-250.482 391.18,-243.983"/>
</g>
<!-- Node20&#45;&gt;Node8 -->
<g id="edge37" class="edge"><title>Node20&#45;&gt;Node8</title>
<path fill="none" stroke="midnightblue" d="M891.236,-339.153C962.309,-324.959 1130,-286.059 1130,-235 1130,-235 1130,-235 1130,-121 1130,-56.8318 1048.91,-29.6795 991.31,-18.4871"/>
<polygon fill="midnightblue" stroke="midnightblue" points="991.679,-14.9966 981.212,-16.6391 990.419,-21.8822 991.679,-14.9966"/>
</g>
<!-- Node21 -->
<g id="node21" class="node"><title>Node21</title>
<g id="a_node21"><a xlink:href="statictext_8hpp.html" target="_top" xlink:title="statictext.hpp">
<polygon fill="none" stroke="black" points="738.5,-280.5 738.5,-299.5 821.5,-299.5 821.5,-280.5 738.5,-280.5"/>
<text text-anchor="middle" x="780" y="-287.5" font-family="Helvetica,sans-Serif" font-size="10.00">statictext.hpp</text>
</a>
</g>
</g>
<!-- Node20&#45;&gt;Node21 -->
<g id="edge38" class="edge"><title>Node20&#45;&gt;Node21</title>
<path fill="none" stroke="midnightblue" d="M847.147,-336.324C834.784,-327.979 815.87,-315.212 801.263,-305.352"/>
<polygon fill="midnightblue" stroke="midnightblue" points="803.068,-302.348 792.821,-299.655 799.152,-308.15 803.068,-302.348"/>
</g>
<!-- Node23 -->
<g id="node23" class="node"><title>Node23</title>
<g id="a_node23"><a xlink:href="widget_8hpp.html" target="_top" xlink:title="widget.hpp">
<polygon fill="none" stroke="black" points="788,-168.5 788,-187.5 856,-187.5 856,-168.5 788,-168.5"/>
<text text-anchor="middle" x="822" y="-175.5" font-family="Helvetica,sans-Serif" font-size="10.00">widget.hpp</text>
</a>
</g>
</g>
<!-- Node20&#45;&gt;Node23 -->
<g id="edge68" class="edge"><title>Node20&#45;&gt;Node23</title>
<path fill="none" stroke="midnightblue" d="M856.359,-336.273C849.332,-319.004 833.979,-279.1 827,-244 823.927,-228.546 822.718,-210.677 822.254,-197.59"/>
<polygon fill="midnightblue" stroke="midnightblue" points="825.751,-197.414 822.01,-187.502 818.753,-197.583 825.751,-197.414"/>
</g>
<!-- Node26 -->
<g id="node26" class="node"><title>Node26</title>
<g id="a_node26"><a xlink:href="textfield_8hpp.html" target="_top" xlink:title="textfield.hpp">
<polygon fill="none" stroke="black" points="558,-280.5 558,-299.5 634,-299.5 634,-280.5 558,-280.5"/>
<text text-anchor="middle" x="596" y="-287.5" font-family="Helvetica,sans-Serif" font-size="10.00">textfield.hpp</text>
</a>
</g>
</g>
<!-- Node20&#45;&gt;Node26 -->
<g id="edge51" class="edge"><title>Node20&#45;&gt;Node26</title>
<path fill="none" stroke="midnightblue" d="M828.94,-338.647C783.354,-329.322 697.93,-311.849 644.165,-300.852"/>
<polygon fill="midnightblue" stroke="midnightblue" points="644.682,-297.385 634.183,-298.81 643.279,-304.243 644.682,-297.385"/>
</g>
<!-- Node27 -->
<g id="node27" class="node"><title>Node27</title>
<g id="a_node27"><a xlink:href="line_8hpp.html" target="_top" xlink:title="line.hpp">
<polygon fill="none" stroke="black" points="1048,-224.5 1048,-243.5 1102,-243.5 1102,-224.5 1048,-224.5"/>
<text text-anchor="middle" x="1075" y="-231.5" font-family="Helvetica,sans-Serif" font-size="10.00">line.hpp</text>
</a>
</g>
</g>
<!-- Node20&#45;&gt;Node27 -->
<g id="edge55" class="edge"><title>Node20&#45;&gt;Node27</title>
<path fill="none" stroke="midnightblue" d="M891.166,-339.085C921.007,-332.531 966.596,-320.139 1002,-300 1024.69,-287.094 1046.47,-266.232 1060.24,-251.633"/>
<polygon fill="midnightblue" stroke="midnightblue" points="1063.18,-253.602 1067.37,-243.869 1058.02,-248.868 1063.18,-253.602"/>
</g>
<!-- Node28 -->
<g id="node28" class="node"><title>Node28</title>
<g id="a_node28"><a xlink:href="rect_8hpp.html" target="_top" xlink:title="rect.hpp">
<polygon fill="none" stroke="black" points="850,-224.5 850,-243.5 906,-243.5 906,-224.5 850,-224.5"/>
<text text-anchor="middle" x="878" y="-231.5" font-family="Helvetica,sans-Serif" font-size="10.00">rect.hpp</text>
</a>
</g>
</g>
<!-- Node20&#45;&gt;Node28 -->
<g id="edge58" class="edge"><title>Node20&#45;&gt;Node28</title>
<path fill="none" stroke="midnightblue" d="M891.207,-341.056C916.125,-336.084 949.504,-324.924 966,-300 982.27,-275.418 946.467,-256.751 915.751,-245.863"/>
<polygon fill="midnightblue" stroke="midnightblue" points="916.624,-242.464 906.03,-242.603 914.399,-249.1 916.624,-242.464"/>
</g>
<!-- Node29 -->
<g id="node29" class="node"><title>Node29</title>
<g id="a_node29"><a xlink:href="ellipse_8hpp.html" target="_top" xlink:title="ellipse.hpp">
<polygon fill="none" stroke="black" points="962,-224.5 962,-243.5 1030,-243.5 1030,-224.5 962,-224.5"/>
<text text-anchor="middle" x="996" y="-231.5" font-family="Helvetica,sans-Serif" font-size="10.00">ellipse.hpp</text>
</a>
</g>
</g>
<!-- Node20&#45;&gt;Node29 -->
<g id="edge61" class="edge"><title>Node20&#45;&gt;Node29</title>
<path fill="none" stroke="midnightblue" d="M891.073,-342.093C919.288,-337.749 959.912,-326.93 983,-300 993.875,-287.315 996.596,-268.111 996.914,-253.863"/>
<polygon fill="midnightblue" stroke="midnightblue" points="1000.41,-253.665 996.764,-243.718 993.413,-253.769 1000.41,-253.665"/>
</g>
<!-- Node30 -->
<g id="node30" class="node"><title>Node30</title>
<g id="a_node30"><a xlink:href="image_8hpp.html" target="_top" xlink:title="image.hpp">
<polygon fill="none" stroke="black" points="652,-280.5 652,-299.5 720,-299.5 720,-280.5 652,-280.5"/>
<text text-anchor="middle" x="686" y="-287.5" font-family="Helvetica,sans-Serif" font-size="10.00">image.hpp</text>
</a>
</g>
</g>
<!-- Node20&#45;&gt;Node30 -->
<g id="edge64" class="edge"><title>Node20&#45;&gt;Node30</title>
<path fill="none" stroke="midnightblue" d="M832.429,-336.444C802.903,-327.28 755.882,-312.688 723.117,-302.519"/>
<polygon fill="midnightblue" stroke="midnightblue" points="724.03,-299.138 713.442,-299.516 721.955,-305.823 724.03,-299.138"/>
</g>
<!-- Node31 -->
<g id="node31" class="node"><title>Node31</title>
<g id="a_node31"><a xlink:href="crosstab_8hpp.html" target="_top" xlink:title="crosstab.hpp">
<polygon fill="none" stroke="black" points="878.5,-280.5 878.5,-299.5 957.5,-299.5 957.5,-280.5 878.5,-280.5"/>
<text text-anchor="middle" x="918" y="-287.5" font-family="Helvetica,sans-Serif" font-size="10.00">crosstab.hpp</text>
</a>
</g>
</g>
<!-- Node20&#45;&gt;Node31 -->
<g id="edge69" class="edge"><title>Node20&#45;&gt;Node31</title>
<path fill="none" stroke="midnightblue" d="M869.319,-336.324C877.893,-328.341 890.812,-316.313 901.188,-306.653"/>
<polygon fill="midnightblue" stroke="midnightblue" points="903.578,-309.21 908.512,-299.834 898.808,-304.086 903.578,-309.21"/>
</g>
<!-- Node21&#45;&gt;Node8 -->
<g id="edge39" class="edge"><title>Node21&#45;&gt;Node8</title>
<path fill="none" stroke="midnightblue" d="M821.686,-286.576C852.343,-282.444 892.448,-271.674 915,-244 966.561,-180.728 949.475,-73.1423 939.761,-29.8604"/>
<polygon fill="midnightblue" stroke="midnightblue" points="943.105,-28.7948 937.387,-19.8752 936.295,-30.4136 943.105,-28.7948"/>
</g>
<!-- Node22 -->
<g id="node22" class="node"><title>Node22</title>
<g id="a_node22"><a xlink:href="textwidget_8hpp.html" target="_top" xlink:title="textwidget.hpp">
<polygon fill="none" stroke="black" points="630.5,-224.5 630.5,-243.5 717.5,-243.5 717.5,-224.5 630.5,-224.5"/>
<text text-anchor="middle" x="674" y="-231.5" font-family="Helvetica,sans-Serif" font-size="10.00">textwidget.hpp</text>
</a>
</g>
</g>
<!-- Node21&#45;&gt;Node22 -->
<g id="edge40" class="edge"><title>Node21&#45;&gt;Node22</title>
<path fill="none" stroke="midnightblue" d="M762.969,-280.324C745.97,-271.664 719.624,-258.242 700.007,-248.249"/>
<polygon fill="midnightblue" stroke="midnightblue" points="701.488,-245.075 690.988,-243.655 698.31,-251.312 701.488,-245.075"/>
</g>
<!-- Node22&#45;&gt;Node2 -->
<g id="edge41" class="edge"><title>Node22&#45;&gt;Node2</title>
<path fill="none" stroke="midnightblue" d="M630.246,-227.49C566.02,-217.617 444.78,-192.027 361,-132 322.485,-104.404 293.447,-55.3541 279.735,-28.9749"/>
<polygon fill="midnightblue" stroke="midnightblue" points="282.723,-27.1275 275.098,-19.7716 276.472,-30.277 282.723,-27.1275"/>
</g>
<!-- Node22&#45;&gt;Node8 -->
<g id="edge42" class="edge"><title>Node22&#45;&gt;Node8</title>
<path fill="none" stroke="midnightblue" d="M672.455,-224.12C668.002,-195.329 658.263,-103.673 705,-56 728.695,-31.8304 818.737,-20.0698 878.88,-14.7975"/>
<polygon fill="midnightblue" stroke="midnightblue" points="879.327,-18.2723 888.999,-13.9464 878.741,-11.2969 879.327,-18.2723"/>
</g>
<!-- Node22&#45;&gt;Node23 -->
<g id="edge43" class="edge"><title>Node22&#45;&gt;Node23</title>
<path fill="none" stroke="midnightblue" d="M697.451,-224.444C722.133,-215.438 761.185,-201.189 788.977,-191.049"/>
<polygon fill="midnightblue" stroke="midnightblue" points="790.464,-194.232 798.659,-187.516 788.065,-187.656 790.464,-194.232"/>
</g>
<!-- Node23&#45;&gt;Node2 -->
<g id="edge44" class="edge"><title>Node23&#45;&gt;Node2</title>
<path fill="none" stroke="midnightblue" d="M803.098,-168.443C754.554,-146.764 621.147,-89.0608 505,-56 436.381,-36.468 354.021,-22.83 307.573,-16.0089"/>
<polygon fill="midnightblue" stroke="midnightblue" points="308.07,-12.5445 297.672,-14.5787 307.069,-19.4726 308.07,-12.5445"/>
</g>
<!-- Node23&#45;&gt;Node5 -->
<g id="edge46" class="edge"><title>Node23&#45;&gt;Node5</title>
<path fill="none" stroke="midnightblue" d="M856.375,-168.562C898.487,-158.226 969.261,-140.854 1010.18,-130.811"/>
<polygon fill="midnightblue" stroke="midnightblue" points="1011.02,-134.208 1019.9,-128.425 1009.35,-127.41 1011.02,-134.208"/>
</g>
<!-- Node23&#45;&gt;Node8 -->
<g id="edge48" class="edge"><title>Node23&#45;&gt;Node8</title>
<path fill="none" stroke="midnightblue" d="M829.844,-168.391C837.679,-159.585 849.842,-145.342 859,-132 880.962,-100.002 880.933,-88.5935 902,-56 908.179,-46.4398 915.638,-36.1755 921.9,-27.8676"/>
<polygon fill="midnightblue" stroke="midnightblue" points="924.816,-29.8165 928.108,-19.7462 919.255,-25.5654 924.816,-29.8165"/>
</g>
<!-- Node23&#45;&gt;Node12 -->
<g id="edge50" class="edge"><title>Node23&#45;&gt;Node12</title>
<path fill="none" stroke="midnightblue" d="M787.839,-177.21C710.536,-176.922 516.802,-171.899 361,-132 314.288,-120.038 263.422,-95.7808 233.972,-80.519"/>
<polygon fill="midnightblue" stroke="midnightblue" points="235.323,-77.275 224.843,-75.7189 232.065,-83.4708 235.323,-77.275"/>
</g>
<!-- Node23&#45;&gt;Node16 -->
<g id="edge49" class="edge"><title>Node23&#45;&gt;Node16</title>
<path fill="none" stroke="midnightblue" d="M787.823,-172.627C710.58,-162.742 522.849,-138.72 440.196,-128.144"/>
<polygon fill="midnightblue" stroke="midnightblue" points="440.548,-124.66 430.185,-126.863 439.66,-131.604 440.548,-124.66"/>
</g>
<!-- Node24 -->
<g id="node24" class="node"><title>Node24</title>
<polygon fill="none" stroke="#bfbfbf" points="740,-112.5 740,-131.5 788,-131.5 788,-112.5 740,-112.5"/>
<text text-anchor="middle" x="764" y="-119.5" font-family="Helvetica,sans-Serif" font-size="10.00">QPoint</text>
</g>
<!-- Node23&#45;&gt;Node24 -->
<g id="edge45" class="edge"><title>Node23&#45;&gt;Node24</title>
<path fill="none" stroke="midnightblue" d="M812.681,-168.324C804.107,-160.341 791.188,-148.313 780.812,-138.653"/>
<polygon fill="midnightblue" stroke="midnightblue" points="783.192,-136.086 773.488,-131.834 778.422,-141.21 783.192,-136.086"/>
</g>
<!-- Node25 -->
<g id="node25" class="node"><title>Node25</title>
<polygon fill="none" stroke="#bfbfbf" points="806,-112.5 806,-131.5 850,-131.5 850,-112.5 806,-112.5"/>
<text text-anchor="middle" x="828" y="-119.5" font-family="Helvetica,sans-Serif" font-size="10.00">QRect</text>
</g>
<!-- Node23&#45;&gt;Node25 -->
<g id="edge47" class="edge"><title>Node23&#45;&gt;Node25</title>
<path fill="none" stroke="midnightblue" d="M822.991,-168.083C823.786,-160.927 824.929,-150.635 825.923,-141.691"/>
<polygon fill="midnightblue" stroke="midnightblue" points="829.402,-142.076 827.028,-131.751 822.445,-141.303 829.402,-142.076"/>
</g>
<!-- Node26&#45;&gt;Node2 -->
<g id="edge52" class="edge"><title>Node26&#45;&gt;Node2</title>
<path fill="none" stroke="midnightblue" d="M585.847,-280.37C569.851,-267.063 537.46,-241.267 507,-224 471.309,-203.768 458.271,-207.173 422,-188 381.346,-166.51 368.836,-163.14 335,-132 311.911,-110.75 306.592,-103.78 292,-76 284.245,-61.2361 278.673,-43.0786 275.226,-29.7109"/>
<polygon fill="midnightblue" stroke="midnightblue" points="278.579,-28.6867 272.829,-19.7882 271.775,-30.3304 278.579,-28.6867"/>
</g>
<!-- Node26&#45;&gt;Node8 -->
<g id="edge53" class="edge"><title>Node26&#45;&gt;Node8</title>
<path fill="none" stroke="midnightblue" d="M596.514,-280.072C599.036,-245.139 613.193,-116.666 687,-56 715.58,-32.5089 814.597,-20.4179 878.536,-14.9157"/>
<polygon fill="midnightblue" stroke="midnightblue" points="879.195,-18.3731 888.871,-14.0572 878.615,-11.3971 879.195,-18.3731"/>
</g>
<!-- Node26&#45;&gt;Node22 -->
<g id="edge54" class="edge"><title>Node26&#45;&gt;Node22</title>
<path fill="none" stroke="midnightblue" d="M608.532,-280.324C620.586,-271.979 639.027,-259.212 653.269,-249.352"/>
<polygon fill="midnightblue" stroke="midnightblue" points="655.269,-252.224 661.499,-243.655 651.285,-246.469 655.269,-252.224"/>
</g>
<!-- Node27&#45;&gt;Node8 -->
<g id="edge56" class="edge"><title>Node27&#45;&gt;Node8</title>
<path fill="none" stroke="midnightblue" d="M1077.3,-224.459C1082.38,-203.767 1092.61,-149.874 1073,-112 1050.45,-68.4466 999.54,-39.0462 966.26,-23.6687"/>
<polygon fill="midnightblue" stroke="midnightblue" points="967.523,-20.3997 956.964,-19.5246 964.673,-26.7932 967.523,-20.3997"/>
</g>
<!-- Node27&#45;&gt;Node23 -->
<g id="edge57" class="edge"><title>Node27&#45;&gt;Node23</title>
<path fill="none" stroke="midnightblue" d="M1047.9,-226.1C1044.9,-225.374 1041.89,-224.66 1039,-224 979.449,-210.387 910.296,-196.351 866.358,-187.652"/>
<polygon fill="midnightblue" stroke="midnightblue" points="866.783,-184.168 856.295,-185.666 865.428,-191.036 866.783,-184.168"/>
</g>
<!-- Node28&#45;&gt;Node8 -->
<g id="edge59" class="edge"><title>Node28&#45;&gt;Node8</title>
<path fill="none" stroke="midnightblue" d="M880.234,-224.297C888.639,-191.563 918.471,-75.3752 930.207,-29.6664"/>
<polygon fill="midnightblue" stroke="midnightblue" points="933.622,-30.44 932.719,-19.8837 926.842,-28.6991 933.622,-30.44"/>
</g>
<!-- Node28&#45;&gt;Node23 -->
<g id="edge60" class="edge"><title>Node28&#45;&gt;Node23</title>
<path fill="none" stroke="midnightblue" d="M869.003,-224.324C860.806,-216.42 848.494,-204.548 838.528,-194.938"/>
<polygon fill="midnightblue" stroke="midnightblue" points="840.789,-192.256 831.161,-187.834 835.93,-197.295 840.789,-192.256"/>
</g>
<!-- Node29&#45;&gt;Node8 -->
<g id="edge62" class="edge"><title>Node29&#45;&gt;Node8</title>
<path fill="none" stroke="midnightblue" d="M996.049,-224.132C995.898,-197.545 993.25,-116.594 968,-56 963.676,-45.6237 956.493,-35.4089 949.93,-27.341"/>
<polygon fill="midnightblue" stroke="midnightblue" points="952.387,-24.8298 943.217,-19.5228 947.076,-29.3899 952.387,-24.8298"/>
</g>
<!-- Node29&#45;&gt;Node23 -->
<g id="edge63" class="edge"><title>Node29&#45;&gt;Node23</title>
<path fill="none" stroke="midnightblue" d="M968.429,-224.444C938.903,-215.28 891.882,-200.688 859.117,-190.519"/>
<polygon fill="midnightblue" stroke="midnightblue" points="860.03,-187.138 849.442,-187.516 857.955,-193.823 860.03,-187.138"/>
</g>
<!-- Node30&#45;&gt;Node8 -->
<g id="edge66" class="edge"><title>Node30&#45;&gt;Node8</title>
<path fill="none" stroke="midnightblue" d="M697.13,-280.374C706.74,-272.186 719.996,-258.935 726,-244 747.899,-189.528 699.098,-161.285 731,-112 763.98,-61.0495 830.807,-34.8814 879.002,-22.0979"/>
<polygon fill="midnightblue" stroke="midnightblue" points="880.151,-25.4177 888.985,-19.5691 878.432,-18.632 880.151,-25.4177"/>
</g>
<!-- Node30&#45;&gt;Node15 -->
<g id="edge65" class="edge"><title>Node30&#45;&gt;Node15</title>
<path fill="none" stroke="midnightblue" d="M651.933,-280.444C612.636,-270.574 548.264,-254.406 507.834,-244.251"/>
<polygon fill="midnightblue" stroke="midnightblue" points="508.652,-240.848 498.101,-241.807 506.947,-247.637 508.652,-240.848"/>
</g>
<!-- Node30&#45;&gt;Node22 -->
<g id="edge67" class="edge"><title>Node30&#45;&gt;Node22</title>
<path fill="none" stroke="midnightblue" d="M684.018,-280.083C682.428,-272.927 680.141,-262.635 678.154,-253.691"/>
<polygon fill="midnightblue" stroke="midnightblue" points="681.531,-252.754 675.945,-243.751 674.697,-254.272 681.531,-252.754"/>
</g>
<!-- Node31&#45;&gt;Node23 -->
<g id="edge70" class="edge"><title>Node31&#45;&gt;Node23</title>
<path fill="none" stroke="midnightblue" d="M893.843,-280.485C876.746,-273.277 854.535,-261.327 841,-244 830.606,-230.694 825.894,-211.862 823.761,-197.891"/>
<polygon fill="midnightblue" stroke="midnightblue" points="827.23,-197.428 822.543,-187.927 820.282,-198.278 827.23,-197.428"/>
</g>
<!-- Node32&#45;&gt;Node8 -->
<g id="edge72" class="edge"><title>Node32&#45;&gt;Node8</title>
<path fill="none" stroke="midnightblue" d="M983.229,-449.881C986.183,-449.212 989.148,-448.571 992,-448 1092.59,-427.86 1141.22,-477.715 1220,-412 1284.01,-358.607 1282,-318.353 1282,-235 1282,-235 1282,-235 1282,-121 1282,-90.2048 1281.99,-75.3101 1258,-56 1218.03,-23.8264 1072.75,-14.6537 991.313,-12.0401"/>
<polygon fill="midnightblue" stroke="midnightblue" points="991.328,-8.53912 981.228,-11.7395 991.119,-15.536 991.328,-8.53912"/>
</g>
<!-- Node32&#45;&gt;Node19 -->
<g id="edge73" class="edge"><title>Node32&#45;&gt;Node19</title>
<path fill="none" stroke="midnightblue" d="M939.737,-448.324C924.779,-439.822 901.745,-426.729 884.273,-416.797"/>
<polygon fill="midnightblue" stroke="midnightblue" points="885.649,-413.553 875.226,-411.655 882.19,-419.639 885.649,-413.553"/>
</g>
<!-- Node33&#45;&gt;Node8 -->
<g id="edge75" class="edge"><title>Node33&#45;&gt;Node8</title>
<path fill="none" stroke="midnightblue" d="M1065.25,-457.308C1109.41,-456.237 1189.51,-448.82 1245,-412 1297.72,-377.019 1320,-354.271 1320,-291 1320,-291 1320,-291 1320,-121 1320,-87.0792 1308.48,-74.4308 1280,-56 1233.46,-25.8812 1076.32,-15.819 991.089,-12.5358"/>
<polygon fill="midnightblue" stroke="midnightblue" points="991.186,-9.03705 981.064,-12.1681 990.929,-16.0323 991.186,-9.03705"/>
</g>
<!-- Node33&#45;&gt;Node19 -->
<g id="edge76" class="edge"><title>Node33&#45;&gt;Node19</title>
<path fill="none" stroke="midnightblue" d="M1005.59,-448.444C976.231,-439.28 929.481,-424.688 896.904,-414.519"/>
<polygon fill="midnightblue" stroke="midnightblue" points="897.873,-411.155 887.284,-411.516 895.787,-417.837 897.873,-411.155"/>
</g>
<!-- Node34&#45;&gt;Node8 -->
<g id="edge78" class="edge"><title>Node34&#45;&gt;Node8</title>
<path fill="none" stroke="midnightblue" d="M871.209,-449.738C975.926,-428.678 1244,-357.347 1244,-179 1244,-179 1244,-179 1244,-121 1244,-73.0886 1201.69,-75.6748 1158,-56 1104.43,-31.8745 1037.83,-20.5923 991.419,-15.3735"/>
<polygon fill="midnightblue" stroke="midnightblue" points="991.565,-11.8694 981.251,-14.2906 990.824,-18.83 991.565,-11.8694"/>
</g>
<!-- Node34&#45;&gt;Node19 -->
<g id="edge79" class="edge"><title>Node34&#45;&gt;Node19</title>
<path fill="none" stroke="midnightblue" d="M834.954,-448.083C839.104,-440.613 845.153,-429.724 850.267,-420.52"/>
<polygon fill="midnightblue" stroke="midnightblue" points="853.341,-422.192 855.138,-411.751 847.222,-418.793 853.341,-422.192"/>
</g>
</g>
</svg>
        <g id="navigator" transform="translate(0 0)" fill="#404254">
                <rect fill="#f2f5e9" fill-opacity="0.5" stroke="#606060" stroke-width=".5" x="0" y="0" width="60" height="60"/>
                <use id="zoomplus" xlink:href="#zoomPlus" x="17" y="9" onmousedown="handleZoom(evt,'in')"/>
                <use id="zoomminus" xlink:href="#zoomMin" x="42" y="9" onmousedown="handleZoom(evt,'out')"/>
                <use id="reset" xlink:href="#resetDef" x="30" y="36" onmousedown="handleReset()"/>
                <g id="arrowUp" xlink:href="#dirArrow" transform="translate(30 24)" onmousedown="handlePan(0,-1)">
                  <use xlink:href="#rim" fill="#404040">
                        <set attributeName="fill" to="#808080" begin="arrowUp.mouseover" end="arrowUp.mouseout"/>
                  </use>
                  <path fill="none" stroke="white" stroke-width="1.5" d="M0,-3.0v7 M-2.5,-0.5L0,-3.0L2.5,-0.5"/>
                </g>
                <g id="arrowRight" xlink:href="#dirArrow" transform="rotate(90) translate(36 -43)" onmousedown="handlePan(1,0)">
                  <use xlink:href="#rim" fill="#404040">
                        <set attributeName="fill" to="#808080" begin="arrowRight.mouseover" end="arrowRight.mouseout"/>
                  </use>
                  <path fill="none" stroke="white" stroke-width="1.5" d="M0,-3.0v7 M-2.5,-0.5L0,-3.0L2.5,-0.5"/>
                </g>
                <g id="arrowDown" xlink:href="#dirArrow" transform="rotate(180) translate(-30 -48)" onmousedown="handlePan(0,1)">
                  <use xlink:href="#rim" fill="#404040">
                        <set attributeName="fill" to="#808080" begin="arrowDown.mouseover" end="arrowDown.mouseout"/>
                  </use>
                  <path fill="none" stroke="white" stroke-width="1.5" d="M0,-3.0v7 M-2.5,-0.5L0,-3.0L2.5,-0.5"/>
                </g>
                <g id="arrowLeft" xlink:href="#dirArrow" transform="rotate(270) translate(-36 17)" onmousedown="handlePan(-1,0)">
                  <use xlink:href="#rim" fill="#404040">
                        <set attributeName="fill" to="#808080" begin="arrowLeft.mouseover" end="arrowLeft.mouseout"/>
                  </use>
                  <path fill="none" stroke="white" stroke-width="1.5" d="M0,-3.0v7 M-2.5,-0.5L0,-3.0L2.5,-0.5"/>
                </g>
        </g>
        <svg viewBox="0 0 15 15" width="100%" height="30px" preserveAspectRatio="xMaxYMin meet">
         <g id="arrow_out" transform="scale(0.3 0.3)">
          <a xlink:href="convertertopdf_8hpp__incl_org.svg" target="_base">
           <rect id="button" ry="5" rx="5" y="6" x="6" height="38" width="38"
                fill="#f2f5e9" fill-opacity="0.5" stroke="#606060" stroke-width="1.0"/>
           <path id="arrow"
             d="M 11.500037,31.436501 C 11.940474,20.09759 22.043105,11.32322 32.158766,21.979434 L 37.068811,17.246167 C 37.068811,17.246167 37.088388,32 37.088388,32 L 22.160133,31.978069 C 22.160133,31.978069 26.997745,27.140456 26.997745,27.140456 C 18.528582,18.264221 13.291696,25.230495 11.500037,31.436501 z"
             style="fill:#404040;"/>
          </a>
         </g>
        </svg>
</svg>
