<?xml version="1.0" encoding="UTF-8" standalone="no"?>
<!DOCTYPE svg PUBLIC "-//W3C//DTD SVG 1.1//EN"
 "http://www.w3.org/Graphics/SVG/1.1/DTD/svg11.dtd">
<!-- Generated by graphviz version 2.38.0 (20140413.2041)
 -->
<!-- Title: /home/travis/build/PO&#45;31/QtReports/qtreports/src/tags/crosstabgroup.hpp Pages: 1 -->
<!--zoomable 498 -->
<svg id="main" version="1.1" xmlns="http://www.w3.org/2000/svg" xmlns:xlink="http://www.w3.org/1999/xlink" xml:space="preserve" onload="init(evt)">
<style type="text/css"><![CDATA[
.edge:hover path { stroke: red; }
.edge:hover polygon { stroke: red; fill: red; }
]]></style>
<script type="text/javascript"><![CDATA[
var edges = document.getElementsByTagName('g');
if (edges && edges.length) {
  for (var i=0;i<edges.length;i++) {
    if (edges[i].id.substr(0,4)=='edge') {
      edges[i].setAttribute('class','edge');
    }
  }
}
]]></script>
        <defs>
                <circle id="rim" cx="0" cy="0" r="7"/>
                <circle id="rim2" cx="0" cy="0" r="3.5"/>
                <g id="zoomPlus">
                        <use xlink:href="#rim" fill="#404040">
                                <set attributeName="fill" to="#808080" begin="zoomplus.mouseover" end="zoomplus.mouseout"/>
                        </use>
                        <path d="M-4,0h8M0,-4v8" fill="none" stroke="white" stroke-width="1.5" pointer-events="none"/>
                </g>
                <g id="zoomMin">
                        <use xlink:href="#rim" fill="#404040">
                                <set attributeName="fill" to="#808080" begin="zoomminus.mouseover" end="zoomminus.mouseout"/>
                        </use>
                        <path d="M-4,0h8" fill="none" stroke="white" stroke-width="1.5" pointer-events="none"/>
                </g>
                <g id="dirArrow">
                        <path fill="none" stroke="white" stroke-width="1.5" d="M0,-3.0v7 M-2.5,-0.5L0,-3.0L2.5,-0.5"/>
                </g>
               <g id="resetDef">
                       <use xlink:href="#rim2" fill="#404040">
                               <set attributeName="fill" to="#808080" begin="reset.mouseover" end="reset.mouseout"/>
                       </use>
               </g>
        </defs>

<script type="text/javascript">
var viewWidth = 651;
var viewHeight = 498;
var sectionId = 'dynsection-0';
</script>
<script xlink:href="svgpan.js"/>
<svg id="graph" class="graph">
<g id="viewport">
<title>/home/travis/build/PO&#45;31/QtReports/qtreports/src/tags/crosstabgroup.hpp</title>
<!-- Node1 -->
<g id="node1" class="node"><title>Node1</title>
<polygon fill="#bfbfbf" stroke="black" points="491.5,-448.5 491.5,-489.5 642.5,-489.5 642.5,-448.5 491.5,-448.5"/>
<text text-anchor="start" x="499.5" y="-477.5" font-family="Helvetica,sans-Serif" font-size="10.00">/home/travis/build</text>
<text text-anchor="start" x="499.5" y="-466.5" font-family="Helvetica,sans-Serif" font-size="10.00">/PO&#45;31/QtReports/qtreports</text>
<text text-anchor="middle" x="567" y="-455.5" font-family="Helvetica,sans-Serif" font-size="10.00">/src/tags/crosstabgroup.hpp</text>
</g>
<!-- Node2 -->
<g id="node2" class="node"><title>Node2</title>
<g id="a_node2"><a xlink:href="object_8hpp.html" target="_top" xlink:title="object.hpp">
<polygon fill="none" stroke="black" points="424.5,-56.5 424.5,-75.5 491.5,-75.5 491.5,-56.5 424.5,-56.5"/>
<text text-anchor="middle" x="458" y="-63.5" font-family="Helvetica,sans-Serif" font-size="10.00">object.hpp</text>
</a>
</g>
</g>
<!-- Node1&#45;&gt;Node2 -->
<g id="edge1" class="edge"><title>Node1&#45;&gt;Node2</title>
<path fill="none" stroke="midnightblue" d="M578.75,-448.213C591.481,-424.86 610,-384.454 610,-347 610,-347 610,-347 610,-177 610,-122.982 546.218,-92.7891 501.287,-78.2219"/>
<polygon fill="midnightblue" stroke="midnightblue" points="502.322,-74.8783 491.734,-75.2644 500.251,-81.5652 502.322,-74.8783"/>
</g>
<!-- Node6 -->
<g id="node6" class="node"><title>Node6</title>
<g id="a_node6"><a xlink:href="crosstabsection_8hpp.html" target="_top" xlink:title="crosstabsection.hpp">
<polygon fill="none" stroke="black" points="468.5,-392.5 468.5,-411.5 581.5,-411.5 581.5,-392.5 468.5,-392.5"/>
<text text-anchor="middle" x="525" y="-399.5" font-family="Helvetica,sans-Serif" font-size="10.00">crosstabsection.hpp</text>
</a>
</g>
</g>
<!-- Node1&#45;&gt;Node6 -->
<g id="edge5" class="edge"><title>Node1&#45;&gt;Node6</title>
<path fill="none" stroke="midnightblue" d="M554.399,-448.498C548.578,-439.49 541.728,-428.888 536.104,-420.185"/>
<polygon fill="midnightblue" stroke="midnightblue" points="538.958,-418.152 530.591,-411.652 533.078,-421.951 538.958,-418.152"/>
</g>
<!-- Node3 -->
<g id="node3" class="node"><title>Node3</title>
<polygon fill="none" stroke="#bfbfbf" points="296.5,-0.5 296.5,-19.5 349.5,-19.5 349.5,-0.5 296.5,-0.5"/>
<text text-anchor="middle" x="323" y="-7.5" font-family="Helvetica,sans-Serif" font-size="10.00">QString</text>
</g>
<!-- Node2&#45;&gt;Node3 -->
<g id="edge2" class="edge"><title>Node2&#45;&gt;Node3</title>
<path fill="none" stroke="midnightblue" d="M436.609,-56.4435C414.293,-47.5171 379.097,-33.4387 353.792,-23.3168"/>
<polygon fill="midnightblue" stroke="midnightblue" points="354.876,-19.9807 344.291,-19.5164 352.276,-26.4801 354.876,-19.9807"/>
</g>
<!-- Node4 -->
<g id="node4" class="node"><title>Node4</title>
<polygon fill="none" stroke="#bfbfbf" points="429,-0.5 429,-19.5 487,-19.5 487,-0.5 429,-0.5"/>
<text text-anchor="middle" x="458" y="-7.5" font-family="Helvetica,sans-Serif" font-size="10.00">QVariant</text>
</g>
<!-- Node2&#45;&gt;Node4 -->
<g id="edge3" class="edge"><title>Node2&#45;&gt;Node4</title>
<path fill="none" stroke="midnightblue" d="M458,-56.083C458,-49.0059 458,-38.8611 458,-29.9865"/>
<polygon fill="midnightblue" stroke="midnightblue" points="461.5,-29.751 458,-19.7511 454.5,-29.7511 461.5,-29.751"/>
</g>
<!-- Node5 -->
<g id="node5" class="node"><title>Node5</title>
<polygon fill="none" stroke="#bfbfbf" points="30,-0.5 30,-19.5 122,-19.5 122,-0.5 30,-0.5"/>
<text text-anchor="middle" x="76" y="-7.5" font-family="Helvetica,sans-Serif" font-size="10.00">QSharedPointer</text>
</g>
<!-- Node2&#45;&gt;Node5 -->
<g id="edge4" class="edge"><title>Node2&#45;&gt;Node5</title>
<path fill="none" stroke="midnightblue" d="M424.435,-60.2552C358.788,-50.9752 212.791,-30.3369 132.176,-18.9411"/>
<polygon fill="midnightblue" stroke="midnightblue" points="132.594,-15.4655 122.203,-17.5313 131.615,-22.3966 132.594,-15.4655"/>
</g>
<!-- Node6&#45;&gt;Node2 -->
<g id="edge6" class="edge"><title>Node6&#45;&gt;Node2</title>
<path fill="none" stroke="midnightblue" d="M531.535,-392.413C544.449,-374.56 572,-331.704 572,-291 572,-291 572,-291 572,-177 572,-130.115 521.448,-96.8944 487.671,-79.9302"/>
<polygon fill="midnightblue" stroke="midnightblue" points="489.172,-76.7687 478.645,-75.5787 486.132,-83.0742 489.172,-76.7687"/>
</g>
<!-- Node7 -->
<g id="node7" class="node"><title>Node7</title>
<g id="a_node7"><a xlink:href="cellcontents_8hpp.html" target="_top" xlink:title="cellcontents.hpp">
<polygon fill="none" stroke="black" points="430.5,-336.5 430.5,-355.5 525.5,-355.5 525.5,-336.5 430.5,-336.5"/>
<text text-anchor="middle" x="478" y="-343.5" font-family="Helvetica,sans-Serif" font-size="10.00">cellcontents.hpp</text>
</a>
</g>
</g>
<!-- Node6&#45;&gt;Node7 -->
<g id="edge7" class="edge"><title>Node6&#45;&gt;Node7</title>
<path fill="none" stroke="midnightblue" d="M517.239,-392.083C510.463,-384.298 500.457,-372.801 492.245,-363.367"/>
<polygon fill="midnightblue" stroke="midnightblue" points="494.822,-360.996 485.617,-355.751 489.542,-365.592 494.822,-360.996"/>
</g>
<!-- Node8 -->
<g id="node8" class="node"><title>Node8</title>
<g id="a_node8"><a xlink:href="box_8hpp.html" target="_top" xlink:title="box.hpp">
<polygon fill="none" stroke="black" points="450.5,-224.5 450.5,-243.5 505.5,-243.5 505.5,-224.5 450.5,-224.5"/>
<text text-anchor="middle" x="478" y="-231.5" font-family="Helvetica,sans-Serif" font-size="10.00">box.hpp</text>
</a>
</g>
</g>
<!-- Node7&#45;&gt;Node8 -->
<g id="edge8" class="edge"><title>Node7&#45;&gt;Node8</title>
<path fill="none" stroke="midnightblue" d="M478,-336.368C478,-318.617 478,-277.666 478,-253.597"/>
<polygon fill="midnightblue" stroke="midnightblue" points="481.5,-253.591 478,-243.591 474.5,-253.591 481.5,-253.591"/>
</g>
<!-- Node9 -->
<g id="node9" class="node"><title>Node9</title>
<g id="a_node9"><a xlink:href="textfield_8hpp.html" target="_top" xlink:title="textfield.hpp">
<polygon fill="none" stroke="black" points="265,-280.5 265,-299.5 341,-299.5 341,-280.5 265,-280.5"/>
<text text-anchor="middle" x="303" y="-287.5" font-family="Helvetica,sans-Serif" font-size="10.00">textfield.hpp</text>
</a>
</g>
</g>
<!-- Node7&#45;&gt;Node9 -->
<g id="edge10" class="edge"><title>Node7&#45;&gt;Node9</title>
<path fill="none" stroke="midnightblue" d="M450.271,-336.444C420.574,-327.28 373.284,-312.688 340.331,-302.519"/>
<polygon fill="midnightblue" stroke="midnightblue" points="341.187,-299.121 330.6,-299.516 339.123,-305.809 341.187,-299.121"/>
</g>
<!-- Node8&#45;&gt;Node2 -->
<g id="edge9" class="edge"><title>Node8&#45;&gt;Node2</title>
<path fill="none" stroke="midnightblue" d="M476.925,-224.075C473.777,-197.945 464.531,-121.211 460.238,-85.577"/>
<polygon fill="midnightblue" stroke="midnightblue" points="463.703,-85.0776 459.032,-75.5681 456.754,-85.915 463.703,-85.0776"/>
</g>
<!-- Node9&#45;&gt;Node3 -->
<g id="edge11" class="edge"><title>Node9&#45;&gt;Node3</title>
<path fill="none" stroke="midnightblue" d="M341.173,-285.475C394.92,-279.761 489.134,-266.76 514,-244 536.296,-223.592 534,-209.225 534,-179 534,-179 534,-179 534,-121 534,-88.3976 525.576,-76.2177 500,-56 459.416,-23.9189 398.665,-14.4519 359.939,-11.8046"/>
<polygon fill="midnightblue" stroke="midnightblue" points="359.817,-8.29225 349.636,-11.2256 359.424,-15.2812 359.817,-8.29225"/>
</g>
<!-- Node9&#45;&gt;Node5 -->
<g id="edge12" class="edge"><title>Node9&#45;&gt;Node5</title>
<path fill="none" stroke="midnightblue" d="M264.932,-283.399C183.552,-270.355 0,-234.754 0,-179 0,-179 0,-179 0,-121 0,-81.2757 33.9641,-45.5045 56.4821,-26.1536"/>
<polygon fill="midnightblue" stroke="midnightblue" points="58.9755,-28.6337 64.4572,-19.5672 54.518,-23.2364 58.9755,-28.6337"/>
</g>
<!-- Node10 -->
<g id="node10" class="node"><title>Node10</title>
<g id="a_node10"><a xlink:href="textwidget_8hpp.html" target="_top" xlink:title="textwidget.hpp">
<polygon fill="none" stroke="black" points="149.5,-224.5 149.5,-243.5 236.5,-243.5 236.5,-224.5 149.5,-224.5"/>
<text text-anchor="middle" x="193" y="-231.5" font-family="Helvetica,sans-Serif" font-size="10.00">textwidget.hpp</text>
</a>
</g>
</g>
<!-- Node9&#45;&gt;Node10 -->
<g id="edge13" class="edge"><title>Node9&#45;&gt;Node10</title>
<path fill="none" stroke="midnightblue" d="M285.327,-280.324C267.606,-271.625 240.097,-258.12 219.712,-248.113"/>
<polygon fill="midnightblue" stroke="midnightblue" points="221.149,-244.919 210.63,-243.655 218.064,-251.203 221.149,-244.919"/>
</g>
<!-- Node10&#45;&gt;Node3 -->
<g id="edge14" class="edge"><title>Node10&#45;&gt;Node3</title>
<path fill="none" stroke="midnightblue" d="M182.698,-224.342C160.11,-204.271 110.01,-153.142 133,-112 164.681,-55.3053 240.958,-29.0343 286.649,-18.0119"/>
<polygon fill="midnightblue" stroke="midnightblue" points="287.492,-21.4096 296.459,-15.7662 285.93,-14.5861 287.492,-21.4096"/>
</g>
<!-- Node10&#45;&gt;Node5 -->
<g id="edge15" class="edge"><title>Node10&#45;&gt;Node5</title>
<path fill="none" stroke="midnightblue" d="M156.609,-224.439C136.729,-217.836 113.479,-206.586 100,-188 65.1602,-139.96 68.9967,-64.8351 73.1547,-29.9635"/>
<polygon fill="midnightblue" stroke="midnightblue" points="76.6603,-30.1547 74.5217,-19.778 69.7225,-29.2235 76.6603,-30.1547"/>
</g>
<!-- Node11 -->
<g id="node11" class="node"><title>Node11</title>
<g id="a_node11"><a xlink:href="widget_8hpp.html" target="_top" xlink:title="widget.hpp">
<polygon fill="none" stroke="black" points="209,-168.5 209,-187.5 277,-187.5 277,-168.5 209,-168.5"/>
<text text-anchor="middle" x="243" y="-175.5" font-family="Helvetica,sans-Serif" font-size="10.00">widget.hpp</text>
</a>
</g>
</g>
<!-- Node10&#45;&gt;Node11 -->
<g id="edge16" class="edge"><title>Node10&#45;&gt;Node11</title>
<path fill="none" stroke="midnightblue" d="M201.256,-224.083C208.465,-216.298 219.11,-204.801 227.846,-195.367"/>
<polygon fill="midnightblue" stroke="midnightblue" points="230.671,-197.467 234.897,-187.751 225.535,-192.711 230.671,-197.467"/>
</g>
<!-- Node11&#45;&gt;Node2 -->
<g id="edge27" class="edge"><title>Node11&#45;&gt;Node2</title>
<path fill="none" stroke="midnightblue" d="M277.28,-173.308C327.062,-167.271 415.948,-153.737 439,-132 451.554,-120.162 455.958,-100.534 457.431,-85.9382"/>
<polygon fill="midnightblue" stroke="midnightblue" points="460.95,-85.7568 458.084,-75.5569 453.963,-85.3176 460.95,-85.7568"/>
</g>
<!-- Node11&#45;&gt;Node3 -->
<g id="edge17" class="edge"><title>Node11&#45;&gt;Node3</title>
<path fill="none" stroke="midnightblue" d="M239.244,-168.202C230.805,-146.942 212.824,-91.8816 236,-56 247.496,-38.2008 268.413,-27.0675 286.856,-20.328"/>
<polygon fill="midnightblue" stroke="midnightblue" points="288.116,-23.597 296.491,-17.1068 285.897,-16.9582 288.116,-23.597"/>
</g>
<!-- Node11&#45;&gt;Node5 -->
<g id="edge21" class="edge"><title>Node11&#45;&gt;Node5</title>
<path fill="none" stroke="midnightblue" d="M208.87,-169.974C185.104,-163.565 154.024,-151.96 133,-132 102.792,-103.321 86.9321,-55.4262 80.144,-29.3239"/>
<polygon fill="midnightblue" stroke="midnightblue" points="83.5407,-28.4795 77.7749,-19.591 76.7393,-30.1351 83.5407,-28.4795"/>
</g>
<!-- Node12 -->
<g id="node12" class="node"><title>Node12</title>
<polygon fill="none" stroke="#bfbfbf" points="320,-112.5 320,-131.5 368,-131.5 368,-112.5 320,-112.5"/>
<text text-anchor="middle" x="344" y="-119.5" font-family="Helvetica,sans-Serif" font-size="10.00">QPoint</text>
</g>
<!-- Node11&#45;&gt;Node12 -->
<g id="edge18" class="edge"><title>Node11&#45;&gt;Node12</title>
<path fill="none" stroke="midnightblue" d="M259.227,-168.324C275.351,-159.703 300.3,-146.364 318.964,-136.386"/>
<polygon fill="midnightblue" stroke="midnightblue" points="320.644,-139.456 327.813,-131.655 317.344,-133.283 320.644,-139.456"/>
</g>
<!-- Node13 -->
<g id="node13" class="node"><title>Node13</title>
<polygon fill="none" stroke="#bfbfbf" points="386,-112.5 386,-131.5 430,-131.5 430,-112.5 386,-112.5"/>
<text text-anchor="middle" x="408" y="-119.5" font-family="Helvetica,sans-Serif" font-size="10.00">QSize</text>
</g>
<!-- Node11&#45;&gt;Node13 -->
<g id="edge19" class="edge"><title>Node11&#45;&gt;Node13</title>
<path fill="none" stroke="midnightblue" d="M269.145,-168.444C298.253,-158.917 345.291,-143.523 376.43,-133.332"/>
<polygon fill="midnightblue" stroke="midnightblue" points="377.523,-136.657 385.938,-130.22 375.345,-130.004 377.523,-136.657"/>
</g>
<!-- Node14 -->
<g id="node14" class="node"><title>Node14</title>
<polygon fill="none" stroke="#bfbfbf" points="142,-112.5 142,-131.5 186,-131.5 186,-112.5 142,-112.5"/>
<text text-anchor="middle" x="164" y="-119.5" font-family="Helvetica,sans-Serif" font-size="10.00">QRect</text>
</g>
<!-- Node11&#45;&gt;Node14 -->
<g id="edge20" class="edge"><title>Node11&#45;&gt;Node14</title>
<path fill="none" stroke="midnightblue" d="M230.307,-168.324C218.099,-159.979 199.422,-147.212 184.997,-137.352"/>
<polygon fill="midnightblue" stroke="midnightblue" points="186.892,-134.408 176.661,-131.655 182.942,-140.187 186.892,-134.408"/>
</g>
<!-- Node15 -->
<g id="node15" class="node"><title>Node15</title>
<g id="a_node15"><a xlink:href="style_8hpp.html" target="_top" xlink:title="style.hpp">
<polygon fill="none" stroke="black" points="242,-112.5 242,-131.5 302,-131.5 302,-112.5 242,-112.5"/>
<text text-anchor="middle" x="272" y="-119.5" font-family="Helvetica,sans-Serif" font-size="10.00">style.hpp</text>
</a>
</g>
</g>
<!-- Node11&#45;&gt;Node15 -->
<g id="edge22" class="edge"><title>Node11&#45;&gt;Node15</title>
<path fill="none" stroke="midnightblue" d="M247.789,-168.083C251.758,-160.691 257.525,-149.953 262.435,-140.811"/>
<polygon fill="midnightblue" stroke="midnightblue" points="265.653,-142.217 267.3,-131.751 259.486,-138.905 265.653,-142.217"/>
</g>
<!-- Node15&#45;&gt;Node2 -->
<g id="edge26" class="edge"><title>Node15&#45;&gt;Node2</title>
<path fill="none" stroke="midnightblue" d="M301.472,-112.444C333.171,-103.241 383.732,-88.5617 418.775,-78.3879"/>
<polygon fill="midnightblue" stroke="midnightblue" points="420.038,-81.6658 428.666,-75.5164 418.086,-74.9434 420.038,-81.6658"/>
</g>
<!-- Node15&#45;&gt;Node3 -->
<g id="edge23" class="edge"><title>Node15&#45;&gt;Node3</title>
<path fill="none" stroke="midnightblue" d="M279.279,-112.197C286.191,-103.471 296.469,-89.4914 303,-76 310.235,-61.0558 315.556,-42.9161 318.883,-29.601"/>
<polygon fill="midnightblue" stroke="midnightblue" points="322.323,-30.2631 321.207,-19.7272 315.509,-28.6593 322.323,-30.2631"/>
</g>
<!-- Node15&#45;&gt;Node5 -->
<g id="edge25" class="edge"><title>Node15&#45;&gt;Node5</title>
<path fill="none" stroke="midnightblue" d="M256.62,-112.368C222.629,-93.2916 140.898,-47.4223 100.064,-24.5054"/>
<polygon fill="midnightblue" stroke="midnightblue" points="101.742,-21.4334 91.3083,-19.5914 98.3159,-27.5378 101.742,-21.4334"/>
</g>
<!-- Node16 -->
<g id="node16" class="node"><title>Node16</title>
<polygon fill="none" stroke="#bfbfbf" points="245.5,-56.5 245.5,-75.5 294.5,-75.5 294.5,-56.5 245.5,-56.5"/>
<text text-anchor="middle" x="270" y="-63.5" font-family="Helvetica,sans-Serif" font-size="10.00">QColor</text>
</g>
<!-- Node15&#45;&gt;Node16 -->
<g id="edge24" class="edge"><title>Node15&#45;&gt;Node16</title>
<path fill="none" stroke="midnightblue" d="M271.67,-112.083C271.408,-105.006 271.032,-94.8611 270.703,-85.9865"/>
<polygon fill="midnightblue" stroke="midnightblue" points="274.192,-85.6147 270.324,-75.7511 267.197,-85.8738 274.192,-85.6147"/>
</g>
</g>
</svg>
        <g id="navigator" transform="translate(0 0)" fill="#404254">
                <rect fill="#f2f5e9" fill-opacity="0.5" stroke="#606060" stroke-width=".5" x="0" y="0" width="60" height="60"/>
                <use id="zoomplus" xlink:href="#zoomPlus" x="17" y="9" onmousedown="handleZoom(evt,'in')"/>
                <use id="zoomminus" xlink:href="#zoomMin" x="42" y="9" onmousedown="handleZoom(evt,'out')"/>
                <use id="reset" xlink:href="#resetDef" x="30" y="36" onmousedown="handleReset()"/>
                <g id="arrowUp" xlink:href="#dirArrow" transform="translate(30 24)" onmousedown="handlePan(0,-1)">
                  <use xlink:href="#rim" fill="#404040">
                        <set attributeName="fill" to="#808080" begin="arrowUp.mouseover" end="arrowUp.mouseout"/>
                  </use>
                  <path fill="none" stroke="white" stroke-width="1.5" d="M0,-3.0v7 M-2.5,-0.5L0,-3.0L2.5,-0.5"/>
                </g>
                <g id="arrowRight" xlink:href="#dirArrow" transform="rotate(90) translate(36 -43)" onmousedown="handlePan(1,0)">
                  <use xlink:href="#rim" fill="#404040">
                        <set attributeName="fill" to="#808080" begin="arrowRight.mouseover" end="arrowRight.mouseout"/>
                  </use>
                  <path fill="none" stroke="white" stroke-width="1.5" d="M0,-3.0v7 M-2.5,-0.5L0,-3.0L2.5,-0.5"/>
                </g>
                <g id="arrowDown" xlink:href="#dirArrow" transform="rotate(180) translate(-30 -48)" onmousedown="handlePan(0,1)">
                  <use xlink:href="#rim" fill="#404040">
                        <set attributeName="fill" to="#808080" begin="arrowDown.mouseover" end="arrowDown.mouseout"/>
                  </use>
                  <path fill="none" stroke="white" stroke-width="1.5" d="M0,-3.0v7 M-2.5,-0.5L0,-3.0L2.5,-0.5"/>
                </g>
                <g id="arrowLeft" xlink:href="#dirArrow" transform="rotate(270) translate(-36 17)" onmousedown="handlePan(-1,0)">
                  <use xlink:href="#rim" fill="#404040">
                        <set attributeName="fill" to="#808080" begin="arrowLeft.mouseover" end="arrowLeft.mouseout"/>
                  </use>
                  <path fill="none" stroke="white" stroke-width="1.5" d="M0,-3.0v7 M-2.5,-0.5L0,-3.0L2.5,-0.5"/>
                </g>
        </g>
        <svg viewBox="0 0 15 15" width="100%" height="30px" preserveAspectRatio="xMaxYMin meet">
         <g id="arrow_out" transform="scale(0.3 0.3)">
          <a xlink:href="crosstabgroup_8hpp__incl_org.svg" target="_base">
           <rect id="button" ry="5" rx="5" y="6" x="6" height="38" width="38"
                fill="#f2f5e9" fill-opacity="0.5" stroke="#606060" stroke-width="1.0"/>
           <path id="arrow"
             d="M 11.500037,31.436501 C 11.940474,20.09759 22.043105,11.32322 32.158766,21.979434 L 37.068811,17.246167 C 37.068811,17.246167 37.088388,32 37.088388,32 L 22.160133,31.978069 C 22.160133,31.978069 26.997745,27.140456 26.997745,27.140456 C 18.528582,18.264221 13.291696,25.230495 11.500037,31.436501 z"
             style="fill:#404040;"/>
          </a>
         </g>
        </svg>
</svg>
