<?xml version="1.0" encoding="UTF-8" standalone="no"?>
<!DOCTYPE svg PUBLIC "-//W3C//DTD SVG 1.1//EN"
 "http://www.w3.org/Graphics/SVG/1.1/DTD/svg11.dtd">
<!-- Generated by graphviz version 2.38.0 (20140413.2041)
 -->
<!-- Title: /home/travis/build/PO&#45;31/QtReports/qtreports/src/tags/crosstabrowheader.hpp Pages: 1 -->
<svg width="344pt" height="206pt"
 viewBox="0.00 0.00 344.00 206.00" xmlns="http://www.w3.org/2000/svg" xmlns:xlink="http://www.w3.org/1999/xlink">
<g id="graph0" class="graph" transform="scale(1 1) rotate(0) translate(4 202)">
<title>/home/travis/build/PO&#45;31/QtReports/qtreports/src/tags/crosstabrowheader.hpp</title>
<!-- Node1 -->
<g id="node1" class="node"><title>Node1</title>
<polygon fill="#bfbfbf" stroke="black" points="87.5,-156.5 87.5,-197.5 260.5,-197.5 260.5,-156.5 87.5,-156.5"/>
<text text-anchor="start" x="95.5" y="-185.5" font-family="Helvetica,sans-Serif" font-size="10.00">/home/travis/build</text>
<text text-anchor="start" x="95.5" y="-174.5" font-family="Helvetica,sans-Serif" font-size="10.00">/PO&#45;31/QtReports/qtreports</text>
<text text-anchor="middle" x="174" y="-163.5" font-family="Helvetica,sans-Serif" font-size="10.00">/src/tags/crosstabrowheader.hpp</text>
</g>
<!-- Node2 -->
<g id="node2" class="node"><title>Node2</title>
<g id="a_node2"><a xlink:href="crosstabrowheader_8cpp.html" target="_top" xlink:title="/home/travis/build\l/PO&#45;31/QtReports/qtreports\l/src/tags/crosstabrowheader.cpp">
<polygon fill="none" stroke="black" points="0,-78.5 0,-119.5 172,-119.5 172,-78.5 0,-78.5"/>
<text text-anchor="start" x="8" y="-107.5" font-family="Helvetica,sans-Serif" font-size="10.00">/home/travis/build</text>
<text text-anchor="start" x="8" y="-96.5" font-family="Helvetica,sans-Serif" font-size="10.00">/PO&#45;31/QtReports/qtreports</text>
<text text-anchor="middle" x="86" y="-85.5" font-family="Helvetica,sans-Serif" font-size="10.00">/src/tags/crosstabrowheader.cpp</text>
</a>
</g>
</g>
<!-- Node1&#45;&gt;Node2 -->
<g id="edge1" class="edge"><title>Node1&#45;&gt;Node2</title>
<path fill="none" stroke="midnightblue" d="M143.638,-149.779C132.134,-139.843 119.25,-128.716 108.585,-119.506"/>
<polygon fill="midnightblue" stroke="midnightblue" points="141.482,-152.541 151.338,-156.428 146.057,-147.243 141.482,-152.541"/>
</g>
<!-- Node3 -->
<g id="node3" class="node"><title>Node3</title>
<g id="a_node3"><a xlink:href="rowgroup_8hpp.html" target="_top" xlink:title="/home/travis/build\l/PO&#45;31/QtReports/qtreports\l/src/tags/rowgroup.hpp">
<polygon fill="none" stroke="black" points="190,-78.5 190,-119.5 336,-119.5 336,-78.5 190,-78.5"/>
<text text-anchor="start" x="198" y="-107.5" font-family="Helvetica,sans-Serif" font-size="10.00">/home/travis/build</text>
<text text-anchor="start" x="198" y="-96.5" font-family="Helvetica,sans-Serif" font-size="10.00">/PO&#45;31/QtReports/qtreports</text>
<text text-anchor="middle" x="263" y="-85.5" font-family="Helvetica,sans-Serif" font-size="10.00">/src/tags/rowgroup.hpp</text>
</a>
</g>
</g>
<!-- Node1&#45;&gt;Node3 -->
<g id="edge2" class="edge"><title>Node1&#45;&gt;Node3</title>
<path fill="none" stroke="midnightblue" d="M204.707,-149.779C216.341,-139.843 229.372,-128.716 240.158,-119.506"/>
<polygon fill="midnightblue" stroke="midnightblue" points="202.251,-147.273 196.92,-156.428 206.797,-152.596 202.251,-147.273"/>
</g>
<!-- Node4 -->
<g id="node4" class="node"><title>Node4</title>
<g id="a_node4"><a xlink:href="rowgroup_8cpp.html" target="_top" xlink:title="/home/travis/build\l/PO&#45;31/QtReports/qtreports\l/src/tags/rowgroup.cpp">
<polygon fill="none" stroke="black" points="190,-0.5 190,-41.5 336,-41.5 336,-0.5 190,-0.5"/>
<text text-anchor="start" x="198" y="-29.5" font-family="Helvetica,sans-Serif" font-size="10.00">/home/travis/build</text>
<text text-anchor="start" x="198" y="-18.5" font-family="Helvetica,sans-Serif" font-size="10.00">/PO&#45;31/QtReports/qtreports</text>
<text text-anchor="middle" x="263" y="-7.5" font-family="Helvetica,sans-Serif" font-size="10.00">/src/tags/rowgroup.cpp</text>
</a>
</g>
</g>
<!-- Node3&#45;&gt;Node4 -->
<g id="edge3" class="edge"><title>Node3&#45;&gt;Node4</title>
<path fill="none" stroke="midnightblue" d="M263,-68.2965C263,-59.3009 263,-49.6532 263,-41.5056"/>
<polygon fill="midnightblue" stroke="midnightblue" points="259.5,-68.4281 263,-78.4281 266.5,-68.4281 259.5,-68.4281"/>
</g>
</g>
</svg>
