<?xml version="1.0" encoding="UTF-8" standalone="no"?>
<!DOCTYPE svg PUBLIC "-//W3C//DTD SVG 1.1//EN"
 "http://www.w3.org/Graphics/SVG/1.1/DTD/svg11.dtd">
<!-- Generated by graphviz version 2.38.0 (20140413.2041)
 -->
<!-- Title: /home/travis/build/PO&#45;31/QtReports/qtreports/src/tags/crosstabrowheader.hpp Pages: 1 -->
<svg width="768pt" height="442pt"
 viewBox="0.00 0.00 768.00 442.00" xmlns="http://www.w3.org/2000/svg" xmlns:xlink="http://www.w3.org/1999/xlink">
<g id="graph0" class="graph" transform="scale(1 1) rotate(0) translate(4 438)">
<title>/home/travis/build/PO&#45;31/QtReports/qtreports/src/tags/crosstabrowheader.hpp</title>
<!-- Node1 -->
<g id="node1" class="node"><title>Node1</title>
<polygon fill="#bfbfbf" stroke="black" points="139.5,-392.5 139.5,-433.5 312.5,-433.5 312.5,-392.5 139.5,-392.5"/>
<text text-anchor="start" x="147.5" y="-421.5" font-family="Helvetica,sans-Serif" font-size="10.00">/home/travis/build</text>
<text text-anchor="start" x="147.5" y="-410.5" font-family="Helvetica,sans-Serif" font-size="10.00">/PO&#45;31/QtReports/qtreports</text>
<text text-anchor="middle" x="226" y="-399.5" font-family="Helvetica,sans-Serif" font-size="10.00">/src/tags/crosstabrowheader.hpp</text>
</g>
<!-- Node2 -->
<g id="node2" class="node"><title>Node2</title>
<polygon fill="none" stroke="#bfbfbf" points="106.5,-0.5 106.5,-19.5 159.5,-19.5 159.5,-0.5 106.5,-0.5"/>
<text text-anchor="middle" x="133" y="-7.5" font-family="Helvetica,sans-Serif" font-size="10.00">QString</text>
</g>
<!-- Node1&#45;&gt;Node2 -->
<g id="edge1" class="edge"><title>Node1&#45;&gt;Node2</title>
<path fill="none" stroke="midnightblue" d="M139.269,-400.734C75.5356,-387.018 0,-356.869 0,-291 0,-291 0,-291 0,-121 0,-70.5873 57.4436,-38.9269 96.8274,-23.1445"/>
<polygon fill="midnightblue" stroke="midnightblue" points="98.3208,-26.3204 106.405,-19.4724 95.8149,-19.7843 98.3208,-26.3204"/>
</g>
<!-- Node3 -->
<g id="node3" class="node"><title>Node3</title>
<polygon fill="none" stroke="#bfbfbf" points="581,-0.5 581,-19.5 673,-19.5 673,-0.5 581,-0.5"/>
<text text-anchor="middle" x="627" y="-7.5" font-family="Helvetica,sans-Serif" font-size="10.00">QSharedPointer</text>
</g>
<!-- Node1&#45;&gt;Node3 -->
<g id="edge2" class="edge"><title>Node1&#45;&gt;Node3</title>
<path fill="none" stroke="midnightblue" d="M312.687,-410.083C463.912,-404.366 760,-381.603 760,-291 760,-291 760,-291 760,-121 760,-70.7254 702.871,-39.1005 663.497,-23.2746"/>
<polygon fill="midnightblue" stroke="midnightblue" points="664.504,-19.9123 653.915,-19.5897 661.992,-26.4459 664.504,-19.9123"/>
</g>
<!-- Node4 -->
<g id="node4" class="node"><title>Node4</title>
<g id="a_node4"><a xlink:href="object_8hpp.html" target="_top" xlink:title="object.hpp">
<polygon fill="none" stroke="black" points="270.5,-56.5 270.5,-75.5 337.5,-75.5 337.5,-56.5 270.5,-56.5"/>
<text text-anchor="middle" x="304" y="-63.5" font-family="Helvetica,sans-Serif" font-size="10.00">object.hpp</text>
</a>
</g>
</g>
<!-- Node1&#45;&gt;Node4 -->
<g id="edge3" class="edge"><title>Node1&#45;&gt;Node4</title>
<path fill="none" stroke="midnightblue" d="M236.183,-392.467C247.439,-369.025 264,-328.211 264,-291 264,-291 264,-291 264,-177 264,-142.617 281.474,-105.631 293.323,-84.503"/>
<polygon fill="midnightblue" stroke="midnightblue" points="296.424,-86.1332 298.438,-75.7315 290.377,-82.6071 296.424,-86.1332"/>
</g>
<!-- Node6 -->
<g id="node6" class="node"><title>Node6</title>
<g id="a_node6"><a xlink:href="cellcontents_8hpp.html" target="_top" xlink:title="cellcontents.hpp">
<polygon fill="none" stroke="black" points="140.5,-336.5 140.5,-355.5 235.5,-355.5 235.5,-336.5 140.5,-336.5"/>
<text text-anchor="middle" x="188" y="-343.5" font-family="Helvetica,sans-Serif" font-size="10.00">cellcontents.hpp</text>
</a>
</g>
</g>
<!-- Node1&#45;&gt;Node6 -->
<g id="edge7" class="edge"><title>Node1&#45;&gt;Node6</title>
<path fill="none" stroke="midnightblue" d="M214.599,-392.498C209.389,-383.586 203.266,-373.113 198.209,-364.464"/>
<polygon fill="midnightblue" stroke="midnightblue" points="201.127,-362.519 193.058,-355.652 195.084,-366.052 201.127,-362.519"/>
</g>
<!-- Node4&#45;&gt;Node2 -->
<g id="edge4" class="edge"><title>Node4&#45;&gt;Node2</title>
<path fill="none" stroke="midnightblue" d="M276.905,-56.4435C247.927,-47.2928 201.805,-32.7279 169.611,-22.5614"/>
<polygon fill="midnightblue" stroke="midnightblue" points="170.277,-19.1014 159.687,-19.4275 168.169,-25.7765 170.277,-19.1014"/>
</g>
<!-- Node4&#45;&gt;Node3 -->
<g id="edge6" class="edge"><title>Node4&#45;&gt;Node3</title>
<path fill="none" stroke="midnightblue" d="M337.653,-59.3739C392.904,-50.1368 503.416,-31.6612 570.73,-20.4073"/>
<polygon fill="midnightblue" stroke="midnightblue" points="571.456,-23.8346 580.742,-18.7335 570.302,-16.9304 571.456,-23.8346"/>
</g>
<!-- Node5 -->
<g id="node5" class="node"><title>Node5</title>
<polygon fill="none" stroke="#bfbfbf" points="275,-0.5 275,-19.5 333,-19.5 333,-0.5 275,-0.5"/>
<text text-anchor="middle" x="304" y="-7.5" font-family="Helvetica,sans-Serif" font-size="10.00">QVariant</text>
</g>
<!-- Node4&#45;&gt;Node5 -->
<g id="edge5" class="edge"><title>Node4&#45;&gt;Node5</title>
<path fill="none" stroke="midnightblue" d="M304,-56.083C304,-49.0059 304,-38.8611 304,-29.9865"/>
<polygon fill="midnightblue" stroke="midnightblue" points="307.5,-29.751 304,-19.7511 300.5,-29.7511 307.5,-29.751"/>
</g>
<!-- Node6&#45;&gt;Node2 -->
<g id="edge8" class="edge"><title>Node6&#45;&gt;Node2</title>
<path fill="none" stroke="midnightblue" d="M154.337,-336.483C110.112,-323.036 38,-292.321 38,-235 38,-235 38,-235 38,-121 38,-77.7385 80.6084,-43.0862 108.755,-24.9149"/>
<polygon fill="midnightblue" stroke="midnightblue" points="110.661,-27.851 117.313,-19.6042 106.97,-21.9032 110.661,-27.851"/>
</g>
<!-- Node6&#45;&gt;Node3 -->
<g id="edge9" class="edge"><title>Node6&#45;&gt;Node3</title>
<path fill="none" stroke="midnightblue" d="M235.859,-345.238C366.93,-344.611 722,-333.796 722,-235 722,-235 722,-235 722,-121 722,-77.7385 679.392,-43.0862 651.245,-24.9149"/>
<polygon fill="midnightblue" stroke="midnightblue" points="653.03,-21.9032 642.687,-19.6042 649.339,-27.851 653.03,-21.9032"/>
</g>
<!-- Node7 -->
<g id="node7" class="node"><title>Node7</title>
<g id="a_node7"><a xlink:href="box_8hpp.html" target="_top" xlink:title="box.hpp">
<polygon fill="none" stroke="black" points="180.5,-112.5 180.5,-131.5 235.5,-131.5 235.5,-112.5 180.5,-112.5"/>
<text text-anchor="middle" x="208" y="-119.5" font-family="Helvetica,sans-Serif" font-size="10.00">box.hpp</text>
</a>
</g>
</g>
<!-- Node6&#45;&gt;Node7 -->
<g id="edge10" class="edge"><title>Node6&#45;&gt;Node7</title>
<path fill="none" stroke="midnightblue" d="M175.208,-336.318C164.532,-328.276 149.976,-315.276 143,-300 128.95,-269.231 129.015,-256.317 139,-224 149.43,-190.242 175.448,-157.702 192.386,-139.056"/>
<polygon fill="midnightblue" stroke="midnightblue" points="194.96,-141.429 199.23,-131.732 189.845,-136.65 194.96,-141.429"/>
</g>
<!-- Node8 -->
<g id="node8" class="node"><title>Node8</title>
<g id="a_node8"><a xlink:href="textfield_8hpp.html" target="_top" xlink:title="textfield.hpp">
<polygon fill="none" stroke="black" points="152,-280.5 152,-299.5 228,-299.5 228,-280.5 152,-280.5"/>
<text text-anchor="middle" x="190" y="-287.5" font-family="Helvetica,sans-Serif" font-size="10.00">textfield.hpp</text>
</a>
</g>
</g>
<!-- Node6&#45;&gt;Node8 -->
<g id="edge14" class="edge"><title>Node6&#45;&gt;Node8</title>
<path fill="none" stroke="midnightblue" d="M188.33,-336.083C188.592,-329.006 188.968,-318.861 189.297,-309.986"/>
<polygon fill="midnightblue" stroke="midnightblue" points="192.803,-309.874 189.676,-299.751 185.808,-309.615 192.803,-309.874"/>
</g>
<!-- Node7&#45;&gt;Node2 -->
<g id="edge11" class="edge"><title>Node7&#45;&gt;Node2</title>
<path fill="none" stroke="midnightblue" d="M202.72,-112.481C194.91,-99.9601 179.719,-75.916 166,-56 159.462,-46.5083 151.873,-36.1201 145.623,-27.7186"/>
<polygon fill="midnightblue" stroke="midnightblue" points="148.276,-25.4225 139.479,-19.5181 142.674,-29.6198 148.276,-25.4225"/>
</g>
<!-- Node7&#45;&gt;Node3 -->
<g id="edge12" class="edge"><title>Node7&#45;&gt;Node3</title>
<path fill="none" stroke="midnightblue" d="M212.16,-112.479C219.686,-98.0848 237.037,-69.2327 261,-56 312.954,-27.3101 481.635,-16.5733 570.711,-12.8335"/>
<polygon fill="midnightblue" stroke="midnightblue" points="571.055,-16.3225 580.905,-12.4215 570.772,-9.32825 571.055,-16.3225"/>
</g>
<!-- Node7&#45;&gt;Node4 -->
<g id="edge13" class="edge"><title>Node7&#45;&gt;Node4</title>
<path fill="none" stroke="midnightblue" d="M223.424,-112.324C238.54,-103.822 261.815,-90.7288 279.471,-80.7975"/>
<polygon fill="midnightblue" stroke="midnightblue" points="281.614,-83.6077 288.614,-75.6545 278.183,-77.5066 281.614,-83.6077"/>
</g>
<!-- Node8&#45;&gt;Node2 -->
<g id="edge15" class="edge"><title>Node8&#45;&gt;Node2</title>
<path fill="none" stroke="midnightblue" d="M175.026,-280.421C162.977,-272.615 146.809,-259.898 139,-244 103.449,-171.628 119.607,-70.7525 128.515,-29.5953"/>
<polygon fill="midnightblue" stroke="midnightblue" points="131.974,-30.1719 130.786,-19.6438 125.149,-28.6143 131.974,-30.1719"/>
</g>
<!-- Node8&#45;&gt;Node3 -->
<g id="edge16" class="edge"><title>Node8&#45;&gt;Node3</title>
<path fill="none" stroke="midnightblue" d="M228.352,-288.63C344.42,-286.486 684,-272.246 684,-179 684,-179 684,-179 684,-121 684,-84.3005 658.679,-47.6567 641.79,-27.2973"/>
<polygon fill="midnightblue" stroke="midnightblue" points="644.348,-24.9037 635.167,-19.6161 639.046,-29.475 644.348,-24.9037"/>
</g>
<!-- Node9 -->
<g id="node9" class="node"><title>Node9</title>
<g id="a_node9"><a xlink:href="textwidget_8hpp.html" target="_top" xlink:title="textwidget.hpp">
<polygon fill="none" stroke="black" points="148.5,-224.5 148.5,-243.5 235.5,-243.5 235.5,-224.5 148.5,-224.5"/>
<text text-anchor="middle" x="192" y="-231.5" font-family="Helvetica,sans-Serif" font-size="10.00">textwidget.hpp</text>
</a>
</g>
</g>
<!-- Node8&#45;&gt;Node9 -->
<g id="edge17" class="edge"><title>Node8&#45;&gt;Node9</title>
<path fill="none" stroke="midnightblue" d="M190.33,-280.083C190.592,-273.006 190.968,-262.861 191.297,-253.986"/>
<polygon fill="midnightblue" stroke="midnightblue" points="194.803,-253.874 191.676,-243.751 187.808,-253.615 194.803,-253.874"/>
</g>
<!-- Node9&#45;&gt;Node2 -->
<g id="edge18" class="edge"><title>Node9&#45;&gt;Node2</title>
<path fill="none" stroke="midnightblue" d="M187.421,-224.482C175.333,-201.416 142.814,-135.47 133,-76 130.47,-60.6714 130.662,-43.0311 131.379,-29.9987"/>
<polygon fill="midnightblue" stroke="midnightblue" points="134.878,-30.1271 132.089,-19.906 127.896,-29.6355 134.878,-30.1271"/>
</g>
<!-- Node9&#45;&gt;Node3 -->
<g id="edge19" class="edge"><title>Node9&#45;&gt;Node3</title>
<path fill="none" stroke="midnightblue" d="M235.598,-228.022C331.554,-216.219 556.808,-183.597 611,-132 638.662,-105.663 635.302,-56.427 630.892,-29.5953"/>
<polygon fill="midnightblue" stroke="midnightblue" points="634.302,-28.787 629.025,-19.5997 627.421,-30.0724 634.302,-28.787"/>
</g>
<!-- Node10 -->
<g id="node10" class="node"><title>Node10</title>
<g id="a_node10"><a xlink:href="widget_8hpp.html" target="_top" xlink:title="widget.hpp">
<polygon fill="none" stroke="black" points="359,-168.5 359,-187.5 427,-187.5 427,-168.5 359,-168.5"/>
<text text-anchor="middle" x="393" y="-175.5" font-family="Helvetica,sans-Serif" font-size="10.00">widget.hpp</text>
</a>
</g>
</g>
<!-- Node9&#45;&gt;Node10 -->
<g id="edge20" class="edge"><title>Node9&#45;&gt;Node10</title>
<path fill="none" stroke="midnightblue" d="M223.849,-224.444C258.398,-215.162 313.682,-200.309 351.583,-190.127"/>
<polygon fill="midnightblue" stroke="midnightblue" points="352.551,-193.491 361.3,-187.516 350.734,-186.731 352.551,-193.491"/>
</g>
<!-- Node10&#45;&gt;Node2 -->
<g id="edge21" class="edge"><title>Node10&#45;&gt;Node2</title>
<path fill="none" stroke="midnightblue" d="M358.822,-174.278C303.617,-169.209 198.247,-156.543 171,-132 141.643,-105.556 134.771,-56.7317 133.286,-29.8956"/>
<polygon fill="midnightblue" stroke="midnightblue" points="136.773,-29.4419 132.926,-19.5702 129.777,-29.6863 136.773,-29.4419"/>
</g>
<!-- Node10&#45;&gt;Node3 -->
<g id="edge25" class="edge"><title>Node10&#45;&gt;Node3</title>
<path fill="none" stroke="midnightblue" d="M427.225,-173.249C476.937,-167.137 565.733,-153.506 589,-132 618.015,-105.181 625.024,-56.5075 626.622,-29.7951"/>
<polygon fill="midnightblue" stroke="midnightblue" points="630.13,-29.6518 627.029,-19.5209 623.136,-29.3743 630.13,-29.6518"/>
</g>
<!-- Node10&#45;&gt;Node4 -->
<g id="edge31" class="edge"><title>Node10&#45;&gt;Node4</title>
<path fill="none" stroke="midnightblue" d="M387.057,-168.375C378.245,-155.722 361.024,-131.515 345,-112 336.868,-102.096 327.241,-91.4792 319.361,-83.0463"/>
<polygon fill="midnightblue" stroke="midnightblue" points="321.856,-80.5915 312.445,-75.7249 316.767,-85.398 321.856,-80.5915"/>
</g>
<!-- Node11 -->
<g id="node11" class="node"><title>Node11</title>
<polygon fill="none" stroke="#bfbfbf" points="470,-112.5 470,-131.5 518,-131.5 518,-112.5 470,-112.5"/>
<text text-anchor="middle" x="494" y="-119.5" font-family="Helvetica,sans-Serif" font-size="10.00">QPoint</text>
</g>
<!-- Node10&#45;&gt;Node11 -->
<g id="edge22" class="edge"><title>Node10&#45;&gt;Node11</title>
<path fill="none" stroke="midnightblue" d="M409.227,-168.324C425.351,-159.703 450.3,-146.364 468.964,-136.386"/>
<polygon fill="midnightblue" stroke="midnightblue" points="470.644,-139.456 477.813,-131.655 467.344,-133.283 470.644,-139.456"/>
</g>
<!-- Node12 -->
<g id="node12" class="node"><title>Node12</title>
<polygon fill="none" stroke="#bfbfbf" points="536,-112.5 536,-131.5 580,-131.5 580,-112.5 536,-112.5"/>
<text text-anchor="middle" x="558" y="-119.5" font-family="Helvetica,sans-Serif" font-size="10.00">QSize</text>
</g>
<!-- Node10&#45;&gt;Node12 -->
<g id="edge23" class="edge"><title>Node10&#45;&gt;Node12</title>
<path fill="none" stroke="midnightblue" d="M419.145,-168.444C448.253,-158.917 495.291,-143.523 526.43,-133.332"/>
<polygon fill="midnightblue" stroke="midnightblue" points="527.523,-136.657 535.938,-130.22 525.345,-130.004 527.523,-136.657"/>
</g>
<!-- Node13 -->
<g id="node13" class="node"><title>Node13</title>
<polygon fill="none" stroke="#bfbfbf" points="292,-112.5 292,-131.5 336,-131.5 336,-112.5 292,-112.5"/>
<text text-anchor="middle" x="314" y="-119.5" font-family="Helvetica,sans-Serif" font-size="10.00">QRect</text>
</g>
<!-- Node10&#45;&gt;Node13 -->
<g id="edge24" class="edge"><title>Node10&#45;&gt;Node13</title>
<path fill="none" stroke="midnightblue" d="M380.307,-168.324C368.099,-159.979 349.422,-147.212 334.997,-137.352"/>
<polygon fill="midnightblue" stroke="midnightblue" points="336.892,-134.408 326.661,-131.655 332.942,-140.187 336.892,-134.408"/>
</g>
<!-- Node14 -->
<g id="node14" class="node"><title>Node14</title>
<g id="a_node14"><a xlink:href="style_8hpp.html" target="_top" xlink:title="style.hpp">
<polygon fill="none" stroke="black" points="392,-112.5 392,-131.5 452,-131.5 452,-112.5 392,-112.5"/>
<text text-anchor="middle" x="422" y="-119.5" font-family="Helvetica,sans-Serif" font-size="10.00">style.hpp</text>
</a>
</g>
</g>
<!-- Node10&#45;&gt;Node14 -->
<g id="edge26" class="edge"><title>Node10&#45;&gt;Node14</title>
<path fill="none" stroke="midnightblue" d="M397.789,-168.083C401.758,-160.691 407.525,-149.953 412.435,-140.811"/>
<polygon fill="midnightblue" stroke="midnightblue" points="415.653,-142.217 417.3,-131.751 409.486,-138.905 415.653,-142.217"/>
</g>
<!-- Node14&#45;&gt;Node2 -->
<g id="edge27" class="edge"><title>Node14&#45;&gt;Node2</title>
<path fill="none" stroke="midnightblue" d="M414.558,-112.28C401.961,-98.1197 374.967,-70.275 346,-56 288.528,-27.6776 213.77,-17.1325 169.821,-13.2401"/>
<polygon fill="midnightblue" stroke="midnightblue" points="169.857,-9.73144 159.606,-12.4067 169.288,-16.7083 169.857,-9.73144"/>
</g>
<!-- Node14&#45;&gt;Node3 -->
<g id="edge29" class="edge"><title>Node14&#45;&gt;Node3</title>
<path fill="none" stroke="midnightblue" d="M438.086,-112.368C473.713,-93.2515 559.482,-47.229 602.1,-24.361"/>
<polygon fill="midnightblue" stroke="midnightblue" points="603.832,-27.4037 610.989,-19.5914 600.522,-21.2356 603.832,-27.4037"/>
</g>
<!-- Node14&#45;&gt;Node4 -->
<g id="edge30" class="edge"><title>Node14&#45;&gt;Node4</title>
<path fill="none" stroke="midnightblue" d="M403.303,-112.444C384.056,-103.636 353.848,-89.8116 331.8,-79.722"/>
<polygon fill="midnightblue" stroke="midnightblue" points="333.16,-76.4951 322.61,-75.5164 330.247,-82.8603 333.16,-76.4951"/>
</g>
<!-- Node15 -->
<g id="node15" class="node"><title>Node15</title>
<polygon fill="none" stroke="#bfbfbf" points="397.5,-56.5 397.5,-75.5 446.5,-75.5 446.5,-56.5 397.5,-56.5"/>
<text text-anchor="middle" x="422" y="-63.5" font-family="Helvetica,sans-Serif" font-size="10.00">QColor</text>
</g>
<!-- Node14&#45;&gt;Node15 -->
<g id="edge28" class="edge"><title>Node14&#45;&gt;Node15</title>
<path fill="none" stroke="midnightblue" d="M422,-112.083C422,-105.006 422,-94.8611 422,-85.9865"/>
<polygon fill="midnightblue" stroke="midnightblue" points="425.5,-85.751 422,-75.7511 418.5,-85.7511 425.5,-85.751"/>
</g>
</g>
</svg>
