<?xml version="1.0" encoding="UTF-8" standalone="no"?>
<!DOCTYPE svg PUBLIC "-//W3C//DTD SVG 1.1//EN"
 "http://www.w3.org/Graphics/SVG/1.1/DTD/svg11.dtd">
<!-- Generated by graphviz version 2.38.0 (20140413.2041)
 -->
<!-- Title: /home/travis/build/PO&#45;31/QtReports/qtreports/src/tags/crosstab.cpp Pages: 1 -->
<svg width="669pt" height="610pt"
 viewBox="0.00 0.00 669.00 610.00" xmlns="http://www.w3.org/2000/svg" xmlns:xlink="http://www.w3.org/1999/xlink">
<g id="graph0" class="graph" transform="scale(1 1) rotate(0) translate(4 606)">
<title>/home/travis/build/PO&#45;31/QtReports/qtreports/src/tags/crosstab.cpp</title>
<!-- Node1 -->
<g id="node1" class="node"><title>Node1</title>
<polygon fill="#bfbfbf" stroke="black" points="447,-560.5 447,-601.5 593,-601.5 593,-560.5 447,-560.5"/>
<text text-anchor="start" x="455" y="-589.5" font-family="Helvetica,sans-Serif" font-size="10.00">/home/travis/build</text>
<text text-anchor="start" x="455" y="-578.5" font-family="Helvetica,sans-Serif" font-size="10.00">/PO&#45;31/QtReports/qtreports</text>
<text text-anchor="middle" x="520" y="-567.5" font-family="Helvetica,sans-Serif" font-size="10.00">/src/tags/crosstab.cpp</text>
</g>
<!-- Node2 -->
<g id="node2" class="node"><title>Node2</title>
<g id="a_node2"><a xlink:href="crosstab_8hpp.html" target="_top" xlink:title="crosstab.hpp">
<polygon fill="none" stroke="black" points="480.5,-504.5 480.5,-523.5 559.5,-523.5 559.5,-504.5 480.5,-504.5"/>
<text text-anchor="middle" x="520" y="-511.5" font-family="Helvetica,sans-Serif" font-size="10.00">crosstab.hpp</text>
</a>
</g>
</g>
<!-- Node1&#45;&gt;Node2 -->
<g id="edge1" class="edge"><title>Node1&#45;&gt;Node2</title>
<path fill="none" stroke="midnightblue" d="M520,-560.498C520,-552.065 520,-542.235 520,-533.874"/>
<polygon fill="midnightblue" stroke="midnightblue" points="523.5,-533.652 520,-523.652 516.5,-533.653 523.5,-533.652"/>
</g>
<!-- Node3 -->
<g id="node3" class="node"><title>Node3</title>
<g id="a_node3"><a xlink:href="widget_8hpp.html" target="_top" xlink:title="widget.hpp">
<polygon fill="none" stroke="black" points="220,-168.5 220,-187.5 288,-187.5 288,-168.5 220,-168.5"/>
<text text-anchor="middle" x="254" y="-175.5" font-family="Helvetica,sans-Serif" font-size="10.00">widget.hpp</text>
</a>
</g>
</g>
<!-- Node2&#45;&gt;Node3 -->
<g id="edge2" class="edge"><title>Node2&#45;&gt;Node3</title>
<path fill="none" stroke="midnightblue" d="M480.489,-513.047C359.139,-512.138 0,-501.158 0,-403 0,-403 0,-403 0,-289 0,-198.77 136.643,-181.724 209.484,-179.048"/>
<polygon fill="midnightblue" stroke="midnightblue" points="209.85,-182.539 219.744,-178.75 209.647,-175.541 209.85,-182.539"/>
</g>
<!-- Node13 -->
<g id="node13" class="node"><title>Node13</title>
<g id="a_node13"><a xlink:href="crosstabgroup_8hpp.html" target="_top" xlink:title="crosstabgroup.hpp">
<polygon fill="none" stroke="black" points="548.5,-448.5 548.5,-467.5 655.5,-467.5 655.5,-448.5 548.5,-448.5"/>
<text text-anchor="middle" x="602" y="-455.5" font-family="Helvetica,sans-Serif" font-size="10.00">crosstabgroup.hpp</text>
</a>
</g>
</g>
<!-- Node2&#45;&gt;Node13 -->
<g id="edge17" class="edge"><title>Node2&#45;&gt;Node13</title>
<path fill="none" stroke="midnightblue" d="M533.175,-504.324C545.847,-495.979 565.233,-483.212 580.206,-473.352"/>
<polygon fill="midnightblue" stroke="midnightblue" points="582.431,-476.078 588.858,-467.655 578.581,-470.231 582.431,-476.078"/>
</g>
<!-- Node14 -->
<g id="node14" class="node"><title>Node14</title>
<g id="a_node14"><a xlink:href="crosstabsection_8hpp.html" target="_top" xlink:title="crosstabsection.hpp">
<polygon fill="none" stroke="black" points="504.5,-392.5 504.5,-411.5 617.5,-411.5 617.5,-392.5 504.5,-392.5"/>
<text text-anchor="middle" x="561" y="-399.5" font-family="Helvetica,sans-Serif" font-size="10.00">crosstabsection.hpp</text>
</a>
</g>
</g>
<!-- Node2&#45;&gt;Node14 -->
<g id="edge31" class="edge"><title>Node2&#45;&gt;Node14</title>
<path fill="none" stroke="midnightblue" d="M522.008,-504.433C525.068,-491.852 531.356,-467.734 539,-448 542.573,-438.776 547.314,-428.864 551.48,-420.698"/>
<polygon fill="midnightblue" stroke="midnightblue" points="554.62,-422.247 556.159,-411.765 548.419,-418.999 554.62,-422.247"/>
</g>
<!-- Node4 -->
<g id="node4" class="node"><title>Node4</title>
<polygon fill="none" stroke="#bfbfbf" points="279.5,-0.5 279.5,-19.5 332.5,-19.5 332.5,-0.5 279.5,-0.5"/>
<text text-anchor="middle" x="306" y="-7.5" font-family="Helvetica,sans-Serif" font-size="10.00">QString</text>
</g>
<!-- Node3&#45;&gt;Node4 -->
<g id="edge3" class="edge"><title>Node3&#45;&gt;Node4</title>
<path fill="none" stroke="midnightblue" d="M219.979,-175.719C164.874,-172.255 65.1158,-159.436 95,-112 133.399,-51.0477 219.888,-26.0719 269.388,-16.4803"/>
<polygon fill="midnightblue" stroke="midnightblue" points="270.151,-19.8991 279.359,-14.6596 268.893,-13.0129 270.151,-19.8991"/>
</g>
<!-- Node5 -->
<g id="node5" class="node"><title>Node5</title>
<polygon fill="none" stroke="#bfbfbf" points="104,-112.5 104,-131.5 152,-131.5 152,-112.5 104,-112.5"/>
<text text-anchor="middle" x="128" y="-119.5" font-family="Helvetica,sans-Serif" font-size="10.00">QPoint</text>
</g>
<!-- Node3&#45;&gt;Node5 -->
<g id="edge4" class="edge"><title>Node3&#45;&gt;Node5</title>
<path fill="none" stroke="midnightblue" d="M234.035,-168.444C213.391,-159.596 180.937,-145.687 157.368,-135.586"/>
<polygon fill="midnightblue" stroke="midnightblue" points="158.442,-132.239 147.872,-131.516 155.684,-138.673 158.442,-132.239"/>
</g>
<!-- Node6 -->
<g id="node6" class="node"><title>Node6</title>
<polygon fill="none" stroke="#bfbfbf" points="170,-112.5 170,-131.5 214,-131.5 214,-112.5 170,-112.5"/>
<text text-anchor="middle" x="192" y="-119.5" font-family="Helvetica,sans-Serif" font-size="10.00">QSize</text>
</g>
<!-- Node3&#45;&gt;Node6 -->
<g id="edge5" class="edge"><title>Node3&#45;&gt;Node6</title>
<path fill="none" stroke="midnightblue" d="M244.039,-168.324C234.873,-160.341 221.063,-148.313 209.972,-138.653"/>
<polygon fill="midnightblue" stroke="midnightblue" points="211.982,-135.762 202.143,-131.834 207.385,-141.041 211.982,-135.762"/>
</g>
<!-- Node7 -->
<g id="node7" class="node"><title>Node7</title>
<polygon fill="none" stroke="#bfbfbf" points="232,-112.5 232,-131.5 276,-131.5 276,-112.5 232,-112.5"/>
<text text-anchor="middle" x="254" y="-119.5" font-family="Helvetica,sans-Serif" font-size="10.00">QRect</text>
</g>
<!-- Node3&#45;&gt;Node7 -->
<g id="edge6" class="edge"><title>Node3&#45;&gt;Node7</title>
<path fill="none" stroke="midnightblue" d="M254,-168.083C254,-161.006 254,-150.861 254,-141.986"/>
<polygon fill="midnightblue" stroke="midnightblue" points="257.5,-141.751 254,-131.751 250.5,-141.751 257.5,-141.751"/>
</g>
<!-- Node8 -->
<g id="node8" class="node"><title>Node8</title>
<polygon fill="none" stroke="#bfbfbf" points="412,-0.5 412,-19.5 504,-19.5 504,-0.5 412,-0.5"/>
<text text-anchor="middle" x="458" y="-7.5" font-family="Helvetica,sans-Serif" font-size="10.00">QSharedPointer</text>
</g>
<!-- Node3&#45;&gt;Node8 -->
<g id="edge7" class="edge"><title>Node3&#45;&gt;Node8</title>
<path fill="none" stroke="midnightblue" d="M286.296,-168.469C309.262,-161.313 339.991,-149.432 363,-132 401.527,-102.811 433.059,-54.4205 448.232,-28.5645"/>
<polygon fill="midnightblue" stroke="midnightblue" points="451.457,-29.9743 453.387,-19.5567 445.382,-26.4971 451.457,-29.9743"/>
</g>
<!-- Node9 -->
<g id="node9" class="node"><title>Node9</title>
<g id="a_node9"><a xlink:href="style_8hpp.html" target="_top" xlink:title="style.hpp">
<polygon fill="none" stroke="black" points="294,-112.5 294,-131.5 354,-131.5 354,-112.5 294,-112.5"/>
<text text-anchor="middle" x="324" y="-119.5" font-family="Helvetica,sans-Serif" font-size="10.00">style.hpp</text>
</a>
</g>
</g>
<!-- Node3&#45;&gt;Node9 -->
<g id="edge8" class="edge"><title>Node3&#45;&gt;Node9</title>
<path fill="none" stroke="midnightblue" d="M265.247,-168.324C275.797,-160.185 291.801,-147.839 304.442,-138.087"/>
<polygon fill="midnightblue" stroke="midnightblue" points="306.769,-140.713 312.549,-131.834 302.493,-135.171 306.769,-140.713"/>
</g>
<!-- Node11 -->
<g id="node11" class="node"><title>Node11</title>
<g id="a_node11"><a xlink:href="object_8hpp.html" target="_top" xlink:title="object.hpp">
<polygon fill="none" stroke="black" points="554.5,-56.5 554.5,-75.5 621.5,-75.5 621.5,-56.5 554.5,-56.5"/>
<text text-anchor="middle" x="588" y="-63.5" font-family="Helvetica,sans-Serif" font-size="10.00">object.hpp</text>
</a>
</g>
</g>
<!-- Node3&#45;&gt;Node11 -->
<g id="edge16" class="edge"><title>Node3&#45;&gt;Node11</title>
<path fill="none" stroke="midnightblue" d="M281.539,-168.448C310.185,-159.511 356.311,-145.006 396,-132 451.258,-113.893 515.171,-92.081 553.546,-78.8903"/>
<polygon fill="midnightblue" stroke="midnightblue" points="554.881,-82.1326 563.198,-75.5694 552.603,-75.5134 554.881,-82.1326"/>
</g>
<!-- Node9&#45;&gt;Node4 -->
<g id="edge9" class="edge"><title>Node9&#45;&gt;Node4</title>
<path fill="none" stroke="midnightblue" d="M322.588,-112.368C319.683,-94.617 312.982,-53.6664 309.043,-29.5974"/>
<polygon fill="midnightblue" stroke="midnightblue" points="312.475,-28.8949 307.406,-19.5914 305.567,-30.0254 312.475,-28.8949"/>
</g>
<!-- Node9&#45;&gt;Node8 -->
<g id="edge11" class="edge"><title>Node9&#45;&gt;Node8</title>
<path fill="none" stroke="midnightblue" d="M328.009,-112.389C334.663,-98.8758 349.144,-72.5274 368,-56 384.072,-41.9123 405.338,-31.012 423.162,-23.4702"/>
<polygon fill="midnightblue" stroke="midnightblue" points="424.7,-26.6237 432.656,-19.6269 422.073,-20.1352 424.7,-26.6237"/>
</g>
<!-- Node10 -->
<g id="node10" class="node"><title>Node10</title>
<polygon fill="none" stroke="#bfbfbf" points="228.5,-56.5 228.5,-75.5 277.5,-75.5 277.5,-56.5 228.5,-56.5"/>
<text text-anchor="middle" x="253" y="-63.5" font-family="Helvetica,sans-Serif" font-size="10.00">QColor</text>
</g>
<!-- Node9&#45;&gt;Node10 -->
<g id="edge10" class="edge"><title>Node9&#45;&gt;Node10</title>
<path fill="none" stroke="midnightblue" d="M312.593,-112.324C301.891,-104.185 285.659,-91.8395 272.837,-82.0874"/>
<polygon fill="midnightblue" stroke="midnightblue" points="274.693,-79.1018 264.615,-75.8339 270.456,-84.6734 274.693,-79.1018"/>
</g>
<!-- Node9&#45;&gt;Node11 -->
<g id="edge12" class="edge"><title>Node9&#45;&gt;Node11</title>
<path fill="none" stroke="midnightblue" d="M354.027,-114.858C400.622,-105.327 490.562,-86.9306 544.34,-75.9304"/>
<polygon fill="midnightblue" stroke="midnightblue" points="545.17,-79.3331 554.266,-73.9001 543.768,-72.4751 545.17,-79.3331"/>
</g>
<!-- Node11&#45;&gt;Node4 -->
<g id="edge13" class="edge"><title>Node11&#45;&gt;Node4</title>
<path fill="none" stroke="midnightblue" d="M554.264,-58.54C500.975,-48.3357 397.731,-28.5655 342.67,-18.0219"/>
<polygon fill="midnightblue" stroke="midnightblue" points="343.131,-14.5466 332.651,-16.1034 341.814,-21.4217 343.131,-14.5466"/>
</g>
<!-- Node11&#45;&gt;Node8 -->
<g id="edge15" class="edge"><title>Node11&#45;&gt;Node8</title>
<path fill="none" stroke="midnightblue" d="M567.401,-56.4435C546.007,-47.5566 512.319,-33.5632 487.976,-23.4514"/>
<polygon fill="midnightblue" stroke="midnightblue" points="489.08,-20.1203 478.503,-19.5164 486.395,-26.5848 489.08,-20.1203"/>
</g>
<!-- Node12 -->
<g id="node12" class="node"><title>Node12</title>
<polygon fill="none" stroke="#bfbfbf" points="559,-0.5 559,-19.5 617,-19.5 617,-0.5 559,-0.5"/>
<text text-anchor="middle" x="588" y="-7.5" font-family="Helvetica,sans-Serif" font-size="10.00">QVariant</text>
</g>
<!-- Node11&#45;&gt;Node12 -->
<g id="edge14" class="edge"><title>Node11&#45;&gt;Node12</title>
<path fill="none" stroke="midnightblue" d="M588,-56.083C588,-49.0059 588,-38.8611 588,-29.9865"/>
<polygon fill="midnightblue" stroke="midnightblue" points="591.5,-29.751 588,-19.7511 584.5,-29.7511 591.5,-29.751"/>
</g>
<!-- Node13&#45;&gt;Node11 -->
<g id="edge18" class="edge"><title>Node13&#45;&gt;Node11</title>
<path fill="none" stroke="midnightblue" d="M610.453,-448.438C626.767,-430.962 661,-389.258 661,-347 661,-347 661,-347 661,-177 661,-137.776 628.377,-101.836 606.747,-82.3184"/>
<polygon fill="midnightblue" stroke="midnightblue" points="608.933,-79.5813 599.087,-75.6696 604.345,-84.8678 608.933,-79.5813"/>
</g>
<!-- Node13&#45;&gt;Node14 -->
<g id="edge19" class="edge"><title>Node13&#45;&gt;Node14</title>
<path fill="none" stroke="midnightblue" d="M595.23,-448.083C589.438,-440.455 580.942,-429.264 573.862,-419.941"/>
<polygon fill="midnightblue" stroke="midnightblue" points="576.479,-417.599 567.644,-411.751 570.904,-421.832 576.479,-417.599"/>
</g>
<!-- Node14&#45;&gt;Node11 -->
<g id="edge20" class="edge"><title>Node14&#45;&gt;Node11</title>
<path fill="none" stroke="midnightblue" d="M571.396,-392.37C580.879,-383.982 594.648,-370.428 603,-356 618.142,-329.841 623,-321.225 623,-291 623,-291 623,-291 623,-177 623,-143.072 607.693,-105.911 597.325,-84.631"/>
<polygon fill="midnightblue" stroke="midnightblue" points="600.362,-82.8822 592.72,-75.544 594.118,-86.0463 600.362,-82.8822"/>
</g>
<!-- Node15 -->
<g id="node15" class="node"><title>Node15</title>
<g id="a_node15"><a xlink:href="cellcontents_8hpp.html" target="_top" xlink:title="cellcontents.hpp">
<polygon fill="none" stroke="black" points="499.5,-336.5 499.5,-355.5 594.5,-355.5 594.5,-336.5 499.5,-336.5"/>
<text text-anchor="middle" x="547" y="-343.5" font-family="Helvetica,sans-Serif" font-size="10.00">cellcontents.hpp</text>
</a>
</g>
</g>
<!-- Node14&#45;&gt;Node15 -->
<g id="edge21" class="edge"><title>Node14&#45;&gt;Node15</title>
<path fill="none" stroke="midnightblue" d="M558.688,-392.083C556.833,-384.927 554.165,-374.635 551.846,-365.691"/>
<polygon fill="midnightblue" stroke="midnightblue" points="555.166,-364.553 549.269,-355.751 548.391,-366.309 555.166,-364.553"/>
</g>
<!-- Node16 -->
<g id="node16" class="node"><title>Node16</title>
<g id="a_node16"><a xlink:href="box_8hpp.html" target="_top" xlink:title="box.hpp">
<polygon fill="none" stroke="black" points="539.5,-224.5 539.5,-243.5 594.5,-243.5 594.5,-224.5 539.5,-224.5"/>
<text text-anchor="middle" x="567" y="-231.5" font-family="Helvetica,sans-Serif" font-size="10.00">box.hpp</text>
</a>
</g>
</g>
<!-- Node15&#45;&gt;Node16 -->
<g id="edge22" class="edge"><title>Node15&#45;&gt;Node16</title>
<path fill="none" stroke="midnightblue" d="M548.569,-336.368C551.797,-318.617 559.242,-277.666 563.619,-253.597"/>
<polygon fill="midnightblue" stroke="midnightblue" points="567.093,-254.056 565.438,-243.591 560.205,-252.804 567.093,-254.056"/>
</g>
<!-- Node17 -->
<g id="node17" class="node"><title>Node17</title>
<g id="a_node17"><a xlink:href="textfield_8hpp.html" target="_top" xlink:title="textfield.hpp">
<polygon fill="none" stroke="black" points="424,-280.5 424,-299.5 500,-299.5 500,-280.5 424,-280.5"/>
<text text-anchor="middle" x="462" y="-287.5" font-family="Helvetica,sans-Serif" font-size="10.00">textfield.hpp</text>
</a>
</g>
</g>
<!-- Node15&#45;&gt;Node17 -->
<g id="edge24" class="edge"><title>Node15&#45;&gt;Node17</title>
<path fill="none" stroke="midnightblue" d="M533.343,-336.324C520.084,-327.9 499.732,-314.971 484.154,-305.074"/>
<polygon fill="midnightblue" stroke="midnightblue" points="485.94,-302.063 475.623,-299.655 482.187,-307.971 485.94,-302.063"/>
</g>
<!-- Node16&#45;&gt;Node11 -->
<g id="edge23" class="edge"><title>Node16&#45;&gt;Node11</title>
<path fill="none" stroke="midnightblue" d="M568.129,-224.075C571.435,-197.945 581.142,-121.211 585.65,-85.577"/>
<polygon fill="midnightblue" stroke="midnightblue" points="589.133,-85.9283 586.916,-75.5681 582.189,-85.0497 589.133,-85.9283"/>
</g>
<!-- Node17&#45;&gt;Node4 -->
<g id="edge25" class="edge"><title>Node17&#45;&gt;Node4</title>
<path fill="none" stroke="midnightblue" d="M424,-287.253C319.928,-281.442 38,-258.375 38,-179 38,-179 38,-179 38,-121 38,-22.2499 195.648,-10.2697 269.122,-10.0487"/>
<polygon fill="midnightblue" stroke="midnightblue" points="269.308,-13.5495 279.323,-10.0925 269.338,-6.54953 269.308,-13.5495"/>
</g>
<!-- Node17&#45;&gt;Node8 -->
<g id="edge26" class="edge"><title>Node17&#45;&gt;Node8</title>
<path fill="none" stroke="midnightblue" d="M468.89,-280.319C475.269,-271.684 484.308,-257.77 488,-244 490.302,-235.414 488.552,-232.872 488,-224 483.324,-148.898 479.053,-130.276 467,-56 465.579,-47.2411 463.691,-37.586 462.011,-29.4724"/>
<polygon fill="midnightblue" stroke="midnightblue" points="465.414,-28.6477 459.913,-19.5928 458.567,-30.1018 465.414,-28.6477"/>
</g>
<!-- Node18 -->
<g id="node18" class="node"><title>Node18</title>
<g id="a_node18"><a xlink:href="textwidget_8hpp.html" target="_top" xlink:title="textwidget.hpp">
<polygon fill="none" stroke="black" points="392.5,-224.5 392.5,-243.5 479.5,-243.5 479.5,-224.5 392.5,-224.5"/>
<text text-anchor="middle" x="436" y="-231.5" font-family="Helvetica,sans-Serif" font-size="10.00">textwidget.hpp</text>
</a>
</g>
</g>
<!-- Node17&#45;&gt;Node18 -->
<g id="edge27" class="edge"><title>Node17&#45;&gt;Node18</title>
<path fill="none" stroke="midnightblue" d="M457.707,-280.083C454.148,-272.691 448.978,-261.953 444.576,-252.811"/>
<polygon fill="midnightblue" stroke="midnightblue" points="447.705,-251.243 440.213,-243.751 441.398,-254.279 447.705,-251.243"/>
</g>
<!-- Node18&#45;&gt;Node3 -->
<g id="edge30" class="edge"><title>Node18&#45;&gt;Node3</title>
<path fill="none" stroke="midnightblue" d="M407.162,-224.444C376.144,-215.241 326.671,-200.562 292.382,-190.388"/>
<polygon fill="midnightblue" stroke="midnightblue" points="293.286,-187.006 282.704,-187.516 291.295,-193.716 293.286,-187.006"/>
</g>
<!-- Node18&#45;&gt;Node4 -->
<g id="edge28" class="edge"><title>Node18&#45;&gt;Node4</title>
<path fill="none" stroke="midnightblue" d="M430.904,-224.297C411.573,-191.286 342.543,-73.4041 316.261,-28.522"/>
<polygon fill="midnightblue" stroke="midnightblue" points="319.276,-26.7444 311.202,-19.8837 313.235,-30.2817 319.276,-26.7444"/>
</g>
<!-- Node18&#45;&gt;Node8 -->
<g id="edge29" class="edge"><title>Node18&#45;&gt;Node8</title>
<path fill="none" stroke="midnightblue" d="M436.862,-224.297C440.099,-191.633 451.572,-75.8661 456.121,-29.9573"/>
<polygon fill="midnightblue" stroke="midnightblue" points="459.616,-30.1802 457.12,-19.8837 452.65,-29.4898 459.616,-30.1802"/>
</g>
</g>
</svg>
