<?xml version="1.0" encoding="UTF-8" standalone="no"?>
<!DOCTYPE svg PUBLIC "-//W3C//DTD SVG 1.1//EN"
 "http://www.w3.org/Graphics/SVG/1.1/DTD/svg11.dtd">
<!-- Generated by graphviz version 2.38.0 (20140413.2041)
 -->
<!-- Title: /home/travis/build/PO&#45;31/QtReports/qtreports/src/tags/crosstabgroup.hpp Pages: 1 -->
<svg width="538pt" height="498pt"
 viewBox="0.00 0.00 537.50 498.00" xmlns="http://www.w3.org/2000/svg" xmlns:xlink="http://www.w3.org/1999/xlink">
<g id="graph0" class="graph" transform="scale(1 1) rotate(0) translate(4 494)">
<title>/home/travis/build/PO&#45;31/QtReports/qtreports/src/tags/crosstabgroup.hpp</title>
<!-- Node1 -->
<g id="node1" class="node"><title>Node1</title>
<polygon fill="#bfbfbf" stroke="black" points="378.5,-448.5 378.5,-489.5 529.5,-489.5 529.5,-448.5 378.5,-448.5"/>
<text text-anchor="start" x="386.5" y="-477.5" font-family="Helvetica,sans-Serif" font-size="10.00">/home/travis/build</text>
<text text-anchor="start" x="386.5" y="-466.5" font-family="Helvetica,sans-Serif" font-size="10.00">/PO&#45;31/QtReports/qtreports</text>
<text text-anchor="middle" x="454" y="-455.5" font-family="Helvetica,sans-Serif" font-size="10.00">/src/tags/crosstabgroup.hpp</text>
</g>
<!-- Node2 -->
<g id="node2" class="node"><title>Node2</title>
<g id="a_node2"><a xlink:href="object_8hpp.html" target="_top" xlink:title="object.hpp">
<polygon fill="none" stroke="black" points="348.5,-56.5 348.5,-75.5 415.5,-75.5 415.5,-56.5 348.5,-56.5"/>
<text text-anchor="middle" x="382" y="-63.5" font-family="Helvetica,sans-Serif" font-size="10.00">object.hpp</text>
</a>
</g>
</g>
<!-- Node1&#45;&gt;Node2 -->
<g id="edge1" class="edge"><title>Node1&#45;&gt;Node2</title>
<path fill="none" stroke="midnightblue" d="M465.477,-448.179C477.912,-424.793 496,-384.357 496,-347 496,-347 496,-347 496,-177 496,-130.115 445.448,-96.8944 411.671,-79.9302"/>
<polygon fill="midnightblue" stroke="midnightblue" points="413.172,-76.7687 402.645,-75.5787 410.132,-83.0742 413.172,-76.7687"/>
</g>
<!-- Node6 -->
<g id="node6" class="node"><title>Node6</title>
<g id="a_node6"><a xlink:href="crosstabheader_8hpp.html" target="_top" xlink:title="crosstabheader.hpp">
<polygon fill="none" stroke="black" points="356,-392.5 356,-411.5 468,-411.5 468,-392.5 356,-392.5"/>
<text text-anchor="middle" x="412" y="-399.5" font-family="Helvetica,sans-Serif" font-size="10.00">crosstabheader.hpp</text>
</a>
</g>
</g>
<!-- Node1&#45;&gt;Node6 -->
<g id="edge5" class="edge"><title>Node1&#45;&gt;Node6</title>
<path fill="none" stroke="midnightblue" d="M441.399,-448.498C435.578,-439.49 428.728,-428.888 423.104,-420.185"/>
<polygon fill="midnightblue" stroke="midnightblue" points="425.958,-418.152 417.591,-411.652 420.078,-421.951 425.958,-418.152"/>
</g>
<!-- Node3 -->
<g id="node3" class="node"><title>Node3</title>
<polygon fill="none" stroke="#bfbfbf" points="423.5,-0.5 423.5,-19.5 476.5,-19.5 476.5,-0.5 423.5,-0.5"/>
<text text-anchor="middle" x="450" y="-7.5" font-family="Helvetica,sans-Serif" font-size="10.00">QString</text>
</g>
<!-- Node2&#45;&gt;Node3 -->
<g id="edge2" class="edge"><title>Node2&#45;&gt;Node3</title>
<path fill="none" stroke="midnightblue" d="M392.925,-56.324C403.175,-48.1849 418.721,-35.8395 431.001,-26.0874"/>
<polygon fill="midnightblue" stroke="midnightblue" points="433.221,-28.7937 438.876,-19.8339 428.868,-23.3119 433.221,-28.7937"/>
</g>
<!-- Node4 -->
<g id="node4" class="node"><title>Node4</title>
<polygon fill="none" stroke="#bfbfbf" points="347,-0.5 347,-19.5 405,-19.5 405,-0.5 347,-0.5"/>
<text text-anchor="middle" x="376" y="-7.5" font-family="Helvetica,sans-Serif" font-size="10.00">QVariant</text>
</g>
<!-- Node2&#45;&gt;Node4 -->
<g id="edge3" class="edge"><title>Node2&#45;&gt;Node4</title>
<path fill="none" stroke="midnightblue" d="M381.009,-56.083C380.214,-48.9272 379.071,-38.6353 378.077,-29.6911"/>
<polygon fill="midnightblue" stroke="midnightblue" points="381.555,-29.3034 376.972,-19.7511 374.598,-30.0765 381.555,-29.3034"/>
</g>
<!-- Node5 -->
<g id="node5" class="node"><title>Node5</title>
<polygon fill="none" stroke="#bfbfbf" points="30,-0.5 30,-19.5 122,-19.5 122,-0.5 30,-0.5"/>
<text text-anchor="middle" x="76" y="-7.5" font-family="Helvetica,sans-Serif" font-size="10.00">QSharedPointer</text>
</g>
<!-- Node2&#45;&gt;Node5 -->
<g id="edge4" class="edge"><title>Node2&#45;&gt;Node5</title>
<path fill="none" stroke="midnightblue" d="M348.377,-59.0666C296.315,-49.8792 195.612,-32.108 132.314,-20.9377"/>
<polygon fill="midnightblue" stroke="midnightblue" points="132.561,-17.4274 122.105,-19.1362 131.345,-24.3209 132.561,-17.4274"/>
</g>
<!-- Node6&#45;&gt;Node2 -->
<g id="edge6" class="edge"><title>Node6&#45;&gt;Node2</title>
<path fill="none" stroke="midnightblue" d="M418.396,-392.391C431.036,-374.498 458,-331.572 458,-291 458,-291 458,-291 458,-177 458,-137.276 424.036,-101.504 401.518,-82.1536"/>
<polygon fill="midnightblue" stroke="midnightblue" points="403.482,-79.2364 393.543,-75.5672 399.024,-84.6337 403.482,-79.2364"/>
</g>
<!-- Node7 -->
<g id="node7" class="node"><title>Node7</title>
<g id="a_node7"><a xlink:href="cellcontents_8hpp.html" target="_top" xlink:title="cellcontents.hpp">
<polygon fill="none" stroke="black" points="289.5,-336.5 289.5,-355.5 384.5,-355.5 384.5,-336.5 289.5,-336.5"/>
<text text-anchor="middle" x="337" y="-343.5" font-family="Helvetica,sans-Serif" font-size="10.00">cellcontents.hpp</text>
</a>
</g>
</g>
<!-- Node6&#45;&gt;Node7 -->
<g id="edge7" class="edge"><title>Node6&#45;&gt;Node7</title>
<path fill="none" stroke="midnightblue" d="M399.95,-392.324C388.537,-384.107 371.169,-371.602 357.565,-361.807"/>
<polygon fill="midnightblue" stroke="midnightblue" points="359.43,-358.837 349.269,-355.834 355.34,-364.517 359.43,-358.837"/>
</g>
<!-- Node8 -->
<g id="node8" class="node"><title>Node8</title>
<g id="a_node8"><a xlink:href="widget_8hpp.html" target="_top" xlink:title="widget.hpp">
<polygon fill="none" stroke="black" points="231,-168.5 231,-187.5 299,-187.5 299,-168.5 231,-168.5"/>
<text text-anchor="middle" x="265" y="-175.5" font-family="Helvetica,sans-Serif" font-size="10.00">widget.hpp</text>
</a>
</g>
</g>
<!-- Node7&#45;&gt;Node8 -->
<g id="edge8" class="edge"><title>Node7&#45;&gt;Node8</title>
<path fill="none" stroke="midnightblue" d="M324.148,-336.193C313.325,-328.071 298.314,-315.024 290,-300 271.799,-267.109 266.801,-222.547 265.46,-197.706"/>
<polygon fill="midnightblue" stroke="midnightblue" points="268.95,-197.367 265.06,-187.512 261.955,-197.642 268.95,-197.367"/>
</g>
<!-- Node14 -->
<g id="node14" class="node"><title>Node14</title>
<g id="a_node14"><a xlink:href="textfield_8hpp.html" target="_top" xlink:title="textfield.hpp">
<polygon fill="none" stroke="black" points="299,-280.5 299,-299.5 375,-299.5 375,-280.5 299,-280.5"/>
<text text-anchor="middle" x="337" y="-287.5" font-family="Helvetica,sans-Serif" font-size="10.00">textfield.hpp</text>
</a>
</g>
</g>
<!-- Node7&#45;&gt;Node14 -->
<g id="edge20" class="edge"><title>Node7&#45;&gt;Node14</title>
<path fill="none" stroke="midnightblue" d="M337,-336.083C337,-329.006 337,-318.861 337,-309.986"/>
<polygon fill="midnightblue" stroke="midnightblue" points="340.5,-309.751 337,-299.751 333.5,-309.751 340.5,-309.751"/>
</g>
<!-- Node8&#45;&gt;Node2 -->
<g id="edge19" class="edge"><title>Node8&#45;&gt;Node2</title>
<path fill="none" stroke="midnightblue" d="M299.385,-169.017C320.52,-162.426 346.602,-150.987 363,-132 374.157,-119.081 378.77,-99.909 380.673,-85.7316"/>
<polygon fill="midnightblue" stroke="midnightblue" points="384.169,-85.9486 381.692,-75.6475 377.205,-85.2451 384.169,-85.9486"/>
</g>
<!-- Node8&#45;&gt;Node3 -->
<g id="edge9" class="edge"><title>Node8&#45;&gt;Node3</title>
<path fill="none" stroke="midnightblue" d="M299.104,-169.551C324.173,-162.827 358.07,-151.014 383,-132 417.569,-105.635 436.753,-56.0392 445.024,-29.2602"/>
<polygon fill="midnightblue" stroke="midnightblue" points="448.398,-30.191 447.832,-19.6113 441.677,-28.2347 448.398,-30.191"/>
</g>
<!-- Node8&#45;&gt;Node5 -->
<g id="edge13" class="edge"><title>Node8&#45;&gt;Node5</title>
<path fill="none" stroke="midnightblue" d="M230.843,-172.408C186.598,-165.739 112.994,-151.951 95,-132 69.5673,-103.802 70.371,-56.067 73.1835,-29.7716"/>
<polygon fill="midnightblue" stroke="midnightblue" points="76.6823,-30.0038 74.4855,-19.6392 69.7394,-29.1116 76.6823,-30.0038"/>
</g>
<!-- Node9 -->
<g id="node9" class="node"><title>Node9</title>
<polygon fill="none" stroke="#bfbfbf" points="104,-112.5 104,-131.5 152,-131.5 152,-112.5 104,-112.5"/>
<text text-anchor="middle" x="128" y="-119.5" font-family="Helvetica,sans-Serif" font-size="10.00">QPoint</text>
</g>
<!-- Node8&#45;&gt;Node9 -->
<g id="edge10" class="edge"><title>Node8&#45;&gt;Node9</title>
<path fill="none" stroke="midnightblue" d="M243.292,-168.444C220.645,-159.517 184.928,-145.439 159.248,-135.317"/>
<polygon fill="midnightblue" stroke="midnightblue" points="160.193,-131.927 149.606,-131.516 157.626,-138.44 160.193,-131.927"/>
</g>
<!-- Node10 -->
<g id="node10" class="node"><title>Node10</title>
<polygon fill="none" stroke="#bfbfbf" points="170,-112.5 170,-131.5 214,-131.5 214,-112.5 170,-112.5"/>
<text text-anchor="middle" x="192" y="-119.5" font-family="Helvetica,sans-Serif" font-size="10.00">QSize</text>
</g>
<!-- Node8&#45;&gt;Node10 -->
<g id="edge11" class="edge"><title>Node8&#45;&gt;Node10</title>
<path fill="none" stroke="midnightblue" d="M253.271,-168.324C242.163,-160.107 225.258,-147.602 212.017,-137.807"/>
<polygon fill="midnightblue" stroke="midnightblue" points="214.063,-134.967 203.942,-131.834 209.9,-140.595 214.063,-134.967"/>
</g>
<!-- Node11 -->
<g id="node11" class="node"><title>Node11</title>
<polygon fill="none" stroke="#bfbfbf" points="232,-112.5 232,-131.5 276,-131.5 276,-112.5 232,-112.5"/>
<text text-anchor="middle" x="254" y="-119.5" font-family="Helvetica,sans-Serif" font-size="10.00">QRect</text>
</g>
<!-- Node8&#45;&gt;Node11 -->
<g id="edge12" class="edge"><title>Node8&#45;&gt;Node11</title>
<path fill="none" stroke="midnightblue" d="M263.184,-168.083C261.726,-160.927 259.629,-150.635 257.807,-141.691"/>
<polygon fill="midnightblue" stroke="midnightblue" points="261.208,-140.851 255.783,-131.751 254.349,-142.248 261.208,-140.851"/>
</g>
<!-- Node12 -->
<g id="node12" class="node"><title>Node12</title>
<g id="a_node12"><a xlink:href="style_8hpp.html" target="_top" xlink:title="style.hpp">
<polygon fill="none" stroke="black" points="294,-112.5 294,-131.5 354,-131.5 354,-112.5 294,-112.5"/>
<text text-anchor="middle" x="324" y="-119.5" font-family="Helvetica,sans-Serif" font-size="10.00">style.hpp</text>
</a>
</g>
</g>
<!-- Node8&#45;&gt;Node12 -->
<g id="edge14" class="edge"><title>Node8&#45;&gt;Node12</title>
<path fill="none" stroke="midnightblue" d="M274.479,-168.324C283.201,-160.341 296.343,-148.313 306.898,-138.653"/>
<polygon fill="midnightblue" stroke="midnightblue" points="309.334,-141.167 314.348,-131.834 304.608,-136.004 309.334,-141.167"/>
</g>
<!-- Node12&#45;&gt;Node2 -->
<g id="edge18" class="edge"><title>Node12&#45;&gt;Node2</title>
<path fill="none" stroke="midnightblue" d="M333.319,-112.324C341.893,-104.341 354.812,-92.3128 365.188,-82.6529"/>
<polygon fill="midnightblue" stroke="midnightblue" points="367.578,-85.2098 372.512,-75.8339 362.808,-80.0865 367.578,-85.2098"/>
</g>
<!-- Node12&#45;&gt;Node3 -->
<g id="edge15" class="edge"><title>Node12&#45;&gt;Node3</title>
<path fill="none" stroke="midnightblue" d="M323.61,-112.315C323.472,-98.6988 325.171,-72.2128 339,-56 349.11,-44.1476 385.41,-30.754 413.779,-21.6835"/>
<polygon fill="midnightblue" stroke="midnightblue" points="414.928,-24.9914 423.427,-18.6651 412.838,-18.3107 414.928,-24.9914"/>
</g>
<!-- Node12&#45;&gt;Node5 -->
<g id="edge17" class="edge"><title>Node12&#45;&gt;Node5</title>
<path fill="none" stroke="midnightblue" d="M304.54,-112.368C260.987,-93.0507 155.493,-46.2592 104.516,-23.6481"/>
<polygon fill="midnightblue" stroke="midnightblue" points="105.93,-20.4466 95.3697,-19.5914 103.092,-26.8454 105.93,-20.4466"/>
</g>
<!-- Node13 -->
<g id="node13" class="node"><title>Node13</title>
<polygon fill="none" stroke="#bfbfbf" points="242.5,-56.5 242.5,-75.5 291.5,-75.5 291.5,-56.5 242.5,-56.5"/>
<text text-anchor="middle" x="267" y="-63.5" font-family="Helvetica,sans-Serif" font-size="10.00">QColor</text>
</g>
<!-- Node12&#45;&gt;Node13 -->
<g id="edge16" class="edge"><title>Node12&#45;&gt;Node13</title>
<path fill="none" stroke="midnightblue" d="M314.842,-112.324C306.499,-104.42 293.968,-92.5482 283.823,-82.9377"/>
<polygon fill="midnightblue" stroke="midnightblue" points="285.991,-80.1705 276.325,-75.8339 281.177,-85.2522 285.991,-80.1705"/>
</g>
<!-- Node14&#45;&gt;Node3 -->
<g id="edge21" class="edge"><title>Node14&#45;&gt;Node3</title>
<path fill="none" stroke="midnightblue" d="M349.994,-280.311C361.493,-272.08 378.095,-258.803 389,-244 437.286,-178.455 445.631,-155.748 462,-76 465.209,-60.3679 461.39,-42.5387 457.233,-29.5121"/>
<polygon fill="midnightblue" stroke="midnightblue" points="460.448,-28.108 453.807,-19.853 453.851,-30.4478 460.448,-28.108"/>
</g>
<!-- Node14&#45;&gt;Node5 -->
<g id="edge22" class="edge"><title>Node14&#45;&gt;Node5</title>
<path fill="none" stroke="midnightblue" d="M298.997,-284.76C210.863,-273.873 0,-241.314 0,-179 0,-179 0,-179 0,-121 0,-81.2757 33.9641,-45.5045 56.4821,-26.1536"/>
<polygon fill="midnightblue" stroke="midnightblue" points="58.9755,-28.6337 64.4572,-19.5672 54.518,-23.2364 58.9755,-28.6337"/>
</g>
<!-- Node15 -->
<g id="node15" class="node"><title>Node15</title>
<g id="a_node15"><a xlink:href="textwidget_8hpp.html" target="_top" xlink:title="textwidget.hpp">
<polygon fill="none" stroke="black" points="293.5,-224.5 293.5,-243.5 380.5,-243.5 380.5,-224.5 293.5,-224.5"/>
<text text-anchor="middle" x="337" y="-231.5" font-family="Helvetica,sans-Serif" font-size="10.00">textwidget.hpp</text>
</a>
</g>
</g>
<!-- Node14&#45;&gt;Node15 -->
<g id="edge23" class="edge"><title>Node14&#45;&gt;Node15</title>
<path fill="none" stroke="midnightblue" d="M337,-280.083C337,-273.006 337,-262.861 337,-253.986"/>
<polygon fill="midnightblue" stroke="midnightblue" points="340.5,-253.751 337,-243.751 333.5,-253.751 340.5,-253.751"/>
</g>
<!-- Node15&#45;&gt;Node3 -->
<g id="edge24" class="edge"><title>Node15&#45;&gt;Node3</title>
<path fill="none" stroke="midnightblue" d="M345.485,-224.412C366.823,-202.183 422.608,-140.017 445,-76 450.202,-61.1268 451.225,-43.207 451.076,-29.9529"/>
<polygon fill="midnightblue" stroke="midnightblue" points="454.565,-29.5722 450.718,-19.7003 447.569,-29.8163 454.565,-29.5722"/>
</g>
<!-- Node15&#45;&gt;Node5 -->
<g id="edge25" class="edge"><title>Node15&#45;&gt;Node5</title>
<path fill="none" stroke="midnightblue" d="M293.059,-228.612C234.86,-220.352 133.263,-196.982 79,-132 54.8403,-103.068 63.0644,-55.2745 70.152,-29.2558"/>
<polygon fill="midnightblue" stroke="midnightblue" points="73.5407,-30.1387 73.0223,-19.5565 66.8284,-28.1523 73.5407,-30.1387"/>
</g>
<!-- Node15&#45;&gt;Node8 -->
<g id="edge26" class="edge"><title>Node15&#45;&gt;Node8</title>
<path fill="none" stroke="midnightblue" d="M325.432,-224.324C314.58,-216.185 298.119,-203.839 285.117,-194.087"/>
<polygon fill="midnightblue" stroke="midnightblue" points="286.879,-191.034 276.779,-187.834 282.679,-196.634 286.879,-191.034"/>
</g>
</g>
</svg>
