<?xml version="1.0" encoding="UTF-8" standalone="no"?>
<!DOCTYPE svg PUBLIC "-//W3C//DTD SVG 1.1//EN"
 "http://www.w3.org/Graphics/SVG/1.1/DTD/svg11.dtd">
<!-- Generated by graphviz version 2.38.0 (20140413.2041)
 -->
<!-- Title: /home/travis/build/PO&#45;31/QtReports/qtreports/src Pages: 1 -->
<svg width="250pt" height="255pt"
 viewBox="0.00 0.00 250.00 255.00" xmlns="http://www.w3.org/2000/svg" xmlns:xlink="http://www.w3.org/1999/xlink">
<g id="graph0" class="graph" transform="scale(1 1) rotate(0) translate(4 251)">
<title>/home/travis/build/PO&#45;31/QtReports/qtreports/src</title>
<g id="clust1" class="cluster"><title>clusterdir_92bde7d608ceb2cc3747bbfdbcf2bd2c</title>
<g id="a_clust1"><a xlink:href="dir_92bde7d608ceb2cc3747bbfdbcf2bd2c.html" target="_top" xlink:title="qtreports">
<polygon fill="#ddddee" stroke="black" points="8,-8 8,-239 180,-239 180,-8 8,-8"/>
<text text-anchor="middle" x="94" y="-227" font-family="Helvetica,sans-Serif" font-size="10.00">qtreports</text>
</a>
</g>
</g>
<g id="clust2" class="cluster"><title>clusterdir_455848a96611f2b29ec6ffbd237ada79</title>
<g id="a_clust2"><a xlink:href="dir_455848a96611f2b29ec6ffbd237ada79.html" target="_top">
<polygon fill="#eeeeff" stroke="black" points="16,-16 16,-212 172,-212 172,-16 16,-16"/>
</a>
</g>
</g>
<!-- dir_455848a96611f2b29ec6ffbd237ada79 -->
<g id="node1" class="node"><title>dir_455848a96611f2b29ec6ffbd237ada79</title>
<text text-anchor="middle" x="137" y="-183.5" font-family="Helvetica,sans-Serif" font-size="10.00">src</text>
</g>
<!-- dir_90cb663777cbdc3b870ef8089101435d -->
<g id="node3" class="node"><title>dir_90cb663777cbdc3b870ef8089101435d</title>
<g id="a_node3"><a xlink:href="dir_90cb663777cbdc3b870ef8089101435d.html" target="_top" xlink:title="parsers">
<polygon fill="white" stroke="black" points="164,-132 110,-132 110,-96 164,-96 164,-132"/>
<text text-anchor="middle" x="137" y="-111.5" font-family="Helvetica,sans-Serif" font-size="10.00">parsers</text>
</a>
</g>
</g>
<!-- dir_455848a96611f2b29ec6ffbd237ada79&#45;&gt;dir_90cb663777cbdc3b870ef8089101435d -->
<g id="edge3" class="edge"><title>dir_455848a96611f2b29ec6ffbd237ada79&#45;&gt;dir_90cb663777cbdc3b870ef8089101435d</title>
<path fill="none" stroke="black" d="M137,-167.697C137,-159.983 137,-150.712 137,-142.112"/>
<polygon fill="black" stroke="black" points="140.5,-142.104 137,-132.104 133.5,-142.104 140.5,-142.104"/>
<g id="a_edge3&#45;headlabel"><a xlink:href="dir_000004_000007.html" target="_top" xlink:title="1">
<text text-anchor="middle" x="143.339" y="-143.199" font-family="Helvetica,sans-Serif" font-size="10.00">1</text>
</a>
</g>
</g>
<!-- dir_be734d7908abc7c5a824e967c65d75ca -->
<g id="node5" class="node"><title>dir_be734d7908abc7c5a824e967c65d75ca</title>
<g id="a_node5"><a xlink:href="dir_be734d7908abc7c5a824e967c65d75ca.html" target="_top" xlink:title="include">
<polygon fill="none" stroke="red" points="242,-132 188,-132 188,-96 242,-96 242,-132"/>
<text text-anchor="middle" x="215" y="-111.5" font-family="Helvetica,sans-Serif" font-size="10.00">include</text>
</a>
</g>
</g>
<!-- dir_455848a96611f2b29ec6ffbd237ada79&#45;&gt;dir_be734d7908abc7c5a824e967c65d75ca -->
<g id="edge2" class="edge"><title>dir_455848a96611f2b29ec6ffbd237ada79&#45;&gt;dir_be734d7908abc7c5a824e967c65d75ca</title>
<path fill="none" stroke="black" d="M156.281,-167.697C165.915,-159.05 177.729,-148.449 188.227,-139.027"/>
<polygon fill="black" stroke="black" points="190.836,-141.388 195.941,-132.104 186.161,-136.179 190.836,-141.388"/>
<g id="a_edge2&#45;headlabel"><a xlink:href="dir_000004_000002.html" target="_top" xlink:title="1">
<text text-anchor="middle" x="190.057" y="-143.402" font-family="Helvetica,sans-Serif" font-size="10.00">1</text>
</a>
</g>
</g>
<!-- dir_e8657ccaf913ba826a3f11d9a8ba20c3 -->
<g id="node2" class="node"><title>dir_e8657ccaf913ba826a3f11d9a8ba20c3</title>
<g id="a_node2"><a xlink:href="dir_e8657ccaf913ba826a3f11d9a8ba20c3.html" target="_top" xlink:title="converters">
<polygon fill="white" stroke="red" points="92,-132 24,-132 24,-96 92,-96 92,-132"/>
<text text-anchor="middle" x="58" y="-111.5" font-family="Helvetica,sans-Serif" font-size="10.00">converters</text>
</a>
</g>
</g>
<!-- dir_95b01a3e7c2e38eb5eedb8e79cda609e -->
<g id="node4" class="node"><title>dir_95b01a3e7c2e38eb5eedb8e79cda609e</title>
<g id="a_node4"><a xlink:href="dir_95b01a3e7c2e38eb5eedb8e79cda609e.html" target="_top" xlink:title="tags">
<polygon fill="white" stroke="black" points="124,-60 70,-60 70,-24 124,-24 124,-60"/>
<text text-anchor="middle" x="97" y="-39.5" font-family="Helvetica,sans-Serif" font-size="10.00">tags</text>
</a>
</g>
</g>
<!-- dir_e8657ccaf913ba826a3f11d9a8ba20c3&#45;&gt;dir_95b01a3e7c2e38eb5eedb8e79cda609e -->
<g id="edge4" class="edge"><title>dir_e8657ccaf913ba826a3f11d9a8ba20c3&#45;&gt;dir_95b01a3e7c2e38eb5eedb8e79cda609e</title>
<path fill="none" stroke="black" d="M67.6405,-95.6966C72.1271,-87.6436 77.5588,-77.8945 82.5241,-68.9824"/>
<polygon fill="black" stroke="black" points="85.6609,-70.5435 87.4704,-60.1043 79.5459,-67.1366 85.6609,-70.5435"/>
<g id="a_edge4&#45;headlabel"><a xlink:href="dir_000005_000008.html" target="_top" xlink:title="6">
<text text-anchor="middle" x="86.3917" y="-72.5655" font-family="Helvetica,sans-Serif" font-size="10.00">6</text>
</a>
</g>
</g>
<!-- dir_90cb663777cbdc3b870ef8089101435d&#45;&gt;dir_95b01a3e7c2e38eb5eedb8e79cda609e -->
<g id="edge1" class="edge"><title>dir_90cb663777cbdc3b870ef8089101435d&#45;&gt;dir_95b01a3e7c2e38eb5eedb8e79cda609e</title>
<path fill="none" stroke="black" d="M127.112,-95.6966C122.511,-87.6436 116.94,-77.8945 111.847,-68.9824"/>
<polygon fill="black" stroke="black" points="114.774,-67.0503 106.774,-60.1043 108.696,-70.5233 114.774,-67.0503"/>
<g id="a_edge1&#45;headlabel"><a xlink:href="dir_000007_000008.html" target="_top" xlink:title="16">
<text text-anchor="middle" x="119.023" y="-66.2626" font-family="Helvetica,sans-Serif" font-size="10.00">16</text>
</a>
</g>
</g>
</g>
</svg>
