<?xml version="1.0" encoding="UTF-8" standalone="no"?>
<!DOCTYPE svg PUBLIC "-//W3C//DTD SVG 1.1//EN"
 "http://www.w3.org/Graphics/SVG/1.1/DTD/svg11.dtd">
<!-- Generated by graphviz version 2.38.0 (20140413.2041)
 -->
<!-- Title: /home/travis/build/PO&#45;31/QtReports/qtreports/src/converters Pages: 1 -->
<svg width="124pt" height="231pt"
 viewBox="0.00 0.00 124.00 231.00" xmlns="http://www.w3.org/2000/svg" xmlns:xlink="http://www.w3.org/1999/xlink">
<g id="graph0" class="graph" transform="scale(1 1) rotate(0) translate(4 227)">
<title>/home/travis/build/PO&#45;31/QtReports/qtreports/src/converters</title>
<g id="clust1" class="cluster"><title>clusterdir_455848a96611f2b29ec6ffbd237ada79</title>
<g id="a_clust1"><a xlink:href="dir_455848a96611f2b29ec6ffbd237ada79.html" target="_top" xlink:title="src">
<polygon fill="#ddddee" stroke="black" points="8,-56 8,-215 108,-215 108,-56 8,-56"/>
<text text-anchor="middle" x="58" y="-203" font-family="Helvetica,sans-Serif" font-size="10.00">src</text>
</a>
</g>
</g>
<g id="clust2" class="cluster"><title>clusterdir_e8657ccaf913ba826a3f11d9a8ba20c3</title>
<g id="a_clust2"><a xlink:href="dir_e8657ccaf913ba826a3f11d9a8ba20c3.html" target="_top">
<polygon fill="#eeeeff" stroke="black" points="16,-64 16,-188 100,-188 100,-64 16,-64"/>
</a>
</g>
</g>
<!-- dir_e8657ccaf913ba826a3f11d9a8ba20c3 -->
<g id="node1" class="node"><title>dir_e8657ccaf913ba826a3f11d9a8ba20c3</title>
<text text-anchor="middle" x="58" y="-159.5" font-family="Helvetica,sans-Serif" font-size="10.00">converters</text>
</g>
<!-- dir_80f99c00af8443f5fede38a31e95e422 -->
<g id="node2" class="node"><title>dir_80f99c00af8443f5fede38a31e95e422</title>
<g id="a_node2"><a xlink:href="dir_80f99c00af8443f5fede38a31e95e422.html" target="_top" xlink:title="utils">
<polygon fill="white" stroke="black" points="81,-108 27,-108 27,-72 81,-72 81,-108"/>
<text text-anchor="middle" x="54" y="-87.5" font-family="Helvetica,sans-Serif" font-size="10.00">utils</text>
</a>
</g>
</g>
<!-- dir_e8657ccaf913ba826a3f11d9a8ba20c3&#45;&gt;dir_80f99c00af8443f5fede38a31e95e422 -->
<g id="edge2" class="edge"><title>dir_e8657ccaf913ba826a3f11d9a8ba20c3&#45;&gt;dir_80f99c00af8443f5fede38a31e95e422</title>
<path fill="none" stroke="black" d="M57.0112,-143.697C56.5704,-135.983 56.0407,-126.712 55.5493,-118.112"/>
<polygon fill="black" stroke="black" points="59.0423,-117.888 54.9774,-108.104 52.0537,-118.288 59.0423,-117.888"/>
<g id="a_edge2&#45;headlabel"><a xlink:href="dir_000005_000006.html" target="_top" xlink:title="3">
<text text-anchor="middle" x="62.0819" y="-118.815" font-family="Helvetica,sans-Serif" font-size="10.00">3</text>
</a>
</g>
</g>
<!-- dir_95b01a3e7c2e38eb5eedb8e79cda609e -->
<g id="node3" class="node"><title>dir_95b01a3e7c2e38eb5eedb8e79cda609e</title>
<g id="a_node3"><a xlink:href="dir_95b01a3e7c2e38eb5eedb8e79cda609e.html" target="_top" xlink:title="tags">
<polygon fill="none" stroke="black" points="108,-36 54,-36 54,-0 108,-0 108,-36"/>
<text text-anchor="middle" x="81" y="-15.5" font-family="Helvetica,sans-Serif" font-size="10.00">tags</text>
</a>
</g>
</g>
<!-- dir_e8657ccaf913ba826a3f11d9a8ba20c3&#45;&gt;dir_95b01a3e7c2e38eb5eedb8e79cda609e -->
<g id="edge3" class="edge"><title>dir_e8657ccaf913ba826a3f11d9a8ba20c3&#45;&gt;dir_95b01a3e7c2e38eb5eedb8e79cda609e</title>
<path fill="none" stroke="black" d="M71.5643,-143.972C78.5581,-134.09 86.3668,-121.047 90,-108 95.6768,-87.6146 92.7609,-63.7162 88.7911,-45.8197"/>
<polygon fill="black" stroke="black" points="92.1751,-44.9233 86.389,-36.0479 85.3774,-46.5943 92.1751,-44.9233"/>
<g id="a_edge3&#45;headlabel"><a xlink:href="dir_000005_000008.html" target="_top" xlink:title="6">
<text text-anchor="middle" x="95.7903" y="-45.2362" font-family="Helvetica,sans-Serif" font-size="10.00">6</text>
</a>
</g>
</g>
<!-- dir_80f99c00af8443f5fede38a31e95e422&#45;&gt;dir_95b01a3e7c2e38eb5eedb8e79cda609e -->
<g id="edge1" class="edge"><title>dir_80f99c00af8443f5fede38a31e95e422&#45;&gt;dir_95b01a3e7c2e38eb5eedb8e79cda609e</title>
<path fill="none" stroke="black" d="M60.6742,-71.6966C63.7149,-63.8132 67.3827,-54.3042 70.7607,-45.5464"/>
<polygon fill="black" stroke="black" points="74.0693,-46.6939 74.4026,-36.1043 67.5383,-44.1748 74.0693,-46.6939"/>
<g id="a_edge1&#45;headlabel"><a xlink:href="dir_000006_000008.html" target="_top" xlink:title="2">
<text text-anchor="middle" x="75.4248" y="-48.5695" font-family="Helvetica,sans-Serif" font-size="10.00">2</text>
</a>
</g>
</g>
</g>
</svg>
