<?xml version="1.0" encoding="UTF-8" standalone="no"?>
<!DOCTYPE svg PUBLIC "-//W3C//DTD SVG 1.1//EN"
 "http://www.w3.org/Graphics/SVG/1.1/DTD/svg11.dtd">
<!-- Generated by graphviz version 2.38.0 (20140413.2041)
 -->
<!-- Title: /home/travis/build/PO&#45;31/QtReports/qtreports/include/qtreports/engine.hpp Pages: 1 -->
<svg width="1143pt" height="106pt"
 viewBox="0.00 0.00 1142.50 106.00" xmlns="http://www.w3.org/2000/svg" xmlns:xlink="http://www.w3.org/1999/xlink">
<g id="graph0" class="graph" transform="scale(1 1) rotate(0) translate(4 102)">
<title>/home/travis/build/PO&#45;31/QtReports/qtreports/include/qtreports/engine.hpp</title>
<!-- Node1 -->
<g id="node1" class="node"><title>Node1</title>
<polygon fill="#bfbfbf" stroke="black" points="410,-56.5 410,-97.5 567,-97.5 567,-56.5 410,-56.5"/>
<text text-anchor="start" x="418" y="-85.5" font-family="Helvetica,sans-Serif" font-size="10.00">/home/travis/build</text>
<text text-anchor="start" x="418" y="-74.5" font-family="Helvetica,sans-Serif" font-size="10.00">/PO&#45;31/QtReports/qtreports</text>
<text text-anchor="middle" x="488.5" y="-63.5" font-family="Helvetica,sans-Serif" font-size="10.00">/include/qtreports/engine.hpp</text>
</g>
<!-- Node2 -->
<g id="node2" class="node"><title>Node2</title>
<polygon fill="none" stroke="#bfbfbf" points="0,-0.5 0,-19.5 55,-19.5 55,-0.5 0,-0.5"/>
<text text-anchor="middle" x="27.5" y="-7.5" font-family="Helvetica,sans-Serif" font-size="10.00">QObject</text>
</g>
<!-- Node1&#45;&gt;Node2 -->
<g id="edge1" class="edge"><title>Node1&#45;&gt;Node2</title>
<path fill="none" stroke="midnightblue" d="M409.741,-68.3389C326.358,-59.6136 190.784,-43.6787 65.4937,-20.2155"/>
<polygon fill="midnightblue" stroke="midnightblue" points="65.8152,-16.7142 55.3386,-18.2926 64.5128,-23.592 65.8152,-16.7142"/>
</g>
<!-- Node3 -->
<g id="node3" class="node"><title>Node3</title>
<polygon fill="none" stroke="#bfbfbf" points="73,-0.5 73,-19.5 126,-19.5 126,-0.5 73,-0.5"/>
<text text-anchor="middle" x="99.5" y="-7.5" font-family="Helvetica,sans-Serif" font-size="10.00">QString</text>
</g>
<!-- Node1&#45;&gt;Node3 -->
<g id="edge2" class="edge"><title>Node1&#45;&gt;Node3</title>
<path fill="none" stroke="midnightblue" d="M409.98,-65.5557C340.522,-55.8558 236.266,-40.1746 136.162,-19.9784"/>
<polygon fill="midnightblue" stroke="midnightblue" points="136.674,-16.5109 126.177,-17.9458 135.278,-23.3702 136.674,-16.5109"/>
</g>
<!-- Node4 -->
<g id="node4" class="node"><title>Node4</title>
<polygon fill="none" stroke="#bfbfbf" points="144.5,-0.5 144.5,-19.5 202.5,-19.5 202.5,-0.5 144.5,-0.5"/>
<text text-anchor="middle" x="173.5" y="-7.5" font-family="Helvetica,sans-Serif" font-size="10.00">QVariant</text>
</g>
<!-- Node1&#45;&gt;Node4 -->
<g id="edge3" class="edge"><title>Node1&#45;&gt;Node4</title>
<path fill="none" stroke="midnightblue" d="M409.851,-60.8191C356.82,-50.4153 285.028,-36.008 212.727,-20.2156"/>
<polygon fill="midnightblue" stroke="midnightblue" points="213.041,-16.7014 202.524,-17.9783 211.542,-23.539 213.041,-16.7014"/>
</g>
<!-- Node5 -->
<g id="node5" class="node"><title>Node5</title>
<polygon fill="none" stroke="#bfbfbf" points="220.5,-0.5 220.5,-19.5 264.5,-19.5 264.5,-0.5 220.5,-0.5"/>
<text text-anchor="middle" x="242.5" y="-7.5" font-family="Helvetica,sans-Serif" font-size="10.00">QMap</text>
</g>
<!-- Node1&#45;&gt;Node5 -->
<g id="edge4" class="edge"><title>Node1&#45;&gt;Node5</title>
<path fill="none" stroke="midnightblue" d="M411.492,-56.4939C372.937,-46.5971 325.323,-34.1797 274.662,-20.2707"/>
<polygon fill="midnightblue" stroke="midnightblue" points="275.4,-16.8439 264.83,-17.5631 273.542,-23.5927 275.4,-16.8439"/>
</g>
<!-- Node6 -->
<g id="node6" class="node"><title>Node6</title>
<polygon fill="none" stroke="#bfbfbf" points="283,-0.5 283,-19.5 338,-19.5 338,-0.5 283,-0.5"/>
<text text-anchor="middle" x="310.5" y="-7.5" font-family="Helvetica,sans-Serif" font-size="10.00">QVector</text>
</g>
<!-- Node1&#45;&gt;Node6 -->
<g id="edge5" class="edge"><title>Node1&#45;&gt;Node6</title>
<path fill="none" stroke="midnightblue" d="M435.094,-56.4979C405.442,-45.6697 369.478,-32.5369 343.826,-23.1696"/>
<polygon fill="midnightblue" stroke="midnightblue" points="344.788,-19.795 334.195,-19.6525 342.387,-26.3704 344.788,-19.795"/>
</g>
<!-- Node7 -->
<g id="node7" class="node"><title>Node7</title>
<polygon fill="none" stroke="#bfbfbf" points="356,-0.5 356,-19.5 427,-19.5 427,-0.5 356,-0.5"/>
<text text-anchor="middle" x="391.5" y="-7.5" font-family="Helvetica,sans-Serif" font-size="10.00">QSqlRecord</text>
</g>
<!-- Node1&#45;&gt;Node7 -->
<g id="edge6" class="edge"><title>Node1&#45;&gt;Node7</title>
<path fill="none" stroke="midnightblue" d="M459.397,-56.4979C444.525,-46.5321 426.74,-34.6142 413.103,-25.4764"/>
<polygon fill="midnightblue" stroke="midnightblue" points="414.668,-22.3117 404.412,-19.6525 410.771,-28.1268 414.668,-22.3117"/>
</g>
<!-- Node8 -->
<g id="node8" class="node"><title>Node8</title>
<polygon fill="none" stroke="#bfbfbf" points="445.5,-0.5 445.5,-19.5 531.5,-19.5 531.5,-0.5 445.5,-0.5"/>
<text text-anchor="middle" x="488.5" y="-7.5" font-family="Helvetica,sans-Serif" font-size="10.00">QSqlDatabase</text>
</g>
<!-- Node1&#45;&gt;Node8 -->
<g id="edge7" class="edge"><title>Node1&#45;&gt;Node8</title>
<path fill="none" stroke="midnightblue" d="M488.5,-56.4979C488.5,-48.0653 488.5,-38.2351 488.5,-29.874"/>
<polygon fill="midnightblue" stroke="midnightblue" points="492,-29.6525 488.5,-19.6525 485,-29.6525 492,-29.6525"/>
</g>
<!-- Node9 -->
<g id="node9" class="node"><title>Node9</title>
<polygon fill="none" stroke="#bfbfbf" points="549.5,-0.5 549.5,-19.5 645.5,-19.5 645.5,-0.5 549.5,-0.5"/>
<text text-anchor="middle" x="597.5" y="-7.5" font-family="Helvetica,sans-Serif" font-size="10.00">QSqlQueryModel</text>
</g>
<!-- Node1&#45;&gt;Node9 -->
<g id="edge8" class="edge"><title>Node1&#45;&gt;Node9</title>
<path fill="none" stroke="midnightblue" d="M521.204,-56.4979C538.237,-46.3405 558.671,-34.1551 574.103,-24.9523"/>
<polygon fill="midnightblue" stroke="midnightblue" points="576.194,-27.7804 582.99,-19.6525 572.609,-21.7682 576.194,-27.7804"/>
</g>
<!-- Node10 -->
<g id="node10" class="node"><title>Node10</title>
<polygon fill="none" stroke="#bfbfbf" points="663.5,-0.5 663.5,-19.5 723.5,-19.5 723.5,-0.5 663.5,-0.5"/>
<text text-anchor="middle" x="693.5" y="-7.5" font-family="Helvetica,sans-Serif" font-size="10.00">QSqlField</text>
</g>
<!-- Node1&#45;&gt;Node10 -->
<g id="edge9" class="edge"><title>Node1&#45;&gt;Node10</title>
<path fill="none" stroke="midnightblue" d="M550.007,-56.4979C584.867,-45.4445 627.302,-31.9895 656.947,-22.59"/>
<polygon fill="midnightblue" stroke="midnightblue" points="658.006,-25.9259 666.481,-19.5671 655.891,-19.2533 658.006,-25.9259"/>
</g>
<!-- Node11 -->
<g id="node11" class="node"><title>Node11</title>
<polygon fill="none" stroke="#bfbfbf" points="741.5,-0.5 741.5,-19.5 797.5,-19.5 797.5,-0.5 741.5,-0.5"/>
<text text-anchor="middle" x="769.5" y="-7.5" font-family="Helvetica,sans-Serif" font-size="10.00">QPrinter</text>
</g>
<!-- Node1&#45;&gt;Node11 -->
<g id="edge10" class="edge"><title>Node1&#45;&gt;Node11</title>
<path fill="none" stroke="midnightblue" d="M567.129,-58.2268C612.451,-47.9181 670.769,-34.5452 731.129,-20.3034"/>
<polygon fill="midnightblue" stroke="midnightblue" points="732.3,-23.6232 741.227,-17.9172 730.69,-16.8108 732.3,-23.6232"/>
</g>
<!-- Node12 -->
<g id="node12" class="node"><title>Node12</title>
<polygon fill="none" stroke="#bfbfbf" points="815,-0.5 815,-19.5 930,-19.5 930,-0.5 815,-0.5"/>
<text text-anchor="middle" x="872.5" y="-7.5" font-family="Helvetica,sans-Serif" font-size="10.00">QAbstractItemModel</text>
</g>
<!-- Node1&#45;&gt;Node12 -->
<g id="edge11" class="edge"><title>Node1&#45;&gt;Node12</title>
<path fill="none" stroke="midnightblue" d="M567.135,-62.6894C639.616,-50.4204 745.679,-32.4671 811.821,-21.2711"/>
<polygon fill="midnightblue" stroke="midnightblue" points="812.807,-24.6541 822.083,-19.5341 811.639,-17.7523 812.807,-24.6541"/>
</g>
<!-- Node13 -->
<g id="node13" class="node"><title>Node13</title>
<polygon fill="none" stroke="#bfbfbf" points="948.5,-0.5 948.5,-19.5 1060.5,-19.5 1060.5,-0.5 948.5,-0.5"/>
<text text-anchor="middle" x="1004.5" y="-7.5" font-family="Helvetica,sans-Serif" font-size="10.00">QPrintPreviewDialog</text>
</g>
<!-- Node1&#45;&gt;Node13 -->
<g id="edge12" class="edge"><title>Node1&#45;&gt;Node13</title>
<path fill="none" stroke="midnightblue" d="M567.163,-66.5721C654.997,-55.9682 801.676,-38.031 938.253,-20.1488"/>
<polygon fill="midnightblue" stroke="midnightblue" points="939.027,-23.5774 948.487,-18.8065 938.117,-16.6369 939.027,-23.5774"/>
</g>
<!-- Node14 -->
<g id="node14" class="node"><title>Node14</title>
<polygon fill="none" stroke="#bfbfbf" points="1078.5,-0.5 1078.5,-19.5 1134.5,-19.5 1134.5,-0.5 1078.5,-0.5"/>
<text text-anchor="middle" x="1106.5" y="-7.5" font-family="Helvetica,sans-Serif" font-size="10.00">QDebug</text>
</g>
<!-- Node1&#45;&gt;Node14 -->
<g id="edge13" class="edge"><title>Node1&#45;&gt;Node14</title>
<path fill="none" stroke="midnightblue" d="M567.436,-71.9671C677.662,-65.5406 883.979,-50.624 1068.43,-19.9582"/>
<polygon fill="midnightblue" stroke="midnightblue" points="1069.02,-23.4069 1078.3,-18.297 1067.86,-16.5038 1069.02,-23.4069"/>
</g>
</g>
</svg>
