<?xml version="1.0" encoding="UTF-8" standalone="no"?>
<!DOCTYPE svg PUBLIC "-//W3C//DTD SVG 1.1//EN"
 "http://www.w3.org/Graphics/SVG/1.1/DTD/svg11.dtd">
<!-- Generated by graphviz version 2.38.0 (20140413.2041)
 -->
<!-- Title: /home/travis/build/PO&#45;31/QtReports/qtreports/src/tags/field.cpp Pages: 1 -->
<svg width="375pt" height="218pt"
 viewBox="0.00 0.00 375.00 218.00" xmlns="http://www.w3.org/2000/svg" xmlns:xlink="http://www.w3.org/1999/xlink">
<g id="graph0" class="graph" transform="scale(1 1) rotate(0) translate(4 214)">
<title>/home/travis/build/PO&#45;31/QtReports/qtreports/src/tags/field.cpp</title>
<!-- Node1 -->
<g id="node1" class="node"><title>Node1</title>
<polygon fill="#bfbfbf" stroke="black" points="119,-168.5 119,-209.5 265,-209.5 265,-168.5 119,-168.5"/>
<text text-anchor="start" x="127" y="-197.5" font-family="Helvetica,sans-Serif" font-size="10.00">/home/travis/build</text>
<text text-anchor="start" x="127" y="-186.5" font-family="Helvetica,sans-Serif" font-size="10.00">/PO&#45;31/QtReports/qtreports</text>
<text text-anchor="middle" x="192" y="-175.5" font-family="Helvetica,sans-Serif" font-size="10.00">/src/tags/field.cpp</text>
</g>
<!-- Node2 -->
<g id="node2" class="node"><title>Node2</title>
<g id="a_node2"><a xlink:href="field_8hpp.html" target="_top" xlink:title="field.hpp">
<polygon fill="none" stroke="black" points="163.5,-112.5 163.5,-131.5 220.5,-131.5 220.5,-112.5 163.5,-112.5"/>
<text text-anchor="middle" x="192" y="-119.5" font-family="Helvetica,sans-Serif" font-size="10.00">field.hpp</text>
</a>
</g>
</g>
<!-- Node1&#45;&gt;Node2 -->
<g id="edge1" class="edge"><title>Node1&#45;&gt;Node2</title>
<path fill="none" stroke="midnightblue" d="M192,-168.498C192,-160.065 192,-150.235 192,-141.874"/>
<polygon fill="midnightblue" stroke="midnightblue" points="195.5,-141.652 192,-131.652 188.5,-141.653 195.5,-141.652"/>
</g>
<!-- Node3 -->
<g id="node3" class="node"><title>Node3</title>
<polygon fill="none" stroke="#bfbfbf" points="0,-0.5 0,-19.5 92,-19.5 92,-0.5 0,-0.5"/>
<text text-anchor="middle" x="46" y="-7.5" font-family="Helvetica,sans-Serif" font-size="10.00">QSharedPointer</text>
</g>
<!-- Node2&#45;&gt;Node3 -->
<g id="edge2" class="edge"><title>Node2&#45;&gt;Node3</title>
<path fill="none" stroke="midnightblue" d="M163.315,-117.768C135.395,-113.152 93.5466,-102.109 68,-76 55.903,-63.6368 50.4511,-44.3899 47.9979,-30.0439"/>
<polygon fill="midnightblue" stroke="midnightblue" points="51.4222,-29.2502 46.6037,-19.8145 44.4863,-30.1956 51.4222,-29.2502"/>
</g>
<!-- Node4 -->
<g id="node4" class="node"><title>Node4</title>
<polygon fill="none" stroke="#bfbfbf" points="110,-0.5 110,-19.5 168,-19.5 168,-0.5 110,-0.5"/>
<text text-anchor="middle" x="139" y="-7.5" font-family="Helvetica,sans-Serif" font-size="10.00">QVariant</text>
</g>
<!-- Node2&#45;&gt;Node4 -->
<g id="edge3" class="edge"><title>Node2&#45;&gt;Node4</title>
<path fill="none" stroke="midnightblue" d="M187.841,-112.368C179.172,-94.376 159.02,-52.5503 147.493,-28.6267"/>
<polygon fill="midnightblue" stroke="midnightblue" points="150.633,-27.081 143.14,-19.5914 144.327,-30.1195 150.633,-27.081"/>
</g>
<!-- Node5 -->
<g id="node5" class="node"><title>Node5</title>
<polygon fill="none" stroke="#bfbfbf" points="186.5,-0.5 186.5,-19.5 239.5,-19.5 239.5,-0.5 186.5,-0.5"/>
<text text-anchor="middle" x="213" y="-7.5" font-family="Helvetica,sans-Serif" font-size="10.00">QString</text>
</g>
<!-- Node2&#45;&gt;Node5 -->
<g id="edge4" class="edge"><title>Node2&#45;&gt;Node5</title>
<path fill="none" stroke="midnightblue" d="M193.648,-112.368C197.037,-94.617 204.855,-53.6664 209.45,-29.5974"/>
<polygon fill="midnightblue" stroke="midnightblue" points="212.922,-30.0704 211.36,-19.5914 206.047,-28.7577 212.922,-30.0704"/>
</g>
<!-- Node6 -->
<g id="node6" class="node"><title>Node6</title>
<polygon fill="none" stroke="#bfbfbf" points="239.5,-56.5 239.5,-75.5 294.5,-75.5 294.5,-56.5 239.5,-56.5"/>
<text text-anchor="middle" x="267" y="-63.5" font-family="Helvetica,sans-Serif" font-size="10.00">QVector</text>
</g>
<!-- Node2&#45;&gt;Node6 -->
<g id="edge5" class="edge"><title>Node2&#45;&gt;Node6</title>
<path fill="none" stroke="midnightblue" d="M204.05,-112.324C215.463,-104.107 232.831,-91.6017 246.435,-81.8069"/>
<polygon fill="midnightblue" stroke="midnightblue" points="248.66,-84.5174 254.731,-75.8339 244.57,-78.8366 248.66,-84.5174"/>
</g>
<!-- Node7 -->
<g id="node7" class="node"><title>Node7</title>
<polygon fill="none" stroke="#bfbfbf" points="313,-56.5 313,-75.5 367,-75.5 367,-56.5 313,-56.5"/>
<text text-anchor="middle" x="340" y="-63.5" font-family="Helvetica,sans-Serif" font-size="10.00">QImage</text>
</g>
<!-- Node2&#45;&gt;Node7 -->
<g id="edge6" class="edge"><title>Node2&#45;&gt;Node7</title>
<path fill="none" stroke="midnightblue" d="M215.451,-112.444C240.133,-103.438 279.185,-89.1891 306.977,-79.049"/>
<polygon fill="midnightblue" stroke="midnightblue" points="308.464,-82.2321 316.659,-75.5164 306.065,-75.6561 308.464,-82.2321"/>
</g>
<!-- Node8 -->
<g id="node8" class="node"><title>Node8</title>
<g id="a_node8"><a xlink:href="object_8hpp.html" target="_top" xlink:title="object.hpp">
<polygon fill="none" stroke="black" points="77.5,-56.5 77.5,-75.5 144.5,-75.5 144.5,-56.5 77.5,-56.5"/>
<text text-anchor="middle" x="111" y="-63.5" font-family="Helvetica,sans-Serif" font-size="10.00">object.hpp</text>
</a>
</g>
</g>
<!-- Node2&#45;&gt;Node8 -->
<g id="edge7" class="edge"><title>Node2&#45;&gt;Node8</title>
<path fill="none" stroke="midnightblue" d="M178.986,-112.324C166.468,-103.979 147.318,-91.2122 132.529,-81.3524"/>
<polygon fill="midnightblue" stroke="midnightblue" points="134.244,-78.2894 123.982,-75.6545 130.361,-84.1137 134.244,-78.2894"/>
</g>
<!-- Node8&#45;&gt;Node3 -->
<g id="edge10" class="edge"><title>Node8&#45;&gt;Node3</title>
<path fill="none" stroke="midnightblue" d="M100.557,-56.324C90.8538,-48.2631 76.1847,-36.0765 64.5003,-26.3695"/>
<polygon fill="midnightblue" stroke="midnightblue" points="66.5619,-23.532 56.6334,-19.8339 62.0887,-28.9163 66.5619,-23.532"/>
</g>
<!-- Node8&#45;&gt;Node4 -->
<g id="edge9" class="edge"><title>Node8&#45;&gt;Node4</title>
<path fill="none" stroke="midnightblue" d="M115.624,-56.083C119.456,-48.6913 125.024,-37.9533 129.765,-28.8111"/>
<polygon fill="midnightblue" stroke="midnightblue" points="132.966,-30.2398 134.462,-19.7511 126.752,-27.0175 132.966,-30.2398"/>
</g>
<!-- Node8&#45;&gt;Node5 -->
<g id="edge8" class="edge"><title>Node8&#45;&gt;Node5</title>
<path fill="none" stroke="midnightblue" d="M127.388,-56.324C143.671,-47.7034 168.867,-34.3643 187.716,-24.3855"/>
<polygon fill="midnightblue" stroke="midnightblue" points="189.452,-27.4267 196.653,-19.6545 186.177,-21.2402 189.452,-27.4267"/>
</g>
</g>
</svg>
