<?xml version="1.0" encoding="UTF-8" standalone="no"?>
<!DOCTYPE svg PUBLIC "-//W3C//DTD SVG 1.1//EN"
 "http://www.w3.org/Graphics/SVG/1.1/DTD/svg11.dtd">
<!-- Generated by graphviz version 2.38.0 (20140413.2041)
 -->
<!-- Title: Иерархия классов. Графический вид. Pages: 1 -->
<svg width="555pt" height="733pt"
 viewBox="0.00 0.00 555.00 732.50" xmlns="http://www.w3.org/2000/svg" xmlns:xlink="http://www.w3.org/1999/xlink">
<g id="graph0" class="graph" transform="scale(1 1) rotate(0) translate(4 728.5)">
<title>Иерархия классов. Графический вид.</title>
<!-- Node1 -->
<g id="node1" class="node"><title>Node1</title>
<g id="a_node1"><a xlink:href="classqtreports_1_1detail_1_1_object.html" target="_top" xlink:title="Базовый класс для любого тэга ">
<polygon fill="none" stroke="black" points="0,-508.5 0,-538.5 99,-538.5 99,-508.5 0,-508.5"/>
<text text-anchor="start" x="8" y="-526.5" font-family="Helvetica,sans-Serif" font-size="10.00">qtreports::detail::</text>
<text text-anchor="middle" x="49.5" y="-515.5" font-family="Helvetica,sans-Serif" font-size="10.00">Object</text>
</a>
</g>
</g>
<!-- Node2 -->
<g id="node2" class="node"><title>Node2</title>
<g id="a_node2"><a xlink:href="classqtreports_1_1detail_1_1_box.html" target="_top" xlink:title="qtreports::detail::Box">
<polygon fill="none" stroke="black" points="135,-705 135,-724 252,-724 252,-705 135,-705"/>
<text text-anchor="middle" x="193.5" y="-712" font-family="Helvetica,sans-Serif" font-size="10.00">qtreports::detail::Box</text>
</a>
</g>
</g>
<!-- Node1&#45;&gt;Node2 -->
<g id="edge1" class="edge"><title>Node1&#45;&gt;Node2</title>
<path fill="none" stroke="midnightblue" d="M56.2233,-548.597C66.005,-585.898 89.4496,-655.819 135,-695.5 139.439,-699.367 144.688,-702.452 150.179,-704.911"/>
<polygon fill="midnightblue" stroke="midnightblue" points="59.5366,-547.419 53.7178,-538.565 52.7452,-549.115 59.5366,-547.419"/>
</g>
<!-- Node3 -->
<g id="node3" class="node"><title>Node3</title>
<g id="a_node3"><a xlink:href="classqtreports_1_1detail_1_1_crosstab_group.html" target="_top" xlink:title="qtreports::detail::\lCrosstabGroup">
<polygon fill="none" stroke="black" points="144,-655.5 144,-685.5 243,-685.5 243,-655.5 144,-655.5"/>
<text text-anchor="start" x="152" y="-673.5" font-family="Helvetica,sans-Serif" font-size="10.00">qtreports::detail::</text>
<text text-anchor="middle" x="193.5" y="-662.5" font-family="Helvetica,sans-Serif" font-size="10.00">CrosstabGroup</text>
</a>
</g>
</g>
<!-- Node1&#45;&gt;Node3 -->
<g id="edge2" class="edge"><title>Node1&#45;&gt;Node3</title>
<path fill="none" stroke="midnightblue" d="M61.9733,-548.095C75.8288,-575.43 101.507,-619.297 135,-646.5 139.114,-649.842 143.76,-652.783 148.584,-655.356"/>
<polygon fill="midnightblue" stroke="midnightblue" points="64.9698,-546.257 57.4109,-538.833 58.6903,-549.351 64.9698,-546.257"/>
</g>
<!-- Node4 -->
<g id="node4" class="node"><title>Node4</title>
<g id="a_node4"><a xlink:href="classqtreports_1_1detail_1_1_crosstab_section.html" target="_top" xlink:title="qtreports::detail::\lCrosstabSection">
<polygon fill="none" stroke="black" points="144,-606.5 144,-636.5 243,-636.5 243,-606.5 144,-606.5"/>
<text text-anchor="start" x="152" y="-624.5" font-family="Helvetica,sans-Serif" font-size="10.00">qtreports::detail::</text>
<text text-anchor="middle" x="193.5" y="-613.5" font-family="Helvetica,sans-Serif" font-size="10.00">CrosstabSection</text>
</a>
</g>
</g>
<!-- Node1&#45;&gt;Node4 -->
<g id="edge3" class="edge"><title>Node1&#45;&gt;Node4</title>
<path fill="none" stroke="midnightblue" d="M72.2305,-546.1C88.422,-562.004 111.676,-582.963 135,-597.5 140.233,-600.761 145.986,-603.76 151.768,-606.452"/>
<polygon fill="midnightblue" stroke="midnightblue" points="74.4257,-543.345 64.8799,-538.748 69.4757,-548.295 74.4257,-543.345"/>
</g>
<!-- Node5 -->
<g id="node5" class="node"><title>Node5</title>
<g id="a_node5"><a xlink:href="classqtreports_1_1detail_1_1_field.html" target="_top" xlink:title="Класс, реализующий тэг &lt;field&gt; ">
<polygon fill="none" stroke="black" points="144,-557.5 144,-587.5 243,-587.5 243,-557.5 144,-557.5"/>
<text text-anchor="start" x="152" y="-575.5" font-family="Helvetica,sans-Serif" font-size="10.00">qtreports::detail::</text>
<text text-anchor="middle" x="193.5" y="-564.5" font-family="Helvetica,sans-Serif" font-size="10.00">Field</text>
</a>
</g>
</g>
<!-- Node1&#45;&gt;Node5 -->
<g id="edge4" class="edge"><title>Node1&#45;&gt;Node5</title>
<path fill="none" stroke="midnightblue" d="M103.792,-541.89C118.578,-546.992 134.457,-552.471 148.637,-557.364"/>
<polygon fill="midnightblue" stroke="midnightblue" points="104.858,-538.555 94.2634,-538.601 102.575,-545.172 104.858,-538.555"/>
</g>
<!-- Node6 -->
<g id="node6" class="node"><title>Node6</title>
<g id="a_node6"><a xlink:href="classqtreports_1_1detail_1_1_query_string.html" target="_top" xlink:title="Класс, реализующий тэг &lt;queryString&gt; ">
<polygon fill="none" stroke="black" points="144,-508.5 144,-538.5 243,-538.5 243,-508.5 144,-508.5"/>
<text text-anchor="start" x="152" y="-526.5" font-family="Helvetica,sans-Serif" font-size="10.00">qtreports::detail::</text>
<text text-anchor="middle" x="193.5" y="-515.5" font-family="Helvetica,sans-Serif" font-size="10.00">QueryString</text>
</a>
</g>
</g>
<!-- Node1&#45;&gt;Node6 -->
<g id="edge5" class="edge"><title>Node1&#45;&gt;Node6</title>
<path fill="none" stroke="midnightblue" d="M109.594,-523.5C120.892,-523.5 132.604,-523.5 143.542,-523.5"/>
<polygon fill="midnightblue" stroke="midnightblue" points="109.368,-520 99.3683,-523.5 109.368,-527 109.368,-520"/>
</g>
<!-- Node7 -->
<g id="node7" class="node"><title>Node7</title>
<g id="a_node7"><a xlink:href="classqtreports_1_1detail_1_1_report.html" target="_top" xlink:title="Класс, реализующий тэг &lt;report&gt; ">
<polygon fill="none" stroke="black" points="144,-459.5 144,-489.5 243,-489.5 243,-459.5 144,-459.5"/>
<text text-anchor="start" x="152" y="-477.5" font-family="Helvetica,sans-Serif" font-size="10.00">qtreports::detail::</text>
<text text-anchor="middle" x="193.5" y="-466.5" font-family="Helvetica,sans-Serif" font-size="10.00">Report</text>
</a>
</g>
</g>
<!-- Node1&#45;&gt;Node7 -->
<g id="edge6" class="edge"><title>Node1&#45;&gt;Node7</title>
<path fill="none" stroke="midnightblue" d="M103.792,-505.11C118.578,-500.008 134.457,-494.529 148.637,-489.636"/>
<polygon fill="midnightblue" stroke="midnightblue" points="102.575,-501.828 94.2634,-508.399 104.858,-508.445 102.575,-501.828"/>
</g>
<!-- Node8 -->
<g id="node8" class="node"><title>Node8</title>
<g id="a_node8"><a xlink:href="classqtreports_1_1detail_1_1_section.html" target="_top" xlink:title="Базовый класс для тэгов &lt;title&gt;, &lt;detail&gt;,. ">
<polygon fill="none" stroke="black" points="144,-410.5 144,-440.5 243,-440.5 243,-410.5 144,-410.5"/>
<text text-anchor="start" x="152" y="-428.5" font-family="Helvetica,sans-Serif" font-size="10.00">qtreports::detail::</text>
<text text-anchor="middle" x="193.5" y="-417.5" font-family="Helvetica,sans-Serif" font-size="10.00">Section</text>
</a>
</g>
</g>
<!-- Node1&#45;&gt;Node8 -->
<g id="edge7" class="edge"><title>Node1&#45;&gt;Node8</title>
<path fill="none" stroke="midnightblue" d="M72.6462,-501.043C88.8803,-485.448 112.011,-464.955 135,-450.5 140.713,-446.908 147.032,-443.589 153.327,-440.622"/>
<polygon fill="midnightblue" stroke="midnightblue" points="69.9688,-498.766 65.2615,-508.257 74.8605,-503.773 69.9688,-498.766"/>
</g>
<!-- Node13 -->
<g id="node13" class="node"><title>Node13</title>
<g id="a_node13"><a xlink:href="classqtreports_1_1detail_1_1_style.html" target="_top" xlink:title="Класс, реализующий тэг &lt;style&gt; ">
<polygon fill="none" stroke="black" points="144,-361.5 144,-391.5 243,-391.5 243,-361.5 144,-361.5"/>
<text text-anchor="start" x="152" y="-379.5" font-family="Helvetica,sans-Serif" font-size="10.00">qtreports::detail::</text>
<text text-anchor="middle" x="193.5" y="-368.5" font-family="Helvetica,sans-Serif" font-size="10.00">Style</text>
</a>
</g>
</g>
<!-- Node1&#45;&gt;Node13 -->
<g id="edge12" class="edge"><title>Node1&#45;&gt;Node13</title>
<path fill="none" stroke="midnightblue" d="M62.0951,-499.198C76.0614,-472.169 101.839,-428.734 135,-401.5 139.627,-397.7 144.919,-394.379 150.378,-391.507"/>
<polygon fill="midnightblue" stroke="midnightblue" points="58.857,-497.847 57.4923,-508.353 65.1112,-500.991 58.857,-497.847"/>
</g>
<!-- Node14 -->
<g id="node14" class="node"><title>Node14</title>
<g id="a_node14"><a xlink:href="classqtreports_1_1detail_1_1_widget.html" target="_top" xlink:title="Базовый класс для тэгов, которые подлежат отображению ">
<polygon fill="none" stroke="black" points="144,-199.5 144,-229.5 243,-229.5 243,-199.5 144,-199.5"/>
<text text-anchor="start" x="152" y="-217.5" font-family="Helvetica,sans-Serif" font-size="10.00">qtreports::detail::</text>
<text text-anchor="middle" x="193.5" y="-206.5" font-family="Helvetica,sans-Serif" font-size="10.00">Widget</text>
</a>
</g>
</g>
<!-- Node1&#45;&gt;Node14 -->
<g id="edge13" class="edge"><title>Node1&#45;&gt;Node14</title>
<path fill="none" stroke="midnightblue" d="M61.8223,-498.862C90.0317,-437.477 162.811,-279.104 185.583,-229.551"/>
<polygon fill="midnightblue" stroke="midnightblue" points="58.5373,-497.629 57.5418,-508.177 64.8978,-500.552 58.5373,-497.629"/>
</g>
<!-- Node9 -->
<g id="node9" class="node"><title>Node9</title>
<g id="a_node9"><a xlink:href="classqtreports_1_1detail_1_1_detail.html" target="_top" xlink:title="Класс, реализующий тэг &lt;detail&gt; ">
<polygon fill="none" stroke="black" points="300.5,-508.5 300.5,-538.5 399.5,-538.5 399.5,-508.5 300.5,-508.5"/>
<text text-anchor="start" x="308.5" y="-526.5" font-family="Helvetica,sans-Serif" font-size="10.00">qtreports::detail::</text>
<text text-anchor="middle" x="350" y="-515.5" font-family="Helvetica,sans-Serif" font-size="10.00">Detail</text>
</a>
</g>
</g>
<!-- Node8&#45;&gt;Node9 -->
<g id="edge8" class="edge"><title>Node8&#45;&gt;Node9</title>
<path fill="none" stroke="midnightblue" d="M245.53,-445.855C247.783,-447.318 249.953,-448.866 252,-450.5 273.12,-467.358 266.586,-483.017 288,-499.5 292.419,-502.901 297.381,-505.88 302.517,-508.473"/>
<polygon fill="midnightblue" stroke="midnightblue" points="246.93,-442.621 236.525,-440.627 243.415,-448.674 246.93,-442.621"/>
</g>
<!-- Node10 -->
<g id="node10" class="node"><title>Node10</title>
<g id="a_node10"><a xlink:href="classqtreports_1_1detail_1_1_group.html" target="_top" xlink:title="Класс, реализующий тэг &lt;group&gt; ">
<polygon fill="none" stroke="black" points="300.5,-459.5 300.5,-489.5 399.5,-489.5 399.5,-459.5 300.5,-459.5"/>
<text text-anchor="start" x="308.5" y="-477.5" font-family="Helvetica,sans-Serif" font-size="10.00">qtreports::detail::</text>
<text text-anchor="middle" x="350" y="-466.5" font-family="Helvetica,sans-Serif" font-size="10.00">Group</text>
</a>
</g>
</g>
<!-- Node8&#45;&gt;Node10 -->
<g id="edge9" class="edge"><title>Node8&#45;&gt;Node10</title>
<path fill="none" stroke="midnightblue" d="M252.072,-443.759C268.368,-448.927 285.915,-454.492 301.541,-459.448"/>
<polygon fill="midnightblue" stroke="midnightblue" points="252.706,-440.288 242.116,-440.601 250.59,-446.961 252.706,-440.288"/>
</g>
<!-- Node11 -->
<g id="node11" class="node"><title>Node11</title>
<g id="a_node11"><a xlink:href="classqtreports_1_1detail_1_1_summary.html" target="_top" xlink:title="Класс, реализующий тэг ">
<polygon fill="none" stroke="black" points="300.5,-410.5 300.5,-440.5 399.5,-440.5 399.5,-410.5 300.5,-410.5"/>
<text text-anchor="start" x="308.5" y="-428.5" font-family="Helvetica,sans-Serif" font-size="10.00">qtreports::detail::</text>
<text text-anchor="middle" x="350" y="-417.5" font-family="Helvetica,sans-Serif" font-size="10.00">Summary</text>
</a>
</g>
</g>
<!-- Node8&#45;&gt;Node11 -->
<g id="edge10" class="edge"><title>Node8&#45;&gt;Node11</title>
<path fill="none" stroke="midnightblue" d="M253.41,-425.5C268.939,-425.5 285.518,-425.5 300.433,-425.5"/>
<polygon fill="midnightblue" stroke="midnightblue" points="253.385,-422 243.385,-425.5 253.385,-429 253.385,-422"/>
</g>
<!-- Node12 -->
<g id="node12" class="node"><title>Node12</title>
<g id="a_node12"><a xlink:href="classqtreports_1_1detail_1_1_title.html" target="_top" xlink:title="Класс, реализующий тэг &lt;title&gt; ">
<polygon fill="none" stroke="black" points="300.5,-361.5 300.5,-391.5 399.5,-391.5 399.5,-361.5 300.5,-361.5"/>
<text text-anchor="start" x="308.5" y="-379.5" font-family="Helvetica,sans-Serif" font-size="10.00">qtreports::detail::</text>
<text text-anchor="middle" x="350" y="-368.5" font-family="Helvetica,sans-Serif" font-size="10.00">Title</text>
</a>
</g>
</g>
<!-- Node8&#45;&gt;Node12 -->
<g id="edge11" class="edge"><title>Node8&#45;&gt;Node12</title>
<path fill="none" stroke="midnightblue" d="M252.072,-407.241C268.368,-402.073 285.915,-396.508 301.541,-391.552"/>
<polygon fill="midnightblue" stroke="midnightblue" points="250.59,-404.039 242.116,-410.399 252.706,-410.712 250.59,-404.039"/>
</g>
<!-- Node15 -->
<g id="node15" class="node"><title>Node15</title>
<g id="a_node15"><a xlink:href="classqtreports_1_1detail_1_1_band.html" target="_top" xlink:title="Класс, реализующий тэг &lt;band&gt; ">
<polygon fill="none" stroke="black" points="288,-323 288,-342 412,-342 412,-323 288,-323"/>
<text text-anchor="middle" x="350" y="-330" font-family="Helvetica,sans-Serif" font-size="10.00">qtreports::detail::Band</text>
</a>
</g>
</g>
<!-- Node14&#45;&gt;Node15 -->
<g id="edge14" class="edge"><title>Node14&#45;&gt;Node15</title>
<path fill="none" stroke="midnightblue" d="M210.894,-237.837C227.799,-260.267 256.13,-293.61 288,-313.5 294.116,-317.317 301.059,-320.421 308.015,-322.927"/>
<polygon fill="midnightblue" stroke="midnightblue" points="213.531,-235.516 204.784,-229.538 207.894,-239.666 213.531,-235.516"/>
</g>
<!-- Node16 -->
<g id="node16" class="node"><title>Node16</title>
<g id="a_node16"><a xlink:href="classqtreports_1_1detail_1_1_cell_contents.html" target="_top" xlink:title="qtreports::detail::\lCellContents">
<polygon fill="none" stroke="black" points="300.5,-273.5 300.5,-303.5 399.5,-303.5 399.5,-273.5 300.5,-273.5"/>
<text text-anchor="start" x="308.5" y="-291.5" font-family="Helvetica,sans-Serif" font-size="10.00">qtreports::detail::</text>
<text text-anchor="middle" x="350" y="-280.5" font-family="Helvetica,sans-Serif" font-size="10.00">CellContents</text>
</a>
</g>
</g>
<!-- Node14&#45;&gt;Node16 -->
<g id="edge15" class="edge"><title>Node14&#45;&gt;Node16</title>
<path fill="none" stroke="midnightblue" d="M229.846,-234.654C247.138,-244.19 268.403,-255.442 288,-264.5 294.611,-267.556 301.73,-270.584 308.688,-273.407"/>
<polygon fill="midnightblue" stroke="midnightblue" points="231.125,-231.36 220.684,-229.558 227.722,-237.478 231.125,-231.36"/>
</g>
<!-- Node17 -->
<g id="node17" class="node"><title>Node17</title>
<g id="a_node17"><a xlink:href="classqtreports_1_1detail_1_1_crosstab.html" target="_top" xlink:title="qtreports::detail::\lCrosstab">
<polygon fill="none" stroke="black" points="300.5,-224.5 300.5,-254.5 399.5,-254.5 399.5,-224.5 300.5,-224.5"/>
<text text-anchor="start" x="308.5" y="-242.5" font-family="Helvetica,sans-Serif" font-size="10.00">qtreports::detail::</text>
<text text-anchor="middle" x="350" y="-231.5" font-family="Helvetica,sans-Serif" font-size="10.00">Crosstab</text>
</a>
</g>
</g>
<!-- Node14&#45;&gt;Node17 -->
<g id="edge16" class="edge"><title>Node14&#45;&gt;Node17</title>
<path fill="none" stroke="midnightblue" d="M253.41,-224.032C268.939,-226.545 285.518,-229.228 300.433,-231.641"/>
<polygon fill="midnightblue" stroke="midnightblue" points="253.815,-220.553 243.385,-222.41 252.697,-227.463 253.815,-220.553"/>
</g>
<!-- Node18 -->
<g id="node18" class="node"><title>Node18</title>
<g id="a_node18"><a xlink:href="classqtreports_1_1detail_1_1_ellipse.html" target="_top" xlink:title="Класс, реализующий тэг &lt;ellipse&gt; ">
<polygon fill="none" stroke="black" points="300.5,-175.5 300.5,-205.5 399.5,-205.5 399.5,-175.5 300.5,-175.5"/>
<text text-anchor="start" x="308.5" y="-193.5" font-family="Helvetica,sans-Serif" font-size="10.00">qtreports::detail::</text>
<text text-anchor="middle" x="350" y="-182.5" font-family="Helvetica,sans-Serif" font-size="10.00">Ellipse</text>
</a>
</g>
</g>
<!-- Node14&#45;&gt;Node18 -->
<g id="edge17" class="edge"><title>Node14&#45;&gt;Node18</title>
<path fill="none" stroke="midnightblue" d="M253.41,-205.349C268.939,-202.937 285.518,-200.361 300.433,-198.044"/>
<polygon fill="midnightblue" stroke="midnightblue" points="252.729,-201.913 243.385,-206.906 253.804,-208.83 252.729,-201.913"/>
</g>
<!-- Node19 -->
<g id="node19" class="node"><title>Node19</title>
<g id="a_node19"><a xlink:href="classqtreports_1_1detail_1_1_line.html" target="_top" xlink:title="Класс, реализующий тэг &lt;line&gt; ">
<polygon fill="none" stroke="black" points="290.5,-137 290.5,-156 409.5,-156 409.5,-137 290.5,-137"/>
<text text-anchor="middle" x="350" y="-144" font-family="Helvetica,sans-Serif" font-size="10.00">qtreports::detail::Line</text>
</a>
</g>
</g>
<!-- Node14&#45;&gt;Node19 -->
<g id="edge18" class="edge"><title>Node14&#45;&gt;Node19</title>
<path fill="none" stroke="midnightblue" d="M230.087,-194.556C247.281,-185.356 268.395,-174.687 288,-166.5 297.153,-162.678 307.315,-159.096 316.677,-156.049"/>
<polygon fill="midnightblue" stroke="midnightblue" points="228.099,-191.652 220.972,-199.491 231.432,-197.808 228.099,-191.652"/>
</g>
<!-- Node20 -->
<g id="node20" class="node"><title>Node20</title>
<g id="a_node20"><a xlink:href="classqtreports_1_1detail_1_1_rect.html" target="_top" xlink:title="Класс, реализующий тэг &lt;rect&gt; ">
<polygon fill="none" stroke="black" points="290.5,-99 290.5,-118 409.5,-118 409.5,-99 290.5,-99"/>
<text text-anchor="middle" x="350" y="-106" font-family="Helvetica,sans-Serif" font-size="10.00">qtreports::detail::Rect</text>
</a>
</g>
</g>
<!-- Node14&#45;&gt;Node20 -->
<g id="edge19" class="edge"><title>Node14&#45;&gt;Node20</title>
<path fill="none" stroke="midnightblue" d="M213.501,-191.822C231.015,-172.249 258.669,-144.515 288,-127.5 294.524,-123.715 301.886,-120.6 309.181,-118.067"/>
<polygon fill="midnightblue" stroke="midnightblue" points="210.82,-189.571 206.862,-199.399 216.085,-194.185 210.82,-189.571"/>
</g>
<!-- Node21 -->
<g id="node21" class="node"><title>Node21</title>
<g id="a_node21"><a xlink:href="classqtreports_1_1detail_1_1_text_widget.html" target="_top" xlink:title="Базовый класс для тегов, имеющих текстовое содержание. ">
<polygon fill="none" stroke="black" points="300.5,-49.5 300.5,-79.5 399.5,-79.5 399.5,-49.5 300.5,-49.5"/>
<text text-anchor="start" x="308.5" y="-67.5" font-family="Helvetica,sans-Serif" font-size="10.00">qtreports::detail::</text>
<text text-anchor="middle" x="350" y="-56.5" font-family="Helvetica,sans-Serif" font-size="10.00">TextWidget</text>
</a>
</g>
</g>
<!-- Node14&#45;&gt;Node21 -->
<g id="edge20" class="edge"><title>Node14&#45;&gt;Node21</title>
<path fill="none" stroke="midnightblue" d="M207.239,-190.308C222.922,-162.586 251.961,-117.399 288,-89.5 292.887,-85.7167 298.427,-82.4171 304.126,-79.5656"/>
<polygon fill="midnightblue" stroke="midnightblue" points="204.028,-188.882 202.259,-199.328 210.156,-192.266 204.028,-188.882"/>
</g>
<!-- Node22 -->
<g id="node22" class="node"><title>Node22</title>
<g id="a_node22"><a xlink:href="classqtreports_1_1detail_1_1_image.html" target="_top" xlink:title="Класс, реализующий тэг &lt;image&gt; ">
<polygon fill="none" stroke="black" points="448,-98.5 448,-128.5 547,-128.5 547,-98.5 448,-98.5"/>
<text text-anchor="start" x="456" y="-116.5" font-family="Helvetica,sans-Serif" font-size="10.00">qtreports::detail::</text>
<text text-anchor="middle" x="497.5" y="-105.5" font-family="Helvetica,sans-Serif" font-size="10.00">Image</text>
</a>
</g>
</g>
<!-- Node21&#45;&gt;Node22 -->
<g id="edge21" class="edge"><title>Node21&#45;&gt;Node22</title>
<path fill="none" stroke="midnightblue" d="M405.653,-82.9055C420.876,-88.0322 437.229,-93.5392 451.806,-98.4484"/>
<polygon fill="midnightblue" stroke="midnightblue" points="406.436,-79.4761 395.842,-79.6014 404.202,-86.11 406.436,-79.4761"/>
</g>
<!-- Node23 -->
<g id="node23" class="node"><title>Node23</title>
<g id="a_node23"><a xlink:href="classqtreports_1_1detail_1_1_static_text.html" target="_top" xlink:title="Класс, реализующий тэг &lt;staticText&gt; ">
<polygon fill="none" stroke="black" points="448,-49.5 448,-79.5 547,-79.5 547,-49.5 448,-49.5"/>
<text text-anchor="start" x="456" y="-67.5" font-family="Helvetica,sans-Serif" font-size="10.00">qtreports::detail::</text>
<text text-anchor="middle" x="497.5" y="-56.5" font-family="Helvetica,sans-Serif" font-size="10.00">StaticText</text>
</a>
</g>
</g>
<!-- Node21&#45;&gt;Node23 -->
<g id="edge22" class="edge"><title>Node21&#45;&gt;Node23</title>
<path fill="none" stroke="midnightblue" d="M410.127,-64.5C422.551,-64.5 435.524,-64.5 447.527,-64.5"/>
<polygon fill="midnightblue" stroke="midnightblue" points="409.854,-61.0001 399.854,-64.5 409.854,-68.0001 409.854,-61.0001"/>
</g>
<!-- Node24 -->
<g id="node24" class="node"><title>Node24</title>
<g id="a_node24"><a xlink:href="classqtreports_1_1detail_1_1_text_field.html" target="_top" xlink:title="Класс, реализующий тэг &lt;textField&gt; ">
<polygon fill="none" stroke="black" points="448,-0.5 448,-30.5 547,-30.5 547,-0.5 448,-0.5"/>
<text text-anchor="start" x="456" y="-18.5" font-family="Helvetica,sans-Serif" font-size="10.00">qtreports::detail::</text>
<text text-anchor="middle" x="497.5" y="-7.5" font-family="Helvetica,sans-Serif" font-size="10.00">TextField</text>
</a>
</g>
</g>
<!-- Node21&#45;&gt;Node24 -->
<g id="edge23" class="edge"><title>Node21&#45;&gt;Node24</title>
<path fill="none" stroke="midnightblue" d="M405.653,-46.0945C420.876,-40.9678 437.229,-35.4608 451.806,-30.5516"/>
<polygon fill="midnightblue" stroke="midnightblue" points="404.202,-42.89 395.842,-49.3986 406.436,-49.5239 404.202,-42.89"/>
</g>
</g>
</svg>
