<?xml version="1.0" encoding="UTF-8" standalone="no"?>
<!DOCTYPE svg PUBLIC "-//W3C//DTD SVG 1.1//EN"
 "http://www.w3.org/Graphics/SVG/1.1/DTD/svg11.dtd">
<!-- Generated by graphviz version 2.38.0 (20140413.2041)
 -->
<!-- Title: Иерархия классов. Графический вид. Pages: 1 -->
<svg width="569pt" height="806pt"
 viewBox="0.00 0.00 569.00 805.50" xmlns="http://www.w3.org/2000/svg" xmlns:xlink="http://www.w3.org/1999/xlink">
<g id="graph0" class="graph" transform="scale(1 1) rotate(0) translate(4 801.5)">
<title>Иерархия классов. Графический вид.</title>
<!-- Node1 -->
<g id="node1" class="node"><title>Node1</title>
<g id="a_node1"><a xlink:href="classqtreports_1_1detail_1_1_object.html" target="_top" xlink:title="Базовый класс для любого тэга ">
<polygon fill="none" stroke="black" points="0,-556.5 0,-586.5 99,-586.5 99,-556.5 0,-556.5"/>
<text text-anchor="start" x="8" y="-574.5" font-family="Helvetica,sans-Serif" font-size="10.00">qtreports::detail::</text>
<text text-anchor="middle" x="49.5" y="-563.5" font-family="Helvetica,sans-Serif" font-size="10.00">Object</text>
</a>
</g>
</g>
<!-- Node2 -->
<g id="node2" class="node"><title>Node2</title>
<g id="a_node2"><a xlink:href="classqtreports_1_1detail_1_1_box.html" target="_top" xlink:title="qtreports::detail::Box">
<polygon fill="none" stroke="black" points="142,-778 142,-797 259,-797 259,-778 142,-778"/>
<text text-anchor="middle" x="200.5" y="-785" font-family="Helvetica,sans-Serif" font-size="10.00">qtreports::detail::Box</text>
</a>
</g>
</g>
<!-- Node1&#45;&gt;Node2 -->
<g id="edge1" class="edge"><title>Node1&#45;&gt;Node2</title>
<path fill="none" stroke="midnightblue" d="M54.2401,-596.513C61.8124,-638.295 82.9015,-722.247 135,-768.5 139.365,-772.375 144.485,-775.461 149.899,-777.919"/>
<polygon fill="midnightblue" stroke="midnightblue" points="57.6838,-595.886 52.5583,-586.614 50.7826,-597.059 57.6838,-595.886"/>
</g>
<!-- Node3 -->
<g id="node3" class="node"><title>Node3</title>
<g id="a_node3"><a xlink:href="classqtreports_1_1detail_1_1_cell_contents.html" target="_top" xlink:title="qtreports::detail::\lCellContents">
<polygon fill="none" stroke="black" points="151,-728.5 151,-758.5 250,-758.5 250,-728.5 151,-728.5"/>
<text text-anchor="start" x="159" y="-746.5" font-family="Helvetica,sans-Serif" font-size="10.00">qtreports::detail::</text>
<text text-anchor="middle" x="200.5" y="-735.5" font-family="Helvetica,sans-Serif" font-size="10.00">CellContents</text>
</a>
</g>
</g>
<!-- Node1&#45;&gt;Node3 -->
<g id="edge2" class="edge"><title>Node1&#45;&gt;Node3</title>
<path fill="none" stroke="midnightblue" d="M58.6615,-596.476C70.5239,-629.093 95.5233,-685.97 135,-719.5 139.735,-723.522 145.208,-726.9 150.924,-729.73"/>
<polygon fill="midnightblue" stroke="midnightblue" points="61.8806,-595.079 55.27,-586.799 55.2746,-597.394 61.8806,-595.079"/>
</g>
<!-- Node4 -->
<g id="node4" class="node"><title>Node4</title>
<g id="a_node4"><a xlink:href="classqtreports_1_1detail_1_1_crosstab_column_header.html" target="_top" xlink:title="qtreports::detail::\lCrosstabColumnHeader">
<polygon fill="none" stroke="black" points="135,-679.5 135,-709.5 266,-709.5 266,-679.5 135,-679.5"/>
<text text-anchor="start" x="143" y="-697.5" font-family="Helvetica,sans-Serif" font-size="10.00">qtreports::detail::</text>
<text text-anchor="middle" x="200.5" y="-686.5" font-family="Helvetica,sans-Serif" font-size="10.00">CrosstabColumnHeader</text>
</a>
</g>
</g>
<!-- Node1&#45;&gt;Node4 -->
<g id="edge3" class="edge"><title>Node1&#45;&gt;Node4</title>
<path fill="none" stroke="midnightblue" d="M65.4994,-595.207C80.6274,-617.405 105.866,-650.127 135,-670.5 139.798,-673.855 145.122,-676.805 150.595,-679.382"/>
<polygon fill="midnightblue" stroke="midnightblue" points="68.2891,-593.081 59.8386,-586.69 62.4595,-596.956 68.2891,-593.081"/>
</g>
<!-- Node5 -->
<g id="node5" class="node"><title>Node5</title>
<g id="a_node5"><a xlink:href="classqtreports_1_1detail_1_1_crosstab_row_header.html" target="_top" xlink:title="qtreports::detail::\lCrosstabRowHeader">
<polygon fill="none" stroke="black" points="144,-630.5 144,-660.5 257,-660.5 257,-630.5 144,-630.5"/>
<text text-anchor="start" x="152" y="-648.5" font-family="Helvetica,sans-Serif" font-size="10.00">qtreports::detail::</text>
<text text-anchor="middle" x="200.5" y="-637.5" font-family="Helvetica,sans-Serif" font-size="10.00">CrosstabRowHeader</text>
</a>
</g>
</g>
<!-- Node1&#45;&gt;Node5 -->
<g id="edge4" class="edge"><title>Node1&#45;&gt;Node5</title>
<path fill="none" stroke="midnightblue" d="M82.2511,-592.11C97.7936,-601.722 116.996,-612.908 135,-621.5 141.578,-624.639 148.683,-627.645 155.691,-630.403"/>
<polygon fill="midnightblue" stroke="midnightblue" points="83.8919,-589.008 73.5596,-586.664 80.1749,-594.939 83.8919,-589.008"/>
</g>
<!-- Node6 -->
<g id="node6" class="node"><title>Node6</title>
<g id="a_node6"><a xlink:href="classqtreports_1_1detail_1_1_field.html" target="_top" xlink:title="Класс, реализующий тэг &lt;field&gt; ">
<polygon fill="none" stroke="black" points="151,-581.5 151,-611.5 250,-611.5 250,-581.5 151,-581.5"/>
<text text-anchor="start" x="159" y="-599.5" font-family="Helvetica,sans-Serif" font-size="10.00">qtreports::detail::</text>
<text text-anchor="middle" x="200.5" y="-588.5" font-family="Helvetica,sans-Serif" font-size="10.00">Field</text>
</a>
</g>
</g>
<!-- Node1&#45;&gt;Node6 -->
<g id="edge5" class="edge"><title>Node1&#45;&gt;Node6</title>
<path fill="none" stroke="midnightblue" d="M109.177,-581.345C122.983,-583.662 137.548,-586.105 150.857,-588.338"/>
<polygon fill="midnightblue" stroke="midnightblue" points="109.73,-577.889 99.2882,-579.686 108.571,-584.792 109.73,-577.889"/>
</g>
<!-- Node7 -->
<g id="node7" class="node"><title>Node7</title>
<g id="a_node7"><a xlink:href="classqtreports_1_1detail_1_1_query_string.html" target="_top" xlink:title="Класс, реализующий тэг &lt;queryString&gt; ">
<polygon fill="none" stroke="black" points="151,-532.5 151,-562.5 250,-562.5 250,-532.5 151,-532.5"/>
<text text-anchor="start" x="159" y="-550.5" font-family="Helvetica,sans-Serif" font-size="10.00">qtreports::detail::</text>
<text text-anchor="middle" x="200.5" y="-539.5" font-family="Helvetica,sans-Serif" font-size="10.00">QueryString</text>
</a>
</g>
</g>
<!-- Node1&#45;&gt;Node7 -->
<g id="edge6" class="edge"><title>Node1&#45;&gt;Node7</title>
<path fill="none" stroke="midnightblue" d="M109.177,-562.049C122.983,-559.825 137.548,-557.479 150.857,-555.335"/>
<polygon fill="midnightblue" stroke="midnightblue" points="108.604,-558.596 99.2882,-563.642 109.718,-565.507 108.604,-558.596"/>
</g>
<!-- Node8 -->
<g id="node8" class="node"><title>Node8</title>
<g id="a_node8"><a xlink:href="classqtreports_1_1detail_1_1_report.html" target="_top" xlink:title="Класс, реализующий тэг &lt;report&gt; ">
<polygon fill="none" stroke="black" points="151,-483.5 151,-513.5 250,-513.5 250,-483.5 151,-483.5"/>
<text text-anchor="start" x="159" y="-501.5" font-family="Helvetica,sans-Serif" font-size="10.00">qtreports::detail::</text>
<text text-anchor="middle" x="200.5" y="-490.5" font-family="Helvetica,sans-Serif" font-size="10.00">Report</text>
</a>
</g>
</g>
<!-- Node1&#45;&gt;Node8 -->
<g id="edge7" class="edge"><title>Node1&#45;&gt;Node8</title>
<path fill="none" stroke="midnightblue" d="M83.4044,-551.315C98.7958,-542.264 117.545,-531.786 135,-523.5 142.269,-520.05 150.151,-516.693 157.828,-513.617"/>
<polygon fill="midnightblue" stroke="midnightblue" points="81.5717,-548.333 74.7652,-556.452 85.1493,-554.35 81.5717,-548.333"/>
</g>
<!-- Node9 -->
<g id="node9" class="node"><title>Node9</title>
<g id="a_node9"><a xlink:href="classqtreports_1_1detail_1_1_section.html" target="_top" xlink:title="Базовый класс для тэгов &lt;title&gt;, &lt;detail&gt;,. ">
<polygon fill="none" stroke="black" points="151,-434.5 151,-464.5 250,-464.5 250,-434.5 151,-434.5"/>
<text text-anchor="start" x="159" y="-452.5" font-family="Helvetica,sans-Serif" font-size="10.00">qtreports::detail::</text>
<text text-anchor="middle" x="200.5" y="-441.5" font-family="Helvetica,sans-Serif" font-size="10.00">Section</text>
</a>
</g>
</g>
<!-- Node1&#45;&gt;Node9 -->
<g id="edge8" class="edge"><title>Node1&#45;&gt;Node9</title>
<path fill="none" stroke="midnightblue" d="M65.9226,-548.008C81.1987,-526.338 106.4,-494.572 135,-474.5 140.407,-470.705 146.467,-467.387 152.651,-464.516"/>
<polygon fill="midnightblue" stroke="midnightblue" points="62.9788,-546.112 60.1908,-556.333 68.7445,-550.081 62.9788,-546.112"/>
</g>
<!-- Node16 -->
<g id="node16" class="node"><title>Node16</title>
<g id="a_node16"><a xlink:href="classqtreports_1_1detail_1_1_style.html" target="_top" xlink:title="Класс, реализующий тэг &lt;style&gt; ">
<polygon fill="none" stroke="black" points="151,-385.5 151,-415.5 250,-415.5 250,-385.5 151,-385.5"/>
<text text-anchor="start" x="159" y="-403.5" font-family="Helvetica,sans-Serif" font-size="10.00">qtreports::detail::</text>
<text text-anchor="middle" x="200.5" y="-392.5" font-family="Helvetica,sans-Serif" font-size="10.00">Style</text>
</a>
</g>
</g>
<!-- Node1&#45;&gt;Node16 -->
<g id="edge15" class="edge"><title>Node1&#45;&gt;Node16</title>
<path fill="none" stroke="midnightblue" d="M58.8202,-546.94C70.8586,-514.851 96.0525,-458.838 135,-425.5 139.744,-421.439 145.222,-417.996 150.941,-415.088"/>
<polygon fill="midnightblue" stroke="midnightblue" points="55.4874,-545.864 55.3732,-556.458 62.0691,-548.248 55.4874,-545.864"/>
</g>
<!-- Node17 -->
<g id="node17" class="node"><title>Node17</title>
<g id="a_node17"><a xlink:href="classqtreports_1_1detail_1_1_widget.html" target="_top" xlink:title="Базовый класс для тэгов, которые подлежат отображению ">
<polygon fill="none" stroke="black" points="151,-199.5 151,-229.5 250,-229.5 250,-199.5 151,-199.5"/>
<text text-anchor="start" x="159" y="-217.5" font-family="Helvetica,sans-Serif" font-size="10.00">qtreports::detail::</text>
<text text-anchor="middle" x="200.5" y="-206.5" font-family="Helvetica,sans-Serif" font-size="10.00">Widget</text>
</a>
</g>
</g>
<!-- Node1&#45;&gt;Node17 -->
<g id="edge16" class="edge"><title>Node1&#45;&gt;Node17</title>
<path fill="none" stroke="midnightblue" d="M60.9196,-546.535C89.7362,-477.491 169.901,-285.418 193.122,-229.783"/>
<polygon fill="midnightblue" stroke="midnightblue" points="57.5241,-545.584 56.9023,-556.16 63.984,-548.28 57.5241,-545.584"/>
</g>
<!-- Node10 -->
<g id="node10" class="node"><title>Node10</title>
<g id="a_node10"><a xlink:href="classqtreports_1_1detail_1_1_column_group.html" target="_top" xlink:title="qtreports::detail::\lColumnGroup">
<polygon fill="none" stroke="black" points="314.5,-581.5 314.5,-611.5 413.5,-611.5 413.5,-581.5 314.5,-581.5"/>
<text text-anchor="start" x="322.5" y="-599.5" font-family="Helvetica,sans-Serif" font-size="10.00">qtreports::detail::</text>
<text text-anchor="middle" x="364" y="-588.5" font-family="Helvetica,sans-Serif" font-size="10.00">ColumnGroup</text>
</a>
</g>
</g>
<!-- Node9&#45;&gt;Node10 -->
<g id="edge9" class="edge"><title>Node9&#45;&gt;Node10</title>
<path fill="none" stroke="midnightblue" d="M259.043,-468.532C261.53,-470.347 263.87,-472.331 266,-474.5 298.519,-507.6 269.565,-539.317 302,-572.5 305.58,-576.162 309.786,-579.279 314.287,-581.928"/>
<polygon fill="midnightblue" stroke="midnightblue" points="260.454,-465.289 250.112,-462.991 256.764,-471.237 260.454,-465.289"/>
</g>
<!-- Node11 -->
<g id="node11" class="node"><title>Node11</title>
<g id="a_node11"><a xlink:href="classqtreports_1_1detail_1_1_detail.html" target="_top" xlink:title="Класс, реализующий тэг &lt;detail&gt; ">
<polygon fill="none" stroke="black" points="314.5,-532.5 314.5,-562.5 413.5,-562.5 413.5,-532.5 314.5,-532.5"/>
<text text-anchor="start" x="322.5" y="-550.5" font-family="Helvetica,sans-Serif" font-size="10.00">qtreports::detail::</text>
<text text-anchor="middle" x="364" y="-539.5" font-family="Helvetica,sans-Serif" font-size="10.00">Detail</text>
</a>
</g>
</g>
<!-- Node9&#45;&gt;Node11 -->
<g id="edge10" class="edge"><title>Node9&#45;&gt;Node11</title>
<path fill="none" stroke="midnightblue" d="M258.649,-469.493C261.209,-471.053 263.676,-472.72 266,-474.5 287.456,-490.929 280.586,-507.017 302,-523.5 306.419,-526.901 311.381,-529.88 316.517,-532.473"/>
<polygon fill="midnightblue" stroke="midnightblue" points="260.107,-466.301 249.651,-464.592 256.759,-472.449 260.107,-466.301"/>
</g>
<!-- Node12 -->
<g id="node12" class="node"><title>Node12</title>
<g id="a_node12"><a xlink:href="classqtreports_1_1detail_1_1_group.html" target="_top" xlink:title="Класс, реализующий тэг &lt;group&gt; ">
<polygon fill="none" stroke="black" points="314.5,-483.5 314.5,-513.5 413.5,-513.5 413.5,-483.5 314.5,-483.5"/>
<text text-anchor="start" x="322.5" y="-501.5" font-family="Helvetica,sans-Serif" font-size="10.00">qtreports::detail::</text>
<text text-anchor="middle" x="364" y="-490.5" font-family="Helvetica,sans-Serif" font-size="10.00">Group</text>
</a>
</g>
</g>
<!-- Node9&#45;&gt;Node12 -->
<g id="edge11" class="edge"><title>Node9&#45;&gt;Node12</title>
<path fill="none" stroke="midnightblue" d="M260.089,-467.276C277.873,-472.672 297.211,-478.539 314.273,-483.716"/>
<polygon fill="midnightblue" stroke="midnightblue" points="260.979,-463.889 250.394,-464.335 258.947,-470.587 260.979,-463.889"/>
</g>
<!-- Node13 -->
<g id="node13" class="node"><title>Node13</title>
<g id="a_node13"><a xlink:href="classqtreports_1_1detail_1_1_row_group.html" target="_top" xlink:title="qtreports::detail::\lRowGroup">
<polygon fill="none" stroke="black" points="314.5,-434.5 314.5,-464.5 413.5,-464.5 413.5,-434.5 314.5,-434.5"/>
<text text-anchor="start" x="322.5" y="-452.5" font-family="Helvetica,sans-Serif" font-size="10.00">qtreports::detail::</text>
<text text-anchor="middle" x="364" y="-441.5" font-family="Helvetica,sans-Serif" font-size="10.00">RowGroup</text>
</a>
</g>
</g>
<!-- Node9&#45;&gt;Node13 -->
<g id="edge12" class="edge"><title>Node9&#45;&gt;Node13</title>
<path fill="none" stroke="midnightblue" d="M260.584,-449.5C278.231,-449.5 297.369,-449.5 314.273,-449.5"/>
<polygon fill="midnightblue" stroke="midnightblue" points="260.394,-446 250.394,-449.5 260.394,-453 260.394,-446"/>
</g>
<!-- Node14 -->
<g id="node14" class="node"><title>Node14</title>
<g id="a_node14"><a xlink:href="classqtreports_1_1detail_1_1_summary.html" target="_top" xlink:title="Класс, реализующий тэг ">
<polygon fill="none" stroke="black" points="314.5,-385.5 314.5,-415.5 413.5,-415.5 413.5,-385.5 314.5,-385.5"/>
<text text-anchor="start" x="322.5" y="-403.5" font-family="Helvetica,sans-Serif" font-size="10.00">qtreports::detail::</text>
<text text-anchor="middle" x="364" y="-392.5" font-family="Helvetica,sans-Serif" font-size="10.00">Summary</text>
</a>
</g>
</g>
<!-- Node9&#45;&gt;Node14 -->
<g id="edge13" class="edge"><title>Node9&#45;&gt;Node14</title>
<path fill="none" stroke="midnightblue" d="M260.089,-431.724C277.873,-426.328 297.211,-420.461 314.273,-415.284"/>
<polygon fill="midnightblue" stroke="midnightblue" points="258.947,-428.413 250.394,-434.665 260.979,-435.111 258.947,-428.413"/>
</g>
<!-- Node15 -->
<g id="node15" class="node"><title>Node15</title>
<g id="a_node15"><a xlink:href="classqtreports_1_1detail_1_1_title.html" target="_top" xlink:title="Класс, реализующий тэг &lt;title&gt; ">
<polygon fill="none" stroke="black" points="314.5,-336.5 314.5,-366.5 413.5,-366.5 413.5,-336.5 314.5,-336.5"/>
<text text-anchor="start" x="322.5" y="-354.5" font-family="Helvetica,sans-Serif" font-size="10.00">qtreports::detail::</text>
<text text-anchor="middle" x="364" y="-343.5" font-family="Helvetica,sans-Serif" font-size="10.00">Title</text>
</a>
</g>
</g>
<!-- Node9&#45;&gt;Node15 -->
<g id="edge14" class="edge"><title>Node9&#45;&gt;Node15</title>
<path fill="none" stroke="midnightblue" d="M259.434,-429.947C261.714,-428.556 263.914,-427.075 266,-425.5 287.567,-409.217 280.702,-393.134 302,-376.5 306.871,-372.696 312.401,-369.384 318.096,-366.526"/>
<polygon fill="midnightblue" stroke="midnightblue" points="257.446,-427.043 250.318,-434.881 260.778,-433.199 257.446,-427.043"/>
</g>
<!-- Node18 -->
<g id="node18" class="node"><title>Node18</title>
<g id="a_node18"><a xlink:href="classqtreports_1_1detail_1_1_band.html" target="_top" xlink:title="Класс, реализующий тэг &lt;band&gt; ">
<polygon fill="none" stroke="black" points="302,-298 302,-317 426,-317 426,-298 302,-298"/>
<text text-anchor="middle" x="364" y="-305" font-family="Helvetica,sans-Serif" font-size="10.00">qtreports::detail::Band</text>
</a>
</g>
</g>
<!-- Node17&#45;&gt;Node18 -->
<g id="edge17" class="edge"><title>Node17&#45;&gt;Node18</title>
<path fill="none" stroke="midnightblue" d="M226.238,-236.385C245.692,-252.65 274.086,-274.379 302,-288.5 309.324,-292.205 317.511,-295.356 325.45,-297.963"/>
<polygon fill="midnightblue" stroke="midnightblue" points="228.362,-233.596 218.476,-229.786 223.828,-238.93 228.362,-233.596"/>
</g>
<!-- Node19 -->
<g id="node19" class="node"><title>Node19</title>
<g id="a_node19"><a xlink:href="classqtreports_1_1detail_1_1_crosstab.html" target="_top" xlink:title="qtreports::detail::\lCrosstab">
<polygon fill="none" stroke="black" points="314.5,-248.5 314.5,-278.5 413.5,-278.5 413.5,-248.5 314.5,-248.5"/>
<text text-anchor="start" x="322.5" y="-266.5" font-family="Helvetica,sans-Serif" font-size="10.00">qtreports::detail::</text>
<text text-anchor="middle" x="364" y="-255.5" font-family="Helvetica,sans-Serif" font-size="10.00">Crosstab</text>
</a>
</g>
</g>
<!-- Node17&#45;&gt;Node19 -->
<g id="edge18" class="edge"><title>Node17&#45;&gt;Node19</title>
<path fill="none" stroke="midnightblue" d="M260.089,-232.276C277.873,-237.672 297.211,-243.539 314.273,-248.716"/>
<polygon fill="midnightblue" stroke="midnightblue" points="260.979,-228.889 250.394,-229.335 258.947,-235.587 260.979,-228.889"/>
</g>
<!-- Node20 -->
<g id="node20" class="node"><title>Node20</title>
<g id="a_node20"><a xlink:href="classqtreports_1_1detail_1_1_ellipse.html" target="_top" xlink:title="Класс, реализующий тэг &lt;ellipse&gt; ">
<polygon fill="none" stroke="black" points="314.5,-199.5 314.5,-229.5 413.5,-229.5 413.5,-199.5 314.5,-199.5"/>
<text text-anchor="start" x="322.5" y="-217.5" font-family="Helvetica,sans-Serif" font-size="10.00">qtreports::detail::</text>
<text text-anchor="middle" x="364" y="-206.5" font-family="Helvetica,sans-Serif" font-size="10.00">Ellipse</text>
</a>
</g>
</g>
<!-- Node17&#45;&gt;Node20 -->
<g id="edge19" class="edge"><title>Node17&#45;&gt;Node20</title>
<path fill="none" stroke="midnightblue" d="M260.584,-214.5C278.231,-214.5 297.369,-214.5 314.273,-214.5"/>
<polygon fill="midnightblue" stroke="midnightblue" points="260.394,-211 250.394,-214.5 260.394,-218 260.394,-211"/>
</g>
<!-- Node21 -->
<g id="node21" class="node"><title>Node21</title>
<g id="a_node21"><a xlink:href="classqtreports_1_1detail_1_1_line.html" target="_top" xlink:title="Класс, реализующий тэг &lt;line&gt; ">
<polygon fill="none" stroke="black" points="304.5,-161 304.5,-180 423.5,-180 423.5,-161 304.5,-161"/>
<text text-anchor="middle" x="364" y="-168" font-family="Helvetica,sans-Serif" font-size="10.00">qtreports::detail::Line</text>
</a>
</g>
</g>
<!-- Node17&#45;&gt;Node21 -->
<g id="edge20" class="edge"><title>Node17&#45;&gt;Node21</title>
<path fill="none" stroke="midnightblue" d="M260.305,-198.479C283.06,-192.279 308.331,-185.394 328.111,-180.005"/>
<polygon fill="midnightblue" stroke="midnightblue" points="259.122,-195.174 250.394,-201.179 260.962,-201.927 259.122,-195.174"/>
</g>
<!-- Node22 -->
<g id="node22" class="node"><title>Node22</title>
<g id="a_node22"><a xlink:href="classqtreports_1_1detail_1_1_rect.html" target="_top" xlink:title="Класс, реализующий тэг &lt;rect&gt; ">
<polygon fill="none" stroke="black" points="304.5,-123 304.5,-142 423.5,-142 423.5,-123 304.5,-123"/>
<text text-anchor="middle" x="364" y="-130" font-family="Helvetica,sans-Serif" font-size="10.00">qtreports::detail::Rect</text>
</a>
</g>
</g>
<!-- Node17&#45;&gt;Node22 -->
<g id="edge21" class="edge"><title>Node17&#45;&gt;Node22</title>
<path fill="none" stroke="midnightblue" d="M230.582,-193.448C250.064,-180.068 276.689,-163.137 302,-151.5 309.861,-147.886 318.594,-144.71 326.939,-142.041"/>
<polygon fill="midnightblue" stroke="midnightblue" points="228.367,-190.725 222.164,-199.314 232.369,-196.468 228.367,-190.725"/>
</g>
<!-- Node23 -->
<g id="node23" class="node"><title>Node23</title>
<g id="a_node23"><a xlink:href="classqtreports_1_1detail_1_1_text_widget.html" target="_top" xlink:title="Базовый класс для тегов, имеющих текстовое содержание. ">
<polygon fill="none" stroke="black" points="314.5,-73.5 314.5,-103.5 413.5,-103.5 413.5,-73.5 314.5,-73.5"/>
<text text-anchor="start" x="322.5" y="-91.5" font-family="Helvetica,sans-Serif" font-size="10.00">qtreports::detail::</text>
<text text-anchor="middle" x="364" y="-80.5" font-family="Helvetica,sans-Serif" font-size="10.00">TextWidget</text>
</a>
</g>
</g>
<!-- Node17&#45;&gt;Node23 -->
<g id="edge22" class="edge"><title>Node17&#45;&gt;Node23</title>
<path fill="none" stroke="midnightblue" d="M219.859,-191.272C238.546,-168.888 269.341,-135.292 302,-113.5 307.522,-109.815 313.673,-106.517 319.884,-103.619"/>
<polygon fill="midnightblue" stroke="midnightblue" points="216.947,-189.303 213.311,-199.255 222.359,-193.743 216.947,-189.303"/>
</g>
<!-- Node24 -->
<g id="node24" class="node"><title>Node24</title>
<g id="a_node24"><a xlink:href="classqtreports_1_1detail_1_1_image.html" target="_top" xlink:title="Класс, реализующий тэг &lt;image&gt; ">
<polygon fill="none" stroke="black" points="462,-147.5 462,-177.5 561,-177.5 561,-147.5 462,-147.5"/>
<text text-anchor="start" x="470" y="-165.5" font-family="Helvetica,sans-Serif" font-size="10.00">qtreports::detail::</text>
<text text-anchor="middle" x="511.5" y="-154.5" font-family="Helvetica,sans-Serif" font-size="10.00">Image</text>
</a>
</g>
</g>
<!-- Node23&#45;&gt;Node24 -->
<g id="edge23" class="edge"><title>Node23&#45;&gt;Node24</title>
<path fill="none" stroke="midnightblue" d="M414.519,-107.71C418.453,-109.563 422.324,-111.501 426,-113.5 443.114,-122.804 445.225,-128.598 462,-138.5 467.178,-141.556 472.798,-144.585 478.316,-147.408"/>
<polygon fill="midnightblue" stroke="midnightblue" points="415.84,-104.466 405.285,-103.549 412.964,-110.848 415.84,-104.466"/>
</g>
<!-- Node25 -->
<g id="node25" class="node"><title>Node25</title>
<g id="a_node25"><a xlink:href="classqtreports_1_1detail_1_1_measure.html" target="_top" xlink:title="qtreports::detail::\lMeasure">
<polygon fill="none" stroke="black" points="462,-98.5 462,-128.5 561,-128.5 561,-98.5 462,-98.5"/>
<text text-anchor="start" x="470" y="-116.5" font-family="Helvetica,sans-Serif" font-size="10.00">qtreports::detail::</text>
<text text-anchor="middle" x="511.5" y="-105.5" font-family="Helvetica,sans-Serif" font-size="10.00">Measure</text>
</a>
</g>
</g>
<!-- Node23&#45;&gt;Node25 -->
<g id="edge24" class="edge"><title>Node23&#45;&gt;Node25</title>
<path fill="none" stroke="midnightblue" d="M423.755,-98.5953C436.291,-100.749 449.404,-103.002 461.527,-105.085"/>
<polygon fill="midnightblue" stroke="midnightblue" points="424.302,-95.1382 413.854,-96.8942 423.117,-102.037 424.302,-95.1382"/>
</g>
<!-- Node26 -->
<g id="node26" class="node"><title>Node26</title>
<g id="a_node26"><a xlink:href="classqtreports_1_1detail_1_1_static_text.html" target="_top" xlink:title="Класс, реализующий тэг &lt;staticText&gt; ">
<polygon fill="none" stroke="black" points="462,-49.5 462,-79.5 561,-79.5 561,-49.5 462,-49.5"/>
<text text-anchor="start" x="470" y="-67.5" font-family="Helvetica,sans-Serif" font-size="10.00">qtreports::detail::</text>
<text text-anchor="middle" x="511.5" y="-56.5" font-family="Helvetica,sans-Serif" font-size="10.00">StaticText</text>
</a>
</g>
</g>
<!-- Node23&#45;&gt;Node26 -->
<g id="edge25" class="edge"><title>Node23&#45;&gt;Node26</title>
<path fill="none" stroke="midnightblue" d="M423.755,-78.8085C436.291,-76.7406 449.404,-74.5777 461.527,-72.578"/>
<polygon fill="midnightblue" stroke="midnightblue" points="423.151,-75.3607 413.854,-80.4416 424.29,-82.2673 423.151,-75.3607"/>
</g>
<!-- Node27 -->
<g id="node27" class="node"><title>Node27</title>
<g id="a_node27"><a xlink:href="classqtreports_1_1detail_1_1_text_field.html" target="_top" xlink:title="Класс, реализующий тэг &lt;textField&gt; ">
<polygon fill="none" stroke="black" points="462,-0.5 462,-30.5 561,-30.5 561,-0.5 462,-0.5"/>
<text text-anchor="start" x="470" y="-18.5" font-family="Helvetica,sans-Serif" font-size="10.00">qtreports::detail::</text>
<text text-anchor="middle" x="511.5" y="-7.5" font-family="Helvetica,sans-Serif" font-size="10.00">TextField</text>
</a>
</g>
</g>
<!-- Node23&#45;&gt;Node27 -->
<g id="edge26" class="edge"><title>Node23&#45;&gt;Node27</title>
<path fill="none" stroke="midnightblue" d="M403.617,-68.9007C421.382,-59.9082 442.744,-49.1279 462,-39.5 467.798,-36.6011 473.994,-33.5213 479.952,-30.5688"/>
<polygon fill="midnightblue" stroke="midnightblue" points="402.025,-65.7838 394.685,-73.4247 405.188,-72.0284 402.025,-65.7838"/>
</g>
</g>
</svg>
