<?xml version="1.0" encoding="UTF-8" standalone="no"?>
<!DOCTYPE svg PUBLIC "-//W3C//DTD SVG 1.1//EN"
 "http://www.w3.org/Graphics/SVG/1.1/DTD/svg11.dtd">
<!-- Generated by graphviz version 2.38.0 (20140413.2041)
 -->
<!-- Title: qtreports::detail::isEquals Pages: 1 -->
<svg width="721pt" height="181pt"
 viewBox="0.00 0.00 721.00 181.00" xmlns="http://www.w3.org/2000/svg" xmlns:xlink="http://www.w3.org/1999/xlink">
<g id="graph0" class="graph" transform="scale(1 1) rotate(0) translate(4 177)">
<title>qtreports::detail::isEquals</title>
<!-- Node1 -->
<g id="node1" class="node"><title>Node1</title>
<polygon fill="#bfbfbf" stroke="black" points="0,-44.5 0,-74.5 99,-74.5 99,-44.5 0,-44.5"/>
<text text-anchor="start" x="8" y="-62.5" font-family="Helvetica,sans-Serif" font-size="10.00">qtreports::detail::</text>
<text text-anchor="middle" x="49.5" y="-51.5" font-family="Helvetica,sans-Serif" font-size="10.00">isEquals</text>
</g>
<!-- Node2 -->
<g id="node2" class="node"><title>Node2</title>
<g id="a_node2"><a xlink:href="namespaceqtreports_1_1detail.html#af0dcf7d492b98dd5908ab3b40edeef55" target="_top" xlink:title="qtreports::detail::\ltoBool">
<polygon fill="none" stroke="black" points="176.5,-93.5 176.5,-123.5 275.5,-123.5 275.5,-93.5 176.5,-93.5"/>
<text text-anchor="start" x="184.5" y="-111.5" font-family="Helvetica,sans-Serif" font-size="10.00">qtreports::detail::</text>
<text text-anchor="middle" x="226" y="-100.5" font-family="Helvetica,sans-Serif" font-size="10.00">toBool</text>
</a>
</g>
</g>
<!-- Node1&#45;&gt;Node2 -->
<g id="edge1" class="edge"><title>Node1&#45;&gt;Node2</title>
<path fill="none" stroke="midnightblue" d="M108.949,-75.9126C130.835,-82.0583 155.444,-88.9686 176.35,-94.8391"/>
<polygon fill="midnightblue" stroke="midnightblue" points="109.682,-72.4831 99.108,-73.1492 107.789,-79.2224 109.682,-72.4831"/>
</g>
<!-- Node6 -->
<g id="node6" class="node"><title>Node6</title>
<g id="a_node6"><a xlink:href="classqtreports_1_1detail_1_1_parser_from_x_m_l.html#a8247dc85ae5cae03ab3f175982a0857e" target="_top" xlink:title="Парсит тэг report. ">
<polygon fill="none" stroke="black" points="353,-44.5 353,-74.5 507,-74.5 507,-44.5 353,-44.5"/>
<text text-anchor="start" x="361" y="-62.5" font-family="Helvetica,sans-Serif" font-size="10.00">qtreports::detail::</text>
<text text-anchor="middle" x="430" y="-51.5" font-family="Helvetica,sans-Serif" font-size="10.00">ParserFromXML::parseReport</text>
</a>
</g>
</g>
<!-- Node1&#45;&gt;Node6 -->
<g id="edge6" class="edge"><title>Node1&#45;&gt;Node6</title>
<path fill="none" stroke="midnightblue" d="M109.357,-59.5C174.839,-59.5 280.852,-59.5 352.667,-59.5"/>
<polygon fill="midnightblue" stroke="midnightblue" points="109.207,-56.0001 99.2074,-59.5 109.207,-63.0001 109.207,-56.0001"/>
</g>
<!-- Node7 -->
<g id="node7" class="node"><title>Node7</title>
<g id="a_node7"><a xlink:href="classqtreports_1_1detail_1_1_parser_from_x_m_l.html#a3693d70428f413c6adb999bf0ad69abe" target="_top" xlink:title="Парсит тэг TextElement &#45; общие данные о текстовом элементе (выравнивание текста и пр...">
<polygon fill="none" stroke="black" points="135,-0.5 135,-30.5 317,-30.5 317,-0.5 135,-0.5"/>
<text text-anchor="start" x="143" y="-18.5" font-family="Helvetica,sans-Serif" font-size="10.00">qtreports::detail::</text>
<text text-anchor="middle" x="226" y="-7.5" font-family="Helvetica,sans-Serif" font-size="10.00">ParserFromXML::parseTextElement</text>
</a>
</g>
</g>
<!-- Node1&#45;&gt;Node7 -->
<g id="edge8" class="edge"><title>Node1&#45;&gt;Node7</title>
<path fill="none" stroke="midnightblue" d="M108.991,-44.7515C127.17,-40.1677 147.224,-35.111 165.473,-30.5096"/>
<polygon fill="midnightblue" stroke="midnightblue" points="107.949,-41.4047 99.108,-47.2435 109.66,-48.1923 107.949,-41.4047"/>
</g>
<!-- Node3 -->
<g id="node3" class="node"><title>Node3</title>
<g id="a_node3"><a xlink:href="classqtreports_1_1detail_1_1_parser_from_x_m_l.html#a5a366e39f908935a618b137e7e27496c" target="_top" xlink:title="Парсит тэг style. ">
<polygon fill="none" stroke="black" points="356.5,-142.5 356.5,-172.5 503.5,-172.5 503.5,-142.5 356.5,-142.5"/>
<text text-anchor="start" x="364.5" y="-160.5" font-family="Helvetica,sans-Serif" font-size="10.00">qtreports::detail::</text>
<text text-anchor="middle" x="430" y="-149.5" font-family="Helvetica,sans-Serif" font-size="10.00">ParserFromXML::parseStyle</text>
</a>
</g>
</g>
<!-- Node2&#45;&gt;Node3 -->
<g id="edge2" class="edge"><title>Node2&#45;&gt;Node3</title>
<path fill="none" stroke="midnightblue" d="M285.56,-122.705C311.104,-128.901 341.074,-136.172 366.996,-142.46"/>
<polygon fill="midnightblue" stroke="midnightblue" points="286.184,-119.255 275.641,-120.299 284.534,-126.058 286.184,-119.255"/>
</g>
<!-- Node5 -->
<g id="node5" class="node"><title>Node5</title>
<g id="a_node5"><a xlink:href="classqtreports_1_1detail_1_1_parser_from_x_m_l.html#a4f7803080037058f482a499ebc1a51ee" target="_top" xlink:title="Парсит font &#45; данные о шрифте текста ">
<polygon fill="none" stroke="black" points="358,-93.5 358,-123.5 502,-123.5 502,-93.5 358,-93.5"/>
<text text-anchor="start" x="366" y="-111.5" font-family="Helvetica,sans-Serif" font-size="10.00">qtreports::detail::</text>
<text text-anchor="middle" x="430" y="-100.5" font-family="Helvetica,sans-Serif" font-size="10.00">ParserFromXML::parseFont</text>
</a>
</g>
</g>
<!-- Node2&#45;&gt;Node5 -->
<g id="edge4" class="edge"><title>Node2&#45;&gt;Node5</title>
<path fill="none" stroke="midnightblue" d="M285.739,-108.5C308.286,-108.5 334.262,-108.5 357.851,-108.5"/>
<polygon fill="midnightblue" stroke="midnightblue" points="285.641,-105 275.641,-108.5 285.641,-112 285.641,-105"/>
</g>
<!-- Node4 -->
<g id="node4" class="node"><title>Node4</title>
<g id="a_node4"><a xlink:href="classqtreports_1_1detail_1_1_parser_from_x_m_l.html#ab548bd252b2e13a315daefae6b43f1d6" target="_top" xlink:title="qtreports::detail::\lParserFromXML::ParserFromXML">
<polygon fill="none" stroke="black" points="543,-68.5 543,-98.5 713,-98.5 713,-68.5 543,-68.5"/>
<text text-anchor="start" x="551" y="-86.5" font-family="Helvetica,sans-Serif" font-size="10.00">qtreports::detail::</text>
<text text-anchor="middle" x="628" y="-75.5" font-family="Helvetica,sans-Serif" font-size="10.00">ParserFromXML::ParserFromXML</text>
</a>
</g>
</g>
<!-- Node3&#45;&gt;Node4 -->
<g id="edge3" class="edge"><title>Node3&#45;&gt;Node4</title>
<path fill="none" stroke="midnightblue" d="M490.911,-139.132C496.372,-137.291 501.802,-135.4 507,-133.5 536.466,-122.733 569.312,-108.917 593.18,-98.5383"/>
<polygon fill="midnightblue" stroke="midnightblue" points="489.485,-135.917 481.089,-142.379 491.682,-142.563 489.485,-135.917"/>
</g>
<!-- Node5&#45;&gt;Node4 -->
<g id="edge5" class="edge"><title>Node5&#45;&gt;Node4</title>
<path fill="none" stroke="midnightblue" d="M512.097,-98.156C522.256,-96.8602 532.665,-95.5325 542.869,-94.231"/>
<polygon fill="midnightblue" stroke="midnightblue" points="511.514,-94.7019 502.038,-99.4391 512.4,-101.646 511.514,-94.7019"/>
</g>
<!-- Node6&#45;&gt;Node4 -->
<g id="edge7" class="edge"><title>Node6&#45;&gt;Node4</title>
<path fill="none" stroke="midnightblue" d="M517.045,-70.0361C525.613,-71.0852 534.304,-72.1495 542.853,-73.1962"/>
<polygon fill="midnightblue" stroke="midnightblue" points="517.411,-66.5548 507.059,-68.8134 516.56,-73.5029 517.411,-66.5548"/>
</g>
<!-- Node7&#45;&gt;Node4 -->
<g id="edge9" class="edge"><title>Node7&#45;&gt;Node4</title>
<path fill="none" stroke="midnightblue" d="M327.527,-14.5908C381.369,-16.0323 448.474,-20.9377 507,-34.5 539.226,-41.9677 574.01,-57.0159 597.788,-68.4765"/>
<polygon fill="midnightblue" stroke="midnightblue" points="327.366,-11.0862 317.288,-14.3538 327.204,-18.0843 327.366,-11.0862"/>
</g>
</g>
</svg>
