<?xml version="1.0" encoding="UTF-8" standalone="no"?>
<!DOCTYPE svg PUBLIC "-//W3C//DTD SVG 1.1//EN"
 "http://www.w3.org/Graphics/SVG/1.1/DTD/svg11.dtd">
<!-- Generated by graphviz version 2.38.0 (20140413.2041)
 -->
<!-- Title: /home/travis/build/PO&#45;31/QtReports/qtreports/src/converters/utils/replacer.cpp Pages: 1 -->
<svg width="1706pt" height="666pt"
 viewBox="0.00 0.00 1706.00 666.00" xmlns="http://www.w3.org/2000/svg" xmlns:xlink="http://www.w3.org/1999/xlink">
<g id="graph0" class="graph" transform="scale(1 1) rotate(0) translate(4 662)">
<title>/home/travis/build/PO&#45;31/QtReports/qtreports/src/converters/utils/replacer.cpp</title>
<!-- Node1 -->
<g id="node1" class="node"><title>Node1</title>
<polygon fill="#bfbfbf" stroke="black" points="1438,-616.5 1438,-657.5 1610,-657.5 1610,-616.5 1438,-616.5"/>
<text text-anchor="start" x="1446" y="-645.5" font-family="Helvetica,sans-Serif" font-size="10.00">/home/travis/build</text>
<text text-anchor="start" x="1446" y="-634.5" font-family="Helvetica,sans-Serif" font-size="10.00">/PO&#45;31/QtReports/qtreports</text>
<text text-anchor="middle" x="1524" y="-623.5" font-family="Helvetica,sans-Serif" font-size="10.00">/src/converters/utils/replacer.cpp</text>
</g>
<!-- Node2 -->
<g id="node2" class="node"><title>Node2</title>
<g id="a_node2"><a xlink:href="replacer_8hpp.html" target="_top" xlink:title="replacer.hpp">
<polygon fill="none" stroke="black" points="1188,-560.5 1188,-579.5 1264,-579.5 1264,-560.5 1188,-560.5"/>
<text text-anchor="middle" x="1226" y="-567.5" font-family="Helvetica,sans-Serif" font-size="10.00">replacer.hpp</text>
</a>
</g>
</g>
<!-- Node1&#45;&gt;Node2 -->
<g id="edge1" class="edge"><title>Node1&#45;&gt;Node2</title>
<path fill="none" stroke="midnightblue" d="M1437.81,-617.199C1384.54,-605.581 1318.17,-591.104 1274.07,-581.484"/>
<polygon fill="midnightblue" stroke="midnightblue" points="1274.7,-578.04 1264.18,-579.328 1273.21,-584.879 1274.7,-578.04"/>
</g>
<!-- Node19 -->
<g id="node19" class="node"><title>Node19</title>
<polygon fill="none" stroke="#bfbfbf" points="1346.5,-448.5 1346.5,-467.5 1457.5,-467.5 1457.5,-448.5 1346.5,-448.5"/>
<text text-anchor="middle" x="1402" y="-455.5" font-family="Helvetica,sans-Serif" font-size="10.00">QRegularExpression</text>
</g>
<!-- Node1&#45;&gt;Node19 -->
<g id="edge81" class="edge"><title>Node1&#45;&gt;Node19</title>
<path fill="none" stroke="midnightblue" d="M1510.48,-616.382C1486.42,-581.483 1436.59,-509.187 1413.82,-476.147"/>
<polygon fill="midnightblue" stroke="midnightblue" points="1416.47,-473.831 1407.92,-467.584 1410.71,-477.804 1416.47,-473.831"/>
</g>
<!-- Node21 -->
<g id="node21" class="node"><title>Node21</title>
<polygon fill="none" stroke="#bfbfbf" points="1116,-224.5 1116,-243.5 1170,-243.5 1170,-224.5 1116,-224.5"/>
<text text-anchor="middle" x="1143" y="-231.5" font-family="Helvetica,sans-Serif" font-size="10.00">QImage</text>
</g>
<!-- Node1&#45;&gt;Node21 -->
<g id="edge82" class="edge"><title>Node1&#45;&gt;Node21</title>
<path fill="none" stroke="midnightblue" d="M1522.34,-616.443C1518.37,-579.931 1505.49,-500.361 1466,-448 1393.48,-351.841 1339.31,-366.654 1239,-300 1213.09,-282.787 1183.48,-262.671 1164.08,-249.428"/>
<polygon fill="midnightblue" stroke="midnightblue" points="1165.92,-246.444 1155.69,-243.692 1161.97,-252.224 1165.92,-246.444"/>
</g>
<!-- Node35 -->
<g id="node35" class="node"><title>Node35</title>
<polygon fill="none" stroke="#bfbfbf" points="1552.5,-560.5 1552.5,-579.5 1623.5,-579.5 1623.5,-560.5 1552.5,-560.5"/>
<text text-anchor="middle" x="1588" y="-567.5" font-family="Helvetica,sans-Serif" font-size="10.00">QByteArray</text>
</g>
<!-- Node1&#45;&gt;Node35 -->
<g id="edge83" class="edge"><title>Node1&#45;&gt;Node35</title>
<path fill="none" stroke="midnightblue" d="M1543.2,-616.498C1552.54,-607.011 1563.63,-595.756 1572.43,-586.813"/>
<polygon fill="midnightblue" stroke="midnightblue" points="1574.96,-589.234 1579.48,-579.652 1569.97,-584.323 1574.96,-589.234"/>
</g>
<!-- Node36 -->
<g id="node36" class="node"><title>Node36</title>
<polygon fill="none" stroke="#bfbfbf" points="1642,-560.5 1642,-579.5 1698,-579.5 1698,-560.5 1642,-560.5"/>
<text text-anchor="middle" x="1670" y="-567.5" font-family="Helvetica,sans-Serif" font-size="10.00">QDebug</text>
</g>
<!-- Node1&#45;&gt;Node36 -->
<g id="edge84" class="edge"><title>Node1&#45;&gt;Node36</title>
<path fill="none" stroke="midnightblue" d="M1567.8,-616.498C1591.59,-605.909 1620.32,-593.117 1641.26,-583.797"/>
<polygon fill="midnightblue" stroke="midnightblue" points="1642.85,-586.917 1650.57,-579.652 1640.01,-580.522 1642.85,-586.917"/>
</g>
<!-- Node3 -->
<g id="node3" class="node"><title>Node3</title>
<polygon fill="none" stroke="#bfbfbf" points="1023.5,-0.5 1023.5,-19.5 1076.5,-19.5 1076.5,-0.5 1023.5,-0.5"/>
<text text-anchor="middle" x="1050" y="-7.5" font-family="Helvetica,sans-Serif" font-size="10.00">QString</text>
</g>
<!-- Node2&#45;&gt;Node3 -->
<g id="edge2" class="edge"><title>Node2&#45;&gt;Node3</title>
<path fill="none" stroke="midnightblue" d="M1264.07,-565.624C1319.5,-558.427 1420.73,-536.161 1466,-468 1489.26,-432.972 1756.34,-812.516 1402,-112 1386.67,-81.6923 1380.04,-71.8541 1350,-56 1304.92,-32.2074 1156.5,-18.6679 1086.79,-13.4788"/>
<polygon fill="midnightblue" stroke="midnightblue" points="1086.92,-9.97966 1076.7,-12.7454 1086.42,-16.9612 1086.92,-9.97966"/>
</g>
<!-- Node4 -->
<g id="node4" class="node"><title>Node4</title>
<g id="a_node4"><a xlink:href="textwidget_8hpp.html" target="_top" xlink:title="../../tags/textwidget.hpp">
<polygon fill="none" stroke="black" points="602.5,-224.5 602.5,-243.5 731.5,-243.5 731.5,-224.5 602.5,-224.5"/>
<text text-anchor="middle" x="667" y="-231.5" font-family="Helvetica,sans-Serif" font-size="10.00">../../tags/textwidget.hpp</text>
</a>
</g>
</g>
<!-- Node2&#45;&gt;Node4 -->
<g id="edge3" class="edge"><title>Node2&#45;&gt;Node4</title>
<path fill="none" stroke="midnightblue" d="M1187.69,-567.506C1081.3,-562.324 790,-540.677 790,-459 790,-459 790,-459 790,-401 790,-396.405 711.156,-292.761 679.718,-251.616"/>
<polygon fill="midnightblue" stroke="midnightblue" points="682.468,-249.45 673.613,-243.632 676.907,-253.702 682.468,-249.45"/>
</g>
<!-- Node14 -->
<g id="node14" class="node"><title>Node14</title>
<g id="a_node14"><a xlink:href="report_8hpp.html" target="_top" xlink:title="../../tags/report.hpp">
<polygon fill="none" stroke="black" points="976.5,-504.5 976.5,-523.5 1085.5,-523.5 1085.5,-504.5 976.5,-504.5"/>
<text text-anchor="middle" x="1031" y="-511.5" font-family="Helvetica,sans-Serif" font-size="10.00">../../tags/report.hpp</text>
</a>
</g>
</g>
<!-- Node2&#45;&gt;Node14 -->
<g id="edge21" class="edge"><title>Node2&#45;&gt;Node14</title>
<path fill="none" stroke="midnightblue" d="M1195.1,-560.444C1161.73,-551.201 1108.41,-536.436 1071.65,-526.257"/>
<polygon fill="midnightblue" stroke="midnightblue" points="1072.33,-522.812 1061.75,-523.516 1070.46,-529.558 1072.33,-522.812"/>
</g>
<!-- Node4&#45;&gt;Node3 -->
<g id="edge4" class="edge"><title>Node4&#45;&gt;Node3</title>
<path fill="none" stroke="midnightblue" d="M673.287,-224.322C694.759,-195.362 768.556,-101.323 853,-56 904.327,-28.4516 971.95,-17.7083 1013.14,-13.5596"/>
<polygon fill="midnightblue" stroke="midnightblue" points="1013.63,-17.029 1023.26,-12.6194 1012.98,-10.059 1013.63,-17.029"/>
</g>
<!-- Node5 -->
<g id="node5" class="node"><title>Node5</title>
<polygon fill="none" stroke="#bfbfbf" points="337,-0.5 337,-19.5 429,-19.5 429,-0.5 337,-0.5"/>
<text text-anchor="middle" x="383" y="-7.5" font-family="Helvetica,sans-Serif" font-size="10.00">QSharedPointer</text>
</g>
<!-- Node4&#45;&gt;Node5 -->
<g id="edge5" class="edge"><title>Node4&#45;&gt;Node5</title>
<path fill="none" stroke="midnightblue" d="M609.898,-224.487C582.758,-218.107 551.249,-207.051 528,-188 475.978,-145.372 500.258,-104.823 454,-56 441.65,-42.9646 424.769,-32.064 410.566,-24.2575"/>
<polygon fill="midnightblue" stroke="midnightblue" points="412.173,-21.1479 401.694,-19.583 408.91,-27.3409 412.173,-21.1479"/>
</g>
<!-- Node6 -->
<g id="node6" class="node"><title>Node6</title>
<g id="a_node6"><a xlink:href="widget_8hpp.html" target="_top" xlink:title="widget.hpp">
<polygon fill="none" stroke="black" points="596,-168.5 596,-187.5 664,-187.5 664,-168.5 596,-168.5"/>
<text text-anchor="middle" x="630" y="-175.5" font-family="Helvetica,sans-Serif" font-size="10.00">widget.hpp</text>
</a>
</g>
</g>
<!-- Node4&#45;&gt;Node6 -->
<g id="edge6" class="edge"><title>Node4&#45;&gt;Node6</title>
<path fill="none" stroke="midnightblue" d="M660.89,-224.083C655.718,-216.534 648.154,-205.495 641.806,-196.23"/>
<polygon fill="midnightblue" stroke="midnightblue" points="644.536,-194.022 635.996,-187.751 638.761,-197.979 644.536,-194.022"/>
</g>
<!-- Node6&#45;&gt;Node3 -->
<g id="edge7" class="edge"><title>Node6&#45;&gt;Node3</title>
<path fill="none" stroke="midnightblue" d="M639.426,-168.441C667.315,-143.293 749.499,-70.4886 782,-56 859.201,-21.5848 959.604,-13.2999 1012.92,-11.427"/>
<polygon fill="midnightblue" stroke="midnightblue" points="1013.36,-14.9159 1023.25,-11.1248 1013.15,-7.91892 1013.36,-14.9159"/>
</g>
<!-- Node6&#45;&gt;Node5 -->
<g id="edge11" class="edge"><title>Node6&#45;&gt;Node5</title>
<path fill="none" stroke="midnightblue" d="M640.33,-168.233C654.167,-155.403 675.601,-130.978 663,-112 614.228,-38.5451 506.089,-18.1391 439.383,-12.6981"/>
<polygon fill="midnightblue" stroke="midnightblue" points="439.276,-9.18116 429.049,-11.9475 438.769,-16.1628 439.276,-9.18116"/>
</g>
<!-- Node7 -->
<g id="node7" class="node"><title>Node7</title>
<polygon fill="none" stroke="#bfbfbf" points="606,-112.5 606,-131.5 654,-131.5 654,-112.5 606,-112.5"/>
<text text-anchor="middle" x="630" y="-119.5" font-family="Helvetica,sans-Serif" font-size="10.00">QPoint</text>
</g>
<!-- Node6&#45;&gt;Node7 -->
<g id="edge8" class="edge"><title>Node6&#45;&gt;Node7</title>
<path fill="none" stroke="midnightblue" d="M630,-168.083C630,-161.006 630,-150.861 630,-141.986"/>
<polygon fill="midnightblue" stroke="midnightblue" points="633.5,-141.751 630,-131.751 626.5,-141.751 633.5,-141.751"/>
</g>
<!-- Node8 -->
<g id="node8" class="node"><title>Node8</title>
<polygon fill="none" stroke="#bfbfbf" points="978,-112.5 978,-131.5 1022,-131.5 1022,-112.5 978,-112.5"/>
<text text-anchor="middle" x="1000" y="-119.5" font-family="Helvetica,sans-Serif" font-size="10.00">QSize</text>
</g>
<!-- Node6&#45;&gt;Node8 -->
<g id="edge9" class="edge"><title>Node6&#45;&gt;Node8</title>
<path fill="none" stroke="midnightblue" d="M664.341,-173.646C725.102,-167.428 855.395,-152.825 964,-132 965.246,-131.761 966.513,-131.506 967.79,-131.238"/>
<polygon fill="midnightblue" stroke="midnightblue" points="968.642,-134.634 977.617,-129.004 967.09,-127.808 968.642,-134.634"/>
</g>
<!-- Node9 -->
<g id="node9" class="node"><title>Node9</title>
<polygon fill="none" stroke="#bfbfbf" points="544,-112.5 544,-131.5 588,-131.5 588,-112.5 544,-112.5"/>
<text text-anchor="middle" x="566" y="-119.5" font-family="Helvetica,sans-Serif" font-size="10.00">QRect</text>
</g>
<!-- Node6&#45;&gt;Node9 -->
<g id="edge10" class="edge"><title>Node6&#45;&gt;Node9</title>
<path fill="none" stroke="midnightblue" d="M619.717,-168.324C610.164,-160.263 595.72,-148.077 584.216,-138.369"/>
<polygon fill="midnightblue" stroke="midnightblue" points="586.37,-135.608 576.47,-131.834 581.856,-140.958 586.37,-135.608"/>
</g>
<!-- Node10 -->
<g id="node10" class="node"><title>Node10</title>
<g id="a_node10"><a xlink:href="style_8hpp.html" target="_top" xlink:title="style.hpp">
<polygon fill="none" stroke="black" points="824,-112.5 824,-131.5 884,-131.5 884,-112.5 824,-112.5"/>
<text text-anchor="middle" x="854" y="-119.5" font-family="Helvetica,sans-Serif" font-size="10.00">style.hpp</text>
</a>
</g>
</g>
<!-- Node6&#45;&gt;Node10 -->
<g id="edge12" class="edge"><title>Node6&#45;&gt;Node10</title>
<path fill="none" stroke="midnightblue" d="M664.021,-168.799C704.358,-159.075 771.484,-142.892 814.196,-132.595"/>
<polygon fill="midnightblue" stroke="midnightblue" points="815.071,-135.985 823.972,-130.239 813.43,-129.18 815.071,-135.985"/>
</g>
<!-- Node12 -->
<g id="node12" class="node"><title>Node12</title>
<g id="a_node12"><a xlink:href="object_8hpp.html" target="_top" xlink:title="object.hpp">
<polygon fill="none" stroke="black" points="1016.5,-56.5 1016.5,-75.5 1083.5,-75.5 1083.5,-56.5 1016.5,-56.5"/>
<text text-anchor="middle" x="1050" y="-63.5" font-family="Helvetica,sans-Serif" font-size="10.00">object.hpp</text>
</a>
</g>
</g>
<!-- Node6&#45;&gt;Node12 -->
<g id="edge20" class="edge"><title>Node6&#45;&gt;Node12</title>
<path fill="none" stroke="midnightblue" d="M664.171,-173.617C714.869,-168.048 812.666,-155.187 893,-132 940.571,-118.27 993.248,-94.6042 1023.89,-79.9325"/>
<polygon fill="midnightblue" stroke="midnightblue" points="1025.55,-83.0159 1033.03,-75.5089 1022.5,-76.7151 1025.55,-83.0159"/>
</g>
<!-- Node10&#45;&gt;Node3 -->
<g id="edge13" class="edge"><title>Node10&#45;&gt;Node3</title>
<path fill="none" stroke="midnightblue" d="M868.104,-112.349C888.903,-99.6647 929.112,-75.4184 964,-56 983.816,-44.9703 1006.57,-33.1003 1023.69,-24.3221"/>
<polygon fill="midnightblue" stroke="midnightblue" points="1025.74,-27.2048 1033.05,-19.5406 1022.56,-20.9703 1025.74,-27.2048"/>
</g>
<!-- Node10&#45;&gt;Node5 -->
<g id="edge15" class="edge"><title>Node10&#45;&gt;Node5</title>
<path fill="none" stroke="midnightblue" d="M846.395,-112.444C832.985,-97.9984 803.553,-69.0701 772,-56 713.2,-31.6432 532.332,-18.8435 439.402,-13.7243"/>
<polygon fill="midnightblue" stroke="midnightblue" points="439.507,-10.225 429.332,-13.1808 439.129,-17.2148 439.507,-10.225"/>
</g>
<!-- Node11 -->
<g id="node11" class="node"><title>Node11</title>
<polygon fill="none" stroke="#bfbfbf" points="862.5,-56.5 862.5,-75.5 911.5,-75.5 911.5,-56.5 862.5,-56.5"/>
<text text-anchor="middle" x="887" y="-63.5" font-family="Helvetica,sans-Serif" font-size="10.00">QColor</text>
</g>
<!-- Node10&#45;&gt;Node11 -->
<g id="edge14" class="edge"><title>Node10&#45;&gt;Node11</title>
<path fill="none" stroke="midnightblue" d="M859.449,-112.083C864.014,-104.613 870.668,-93.7244 876.293,-84.5199"/>
<polygon fill="midnightblue" stroke="midnightblue" points="879.424,-86.109 881.652,-75.7511 873.451,-82.4588 879.424,-86.109"/>
</g>
<!-- Node10&#45;&gt;Node12 -->
<g id="edge16" class="edge"><title>Node10&#45;&gt;Node12</title>
<path fill="none" stroke="midnightblue" d="M884.195,-112.681C917.666,-103.459 971.833,-88.5357 1009.09,-78.2702"/>
<polygon fill="midnightblue" stroke="midnightblue" points="1010.41,-81.5374 1019.12,-75.5069 1008.55,-74.7888 1010.41,-81.5374"/>
</g>
<!-- Node12&#45;&gt;Node3 -->
<g id="edge17" class="edge"><title>Node12&#45;&gt;Node3</title>
<path fill="none" stroke="midnightblue" d="M1050,-56.083C1050,-49.0059 1050,-38.8611 1050,-29.9865"/>
<polygon fill="midnightblue" stroke="midnightblue" points="1053.5,-29.751 1050,-19.7511 1046.5,-29.7511 1053.5,-29.751"/>
</g>
<!-- Node12&#45;&gt;Node5 -->
<g id="edge19" class="edge"><title>Node12&#45;&gt;Node5</title>
<path fill="none" stroke="midnightblue" d="M1016.47,-62.2851C909.232,-53.6035 573.857,-26.4517 439.496,-15.5739"/>
<polygon fill="midnightblue" stroke="midnightblue" points="439.661,-12.0759 429.411,-14.7574 439.096,-19.0531 439.661,-12.0759"/>
</g>
<!-- Node13 -->
<g id="node13" class="node"><title>Node13</title>
<polygon fill="none" stroke="#bfbfbf" points="1265,-0.5 1265,-19.5 1323,-19.5 1323,-0.5 1265,-0.5"/>
<text text-anchor="middle" x="1294" y="-7.5" font-family="Helvetica,sans-Serif" font-size="10.00">QVariant</text>
</g>
<!-- Node12&#45;&gt;Node13 -->
<g id="edge18" class="edge"><title>Node12&#45;&gt;Node13</title>
<path fill="none" stroke="midnightblue" d="M1083.67,-57.5482C1128.49,-47.6288 1207.6,-30.1222 1254.97,-19.6372"/>
<polygon fill="midnightblue" stroke="midnightblue" points="1255.86,-23.0265 1264.86,-17.4483 1254.34,-16.1919 1255.86,-23.0265"/>
</g>
<!-- Node14&#45;&gt;Node3 -->
<g id="edge22" class="edge"><title>Node14&#45;&gt;Node3</title>
<path fill="none" stroke="midnightblue" d="M1085.77,-509.483C1150.46,-504.274 1252.97,-492.372 1282,-468 1386.79,-380.039 1388,-315.812 1388,-179 1388,-179 1388,-179 1388,-121 1388,-76.2146 1351.6,-74.9101 1311,-56 1236.52,-21.3075 1138.85,-13.1216 1086.66,-11.3414"/>
<polygon fill="midnightblue" stroke="midnightblue" points="1086.63,-7.83941 1076.54,-11.0581 1086.44,-14.8367 1086.63,-7.83941"/>
</g>
<!-- Node14&#45;&gt;Node5 -->
<g id="edge26" class="edge"><title>Node14&#45;&gt;Node5</title>
<path fill="none" stroke="midnightblue" d="M976.297,-512.962C763.151,-512.106 0,-502.117 0,-403 0,-403 0,-403 0,-121 0,-86.8442 12.234,-74.4155 41,-56 87.1175,-26.4764 241.866,-16.1699 326.513,-12.6907"/>
<polygon fill="midnightblue" stroke="midnightblue" points="326.87,-16.1795 336.725,-12.2901 326.596,-9.18487 326.87,-16.1795"/>
</g>
<!-- Node14&#45;&gt;Node8 -->
<g id="edge23" class="edge"><title>Node14&#45;&gt;Node8</title>
<path fill="none" stroke="midnightblue" d="M1033.56,-504.249C1038.75,-485.738 1050,-441.179 1050,-403 1050,-403 1050,-403 1050,-345 1050,-267.691 1020.79,-178.858 1007.02,-141.289"/>
<polygon fill="midnightblue" stroke="midnightblue" points="1010.22,-139.86 1003.44,-131.723 1003.67,-142.315 1010.22,-139.86"/>
</g>
<!-- Node14&#45;&gt;Node10 -->
<g id="edge38" class="edge"><title>Node14&#45;&gt;Node10</title>
<path fill="none" stroke="midnightblue" d="M1028.44,-504.249C1023.25,-485.738 1012,-441.179 1012,-403 1012,-403 1012,-403 1012,-345 1012,-251.37 917.558,-169.82 874.706,-137.637"/>
<polygon fill="midnightblue" stroke="midnightblue" points="876.529,-134.633 866.398,-131.532 872.384,-140.274 876.529,-134.633"/>
</g>
<!-- Node14&#45;&gt;Node12 -->
<g id="edge30" class="edge"><title>Node14&#45;&gt;Node12</title>
<path fill="none" stroke="midnightblue" d="M1039.17,-504.384C1054.93,-486.812 1088,-444.942 1088,-403 1088,-403 1088,-403 1088,-177 1088,-142.813 1071.4,-105.764 1060.14,-84.5707"/>
<polygon fill="midnightblue" stroke="midnightblue" points="1063.18,-82.832 1055.28,-75.769 1057.05,-86.2151 1063.18,-82.832"/>
</g>
<!-- Node15 -->
<g id="node15" class="node"><title>Node15</title>
<polygon fill="none" stroke="#bfbfbf" points="902,-448.5 902,-467.5 946,-467.5 946,-448.5 902,-448.5"/>
<text text-anchor="middle" x="924" y="-455.5" font-family="Helvetica,sans-Serif" font-size="10.00">QMap</text>
</g>
<!-- Node14&#45;&gt;Node15 -->
<g id="edge24" class="edge"><title>Node14&#45;&gt;Node15</title>
<path fill="none" stroke="midnightblue" d="M1013.81,-504.324C996.649,-495.664 970.054,-482.242 950.253,-472.249"/>
<polygon fill="midnightblue" stroke="midnightblue" points="951.653,-469.035 941.149,-467.655 948.499,-475.285 951.653,-469.035"/>
</g>
<!-- Node16 -->
<g id="node16" class="node"><title>Node16</title>
<polygon fill="none" stroke="#bfbfbf" points="826.5,-224.5 826.5,-243.5 881.5,-243.5 881.5,-224.5 826.5,-224.5"/>
<text text-anchor="middle" x="854" y="-231.5" font-family="Helvetica,sans-Serif" font-size="10.00">QVector</text>
</g>
<!-- Node14&#45;&gt;Node16 -->
<g id="edge25" class="edge"><title>Node14&#45;&gt;Node16</title>
<path fill="none" stroke="midnightblue" d="M1024.21,-504.184C1017.39,-495.218 1006.66,-480.853 998,-468 944.937,-389.288 887.069,-291.655 864.155,-252.471"/>
<polygon fill="midnightblue" stroke="midnightblue" points="867.053,-250.493 858.992,-243.618 861.006,-254.019 867.053,-250.493"/>
</g>
<!-- Node17 -->
<g id="node17" class="node"><title>Node17</title>
<polygon fill="none" stroke="#bfbfbf" points="1116,-448.5 1116,-467.5 1178,-467.5 1178,-448.5 1116,-448.5"/>
<text text-anchor="middle" x="1147" y="-455.5" font-family="Helvetica,sans-Serif" font-size="10.00">QMargins</text>
</g>
<!-- Node14&#45;&gt;Node17 -->
<g id="edge27" class="edge"><title>Node14&#45;&gt;Node17</title>
<path fill="none" stroke="midnightblue" d="M1049.38,-504.444C1068.22,-495.675 1097.73,-481.935 1119.38,-471.858"/>
<polygon fill="midnightblue" stroke="midnightblue" points="1121.12,-474.91 1128.71,-467.516 1118.16,-468.564 1121.12,-474.91"/>
</g>
<!-- Node18 -->
<g id="node18" class="node"><title>Node18</title>
<polygon fill="none" stroke="#bfbfbf" points="1196,-448.5 1196,-467.5 1252,-467.5 1252,-448.5 1196,-448.5"/>
<text text-anchor="middle" x="1224" y="-455.5" font-family="Helvetica,sans-Serif" font-size="10.00">QPrinter</text>
</g>
<!-- Node14&#45;&gt;Node18 -->
<g id="edge28" class="edge"><title>Node14&#45;&gt;Node18</title>
<path fill="none" stroke="midnightblue" d="M1061.58,-504.444C1095.29,-495.011 1149.57,-479.825 1185.99,-469.634"/>
<polygon fill="midnightblue" stroke="midnightblue" points="1187.07,-472.967 1195.76,-466.902 1185.19,-466.225 1187.07,-472.967"/>
</g>
<!-- Node14&#45;&gt;Node19 -->
<g id="edge29" class="edge"><title>Node14&#45;&gt;Node19</title>
<path fill="none" stroke="midnightblue" d="M1085.74,-505.032C1152.41,-495.329 1264.91,-478.954 1336.22,-468.575"/>
<polygon fill="midnightblue" stroke="midnightblue" points="1337.03,-471.993 1346.43,-467.089 1336.03,-465.066 1337.03,-471.993"/>
</g>
<!-- Node20 -->
<g id="node20" class="node"><title>Node20</title>
<g id="a_node20"><a xlink:href="field_8hpp.html" target="_top" xlink:title="field.hpp">
<polygon fill="none" stroke="black" points="1248.5,-280.5 1248.5,-299.5 1305.5,-299.5 1305.5,-280.5 1248.5,-280.5"/>
<text text-anchor="middle" x="1277" y="-287.5" font-family="Helvetica,sans-Serif" font-size="10.00">field.hpp</text>
</a>
</g>
</g>
<!-- Node14&#45;&gt;Node20 -->
<g id="edge31" class="edge"><title>Node14&#45;&gt;Node20</title>
<path fill="none" stroke="midnightblue" d="M1085.73,-509.701C1146.21,-504.829 1238.11,-493.38 1261,-468 1300.9,-423.756 1289.71,-345.551 1281.8,-309.792"/>
<polygon fill="midnightblue" stroke="midnightblue" points="1285.14,-308.689 1279.42,-299.77 1278.33,-310.309 1285.14,-308.689"/>
</g>
<!-- Node22 -->
<g id="node22" class="node"><title>Node22</title>
<g id="a_node22"><a xlink:href="group_8hpp.html" target="_top" xlink:title="group.hpp">
<polygon fill="none" stroke="black" points="818.5,-448.5 818.5,-467.5 883.5,-467.5 883.5,-448.5 818.5,-448.5"/>
<text text-anchor="middle" x="851" y="-455.5" font-family="Helvetica,sans-Serif" font-size="10.00">group.hpp</text>
</a>
</g>
</g>
<!-- Node14&#45;&gt;Node22 -->
<g id="edge39" class="edge"><title>Node14&#45;&gt;Node22</title>
<path fill="none" stroke="midnightblue" d="M1002.48,-504.444C971.934,-495.28 923.292,-480.688 889.397,-470.519"/>
<polygon fill="midnightblue" stroke="midnightblue" points="889.972,-467.038 879.388,-467.516 887.961,-473.742 889.972,-467.038"/>
</g>
<!-- Node32 -->
<g id="node32" class="node"><title>Node32</title>
<g id="a_node32"><a xlink:href="title_8hpp.html" target="_top" xlink:title="title.hpp">
<polygon fill="none" stroke="black" points="624,-448.5 624,-467.5 680,-467.5 680,-448.5 624,-448.5"/>
<text text-anchor="middle" x="652" y="-455.5" font-family="Helvetica,sans-Serif" font-size="10.00">title.hpp</text>
</a>
</g>
</g>
<!-- Node14&#45;&gt;Node32 -->
<g id="edge72" class="edge"><title>Node14&#45;&gt;Node32</title>
<path fill="none" stroke="midnightblue" d="M976.22,-507.632C910.494,-500.782 796.809,-487.636 690.178,-468.048"/>
<polygon fill="midnightblue" stroke="midnightblue" points="690.685,-464.582 680.214,-466.195 689.405,-471.464 690.685,-464.582"/>
</g>
<!-- Node33 -->
<g id="node33" class="node"><title>Node33</title>
<g id="a_node33"><a xlink:href="detail_8hpp.html" target="_top" xlink:title="detail.hpp">
<polygon fill="none" stroke="black" points="698,-448.5 698,-467.5 762,-467.5 762,-448.5 698,-448.5"/>
<text text-anchor="middle" x="730" y="-455.5" font-family="Helvetica,sans-Serif" font-size="10.00">detail.hpp</text>
</a>
</g>
</g>
<!-- Node14&#45;&gt;Node33 -->
<g id="edge75" class="edge"><title>Node14&#45;&gt;Node33</title>
<path fill="none" stroke="midnightblue" d="M983.306,-504.444C925.097,-494.001 827.585,-476.507 772.06,-466.546"/>
<polygon fill="midnightblue" stroke="midnightblue" points="772.661,-463.098 762.2,-464.777 771.425,-469.988 772.661,-463.098"/>
</g>
<!-- Node34 -->
<g id="node34" class="node"><title>Node34</title>
<g id="a_node34"><a xlink:href="summary_8hpp.html" target="_top" xlink:title="summary.hpp">
<polygon fill="none" stroke="black" points="524,-448.5 524,-467.5 606,-467.5 606,-448.5 524,-448.5"/>
<text text-anchor="middle" x="565" y="-455.5" font-family="Helvetica,sans-Serif" font-size="10.00">summary.hpp</text>
</a>
</g>
</g>
<!-- Node14&#45;&gt;Node34 -->
<g id="edge78" class="edge"><title>Node14&#45;&gt;Node34</title>
<path fill="none" stroke="midnightblue" d="M976.334,-508.322C898.605,-501.398 751.473,-487.284 616.289,-468.096"/>
<polygon fill="midnightblue" stroke="midnightblue" points="616.559,-464.599 606.163,-466.646 615.566,-471.529 616.559,-464.599"/>
</g>
<!-- Node20&#45;&gt;Node3 -->
<g id="edge34" class="edge"><title>Node20&#45;&gt;Node3</title>
<path fill="none" stroke="midnightblue" d="M1276.61,-280.444C1275.79,-261.943 1274,-216.827 1274,-179 1274,-179 1274,-179 1274,-121 1274,-90.2048 1273.17,-76.2875 1250,-56 1226.01,-34.9971 1137.65,-21.3517 1086.76,-15.0524"/>
<polygon fill="midnightblue" stroke="midnightblue" points="1087.15,-11.5748 1076.81,-13.855 1086.32,-18.5247 1087.15,-11.5748"/>
</g>
<!-- Node20&#45;&gt;Node5 -->
<g id="edge32" class="edge"><title>Node20&#45;&gt;Node5</title>
<path fill="none" stroke="midnightblue" d="M1271.3,-280.288C1260.03,-262.205 1236,-218.946 1236,-179 1236,-179 1236,-179 1236,-121 1236,-50.782 1160.14,-72.943 1092,-56 968.683,-25.3386 584.545,-14.882 439.349,-11.969"/>
<polygon fill="midnightblue" stroke="midnightblue" points="439.382,-8.46905 429.315,-11.7721 439.244,-15.4677 439.382,-8.46905"/>
</g>
<!-- Node20&#45;&gt;Node12 -->
<g id="edge37" class="edge"><title>Node20&#45;&gt;Node12</title>
<path fill="none" stroke="midnightblue" d="M1265.64,-280.495C1254.22,-271.771 1236.32,-257.59 1222,-244 1164.5,-189.415 1158.74,-167.374 1102,-112 1091.32,-101.577 1078.67,-90.6042 1068.52,-82.1031"/>
<polygon fill="midnightblue" stroke="midnightblue" points="1070.62,-79.2943 1060.69,-75.61 1066.15,-84.6848 1070.62,-79.2943"/>
</g>
<!-- Node20&#45;&gt;Node13 -->
<g id="edge33" class="edge"><title>Node20&#45;&gt;Node13</title>
<path fill="none" stroke="midnightblue" d="M1287.42,-280.196C1318.19,-253.414 1408.48,-169.058 1440,-76 1455.55,-30.095 1381.9,-16.5725 1333.54,-12.6135"/>
<polygon fill="midnightblue" stroke="midnightblue" points="1333.57,-9.107 1323.35,-11.8875 1333.08,-16.0893 1333.57,-9.107"/>
</g>
<!-- Node20&#45;&gt;Node16 -->
<g id="edge35" class="edge"><title>Node20&#45;&gt;Node16</title>
<path fill="none" stroke="midnightblue" d="M1248.26,-285.331C1173.9,-275.838 975.184,-250.47 891.731,-239.817"/>
<polygon fill="midnightblue" stroke="midnightblue" points="892.037,-236.327 881.674,-238.533 891.151,-243.271 892.037,-236.327"/>
</g>
<!-- Node20&#45;&gt;Node21 -->
<g id="edge36" class="edge"><title>Node20&#45;&gt;Node21</title>
<path fill="none" stroke="midnightblue" d="M1255.77,-280.444C1233.62,-271.517 1198.68,-257.439 1173.56,-247.317"/>
<polygon fill="midnightblue" stroke="midnightblue" points="1174.72,-244.008 1164.13,-243.516 1172.1,-250.501 1174.72,-244.008"/>
</g>
<!-- Node22&#45;&gt;Node3 -->
<g id="edge40" class="edge"><title>Node22&#45;&gt;Node3</title>
<path fill="none" stroke="midnightblue" d="M883.806,-449.983C978.929,-429.025 1252.03,-364.349 1314,-300 1352.92,-259.584 1350,-235.107 1350,-179 1350,-179 1350,-179 1350,-121 1350,-76.2146 1313.32,-75.4843 1273,-56 1211.96,-26.5087 1132.54,-16.3346 1086.81,-12.8318"/>
<polygon fill="midnightblue" stroke="midnightblue" points="1086.98,-9.3354 1076.76,-12.1287 1086.49,-16.3183 1086.98,-9.3354"/>
</g>
<!-- Node22&#45;&gt;Node5 -->
<g id="edge41" class="edge"><title>Node22&#45;&gt;Node5</title>
<path fill="none" stroke="midnightblue" d="M856.153,-448.311C874.432,-416.264 932.822,-302.489 890,-224 800.542,-60.0297 551.706,-22.2793 439.342,-13.5932"/>
<polygon fill="midnightblue" stroke="midnightblue" points="439.453,-10.0922 429.226,-12.8617 438.948,-17.074 439.453,-10.0922"/>
</g>
<!-- Node23 -->
<g id="node23" class="node"><title>Node23</title>
<g id="a_node23"><a xlink:href="section_8hpp.html" target="_top" xlink:title="section.hpp">
<polygon fill="none" stroke="black" points="653,-392.5 653,-411.5 725,-411.5 725,-392.5 653,-392.5"/>
<text text-anchor="middle" x="689" y="-399.5" font-family="Helvetica,sans-Serif" font-size="10.00">section.hpp</text>
</a>
</g>
</g>
<!-- Node22&#45;&gt;Node23 -->
<g id="edge42" class="edge"><title>Node22&#45;&gt;Node23</title>
<path fill="none" stroke="midnightblue" d="M825.331,-448.444C798.077,-439.359 754.816,-424.939 724.349,-414.783"/>
<polygon fill="midnightblue" stroke="midnightblue" points="725.143,-411.358 714.549,-411.516 722.929,-417.999 725.143,-411.358"/>
</g>
<!-- Node23&#45;&gt;Node5 -->
<g id="edge44" class="edge"><title>Node23&#45;&gt;Node5</title>
<path fill="none" stroke="midnightblue" d="M652.595,-397.919C526.198,-386.743 114,-346.074 114,-291 114,-291 114,-291 114,-121 114,-90.2048 114.434,-75.824 138,-56 165.9,-32.5297 263.332,-20.455 326.599,-14.9463"/>
<polygon fill="midnightblue" stroke="midnightblue" points="327.158,-18.4118 336.83,-14.0865 326.572,-11.4364 327.158,-18.4118"/>
</g>
<!-- Node23&#45;&gt;Node12 -->
<g id="edge45" class="edge"><title>Node23&#45;&gt;Node12</title>
<path fill="none" stroke="midnightblue" d="M715.657,-392.482C738.035,-384.714 770.364,-372.018 796,-356 918.369,-279.542 958.87,-256.969 1031,-132 1039.36,-117.522 1044.29,-99.0746 1047.03,-85.5337"/>
<polygon fill="midnightblue" stroke="midnightblue" points="1050.51,-85.9707 1048.84,-75.5082 1043.62,-84.7282 1050.51,-85.9707"/>
</g>
<!-- Node23&#45;&gt;Node16 -->
<g id="edge43" class="edge"><title>Node23&#45;&gt;Node16</title>
<path fill="none" stroke="midnightblue" d="M707.046,-392.38C736.488,-377.466 794.976,-344.157 829,-300 839.598,-286.246 846.173,-267.468 849.903,-253.632"/>
<polygon fill="midnightblue" stroke="midnightblue" points="853.336,-254.329 852.308,-243.784 846.535,-252.669 853.336,-254.329"/>
</g>
<!-- Node24 -->
<g id="node24" class="node"><title>Node24</title>
<g id="a_node24"><a xlink:href="band_8hpp.html" target="_top" xlink:title="band.hpp">
<polygon fill="none" stroke="black" points="404,-336.5 404,-355.5 466,-355.5 466,-336.5 404,-336.5"/>
<text text-anchor="middle" x="435" y="-343.5" font-family="Helvetica,sans-Serif" font-size="10.00">band.hpp</text>
</a>
</g>
</g>
<!-- Node23&#45;&gt;Node24 -->
<g id="edge46" class="edge"><title>Node23&#45;&gt;Node24</title>
<path fill="none" stroke="midnightblue" d="M652.878,-393.32C606.206,-383.398 525.149,-366.165 476.15,-355.748"/>
<polygon fill="midnightblue" stroke="midnightblue" points="476.714,-352.29 466.205,-353.634 475.258,-359.137 476.714,-352.29"/>
</g>
<!-- Node24&#45;&gt;Node5 -->
<g id="edge48" class="edge"><title>Node24&#45;&gt;Node5</title>
<path fill="none" stroke="midnightblue" d="M403.971,-344.868C338.045,-342.787 190,-327.784 190,-235 190,-235 190,-235 190,-121 190,-57.5123 269.804,-30.19 326.778,-18.7735"/>
<polygon fill="midnightblue" stroke="midnightblue" points="327.596,-22.1811 336.772,-16.8848 326.296,-15.3028 327.596,-22.1811"/>
</g>
<!-- Node24&#45;&gt;Node6 -->
<g id="edge69" class="edge"><title>Node24&#45;&gt;Node6</title>
<path fill="none" stroke="midnightblue" d="M420.165,-336.354C401.025,-324.07 371.781,-300.751 386,-280 411.053,-243.438 437.971,-260.765 479,-244 521.727,-226.541 570.73,-205.201 601.029,-191.851"/>
<polygon fill="midnightblue" stroke="midnightblue" points="602.817,-194.888 610.551,-187.647 599.989,-188.484 602.817,-194.888"/>
</g>
<!-- Node24&#45;&gt;Node16 -->
<g id="edge47" class="edge"><title>Node24&#45;&gt;Node16</title>
<path fill="none" stroke="midnightblue" d="M466.155,-344.213C544.125,-341.771 745.538,-332.414 803,-300 822.267,-289.132 836.828,-267.769 845.362,-252.5"/>
<polygon fill="midnightblue" stroke="midnightblue" points="848.529,-253.997 850.088,-243.518 842.334,-250.738 848.529,-253.997"/>
</g>
<!-- Node25 -->
<g id="node25" class="node"><title>Node25</title>
<g id="a_node25"><a xlink:href="statictext_8hpp.html" target="_top" xlink:title="statictext.hpp">
<polygon fill="none" stroke="black" points="492.5,-280.5 492.5,-299.5 575.5,-299.5 575.5,-280.5 492.5,-280.5"/>
<text text-anchor="middle" x="534" y="-287.5" font-family="Helvetica,sans-Serif" font-size="10.00">statictext.hpp</text>
</a>
</g>
</g>
<!-- Node24&#45;&gt;Node25 -->
<g id="edge49" class="edge"><title>Node24&#45;&gt;Node25</title>
<path fill="none" stroke="midnightblue" d="M450.906,-336.324C466.638,-327.743 490.942,-314.486 509.209,-304.522"/>
<polygon fill="midnightblue" stroke="midnightblue" points="511.03,-307.516 518.133,-299.655 507.678,-301.37 511.03,-307.516"/>
</g>
<!-- Node26 -->
<g id="node26" class="node"><title>Node26</title>
<g id="a_node26"><a xlink:href="textfield_8hpp.html" target="_top" xlink:title="textfield.hpp">
<polygon fill="none" stroke="black" points="594,-280.5 594,-299.5 670,-299.5 670,-280.5 594,-280.5"/>
<text text-anchor="middle" x="632" y="-287.5" font-family="Helvetica,sans-Serif" font-size="10.00">textfield.hpp</text>
</a>
</g>
</g>
<!-- Node24&#45;&gt;Node26 -->
<g id="edge52" class="edge"><title>Node24&#45;&gt;Node26</title>
<path fill="none" stroke="midnightblue" d="M466.215,-336.444C499.933,-327.201 553.8,-312.436 590.932,-302.257"/>
<polygon fill="midnightblue" stroke="midnightblue" points="592.212,-305.536 600.931,-299.516 590.361,-298.785 592.212,-305.536"/>
</g>
<!-- Node27 -->
<g id="node27" class="node"><title>Node27</title>
<g id="a_node27"><a xlink:href="line_8hpp.html" target="_top" xlink:title="line.hpp">
<polygon fill="none" stroke="black" points="342,-224.5 342,-243.5 396,-243.5 396,-224.5 342,-224.5"/>
<text text-anchor="middle" x="369" y="-231.5" font-family="Helvetica,sans-Serif" font-size="10.00">line.hpp</text>
</a>
</g>
</g>
<!-- Node24&#45;&gt;Node27 -->
<g id="edge56" class="edge"><title>Node24&#45;&gt;Node27</title>
<path fill="none" stroke="midnightblue" d="M403.682,-338.104C383.401,-331.84 358.516,-320.353 346,-300 336.639,-284.777 346.019,-265.202 355.465,-251.529"/>
<polygon fill="midnightblue" stroke="midnightblue" points="358.285,-253.602 361.485,-243.502 352.685,-249.402 358.285,-253.602"/>
</g>
<!-- Node28 -->
<g id="node28" class="node"><title>Node28</title>
<g id="a_node28"><a xlink:href="rect_8hpp.html" target="_top" xlink:title="rect.hpp">
<polygon fill="none" stroke="black" points="414,-224.5 414,-243.5 470,-243.5 470,-224.5 414,-224.5"/>
<text text-anchor="middle" x="442" y="-231.5" font-family="Helvetica,sans-Serif" font-size="10.00">rect.hpp</text>
</a>
</g>
</g>
<!-- Node24&#45;&gt;Node28 -->
<g id="edge59" class="edge"><title>Node24&#45;&gt;Node28</title>
<path fill="none" stroke="midnightblue" d="M406.926,-336.454C377.324,-325.866 337.013,-305.997 353,-280 359.507,-269.418 386.684,-256.56 409.314,-247.302"/>
<polygon fill="midnightblue" stroke="midnightblue" points="410.67,-250.53 418.66,-243.572 408.075,-244.028 410.67,-250.53"/>
</g>
<!-- Node29 -->
<g id="node29" class="node"><title>Node29</title>
<g id="a_node29"><a xlink:href="ellipse_8hpp.html" target="_top" xlink:title="ellipse.hpp">
<polygon fill="none" stroke="black" points="218,-224.5 218,-243.5 286,-243.5 286,-224.5 218,-224.5"/>
<text text-anchor="middle" x="252" y="-231.5" font-family="Helvetica,sans-Serif" font-size="10.00">ellipse.hpp</text>
</a>
</g>
</g>
<!-- Node24&#45;&gt;Node29 -->
<g id="edge62" class="edge"><title>Node24&#45;&gt;Node29</title>
<path fill="none" stroke="midnightblue" d="M413.389,-336.363C393.502,-328.071 363.471,-314.669 339,-300 313.799,-284.894 287.041,-264.093 269.96,-250.128"/>
<polygon fill="midnightblue" stroke="midnightblue" points="271.905,-247.194 261.969,-243.515 267.442,-252.587 271.905,-247.194"/>
</g>
<!-- Node30 -->
<g id="node30" class="node"><title>Node30</title>
<g id="a_node30"><a xlink:href="image_8hpp.html" target="_top" xlink:title="image.hpp">
<polygon fill="none" stroke="black" points="726,-280.5 726,-299.5 794,-299.5 794,-280.5 726,-280.5"/>
<text text-anchor="middle" x="760" y="-287.5" font-family="Helvetica,sans-Serif" font-size="10.00">image.hpp</text>
</a>
</g>
</g>
<!-- Node24&#45;&gt;Node30 -->
<g id="edge65" class="edge"><title>Node24&#45;&gt;Node30</title>
<path fill="none" stroke="midnightblue" d="M466.162,-339.822C524.073,-330.2 648.452,-309.534 715.31,-298.425"/>
<polygon fill="midnightblue" stroke="midnightblue" points="716.236,-301.82 725.527,-296.728 715.089,-294.914 716.236,-301.82"/>
</g>
<!-- Node31 -->
<g id="node31" class="node"><title>Node31</title>
<g id="a_node31"><a xlink:href="crosstab_8hpp.html" target="_top" xlink:title="crosstab.hpp">
<polygon fill="none" stroke="black" points="395.5,-280.5 395.5,-299.5 474.5,-299.5 474.5,-280.5 395.5,-280.5"/>
<text text-anchor="middle" x="435" y="-287.5" font-family="Helvetica,sans-Serif" font-size="10.00">crosstab.hpp</text>
</a>
</g>
</g>
<!-- Node24&#45;&gt;Node31 -->
<g id="edge70" class="edge"><title>Node24&#45;&gt;Node31</title>
<path fill="none" stroke="midnightblue" d="M435,-336.083C435,-329.006 435,-318.861 435,-309.986"/>
<polygon fill="midnightblue" stroke="midnightblue" points="438.5,-309.751 435,-299.751 431.5,-309.751 438.5,-309.751"/>
</g>
<!-- Node25&#45;&gt;Node4 -->
<g id="edge51" class="edge"><title>Node25&#45;&gt;Node4</title>
<path fill="none" stroke="midnightblue" d="M555.074,-280.444C577.06,-271.517 611.734,-257.439 636.664,-247.317"/>
<polygon fill="midnightblue" stroke="midnightblue" points="638.076,-250.521 646.024,-243.516 635.442,-244.035 638.076,-250.521"/>
</g>
<!-- Node25&#45;&gt;Node5 -->
<g id="edge50" class="edge"><title>Node25&#45;&gt;Node5</title>
<path fill="none" stroke="midnightblue" d="M492.448,-280.817C435.318,-269.404 338.853,-249.489 333,-244 311.046,-223.411 314,-209.098 314,-179 314,-179 314,-179 314,-121 314,-82.3909 344.882,-46.2086 365.326,-26.4863"/>
<polygon fill="midnightblue" stroke="midnightblue" points="367.868,-28.9022 372.819,-19.5352 363.107,-23.7704 367.868,-28.9022"/>
</g>
<!-- Node26&#45;&gt;Node3 -->
<g id="edge53" class="edge"><title>Node26&#45;&gt;Node3</title>
<path fill="none" stroke="midnightblue" d="M657.233,-280.42C679.638,-272.355 712.928,-259.262 740,-244 860.664,-175.975 987.605,-66.7973 1032.8,-26.5502"/>
<polygon fill="midnightblue" stroke="midnightblue" points="1035.38,-28.9361 1040.49,-19.657 1030.71,-23.7219 1035.38,-28.9361"/>
</g>
<!-- Node26&#45;&gt;Node4 -->
<g id="edge55" class="edge"><title>Node26&#45;&gt;Node4</title>
<path fill="none" stroke="midnightblue" d="M637.78,-280.083C642.672,-272.534 649.827,-261.495 655.833,-252.23"/>
<polygon fill="midnightblue" stroke="midnightblue" points="658.826,-254.046 661.328,-243.751 652.952,-250.239 658.826,-254.046"/>
</g>
<!-- Node26&#45;&gt;Node5 -->
<g id="edge54" class="edge"><title>Node26&#45;&gt;Node5</title>
<path fill="none" stroke="midnightblue" d="M618.698,-280.378C594.344,-264.192 541.724,-227.325 505,-188 479.404,-160.591 418.809,-67.1347 393.941,-28.2214"/>
<polygon fill="midnightblue" stroke="midnightblue" points="396.757,-26.1284 388.431,-19.5768 390.854,-29.8908 396.757,-26.1284"/>
</g>
<!-- Node27&#45;&gt;Node5 -->
<g id="edge57" class="edge"><title>Node27&#45;&gt;Node5</title>
<path fill="none" stroke="midnightblue" d="M369.549,-224.297C371.609,-191.633 378.909,-75.8661 381.804,-29.9573"/>
<polygon fill="midnightblue" stroke="midnightblue" points="385.303,-30.0842 382.44,-19.8837 378.317,-29.6436 385.303,-30.0842"/>
</g>
<!-- Node27&#45;&gt;Node6 -->
<g id="edge58" class="edge"><title>Node27&#45;&gt;Node6</title>
<path fill="none" stroke="midnightblue" d="M396.094,-226.08C399.094,-225.357 402.109,-224.65 405,-224 467.559,-209.933 540.4,-195.765 585.861,-187.185"/>
<polygon fill="midnightblue" stroke="midnightblue" points="586.787,-190.572 595.968,-185.284 585.494,-183.692 586.787,-190.572"/>
</g>
<!-- Node28&#45;&gt;Node5 -->
<g id="edge60" class="edge"><title>Node28&#45;&gt;Node5</title>
<path fill="none" stroke="midnightblue" d="M438.666,-224.46C435.228,-215.473 429.841,-200.872 426,-188 408.934,-130.805 393.659,-61.7319 386.81,-29.3871"/>
<polygon fill="midnightblue" stroke="midnightblue" points="390.227,-28.6271 384.75,-19.5577 383.376,-30.063 390.227,-28.6271"/>
</g>
<!-- Node28&#45;&gt;Node6 -->
<g id="edge61" class="edge"><title>Node28&#45;&gt;Node6</title>
<path fill="none" stroke="midnightblue" d="M470.145,-224.916C502.073,-215.745 554.371,-200.723 590.405,-190.373"/>
<polygon fill="midnightblue" stroke="midnightblue" points="591.461,-193.711 600.106,-187.587 589.529,-186.983 591.461,-193.711"/>
</g>
<!-- Node29&#45;&gt;Node5 -->
<g id="edge63" class="edge"><title>Node29&#45;&gt;Node5</title>
<path fill="none" stroke="midnightblue" d="M252.046,-224.198C252.634,-196.399 257.918,-109.182 300,-56 311.733,-41.1718 329.746,-30.5697 345.996,-23.396"/>
<polygon fill="midnightblue" stroke="midnightblue" points="347.388,-26.6083 355.3,-19.5623 344.721,-20.1362 347.388,-26.6083"/>
</g>
<!-- Node29&#45;&gt;Node6 -->
<g id="edge64" class="edge"><title>Node29&#45;&gt;Node6</title>
<path fill="none" stroke="midnightblue" d="M286.212,-228.113C354.859,-218.306 509.336,-196.238 585.636,-185.338"/>
<polygon fill="midnightblue" stroke="midnightblue" points="586.462,-188.755 595.866,-183.876 585.472,-181.826 586.462,-188.755"/>
</g>
<!-- Node30&#45;&gt;Node4 -->
<g id="edge68" class="edge"><title>Node30&#45;&gt;Node4</title>
<path fill="none" stroke="midnightblue" d="M745.058,-280.324C730.415,-271.822 707.866,-258.729 690.762,-248.797"/>
<polygon fill="midnightblue" stroke="midnightblue" points="692.31,-245.649 681.905,-243.655 688.795,-251.703 692.31,-245.649"/>
</g>
<!-- Node30&#45;&gt;Node5 -->
<g id="edge67" class="edge"><title>Node30&#45;&gt;Node5</title>
<path fill="none" stroke="midnightblue" d="M759.93,-280.442C759.331,-266.514 756.043,-238.996 740,-224 688.967,-176.296 647.387,-223.119 587,-188 520.739,-149.465 535.571,-104.238 476,-56 458.631,-41.9349 436.137,-30.9007 417.622,-23.2791"/>
<polygon fill="midnightblue" stroke="midnightblue" points="418.664,-19.9275 408.078,-19.5027 416.089,-26.4365 418.664,-19.9275"/>
</g>
<!-- Node30&#45;&gt;Node21 -->
<g id="edge66" class="edge"><title>Node30&#45;&gt;Node21</title>
<path fill="none" stroke="midnightblue" d="M794.326,-284.16C866.077,-274.044 1031.42,-250.732 1105.69,-240.261"/>
<polygon fill="midnightblue" stroke="midnightblue" points="1106.55,-243.674 1115.96,-238.812 1105.57,-236.743 1106.55,-243.674"/>
</g>
<!-- Node31&#45;&gt;Node6 -->
<g id="edge71" class="edge"><title>Node31&#45;&gt;Node6</title>
<path fill="none" stroke="midnightblue" d="M464.012,-280.417C487.971,-272.69 522.4,-260.084 550,-244 574.004,-230.011 598.316,-209.084 613.734,-194.778"/>
<polygon fill="midnightblue" stroke="midnightblue" points="616.466,-197.012 621.326,-187.598 611.656,-191.927 616.466,-197.012"/>
</g>
<!-- Node32&#45;&gt;Node5 -->
<g id="edge73" class="edge"><title>Node32&#45;&gt;Node5</title>
<path fill="none" stroke="midnightblue" d="M623.814,-449.642C620.851,-449.019 617.873,-448.455 615,-448 510.005,-431.382 234.078,-457.487 138,-412 101.916,-394.917 76,-386.923 76,-347 76,-347 76,-347 76,-121 76,-86.6051 89.2803,-74.926 118,-56 151.496,-33.9267 259.521,-21.2055 326.864,-15.2305"/>
<polygon fill="midnightblue" stroke="midnightblue" points="327.237,-18.7115 336.898,-14.3633 326.634,-11.7375 327.237,-18.7115"/>
</g>
<!-- Node32&#45;&gt;Node23 -->
<g id="edge74" class="edge"><title>Node32&#45;&gt;Node23</title>
<path fill="none" stroke="midnightblue" d="M658.11,-448.083C663.282,-440.534 670.846,-429.495 677.194,-420.23"/>
<polygon fill="midnightblue" stroke="midnightblue" points="680.239,-421.979 683.004,-411.751 674.464,-418.022 680.239,-421.979"/>
</g>
<!-- Node33&#45;&gt;Node5 -->
<g id="edge76" class="edge"><title>Node33&#45;&gt;Node5</title>
<path fill="none" stroke="midnightblue" d="M697.791,-449.833C694.821,-449.202 691.856,-448.582 689,-448 570.019,-423.758 152,-468.426 152,-347 152,-347 152,-347 152,-121 152,-43.8936 258.213,-20.7786 326.596,-13.887"/>
<polygon fill="midnightblue" stroke="midnightblue" points="327.171,-17.349 336.809,-12.9488 326.531,-10.3784 327.171,-17.349"/>
</g>
<!-- Node33&#45;&gt;Node23 -->
<g id="edge77" class="edge"><title>Node33&#45;&gt;Node23</title>
<path fill="none" stroke="midnightblue" d="M723.23,-448.083C717.438,-440.455 708.942,-429.264 701.862,-419.941"/>
<polygon fill="midnightblue" stroke="midnightblue" points="704.479,-417.599 695.644,-411.751 698.904,-421.832 704.479,-417.599"/>
</g>
<!-- Node34&#45;&gt;Node5 -->
<g id="edge79" class="edge"><title>Node34&#45;&gt;Node5</title>
<path fill="none" stroke="midnightblue" d="M523.633,-455.809C409.871,-452.186 98.3375,-439.806 62,-412 37.5434,-393.286 38,-377.795 38,-347 38,-347 38,-347 38,-121 38,-90.2048 38.0194,-75.3204 62,-56 101.66,-24.0472 245.716,-14.7825 326.711,-12.0964"/>
<polygon fill="midnightblue" stroke="midnightblue" points="326.858,-15.5937 336.745,-11.7866 326.641,-8.59703 326.858,-15.5937"/>
</g>
<!-- Node34&#45;&gt;Node23 -->
<g id="edge80" class="edge"><title>Node34&#45;&gt;Node23</title>
<path fill="none" stroke="midnightblue" d="M584.648,-448.444C604.965,-439.596 636.903,-425.687 660.098,-415.586"/>
<polygon fill="midnightblue" stroke="midnightblue" points="661.673,-418.718 669.444,-411.516 658.878,-412.3 661.673,-418.718"/>
</g>
</g>
</svg>
