<?xml version="1.0" encoding="UTF-8" standalone="no"?>
<!DOCTYPE svg PUBLIC "-//W3C//DTD SVG 1.1//EN"
 "http://www.w3.org/Graphics/SVG/1.1/DTD/svg11.dtd">
<!-- Generated by graphviz version 2.38.0 (20140413.2041)
 -->
<!-- Title: /home/travis/build/PO&#45;31/QtReports/qtreports/src/converters/utils/replacer.hpp Pages: 1 -->
<svg width="1578pt" height="610pt"
 viewBox="0.00 0.00 1577.58 610.00" xmlns="http://www.w3.org/2000/svg" xmlns:xlink="http://www.w3.org/1999/xlink">
<g id="graph0" class="graph" transform="scale(1 1) rotate(0) translate(4 606)">
<title>/home/travis/build/PO&#45;31/QtReports/qtreports/src/converters/utils/replacer.hpp</title>
<!-- Node1 -->
<g id="node1" class="node"><title>Node1</title>
<polygon fill="#bfbfbf" stroke="black" points="0,-560.5 0,-601.5 173,-601.5 173,-560.5 0,-560.5"/>
<text text-anchor="start" x="8" y="-589.5" font-family="Helvetica,sans-Serif" font-size="10.00">/home/travis/build</text>
<text text-anchor="start" x="8" y="-578.5" font-family="Helvetica,sans-Serif" font-size="10.00">/PO&#45;31/QtReports/qtreports</text>
<text text-anchor="middle" x="86.5" y="-567.5" font-family="Helvetica,sans-Serif" font-size="10.00">/src/converters/utils/replacer.hpp</text>
</g>
<!-- Node2 -->
<g id="node2" class="node"><title>Node2</title>
<polygon fill="none" stroke="#bfbfbf" points="251,-0.5 251,-19.5 304,-19.5 304,-0.5 251,-0.5"/>
<text text-anchor="middle" x="277.5" y="-7.5" font-family="Helvetica,sans-Serif" font-size="10.00">QString</text>
</g>
<!-- Node1&#45;&gt;Node2 -->
<g id="edge1" class="edge"><title>Node1&#45;&gt;Node2</title>
<path fill="none" stroke="midnightblue" d="M76.3167,-560.467C65.0606,-537.025 48.5,-496.211 48.5,-459 48.5,-459 48.5,-459 48.5,-121 48.5,-78.82 176.332,-38.2648 240.979,-20.4521"/>
<polygon fill="midnightblue" stroke="midnightblue" points="242.048,-23.7886 250.783,-17.7918 240.215,-17.0329 242.048,-23.7886"/>
</g>
<!-- Node3 -->
<g id="node3" class="node"><title>Node3</title>
<g id="a_node3"><a xlink:href="textwidget_8hpp.html" target="_top" xlink:title="../../tags/textwidget.hpp">
<polygon fill="none" stroke="black" points="644,-224.5 644,-243.5 773,-243.5 773,-224.5 644,-224.5"/>
<text text-anchor="middle" x="708.5" y="-231.5" font-family="Helvetica,sans-Serif" font-size="10.00">../../tags/textwidget.hpp</text>
</a>
</g>
</g>
<!-- Node1&#45;&gt;Node3 -->
<g id="edge2" class="edge"><title>Node1&#45;&gt;Node3</title>
<path fill="none" stroke="midnightblue" d="M120.068,-560.453C165.413,-534.209 248.925,-486.435 321.5,-448 451.832,-378.977 492.3,-376.317 618.5,-300 644.061,-284.542 671.659,-263.977 689.459,-250.155"/>
<polygon fill="midnightblue" stroke="midnightblue" points="692.103,-252.529 697.812,-243.603 687.783,-247.021 692.103,-252.529"/>
</g>
<!-- Node13 -->
<g id="node13" class="node"><title>Node13</title>
<g id="a_node13"><a xlink:href="report_8hpp.html" target="_top" xlink:title="../../tags/report.hpp">
<polygon fill="none" stroke="black" points="963,-504.5 963,-523.5 1072,-523.5 1072,-504.5 963,-504.5"/>
<text text-anchor="middle" x="1017.5" y="-511.5" font-family="Helvetica,sans-Serif" font-size="10.00">../../tags/report.hpp</text>
</a>
</g>
</g>
<!-- Node1&#45;&gt;Node13 -->
<g id="edge20" class="edge"><title>Node1&#45;&gt;Node13</title>
<path fill="none" stroke="midnightblue" d="M173.25,-573.943C358.327,-561.022 788.364,-530.998 952.364,-519.548"/>
<polygon fill="midnightblue" stroke="midnightblue" points="953.044,-523.009 962.776,-518.821 952.557,-516.026 953.044,-523.009"/>
</g>
<!-- Node3&#45;&gt;Node2 -->
<g id="edge3" class="edge"><title>Node3&#45;&gt;Node2</title>
<path fill="none" stroke="midnightblue" d="M687.981,-224.462C648.433,-207.833 559.142,-169.439 486.5,-132 467.944,-122.436 351.761,-54.517 301.087,-24.8301"/>
<polygon fill="midnightblue" stroke="midnightblue" points="302.547,-21.6288 292.149,-19.5925 299.007,-27.6682 302.547,-21.6288"/>
</g>
<!-- Node4 -->
<g id="node4" class="node"><title>Node4</title>
<polygon fill="none" stroke="#bfbfbf" points="893.5,-0.5 893.5,-19.5 985.5,-19.5 985.5,-0.5 893.5,-0.5"/>
<text text-anchor="middle" x="939.5" y="-7.5" font-family="Helvetica,sans-Serif" font-size="10.00">QSharedPointer</text>
</g>
<!-- Node3&#45;&gt;Node4 -->
<g id="edge4" class="edge"><title>Node3&#45;&gt;Node4</title>
<path fill="none" stroke="midnightblue" d="M708.975,-224.493C711.032,-196.076 721.61,-103.55 773.5,-56 803.154,-28.8259 847.561,-17.7898 882.986,-13.4323"/>
<polygon fill="midnightblue" stroke="midnightblue" points="883.626,-16.8836 893.191,-12.328 882.873,-9.92421 883.626,-16.8836"/>
</g>
<!-- Node5 -->
<g id="node5" class="node"><title>Node5</title>
<g id="a_node5"><a xlink:href="widget_8hpp.html" target="_top" xlink:title="widget.hpp">
<polygon fill="none" stroke="black" points="843.5,-168.5 843.5,-187.5 911.5,-187.5 911.5,-168.5 843.5,-168.5"/>
<text text-anchor="middle" x="877.5" y="-175.5" font-family="Helvetica,sans-Serif" font-size="10.00">widget.hpp</text>
</a>
</g>
</g>
<!-- Node3&#45;&gt;Node5 -->
<g id="edge5" class="edge"><title>Node3&#45;&gt;Node5</title>
<path fill="none" stroke="midnightblue" d="M735.279,-224.444C763.833,-215.32 809.233,-200.813 841.037,-190.651"/>
<polygon fill="midnightblue" stroke="midnightblue" points="842.386,-193.894 850.847,-187.516 840.256,-187.226 842.386,-193.894"/>
</g>
<!-- Node5&#45;&gt;Node2 -->
<g id="edge6" class="edge"><title>Node5&#45;&gt;Node2</title>
<path fill="none" stroke="midnightblue" d="M857.315,-168.372C805.48,-146.528 663.077,-88.4688 539.5,-56 460.53,-35.2512 365.58,-21.689 314.453,-15.2898"/>
<polygon fill="midnightblue" stroke="midnightblue" points="314.582,-11.7793 304.23,-14.0329 313.728,-18.727 314.582,-11.7793"/>
</g>
<!-- Node5&#45;&gt;Node4 -->
<g id="edge10" class="edge"><title>Node5&#45;&gt;Node4</title>
<path fill="none" stroke="midnightblue" d="M867.864,-168.407C855.396,-156.186 836.199,-132.942 844.5,-112 859.288,-74.6944 895.1,-43.1463 918.285,-25.6764"/>
<polygon fill="midnightblue" stroke="midnightblue" points="920.472,-28.413 926.482,-19.6876 916.343,-22.7607 920.472,-28.413"/>
</g>
<!-- Node6 -->
<g id="node6" class="node"><title>Node6</title>
<polygon fill="none" stroke="#bfbfbf" points="853.5,-112.5 853.5,-131.5 901.5,-131.5 901.5,-112.5 853.5,-112.5"/>
<text text-anchor="middle" x="877.5" y="-119.5" font-family="Helvetica,sans-Serif" font-size="10.00">QPoint</text>
</g>
<!-- Node5&#45;&gt;Node6 -->
<g id="edge7" class="edge"><title>Node5&#45;&gt;Node6</title>
<path fill="none" stroke="midnightblue" d="M877.5,-168.083C877.5,-161.006 877.5,-150.861 877.5,-141.986"/>
<polygon fill="midnightblue" stroke="midnightblue" points="881,-141.751 877.5,-131.751 874,-141.751 881,-141.751"/>
</g>
<!-- Node7 -->
<g id="node7" class="node"><title>Node7</title>
<polygon fill="none" stroke="#bfbfbf" points="981.5,-112.5 981.5,-131.5 1025.5,-131.5 1025.5,-112.5 981.5,-112.5"/>
<text text-anchor="middle" x="1003.5" y="-119.5" font-family="Helvetica,sans-Serif" font-size="10.00">QSize</text>
</g>
<!-- Node5&#45;&gt;Node7 -->
<g id="edge8" class="edge"><title>Node5&#45;&gt;Node7</title>
<path fill="none" stroke="midnightblue" d="M897.465,-168.444C918.109,-159.596 950.563,-145.687 974.132,-135.586"/>
<polygon fill="midnightblue" stroke="midnightblue" points="975.816,-138.673 983.628,-131.516 973.058,-132.239 975.816,-138.673"/>
</g>
<!-- Node8 -->
<g id="node8" class="node"><title>Node8</title>
<polygon fill="none" stroke="#bfbfbf" points="919.5,-112.5 919.5,-131.5 963.5,-131.5 963.5,-112.5 919.5,-112.5"/>
<text text-anchor="middle" x="941.5" y="-119.5" font-family="Helvetica,sans-Serif" font-size="10.00">QRect</text>
</g>
<!-- Node5&#45;&gt;Node8 -->
<g id="edge9" class="edge"><title>Node5&#45;&gt;Node8</title>
<path fill="none" stroke="midnightblue" d="M887.783,-168.324C897.336,-160.263 911.78,-148.077 923.284,-138.369"/>
<polygon fill="midnightblue" stroke="midnightblue" points="925.644,-140.958 931.03,-131.834 921.13,-135.608 925.644,-140.958"/>
</g>
<!-- Node9 -->
<g id="node9" class="node"><title>Node9</title>
<g id="a_node9"><a xlink:href="style_8hpp.html" target="_top" xlink:title="style.hpp">
<polygon fill="none" stroke="black" points="495.5,-112.5 495.5,-131.5 555.5,-131.5 555.5,-112.5 495.5,-112.5"/>
<text text-anchor="middle" x="525.5" y="-119.5" font-family="Helvetica,sans-Serif" font-size="10.00">style.hpp</text>
</a>
</g>
</g>
<!-- Node5&#45;&gt;Node9 -->
<g id="edge11" class="edge"><title>Node5&#45;&gt;Node9</title>
<path fill="none" stroke="midnightblue" d="M843.429,-171.773C778.113,-161.753 635.575,-139.886 565.716,-129.17"/>
<polygon fill="midnightblue" stroke="midnightblue" points="565.968,-125.667 555.553,-127.61 564.907,-132.586 565.968,-125.667"/>
</g>
<!-- Node11 -->
<g id="node11" class="node"><title>Node11</title>
<g id="a_node11"><a xlink:href="object_8hpp.html" target="_top" xlink:title="object.hpp">
<polygon fill="none" stroke="black" points="244,-56.5 244,-75.5 311,-75.5 311,-56.5 244,-56.5"/>
<text text-anchor="middle" x="277.5" y="-63.5" font-family="Helvetica,sans-Serif" font-size="10.00">object.hpp</text>
</a>
</g>
</g>
<!-- Node5&#45;&gt;Node11 -->
<g id="edge19" class="edge"><title>Node5&#45;&gt;Node11</title>
<path fill="none" stroke="midnightblue" d="M843.423,-175.225C775.087,-171.196 616.703,-159.487 486.5,-132 422.577,-118.505 350.247,-93.8187 309.634,-79.0598"/>
<polygon fill="midnightblue" stroke="midnightblue" points="310.61,-75.69 300.016,-75.5343 308.201,-82.2623 310.61,-75.69"/>
</g>
<!-- Node9&#45;&gt;Node2 -->
<g id="edge12" class="edge"><title>Node9&#45;&gt;Node2</title>
<path fill="none" stroke="midnightblue" d="M508.769,-112.377C483.593,-99.5191 434.35,-74.8179 391.5,-56 364.517,-44.1502 333.362,-31.9504 310.447,-23.248"/>
<polygon fill="midnightblue" stroke="midnightblue" points="311.448,-19.8847 300.856,-19.6269 308.975,-26.4335 311.448,-19.8847"/>
</g>
<!-- Node9&#45;&gt;Node4 -->
<g id="edge14" class="edge"><title>Node9&#45;&gt;Node4</title>
<path fill="none" stroke="midnightblue" d="M530.276,-112.478C538.85,-98.0836 558.332,-69.2305 583.5,-56 634.302,-29.2934 796.403,-17.719 883.266,-13.3292"/>
<polygon fill="midnightblue" stroke="midnightblue" points="883.657,-16.8143 893.474,-12.8289 883.314,-9.8227 883.657,-16.8143"/>
</g>
<!-- Node10 -->
<g id="node10" class="node"><title>Node10</title>
<polygon fill="none" stroke="#bfbfbf" points="482,-56.5 482,-75.5 531,-75.5 531,-56.5 482,-56.5"/>
<text text-anchor="middle" x="506.5" y="-63.5" font-family="Helvetica,sans-Serif" font-size="10.00">QColor</text>
</g>
<!-- Node9&#45;&gt;Node10 -->
<g id="edge13" class="edge"><title>Node9&#45;&gt;Node10</title>
<path fill="none" stroke="midnightblue" d="M522.363,-112.083C519.817,-104.849 516.144,-94.4087 512.973,-85.3968"/>
<polygon fill="midnightblue" stroke="midnightblue" points="516.2,-84.0225 509.579,-75.7511 509.597,-86.3459 516.2,-84.0225"/>
</g>
<!-- Node9&#45;&gt;Node11 -->
<g id="edge15" class="edge"><title>Node9&#45;&gt;Node11</title>
<path fill="none" stroke="midnightblue" d="M495.09,-114.379C451.528,-104.893 371.124,-87.3858 321.197,-76.5146"/>
<polygon fill="midnightblue" stroke="midnightblue" points="321.85,-73.0748 311.334,-74.367 320.36,-79.9146 321.85,-73.0748"/>
</g>
<!-- Node11&#45;&gt;Node2 -->
<g id="edge16" class="edge"><title>Node11&#45;&gt;Node2</title>
<path fill="none" stroke="midnightblue" d="M277.5,-56.083C277.5,-49.0059 277.5,-38.8611 277.5,-29.9865"/>
<polygon fill="midnightblue" stroke="midnightblue" points="281,-29.751 277.5,-19.7511 274,-29.7511 281,-29.751"/>
</g>
<!-- Node11&#45;&gt;Node4 -->
<g id="edge18" class="edge"><title>Node11&#45;&gt;Node4</title>
<path fill="none" stroke="midnightblue" d="M311.239,-62.2479C418.064,-53.534 749.662,-26.4852 883.066,-15.6034"/>
<polygon fill="midnightblue" stroke="midnightblue" points="883.399,-19.088 893.081,-14.7864 882.83,-12.1111 883.399,-19.088"/>
</g>
<!-- Node12 -->
<g id="node12" class="node"><title>Node12</title>
<polygon fill="none" stroke="#bfbfbf" points="116.5,-0.5 116.5,-19.5 174.5,-19.5 174.5,-0.5 116.5,-0.5"/>
<text text-anchor="middle" x="145.5" y="-7.5" font-family="Helvetica,sans-Serif" font-size="10.00">QVariant</text>
</g>
<!-- Node11&#45;&gt;Node12 -->
<g id="edge17" class="edge"><title>Node11&#45;&gt;Node12</title>
<path fill="none" stroke="midnightblue" d="M256.584,-56.4435C234.764,-47.5171 200.35,-33.4387 175.608,-23.3168"/>
<polygon fill="midnightblue" stroke="midnightblue" points="176.899,-20.0634 166.318,-19.5164 174.248,-26.5422 176.899,-20.0634"/>
</g>
<!-- Node13&#45;&gt;Node2 -->
<g id="edge21" class="edge"><title>Node13&#45;&gt;Node2</title>
<path fill="none" stroke="midnightblue" d="M962.999,-512.441C804.969,-510.427 354.156,-501.754 297.5,-468 157.107,-384.357 186.902,-274.359 205.5,-112 208.408,-86.6153 204.633,-77.4606 218.5,-56 226.801,-43.1527 240.094,-32.5425 251.962,-24.8579"/>
<polygon fill="midnightblue" stroke="midnightblue" points="253.935,-27.7546 260.654,-19.5631 250.293,-21.7764 253.935,-27.7546"/>
</g>
<!-- Node13&#45;&gt;Node4 -->
<g id="edge25" class="edge"><title>Node13&#45;&gt;Node4</title>
<path fill="none" stroke="midnightblue" d="M1072.26,-511.829C1200.67,-508.598 1513.13,-497.739 1549.5,-468 1572.8,-448.949 1568.5,-433.098 1568.5,-403 1568.5,-403 1568.5,-403 1568.5,-121 1568.5,-46.2989 1485.95,-74.182 1413.5,-56 1266,-18.9868 1085.72,-11.9318 995.934,-10.892"/>
<polygon fill="midnightblue" stroke="midnightblue" points="995.735,-7.39007 985.703,-10.7953 995.669,-14.3898 995.735,-7.39007"/>
</g>
<!-- Node13&#45;&gt;Node7 -->
<g id="edge22" class="edge"><title>Node13&#45;&gt;Node7</title>
<path fill="none" stroke="midnightblue" d="M1029.55,-504.329C1086.13,-463.113 1321.02,-286.423 1277.5,-224 1221.82,-144.13 1095.48,-127.254 1035.83,-123.807"/>
<polygon fill="midnightblue" stroke="midnightblue" points="1035.66,-120.294 1025.5,-123.307 1035.32,-127.286 1035.66,-120.294"/>
</g>
<!-- Node13&#45;&gt;Node9 -->
<g id="edge37" class="edge"><title>Node13&#45;&gt;Node9</title>
<path fill="none" stroke="midnightblue" d="M962.905,-513.064C826.839,-511.877 479.014,-500.12 415.5,-412 366.644,-344.216 381.887,-300.496 415.5,-224 432.853,-184.508 474.115,-153.686 500.877,-136.947"/>
<polygon fill="midnightblue" stroke="midnightblue" points="502.933,-139.794 509.676,-131.622 499.308,-133.806 502.933,-139.794"/>
</g>
<!-- Node13&#45;&gt;Node11 -->
<g id="edge29" class="edge"><title>Node13&#45;&gt;Node11</title>
<path fill="none" stroke="midnightblue" d="M962.738,-512.948C807.345,-512.321 371.605,-507.062 321.5,-468 201.409,-374.376 253.568,-150.534 272.015,-85.1962"/>
<polygon fill="midnightblue" stroke="midnightblue" points="275.402,-86.0838 274.838,-75.5039 268.681,-84.1261 275.402,-86.0838"/>
</g>
<!-- Node14 -->
<g id="node14" class="node"><title>Node14</title>
<polygon fill="none" stroke="#bfbfbf" points="1113.5,-448.5 1113.5,-467.5 1157.5,-467.5 1157.5,-448.5 1113.5,-448.5"/>
<text text-anchor="middle" x="1135.5" y="-455.5" font-family="Helvetica,sans-Serif" font-size="10.00">QMap</text>
</g>
<!-- Node13&#45;&gt;Node14 -->
<g id="edge23" class="edge"><title>Node13&#45;&gt;Node14</title>
<path fill="none" stroke="midnightblue" d="M1036.2,-504.444C1055.44,-495.636 1085.65,-481.812 1107.7,-471.722"/>
<polygon fill="midnightblue" stroke="midnightblue" points="1109.25,-474.86 1116.89,-467.516 1106.34,-468.495 1109.25,-474.86"/>
</g>
<!-- Node15 -->
<g id="node15" class="node"><title>Node15</title>
<polygon fill="none" stroke="#bfbfbf" points="1214,-224.5 1214,-243.5 1269,-243.5 1269,-224.5 1214,-224.5"/>
<text text-anchor="middle" x="1241.5" y="-231.5" font-family="Helvetica,sans-Serif" font-size="10.00">QVector</text>
</g>
<!-- Node13&#45;&gt;Node15 -->
<g id="edge24" class="edge"><title>Node13&#45;&gt;Node15</title>
<path fill="none" stroke="midnightblue" d="M1024.37,-504.481C1034.51,-491.961 1054.16,-467.917 1071.5,-448 1129.96,-380.852 1155.01,-372.631 1206.5,-300 1217.13,-285.003 1226.84,-266.405 1233.32,-252.951"/>
<polygon fill="midnightblue" stroke="midnightblue" points="1236.53,-254.349 1237.61,-243.809 1230.19,-251.376 1236.53,-254.349"/>
</g>
<!-- Node16 -->
<g id="node16" class="node"><title>Node16</title>
<polygon fill="none" stroke="#bfbfbf" points="1175.5,-448.5 1175.5,-467.5 1237.5,-467.5 1237.5,-448.5 1175.5,-448.5"/>
<text text-anchor="middle" x="1206.5" y="-455.5" font-family="Helvetica,sans-Serif" font-size="10.00">QMargins</text>
</g>
<!-- Node13&#45;&gt;Node16 -->
<g id="edge26" class="edge"><title>Node13&#45;&gt;Node16</title>
<path fill="none" stroke="midnightblue" d="M1047.45,-504.444C1079.66,-495.241 1131.03,-480.562 1166.64,-470.388"/>
<polygon fill="midnightblue" stroke="midnightblue" points="1168.04,-473.629 1176.69,-467.516 1166.12,-466.898 1168.04,-473.629"/>
</g>
<!-- Node17 -->
<g id="node17" class="node"><title>Node17</title>
<polygon fill="none" stroke="#bfbfbf" points="1255.5,-448.5 1255.5,-467.5 1311.5,-467.5 1311.5,-448.5 1255.5,-448.5"/>
<text text-anchor="middle" x="1283.5" y="-455.5" font-family="Helvetica,sans-Serif" font-size="10.00">QPrinter</text>
</g>
<!-- Node13&#45;&gt;Node17 -->
<g id="edge27" class="edge"><title>Node13&#45;&gt;Node17</title>
<path fill="none" stroke="midnightblue" d="M1064.12,-504.47C1108.31,-496.242 1176.78,-483.129 1245.16,-468.221"/>
<polygon fill="midnightblue" stroke="midnightblue" points="1246.23,-471.571 1255.25,-466.009 1244.73,-464.733 1246.23,-471.571"/>
</g>
<!-- Node18 -->
<g id="node18" class="node"><title>Node18</title>
<polygon fill="none" stroke="#bfbfbf" points="1329,-448.5 1329,-467.5 1440,-467.5 1440,-448.5 1329,-448.5"/>
<text text-anchor="middle" x="1384.5" y="-455.5" font-family="Helvetica,sans-Serif" font-size="10.00">QRegularExpression</text>
</g>
<!-- Node13&#45;&gt;Node18 -->
<g id="edge28" class="edge"><title>Node13&#45;&gt;Node18</title>
<path fill="none" stroke="midnightblue" d="M1072.05,-504.974C1137.8,-495.299 1248.23,-479.051 1318.66,-468.688"/>
<polygon fill="midnightblue" stroke="midnightblue" points="1319.37,-472.122 1328.75,-467.203 1318.35,-465.196 1319.37,-472.122"/>
</g>
<!-- Node19 -->
<g id="node19" class="node"><title>Node19</title>
<g id="a_node19"><a xlink:href="field_8hpp.html" target="_top" xlink:title="field.hpp">
<polygon fill="none" stroke="black" points="287,-280.5 287,-299.5 344,-299.5 344,-280.5 287,-280.5"/>
<text text-anchor="middle" x="315.5" y="-287.5" font-family="Helvetica,sans-Serif" font-size="10.00">field.hpp</text>
</a>
</g>
</g>
<!-- Node13&#45;&gt;Node19 -->
<g id="edge30" class="edge"><title>Node13&#45;&gt;Node19</title>
<path fill="none" stroke="midnightblue" d="M962.988,-513.259C809.97,-513.456 384.659,-510.167 339.5,-468 295.528,-426.941 304.419,-346.462 311.304,-309.89"/>
<polygon fill="midnightblue" stroke="midnightblue" points="314.821,-310.164 313.4,-299.665 307.963,-308.758 314.821,-310.164"/>
</g>
<!-- Node21 -->
<g id="node21" class="node"><title>Node21</title>
<g id="a_node21"><a xlink:href="group_8hpp.html" target="_top" xlink:title="group.hpp">
<polygon fill="none" stroke="black" points="593,-448.5 593,-467.5 658,-467.5 658,-448.5 593,-448.5"/>
<text text-anchor="middle" x="625.5" y="-455.5" font-family="Helvetica,sans-Serif" font-size="10.00">group.hpp</text>
</a>
</g>
</g>
<!-- Node13&#45;&gt;Node21 -->
<g id="edge38" class="edge"><title>Node13&#45;&gt;Node21</title>
<path fill="none" stroke="midnightblue" d="M962.994,-505.492C884.093,-494.622 739.688,-474.73 668.084,-464.866"/>
<polygon fill="midnightblue" stroke="midnightblue" points="668.448,-461.383 658.064,-463.486 667.493,-468.318 668.448,-461.383"/>
</g>
<!-- Node31 -->
<g id="node31" class="node"><title>Node31</title>
<g id="a_node31"><a xlink:href="title_8hpp.html" target="_top" xlink:title="title.hpp">
<polygon fill="none" stroke="black" points="881.5,-448.5 881.5,-467.5 937.5,-467.5 937.5,-448.5 881.5,-448.5"/>
<text text-anchor="middle" x="909.5" y="-455.5" font-family="Helvetica,sans-Serif" font-size="10.00">title.hpp</text>
</a>
</g>
</g>
<!-- Node13&#45;&gt;Node31 -->
<g id="edge71" class="edge"><title>Node13&#45;&gt;Node31</title>
<path fill="none" stroke="midnightblue" d="M1000.15,-504.324C982.828,-495.664 955.985,-482.242 935.998,-472.249"/>
<polygon fill="midnightblue" stroke="midnightblue" points="937.319,-468.996 926.809,-467.655 934.188,-475.257 937.319,-468.996"/>
</g>
<!-- Node32 -->
<g id="node32" class="node"><title>Node32</title>
<g id="a_node32"><a xlink:href="detail_8hpp.html" target="_top" xlink:title="detail.hpp">
<polygon fill="none" stroke="black" points="955.5,-448.5 955.5,-467.5 1019.5,-467.5 1019.5,-448.5 955.5,-448.5"/>
<text text-anchor="middle" x="987.5" y="-455.5" font-family="Helvetica,sans-Serif" font-size="10.00">detail.hpp</text>
</a>
</g>
</g>
<!-- Node13&#45;&gt;Node32 -->
<g id="edge74" class="edge"><title>Node13&#45;&gt;Node32</title>
<path fill="none" stroke="midnightblue" d="M1012.55,-504.083C1008.4,-496.613 1002.35,-485.724 997.233,-476.52"/>
<polygon fill="midnightblue" stroke="midnightblue" points="1000.28,-474.793 992.362,-467.751 994.159,-478.192 1000.28,-474.793"/>
</g>
<!-- Node33 -->
<g id="node33" class="node"><title>Node33</title>
<g id="a_node33"><a xlink:href="summary_8hpp.html" target="_top" xlink:title="summary.hpp">
<polygon fill="none" stroke="black" points="1458.5,-448.5 1458.5,-467.5 1540.5,-467.5 1540.5,-448.5 1458.5,-448.5"/>
<text text-anchor="middle" x="1499.5" y="-455.5" font-family="Helvetica,sans-Serif" font-size="10.00">summary.hpp</text>
</a>
</g>
</g>
<!-- Node13&#45;&gt;Node33 -->
<g id="edge77" class="edge"><title>Node13&#45;&gt;Node33</title>
<path fill="none" stroke="midnightblue" d="M1072.22,-508.613C1152.44,-501.891 1306.91,-487.851 1448.19,-468.092"/>
<polygon fill="midnightblue" stroke="midnightblue" points="1448.93,-471.523 1458.34,-466.659 1447.95,-464.591 1448.93,-471.523"/>
</g>
<!-- Node19&#45;&gt;Node2 -->
<g id="edge33" class="edge"><title>Node19&#45;&gt;Node2</title>
<path fill="none" stroke="midnightblue" d="M310.841,-280.418C295.843,-252.215 248.95,-159.422 234.5,-76 232.983,-67.2415 231.192,-64.2504 234.5,-56 239.18,-44.328 248.491,-33.9687 257.256,-26.1405"/>
<polygon fill="midnightblue" stroke="midnightblue" points="259.552,-28.7832 265.003,-19.698 255.076,-23.4011 259.552,-28.7832"/>
</g>
<!-- Node19&#45;&gt;Node4 -->
<g id="edge31" class="edge"><title>Node19&#45;&gt;Node4</title>
<path fill="none" stroke="midnightblue" d="M318.307,-280.217C330.167,-244.722 379.872,-111.142 472.5,-56 540.556,-15.4858 774.719,-10.5571 883.339,-10.528"/>
<polygon fill="midnightblue" stroke="midnightblue" points="883.445,-14.028 893.449,-10.5395 883.453,-7.02805 883.445,-14.028"/>
</g>
<!-- Node19&#45;&gt;Node11 -->
<g id="edge36" class="edge"><title>Node19&#45;&gt;Node11</title>
<path fill="none" stroke="midnightblue" d="M312.384,-280.488C309.213,-271.523 304.369,-256.94 301.5,-244 288.885,-187.106 281.858,-118.363 279.013,-85.824"/>
<polygon fill="midnightblue" stroke="midnightblue" points="282.476,-85.2351 278.151,-75.5631 275.5,-85.821 282.476,-85.2351"/>
</g>
<!-- Node19&#45;&gt;Node12 -->
<g id="edge32" class="edge"><title>Node19&#45;&gt;Node12</title>
<path fill="none" stroke="midnightblue" d="M300.339,-280.44C265.902,-260.024 182.241,-204.699 149.5,-132 134.449,-98.5802 138.047,-54.5452 141.871,-29.8639"/>
<polygon fill="midnightblue" stroke="midnightblue" points="145.371,-30.1638 143.632,-19.7127 138.474,-28.9675 145.371,-30.1638"/>
</g>
<!-- Node19&#45;&gt;Node15 -->
<g id="edge34" class="edge"><title>Node19&#45;&gt;Node15</title>
<path fill="none" stroke="midnightblue" d="M344.328,-287.735C473.681,-282.017 1001.41,-258.254 1166.5,-244 1178.63,-242.953 1191.82,-241.482 1203.71,-240.032"/>
<polygon fill="midnightblue" stroke="midnightblue" points="1204.28,-243.489 1213.76,-238.775 1203.41,-236.543 1204.28,-243.489"/>
</g>
<!-- Node20 -->
<g id="node20" class="node"><title>Node20</title>
<polygon fill="none" stroke="#bfbfbf" points="533.5,-224.5 533.5,-243.5 587.5,-243.5 587.5,-224.5 533.5,-224.5"/>
<text text-anchor="middle" x="560.5" y="-231.5" font-family="Helvetica,sans-Serif" font-size="10.00">QImage</text>
</g>
<!-- Node19&#45;&gt;Node20 -->
<g id="edge35" class="edge"><title>Node19&#45;&gt;Node20</title>
<path fill="none" stroke="midnightblue" d="M344.084,-282.7C388.512,-272.908 474.127,-254.037 523.308,-243.197"/>
<polygon fill="midnightblue" stroke="midnightblue" points="524.21,-246.583 533.222,-241.012 522.703,-239.747 524.21,-246.583"/>
</g>
<!-- Node21&#45;&gt;Node2 -->
<g id="edge39" class="edge"><title>Node21&#45;&gt;Node2</title>
<path fill="none" stroke="midnightblue" d="M592.746,-453.361C521.298,-443.484 351.9,-409.113 277.5,-300 215.236,-208.685 185.564,-157.415 229.5,-56 234.768,-43.8399 245.12,-33.4594 254.865,-25.7429"/>
<polygon fill="midnightblue" stroke="midnightblue" points="257.144,-28.4116 263.13,-19.6698 252.999,-22.7707 257.144,-28.4116"/>
</g>
<!-- Node21&#45;&gt;Node4 -->
<g id="edge40" class="edge"><title>Node21&#45;&gt;Node4</title>
<path fill="none" stroke="midnightblue" d="M592.694,-453.557C536.898,-445.69 429.5,-420.944 429.5,-347 429.5,-347 429.5,-347 429.5,-289 429.5,-250.208 653.919,-71.4531 689.5,-56 752.45,-28.6601 831.253,-17.9306 883.371,-13.7199"/>
<polygon fill="midnightblue" stroke="midnightblue" points="883.718,-17.2038 893.426,-12.9617 883.191,-10.2236 883.718,-17.2038"/>
</g>
<!-- Node22 -->
<g id="node22" class="node"><title>Node22</title>
<g id="a_node22"><a xlink:href="section_8hpp.html" target="_top" xlink:title="section.hpp">
<polygon fill="none" stroke="black" points="951.5,-392.5 951.5,-411.5 1023.5,-411.5 1023.5,-392.5 951.5,-392.5"/>
<text text-anchor="middle" x="987.5" y="-399.5" font-family="Helvetica,sans-Serif" font-size="10.00">section.hpp</text>
</a>
</g>
</g>
<!-- Node21&#45;&gt;Node22 -->
<g id="edge41" class="edge"><title>Node21&#45;&gt;Node22</title>
<path fill="none" stroke="midnightblue" d="M658.264,-452.113C722.925,-442.467 867.103,-420.96 941.351,-409.884"/>
<polygon fill="midnightblue" stroke="midnightblue" points="941.974,-413.33 951.348,-408.393 940.941,-406.407 941.974,-413.33"/>
</g>
<!-- Node22&#45;&gt;Node4 -->
<g id="edge43" class="edge"><title>Node22&#45;&gt;Node4</title>
<path fill="none" stroke="midnightblue" d="M1023.67,-393.235C1105.44,-373.331 1297.5,-312.386 1297.5,-179 1297.5,-179 1297.5,-179 1297.5,-121 1297.5,-58.6098 1096.32,-27.9442 995.58,-16.5"/>
<polygon fill="midnightblue" stroke="midnightblue" points="995.895,-13.0135 985.569,-15.3885 995.122,-19.9707 995.895,-13.0135"/>
</g>
<!-- Node22&#45;&gt;Node11 -->
<g id="edge44" class="edge"><title>Node22&#45;&gt;Node11</title>
<path fill="none" stroke="midnightblue" d="M951.315,-399.622C870.26,-395.193 669.847,-376.69 524.5,-300 417.413,-243.497 323.166,-127.678 290.088,-84.0934"/>
<polygon fill="midnightblue" stroke="midnightblue" points="292.773,-81.8399 283.975,-75.9366 287.171,-86.0378 292.773,-81.8399"/>
</g>
<!-- Node22&#45;&gt;Node15 -->
<g id="edge42" class="edge"><title>Node22&#45;&gt;Node15</title>
<path fill="none" stroke="midnightblue" d="M1009.43,-392.389C1046.75,-377.134 1124.04,-342.892 1180.5,-300 1199.07,-285.891 1216.92,-265.865 1228.46,-251.779"/>
<polygon fill="midnightblue" stroke="midnightblue" points="1231.26,-253.878 1234.78,-243.883 1225.8,-249.504 1231.26,-253.878"/>
</g>
<!-- Node23 -->
<g id="node23" class="node"><title>Node23</title>
<g id="a_node23"><a xlink:href="band_8hpp.html" target="_top" xlink:title="band.hpp">
<polygon fill="none" stroke="black" points="956.5,-336.5 956.5,-355.5 1018.5,-355.5 1018.5,-336.5 956.5,-336.5"/>
<text text-anchor="middle" x="987.5" y="-343.5" font-family="Helvetica,sans-Serif" font-size="10.00">band.hpp</text>
</a>
</g>
</g>
<!-- Node22&#45;&gt;Node23 -->
<g id="edge45" class="edge"><title>Node22&#45;&gt;Node23</title>
<path fill="none" stroke="midnightblue" d="M987.5,-392.083C987.5,-385.006 987.5,-374.861 987.5,-365.986"/>
<polygon fill="midnightblue" stroke="midnightblue" points="991,-365.751 987.5,-355.751 984,-365.751 991,-365.751"/>
</g>
<!-- Node23&#45;&gt;Node4 -->
<g id="edge47" class="edge"><title>Node23&#45;&gt;Node4</title>
<path fill="none" stroke="midnightblue" d="M1018.78,-337.521C1060.76,-325.636 1133.81,-298.041 1166.5,-244 1196.95,-193.657 1183.2,-170.453 1176.5,-112 1173.59,-86.6153 1181.83,-73.7954 1163.5,-56 1140.07,-33.2613 1054.15,-21.159 995.796,-15.4162"/>
<polygon fill="midnightblue" stroke="midnightblue" points="995.888,-11.9093 985.602,-14.4496 995.227,-18.878 995.888,-11.9093"/>
</g>
<!-- Node23&#45;&gt;Node5 -->
<g id="edge68" class="edge"><title>Node23&#45;&gt;Node5</title>
<path fill="none" stroke="midnightblue" d="M956.237,-341.901C909.014,-336.502 823.019,-323.625 804.5,-300 790.104,-281.635 837.408,-223.754 862.667,-195.223"/>
<polygon fill="midnightblue" stroke="midnightblue" points="865.347,-197.477 869.422,-187.698 860.138,-192.801 865.347,-197.477"/>
</g>
<!-- Node23&#45;&gt;Node15 -->
<g id="edge46" class="edge"><title>Node23&#45;&gt;Node15</title>
<path fill="none" stroke="midnightblue" d="M1018.68,-339.768C1052.37,-333.358 1107.04,-320.716 1150.5,-300 1178.36,-286.719 1206.72,-264.864 1224.2,-250.208"/>
<polygon fill="midnightblue" stroke="midnightblue" points="1226.54,-252.817 1231.87,-243.66 1221.99,-247.495 1226.54,-252.817"/>
</g>
<!-- Node24 -->
<g id="node24" class="node"><title>Node24</title>
<g id="a_node24"><a xlink:href="statictext_8hpp.html" target="_top" xlink:title="statictext.hpp">
<polygon fill="none" stroke="black" points="911,-280.5 911,-299.5 994,-299.5 994,-280.5 911,-280.5"/>
<text text-anchor="middle" x="952.5" y="-287.5" font-family="Helvetica,sans-Serif" font-size="10.00">statictext.hpp</text>
</a>
</g>
</g>
<!-- Node23&#45;&gt;Node24 -->
<g id="edge48" class="edge"><title>Node23&#45;&gt;Node24</title>
<path fill="none" stroke="midnightblue" d="M981.72,-336.083C976.828,-328.534 969.673,-317.495 963.667,-308.23"/>
<polygon fill="midnightblue" stroke="midnightblue" points="966.548,-306.239 958.172,-299.751 960.674,-310.046 966.548,-306.239"/>
</g>
<!-- Node25 -->
<g id="node25" class="node"><title>Node25</title>
<g id="a_node25"><a xlink:href="textfield_8hpp.html" target="_top" xlink:title="textfield.hpp">
<polygon fill="none" stroke="black" points="533.5,-280.5 533.5,-299.5 609.5,-299.5 609.5,-280.5 533.5,-280.5"/>
<text text-anchor="middle" x="571.5" y="-287.5" font-family="Helvetica,sans-Serif" font-size="10.00">textfield.hpp</text>
</a>
</g>
</g>
<!-- Node23&#45;&gt;Node25 -->
<g id="edge51" class="edge"><title>Node23&#45;&gt;Node25</title>
<path fill="none" stroke="midnightblue" d="M956.232,-340.941C884.147,-331.584 705.889,-308.445 619.697,-297.256"/>
<polygon fill="midnightblue" stroke="midnightblue" points="620.023,-293.769 609.656,-295.953 619.122,-300.711 620.023,-293.769"/>
</g>
<!-- Node26 -->
<g id="node26" class="node"><title>Node26</title>
<g id="a_node26"><a xlink:href="line_8hpp.html" target="_top" xlink:title="line.hpp">
<polygon fill="none" stroke="black" points="1103.5,-224.5 1103.5,-243.5 1157.5,-243.5 1157.5,-224.5 1103.5,-224.5"/>
<text text-anchor="middle" x="1130.5" y="-231.5" font-family="Helvetica,sans-Serif" font-size="10.00">line.hpp</text>
</a>
</g>
</g>
<!-- Node23&#45;&gt;Node26 -->
<g id="edge55" class="edge"><title>Node23&#45;&gt;Node26</title>
<path fill="none" stroke="midnightblue" d="M1000.69,-336.37C1014,-327.548 1035.02,-313.293 1052.5,-300 1073.81,-283.795 1097.29,-263.94 1112.86,-250.47"/>
<polygon fill="midnightblue" stroke="midnightblue" points="1115.39,-252.911 1120.64,-243.707 1110.79,-247.629 1115.39,-252.911"/>
</g>
<!-- Node27 -->
<g id="node27" class="node"><title>Node27</title>
<g id="a_node27"><a xlink:href="rect_8hpp.html" target="_top" xlink:title="rect.hpp">
<polygon fill="none" stroke="black" points="905.5,-224.5 905.5,-243.5 961.5,-243.5 961.5,-224.5 905.5,-224.5"/>
<text text-anchor="middle" x="933.5" y="-231.5" font-family="Helvetica,sans-Serif" font-size="10.00">rect.hpp</text>
</a>
</g>
</g>
<!-- Node23&#45;&gt;Node27 -->
<g id="edge58" class="edge"><title>Node23&#45;&gt;Node27</title>
<path fill="none" stroke="midnightblue" d="M993.052,-336.492C1000.72,-323.568 1012.54,-298.533 1002.5,-280 994.751,-265.696 980.266,-255.219 966.56,-247.992"/>
<polygon fill="midnightblue" stroke="midnightblue" points="967.814,-244.71 957.288,-243.501 964.762,-251.01 967.814,-244.71"/>
</g>
<!-- Node28 -->
<g id="node28" class="node"><title>Node28</title>
<g id="a_node28"><a xlink:href="ellipse_8hpp.html" target="_top" xlink:title="ellipse.hpp">
<polygon fill="none" stroke="black" points="979.5,-224.5 979.5,-243.5 1047.5,-243.5 1047.5,-224.5 979.5,-224.5"/>
<text text-anchor="middle" x="1013.5" y="-231.5" font-family="Helvetica,sans-Serif" font-size="10.00">ellipse.hpp</text>
</a>
</g>
</g>
<!-- Node23&#45;&gt;Node28 -->
<g id="edge61" class="edge"><title>Node23&#45;&gt;Node28</title>
<path fill="none" stroke="midnightblue" d="M1002.16,-336.402C1013.91,-328.585 1029.53,-315.862 1036.5,-300 1043.54,-283.972 1035.03,-265.043 1026.44,-251.759"/>
<polygon fill="midnightblue" stroke="midnightblue" points="1029.29,-249.728 1020.67,-243.569 1023.57,-253.76 1029.29,-249.728"/>
</g>
<!-- Node29 -->
<g id="node29" class="node"><title>Node29</title>
<g id="a_node29"><a xlink:href="image_8hpp.html" target="_top" xlink:title="image.hpp">
<polygon fill="none" stroke="black" points="686.5,-280.5 686.5,-299.5 754.5,-299.5 754.5,-280.5 686.5,-280.5"/>
<text text-anchor="middle" x="720.5" y="-287.5" font-family="Helvetica,sans-Serif" font-size="10.00">image.hpp</text>
</a>
</g>
</g>
<!-- Node23&#45;&gt;Node29 -->
<g id="edge64" class="edge"><title>Node23&#45;&gt;Node29</title>
<path fill="none" stroke="midnightblue" d="M956.349,-338.7C909.05,-329.134 818.912,-310.904 764.806,-299.961"/>
<polygon fill="midnightblue" stroke="midnightblue" points="765.31,-296.492 754.814,-297.94 763.922,-303.353 765.31,-296.492"/>
</g>
<!-- Node30 -->
<g id="node30" class="node"><title>Node30</title>
<g id="a_node30"><a xlink:href="crosstab_8hpp.html" target="_top" xlink:title="crosstab.hpp">
<polygon fill="none" stroke="black" points="814,-280.5 814,-299.5 893,-299.5 893,-280.5 814,-280.5"/>
<text text-anchor="middle" x="853.5" y="-287.5" font-family="Helvetica,sans-Serif" font-size="10.00">crosstab.hpp</text>
</a>
</g>
</g>
<!-- Node23&#45;&gt;Node30 -->
<g id="edge69" class="edge"><title>Node23&#45;&gt;Node30</title>
<path fill="none" stroke="midnightblue" d="M966.267,-336.444C944.116,-327.517 909.181,-313.439 884.064,-303.317"/>
<polygon fill="midnightblue" stroke="midnightblue" points="885.217,-300.008 874.633,-299.516 882.6,-306.501 885.217,-300.008"/>
</g>
<!-- Node24&#45;&gt;Node3 -->
<g id="edge50" class="edge"><title>Node24&#45;&gt;Node3</title>
<path fill="none" stroke="midnightblue" d="M913.837,-280.444C871.362,-271.043 803.069,-255.929 757.026,-245.739"/>
<polygon fill="midnightblue" stroke="midnightblue" points="757.502,-242.26 746.982,-243.516 755.989,-249.095 757.502,-242.26"/>
</g>
<!-- Node24&#45;&gt;Node4 -->
<g id="edge49" class="edge"><title>Node24&#45;&gt;Node4</title>
<path fill="none" stroke="midnightblue" d="M994.03,-281.712C1016.25,-275.549 1041.96,-264.316 1056.5,-244 1090.73,-196.186 1073.17,-170.3 1065.5,-112 1062.14,-86.454 1067.56,-75.3086 1050.5,-56 1036.12,-39.7295 1015.01,-29.2453 995.044,-22.5342"/>
<polygon fill="midnightblue" stroke="midnightblue" points="995.958,-19.1533 985.37,-19.5339 993.885,-25.8391 995.958,-19.1533"/>
</g>
<!-- Node25&#45;&gt;Node2 -->
<g id="edge52" class="edge"><title>Node25&#45;&gt;Node2</title>
<path fill="none" stroke="midnightblue" d="M562.379,-280.375C520.709,-240.973 348.15,-77.8051 293.9,-26.5079"/>
<polygon fill="midnightblue" stroke="midnightblue" points="296.186,-23.8518 286.515,-19.5243 291.376,-28.938 296.186,-23.8518"/>
</g>
<!-- Node25&#45;&gt;Node3 -->
<g id="edge54" class="edge"><title>Node25&#45;&gt;Node3</title>
<path fill="none" stroke="midnightblue" d="M593.208,-280.444C615.855,-271.517 651.572,-257.439 677.252,-247.317"/>
<polygon fill="midnightblue" stroke="midnightblue" points="678.874,-250.44 686.894,-243.516 676.307,-243.927 678.874,-250.44"/>
</g>
<!-- Node25&#45;&gt;Node4 -->
<g id="edge53" class="edge"><title>Node25&#45;&gt;Node4</title>
<path fill="none" stroke="midnightblue" d="M577.055,-280.448C602.076,-242.177 705.179,-87.145 753.5,-56 792.465,-30.8859 844.21,-19.7801 883.229,-14.873"/>
<polygon fill="midnightblue" stroke="midnightblue" points="883.834,-18.3264 893.366,-13.7004 883.03,-11.3727 883.834,-18.3264"/>
</g>
<!-- Node26&#45;&gt;Node4 -->
<g id="edge56" class="edge"><title>Node26&#45;&gt;Node4</title>
<path fill="none" stroke="midnightblue" d="M1134.77,-224.421C1147.97,-196.552 1184.8,-107.402 1143.5,-56 1125.25,-33.2902 1049.57,-21.3619 995.729,-15.6266"/>
<polygon fill="midnightblue" stroke="midnightblue" points="995.915,-12.1275 985.611,-14.5937 995.204,-19.0913 995.915,-12.1275"/>
</g>
<!-- Node26&#45;&gt;Node5 -->
<g id="edge57" class="edge"><title>Node26&#45;&gt;Node5</title>
<path fill="none" stroke="midnightblue" d="M1103.42,-227.221C1059.92,-217.936 974.048,-199.607 921.608,-188.414"/>
<polygon fill="midnightblue" stroke="midnightblue" points="922.098,-184.94 911.588,-186.276 920.637,-191.786 922.098,-184.94"/>
</g>
<!-- Node27&#45;&gt;Node4 -->
<g id="edge59" class="edge"><title>Node27&#45;&gt;Node4</title>
<path fill="none" stroke="midnightblue" d="M947.689,-224.28C971.042,-208.987 1016.75,-174.842 1034.5,-132 1052.9,-87.5678 998.414,-45.7755 964.472,-24.893"/>
<polygon fill="midnightblue" stroke="midnightblue" points="965.905,-21.6735 955.521,-19.5728 962.328,-27.6909 965.905,-21.6735"/>
</g>
<!-- Node27&#45;&gt;Node5 -->
<g id="edge60" class="edge"><title>Node27&#45;&gt;Node5</title>
<path fill="none" stroke="midnightblue" d="M924.503,-224.324C916.306,-216.42 903.994,-204.548 894.028,-194.938"/>
<polygon fill="midnightblue" stroke="midnightblue" points="896.289,-192.256 886.661,-187.834 891.43,-197.295 896.289,-192.256"/>
</g>
<!-- Node28&#45;&gt;Node4 -->
<g id="edge62" class="edge"><title>Node28&#45;&gt;Node4</title>
<path fill="none" stroke="midnightblue" d="M1019.16,-224.369C1031.35,-204.765 1058.34,-155.229 1050.5,-112 1045.76,-85.8452 1047.28,-75.7552 1029.5,-56 1015.99,-40.9923 996.33,-30.3628 978.829,-23.2175"/>
<polygon fill="midnightblue" stroke="midnightblue" points="979.972,-19.9073 969.382,-19.6007 977.469,-26.4447 979.972,-19.9073"/>
</g>
<!-- Node28&#45;&gt;Node5 -->
<g id="edge63" class="edge"><title>Node28&#45;&gt;Node5</title>
<path fill="none" stroke="midnightblue" d="M991.95,-224.444C969.469,-215.517 934.012,-201.439 908.52,-191.317"/>
<polygon fill="midnightblue" stroke="midnightblue" points="909.535,-187.954 898.949,-187.516 906.951,-194.46 909.535,-187.954"/>
</g>
<!-- Node29&#45;&gt;Node3 -->
<g id="edge67" class="edge"><title>Node29&#45;&gt;Node3</title>
<path fill="none" stroke="midnightblue" d="M718.518,-280.083C716.928,-272.927 714.641,-262.635 712.654,-253.691"/>
<polygon fill="midnightblue" stroke="midnightblue" points="716.031,-252.754 710.445,-243.751 709.197,-254.272 716.031,-252.754"/>
</g>
<!-- Node29&#45;&gt;Node4 -->
<g id="edge66" class="edge"><title>Node29&#45;&gt;Node4</title>
<path fill="none" stroke="midnightblue" d="M736.632,-280.354C750.141,-272.423 769.144,-259.563 781.5,-244 838.07,-172.744 802.211,-124.137 862.5,-56 874.82,-42.0758 892.524,-31.3135 907.85,-23.8103"/>
<polygon fill="midnightblue" stroke="midnightblue" points="909.416,-26.9423 917.016,-19.5606 906.471,-20.5916 909.416,-26.9423"/>
</g>
<!-- Node29&#45;&gt;Node20 -->
<g id="edge65" class="edge"><title>Node29&#45;&gt;Node20</title>
<path fill="none" stroke="midnightblue" d="M695.148,-280.444C668.231,-271.359 625.504,-256.939 595.413,-246.783"/>
<polygon fill="midnightblue" stroke="midnightblue" points="596.328,-243.398 585.734,-243.516 594.09,-250.031 596.328,-243.398"/>
</g>
<!-- Node30&#45;&gt;Node5 -->
<g id="edge70" class="edge"><title>Node30&#45;&gt;Node5</title>
<path fill="none" stroke="midnightblue" d="M855.383,-280.368C859.256,-262.617 868.191,-221.666 873.442,-197.597"/>
<polygon fill="midnightblue" stroke="midnightblue" points="876.913,-198.108 875.626,-187.591 870.074,-196.615 876.913,-198.108"/>
</g>
<!-- Node31&#45;&gt;Node4 -->
<g id="edge72" class="edge"><title>Node31&#45;&gt;Node4</title>
<path fill="none" stroke="midnightblue" d="M881.412,-455.432C789.794,-449.561 505.5,-425.053 505.5,-347 505.5,-347 505.5,-347 505.5,-289 505.5,-258.902 507.957,-249.144 524.5,-224 556.684,-175.082 674.78,-81.4829 727.5,-56 776.999,-32.0743 839.058,-20.8007 883.214,-15.5308"/>
<polygon fill="midnightblue" stroke="midnightblue" points="883.647,-19.0042 893.192,-14.4054 882.863,-12.0483 883.647,-19.0042"/>
</g>
<!-- Node31&#45;&gt;Node22 -->
<g id="edge73" class="edge"><title>Node31&#45;&gt;Node22</title>
<path fill="none" stroke="midnightblue" d="M922.032,-448.324C934.086,-439.979 952.527,-427.212 966.769,-417.352"/>
<polygon fill="midnightblue" stroke="midnightblue" points="968.769,-420.224 974.999,-411.655 964.785,-414.469 968.769,-420.224"/>
</g>
<!-- Node32&#45;&gt;Node4 -->
<g id="edge75" class="edge"><title>Node32&#45;&gt;Node4</title>
<path fill="none" stroke="midnightblue" d="M1019.75,-450.251C1112.52,-428.757 1373.5,-352.841 1373.5,-179 1373.5,-179 1373.5,-179 1373.5,-121 1373.5,-43.9442 1113.18,-20.2647 995.764,-13.5032"/>
<polygon fill="midnightblue" stroke="midnightblue" points="995.713,-9.99511 985.535,-12.9363 995.326,-16.9844 995.713,-9.99511"/>
</g>
<!-- Node32&#45;&gt;Node22 -->
<g id="edge76" class="edge"><title>Node32&#45;&gt;Node22</title>
<path fill="none" stroke="midnightblue" d="M987.5,-448.083C987.5,-441.006 987.5,-430.861 987.5,-421.986"/>
<polygon fill="midnightblue" stroke="midnightblue" points="991,-421.751 987.5,-411.751 984,-421.751 991,-421.751"/>
</g>
<!-- Node33&#45;&gt;Node4 -->
<g id="edge78" class="edge"><title>Node33&#45;&gt;Node4</title>
<path fill="none" stroke="midnightblue" d="M1493.38,-448.349C1481.29,-430.377 1455.5,-387.314 1455.5,-347 1455.5,-347 1455.5,-347 1455.5,-121 1455.5,-27.8238 1129.6,-13.2719 995.803,-11.2238"/>
<polygon fill="midnightblue" stroke="midnightblue" points="995.792,-7.72343 985.746,-11.088 995.697,-14.7228 995.792,-7.72343"/>
</g>
<!-- Node33&#45;&gt;Node22 -->
<g id="edge79" class="edge"><title>Node33&#45;&gt;Node22</title>
<path fill="none" stroke="midnightblue" d="M1458.34,-449.319C1455.35,-448.845 1452.38,-448.399 1449.5,-448 1297.93,-427.012 1117.04,-412.402 1033.71,-406.255"/>
<polygon fill="midnightblue" stroke="midnightblue" points="1033.79,-402.752 1023.56,-405.513 1033.28,-409.733 1033.79,-402.752"/>
</g>
</g>
</svg>
