<?xml version="1.0" encoding="UTF-8" standalone="no"?>
<!DOCTYPE svg PUBLIC "-//W3C//DTD SVG 1.1//EN"
 "http://www.w3.org/Graphics/SVG/1.1/DTD/svg11.dtd">
<!-- Generated by graphviz version 2.38.0 (20140413.2041)
 -->
<!-- Title: /home/travis/build/PO&#45;31/QtReports/qtreports/src/tags/report.cpp Pages: 1 -->
<svg width="1328pt" height="610pt"
 viewBox="0.00 0.00 1328.00 610.00" xmlns="http://www.w3.org/2000/svg" xmlns:xlink="http://www.w3.org/1999/xlink">
<g id="graph0" class="graph" transform="scale(1 1) rotate(0) translate(4 606)">
<title>/home/travis/build/PO&#45;31/QtReports/qtreports/src/tags/report.cpp</title>
<!-- Node1 -->
<g id="node1" class="node"><title>Node1</title>
<polygon fill="#bfbfbf" stroke="black" points="340,-560.5 340,-601.5 486,-601.5 486,-560.5 340,-560.5"/>
<text text-anchor="start" x="348" y="-589.5" font-family="Helvetica,sans-Serif" font-size="10.00">/home/travis/build</text>
<text text-anchor="start" x="348" y="-578.5" font-family="Helvetica,sans-Serif" font-size="10.00">/PO&#45;31/QtReports/qtreports</text>
<text text-anchor="middle" x="413" y="-567.5" font-family="Helvetica,sans-Serif" font-size="10.00">/src/tags/report.cpp</text>
</g>
<!-- Node2 -->
<g id="node2" class="node"><title>Node2</title>
<g id="a_node2"><a xlink:href="report_8hpp.html" target="_top" xlink:title="report.hpp">
<polygon fill="none" stroke="black" points="379.5,-504.5 379.5,-523.5 446.5,-523.5 446.5,-504.5 379.5,-504.5"/>
<text text-anchor="middle" x="413" y="-511.5" font-family="Helvetica,sans-Serif" font-size="10.00">report.hpp</text>
</a>
</g>
</g>
<!-- Node1&#45;&gt;Node2 -->
<g id="edge1" class="edge"><title>Node1&#45;&gt;Node2</title>
<path fill="none" stroke="midnightblue" d="M413,-560.498C413,-552.065 413,-542.235 413,-533.874"/>
<polygon fill="midnightblue" stroke="midnightblue" points="416.5,-533.652 413,-523.652 409.5,-533.653 416.5,-533.652"/>
</g>
<!-- Node3 -->
<g id="node3" class="node"><title>Node3</title>
<polygon fill="none" stroke="#bfbfbf" points="218.5,-0.5 218.5,-19.5 271.5,-19.5 271.5,-0.5 218.5,-0.5"/>
<text text-anchor="middle" x="245" y="-7.5" font-family="Helvetica,sans-Serif" font-size="10.00">QString</text>
</g>
<!-- Node2&#45;&gt;Node3 -->
<g id="edge2" class="edge"><title>Node2&#45;&gt;Node3</title>
<path fill="none" stroke="midnightblue" d="M379.424,-512.614C298.622,-511.116 95.8895,-503.792 40,-468 11.4348,-449.707 0,-436.921 0,-403 0,-403 0,-403 0,-121 0,-30.936 139.491,-14.1596 207.966,-11.35"/>
<polygon fill="midnightblue" stroke="midnightblue" points="208.435,-14.8366 218.314,-11.0099 208.205,-7.84039 208.435,-14.8366"/>
</g>
<!-- Node4 -->
<g id="node4" class="node"><title>Node4</title>
<polygon fill="none" stroke="#bfbfbf" points="650,-112.5 650,-131.5 694,-131.5 694,-112.5 650,-112.5"/>
<text text-anchor="middle" x="672" y="-119.5" font-family="Helvetica,sans-Serif" font-size="10.00">QSize</text>
</g>
<!-- Node2&#45;&gt;Node4 -->
<g id="edge3" class="edge"><title>Node2&#45;&gt;Node4</title>
<path fill="none" stroke="midnightblue" d="M432.991,-504.499C456.348,-493.243 490.225,-471.994 477,-448 462.537,-421.759 440.762,-433.603 420,-412 354.849,-344.21 266.508,-299.158 323,-224 361.639,-172.593 560.146,-139 639.33,-127.458"/>
<polygon fill="midnightblue" stroke="midnightblue" points="640.279,-130.858 649.682,-125.976 639.287,-123.929 640.279,-130.858"/>
</g>
<!-- Node5 -->
<g id="node5" class="node"><title>Node5</title>
<polygon fill="none" stroke="#bfbfbf" points="66,-448.5 66,-467.5 110,-467.5 110,-448.5 66,-448.5"/>
<text text-anchor="middle" x="88" y="-455.5" font-family="Helvetica,sans-Serif" font-size="10.00">QMap</text>
</g>
<!-- Node2&#45;&gt;Node5 -->
<g id="edge4" class="edge"><title>Node2&#45;&gt;Node5</title>
<path fill="none" stroke="midnightblue" d="M379.45,-508.78C325.402,-501.756 215.823,-486.587 124,-468 122.721,-467.741 121.42,-467.467 120.107,-467.181"/>
<polygon fill="midnightblue" stroke="midnightblue" points="120.545,-463.69 110.013,-464.838 118.963,-470.509 120.545,-463.69"/>
</g>
<!-- Node6 -->
<g id="node6" class="node"><title>Node6</title>
<polygon fill="none" stroke="#bfbfbf" points="332.5,-224.5 332.5,-243.5 387.5,-243.5 387.5,-224.5 332.5,-224.5"/>
<text text-anchor="middle" x="360" y="-231.5" font-family="Helvetica,sans-Serif" font-size="10.00">QVector</text>
</g>
<!-- Node2&#45;&gt;Node6 -->
<g id="edge5" class="edge"><title>Node2&#45;&gt;Node6</title>
<path fill="none" stroke="midnightblue" d="M446.798,-505.41C481.759,-495.827 528.925,-477.003 511,-448 492.191,-417.566 463.737,-437.847 439,-412 394.07,-365.055 371.973,-288.223 363.827,-253.303"/>
<polygon fill="midnightblue" stroke="midnightblue" points="367.241,-252.534 361.661,-243.528 360.407,-254.049 367.241,-252.534"/>
</g>
<!-- Node7 -->
<g id="node7" class="node"><title>Node7</title>
<polygon fill="none" stroke="#bfbfbf" points="937,-0.5 937,-19.5 1029,-19.5 1029,-0.5 937,-0.5"/>
<text text-anchor="middle" x="983" y="-7.5" font-family="Helvetica,sans-Serif" font-size="10.00">QSharedPointer</text>
</g>
<!-- Node2&#45;&gt;Node7 -->
<g id="edge6" class="edge"><title>Node2&#45;&gt;Node7</title>
<path fill="none" stroke="midnightblue" d="M446.628,-512.528C610.775,-509.791 1320,-492.768 1320,-403 1320,-403 1320,-403 1320,-121 1320,-87.0792 1308.28,-74.7241 1280,-56 1241.53,-30.5337 1114.37,-18.7738 1039.49,-13.9387"/>
<polygon fill="midnightblue" stroke="midnightblue" points="1039.48,-10.4316 1029.29,-13.3016 1039.05,-17.418 1039.48,-10.4316"/>
</g>
<!-- Node8 -->
<g id="node8" class="node"><title>Node8</title>
<polygon fill="none" stroke="#bfbfbf" points="204,-448.5 204,-467.5 266,-467.5 266,-448.5 204,-448.5"/>
<text text-anchor="middle" x="235" y="-455.5" font-family="Helvetica,sans-Serif" font-size="10.00">QMargins</text>
</g>
<!-- Node2&#45;&gt;Node8 -->
<g id="edge7" class="edge"><title>Node2&#45;&gt;Node8</title>
<path fill="none" stroke="midnightblue" d="M384.795,-504.444C354.59,-495.28 306.489,-480.688 272.971,-470.519"/>
<polygon fill="midnightblue" stroke="midnightblue" points="273.658,-467.07 263.073,-467.516 271.626,-473.769 273.658,-467.07"/>
</g>
<!-- Node9 -->
<g id="node9" class="node"><title>Node9</title>
<polygon fill="none" stroke="#bfbfbf" points="284,-448.5 284,-467.5 340,-467.5 340,-448.5 284,-448.5"/>
<text text-anchor="middle" x="312" y="-455.5" font-family="Helvetica,sans-Serif" font-size="10.00">QPrinter</text>
</g>
<!-- Node2&#45;&gt;Node9 -->
<g id="edge8" class="edge"><title>Node2&#45;&gt;Node9</title>
<path fill="none" stroke="midnightblue" d="M396.773,-504.324C380.649,-495.703 355.7,-482.364 337.036,-472.386"/>
<polygon fill="midnightblue" stroke="midnightblue" points="338.656,-469.283 328.187,-467.655 335.356,-475.456 338.656,-469.283"/>
</g>
<!-- Node10 -->
<g id="node10" class="node"><title>Node10</title>
<polygon fill="none" stroke="#bfbfbf" points="357.5,-448.5 357.5,-467.5 468.5,-467.5 468.5,-448.5 357.5,-448.5"/>
<text text-anchor="middle" x="413" y="-455.5" font-family="Helvetica,sans-Serif" font-size="10.00">QRegularExpression</text>
</g>
<!-- Node2&#45;&gt;Node10 -->
<g id="edge9" class="edge"><title>Node2&#45;&gt;Node10</title>
<path fill="none" stroke="midnightblue" d="M413,-504.083C413,-497.006 413,-486.861 413,-477.986"/>
<polygon fill="midnightblue" stroke="midnightblue" points="416.5,-477.751 413,-467.751 409.5,-477.751 416.5,-477.751"/>
</g>
<!-- Node11 -->
<g id="node11" class="node"><title>Node11</title>
<g id="a_node11"><a xlink:href="object_8hpp.html" target="_top" xlink:title="object.hpp">
<polygon fill="none" stroke="black" points="180.5,-56.5 180.5,-75.5 247.5,-75.5 247.5,-56.5 180.5,-56.5"/>
<text text-anchor="middle" x="214" y="-63.5" font-family="Helvetica,sans-Serif" font-size="10.00">object.hpp</text>
</a>
</g>
</g>
<!-- Node2&#45;&gt;Node11 -->
<g id="edge10" class="edge"><title>Node2&#45;&gt;Node11</title>
<path fill="none" stroke="midnightblue" d="M379.376,-511.24C294.75,-506.469 78.1646,-492.008 57,-468 -50.6596,-345.875 138.432,-141.37 197.329,-82.9961"/>
<polygon fill="midnightblue" stroke="midnightblue" points="200.031,-85.2485 204.731,-75.7529 195.136,-80.2453 200.031,-85.2485"/>
</g>
<!-- Node13 -->
<g id="node13" class="node"><title>Node13</title>
<g id="a_node13"><a xlink:href="field_8hpp.html" target="_top" xlink:title="field.hpp">
<polygon fill="none" stroke="black" points="161.5,-280.5 161.5,-299.5 218.5,-299.5 218.5,-280.5 161.5,-280.5"/>
<text text-anchor="middle" x="190" y="-287.5" font-family="Helvetica,sans-Serif" font-size="10.00">field.hpp</text>
</a>
</g>
</g>
<!-- Node2&#45;&gt;Node13 -->
<g id="edge14" class="edge"><title>Node2&#45;&gt;Node13</title>
<path fill="none" stroke="midnightblue" d="M379.378,-512.1C317.489,-509.657 189.343,-500.681 162,-468 124.354,-423.005 145.883,-392.409 162,-336 164.902,-325.844 170.832,-315.747 176.49,-307.699"/>
<polygon fill="midnightblue" stroke="midnightblue" points="179.376,-309.685 182.588,-299.589 173.781,-305.479 179.376,-309.685"/>
</g>
<!-- Node15 -->
<g id="node15" class="node"><title>Node15</title>
<g id="a_node15"><a xlink:href="style_8hpp.html" target="_top" xlink:title="style.hpp">
<polygon fill="none" stroke="black" points="374,-112.5 374,-131.5 434,-131.5 434,-112.5 374,-112.5"/>
<text text-anchor="middle" x="404" y="-119.5" font-family="Helvetica,sans-Serif" font-size="10.00">style.hpp</text>
</a>
</g>
</g>
<!-- Node2&#45;&gt;Node15 -->
<g id="edge21" class="edge"><title>Node2&#45;&gt;Node15</title>
<path fill="none" stroke="midnightblue" d="M379.443,-511.092C324.19,-507.172 217.883,-496.089 195,-468 183.115,-453.412 177.952,-379.81 290,-224 316.124,-187.673 357.522,-155.241 382.587,-137.427"/>
<polygon fill="midnightblue" stroke="midnightblue" points="384.822,-140.135 391.024,-131.545 380.819,-134.393 384.822,-140.135"/>
</g>
<!-- Node17 -->
<g id="node17" class="node"><title>Node17</title>
<g id="a_node17"><a xlink:href="group_8hpp.html" target="_top" xlink:title="group.hpp">
<polygon fill="none" stroke="black" points="563.5,-448.5 563.5,-467.5 628.5,-467.5 628.5,-448.5 563.5,-448.5"/>
<text text-anchor="middle" x="596" y="-455.5" font-family="Helvetica,sans-Serif" font-size="10.00">group.hpp</text>
</a>
</g>
</g>
<!-- Node2&#45;&gt;Node17 -->
<g id="edge26" class="edge"><title>Node2&#45;&gt;Node17</title>
<path fill="none" stroke="midnightblue" d="M441.997,-504.444C473.185,-495.241 522.93,-480.562 557.408,-470.388"/>
<polygon fill="midnightblue" stroke="midnightblue" points="558.538,-473.704 567.139,-467.516 556.557,-466.99 558.538,-473.704"/>
</g>
<!-- Node31 -->
<g id="node31" class="node"><title>Node31</title>
<g id="a_node31"><a xlink:href="title_8hpp.html" target="_top" xlink:title="title.hpp">
<polygon fill="none" stroke="black" points="747,-448.5 747,-467.5 803,-467.5 803,-448.5 747,-448.5"/>
<text text-anchor="middle" x="775" y="-455.5" font-family="Helvetica,sans-Serif" font-size="10.00">title.hpp</text>
</a>
</g>
</g>
<!-- Node2&#45;&gt;Node31 -->
<g id="edge69" class="edge"><title>Node2&#45;&gt;Node31</title>
<path fill="none" stroke="midnightblue" d="M446.87,-509.452C504.431,-503.175 625.175,-488.944 736.711,-468.082"/>
<polygon fill="midnightblue" stroke="midnightblue" points="737.608,-471.474 746.782,-466.175 736.306,-464.596 737.608,-471.474"/>
</g>
<!-- Node32 -->
<g id="node32" class="node"><title>Node32</title>
<g id="a_node32"><a xlink:href="detail_8hpp.html" target="_top" xlink:title="detail.hpp">
<polygon fill="none" stroke="black" points="821,-448.5 821,-467.5 885,-467.5 885,-448.5 821,-448.5"/>
<text text-anchor="middle" x="853" y="-455.5" font-family="Helvetica,sans-Serif" font-size="10.00">detail.hpp</text>
</a>
</g>
</g>
<!-- Node2&#45;&gt;Node32 -->
<g id="edge72" class="edge"><title>Node2&#45;&gt;Node32</title>
<path fill="none" stroke="midnightblue" d="M446.529,-510.402C513.73,-504.941 669.834,-490.98 810.716,-468.058"/>
<polygon fill="midnightblue" stroke="midnightblue" points="811.534,-471.47 820.832,-466.392 810.396,-464.563 811.534,-471.47"/>
</g>
<!-- Node33 -->
<g id="node33" class="node"><title>Node33</title>
<g id="a_node33"><a xlink:href="summary_8hpp.html" target="_top" xlink:title="summary.hpp">
<polygon fill="none" stroke="black" points="647,-448.5 647,-467.5 729,-467.5 729,-448.5 647,-448.5"/>
<text text-anchor="middle" x="688" y="-455.5" font-family="Helvetica,sans-Serif" font-size="10.00">summary.hpp</text>
</a>
</g>
</g>
<!-- Node2&#45;&gt;Node33 -->
<g id="edge75" class="edge"><title>Node2&#45;&gt;Node33</title>
<path fill="none" stroke="midnightblue" d="M446.72,-506.379C494.247,-497.046 581.323,-479.947 636.846,-469.045"/>
<polygon fill="midnightblue" stroke="midnightblue" points="637.692,-472.446 646.83,-467.084 636.343,-465.577 637.692,-472.446"/>
</g>
<!-- Node11&#45;&gt;Node3 -->
<g id="edge11" class="edge"><title>Node11&#45;&gt;Node3</title>
<path fill="none" stroke="midnightblue" d="M219.119,-56.083C223.408,-48.6127 229.658,-37.7244 234.942,-28.5199"/>
<polygon fill="midnightblue" stroke="midnightblue" points="238.033,-30.1662 239.976,-19.7511 231.962,-26.6811 238.033,-30.1662"/>
</g>
<!-- Node11&#45;&gt;Node7 -->
<g id="edge13" class="edge"><title>Node11&#45;&gt;Node7</title>
<path fill="none" stroke="midnightblue" d="M247.537,-62.645C367.377,-54.2297 775.299,-25.585 926.238,-14.9859"/>
<polygon fill="midnightblue" stroke="midnightblue" points="926.923,-18.4465 936.654,-14.2545 926.433,-11.4637 926.923,-18.4465"/>
</g>
<!-- Node12 -->
<g id="node12" class="node"><title>Node12</title>
<polygon fill="none" stroke="#bfbfbf" points="53,-0.5 53,-19.5 111,-19.5 111,-0.5 53,-0.5"/>
<text text-anchor="middle" x="82" y="-7.5" font-family="Helvetica,sans-Serif" font-size="10.00">QVariant</text>
</g>
<!-- Node11&#45;&gt;Node12 -->
<g id="edge12" class="edge"><title>Node11&#45;&gt;Node12</title>
<path fill="none" stroke="midnightblue" d="M193.084,-56.4435C171.264,-47.5171 136.85,-33.4387 112.108,-23.3168"/>
<polygon fill="midnightblue" stroke="midnightblue" points="113.399,-20.0634 102.818,-19.5164 110.748,-26.5422 113.399,-20.0634"/>
</g>
<!-- Node13&#45;&gt;Node3 -->
<g id="edge17" class="edge"><title>Node13&#45;&gt;Node3</title>
<path fill="none" stroke="midnightblue" d="M184.716,-280.231C174.275,-262.043 152,-218.601 152,-179 152,-179 152,-179 152,-121 152,-90.9022 152.68,-79.8798 171,-56 181.736,-42.0058 198.171,-31.388 212.827,-23.9906"/>
<polygon fill="midnightblue" stroke="midnightblue" points="214.582,-27.0323 222.124,-19.5914 211.588,-20.705 214.582,-27.0323"/>
</g>
<!-- Node13&#45;&gt;Node6 -->
<g id="edge18" class="edge"><title>Node13&#45;&gt;Node6</title>
<path fill="none" stroke="midnightblue" d="M216.937,-280.444C245.66,-271.32 291.329,-256.813 323.321,-246.651"/>
<polygon fill="midnightblue" stroke="midnightblue" points="324.718,-249.88 333.189,-243.516 322.599,-243.208 324.718,-249.88"/>
</g>
<!-- Node13&#45;&gt;Node7 -->
<g id="edge15" class="edge"><title>Node13&#45;&gt;Node7</title>
<path fill="none" stroke="midnightblue" d="M202.852,-280.44C221.799,-267.869 258.399,-243.763 290,-224 357.274,-181.928 375.886,-174.328 443,-132 494.819,-99.3184 500.34,-76.704 558,-56 624.433,-32.1457 826.882,-18.8923 926.467,-13.6589"/>
<polygon fill="midnightblue" stroke="midnightblue" points="926.837,-17.1445 936.643,-13.1332 926.476,-10.1538 926.837,-17.1445"/>
</g>
<!-- Node13&#45;&gt;Node11 -->
<g id="edge20" class="edge"><title>Node13&#45;&gt;Node11</title>
<path fill="none" stroke="midnightblue" d="M190.941,-280.297C194.472,-247.633 206.987,-131.866 211.951,-85.9573"/>
<polygon fill="midnightblue" stroke="midnightblue" points="215.444,-86.202 213.04,-75.8837 208.485,-85.4496 215.444,-86.202"/>
</g>
<!-- Node13&#45;&gt;Node12 -->
<g id="edge16" class="edge"><title>Node13&#45;&gt;Node12</title>
<path fill="none" stroke="midnightblue" d="M182.255,-280.259C174.9,-271.579 163.961,-257.633 157,-244 118.67,-168.929 94.712,-70.3124 85.8657,-29.7044"/>
<polygon fill="midnightblue" stroke="midnightblue" points="89.2752,-28.9103 83.7719,-19.8569 82.4282,-30.3662 89.2752,-28.9103"/>
</g>
<!-- Node14 -->
<g id="node14" class="node"><title>Node14</title>
<polygon fill="none" stroke="#bfbfbf" points="444,-224.5 444,-243.5 498,-243.5 498,-224.5 444,-224.5"/>
<text text-anchor="middle" x="471" y="-231.5" font-family="Helvetica,sans-Serif" font-size="10.00">QImage</text>
</g>
<!-- Node13&#45;&gt;Node14 -->
<g id="edge19" class="edge"><title>Node13&#45;&gt;Node14</title>
<path fill="none" stroke="midnightblue" d="M218.751,-283.475C269.976,-273.631 376.969,-253.07 433.749,-242.159"/>
<polygon fill="midnightblue" stroke="midnightblue" points="434.582,-245.563 443.742,-240.238 433.261,-238.688 434.582,-245.563"/>
</g>
<!-- Node15&#45;&gt;Node3 -->
<g id="edge22" class="edge"><title>Node15&#45;&gt;Node3</title>
<path fill="none" stroke="midnightblue" d="M395.148,-112.333C381.468,-99.2008 354.041,-73.8987 328,-56 310.385,-43.8922 289.178,-32.4429 272.61,-24.123"/>
<polygon fill="midnightblue" stroke="midnightblue" points="273.97,-20.8911 263.454,-19.6047 270.873,-27.1685 273.97,-20.8911"/>
</g>
<!-- Node15&#45;&gt;Node7 -->
<g id="edge24" class="edge"><title>Node15&#45;&gt;Node7</title>
<path fill="none" stroke="midnightblue" d="M415.44,-112.426C435.44,-97.9526 478.588,-68.9838 520,-56 594.485,-32.6469 820.49,-18.9032 926.708,-13.5725"/>
<polygon fill="midnightblue" stroke="midnightblue" points="927.096,-17.0577 936.91,-13.0679 926.75,-10.0663 927.096,-17.0577"/>
</g>
<!-- Node15&#45;&gt;Node11 -->
<g id="edge25" class="edge"><title>Node15&#45;&gt;Node11</title>
<path fill="none" stroke="midnightblue" d="M373.894,-112.444C341.374,-103.201 289.421,-88.4356 253.609,-78.2572"/>
<polygon fill="midnightblue" stroke="midnightblue" points="254.541,-74.8837 243.965,-75.5164 252.627,-81.617 254.541,-74.8837"/>
</g>
<!-- Node16 -->
<g id="node16" class="node"><title>Node16</title>
<polygon fill="none" stroke="#bfbfbf" points="380.5,-56.5 380.5,-75.5 429.5,-75.5 429.5,-56.5 380.5,-56.5"/>
<text text-anchor="middle" x="405" y="-63.5" font-family="Helvetica,sans-Serif" font-size="10.00">QColor</text>
</g>
<!-- Node15&#45;&gt;Node16 -->
<g id="edge23" class="edge"><title>Node15&#45;&gt;Node16</title>
<path fill="none" stroke="midnightblue" d="M404.165,-112.083C404.296,-105.006 404.484,-94.8611 404.648,-85.9865"/>
<polygon fill="midnightblue" stroke="midnightblue" points="408.152,-85.8142 404.838,-75.7511 401.153,-85.6845 408.152,-85.8142"/>
</g>
<!-- Node17&#45;&gt;Node3 -->
<g id="edge27" class="edge"><title>Node17&#45;&gt;Node3</title>
<path fill="none" stroke="midnightblue" d="M563.253,-448.566C531.302,-440.113 481.446,-426.331 439,-412 243.707,-346.065 38,-385.124 38,-179 38,-179 38,-179 38,-121 38,-44.793 148.756,-21.2169 208.238,-14.0503"/>
<polygon fill="midnightblue" stroke="midnightblue" points="208.808,-17.5086 218.362,-12.9291 208.038,-10.5512 208.808,-17.5086"/>
</g>
<!-- Node17&#45;&gt;Node7 -->
<g id="edge28" class="edge"><title>Node17&#45;&gt;Node7</title>
<path fill="none" stroke="midnightblue" d="M592.356,-448.36C582.722,-424.988 556.721,-358.352 548,-300 530.497,-182.887 553.646,-117.23 655,-56 699.584,-29.0655 845.452,-17.7134 926.837,-13.3803"/>
<polygon fill="midnightblue" stroke="midnightblue" points="927.106,-16.8712 936.913,-12.8621 926.746,-9.88042 927.106,-16.8712"/>
</g>
<!-- Node18 -->
<g id="node18" class="node"><title>Node18</title>
<g id="a_node18"><a xlink:href="section_8hpp.html" target="_top" xlink:title="section.hpp">
<polygon fill="none" stroke="black" points="695,-392.5 695,-411.5 767,-411.5 767,-392.5 695,-392.5"/>
<text text-anchor="middle" x="731" y="-399.5" font-family="Helvetica,sans-Serif" font-size="10.00">section.hpp</text>
</a>
</g>
</g>
<!-- Node17&#45;&gt;Node18 -->
<g id="edge29" class="edge"><title>Node17&#45;&gt;Node18</title>
<path fill="none" stroke="midnightblue" d="M617.391,-448.444C639.707,-439.517 674.903,-425.439 700.208,-415.317"/>
<polygon fill="midnightblue" stroke="midnightblue" points="701.724,-418.48 709.709,-411.516 699.124,-411.981 701.724,-418.48"/>
</g>
<!-- Node18&#45;&gt;Node6 -->
<g id="edge30" class="edge"><title>Node18&#45;&gt;Node6</title>
<path fill="none" stroke="midnightblue" d="M694.64,-398.487C650.391,-394.31 574.252,-383.47 515,-356 457.18,-329.194 401.261,-277.136 375.219,-250.912"/>
<polygon fill="midnightblue" stroke="midnightblue" points="377.621,-248.362 368.127,-243.659 372.616,-253.256 377.621,-248.362"/>
</g>
<!-- Node18&#45;&gt;Node7 -->
<g id="edge31" class="edge"><title>Node18&#45;&gt;Node7</title>
<path fill="none" stroke="midnightblue" d="M767.133,-399.632C871.833,-394.694 1168,-373.44 1168,-291 1168,-291 1168,-291 1168,-121 1168,-60.3192 1093.56,-32.3602 1039.12,-20.0268"/>
<polygon fill="midnightblue" stroke="midnightblue" points="1039.72,-16.5763 1029.21,-17.9013 1038.25,-23.4206 1039.72,-16.5763"/>
</g>
<!-- Node18&#45;&gt;Node11 -->
<g id="edge32" class="edge"><title>Node18&#45;&gt;Node11</title>
<path fill="none" stroke="midnightblue" d="M711.951,-392.428C663.881,-370.475 534.407,-309.339 435,-244 354.378,-191.008 267.478,-115.234 231.314,-82.758"/>
<polygon fill="midnightblue" stroke="midnightblue" points="233.392,-79.9188 223.624,-75.8161 228.701,-85.1149 233.392,-79.9188"/>
</g>
<!-- Node19 -->
<g id="node19" class="node"><title>Node19</title>
<g id="a_node19"><a xlink:href="band_8hpp.html" target="_top" xlink:title="band.hpp">
<polygon fill="none" stroke="black" points="814,-336.5 814,-355.5 876,-355.5 876,-336.5 814,-336.5"/>
<text text-anchor="middle" x="845" y="-343.5" font-family="Helvetica,sans-Serif" font-size="10.00">band.hpp</text>
</a>
</g>
</g>
<!-- Node18&#45;&gt;Node19 -->
<g id="edge33" class="edge"><title>Node18&#45;&gt;Node19</title>
<path fill="none" stroke="midnightblue" d="M749.064,-392.444C767.575,-383.675 796.581,-369.935 817.855,-359.858"/>
<polygon fill="midnightblue" stroke="midnightblue" points="819.482,-362.96 827.021,-355.516 816.485,-356.634 819.482,-362.96"/>
</g>
<!-- Node19&#45;&gt;Node6 -->
<g id="edge34" class="edge"><title>Node19&#45;&gt;Node6</title>
<path fill="none" stroke="midnightblue" d="M813.852,-342.17C759.362,-336.802 643.449,-323.522 548,-300 491.145,-285.989 427.13,-262.023 390.382,-247.436"/>
<polygon fill="midnightblue" stroke="midnightblue" points="391.353,-244.054 380.769,-243.586 388.751,-250.553 391.353,-244.054"/>
</g>
<!-- Node19&#45;&gt;Node7 -->
<g id="edge35" class="edge"><title>Node19&#45;&gt;Node7</title>
<path fill="none" stroke="midnightblue" d="M876.079,-343.999C920.101,-341.42 1002.04,-332.276 1063,-300 1099.67,-280.588 1130,-276.488 1130,-235 1130,-235 1130,-235 1130,-121 1130,-68.2518 1068.57,-37.734 1025.14,-22.7476"/>
<polygon fill="midnightblue" stroke="midnightblue" points="1026.22,-19.4186 1015.62,-19.611 1024.03,-26.0665 1026.22,-19.4186"/>
</g>
<!-- Node20 -->
<g id="node20" class="node"><title>Node20</title>
<g id="a_node20"><a xlink:href="statictext_8hpp.html" target="_top" xlink:title="statictext.hpp">
<polygon fill="none" stroke="black" points="949.5,-280.5 949.5,-299.5 1032.5,-299.5 1032.5,-280.5 949.5,-280.5"/>
<text text-anchor="middle" x="991" y="-287.5" font-family="Helvetica,sans-Serif" font-size="10.00">statictext.hpp</text>
</a>
</g>
</g>
<!-- Node19&#45;&gt;Node20 -->
<g id="edge36" class="edge"><title>Node19&#45;&gt;Node20</title>
<path fill="none" stroke="midnightblue" d="M868.134,-336.444C892.482,-327.438 931.007,-313.189 958.423,-303.049"/>
<polygon fill="midnightblue" stroke="midnightblue" points="959.809,-306.268 967.974,-299.516 957.381,-299.703 959.809,-306.268"/>
</g>
<!-- Node22 -->
<g id="node22" class="node"><title>Node22</title>
<g id="a_node22"><a xlink:href="widget_8hpp.html" target="_top" xlink:title="widget.hpp">
<polygon fill="none" stroke="black" points="740,-168.5 740,-187.5 808,-187.5 808,-168.5 740,-168.5"/>
<text text-anchor="middle" x="774" y="-175.5" font-family="Helvetica,sans-Serif" font-size="10.00">widget.hpp</text>
</a>
</g>
</g>
<!-- Node19&#45;&gt;Node22 -->
<g id="edge66" class="edge"><title>Node19&#45;&gt;Node22</title>
<path fill="none" stroke="midnightblue" d="M843.068,-336.338C840.074,-323.639 833.734,-299.375 825,-280 817.294,-262.906 811.727,-260.597 803,-244 794.832,-228.466 786.801,-210.161 781.269,-196.941"/>
<polygon fill="midnightblue" stroke="midnightblue" points="784.458,-195.493 777.413,-187.58 777.985,-198.159 784.458,-195.493"/>
</g>
<!-- Node25 -->
<g id="node25" class="node"><title>Node25</title>
<g id="a_node25"><a xlink:href="textfield_8hpp.html" target="_top" xlink:title="textfield.hpp">
<polygon fill="none" stroke="black" points="643,-280.5 643,-299.5 719,-299.5 719,-280.5 643,-280.5"/>
<text text-anchor="middle" x="681" y="-287.5" font-family="Helvetica,sans-Serif" font-size="10.00">textfield.hpp</text>
</a>
</g>
</g>
<!-- Node19&#45;&gt;Node25 -->
<g id="edge49" class="edge"><title>Node19&#45;&gt;Node25</title>
<path fill="none" stroke="midnightblue" d="M819.014,-336.444C791.304,-327.32 747.248,-312.813 716.384,-302.651"/>
<polygon fill="midnightblue" stroke="midnightblue" points="717.458,-299.32 706.865,-299.516 715.268,-305.968 717.458,-299.32"/>
</g>
<!-- Node26 -->
<g id="node26" class="node"><title>Node26</title>
<g id="a_node26"><a xlink:href="line_8hpp.html" target="_top" xlink:title="line.hpp">
<polygon fill="none" stroke="black" points="812,-224.5 812,-243.5 866,-243.5 866,-224.5 812,-224.5"/>
<text text-anchor="middle" x="839" y="-231.5" font-family="Helvetica,sans-Serif" font-size="10.00">line.hpp</text>
</a>
</g>
</g>
<!-- Node19&#45;&gt;Node26 -->
<g id="edge53" class="edge"><title>Node19&#45;&gt;Node26</title>
<path fill="none" stroke="midnightblue" d="M849.295,-336.172C854.831,-323.673 863.265,-300.1 859,-280 857.003,-270.591 852.899,-260.762 848.925,-252.698"/>
<polygon fill="midnightblue" stroke="midnightblue" points="851.887,-250.81 844.13,-243.593 845.693,-254.072 851.887,-250.81"/>
</g>
<!-- Node27 -->
<g id="node27" class="node"><title>Node27</title>
<g id="a_node27"><a xlink:href="rect_8hpp.html" target="_top" xlink:title="rect.hpp">
<polygon fill="none" stroke="black" points="922,-224.5 922,-243.5 978,-243.5 978,-224.5 922,-224.5"/>
<text text-anchor="middle" x="950" y="-231.5" font-family="Helvetica,sans-Serif" font-size="10.00">rect.hpp</text>
</a>
</g>
</g>
<!-- Node19&#45;&gt;Node27 -->
<g id="edge56" class="edge"><title>Node19&#45;&gt;Node27</title>
<path fill="none" stroke="midnightblue" d="M853.239,-336.368C870.797,-317.974 912.132,-274.671 934.678,-251.052"/>
<polygon fill="midnightblue" stroke="midnightblue" points="937.426,-253.242 941.799,-243.591 932.363,-248.408 937.426,-253.242"/>
</g>
<!-- Node28 -->
<g id="node28" class="node"><title>Node28</title>
<g id="a_node28"><a xlink:href="ellipse_8hpp.html" target="_top" xlink:title="ellipse.hpp">
<polygon fill="none" stroke="black" points="1034,-224.5 1034,-243.5 1102,-243.5 1102,-224.5 1034,-224.5"/>
<text text-anchor="middle" x="1068" y="-231.5" font-family="Helvetica,sans-Serif" font-size="10.00">ellipse.hpp</text>
</a>
</g>
</g>
<!-- Node19&#45;&gt;Node28 -->
<g id="edge59" class="edge"><title>Node19&#45;&gt;Node28</title>
<path fill="none" stroke="midnightblue" d="M876.173,-341.345C924.958,-335.06 1016.33,-320.839 1041,-300 1054.84,-288.313 1061.7,-268.37 1065.03,-253.649"/>
<polygon fill="midnightblue" stroke="midnightblue" points="1068.5,-254.111 1066.94,-243.632 1061.63,-252.798 1068.5,-254.111"/>
</g>
<!-- Node29 -->
<g id="node29" class="node"><title>Node29</title>
<g id="a_node29"><a xlink:href="image_8hpp.html" target="_top" xlink:title="image.hpp">
<polygon fill="none" stroke="black" points="557,-280.5 557,-299.5 625,-299.5 625,-280.5 557,-280.5"/>
<text text-anchor="middle" x="591" y="-287.5" font-family="Helvetica,sans-Serif" font-size="10.00">image.hpp</text>
</a>
</g>
</g>
<!-- Node19&#45;&gt;Node29 -->
<g id="edge62" class="edge"><title>Node19&#45;&gt;Node29</title>
<path fill="none" stroke="midnightblue" d="M813.855,-338.379C769.115,-328.867 686.431,-311.288 635.329,-300.424"/>
<polygon fill="midnightblue" stroke="midnightblue" points="635.748,-296.935 625.239,-298.279 634.293,-303.782 635.748,-296.935"/>
</g>
<!-- Node30 -->
<g id="node30" class="node"><title>Node30</title>
<g id="a_node30"><a xlink:href="crosstab_8hpp.html" target="_top" xlink:title="crosstab.hpp">
<polygon fill="none" stroke="black" points="737.5,-280.5 737.5,-299.5 816.5,-299.5 816.5,-280.5 737.5,-280.5"/>
<text text-anchor="middle" x="777" y="-287.5" font-family="Helvetica,sans-Serif" font-size="10.00">crosstab.hpp</text>
</a>
</g>
</g>
<!-- Node19&#45;&gt;Node30 -->
<g id="edge67" class="edge"><title>Node19&#45;&gt;Node30</title>
<path fill="none" stroke="midnightblue" d="M834.075,-336.324C823.825,-328.185 808.279,-315.839 795.999,-306.087"/>
<polygon fill="midnightblue" stroke="midnightblue" points="798.132,-303.312 788.124,-299.834 793.779,-308.794 798.132,-303.312"/>
</g>
<!-- Node20&#45;&gt;Node7 -->
<g id="edge37" class="edge"><title>Node20&#45;&gt;Node7</title>
<path fill="none" stroke="midnightblue" d="M993.021,-280.411C999.937,-249.613 1021.25,-141.981 1003,-56 1001,-46.5915 996.899,-36.7618 992.925,-28.6981"/>
<polygon fill="midnightblue" stroke="midnightblue" points="995.887,-26.8101 988.13,-19.5932 989.693,-30.0721 995.887,-26.8101"/>
</g>
<!-- Node21 -->
<g id="node21" class="node"><title>Node21</title>
<g id="a_node21"><a xlink:href="textwidget_8hpp.html" target="_top" xlink:title="textwidget.hpp">
<polygon fill="none" stroke="black" points="630.5,-224.5 630.5,-243.5 717.5,-243.5 717.5,-224.5 630.5,-224.5"/>
<text text-anchor="middle" x="674" y="-231.5" font-family="Helvetica,sans-Serif" font-size="10.00">textwidget.hpp</text>
</a>
</g>
</g>
<!-- Node20&#45;&gt;Node21 -->
<g id="edge38" class="edge"><title>Node20&#45;&gt;Node21</title>
<path fill="none" stroke="midnightblue" d="M949.232,-281.885C892.297,-272.186 790.27,-254.806 727.709,-244.149"/>
<polygon fill="midnightblue" stroke="midnightblue" points="728.088,-240.663 717.642,-242.434 726.912,-247.564 728.088,-240.663"/>
</g>
<!-- Node21&#45;&gt;Node3 -->
<g id="edge39" class="edge"><title>Node21&#45;&gt;Node3</title>
<path fill="none" stroke="midnightblue" d="M630.27,-225.509C567.756,-213.35 450.917,-185.146 365,-132 324.642,-107.035 323.445,-89.6672 290,-56 280.342,-46.278 269.48,-35.4134 260.847,-26.7955"/>
<polygon fill="midnightblue" stroke="midnightblue" points="263.195,-24.1946 253.644,-19.6099 258.251,-29.1503 263.195,-24.1946"/>
</g>
<!-- Node21&#45;&gt;Node7 -->
<g id="edge40" class="edge"><title>Node21&#45;&gt;Node7</title>
<path fill="none" stroke="midnightblue" d="M667.177,-224.455C651.152,-203.291 614.408,-147.58 641,-112 675.314,-66.087 838.917,-33.7515 926.824,-19.3729"/>
<polygon fill="midnightblue" stroke="midnightblue" points="927.581,-22.7961 936.897,-17.7497 926.467,-15.8852 927.581,-22.7961"/>
</g>
<!-- Node21&#45;&gt;Node22 -->
<g id="edge41" class="edge"><title>Node21&#45;&gt;Node22</title>
<path fill="none" stroke="midnightblue" d="M690.067,-224.324C705.958,-215.743 730.507,-202.486 748.958,-192.522"/>
<polygon fill="midnightblue" stroke="midnightblue" points="750.837,-195.486 757.973,-187.655 747.511,-189.326 750.837,-195.486"/>
</g>
<!-- Node22&#45;&gt;Node3 -->
<g id="edge42" class="edge"><title>Node22&#45;&gt;Node3</title>
<path fill="none" stroke="midnightblue" d="M767.165,-168.293C755.565,-154.15 730.583,-126.331 703,-112 559.343,-37.3602 362.568,-17.7366 281.836,-12.6943"/>
<polygon fill="midnightblue" stroke="midnightblue" points="281.867,-9.19016 271.679,-12.0996 281.458,-16.1782 281.867,-9.19016"/>
</g>
<!-- Node22&#45;&gt;Node4 -->
<g id="edge44" class="edge"><title>Node22&#45;&gt;Node4</title>
<path fill="none" stroke="midnightblue" d="M757.612,-168.324C741.329,-159.703 716.133,-146.364 697.284,-136.386"/>
<polygon fill="midnightblue" stroke="midnightblue" points="698.823,-133.24 688.347,-131.655 695.548,-139.427 698.823,-133.24"/>
</g>
<!-- Node22&#45;&gt;Node7 -->
<g id="edge46" class="edge"><title>Node22&#45;&gt;Node7</title>
<path fill="none" stroke="midnightblue" d="M803.316,-168.372C823.633,-161.227 850.291,-149.4 869,-132 897.419,-105.57 885.252,-84.1201 912,-56 924.376,-42.9889 941.258,-32.0892 955.455,-24.2772"/>
<polygon fill="midnightblue" stroke="midnightblue" points="957.111,-27.3606 964.322,-19.5983 953.844,-21.1696 957.111,-27.3606"/>
</g>
<!-- Node22&#45;&gt;Node11 -->
<g id="edge48" class="edge"><title>Node22&#45;&gt;Node11</title>
<path fill="none" stroke="midnightblue" d="M739.983,-176.642C669.063,-175.164 500.723,-167.82 365,-132 318.636,-119.764 268.092,-95.5925 238.823,-80.422"/>
<polygon fill="midnightblue" stroke="midnightblue" points="240.229,-77.2073 229.749,-75.6524 236.972,-83.4034 240.229,-77.2073"/>
</g>
<!-- Node22&#45;&gt;Node15 -->
<g id="edge47" class="edge"><title>Node22&#45;&gt;Node15</title>
<path fill="none" stroke="midnightblue" d="M739.854,-172.017C671.393,-162.025 517.649,-139.587 444.352,-128.889"/>
<polygon fill="midnightblue" stroke="midnightblue" points="444.542,-125.38 434.141,-127.399 443.531,-132.307 444.542,-125.38"/>
</g>
<!-- Node23 -->
<g id="node23" class="node"><title>Node23</title>
<polygon fill="none" stroke="#bfbfbf" points="750,-112.5 750,-131.5 798,-131.5 798,-112.5 750,-112.5"/>
<text text-anchor="middle" x="774" y="-119.5" font-family="Helvetica,sans-Serif" font-size="10.00">QPoint</text>
</g>
<!-- Node22&#45;&gt;Node23 -->
<g id="edge43" class="edge"><title>Node22&#45;&gt;Node23</title>
<path fill="none" stroke="midnightblue" d="M774,-168.083C774,-161.006 774,-150.861 774,-141.986"/>
<polygon fill="midnightblue" stroke="midnightblue" points="777.5,-141.751 774,-131.751 770.5,-141.751 777.5,-141.751"/>
</g>
<!-- Node24 -->
<g id="node24" class="node"><title>Node24</title>
<polygon fill="none" stroke="#bfbfbf" points="816,-112.5 816,-131.5 860,-131.5 860,-112.5 816,-112.5"/>
<text text-anchor="middle" x="838" y="-119.5" font-family="Helvetica,sans-Serif" font-size="10.00">QRect</text>
</g>
<!-- Node22&#45;&gt;Node24 -->
<g id="edge45" class="edge"><title>Node22&#45;&gt;Node24</title>
<path fill="none" stroke="midnightblue" d="M784.283,-168.324C793.836,-160.263 808.28,-148.077 819.784,-138.369"/>
<polygon fill="midnightblue" stroke="midnightblue" points="822.144,-140.958 827.53,-131.834 817.63,-135.608 822.144,-140.958"/>
</g>
<!-- Node25&#45;&gt;Node3 -->
<g id="edge50" class="edge"><title>Node25&#45;&gt;Node3</title>
<path fill="none" stroke="midnightblue" d="M658.106,-280.491C589.713,-254.786 388.35,-176.943 335,-132 298.94,-101.623 269.075,-54.1028 254.534,-28.5934"/>
<polygon fill="midnightblue" stroke="midnightblue" points="257.499,-26.7232 249.576,-19.6899 251.384,-30.1293 257.499,-26.7232"/>
</g>
<!-- Node25&#45;&gt;Node7 -->
<g id="edge51" class="edge"><title>Node25&#45;&gt;Node7</title>
<path fill="none" stroke="midnightblue" d="M719.18,-281.042C773.941,-269.499 868.912,-248.947 875,-244 945.03,-187.098 971.833,-74.5437 979.988,-29.8928"/>
<polygon fill="midnightblue" stroke="midnightblue" points="983.468,-30.3053 981.71,-19.8574 976.569,-29.1214 983.468,-30.3053"/>
</g>
<!-- Node25&#45;&gt;Node21 -->
<g id="edge52" class="edge"><title>Node25&#45;&gt;Node21</title>
<path fill="none" stroke="midnightblue" d="M679.844,-280.083C678.916,-272.927 677.582,-262.635 676.423,-253.691"/>
<polygon fill="midnightblue" stroke="midnightblue" points="679.891,-253.218 675.134,-243.751 672.949,-254.118 679.891,-253.218"/>
</g>
<!-- Node26&#45;&gt;Node7 -->
<g id="edge54" class="edge"><title>Node26&#45;&gt;Node7</title>
<path fill="none" stroke="midnightblue" d="M844.099,-224.385C859.48,-198.503 907.011,-119.32 950,-56 956.394,-46.582 963.871,-36.3294 970.089,-27.9924"/>
<polygon fill="midnightblue" stroke="midnightblue" points="973.016,-29.923 976.232,-19.8279 967.423,-25.7145 973.016,-29.923"/>
</g>
<!-- Node26&#45;&gt;Node22 -->
<g id="edge55" class="edge"><title>Node26&#45;&gt;Node22</title>
<path fill="none" stroke="midnightblue" d="M828.557,-224.324C818.854,-216.263 804.185,-204.077 792.5,-194.369"/>
<polygon fill="midnightblue" stroke="midnightblue" points="794.562,-191.532 784.633,-187.834 790.089,-196.916 794.562,-191.532"/>
</g>
<!-- Node27&#45;&gt;Node7 -->
<g id="edge57" class="edge"><title>Node27&#45;&gt;Node7</title>
<path fill="none" stroke="midnightblue" d="M957.326,-224.386C964.126,-215.8 973.809,-201.921 978,-188 994.726,-132.44 989.506,-62.5911 985.609,-29.7257"/>
<polygon fill="midnightblue" stroke="midnightblue" points="989.071,-29.1993 984.324,-19.7272 982.128,-30.0918 989.071,-29.1993"/>
</g>
<!-- Node27&#45;&gt;Node22 -->
<g id="edge58" class="edge"><title>Node27&#45;&gt;Node22</title>
<path fill="none" stroke="midnightblue" d="M922.112,-224.444C892.246,-215.28 844.685,-200.688 811.544,-190.519"/>
<polygon fill="midnightblue" stroke="midnightblue" points="812.344,-187.104 801.757,-187.516 810.291,-193.796 812.344,-187.104"/>
</g>
<!-- Node28&#45;&gt;Node7 -->
<g id="edge60" class="edge"><title>Node28&#45;&gt;Node7</title>
<path fill="none" stroke="midnightblue" d="M1069.82,-224.456C1075.08,-197.424 1087.89,-112.233 1054,-56 1045.35,-41.6457 1030.17,-31.1141 1016.06,-23.8642"/>
<polygon fill="midnightblue" stroke="midnightblue" points="1017.56,-20.7006 1007.03,-19.5667 1014.55,-27.0222 1017.56,-20.7006"/>
</g>
<!-- Node28&#45;&gt;Node22 -->
<g id="edge61" class="edge"><title>Node28&#45;&gt;Node22</title>
<path fill="none" stroke="midnightblue" d="M1033.99,-226.753C980.658,-216.958 877.371,-197.987 818.301,-187.137"/>
<polygon fill="midnightblue" stroke="midnightblue" points="818.628,-183.638 808.16,-185.274 817.363,-190.523 818.628,-183.638"/>
</g>
<!-- Node29&#45;&gt;Node7 -->
<g id="edge64" class="edge"><title>Node29&#45;&gt;Node7</title>
<path fill="none" stroke="midnightblue" d="M590.949,-280.178C591.177,-253.038 594.781,-169.172 629,-112 648.756,-78.9912 660.021,-72.0125 695,-56 770.251,-21.5513 866.89,-12.7516 926.88,-10.8889"/>
<polygon fill="midnightblue" stroke="midnightblue" points="927.006,-14.3869 936.913,-10.6316 926.826,-7.38922 927.006,-14.3869"/>
</g>
<!-- Node29&#45;&gt;Node14 -->
<g id="edge63" class="edge"><title>Node29&#45;&gt;Node14</title>
<path fill="none" stroke="midnightblue" d="M571.986,-280.444C552.412,-271.636 521.692,-257.812 499.271,-247.722"/>
<polygon fill="midnightblue" stroke="midnightblue" points="500.481,-244.428 489.925,-243.516 497.608,-250.812 500.481,-244.428"/>
</g>
<!-- Node29&#45;&gt;Node21 -->
<g id="edge65" class="edge"><title>Node29&#45;&gt;Node21</title>
<path fill="none" stroke="midnightblue" d="M604.335,-280.324C617.162,-271.979 636.785,-259.212 651.94,-249.352"/>
<polygon fill="midnightblue" stroke="midnightblue" points="654.224,-252.042 660.698,-243.655 650.407,-246.174 654.224,-252.042"/>
</g>
<!-- Node30&#45;&gt;Node22 -->
<g id="edge68" class="edge"><title>Node30&#45;&gt;Node22</title>
<path fill="none" stroke="midnightblue" d="M775.261,-280.419C773.528,-271.399 770.987,-256.77 770,-244 768.8,-228.481 770.048,-210.855 771.457,-197.877"/>
<polygon fill="midnightblue" stroke="midnightblue" points="774.945,-198.187 772.68,-187.837 767.997,-197.341 774.945,-198.187"/>
</g>
<!-- Node31&#45;&gt;Node7 -->
<g id="edge70" class="edge"><title>Node31&#45;&gt;Node7</title>
<path fill="none" stroke="midnightblue" d="M803.192,-449.679C806.153,-449.049 809.13,-448.473 812,-448 901.808,-433.202 1147.68,-467.268 1220,-412 1244.47,-393.301 1244,-377.795 1244,-347 1244,-347 1244,-347 1244,-121 1244,-90.2048 1243.51,-75.8945 1220,-56 1193.33,-33.4287 1100.75,-21.1641 1039.51,-15.3592"/>
<polygon fill="midnightblue" stroke="midnightblue" points="1039.49,-11.8429 1029.21,-14.4158 1038.85,-18.8137 1039.49,-11.8429"/>
</g>
<!-- Node31&#45;&gt;Node18 -->
<g id="edge71" class="edge"><title>Node31&#45;&gt;Node18</title>
<path fill="none" stroke="midnightblue" d="M767.734,-448.083C761.455,-440.377 752.212,-429.033 744.569,-419.653"/>
<polygon fill="midnightblue" stroke="midnightblue" points="747.161,-417.293 738.131,-411.751 741.734,-421.714 747.161,-417.293"/>
</g>
<!-- Node32&#45;&gt;Node7 -->
<g id="edge73" class="edge"><title>Node32&#45;&gt;Node7</title>
<path fill="none" stroke="midnightblue" d="M885.185,-457.64C970.571,-458.697 1200.26,-457.172 1258,-412 1282.25,-393.025 1282,-377.795 1282,-347 1282,-347 1282,-347 1282,-121 1282,-90.2048 1281.76,-75.5939 1258,-56 1225.45,-29.1554 1109.6,-18.0014 1039.06,-13.6185"/>
<polygon fill="midnightblue" stroke="midnightblue" points="1039.19,-10.1201 1029,-13.02 1038.78,-17.1077 1039.19,-10.1201"/>
</g>
<!-- Node32&#45;&gt;Node18 -->
<g id="edge74" class="edge"><title>Node32&#45;&gt;Node18</title>
<path fill="none" stroke="midnightblue" d="M833.669,-448.444C813.68,-439.596 782.257,-425.687 759.436,-415.586"/>
<polygon fill="midnightblue" stroke="midnightblue" points="760.802,-412.363 750.241,-411.516 757.968,-418.764 760.802,-412.363"/>
</g>
<!-- Node33&#45;&gt;Node7 -->
<g id="edge76" class="edge"><title>Node33&#45;&gt;Node7</title>
<path fill="none" stroke="midnightblue" d="M729.08,-449.367C851.598,-426.465 1206,-359.167 1206,-347 1206,-347 1206,-347 1206,-121 1206,-46.8317 1105.56,-22.6708 1039.49,-14.801"/>
<polygon fill="midnightblue" stroke="midnightblue" points="1039.53,-11.2839 1029.21,-13.6726 1038.76,-18.2421 1039.53,-11.2839"/>
</g>
<!-- Node33&#45;&gt;Node18 -->
<g id="edge77" class="edge"><title>Node33&#45;&gt;Node18</title>
<path fill="none" stroke="midnightblue" d="M695.101,-448.083C701.237,-440.377 710.27,-429.033 717.739,-419.653"/>
<polygon fill="midnightblue" stroke="midnightblue" points="720.54,-421.754 724.032,-411.751 715.064,-417.394 720.54,-421.754"/>
</g>
</g>
</svg>
