<?xml version="1.0" encoding="UTF-8" standalone="no"?>
<!DOCTYPE svg PUBLIC "-//W3C//DTD SVG 1.1//EN"
 "http://www.w3.org/Graphics/SVG/1.1/DTD/svg11.dtd">
<!-- Generated by graphviz version 2.38.0 (20140413.2041)
 -->
<!-- Title: /home/travis/build/PO&#45;31/QtReports/qtreports/src/tags/report.hpp Pages: 1 -->
<svg width="1385pt" height="206pt"
 viewBox="0.00 0.00 1385.00 206.00" xmlns="http://www.w3.org/2000/svg" xmlns:xlink="http://www.w3.org/1999/xlink">
<g id="graph0" class="graph" transform="scale(1 1) rotate(0) translate(4 202)">
<title>/home/travis/build/PO&#45;31/QtReports/qtreports/src/tags/report.hpp</title>
<!-- Node1 -->
<g id="node1" class="node"><title>Node1</title>
<polygon fill="#bfbfbf" stroke="black" points="826,-156.5 826,-197.5 972,-197.5 972,-156.5 826,-156.5"/>
<text text-anchor="start" x="834" y="-185.5" font-family="Helvetica,sans-Serif" font-size="10.00">/home/travis/build</text>
<text text-anchor="start" x="834" y="-174.5" font-family="Helvetica,sans-Serif" font-size="10.00">/PO&#45;31/QtReports/qtreports</text>
<text text-anchor="middle" x="899" y="-163.5" font-family="Helvetica,sans-Serif" font-size="10.00">/src/tags/report.hpp</text>
</g>
<!-- Node2 -->
<g id="node2" class="node"><title>Node2</title>
<g id="a_node2"><a xlink:href="convertertohtml_8hpp.html" target="_top" xlink:title="/home/travis/build\l/PO&#45;31/QtReports/qtreports\l/src/converters/convertertohtml.hpp">
<polygon fill="none" stroke="black" points="378.5,-78.5 378.5,-119.5 567.5,-119.5 567.5,-78.5 378.5,-78.5"/>
<text text-anchor="start" x="386.5" y="-107.5" font-family="Helvetica,sans-Serif" font-size="10.00">/home/travis/build</text>
<text text-anchor="start" x="386.5" y="-96.5" font-family="Helvetica,sans-Serif" font-size="10.00">/PO&#45;31/QtReports/qtreports</text>
<text text-anchor="middle" x="473" y="-85.5" font-family="Helvetica,sans-Serif" font-size="10.00">/src/converters/convertertohtml.hpp</text>
</a>
</g>
</g>
<!-- Node1&#45;&gt;Node2 -->
<g id="edge1" class="edge"><title>Node1&#45;&gt;Node2</title>
<path fill="none" stroke="midnightblue" d="M815.522,-161.901C750.476,-150.814 657.927,-134.817 577,-120 573.925,-119.437 570.801,-118.861 567.646,-118.275"/>
<polygon fill="midnightblue" stroke="midnightblue" points="815.274,-165.409 825.719,-163.638 816.449,-158.509 815.274,-165.409"/>
</g>
<!-- Node4 -->
<g id="node4" class="node"><title>Node4</title>
<g id="a_node4"><a xlink:href="engine_8cpp.html" target="_top" xlink:title="/home/travis/build\l/PO&#45;31/QtReports/qtreports\l/src/engine.cpp">
<polygon fill="none" stroke="black" points="826,-0.5 826,-41.5 972,-41.5 972,-0.5 826,-0.5"/>
<text text-anchor="start" x="834" y="-29.5" font-family="Helvetica,sans-Serif" font-size="10.00">/home/travis/build</text>
<text text-anchor="start" x="834" y="-18.5" font-family="Helvetica,sans-Serif" font-size="10.00">/PO&#45;31/QtReports/qtreports</text>
<text text-anchor="middle" x="899" y="-7.5" font-family="Helvetica,sans-Serif" font-size="10.00">/src/engine.cpp</text>
</a>
</g>
</g>
<!-- Node1&#45;&gt;Node4 -->
<g id="edge19" class="edge"><title>Node1&#45;&gt;Node4</title>
<path fill="none" stroke="midnightblue" d="M965.882,-151.573C979.084,-143.581 991.241,-133.237 999,-120 1008.44,-103.896 1008.44,-94.1043 999,-78 989.542,-61.8634 973.547,-50.0269 957.091,-41.5081"/>
<polygon fill="midnightblue" stroke="midnightblue" points="964.108,-148.554 957.091,-156.492 967.527,-154.663 964.108,-148.554"/>
</g>
<!-- Node5 -->
<g id="node5" class="node"><title>Node5</title>
<g id="a_node5"><a xlink:href="replacer_8hpp.html" target="_top" xlink:title="/home/travis/build\l/PO&#45;31/QtReports/qtreports\l/src/converters/utils/replacer.hpp">
<polygon fill="none" stroke="black" points="187.5,-78.5 187.5,-119.5 360.5,-119.5 360.5,-78.5 187.5,-78.5"/>
<text text-anchor="start" x="195.5" y="-107.5" font-family="Helvetica,sans-Serif" font-size="10.00">/home/travis/build</text>
<text text-anchor="start" x="195.5" y="-96.5" font-family="Helvetica,sans-Serif" font-size="10.00">/PO&#45;31/QtReports/qtreports</text>
<text text-anchor="middle" x="274" y="-85.5" font-family="Helvetica,sans-Serif" font-size="10.00">/src/converters/utils/replacer.hpp</text>
</a>
</g>
</g>
<!-- Node1&#45;&gt;Node5 -->
<g id="edge4" class="edge"><title>Node1&#45;&gt;Node5</title>
<path fill="none" stroke="midnightblue" d="M815.633,-169.843C710.941,-161.502 526.002,-144.755 369,-120 366.253,-119.567 363.465,-119.106 360.654,-118.624"/>
<polygon fill="midnightblue" stroke="midnightblue" points="815.576,-173.349 825.82,-170.648 816.127,-166.371 815.576,-173.349"/>
</g>
<!-- Node9 -->
<g id="node9" class="node"><title>Node9</title>
<g id="a_node9"><a xlink:href="convertertopdf_8hpp.html" target="_top" xlink:title="/home/travis/build\l/PO&#45;31/QtReports/qtreports\l/src/converters/convertertopdf.hpp">
<polygon fill="none" stroke="black" points="808,-78.5 808,-119.5 990,-119.5 990,-78.5 808,-78.5"/>
<text text-anchor="start" x="816" y="-107.5" font-family="Helvetica,sans-Serif" font-size="10.00">/home/travis/build</text>
<text text-anchor="start" x="816" y="-96.5" font-family="Helvetica,sans-Serif" font-size="10.00">/PO&#45;31/QtReports/qtreports</text>
<text text-anchor="middle" x="899" y="-85.5" font-family="Helvetica,sans-Serif" font-size="10.00">/src/converters/convertertopdf.hpp</text>
</a>
</g>
</g>
<!-- Node1&#45;&gt;Node9 -->
<g id="edge9" class="edge"><title>Node1&#45;&gt;Node9</title>
<path fill="none" stroke="midnightblue" d="M899,-146.297C899,-137.301 899,-127.653 899,-119.506"/>
<polygon fill="midnightblue" stroke="midnightblue" points="895.5,-146.428 899,-156.428 902.5,-146.428 895.5,-146.428"/>
</g>
<!-- Node10 -->
<g id="node10" class="node"><title>Node10</title>
<g id="a_node10"><a xlink:href="convertertoqwidget_8hpp.html" target="_top" xlink:title="/home/travis/build\l/PO&#45;31/QtReports/qtreports\l/src/converters/convertertoqwidget.hpp">
<polygon fill="none" stroke="black" points="586,-78.5 586,-119.5 790,-119.5 790,-78.5 586,-78.5"/>
<text text-anchor="start" x="594" y="-107.5" font-family="Helvetica,sans-Serif" font-size="10.00">/home/travis/build</text>
<text text-anchor="start" x="594" y="-96.5" font-family="Helvetica,sans-Serif" font-size="10.00">/PO&#45;31/QtReports/qtreports</text>
<text text-anchor="middle" x="688" y="-85.5" font-family="Helvetica,sans-Serif" font-size="10.00">/src/converters/convertertoqwidget.hpp</text>
</a>
</g>
</g>
<!-- Node1&#45;&gt;Node10 -->
<g id="edge12" class="edge"><title>Node1&#45;&gt;Node10</title>
<path fill="none" stroke="midnightblue" d="M835.218,-153.026C805.515,-142.328 770.552,-129.734 742.154,-119.506"/>
<polygon fill="midnightblue" stroke="midnightblue" points="834.068,-156.332 844.662,-156.428 836.44,-149.746 834.068,-156.332"/>
</g>
<!-- Node11 -->
<g id="node11" class="node"><title>Node11</title>
<g id="a_node11"><a xlink:href="parserfromxml_8hpp.html" target="_top" xlink:title="/home/travis/build\l/PO&#45;31/QtReports/qtreports\l/src/parsers/parserfromxml.hpp">
<polygon fill="none" stroke="black" points="1045.5,-78.5 1045.5,-119.5 1212.5,-119.5 1212.5,-78.5 1045.5,-78.5"/>
<text text-anchor="start" x="1053.5" y="-107.5" font-family="Helvetica,sans-Serif" font-size="10.00">/home/travis/build</text>
<text text-anchor="start" x="1053.5" y="-96.5" font-family="Helvetica,sans-Serif" font-size="10.00">/PO&#45;31/QtReports/qtreports</text>
<text text-anchor="middle" x="1129" y="-85.5" font-family="Helvetica,sans-Serif" font-size="10.00">/src/parsers/parserfromxml.hpp</text>
</a>
</g>
</g>
<!-- Node1&#45;&gt;Node11 -->
<g id="edge16" class="edge"><title>Node1&#45;&gt;Node11</title>
<path fill="none" stroke="midnightblue" d="M968.105,-153.165C1000.57,-142.437 1038.88,-129.779 1069.97,-119.506"/>
<polygon fill="midnightblue" stroke="midnightblue" points="966.628,-149.967 958.231,-156.428 968.824,-156.614 966.628,-149.967"/>
</g>
<!-- Node13 -->
<g id="node13" class="node"><title>Node13</title>
<g id="a_node13"><a xlink:href="report_8cpp.html" target="_top" xlink:title="/home/travis/build\l/PO&#45;31/QtReports/qtreports\l/src/tags/report.cpp">
<polygon fill="none" stroke="black" points="1231,-78.5 1231,-119.5 1377,-119.5 1377,-78.5 1231,-78.5"/>
<text text-anchor="start" x="1239" y="-107.5" font-family="Helvetica,sans-Serif" font-size="10.00">/home/travis/build</text>
<text text-anchor="start" x="1239" y="-96.5" font-family="Helvetica,sans-Serif" font-size="10.00">/PO&#45;31/QtReports/qtreports</text>
<text text-anchor="middle" x="1304" y="-85.5" font-family="Helvetica,sans-Serif" font-size="10.00">/src/tags/report.cpp</text>
</a>
</g>
</g>
<!-- Node1&#45;&gt;Node13 -->
<g id="edge20" class="edge"><title>Node1&#45;&gt;Node13</title>
<path fill="none" stroke="midnightblue" d="M982.365,-163.011C1047.54,-152.493 1140.31,-136.721 1221,-120 1224.19,-119.338 1227.45,-118.643 1230.74,-117.924"/>
<polygon fill="midnightblue" stroke="midnightblue" points="981.466,-159.611 972.148,-164.653 982.577,-166.522 981.466,-159.611"/>
</g>
<!-- Node3 -->
<g id="node3" class="node"><title>Node3</title>
<g id="a_node3"><a xlink:href="convertertohtml_8cpp.html" target="_top" xlink:title="/home/travis/build\l/PO&#45;31/QtReports/qtreports\l/src/converters/convertertohtml.cpp">
<polygon fill="none" stroke="black" points="190,-0.5 190,-41.5 378,-41.5 378,-0.5 190,-0.5"/>
<text text-anchor="start" x="198" y="-29.5" font-family="Helvetica,sans-Serif" font-size="10.00">/home/travis/build</text>
<text text-anchor="start" x="198" y="-18.5" font-family="Helvetica,sans-Serif" font-size="10.00">/PO&#45;31/QtReports/qtreports</text>
<text text-anchor="middle" x="284" y="-7.5" font-family="Helvetica,sans-Serif" font-size="10.00">/src/converters/convertertohtml.cpp</text>
</a>
</g>
</g>
<!-- Node2&#45;&gt;Node3 -->
<g id="edge2" class="edge"><title>Node2&#45;&gt;Node3</title>
<path fill="none" stroke="midnightblue" d="M414.829,-74.6086C388.449,-64.0008 357.614,-51.6015 332.507,-41.5056"/>
<polygon fill="midnightblue" stroke="midnightblue" points="413.744,-77.9445 424.328,-78.4281 416.356,-71.4499 413.744,-77.9445"/>
</g>
<!-- Node2&#45;&gt;Node4 -->
<g id="edge3" class="edge"><title>Node2&#45;&gt;Node4</title>
<path fill="none" stroke="midnightblue" d="M577.512,-77.9466C680.594,-60.2561 708.371,-60.4228 807,-42 813.106,-40.8595 819.426,-39.617 825.762,-38.3278"/>
<polygon fill="midnightblue" stroke="midnightblue" points="576.89,-74.5022 567.634,-79.6567 578.084,-81.3996 576.89,-74.5022"/>
</g>
<!-- Node5&#45;&gt;Node3 -->
<g id="edge5" class="edge"><title>Node5&#45;&gt;Node3</title>
<path fill="none" stroke="midnightblue" d="M277.908,-68.2965C279.092,-59.3009 280.361,-49.6532 281.433,-41.5056"/>
<polygon fill="midnightblue" stroke="midnightblue" points="274.41,-68.0569 276.575,-78.4281 281.35,-68.9702 274.41,-68.0569"/>
</g>
<!-- Node6 -->
<g id="node6" class="node"><title>Node6</title>
<g id="a_node6"><a xlink:href="convertertopdf_8cpp.html" target="_top" xlink:title="/home/travis/build\l/PO&#45;31/QtReports/qtreports\l/src/converters/convertertopdf.cpp">
<polygon fill="none" stroke="black" points="617.5,-0.5 617.5,-41.5 798.5,-41.5 798.5,-0.5 617.5,-0.5"/>
<text text-anchor="start" x="625.5" y="-29.5" font-family="Helvetica,sans-Serif" font-size="10.00">/home/travis/build</text>
<text text-anchor="start" x="625.5" y="-18.5" font-family="Helvetica,sans-Serif" font-size="10.00">/PO&#45;31/QtReports/qtreports</text>
<text text-anchor="middle" x="708" y="-7.5" font-family="Helvetica,sans-Serif" font-size="10.00">/src/converters/convertertopdf.cpp</text>
</a>
</g>
</g>
<!-- Node5&#45;&gt;Node6 -->
<g id="edge6" class="edge"><title>Node5&#45;&gt;Node6</title>
<path fill="none" stroke="midnightblue" d="M370.804,-77.7234C476.449,-59.0062 505.395,-59.9775 608,-42 611.052,-41.4653 614.154,-40.9102 617.285,-40.3401"/>
<polygon fill="midnightblue" stroke="midnightblue" points="369.908,-74.3281 360.681,-79.5351 371.141,-81.2186 369.908,-74.3281"/>
</g>
<!-- Node7 -->
<g id="node7" class="node"><title>Node7</title>
<g id="a_node7"><a xlink:href="convertertoqwidget_8cpp.html" target="_top" xlink:title="/home/travis/build\l/PO&#45;31/QtReports/qtreports\l/src/converters/convertertoqwidget.cpp">
<polygon fill="none" stroke="black" points="396.5,-0.5 396.5,-41.5 599.5,-41.5 599.5,-0.5 396.5,-0.5"/>
<text text-anchor="start" x="404.5" y="-29.5" font-family="Helvetica,sans-Serif" font-size="10.00">/home/travis/build</text>
<text text-anchor="start" x="404.5" y="-18.5" font-family="Helvetica,sans-Serif" font-size="10.00">/PO&#45;31/QtReports/qtreports</text>
<text text-anchor="middle" x="498" y="-7.5" font-family="Helvetica,sans-Serif" font-size="10.00">/src/converters/convertertoqwidget.cpp</text>
</a>
</g>
</g>
<!-- Node5&#45;&gt;Node7 -->
<g id="edge7" class="edge"><title>Node5&#45;&gt;Node7</title>
<path fill="none" stroke="midnightblue" d="M341.302,-75.1652C372.924,-64.4366 410.231,-51.7786 440.51,-41.5056"/>
<polygon fill="midnightblue" stroke="midnightblue" points="340.031,-71.9007 331.686,-78.4281 342.28,-78.5295 340.031,-71.9007"/>
</g>
<!-- Node8 -->
<g id="node8" class="node"><title>Node8</title>
<g id="a_node8"><a xlink:href="replacer_8cpp.html" target="_top" xlink:title="/home/travis/build\l/PO&#45;31/QtReports/qtreports\l/src/converters/utils/replacer.cpp">
<polygon fill="none" stroke="black" points="0,-0.5 0,-41.5 172,-41.5 172,-0.5 0,-0.5"/>
<text text-anchor="start" x="8" y="-29.5" font-family="Helvetica,sans-Serif" font-size="10.00">/home/travis/build</text>
<text text-anchor="start" x="8" y="-18.5" font-family="Helvetica,sans-Serif" font-size="10.00">/PO&#45;31/QtReports/qtreports</text>
<text text-anchor="middle" x="86" y="-7.5" font-family="Helvetica,sans-Serif" font-size="10.00">/src/converters/utils/replacer.cpp</text>
</a>
</g>
</g>
<!-- Node5&#45;&gt;Node8 -->
<g id="edge8" class="edge"><title>Node5&#45;&gt;Node8</title>
<path fill="none" stroke="midnightblue" d="M216.137,-74.6086C189.897,-64.0008 159.225,-51.6015 134.251,-41.5056"/>
<polygon fill="midnightblue" stroke="midnightblue" points="215.002,-77.925 225.585,-78.4281 217.626,-71.4353 215.002,-77.925"/>
</g>
<!-- Node9&#45;&gt;Node4 -->
<g id="edge11" class="edge"><title>Node9&#45;&gt;Node4</title>
<path fill="none" stroke="midnightblue" d="M899,-68.2965C899,-59.3009 899,-49.6532 899,-41.5056"/>
<polygon fill="midnightblue" stroke="midnightblue" points="895.5,-68.4281 899,-78.4281 902.5,-68.4281 895.5,-68.4281"/>
</g>
<!-- Node9&#45;&gt;Node6 -->
<g id="edge10" class="edge"><title>Node9&#45;&gt;Node6</title>
<path fill="none" stroke="midnightblue" d="M840.214,-74.6086C813.555,-64.0008 782.393,-51.6015 757.021,-41.5056"/>
<polygon fill="midnightblue" stroke="midnightblue" points="839.227,-77.9829 849.813,-78.4281 841.815,-71.4789 839.227,-77.9829"/>
</g>
<!-- Node10&#45;&gt;Node4 -->
<g id="edge15" class="edge"><title>Node10&#45;&gt;Node4</title>
<path fill="none" stroke="midnightblue" d="M751.782,-75.0264C781.485,-64.3275 816.448,-51.7343 844.846,-41.5056"/>
<polygon fill="midnightblue" stroke="midnightblue" points="750.56,-71.7464 742.338,-78.4281 752.932,-78.3322 750.56,-71.7464"/>
</g>
<!-- Node10&#45;&gt;Node6 -->
<g id="edge13" class="edge"><title>Node10&#45;&gt;Node6</title>
<path fill="none" stroke="midnightblue" d="M695.74,-68.5896C698.129,-59.5108 700.7,-49.7417 702.867,-41.5056"/>
<polygon fill="midnightblue" stroke="midnightblue" points="692.311,-67.8666 693.15,-78.4281 699.08,-69.6481 692.311,-67.8666"/>
</g>
<!-- Node10&#45;&gt;Node7 -->
<g id="edge14" class="edge"><title>Node10&#45;&gt;Node7</title>
<path fill="none" stroke="midnightblue" d="M629.522,-74.6086C603.002,-64.0008 572.004,-51.6015 546.764,-41.5056"/>
<polygon fill="midnightblue" stroke="midnightblue" points="628.486,-77.9638 639.07,-78.4281 631.085,-71.4645 628.486,-77.9638"/>
</g>
<!-- Node11&#45;&gt;Node4 -->
<g id="edge17" class="edge"><title>Node11&#45;&gt;Node4</title>
<path fill="none" stroke="midnightblue" d="M1059.89,-75.1652C1027.43,-64.4366 989.12,-51.7786 958.03,-41.5056"/>
<polygon fill="midnightblue" stroke="midnightblue" points="1059.18,-78.6138 1069.77,-78.4281 1061.37,-71.9673 1059.18,-78.6138"/>
</g>
<!-- Node12 -->
<g id="node12" class="node"><title>Node12</title>
<g id="a_node12"><a xlink:href="parserfromxml_8cpp.html" target="_top" xlink:title="/home/travis/build\l/PO&#45;31/QtReports/qtreports\l/src/parsers/parserfromxml.cpp">
<polygon fill="none" stroke="black" points="1045.5,-0.5 1045.5,-41.5 1212.5,-41.5 1212.5,-0.5 1045.5,-0.5"/>
<text text-anchor="start" x="1053.5" y="-29.5" font-family="Helvetica,sans-Serif" font-size="10.00">/home/travis/build</text>
<text text-anchor="start" x="1053.5" y="-18.5" font-family="Helvetica,sans-Serif" font-size="10.00">/PO&#45;31/QtReports/qtreports</text>
<text text-anchor="middle" x="1129" y="-7.5" font-family="Helvetica,sans-Serif" font-size="10.00">/src/parsers/parserfromxml.cpp</text>
</a>
</g>
</g>
<!-- Node11&#45;&gt;Node12 -->
<g id="edge18" class="edge"><title>Node11&#45;&gt;Node12</title>
<path fill="none" stroke="midnightblue" d="M1129,-68.2965C1129,-59.3009 1129,-49.6532 1129,-41.5056"/>
<polygon fill="midnightblue" stroke="midnightblue" points="1125.5,-68.4281 1129,-78.4281 1132.5,-68.4281 1125.5,-68.4281"/>
</g>
</g>
</svg>
