<?xml version="1.0" encoding="UTF-8" standalone="no"?>
<!DOCTYPE svg PUBLIC "-//W3C//DTD SVG 1.1//EN"
 "http://www.w3.org/Graphics/SVG/1.1/DTD/svg11.dtd">
<!-- Generated by graphviz version 2.38.0 (20140413.2041)
 -->
<!-- Title: /home/travis/build/PO&#45;31/QtReports/qtreports/src/tags/section.hpp Pages: 1 -->
<!--zoomable 666 -->
<svg id="main" version="1.1" xmlns="http://www.w3.org/2000/svg" xmlns:xlink="http://www.w3.org/1999/xlink" xml:space="preserve" onload="init(evt)">
<style type="text/css"><![CDATA[
.edge:hover path { stroke: red; }
.edge:hover polygon { stroke: red; fill: red; }
]]></style>
<script type="text/javascript"><![CDATA[
var edges = document.getElementsByTagName('g');
if (edges && edges.length) {
  for (var i=0;i<edges.length;i++) {
    if (edges[i].id.substr(0,4)=='edge') {
      edges[i].setAttribute('class','edge');
    }
  }
}
]]></script>
        <defs>
                <circle id="rim" cx="0" cy="0" r="7"/>
                <circle id="rim2" cx="0" cy="0" r="3.5"/>
                <g id="zoomPlus">
                        <use xlink:href="#rim" fill="#404040">
                                <set attributeName="fill" to="#808080" begin="zoomplus.mouseover" end="zoomplus.mouseout"/>
                        </use>
                        <path d="M-4,0h8M0,-4v8" fill="none" stroke="white" stroke-width="1.5" pointer-events="none"/>
                </g>
                <g id="zoomMin">
                        <use xlink:href="#rim" fill="#404040">
                                <set attributeName="fill" to="#808080" begin="zoomminus.mouseover" end="zoomminus.mouseout"/>
                        </use>
                        <path d="M-4,0h8" fill="none" stroke="white" stroke-width="1.5" pointer-events="none"/>
                </g>
                <g id="dirArrow">
                        <path fill="none" stroke="white" stroke-width="1.5" d="M0,-3.0v7 M-2.5,-0.5L0,-3.0L2.5,-0.5"/>
                </g>
               <g id="resetDef">
                       <use xlink:href="#rim2" fill="#404040">
                               <set attributeName="fill" to="#808080" begin="reset.mouseover" end="reset.mouseout"/>
                       </use>
               </g>
        </defs>

<script type="text/javascript">
var viewWidth = 969;
var viewHeight = 666;
var sectionId = 'dynsection-0';
</script>
<script xlink:href="svgpan.js"/>
<svg id="graph" class="graph">
<g id="viewport">
<title>/home/travis/build/PO&#45;31/QtReports/qtreports/src/tags/section.hpp</title>
<!-- Node1 -->
<g id="node1" class="node"><title>Node1</title>
<polygon fill="#bfbfbf" stroke="black" points="390,-616.5 390,-657.5 536,-657.5 536,-616.5 390,-616.5"/>
<text text-anchor="start" x="398" y="-645.5" font-family="Helvetica,sans-Serif" font-size="10.00">/home/travis/build</text>
<text text-anchor="start" x="398" y="-634.5" font-family="Helvetica,sans-Serif" font-size="10.00">/PO&#45;31/QtReports/qtreports</text>
<text text-anchor="middle" x="463" y="-623.5" font-family="Helvetica,sans-Serif" font-size="10.00">/src/tags/section.hpp</text>
</g>
<!-- Node2 -->
<g id="node2" class="node"><title>Node2</title>
<polygon fill="none" stroke="#bfbfbf" points="278.5,-504.5 278.5,-523.5 333.5,-523.5 333.5,-504.5 278.5,-504.5"/>
<text text-anchor="middle" x="306" y="-511.5" font-family="Helvetica,sans-Serif" font-size="10.00">QVector</text>
</g>
<!-- Node1&#45;&gt;Node2 -->
<g id="edge1" class="edge"><title>Node1&#45;&gt;Node2</title>
<path fill="none" stroke="midnightblue" d="M437.426,-616.29C406.064,-592.119 353.606,-551.69 325.381,-529.937"/>
<polygon fill="midnightblue" stroke="midnightblue" points="327.183,-526.907 317.126,-523.575 322.91,-532.451 327.183,-526.907"/>
</g>
<!-- Node3 -->
<g id="node3" class="node"><title>Node3</title>
<polygon fill="none" stroke="#bfbfbf" points="659,-0.5 659,-19.5 751,-19.5 751,-0.5 659,-0.5"/>
<text text-anchor="middle" x="705" y="-7.5" font-family="Helvetica,sans-Serif" font-size="10.00">QSharedPointer</text>
</g>
<!-- Node1&#45;&gt;Node3 -->
<g id="edge2" class="edge"><title>Node1&#45;&gt;Node3</title>
<path fill="none" stroke="midnightblue" d="M536.214,-633.346C674.64,-626.324 961,-601.36 961,-515 961,-515 961,-515 961,-121 961,-34.7203 836.732,-15.2702 761.357,-11.4084"/>
<polygon fill="midnightblue" stroke="midnightblue" points="761.206,-7.8986 751.063,-10.9616 760.902,-14.892 761.206,-7.8986"/>
</g>
<!-- Node4 -->
<g id="node4" class="node"><title>Node4</title>
<g id="a_node4"><a xlink:href="object_8hpp.html" target="_top" xlink:title="object.hpp">
<polygon fill="none" stroke="black" points="87.5,-56.5 87.5,-75.5 154.5,-75.5 154.5,-56.5 87.5,-56.5"/>
<text text-anchor="middle" x="121" y="-63.5" font-family="Helvetica,sans-Serif" font-size="10.00">object.hpp</text>
</a>
</g>
</g>
<!-- Node1&#45;&gt;Node4 -->
<g id="edge3" class="edge"><title>Node1&#45;&gt;Node4</title>
<path fill="none" stroke="midnightblue" d="M389.892,-631.995C259.421,-622.831 0,-594.603 0,-515 0,-515 0,-515 0,-177 0,-128.992 52.796,-96.4113 88.6388,-79.8242"/>
<polygon fill="midnightblue" stroke="midnightblue" points="90.5155,-82.8209 98.2408,-75.5703 87.6802,-76.4208 90.5155,-82.8209"/>
</g>
<!-- Node7 -->
<g id="node7" class="node"><title>Node7</title>
<g id="a_node7"><a xlink:href="band_8hpp.html" target="_top" xlink:title="band.hpp">
<polygon fill="none" stroke="black" points="504,-560.5 504,-579.5 566,-579.5 566,-560.5 504,-560.5"/>
<text text-anchor="middle" x="535" y="-567.5" font-family="Helvetica,sans-Serif" font-size="10.00">band.hpp</text>
</a>
</g>
</g>
<!-- Node1&#45;&gt;Node7 -->
<g id="edge7" class="edge"><title>Node1&#45;&gt;Node7</title>
<path fill="none" stroke="midnightblue" d="M484.602,-616.498C495.217,-606.915 507.83,-595.528 517.783,-586.543"/>
<polygon fill="midnightblue" stroke="midnightblue" points="520.338,-588.952 525.416,-579.652 515.648,-583.756 520.338,-588.952"/>
</g>
<!-- Node4&#45;&gt;Node3 -->
<g id="edge6" class="edge"><title>Node4&#45;&gt;Node3</title>
<path fill="none" stroke="midnightblue" d="M154.572,-61.7096C172.252,-59.9872 194.297,-57.8562 214,-56 371.556,-41.1564 557.618,-24.2833 648.844,-16.0532"/>
<polygon fill="midnightblue" stroke="midnightblue" points="649.316,-19.5249 658.962,-15.1408 648.688,-12.5532 649.316,-19.5249"/>
</g>
<!-- Node5 -->
<g id="node5" class="node"><title>Node5</title>
<polygon fill="none" stroke="#bfbfbf" points="239.5,-0.5 239.5,-19.5 292.5,-19.5 292.5,-0.5 239.5,-0.5"/>
<text text-anchor="middle" x="266" y="-7.5" font-family="Helvetica,sans-Serif" font-size="10.00">QString</text>
</g>
<!-- Node4&#45;&gt;Node5 -->
<g id="edge4" class="edge"><title>Node4&#45;&gt;Node5</title>
<path fill="none" stroke="midnightblue" d="M143.976,-56.4435C168.157,-47.4381 206.418,-33.1891 233.646,-23.049"/>
<polygon fill="midnightblue" stroke="midnightblue" points="234.982,-26.2864 243.132,-19.5164 232.539,-19.7265 234.982,-26.2864"/>
</g>
<!-- Node6 -->
<g id="node6" class="node"><title>Node6</title>
<polygon fill="none" stroke="#bfbfbf" points="92,-0.5 92,-19.5 150,-19.5 150,-0.5 92,-0.5"/>
<text text-anchor="middle" x="121" y="-7.5" font-family="Helvetica,sans-Serif" font-size="10.00">QVariant</text>
</g>
<!-- Node4&#45;&gt;Node6 -->
<g id="edge5" class="edge"><title>Node4&#45;&gt;Node6</title>
<path fill="none" stroke="midnightblue" d="M121,-56.083C121,-49.0059 121,-38.8611 121,-29.9865"/>
<polygon fill="midnightblue" stroke="midnightblue" points="124.5,-29.751 121,-19.7511 117.5,-29.7511 124.5,-29.751"/>
</g>
<!-- Node7&#45;&gt;Node2 -->
<g id="edge8" class="edge"><title>Node7&#45;&gt;Node2</title>
<path fill="none" stroke="midnightblue" d="M503.877,-561.904C467.638,-553.606 405.72,-539.32 343.492,-524.335"/>
<polygon fill="midnightblue" stroke="midnightblue" points="344.048,-520.868 333.506,-521.924 342.406,-527.673 344.048,-520.868"/>
</g>
<!-- Node7&#45;&gt;Node3 -->
<g id="edge9" class="edge"><title>Node7&#45;&gt;Node3</title>
<path fill="none" stroke="midnightblue" d="M566.096,-566.896C658.167,-559.823 923,-533.042 923,-459 923,-459 923,-459 923,-121 923,-48.5686 825.892,-23.8221 761.3,-15.3733"/>
<polygon fill="midnightblue" stroke="midnightblue" points="761.581,-11.8818 751.232,-14.1524 760.738,-18.8309 761.581,-11.8818"/>
</g>
<!-- Node8 -->
<g id="node8" class="node"><title>Node8</title>
<g id="a_node8"><a xlink:href="statictext_8hpp.html" target="_top" xlink:title="statictext.hpp">
<polygon fill="none" stroke="black" points="611.5,-280.5 611.5,-299.5 694.5,-299.5 694.5,-280.5 611.5,-280.5"/>
<text text-anchor="middle" x="653" y="-287.5" font-family="Helvetica,sans-Serif" font-size="10.00">statictext.hpp</text>
</a>
</g>
</g>
<!-- Node7&#45;&gt;Node8 -->
<g id="edge10" class="edge"><title>Node7&#45;&gt;Node8</title>
<path fill="none" stroke="midnightblue" d="M538.661,-560.375C555.145,-521.54 622.664,-362.47 645.449,-308.789"/>
<polygon fill="midnightblue" stroke="midnightblue" points="648.696,-310.097 649.382,-299.524 642.253,-307.362 648.696,-310.097"/>
</g>
<!-- Node10 -->
<g id="node10" class="node"><title>Node10</title>
<g id="a_node10"><a xlink:href="widget_8hpp.html" target="_top" xlink:title="widget.hpp">
<polygon fill="none" stroke="black" points="458,-168.5 458,-187.5 526,-187.5 526,-168.5 458,-168.5"/>
<text text-anchor="middle" x="492" y="-175.5" font-family="Helvetica,sans-Serif" font-size="10.00">widget.hpp</text>
</a>
</g>
</g>
<!-- Node7&#45;&gt;Node10 -->
<g id="edge44" class="edge"><title>Node7&#45;&gt;Node10</title>
<path fill="none" stroke="midnightblue" d="M529.716,-560.231C519.275,-542.043 497,-498.601 497,-459 497,-459 497,-459 497,-289 497,-256.915 494.851,-219.62 493.371,-197.737"/>
<polygon fill="midnightblue" stroke="midnightblue" points="496.847,-197.281 492.654,-187.552 489.865,-197.773 496.847,-197.281"/>
</g>
<!-- Node16 -->
<g id="node16" class="node"><title>Node16</title>
<g id="a_node16"><a xlink:href="textfield_8hpp.html" target="_top" xlink:title="textfield.hpp">
<polygon fill="none" stroke="black" points="252,-280.5 252,-299.5 328,-299.5 328,-280.5 252,-280.5"/>
<text text-anchor="middle" x="290" y="-287.5" font-family="Helvetica,sans-Serif" font-size="10.00">textfield.hpp</text>
</a>
</g>
</g>
<!-- Node7&#45;&gt;Node16 -->
<g id="edge27" class="edge"><title>Node7&#45;&gt;Node16</title>
<path fill="none" stroke="midnightblue" d="M523.587,-560.369C512.584,-551.772 495.769,-537.884 483,-524 413.013,-447.902 417.362,-410.81 346,-336 335.403,-324.891 322.05,-314.061 311.04,-305.81"/>
<polygon fill="midnightblue" stroke="midnightblue" points="312.949,-302.87 302.811,-299.79 308.816,-308.519 312.949,-302.87"/>
</g>
<!-- Node17 -->
<g id="node17" class="node"><title>Node17</title>
<g id="a_node17"><a xlink:href="line_8hpp.html" target="_top" xlink:title="line.hpp">
<polygon fill="none" stroke="black" points="767,-224.5 767,-243.5 821,-243.5 821,-224.5 767,-224.5"/>
<text text-anchor="middle" x="794" y="-231.5" font-family="Helvetica,sans-Serif" font-size="10.00">line.hpp</text>
</a>
</g>
</g>
<!-- Node7&#45;&gt;Node17 -->
<g id="edge31" class="edge"><title>Node7&#45;&gt;Node17</title>
<path fill="none" stroke="midnightblue" d="M566.142,-568.709C631.502,-566.288 777,-550.609 777,-459 777,-459 777,-459 777,-345 777,-312.583 784.3,-275.415 789.333,-253.644"/>
<polygon fill="midnightblue" stroke="midnightblue" points="792.772,-254.31 791.707,-243.769 785.966,-252.674 792.772,-254.31"/>
</g>
<!-- Node18 -->
<g id="node18" class="node"><title>Node18</title>
<g id="a_node18"><a xlink:href="rect_8hpp.html" target="_top" xlink:title="rect.hpp">
<polygon fill="none" stroke="black" points="839,-224.5 839,-243.5 895,-243.5 895,-224.5 839,-224.5"/>
<text text-anchor="middle" x="867" y="-231.5" font-family="Helvetica,sans-Serif" font-size="10.00">rect.hpp</text>
</a>
</g>
</g>
<!-- Node7&#45;&gt;Node18 -->
<g id="edge34" class="edge"><title>Node7&#45;&gt;Node18</title>
<path fill="none" stroke="midnightblue" d="M566.287,-568.079C612.449,-565.613 700.516,-556.622 767,-524 806.299,-504.717 841,-502.775 841,-459 841,-459 841,-459 841,-345 841,-311.929 852.268,-274.729 859.968,-253.168"/>
<polygon fill="midnightblue" stroke="midnightblue" points="863.293,-254.268 863.494,-243.675 856.731,-251.831 863.293,-254.268"/>
</g>
<!-- Node19 -->
<g id="node19" class="node"><title>Node19</title>
<g id="a_node19"><a xlink:href="ellipse_8hpp.html" target="_top" xlink:title="ellipse.hpp">
<polygon fill="none" stroke="black" points="681,-224.5 681,-243.5 749,-243.5 749,-224.5 681,-224.5"/>
<text text-anchor="middle" x="715" y="-231.5" font-family="Helvetica,sans-Serif" font-size="10.00">ellipse.hpp</text>
</a>
</g>
</g>
<!-- Node7&#45;&gt;Node19 -->
<g id="edge37" class="edge"><title>Node7&#45;&gt;Node19</title>
<path fill="none" stroke="midnightblue" d="M566.044,-565.163C619.442,-556.64 723,-530.849 723,-459 723,-459 723,-459 723,-345 723,-312.863 719.561,-275.584 717.193,-253.719"/>
<polygon fill="midnightblue" stroke="midnightblue" points="720.644,-253.087 716.046,-243.542 713.688,-253.872 720.644,-253.087"/>
</g>
<!-- Node20 -->
<g id="node20" class="node"><title>Node20</title>
<g id="a_node20"><a xlink:href="image_8hpp.html" target="_top" xlink:title="image.hpp">
<polygon fill="none" stroke="black" points="525,-280.5 525,-299.5 593,-299.5 593,-280.5 525,-280.5"/>
<text text-anchor="middle" x="559" y="-287.5" font-family="Helvetica,sans-Serif" font-size="10.00">image.hpp</text>
</a>
</g>
</g>
<!-- Node7&#45;&gt;Node20 -->
<g id="edge40" class="edge"><title>Node7&#45;&gt;Node20</title>
<path fill="none" stroke="midnightblue" d="M535.745,-560.375C539.076,-521.782 552.659,-364.454 557.376,-309.807"/>
<polygon fill="midnightblue" stroke="midnightblue" points="560.891,-309.788 558.264,-299.524 553.917,-309.186 560.891,-309.788"/>
</g>
<!-- Node22 -->
<g id="node22" class="node"><title>Node22</title>
<g id="a_node22"><a xlink:href="crosstab_8hpp.html" target="_top" xlink:title="crosstab.hpp">
<polygon fill="none" stroke="black" points="351.5,-504.5 351.5,-523.5 430.5,-523.5 430.5,-504.5 351.5,-504.5"/>
<text text-anchor="middle" x="391" y="-511.5" font-family="Helvetica,sans-Serif" font-size="10.00">crosstab.hpp</text>
</a>
</g>
</g>
<!-- Node7&#45;&gt;Node22 -->
<g id="edge45" class="edge"><title>Node7&#45;&gt;Node22</title>
<path fill="none" stroke="midnightblue" d="M512.183,-560.444C488.168,-551.438 450.171,-537.189 423.131,-527.049"/>
<polygon fill="midnightblue" stroke="midnightblue" points="424.303,-523.751 413.71,-523.516 421.845,-530.305 424.303,-523.751"/>
</g>
<!-- Node8&#45;&gt;Node3 -->
<g id="edge11" class="edge"><title>Node8&#45;&gt;Node3</title>
<path fill="none" stroke="midnightblue" d="M655.551,-280.16C659.169,-267.645 666.018,-244.054 672,-224 684.218,-183.043 692.838,-174.136 700,-132 706.086,-96.1964 706.235,-53.6205 705.689,-29.7121"/>
<polygon fill="midnightblue" stroke="midnightblue" points="709.183,-29.4778 705.387,-19.5863 702.186,-29.686 709.183,-29.4778"/>
</g>
<!-- Node9 -->
<g id="node9" class="node"><title>Node9</title>
<g id="a_node9"><a xlink:href="textwidget_8hpp.html" target="_top" xlink:title="textwidget.hpp">
<polygon fill="none" stroke="black" points="305.5,-224.5 305.5,-243.5 392.5,-243.5 392.5,-224.5 305.5,-224.5"/>
<text text-anchor="middle" x="349" y="-231.5" font-family="Helvetica,sans-Serif" font-size="10.00">textwidget.hpp</text>
</a>
</g>
</g>
<!-- Node8&#45;&gt;Node9 -->
<g id="edge12" class="edge"><title>Node8&#45;&gt;Node9</title>
<path fill="none" stroke="midnightblue" d="M611.368,-281.605C557.104,-271.966 462.126,-255.095 402.554,-244.513"/>
<polygon fill="midnightblue" stroke="midnightblue" points="403.043,-241.045 392.585,-242.742 401.819,-247.937 403.043,-241.045"/>
</g>
<!-- Node9&#45;&gt;Node3 -->
<g id="edge14" class="edge"><title>Node9&#45;&gt;Node3</title>
<path fill="none" stroke="midnightblue" d="M353.194,-224.359C364.226,-202.483 396.179,-144.356 439,-112 503.692,-63.1183 594.783,-35.3979 651.824,-21.7985"/>
<polygon fill="midnightblue" stroke="midnightblue" points="652.768,-25.1724 661.717,-19.5001 651.184,-18.354 652.768,-25.1724"/>
</g>
<!-- Node9&#45;&gt;Node5 -->
<g id="edge13" class="edge"><title>Node9&#45;&gt;Node5</title>
<path fill="none" stroke="midnightblue" d="M341.846,-224.472C328.328,-207.859 299.124,-169.492 285,-132 271.987,-97.4563 267.885,-54.1226 266.594,-29.8037"/>
<polygon fill="midnightblue" stroke="midnightblue" points="270.078,-29.3578 266.158,-19.5147 263.084,-29.6537 270.078,-29.3578"/>
</g>
<!-- Node9&#45;&gt;Node10 -->
<g id="edge15" class="edge"><title>Node9&#45;&gt;Node10</title>
<path fill="none" stroke="midnightblue" d="M371.659,-224.444C395.402,-215.478 432.909,-201.314 459.738,-191.183"/>
<polygon fill="midnightblue" stroke="midnightblue" points="461.329,-194.324 469.447,-187.516 458.856,-187.775 461.329,-194.324"/>
</g>
<!-- Node10&#45;&gt;Node3 -->
<g id="edge20" class="edge"><title>Node10&#45;&gt;Node3</title>
<path fill="none" stroke="midnightblue" d="M526.008,-172.851C555.945,-167.687 599.28,-156.361 629,-132 659.015,-107.397 650.933,-88.5935 672,-56 678.179,-46.4398 685.638,-36.1755 691.9,-27.8676"/>
<polygon fill="midnightblue" stroke="midnightblue" points="694.816,-29.8165 698.108,-19.7462 689.255,-25.5654 694.816,-29.8165"/>
</g>
<!-- Node10&#45;&gt;Node4 -->
<g id="edge26" class="edge"><title>Node10&#45;&gt;Node4</title>
<path fill="none" stroke="midnightblue" d="M457.862,-171.345C416.466,-164.085 344.807,-150.219 285,-132 236.146,-117.117 181.354,-94.0447 149.087,-79.7658"/>
<polygon fill="midnightblue" stroke="midnightblue" points="150.387,-76.513 139.828,-75.6356 147.535,-82.9059 150.387,-76.513"/>
</g>
<!-- Node10&#45;&gt;Node5 -->
<g id="edge16" class="edge"><title>Node10&#45;&gt;Node5</title>
<path fill="none" stroke="midnightblue" d="M479.739,-168.247C468.379,-159.772 451.413,-146.16 439,-132 412.507,-101.779 421.423,-81.0556 390,-56 364.549,-35.7069 329.136,-24.076 302.668,-17.7442"/>
<polygon fill="midnightblue" stroke="midnightblue" points="303.168,-14.2696 292.645,-15.495 301.635,-21.0997 303.168,-14.2696"/>
</g>
<!-- Node11 -->
<g id="node11" class="node"><title>Node11</title>
<polygon fill="none" stroke="#bfbfbf" points="448,-112.5 448,-131.5 496,-131.5 496,-112.5 448,-112.5"/>
<text text-anchor="middle" x="472" y="-119.5" font-family="Helvetica,sans-Serif" font-size="10.00">QPoint</text>
</g>
<!-- Node10&#45;&gt;Node11 -->
<g id="edge17" class="edge"><title>Node10&#45;&gt;Node11</title>
<path fill="none" stroke="midnightblue" d="M488.697,-168.083C486.018,-160.849 482.151,-150.409 478.814,-141.397"/>
<polygon fill="midnightblue" stroke="midnightblue" points="481.996,-139.913 475.241,-131.751 475.432,-142.344 481.996,-139.913"/>
</g>
<!-- Node12 -->
<g id="node12" class="node"><title>Node12</title>
<polygon fill="none" stroke="#bfbfbf" points="514,-112.5 514,-131.5 558,-131.5 558,-112.5 514,-112.5"/>
<text text-anchor="middle" x="536" y="-119.5" font-family="Helvetica,sans-Serif" font-size="10.00">QSize</text>
</g>
<!-- Node10&#45;&gt;Node12 -->
<g id="edge18" class="edge"><title>Node10&#45;&gt;Node12</title>
<path fill="none" stroke="midnightblue" d="M499.266,-168.083C505.545,-160.377 514.788,-149.033 522.431,-139.653"/>
<polygon fill="midnightblue" stroke="midnightblue" points="525.266,-141.714 528.869,-131.751 519.839,-137.293 525.266,-141.714"/>
</g>
<!-- Node13 -->
<g id="node13" class="node"><title>Node13</title>
<polygon fill="none" stroke="#bfbfbf" points="576,-112.5 576,-131.5 620,-131.5 620,-112.5 576,-112.5"/>
<text text-anchor="middle" x="598" y="-119.5" font-family="Helvetica,sans-Serif" font-size="10.00">QRect</text>
</g>
<!-- Node10&#45;&gt;Node13 -->
<g id="edge19" class="edge"><title>Node10&#45;&gt;Node13</title>
<path fill="none" stroke="midnightblue" d="M509.031,-168.324C526.03,-159.664 552.376,-146.242 571.993,-136.249"/>
<polygon fill="midnightblue" stroke="midnightblue" points="573.69,-139.312 581.012,-131.655 570.512,-133.075 573.69,-139.312"/>
</g>
<!-- Node14 -->
<g id="node14" class="node"><title>Node14</title>
<g id="a_node14"><a xlink:href="style_8hpp.html" target="_top" xlink:title="style.hpp">
<polygon fill="none" stroke="black" points="294,-112.5 294,-131.5 354,-131.5 354,-112.5 294,-112.5"/>
<text text-anchor="middle" x="324" y="-119.5" font-family="Helvetica,sans-Serif" font-size="10.00">style.hpp</text>
</a>
</g>
</g>
<!-- Node10&#45;&gt;Node14 -->
<g id="edge21" class="edge"><title>Node10&#45;&gt;Node14</title>
<path fill="none" stroke="midnightblue" d="M465.38,-168.444C436.994,-159.32 391.863,-144.813 360.247,-134.651"/>
<polygon fill="midnightblue" stroke="midnightblue" points="361.087,-131.244 350.496,-131.516 358.945,-137.909 361.087,-131.244"/>
</g>
<!-- Node14&#45;&gt;Node3 -->
<g id="edge24" class="edge"><title>Node14&#45;&gt;Node3</title>
<path fill="none" stroke="midnightblue" d="M340.401,-112.341C367.218,-98.5188 422.437,-71.4569 472,-56 530.994,-37.602 600.845,-25.315 648.578,-18.2939"/>
<polygon fill="midnightblue" stroke="midnightblue" points="649.317,-21.7237 658.715,-16.8331 648.318,-14.7953 649.317,-21.7237"/>
</g>
<!-- Node14&#45;&gt;Node4 -->
<g id="edge25" class="edge"><title>Node14&#45;&gt;Node4</title>
<path fill="none" stroke="midnightblue" d="M293.609,-112.916C258.986,-103.706 202.18,-88.5946 163.257,-78.2407"/>
<polygon fill="midnightblue" stroke="midnightblue" points="163.843,-74.7749 153.279,-75.5865 162.043,-81.5397 163.843,-74.7749"/>
</g>
<!-- Node14&#45;&gt;Node5 -->
<g id="edge22" class="edge"><title>Node14&#45;&gt;Node5</title>
<path fill="none" stroke="midnightblue" d="M319.449,-112.368C309.962,-94.376 287.908,-52.5503 275.294,-28.6267"/>
<polygon fill="midnightblue" stroke="midnightblue" points="278.29,-26.8047 270.53,-19.5914 272.098,-30.0696 278.29,-26.8047"/>
</g>
<!-- Node15 -->
<g id="node15" class="node"><title>Node15</title>
<polygon fill="none" stroke="#bfbfbf" points="332.5,-56.5 332.5,-75.5 381.5,-75.5 381.5,-56.5 332.5,-56.5"/>
<text text-anchor="middle" x="357" y="-63.5" font-family="Helvetica,sans-Serif" font-size="10.00">QColor</text>
</g>
<!-- Node14&#45;&gt;Node15 -->
<g id="edge23" class="edge"><title>Node14&#45;&gt;Node15</title>
<path fill="none" stroke="midnightblue" d="M329.449,-112.083C334.014,-104.613 340.668,-93.7244 346.293,-84.5199"/>
<polygon fill="midnightblue" stroke="midnightblue" points="349.424,-86.109 351.652,-75.7511 343.451,-82.4588 349.424,-86.109"/>
</g>
<!-- Node16&#45;&gt;Node3 -->
<g id="edge29" class="edge"><title>Node16&#45;&gt;Node3</title>
<path fill="none" stroke="midnightblue" d="M280.852,-280.253C263.605,-262.77 228,-221.528 228,-179 228,-179 228,-179 228,-121 228,-35.548 522.339,-16.4699 648.591,-12.2171"/>
<polygon fill="midnightblue" stroke="midnightblue" points="648.946,-15.7077 658.83,-11.8925 648.724,-8.71123 648.946,-15.7077"/>
</g>
<!-- Node16&#45;&gt;Node5 -->
<g id="edge28" class="edge"><title>Node16&#45;&gt;Node5</title>
<path fill="none" stroke="midnightblue" d="M267.207,-280.435C250.419,-273.078 228.139,-260.96 214,-244 194.28,-220.347 190,-209.795 190,-179 190,-179 190,-179 190,-121 190,-90.2048 196.47,-81.3191 214,-56 222.176,-44.1903 234.153,-33.5418 244.552,-25.5714"/>
<polygon fill="midnightblue" stroke="midnightblue" points="246.793,-28.2685 252.797,-19.5395 242.66,-22.6188 246.793,-28.2685"/>
</g>
<!-- Node16&#45;&gt;Node9 -->
<g id="edge30" class="edge"><title>Node16&#45;&gt;Node9</title>
<path fill="none" stroke="midnightblue" d="M299.479,-280.324C308.201,-272.341 321.343,-260.313 331.898,-250.653"/>
<polygon fill="midnightblue" stroke="midnightblue" points="334.334,-253.167 339.348,-243.834 329.608,-248.004 334.334,-253.167"/>
</g>
<!-- Node17&#45;&gt;Node3 -->
<g id="edge32" class="edge"><title>Node17&#45;&gt;Node3</title>
<path fill="none" stroke="midnightblue" d="M793.828,-224.233C792.941,-197.251 787.481,-113.791 754,-56 747.193,-44.2508 736.305,-33.8027 726.518,-25.9384"/>
<polygon fill="midnightblue" stroke="midnightblue" points="728.414,-22.9832 718.333,-19.7248 724.182,-28.5588 728.414,-22.9832"/>
</g>
<!-- Node17&#45;&gt;Node10 -->
<g id="edge33" class="edge"><title>Node17&#45;&gt;Node10</title>
<path fill="none" stroke="midnightblue" d="M766.925,-225.993C763.921,-225.286 760.901,-224.607 758,-224 680.424,-207.766 589.18,-193.332 536.234,-185.411"/>
<polygon fill="midnightblue" stroke="midnightblue" points="536.576,-181.924 526.17,-183.915 535.547,-188.848 536.576,-181.924"/>
</g>
<!-- Node18&#45;&gt;Node3 -->
<g id="edge35" class="edge"><title>Node18&#45;&gt;Node3</title>
<path fill="none" stroke="midnightblue" d="M864.08,-224.356C854.519,-197.029 821.868,-111.058 772,-56 760.459,-43.2584 744.592,-32.3941 731.196,-24.5341"/>
<polygon fill="midnightblue" stroke="midnightblue" points="732.831,-21.4384 722.399,-19.5864 729.399,-27.5395 732.831,-21.4384"/>
</g>
<!-- Node18&#45;&gt;Node10 -->
<g id="edge36" class="edge"><title>Node18&#45;&gt;Node10</title>
<path fill="none" stroke="midnightblue" d="M838.785,-225.81C835.828,-225.154 832.859,-224.536 830,-224 725.558,-204.402 601.397,-190.163 536.524,-183.403"/>
<polygon fill="midnightblue" stroke="midnightblue" points="536.56,-179.888 526.254,-182.344 535.842,-186.851 536.56,-179.888"/>
</g>
<!-- Node19&#45;&gt;Node3 -->
<g id="edge38" class="edge"><title>Node19&#45;&gt;Node3</title>
<path fill="none" stroke="midnightblue" d="M718.768,-224.275C729.527,-198.088 758.342,-118.139 738,-56 734.51,-45.3397 727.427,-35.1174 720.714,-27.1175"/>
<polygon fill="midnightblue" stroke="midnightblue" points="723.305,-24.7633 714.02,-19.66 718.096,-29.4395 723.305,-24.7633"/>
</g>
<!-- Node19&#45;&gt;Node10 -->
<g id="edge39" class="edge"><title>Node19&#45;&gt;Node10</title>
<path fill="none" stroke="midnightblue" d="M680.645,-224.681C641.736,-215.259 578.245,-199.884 535.806,-189.608"/>
<polygon fill="midnightblue" stroke="midnightblue" points="536.571,-186.192 526.028,-187.24 534.923,-192.995 536.571,-186.192"/>
</g>
<!-- Node20&#45;&gt;Node3 -->
<g id="edge42" class="edge"><title>Node20&#45;&gt;Node3</title>
<path fill="none" stroke="midnightblue" d="M566.731,-280.437C574.431,-271.668 586.325,-257.453 595,-244 643.189,-169.272 682.863,-70.1161 698.192,-29.5204"/>
<polygon fill="midnightblue" stroke="midnightblue" points="701.566,-30.4878 701.782,-19.8952 695.008,-28.0415 701.566,-30.4878"/>
</g>
<!-- Node20&#45;&gt;Node9 -->
<g id="edge43" class="edge"><title>Node20&#45;&gt;Node9</title>
<path fill="none" stroke="midnightblue" d="M525.725,-280.444C489.552,-271.142 431.623,-256.246 392.019,-246.062"/>
<polygon fill="midnightblue" stroke="midnightblue" points="392.676,-242.617 382.119,-243.516 390.933,-249.397 392.676,-242.617"/>
</g>
<!-- Node21 -->
<g id="node21" class="node"><title>Node21</title>
<polygon fill="none" stroke="#bfbfbf" points="532,-224.5 532,-243.5 586,-243.5 586,-224.5 532,-224.5"/>
<text text-anchor="middle" x="559" y="-231.5" font-family="Helvetica,sans-Serif" font-size="10.00">QImage</text>
</g>
<!-- Node20&#45;&gt;Node21 -->
<g id="edge41" class="edge"><title>Node20&#45;&gt;Node21</title>
<path fill="none" stroke="midnightblue" d="M559,-280.083C559,-273.006 559,-262.861 559,-253.986"/>
<polygon fill="midnightblue" stroke="midnightblue" points="562.5,-253.751 559,-243.751 555.5,-253.751 562.5,-253.751"/>
</g>
<!-- Node22&#45;&gt;Node10 -->
<g id="edge46" class="edge"><title>Node22&#45;&gt;Node10</title>
<path fill="none" stroke="midnightblue" d="M397.52,-504.169C414.54,-480.214 459,-411.468 459,-347 459,-347 459,-347 459,-289 459,-255.245 473.432,-218.028 483.208,-196.691"/>
<polygon fill="midnightblue" stroke="midnightblue" points="486.409,-198.11 487.549,-187.576 480.089,-195.099 486.409,-198.11"/>
</g>
<!-- Node23 -->
<g id="node23" class="node"><title>Node23</title>
<g id="a_node23"><a xlink:href="crosstabgroup_8hpp.html" target="_top" xlink:title="crosstabgroup.hpp">
<polygon fill="none" stroke="black" points="99.5,-448.5 99.5,-467.5 206.5,-467.5 206.5,-448.5 99.5,-448.5"/>
<text text-anchor="middle" x="153" y="-455.5" font-family="Helvetica,sans-Serif" font-size="10.00">crosstabgroup.hpp</text>
</a>
</g>
</g>
<!-- Node22&#45;&gt;Node23 -->
<g id="edge47" class="edge"><title>Node22&#45;&gt;Node23</title>
<path fill="none" stroke="midnightblue" d="M353.288,-504.444C311.857,-495.043 245.243,-479.929 200.333,-469.739"/>
<polygon fill="midnightblue" stroke="midnightblue" points="201.062,-466.316 190.535,-467.516 199.513,-473.142 201.062,-466.316"/>
</g>
<!-- Node26 -->
<g id="node26" class="node"><title>Node26</title>
<g id="a_node26"><a xlink:href="crosstabcell_8hpp.html" target="_top" xlink:title="crosstabcell.hpp">
<polygon fill="none" stroke="black" points="242.5,-392.5 242.5,-411.5 337.5,-411.5 337.5,-392.5 242.5,-392.5"/>
<text text-anchor="middle" x="290" y="-399.5" font-family="Helvetica,sans-Serif" font-size="10.00">crosstabcell.hpp</text>
</a>
</g>
</g>
<!-- Node22&#45;&gt;Node26 -->
<g id="edge54" class="edge"><title>Node22&#45;&gt;Node26</title>
<path fill="none" stroke="midnightblue" d="M383.075,-504.368C366.186,-485.974 326.425,-442.671 304.739,-419.052"/>
<polygon fill="midnightblue" stroke="midnightblue" points="307.23,-416.59 297.888,-411.591 302.074,-421.325 307.23,-416.59"/>
</g>
<!-- Node23&#45;&gt;Node4 -->
<g id="edge48" class="edge"><title>Node23&#45;&gt;Node4</title>
<path fill="none" stroke="midnightblue" d="M132.174,-448.473C99.0345,-433.358 38,-398.527 38,-347 38,-347 38,-347 38,-177 38,-135.911 75.3587,-100.444 99.9483,-81.5491"/>
<polygon fill="midnightblue" stroke="midnightblue" points="102.07,-84.3334 108.031,-75.575 97.909,-78.7041 102.07,-84.3334"/>
</g>
<!-- Node24 -->
<g id="node24" class="node"><title>Node24</title>
<g id="a_node24"><a xlink:href="crosstabheader_8hpp.html" target="_top" xlink:title="crosstabheader.hpp">
<polygon fill="none" stroke="black" points="97,-392.5 97,-411.5 209,-411.5 209,-392.5 97,-392.5"/>
<text text-anchor="middle" x="153" y="-399.5" font-family="Helvetica,sans-Serif" font-size="10.00">crosstabheader.hpp</text>
</a>
</g>
</g>
<!-- Node23&#45;&gt;Node24 -->
<g id="edge49" class="edge"><title>Node23&#45;&gt;Node24</title>
<path fill="none" stroke="midnightblue" d="M153,-448.083C153,-441.006 153,-430.861 153,-421.986"/>
<polygon fill="midnightblue" stroke="midnightblue" points="156.5,-421.751 153,-411.751 149.5,-421.751 156.5,-421.751"/>
</g>
<!-- Node24&#45;&gt;Node4 -->
<g id="edge50" class="edge"><title>Node24&#45;&gt;Node4</title>
<path fill="none" stroke="midnightblue" d="M139.072,-392.198C127.228,-384.081 110.515,-371.035 100,-356 82.3514,-330.764 76,-321.795 76,-291 76,-291 76,-291 76,-177 76,-141.93 95.8368,-104.939 109.169,-84.037"/>
<polygon fill="midnightblue" stroke="midnightblue" points="112.134,-85.8991 114.743,-75.6305 106.3,-82.031 112.134,-85.8991"/>
</g>
<!-- Node25 -->
<g id="node25" class="node"><title>Node25</title>
<g id="a_node25"><a xlink:href="cellcontents_8hpp.html" target="_top" xlink:title="cellcontents.hpp">
<polygon fill="none" stroke="black" points="242.5,-336.5 242.5,-355.5 337.5,-355.5 337.5,-336.5 242.5,-336.5"/>
<text text-anchor="middle" x="290" y="-343.5" font-family="Helvetica,sans-Serif" font-size="10.00">cellcontents.hpp</text>
</a>
</g>
</g>
<!-- Node24&#45;&gt;Node25 -->
<g id="edge51" class="edge"><title>Node24&#45;&gt;Node25</title>
<path fill="none" stroke="midnightblue" d="M174.708,-392.444C197.355,-383.517 233.072,-369.439 258.752,-359.317"/>
<polygon fill="midnightblue" stroke="midnightblue" points="260.374,-362.44 268.394,-355.516 257.807,-355.927 260.374,-362.44"/>
</g>
<!-- Node25&#45;&gt;Node10 -->
<g id="edge52" class="edge"><title>Node25&#45;&gt;Node10</title>
<path fill="none" stroke="midnightblue" d="M300.576,-336.309C333.164,-309.528 432.331,-228.035 473.637,-194.09"/>
<polygon fill="midnightblue" stroke="midnightblue" points="476.025,-196.658 481.529,-187.605 471.581,-191.25 476.025,-196.658"/>
</g>
<!-- Node25&#45;&gt;Node16 -->
<g id="edge53" class="edge"><title>Node25&#45;&gt;Node16</title>
<path fill="none" stroke="midnightblue" d="M290,-336.083C290,-329.006 290,-318.861 290,-309.986"/>
<polygon fill="midnightblue" stroke="midnightblue" points="293.5,-309.751 290,-299.751 286.5,-309.751 293.5,-309.751"/>
</g>
<!-- Node26&#45;&gt;Node4 -->
<g id="edge55" class="edge"><title>Node26&#45;&gt;Node4</title>
<path fill="none" stroke="midnightblue" d="M242.372,-392.511C190.249,-380.16 114,-351.715 114,-291 114,-291 114,-291 114,-177 114,-144.883 117.009,-107.598 119.081,-85.7258"/>
<polygon fill="midnightblue" stroke="midnightblue" points="122.587,-85.8412 120.085,-75.546 115.62,-85.1543 122.587,-85.8412"/>
</g>
<!-- Node26&#45;&gt;Node25 -->
<g id="edge56" class="edge"><title>Node26&#45;&gt;Node25</title>
<path fill="none" stroke="midnightblue" d="M290,-392.083C290,-385.006 290,-374.861 290,-365.986"/>
<polygon fill="midnightblue" stroke="midnightblue" points="293.5,-365.751 290,-355.751 286.5,-365.751 293.5,-365.751"/>
</g>
</g>
</svg>
        <g id="navigator" transform="translate(0 0)" fill="#404254">
                <rect fill="#f2f5e9" fill-opacity="0.5" stroke="#606060" stroke-width=".5" x="0" y="0" width="60" height="60"/>
                <use id="zoomplus" xlink:href="#zoomPlus" x="17" y="9" onmousedown="handleZoom(evt,'in')"/>
                <use id="zoomminus" xlink:href="#zoomMin" x="42" y="9" onmousedown="handleZoom(evt,'out')"/>
                <use id="reset" xlink:href="#resetDef" x="30" y="36" onmousedown="handleReset()"/>
                <g id="arrowUp" xlink:href="#dirArrow" transform="translate(30 24)" onmousedown="handlePan(0,-1)">
                  <use xlink:href="#rim" fill="#404040">
                        <set attributeName="fill" to="#808080" begin="arrowUp.mouseover" end="arrowUp.mouseout"/>
                  </use>
                  <path fill="none" stroke="white" stroke-width="1.5" d="M0,-3.0v7 M-2.5,-0.5L0,-3.0L2.5,-0.5"/>
                </g>
                <g id="arrowRight" xlink:href="#dirArrow" transform="rotate(90) translate(36 -43)" onmousedown="handlePan(1,0)">
                  <use xlink:href="#rim" fill="#404040">
                        <set attributeName="fill" to="#808080" begin="arrowRight.mouseover" end="arrowRight.mouseout"/>
                  </use>
                  <path fill="none" stroke="white" stroke-width="1.5" d="M0,-3.0v7 M-2.5,-0.5L0,-3.0L2.5,-0.5"/>
                </g>
                <g id="arrowDown" xlink:href="#dirArrow" transform="rotate(180) translate(-30 -48)" onmousedown="handlePan(0,1)">
                  <use xlink:href="#rim" fill="#404040">
                        <set attributeName="fill" to="#808080" begin="arrowDown.mouseover" end="arrowDown.mouseout"/>
                  </use>
                  <path fill="none" stroke="white" stroke-width="1.5" d="M0,-3.0v7 M-2.5,-0.5L0,-3.0L2.5,-0.5"/>
                </g>
                <g id="arrowLeft" xlink:href="#dirArrow" transform="rotate(270) translate(-36 17)" onmousedown="handlePan(-1,0)">
                  <use xlink:href="#rim" fill="#404040">
                        <set attributeName="fill" to="#808080" begin="arrowLeft.mouseover" end="arrowLeft.mouseout"/>
                  </use>
                  <path fill="none" stroke="white" stroke-width="1.5" d="M0,-3.0v7 M-2.5,-0.5L0,-3.0L2.5,-0.5"/>
                </g>
        </g>
        <svg viewBox="0 0 15 15" width="100%" height="30px" preserveAspectRatio="xMaxYMin meet">
         <g id="arrow_out" transform="scale(0.3 0.3)">
          <a xlink:href="section_8hpp__incl_org.svg" target="_base">
           <rect id="button" ry="5" rx="5" y="6" x="6" height="38" width="38"
                fill="#f2f5e9" fill-opacity="0.5" stroke="#606060" stroke-width="1.0"/>
           <path id="arrow"
             d="M 11.500037,31.436501 C 11.940474,20.09759 22.043105,11.32322 32.158766,21.979434 L 37.068811,17.246167 C 37.068811,17.246167 37.088388,32 37.088388,32 L 22.160133,31.978069 C 22.160133,31.978069 26.997745,27.140456 26.997745,27.140456 C 18.528582,18.264221 13.291696,25.230495 11.500037,31.436501 z"
             style="fill:#404040;"/>
          </a>
         </g>
        </svg>
</svg>
