<?xml version="1.0" encoding="UTF-8" standalone="no"?>
<!DOCTYPE svg PUBLIC "-//W3C//DTD SVG 1.1//EN"
 "http://www.w3.org/Graphics/SVG/1.1/DTD/svg11.dtd">
<!-- Generated by graphviz version 2.38.0 (20140413.2041)
 -->
<!-- Title: /home/travis/build/PO&#45;31/QtReports/qtreports/src/tags/section.hpp Pages: 1 -->
<!--zoomable 362 -->
<svg id="main" version="1.1" xmlns="http://www.w3.org/2000/svg" xmlns:xlink="http://www.w3.org/1999/xlink" xml:space="preserve" onload="init(evt)">
<style type="text/css"><![CDATA[
.edge:hover path { stroke: red; }
.edge:hover polygon { stroke: red; fill: red; }
]]></style>
<script type="text/javascript"><![CDATA[
var edges = document.getElementsByTagName('g');
if (edges && edges.length) {
  for (var i=0;i<edges.length;i++) {
    if (edges[i].id.substr(0,4)=='edge') {
      edges[i].setAttribute('class','edge');
    }
  }
}
]]></script>
        <defs>
                <circle id="rim" cx="0" cy="0" r="7"/>
                <circle id="rim2" cx="0" cy="0" r="3.5"/>
                <g id="zoomPlus">
                        <use xlink:href="#rim" fill="#404040">
                                <set attributeName="fill" to="#808080" begin="zoomplus.mouseover" end="zoomplus.mouseout"/>
                        </use>
                        <path d="M-4,0h8M0,-4v8" fill="none" stroke="white" stroke-width="1.5" pointer-events="none"/>
                </g>
                <g id="zoomMin">
                        <use xlink:href="#rim" fill="#404040">
                                <set attributeName="fill" to="#808080" begin="zoomminus.mouseover" end="zoomminus.mouseout"/>
                        </use>
                        <path d="M-4,0h8" fill="none" stroke="white" stroke-width="1.5" pointer-events="none"/>
                </g>
                <g id="dirArrow">
                        <path fill="none" stroke="white" stroke-width="1.5" d="M0,-3.0v7 M-2.5,-0.5L0,-3.0L2.5,-0.5"/>
                </g>
               <g id="resetDef">
                       <use xlink:href="#rim2" fill="#404040">
                               <set attributeName="fill" to="#808080" begin="reset.mouseover" end="reset.mouseout"/>
                       </use>
               </g>
        </defs>

<script type="text/javascript">
var viewWidth = 1719;
var viewHeight = 362;
var sectionId = 'dynsection-1';
</script>
<script xlink:href="svgpan.js"/>
<svg id="graph" class="graph">
<g id="viewport">
<title>/home/travis/build/PO&#45;31/QtReports/qtreports/src/tags/section.hpp</title>
<!-- Node1 -->
<g id="node1" class="node"><title>Node1</title>
<polygon fill="#bfbfbf" stroke="black" points="1155,-312.5 1155,-353.5 1301,-353.5 1301,-312.5 1155,-312.5"/>
<text text-anchor="start" x="1163" y="-341.5" font-family="Helvetica,sans-Serif" font-size="10.00">/home/travis/build</text>
<text text-anchor="start" x="1163" y="-330.5" font-family="Helvetica,sans-Serif" font-size="10.00">/PO&#45;31/QtReports/qtreports</text>
<text text-anchor="middle" x="1228" y="-319.5" font-family="Helvetica,sans-Serif" font-size="10.00">/src/tags/section.hpp</text>
</g>
<!-- Node2 -->
<g id="node2" class="node"><title>Node2</title>
<g id="a_node2"><a xlink:href="group_8hpp.html" target="_top" xlink:title="/home/travis/build\l/PO&#45;31/QtReports/qtreports\l/src/tags/group.hpp">
<polygon fill="none" stroke="black" points="890,-234.5 890,-275.5 1036,-275.5 1036,-234.5 890,-234.5"/>
<text text-anchor="start" x="898" y="-263.5" font-family="Helvetica,sans-Serif" font-size="10.00">/home/travis/build</text>
<text text-anchor="start" x="898" y="-252.5" font-family="Helvetica,sans-Serif" font-size="10.00">/PO&#45;31/QtReports/qtreports</text>
<text text-anchor="middle" x="963" y="-241.5" font-family="Helvetica,sans-Serif" font-size="10.00">/src/tags/group.hpp</text>
</a>
</g>
</g>
<!-- Node1&#45;&gt;Node2 -->
<g id="edge1" class="edge"><title>Node1&#45;&gt;Node2</title>
<path fill="none" stroke="midnightblue" d="M1149.83,-309.58C1112.11,-298.764 1067.3,-285.911 1031.01,-275.506"/>
<polygon fill="midnightblue" stroke="midnightblue" points="1149.18,-313.036 1159.76,-312.428 1151.11,-306.307 1149.18,-313.036"/>
</g>
<!-- Node11 -->
<g id="node11" class="node"><title>Node11</title>
<g id="a_node11"><a xlink:href="convertertopdf_8hpp.html" target="_top" xlink:title="/home/travis/build\l/PO&#45;31/QtReports/qtreports\l/src/converters/convertertopdf.hpp">
<polygon fill="none" stroke="black" points="808,-78.5 808,-119.5 990,-119.5 990,-78.5 808,-78.5"/>
<text text-anchor="start" x="816" y="-107.5" font-family="Helvetica,sans-Serif" font-size="10.00">/home/travis/build</text>
<text text-anchor="start" x="816" y="-96.5" font-family="Helvetica,sans-Serif" font-size="10.00">/PO&#45;31/QtReports/qtreports</text>
<text text-anchor="middle" x="899" y="-85.5" font-family="Helvetica,sans-Serif" font-size="10.00">/src/converters/convertertopdf.hpp</text>
</a>
</g>
</g>
<!-- Node1&#45;&gt;Node11 -->
<g id="edge37" class="edge"><title>Node1&#45;&gt;Node11</title>
<path fill="none" stroke="midnightblue" d="M1144.86,-324.281C1008.38,-309.584 747.038,-272.208 698,-198 687.709,-182.426 686.71,-170.865 698,-156 705.326,-146.354 759.863,-131.501 810.279,-119.515"/>
<polygon fill="midnightblue" stroke="midnightblue" points="1144.55,-327.768 1154.87,-325.343 1145.29,-320.807 1144.55,-327.768"/>
</g>
<!-- Node17 -->
<g id="node17" class="node"><title>Node17</title>
<g id="a_node17"><a xlink:href="title_8hpp.html" target="_top" xlink:title="/home/travis/build\l/PO&#45;31/QtReports/qtreports\l/src/tags/title.hpp">
<polygon fill="none" stroke="black" points="1237,-234.5 1237,-275.5 1383,-275.5 1383,-234.5 1237,-234.5"/>
<text text-anchor="start" x="1245" y="-263.5" font-family="Helvetica,sans-Serif" font-size="10.00">/home/travis/build</text>
<text text-anchor="start" x="1245" y="-252.5" font-family="Helvetica,sans-Serif" font-size="10.00">/PO&#45;31/QtReports/qtreports</text>
<text text-anchor="middle" x="1310" y="-241.5" font-family="Helvetica,sans-Serif" font-size="10.00">/src/tags/title.hpp</text>
</a>
</g>
</g>
<!-- Node1&#45;&gt;Node17 -->
<g id="edge25" class="edge"><title>Node1&#45;&gt;Node17</title>
<path fill="none" stroke="midnightblue" d="M1256.6,-305.492C1267.24,-295.629 1279.11,-284.627 1288.95,-275.506"/>
<polygon fill="midnightblue" stroke="midnightblue" points="1254.07,-303.063 1249.12,-312.428 1258.83,-308.197 1254.07,-303.063"/>
</g>
<!-- Node19 -->
<g id="node19" class="node"><title>Node19</title>
<g id="a_node19"><a xlink:href="detail_8hpp.html" target="_top" xlink:title="/home/travis/build\l/PO&#45;31/QtReports/qtreports\l/src/tags/detail.hpp">
<polygon fill="none" stroke="black" points="1073,-234.5 1073,-275.5 1219,-275.5 1219,-234.5 1073,-234.5"/>
<text text-anchor="start" x="1081" y="-263.5" font-family="Helvetica,sans-Serif" font-size="10.00">/home/travis/build</text>
<text text-anchor="start" x="1081" y="-252.5" font-family="Helvetica,sans-Serif" font-size="10.00">/PO&#45;31/QtReports/qtreports</text>
<text text-anchor="middle" x="1146" y="-241.5" font-family="Helvetica,sans-Serif" font-size="10.00">/src/tags/detail.hpp</text>
</a>
</g>
</g>
<!-- Node1&#45;&gt;Node19 -->
<g id="edge29" class="edge"><title>Node1&#45;&gt;Node19</title>
<path fill="none" stroke="midnightblue" d="M1199.4,-305.492C1188.76,-295.629 1176.89,-284.627 1167.05,-275.506"/>
<polygon fill="midnightblue" stroke="midnightblue" points="1197.17,-308.197 1206.88,-312.428 1201.93,-303.063 1197.17,-308.197"/>
</g>
<!-- Node21 -->
<g id="node21" class="node"><title>Node21</title>
<g id="a_node21"><a xlink:href="summary_8hpp.html" target="_top" xlink:title="/home/travis/build\l/PO&#45;31/QtReports/qtreports\l/src/tags/summary.hpp">
<polygon fill="none" stroke="black" points="1401,-234.5 1401,-275.5 1547,-275.5 1547,-234.5 1401,-234.5"/>
<text text-anchor="start" x="1409" y="-263.5" font-family="Helvetica,sans-Serif" font-size="10.00">/home/travis/build</text>
<text text-anchor="start" x="1409" y="-252.5" font-family="Helvetica,sans-Serif" font-size="10.00">/PO&#45;31/QtReports/qtreports</text>
<text text-anchor="middle" x="1474" y="-241.5" font-family="Helvetica,sans-Serif" font-size="10.00">/src/tags/summary.hpp</text>
</a>
</g>
</g>
<!-- Node1&#45;&gt;Node21 -->
<g id="edge33" class="edge"><title>Node1&#45;&gt;Node21</title>
<path fill="none" stroke="midnightblue" d="M1301.02,-309.442C1335.93,-298.655 1377.32,-285.867 1410.86,-275.506"/>
<polygon fill="midnightblue" stroke="midnightblue" points="1299.87,-306.132 1291.35,-312.428 1301.94,-312.82 1299.87,-306.132"/>
</g>
<!-- Node23 -->
<g id="node23" class="node"><title>Node23</title>
<g id="a_node23"><a xlink:href="section_8cpp.html" target="_top" xlink:title="/home/travis/build\l/PO&#45;31/QtReports/qtreports\l/src/tags/section.cpp">
<polygon fill="none" stroke="black" points="1565,-234.5 1565,-275.5 1711,-275.5 1711,-234.5 1565,-234.5"/>
<text text-anchor="start" x="1573" y="-263.5" font-family="Helvetica,sans-Serif" font-size="10.00">/home/travis/build</text>
<text text-anchor="start" x="1573" y="-252.5" font-family="Helvetica,sans-Serif" font-size="10.00">/PO&#45;31/QtReports/qtreports</text>
<text text-anchor="middle" x="1638" y="-241.5" font-family="Helvetica,sans-Serif" font-size="10.00">/src/tags/section.cpp</text>
</a>
</g>
</g>
<!-- Node1&#45;&gt;Node23 -->
<g id="edge38" class="edge"><title>Node1&#45;&gt;Node23</title>
<path fill="none" stroke="midnightblue" d="M1311.23,-319.442C1377.71,-309.014 1473.14,-293.157 1556,-276 1558.87,-275.406 1561.79,-274.782 1564.74,-274.138"/>
<polygon fill="midnightblue" stroke="midnightblue" points="1310.57,-316.003 1301.23,-321.004 1311.65,-322.919 1310.57,-316.003"/>
</g>
<!-- Node3 -->
<g id="node3" class="node"><title>Node3</title>
<g id="a_node3"><a xlink:href="report_8hpp.html" target="_top" xlink:title="/home/travis/build\l/PO&#45;31/QtReports/qtreports\l/src/tags/report.hpp">
<polygon fill="none" stroke="black" points="871,-156.5 871,-197.5 1017,-197.5 1017,-156.5 871,-156.5"/>
<text text-anchor="start" x="879" y="-185.5" font-family="Helvetica,sans-Serif" font-size="10.00">/home/travis/build</text>
<text text-anchor="start" x="879" y="-174.5" font-family="Helvetica,sans-Serif" font-size="10.00">/PO&#45;31/QtReports/qtreports</text>
<text text-anchor="middle" x="944" y="-163.5" font-family="Helvetica,sans-Serif" font-size="10.00">/src/tags/report.hpp</text>
</a>
</g>
</g>
<!-- Node2&#45;&gt;Node3 -->
<g id="edge2" class="edge"><title>Node2&#45;&gt;Node3</title>
<path fill="none" stroke="midnightblue" d="M955.647,-224.59C953.378,-215.511 950.935,-205.742 948.876,-197.506"/>
<polygon fill="midnightblue" stroke="midnightblue" points="952.286,-225.576 958.107,-234.428 959.077,-223.878 952.286,-225.576"/>
</g>
<!-- Node13 -->
<g id="node13" class="node"><title>Node13</title>
<g id="a_node13"><a xlink:href="parserfromxml_8hpp.html" target="_top" xlink:title="/home/travis/build\l/PO&#45;31/QtReports/qtreports\l/src/parsers/parserfromxml.hpp">
<polygon fill="none" stroke="black" points="1209.5,-78.5 1209.5,-119.5 1376.5,-119.5 1376.5,-78.5 1209.5,-78.5"/>
<text text-anchor="start" x="1217.5" y="-107.5" font-family="Helvetica,sans-Serif" font-size="10.00">/home/travis/build</text>
<text text-anchor="start" x="1217.5" y="-96.5" font-family="Helvetica,sans-Serif" font-size="10.00">/PO&#45;31/QtReports/qtreports</text>
<text text-anchor="middle" x="1293" y="-85.5" font-family="Helvetica,sans-Serif" font-size="10.00">/src/parsers/parserfromxml.hpp</text>
</a>
</g>
</g>
<!-- Node2&#45;&gt;Node13 -->
<g id="edge23" class="edge"><title>Node2&#45;&gt;Node13</title>
<path fill="none" stroke="midnightblue" d="M993.983,-227.653C1004.38,-218.5 1015.9,-208.016 1026,-198 1043.88,-180.278 1042.38,-168.89 1064,-156 1088.56,-141.355 1154.55,-126.011 1209.42,-115.096"/>
<polygon fill="midnightblue" stroke="midnightblue" points="991.526,-225.152 986.291,-234.364 996.127,-230.427 991.526,-225.152"/>
</g>
<!-- Node16 -->
<g id="node16" class="node"><title>Node16</title>
<g id="a_node16"><a xlink:href="group_8cpp.html" target="_top" xlink:title="/home/travis/build\l/PO&#45;31/QtReports/qtreports\l/src/tags/group.cpp">
<polygon fill="none" stroke="black" points="707,-156.5 707,-197.5 853,-197.5 853,-156.5 707,-156.5"/>
<text text-anchor="start" x="715" y="-185.5" font-family="Helvetica,sans-Serif" font-size="10.00">/home/travis/build</text>
<text text-anchor="start" x="715" y="-174.5" font-family="Helvetica,sans-Serif" font-size="10.00">/PO&#45;31/QtReports/qtreports</text>
<text text-anchor="middle" x="780" y="-163.5" font-family="Helvetica,sans-Serif" font-size="10.00">/src/tags/group.cpp</text>
</a>
</g>
</g>
<!-- Node2&#45;&gt;Node16 -->
<g id="edge24" class="edge"><title>Node2&#45;&gt;Node16</title>
<path fill="none" stroke="midnightblue" d="M906.34,-230.469C880.872,-219.892 851.171,-207.557 826.967,-197.506"/>
<polygon fill="midnightblue" stroke="midnightblue" points="905.295,-233.825 915.873,-234.428 907.98,-227.36 905.295,-233.825"/>
</g>
<!-- Node4 -->
<g id="node4" class="node"><title>Node4</title>
<g id="a_node4"><a xlink:href="convertertohtml_8hpp.html" target="_top" xlink:title="/home/travis/build\l/PO&#45;31/QtReports/qtreports\l/src/converters/convertertohtml.hpp">
<polygon fill="none" stroke="black" points="378.5,-78.5 378.5,-119.5 567.5,-119.5 567.5,-78.5 378.5,-78.5"/>
<text text-anchor="start" x="386.5" y="-107.5" font-family="Helvetica,sans-Serif" font-size="10.00">/home/travis/build</text>
<text text-anchor="start" x="386.5" y="-96.5" font-family="Helvetica,sans-Serif" font-size="10.00">/PO&#45;31/QtReports/qtreports</text>
<text text-anchor="middle" x="473" y="-85.5" font-family="Helvetica,sans-Serif" font-size="10.00">/src/converters/convertertohtml.hpp</text>
</a>
</g>
</g>
<!-- Node3&#45;&gt;Node4 -->
<g id="edge3" class="edge"><title>Node3&#45;&gt;Node4</title>
<path fill="none" stroke="midnightblue" d="M860.731,-155.87C734.692,-133.186 699.885,-139.556 577,-120 573.913,-119.509 570.778,-118.995 567.614,-118.463"/>
<polygon fill="midnightblue" stroke="midnightblue" points="860.305,-159.35 870.771,-157.703 861.562,-152.464 860.305,-159.35"/>
</g>
<!-- Node6 -->
<g id="node6" class="node"><title>Node6</title>
<g id="a_node6"><a xlink:href="engine_8cpp.html" target="_top" xlink:title="/home/travis/build\l/PO&#45;31/QtReports/qtreports\l/src/engine.cpp">
<polygon fill="none" stroke="black" points="826,-0.5 826,-41.5 972,-41.5 972,-0.5 826,-0.5"/>
<text text-anchor="start" x="834" y="-29.5" font-family="Helvetica,sans-Serif" font-size="10.00">/home/travis/build</text>
<text text-anchor="start" x="834" y="-18.5" font-family="Helvetica,sans-Serif" font-size="10.00">/PO&#45;31/QtReports/qtreports</text>
<text text-anchor="middle" x="899" y="-7.5" font-family="Helvetica,sans-Serif" font-size="10.00">/src/engine.cpp</text>
</a>
</g>
</g>
<!-- Node3&#45;&gt;Node6 -->
<g id="edge21" class="edge"><title>Node3&#45;&gt;Node6</title>
<path fill="none" stroke="midnightblue" d="M1027.14,-155.972C1088.15,-141.08 1160.78,-122.863 1163,-120 1174.45,-105.256 1174.75,-92.5043 1163,-78 1139.37,-48.83 1041.88,-34.2361 972.251,-27.3998"/>
<polygon fill="midnightblue" stroke="midnightblue" points="1025.96,-152.657 1017.07,-158.424 1027.61,-159.458 1025.96,-152.657"/>
</g>
<!-- Node7 -->
<g id="node7" class="node"><title>Node7</title>
<g id="a_node7"><a xlink:href="replacer_8hpp.html" target="_top" xlink:title="/home/travis/build\l/PO&#45;31/QtReports/qtreports\l/src/converters/utils/replacer.hpp">
<polygon fill="none" stroke="black" points="187.5,-78.5 187.5,-119.5 360.5,-119.5 360.5,-78.5 187.5,-78.5"/>
<text text-anchor="start" x="195.5" y="-107.5" font-family="Helvetica,sans-Serif" font-size="10.00">/home/travis/build</text>
<text text-anchor="start" x="195.5" y="-96.5" font-family="Helvetica,sans-Serif" font-size="10.00">/PO&#45;31/QtReports/qtreports</text>
<text text-anchor="middle" x="274" y="-85.5" font-family="Helvetica,sans-Serif" font-size="10.00">/src/converters/utils/replacer.hpp</text>
</a>
</g>
</g>
<!-- Node3&#45;&gt;Node7 -->
<g id="edge6" class="edge"><title>Node3&#45;&gt;Node7</title>
<path fill="none" stroke="midnightblue" d="M860.663,-155.933C643.17,-122.713 583.246,-150.235 369,-120 366.246,-119.611 363.453,-119.19 360.636,-118.741"/>
<polygon fill="midnightblue" stroke="midnightblue" points="860.386,-159.432 870.804,-157.509 861.46,-152.515 860.386,-159.432"/>
</g>
<!-- Node3&#45;&gt;Node11 -->
<g id="edge11" class="edge"><title>Node3&#45;&gt;Node11</title>
<path fill="none" stroke="midnightblue" d="M927.277,-147.757C921.71,-138.354 915.636,-128.096 910.549,-119.506"/>
<polygon fill="midnightblue" stroke="midnightblue" points="924.305,-149.607 932.411,-156.428 930.328,-146.04 924.305,-149.607"/>
</g>
<!-- Node12 -->
<g id="node12" class="node"><title>Node12</title>
<g id="a_node12"><a xlink:href="convertertoqwidget_8hpp.html" target="_top" xlink:title="/home/travis/build\l/PO&#45;31/QtReports/qtreports\l/src/converters/convertertoqwidget.hpp">
<polygon fill="none" stroke="black" points="586,-78.5 586,-119.5 790,-119.5 790,-78.5 586,-78.5"/>
<text text-anchor="start" x="594" y="-107.5" font-family="Helvetica,sans-Serif" font-size="10.00">/home/travis/build</text>
<text text-anchor="start" x="594" y="-96.5" font-family="Helvetica,sans-Serif" font-size="10.00">/PO&#45;31/QtReports/qtreports</text>
<text text-anchor="middle" x="688" y="-85.5" font-family="Helvetica,sans-Serif" font-size="10.00">/src/converters/convertertoqwidget.hpp</text>
</a>
</g>
</g>
<!-- Node3&#45;&gt;Node12 -->
<g id="edge14" class="edge"><title>Node3&#45;&gt;Node12</title>
<path fill="none" stroke="midnightblue" d="M868.482,-153.58C832.048,-142.764 788.754,-129.911 753.703,-119.506"/>
<polygon fill="midnightblue" stroke="midnightblue" points="867.491,-156.937 878.074,-156.428 869.483,-150.227 867.491,-156.937"/>
</g>
<!-- Node3&#45;&gt;Node13 -->
<g id="edge18" class="edge"><title>Node3&#45;&gt;Node13</title>
<path fill="none" stroke="midnightblue" d="M1027.14,-156.858C1028.44,-156.569 1029.72,-156.283 1031,-156 1090.6,-142.781 1157.96,-128.396 1209.45,-117.516"/>
<polygon fill="midnightblue" stroke="midnightblue" points="1026.07,-153.51 1017.08,-159.114 1027.61,-160.341 1026.07,-153.51"/>
</g>
<!-- Node15 -->
<g id="node15" class="node"><title>Node15</title>
<g id="a_node15"><a xlink:href="report_8cpp.html" target="_top" xlink:title="/home/travis/build\l/PO&#45;31/QtReports/qtreports\l/src/tags/report.cpp">
<polygon fill="none" stroke="black" points="1008,-78.5 1008,-119.5 1154,-119.5 1154,-78.5 1008,-78.5"/>
<text text-anchor="start" x="1016" y="-107.5" font-family="Helvetica,sans-Serif" font-size="10.00">/home/travis/build</text>
<text text-anchor="start" x="1016" y="-96.5" font-family="Helvetica,sans-Serif" font-size="10.00">/PO&#45;31/QtReports/qtreports</text>
<text text-anchor="middle" x="1081" y="-85.5" font-family="Helvetica,sans-Serif" font-size="10.00">/src/tags/report.cpp</text>
</a>
</g>
</g>
<!-- Node3&#45;&gt;Node15 -->
<g id="edge22" class="edge"><title>Node3&#45;&gt;Node15</title>
<path fill="none" stroke="midnightblue" d="M988.19,-151.486C1006.85,-141.134 1028.28,-129.247 1045.84,-119.506"/>
<polygon fill="midnightblue" stroke="midnightblue" points="986.328,-148.516 979.281,-156.428 989.723,-154.638 986.328,-148.516"/>
</g>
<!-- Node5 -->
<g id="node5" class="node"><title>Node5</title>
<g id="a_node5"><a xlink:href="convertertohtml_8cpp.html" target="_top" xlink:title="/home/travis/build\l/PO&#45;31/QtReports/qtreports\l/src/converters/convertertohtml.cpp">
<polygon fill="none" stroke="black" points="190,-0.5 190,-41.5 378,-41.5 378,-0.5 190,-0.5"/>
<text text-anchor="start" x="198" y="-29.5" font-family="Helvetica,sans-Serif" font-size="10.00">/home/travis/build</text>
<text text-anchor="start" x="198" y="-18.5" font-family="Helvetica,sans-Serif" font-size="10.00">/PO&#45;31/QtReports/qtreports</text>
<text text-anchor="middle" x="284" y="-7.5" font-family="Helvetica,sans-Serif" font-size="10.00">/src/converters/convertertohtml.cpp</text>
</a>
</g>
</g>
<!-- Node4&#45;&gt;Node5 -->
<g id="edge4" class="edge"><title>Node4&#45;&gt;Node5</title>
<path fill="none" stroke="midnightblue" d="M414.829,-74.6086C388.449,-64.0008 357.614,-51.6015 332.507,-41.5056"/>
<polygon fill="midnightblue" stroke="midnightblue" points="413.744,-77.9445 424.328,-78.4281 416.356,-71.4499 413.744,-77.9445"/>
</g>
<!-- Node4&#45;&gt;Node6 -->
<g id="edge5" class="edge"><title>Node4&#45;&gt;Node6</title>
<path fill="none" stroke="midnightblue" d="M577.512,-77.9466C680.594,-60.2561 708.371,-60.4228 807,-42 813.106,-40.8595 819.426,-39.617 825.762,-38.3278"/>
<polygon fill="midnightblue" stroke="midnightblue" points="576.89,-74.5022 567.634,-79.6567 578.084,-81.3996 576.89,-74.5022"/>
</g>
<!-- Node7&#45;&gt;Node5 -->
<g id="edge7" class="edge"><title>Node7&#45;&gt;Node5</title>
<path fill="none" stroke="midnightblue" d="M277.908,-68.2965C279.092,-59.3009 280.361,-49.6532 281.433,-41.5056"/>
<polygon fill="midnightblue" stroke="midnightblue" points="274.41,-68.0569 276.575,-78.4281 281.35,-68.9702 274.41,-68.0569"/>
</g>
<!-- Node8 -->
<g id="node8" class="node"><title>Node8</title>
<g id="a_node8"><a xlink:href="convertertopdf_8cpp.html" target="_top" xlink:title="/home/travis/build\l/PO&#45;31/QtReports/qtreports\l/src/converters/convertertopdf.cpp">
<polygon fill="none" stroke="black" points="617.5,-0.5 617.5,-41.5 798.5,-41.5 798.5,-0.5 617.5,-0.5"/>
<text text-anchor="start" x="625.5" y="-29.5" font-family="Helvetica,sans-Serif" font-size="10.00">/home/travis/build</text>
<text text-anchor="start" x="625.5" y="-18.5" font-family="Helvetica,sans-Serif" font-size="10.00">/PO&#45;31/QtReports/qtreports</text>
<text text-anchor="middle" x="708" y="-7.5" font-family="Helvetica,sans-Serif" font-size="10.00">/src/converters/convertertopdf.cpp</text>
</a>
</g>
</g>
<!-- Node7&#45;&gt;Node8 -->
<g id="edge8" class="edge"><title>Node7&#45;&gt;Node8</title>
<path fill="none" stroke="midnightblue" d="M370.804,-77.7234C476.449,-59.0062 505.395,-59.9775 608,-42 611.052,-41.4653 614.154,-40.9102 617.285,-40.3401"/>
<polygon fill="midnightblue" stroke="midnightblue" points="369.908,-74.3281 360.681,-79.5351 371.141,-81.2186 369.908,-74.3281"/>
</g>
<!-- Node9 -->
<g id="node9" class="node"><title>Node9</title>
<g id="a_node9"><a xlink:href="convertertoqwidget_8cpp.html" target="_top" xlink:title="/home/travis/build\l/PO&#45;31/QtReports/qtreports\l/src/converters/convertertoqwidget.cpp">
<polygon fill="none" stroke="black" points="396.5,-0.5 396.5,-41.5 599.5,-41.5 599.5,-0.5 396.5,-0.5"/>
<text text-anchor="start" x="404.5" y="-29.5" font-family="Helvetica,sans-Serif" font-size="10.00">/home/travis/build</text>
<text text-anchor="start" x="404.5" y="-18.5" font-family="Helvetica,sans-Serif" font-size="10.00">/PO&#45;31/QtReports/qtreports</text>
<text text-anchor="middle" x="498" y="-7.5" font-family="Helvetica,sans-Serif" font-size="10.00">/src/converters/convertertoqwidget.cpp</text>
</a>
</g>
</g>
<!-- Node7&#45;&gt;Node9 -->
<g id="edge9" class="edge"><title>Node7&#45;&gt;Node9</title>
<path fill="none" stroke="midnightblue" d="M341.302,-75.1652C372.924,-64.4366 410.231,-51.7786 440.51,-41.5056"/>
<polygon fill="midnightblue" stroke="midnightblue" points="340.031,-71.9007 331.686,-78.4281 342.28,-78.5295 340.031,-71.9007"/>
</g>
<!-- Node10 -->
<g id="node10" class="node"><title>Node10</title>
<g id="a_node10"><a xlink:href="replacer_8cpp.html" target="_top" xlink:title="/home/travis/build\l/PO&#45;31/QtReports/qtreports\l/src/converters/utils/replacer.cpp">
<polygon fill="none" stroke="black" points="0,-0.5 0,-41.5 172,-41.5 172,-0.5 0,-0.5"/>
<text text-anchor="start" x="8" y="-29.5" font-family="Helvetica,sans-Serif" font-size="10.00">/home/travis/build</text>
<text text-anchor="start" x="8" y="-18.5" font-family="Helvetica,sans-Serif" font-size="10.00">/PO&#45;31/QtReports/qtreports</text>
<text text-anchor="middle" x="86" y="-7.5" font-family="Helvetica,sans-Serif" font-size="10.00">/src/converters/utils/replacer.cpp</text>
</a>
</g>
</g>
<!-- Node7&#45;&gt;Node10 -->
<g id="edge10" class="edge"><title>Node7&#45;&gt;Node10</title>
<path fill="none" stroke="midnightblue" d="M216.137,-74.6086C189.897,-64.0008 159.225,-51.6015 134.251,-41.5056"/>
<polygon fill="midnightblue" stroke="midnightblue" points="215.002,-77.925 225.585,-78.4281 217.626,-71.4353 215.002,-77.925"/>
</g>
<!-- Node11&#45;&gt;Node6 -->
<g id="edge13" class="edge"><title>Node11&#45;&gt;Node6</title>
<path fill="none" stroke="midnightblue" d="M899,-68.2965C899,-59.3009 899,-49.6532 899,-41.5056"/>
<polygon fill="midnightblue" stroke="midnightblue" points="895.5,-68.4281 899,-78.4281 902.5,-68.4281 895.5,-68.4281"/>
</g>
<!-- Node11&#45;&gt;Node8 -->
<g id="edge12" class="edge"><title>Node11&#45;&gt;Node8</title>
<path fill="none" stroke="midnightblue" d="M840.214,-74.6086C813.555,-64.0008 782.393,-51.6015 757.021,-41.5056"/>
<polygon fill="midnightblue" stroke="midnightblue" points="839.227,-77.9829 849.813,-78.4281 841.815,-71.4789 839.227,-77.9829"/>
</g>
<!-- Node12&#45;&gt;Node6 -->
<g id="edge17" class="edge"><title>Node12&#45;&gt;Node6</title>
<path fill="none" stroke="midnightblue" d="M751.782,-75.0264C781.485,-64.3275 816.448,-51.7343 844.846,-41.5056"/>
<polygon fill="midnightblue" stroke="midnightblue" points="750.56,-71.7464 742.338,-78.4281 752.932,-78.3322 750.56,-71.7464"/>
</g>
<!-- Node12&#45;&gt;Node8 -->
<g id="edge15" class="edge"><title>Node12&#45;&gt;Node8</title>
<path fill="none" stroke="midnightblue" d="M695.74,-68.5896C698.129,-59.5108 700.7,-49.7417 702.867,-41.5056"/>
<polygon fill="midnightblue" stroke="midnightblue" points="692.311,-67.8666 693.15,-78.4281 699.08,-69.6481 692.311,-67.8666"/>
</g>
<!-- Node12&#45;&gt;Node9 -->
<g id="edge16" class="edge"><title>Node12&#45;&gt;Node9</title>
<path fill="none" stroke="midnightblue" d="M629.522,-74.6086C603.002,-64.0008 572.004,-51.6015 546.764,-41.5056"/>
<polygon fill="midnightblue" stroke="midnightblue" points="628.486,-77.9638 639.07,-78.4281 631.085,-71.4645 628.486,-77.9638"/>
</g>
<!-- Node13&#45;&gt;Node6 -->
<g id="edge19" class="edge"><title>Node13&#45;&gt;Node6</title>
<path fill="none" stroke="midnightblue" d="M1199.31,-78.6547C1198.2,-78.4347 1197.1,-78.2164 1196,-78 1119.81,-62.9641 1032.45,-46.5966 972.299,-35.4627"/>
<polygon fill="midnightblue" stroke="midnightblue" points="1198.93,-82.1475 1209.42,-80.6731 1200.3,-75.283 1198.93,-82.1475"/>
</g>
<!-- Node14 -->
<g id="node14" class="node"><title>Node14</title>
<g id="a_node14"><a xlink:href="parserfromxml_8cpp.html" target="_top" xlink:title="/home/travis/build\l/PO&#45;31/QtReports/qtreports\l/src/parsers/parserfromxml.cpp">
<polygon fill="none" stroke="black" points="1209.5,-0.5 1209.5,-41.5 1376.5,-41.5 1376.5,-0.5 1209.5,-0.5"/>
<text text-anchor="start" x="1217.5" y="-29.5" font-family="Helvetica,sans-Serif" font-size="10.00">/home/travis/build</text>
<text text-anchor="start" x="1217.5" y="-18.5" font-family="Helvetica,sans-Serif" font-size="10.00">/PO&#45;31/QtReports/qtreports</text>
<text text-anchor="middle" x="1293" y="-7.5" font-family="Helvetica,sans-Serif" font-size="10.00">/src/parsers/parserfromxml.cpp</text>
</a>
</g>
</g>
<!-- Node13&#45;&gt;Node14 -->
<g id="edge20" class="edge"><title>Node13&#45;&gt;Node14</title>
<path fill="none" stroke="midnightblue" d="M1293,-68.2965C1293,-59.3009 1293,-49.6532 1293,-41.5056"/>
<polygon fill="midnightblue" stroke="midnightblue" points="1289.5,-68.4281 1293,-78.4281 1296.5,-68.4281 1289.5,-68.4281"/>
</g>
<!-- Node17&#45;&gt;Node3 -->
<g id="edge26" class="edge"><title>Node17&#45;&gt;Node3</title>
<path fill="none" stroke="midnightblue" d="M1226.85,-233.787C1149.91,-216.961 1072.26,-201.878 1017.15,-191.496"/>
<polygon fill="midnightblue" stroke="midnightblue" points="1226.2,-237.228 1236.72,-235.956 1227.7,-230.391 1226.2,-237.228"/>
</g>
<!-- Node17&#45;&gt;Node13 -->
<g id="edge27" class="edge"><title>Node17&#45;&gt;Node13</title>
<path fill="none" stroke="midnightblue" d="M1392.55,-230.724C1407.4,-222.756 1421,-212.132 1430,-198 1440.03,-182.255 1440.41,-171.497 1430,-156 1417.47,-137.335 1397.49,-124.887 1376.63,-116.587"/>
<polygon fill="midnightblue" stroke="midnightblue" points="1390.59,-227.787 1383.17,-235.35 1393.69,-234.065 1390.59,-227.787"/>
</g>
<!-- Node18 -->
<g id="node18" class="node"><title>Node18</title>
<g id="a_node18"><a xlink:href="title_8cpp.html" target="_top" xlink:title="/home/travis/build\l/PO&#45;31/QtReports/qtreports\l/src/tags/title.cpp">
<polygon fill="none" stroke="black" points="1275,-156.5 1275,-197.5 1421,-197.5 1421,-156.5 1275,-156.5"/>
<text text-anchor="start" x="1283" y="-185.5" font-family="Helvetica,sans-Serif" font-size="10.00">/home/travis/build</text>
<text text-anchor="start" x="1283" y="-174.5" font-family="Helvetica,sans-Serif" font-size="10.00">/PO&#45;31/QtReports/qtreports</text>
<text text-anchor="middle" x="1348" y="-163.5" font-family="Helvetica,sans-Serif" font-size="10.00">/src/tags/title.cpp</text>
</a>
</g>
</g>
<!-- Node17&#45;&gt;Node18 -->
<g id="edge28" class="edge"><title>Node17&#45;&gt;Node18</title>
<path fill="none" stroke="midnightblue" d="M1324.27,-225.466C1328.93,-216.143 1334,-206.007 1338.25,-197.506"/>
<polygon fill="midnightblue" stroke="midnightblue" points="1321.13,-223.919 1319.79,-234.428 1327.39,-227.049 1321.13,-223.919"/>
</g>
<!-- Node19&#45;&gt;Node3 -->
<g id="edge30" class="edge"><title>Node19&#45;&gt;Node3</title>
<path fill="none" stroke="midnightblue" d="M1084.57,-230.887C1056.21,-220.219 1022.91,-207.69 995.844,-197.506"/>
<polygon fill="midnightblue" stroke="midnightblue" points="1083.39,-234.182 1093.98,-234.428 1085.85,-227.631 1083.39,-234.182"/>
</g>
<!-- Node19&#45;&gt;Node13 -->
<g id="edge31" class="edge"><title>Node19&#45;&gt;Node13</title>
<path fill="none" stroke="midnightblue" d="M1189.48,-228.828C1202.69,-220.041 1216.68,-209.476 1228,-198 1251.51,-174.165 1271.58,-140.649 1282.96,-119.638"/>
<polygon fill="midnightblue" stroke="midnightblue" points="1187.46,-225.97 1180.96,-234.338 1191.26,-231.849 1187.46,-225.97"/>
</g>
<!-- Node20 -->
<g id="node20" class="node"><title>Node20</title>
<g id="a_node20"><a xlink:href="detail_8cpp.html" target="_top" xlink:title="/home/travis/build\l/PO&#45;31/QtReports/qtreports\l/src/tags/detail.cpp">
<polygon fill="none" stroke="black" points="1073,-156.5 1073,-197.5 1219,-197.5 1219,-156.5 1073,-156.5"/>
<text text-anchor="start" x="1081" y="-185.5" font-family="Helvetica,sans-Serif" font-size="10.00">/home/travis/build</text>
<text text-anchor="start" x="1081" y="-174.5" font-family="Helvetica,sans-Serif" font-size="10.00">/PO&#45;31/QtReports/qtreports</text>
<text text-anchor="middle" x="1146" y="-163.5" font-family="Helvetica,sans-Serif" font-size="10.00">/src/tags/detail.cpp</text>
</a>
</g>
</g>
<!-- Node19&#45;&gt;Node20 -->
<g id="edge32" class="edge"><title>Node19&#45;&gt;Node20</title>
<path fill="none" stroke="midnightblue" d="M1146,-224.297C1146,-215.301 1146,-205.653 1146,-197.506"/>
<polygon fill="midnightblue" stroke="midnightblue" points="1142.5,-224.428 1146,-234.428 1149.5,-224.428 1142.5,-224.428"/>
</g>
<!-- Node21&#45;&gt;Node3 -->
<g id="edge34" class="edge"><title>Node21&#45;&gt;Node3</title>
<path fill="none" stroke="midnightblue" d="M1390.63,-233.873C1245.79,-208.983 1206.01,-217.612 1064,-198 1048.83,-195.905 1032.63,-193.393 1017.2,-190.867"/>
<polygon fill="midnightblue" stroke="midnightblue" points="1390.33,-237.374 1400.78,-235.643 1391.53,-230.478 1390.33,-237.374"/>
</g>
<!-- Node21&#45;&gt;Node13 -->
<g id="edge35" class="edge"><title>Node21&#45;&gt;Node13</title>
<path fill="none" stroke="midnightblue" d="M1473.17,-223.974C1471.04,-202.569 1464.89,-174.43 1448,-156 1429.35,-135.642 1402.73,-122.675 1376.81,-114.419"/>
<polygon fill="midnightblue" stroke="midnightblue" points="1469.7,-224.459 1473.94,-234.168 1476.68,-223.933 1469.7,-224.459"/>
</g>
<!-- Node22 -->
<g id="node22" class="node"><title>Node22</title>
<g id="a_node22"><a xlink:href="summary_8cpp.html" target="_top" xlink:title="/home/travis/build\l/PO&#45;31/QtReports/qtreports\l/src/tags/summary.cpp">
<polygon fill="none" stroke="black" points="1515,-156.5 1515,-197.5 1661,-197.5 1661,-156.5 1515,-156.5"/>
<text text-anchor="start" x="1523" y="-185.5" font-family="Helvetica,sans-Serif" font-size="10.00">/home/travis/build</text>
<text text-anchor="start" x="1523" y="-174.5" font-family="Helvetica,sans-Serif" font-size="10.00">/PO&#45;31/QtReports/qtreports</text>
<text text-anchor="middle" x="1588" y="-163.5" font-family="Helvetica,sans-Serif" font-size="10.00">/src/tags/summary.cpp</text>
</a>
</g>
</g>
<!-- Node21&#45;&gt;Node22 -->
<g id="edge36" class="edge"><title>Node21&#45;&gt;Node22</title>
<path fill="none" stroke="midnightblue" d="M1512.05,-228.635C1527.27,-218.487 1544.53,-206.982 1558.74,-197.506"/>
<polygon fill="midnightblue" stroke="midnightblue" points="1509.74,-225.969 1503.36,-234.428 1513.62,-231.793 1509.74,-225.969"/>
</g>
</g>
</svg>
        <g id="navigator" transform="translate(0 0)" fill="#404254">
                <rect fill="#f2f5e9" fill-opacity="0.5" stroke="#606060" stroke-width=".5" x="0" y="0" width="60" height="60"/>
                <use id="zoomplus" xlink:href="#zoomPlus" x="17" y="9" onmousedown="handleZoom(evt,'in')"/>
                <use id="zoomminus" xlink:href="#zoomMin" x="42" y="9" onmousedown="handleZoom(evt,'out')"/>
                <use id="reset" xlink:href="#resetDef" x="30" y="36" onmousedown="handleReset()"/>
                <g id="arrowUp" xlink:href="#dirArrow" transform="translate(30 24)" onmousedown="handlePan(0,-1)">
                  <use xlink:href="#rim" fill="#404040">
                        <set attributeName="fill" to="#808080" begin="arrowUp.mouseover" end="arrowUp.mouseout"/>
                  </use>
                  <path fill="none" stroke="white" stroke-width="1.5" d="M0,-3.0v7 M-2.5,-0.5L0,-3.0L2.5,-0.5"/>
                </g>
                <g id="arrowRight" xlink:href="#dirArrow" transform="rotate(90) translate(36 -43)" onmousedown="handlePan(1,0)">
                  <use xlink:href="#rim" fill="#404040">
                        <set attributeName="fill" to="#808080" begin="arrowRight.mouseover" end="arrowRight.mouseout"/>
                  </use>
                  <path fill="none" stroke="white" stroke-width="1.5" d="M0,-3.0v7 M-2.5,-0.5L0,-3.0L2.5,-0.5"/>
                </g>
                <g id="arrowDown" xlink:href="#dirArrow" transform="rotate(180) translate(-30 -48)" onmousedown="handlePan(0,1)">
                  <use xlink:href="#rim" fill="#404040">
                        <set attributeName="fill" to="#808080" begin="arrowDown.mouseover" end="arrowDown.mouseout"/>
                  </use>
                  <path fill="none" stroke="white" stroke-width="1.5" d="M0,-3.0v7 M-2.5,-0.5L0,-3.0L2.5,-0.5"/>
                </g>
                <g id="arrowLeft" xlink:href="#dirArrow" transform="rotate(270) translate(-36 17)" onmousedown="handlePan(-1,0)">
                  <use xlink:href="#rim" fill="#404040">
                        <set attributeName="fill" to="#808080" begin="arrowLeft.mouseover" end="arrowLeft.mouseout"/>
                  </use>
                  <path fill="none" stroke="white" stroke-width="1.5" d="M0,-3.0v7 M-2.5,-0.5L0,-3.0L2.5,-0.5"/>
                </g>
        </g>
        <svg viewBox="0 0 15 15" width="100%" height="30px" preserveAspectRatio="xMaxYMin meet">
         <g id="arrow_out" transform="scale(0.3 0.3)">
          <a xlink:href="section_8hpp__dep__incl_org.svg" target="_base">
           <rect id="button" ry="5" rx="5" y="6" x="6" height="38" width="38"
                fill="#f2f5e9" fill-opacity="0.5" stroke="#606060" stroke-width="1.0"/>
           <path id="arrow"
             d="M 11.500037,31.436501 C 11.940474,20.09759 22.043105,11.32322 32.158766,21.979434 L 37.068811,17.246167 C 37.068811,17.246167 37.088388,32 37.088388,32 L 22.160133,31.978069 C 22.160133,31.978069 26.997745,27.140456 26.997745,27.140456 C 18.528582,18.264221 13.291696,25.230495 11.500037,31.436501 z"
             style="fill:#404040;"/>
          </a>
         </g>
        </svg>
</svg>
