<?xml version="1.0" encoding="UTF-8" standalone="no"?>
<!DOCTYPE svg PUBLIC "-//W3C//DTD SVG 1.1//EN"
 "http://www.w3.org/Graphics/SVG/1.1/DTD/svg11.dtd">
<!-- Generated by graphviz version 2.38.0 (20140413.2041)
 -->
<!-- Title: /home/travis/build/PO&#45;31/QtReports/qtreports/src/tags/section.cpp Pages: 1 -->
<!--zoomable 722 -->
<svg id="main" version="1.1" xmlns="http://www.w3.org/2000/svg" xmlns:xlink="http://www.w3.org/1999/xlink" xml:space="preserve" onload="init(evt)">
<style type="text/css"><![CDATA[
.edge:hover path { stroke: red; }
.edge:hover polygon { stroke: red; fill: red; }
]]></style>
<script type="text/javascript"><![CDATA[
var edges = document.getElementsByTagName('g');
if (edges && edges.length) {
  for (var i=0;i<edges.length;i++) {
    if (edges[i].id.substr(0,4)=='edge') {
      edges[i].setAttribute('class','edge');
    }
  }
}
]]></script>
        <defs>
                <circle id="rim" cx="0" cy="0" r="7"/>
                <circle id="rim2" cx="0" cy="0" r="3.5"/>
                <g id="zoomPlus">
                        <use xlink:href="#rim" fill="#404040">
                                <set attributeName="fill" to="#808080" begin="zoomplus.mouseover" end="zoomplus.mouseout"/>
                        </use>
                        <path d="M-4,0h8M0,-4v8" fill="none" stroke="white" stroke-width="1.5" pointer-events="none"/>
                </g>
                <g id="zoomMin">
                        <use xlink:href="#rim" fill="#404040">
                                <set attributeName="fill" to="#808080" begin="zoomminus.mouseover" end="zoomminus.mouseout"/>
                        </use>
                        <path d="M-4,0h8" fill="none" stroke="white" stroke-width="1.5" pointer-events="none"/>
                </g>
                <g id="dirArrow">
                        <path fill="none" stroke="white" stroke-width="1.5" d="M0,-3.0v7 M-2.5,-0.5L0,-3.0L2.5,-0.5"/>
                </g>
               <g id="resetDef">
                       <use xlink:href="#rim2" fill="#404040">
                               <set attributeName="fill" to="#808080" begin="reset.mouseover" end="reset.mouseout"/>
                       </use>
               </g>
        </defs>

<script type="text/javascript">
var viewWidth = 939;
var viewHeight = 722;
var sectionId = 'dynsection-0';
</script>
<script xlink:href="svgpan.js"/>
<svg id="graph" class="graph">
<g id="viewport">
<title>/home/travis/build/PO&#45;31/QtReports/qtreports/src/tags/section.cpp</title>
<!-- Node1 -->
<g id="node1" class="node"><title>Node1</title>
<polygon fill="#bfbfbf" stroke="black" points="374,-672.5 374,-713.5 520,-713.5 520,-672.5 374,-672.5"/>
<text text-anchor="start" x="382" y="-701.5" font-family="Helvetica,sans-Serif" font-size="10.00">/home/travis/build</text>
<text text-anchor="start" x="382" y="-690.5" font-family="Helvetica,sans-Serif" font-size="10.00">/PO&#45;31/QtReports/qtreports</text>
<text text-anchor="middle" x="447" y="-679.5" font-family="Helvetica,sans-Serif" font-size="10.00">/src/tags/section.cpp</text>
</g>
<!-- Node2 -->
<g id="node2" class="node"><title>Node2</title>
<g id="a_node2"><a xlink:href="section_8hpp.html" target="_top" xlink:title="section.hpp">
<polygon fill="none" stroke="black" points="411,-616.5 411,-635.5 483,-635.5 483,-616.5 411,-616.5"/>
<text text-anchor="middle" x="447" y="-623.5" font-family="Helvetica,sans-Serif" font-size="10.00">section.hpp</text>
</a>
</g>
</g>
<!-- Node1&#45;&gt;Node2 -->
<g id="edge1" class="edge"><title>Node1&#45;&gt;Node2</title>
<path fill="none" stroke="midnightblue" d="M447,-672.498C447,-664.065 447,-654.235 447,-645.874"/>
<polygon fill="midnightblue" stroke="midnightblue" points="450.5,-645.652 447,-635.652 443.5,-645.653 450.5,-645.652"/>
</g>
<!-- Node3 -->
<g id="node3" class="node"><title>Node3</title>
<polygon fill="none" stroke="#bfbfbf" points="244.5,-504.5 244.5,-523.5 299.5,-523.5 299.5,-504.5 244.5,-504.5"/>
<text text-anchor="middle" x="272" y="-511.5" font-family="Helvetica,sans-Serif" font-size="10.00">QVector</text>
</g>
<!-- Node2&#45;&gt;Node3 -->
<g id="edge2" class="edge"><title>Node2&#45;&gt;Node3</title>
<path fill="none" stroke="midnightblue" d="M433.268,-616.368C403.11,-597.412 330.865,-552.001 294.181,-528.942"/>
<polygon fill="midnightblue" stroke="midnightblue" points="295.997,-525.95 285.668,-523.591 292.272,-531.876 295.997,-525.95"/>
</g>
<!-- Node4 -->
<g id="node4" class="node"><title>Node4</title>
<polygon fill="none" stroke="#bfbfbf" points="659,-0.5 659,-19.5 751,-19.5 751,-0.5 659,-0.5"/>
<text text-anchor="middle" x="705" y="-7.5" font-family="Helvetica,sans-Serif" font-size="10.00">QSharedPointer</text>
</g>
<!-- Node2&#45;&gt;Node4 -->
<g id="edge3" class="edge"><title>Node2&#45;&gt;Node4</title>
<path fill="none" stroke="midnightblue" d="M483.379,-624.5C595.938,-621.98 931,-606.772 931,-515 931,-515 931,-515 931,-121 931,-45.5626 827.939,-21.8476 761.01,-14.4005"/>
<polygon fill="midnightblue" stroke="midnightblue" points="761.311,-10.9131 751.007,-13.3774 760.599,-17.8768 761.311,-10.9131"/>
</g>
<!-- Node5 -->
<g id="node5" class="node"><title>Node5</title>
<g id="a_node5"><a xlink:href="object_8hpp.html" target="_top" xlink:title="object.hpp">
<polygon fill="none" stroke="black" points="56.5,-56.5 56.5,-75.5 123.5,-75.5 123.5,-56.5 56.5,-56.5"/>
<text text-anchor="middle" x="90" y="-63.5" font-family="Helvetica,sans-Serif" font-size="10.00">object.hpp</text>
</a>
</g>
</g>
<!-- Node2&#45;&gt;Node5 -->
<g id="edge4" class="edge"><title>Node2&#45;&gt;Node5</title>
<path fill="none" stroke="midnightblue" d="M410.799,-623.83C304.383,-619.416 0,-599.415 0,-515 0,-515 0,-515 0,-177 0,-134.658 40.4394,-99.6551 67.1037,-81.1778"/>
<polygon fill="midnightblue" stroke="midnightblue" points="69.1576,-84.0152 75.5399,-75.5584 65.2769,-78.1893 69.1576,-84.0152"/>
</g>
<!-- Node8 -->
<g id="node8" class="node"><title>Node8</title>
<g id="a_node8"><a xlink:href="band_8hpp.html" target="_top" xlink:title="band.hpp">
<polygon fill="none" stroke="black" points="494,-560.5 494,-579.5 556,-579.5 556,-560.5 494,-560.5"/>
<text text-anchor="middle" x="525" y="-567.5" font-family="Helvetica,sans-Serif" font-size="10.00">band.hpp</text>
</a>
</g>
</g>
<!-- Node2&#45;&gt;Node8 -->
<g id="edge8" class="edge"><title>Node2&#45;&gt;Node8</title>
<path fill="none" stroke="midnightblue" d="M459.532,-616.324C471.586,-607.979 490.027,-595.212 504.269,-585.352"/>
<polygon fill="midnightblue" stroke="midnightblue" points="506.269,-588.224 512.499,-579.655 502.285,-582.469 506.269,-588.224"/>
</g>
<!-- Node5&#45;&gt;Node4 -->
<g id="edge7" class="edge"><title>Node5&#45;&gt;Node4</title>
<path fill="none" stroke="midnightblue" d="M123.502,-62.0584C223.949,-53.2386 523.382,-26.9469 648.781,-15.9363"/>
<polygon fill="midnightblue" stroke="midnightblue" points="649.281,-19.406 658.936,-15.0446 648.668,-12.4328 649.281,-19.406"/>
</g>
<!-- Node6 -->
<g id="node6" class="node"><title>Node6</title>
<polygon fill="none" stroke="#bfbfbf" points="201.5,-0.5 201.5,-19.5 254.5,-19.5 254.5,-0.5 201.5,-0.5"/>
<text text-anchor="middle" x="228" y="-7.5" font-family="Helvetica,sans-Serif" font-size="10.00">QString</text>
</g>
<!-- Node5&#45;&gt;Node6 -->
<g id="edge5" class="edge"><title>Node5&#45;&gt;Node6</title>
<path fill="none" stroke="midnightblue" d="M111.867,-56.4435C134.779,-47.4776 170.975,-33.314 196.866,-23.1827"/>
<polygon fill="midnightblue" stroke="midnightblue" points="198.199,-26.4198 206.236,-19.5164 195.648,-19.9011 198.199,-26.4198"/>
</g>
<!-- Node7 -->
<g id="node7" class="node"><title>Node7</title>
<polygon fill="none" stroke="#bfbfbf" points="61,-0.5 61,-19.5 119,-19.5 119,-0.5 61,-0.5"/>
<text text-anchor="middle" x="90" y="-7.5" font-family="Helvetica,sans-Serif" font-size="10.00">QVariant</text>
</g>
<!-- Node5&#45;&gt;Node7 -->
<g id="edge6" class="edge"><title>Node5&#45;&gt;Node7</title>
<path fill="none" stroke="midnightblue" d="M90,-56.083C90,-49.0059 90,-38.8611 90,-29.9865"/>
<polygon fill="midnightblue" stroke="midnightblue" points="93.5001,-29.751 90,-19.7511 86.5001,-29.7511 93.5001,-29.751"/>
</g>
<!-- Node8&#45;&gt;Node3 -->
<g id="edge9" class="edge"><title>Node8&#45;&gt;Node3</title>
<path fill="none" stroke="midnightblue" d="M493.65,-562.913C453.282,-554.985 380.723,-540.431 309.865,-524.365"/>
<polygon fill="midnightblue" stroke="midnightblue" points="310.409,-520.899 299.881,-522.089 308.853,-527.724 310.409,-520.899"/>
</g>
<!-- Node8&#45;&gt;Node4 -->
<g id="edge10" class="edge"><title>Node8&#45;&gt;Node4</title>
<path fill="none" stroke="midnightblue" d="M556.058,-566.433C644.778,-558.252 893,-529.099 893,-459 893,-459 893,-459 893,-121 893,-59.4127 816.911,-31.6668 761.546,-19.6298"/>
<polygon fill="midnightblue" stroke="midnightblue" points="761.972,-16.1443 751.472,-17.5604 760.563,-23.0011 761.972,-16.1443"/>
</g>
<!-- Node9 -->
<g id="node9" class="node"><title>Node9</title>
<g id="a_node9"><a xlink:href="statictext_8hpp.html" target="_top" xlink:title="statictext.hpp">
<polygon fill="none" stroke="black" points="577.5,-280.5 577.5,-299.5 660.5,-299.5 660.5,-280.5 577.5,-280.5"/>
<text text-anchor="middle" x="619" y="-287.5" font-family="Helvetica,sans-Serif" font-size="10.00">statictext.hpp</text>
</a>
</g>
</g>
<!-- Node8&#45;&gt;Node9 -->
<g id="edge11" class="edge"><title>Node8&#45;&gt;Node9</title>
<path fill="none" stroke="midnightblue" d="M534.739,-560.372C553.098,-543.099 591,-502.206 591,-459 591,-459 591,-459 591,-401 591,-367.79 603.134,-330.634 611.427,-309.12"/>
<polygon fill="midnightblue" stroke="midnightblue" points="614.751,-310.233 615.224,-299.649 608.254,-307.628 614.751,-310.233"/>
</g>
<!-- Node11 -->
<g id="node11" class="node"><title>Node11</title>
<g id="a_node11"><a xlink:href="widget_8hpp.html" target="_top" xlink:title="widget.hpp">
<polygon fill="none" stroke="black" points="429,-168.5 429,-187.5 497,-187.5 497,-168.5 429,-168.5"/>
<text text-anchor="middle" x="463" y="-175.5" font-family="Helvetica,sans-Serif" font-size="10.00">widget.hpp</text>
</a>
</g>
</g>
<!-- Node8&#45;&gt;Node11 -->
<g id="edge45" class="edge"><title>Node8&#45;&gt;Node11</title>
<path fill="none" stroke="midnightblue" d="M515.852,-560.253C498.605,-542.77 463,-501.528 463,-459 463,-459 463,-459 463,-289 463,-256.948 463,-219.643 463,-197.749"/>
<polygon fill="midnightblue" stroke="midnightblue" points="466.5,-197.558 463,-187.558 459.5,-197.558 466.5,-197.558"/>
</g>
<!-- Node17 -->
<g id="node17" class="node"><title>Node17</title>
<g id="a_node17"><a xlink:href="textfield_8hpp.html" target="_top" xlink:title="textfield.hpp">
<polygon fill="none" stroke="black" points="228,-280.5 228,-299.5 304,-299.5 304,-280.5 228,-280.5"/>
<text text-anchor="middle" x="266" y="-287.5" font-family="Helvetica,sans-Serif" font-size="10.00">textfield.hpp</text>
</a>
</g>
</g>
<!-- Node8&#45;&gt;Node17 -->
<g id="edge28" class="edge"><title>Node8&#45;&gt;Node17</title>
<path fill="none" stroke="midnightblue" d="M506.24,-560.362C490.033,-552.348 466.526,-539.365 449,-524 370.584,-455.251 301.593,-349.253 276.283,-308.128"/>
<polygon fill="midnightblue" stroke="midnightblue" points="279.245,-306.263 271.055,-299.541 273.265,-309.903 279.245,-306.263"/>
</g>
<!-- Node18 -->
<g id="node18" class="node"><title>Node18</title>
<g id="a_node18"><a xlink:href="line_8hpp.html" target="_top" xlink:title="line.hpp">
<polygon fill="none" stroke="black" points="811,-224.5 811,-243.5 865,-243.5 865,-224.5 811,-224.5"/>
<text text-anchor="middle" x="838" y="-231.5" font-family="Helvetica,sans-Serif" font-size="10.00">line.hpp</text>
</a>
</g>
</g>
<!-- Node8&#45;&gt;Node18 -->
<g id="edge32" class="edge"><title>Node8&#45;&gt;Node18</title>
<path fill="none" stroke="midnightblue" d="M556.219,-566.327C598.043,-561.849 673.845,-550.554 733,-524 777.686,-503.941 822,-507.982 822,-459 822,-459 822,-459 822,-345 822,-312.626 828.871,-275.445 833.607,-253.659"/>
<polygon fill="midnightblue" stroke="midnightblue" points="837.05,-254.303 835.842,-243.777 830.223,-252.759 837.05,-254.303"/>
</g>
<!-- Node19 -->
<g id="node19" class="node"><title>Node19</title>
<g id="a_node19"><a xlink:href="rect_8hpp.html" target="_top" xlink:title="rect.hpp">
<polygon fill="none" stroke="black" points="613,-224.5 613,-243.5 669,-243.5 669,-224.5 613,-224.5"/>
<text text-anchor="middle" x="641" y="-231.5" font-family="Helvetica,sans-Serif" font-size="10.00">rect.hpp</text>
</a>
</g>
</g>
<!-- Node8&#45;&gt;Node19 -->
<g id="edge35" class="edge"><title>Node8&#45;&gt;Node19</title>
<path fill="none" stroke="midnightblue" d="M556.233,-562.854C603.816,-551.468 689,-522.253 689,-459 689,-459 689,-459 689,-345 689,-309.585 667.841,-272.707 653.619,-251.92"/>
<polygon fill="midnightblue" stroke="midnightblue" points="656.324,-249.684 647.674,-243.565 650.62,-253.742 656.324,-249.684"/>
</g>
<!-- Node20 -->
<g id="node20" class="node"><title>Node20</title>
<g id="a_node20"><a xlink:href="ellipse_8hpp.html" target="_top" xlink:title="ellipse.hpp">
<polygon fill="none" stroke="black" points="725,-224.5 725,-243.5 793,-243.5 793,-224.5 725,-224.5"/>
<text text-anchor="middle" x="759" y="-231.5" font-family="Helvetica,sans-Serif" font-size="10.00">ellipse.hpp</text>
</a>
</g>
</g>
<!-- Node8&#45;&gt;Node20 -->
<g id="edge38" class="edge"><title>Node8&#45;&gt;Node20</title>
<path fill="none" stroke="midnightblue" d="M556.054,-567.461C616.697,-562.611 745,-542.484 745,-459 745,-459 745,-459 745,-345 745,-312.541 751.073,-275.121 755.219,-253.356"/>
<polygon fill="midnightblue" stroke="midnightblue" points="758.66,-254 757.17,-243.511 751.793,-252.64 758.66,-254"/>
</g>
<!-- Node21 -->
<g id="node21" class="node"><title>Node21</title>
<g id="a_node21"><a xlink:href="image_8hpp.html" target="_top" xlink:title="image.hpp">
<polygon fill="none" stroke="black" points="491,-280.5 491,-299.5 559,-299.5 559,-280.5 491,-280.5"/>
<text text-anchor="middle" x="525" y="-287.5" font-family="Helvetica,sans-Serif" font-size="10.00">image.hpp</text>
</a>
</g>
</g>
<!-- Node8&#45;&gt;Node21 -->
<g id="edge41" class="edge"><title>Node8&#45;&gt;Node21</title>
<path fill="none" stroke="midnightblue" d="M525,-560.442C525,-541.936 525,-496.812 525,-459 525,-459 525,-459 525,-401 525,-368.948 525,-331.643 525,-309.749"/>
<polygon fill="midnightblue" stroke="midnightblue" points="528.5,-309.558 525,-299.558 521.5,-309.558 528.5,-309.558"/>
</g>
<!-- Node23 -->
<g id="node23" class="node"><title>Node23</title>
<g id="a_node23"><a xlink:href="crosstab_8hpp.html" target="_top" xlink:title="crosstab.hpp">
<polygon fill="none" stroke="black" points="317.5,-504.5 317.5,-523.5 396.5,-523.5 396.5,-504.5 317.5,-504.5"/>
<text text-anchor="middle" x="357" y="-511.5" font-family="Helvetica,sans-Serif" font-size="10.00">crosstab.hpp</text>
</a>
</g>
</g>
<!-- Node8&#45;&gt;Node23 -->
<g id="edge46" class="edge"><title>Node8&#45;&gt;Node23</title>
<path fill="none" stroke="midnightblue" d="M498.38,-560.444C469.994,-551.32 424.863,-536.813 393.247,-526.651"/>
<polygon fill="midnightblue" stroke="midnightblue" points="394.087,-523.244 383.496,-523.516 391.945,-529.909 394.087,-523.244"/>
</g>
<!-- Node9&#45;&gt;Node4 -->
<g id="edge12" class="edge"><title>Node9&#45;&gt;Node4</title>
<path fill="none" stroke="midnightblue" d="M634.905,-280.471C648.16,-272.614 666.648,-259.796 678,-244 708.677,-201.315 704.687,-183.333 716,-132 723.292,-98.9111 728.086,-89.3318 722,-56 720.312,-46.7575 716.825,-36.9479 713.446,-28.8546"/>
<polygon fill="midnightblue" stroke="midnightblue" points="716.631,-27.4045 709.366,-19.6928 710.237,-30.2518 716.631,-27.4045"/>
</g>
<!-- Node10 -->
<g id="node10" class="node"><title>Node10</title>
<g id="a_node10"><a xlink:href="textwidget_8hpp.html" target="_top" xlink:title="textwidget.hpp">
<polygon fill="none" stroke="black" points="299.5,-224.5 299.5,-243.5 386.5,-243.5 386.5,-224.5 299.5,-224.5"/>
<text text-anchor="middle" x="343" y="-231.5" font-family="Helvetica,sans-Serif" font-size="10.00">textwidget.hpp</text>
</a>
</g>
</g>
<!-- Node9&#45;&gt;Node10 -->
<g id="edge13" class="edge"><title>Node9&#45;&gt;Node10</title>
<path fill="none" stroke="midnightblue" d="M577.381,-280.857C529.138,-271.418 449.508,-255.839 396.655,-245.498"/>
<polygon fill="midnightblue" stroke="midnightblue" points="397.271,-242.052 386.785,-243.567 395.927,-248.922 397.271,-242.052"/>
</g>
<!-- Node10&#45;&gt;Node4 -->
<g id="edge15" class="edge"><title>Node10&#45;&gt;Node4</title>
<path fill="none" stroke="midnightblue" d="M342.355,-224.096C340.704,-193.571 340.027,-92.998 399,-56 439.51,-30.585 571.789,-18.7514 648.521,-13.9037"/>
<polygon fill="midnightblue" stroke="midnightblue" points="649.196,-17.369 658.964,-13.2653 648.769,-10.382 649.196,-17.369"/>
</g>
<!-- Node10&#45;&gt;Node6 -->
<g id="edge14" class="edge"><title>Node10&#45;&gt;Node6</title>
<path fill="none" stroke="midnightblue" d="M337.324,-224.433C322.12,-201.243 279.748,-135.017 252,-76 244.802,-60.6913 238.27,-42.5876 233.844,-29.379"/>
<polygon fill="midnightblue" stroke="midnightblue" points="237.084,-28.0242 230.654,-19.6038 230.43,-30.1963 237.084,-28.0242"/>
</g>
<!-- Node10&#45;&gt;Node11 -->
<g id="edge16" class="edge"><title>Node10&#45;&gt;Node11</title>
<path fill="none" stroke="midnightblue" d="M362.014,-224.444C381.588,-215.636 412.308,-201.812 434.729,-191.722"/>
<polygon fill="midnightblue" stroke="midnightblue" points="436.392,-194.812 444.075,-187.516 433.519,-188.428 436.392,-194.812"/>
</g>
<!-- Node11&#45;&gt;Node4 -->
<g id="edge21" class="edge"><title>Node11&#45;&gt;Node4</title>
<path fill="none" stroke="midnightblue" d="M462.518,-168.377C462.228,-154.847 463.595,-128.476 477,-112 520.122,-58.9971 596.734,-32.9591 649.152,-20.7835"/>
<polygon fill="midnightblue" stroke="midnightblue" points="649.969,-24.1874 658.97,-18.5986 648.448,-17.3546 649.969,-24.1874"/>
</g>
<!-- Node11&#45;&gt;Node5 -->
<g id="edge27" class="edge"><title>Node11&#45;&gt;Node5</title>
<path fill="none" stroke="midnightblue" d="M428.697,-168.719C393.672,-160.114 337.81,-145.974 290,-132 231.365,-114.862 163.939,-92.3598 124.263,-78.8262"/>
<polygon fill="midnightblue" stroke="midnightblue" points="125.39,-75.5128 114.796,-75.5874 123.124,-82.1359 125.39,-75.5128"/>
</g>
<!-- Node11&#45;&gt;Node6 -->
<g id="edge17" class="edge"><title>Node11&#45;&gt;Node6</title>
<path fill="none" stroke="midnightblue" d="M437.535,-168.388C416.171,-160.562 385.335,-147.834 361,-132 313.044,-100.797 265.583,-52.2517 242.49,-27.1901"/>
<polygon fill="midnightblue" stroke="midnightblue" points="244.946,-24.6894 235.626,-19.6502 239.77,-29.4014 244.946,-24.6894"/>
</g>
<!-- Node12 -->
<g id="node12" class="node"><title>Node12</title>
<polygon fill="none" stroke="#bfbfbf" points="486,-112.5 486,-131.5 534,-131.5 534,-112.5 486,-112.5"/>
<text text-anchor="middle" x="510" y="-119.5" font-family="Helvetica,sans-Serif" font-size="10.00">QPoint</text>
</g>
<!-- Node11&#45;&gt;Node12 -->
<g id="edge18" class="edge"><title>Node11&#45;&gt;Node12</title>
<path fill="none" stroke="midnightblue" d="M470.761,-168.083C477.537,-160.298 487.543,-148.801 495.755,-139.367"/>
<polygon fill="midnightblue" stroke="midnightblue" points="498.458,-141.592 502.383,-131.751 493.178,-136.996 498.458,-141.592"/>
</g>
<!-- Node13 -->
<g id="node13" class="node"><title>Node13</title>
<polygon fill="none" stroke="#bfbfbf" points="552,-112.5 552,-131.5 596,-131.5 596,-112.5 552,-112.5"/>
<text text-anchor="middle" x="574" y="-119.5" font-family="Helvetica,sans-Serif" font-size="10.00">QSize</text>
</g>
<!-- Node11&#45;&gt;Node13 -->
<g id="edge19" class="edge"><title>Node11&#45;&gt;Node13</title>
<path fill="none" stroke="midnightblue" d="M480.834,-168.324C498.716,-159.625 526.475,-146.12 547.046,-136.113"/>
<polygon fill="midnightblue" stroke="midnightblue" points="548.749,-139.177 556.21,-131.655 545.687,-132.882 548.749,-139.177"/>
</g>
<!-- Node14 -->
<g id="node14" class="node"><title>Node14</title>
<polygon fill="none" stroke="#bfbfbf" points="614,-112.5 614,-131.5 658,-131.5 658,-112.5 614,-112.5"/>
<text text-anchor="middle" x="636" y="-119.5" font-family="Helvetica,sans-Serif" font-size="10.00">QRect</text>
</g>
<!-- Node11&#45;&gt;Node14 -->
<g id="edge20" class="edge"><title>Node11&#45;&gt;Node14</title>
<path fill="none" stroke="midnightblue" d="M490.412,-168.444C521.276,-158.81 571.365,-143.175 603.996,-132.99"/>
<polygon fill="midnightblue" stroke="midnightblue" points="605.428,-136.209 613.931,-129.889 603.342,-129.527 605.428,-136.209"/>
</g>
<!-- Node15 -->
<g id="node15" class="node"><title>Node15</title>
<g id="a_node15"><a xlink:href="style_8hpp.html" target="_top" xlink:title="style.hpp">
<polygon fill="none" stroke="black" points="370,-112.5 370,-131.5 430,-131.5 430,-112.5 370,-112.5"/>
<text text-anchor="middle" x="400" y="-119.5" font-family="Helvetica,sans-Serif" font-size="10.00">style.hpp</text>
</a>
</g>
</g>
<!-- Node11&#45;&gt;Node15 -->
<g id="edge22" class="edge"><title>Node11&#45;&gt;Node15</title>
<path fill="none" stroke="midnightblue" d="M452.878,-168.324C443.474,-160.263 429.256,-148.077 417.931,-138.369"/>
<polygon fill="midnightblue" stroke="midnightblue" points="420.177,-135.684 410.306,-131.834 415.621,-140.999 420.177,-135.684"/>
</g>
<!-- Node15&#45;&gt;Node4 -->
<g id="edge25" class="edge"><title>Node15&#45;&gt;Node4</title>
<path fill="none" stroke="midnightblue" d="M411.897,-112.289C431.418,-98.3936 471.894,-71.2311 510,-56 555.112,-37.9686 609.119,-26.2096 648.846,-19.2504"/>
<polygon fill="midnightblue" stroke="midnightblue" points="649.61,-22.6708 658.88,-17.5412 648.435,-15.7701 649.61,-22.6708"/>
</g>
<!-- Node15&#45;&gt;Node5 -->
<g id="edge26" class="edge"><title>Node15&#45;&gt;Node5</title>
<path fill="none" stroke="midnightblue" d="M369.994,-115.773C315.01,-106.195 197.891,-85.7939 133.928,-74.652"/>
<polygon fill="midnightblue" stroke="midnightblue" points="134.212,-71.1488 123.76,-72.8807 133.011,-78.045 134.212,-71.1488"/>
</g>
<!-- Node15&#45;&gt;Node6 -->
<g id="edge23" class="edge"><title>Node15&#45;&gt;Node6</title>
<path fill="none" stroke="midnightblue" d="M390.397,-112.297C375.569,-99.1187 345.89,-73.7568 318,-56 298.604,-43.6507 275.361,-32.1042 257.354,-23.7997"/>
<polygon fill="midnightblue" stroke="midnightblue" points="258.5,-20.4762 247.947,-19.535 255.609,-26.8517 258.5,-20.4762"/>
</g>
<!-- Node16 -->
<g id="node16" class="node"><title>Node16</title>
<polygon fill="none" stroke="#bfbfbf" points="408.5,-56.5 408.5,-75.5 457.5,-75.5 457.5,-56.5 408.5,-56.5"/>
<text text-anchor="middle" x="433" y="-63.5" font-family="Helvetica,sans-Serif" font-size="10.00">QColor</text>
</g>
<!-- Node15&#45;&gt;Node16 -->
<g id="edge24" class="edge"><title>Node15&#45;&gt;Node16</title>
<path fill="none" stroke="midnightblue" d="M405.449,-112.083C410.014,-104.613 416.668,-93.7244 422.293,-84.5199"/>
<polygon fill="midnightblue" stroke="midnightblue" points="425.424,-86.109 427.652,-75.7511 419.451,-82.4588 425.424,-86.109"/>
</g>
<!-- Node17&#45;&gt;Node4 -->
<g id="edge30" class="edge"><title>Node17&#45;&gt;Node4</title>
<path fill="none" stroke="midnightblue" d="M266,-280.442C266,-261.936 266,-216.812 266,-179 266,-179 266,-179 266,-121 266,-43.0144 529.964,-19.8315 648.523,-13.3521"/>
<polygon fill="midnightblue" stroke="midnightblue" points="649.046,-16.8295 658.849,-12.81 648.679,-9.83913 649.046,-16.8295"/>
</g>
<!-- Node17&#45;&gt;Node6 -->
<g id="edge29" class="edge"><title>Node17&#45;&gt;Node6</title>
<path fill="none" stroke="midnightblue" d="M262.679,-280.172C259.44,-271.196 254.628,-256.824 252,-244 235.876,-165.319 230.346,-69.3586 228.661,-29.6125"/>
<polygon fill="midnightblue" stroke="midnightblue" points="232.156,-29.4118 228.268,-19.5562 225.161,-29.6854 232.156,-29.4118"/>
</g>
<!-- Node17&#45;&gt;Node10 -->
<g id="edge31" class="edge"><title>Node17&#45;&gt;Node10</title>
<path fill="none" stroke="midnightblue" d="M278.371,-280.324C290.158,-272.058 308.132,-259.453 322.136,-249.632"/>
<polygon fill="midnightblue" stroke="midnightblue" points="324.482,-252.262 330.659,-243.655 320.462,-246.531 324.482,-252.262"/>
</g>
<!-- Node18&#45;&gt;Node4 -->
<g id="edge33" class="edge"><title>Node18&#45;&gt;Node4</title>
<path fill="none" stroke="midnightblue" d="M838.252,-224.16C838.586,-196.248 836.049,-108.733 794,-56 781.908,-40.8362 763.358,-30.3269 746.317,-23.3021"/>
<polygon fill="midnightblue" stroke="midnightblue" points="747.109,-19.8579 736.518,-19.5598 744.611,-26.3972 747.109,-19.8579"/>
</g>
<!-- Node18&#45;&gt;Node11 -->
<g id="edge34" class="edge"><title>Node18&#45;&gt;Node11</title>
<path fill="none" stroke="midnightblue" d="M810.946,-225.888C807.938,-225.202 804.911,-224.555 802,-224 697.313,-204.032 572.76,-189.942 507.673,-183.304"/>
<polygon fill="midnightblue" stroke="midnightblue" points="507.67,-179.786 497.369,-182.265 506.967,-186.751 507.67,-179.786"/>
</g>
<!-- Node19&#45;&gt;Node4 -->
<g id="edge36" class="edge"><title>Node19&#45;&gt;Node4</title>
<path fill="none" stroke="midnightblue" d="M647.959,-224.494C661.042,-207.918 688.981,-169.612 700,-132 710.211,-97.1477 708.919,-54.2394 706.998,-30.0141"/>
<polygon fill="midnightblue" stroke="midnightblue" points="710.454,-29.3767 706.052,-19.7396 703.484,-30.0184 710.454,-29.3767"/>
</g>
<!-- Node19&#45;&gt;Node11 -->
<g id="edge37" class="edge"><title>Node19&#45;&gt;Node11</title>
<path fill="none" stroke="midnightblue" d="M612.795,-224.444C582.59,-215.28 534.489,-200.688 500.971,-190.519"/>
<polygon fill="midnightblue" stroke="midnightblue" points="501.658,-187.07 491.073,-187.516 499.626,-193.769 501.658,-187.07"/>
</g>
<!-- Node20&#45;&gt;Node4 -->
<g id="edge39" class="edge"><title>Node20&#45;&gt;Node4</title>
<path fill="none" stroke="midnightblue" d="M763.13,-224.193C775.185,-197.096 807.545,-113.341 776,-56 768.113,-41.6632 753.514,-31.2525 739.597,-24.0792"/>
<polygon fill="midnightblue" stroke="midnightblue" points="740.698,-20.7285 730.161,-19.6217 737.708,-27.0578 740.698,-20.7285"/>
</g>
<!-- Node20&#45;&gt;Node11 -->
<g id="edge40" class="edge"><title>Node20&#45;&gt;Node11</title>
<path fill="none" stroke="midnightblue" d="M724.756,-226.753C670.953,-216.937 566.644,-197.908 507.234,-187.07"/>
<polygon fill="midnightblue" stroke="midnightblue" points="507.858,-183.626 497.392,-185.274 506.602,-190.512 507.858,-183.626"/>
</g>
<!-- Node21&#45;&gt;Node4 -->
<g id="edge43" class="edge"><title>Node21&#45;&gt;Node4</title>
<path fill="none" stroke="midnightblue" d="M535.587,-280.253C561.7,-258.132 629.761,-197.072 667,-132 686.158,-98.5239 696.89,-54.2064 701.757,-29.5584"/>
<polygon fill="midnightblue" stroke="midnightblue" points="705.198,-30.1995 703.59,-19.7273 698.316,-28.9165 705.198,-30.1995"/>
</g>
<!-- Node21&#45;&gt;Node10 -->
<g id="edge44" class="edge"><title>Node21&#45;&gt;Node10</title>
<path fill="none" stroke="midnightblue" d="M496.162,-280.444C465.144,-271.241 415.671,-256.562 381.382,-246.388"/>
<polygon fill="midnightblue" stroke="midnightblue" points="382.286,-243.006 371.704,-243.516 380.295,-249.716 382.286,-243.006"/>
</g>
<!-- Node22 -->
<g id="node22" class="node"><title>Node22</title>
<polygon fill="none" stroke="#bfbfbf" points="498,-224.5 498,-243.5 552,-243.5 552,-224.5 498,-224.5"/>
<text text-anchor="middle" x="525" y="-231.5" font-family="Helvetica,sans-Serif" font-size="10.00">QImage</text>
</g>
<!-- Node21&#45;&gt;Node22 -->
<g id="edge42" class="edge"><title>Node21&#45;&gt;Node22</title>
<path fill="none" stroke="midnightblue" d="M525,-280.083C525,-273.006 525,-262.861 525,-253.986"/>
<polygon fill="midnightblue" stroke="midnightblue" points="528.5,-253.751 525,-243.751 521.5,-253.751 528.5,-253.751"/>
</g>
<!-- Node23&#45;&gt;Node11 -->
<g id="edge47" class="edge"><title>Node23&#45;&gt;Node11</title>
<path fill="none" stroke="midnightblue" d="M359.727,-504.408C373.728,-460.292 437.64,-258.906 457.257,-197.095"/>
<polygon fill="midnightblue" stroke="midnightblue" points="460.602,-198.125 460.291,-187.535 453.93,-196.008 460.602,-198.125"/>
</g>
<!-- Node24 -->
<g id="node24" class="node"><title>Node24</title>
<g id="a_node24"><a xlink:href="crosstabgroup_8hpp.html" target="_top" xlink:title="crosstabgroup.hpp">
<polygon fill="none" stroke="black" points="125.5,-448.5 125.5,-467.5 232.5,-467.5 232.5,-448.5 125.5,-448.5"/>
<text text-anchor="middle" x="179" y="-455.5" font-family="Helvetica,sans-Serif" font-size="10.00">crosstabgroup.hpp</text>
</a>
</g>
</g>
<!-- Node23&#45;&gt;Node24 -->
<g id="edge48" class="edge"><title>Node23&#45;&gt;Node24</title>
<path fill="none" stroke="midnightblue" d="M328.795,-504.444C298.59,-495.28 250.489,-480.688 216.971,-470.519"/>
<polygon fill="midnightblue" stroke="midnightblue" points="217.658,-467.07 207.073,-467.516 215.626,-473.769 217.658,-467.07"/>
</g>
<!-- Node25 -->
<g id="node25" class="node"><title>Node25</title>
<g id="a_node25"><a xlink:href="crosstabsection_8hpp.html" target="_top" xlink:title="crosstabsection.hpp">
<polygon fill="none" stroke="black" points="122.5,-392.5 122.5,-411.5 235.5,-411.5 235.5,-392.5 122.5,-392.5"/>
<text text-anchor="middle" x="179" y="-399.5" font-family="Helvetica,sans-Serif" font-size="10.00">crosstabsection.hpp</text>
</a>
</g>
</g>
<!-- Node23&#45;&gt;Node25 -->
<g id="edge56" class="edge"><title>Node23&#45;&gt;Node25</title>
<path fill="none" stroke="midnightblue" d="M343.033,-504.368C312.358,-485.412 238.874,-440.001 201.561,-416.942"/>
<polygon fill="midnightblue" stroke="midnightblue" points="203.249,-413.871 192.902,-411.591 199.569,-419.826 203.249,-413.871"/>
</g>
<!-- Node24&#45;&gt;Node5 -->
<g id="edge49" class="edge"><title>Node24&#45;&gt;Node5</title>
<path fill="none" stroke="midnightblue" d="M149.098,-448.448C107.708,-434.564 38,-402.885 38,-347 38,-347 38,-347 38,-177 38,-141.119 60.894,-104.424 76.3004,-83.7932"/>
<polygon fill="midnightblue" stroke="midnightblue" points="79.1817,-85.7894 82.5497,-75.7441 73.6525,-81.4965 79.1817,-85.7894"/>
</g>
<!-- Node24&#45;&gt;Node25 -->
<g id="edge50" class="edge"><title>Node24&#45;&gt;Node25</title>
<path fill="none" stroke="midnightblue" d="M179,-448.083C179,-441.006 179,-430.861 179,-421.986"/>
<polygon fill="midnightblue" stroke="midnightblue" points="182.5,-421.751 179,-411.751 175.5,-421.751 182.5,-421.751"/>
</g>
<!-- Node25&#45;&gt;Node5 -->
<g id="edge51" class="edge"><title>Node25&#45;&gt;Node5</title>
<path fill="none" stroke="midnightblue" d="M161.059,-392.25C131.549,-376.453 76,-340.185 76,-291 76,-291 76,-291 76,-177 76,-144.541 82.0731,-107.121 86.2195,-85.3564"/>
<polygon fill="midnightblue" stroke="midnightblue" points="89.6598,-86.0003 88.1697,-75.5108 82.7933,-84.6401 89.6598,-86.0003"/>
</g>
<!-- Node26 -->
<g id="node26" class="node"><title>Node26</title>
<g id="a_node26"><a xlink:href="cellcontents_8hpp.html" target="_top" xlink:title="cellcontents.hpp">
<polygon fill="none" stroke="black" points="131.5,-336.5 131.5,-355.5 226.5,-355.5 226.5,-336.5 131.5,-336.5"/>
<text text-anchor="middle" x="179" y="-343.5" font-family="Helvetica,sans-Serif" font-size="10.00">cellcontents.hpp</text>
</a>
</g>
</g>
<!-- Node25&#45;&gt;Node26 -->
<g id="edge52" class="edge"><title>Node25&#45;&gt;Node26</title>
<path fill="none" stroke="midnightblue" d="M179,-392.083C179,-385.006 179,-374.861 179,-365.986"/>
<polygon fill="midnightblue" stroke="midnightblue" points="182.5,-365.751 179,-355.751 175.5,-365.751 182.5,-365.751"/>
</g>
<!-- Node26&#45;&gt;Node17 -->
<g id="edge55" class="edge"><title>Node26&#45;&gt;Node17</title>
<path fill="none" stroke="midnightblue" d="M192.978,-336.324C206.55,-327.9 227.38,-314.971 243.325,-305.074"/>
<polygon fill="midnightblue" stroke="midnightblue" points="245.406,-307.902 252.057,-299.655 241.714,-301.954 245.406,-307.902"/>
</g>
<!-- Node27 -->
<g id="node27" class="node"><title>Node27</title>
<g id="a_node27"><a xlink:href="box_8hpp.html" target="_top" xlink:title="box.hpp">
<polygon fill="none" stroke="black" points="104.5,-168.5 104.5,-187.5 159.5,-187.5 159.5,-168.5 104.5,-168.5"/>
<text text-anchor="middle" x="132" y="-175.5" font-family="Helvetica,sans-Serif" font-size="10.00">box.hpp</text>
</a>
</g>
</g>
<!-- Node26&#45;&gt;Node27 -->
<g id="edge53" class="edge"><title>Node26&#45;&gt;Node27</title>
<path fill="none" stroke="midnightblue" d="M176.473,-336.075C169.075,-309.945 147.349,-233.211 137.26,-197.577"/>
<polygon fill="midnightblue" stroke="midnightblue" points="140.518,-196.236 134.426,-187.568 133.783,-198.143 140.518,-196.236"/>
</g>
<!-- Node27&#45;&gt;Node5 -->
<g id="edge54" class="edge"><title>Node27&#45;&gt;Node5</title>
<path fill="none" stroke="midnightblue" d="M128.704,-168.368C121.865,-150.456 106.007,-108.923 96.8529,-84.9482"/>
<polygon fill="midnightblue" stroke="midnightblue" points="100.117,-83.6851 93.2804,-75.5914 93.5777,-86.1821 100.117,-83.6851"/>
</g>
</g>
</svg>
        <g id="navigator" transform="translate(0 0)" fill="#404254">
                <rect fill="#f2f5e9" fill-opacity="0.5" stroke="#606060" stroke-width=".5" x="0" y="0" width="60" height="60"/>
                <use id="zoomplus" xlink:href="#zoomPlus" x="17" y="9" onmousedown="handleZoom(evt,'in')"/>
                <use id="zoomminus" xlink:href="#zoomMin" x="42" y="9" onmousedown="handleZoom(evt,'out')"/>
                <use id="reset" xlink:href="#resetDef" x="30" y="36" onmousedown="handleReset()"/>
                <g id="arrowUp" xlink:href="#dirArrow" transform="translate(30 24)" onmousedown="handlePan(0,-1)">
                  <use xlink:href="#rim" fill="#404040">
                        <set attributeName="fill" to="#808080" begin="arrowUp.mouseover" end="arrowUp.mouseout"/>
                  </use>
                  <path fill="none" stroke="white" stroke-width="1.5" d="M0,-3.0v7 M-2.5,-0.5L0,-3.0L2.5,-0.5"/>
                </g>
                <g id="arrowRight" xlink:href="#dirArrow" transform="rotate(90) translate(36 -43)" onmousedown="handlePan(1,0)">
                  <use xlink:href="#rim" fill="#404040">
                        <set attributeName="fill" to="#808080" begin="arrowRight.mouseover" end="arrowRight.mouseout"/>
                  </use>
                  <path fill="none" stroke="white" stroke-width="1.5" d="M0,-3.0v7 M-2.5,-0.5L0,-3.0L2.5,-0.5"/>
                </g>
                <g id="arrowDown" xlink:href="#dirArrow" transform="rotate(180) translate(-30 -48)" onmousedown="handlePan(0,1)">
                  <use xlink:href="#rim" fill="#404040">
                        <set attributeName="fill" to="#808080" begin="arrowDown.mouseover" end="arrowDown.mouseout"/>
                  </use>
                  <path fill="none" stroke="white" stroke-width="1.5" d="M0,-3.0v7 M-2.5,-0.5L0,-3.0L2.5,-0.5"/>
                </g>
                <g id="arrowLeft" xlink:href="#dirArrow" transform="rotate(270) translate(-36 17)" onmousedown="handlePan(-1,0)">
                  <use xlink:href="#rim" fill="#404040">
                        <set attributeName="fill" to="#808080" begin="arrowLeft.mouseover" end="arrowLeft.mouseout"/>
                  </use>
                  <path fill="none" stroke="white" stroke-width="1.5" d="M0,-3.0v7 M-2.5,-0.5L0,-3.0L2.5,-0.5"/>
                </g>
        </g>
        <svg viewBox="0 0 15 15" width="100%" height="30px" preserveAspectRatio="xMaxYMin meet">
         <g id="arrow_out" transform="scale(0.3 0.3)">
          <a xlink:href="section_8cpp__incl_org.svg" target="_base">
           <rect id="button" ry="5" rx="5" y="6" x="6" height="38" width="38"
                fill="#f2f5e9" fill-opacity="0.5" stroke="#606060" stroke-width="1.0"/>
           <path id="arrow"
             d="M 11.500037,31.436501 C 11.940474,20.09759 22.043105,11.32322 32.158766,21.979434 L 37.068811,17.246167 C 37.068811,17.246167 37.088388,32 37.088388,32 L 22.160133,31.978069 C 22.160133,31.978069 26.997745,27.140456 26.997745,27.140456 C 18.528582,18.264221 13.291696,25.230495 11.500037,31.436501 z"
             style="fill:#404040;"/>
          </a>
         </g>
        </svg>
</svg>
