<?xml version="1.0" encoding="UTF-8" standalone="no"?>
<!DOCTYPE svg PUBLIC "-//W3C//DTD SVG 1.1//EN"
 "http://www.w3.org/Graphics/SVG/1.1/DTD/svg11.dtd">
<!-- Generated by graphviz version 2.38.0 (20140413.2041)
 -->
<!-- Title: /home/travis/build/PO&#45;31/QtReports/qtreports/src/tags/section.hpp Pages: 1 -->
<!--zoomable 442 -->
<svg id="main" version="1.1" xmlns="http://www.w3.org/2000/svg" xmlns:xlink="http://www.w3.org/1999/xlink" xml:space="preserve" onload="init(evt)">
<style type="text/css"><![CDATA[
.edge:hover path { stroke: red; }
.edge:hover polygon { stroke: red; fill: red; }
]]></style>
<script type="text/javascript"><![CDATA[
var edges = document.getElementsByTagName('g');
if (edges && edges.length) {
  for (var i=0;i<edges.length;i++) {
    if (edges[i].id.substr(0,4)=='edge') {
      edges[i].setAttribute('class','edge');
    }
  }
}
]]></script>
        <defs>
                <circle id="rim" cx="0" cy="0" r="7"/>
                <circle id="rim2" cx="0" cy="0" r="3.5"/>
                <g id="zoomPlus">
                        <use xlink:href="#rim" fill="#404040">
                                <set attributeName="fill" to="#808080" begin="zoomplus.mouseover" end="zoomplus.mouseout"/>
                        </use>
                        <path d="M-4,0h8M0,-4v8" fill="none" stroke="white" stroke-width="1.5" pointer-events="none"/>
                </g>
                <g id="zoomMin">
                        <use xlink:href="#rim" fill="#404040">
                                <set attributeName="fill" to="#808080" begin="zoomminus.mouseover" end="zoomminus.mouseout"/>
                        </use>
                        <path d="M-4,0h8" fill="none" stroke="white" stroke-width="1.5" pointer-events="none"/>
                </g>
                <g id="dirArrow">
                        <path fill="none" stroke="white" stroke-width="1.5" d="M0,-3.0v7 M-2.5,-0.5L0,-3.0L2.5,-0.5"/>
                </g>
               <g id="resetDef">
                       <use xlink:href="#rim2" fill="#404040">
                               <set attributeName="fill" to="#808080" begin="reset.mouseover" end="reset.mouseout"/>
                       </use>
               </g>
        </defs>

<script type="text/javascript">
var viewWidth = 810;
var viewHeight = 442;
var sectionId = 'dynsection-0';
</script>
<script xlink:href="svgpan.js"/>
<svg id="graph" class="graph">
<g id="viewport">
<title>/home/travis/build/PO&#45;31/QtReports/qtreports/src/tags/section.hpp</title>
<!-- Node1 -->
<g id="node1" class="node"><title>Node1</title>
<polygon fill="#bfbfbf" stroke="black" points="208,-392.5 208,-433.5 354,-433.5 354,-392.5 208,-392.5"/>
<text text-anchor="start" x="216" y="-421.5" font-family="Helvetica,sans-Serif" font-size="10.00">/home/travis/build</text>
<text text-anchor="start" x="216" y="-410.5" font-family="Helvetica,sans-Serif" font-size="10.00">/PO&#45;31/QtReports/qtreports</text>
<text text-anchor="middle" x="281" y="-399.5" font-family="Helvetica,sans-Serif" font-size="10.00">/src/tags/section.hpp</text>
</g>
<!-- Node2 -->
<g id="node2" class="node"><title>Node2</title>
<polygon fill="none" stroke="#bfbfbf" points="28.5,-280.5 28.5,-299.5 83.5,-299.5 83.5,-280.5 28.5,-280.5"/>
<text text-anchor="middle" x="56" y="-287.5" font-family="Helvetica,sans-Serif" font-size="10.00">QVector</text>
</g>
<!-- Node1&#45;&gt;Node2 -->
<g id="edge1" class="edge"><title>Node1&#45;&gt;Node2</title>
<path fill="none" stroke="midnightblue" d="M244.6,-392.425C198.639,-367.708 120.779,-325.836 81.0061,-304.448"/>
<polygon fill="midnightblue" stroke="midnightblue" points="82.4492,-301.25 71.9842,-299.596 79.1337,-307.415 82.4492,-301.25"/>
</g>
<!-- Node3 -->
<g id="node3" class="node"><title>Node3</title>
<polygon fill="none" stroke="#bfbfbf" points="524,-0.5 524,-19.5 616,-19.5 616,-0.5 524,-0.5"/>
<text text-anchor="middle" x="570" y="-7.5" font-family="Helvetica,sans-Serif" font-size="10.00">QSharedPointer</text>
</g>
<!-- Node1&#45;&gt;Node3 -->
<g id="edge2" class="edge"><title>Node1&#45;&gt;Node3</title>
<path fill="none" stroke="midnightblue" d="M354.266,-410.14C497.767,-404.498 802,-381.827 802,-291 802,-291 802,-291 802,-121 802,-43.5153 695.035,-20.5404 626.366,-13.7745"/>
<polygon fill="midnightblue" stroke="midnightblue" points="626.386,-10.2624 616.113,-12.8555 625.761,-17.2344 626.386,-10.2624"/>
</g>
<!-- Node4 -->
<g id="node4" class="node"><title>Node4</title>
<g id="a_node4"><a xlink:href="object_8hpp.html" target="_top" xlink:title="object.hpp">
<polygon fill="none" stroke="black" points="153.5,-56.5 153.5,-75.5 220.5,-75.5 220.5,-56.5 153.5,-56.5"/>
<text text-anchor="middle" x="187" y="-63.5" font-family="Helvetica,sans-Serif" font-size="10.00">object.hpp</text>
</a>
</g>
</g>
<!-- Node1&#45;&gt;Node4 -->
<g id="edge3" class="edge"><title>Node1&#45;&gt;Node4</title>
<path fill="none" stroke="midnightblue" d="M207.904,-410.83C124.645,-405.165 0,-381.562 0,-291 0,-291 0,-291 0,-233 0,-152.286 98.6393,-101.252 152.638,-79.361"/>
<polygon fill="midnightblue" stroke="midnightblue" points="154.143,-82.53 162.168,-75.612 151.581,-76.016 154.143,-82.53"/>
</g>
<!-- Node7 -->
<g id="node7" class="node"><title>Node7</title>
<g id="a_node7"><a xlink:href="band_8hpp.html" target="_top" xlink:title="band.hpp">
<polygon fill="none" stroke="black" points="345,-336.5 345,-355.5 407,-355.5 407,-336.5 345,-336.5"/>
<text text-anchor="middle" x="376" y="-343.5" font-family="Helvetica,sans-Serif" font-size="10.00">band.hpp</text>
</a>
</g>
</g>
<!-- Node1&#45;&gt;Node7 -->
<g id="edge7" class="edge"><title>Node1&#45;&gt;Node7</title>
<path fill="none" stroke="midnightblue" d="M309.503,-392.498C324.068,-382.532 341.487,-370.614 354.842,-361.476"/>
<polygon fill="midnightblue" stroke="midnightblue" points="357.077,-364.188 363.354,-355.652 353.125,-358.411 357.077,-364.188"/>
</g>
<!-- Node4&#45;&gt;Node3 -->
<g id="edge6" class="edge"><title>Node4&#45;&gt;Node3</title>
<path fill="none" stroke="midnightblue" d="M220.531,-58.4838C225.378,-57.6085 230.312,-56.7538 235,-56 332.617,-40.3028 446.85,-25.7756 513.543,-17.6777"/>
<polygon fill="midnightblue" stroke="midnightblue" points="514.321,-21.1092 523.829,-16.434 513.481,-14.1598 514.321,-21.1092"/>
</g>
<!-- Node5 -->
<g id="node5" class="node"><title>Node5</title>
<polygon fill="none" stroke="#bfbfbf" points="60.5,-0.5 60.5,-19.5 113.5,-19.5 113.5,-0.5 60.5,-0.5"/>
<text text-anchor="middle" x="87" y="-7.5" font-family="Helvetica,sans-Serif" font-size="10.00">QString</text>
</g>
<!-- Node4&#45;&gt;Node5 -->
<g id="edge4" class="edge"><title>Node4&#45;&gt;Node5</title>
<path fill="none" stroke="midnightblue" d="M170.933,-56.324C155.042,-47.7428 130.493,-34.486 112.042,-24.5224"/>
<polygon fill="midnightblue" stroke="midnightblue" points="113.489,-21.3264 103.027,-19.6545 110.163,-27.4857 113.489,-21.3264"/>
</g>
<!-- Node6 -->
<g id="node6" class="node"><title>Node6</title>
<polygon fill="none" stroke="#bfbfbf" points="158,-0.5 158,-19.5 216,-19.5 216,-0.5 158,-0.5"/>
<text text-anchor="middle" x="187" y="-7.5" font-family="Helvetica,sans-Serif" font-size="10.00">QVariant</text>
</g>
<!-- Node4&#45;&gt;Node6 -->
<g id="edge5" class="edge"><title>Node4&#45;&gt;Node6</title>
<path fill="none" stroke="midnightblue" d="M187,-56.083C187,-49.0059 187,-38.8611 187,-29.9865"/>
<polygon fill="midnightblue" stroke="midnightblue" points="190.5,-29.751 187,-19.7511 183.5,-29.7511 190.5,-29.751"/>
</g>
<!-- Node7&#45;&gt;Node2 -->
<g id="edge8" class="edge"><title>Node7&#45;&gt;Node2</title>
<path fill="none" stroke="midnightblue" d="M344.865,-340.889C294.326,-334.036 191.118,-319.287 93.8271,-300.025"/>
<polygon fill="midnightblue" stroke="midnightblue" points="94.3188,-296.554 83.8265,-298.024 92.9457,-303.418 94.3188,-296.554"/>
</g>
<!-- Node7&#45;&gt;Node3 -->
<g id="edge9" class="edge"><title>Node7&#45;&gt;Node3</title>
<path fill="none" stroke="midnightblue" d="M407.24,-343.484C479.219,-339.559 654.505,-327.393 706,-300 740.182,-281.816 764,-273.718 764,-235 764,-235 764,-235 764,-121 764,-57.2639 683.783,-30.0126 626.513,-18.6785"/>
<polygon fill="midnightblue" stroke="midnightblue" points="626.94,-15.1979 616.468,-16.8047 625.656,-22.0792 626.94,-15.1979"/>
</g>
<!-- Node8 -->
<g id="node8" class="node"><title>Node8</title>
<g id="a_node8"><a xlink:href="statictext_8hpp.html" target="_top" xlink:title="statictext.hpp">
<polygon fill="none" stroke="black" points="196.5,-280.5 196.5,-299.5 279.5,-299.5 279.5,-280.5 196.5,-280.5"/>
<text text-anchor="middle" x="238" y="-287.5" font-family="Helvetica,sans-Serif" font-size="10.00">statictext.hpp</text>
</a>
</g>
</g>
<!-- Node7&#45;&gt;Node8 -->
<g id="edge10" class="edge"><title>Node7&#45;&gt;Node8</title>
<path fill="none" stroke="midnightblue" d="M354.133,-336.444C331.221,-327.478 295.025,-313.314 269.134,-303.183"/>
<polygon fill="midnightblue" stroke="midnightblue" points="270.352,-299.901 259.764,-299.516 267.801,-306.42 270.352,-299.901"/>
</g>
<!-- Node10 -->
<g id="node10" class="node"><title>Node10</title>
<g id="a_node10"><a xlink:href="widget_8hpp.html" target="_top" xlink:title="widget.hpp">
<polygon fill="none" stroke="black" points="312,-168.5 312,-187.5 380,-187.5 380,-168.5 312,-168.5"/>
<text text-anchor="middle" x="346" y="-175.5" font-family="Helvetica,sans-Serif" font-size="10.00">widget.hpp</text>
</a>
</g>
</g>
<!-- Node7&#45;&gt;Node10 -->
<g id="edge44" class="edge"><title>Node7&#45;&gt;Node10</title>
<path fill="none" stroke="midnightblue" d="M361.339,-336.402C349.594,-328.585 333.969,-315.862 327,-300 311.882,-265.59 326.697,-221.015 337.318,-196.715"/>
<polygon fill="midnightblue" stroke="midnightblue" points="340.498,-198.177 341.514,-187.631 334.144,-195.242 340.498,-198.177"/>
</g>
<!-- Node16 -->
<g id="node16" class="node"><title>Node16</title>
<g id="a_node16"><a xlink:href="textfield_8hpp.html" target="_top" xlink:title="textfield.hpp">
<polygon fill="none" stroke="black" points="102,-280.5 102,-299.5 178,-299.5 178,-280.5 102,-280.5"/>
<text text-anchor="middle" x="140" y="-287.5" font-family="Helvetica,sans-Serif" font-size="10.00">textfield.hpp</text>
</a>
</g>
</g>
<!-- Node7&#45;&gt;Node16 -->
<g id="edge27" class="edge"><title>Node7&#45;&gt;Node16</title>
<path fill="none" stroke="midnightblue" d="M344.661,-337.829C304.361,-328.608 234.004,-312.509 187.209,-301.802"/>
<polygon fill="midnightblue" stroke="midnightblue" points="187.839,-298.356 177.31,-299.537 186.278,-305.18 187.839,-298.356"/>
</g>
<!-- Node17 -->
<g id="node17" class="node"><title>Node17</title>
<g id="a_node17"><a xlink:href="line_8hpp.html" target="_top" xlink:title="line.hpp">
<polygon fill="none" stroke="black" points="374,-224.5 374,-243.5 428,-243.5 428,-224.5 374,-224.5"/>
<text text-anchor="middle" x="401" y="-231.5" font-family="Helvetica,sans-Serif" font-size="10.00">line.hpp</text>
</a>
</g>
</g>
<!-- Node7&#45;&gt;Node17 -->
<g id="edge31" class="edge"><title>Node7&#45;&gt;Node17</title>
<path fill="none" stroke="midnightblue" d="M390.37,-336.33C401.88,-328.469 417.189,-315.722 424,-300 430.959,-283.936 422.461,-265.012 413.894,-251.739"/>
<polygon fill="midnightblue" stroke="midnightblue" points="416.757,-249.725 408.142,-243.557 411.03,-253.751 416.757,-249.725"/>
</g>
<!-- Node18 -->
<g id="node18" class="node"><title>Node18</title>
<g id="a_node18"><a xlink:href="rect_8hpp.html" target="_top" xlink:title="rect.hpp">
<polygon fill="none" stroke="black" points="484,-224.5 484,-243.5 540,-243.5 540,-224.5 484,-224.5"/>
<text text-anchor="middle" x="512" y="-231.5" font-family="Helvetica,sans-Serif" font-size="10.00">rect.hpp</text>
</a>
</g>
</g>
<!-- Node7&#45;&gt;Node18 -->
<g id="edge34" class="edge"><title>Node7&#45;&gt;Node18</title>
<path fill="none" stroke="midnightblue" d="M389.084,-336.481C402.261,-327.746 423.014,-313.557 440,-300 459.805,-284.194 481.202,-264.512 495.478,-250.972"/>
<polygon fill="midnightblue" stroke="midnightblue" points="498.186,-253.226 502.995,-243.785 493.348,-248.166 498.186,-253.226"/>
</g>
<!-- Node19 -->
<g id="node19" class="node"><title>Node19</title>
<g id="a_node19"><a xlink:href="ellipse_8hpp.html" target="_top" xlink:title="ellipse.hpp">
<polygon fill="none" stroke="black" points="558,-224.5 558,-243.5 626,-243.5 626,-224.5 558,-224.5"/>
<text text-anchor="middle" x="592" y="-231.5" font-family="Helvetica,sans-Serif" font-size="10.00">ellipse.hpp</text>
</a>
</g>
</g>
<!-- Node7&#45;&gt;Node19 -->
<g id="edge37" class="edge"><title>Node7&#45;&gt;Node19</title>
<path fill="none" stroke="midnightblue" d="M393.286,-336.438C411.429,-327.432 440.768,-312.816 466,-300 500.833,-282.308 540.908,-261.568 566.335,-248.36"/>
<polygon fill="midnightblue" stroke="midnightblue" points="568.063,-251.407 575.322,-243.689 564.834,-245.195 568.063,-251.407"/>
</g>
<!-- Node20 -->
<g id="node20" class="node"><title>Node20</title>
<g id="a_node20"><a xlink:href="image_8hpp.html" target="_top" xlink:title="image.hpp">
<polygon fill="none" stroke="black" points="629,-280.5 629,-299.5 697,-299.5 697,-280.5 629,-280.5"/>
<text text-anchor="middle" x="663" y="-287.5" font-family="Helvetica,sans-Serif" font-size="10.00">image.hpp</text>
</a>
</g>
</g>
<!-- Node7&#45;&gt;Node20 -->
<g id="edge40" class="edge"><title>Node7&#45;&gt;Node20</title>
<path fill="none" stroke="midnightblue" d="M407.26,-339.118C458.381,-329.5 560.026,-310.375 618.604,-299.353"/>
<polygon fill="midnightblue" stroke="midnightblue" points="619.489,-302.748 628.669,-297.459 618.195,-295.869 619.489,-302.748"/>
</g>
<!-- Node22 -->
<g id="node22" class="node"><title>Node22</title>
<g id="a_node22"><a xlink:href="crosstab_8hpp.html" target="_top" xlink:title="crosstab.hpp">
<polygon fill="none" stroke="black" points="336.5,-280.5 336.5,-299.5 415.5,-299.5 415.5,-280.5 336.5,-280.5"/>
<text text-anchor="middle" x="376" y="-287.5" font-family="Helvetica,sans-Serif" font-size="10.00">crosstab.hpp</text>
</a>
</g>
</g>
<!-- Node7&#45;&gt;Node22 -->
<g id="edge45" class="edge"><title>Node7&#45;&gt;Node22</title>
<path fill="none" stroke="midnightblue" d="M376,-336.083C376,-329.006 376,-318.861 376,-309.986"/>
<polygon fill="midnightblue" stroke="midnightblue" points="379.5,-309.751 376,-299.751 372.5,-309.751 379.5,-309.751"/>
</g>
<!-- Node8&#45;&gt;Node3 -->
<g id="edge11" class="edge"><title>Node8&#45;&gt;Node3</title>
<path fill="none" stroke="midnightblue" d="M279.689,-282.554C329.844,-274.288 410.601,-259.199 437,-244 518.818,-196.892 542.549,-167.189 567,-76 571.073,-60.8094 571.603,-42.9175 571.24,-29.7548"/>
<polygon fill="midnightblue" stroke="midnightblue" points="574.727,-29.4143 570.756,-19.5918 567.735,-29.7469 574.727,-29.4143"/>
</g>
<!-- Node9 -->
<g id="node9" class="node"><title>Node9</title>
<g id="a_node9"><a xlink:href="textwidget_8hpp.html" target="_top" xlink:title="textwidget.hpp">
<polygon fill="none" stroke="black" points="186.5,-224.5 186.5,-243.5 273.5,-243.5 273.5,-224.5 186.5,-224.5"/>
<text text-anchor="middle" x="230" y="-231.5" font-family="Helvetica,sans-Serif" font-size="10.00">textwidget.hpp</text>
</a>
</g>
</g>
<!-- Node8&#45;&gt;Node9 -->
<g id="edge12" class="edge"><title>Node8&#45;&gt;Node9</title>
<path fill="none" stroke="midnightblue" d="M236.679,-280.083C235.619,-272.927 234.094,-262.635 232.769,-253.691"/>
<polygon fill="midnightblue" stroke="midnightblue" points="236.224,-253.13 231.296,-243.751 229.3,-254.156 236.224,-253.13"/>
</g>
<!-- Node9&#45;&gt;Node3 -->
<g id="edge14" class="edge"><title>Node9&#45;&gt;Node3</title>
<path fill="none" stroke="midnightblue" d="M227.023,-224.455C220.356,-203.755 206.296,-149.845 226,-112 236.022,-92.7521 285.927,-64.2459 306,-56 374.079,-28.0333 458.907,-17.447 513.74,-13.44"/>
<polygon fill="midnightblue" stroke="midnightblue" points="514.217,-16.9157 523.956,-12.7443 513.741,-9.93189 514.217,-16.9157"/>
</g>
<!-- Node9&#45;&gt;Node5 -->
<g id="edge13" class="edge"><title>Node9&#45;&gt;Node5</title>
<path fill="none" stroke="midnightblue" d="M219.93,-224.266C195.162,-202.175 131.043,-141.177 100,-76 93.0411,-61.3892 89.8047,-43.2166 88.301,-29.8042"/>
<polygon fill="midnightblue" stroke="midnightblue" points="91.7866,-29.4849 87.4018,-19.84 84.8149,-30.1141 91.7866,-29.4849"/>
</g>
<!-- Node9&#45;&gt;Node10 -->
<g id="edge15" class="edge"><title>Node9&#45;&gt;Node10</title>
<path fill="none" stroke="midnightblue" d="M248.381,-224.444C267.216,-215.675 296.731,-201.935 318.379,-191.858"/>
<polygon fill="midnightblue" stroke="midnightblue" points="320.117,-194.91 327.705,-187.516 317.162,-188.564 320.117,-194.91"/>
</g>
<!-- Node10&#45;&gt;Node3 -->
<g id="edge20" class="edge"><title>Node10&#45;&gt;Node3</title>
<path fill="none" stroke="midnightblue" d="M380.211,-173.888C412.579,-169.387 460.992,-158.45 494,-132 524.286,-107.732 515.933,-88.5935 537,-56 543.179,-46.4398 550.638,-36.1755 556.9,-27.8676"/>
<polygon fill="midnightblue" stroke="midnightblue" points="559.816,-29.8165 563.108,-19.7462 554.255,-25.5654 559.816,-29.8165"/>
</g>
<!-- Node10&#45;&gt;Node4 -->
<g id="edge26" class="edge"><title>Node10&#45;&gt;Node4</title>
<path fill="none" stroke="midnightblue" d="M311.864,-170.603C285.994,-164.344 250.788,-152.65 226,-132 211.029,-119.528 200.33,-99.7399 193.969,-85.2702"/>
<polygon fill="midnightblue" stroke="midnightblue" points="197.139,-83.7771 190.105,-75.8547 190.663,-86.4348 197.139,-83.7771"/>
</g>
<!-- Node10&#45;&gt;Node5 -->
<g id="edge16" class="edge"><title>Node10&#45;&gt;Node5</title>
<path fill="none" stroke="midnightblue" d="M311.916,-171.287C261.889,-161.111 168.906,-135.087 117,-76 105.22,-62.5905 97.216,-43.7708 92.4583,-29.8307"/>
<polygon fill="midnightblue" stroke="midnightblue" points="95.6711,-28.3805 89.3287,-19.8938 88.9944,-30.4833 95.6711,-28.3805"/>
</g>
<!-- Node11 -->
<g id="node11" class="node"><title>Node11</title>
<polygon fill="none" stroke="#bfbfbf" points="375,-112.5 375,-131.5 423,-131.5 423,-112.5 375,-112.5"/>
<text text-anchor="middle" x="399" y="-119.5" font-family="Helvetica,sans-Serif" font-size="10.00">QPoint</text>
</g>
<!-- Node10&#45;&gt;Node11 -->
<g id="edge17" class="edge"><title>Node10&#45;&gt;Node11</title>
<path fill="none" stroke="midnightblue" d="M354.752,-168.083C362.47,-160.22 373.905,-148.569 383.217,-139.081"/>
<polygon fill="midnightblue" stroke="midnightblue" points="385.904,-141.34 390.411,-131.751 380.908,-136.436 385.904,-141.34"/>
</g>
<!-- Node12 -->
<g id="node12" class="node"><title>Node12</title>
<polygon fill="none" stroke="#bfbfbf" points="441,-112.5 441,-131.5 485,-131.5 485,-112.5 441,-112.5"/>
<text text-anchor="middle" x="463" y="-119.5" font-family="Helvetica,sans-Serif" font-size="10.00">QSize</text>
</g>
<!-- Node10&#45;&gt;Node12 -->
<g id="edge18" class="edge"><title>Node10&#45;&gt;Node12</title>
<path fill="none" stroke="midnightblue" d="M364.539,-168.444C383.623,-159.636 413.575,-145.812 435.436,-135.722"/>
<polygon fill="midnightblue" stroke="midnightblue" points="436.935,-138.885 444.548,-131.516 434.001,-132.529 436.935,-138.885"/>
</g>
<!-- Node13 -->
<g id="node13" class="node"><title>Node13</title>
<polygon fill="none" stroke="#bfbfbf" points="235,-112.5 235,-131.5 279,-131.5 279,-112.5 235,-112.5"/>
<text text-anchor="middle" x="257" y="-119.5" font-family="Helvetica,sans-Serif" font-size="10.00">QRect</text>
</g>
<!-- Node10&#45;&gt;Node13 -->
<g id="edge19" class="edge"><title>Node10&#45;&gt;Node13</title>
<path fill="none" stroke="midnightblue" d="M331.701,-168.324C317.817,-159.9 296.508,-146.971 280.196,-137.074"/>
<polygon fill="midnightblue" stroke="midnightblue" points="281.629,-133.85 271.264,-131.655 277.998,-139.834 281.629,-133.85"/>
</g>
<!-- Node14 -->
<g id="node14" class="node"><title>Node14</title>
<g id="a_node14"><a xlink:href="style_8hpp.html" target="_top" xlink:title="style.hpp">
<polygon fill="none" stroke="black" points="297,-112.5 297,-131.5 357,-131.5 357,-112.5 297,-112.5"/>
<text text-anchor="middle" x="327" y="-119.5" font-family="Helvetica,sans-Serif" font-size="10.00">style.hpp</text>
</a>
</g>
</g>
<!-- Node10&#45;&gt;Node14 -->
<g id="edge21" class="edge"><title>Node10&#45;&gt;Node14</title>
<path fill="none" stroke="midnightblue" d="M342.863,-168.083C340.317,-160.849 336.644,-150.409 333.473,-141.397"/>
<polygon fill="midnightblue" stroke="midnightblue" points="336.7,-140.023 330.079,-131.751 330.097,-142.346 336.7,-140.023"/>
</g>
<!-- Node14&#45;&gt;Node3 -->
<g id="edge24" class="edge"><title>Node14&#45;&gt;Node3</title>
<path fill="none" stroke="midnightblue" d="M346.068,-112.368C388.654,-93.0908 491.68,-46.4536 541.747,-23.7894"/>
<polygon fill="midnightblue" stroke="midnightblue" points="543.354,-26.9039 551.021,-19.5914 540.467,-20.5268 543.354,-26.9039"/>
</g>
<!-- Node14&#45;&gt;Node4 -->
<g id="edge25" class="edge"><title>Node14&#45;&gt;Node4</title>
<path fill="none" stroke="midnightblue" d="M304.817,-112.444C281.572,-103.478 244.851,-89.314 218.585,-79.1827"/>
<polygon fill="midnightblue" stroke="midnightblue" points="219.669,-75.8497 209.08,-75.5164 217.15,-82.3807 219.669,-75.8497"/>
</g>
<!-- Node14&#45;&gt;Node5 -->
<g id="edge22" class="edge"><title>Node14&#45;&gt;Node5</title>
<path fill="none" stroke="midnightblue" d="M296.635,-113.779C245.475,-101.578 147.303,-78.0068 144,-76 124.429,-64.1084 107.939,-43.3021 97.8096,-28.4318"/>
<polygon fill="midnightblue" stroke="midnightblue" points="100.494,-26.1396 92.1032,-19.6704 94.6281,-29.96 100.494,-26.1396"/>
</g>
<!-- Node15 -->
<g id="node15" class="node"><title>Node15</title>
<polygon fill="none" stroke="#bfbfbf" points="315.5,-56.5 315.5,-75.5 364.5,-75.5 364.5,-56.5 315.5,-56.5"/>
<text text-anchor="middle" x="340" y="-63.5" font-family="Helvetica,sans-Serif" font-size="10.00">QColor</text>
</g>
<!-- Node14&#45;&gt;Node15 -->
<g id="edge23" class="edge"><title>Node14&#45;&gt;Node15</title>
<path fill="none" stroke="midnightblue" d="M329.147,-112.083C330.869,-104.927 333.347,-94.6353 335.5,-85.6911"/>
<polygon fill="midnightblue" stroke="midnightblue" points="338.955,-86.2925 337.893,-75.7511 332.15,-84.6541 338.955,-86.2925"/>
</g>
<!-- Node16&#45;&gt;Node3 -->
<g id="edge29" class="edge"><title>Node16&#45;&gt;Node3</title>
<path fill="none" stroke="midnightblue" d="M141.294,-280.344C147.232,-244.179 175.529,-104.788 265,-56 306.739,-33.2396 437.418,-20.3983 513.502,-14.6697"/>
<polygon fill="midnightblue" stroke="midnightblue" points="514.145,-18.1321 523.861,-13.9083 513.631,-11.1509 514.145,-18.1321"/>
</g>
<!-- Node16&#45;&gt;Node5 -->
<g id="edge28" class="edge"><title>Node16&#45;&gt;Node5</title>
<path fill="none" stroke="midnightblue" d="M134.579,-280.386C129.285,-271.576 121.4,-257.331 117,-244 91.7509,-167.507 87.6048,-70.3583 87.0283,-29.9552"/>
<polygon fill="midnightblue" stroke="midnightblue" points="90.5264,-29.6947 86.9451,-19.7236 83.5267,-29.7517 90.5264,-29.6947"/>
</g>
<!-- Node16&#45;&gt;Node9 -->
<g id="edge30" class="edge"><title>Node16&#45;&gt;Node9</title>
<path fill="none" stroke="midnightblue" d="M154.46,-280.324C168.5,-271.9 190.048,-258.971 206.543,-249.074"/>
<polygon fill="midnightblue" stroke="midnightblue" points="208.802,-251.801 215.576,-243.655 205.2,-245.798 208.802,-251.801"/>
</g>
<!-- Node17&#45;&gt;Node3 -->
<g id="edge32" class="edge"><title>Node17&#45;&gt;Node3</title>
<path fill="none" stroke="midnightblue" d="M414.688,-224.274C438.539,-208.466 488.028,-172.912 518,-132 541.787,-99.5303 557.449,-54.4996 564.912,-29.5369"/>
<polygon fill="midnightblue" stroke="midnightblue" points="568.37,-30.1743 567.764,-19.5969 561.642,-28.2439 568.37,-30.1743"/>
</g>
<!-- Node17&#45;&gt;Node10 -->
<g id="edge33" class="edge"><title>Node17&#45;&gt;Node10</title>
<path fill="none" stroke="midnightblue" d="M391.918,-224.083C383.829,-216.141 371.805,-204.335 362.09,-194.797"/>
<polygon fill="midnightblue" stroke="midnightblue" points="364.501,-192.26 354.913,-187.751 359.597,-197.254 364.501,-192.26"/>
</g>
<!-- Node18&#45;&gt;Node3 -->
<g id="edge35" class="edge"><title>Node18&#45;&gt;Node3</title>
<path fill="none" stroke="midnightblue" d="M535.856,-224.499C560.173,-215.292 595.375,-200.277 603,-188 633.953,-138.163 621.253,-111.755 603,-56 599.51,-45.3397 592.427,-35.1174 585.714,-27.1175"/>
<polygon fill="midnightblue" stroke="midnightblue" points="588.305,-24.7633 579.02,-19.66 583.096,-29.4395 588.305,-24.7633"/>
</g>
<!-- Node18&#45;&gt;Node10 -->
<g id="edge36" class="edge"><title>Node18&#45;&gt;Node10</title>
<path fill="none" stroke="midnightblue" d="M485.697,-224.444C457.649,-215.32 413.056,-200.813 381.816,-190.651"/>
<polygon fill="midnightblue" stroke="midnightblue" points="382.772,-187.282 372.18,-187.516 380.607,-193.938 382.772,-187.282"/>
</g>
<!-- Node19&#45;&gt;Node3 -->
<g id="edge38" class="edge"><title>Node19&#45;&gt;Node3</title>
<path fill="none" stroke="midnightblue" d="M606.661,-224.402C618.406,-216.585 634.031,-203.862 641,-188 664.598,-134.289 669.278,-107.402 641,-56 633.113,-41.6632 618.514,-31.2525 604.597,-24.0792"/>
<polygon fill="midnightblue" stroke="midnightblue" points="605.698,-20.7285 595.161,-19.6217 602.708,-27.0578 605.698,-20.7285"/>
</g>
<!-- Node19&#45;&gt;Node10 -->
<g id="edge39" class="edge"><title>Node19&#45;&gt;Node10</title>
<path fill="none" stroke="midnightblue" d="M557.795,-225.492C514.04,-215.887 438.186,-199.236 390.123,-188.686"/>
<polygon fill="midnightblue" stroke="midnightblue" points="390.828,-185.257 380.31,-186.532 389.327,-192.094 390.828,-185.257"/>
</g>
<!-- Node20&#45;&gt;Node3 -->
<g id="edge42" class="edge"><title>Node20&#45;&gt;Node3</title>
<path fill="none" stroke="midnightblue" d="M674.343,-280.179C684.307,-271.859 698.504,-258.524 707,-244 722.197,-218.02 726,-209.098 726,-179 726,-179 726,-179 726,-121 726,-66.8163 662.365,-36.9743 616.38,-22.4831"/>
<polygon fill="midnightblue" stroke="midnightblue" points="617.159,-19.0626 606.575,-19.5376 615.145,-25.7667 617.159,-19.0626"/>
</g>
<!-- Node20&#45;&gt;Node9 -->
<g id="edge43" class="edge"><title>Node20&#45;&gt;Node9</title>
<path fill="none" stroke="midnightblue" d="M628.661,-284.718C553.546,-275.35 374.157,-252.978 283.862,-241.717"/>
<polygon fill="midnightblue" stroke="midnightblue" points="284.187,-238.231 273.831,-240.466 283.321,-245.177 284.187,-238.231"/>
</g>
<!-- Node21 -->
<g id="node21" class="node"><title>Node21</title>
<polygon fill="none" stroke="#bfbfbf" points="644,-224.5 644,-243.5 698,-243.5 698,-224.5 644,-224.5"/>
<text text-anchor="middle" x="671" y="-231.5" font-family="Helvetica,sans-Serif" font-size="10.00">QImage</text>
</g>
<!-- Node20&#45;&gt;Node21 -->
<g id="edge41" class="edge"><title>Node20&#45;&gt;Node21</title>
<path fill="none" stroke="midnightblue" d="M664.321,-280.083C665.381,-272.927 666.906,-262.635 668.231,-253.691"/>
<polygon fill="midnightblue" stroke="midnightblue" points="671.7,-254.156 669.704,-243.751 664.776,-253.13 671.7,-254.156"/>
</g>
<!-- Node22&#45;&gt;Node10 -->
<g id="edge46" class="edge"><title>Node22&#45;&gt;Node10</title>
<path fill="none" stroke="midnightblue" d="M373.646,-280.368C368.783,-262.537 357.535,-221.295 350.983,-197.272"/>
<polygon fill="midnightblue" stroke="midnightblue" points="354.351,-196.318 348.343,-187.591 347.598,-198.16 354.351,-196.318"/>
</g>
</g>
</svg>
        <g id="navigator" transform="translate(0 0)" fill="#404254">
                <rect fill="#f2f5e9" fill-opacity="0.5" stroke="#606060" stroke-width=".5" x="0" y="0" width="60" height="60"/>
                <use id="zoomplus" xlink:href="#zoomPlus" x="17" y="9" onmousedown="handleZoom(evt,'in')"/>
                <use id="zoomminus" xlink:href="#zoomMin" x="42" y="9" onmousedown="handleZoom(evt,'out')"/>
                <use id="reset" xlink:href="#resetDef" x="30" y="36" onmousedown="handleReset()"/>
                <g id="arrowUp" xlink:href="#dirArrow" transform="translate(30 24)" onmousedown="handlePan(0,-1)">
                  <use xlink:href="#rim" fill="#404040">
                        <set attributeName="fill" to="#808080" begin="arrowUp.mouseover" end="arrowUp.mouseout"/>
                  </use>
                  <path fill="none" stroke="white" stroke-width="1.5" d="M0,-3.0v7 M-2.5,-0.5L0,-3.0L2.5,-0.5"/>
                </g>
                <g id="arrowRight" xlink:href="#dirArrow" transform="rotate(90) translate(36 -43)" onmousedown="handlePan(1,0)">
                  <use xlink:href="#rim" fill="#404040">
                        <set attributeName="fill" to="#808080" begin="arrowRight.mouseover" end="arrowRight.mouseout"/>
                  </use>
                  <path fill="none" stroke="white" stroke-width="1.5" d="M0,-3.0v7 M-2.5,-0.5L0,-3.0L2.5,-0.5"/>
                </g>
                <g id="arrowDown" xlink:href="#dirArrow" transform="rotate(180) translate(-30 -48)" onmousedown="handlePan(0,1)">
                  <use xlink:href="#rim" fill="#404040">
                        <set attributeName="fill" to="#808080" begin="arrowDown.mouseover" end="arrowDown.mouseout"/>
                  </use>
                  <path fill="none" stroke="white" stroke-width="1.5" d="M0,-3.0v7 M-2.5,-0.5L0,-3.0L2.5,-0.5"/>
                </g>
                <g id="arrowLeft" xlink:href="#dirArrow" transform="rotate(270) translate(-36 17)" onmousedown="handlePan(-1,0)">
                  <use xlink:href="#rim" fill="#404040">
                        <set attributeName="fill" to="#808080" begin="arrowLeft.mouseover" end="arrowLeft.mouseout"/>
                  </use>
                  <path fill="none" stroke="white" stroke-width="1.5" d="M0,-3.0v7 M-2.5,-0.5L0,-3.0L2.5,-0.5"/>
                </g>
        </g>
        <svg viewBox="0 0 15 15" width="100%" height="30px" preserveAspectRatio="xMaxYMin meet">
         <g id="arrow_out" transform="scale(0.3 0.3)">
          <a xlink:href="section_8hpp__incl_org.svg" target="_base">
           <rect id="button" ry="5" rx="5" y="6" x="6" height="38" width="38"
                fill="#f2f5e9" fill-opacity="0.5" stroke="#606060" stroke-width="1.0"/>
           <path id="arrow"
             d="M 11.500037,31.436501 C 11.940474,20.09759 22.043105,11.32322 32.158766,21.979434 L 37.068811,17.246167 C 37.068811,17.246167 37.088388,32 37.088388,32 L 22.160133,31.978069 C 22.160133,31.978069 26.997745,27.140456 26.997745,27.140456 C 18.528582,18.264221 13.291696,25.230495 11.500037,31.436501 z"
             style="fill:#404040;"/>
          </a>
         </g>
        </svg>
</svg>
