<?xml version="1.0" encoding="UTF-8" standalone="no"?>
<!DOCTYPE svg PUBLIC "-//W3C//DTD SVG 1.1//EN"
 "http://www.w3.org/Graphics/SVG/1.1/DTD/svg11.dtd">
<!-- Generated by graphviz version 2.38.0 (20140413.2041)
 -->
<!-- Title: /home/travis/build/PO&#45;31/QtReports/qtreports/src/tags/statictext.hpp Pages: 1 -->
<svg width="456pt" height="330pt"
 viewBox="0.00 0.00 455.50 330.00" xmlns="http://www.w3.org/2000/svg" xmlns:xlink="http://www.w3.org/1999/xlink">
<g id="graph0" class="graph" transform="scale(1 1) rotate(0) translate(4 326)">
<title>/home/travis/build/PO&#45;31/QtReports/qtreports/src/tags/statictext.hpp</title>
<!-- Node1 -->
<g id="node1" class="node"><title>Node1</title>
<polygon fill="#bfbfbf" stroke="black" points="301.5,-280.5 301.5,-321.5 447.5,-321.5 447.5,-280.5 301.5,-280.5"/>
<text text-anchor="start" x="309.5" y="-309.5" font-family="Helvetica,sans-Serif" font-size="10.00">/home/travis/build</text>
<text text-anchor="start" x="309.5" y="-298.5" font-family="Helvetica,sans-Serif" font-size="10.00">/PO&#45;31/QtReports/qtreports</text>
<text text-anchor="middle" x="374.5" y="-287.5" font-family="Helvetica,sans-Serif" font-size="10.00">/src/tags/statictext.hpp</text>
</g>
<!-- Node2 -->
<g id="node2" class="node"><title>Node2</title>
<polygon fill="none" stroke="#bfbfbf" points="235.5,-0.5 235.5,-19.5 327.5,-19.5 327.5,-0.5 235.5,-0.5"/>
<text text-anchor="middle" x="281.5" y="-7.5" font-family="Helvetica,sans-Serif" font-size="10.00">QSharedPointer</text>
</g>
<!-- Node1&#45;&gt;Node2 -->
<g id="edge1" class="edge"><title>Node1&#45;&gt;Node2</title>
<path fill="none" stroke="midnightblue" d="M390.935,-280.447C408.392,-257.63 433.5,-218.03 433.5,-179 433.5,-179 433.5,-179 433.5,-121 433.5,-67.4368 370.788,-37.2997 325.927,-22.5935"/>
<polygon fill="midnightblue" stroke="midnightblue" points="326.961,-19.2497 316.372,-19.6023 324.87,-25.9301 326.961,-19.2497"/>
</g>
<!-- Node3 -->
<g id="node3" class="node"><title>Node3</title>
<g id="a_node3"><a xlink:href="textwidget_8hpp.html" target="_top" xlink:title="textwidget.hpp">
<polygon fill="none" stroke="black" points="215,-224.5 215,-243.5 302,-243.5 302,-224.5 215,-224.5"/>
<text text-anchor="middle" x="258.5" y="-231.5" font-family="Helvetica,sans-Serif" font-size="10.00">textwidget.hpp</text>
</a>
</g>
</g>
<!-- Node1&#45;&gt;Node3 -->
<g id="edge2" class="edge"><title>Node1&#45;&gt;Node3</title>
<path fill="none" stroke="midnightblue" d="M339.696,-280.498C321.398,-270.245 299.412,-257.925 282.936,-248.693"/>
<polygon fill="midnightblue" stroke="midnightblue" points="284.376,-245.488 273.941,-243.652 280.954,-251.594 284.376,-245.488"/>
</g>
<!-- Node3&#45;&gt;Node2 -->
<g id="edge4" class="edge"><title>Node3&#45;&gt;Node2</title>
<path fill="none" stroke="midnightblue" d="M275.881,-224.46C303.305,-209.881 355.639,-177.315 376.5,-132 396.697,-88.1272 340.954,-45.8583 306.481,-24.8202"/>
<polygon fill="midnightblue" stroke="midnightblue" points="308.208,-21.7756 297.818,-19.7028 304.648,-27.8026 308.208,-21.7756"/>
</g>
<!-- Node4 -->
<g id="node4" class="node"><title>Node4</title>
<polygon fill="none" stroke="#bfbfbf" points="0,-0.5 0,-19.5 53,-19.5 53,-0.5 0,-0.5"/>
<text text-anchor="middle" x="26.5" y="-7.5" font-family="Helvetica,sans-Serif" font-size="10.00">QString</text>
</g>
<!-- Node3&#45;&gt;Node4 -->
<g id="edge3" class="edge"><title>Node3&#45;&gt;Node4</title>
<path fill="none" stroke="midnightblue" d="M214.854,-227.976C159.451,-219.09 65.449,-195.11 18.5,-132 -3.93004,-101.849 8.80874,-54.9167 18.5774,-29.2641"/>
<polygon fill="midnightblue" stroke="midnightblue" points="21.9482,-30.2658 22.4709,-19.6839 15.4633,-27.6302 21.9482,-30.2658"/>
</g>
<!-- Node5 -->
<g id="node5" class="node"><title>Node5</title>
<g id="a_node5"><a xlink:href="widget_8hpp.html" target="_top" xlink:title="widget.hpp">
<polygon fill="none" stroke="black" points="166.5,-168.5 166.5,-187.5 234.5,-187.5 234.5,-168.5 166.5,-168.5"/>
<text text-anchor="middle" x="200.5" y="-175.5" font-family="Helvetica,sans-Serif" font-size="10.00">widget.hpp</text>
</a>
</g>
</g>
<!-- Node3&#45;&gt;Node5 -->
<g id="edge5" class="edge"><title>Node3&#45;&gt;Node5</title>
<path fill="none" stroke="midnightblue" d="M249.181,-224.324C240.607,-216.341 227.688,-204.313 217.312,-194.653"/>
<polygon fill="midnightblue" stroke="midnightblue" points="219.692,-192.086 209.988,-187.834 214.922,-197.21 219.692,-192.086"/>
</g>
<!-- Node5&#45;&gt;Node2 -->
<g id="edge10" class="edge"><title>Node5&#45;&gt;Node2</title>
<path fill="none" stroke="midnightblue" d="M206.644,-168.48C218.604,-151.571 245.262,-112.272 261.5,-76 268.284,-60.8458 273.65,-42.7269 277.109,-29.4731"/>
<polygon fill="midnightblue" stroke="midnightblue" points="280.533,-30.2056 279.554,-19.6561 273.741,-28.5132 280.533,-30.2056"/>
</g>
<!-- Node5&#45;&gt;Node4 -->
<g id="edge6" class="edge"><title>Node5&#45;&gt;Node4</title>
<path fill="none" stroke="midnightblue" d="M166.426,-172.619C122.34,-166.19 49.1938,-152.673 32.5,-132 8.91295,-102.791 15.3017,-55.4872 21.3316,-29.5231"/>
<polygon fill="midnightblue" stroke="midnightblue" points="24.7271,-30.3718 23.8054,-19.8172 17.944,-28.6429 24.7271,-30.3718"/>
</g>
<!-- Node6 -->
<g id="node6" class="node"><title>Node6</title>
<polygon fill="none" stroke="#bfbfbf" points="257.5,-112.5 257.5,-131.5 305.5,-131.5 305.5,-112.5 257.5,-112.5"/>
<text text-anchor="middle" x="281.5" y="-119.5" font-family="Helvetica,sans-Serif" font-size="10.00">QPoint</text>
</g>
<!-- Node5&#45;&gt;Node6 -->
<g id="edge7" class="edge"><title>Node5&#45;&gt;Node6</title>
<path fill="none" stroke="midnightblue" d="M213.514,-168.324C226.032,-159.979 245.182,-147.212 259.971,-137.352"/>
<polygon fill="midnightblue" stroke="midnightblue" points="262.139,-140.114 268.518,-131.655 258.256,-134.289 262.139,-140.114"/>
</g>
<!-- Node7 -->
<g id="node7" class="node"><title>Node7</title>
<polygon fill="none" stroke="#bfbfbf" points="323.5,-112.5 323.5,-131.5 367.5,-131.5 367.5,-112.5 323.5,-112.5"/>
<text text-anchor="middle" x="345.5" y="-119.5" font-family="Helvetica,sans-Serif" font-size="10.00">QSize</text>
</g>
<!-- Node5&#45;&gt;Node7 -->
<g id="edge8" class="edge"><title>Node5&#45;&gt;Node7</title>
<path fill="none" stroke="midnightblue" d="M223.476,-168.444C247.799,-159.385 286.369,-145.021 313.625,-134.871"/>
<polygon fill="midnightblue" stroke="midnightblue" points="314.959,-138.109 323.108,-131.339 312.516,-131.549 314.959,-138.109"/>
</g>
<!-- Node8 -->
<g id="node8" class="node"><title>Node8</title>
<polygon fill="none" stroke="#bfbfbf" points="41.5,-112.5 41.5,-131.5 85.5,-131.5 85.5,-112.5 41.5,-112.5"/>
<text text-anchor="middle" x="63.5" y="-119.5" font-family="Helvetica,sans-Serif" font-size="10.00">QRect</text>
</g>
<!-- Node5&#45;&gt;Node8 -->
<g id="edge9" class="edge"><title>Node5&#45;&gt;Node8</title>
<path fill="none" stroke="midnightblue" d="M178.792,-168.444C156.145,-159.517 120.428,-145.439 94.7482,-135.317"/>
<polygon fill="midnightblue" stroke="midnightblue" points="95.6934,-131.927 85.1065,-131.516 93.1264,-138.44 95.6934,-131.927"/>
</g>
<!-- Node9 -->
<g id="node9" class="node"><title>Node9</title>
<g id="a_node9"><a xlink:href="style_8hpp.html" target="_top" xlink:title="style.hpp">
<polygon fill="none" stroke="black" points="141.5,-112.5 141.5,-131.5 201.5,-131.5 201.5,-112.5 141.5,-112.5"/>
<text text-anchor="middle" x="171.5" y="-119.5" font-family="Helvetica,sans-Serif" font-size="10.00">style.hpp</text>
</a>
</g>
</g>
<!-- Node5&#45;&gt;Node9 -->
<g id="edge11" class="edge"><title>Node5&#45;&gt;Node9</title>
<path fill="none" stroke="midnightblue" d="M195.711,-168.083C191.742,-160.691 185.975,-149.953 181.065,-140.811"/>
<polygon fill="midnightblue" stroke="midnightblue" points="184.014,-138.905 176.2,-131.751 177.847,-142.217 184.014,-138.905"/>
</g>
<!-- Node11 -->
<g id="node11" class="node"><title>Node11</title>
<g id="a_node11"><a xlink:href="object_8hpp.html" target="_top" xlink:title="object.hpp">
<polygon fill="none" stroke="black" points="80,-56.5 80,-75.5 147,-75.5 147,-56.5 80,-56.5"/>
<text text-anchor="middle" x="113.5" y="-63.5" font-family="Helvetica,sans-Serif" font-size="10.00">object.hpp</text>
</a>
</g>
</g>
<!-- Node5&#45;&gt;Node11 -->
<g id="edge19" class="edge"><title>Node5&#45;&gt;Node11</title>
<path fill="none" stroke="midnightblue" d="M180.418,-168.429C165.158,-160.933 144.765,-148.636 132.5,-132 122.58,-118.545 117.818,-99.984 115.545,-86.1402"/>
<polygon fill="midnightblue" stroke="midnightblue" points="118.961,-85.282 114.162,-75.8364 112.023,-86.2131 118.961,-85.282"/>
</g>
<!-- Node9&#45;&gt;Node2 -->
<g id="edge14" class="edge"><title>Node9&#45;&gt;Node2</title>
<path fill="none" stroke="midnightblue" d="M172.501,-112.408C174.479,-98.9198 180.03,-72.6056 194.5,-56 207.387,-41.2103 226.326,-30.612 243.246,-23.4308"/>
<polygon fill="midnightblue" stroke="midnightblue" points="244.912,-26.5354 252.914,-19.5917 242.328,-20.0296 244.912,-26.5354"/>
</g>
<!-- Node9&#45;&gt;Node4 -->
<g id="edge12" class="edge"><title>Node9&#45;&gt;Node4</title>
<path fill="none" stroke="midnightblue" d="M141.227,-112.44C119.779,-105.269 91.2466,-93.3838 70.5,-76 55.0348,-63.0415 42.7403,-43.3294 35.1221,-29.0106"/>
<polygon fill="midnightblue" stroke="midnightblue" points="38.0569,-27.0578 30.4229,-19.7112 31.8092,-30.2149 38.0569,-27.0578"/>
</g>
<!-- Node10 -->
<g id="node10" class="node"><title>Node10</title>
<polygon fill="none" stroke="#bfbfbf" points="204,-56.5 204,-75.5 253,-75.5 253,-56.5 204,-56.5"/>
<text text-anchor="middle" x="228.5" y="-63.5" font-family="Helvetica,sans-Serif" font-size="10.00">QColor</text>
</g>
<!-- Node9&#45;&gt;Node10 -->
<g id="edge13" class="edge"><title>Node9&#45;&gt;Node10</title>
<path fill="none" stroke="midnightblue" d="M180.658,-112.324C189.001,-104.42 201.532,-92.5482 211.677,-82.9377"/>
<polygon fill="midnightblue" stroke="midnightblue" points="214.323,-85.2522 219.175,-75.8339 209.509,-80.1705 214.323,-85.2522"/>
</g>
<!-- Node9&#45;&gt;Node11 -->
<g id="edge15" class="edge"><title>Node9&#45;&gt;Node11</title>
<path fill="none" stroke="midnightblue" d="M162.181,-112.324C153.607,-104.341 140.688,-92.3128 130.312,-82.6529"/>
<polygon fill="midnightblue" stroke="midnightblue" points="132.692,-80.0865 122.988,-75.8339 127.922,-85.2098 132.692,-80.0865"/>
</g>
<!-- Node11&#45;&gt;Node2 -->
<g id="edge18" class="edge"><title>Node11&#45;&gt;Node2</title>
<path fill="none" stroke="midnightblue" d="M140.12,-56.4435C168.506,-47.3196 213.637,-32.8133 245.253,-22.6509"/>
<polygon fill="midnightblue" stroke="midnightblue" points="246.555,-25.9087 255.004,-19.5164 244.413,-19.2445 246.555,-25.9087"/>
</g>
<!-- Node11&#45;&gt;Node4 -->
<g id="edge16" class="edge"><title>Node11&#45;&gt;Node4</title>
<path fill="none" stroke="midnightblue" d="M99.5219,-56.324C85.9504,-47.9002 65.1198,-34.9709 49.175,-25.0741"/>
<polygon fill="midnightblue" stroke="midnightblue" points="50.7856,-21.9544 40.4434,-19.6545 47.094,-27.9019 50.7856,-21.9544"/>
</g>
<!-- Node12 -->
<g id="node12" class="node"><title>Node12</title>
<polygon fill="none" stroke="#bfbfbf" points="84.5,-0.5 84.5,-19.5 142.5,-19.5 142.5,-0.5 84.5,-0.5"/>
<text text-anchor="middle" x="113.5" y="-7.5" font-family="Helvetica,sans-Serif" font-size="10.00">QVariant</text>
</g>
<!-- Node11&#45;&gt;Node12 -->
<g id="edge17" class="edge"><title>Node11&#45;&gt;Node12</title>
<path fill="none" stroke="midnightblue" d="M113.5,-56.083C113.5,-49.0059 113.5,-38.8611 113.5,-29.9865"/>
<polygon fill="midnightblue" stroke="midnightblue" points="117,-29.751 113.5,-19.7511 110,-29.7511 117,-29.751"/>
</g>
</g>
</svg>
