<?xml version="1.0" encoding="UTF-8" standalone="no"?>
<!DOCTYPE svg PUBLIC "-//W3C//DTD SVG 1.1//EN"
 "http://www.w3.org/Graphics/SVG/1.1/DTD/svg11.dtd">
<!-- Generated by graphviz version 2.38.0 (20140413.2041)
 -->
<!-- Title: /home/travis/build/PO&#45;31/QtReports/qtreports/src/tags/statictext.hpp Pages: 1 -->
<svg width="2229pt" height="518pt"
 viewBox="0.00 0.00 2229.00 518.00" xmlns="http://www.w3.org/2000/svg" xmlns:xlink="http://www.w3.org/1999/xlink">
<g id="graph0" class="graph" transform="scale(1 1) rotate(0) translate(4 514)">
<title>/home/travis/build/PO&#45;31/QtReports/qtreports/src/tags/statictext.hpp</title>
<!-- Node1 -->
<g id="node1" class="node"><title>Node1</title>
<polygon fill="#bfbfbf" stroke="black" points="1974,-468.5 1974,-509.5 2120,-509.5 2120,-468.5 1974,-468.5"/>
<text text-anchor="start" x="1982" y="-497.5" font-family="Helvetica,sans-Serif" font-size="10.00">/home/travis/build</text>
<text text-anchor="start" x="1982" y="-486.5" font-family="Helvetica,sans-Serif" font-size="10.00">/PO&#45;31/QtReports/qtreports</text>
<text text-anchor="middle" x="2047" y="-475.5" font-family="Helvetica,sans-Serif" font-size="10.00">/src/tags/statictext.hpp</text>
</g>
<!-- Node2 -->
<g id="node2" class="node"><title>Node2</title>
<g id="a_node2"><a xlink:href="band_8hpp.html" target="_top" xlink:title="/home/travis/build\l/PO&#45;31/QtReports/qtreports\l/src/tags/band.hpp">
<polygon fill="none" stroke="black" points="1640,-390.5 1640,-431.5 1786,-431.5 1786,-390.5 1640,-390.5"/>
<text text-anchor="start" x="1648" y="-419.5" font-family="Helvetica,sans-Serif" font-size="10.00">/home/travis/build</text>
<text text-anchor="start" x="1648" y="-408.5" font-family="Helvetica,sans-Serif" font-size="10.00">/PO&#45;31/QtReports/qtreports</text>
<text text-anchor="middle" x="1713" y="-397.5" font-family="Helvetica,sans-Serif" font-size="10.00">/src/tags/band.hpp</text>
</a>
</g>
</g>
<!-- Node1&#45;&gt;Node2 -->
<g id="edge1" class="edge"><title>Node1&#45;&gt;Node2</title>
<path fill="none" stroke="midnightblue" d="M1963.71,-469.048C1909.15,-456.633 1838.51,-440.56 1786.13,-428.64"/>
<polygon fill="midnightblue" stroke="midnightblue" points="1963.17,-472.515 1973.7,-471.321 1964.73,-465.69 1963.17,-472.515"/>
</g>
<!-- Node15 -->
<g id="node15" class="node"><title>Node15</title>
<g id="a_node15"><a xlink:href="parserfromxml_8hpp.html" target="_top" xlink:title="/home/travis/build\l/PO&#45;31/QtReports/qtreports\l/src/parsers/parserfromxml.hpp">
<polygon fill="none" stroke="black" points="1222.5,-78.5 1222.5,-119.5 1389.5,-119.5 1389.5,-78.5 1222.5,-78.5"/>
<text text-anchor="start" x="1230.5" y="-107.5" font-family="Helvetica,sans-Serif" font-size="10.00">/home/travis/build</text>
<text text-anchor="start" x="1230.5" y="-96.5" font-family="Helvetica,sans-Serif" font-size="10.00">/PO&#45;31/QtReports/qtreports</text>
<text text-anchor="middle" x="1306" y="-85.5" font-family="Helvetica,sans-Serif" font-size="10.00">/src/parsers/parserfromxml.hpp</text>
</a>
</g>
</g>
<!-- Node1&#45;&gt;Node15 -->
<g id="edge47" class="edge"><title>Node1&#45;&gt;Node15</title>
<path fill="none" stroke="midnightblue" d="M2047,-457.91C2047,-426.868 2047,-377.049 2047,-334 2047,-334 2047,-334 2047,-254 2047,-208.041 2050.24,-184.267 2014,-156 1965.75,-118.366 1566.66,-105.425 1389.81,-101.511"/>
<polygon fill="midnightblue" stroke="midnightblue" points="2043.5,-458.065 2047,-468.065 2050.5,-458.065 2043.5,-458.065"/>
</g>
<!-- Node31 -->
<g id="node31" class="node"><title>Node31</title>
<g id="a_node31"><a xlink:href="statictext_8cpp.html" target="_top" xlink:title="/home/travis/build\l/PO&#45;31/QtReports/qtreports\l/src/tags/statictext.cpp">
<polygon fill="none" stroke="black" points="2075,-390.5 2075,-431.5 2221,-431.5 2221,-390.5 2075,-390.5"/>
<text text-anchor="start" x="2083" y="-419.5" font-family="Helvetica,sans-Serif" font-size="10.00">/home/travis/build</text>
<text text-anchor="start" x="2083" y="-408.5" font-family="Helvetica,sans-Serif" font-size="10.00">/PO&#45;31/QtReports/qtreports</text>
<text text-anchor="middle" x="2148" y="-397.5" font-family="Helvetica,sans-Serif" font-size="10.00">/src/tags/statictext.cpp</text>
</a>
</g>
</g>
<!-- Node1&#45;&gt;Node31 -->
<g id="edge48" class="edge"><title>Node1&#45;&gt;Node31</title>
<path fill="none" stroke="midnightblue" d="M2081.09,-462.35C2094.48,-452.272 2109.6,-440.893 2122.08,-431.506"/>
<polygon fill="midnightblue" stroke="midnightblue" points="2078.9,-459.619 2073.01,-468.428 2083.1,-465.212 2078.9,-459.619"/>
</g>
<!-- Node3 -->
<g id="node3" class="node"><title>Node3</title>
<g id="a_node3"><a xlink:href="section_8hpp.html" target="_top" xlink:title="/home/travis/build\l/PO&#45;31/QtReports/qtreports\l/src/tags/section.hpp">
<polygon fill="none" stroke="black" points="1324,-312.5 1324,-353.5 1470,-353.5 1470,-312.5 1324,-312.5"/>
<text text-anchor="start" x="1332" y="-341.5" font-family="Helvetica,sans-Serif" font-size="10.00">/home/travis/build</text>
<text text-anchor="start" x="1332" y="-330.5" font-family="Helvetica,sans-Serif" font-size="10.00">/PO&#45;31/QtReports/qtreports</text>
<text text-anchor="middle" x="1397" y="-319.5" font-family="Helvetica,sans-Serif" font-size="10.00">/src/tags/section.hpp</text>
</a>
</g>
</g>
<!-- Node2&#45;&gt;Node3 -->
<g id="edge2" class="edge"><title>Node2&#45;&gt;Node3</title>
<path fill="none" stroke="midnightblue" d="M1629.97,-390.03C1580.36,-378.099 1517.92,-363.081 1470.17,-351.597"/>
<polygon fill="midnightblue" stroke="midnightblue" points="1629.17,-393.438 1639.71,-392.373 1630.8,-386.632 1629.17,-393.438"/>
</g>
<!-- Node2&#45;&gt;Node15 -->
<g id="edge45" class="edge"><title>Node2&#45;&gt;Node15</title>
<path fill="none" stroke="midnightblue" d="M1774.58,-386.612C1879.61,-343.477 2074.25,-247.431 1990,-156 1950.06,-112.656 1563.21,-102.86 1389.6,-100.646"/>
<polygon fill="midnightblue" stroke="midnightblue" points="1772.96,-383.49 1765.01,-390.495 1775.6,-389.975 1772.96,-383.49"/>
</g>
<!-- Node30 -->
<g id="node30" class="node"><title>Node30</title>
<g id="a_node30"><a xlink:href="band_8cpp.html" target="_top" xlink:title="/home/travis/build\l/PO&#45;31/QtReports/qtreports\l/src/tags/band.cpp">
<polygon fill="none" stroke="black" points="1160,-312.5 1160,-353.5 1306,-353.5 1306,-312.5 1160,-312.5"/>
<text text-anchor="start" x="1168" y="-341.5" font-family="Helvetica,sans-Serif" font-size="10.00">/home/travis/build</text>
<text text-anchor="start" x="1168" y="-330.5" font-family="Helvetica,sans-Serif" font-size="10.00">/PO&#45;31/QtReports/qtreports</text>
<text text-anchor="middle" x="1233" y="-319.5" font-family="Helvetica,sans-Serif" font-size="10.00">/src/tags/band.cpp</text>
</a>
</g>
</g>
<!-- Node2&#45;&gt;Node30 -->
<g id="edge46" class="edge"><title>Node2&#45;&gt;Node30</title>
<path fill="none" stroke="midnightblue" d="M1629.53,-400.705C1548.73,-391.131 1422.94,-374.704 1315,-354 1312.12,-353.448 1309.19,-352.86 1306.24,-352.245"/>
<polygon fill="midnightblue" stroke="midnightblue" points="1629.31,-404.203 1639.65,-401.896 1630.13,-397.251 1629.31,-404.203"/>
</g>
<!-- Node4 -->
<g id="node4" class="node"><title>Node4</title>
<g id="a_node4"><a xlink:href="group_8hpp.html" target="_top" xlink:title="/home/travis/build\l/PO&#45;31/QtReports/qtreports\l/src/tags/group.hpp">
<polygon fill="none" stroke="black" points="1406,-234.5 1406,-275.5 1552,-275.5 1552,-234.5 1406,-234.5"/>
<text text-anchor="start" x="1414" y="-263.5" font-family="Helvetica,sans-Serif" font-size="10.00">/home/travis/build</text>
<text text-anchor="start" x="1414" y="-252.5" font-family="Helvetica,sans-Serif" font-size="10.00">/PO&#45;31/QtReports/qtreports</text>
<text text-anchor="middle" x="1479" y="-241.5" font-family="Helvetica,sans-Serif" font-size="10.00">/src/tags/group.hpp</text>
</a>
</g>
</g>
<!-- Node3&#45;&gt;Node4 -->
<g id="edge3" class="edge"><title>Node3&#45;&gt;Node4</title>
<path fill="none" stroke="midnightblue" d="M1425.6,-305.492C1436.24,-295.629 1448.11,-284.627 1457.95,-275.506"/>
<polygon fill="midnightblue" stroke="midnightblue" points="1423.07,-303.063 1418.12,-312.428 1427.83,-308.197 1423.07,-303.063"/>
</g>
<!-- Node13 -->
<g id="node13" class="node"><title>Node13</title>
<g id="a_node13"><a xlink:href="convertertopdf_8hpp.html" target="_top" xlink:title="/home/travis/build\l/PO&#45;31/QtReports/qtreports\l/src/converters/convertertopdf.hpp">
<polygon fill="none" stroke="black" points="613,-78.5 613,-119.5 795,-119.5 795,-78.5 613,-78.5"/>
<text text-anchor="start" x="621" y="-107.5" font-family="Helvetica,sans-Serif" font-size="10.00">/home/travis/build</text>
<text text-anchor="start" x="621" y="-96.5" font-family="Helvetica,sans-Serif" font-size="10.00">/PO&#45;31/QtReports/qtreports</text>
<text text-anchor="middle" x="704" y="-85.5" font-family="Helvetica,sans-Serif" font-size="10.00">/src/converters/convertertopdf.hpp</text>
</a>
</g>
</g>
<!-- Node3&#45;&gt;Node13 -->
<g id="edge39" class="edge"><title>Node3&#45;&gt;Node13</title>
<path fill="none" stroke="midnightblue" d="M1313.56,-312.075C1172.32,-295.036 848.757,-338.729 741,-276 705.204,-255.162 701.826,-237.695 690,-198 682.1,-171.481 689.674,-139.557 696.383,-119.515"/>
<polygon fill="midnightblue" stroke="midnightblue" points="1313.43,-315.59 1323.81,-313.471 1314.37,-308.654 1313.43,-315.59"/>
</g>
<!-- Node19 -->
<g id="node19" class="node"><title>Node19</title>
<g id="a_node19"><a xlink:href="title_8hpp.html" target="_top" xlink:title="/home/travis/build\l/PO&#45;31/QtReports/qtreports\l/src/tags/title.hpp">
<polygon fill="none" stroke="black" points="914,-234.5 914,-275.5 1060,-275.5 1060,-234.5 914,-234.5"/>
<text text-anchor="start" x="922" y="-263.5" font-family="Helvetica,sans-Serif" font-size="10.00">/home/travis/build</text>
<text text-anchor="start" x="922" y="-252.5" font-family="Helvetica,sans-Serif" font-size="10.00">/PO&#45;31/QtReports/qtreports</text>
<text text-anchor="middle" x="987" y="-241.5" font-family="Helvetica,sans-Serif" font-size="10.00">/src/tags/title.hpp</text>
</a>
</g>
</g>
<!-- Node3&#45;&gt;Node19 -->
<g id="edge27" class="edge"><title>Node3&#45;&gt;Node19</title>
<path fill="none" stroke="midnightblue" d="M1313.68,-311.837C1204.77,-291.227 1174.28,-296.496 1069,-276 1066.12,-275.44 1063.2,-274.845 1060.24,-274.225"/>
<polygon fill="midnightblue" stroke="midnightblue" points="1313.28,-315.324 1323.76,-313.775 1314.6,-308.45 1313.28,-315.324"/>
</g>
<!-- Node21 -->
<g id="node21" class="node"><title>Node21</title>
<g id="a_node21"><a xlink:href="detail_8hpp.html" target="_top" xlink:title="/home/travis/build\l/PO&#45;31/QtReports/qtreports\l/src/tags/detail.hpp">
<polygon fill="none" stroke="black" points="1078,-234.5 1078,-275.5 1224,-275.5 1224,-234.5 1078,-234.5"/>
<text text-anchor="start" x="1086" y="-263.5" font-family="Helvetica,sans-Serif" font-size="10.00">/home/travis/build</text>
<text text-anchor="start" x="1086" y="-252.5" font-family="Helvetica,sans-Serif" font-size="10.00">/PO&#45;31/QtReports/qtreports</text>
<text text-anchor="middle" x="1151" y="-241.5" font-family="Helvetica,sans-Serif" font-size="10.00">/src/tags/detail.hpp</text>
</a>
</g>
</g>
<!-- Node3&#45;&gt;Node21 -->
<g id="edge31" class="edge"><title>Node3&#45;&gt;Node21</title>
<path fill="none" stroke="midnightblue" d="M1323.98,-309.442C1289.07,-298.655 1247.68,-285.867 1214.14,-275.506"/>
<polygon fill="midnightblue" stroke="midnightblue" points="1323.06,-312.82 1333.65,-312.428 1325.13,-306.132 1323.06,-312.82"/>
</g>
<!-- Node23 -->
<g id="node23" class="node"><title>Node23</title>
<g id="a_node23"><a xlink:href="summary_8hpp.html" target="_top" xlink:title="/home/travis/build\l/PO&#45;31/QtReports/qtreports\l/src/tags/summary.hpp">
<polygon fill="none" stroke="black" points="1242,-234.5 1242,-275.5 1388,-275.5 1388,-234.5 1242,-234.5"/>
<text text-anchor="start" x="1250" y="-263.5" font-family="Helvetica,sans-Serif" font-size="10.00">/home/travis/build</text>
<text text-anchor="start" x="1250" y="-252.5" font-family="Helvetica,sans-Serif" font-size="10.00">/PO&#45;31/QtReports/qtreports</text>
<text text-anchor="middle" x="1315" y="-241.5" font-family="Helvetica,sans-Serif" font-size="10.00">/src/tags/summary.hpp</text>
</a>
</g>
</g>
<!-- Node3&#45;&gt;Node23 -->
<g id="edge35" class="edge"><title>Node3&#45;&gt;Node23</title>
<path fill="none" stroke="midnightblue" d="M1368.4,-305.492C1357.76,-295.629 1345.89,-284.627 1336.05,-275.506"/>
<polygon fill="midnightblue" stroke="midnightblue" points="1366.17,-308.197 1375.88,-312.428 1370.93,-303.063 1366.17,-308.197"/>
</g>
<!-- Node25 -->
<g id="node25" class="node"><title>Node25</title>
<g id="a_node25"><a xlink:href="columngroup_8hpp.html" target="_top" xlink:title="/home/travis/build\l/PO&#45;31/QtReports/qtreports\l/src/tags/columngroup.hpp">
<polygon fill="none" stroke="black" points="1595,-234.5 1595,-275.5 1741,-275.5 1741,-234.5 1595,-234.5"/>
<text text-anchor="start" x="1603" y="-263.5" font-family="Helvetica,sans-Serif" font-size="10.00">/home/travis/build</text>
<text text-anchor="start" x="1603" y="-252.5" font-family="Helvetica,sans-Serif" font-size="10.00">/PO&#45;31/QtReports/qtreports</text>
<text text-anchor="middle" x="1668" y="-241.5" font-family="Helvetica,sans-Serif" font-size="10.00">/src/tags/columngroup.hpp</text>
</a>
</g>
</g>
<!-- Node3&#45;&gt;Node25 -->
<g id="edge40" class="edge"><title>Node3&#45;&gt;Node25</title>
<path fill="none" stroke="midnightblue" d="M1476.45,-309.718C1515.12,-298.874 1561.18,-285.956 1598.45,-275.506"/>
<polygon fill="midnightblue" stroke="midnightblue" points="1475.47,-306.358 1466.79,-312.428 1477.36,-313.098 1475.47,-306.358"/>
</g>
<!-- Node27 -->
<g id="node27" class="node"><title>Node27</title>
<g id="a_node27"><a xlink:href="rowgroup_8hpp.html" target="_top" xlink:title="/home/travis/build\l/PO&#45;31/QtReports/qtreports\l/src/tags/rowgroup.hpp">
<polygon fill="none" stroke="black" points="1809,-234.5 1809,-275.5 1955,-275.5 1955,-234.5 1809,-234.5"/>
<text text-anchor="start" x="1817" y="-263.5" font-family="Helvetica,sans-Serif" font-size="10.00">/home/travis/build</text>
<text text-anchor="start" x="1817" y="-252.5" font-family="Helvetica,sans-Serif" font-size="10.00">/PO&#45;31/QtReports/qtreports</text>
<text text-anchor="middle" x="1882" y="-241.5" font-family="Helvetica,sans-Serif" font-size="10.00">/src/tags/rowgroup.hpp</text>
</a>
</g>
</g>
<!-- Node3&#45;&gt;Node27 -->
<g id="edge42" class="edge"><title>Node3&#45;&gt;Node27</title>
<path fill="none" stroke="midnightblue" d="M1480.29,-318.948C1572.72,-304.464 1720.45,-281.315 1808.67,-267.491"/>
<polygon fill="midnightblue" stroke="midnightblue" points="1479.47,-315.534 1470.13,-320.54 1480.56,-322.449 1479.47,-315.534"/>
</g>
<!-- Node29 -->
<g id="node29" class="node"><title>Node29</title>
<g id="a_node29"><a xlink:href="section_8cpp.html" target="_top" xlink:title="/home/travis/build\l/PO&#45;31/QtReports/qtreports\l/src/tags/section.cpp">
<polygon fill="none" stroke="black" points="750,-234.5 750,-275.5 896,-275.5 896,-234.5 750,-234.5"/>
<text text-anchor="start" x="758" y="-263.5" font-family="Helvetica,sans-Serif" font-size="10.00">/home/travis/build</text>
<text text-anchor="start" x="758" y="-252.5" font-family="Helvetica,sans-Serif" font-size="10.00">/PO&#45;31/QtReports/qtreports</text>
<text text-anchor="middle" x="823" y="-241.5" font-family="Helvetica,sans-Serif" font-size="10.00">/src/tags/section.cpp</text>
</a>
</g>
</g>
<!-- Node3&#45;&gt;Node29 -->
<g id="edge44" class="edge"><title>Node3&#45;&gt;Node29</title>
<path fill="none" stroke="midnightblue" d="M1313.67,-311.918C1132.7,-283.074 1082.23,-305.22 905,-276 902.108,-275.523 899.168,-274.999 896.204,-274.437"/>
<polygon fill="midnightblue" stroke="midnightblue" points="1313.36,-315.414 1323.8,-313.563 1314.49,-308.504 1313.36,-315.414"/>
</g>
<!-- Node5 -->
<g id="node5" class="node"><title>Node5</title>
<g id="a_node5"><a xlink:href="report_8hpp.html" target="_top" xlink:title="/home/travis/build\l/PO&#45;31/QtReports/qtreports\l/src/tags/report.hpp">
<polygon fill="none" stroke="black" points="863,-156.5 863,-197.5 1009,-197.5 1009,-156.5 863,-156.5"/>
<text text-anchor="start" x="871" y="-185.5" font-family="Helvetica,sans-Serif" font-size="10.00">/home/travis/build</text>
<text text-anchor="start" x="871" y="-174.5" font-family="Helvetica,sans-Serif" font-size="10.00">/PO&#45;31/QtReports/qtreports</text>
<text text-anchor="middle" x="936" y="-163.5" font-family="Helvetica,sans-Serif" font-size="10.00">/src/tags/report.hpp</text>
</a>
</g>
</g>
<!-- Node4&#45;&gt;Node5 -->
<g id="edge4" class="edge"><title>Node4&#45;&gt;Node5</title>
<path fill="none" stroke="midnightblue" d="M1395.7,-233.892C1245.09,-208.329 1203.76,-218.095 1056,-198 1040.83,-195.937 1024.62,-193.438 1009.19,-190.916"/>
<polygon fill="midnightblue" stroke="midnightblue" points="1395.34,-237.38 1405.78,-235.628 1396.52,-230.481 1395.34,-237.38"/>
</g>
<!-- Node4&#45;&gt;Node15 -->
<g id="edge25" class="edge"><title>Node4&#45;&gt;Node15</title>
<path fill="none" stroke="midnightblue" d="M1480.56,-224.144C1480.08,-202.823 1475.98,-174.716 1460,-156 1442.08,-135.015 1415.63,-121.892 1389.69,-113.687"/>
<polygon fill="midnightblue" stroke="midnightblue" points="1477.06,-224.282 1480.53,-234.291 1484.06,-224.301 1477.06,-224.282"/>
</g>
<!-- Node18 -->
<g id="node18" class="node"><title>Node18</title>
<g id="a_node18"><a xlink:href="group_8cpp.html" target="_top" xlink:title="/home/travis/build\l/PO&#45;31/QtReports/qtreports\l/src/tags/group.cpp">
<polygon fill="none" stroke="black" points="1507,-156.5 1507,-197.5 1653,-197.5 1653,-156.5 1507,-156.5"/>
<text text-anchor="start" x="1515" y="-185.5" font-family="Helvetica,sans-Serif" font-size="10.00">/home/travis/build</text>
<text text-anchor="start" x="1515" y="-174.5" font-family="Helvetica,sans-Serif" font-size="10.00">/PO&#45;31/QtReports/qtreports</text>
<text text-anchor="middle" x="1580" y="-163.5" font-family="Helvetica,sans-Serif" font-size="10.00">/src/tags/group.cpp</text>
</a>
</g>
</g>
<!-- Node4&#45;&gt;Node18 -->
<g id="edge26" class="edge"><title>Node4&#45;&gt;Node18</title>
<path fill="none" stroke="midnightblue" d="M1513.09,-228.35C1526.48,-218.272 1541.6,-206.893 1554.08,-197.506"/>
<polygon fill="midnightblue" stroke="midnightblue" points="1510.9,-225.619 1505.01,-234.428 1515.1,-231.212 1510.9,-225.619"/>
</g>
<!-- Node6 -->
<g id="node6" class="node"><title>Node6</title>
<g id="a_node6"><a xlink:href="convertertohtml_8hpp.html" target="_top" xlink:title="/home/travis/build\l/PO&#45;31/QtReports/qtreports\l/src/converters/convertertohtml.hpp">
<polygon fill="none" stroke="black" points="813.5,-78.5 813.5,-119.5 1002.5,-119.5 1002.5,-78.5 813.5,-78.5"/>
<text text-anchor="start" x="821.5" y="-107.5" font-family="Helvetica,sans-Serif" font-size="10.00">/home/travis/build</text>
<text text-anchor="start" x="821.5" y="-96.5" font-family="Helvetica,sans-Serif" font-size="10.00">/PO&#45;31/QtReports/qtreports</text>
<text text-anchor="middle" x="908" y="-85.5" font-family="Helvetica,sans-Serif" font-size="10.00">/src/converters/convertertohtml.hpp</text>
</a>
</g>
</g>
<!-- Node5&#45;&gt;Node6 -->
<g id="edge5" class="edge"><title>Node5&#45;&gt;Node6</title>
<path fill="none" stroke="midnightblue" d="M925.272,-146.882C921.897,-137.721 918.253,-127.83 915.186,-119.506"/>
<polygon fill="midnightblue" stroke="midnightblue" points="922.048,-148.255 928.789,-156.428 928.616,-145.835 922.048,-148.255"/>
</g>
<!-- Node8 -->
<g id="node8" class="node"><title>Node8</title>
<g id="a_node8"><a xlink:href="engine_8cpp.html" target="_top" xlink:title="/home/travis/build\l/PO&#45;31/QtReports/qtreports\l/src/engine.cpp">
<polygon fill="none" stroke="black" points="835,-0.5 835,-41.5 981,-41.5 981,-0.5 835,-0.5"/>
<text text-anchor="start" x="843" y="-29.5" font-family="Helvetica,sans-Serif" font-size="10.00">/home/travis/build</text>
<text text-anchor="start" x="843" y="-18.5" font-family="Helvetica,sans-Serif" font-size="10.00">/PO&#45;31/QtReports/qtreports</text>
<text text-anchor="middle" x="908" y="-7.5" font-family="Helvetica,sans-Serif" font-size="10.00">/src/engine.cpp</text>
</a>
</g>
</g>
<!-- Node5&#45;&gt;Node8 -->
<g id="edge23" class="edge"><title>Node5&#45;&gt;Node8</title>
<path fill="none" stroke="midnightblue" d="M1019.24,-156.733C1088.44,-140.693 1175.68,-120.404 1176,-120 1187.6,-105.378 1187.77,-92.4864 1176,-78 1151.83,-48.2589 1051.78,-33.7665 981.029,-27.1128"/>
<polygon fill="midnightblue" stroke="midnightblue" points="1018.13,-153.398 1009.18,-159.065 1019.71,-160.217 1018.13,-153.398"/>
</g>
<!-- Node9 -->
<g id="node9" class="node"><title>Node9</title>
<g id="a_node9"><a xlink:href="replacer_8hpp.html" target="_top" xlink:title="/home/travis/build\l/PO&#45;31/QtReports/qtreports\l/src/converters/utils/replacer.hpp">
<polygon fill="none" stroke="black" points="199.5,-78.5 199.5,-119.5 372.5,-119.5 372.5,-78.5 199.5,-78.5"/>
<text text-anchor="start" x="207.5" y="-107.5" font-family="Helvetica,sans-Serif" font-size="10.00">/home/travis/build</text>
<text text-anchor="start" x="207.5" y="-96.5" font-family="Helvetica,sans-Serif" font-size="10.00">/PO&#45;31/QtReports/qtreports</text>
<text text-anchor="middle" x="286" y="-85.5" font-family="Helvetica,sans-Serif" font-size="10.00">/src/converters/utils/replacer.hpp</text>
</a>
</g>
</g>
<!-- Node5&#45;&gt;Node9 -->
<g id="edge8" class="edge"><title>Node5&#45;&gt;Node9</title>
<path fill="none" stroke="midnightblue" d="M852.767,-155.945C644.438,-123.78 587.051,-149.055 382,-120 378.882,-119.558 375.713,-119.076 372.517,-118.561"/>
<polygon fill="midnightblue" stroke="midnightblue" points="852.381,-159.427 862.803,-157.52 853.466,-152.512 852.381,-159.427"/>
</g>
<!-- Node5&#45;&gt;Node13 -->
<g id="edge13" class="edge"><title>Node5&#45;&gt;Node13</title>
<path fill="none" stroke="midnightblue" d="M866.717,-153.304C833.877,-142.546 795.038,-129.823 763.543,-119.506"/>
<polygon fill="midnightblue" stroke="midnightblue" points="865.662,-156.641 876.254,-156.428 867.841,-149.989 865.662,-156.641"/>
</g>
<!-- Node14 -->
<g id="node14" class="node"><title>Node14</title>
<g id="a_node14"><a xlink:href="convertertoqwidget_8hpp.html" target="_top" xlink:title="/home/travis/build\l/PO&#45;31/QtReports/qtreports\l/src/converters/convertertoqwidget.hpp">
<polygon fill="none" stroke="black" points="391,-78.5 391,-119.5 595,-119.5 595,-78.5 391,-78.5"/>
<text text-anchor="start" x="399" y="-107.5" font-family="Helvetica,sans-Serif" font-size="10.00">/home/travis/build</text>
<text text-anchor="start" x="399" y="-96.5" font-family="Helvetica,sans-Serif" font-size="10.00">/PO&#45;31/QtReports/qtreports</text>
<text text-anchor="middle" x="493" y="-85.5" font-family="Helvetica,sans-Serif" font-size="10.00">/src/converters/convertertoqwidget.hpp</text>
</a>
</g>
</g>
<!-- Node5&#45;&gt;Node14 -->
<g id="edge16" class="edge"><title>Node5&#45;&gt;Node14</title>
<path fill="none" stroke="midnightblue" d="M852.864,-155.867C742.08,-134.844 711.674,-137.447 604,-120 601.101,-119.53 598.16,-119.047 595.193,-118.553"/>
<polygon fill="midnightblue" stroke="midnightblue" points="852.279,-159.319 862.759,-157.767 853.598,-152.444 852.279,-159.319"/>
</g>
<!-- Node5&#45;&gt;Node15 -->
<g id="edge20" class="edge"><title>Node5&#45;&gt;Node15</title>
<path fill="none" stroke="midnightblue" d="M1019.13,-156.823C1020.43,-156.545 1021.72,-156.271 1023,-156 1105.38,-138.565 1126.43,-136.502 1209,-120 1213.38,-119.124 1217.88,-118.219 1222.41,-117.301"/>
<polygon fill="midnightblue" stroke="midnightblue" points="1018.09,-153.468 1009.06,-159.011 1019.58,-160.309 1018.09,-153.468"/>
</g>
<!-- Node17 -->
<g id="node17" class="node"><title>Node17</title>
<g id="a_node17"><a xlink:href="report_8cpp.html" target="_top" xlink:title="/home/travis/build\l/PO&#45;31/QtReports/qtreports\l/src/tags/report.cpp">
<polygon fill="none" stroke="black" points="1021,-78.5 1021,-119.5 1167,-119.5 1167,-78.5 1021,-78.5"/>
<text text-anchor="start" x="1029" y="-107.5" font-family="Helvetica,sans-Serif" font-size="10.00">/home/travis/build</text>
<text text-anchor="start" x="1029" y="-96.5" font-family="Helvetica,sans-Serif" font-size="10.00">/PO&#45;31/QtReports/qtreports</text>
<text text-anchor="middle" x="1094" y="-85.5" font-family="Helvetica,sans-Serif" font-size="10.00">/src/tags/report.cpp</text>
</a>
</g>
</g>
<!-- Node5&#45;&gt;Node17 -->
<g id="edge24" class="edge"><title>Node5&#45;&gt;Node17</title>
<path fill="none" stroke="midnightblue" d="M985.794,-152.049C1007.59,-141.566 1032.83,-129.424 1053.45,-119.506"/>
<polygon fill="midnightblue" stroke="midnightblue" points="984.183,-148.939 976.689,-156.428 987.218,-155.247 984.183,-148.939"/>
</g>
<!-- Node7 -->
<g id="node7" class="node"><title>Node7</title>
<g id="a_node7"><a xlink:href="convertertohtml_8cpp.html" target="_top" xlink:title="/home/travis/build\l/PO&#45;31/QtReports/qtreports\l/src/converters/convertertohtml.cpp">
<polygon fill="none" stroke="black" points="623,-0.5 623,-41.5 811,-41.5 811,-0.5 623,-0.5"/>
<text text-anchor="start" x="631" y="-29.5" font-family="Helvetica,sans-Serif" font-size="10.00">/home/travis/build</text>
<text text-anchor="start" x="631" y="-18.5" font-family="Helvetica,sans-Serif" font-size="10.00">/PO&#45;31/QtReports/qtreports</text>
<text text-anchor="middle" x="717" y="-7.5" font-family="Helvetica,sans-Serif" font-size="10.00">/src/converters/convertertohtml.cpp</text>
</a>
</g>
</g>
<!-- Node6&#45;&gt;Node7 -->
<g id="edge6" class="edge"><title>Node6&#45;&gt;Node7</title>
<path fill="none" stroke="midnightblue" d="M849.214,-74.6086C822.555,-64.0008 791.393,-51.6015 766.021,-41.5056"/>
<polygon fill="midnightblue" stroke="midnightblue" points="848.227,-77.9829 858.813,-78.4281 850.815,-71.4789 848.227,-77.9829"/>
</g>
<!-- Node6&#45;&gt;Node8 -->
<g id="edge7" class="edge"><title>Node6&#45;&gt;Node8</title>
<path fill="none" stroke="midnightblue" d="M908,-68.2965C908,-59.3009 908,-49.6532 908,-41.5056"/>
<polygon fill="midnightblue" stroke="midnightblue" points="904.5,-68.4281 908,-78.4281 911.5,-68.4281 904.5,-68.4281"/>
</g>
<!-- Node9&#45;&gt;Node7 -->
<g id="edge9" class="edge"><title>Node9&#45;&gt;Node7</title>
<path fill="none" stroke="midnightblue" d="M382.611,-77.9242C480.643,-59.8212 506.865,-57.852 601,-42 608.154,-40.7953 615.555,-39.5401 622.996,-38.2716"/>
<polygon fill="midnightblue" stroke="midnightblue" points="381.767,-74.521 372.574,-79.7874 383.044,-81.4034 381.767,-74.521"/>
</g>
<!-- Node10 -->
<g id="node10" class="node"><title>Node10</title>
<g id="a_node10"><a xlink:href="convertertopdf_8cpp.html" target="_top" xlink:title="/home/travis/build\l/PO&#45;31/QtReports/qtreports\l/src/converters/convertertopdf.cpp">
<polygon fill="none" stroke="black" points="411.5,-0.5 411.5,-41.5 592.5,-41.5 592.5,-0.5 411.5,-0.5"/>
<text text-anchor="start" x="419.5" y="-29.5" font-family="Helvetica,sans-Serif" font-size="10.00">/home/travis/build</text>
<text text-anchor="start" x="419.5" y="-18.5" font-family="Helvetica,sans-Serif" font-size="10.00">/PO&#45;31/QtReports/qtreports</text>
<text text-anchor="middle" x="502" y="-7.5" font-family="Helvetica,sans-Serif" font-size="10.00">/src/converters/convertertopdf.cpp</text>
</a>
</g>
</g>
<!-- Node9&#45;&gt;Node10 -->
<g id="edge10" class="edge"><title>Node9&#45;&gt;Node10</title>
<path fill="none" stroke="midnightblue" d="M351.293,-75.0264C381.701,-64.3275 417.492,-51.7343 446.563,-41.5056"/>
<polygon fill="midnightblue" stroke="midnightblue" points="349.897,-71.8074 341.625,-78.4281 352.22,-78.4106 349.897,-71.8074"/>
</g>
<!-- Node11 -->
<g id="node11" class="node"><title>Node11</title>
<g id="a_node11"><a xlink:href="convertertoqwidget_8cpp.html" target="_top" xlink:title="/home/travis/build\l/PO&#45;31/QtReports/qtreports\l/src/converters/convertertoqwidget.cpp">
<polygon fill="none" stroke="black" points="190.5,-0.5 190.5,-41.5 393.5,-41.5 393.5,-0.5 190.5,-0.5"/>
<text text-anchor="start" x="198.5" y="-29.5" font-family="Helvetica,sans-Serif" font-size="10.00">/home/travis/build</text>
<text text-anchor="start" x="198.5" y="-18.5" font-family="Helvetica,sans-Serif" font-size="10.00">/PO&#45;31/QtReports/qtreports</text>
<text text-anchor="middle" x="292" y="-7.5" font-family="Helvetica,sans-Serif" font-size="10.00">/src/converters/convertertoqwidget.cpp</text>
</a>
</g>
</g>
<!-- Node9&#45;&gt;Node11 -->
<g id="edge11" class="edge"><title>Node9&#45;&gt;Node11</title>
<path fill="none" stroke="midnightblue" d="M288.345,-68.2965C289.055,-59.3009 289.817,-49.6532 290.46,-41.5056"/>
<polygon fill="midnightblue" stroke="midnightblue" points="284.843,-68.1836 287.545,-78.4281 291.821,-68.7346 284.843,-68.1836"/>
</g>
<!-- Node12 -->
<g id="node12" class="node"><title>Node12</title>
<g id="a_node12"><a xlink:href="replacer_8cpp.html" target="_top" xlink:title="/home/travis/build\l/PO&#45;31/QtReports/qtreports\l/src/converters/utils/replacer.cpp">
<polygon fill="none" stroke="black" points="0,-0.5 0,-41.5 172,-41.5 172,-0.5 0,-0.5"/>
<text text-anchor="start" x="8" y="-29.5" font-family="Helvetica,sans-Serif" font-size="10.00">/home/travis/build</text>
<text text-anchor="start" x="8" y="-18.5" font-family="Helvetica,sans-Serif" font-size="10.00">/PO&#45;31/QtReports/qtreports</text>
<text text-anchor="middle" x="86" y="-7.5" font-family="Helvetica,sans-Serif" font-size="10.00">/src/converters/utils/replacer.cpp</text>
</a>
</g>
</g>
<!-- Node9&#45;&gt;Node12 -->
<g id="edge12" class="edge"><title>Node9&#45;&gt;Node12</title>
<path fill="none" stroke="midnightblue" d="M224.811,-74.7481C196.815,-64.1096 164.015,-51.6458 137.33,-41.5056"/>
<polygon fill="midnightblue" stroke="midnightblue" points="223.904,-78.1476 234.495,-78.4281 226.39,-71.6041 223.904,-78.1476"/>
</g>
<!-- Node13&#45;&gt;Node8 -->
<g id="edge15" class="edge"><title>Node13&#45;&gt;Node8</title>
<path fill="none" stroke="midnightblue" d="M766.039,-74.8874C794.677,-64.2185 828.306,-51.6901 855.643,-41.5056"/>
<polygon fill="midnightblue" stroke="midnightblue" points="764.684,-71.6572 756.535,-78.4281 767.128,-78.2167 764.684,-71.6572"/>
</g>
<!-- Node13&#45;&gt;Node10 -->
<g id="edge14" class="edge"><title>Node13&#45;&gt;Node10</title>
<path fill="none" stroke="midnightblue" d="M642.569,-74.8874C614.212,-64.2185 580.913,-51.6901 553.844,-41.5056"/>
<polygon fill="midnightblue" stroke="midnightblue" points="641.388,-78.1825 651.98,-78.4281 643.853,-71.6308 641.388,-78.1825"/>
</g>
<!-- Node14&#45;&gt;Node8 -->
<g id="edge19" class="edge"><title>Node14&#45;&gt;Node8</title>
<path fill="none" stroke="midnightblue" d="M605.084,-77.83C701.553,-61.3145 727.585,-60.1869 820,-42 824.765,-41.0622 829.667,-40.0582 834.602,-39.0179"/>
<polygon fill="midnightblue" stroke="midnightblue" points="604.467,-74.3845 595.207,-79.5323 605.656,-81.2828 604.467,-74.3845"/>
</g>
<!-- Node14&#45;&gt;Node10 -->
<g id="edge17" class="edge"><title>Node14&#45;&gt;Node10</title>
<path fill="none" stroke="midnightblue" d="M496.518,-68.2965C497.583,-59.3009 498.725,-49.6532 499.69,-41.5056"/>
<polygon fill="midnightblue" stroke="midnightblue" points="493.018,-68.0859 495.318,-78.4281 499.97,-68.9091 493.018,-68.0859"/>
</g>
<!-- Node14&#45;&gt;Node11 -->
<g id="edge18" class="edge"><title>Node14&#45;&gt;Node11</title>
<path fill="none" stroke="midnightblue" d="M431.873,-74.8874C403.657,-64.2185 370.522,-51.6901 343.587,-41.5056"/>
<polygon fill="midnightblue" stroke="midnightblue" points="430.646,-78.1651 441.238,-78.4281 433.122,-71.6175 430.646,-78.1651"/>
</g>
<!-- Node15&#45;&gt;Node8 -->
<g id="edge21" class="edge"><title>Node15&#45;&gt;Node8</title>
<path fill="none" stroke="midnightblue" d="M1212.31,-78.6509C1211.2,-78.4321 1210.1,-78.2151 1209,-78 1131.28,-62.7596 1042.07,-46.2894 981.063,-35.1838"/>
<polygon fill="midnightblue" stroke="midnightblue" points="1211.93,-82.1441 1222.42,-80.6602 1213.3,-75.2783 1211.93,-82.1441"/>
</g>
<!-- Node16 -->
<g id="node16" class="node"><title>Node16</title>
<g id="a_node16"><a xlink:href="parserfromxml_8cpp.html" target="_top" xlink:title="/home/travis/build\l/PO&#45;31/QtReports/qtreports\l/src/parsers/parserfromxml.cpp">
<polygon fill="none" stroke="black" points="1222.5,-0.5 1222.5,-41.5 1389.5,-41.5 1389.5,-0.5 1222.5,-0.5"/>
<text text-anchor="start" x="1230.5" y="-29.5" font-family="Helvetica,sans-Serif" font-size="10.00">/home/travis/build</text>
<text text-anchor="start" x="1230.5" y="-18.5" font-family="Helvetica,sans-Serif" font-size="10.00">/PO&#45;31/QtReports/qtreports</text>
<text text-anchor="middle" x="1306" y="-7.5" font-family="Helvetica,sans-Serif" font-size="10.00">/src/parsers/parserfromxml.cpp</text>
</a>
</g>
</g>
<!-- Node15&#45;&gt;Node16 -->
<g id="edge22" class="edge"><title>Node15&#45;&gt;Node16</title>
<path fill="none" stroke="midnightblue" d="M1306,-68.2965C1306,-59.3009 1306,-49.6532 1306,-41.5056"/>
<polygon fill="midnightblue" stroke="midnightblue" points="1302.5,-68.4281 1306,-78.4281 1309.5,-68.4281 1302.5,-68.4281"/>
</g>
<!-- Node19&#45;&gt;Node5 -->
<g id="edge28" class="edge"><title>Node19&#45;&gt;Node5</title>
<path fill="none" stroke="midnightblue" d="M968.242,-226.048C961.88,-216.566 954.913,-206.185 949.089,-197.506"/>
<polygon fill="midnightblue" stroke="midnightblue" points="965.388,-228.075 973.866,-234.428 971.2,-224.174 965.388,-228.075"/>
</g>
<!-- Node19&#45;&gt;Node15 -->
<g id="edge29" class="edge"><title>Node19&#45;&gt;Node15</title>
<path fill="none" stroke="midnightblue" d="M1003.75,-225.651C1019.41,-200.07 1042.38,-165.097 1056,-156 1070.03,-146.628 1155.27,-128.69 1222.37,-115.634"/>
<polygon fill="midnightblue" stroke="midnightblue" points="1000.73,-223.883 998.542,-234.25 1006.72,-227.51 1000.73,-223.883"/>
</g>
<!-- Node20 -->
<g id="node20" class="node"><title>Node20</title>
<g id="a_node20"><a xlink:href="title_8cpp.html" target="_top" xlink:title="/home/travis/build\l/PO&#45;31/QtReports/qtreports\l/src/tags/title.cpp">
<polygon fill="none" stroke="black" points="699,-156.5 699,-197.5 845,-197.5 845,-156.5 699,-156.5"/>
<text text-anchor="start" x="707" y="-185.5" font-family="Helvetica,sans-Serif" font-size="10.00">/home/travis/build</text>
<text text-anchor="start" x="707" y="-174.5" font-family="Helvetica,sans-Serif" font-size="10.00">/PO&#45;31/QtReports/qtreports</text>
<text text-anchor="middle" x="772" y="-163.5" font-family="Helvetica,sans-Serif" font-size="10.00">/src/tags/title.cpp</text>
</a>
</g>
</g>
<!-- Node19&#45;&gt;Node20 -->
<g id="edge30" class="edge"><title>Node19&#45;&gt;Node20</title>
<path fill="none" stroke="midnightblue" d="M922.009,-231.026C891.742,-220.328 856.117,-207.734 827.18,-197.506"/>
<polygon fill="midnightblue" stroke="midnightblue" points="921.037,-234.395 931.632,-234.428 923.37,-227.795 921.037,-234.395"/>
</g>
<!-- Node21&#45;&gt;Node5 -->
<g id="edge32" class="edge"><title>Node21&#45;&gt;Node5</title>
<path fill="none" stroke="midnightblue" d="M1086.01,-231.026C1055.74,-220.328 1020.12,-207.734 991.18,-197.506"/>
<polygon fill="midnightblue" stroke="midnightblue" points="1085.04,-234.395 1095.63,-234.428 1087.37,-227.795 1085.04,-234.395"/>
</g>
<!-- Node21&#45;&gt;Node15 -->
<g id="edge33" class="edge"><title>Node21&#45;&gt;Node15</title>
<path fill="none" stroke="midnightblue" d="M1185.46,-227.912C1196.81,-218.834 1209.26,-208.329 1220,-198 1246.42,-172.574 1273.84,-140.084 1290.42,-119.651"/>
<polygon fill="midnightblue" stroke="midnightblue" points="1183.12,-225.305 1177.43,-234.247 1187.45,-230.8 1183.12,-225.305"/>
</g>
<!-- Node22 -->
<g id="node22" class="node"><title>Node22</title>
<g id="a_node22"><a xlink:href="detail_8cpp.html" target="_top" xlink:title="/home/travis/build\l/PO&#45;31/QtReports/qtreports\l/src/tags/detail.cpp">
<polygon fill="none" stroke="black" points="1065,-156.5 1065,-197.5 1211,-197.5 1211,-156.5 1065,-156.5"/>
<text text-anchor="start" x="1073" y="-185.5" font-family="Helvetica,sans-Serif" font-size="10.00">/home/travis/build</text>
<text text-anchor="start" x="1073" y="-174.5" font-family="Helvetica,sans-Serif" font-size="10.00">/PO&#45;31/QtReports/qtreports</text>
<text text-anchor="middle" x="1138" y="-163.5" font-family="Helvetica,sans-Serif" font-size="10.00">/src/tags/detail.cpp</text>
</a>
</g>
</g>
<!-- Node21&#45;&gt;Node22 -->
<g id="edge34" class="edge"><title>Node21&#45;&gt;Node22</title>
<path fill="none" stroke="midnightblue" d="M1145.92,-224.297C1144.38,-215.301 1142.73,-205.653 1141.34,-197.506"/>
<polygon fill="midnightblue" stroke="midnightblue" points="1142.52,-225.161 1147.65,-234.428 1149.42,-223.981 1142.52,-225.161"/>
</g>
<!-- Node23&#45;&gt;Node5 -->
<g id="edge36" class="edge"><title>Node23&#45;&gt;Node5</title>
<path fill="none" stroke="midnightblue" d="M1231.78,-233.784C1150.17,-216.316 1067.04,-200.972 1009.14,-190.68"/>
<polygon fill="midnightblue" stroke="midnightblue" points="1231.21,-237.242 1241.73,-235.925 1232.69,-230.399 1231.21,-237.242"/>
</g>
<!-- Node23&#45;&gt;Node15 -->
<g id="edge37" class="edge"><title>Node23&#45;&gt;Node15</title>
<path fill="none" stroke="midnightblue" d="M1303.13,-224.937C1300.2,-216.404 1297.48,-206.955 1296,-198 1291.54,-171.002 1296.56,-139.47 1300.96,-119.618"/>
<polygon fill="midnightblue" stroke="midnightblue" points="1299.89,-226.258 1306.61,-234.449 1306.46,-223.855 1299.89,-226.258"/>
</g>
<!-- Node24 -->
<g id="node24" class="node"><title>Node24</title>
<g id="a_node24"><a xlink:href="summary_8cpp.html" target="_top" xlink:title="/home/travis/build\l/PO&#45;31/QtReports/qtreports\l/src/tags/summary.cpp">
<polygon fill="none" stroke="black" points="1305,-156.5 1305,-197.5 1451,-197.5 1451,-156.5 1305,-156.5"/>
<text text-anchor="start" x="1313" y="-185.5" font-family="Helvetica,sans-Serif" font-size="10.00">/home/travis/build</text>
<text text-anchor="start" x="1313" y="-174.5" font-family="Helvetica,sans-Serif" font-size="10.00">/PO&#45;31/QtReports/qtreports</text>
<text text-anchor="middle" x="1378" y="-163.5" font-family="Helvetica,sans-Serif" font-size="10.00">/src/tags/summary.cpp</text>
</a>
</g>
</g>
<!-- Node23&#45;&gt;Node24 -->
<g id="edge38" class="edge"><title>Node23&#45;&gt;Node24</title>
<path fill="none" stroke="midnightblue" d="M1337.69,-226.627C1345.68,-216.99 1354.49,-206.362 1361.83,-197.506"/>
<polygon fill="midnightblue" stroke="midnightblue" points="1334.91,-224.496 1331.22,-234.428 1340.3,-228.963 1334.91,-224.496"/>
</g>
<!-- Node26 -->
<g id="node26" class="node"><title>Node26</title>
<g id="a_node26"><a xlink:href="columngroup_8cpp.html" target="_top" xlink:title="/home/travis/build\l/PO&#45;31/QtReports/qtreports\l/src/tags/columngroup.cpp">
<polygon fill="none" stroke="black" points="1671,-156.5 1671,-197.5 1817,-197.5 1817,-156.5 1671,-156.5"/>
<text text-anchor="start" x="1679" y="-185.5" font-family="Helvetica,sans-Serif" font-size="10.00">/home/travis/build</text>
<text text-anchor="start" x="1679" y="-174.5" font-family="Helvetica,sans-Serif" font-size="10.00">/PO&#45;31/QtReports/qtreports</text>
<text text-anchor="middle" x="1744" y="-163.5" font-family="Helvetica,sans-Serif" font-size="10.00">/src/tags/columngroup.cpp</text>
</a>
</g>
</g>
<!-- Node25&#45;&gt;Node26 -->
<g id="edge41" class="edge"><title>Node25&#45;&gt;Node26</title>
<path fill="none" stroke="midnightblue" d="M1694.8,-227.204C1704.58,-217.416 1715.46,-206.539 1724.49,-197.506"/>
<polygon fill="midnightblue" stroke="midnightblue" points="1692.17,-224.882 1687.57,-234.428 1697.12,-229.832 1692.17,-224.882"/>
</g>
<!-- Node28 -->
<g id="node28" class="node"><title>Node28</title>
<g id="a_node28"><a xlink:href="rowgroup_8cpp.html" target="_top" xlink:title="/home/travis/build\l/PO&#45;31/QtReports/qtreports\l/src/tags/rowgroup.cpp">
<polygon fill="none" stroke="black" points="1835,-156.5 1835,-197.5 1981,-197.5 1981,-156.5 1835,-156.5"/>
<text text-anchor="start" x="1843" y="-185.5" font-family="Helvetica,sans-Serif" font-size="10.00">/home/travis/build</text>
<text text-anchor="start" x="1843" y="-174.5" font-family="Helvetica,sans-Serif" font-size="10.00">/PO&#45;31/QtReports/qtreports</text>
<text text-anchor="middle" x="1908" y="-163.5" font-family="Helvetica,sans-Serif" font-size="10.00">/src/tags/rowgroup.cpp</text>
</a>
</g>
</g>
<!-- Node27&#45;&gt;Node28 -->
<g id="edge43" class="edge"><title>Node27&#45;&gt;Node28</title>
<path fill="none" stroke="midnightblue" d="M1891.96,-224.882C1895.1,-215.721 1898.48,-205.83 1901.33,-197.506"/>
<polygon fill="midnightblue" stroke="midnightblue" points="1888.62,-223.834 1888.7,-234.428 1895.24,-226.099 1888.62,-223.834"/>
</g>
</g>
</svg>
