<?xml version="1.0" encoding="UTF-8" standalone="no"?>
<!DOCTYPE svg PUBLIC "-//W3C//DTD SVG 1.1//EN"
 "http://www.w3.org/Graphics/SVG/1.1/DTD/svg11.dtd">
<!-- Generated by graphviz version 2.38.0 (20140413.2041)
 -->
<!-- Title: /home/travis/build/PO&#45;31/QtReports/qtreports/src/tags/summary.hpp Pages: 1 -->
<svg width="1260pt" height="284pt"
 viewBox="0.00 0.00 1260.00 284.00" xmlns="http://www.w3.org/2000/svg" xmlns:xlink="http://www.w3.org/1999/xlink">
<g id="graph0" class="graph" transform="scale(1 1) rotate(0) translate(4 280)">
<title>/home/travis/build/PO&#45;31/QtReports/qtreports/src/tags/summary.hpp</title>
<!-- Node1 -->
<g id="node1" class="node"><title>Node1</title>
<polygon fill="#bfbfbf" stroke="black" points="1005,-234.5 1005,-275.5 1151,-275.5 1151,-234.5 1005,-234.5"/>
<text text-anchor="start" x="1013" y="-263.5" font-family="Helvetica,sans-Serif" font-size="10.00">/home/travis/build</text>
<text text-anchor="start" x="1013" y="-252.5" font-family="Helvetica,sans-Serif" font-size="10.00">/PO&#45;31/QtReports/qtreports</text>
<text text-anchor="middle" x="1078" y="-241.5" font-family="Helvetica,sans-Serif" font-size="10.00">/src/tags/summary.hpp</text>
</g>
<!-- Node2 -->
<g id="node2" class="node"><title>Node2</title>
<g id="a_node2"><a xlink:href="report_8hpp.html" target="_top" xlink:title="/home/travis/build\l/PO&#45;31/QtReports/qtreports\l/src/tags/report.hpp">
<polygon fill="none" stroke="black" points="752,-156.5 752,-197.5 898,-197.5 898,-156.5 752,-156.5"/>
<text text-anchor="start" x="760" y="-185.5" font-family="Helvetica,sans-Serif" font-size="10.00">/home/travis/build</text>
<text text-anchor="start" x="760" y="-174.5" font-family="Helvetica,sans-Serif" font-size="10.00">/PO&#45;31/QtReports/qtreports</text>
<text text-anchor="middle" x="825" y="-163.5" font-family="Helvetica,sans-Serif" font-size="10.00">/src/tags/report.hpp</text>
</a>
</g>
</g>
<!-- Node1&#45;&gt;Node2 -->
<g id="edge1" class="edge"><title>Node1&#45;&gt;Node2</title>
<path fill="none" stroke="midnightblue" d="M1002.91,-231.442C966.996,-220.655 924.426,-207.867 889.933,-197.506"/>
<polygon fill="midnightblue" stroke="midnightblue" points="1002.26,-234.903 1012.85,-234.428 1004.28,-228.199 1002.26,-234.903"/>
</g>
<!-- Node12 -->
<g id="node12" class="node"><title>Node12</title>
<g id="a_node12"><a xlink:href="parserfromxml_8hpp.html" target="_top" xlink:title="/home/travis/build\l/PO&#45;31/QtReports/qtreports\l/src/parsers/parserfromxml.hpp">
<polygon fill="none" stroke="black" points="1082.5,-78.5 1082.5,-119.5 1249.5,-119.5 1249.5,-78.5 1082.5,-78.5"/>
<text text-anchor="start" x="1090.5" y="-107.5" font-family="Helvetica,sans-Serif" font-size="10.00">/home/travis/build</text>
<text text-anchor="start" x="1090.5" y="-96.5" font-family="Helvetica,sans-Serif" font-size="10.00">/PO&#45;31/QtReports/qtreports</text>
<text text-anchor="middle" x="1166" y="-85.5" font-family="Helvetica,sans-Serif" font-size="10.00">/src/parsers/parserfromxml.hpp</text>
</a>
</g>
</g>
<!-- Node1&#45;&gt;Node12 -->
<g id="edge22" class="edge"><title>Node1&#45;&gt;Node12</title>
<path fill="none" stroke="midnightblue" d="M1078.52,-224.16C1080.09,-203.699 1084.63,-176.63 1097,-156 1105.73,-141.446 1119.7,-129.06 1132.79,-119.666"/>
<polygon fill="midnightblue" stroke="midnightblue" points="1075.02,-224.005 1077.95,-234.188 1082.01,-224.404 1075.02,-224.005"/>
</g>
<!-- Node15 -->
<g id="node15" class="node"><title>Node15</title>
<g id="a_node15"><a xlink:href="summary_8cpp.html" target="_top" xlink:title="/home/travis/build\l/PO&#45;31/QtReports/qtreports\l/src/tags/summary.cpp">
<polygon fill="none" stroke="black" points="1106,-156.5 1106,-197.5 1252,-197.5 1252,-156.5 1106,-156.5"/>
<text text-anchor="start" x="1114" y="-185.5" font-family="Helvetica,sans-Serif" font-size="10.00">/home/travis/build</text>
<text text-anchor="start" x="1114" y="-174.5" font-family="Helvetica,sans-Serif" font-size="10.00">/PO&#45;31/QtReports/qtreports</text>
<text text-anchor="middle" x="1179" y="-163.5" font-family="Helvetica,sans-Serif" font-size="10.00">/src/tags/summary.cpp</text>
</a>
</g>
</g>
<!-- Node1&#45;&gt;Node15 -->
<g id="edge23" class="edge"><title>Node1&#45;&gt;Node15</title>
<path fill="none" stroke="midnightblue" d="M1112.09,-228.35C1125.48,-218.272 1140.6,-206.893 1153.08,-197.506"/>
<polygon fill="midnightblue" stroke="midnightblue" points="1109.9,-225.619 1104.01,-234.428 1114.1,-231.212 1109.9,-225.619"/>
</g>
<!-- Node3 -->
<g id="node3" class="node"><title>Node3</title>
<g id="a_node3"><a xlink:href="convertertohtml_8hpp.html" target="_top" xlink:title="/home/travis/build\l/PO&#45;31/QtReports/qtreports\l/src/converters/convertertohtml.hpp">
<polygon fill="none" stroke="black" points="250.5,-78.5 250.5,-119.5 439.5,-119.5 439.5,-78.5 250.5,-78.5"/>
<text text-anchor="start" x="258.5" y="-107.5" font-family="Helvetica,sans-Serif" font-size="10.00">/home/travis/build</text>
<text text-anchor="start" x="258.5" y="-96.5" font-family="Helvetica,sans-Serif" font-size="10.00">/PO&#45;31/QtReports/qtreports</text>
<text text-anchor="middle" x="345" y="-85.5" font-family="Helvetica,sans-Serif" font-size="10.00">/src/converters/convertertohtml.hpp</text>
</a>
</g>
</g>
<!-- Node2&#45;&gt;Node3 -->
<g id="edge2" class="edge"><title>Node2&#45;&gt;Node3</title>
<path fill="none" stroke="midnightblue" d="M741.687,-164.618C665.388,-153.951 549.399,-137.122 449,-120 445.919,-119.475 442.788,-118.931 439.628,-118.373"/>
<polygon fill="midnightblue" stroke="midnightblue" points="741.331,-168.103 751.719,-166.017 742.298,-161.17 741.331,-168.103"/>
</g>
<!-- Node5 -->
<g id="node5" class="node"><title>Node5</title>
<g id="a_node5"><a xlink:href="engine_8cpp.html" target="_top" xlink:title="/home/travis/build\l/PO&#45;31/QtReports/qtreports\l/src/engine.cpp">
<polygon fill="none" stroke="black" points="817,-0.5 817,-41.5 963,-41.5 963,-0.5 817,-0.5"/>
<text text-anchor="start" x="825" y="-29.5" font-family="Helvetica,sans-Serif" font-size="10.00">/home/travis/build</text>
<text text-anchor="start" x="825" y="-18.5" font-family="Helvetica,sans-Serif" font-size="10.00">/PO&#45;31/QtReports/qtreports</text>
<text text-anchor="middle" x="890" y="-7.5" font-family="Helvetica,sans-Serif" font-size="10.00">/src/engine.cpp</text>
</a>
</g>
</g>
<!-- Node2&#45;&gt;Node5 -->
<g id="edge20" class="edge"><title>Node2&#45;&gt;Node5</title>
<path fill="none" stroke="midnightblue" d="M851.78,-148.922C859.011,-140.287 866.163,-130.286 871,-120 882.948,-94.5935 887.383,-62.0978 889.029,-41.6593"/>
<polygon fill="midnightblue" stroke="midnightblue" points="849.149,-146.614 845.182,-156.438 854.41,-151.232 849.149,-146.614"/>
</g>
<!-- Node6 -->
<g id="node6" class="node"><title>Node6</title>
<g id="a_node6"><a xlink:href="replacer_8hpp.html" target="_top" xlink:title="/home/travis/build\l/PO&#45;31/QtReports/qtreports\l/src/converters/utils/replacer.hpp">
<polygon fill="none" stroke="black" points="59.5,-78.5 59.5,-119.5 232.5,-119.5 232.5,-78.5 59.5,-78.5"/>
<text text-anchor="start" x="67.5" y="-107.5" font-family="Helvetica,sans-Serif" font-size="10.00">/home/travis/build</text>
<text text-anchor="start" x="67.5" y="-96.5" font-family="Helvetica,sans-Serif" font-size="10.00">/PO&#45;31/QtReports/qtreports</text>
<text text-anchor="middle" x="146" y="-85.5" font-family="Helvetica,sans-Serif" font-size="10.00">/src/converters/utils/replacer.hpp</text>
</a>
</g>
</g>
<!-- Node2&#45;&gt;Node6 -->
<g id="edge5" class="edge"><title>Node2&#45;&gt;Node6</title>
<path fill="none" stroke="midnightblue" d="M741.821,-170.964C628.221,-163.417 418.392,-147.091 241,-120 238.251,-119.58 235.461,-119.131 232.648,-118.659"/>
<polygon fill="midnightblue" stroke="midnightblue" points="741.632,-174.459 751.84,-171.623 742.091,-167.474 741.632,-174.459"/>
</g>
<!-- Node10 -->
<g id="node10" class="node"><title>Node10</title>
<g id="a_node10"><a xlink:href="convertertopdf_8hpp.html" target="_top" xlink:title="/home/travis/build\l/PO&#45;31/QtReports/qtreports\l/src/converters/convertertopdf.hpp">
<polygon fill="none" stroke="black" points="458,-78.5 458,-119.5 640,-119.5 640,-78.5 458,-78.5"/>
<text text-anchor="start" x="466" y="-107.5" font-family="Helvetica,sans-Serif" font-size="10.00">/home/travis/build</text>
<text text-anchor="start" x="466" y="-96.5" font-family="Helvetica,sans-Serif" font-size="10.00">/PO&#45;31/QtReports/qtreports</text>
<text text-anchor="middle" x="549" y="-85.5" font-family="Helvetica,sans-Serif" font-size="10.00">/src/converters/convertertopdf.hpp</text>
</a>
</g>
</g>
<!-- Node2&#45;&gt;Node10 -->
<g id="edge10" class="edge"><title>Node2&#45;&gt;Node10</title>
<path fill="none" stroke="midnightblue" d="M744.083,-153.718C704.7,-142.874 657.787,-129.956 619.836,-119.506"/>
<polygon fill="midnightblue" stroke="midnightblue" points="743.353,-157.148 753.923,-156.428 745.211,-150.399 743.353,-157.148"/>
</g>
<!-- Node11 -->
<g id="node11" class="node"><title>Node11</title>
<g id="a_node11"><a xlink:href="convertertoqwidget_8hpp.html" target="_top" xlink:title="/home/travis/build\l/PO&#45;31/QtReports/qtreports\l/src/converters/convertertoqwidget.hpp">
<polygon fill="none" stroke="black" points="658,-78.5 658,-119.5 862,-119.5 862,-78.5 658,-78.5"/>
<text text-anchor="start" x="666" y="-107.5" font-family="Helvetica,sans-Serif" font-size="10.00">/home/travis/build</text>
<text text-anchor="start" x="666" y="-96.5" font-family="Helvetica,sans-Serif" font-size="10.00">/PO&#45;31/QtReports/qtreports</text>
<text text-anchor="middle" x="760" y="-85.5" font-family="Helvetica,sans-Serif" font-size="10.00">/src/converters/convertertoqwidget.hpp</text>
</a>
</g>
</g>
<!-- Node2&#45;&gt;Node11 -->
<g id="edge13" class="edge"><title>Node2&#45;&gt;Node11</title>
<path fill="none" stroke="midnightblue" d="M801.589,-148.627C793.347,-138.99 784.257,-128.362 776.682,-119.506"/>
<polygon fill="midnightblue" stroke="midnightblue" points="799.101,-151.103 808.261,-156.428 804.421,-146.554 799.101,-151.103"/>
</g>
<!-- Node2&#45;&gt;Node12 -->
<g id="edge17" class="edge"><title>Node2&#45;&gt;Node12</title>
<path fill="none" stroke="midnightblue" d="M908.19,-157.459C961.134,-145.659 1029.46,-130.431 1082.47,-118.616"/>
<polygon fill="midnightblue" stroke="midnightblue" points="907.152,-154.104 898.153,-159.696 908.675,-160.937 907.152,-154.104"/>
</g>
<!-- Node14 -->
<g id="node14" class="node"><title>Node14</title>
<g id="a_node14"><a xlink:href="report_8cpp.html" target="_top" xlink:title="/home/travis/build\l/PO&#45;31/QtReports/qtreports\l/src/tags/report.cpp">
<polygon fill="none" stroke="black" points="918,-78.5 918,-119.5 1064,-119.5 1064,-78.5 918,-78.5"/>
<text text-anchor="start" x="926" y="-107.5" font-family="Helvetica,sans-Serif" font-size="10.00">/home/travis/build</text>
<text text-anchor="start" x="926" y="-96.5" font-family="Helvetica,sans-Serif" font-size="10.00">/PO&#45;31/QtReports/qtreports</text>
<text text-anchor="middle" x="991" y="-85.5" font-family="Helvetica,sans-Serif" font-size="10.00">/src/tags/report.cpp</text>
</a>
</g>
</g>
<!-- Node2&#45;&gt;Node14 -->
<g id="edge21" class="edge"><title>Node2&#45;&gt;Node14</title>
<path fill="none" stroke="midnightblue" d="M877.008,-152.189C899.973,-141.675 926.634,-129.469 948.396,-119.506"/>
<polygon fill="midnightblue" stroke="midnightblue" points="875.385,-149.083 867.749,-156.428 878.299,-155.448 875.385,-149.083"/>
</g>
<!-- Node4 -->
<g id="node4" class="node"><title>Node4</title>
<g id="a_node4"><a xlink:href="convertertohtml_8cpp.html" target="_top" xlink:title="/home/travis/build\l/PO&#45;31/QtReports/qtreports\l/src/converters/convertertohtml.cpp">
<polygon fill="none" stroke="black" points="190,-0.5 190,-41.5 378,-41.5 378,-0.5 190,-0.5"/>
<text text-anchor="start" x="198" y="-29.5" font-family="Helvetica,sans-Serif" font-size="10.00">/home/travis/build</text>
<text text-anchor="start" x="198" y="-18.5" font-family="Helvetica,sans-Serif" font-size="10.00">/PO&#45;31/QtReports/qtreports</text>
<text text-anchor="middle" x="284" y="-7.5" font-family="Helvetica,sans-Serif" font-size="10.00">/src/converters/convertertohtml.cpp</text>
</a>
</g>
</g>
<!-- Node3&#45;&gt;Node4 -->
<g id="edge3" class="edge"><title>Node3&#45;&gt;Node4</title>
<path fill="none" stroke="midnightblue" d="M323.03,-70.627C315.295,-60.9901 306.764,-50.3617 299.656,-41.5056"/>
<polygon fill="midnightblue" stroke="midnightblue" points="320.302,-72.8202 329.291,-78.4281 325.761,-68.4386 320.302,-72.8202"/>
</g>
<!-- Node3&#45;&gt;Node5 -->
<g id="edge4" class="edge"><title>Node3&#45;&gt;Node5</title>
<path fill="none" stroke="midnightblue" d="M449.755,-77.9717C609.009,-55.4307 652.58,-68.2433 807,-42 810.215,-41.4537 813.49,-40.8535 816.792,-40.2128"/>
<polygon fill="midnightblue" stroke="midnightblue" points="448.997,-74.5447 439.598,-79.4347 449.995,-81.4732 448.997,-74.5447"/>
</g>
<!-- Node6&#45;&gt;Node4 -->
<g id="edge6" class="edge"><title>Node6&#45;&gt;Node4</title>
<path fill="none" stroke="midnightblue" d="M190.513,-73.4856C209.31,-63.1335 230.893,-51.2473 248.582,-41.5056"/>
<polygon fill="midnightblue" stroke="midnightblue" points="188.609,-70.5382 181.538,-78.4281 191.986,-76.6698 188.609,-70.5382"/>
</g>
<!-- Node7 -->
<g id="node7" class="node"><title>Node7</title>
<g id="a_node7"><a xlink:href="convertertopdf_8cpp.html" target="_top" xlink:title="/home/travis/build\l/PO&#45;31/QtReports/qtreports\l/src/converters/convertertopdf.cpp">
<polygon fill="none" stroke="black" points="396.5,-0.5 396.5,-41.5 577.5,-41.5 577.5,-0.5 396.5,-0.5"/>
<text text-anchor="start" x="404.5" y="-29.5" font-family="Helvetica,sans-Serif" font-size="10.00">/home/travis/build</text>
<text text-anchor="start" x="404.5" y="-18.5" font-family="Helvetica,sans-Serif" font-size="10.00">/PO&#45;31/QtReports/qtreports</text>
<text text-anchor="middle" x="487" y="-7.5" font-family="Helvetica,sans-Serif" font-size="10.00">/src/converters/convertertopdf.cpp</text>
</a>
</g>
</g>
<!-- Node6&#45;&gt;Node7 -->
<g id="edge7" class="edge"><title>Node6&#45;&gt;Node7</title>
<path fill="none" stroke="midnightblue" d="M242.952,-76.3919C292.169,-65.4228 351.501,-52.1993 399.339,-41.5374"/>
<polygon fill="midnightblue" stroke="midnightblue" points="241.93,-73.0337 232.931,-78.6253 243.453,-79.8661 241.93,-73.0337"/>
</g>
<!-- Node8 -->
<g id="node8" class="node"><title>Node8</title>
<g id="a_node8"><a xlink:href="convertertoqwidget_8cpp.html" target="_top" xlink:title="/home/travis/build\l/PO&#45;31/QtReports/qtreports\l/src/converters/convertertoqwidget.cpp">
<polygon fill="none" stroke="black" points="595.5,-0.5 595.5,-41.5 798.5,-41.5 798.5,-0.5 595.5,-0.5"/>
<text text-anchor="start" x="603.5" y="-29.5" font-family="Helvetica,sans-Serif" font-size="10.00">/home/travis/build</text>
<text text-anchor="start" x="603.5" y="-18.5" font-family="Helvetica,sans-Serif" font-size="10.00">/PO&#45;31/QtReports/qtreports</text>
<text text-anchor="middle" x="697" y="-7.5" font-family="Helvetica,sans-Serif" font-size="10.00">/src/converters/convertertoqwidget.cpp</text>
</a>
</g>
</g>
<!-- Node6&#45;&gt;Node8 -->
<g id="edge8" class="edge"><title>Node6&#45;&gt;Node8</title>
<path fill="none" stroke="midnightblue" d="M242.843,-77.7892C395.074,-54.486 436.646,-63.2178 586,-42 589.102,-41.5593 592.25,-41.0956 595.425,-40.6135"/>
<polygon fill="midnightblue" stroke="midnightblue" points="241.998,-74.3784 232.653,-79.3712 243.072,-81.2955 241.998,-74.3784"/>
</g>
<!-- Node9 -->
<g id="node9" class="node"><title>Node9</title>
<g id="a_node9"><a xlink:href="replacer_8cpp.html" target="_top" xlink:title="/home/travis/build\l/PO&#45;31/QtReports/qtreports\l/src/converters/utils/replacer.cpp">
<polygon fill="none" stroke="black" points="0,-0.5 0,-41.5 172,-41.5 172,-0.5 0,-0.5"/>
<text text-anchor="start" x="8" y="-29.5" font-family="Helvetica,sans-Serif" font-size="10.00">/home/travis/build</text>
<text text-anchor="start" x="8" y="-18.5" font-family="Helvetica,sans-Serif" font-size="10.00">/PO&#45;31/QtReports/qtreports</text>
<text text-anchor="middle" x="86" y="-7.5" font-family="Helvetica,sans-Serif" font-size="10.00">/src/converters/utils/replacer.cpp</text>
</a>
</g>
</g>
<!-- Node6&#45;&gt;Node9 -->
<g id="edge9" class="edge"><title>Node6&#45;&gt;Node9</title>
<path fill="none" stroke="midnightblue" d="M124.161,-70.3376C116.614,-60.7777 108.321,-50.2731 101.399,-41.5056"/>
<polygon fill="midnightblue" stroke="midnightblue" points="121.605,-72.748 130.549,-78.4281 127.099,-68.4105 121.605,-72.748"/>
</g>
<!-- Node10&#45;&gt;Node5 -->
<g id="edge12" class="edge"><title>Node10&#45;&gt;Node5</title>
<path fill="none" stroke="midnightblue" d="M650.166,-76.5975C697.808,-66.3761 755.382,-53.8194 807,-42 810.179,-41.2722 813.424,-40.5217 816.701,-39.7579"/>
<polygon fill="midnightblue" stroke="midnightblue" points="649.201,-73.2247 640.156,-78.742 650.667,-80.0694 649.201,-73.2247"/>
</g>
<!-- Node10&#45;&gt;Node7 -->
<g id="edge11" class="edge"><title>Node10&#45;&gt;Node7</title>
<path fill="none" stroke="midnightblue" d="M526.669,-70.627C518.808,-60.9901 510.137,-50.3617 502.912,-41.5056"/>
<polygon fill="midnightblue" stroke="midnightblue" points="524,-72.8919 533.033,-78.4281 529.424,-68.467 524,-72.8919"/>
</g>
<!-- Node11&#45;&gt;Node5 -->
<g id="edge16" class="edge"><title>Node11&#45;&gt;Node5</title>
<path fill="none" stroke="midnightblue" d="M802.416,-73.2029C820.009,-62.9176 840.123,-51.1587 856.635,-41.5056"/>
<polygon fill="midnightblue" stroke="midnightblue" points="800.345,-70.3596 793.478,-78.4281 803.878,-76.4026 800.345,-70.3596"/>
</g>
<!-- Node11&#45;&gt;Node7 -->
<g id="edge14" class="edge"><title>Node11&#45;&gt;Node7</title>
<path fill="none" stroke="midnightblue" d="M679.962,-75.7184C641.007,-64.8738 594.604,-51.9557 557.066,-41.5056"/>
<polygon fill="midnightblue" stroke="midnightblue" points="679.123,-79.1179 689.696,-78.4281 681.001,-72.3744 679.123,-79.1179"/>
</g>
<!-- Node11&#45;&gt;Node8 -->
<g id="edge15" class="edge"><title>Node11&#45;&gt;Node8</title>
<path fill="none" stroke="midnightblue" d="M737.309,-70.627C729.321,-60.9901 720.51,-50.3617 713.169,-41.5056"/>
<polygon fill="midnightblue" stroke="midnightblue" points="734.699,-72.963 743.776,-78.4281 740.089,-68.4956 734.699,-72.963"/>
</g>
<!-- Node12&#45;&gt;Node5 -->
<g id="edge18" class="edge"><title>Node12&#45;&gt;Node5</title>
<path fill="none" stroke="midnightblue" d="M1085.08,-75.7184C1045.7,-64.8738 998.787,-51.9557 960.836,-41.5056"/>
<polygon fill="midnightblue" stroke="midnightblue" points="1084.35,-79.1476 1094.92,-78.4281 1086.21,-72.3988 1084.35,-79.1476"/>
</g>
<!-- Node13 -->
<g id="node13" class="node"><title>Node13</title>
<g id="a_node13"><a xlink:href="parserfromxml_8cpp.html" target="_top" xlink:title="/home/travis/build\l/PO&#45;31/QtReports/qtreports\l/src/parsers/parserfromxml.cpp">
<polygon fill="none" stroke="black" points="1082.5,-0.5 1082.5,-41.5 1249.5,-41.5 1249.5,-0.5 1082.5,-0.5"/>
<text text-anchor="start" x="1090.5" y="-29.5" font-family="Helvetica,sans-Serif" font-size="10.00">/home/travis/build</text>
<text text-anchor="start" x="1090.5" y="-18.5" font-family="Helvetica,sans-Serif" font-size="10.00">/PO&#45;31/QtReports/qtreports</text>
<text text-anchor="middle" x="1166" y="-7.5" font-family="Helvetica,sans-Serif" font-size="10.00">/src/parsers/parserfromxml.cpp</text>
</a>
</g>
</g>
<!-- Node12&#45;&gt;Node13 -->
<g id="edge19" class="edge"><title>Node12&#45;&gt;Node13</title>
<path fill="none" stroke="midnightblue" d="M1166,-68.2965C1166,-59.3009 1166,-49.6532 1166,-41.5056"/>
<polygon fill="midnightblue" stroke="midnightblue" points="1162.5,-68.4281 1166,-78.4281 1169.5,-68.4281 1162.5,-68.4281"/>
</g>
</g>
</svg>
