<?xml version="1.0" encoding="UTF-8" standalone="no"?>
<!DOCTYPE svg PUBLIC "-//W3C//DTD SVG 1.1//EN"
 "http://www.w3.org/Graphics/SVG/1.1/DTD/svg11.dtd">
<!-- Generated by graphviz version 2.38.0 (20140413.2041)
 -->
<!-- Title: /home/travis/build/PO&#45;31/QtReports/qtreports/src/tags/textfield.hpp Pages: 1 -->
<svg width="1687pt" height="830pt"
 viewBox="0.00 0.00 1687.00 830.00" xmlns="http://www.w3.org/2000/svg" xmlns:xlink="http://www.w3.org/1999/xlink">
<g id="graph0" class="graph" transform="scale(1 1) rotate(0) translate(4 826)">
<title>/home/travis/build/PO&#45;31/QtReports/qtreports/src/tags/textfield.hpp</title>
<!-- Node1 -->
<g id="node1" class="node"><title>Node1</title>
<polygon fill="#bfbfbf" stroke="black" points="1355,-780.5 1355,-821.5 1501,-821.5 1501,-780.5 1355,-780.5"/>
<text text-anchor="start" x="1363" y="-809.5" font-family="Helvetica,sans-Serif" font-size="10.00">/home/travis/build</text>
<text text-anchor="start" x="1363" y="-798.5" font-family="Helvetica,sans-Serif" font-size="10.00">/PO&#45;31/QtReports/qtreports</text>
<text text-anchor="middle" x="1428" y="-787.5" font-family="Helvetica,sans-Serif" font-size="10.00">/src/tags/textfield.hpp</text>
</g>
<!-- Node2 -->
<g id="node2" class="node"><title>Node2</title>
<g id="a_node2"><a xlink:href="band_8hpp.html" target="_top" xlink:title="/home/travis/build\l/PO&#45;31/QtReports/qtreports\l/src/tags/band.hpp">
<polygon fill="none" stroke="black" points="995,-390.5 995,-431.5 1141,-431.5 1141,-390.5 995,-390.5"/>
<text text-anchor="start" x="1003" y="-419.5" font-family="Helvetica,sans-Serif" font-size="10.00">/home/travis/build</text>
<text text-anchor="start" x="1003" y="-408.5" font-family="Helvetica,sans-Serif" font-size="10.00">/PO&#45;31/QtReports/qtreports</text>
<text text-anchor="middle" x="1068" y="-397.5" font-family="Helvetica,sans-Serif" font-size="10.00">/src/tags/band.hpp</text>
</a>
</g>
</g>
<!-- Node1&#45;&gt;Node2 -->
<g id="edge1" class="edge"><title>Node1&#45;&gt;Node2</title>
<path fill="none" stroke="midnightblue" d="M1344.87,-792.012C1201.27,-775.893 922,-733.32 922,-646 922,-646 922,-646 922,-566 922,-521.547 914.154,-502.651 942,-468 955.496,-451.206 975.075,-439.299 994.793,-430.919"/>
<polygon fill="midnightblue" stroke="midnightblue" points="1344.64,-795.508 1354.96,-793.127 1345.41,-788.551 1344.64,-795.508"/>
</g>
<!-- Node16 -->
<g id="node16" class="node"><title>Node16</title>
<g id="a_node16"><a xlink:href="parserfromxml_8hpp.html" target="_top" xlink:title="/home/travis/build\l/PO&#45;31/QtReports/qtreports\l/src/parsers/parserfromxml.hpp">
<polygon fill="none" stroke="black" points="1129.5,-78.5 1129.5,-119.5 1296.5,-119.5 1296.5,-78.5 1129.5,-78.5"/>
<text text-anchor="start" x="1137.5" y="-107.5" font-family="Helvetica,sans-Serif" font-size="10.00">/home/travis/build</text>
<text text-anchor="start" x="1137.5" y="-96.5" font-family="Helvetica,sans-Serif" font-size="10.00">/PO&#45;31/QtReports/qtreports</text>
<text text-anchor="middle" x="1213" y="-85.5" font-family="Helvetica,sans-Serif" font-size="10.00">/src/parsers/parserfromxml.hpp</text>
</a>
</g>
</g>
<!-- Node1&#45;&gt;Node16 -->
<g id="edge57" class="edge"><title>Node1&#45;&gt;Node16</title>
<path fill="none" stroke="midnightblue" d="M1451.9,-772.053C1474.51,-742.688 1505,-694.155 1505,-646 1505,-646 1505,-646 1505,-254 1505,-159.147 1382.96,-122.573 1296.68,-108.568"/>
<polygon fill="midnightblue" stroke="midnightblue" points="1448.94,-770.158 1445.47,-780.17 1454.42,-774.504 1448.94,-770.158"/>
</g>
<!-- Node27 -->
<g id="node27" class="node"><title>Node27</title>
<g id="a_node27"><a xlink:href="cellcontents_8hpp.html" target="_top" xlink:title="/home/travis/build\l/PO&#45;31/QtReports/qtreports\l/src/tags/cellcontents.hpp">
<polygon fill="none" stroke="black" points="1201,-702.5 1201,-743.5 1347,-743.5 1347,-702.5 1201,-702.5"/>
<text text-anchor="start" x="1209" y="-731.5" font-family="Helvetica,sans-Serif" font-size="10.00">/home/travis/build</text>
<text text-anchor="start" x="1209" y="-720.5" font-family="Helvetica,sans-Serif" font-size="10.00">/PO&#45;31/QtReports/qtreports</text>
<text text-anchor="middle" x="1274" y="-709.5" font-family="Helvetica,sans-Serif" font-size="10.00">/src/tags/cellcontents.hpp</text>
</a>
</g>
</g>
<!-- Node1&#45;&gt;Node27 -->
<g id="edge44" class="edge"><title>Node1&#45;&gt;Node27</title>
<path fill="none" stroke="midnightblue" d="M1379.18,-775.908C1358.01,-765.458 1333.53,-753.38 1313.52,-743.506"/>
<polygon fill="midnightblue" stroke="midnightblue" points="1377.82,-779.141 1388.34,-780.428 1380.92,-772.864 1377.82,-779.141"/>
</g>
<!-- Node37 -->
<g id="node37" class="node"><title>Node37</title>
<g id="a_node37"><a xlink:href="textfield_8cpp.html" target="_top" xlink:title="/home/travis/build\l/PO&#45;31/QtReports/qtreports\l/src/tags/textfield.cpp">
<polygon fill="none" stroke="black" points="1533,-702.5 1533,-743.5 1679,-743.5 1679,-702.5 1533,-702.5"/>
<text text-anchor="start" x="1541" y="-731.5" font-family="Helvetica,sans-Serif" font-size="10.00">/home/travis/build</text>
<text text-anchor="start" x="1541" y="-720.5" font-family="Helvetica,sans-Serif" font-size="10.00">/PO&#45;31/QtReports/qtreports</text>
<text text-anchor="middle" x="1606" y="-709.5" font-family="Helvetica,sans-Serif" font-size="10.00">/src/tags/textfield.cpp</text>
</a>
</g>
</g>
<!-- Node1&#45;&gt;Node37 -->
<g id="edge58" class="edge"><title>Node1&#45;&gt;Node37</title>
<path fill="none" stroke="midnightblue" d="M1483.11,-776.469C1507.88,-765.892 1536.77,-753.557 1560.32,-743.506"/>
<polygon fill="midnightblue" stroke="midnightblue" points="1481.66,-773.282 1473.84,-780.428 1484.41,-779.72 1481.66,-773.282"/>
</g>
<!-- Node3 -->
<g id="node3" class="node"><title>Node3</title>
<g id="a_node3"><a xlink:href="section_8hpp.html" target="_top" xlink:title="/home/travis/build\l/PO&#45;31/QtReports/qtreports\l/src/tags/section.hpp">
<polygon fill="none" stroke="black" points="803,-312.5 803,-353.5 949,-353.5 949,-312.5 803,-312.5"/>
<text text-anchor="start" x="811" y="-341.5" font-family="Helvetica,sans-Serif" font-size="10.00">/home/travis/build</text>
<text text-anchor="start" x="811" y="-330.5" font-family="Helvetica,sans-Serif" font-size="10.00">/PO&#45;31/QtReports/qtreports</text>
<text text-anchor="middle" x="876" y="-319.5" font-family="Helvetica,sans-Serif" font-size="10.00">/src/tags/section.hpp</text>
</a>
</g>
</g>
<!-- Node2&#45;&gt;Node3 -->
<g id="edge2" class="edge"><title>Node2&#45;&gt;Node3</title>
<path fill="none" stroke="midnightblue" d="M1008.91,-386.609C982.107,-376.001 950.783,-363.602 925.277,-353.506"/>
<polygon fill="midnightblue" stroke="midnightblue" points="1007.97,-390.002 1018.56,-390.428 1010.55,-383.493 1007.97,-390.002"/>
</g>
<!-- Node2&#45;&gt;Node16 -->
<g id="edge42" class="edge"><title>Node2&#45;&gt;Node16</title>
<path fill="none" stroke="midnightblue" d="M1141.03,-386.643C1191.63,-366.197 1255.24,-331.006 1286,-276 1293.41,-262.755 1294.61,-177.191 1284,-156 1276.48,-140.98 1262.84,-128.733 1249.51,-119.565"/>
<polygon fill="midnightblue" stroke="midnightblue" points="1139.45,-383.504 1131.41,-390.414 1142,-390.02 1139.45,-383.504"/>
</g>
<!-- Node26 -->
<g id="node26" class="node"><title>Node26</title>
<g id="a_node26"><a xlink:href="band_8cpp.html" target="_top" xlink:title="/home/travis/build\l/PO&#45;31/QtReports/qtreports\l/src/tags/band.cpp">
<polygon fill="none" stroke="black" points="995,-312.5 995,-353.5 1141,-353.5 1141,-312.5 995,-312.5"/>
<text text-anchor="start" x="1003" y="-341.5" font-family="Helvetica,sans-Serif" font-size="10.00">/home/travis/build</text>
<text text-anchor="start" x="1003" y="-330.5" font-family="Helvetica,sans-Serif" font-size="10.00">/PO&#45;31/QtReports/qtreports</text>
<text text-anchor="middle" x="1068" y="-319.5" font-family="Helvetica,sans-Serif" font-size="10.00">/src/tags/band.cpp</text>
</a>
</g>
</g>
<!-- Node2&#45;&gt;Node26 -->
<g id="edge43" class="edge"><title>Node2&#45;&gt;Node26</title>
<path fill="none" stroke="midnightblue" d="M1068,-380.297C1068,-371.301 1068,-361.653 1068,-353.506"/>
<polygon fill="midnightblue" stroke="midnightblue" points="1064.5,-380.428 1068,-390.428 1071.5,-380.428 1064.5,-380.428"/>
</g>
<!-- Node4 -->
<g id="node4" class="node"><title>Node4</title>
<g id="a_node4"><a xlink:href="group_8hpp.html" target="_top" xlink:title="/home/travis/build\l/PO&#45;31/QtReports/qtreports\l/src/tags/group.hpp">
<polygon fill="none" stroke="black" points="967,-234.5 967,-275.5 1113,-275.5 1113,-234.5 967,-234.5"/>
<text text-anchor="start" x="975" y="-263.5" font-family="Helvetica,sans-Serif" font-size="10.00">/home/travis/build</text>
<text text-anchor="start" x="975" y="-252.5" font-family="Helvetica,sans-Serif" font-size="10.00">/PO&#45;31/QtReports/qtreports</text>
<text text-anchor="middle" x="1040" y="-241.5" font-family="Helvetica,sans-Serif" font-size="10.00">/src/tags/group.hpp</text>
</a>
</g>
</g>
<!-- Node3&#45;&gt;Node4 -->
<g id="edge3" class="edge"><title>Node3&#45;&gt;Node4</title>
<path fill="none" stroke="midnightblue" d="M927.382,-308.189C950.07,-297.675 976.41,-285.469 997.909,-275.506"/>
<polygon fill="midnightblue" stroke="midnightblue" points="925.836,-305.048 918.234,-312.428 928.779,-311.399 925.836,-305.048"/>
</g>
<!-- Node14 -->
<g id="node14" class="node"><title>Node14</title>
<g id="a_node14"><a xlink:href="convertertopdf_8hpp.html" target="_top" xlink:title="/home/travis/build\l/PO&#45;31/QtReports/qtreports\l/src/converters/convertertopdf.hpp">
<polygon fill="none" stroke="black" points="652,-78.5 652,-119.5 834,-119.5 834,-78.5 652,-78.5"/>
<text text-anchor="start" x="660" y="-107.5" font-family="Helvetica,sans-Serif" font-size="10.00">/home/travis/build</text>
<text text-anchor="start" x="660" y="-96.5" font-family="Helvetica,sans-Serif" font-size="10.00">/PO&#45;31/QtReports/qtreports</text>
<text text-anchor="middle" x="743" y="-85.5" font-family="Helvetica,sans-Serif" font-size="10.00">/src/converters/convertertopdf.hpp</text>
</a>
</g>
</g>
<!-- Node3&#45;&gt;Node14 -->
<g id="edge40" class="edge"><title>Node3&#45;&gt;Node14</title>
<path fill="none" stroke="midnightblue" d="M792.855,-330.172C708.42,-326.136 574.953,-313.694 466,-276 401.24,-253.595 367.061,-257.462 333,-198 281.222,-107.608 474.195,-146.636 643,-120 645.886,-119.545 648.815,-119.065 651.77,-118.566"/>
<polygon fill="midnightblue" stroke="midnightblue" points="792.757,-333.671 802.904,-330.624 793.071,-326.678 792.757,-333.671"/>
</g>
<!-- Node19 -->
<g id="node19" class="node"><title>Node19</title>
<g id="a_node19"><a xlink:href="title_8hpp.html" target="_top" xlink:title="/home/travis/build\l/PO&#45;31/QtReports/qtreports\l/src/tags/title.hpp">
<polygon fill="none" stroke="black" points="1131,-234.5 1131,-275.5 1277,-275.5 1277,-234.5 1131,-234.5"/>
<text text-anchor="start" x="1139" y="-263.5" font-family="Helvetica,sans-Serif" font-size="10.00">/home/travis/build</text>
<text text-anchor="start" x="1139" y="-252.5" font-family="Helvetica,sans-Serif" font-size="10.00">/PO&#45;31/QtReports/qtreports</text>
<text text-anchor="middle" x="1204" y="-241.5" font-family="Helvetica,sans-Serif" font-size="10.00">/src/tags/title.hpp</text>
</a>
</g>
</g>
<!-- Node3&#45;&gt;Node19 -->
<g id="edge28" class="edge"><title>Node3&#45;&gt;Node19</title>
<path fill="none" stroke="midnightblue" d="M959.232,-313.388C1006.92,-302.64 1067.87,-288.761 1122,-276 1124.85,-275.328 1127.76,-274.638 1130.7,-273.938"/>
<polygon fill="midnightblue" stroke="midnightblue" points="958.252,-310.021 949.265,-315.632 959.789,-316.85 958.252,-310.021"/>
</g>
<!-- Node21 -->
<g id="node21" class="node"><title>Node21</title>
<g id="a_node21"><a xlink:href="detail_8hpp.html" target="_top" xlink:title="/home/travis/build\l/PO&#45;31/QtReports/qtreports\l/src/tags/detail.hpp">
<polygon fill="none" stroke="black" points="475,-234.5 475,-275.5 621,-275.5 621,-234.5 475,-234.5"/>
<text text-anchor="start" x="483" y="-263.5" font-family="Helvetica,sans-Serif" font-size="10.00">/home/travis/build</text>
<text text-anchor="start" x="483" y="-252.5" font-family="Helvetica,sans-Serif" font-size="10.00">/PO&#45;31/QtReports/qtreports</text>
<text text-anchor="middle" x="548" y="-241.5" font-family="Helvetica,sans-Serif" font-size="10.00">/src/tags/detail.hpp</text>
</a>
</g>
</g>
<!-- Node3&#45;&gt;Node21 -->
<g id="edge32" class="edge"><title>Node3&#45;&gt;Node21</title>
<path fill="none" stroke="midnightblue" d="M792.768,-313.388C745.079,-302.64 684.13,-288.761 630,-276 627.148,-275.328 624.24,-274.638 621.304,-273.938"/>
<polygon fill="midnightblue" stroke="midnightblue" points="792.211,-316.85 802.735,-315.632 793.748,-310.021 792.211,-316.85"/>
</g>
<!-- Node23 -->
<g id="node23" class="node"><title>Node23</title>
<g id="a_node23"><a xlink:href="summary_8hpp.html" target="_top" xlink:title="/home/travis/build\l/PO&#45;31/QtReports/qtreports\l/src/tags/summary.hpp">
<polygon fill="none" stroke="black" points="639,-234.5 639,-275.5 785,-275.5 785,-234.5 639,-234.5"/>
<text text-anchor="start" x="647" y="-263.5" font-family="Helvetica,sans-Serif" font-size="10.00">/home/travis/build</text>
<text text-anchor="start" x="647" y="-252.5" font-family="Helvetica,sans-Serif" font-size="10.00">/PO&#45;31/QtReports/qtreports</text>
<text text-anchor="middle" x="712" y="-241.5" font-family="Helvetica,sans-Serif" font-size="10.00">/src/tags/summary.hpp</text>
</a>
</g>
</g>
<!-- Node3&#45;&gt;Node23 -->
<g id="edge36" class="edge"><title>Node3&#45;&gt;Node23</title>
<path fill="none" stroke="midnightblue" d="M824.618,-308.189C801.93,-297.675 775.59,-285.469 754.091,-275.506"/>
<polygon fill="midnightblue" stroke="midnightblue" points="823.221,-311.399 833.766,-312.428 826.164,-305.048 823.221,-311.399"/>
</g>
<!-- Node25 -->
<g id="node25" class="node"><title>Node25</title>
<g id="a_node25"><a xlink:href="section_8cpp.html" target="_top" xlink:title="/home/travis/build\l/PO&#45;31/QtReports/qtreports\l/src/tags/section.cpp">
<polygon fill="none" stroke="black" points="803,-234.5 803,-275.5 949,-275.5 949,-234.5 803,-234.5"/>
<text text-anchor="start" x="811" y="-263.5" font-family="Helvetica,sans-Serif" font-size="10.00">/home/travis/build</text>
<text text-anchor="start" x="811" y="-252.5" font-family="Helvetica,sans-Serif" font-size="10.00">/PO&#45;31/QtReports/qtreports</text>
<text text-anchor="middle" x="876" y="-241.5" font-family="Helvetica,sans-Serif" font-size="10.00">/src/tags/section.cpp</text>
</a>
</g>
</g>
<!-- Node3&#45;&gt;Node25 -->
<g id="edge41" class="edge"><title>Node3&#45;&gt;Node25</title>
<path fill="none" stroke="midnightblue" d="M876,-302.297C876,-293.301 876,-283.653 876,-275.506"/>
<polygon fill="midnightblue" stroke="midnightblue" points="872.5,-302.428 876,-312.428 879.5,-302.428 872.5,-302.428"/>
</g>
<!-- Node5 -->
<g id="node5" class="node"><title>Node5</title>
<g id="a_node5"><a xlink:href="report_8hpp.html" target="_top" xlink:title="/home/travis/build\l/PO&#45;31/QtReports/qtreports\l/src/tags/report.hpp">
<polygon fill="none" stroke="black" points="670,-156.5 670,-197.5 816,-197.5 816,-156.5 670,-156.5"/>
<text text-anchor="start" x="678" y="-185.5" font-family="Helvetica,sans-Serif" font-size="10.00">/home/travis/build</text>
<text text-anchor="start" x="678" y="-174.5" font-family="Helvetica,sans-Serif" font-size="10.00">/PO&#45;31/QtReports/qtreports</text>
<text text-anchor="middle" x="743" y="-163.5" font-family="Helvetica,sans-Serif" font-size="10.00">/src/tags/report.hpp</text>
</a>
</g>
</g>
<!-- Node4&#45;&gt;Node5 -->
<g id="edge4" class="edge"><title>Node4&#45;&gt;Node5</title>
<path fill="none" stroke="midnightblue" d="M957.088,-232.784C912.779,-221.445 858.72,-207.612 816.01,-196.683"/>
<polygon fill="midnightblue" stroke="midnightblue" points="956.41,-236.223 966.965,-235.311 958.145,-229.441 956.41,-236.223"/>
</g>
<!-- Node4&#45;&gt;Node16 -->
<g id="edge26" class="edge"><title>Node4&#45;&gt;Node16</title>
<path fill="none" stroke="midnightblue" d="M1053.43,-224.951C1064.38,-203.739 1081.53,-175.411 1103,-156 1119.77,-140.836 1141.4,-128.66 1161.03,-119.584"/>
<polygon fill="midnightblue" stroke="midnightblue" points="1050.18,-223.63 1048.84,-234.14 1056.44,-226.758 1050.18,-223.63"/>
</g>
<!-- Node18 -->
<g id="node18" class="node"><title>Node18</title>
<g id="a_node18"><a xlink:href="group_8cpp.html" target="_top" xlink:title="/home/travis/build\l/PO&#45;31/QtReports/qtreports\l/src/tags/group.cpp">
<polygon fill="none" stroke="black" points="910,-156.5 910,-197.5 1056,-197.5 1056,-156.5 910,-156.5"/>
<text text-anchor="start" x="918" y="-185.5" font-family="Helvetica,sans-Serif" font-size="10.00">/home/travis/build</text>
<text text-anchor="start" x="918" y="-174.5" font-family="Helvetica,sans-Serif" font-size="10.00">/PO&#45;31/QtReports/qtreports</text>
<text text-anchor="middle" x="983" y="-163.5" font-family="Helvetica,sans-Serif" font-size="10.00">/src/tags/group.cpp</text>
</a>
</g>
</g>
<!-- Node4&#45;&gt;Node18 -->
<g id="edge27" class="edge"><title>Node4&#45;&gt;Node18</title>
<path fill="none" stroke="midnightblue" d="M1019.25,-226.338C1012.08,-216.778 1004.2,-206.273 997.629,-197.506"/>
<polygon fill="midnightblue" stroke="midnightblue" points="1016.52,-228.528 1025.32,-234.428 1022.12,-224.328 1016.52,-228.528"/>
</g>
<!-- Node6 -->
<g id="node6" class="node"><title>Node6</title>
<g id="a_node6"><a xlink:href="convertertohtml_8hpp.html" target="_top" xlink:title="/home/travis/build\l/PO&#45;31/QtReports/qtreports\l/src/converters/convertertohtml.hpp">
<polygon fill="none" stroke="black" points="852.5,-78.5 852.5,-119.5 1041.5,-119.5 1041.5,-78.5 852.5,-78.5"/>
<text text-anchor="start" x="860.5" y="-107.5" font-family="Helvetica,sans-Serif" font-size="10.00">/home/travis/build</text>
<text text-anchor="start" x="860.5" y="-96.5" font-family="Helvetica,sans-Serif" font-size="10.00">/PO&#45;31/QtReports/qtreports</text>
<text text-anchor="middle" x="947" y="-85.5" font-family="Helvetica,sans-Serif" font-size="10.00">/src/converters/convertertohtml.hpp</text>
</a>
</g>
</g>
<!-- Node5&#45;&gt;Node6 -->
<g id="edge5" class="edge"><title>Node5&#45;&gt;Node6</title>
<path fill="none" stroke="midnightblue" d="M805.039,-152.887C833.677,-142.219 867.306,-129.69 894.643,-119.506"/>
<polygon fill="midnightblue" stroke="midnightblue" points="803.684,-149.657 795.535,-156.428 806.128,-156.217 803.684,-149.657"/>
</g>
<!-- Node8 -->
<g id="node8" class="node"><title>Node8</title>
<g id="a_node8"><a xlink:href="engine_8cpp.html" target="_top" xlink:title="/home/travis/build\l/PO&#45;31/QtReports/qtreports\l/src/engine.cpp">
<polygon fill="none" stroke="black" points="981,-0.5 981,-41.5 1127,-41.5 1127,-0.5 981,-0.5"/>
<text text-anchor="start" x="989" y="-29.5" font-family="Helvetica,sans-Serif" font-size="10.00">/home/travis/build</text>
<text text-anchor="start" x="989" y="-18.5" font-family="Helvetica,sans-Serif" font-size="10.00">/PO&#45;31/QtReports/qtreports</text>
<text text-anchor="middle" x="1054" y="-7.5" font-family="Helvetica,sans-Serif" font-size="10.00">/src/engine.cpp</text>
</a>
</g>
</g>
<!-- Node5&#45;&gt;Node8 -->
<g id="edge24" class="edge"><title>Node5&#45;&gt;Node8</title>
<path fill="none" stroke="midnightblue" d="M826.123,-156.771C827.424,-156.509 828.717,-156.252 830,-156 878.609,-146.446 1017.16,-157.09 1050,-120 1068.85,-98.7093 1064.81,-63.4922 1059.72,-41.5786"/>
<polygon fill="midnightblue" stroke="midnightblue" points="825.114,-153.406 816.029,-158.856 826.53,-160.261 825.114,-153.406"/>
</g>
<!-- Node9 -->
<g id="node9" class="node"><title>Node9</title>
<g id="a_node9"><a xlink:href="replacer_8hpp.html" target="_top" xlink:title="/home/travis/build\l/PO&#45;31/QtReports/qtreports\l/src/converters/utils/replacer.hpp">
<polygon fill="none" stroke="black" points="238.5,-78.5 238.5,-119.5 411.5,-119.5 411.5,-78.5 238.5,-78.5"/>
<text text-anchor="start" x="246.5" y="-107.5" font-family="Helvetica,sans-Serif" font-size="10.00">/home/travis/build</text>
<text text-anchor="start" x="246.5" y="-96.5" font-family="Helvetica,sans-Serif" font-size="10.00">/PO&#45;31/QtReports/qtreports</text>
<text text-anchor="middle" x="325" y="-85.5" font-family="Helvetica,sans-Serif" font-size="10.00">/src/converters/utils/replacer.hpp</text>
</a>
</g>
</g>
<!-- Node5&#45;&gt;Node9 -->
<g id="edge8" class="edge"><title>Node5&#45;&gt;Node9</title>
<path fill="none" stroke="midnightblue" d="M659.902,-155.869C553.457,-135.403 524.062,-138.45 421,-120 417.9,-119.445 414.746,-118.866 411.563,-118.269"/>
<polygon fill="midnightblue" stroke="midnightblue" points="659.27,-159.312 669.755,-157.788 660.608,-152.441 659.27,-159.312"/>
</g>
<!-- Node13 -->
<g id="node13" class="node"><title>Node13</title>
<g id="a_node13"><a xlink:href="report_8cpp.html" target="_top" xlink:title="/home/travis/build\l/PO&#45;31/QtReports/qtreports\l/src/tags/report.cpp">
<polygon fill="none" stroke="black" points="0,-0.5 0,-41.5 146,-41.5 146,-0.5 0,-0.5"/>
<text text-anchor="start" x="8" y="-29.5" font-family="Helvetica,sans-Serif" font-size="10.00">/home/travis/build</text>
<text text-anchor="start" x="8" y="-18.5" font-family="Helvetica,sans-Serif" font-size="10.00">/PO&#45;31/QtReports/qtreports</text>
<text text-anchor="middle" x="73" y="-7.5" font-family="Helvetica,sans-Serif" font-size="10.00">/src/tags/report.cpp</text>
</a>
</g>
</g>
<!-- Node5&#45;&gt;Node13 -->
<g id="edge25" class="edge"><title>Node5&#45;&gt;Node13</title>
<path fill="none" stroke="midnightblue" d="M659.719,-155.958C468.777,-126.956 408.639,-179.934 229,-120 177.119,-102.691 124.943,-64.7796 96.0149,-41.5126"/>
<polygon fill="midnightblue" stroke="midnightblue" points="659.375,-159.447 669.798,-157.546 660.465,-152.532 659.375,-159.447"/>
</g>
<!-- Node5&#45;&gt;Node14 -->
<g id="edge14" class="edge"><title>Node5&#45;&gt;Node14</title>
<path fill="none" stroke="midnightblue" d="M743,-146.297C743,-137.301 743,-127.653 743,-119.506"/>
<polygon fill="midnightblue" stroke="midnightblue" points="739.5,-146.428 743,-156.428 746.5,-146.428 739.5,-146.428"/>
</g>
<!-- Node15 -->
<g id="node15" class="node"><title>Node15</title>
<g id="a_node15"><a xlink:href="convertertoqwidget_8hpp.html" target="_top" xlink:title="/home/travis/build\l/PO&#45;31/QtReports/qtreports\l/src/converters/convertertoqwidget.hpp">
<polygon fill="none" stroke="black" points="430,-78.5 430,-119.5 634,-119.5 634,-78.5 430,-78.5"/>
<text text-anchor="start" x="438" y="-107.5" font-family="Helvetica,sans-Serif" font-size="10.00">/home/travis/build</text>
<text text-anchor="start" x="438" y="-96.5" font-family="Helvetica,sans-Serif" font-size="10.00">/PO&#45;31/QtReports/qtreports</text>
<text text-anchor="middle" x="532" y="-85.5" font-family="Helvetica,sans-Serif" font-size="10.00">/src/converters/convertertoqwidget.hpp</text>
</a>
</g>
</g>
<!-- Node5&#45;&gt;Node15 -->
<g id="edge17" class="edge"><title>Node5&#45;&gt;Node15</title>
<path fill="none" stroke="midnightblue" d="M679.218,-153.026C649.515,-142.328 614.552,-129.734 586.154,-119.506"/>
<polygon fill="midnightblue" stroke="midnightblue" points="678.068,-156.332 688.662,-156.428 680.44,-149.746 678.068,-156.332"/>
</g>
<!-- Node5&#45;&gt;Node16 -->
<g id="edge21" class="edge"><title>Node5&#45;&gt;Node16</title>
<path fill="none" stroke="midnightblue" d="M826.116,-156.733C827.419,-156.483 828.714,-156.238 830,-156 942.105,-135.209 971.218,-136.735 1084,-120 1098.68,-117.821 1114.3,-115.448 1129.41,-113.123"/>
<polygon fill="midnightblue" stroke="midnightblue" points="825.133,-153.359 816.007,-158.742 826.498,-160.225 825.133,-153.359"/>
</g>
<!-- Node7 -->
<g id="node7" class="node"><title>Node7</title>
<g id="a_node7"><a xlink:href="convertertohtml_8cpp.html" target="_top" xlink:title="/home/travis/build\l/PO&#45;31/QtReports/qtreports\l/src/converters/convertertohtml.cpp">
<polygon fill="none" stroke="black" points="775,-0.5 775,-41.5 963,-41.5 963,-0.5 775,-0.5"/>
<text text-anchor="start" x="783" y="-29.5" font-family="Helvetica,sans-Serif" font-size="10.00">/home/travis/build</text>
<text text-anchor="start" x="783" y="-18.5" font-family="Helvetica,sans-Serif" font-size="10.00">/PO&#45;31/QtReports/qtreports</text>
<text text-anchor="middle" x="869" y="-7.5" font-family="Helvetica,sans-Serif" font-size="10.00">/src/converters/convertertohtml.cpp</text>
</a>
</g>
</g>
<!-- Node6&#45;&gt;Node7 -->
<g id="edge6" class="edge"><title>Node6&#45;&gt;Node7</title>
<path fill="none" stroke="midnightblue" d="M919.499,-71.204C909.453,-61.416 898.29,-50.5388 889.019,-41.5056"/>
<polygon fill="midnightblue" stroke="midnightblue" points="917.308,-73.9562 926.913,-78.4281 922.193,-68.9426 917.308,-73.9562"/>
</g>
<!-- Node6&#45;&gt;Node8 -->
<g id="edge7" class="edge"><title>Node6&#45;&gt;Node8</title>
<path fill="none" stroke="midnightblue" d="M982.711,-72.6352C996.999,-62.4868 1013.2,-50.9816 1026.54,-41.5056"/>
<polygon fill="midnightblue" stroke="midnightblue" points="980.681,-69.7839 974.555,-78.4281 984.735,-75.4908 980.681,-69.7839"/>
</g>
<!-- Node9&#45;&gt;Node7 -->
<g id="edge9" class="edge"><title>Node9&#45;&gt;Node7</title>
<path fill="none" stroke="midnightblue" d="M421.767,-77.9728C574.658,-54.7184 616.204,-64.0517 765,-42 768.274,-41.5148 771.601,-40.999 774.959,-40.4592"/>
<polygon fill="midnightblue" stroke="midnightblue" points="420.882,-74.5679 411.533,-79.5524 421.95,-81.486 420.882,-74.5679"/>
</g>
<!-- Node10 -->
<g id="node10" class="node"><title>Node10</title>
<g id="a_node10"><a xlink:href="convertertopdf_8cpp.html" target="_top" xlink:title="/home/travis/build\l/PO&#45;31/QtReports/qtreports\l/src/converters/convertertopdf.cpp">
<polygon fill="none" stroke="black" points="575.5,-0.5 575.5,-41.5 756.5,-41.5 756.5,-0.5 575.5,-0.5"/>
<text text-anchor="start" x="583.5" y="-29.5" font-family="Helvetica,sans-Serif" font-size="10.00">/home/travis/build</text>
<text text-anchor="start" x="583.5" y="-18.5" font-family="Helvetica,sans-Serif" font-size="10.00">/PO&#45;31/QtReports/qtreports</text>
<text text-anchor="middle" x="666" y="-7.5" font-family="Helvetica,sans-Serif" font-size="10.00">/src/converters/convertertopdf.cpp</text>
</a>
</g>
</g>
<!-- Node9&#45;&gt;Node10 -->
<g id="edge10" class="edge"><title>Node9&#45;&gt;Node10</title>
<path fill="none" stroke="midnightblue" d="M421.952,-76.3919C471.169,-65.4228 530.501,-52.1993 578.339,-41.5374"/>
<polygon fill="midnightblue" stroke="midnightblue" points="420.93,-73.0337 411.931,-78.6253 422.453,-79.8661 420.93,-73.0337"/>
</g>
<!-- Node11 -->
<g id="node11" class="node"><title>Node11</title>
<g id="a_node11"><a xlink:href="convertertoqwidget_8cpp.html" target="_top" xlink:title="/home/travis/build\l/PO&#45;31/QtReports/qtreports\l/src/converters/convertertoqwidget.cpp">
<polygon fill="none" stroke="black" points="354.5,-0.5 354.5,-41.5 557.5,-41.5 557.5,-0.5 354.5,-0.5"/>
<text text-anchor="start" x="362.5" y="-29.5" font-family="Helvetica,sans-Serif" font-size="10.00">/home/travis/build</text>
<text text-anchor="start" x="362.5" y="-18.5" font-family="Helvetica,sans-Serif" font-size="10.00">/PO&#45;31/QtReports/qtreports</text>
<text text-anchor="middle" x="456" y="-7.5" font-family="Helvetica,sans-Serif" font-size="10.00">/src/converters/convertertoqwidget.cpp</text>
</a>
</g>
</g>
<!-- Node9&#45;&gt;Node11 -->
<g id="edge11" class="edge"><title>Node9&#45;&gt;Node11</title>
<path fill="none" stroke="midnightblue" d="M367.742,-73.2029C385.471,-62.9176 405.74,-51.1587 422.379,-41.5056"/>
<polygon fill="midnightblue" stroke="midnightblue" points="365.629,-70.3825 358.736,-78.4281 369.142,-76.4373 365.629,-70.3825"/>
</g>
<!-- Node12 -->
<g id="node12" class="node"><title>Node12</title>
<g id="a_node12"><a xlink:href="replacer_8cpp.html" target="_top" xlink:title="/home/travis/build\l/PO&#45;31/QtReports/qtreports\l/src/converters/utils/replacer.cpp">
<polygon fill="none" stroke="black" points="164,-0.5 164,-41.5 336,-41.5 336,-0.5 164,-0.5"/>
<text text-anchor="start" x="172" y="-29.5" font-family="Helvetica,sans-Serif" font-size="10.00">/home/travis/build</text>
<text text-anchor="start" x="172" y="-18.5" font-family="Helvetica,sans-Serif" font-size="10.00">/PO&#45;31/QtReports/qtreports</text>
<text text-anchor="middle" x="250" y="-7.5" font-family="Helvetica,sans-Serif" font-size="10.00">/src/converters/utils/replacer.cpp</text>
</a>
</g>
</g>
<!-- Node9&#45;&gt;Node12 -->
<g id="edge12" class="edge"><title>Node9&#45;&gt;Node12</title>
<path fill="none" stroke="midnightblue" d="M298.557,-71.204C288.897,-61.416 278.163,-50.5388 269.249,-41.5056"/>
<polygon fill="midnightblue" stroke="midnightblue" points="296.17,-73.7688 305.686,-78.4281 301.153,-68.8519 296.17,-73.7688"/>
</g>
<!-- Node9&#45;&gt;Node13 -->
<g id="edge13" class="edge"><title>Node9&#45;&gt;Node13</title>
<path fill="none" stroke="midnightblue" d="M250.203,-75.4423C214.435,-64.655 172.033,-51.8672 137.676,-41.5056"/>
<polygon fill="midnightblue" stroke="midnightblue" points="249.519,-78.8916 260.104,-78.4281 251.54,-72.1897 249.519,-78.8916"/>
</g>
<!-- Node14&#45;&gt;Node8 -->
<g id="edge16" class="edge"><title>Node14&#45;&gt;Node8</title>
<path fill="none" stroke="midnightblue" d="M832.953,-76.0179C879.904,-64.5443 936.614,-50.6861 980.837,-39.879"/>
<polygon fill="midnightblue" stroke="midnightblue" points="831.973,-72.6542 823.09,-78.4281 833.635,-79.4541 831.973,-72.6542"/>
</g>
<!-- Node14&#45;&gt;Node10 -->
<g id="edge15" class="edge"><title>Node14&#45;&gt;Node10</title>
<path fill="none" stroke="midnightblue" d="M715.851,-71.204C705.935,-61.416 694.914,-50.5388 685.762,-41.5056"/>
<polygon fill="midnightblue" stroke="midnightblue" points="713.595,-73.8944 723.171,-78.4281 718.512,-68.9124 713.595,-73.8944"/>
</g>
<!-- Node15&#45;&gt;Node8 -->
<g id="edge20" class="edge"><title>Node15&#45;&gt;Node8</title>
<path fill="none" stroke="midnightblue" d="M644.404,-77.8574C790.366,-57.4007 830.383,-66.9092 972,-42 974.886,-41.4923 977.822,-40.9419 980.782,-40.3585"/>
<polygon fill="midnightblue" stroke="midnightblue" points="643.579,-74.4396 634.173,-79.3157 644.566,-81.3695 643.579,-74.4396"/>
</g>
<!-- Node15&#45;&gt;Node10 -->
<g id="edge18" class="edge"><title>Node15&#45;&gt;Node10</title>
<path fill="none" stroke="midnightblue" d="M575.223,-73.4856C593.475,-63.1335 614.432,-51.2473 631.609,-41.5056"/>
<polygon fill="midnightblue" stroke="midnightblue" points="573.48,-70.4502 566.508,-78.4281 576.933,-76.5391 573.48,-70.4502"/>
</g>
<!-- Node15&#45;&gt;Node11 -->
<g id="edge19" class="edge"><title>Node15&#45;&gt;Node11</title>
<path fill="none" stroke="midnightblue" d="M505.204,-71.204C495.416,-61.416 484.539,-50.5388 475.506,-41.5056"/>
<polygon fill="midnightblue" stroke="midnightblue" points="502.882,-73.8319 512.428,-78.4281 507.832,-68.8821 502.882,-73.8319"/>
</g>
<!-- Node16&#45;&gt;Node8 -->
<g id="edge22" class="edge"><title>Node16&#45;&gt;Node8</title>
<path fill="none" stroke="midnightblue" d="M1162.89,-74.0487C1140.96,-63.5665 1115.56,-51.4244 1094.81,-41.5056"/>
<polygon fill="midnightblue" stroke="midnightblue" points="1161.52,-77.2733 1172.05,-78.4281 1164.54,-70.9577 1161.52,-77.2733"/>
</g>
<!-- Node17 -->
<g id="node17" class="node"><title>Node17</title>
<g id="a_node17"><a xlink:href="parserfromxml_8cpp.html" target="_top" xlink:title="/home/travis/build\l/PO&#45;31/QtReports/qtreports\l/src/parsers/parserfromxml.cpp">
<polygon fill="none" stroke="black" points="1145.5,-0.5 1145.5,-41.5 1312.5,-41.5 1312.5,-0.5 1145.5,-0.5"/>
<text text-anchor="start" x="1153.5" y="-29.5" font-family="Helvetica,sans-Serif" font-size="10.00">/home/travis/build</text>
<text text-anchor="start" x="1153.5" y="-18.5" font-family="Helvetica,sans-Serif" font-size="10.00">/PO&#45;31/QtReports/qtreports</text>
<text text-anchor="middle" x="1229" y="-7.5" font-family="Helvetica,sans-Serif" font-size="10.00">/src/parsers/parserfromxml.cpp</text>
</a>
</g>
</g>
<!-- Node16&#45;&gt;Node17 -->
<g id="edge23" class="edge"><title>Node16&#45;&gt;Node17</title>
<path fill="none" stroke="midnightblue" d="M1219.19,-68.5896C1221.1,-59.5108 1223.16,-49.7417 1224.89,-41.5056"/>
<polygon fill="midnightblue" stroke="midnightblue" points="1215.76,-67.9215 1217.12,-78.4281 1222.61,-69.3637 1215.76,-67.9215"/>
</g>
<!-- Node19&#45;&gt;Node5 -->
<g id="edge29" class="edge"><title>Node19&#45;&gt;Node5</title>
<path fill="none" stroke="midnightblue" d="M1120.68,-233.824C1009.22,-212.384 890.705,-196.169 816.352,-186.793"/>
<polygon fill="midnightblue" stroke="midnightblue" points="1120.27,-237.31 1130.76,-235.78 1121.61,-230.438 1120.27,-237.31"/>
</g>
<!-- Node19&#45;&gt;Node16 -->
<g id="edge30" class="edge"><title>Node19&#45;&gt;Node16</title>
<path fill="none" stroke="midnightblue" d="M1243.65,-227.883C1253.06,-219.553 1261.85,-209.472 1267,-198 1274.65,-180.972 1273.99,-173.31 1267,-156 1261.29,-141.847 1250.1,-129.278 1239.38,-119.651"/>
<polygon fill="midnightblue" stroke="midnightblue" points="1241.16,-225.4 1235.67,-234.461 1245.61,-230.802 1241.16,-225.4"/>
</g>
<!-- Node20 -->
<g id="node20" class="node"><title>Node20</title>
<g id="a_node20"><a xlink:href="title_8cpp.html" target="_top" xlink:title="/home/travis/build\l/PO&#45;31/QtReports/qtreports\l/src/tags/title.cpp">
<polygon fill="none" stroke="black" points="1112,-156.5 1112,-197.5 1258,-197.5 1258,-156.5 1112,-156.5"/>
<text text-anchor="start" x="1120" y="-185.5" font-family="Helvetica,sans-Serif" font-size="10.00">/home/travis/build</text>
<text text-anchor="start" x="1120" y="-174.5" font-family="Helvetica,sans-Serif" font-size="10.00">/PO&#45;31/QtReports/qtreports</text>
<text text-anchor="middle" x="1185" y="-163.5" font-family="Helvetica,sans-Serif" font-size="10.00">/src/tags/title.cpp</text>
</a>
</g>
</g>
<!-- Node19&#45;&gt;Node20 -->
<g id="edge31" class="edge"><title>Node19&#45;&gt;Node20</title>
<path fill="none" stroke="midnightblue" d="M1196.65,-224.59C1194.38,-215.511 1191.94,-205.742 1189.88,-197.506"/>
<polygon fill="midnightblue" stroke="midnightblue" points="1193.29,-225.576 1199.11,-234.428 1200.08,-223.878 1193.29,-225.576"/>
</g>
<!-- Node21&#45;&gt;Node5 -->
<g id="edge33" class="edge"><title>Node21&#45;&gt;Node5</title>
<path fill="none" stroke="midnightblue" d="M607.659,-230.748C634.956,-220.11 666.935,-207.646 692.953,-197.506"/>
<polygon fill="midnightblue" stroke="midnightblue" points="606.264,-227.536 598.217,-234.428 608.806,-234.058 606.264,-227.536"/>
</g>
<!-- Node21&#45;&gt;Node16 -->
<g id="edge34" class="edge"><title>Node21&#45;&gt;Node16</title>
<path fill="none" stroke="midnightblue" d="M631.322,-233.888C718.647,-217.481 752.302,-241.943 825,-198 845.316,-185.72 837.525,-168.014 858,-156 863.861,-152.561 1026.22,-127.859 1129.31,-112.433"/>
<polygon fill="midnightblue" stroke="midnightblue" points="630.383,-230.507 621.27,-235.911 631.764,-237.369 630.383,-230.507"/>
</g>
<!-- Node22 -->
<g id="node22" class="node"><title>Node22</title>
<g id="a_node22"><a xlink:href="detail_8cpp.html" target="_top" xlink:title="/home/travis/build\l/PO&#45;31/QtReports/qtreports\l/src/tags/detail.cpp">
<polygon fill="none" stroke="black" points="342,-156.5 342,-197.5 488,-197.5 488,-156.5 342,-156.5"/>
<text text-anchor="start" x="350" y="-185.5" font-family="Helvetica,sans-Serif" font-size="10.00">/home/travis/build</text>
<text text-anchor="start" x="350" y="-174.5" font-family="Helvetica,sans-Serif" font-size="10.00">/PO&#45;31/QtReports/qtreports</text>
<text text-anchor="middle" x="415" y="-163.5" font-family="Helvetica,sans-Serif" font-size="10.00">/src/tags/detail.cpp</text>
</a>
</g>
</g>
<!-- Node21&#45;&gt;Node22 -->
<g id="edge35" class="edge"><title>Node21&#45;&gt;Node22</title>
<path fill="none" stroke="midnightblue" d="M504.605,-229.203C486.606,-218.918 466.028,-207.159 449.135,-197.506"/>
<polygon fill="midnightblue" stroke="midnightblue" points="503.33,-232.506 513.749,-234.428 506.803,-226.428 503.33,-232.506"/>
</g>
<!-- Node23&#45;&gt;Node5 -->
<g id="edge37" class="edge"><title>Node23&#45;&gt;Node5</title>
<path fill="none" stroke="midnightblue" d="M723.877,-224.882C727.614,-215.721 731.648,-205.83 735.044,-197.506"/>
<polygon fill="midnightblue" stroke="midnightblue" points="720.519,-223.847 719.983,-234.428 727.001,-226.491 720.519,-223.847"/>
</g>
<!-- Node23&#45;&gt;Node16 -->
<g id="edge38" class="edge"><title>Node23&#45;&gt;Node16</title>
<path fill="none" stroke="midnightblue" d="M789.211,-231.048C812.285,-222.462 837.007,-211.454 858,-198 880.492,-183.585 877.25,-168.232 901,-156 921.09,-145.653 1043.84,-125.531 1129.24,-112.436"/>
<polygon fill="midnightblue" stroke="midnightblue" points="787.995,-227.766 779.782,-234.459 790.377,-234.349 787.995,-227.766"/>
</g>
<!-- Node24 -->
<g id="node24" class="node"><title>Node24</title>
<g id="a_node24"><a xlink:href="summary_8cpp.html" target="_top" xlink:title="/home/travis/build\l/PO&#45;31/QtReports/qtreports\l/src/tags/summary.cpp">
<polygon fill="none" stroke="black" points="506,-156.5 506,-197.5 652,-197.5 652,-156.5 506,-156.5"/>
<text text-anchor="start" x="514" y="-185.5" font-family="Helvetica,sans-Serif" font-size="10.00">/home/travis/build</text>
<text text-anchor="start" x="514" y="-174.5" font-family="Helvetica,sans-Serif" font-size="10.00">/PO&#45;31/QtReports/qtreports</text>
<text text-anchor="middle" x="579" y="-163.5" font-family="Helvetica,sans-Serif" font-size="10.00">/src/tags/summary.cpp</text>
</a>
</g>
</g>
<!-- Node23&#45;&gt;Node24 -->
<g id="edge39" class="edge"><title>Node23&#45;&gt;Node24</title>
<path fill="none" stroke="midnightblue" d="M668.605,-229.203C650.606,-218.918 630.028,-207.159 613.135,-197.506"/>
<polygon fill="midnightblue" stroke="midnightblue" points="667.33,-232.506 677.749,-234.428 670.803,-226.428 667.33,-232.506"/>
</g>
<!-- Node28 -->
<g id="node28" class="node"><title>Node28</title>
<g id="a_node28"><a xlink:href="crosstabheader_8hpp.html" target="_top" xlink:title="/home/travis/build\l/PO&#45;31/QtReports/qtreports\l/src/tags/crosstabheader.hpp">
<polygon fill="none" stroke="black" points="1119,-624.5 1119,-665.5 1275,-665.5 1275,-624.5 1119,-624.5"/>
<text text-anchor="start" x="1127" y="-653.5" font-family="Helvetica,sans-Serif" font-size="10.00">/home/travis/build</text>
<text text-anchor="start" x="1127" y="-642.5" font-family="Helvetica,sans-Serif" font-size="10.00">/PO&#45;31/QtReports/qtreports</text>
<text text-anchor="middle" x="1197" y="-631.5" font-family="Helvetica,sans-Serif" font-size="10.00">/src/tags/crosstabheader.hpp</text>
</a>
</g>
</g>
<!-- Node27&#45;&gt;Node28 -->
<g id="edge45" class="edge"><title>Node27&#45;&gt;Node28</title>
<path fill="none" stroke="midnightblue" d="M1246.85,-695.204C1236.93,-685.416 1225.91,-674.539 1216.76,-665.506"/>
<polygon fill="midnightblue" stroke="midnightblue" points="1244.59,-697.894 1254.17,-702.428 1249.51,-692.912 1244.59,-697.894"/>
</g>
<!-- Node34 -->
<g id="node34" class="node"><title>Node34</title>
<g id="a_node34"><a xlink:href="crosstabcell_8hpp.html" target="_top" xlink:title="/home/travis/build\l/PO&#45;31/QtReports/qtreports\l/src/tags/crosstabcell.hpp">
<polygon fill="none" stroke="black" points="1293,-624.5 1293,-665.5 1439,-665.5 1439,-624.5 1293,-624.5"/>
<text text-anchor="start" x="1301" y="-653.5" font-family="Helvetica,sans-Serif" font-size="10.00">/home/travis/build</text>
<text text-anchor="start" x="1301" y="-642.5" font-family="Helvetica,sans-Serif" font-size="10.00">/PO&#45;31/QtReports/qtreports</text>
<text text-anchor="middle" x="1366" y="-631.5" font-family="Helvetica,sans-Serif" font-size="10.00">/src/tags/crosstabcell.hpp</text>
</a>
</g>
</g>
<!-- Node27&#45;&gt;Node34 -->
<g id="edge53" class="edge"><title>Node27&#45;&gt;Node34</title>
<path fill="none" stroke="midnightblue" d="M1305.74,-695.779C1317.77,-685.843 1331.24,-674.716 1342.39,-665.506"/>
<polygon fill="midnightblue" stroke="midnightblue" points="1303.17,-693.361 1297.69,-702.428 1307.63,-698.758 1303.17,-693.361"/>
</g>
<!-- Node36 -->
<g id="node36" class="node"><title>Node36</title>
<g id="a_node36"><a xlink:href="cellcontents_8cpp.html" target="_top" xlink:title="/home/travis/build\l/PO&#45;31/QtReports/qtreports\l/src/tags/cellcontents.cpp">
<polygon fill="none" stroke="black" points="955,-624.5 955,-665.5 1101,-665.5 1101,-624.5 955,-624.5"/>
<text text-anchor="start" x="963" y="-653.5" font-family="Helvetica,sans-Serif" font-size="10.00">/home/travis/build</text>
<text text-anchor="start" x="963" y="-642.5" font-family="Helvetica,sans-Serif" font-size="10.00">/PO&#45;31/QtReports/qtreports</text>
<text text-anchor="middle" x="1028" y="-631.5" font-family="Helvetica,sans-Serif" font-size="10.00">/src/tags/cellcontents.cpp</text>
</a>
</g>
</g>
<!-- Node27&#45;&gt;Node36 -->
<g id="edge56" class="edge"><title>Node27&#45;&gt;Node36</title>
<path fill="none" stroke="midnightblue" d="M1200.98,-699.442C1166.07,-688.655 1124.68,-675.867 1091.14,-665.506"/>
<polygon fill="midnightblue" stroke="midnightblue" points="1200.06,-702.82 1210.65,-702.428 1202.13,-696.132 1200.06,-702.82"/>
</g>
<!-- Node29 -->
<g id="node29" class="node"><title>Node29</title>
<g id="a_node29"><a xlink:href="crosstabgroup_8hpp.html" target="_top" xlink:title="/home/travis/build\l/PO&#45;31/QtReports/qtreports\l/src/tags/crosstabgroup.hpp">
<polygon fill="none" stroke="black" points="950.5,-546.5 950.5,-587.5 1101.5,-587.5 1101.5,-546.5 950.5,-546.5"/>
<text text-anchor="start" x="958.5" y="-575.5" font-family="Helvetica,sans-Serif" font-size="10.00">/home/travis/build</text>
<text text-anchor="start" x="958.5" y="-564.5" font-family="Helvetica,sans-Serif" font-size="10.00">/PO&#45;31/QtReports/qtreports</text>
<text text-anchor="middle" x="1026" y="-553.5" font-family="Helvetica,sans-Serif" font-size="10.00">/src/tags/crosstabgroup.hpp</text>
</a>
</g>
</g>
<!-- Node28&#45;&gt;Node29 -->
<g id="edge46" class="edge"><title>Node28&#45;&gt;Node29</title>
<path fill="none" stroke="midnightblue" d="M1143.74,-620.329C1120.01,-609.783 1092.4,-597.513 1069.89,-587.506"/>
<polygon fill="midnightblue" stroke="midnightblue" points="1142.4,-623.565 1152.96,-624.428 1145.25,-617.168 1142.4,-623.565"/>
</g>
<!-- Node33 -->
<g id="node33" class="node"><title>Node33</title>
<g id="a_node33"><a xlink:href="crosstabheader_8cpp.html" target="_top" xlink:title="/home/travis/build\l/PO&#45;31/QtReports/qtreports\l/src/tags/crosstabheader.cpp">
<polygon fill="none" stroke="black" points="1119.5,-546.5 1119.5,-587.5 1274.5,-587.5 1274.5,-546.5 1119.5,-546.5"/>
<text text-anchor="start" x="1127.5" y="-575.5" font-family="Helvetica,sans-Serif" font-size="10.00">/home/travis/build</text>
<text text-anchor="start" x="1127.5" y="-564.5" font-family="Helvetica,sans-Serif" font-size="10.00">/PO&#45;31/QtReports/qtreports</text>
<text text-anchor="middle" x="1197" y="-553.5" font-family="Helvetica,sans-Serif" font-size="10.00">/src/tags/crosstabheader.cpp</text>
</a>
</g>
</g>
<!-- Node28&#45;&gt;Node33 -->
<g id="edge52" class="edge"><title>Node28&#45;&gt;Node33</title>
<path fill="none" stroke="midnightblue" d="M1197,-614.297C1197,-605.301 1197,-595.653 1197,-587.506"/>
<polygon fill="midnightblue" stroke="midnightblue" points="1193.5,-614.428 1197,-624.428 1200.5,-614.428 1193.5,-614.428"/>
</g>
<!-- Node30 -->
<g id="node30" class="node"><title>Node30</title>
<g id="a_node30"><a xlink:href="crosstab_8hpp.html" target="_top" xlink:title="/home/travis/build\l/PO&#45;31/QtReports/qtreports\l/src/tags/crosstab.hpp">
<polygon fill="none" stroke="black" points="1174,-468.5 1174,-509.5 1320,-509.5 1320,-468.5 1174,-468.5"/>
<text text-anchor="start" x="1182" y="-497.5" font-family="Helvetica,sans-Serif" font-size="10.00">/home/travis/build</text>
<text text-anchor="start" x="1182" y="-486.5" font-family="Helvetica,sans-Serif" font-size="10.00">/PO&#45;31/QtReports/qtreports</text>
<text text-anchor="middle" x="1247" y="-475.5" font-family="Helvetica,sans-Serif" font-size="10.00">/src/tags/crosstab.hpp</text>
</a>
</g>
</g>
<!-- Node29&#45;&gt;Node30 -->
<g id="edge47" class="edge"><title>Node29&#45;&gt;Node30</title>
<path fill="none" stroke="midnightblue" d="M1092.4,-543.165C1123.6,-532.437 1160.41,-519.779 1190.28,-509.506"/>
<polygon fill="midnightblue" stroke="midnightblue" points="1091.23,-539.866 1082.91,-546.428 1093.51,-546.486 1091.23,-539.866"/>
</g>
<!-- Node32 -->
<g id="node32" class="node"><title>Node32</title>
<g id="a_node32"><a xlink:href="crosstabgroup_8cpp.html" target="_top" xlink:title="/home/travis/build\l/PO&#45;31/QtReports/qtreports\l/src/tags/crosstabgroup.cpp">
<polygon fill="none" stroke="black" points="951,-468.5 951,-509.5 1101,-509.5 1101,-468.5 951,-468.5"/>
<text text-anchor="start" x="959" y="-497.5" font-family="Helvetica,sans-Serif" font-size="10.00">/home/travis/build</text>
<text text-anchor="start" x="959" y="-486.5" font-family="Helvetica,sans-Serif" font-size="10.00">/PO&#45;31/QtReports/qtreports</text>
<text text-anchor="middle" x="1026" y="-475.5" font-family="Helvetica,sans-Serif" font-size="10.00">/src/tags/crosstabgroup.cpp</text>
</a>
</g>
</g>
<!-- Node29&#45;&gt;Node32 -->
<g id="edge51" class="edge"><title>Node29&#45;&gt;Node32</title>
<path fill="none" stroke="midnightblue" d="M1026,-536.297C1026,-527.301 1026,-517.653 1026,-509.506"/>
<polygon fill="midnightblue" stroke="midnightblue" points="1022.5,-536.428 1026,-546.428 1029.5,-536.428 1022.5,-536.428"/>
</g>
<!-- Node30&#45;&gt;Node2 -->
<g id="edge48" class="edge"><title>Node30&#45;&gt;Node2</title>
<path fill="none" stroke="midnightblue" d="M1191.58,-464.469C1166.67,-453.892 1137.62,-441.557 1113.94,-431.506"/>
<polygon fill="midnightblue" stroke="midnightblue" points="1190.33,-467.742 1200.9,-468.428 1193.07,-461.298 1190.33,-467.742"/>
</g>
<!-- Node30&#45;&gt;Node16 -->
<g id="edge49" class="edge"><title>Node30&#45;&gt;Node16</title>
<path fill="none" stroke="midnightblue" d="M1294.87,-462.855C1307.36,-454.431 1319.87,-444.059 1329,-432 1356.75,-395.363 1362,-379.959 1362,-334 1362,-334 1362,-334 1362,-254 1362,-191.315 1297.45,-144.431 1253.32,-119.705"/>
<polygon fill="midnightblue" stroke="midnightblue" points="1292.79,-460.029 1286.26,-468.373 1296.57,-465.922 1292.79,-460.029"/>
</g>
<!-- Node31 -->
<g id="node31" class="node"><title>Node31</title>
<g id="a_node31"><a xlink:href="crosstab_8cpp.html" target="_top" xlink:title="/home/travis/build\l/PO&#45;31/QtReports/qtreports\l/src/tags/crosstab.cpp">
<polygon fill="none" stroke="black" points="1174,-390.5 1174,-431.5 1320,-431.5 1320,-390.5 1174,-390.5"/>
<text text-anchor="start" x="1182" y="-419.5" font-family="Helvetica,sans-Serif" font-size="10.00">/home/travis/build</text>
<text text-anchor="start" x="1182" y="-408.5" font-family="Helvetica,sans-Serif" font-size="10.00">/PO&#45;31/QtReports/qtreports</text>
<text text-anchor="middle" x="1247" y="-397.5" font-family="Helvetica,sans-Serif" font-size="10.00">/src/tags/crosstab.cpp</text>
</a>
</g>
</g>
<!-- Node30&#45;&gt;Node31 -->
<g id="edge50" class="edge"><title>Node30&#45;&gt;Node31</title>
<path fill="none" stroke="midnightblue" d="M1247,-458.297C1247,-449.301 1247,-439.653 1247,-431.506"/>
<polygon fill="midnightblue" stroke="midnightblue" points="1243.5,-458.428 1247,-468.428 1250.5,-458.428 1243.5,-458.428"/>
</g>
<!-- Node34&#45;&gt;Node30 -->
<g id="edge54" class="edge"><title>Node34&#45;&gt;Node30</title>
<path fill="none" stroke="midnightblue" d="M1344.21,-616.408C1337.1,-607.374 1329.19,-597.276 1322,-588 1300.99,-560.911 1276.95,-529.402 1261.87,-509.58"/>
<polygon fill="midnightblue" stroke="midnightblue" points="1341.53,-618.66 1350.46,-624.351 1347.03,-614.33 1341.53,-618.66"/>
</g>
<!-- Node35 -->
<g id="node35" class="node"><title>Node35</title>
<g id="a_node35"><a xlink:href="crosstabcell_8cpp.html" target="_top" xlink:title="/home/travis/build\l/PO&#45;31/QtReports/qtreports\l/src/tags/crosstabcell.cpp">
<polygon fill="none" stroke="black" points="1331,-546.5 1331,-587.5 1477,-587.5 1477,-546.5 1331,-546.5"/>
<text text-anchor="start" x="1339" y="-575.5" font-family="Helvetica,sans-Serif" font-size="10.00">/home/travis/build</text>
<text text-anchor="start" x="1339" y="-564.5" font-family="Helvetica,sans-Serif" font-size="10.00">/PO&#45;31/QtReports/qtreports</text>
<text text-anchor="middle" x="1404" y="-553.5" font-family="Helvetica,sans-Serif" font-size="10.00">/src/tags/crosstabcell.cpp</text>
</a>
</g>
</g>
<!-- Node34&#45;&gt;Node35 -->
<g id="edge55" class="edge"><title>Node34&#45;&gt;Node35</title>
<path fill="none" stroke="midnightblue" d="M1380.27,-615.466C1384.93,-606.143 1390,-596.007 1394.25,-587.506"/>
<polygon fill="midnightblue" stroke="midnightblue" points="1377.13,-613.919 1375.79,-624.428 1383.39,-617.049 1377.13,-613.919"/>
</g>
</g>
</svg>
