<?xml version="1.0" encoding="UTF-8" standalone="no"?>
<!DOCTYPE svg PUBLIC "-//W3C//DTD SVG 1.1//EN"
 "http://www.w3.org/Graphics/SVG/1.1/DTD/svg11.dtd">
<!-- Generated by graphviz version 2.38.0 (20140413.2041)
 -->
<!-- Title: /home/travis/build/PO&#45;31/QtReports/qtreports/src/tags/textfield.hpp Pages: 1 -->
<svg width="1852pt" height="830pt"
 viewBox="0.00 0.00 1852.00 830.00" xmlns="http://www.w3.org/2000/svg" xmlns:xlink="http://www.w3.org/1999/xlink">
<g id="graph0" class="graph" transform="scale(1 1) rotate(0) translate(4 826)">
<title>/home/travis/build/PO&#45;31/QtReports/qtreports/src/tags/textfield.hpp</title>
<!-- Node1 -->
<g id="node1" class="node"><title>Node1</title>
<polygon fill="#bfbfbf" stroke="black" points="1520,-780.5 1520,-821.5 1666,-821.5 1666,-780.5 1520,-780.5"/>
<text text-anchor="start" x="1528" y="-809.5" font-family="Helvetica,sans-Serif" font-size="10.00">/home/travis/build</text>
<text text-anchor="start" x="1528" y="-798.5" font-family="Helvetica,sans-Serif" font-size="10.00">/PO&#45;31/QtReports/qtreports</text>
<text text-anchor="middle" x="1593" y="-787.5" font-family="Helvetica,sans-Serif" font-size="10.00">/src/tags/textfield.hpp</text>
</g>
<!-- Node2 -->
<g id="node2" class="node"><title>Node2</title>
<g id="a_node2"><a xlink:href="band_8hpp.html" target="_top" xlink:title="/home/travis/build\l/PO&#45;31/QtReports/qtreports\l/src/tags/band.hpp">
<polygon fill="none" stroke="black" points="1160,-390.5 1160,-431.5 1306,-431.5 1306,-390.5 1160,-390.5"/>
<text text-anchor="start" x="1168" y="-419.5" font-family="Helvetica,sans-Serif" font-size="10.00">/home/travis/build</text>
<text text-anchor="start" x="1168" y="-408.5" font-family="Helvetica,sans-Serif" font-size="10.00">/PO&#45;31/QtReports/qtreports</text>
<text text-anchor="middle" x="1233" y="-397.5" font-family="Helvetica,sans-Serif" font-size="10.00">/src/tags/band.hpp</text>
</a>
</g>
</g>
<!-- Node1&#45;&gt;Node2 -->
<g id="edge1" class="edge"><title>Node1&#45;&gt;Node2</title>
<path fill="none" stroke="midnightblue" d="M1509.87,-792.012C1366.27,-775.893 1087,-733.32 1087,-646 1087,-646 1087,-646 1087,-566 1087,-521.547 1079.15,-502.651 1107,-468 1120.5,-451.206 1140.08,-439.299 1159.79,-430.919"/>
<polygon fill="midnightblue" stroke="midnightblue" points="1509.64,-795.508 1519.96,-793.127 1510.41,-788.551 1509.64,-795.508"/>
</g>
<!-- Node15 -->
<g id="node15" class="node"><title>Node15</title>
<g id="a_node15"><a xlink:href="parserfromxml_8hpp.html" target="_top" xlink:title="/home/travis/build\l/PO&#45;31/QtReports/qtreports\l/src/parsers/parserfromxml.hpp">
<polygon fill="none" stroke="black" points="1222.5,-78.5 1222.5,-119.5 1389.5,-119.5 1389.5,-78.5 1222.5,-78.5"/>
<text text-anchor="start" x="1230.5" y="-107.5" font-family="Helvetica,sans-Serif" font-size="10.00">/home/travis/build</text>
<text text-anchor="start" x="1230.5" y="-96.5" font-family="Helvetica,sans-Serif" font-size="10.00">/PO&#45;31/QtReports/qtreports</text>
<text text-anchor="middle" x="1306" y="-85.5" font-family="Helvetica,sans-Serif" font-size="10.00">/src/parsers/parserfromxml.hpp</text>
</a>
</g>
</g>
<!-- Node1&#45;&gt;Node15 -->
<g id="edge56" class="edge"><title>Node1&#45;&gt;Node15</title>
<path fill="none" stroke="midnightblue" d="M1616.9,-772.053C1639.51,-742.688 1670,-694.155 1670,-646 1670,-646 1670,-646 1670,-254 1670,-132.89 1496.97,-105.576 1389.51,-100.291"/>
<polygon fill="midnightblue" stroke="midnightblue" points="1613.94,-770.158 1610.47,-780.17 1619.42,-774.504 1613.94,-770.158"/>
</g>
<!-- Node27 -->
<g id="node27" class="node"><title>Node27</title>
<g id="a_node27"><a xlink:href="cellcontents_8hpp.html" target="_top" xlink:title="/home/travis/build\l/PO&#45;31/QtReports/qtreports\l/src/tags/cellcontents.hpp">
<polygon fill="none" stroke="black" points="1366,-702.5 1366,-743.5 1512,-743.5 1512,-702.5 1366,-702.5"/>
<text text-anchor="start" x="1374" y="-731.5" font-family="Helvetica,sans-Serif" font-size="10.00">/home/travis/build</text>
<text text-anchor="start" x="1374" y="-720.5" font-family="Helvetica,sans-Serif" font-size="10.00">/PO&#45;31/QtReports/qtreports</text>
<text text-anchor="middle" x="1439" y="-709.5" font-family="Helvetica,sans-Serif" font-size="10.00">/src/tags/cellcontents.hpp</text>
</a>
</g>
</g>
<!-- Node1&#45;&gt;Node27 -->
<g id="edge43" class="edge"><title>Node1&#45;&gt;Node27</title>
<path fill="none" stroke="midnightblue" d="M1544.18,-775.908C1523.01,-765.458 1498.53,-753.38 1478.52,-743.506"/>
<polygon fill="midnightblue" stroke="midnightblue" points="1542.82,-779.141 1553.34,-780.428 1545.92,-772.864 1542.82,-779.141"/>
</g>
<!-- Node37 -->
<g id="node37" class="node"><title>Node37</title>
<g id="a_node37"><a xlink:href="textfield_8cpp.html" target="_top" xlink:title="/home/travis/build\l/PO&#45;31/QtReports/qtreports\l/src/tags/textfield.cpp">
<polygon fill="none" stroke="black" points="1698,-702.5 1698,-743.5 1844,-743.5 1844,-702.5 1698,-702.5"/>
<text text-anchor="start" x="1706" y="-731.5" font-family="Helvetica,sans-Serif" font-size="10.00">/home/travis/build</text>
<text text-anchor="start" x="1706" y="-720.5" font-family="Helvetica,sans-Serif" font-size="10.00">/PO&#45;31/QtReports/qtreports</text>
<text text-anchor="middle" x="1771" y="-709.5" font-family="Helvetica,sans-Serif" font-size="10.00">/src/tags/textfield.cpp</text>
</a>
</g>
</g>
<!-- Node1&#45;&gt;Node37 -->
<g id="edge57" class="edge"><title>Node1&#45;&gt;Node37</title>
<path fill="none" stroke="midnightblue" d="M1648.11,-776.469C1672.88,-765.892 1701.77,-753.557 1725.32,-743.506"/>
<polygon fill="midnightblue" stroke="midnightblue" points="1646.66,-773.282 1638.84,-780.428 1649.41,-779.72 1646.66,-773.282"/>
</g>
<!-- Node3 -->
<g id="node3" class="node"><title>Node3</title>
<g id="a_node3"><a xlink:href="section_8hpp.html" target="_top" xlink:title="/home/travis/build\l/PO&#45;31/QtReports/qtreports\l/src/tags/section.hpp">
<polygon fill="none" stroke="black" points="968,-312.5 968,-353.5 1114,-353.5 1114,-312.5 968,-312.5"/>
<text text-anchor="start" x="976" y="-341.5" font-family="Helvetica,sans-Serif" font-size="10.00">/home/travis/build</text>
<text text-anchor="start" x="976" y="-330.5" font-family="Helvetica,sans-Serif" font-size="10.00">/PO&#45;31/QtReports/qtreports</text>
<text text-anchor="middle" x="1041" y="-319.5" font-family="Helvetica,sans-Serif" font-size="10.00">/src/tags/section.hpp</text>
</a>
</g>
</g>
<!-- Node2&#45;&gt;Node3 -->
<g id="edge2" class="edge"><title>Node2&#45;&gt;Node3</title>
<path fill="none" stroke="midnightblue" d="M1173.91,-386.609C1147.11,-376.001 1115.78,-363.602 1090.28,-353.506"/>
<polygon fill="midnightblue" stroke="midnightblue" points="1172.97,-390.002 1183.56,-390.428 1175.55,-383.493 1172.97,-390.002"/>
</g>
<!-- Node2&#45;&gt;Node15 -->
<g id="edge41" class="edge"><title>Node2&#45;&gt;Node15</title>
<path fill="none" stroke="midnightblue" d="M1306.03,-386.643C1356.63,-366.197 1420.24,-331.006 1451,-276 1459,-261.691 1463.29,-175.159 1450,-156 1435.78,-135.501 1412.89,-122.505 1389.5,-114.267"/>
<polygon fill="midnightblue" stroke="midnightblue" points="1304.45,-383.504 1296.41,-390.414 1307,-390.02 1304.45,-383.504"/>
</g>
<!-- Node26 -->
<g id="node26" class="node"><title>Node26</title>
<g id="a_node26"><a xlink:href="band_8cpp.html" target="_top" xlink:title="/home/travis/build\l/PO&#45;31/QtReports/qtreports\l/src/tags/band.cpp">
<polygon fill="none" stroke="black" points="1160,-312.5 1160,-353.5 1306,-353.5 1306,-312.5 1160,-312.5"/>
<text text-anchor="start" x="1168" y="-341.5" font-family="Helvetica,sans-Serif" font-size="10.00">/home/travis/build</text>
<text text-anchor="start" x="1168" y="-330.5" font-family="Helvetica,sans-Serif" font-size="10.00">/PO&#45;31/QtReports/qtreports</text>
<text text-anchor="middle" x="1233" y="-319.5" font-family="Helvetica,sans-Serif" font-size="10.00">/src/tags/band.cpp</text>
</a>
</g>
</g>
<!-- Node2&#45;&gt;Node26 -->
<g id="edge42" class="edge"><title>Node2&#45;&gt;Node26</title>
<path fill="none" stroke="midnightblue" d="M1233,-380.297C1233,-371.301 1233,-361.653 1233,-353.506"/>
<polygon fill="midnightblue" stroke="midnightblue" points="1229.5,-380.428 1233,-390.428 1236.5,-380.428 1229.5,-380.428"/>
</g>
<!-- Node4 -->
<g id="node4" class="node"><title>Node4</title>
<g id="a_node4"><a xlink:href="group_8hpp.html" target="_top" xlink:title="/home/travis/build\l/PO&#45;31/QtReports/qtreports\l/src/tags/group.hpp">
<polygon fill="none" stroke="black" points="1132,-234.5 1132,-275.5 1278,-275.5 1278,-234.5 1132,-234.5"/>
<text text-anchor="start" x="1140" y="-263.5" font-family="Helvetica,sans-Serif" font-size="10.00">/home/travis/build</text>
<text text-anchor="start" x="1140" y="-252.5" font-family="Helvetica,sans-Serif" font-size="10.00">/PO&#45;31/QtReports/qtreports</text>
<text text-anchor="middle" x="1205" y="-241.5" font-family="Helvetica,sans-Serif" font-size="10.00">/src/tags/group.hpp</text>
</a>
</g>
</g>
<!-- Node3&#45;&gt;Node4 -->
<g id="edge3" class="edge"><title>Node3&#45;&gt;Node4</title>
<path fill="none" stroke="midnightblue" d="M1092.38,-308.189C1115.07,-297.675 1141.41,-285.469 1162.91,-275.506"/>
<polygon fill="midnightblue" stroke="midnightblue" points="1090.84,-305.048 1083.23,-312.428 1093.78,-311.399 1090.84,-305.048"/>
</g>
<!-- Node13 -->
<g id="node13" class="node"><title>Node13</title>
<g id="a_node13"><a xlink:href="convertertopdf_8hpp.html" target="_top" xlink:title="/home/travis/build\l/PO&#45;31/QtReports/qtreports\l/src/converters/convertertopdf.hpp">
<polygon fill="none" stroke="black" points="613,-78.5 613,-119.5 795,-119.5 795,-78.5 613,-78.5"/>
<text text-anchor="start" x="621" y="-107.5" font-family="Helvetica,sans-Serif" font-size="10.00">/home/travis/build</text>
<text text-anchor="start" x="621" y="-96.5" font-family="Helvetica,sans-Serif" font-size="10.00">/PO&#45;31/QtReports/qtreports</text>
<text text-anchor="middle" x="704" y="-85.5" font-family="Helvetica,sans-Serif" font-size="10.00">/src/converters/convertertopdf.hpp</text>
</a>
</g>
</g>
<!-- Node3&#45;&gt;Node13 -->
<g id="edge39" class="edge"><title>Node3&#45;&gt;Node13</title>
<path fill="none" stroke="midnightblue" d="M957.855,-330.172C873.42,-326.136 739.953,-313.694 631,-276 566.24,-253.595 532.061,-257.462 498,-198 488.722,-181.803 486.663,-170.83 498,-156 505.512,-146.173 561.21,-131.366 612.795,-119.446"/>
<polygon fill="midnightblue" stroke="midnightblue" points="957.757,-333.671 967.904,-330.624 958.071,-326.678 957.757,-333.671"/>
</g>
<!-- Node19 -->
<g id="node19" class="node"><title>Node19</title>
<g id="a_node19"><a xlink:href="title_8hpp.html" target="_top" xlink:title="/home/travis/build\l/PO&#45;31/QtReports/qtreports\l/src/tags/title.hpp">
<polygon fill="none" stroke="black" points="1296,-234.5 1296,-275.5 1442,-275.5 1442,-234.5 1296,-234.5"/>
<text text-anchor="start" x="1304" y="-263.5" font-family="Helvetica,sans-Serif" font-size="10.00">/home/travis/build</text>
<text text-anchor="start" x="1304" y="-252.5" font-family="Helvetica,sans-Serif" font-size="10.00">/PO&#45;31/QtReports/qtreports</text>
<text text-anchor="middle" x="1369" y="-241.5" font-family="Helvetica,sans-Serif" font-size="10.00">/src/tags/title.hpp</text>
</a>
</g>
</g>
<!-- Node3&#45;&gt;Node19 -->
<g id="edge27" class="edge"><title>Node3&#45;&gt;Node19</title>
<path fill="none" stroke="midnightblue" d="M1124.23,-313.388C1171.92,-302.64 1232.87,-288.761 1287,-276 1289.85,-275.328 1292.76,-274.638 1295.7,-273.938"/>
<polygon fill="midnightblue" stroke="midnightblue" points="1123.25,-310.021 1114.26,-315.632 1124.79,-316.85 1123.25,-310.021"/>
</g>
<!-- Node21 -->
<g id="node21" class="node"><title>Node21</title>
<g id="a_node21"><a xlink:href="detail_8hpp.html" target="_top" xlink:title="/home/travis/build\l/PO&#45;31/QtReports/qtreports\l/src/tags/detail.hpp">
<polygon fill="none" stroke="black" points="640,-234.5 640,-275.5 786,-275.5 786,-234.5 640,-234.5"/>
<text text-anchor="start" x="648" y="-263.5" font-family="Helvetica,sans-Serif" font-size="10.00">/home/travis/build</text>
<text text-anchor="start" x="648" y="-252.5" font-family="Helvetica,sans-Serif" font-size="10.00">/PO&#45;31/QtReports/qtreports</text>
<text text-anchor="middle" x="713" y="-241.5" font-family="Helvetica,sans-Serif" font-size="10.00">/src/tags/detail.hpp</text>
</a>
</g>
</g>
<!-- Node3&#45;&gt;Node21 -->
<g id="edge31" class="edge"><title>Node3&#45;&gt;Node21</title>
<path fill="none" stroke="midnightblue" d="M957.768,-313.388C910.079,-302.64 849.13,-288.761 795,-276 792.148,-275.328 789.24,-274.638 786.304,-273.938"/>
<polygon fill="midnightblue" stroke="midnightblue" points="957.211,-316.85 967.735,-315.632 958.748,-310.021 957.211,-316.85"/>
</g>
<!-- Node23 -->
<g id="node23" class="node"><title>Node23</title>
<g id="a_node23"><a xlink:href="summary_8hpp.html" target="_top" xlink:title="/home/travis/build\l/PO&#45;31/QtReports/qtreports\l/src/tags/summary.hpp">
<polygon fill="none" stroke="black" points="804,-234.5 804,-275.5 950,-275.5 950,-234.5 804,-234.5"/>
<text text-anchor="start" x="812" y="-263.5" font-family="Helvetica,sans-Serif" font-size="10.00">/home/travis/build</text>
<text text-anchor="start" x="812" y="-252.5" font-family="Helvetica,sans-Serif" font-size="10.00">/PO&#45;31/QtReports/qtreports</text>
<text text-anchor="middle" x="877" y="-241.5" font-family="Helvetica,sans-Serif" font-size="10.00">/src/tags/summary.hpp</text>
</a>
</g>
</g>
<!-- Node3&#45;&gt;Node23 -->
<g id="edge35" class="edge"><title>Node3&#45;&gt;Node23</title>
<path fill="none" stroke="midnightblue" d="M989.618,-308.189C966.93,-297.675 940.59,-285.469 919.091,-275.506"/>
<polygon fill="midnightblue" stroke="midnightblue" points="988.221,-311.399 998.766,-312.428 991.164,-305.048 988.221,-311.399"/>
</g>
<!-- Node25 -->
<g id="node25" class="node"><title>Node25</title>
<g id="a_node25"><a xlink:href="section_8cpp.html" target="_top" xlink:title="/home/travis/build\l/PO&#45;31/QtReports/qtreports\l/src/tags/section.cpp">
<polygon fill="none" stroke="black" points="968,-234.5 968,-275.5 1114,-275.5 1114,-234.5 968,-234.5"/>
<text text-anchor="start" x="976" y="-263.5" font-family="Helvetica,sans-Serif" font-size="10.00">/home/travis/build</text>
<text text-anchor="start" x="976" y="-252.5" font-family="Helvetica,sans-Serif" font-size="10.00">/PO&#45;31/QtReports/qtreports</text>
<text text-anchor="middle" x="1041" y="-241.5" font-family="Helvetica,sans-Serif" font-size="10.00">/src/tags/section.cpp</text>
</a>
</g>
</g>
<!-- Node3&#45;&gt;Node25 -->
<g id="edge40" class="edge"><title>Node3&#45;&gt;Node25</title>
<path fill="none" stroke="midnightblue" d="M1041,-302.297C1041,-293.301 1041,-283.653 1041,-275.506"/>
<polygon fill="midnightblue" stroke="midnightblue" points="1037.5,-302.428 1041,-312.428 1044.5,-302.428 1037.5,-302.428"/>
</g>
<!-- Node5 -->
<g id="node5" class="node"><title>Node5</title>
<g id="a_node5"><a xlink:href="report_8hpp.html" target="_top" xlink:title="/home/travis/build\l/PO&#45;31/QtReports/qtreports\l/src/tags/report.hpp">
<polygon fill="none" stroke="black" points="835,-156.5 835,-197.5 981,-197.5 981,-156.5 835,-156.5"/>
<text text-anchor="start" x="843" y="-185.5" font-family="Helvetica,sans-Serif" font-size="10.00">/home/travis/build</text>
<text text-anchor="start" x="843" y="-174.5" font-family="Helvetica,sans-Serif" font-size="10.00">/PO&#45;31/QtReports/qtreports</text>
<text text-anchor="middle" x="908" y="-163.5" font-family="Helvetica,sans-Serif" font-size="10.00">/src/tags/report.hpp</text>
</a>
</g>
</g>
<!-- Node4&#45;&gt;Node5 -->
<g id="edge4" class="edge"><title>Node4&#45;&gt;Node5</title>
<path fill="none" stroke="midnightblue" d="M1122.09,-232.784C1077.78,-221.445 1023.72,-207.612 981.01,-196.683"/>
<polygon fill="midnightblue" stroke="midnightblue" points="1121.41,-236.223 1131.97,-235.311 1123.15,-229.441 1121.41,-236.223"/>
</g>
<!-- Node4&#45;&gt;Node15 -->
<g id="edge25" class="edge"><title>Node4&#45;&gt;Node15</title>
<path fill="none" stroke="midnightblue" d="M1222.81,-225.895C1235.32,-206.238 1252.53,-179.416 1268,-156 1276.03,-143.844 1285.2,-130.325 1292.51,-119.616"/>
<polygon fill="midnightblue" stroke="midnightblue" points="1219.82,-224.067 1217.41,-234.384 1225.73,-227.823 1219.82,-224.067"/>
</g>
<!-- Node18 -->
<g id="node18" class="node"><title>Node18</title>
<g id="a_node18"><a xlink:href="group_8cpp.html" target="_top" xlink:title="/home/travis/build\l/PO&#45;31/QtReports/qtreports\l/src/tags/group.cpp">
<polygon fill="none" stroke="black" points="1075,-156.5 1075,-197.5 1221,-197.5 1221,-156.5 1075,-156.5"/>
<text text-anchor="start" x="1083" y="-185.5" font-family="Helvetica,sans-Serif" font-size="10.00">/home/travis/build</text>
<text text-anchor="start" x="1083" y="-174.5" font-family="Helvetica,sans-Serif" font-size="10.00">/PO&#45;31/QtReports/qtreports</text>
<text text-anchor="middle" x="1148" y="-163.5" font-family="Helvetica,sans-Serif" font-size="10.00">/src/tags/group.cpp</text>
</a>
</g>
</g>
<!-- Node4&#45;&gt;Node18 -->
<g id="edge26" class="edge"><title>Node4&#45;&gt;Node18</title>
<path fill="none" stroke="midnightblue" d="M1184.25,-226.338C1177.08,-216.778 1169.2,-206.273 1162.63,-197.506"/>
<polygon fill="midnightblue" stroke="midnightblue" points="1181.52,-228.528 1190.32,-234.428 1187.12,-224.328 1181.52,-228.528"/>
</g>
<!-- Node6 -->
<g id="node6" class="node"><title>Node6</title>
<g id="a_node6"><a xlink:href="convertertohtml_8hpp.html" target="_top" xlink:title="/home/travis/build\l/PO&#45;31/QtReports/qtreports\l/src/converters/convertertohtml.hpp">
<polygon fill="none" stroke="black" points="813.5,-78.5 813.5,-119.5 1002.5,-119.5 1002.5,-78.5 813.5,-78.5"/>
<text text-anchor="start" x="821.5" y="-107.5" font-family="Helvetica,sans-Serif" font-size="10.00">/home/travis/build</text>
<text text-anchor="start" x="821.5" y="-96.5" font-family="Helvetica,sans-Serif" font-size="10.00">/PO&#45;31/QtReports/qtreports</text>
<text text-anchor="middle" x="908" y="-85.5" font-family="Helvetica,sans-Serif" font-size="10.00">/src/converters/convertertohtml.hpp</text>
</a>
</g>
</g>
<!-- Node5&#45;&gt;Node6 -->
<g id="edge5" class="edge"><title>Node5&#45;&gt;Node6</title>
<path fill="none" stroke="midnightblue" d="M908,-146.297C908,-137.301 908,-127.653 908,-119.506"/>
<polygon fill="midnightblue" stroke="midnightblue" points="904.5,-146.428 908,-156.428 911.5,-146.428 904.5,-146.428"/>
</g>
<!-- Node8 -->
<g id="node8" class="node"><title>Node8</title>
<g id="a_node8"><a xlink:href="engine_8cpp.html" target="_top" xlink:title="/home/travis/build\l/PO&#45;31/QtReports/qtreports\l/src/engine.cpp">
<polygon fill="none" stroke="black" points="835,-0.5 835,-41.5 981,-41.5 981,-0.5 835,-0.5"/>
<text text-anchor="start" x="843" y="-29.5" font-family="Helvetica,sans-Serif" font-size="10.00">/home/travis/build</text>
<text text-anchor="start" x="843" y="-18.5" font-family="Helvetica,sans-Serif" font-size="10.00">/PO&#45;31/QtReports/qtreports</text>
<text text-anchor="middle" x="908" y="-7.5" font-family="Helvetica,sans-Serif" font-size="10.00">/src/engine.cpp</text>
</a>
</g>
</g>
<!-- Node5&#45;&gt;Node8 -->
<g id="edge23" class="edge"><title>Node5&#45;&gt;Node8</title>
<path fill="none" stroke="midnightblue" d="M991.136,-156.833C992.433,-156.552 993.721,-156.274 995,-156 1075.2,-138.81 1123.97,-183.402 1176,-120 1232.34,-51.3555 1078.39,-30.7933 981.013,-24.634"/>
<polygon fill="midnightblue" stroke="midnightblue" points="990.086,-153.479 981.066,-159.038 991.584,-160.317 990.086,-153.479"/>
</g>
<!-- Node9 -->
<g id="node9" class="node"><title>Node9</title>
<g id="a_node9"><a xlink:href="replacer_8hpp.html" target="_top" xlink:title="/home/travis/build\l/PO&#45;31/QtReports/qtreports\l/src/converters/utils/replacer.hpp">
<polygon fill="none" stroke="black" points="199.5,-78.5 199.5,-119.5 372.5,-119.5 372.5,-78.5 199.5,-78.5"/>
<text text-anchor="start" x="207.5" y="-107.5" font-family="Helvetica,sans-Serif" font-size="10.00">/home/travis/build</text>
<text text-anchor="start" x="207.5" y="-96.5" font-family="Helvetica,sans-Serif" font-size="10.00">/PO&#45;31/QtReports/qtreports</text>
<text text-anchor="middle" x="286" y="-85.5" font-family="Helvetica,sans-Serif" font-size="10.00">/src/converters/utils/replacer.hpp</text>
</a>
</g>
</g>
<!-- Node5&#45;&gt;Node9 -->
<g id="edge8" class="edge"><title>Node5&#45;&gt;Node9</title>
<path fill="none" stroke="midnightblue" d="M824.751,-155.936C628.764,-125.221 574.703,-147.775 382,-120 378.883,-119.551 375.715,-119.062 372.519,-118.542"/>
<polygon fill="midnightblue" stroke="midnightblue" points="824.373,-159.42 834.8,-157.538 825.475,-152.508 824.373,-159.42"/>
</g>
<!-- Node5&#45;&gt;Node13 -->
<g id="edge13" class="edge"><title>Node5&#45;&gt;Node13</title>
<path fill="none" stroke="midnightblue" d="M845.961,-152.887C817.323,-142.219 783.694,-129.69 756.357,-119.506"/>
<polygon fill="midnightblue" stroke="midnightblue" points="844.872,-156.217 855.465,-156.428 847.316,-149.657 844.872,-156.217"/>
</g>
<!-- Node14 -->
<g id="node14" class="node"><title>Node14</title>
<g id="a_node14"><a xlink:href="convertertoqwidget_8hpp.html" target="_top" xlink:title="/home/travis/build\l/PO&#45;31/QtReports/qtreports\l/src/converters/convertertoqwidget.hpp">
<polygon fill="none" stroke="black" points="391,-78.5 391,-119.5 595,-119.5 595,-78.5 391,-78.5"/>
<text text-anchor="start" x="399" y="-107.5" font-family="Helvetica,sans-Serif" font-size="10.00">/home/travis/build</text>
<text text-anchor="start" x="399" y="-96.5" font-family="Helvetica,sans-Serif" font-size="10.00">/PO&#45;31/QtReports/qtreports</text>
<text text-anchor="middle" x="493" y="-85.5" font-family="Helvetica,sans-Serif" font-size="10.00">/src/converters/convertertoqwidget.hpp</text>
</a>
</g>
</g>
<!-- Node5&#45;&gt;Node14 -->
<g id="edge16" class="edge"><title>Node5&#45;&gt;Node14</title>
<path fill="none" stroke="midnightblue" d="M824.677,-155.803C726.317,-136.17 699.348,-136.32 604,-120 601.105,-119.504 598.168,-118.998 595.204,-118.485"/>
<polygon fill="midnightblue" stroke="midnightblue" points="824.252,-159.288 834.746,-157.832 825.634,-152.426 824.252,-159.288"/>
</g>
<!-- Node5&#45;&gt;Node15 -->
<g id="edge20" class="edge"><title>Node5&#45;&gt;Node15</title>
<path fill="none" stroke="midnightblue" d="M991.125,-156.779C992.425,-156.515 993.717,-156.255 995,-156 1089.6,-137.188 1114.2,-137.741 1209,-120 1213.39,-119.178 1217.9,-118.316 1222.44,-117.432"/>
<polygon fill="midnightblue" stroke="midnightblue" points="990.111,-153.415 981.034,-158.88 991.537,-160.268 990.111,-153.415"/>
</g>
<!-- Node17 -->
<g id="node17" class="node"><title>Node17</title>
<g id="a_node17"><a xlink:href="report_8cpp.html" target="_top" xlink:title="/home/travis/build\l/PO&#45;31/QtReports/qtreports\l/src/tags/report.cpp">
<polygon fill="none" stroke="black" points="1021,-78.5 1021,-119.5 1167,-119.5 1167,-78.5 1021,-78.5"/>
<text text-anchor="start" x="1029" y="-107.5" font-family="Helvetica,sans-Serif" font-size="10.00">/home/travis/build</text>
<text text-anchor="start" x="1029" y="-96.5" font-family="Helvetica,sans-Serif" font-size="10.00">/PO&#45;31/QtReports/qtreports</text>
<text text-anchor="middle" x="1094" y="-85.5" font-family="Helvetica,sans-Serif" font-size="10.00">/src/tags/report.cpp</text>
</a>
</g>
</g>
<!-- Node5&#45;&gt;Node17 -->
<g id="edge24" class="edge"><title>Node5&#45;&gt;Node17</title>
<path fill="none" stroke="midnightblue" d="M965.247,-152.609C991.208,-142.001 1021.55,-129.602 1046.26,-119.506"/>
<polygon fill="midnightblue" stroke="midnightblue" points="963.833,-149.406 955.9,-156.428 966.481,-155.886 963.833,-149.406"/>
</g>
<!-- Node7 -->
<g id="node7" class="node"><title>Node7</title>
<g id="a_node7"><a xlink:href="convertertohtml_8cpp.html" target="_top" xlink:title="/home/travis/build\l/PO&#45;31/QtReports/qtreports\l/src/converters/convertertohtml.cpp">
<polygon fill="none" stroke="black" points="623,-0.5 623,-41.5 811,-41.5 811,-0.5 623,-0.5"/>
<text text-anchor="start" x="631" y="-29.5" font-family="Helvetica,sans-Serif" font-size="10.00">/home/travis/build</text>
<text text-anchor="start" x="631" y="-18.5" font-family="Helvetica,sans-Serif" font-size="10.00">/PO&#45;31/QtReports/qtreports</text>
<text text-anchor="middle" x="717" y="-7.5" font-family="Helvetica,sans-Serif" font-size="10.00">/src/converters/convertertohtml.cpp</text>
</a>
</g>
</g>
<!-- Node6&#45;&gt;Node7 -->
<g id="edge6" class="edge"><title>Node6&#45;&gt;Node7</title>
<path fill="none" stroke="midnightblue" d="M849.214,-74.6086C822.555,-64.0008 791.393,-51.6015 766.021,-41.5056"/>
<polygon fill="midnightblue" stroke="midnightblue" points="848.227,-77.9829 858.813,-78.4281 850.815,-71.4789 848.227,-77.9829"/>
</g>
<!-- Node6&#45;&gt;Node8 -->
<g id="edge7" class="edge"><title>Node6&#45;&gt;Node8</title>
<path fill="none" stroke="midnightblue" d="M908,-68.2965C908,-59.3009 908,-49.6532 908,-41.5056"/>
<polygon fill="midnightblue" stroke="midnightblue" points="904.5,-68.4281 908,-78.4281 911.5,-68.4281 904.5,-68.4281"/>
</g>
<!-- Node9&#45;&gt;Node7 -->
<g id="edge9" class="edge"><title>Node9&#45;&gt;Node7</title>
<path fill="none" stroke="midnightblue" d="M382.611,-77.9242C480.643,-59.8212 506.865,-57.852 601,-42 608.154,-40.7953 615.555,-39.5401 622.996,-38.2716"/>
<polygon fill="midnightblue" stroke="midnightblue" points="381.767,-74.521 372.574,-79.7874 383.044,-81.4034 381.767,-74.521"/>
</g>
<!-- Node10 -->
<g id="node10" class="node"><title>Node10</title>
<g id="a_node10"><a xlink:href="convertertopdf_8cpp.html" target="_top" xlink:title="/home/travis/build\l/PO&#45;31/QtReports/qtreports\l/src/converters/convertertopdf.cpp">
<polygon fill="none" stroke="black" points="411.5,-0.5 411.5,-41.5 592.5,-41.5 592.5,-0.5 411.5,-0.5"/>
<text text-anchor="start" x="419.5" y="-29.5" font-family="Helvetica,sans-Serif" font-size="10.00">/home/travis/build</text>
<text text-anchor="start" x="419.5" y="-18.5" font-family="Helvetica,sans-Serif" font-size="10.00">/PO&#45;31/QtReports/qtreports</text>
<text text-anchor="middle" x="502" y="-7.5" font-family="Helvetica,sans-Serif" font-size="10.00">/src/converters/convertertopdf.cpp</text>
</a>
</g>
</g>
<!-- Node9&#45;&gt;Node10 -->
<g id="edge10" class="edge"><title>Node9&#45;&gt;Node10</title>
<path fill="none" stroke="midnightblue" d="M351.293,-75.0264C381.701,-64.3275 417.492,-51.7343 446.563,-41.5056"/>
<polygon fill="midnightblue" stroke="midnightblue" points="349.897,-71.8074 341.625,-78.4281 352.22,-78.4106 349.897,-71.8074"/>
</g>
<!-- Node11 -->
<g id="node11" class="node"><title>Node11</title>
<g id="a_node11"><a xlink:href="convertertoqwidget_8cpp.html" target="_top" xlink:title="/home/travis/build\l/PO&#45;31/QtReports/qtreports\l/src/converters/convertertoqwidget.cpp">
<polygon fill="none" stroke="black" points="190.5,-0.5 190.5,-41.5 393.5,-41.5 393.5,-0.5 190.5,-0.5"/>
<text text-anchor="start" x="198.5" y="-29.5" font-family="Helvetica,sans-Serif" font-size="10.00">/home/travis/build</text>
<text text-anchor="start" x="198.5" y="-18.5" font-family="Helvetica,sans-Serif" font-size="10.00">/PO&#45;31/QtReports/qtreports</text>
<text text-anchor="middle" x="292" y="-7.5" font-family="Helvetica,sans-Serif" font-size="10.00">/src/converters/convertertoqwidget.cpp</text>
</a>
</g>
</g>
<!-- Node9&#45;&gt;Node11 -->
<g id="edge11" class="edge"><title>Node9&#45;&gt;Node11</title>
<path fill="none" stroke="midnightblue" d="M288.345,-68.2965C289.055,-59.3009 289.817,-49.6532 290.46,-41.5056"/>
<polygon fill="midnightblue" stroke="midnightblue" points="284.843,-68.1836 287.545,-78.4281 291.821,-68.7346 284.843,-68.1836"/>
</g>
<!-- Node12 -->
<g id="node12" class="node"><title>Node12</title>
<g id="a_node12"><a xlink:href="replacer_8cpp.html" target="_top" xlink:title="/home/travis/build\l/PO&#45;31/QtReports/qtreports\l/src/converters/utils/replacer.cpp">
<polygon fill="none" stroke="black" points="0,-0.5 0,-41.5 172,-41.5 172,-0.5 0,-0.5"/>
<text text-anchor="start" x="8" y="-29.5" font-family="Helvetica,sans-Serif" font-size="10.00">/home/travis/build</text>
<text text-anchor="start" x="8" y="-18.5" font-family="Helvetica,sans-Serif" font-size="10.00">/PO&#45;31/QtReports/qtreports</text>
<text text-anchor="middle" x="86" y="-7.5" font-family="Helvetica,sans-Serif" font-size="10.00">/src/converters/utils/replacer.cpp</text>
</a>
</g>
</g>
<!-- Node9&#45;&gt;Node12 -->
<g id="edge12" class="edge"><title>Node9&#45;&gt;Node12</title>
<path fill="none" stroke="midnightblue" d="M224.811,-74.7481C196.815,-64.1096 164.015,-51.6458 137.33,-41.5056"/>
<polygon fill="midnightblue" stroke="midnightblue" points="223.904,-78.1476 234.495,-78.4281 226.39,-71.6041 223.904,-78.1476"/>
</g>
<!-- Node13&#45;&gt;Node8 -->
<g id="edge15" class="edge"><title>Node13&#45;&gt;Node8</title>
<path fill="none" stroke="midnightblue" d="M766.039,-74.8874C794.677,-64.2185 828.306,-51.6901 855.643,-41.5056"/>
<polygon fill="midnightblue" stroke="midnightblue" points="764.684,-71.6572 756.535,-78.4281 767.128,-78.2167 764.684,-71.6572"/>
</g>
<!-- Node13&#45;&gt;Node10 -->
<g id="edge14" class="edge"><title>Node13&#45;&gt;Node10</title>
<path fill="none" stroke="midnightblue" d="M642.569,-74.8874C614.212,-64.2185 580.913,-51.6901 553.844,-41.5056"/>
<polygon fill="midnightblue" stroke="midnightblue" points="641.388,-78.1825 651.98,-78.4281 643.853,-71.6308 641.388,-78.1825"/>
</g>
<!-- Node14&#45;&gt;Node8 -->
<g id="edge19" class="edge"><title>Node14&#45;&gt;Node8</title>
<path fill="none" stroke="midnightblue" d="M605.084,-77.83C701.553,-61.3145 727.585,-60.1869 820,-42 824.765,-41.0622 829.667,-40.0582 834.602,-39.0179"/>
<polygon fill="midnightblue" stroke="midnightblue" points="604.467,-74.3845 595.207,-79.5323 605.656,-81.2828 604.467,-74.3845"/>
</g>
<!-- Node14&#45;&gt;Node10 -->
<g id="edge17" class="edge"><title>Node14&#45;&gt;Node10</title>
<path fill="none" stroke="midnightblue" d="M496.518,-68.2965C497.583,-59.3009 498.725,-49.6532 499.69,-41.5056"/>
<polygon fill="midnightblue" stroke="midnightblue" points="493.018,-68.0859 495.318,-78.4281 499.97,-68.9091 493.018,-68.0859"/>
</g>
<!-- Node14&#45;&gt;Node11 -->
<g id="edge18" class="edge"><title>Node14&#45;&gt;Node11</title>
<path fill="none" stroke="midnightblue" d="M431.873,-74.8874C403.657,-64.2185 370.522,-51.6901 343.587,-41.5056"/>
<polygon fill="midnightblue" stroke="midnightblue" points="430.646,-78.1651 441.238,-78.4281 433.122,-71.6175 430.646,-78.1651"/>
</g>
<!-- Node15&#45;&gt;Node8 -->
<g id="edge21" class="edge"><title>Node15&#45;&gt;Node8</title>
<path fill="none" stroke="midnightblue" d="M1212.31,-78.6509C1211.2,-78.4321 1210.1,-78.2151 1209,-78 1131.28,-62.7596 1042.07,-46.2894 981.063,-35.1838"/>
<polygon fill="midnightblue" stroke="midnightblue" points="1211.93,-82.1441 1222.42,-80.6602 1213.3,-75.2783 1211.93,-82.1441"/>
</g>
<!-- Node16 -->
<g id="node16" class="node"><title>Node16</title>
<g id="a_node16"><a xlink:href="parserfromxml_8cpp.html" target="_top" xlink:title="/home/travis/build\l/PO&#45;31/QtReports/qtreports\l/src/parsers/parserfromxml.cpp">
<polygon fill="none" stroke="black" points="1222.5,-0.5 1222.5,-41.5 1389.5,-41.5 1389.5,-0.5 1222.5,-0.5"/>
<text text-anchor="start" x="1230.5" y="-29.5" font-family="Helvetica,sans-Serif" font-size="10.00">/home/travis/build</text>
<text text-anchor="start" x="1230.5" y="-18.5" font-family="Helvetica,sans-Serif" font-size="10.00">/PO&#45;31/QtReports/qtreports</text>
<text text-anchor="middle" x="1306" y="-7.5" font-family="Helvetica,sans-Serif" font-size="10.00">/src/parsers/parserfromxml.cpp</text>
</a>
</g>
</g>
<!-- Node15&#45;&gt;Node16 -->
<g id="edge22" class="edge"><title>Node15&#45;&gt;Node16</title>
<path fill="none" stroke="midnightblue" d="M1306,-68.2965C1306,-59.3009 1306,-49.6532 1306,-41.5056"/>
<polygon fill="midnightblue" stroke="midnightblue" points="1302.5,-68.4281 1306,-78.4281 1309.5,-68.4281 1302.5,-68.4281"/>
</g>
<!-- Node19&#45;&gt;Node5 -->
<g id="edge28" class="edge"><title>Node19&#45;&gt;Node5</title>
<path fill="none" stroke="midnightblue" d="M1285.68,-233.824C1174.22,-212.384 1055.71,-196.169 981.352,-186.793"/>
<polygon fill="midnightblue" stroke="midnightblue" points="1285.27,-237.31 1295.76,-235.78 1286.61,-230.438 1285.27,-237.31"/>
</g>
<!-- Node19&#45;&gt;Node15 -->
<g id="edge29" class="edge"><title>Node19&#45;&gt;Node15</title>
<path fill="none" stroke="midnightblue" d="M1408.65,-227.883C1418.06,-219.553 1426.85,-209.472 1432,-198 1439.65,-180.972 1442.17,-171.652 1432,-156 1421.3,-139.541 1404.53,-127.88 1386.67,-119.633"/>
<polygon fill="midnightblue" stroke="midnightblue" points="1406.16,-225.4 1400.67,-234.461 1410.61,-230.802 1406.16,-225.4"/>
</g>
<!-- Node20 -->
<g id="node20" class="node"><title>Node20</title>
<g id="a_node20"><a xlink:href="title_8cpp.html" target="_top" xlink:title="/home/travis/build\l/PO&#45;31/QtReports/qtreports\l/src/tags/title.cpp">
<polygon fill="none" stroke="black" points="1277,-156.5 1277,-197.5 1423,-197.5 1423,-156.5 1277,-156.5"/>
<text text-anchor="start" x="1285" y="-185.5" font-family="Helvetica,sans-Serif" font-size="10.00">/home/travis/build</text>
<text text-anchor="start" x="1285" y="-174.5" font-family="Helvetica,sans-Serif" font-size="10.00">/PO&#45;31/QtReports/qtreports</text>
<text text-anchor="middle" x="1350" y="-163.5" font-family="Helvetica,sans-Serif" font-size="10.00">/src/tags/title.cpp</text>
</a>
</g>
</g>
<!-- Node19&#45;&gt;Node20 -->
<g id="edge30" class="edge"><title>Node19&#45;&gt;Node20</title>
<path fill="none" stroke="midnightblue" d="M1361.65,-224.59C1359.38,-215.511 1356.94,-205.742 1354.88,-197.506"/>
<polygon fill="midnightblue" stroke="midnightblue" points="1358.29,-225.576 1364.11,-234.428 1365.08,-223.878 1358.29,-225.576"/>
</g>
<!-- Node21&#45;&gt;Node5 -->
<g id="edge32" class="edge"><title>Node21&#45;&gt;Node5</title>
<path fill="none" stroke="midnightblue" d="M772.659,-230.748C799.956,-220.11 831.935,-207.646 857.953,-197.506"/>
<polygon fill="midnightblue" stroke="midnightblue" points="771.264,-227.536 763.217,-234.428 773.806,-234.058 771.264,-227.536"/>
</g>
<!-- Node21&#45;&gt;Node15 -->
<g id="edge33" class="edge"><title>Node21&#45;&gt;Node15</title>
<path fill="none" stroke="midnightblue" d="M796.322,-233.888C883.647,-217.481 917.302,-241.943 990,-198 1010.32,-185.72 1002.76,-168.41 1023,-156 1027.34,-153.337 1140.54,-131.426 1222.44,-115.818"/>
<polygon fill="midnightblue" stroke="midnightblue" points="795.383,-230.507 786.27,-235.911 796.764,-237.369 795.383,-230.507"/>
</g>
<!-- Node22 -->
<g id="node22" class="node"><title>Node22</title>
<g id="a_node22"><a xlink:href="detail_8cpp.html" target="_top" xlink:title="/home/travis/build\l/PO&#45;31/QtReports/qtreports\l/src/tags/detail.cpp">
<polygon fill="none" stroke="black" points="507,-156.5 507,-197.5 653,-197.5 653,-156.5 507,-156.5"/>
<text text-anchor="start" x="515" y="-185.5" font-family="Helvetica,sans-Serif" font-size="10.00">/home/travis/build</text>
<text text-anchor="start" x="515" y="-174.5" font-family="Helvetica,sans-Serif" font-size="10.00">/PO&#45;31/QtReports/qtreports</text>
<text text-anchor="middle" x="580" y="-163.5" font-family="Helvetica,sans-Serif" font-size="10.00">/src/tags/detail.cpp</text>
</a>
</g>
</g>
<!-- Node21&#45;&gt;Node22 -->
<g id="edge34" class="edge"><title>Node21&#45;&gt;Node22</title>
<path fill="none" stroke="midnightblue" d="M669.605,-229.203C651.606,-218.918 631.028,-207.159 614.135,-197.506"/>
<polygon fill="midnightblue" stroke="midnightblue" points="668.33,-232.506 678.749,-234.428 671.803,-226.428 668.33,-232.506"/>
</g>
<!-- Node23&#45;&gt;Node5 -->
<g id="edge36" class="edge"><title>Node23&#45;&gt;Node5</title>
<path fill="none" stroke="midnightblue" d="M888.877,-224.882C892.614,-215.721 896.648,-205.83 900.044,-197.506"/>
<polygon fill="midnightblue" stroke="midnightblue" points="885.519,-223.847 884.983,-234.428 892.001,-226.491 885.519,-223.847"/>
</g>
<!-- Node23&#45;&gt;Node15 -->
<g id="edge37" class="edge"><title>Node23&#45;&gt;Node15</title>
<path fill="none" stroke="midnightblue" d="M954.211,-231.048C977.285,-222.462 1002.01,-211.454 1023,-198 1045.49,-183.585 1042.57,-168.841 1066,-156 1079.95,-148.352 1158.72,-130.685 1222.27,-117.224"/>
<polygon fill="midnightblue" stroke="midnightblue" points="952.995,-227.766 944.782,-234.459 955.377,-234.349 952.995,-227.766"/>
</g>
<!-- Node24 -->
<g id="node24" class="node"><title>Node24</title>
<g id="a_node24"><a xlink:href="summary_8cpp.html" target="_top" xlink:title="/home/travis/build\l/PO&#45;31/QtReports/qtreports\l/src/tags/summary.cpp">
<polygon fill="none" stroke="black" points="671,-156.5 671,-197.5 817,-197.5 817,-156.5 671,-156.5"/>
<text text-anchor="start" x="679" y="-185.5" font-family="Helvetica,sans-Serif" font-size="10.00">/home/travis/build</text>
<text text-anchor="start" x="679" y="-174.5" font-family="Helvetica,sans-Serif" font-size="10.00">/PO&#45;31/QtReports/qtreports</text>
<text text-anchor="middle" x="744" y="-163.5" font-family="Helvetica,sans-Serif" font-size="10.00">/src/tags/summary.cpp</text>
</a>
</g>
</g>
<!-- Node23&#45;&gt;Node24 -->
<g id="edge38" class="edge"><title>Node23&#45;&gt;Node24</title>
<path fill="none" stroke="midnightblue" d="M833.605,-229.203C815.606,-218.918 795.028,-207.159 778.135,-197.506"/>
<polygon fill="midnightblue" stroke="midnightblue" points="832.33,-232.506 842.749,-234.428 835.803,-226.428 832.33,-232.506"/>
</g>
<!-- Node28 -->
<g id="node28" class="node"><title>Node28</title>
<g id="a_node28"><a xlink:href="crosstabheader_8hpp.html" target="_top" xlink:title="/home/travis/build\l/PO&#45;31/QtReports/qtreports\l/src/tags/crosstabheader.hpp">
<polygon fill="none" stroke="black" points="1284,-624.5 1284,-665.5 1440,-665.5 1440,-624.5 1284,-624.5"/>
<text text-anchor="start" x="1292" y="-653.5" font-family="Helvetica,sans-Serif" font-size="10.00">/home/travis/build</text>
<text text-anchor="start" x="1292" y="-642.5" font-family="Helvetica,sans-Serif" font-size="10.00">/PO&#45;31/QtReports/qtreports</text>
<text text-anchor="middle" x="1362" y="-631.5" font-family="Helvetica,sans-Serif" font-size="10.00">/src/tags/crosstabheader.hpp</text>
</a>
</g>
</g>
<!-- Node27&#45;&gt;Node28 -->
<g id="edge44" class="edge"><title>Node27&#45;&gt;Node28</title>
<path fill="none" stroke="midnightblue" d="M1411.85,-695.204C1401.93,-685.416 1390.91,-674.539 1381.76,-665.506"/>
<polygon fill="midnightblue" stroke="midnightblue" points="1409.59,-697.894 1419.17,-702.428 1414.51,-692.912 1409.59,-697.894"/>
</g>
<!-- Node34 -->
<g id="node34" class="node"><title>Node34</title>
<g id="a_node34"><a xlink:href="crosstabcell_8hpp.html" target="_top" xlink:title="/home/travis/build\l/PO&#45;31/QtReports/qtreports\l/src/tags/crosstabcell.hpp">
<polygon fill="none" stroke="black" points="1458,-624.5 1458,-665.5 1604,-665.5 1604,-624.5 1458,-624.5"/>
<text text-anchor="start" x="1466" y="-653.5" font-family="Helvetica,sans-Serif" font-size="10.00">/home/travis/build</text>
<text text-anchor="start" x="1466" y="-642.5" font-family="Helvetica,sans-Serif" font-size="10.00">/PO&#45;31/QtReports/qtreports</text>
<text text-anchor="middle" x="1531" y="-631.5" font-family="Helvetica,sans-Serif" font-size="10.00">/src/tags/crosstabcell.hpp</text>
</a>
</g>
</g>
<!-- Node27&#45;&gt;Node34 -->
<g id="edge52" class="edge"><title>Node27&#45;&gt;Node34</title>
<path fill="none" stroke="midnightblue" d="M1470.74,-695.779C1482.77,-685.843 1496.24,-674.716 1507.39,-665.506"/>
<polygon fill="midnightblue" stroke="midnightblue" points="1468.17,-693.361 1462.69,-702.428 1472.63,-698.758 1468.17,-693.361"/>
</g>
<!-- Node36 -->
<g id="node36" class="node"><title>Node36</title>
<g id="a_node36"><a xlink:href="cellcontents_8cpp.html" target="_top" xlink:title="/home/travis/build\l/PO&#45;31/QtReports/qtreports\l/src/tags/cellcontents.cpp">
<polygon fill="none" stroke="black" points="1120,-624.5 1120,-665.5 1266,-665.5 1266,-624.5 1120,-624.5"/>
<text text-anchor="start" x="1128" y="-653.5" font-family="Helvetica,sans-Serif" font-size="10.00">/home/travis/build</text>
<text text-anchor="start" x="1128" y="-642.5" font-family="Helvetica,sans-Serif" font-size="10.00">/PO&#45;31/QtReports/qtreports</text>
<text text-anchor="middle" x="1193" y="-631.5" font-family="Helvetica,sans-Serif" font-size="10.00">/src/tags/cellcontents.cpp</text>
</a>
</g>
</g>
<!-- Node27&#45;&gt;Node36 -->
<g id="edge55" class="edge"><title>Node27&#45;&gt;Node36</title>
<path fill="none" stroke="midnightblue" d="M1365.98,-699.442C1331.07,-688.655 1289.68,-675.867 1256.14,-665.506"/>
<polygon fill="midnightblue" stroke="midnightblue" points="1365.06,-702.82 1375.65,-702.428 1367.13,-696.132 1365.06,-702.82"/>
</g>
<!-- Node29 -->
<g id="node29" class="node"><title>Node29</title>
<g id="a_node29"><a xlink:href="crosstabgroup_8hpp.html" target="_top" xlink:title="/home/travis/build\l/PO&#45;31/QtReports/qtreports\l/src/tags/crosstabgroup.hpp">
<polygon fill="none" stroke="black" points="1115.5,-546.5 1115.5,-587.5 1266.5,-587.5 1266.5,-546.5 1115.5,-546.5"/>
<text text-anchor="start" x="1123.5" y="-575.5" font-family="Helvetica,sans-Serif" font-size="10.00">/home/travis/build</text>
<text text-anchor="start" x="1123.5" y="-564.5" font-family="Helvetica,sans-Serif" font-size="10.00">/PO&#45;31/QtReports/qtreports</text>
<text text-anchor="middle" x="1191" y="-553.5" font-family="Helvetica,sans-Serif" font-size="10.00">/src/tags/crosstabgroup.hpp</text>
</a>
</g>
</g>
<!-- Node28&#45;&gt;Node29 -->
<g id="edge45" class="edge"><title>Node28&#45;&gt;Node29</title>
<path fill="none" stroke="midnightblue" d="M1308.74,-620.329C1285.01,-609.783 1257.4,-597.513 1234.89,-587.506"/>
<polygon fill="midnightblue" stroke="midnightblue" points="1307.4,-623.565 1317.96,-624.428 1310.25,-617.168 1307.4,-623.565"/>
</g>
<!-- Node33 -->
<g id="node33" class="node"><title>Node33</title>
<g id="a_node33"><a xlink:href="crosstabheader_8cpp.html" target="_top" xlink:title="/home/travis/build\l/PO&#45;31/QtReports/qtreports\l/src/tags/crosstabheader.cpp">
<polygon fill="none" stroke="black" points="1284.5,-546.5 1284.5,-587.5 1439.5,-587.5 1439.5,-546.5 1284.5,-546.5"/>
<text text-anchor="start" x="1292.5" y="-575.5" font-family="Helvetica,sans-Serif" font-size="10.00">/home/travis/build</text>
<text text-anchor="start" x="1292.5" y="-564.5" font-family="Helvetica,sans-Serif" font-size="10.00">/PO&#45;31/QtReports/qtreports</text>
<text text-anchor="middle" x="1362" y="-553.5" font-family="Helvetica,sans-Serif" font-size="10.00">/src/tags/crosstabheader.cpp</text>
</a>
</g>
</g>
<!-- Node28&#45;&gt;Node33 -->
<g id="edge51" class="edge"><title>Node28&#45;&gt;Node33</title>
<path fill="none" stroke="midnightblue" d="M1362,-614.297C1362,-605.301 1362,-595.653 1362,-587.506"/>
<polygon fill="midnightblue" stroke="midnightblue" points="1358.5,-614.428 1362,-624.428 1365.5,-614.428 1358.5,-614.428"/>
</g>
<!-- Node30 -->
<g id="node30" class="node"><title>Node30</title>
<g id="a_node30"><a xlink:href="crosstab_8hpp.html" target="_top" xlink:title="/home/travis/build\l/PO&#45;31/QtReports/qtreports\l/src/tags/crosstab.hpp">
<polygon fill="none" stroke="black" points="1339,-468.5 1339,-509.5 1485,-509.5 1485,-468.5 1339,-468.5"/>
<text text-anchor="start" x="1347" y="-497.5" font-family="Helvetica,sans-Serif" font-size="10.00">/home/travis/build</text>
<text text-anchor="start" x="1347" y="-486.5" font-family="Helvetica,sans-Serif" font-size="10.00">/PO&#45;31/QtReports/qtreports</text>
<text text-anchor="middle" x="1412" y="-475.5" font-family="Helvetica,sans-Serif" font-size="10.00">/src/tags/crosstab.hpp</text>
</a>
</g>
</g>
<!-- Node29&#45;&gt;Node30 -->
<g id="edge46" class="edge"><title>Node29&#45;&gt;Node30</title>
<path fill="none" stroke="midnightblue" d="M1257.4,-543.165C1288.6,-532.437 1325.41,-519.779 1355.28,-509.506"/>
<polygon fill="midnightblue" stroke="midnightblue" points="1256.23,-539.866 1247.91,-546.428 1258.51,-546.486 1256.23,-539.866"/>
</g>
<!-- Node32 -->
<g id="node32" class="node"><title>Node32</title>
<g id="a_node32"><a xlink:href="crosstabgroup_8cpp.html" target="_top" xlink:title="/home/travis/build\l/PO&#45;31/QtReports/qtreports\l/src/tags/crosstabgroup.cpp">
<polygon fill="none" stroke="black" points="1116,-468.5 1116,-509.5 1266,-509.5 1266,-468.5 1116,-468.5"/>
<text text-anchor="start" x="1124" y="-497.5" font-family="Helvetica,sans-Serif" font-size="10.00">/home/travis/build</text>
<text text-anchor="start" x="1124" y="-486.5" font-family="Helvetica,sans-Serif" font-size="10.00">/PO&#45;31/QtReports/qtreports</text>
<text text-anchor="middle" x="1191" y="-475.5" font-family="Helvetica,sans-Serif" font-size="10.00">/src/tags/crosstabgroup.cpp</text>
</a>
</g>
</g>
<!-- Node29&#45;&gt;Node32 -->
<g id="edge50" class="edge"><title>Node29&#45;&gt;Node32</title>
<path fill="none" stroke="midnightblue" d="M1191,-536.297C1191,-527.301 1191,-517.653 1191,-509.506"/>
<polygon fill="midnightblue" stroke="midnightblue" points="1187.5,-536.428 1191,-546.428 1194.5,-536.428 1187.5,-536.428"/>
</g>
<!-- Node30&#45;&gt;Node2 -->
<g id="edge47" class="edge"><title>Node30&#45;&gt;Node2</title>
<path fill="none" stroke="midnightblue" d="M1356.58,-464.469C1331.67,-453.892 1302.62,-441.557 1278.94,-431.506"/>
<polygon fill="midnightblue" stroke="midnightblue" points="1355.33,-467.742 1365.9,-468.428 1358.07,-461.298 1355.33,-467.742"/>
</g>
<!-- Node30&#45;&gt;Node15 -->
<g id="edge48" class="edge"><title>Node30&#45;&gt;Node15</title>
<path fill="none" stroke="midnightblue" d="M1459.87,-462.855C1472.36,-454.431 1484.87,-444.059 1494,-432 1521.75,-395.363 1527,-379.959 1527,-334 1527,-334 1527,-334 1527,-254 1527,-203.388 1508.24,-187.968 1469,-156 1446.27,-137.478 1417.05,-124.93 1389.65,-116.497"/>
<polygon fill="midnightblue" stroke="midnightblue" points="1457.79,-460.029 1451.26,-468.373 1461.57,-465.922 1457.79,-460.029"/>
</g>
<!-- Node31 -->
<g id="node31" class="node"><title>Node31</title>
<g id="a_node31"><a xlink:href="crosstab_8cpp.html" target="_top" xlink:title="/home/travis/build\l/PO&#45;31/QtReports/qtreports\l/src/tags/crosstab.cpp">
<polygon fill="none" stroke="black" points="1339,-390.5 1339,-431.5 1485,-431.5 1485,-390.5 1339,-390.5"/>
<text text-anchor="start" x="1347" y="-419.5" font-family="Helvetica,sans-Serif" font-size="10.00">/home/travis/build</text>
<text text-anchor="start" x="1347" y="-408.5" font-family="Helvetica,sans-Serif" font-size="10.00">/PO&#45;31/QtReports/qtreports</text>
<text text-anchor="middle" x="1412" y="-397.5" font-family="Helvetica,sans-Serif" font-size="10.00">/src/tags/crosstab.cpp</text>
</a>
</g>
</g>
<!-- Node30&#45;&gt;Node31 -->
<g id="edge49" class="edge"><title>Node30&#45;&gt;Node31</title>
<path fill="none" stroke="midnightblue" d="M1412,-458.297C1412,-449.301 1412,-439.653 1412,-431.506"/>
<polygon fill="midnightblue" stroke="midnightblue" points="1408.5,-458.428 1412,-468.428 1415.5,-458.428 1408.5,-458.428"/>
</g>
<!-- Node34&#45;&gt;Node30 -->
<g id="edge53" class="edge"><title>Node34&#45;&gt;Node30</title>
<path fill="none" stroke="midnightblue" d="M1509.21,-616.408C1502.1,-607.374 1494.19,-597.276 1487,-588 1465.99,-560.911 1441.95,-529.402 1426.87,-509.58"/>
<polygon fill="midnightblue" stroke="midnightblue" points="1506.53,-618.66 1515.46,-624.351 1512.03,-614.33 1506.53,-618.66"/>
</g>
<!-- Node35 -->
<g id="node35" class="node"><title>Node35</title>
<g id="a_node35"><a xlink:href="crosstabcell_8cpp.html" target="_top" xlink:title="/home/travis/build\l/PO&#45;31/QtReports/qtreports\l/src/tags/crosstabcell.cpp">
<polygon fill="none" stroke="black" points="1496,-546.5 1496,-587.5 1642,-587.5 1642,-546.5 1496,-546.5"/>
<text text-anchor="start" x="1504" y="-575.5" font-family="Helvetica,sans-Serif" font-size="10.00">/home/travis/build</text>
<text text-anchor="start" x="1504" y="-564.5" font-family="Helvetica,sans-Serif" font-size="10.00">/PO&#45;31/QtReports/qtreports</text>
<text text-anchor="middle" x="1569" y="-553.5" font-family="Helvetica,sans-Serif" font-size="10.00">/src/tags/crosstabcell.cpp</text>
</a>
</g>
</g>
<!-- Node34&#45;&gt;Node35 -->
<g id="edge54" class="edge"><title>Node34&#45;&gt;Node35</title>
<path fill="none" stroke="midnightblue" d="M1545.27,-615.466C1549.93,-606.143 1555,-596.007 1559.25,-587.506"/>
<polygon fill="midnightblue" stroke="midnightblue" points="1542.13,-613.919 1540.79,-624.428 1548.39,-617.049 1542.13,-613.919"/>
</g>
</g>
</svg>
