<?xml version="1.0" encoding="UTF-8" standalone="no"?>
<!DOCTYPE svg PUBLIC "-//W3C//DTD SVG 1.1//EN"
 "http://www.w3.org/Graphics/SVG/1.1/DTD/svg11.dtd">
<!-- Generated by graphviz version 2.38.0 (20140413.2041)
 -->
<!-- Title: /home/travis/build/PO&#45;31/QtReports/qtreports/src/tags/widget.cpp Pages: 1 -->
<svg width="477pt" height="274pt"
 viewBox="0.00 0.00 476.50 274.00" xmlns="http://www.w3.org/2000/svg" xmlns:xlink="http://www.w3.org/1999/xlink">
<g id="graph0" class="graph" transform="scale(1 1) rotate(0) translate(4 270)">
<title>/home/travis/build/PO&#45;31/QtReports/qtreports/src/tags/widget.cpp</title>
<!-- Node1 -->
<g id="node1" class="node"><title>Node1</title>
<polygon fill="#bfbfbf" stroke="black" points="195.5,-224.5 195.5,-265.5 341.5,-265.5 341.5,-224.5 195.5,-224.5"/>
<text text-anchor="start" x="203.5" y="-253.5" font-family="Helvetica,sans-Serif" font-size="10.00">/home/travis/build</text>
<text text-anchor="start" x="203.5" y="-242.5" font-family="Helvetica,sans-Serif" font-size="10.00">/PO&#45;31/QtReports/qtreports</text>
<text text-anchor="middle" x="268.5" y="-231.5" font-family="Helvetica,sans-Serif" font-size="10.00">/src/tags/widget.cpp</text>
</g>
<!-- Node2 -->
<g id="node2" class="node"><title>Node2</title>
<g id="a_node2"><a xlink:href="widget_8hpp.html" target="_top" xlink:title="widget.hpp">
<polygon fill="none" stroke="black" points="234.5,-168.5 234.5,-187.5 302.5,-187.5 302.5,-168.5 234.5,-168.5"/>
<text text-anchor="middle" x="268.5" y="-175.5" font-family="Helvetica,sans-Serif" font-size="10.00">widget.hpp</text>
</a>
</g>
</g>
<!-- Node1&#45;&gt;Node2 -->
<g id="edge1" class="edge"><title>Node1&#45;&gt;Node2</title>
<path fill="none" stroke="midnightblue" d="M268.5,-224.498C268.5,-216.065 268.5,-206.235 268.5,-197.874"/>
<polygon fill="midnightblue" stroke="midnightblue" points="272,-197.652 268.5,-187.652 265,-197.653 272,-197.652"/>
</g>
<!-- Node3 -->
<g id="node3" class="node"><title>Node3</title>
<polygon fill="none" stroke="#bfbfbf" points="0,-0.5 0,-19.5 53,-19.5 53,-0.5 0,-0.5"/>
<text text-anchor="middle" x="26.5" y="-7.5" font-family="Helvetica,sans-Serif" font-size="10.00">QString</text>
</g>
<!-- Node2&#45;&gt;Node3 -->
<g id="edge2" class="edge"><title>Node2&#45;&gt;Node3</title>
<path fill="none" stroke="midnightblue" d="M234.368,-171.866C200.462,-165.788 147.719,-153.647 106.5,-132 72.1405,-113.956 59.3198,-109.367 39.5,-76 31.1434,-61.9315 28.0592,-43.4389 26.9686,-29.7767"/>
<polygon fill="midnightblue" stroke="midnightblue" points="30.4565,-29.4476 26.4494,-19.6397 23.4656,-29.8057 30.4565,-29.4476"/>
</g>
<!-- Node4 -->
<g id="node4" class="node"><title>Node4</title>
<polygon fill="none" stroke="#bfbfbf" points="296.5,-112.5 296.5,-131.5 344.5,-131.5 344.5,-112.5 296.5,-112.5"/>
<text text-anchor="middle" x="320.5" y="-119.5" font-family="Helvetica,sans-Serif" font-size="10.00">QPoint</text>
</g>
<!-- Node2&#45;&gt;Node4 -->
<g id="edge3" class="edge"><title>Node2&#45;&gt;Node4</title>
<path fill="none" stroke="midnightblue" d="M277.087,-168.083C284.659,-160.22 295.878,-148.569 305.014,-139.081"/>
<polygon fill="midnightblue" stroke="midnightblue" points="307.658,-141.382 312.073,-131.751 302.615,-136.527 307.658,-141.382"/>
</g>
<!-- Node5 -->
<g id="node5" class="node"><title>Node5</title>
<polygon fill="none" stroke="#bfbfbf" points="362.5,-112.5 362.5,-131.5 406.5,-131.5 406.5,-112.5 362.5,-112.5"/>
<text text-anchor="middle" x="384.5" y="-119.5" font-family="Helvetica,sans-Serif" font-size="10.00">QSize</text>
</g>
<!-- Node2&#45;&gt;Node5 -->
<g id="edge4" class="edge"><title>Node2&#45;&gt;Node5</title>
<path fill="none" stroke="midnightblue" d="M286.881,-168.444C305.716,-159.675 335.231,-145.935 356.879,-135.858"/>
<polygon fill="midnightblue" stroke="midnightblue" points="358.617,-138.91 366.205,-131.516 355.662,-132.564 358.617,-138.91"/>
</g>
<!-- Node6 -->
<g id="node6" class="node"><title>Node6</title>
<polygon fill="none" stroke="#bfbfbf" points="424.5,-112.5 424.5,-131.5 468.5,-131.5 468.5,-112.5 424.5,-112.5"/>
<text text-anchor="middle" x="446.5" y="-119.5" font-family="Helvetica,sans-Serif" font-size="10.00">QRect</text>
</g>
<!-- Node2&#45;&gt;Node6 -->
<g id="edge5" class="edge"><title>Node2&#45;&gt;Node6</title>
<path fill="none" stroke="midnightblue" d="M296.705,-168.444C328.776,-158.714 381.022,-142.864 414.565,-132.688"/>
<polygon fill="midnightblue" stroke="midnightblue" points="415.779,-135.977 424.332,-129.725 413.747,-129.279 415.779,-135.977"/>
</g>
<!-- Node7 -->
<g id="node7" class="node"><title>Node7</title>
<polygon fill="none" stroke="#bfbfbf" points="147.5,-0.5 147.5,-19.5 239.5,-19.5 239.5,-0.5 147.5,-0.5"/>
<text text-anchor="middle" x="193.5" y="-7.5" font-family="Helvetica,sans-Serif" font-size="10.00">QSharedPointer</text>
</g>
<!-- Node2&#45;&gt;Node7 -->
<g id="edge6" class="edge"><title>Node2&#45;&gt;Node7</title>
<path fill="none" stroke="midnightblue" d="M269.066,-168.399C270.037,-147.576 270.143,-93.4138 248.5,-56 241.188,-43.36 228.881,-32.7888 217.76,-25.0754"/>
<polygon fill="midnightblue" stroke="midnightblue" points="219.505,-22.0353 209.214,-19.5171 215.688,-27.9033 219.505,-22.0353"/>
</g>
<!-- Node8 -->
<g id="node8" class="node"><title>Node8</title>
<g id="a_node8"><a xlink:href="style_8hpp.html" target="_top" xlink:title="style.hpp">
<polygon fill="none" stroke="black" points="132.5,-112.5 132.5,-131.5 192.5,-131.5 192.5,-112.5 132.5,-112.5"/>
<text text-anchor="middle" x="162.5" y="-119.5" font-family="Helvetica,sans-Serif" font-size="10.00">style.hpp</text>
</a>
</g>
</g>
<!-- Node2&#45;&gt;Node8 -->
<g id="edge7" class="edge"><title>Node2&#45;&gt;Node8</title>
<path fill="none" stroke="midnightblue" d="M251.469,-168.324C234.47,-159.664 208.124,-146.242 188.507,-136.249"/>
<polygon fill="midnightblue" stroke="midnightblue" points="189.988,-133.075 179.488,-131.655 186.81,-139.312 189.988,-133.075"/>
</g>
<!-- Node10 -->
<g id="node10" class="node"><title>Node10</title>
<g id="a_node10"><a xlink:href="object_8hpp.html" target="_top" xlink:title="object.hpp">
<polygon fill="none" stroke="black" points="67,-56.5 67,-75.5 134,-75.5 134,-56.5 67,-56.5"/>
<text text-anchor="middle" x="100.5" y="-63.5" font-family="Helvetica,sans-Serif" font-size="10.00">object.hpp</text>
</a>
</g>
</g>
<!-- Node2&#45;&gt;Node10 -->
<g id="edge15" class="edge"><title>Node2&#45;&gt;Node10</title>
<path fill="none" stroke="midnightblue" d="M234.219,-174.956C201.717,-171.242 153.519,-160.865 123.5,-132 110.973,-119.954 105.257,-100.664 102.656,-86.2221"/>
<polygon fill="midnightblue" stroke="midnightblue" points="106.06,-85.3071 101.167,-75.9099 99.132,-86.3074 106.06,-85.3071"/>
</g>
<!-- Node8&#45;&gt;Node3 -->
<g id="edge8" class="edge"><title>Node8&#45;&gt;Node3</title>
<path fill="none" stroke="midnightblue" d="M132.094,-114.193C109.17,-107.713 78.2384,-95.9226 57.5,-76 44.2801,-63.3002 36.0343,-43.8251 31.4014,-29.5019"/>
<polygon fill="midnightblue" stroke="midnightblue" points="34.7142,-28.3608 28.5403,-19.7507 27.9973,-30.3316 34.7142,-28.3608"/>
</g>
<!-- Node8&#45;&gt;Node7 -->
<g id="edge10" class="edge"><title>Node8&#45;&gt;Node7</title>
<path fill="none" stroke="midnightblue" d="M164.933,-112.368C169.958,-94.5366 181.58,-53.2953 188.351,-29.2717"/>
<polygon fill="midnightblue" stroke="midnightblue" points="191.735,-30.1659 191.079,-19.5914 184.997,-28.2671 191.735,-30.1659"/>
</g>
<!-- Node9 -->
<g id="node9" class="node"><title>Node9</title>
<polygon fill="none" stroke="#bfbfbf" points="191,-56.5 191,-75.5 240,-75.5 240,-56.5 191,-56.5"/>
<text text-anchor="middle" x="215.5" y="-63.5" font-family="Helvetica,sans-Serif" font-size="10.00">QColor</text>
</g>
<!-- Node8&#45;&gt;Node9 -->
<g id="edge9" class="edge"><title>Node8&#45;&gt;Node9</title>
<path fill="none" stroke="midnightblue" d="M171.252,-112.083C178.97,-104.22 190.405,-92.5688 199.717,-83.0813"/>
<polygon fill="midnightblue" stroke="midnightblue" points="202.404,-85.3396 206.911,-75.7511 197.408,-80.4363 202.404,-85.3396"/>
</g>
<!-- Node8&#45;&gt;Node10 -->
<g id="edge11" class="edge"><title>Node8&#45;&gt;Node10</title>
<path fill="none" stroke="midnightblue" d="M152.539,-112.324C143.373,-104.341 129.563,-92.3128 118.472,-82.6529"/>
<polygon fill="midnightblue" stroke="midnightblue" points="120.482,-79.7624 110.643,-75.8339 115.885,-85.041 120.482,-79.7624"/>
</g>
<!-- Node10&#45;&gt;Node3 -->
<g id="edge12" class="edge"><title>Node10&#45;&gt;Node3</title>
<path fill="none" stroke="midnightblue" d="M88.6106,-56.324C77.3498,-48.1066 60.2134,-35.6017 46.7909,-25.8069"/>
<polygon fill="midnightblue" stroke="midnightblue" points="48.7468,-22.9014 38.6057,-19.8339 44.6205,-28.5559 48.7468,-22.9014"/>
</g>
<!-- Node10&#45;&gt;Node7 -->
<g id="edge14" class="edge"><title>Node10&#45;&gt;Node7</title>
<path fill="none" stroke="midnightblue" d="M115.442,-56.324C130.085,-47.8215 152.634,-34.7288 169.738,-24.7975"/>
<polygon fill="midnightblue" stroke="midnightblue" points="171.705,-27.7027 178.595,-19.6545 168.19,-21.6491 171.705,-27.7027"/>
</g>
<!-- Node11 -->
<g id="node11" class="node"><title>Node11</title>
<polygon fill="none" stroke="#bfbfbf" points="71.5,-0.5 71.5,-19.5 129.5,-19.5 129.5,-0.5 71.5,-0.5"/>
<text text-anchor="middle" x="100.5" y="-7.5" font-family="Helvetica,sans-Serif" font-size="10.00">QVariant</text>
</g>
<!-- Node10&#45;&gt;Node11 -->
<g id="edge13" class="edge"><title>Node10&#45;&gt;Node11</title>
<path fill="none" stroke="midnightblue" d="M100.5,-56.083C100.5,-49.0059 100.5,-38.8611 100.5,-29.9865"/>
<polygon fill="midnightblue" stroke="midnightblue" points="104,-29.751 100.5,-19.7511 97.0001,-29.7511 104,-29.751"/>
</g>
</g>
</svg>
